<?xml version="1.0" encoding="UTF-8" standalone="no"?>
<!DOCTYPE svg PUBLIC "-//W3C//DTD SVG 1.1//EN" "http://www.w3.org/Graphics/SVG/1.1/DTD/svg11.dtd">
<svg width="100%" height="100%" viewBox="0 0 58 60" version="1.1" xmlns="http://www.w3.org/2000/svg" xmlns:xlink="http://www.w3.org/1999/xlink" xml:space="preserve" xmlns:serif="http://www.serif.com/" style="fill-rule:evenodd;clip-rule:evenodd;stroke-linejoin:round;stroke-miterlimit:2;">
    <g transform="matrix(0.057042,0,0,0.058594,-0.300196,0.000059)">
        <path d="M511.955,12.403C487.245,12.403 462.522,21.783 443.739,40.566L333.1,151.205L227.912,151.205C185.675,151.205 151.125,185.755 151.125,227.992L151.125,333.14L40.486,443.779C2.949,481.348 2.949,542.681 40.486,580.25L151.125,690.889L151.125,795.998C151.125,838.235 185.675,872.785 227.912,872.785L333.1,872.785L443.739,983.463C462.524,1002.232 487.241,1011.626 511.955,1011.626C536.669,1011.626 561.386,1002.231 580.171,983.463L690.81,872.785L795.998,872.785C838.235,872.785 872.785,838.235 872.785,795.998L872.785,690.889L983.424,580.25C1020.991,542.683 1020.991,481.345 983.424,443.779L872.785,333.14L872.785,227.992C872.785,185.755 838.235,151.205 795.998,151.205L690.81,151.205L580.171,40.566C561.388,21.783 536.665,12.403 511.955,12.403Z" style="fill:rgb(247,188,63);fill-rule:nonzero;"/>
    </g>
    <g transform="matrix(0.058594,0,0,0.058594,-0.000176,0.000059)">
        <path d="M945.76,579.93L839.579,690.089L839.579,794.825C839.579,836.996 806.529,871.293 765.891,871.293L664.963,871.293L558.782,981.481C540.742,1000.201 517.032,1009.576 493.322,1009.576C469.612,1009.576 445.902,1000.23 427.862,981.481L321.709,871.293L220.781,871.293C180.143,871.293 147.093,836.996 147.093,794.825L147.093,690.089L40.912,579.93C4.805,542.46 4.805,481.539 40.912,444.07L147.093,333.882L147.093,229.146C147.093,187.003 180.143,152.678 220.781,152.678L321.709,152.678L427.862,42.519C462.857,6.203 523.842,6.203 558.782,42.519L664.963,152.678L765.891,152.678C806.529,152.678 839.579,187.004 839.579,229.146L839.579,333.882L945.76,444.07C981.839,481.54 981.839,542.461 945.76,579.93ZM955.544,433.916L853.421,327.939L853.421,229.173C853.421,179.069 814.145,138.311 765.891,138.311L670.689,138.311L568.566,32.334C548.469,11.479 521.757,-0.001 493.322,-0.001C464.914,-0.001 438.174,11.479 418.078,32.334L315.955,138.311L220.781,138.311C172.499,138.311 133.251,179.069 133.251,229.144L133.251,327.938L31.128,433.915C-10.372,476.952 -10.372,547.017 31.128,590.082L133.251,696.059L133.251,794.825C133.251,844.929 172.499,885.687 220.781,885.687L315.955,885.687L418.078,991.635C438.175,1012.49 464.915,1023.999 493.322,1023.999C521.757,1023.999 548.47,1012.49 568.566,991.635L670.689,885.687L765.891,885.687C814.145,885.687 853.421,844.929 853.421,794.825L853.421,696.059L955.544,590.082C997.016,547.016 997.016,476.952 955.544,433.915L955.544,433.916Z" style="fill:rgb(69,28,21);fill-rule:nonzero;"/>
        <path d="M802.909,768.375C808.663,763.183 809.052,753.26 802.214,748.991C793.847,743.741 778.726,745.76 770.276,750.174C761.548,754.76 755.294,768.433 767.941,772.039C772.805,773.424 776.057,772.356 780.505,772.327C785.897,772.298 790.706,772.587 796.154,771.75C799.017,771.288 800.879,770.221 802.908,768.375L802.909,768.375ZM772.055,712.733C759.491,694.301 716.268,707.224 701.647,718.329C690.417,726.867 689.194,735.059 703.704,740.251C721.243,746.51 736.809,745.155 754.404,739.963C760.13,738.261 770.22,733.531 772.527,727.444C772.805,726.723 774.528,720.435 774.556,720.031C774.584,719.656 772.277,713.05 772.054,712.733L772.055,712.733ZM582.596,666.811L584.069,723.895C585.681,727.356 591.824,726.289 594.882,726.981C597.106,727.5 599.135,729.116 601.192,729.404C608.058,730.442 611.143,728.106 611.115,720.952C611.059,706.212 600.469,694.703 593.075,683.223C589.517,677.714 587.154,671.195 582.596,666.81L582.596,666.811ZM792.012,669.35C793.485,657.812 779.337,635.053 768.441,633.697C759.796,632.601 755.877,634.735 748.511,636.293C725.968,641.024 703.731,645.523 681.55,650.917C668.68,654.061 655.783,657.321 642.941,660.551L665.789,707.713L792.012,669.35ZM457.375,624.957C454.595,623.255 432.331,620.573 427.883,620.169C386.828,616.621 354.473,618.784 321.702,646.216C317.866,649.418 314.558,653.514 310.945,656.975C315.448,656.427 320.479,658.994 324.343,659.6C338.519,661.821 364.342,641.918 381.186,644.485C391.193,646.043 399.893,643.735 410.567,644.398C429.496,645.609 447.703,649.792 465.103,655.849C481.725,661.618 493.733,666.666 506.686,678.896C512.495,684.405 523.503,694.27 528.117,700.53C531.564,705.174 532.898,711.058 536.289,715.76L560.166,721.414C559.388,715.818 560.277,713.741 557.748,708.232C554.19,700.502 551.911,695.425 547.352,688.617C544.962,685.098 543.099,678.175 540.347,674.656C537.262,670.675 527.505,662.599 523.503,658.762C507.909,643.936 490.676,637.157 471.163,629.859C465.131,627.58 462.935,628.417 457.376,624.955L457.375,624.957ZM749.901,625.649C747.844,621.236 752.959,618.842 753.07,618.092C753.153,617.544 752.458,616.361 752.514,615.381C752.597,613.448 753.959,611.804 752.125,610.391C740.089,604.16 730.583,593.574 716.685,592.565C704.538,591.642 692.808,594.93 681.078,596.748C658.952,600.181 637.299,603.671 615.034,606.094C613.839,606.209 608.446,607.104 608.474,608.2L636.576,648.727C644.164,648.064 651.113,644.775 658.424,643.045C682.329,637.507 706.039,633.815 730.388,630.036C736.753,629.055 742.924,624.354 749.901,625.652L749.901,625.649ZM293.905,615.121C294.85,621.669 292.571,642.755 298.881,645.754C301.132,646.85 307.553,644.889 309.694,643.591C310.389,643.187 320.757,634.822 321.313,634.188C322.258,633.178 322.981,632.227 323.342,630.842L323.87,591.642C316.337,593.805 311.39,600.353 304.468,604.132L293.905,615.121ZM781.228,628.938C782.284,630.063 784.369,630.698 785.648,631.938C794.154,640.13 808.469,657.927 807.718,633.236C807.468,625.39 801.658,619.131 798.517,612.323L780.95,590.747C782.479,601.275 778.17,612.987 779.143,623.457C779.365,625.649 779.699,627.265 781.228,628.938ZM546.711,619.909C542.43,612.957 535.064,604.823 529.116,599.227C527.698,597.871 516.385,587.747 515.329,588.958C517.191,603.842 514.356,618.87 514.912,633.697C516.941,635.774 518.664,638.37 521.5,639.379C523.029,639.927 525.419,639.639 526.337,640.187C528.116,641.283 533.564,650.023 536.955,651.985C546.934,657.812 545.349,649.706 546.406,644.053C546.684,642.553 547.879,641.572 548.129,639.582C548.546,636.496 549.018,627.525 548.991,624.323C548.963,620.833 547.518,621.208 546.712,619.91L546.711,619.909ZM690.39,585.382C690.89,582.872 687.694,583.046 687.082,581.199C686.554,579.584 687.527,577.449 686.109,575.949C685.609,575.43 677.826,572.891 676.992,572.92C675.074,572.978 672.378,573.612 669.292,573.699C648.5,574.42 625.18,576.612 604.666,580.103C598.356,581.199 592.38,583.564 586.015,584.055C586.043,585.036 597.217,597.18 598.495,597.958C600.191,598.996 607.612,598.362 609.586,597.727C612.838,596.717 611.309,596.717 615.673,596.025C635.353,592.852 655.505,592.679 675.212,588.871C679.937,587.977 685.274,585.006 690.389,585.381L690.39,585.382ZM574.813,572.863C577.815,582.815 587.877,575.719 594.937,577.219L596.382,575.084L595.076,572.863L574.813,572.863ZM473.913,613.131C472.829,609.439 475.442,605.776 475.692,602.891C475.97,599.545 476.026,574.911 475.247,573.7C470.244,571.017 464.407,570.989 458.931,570.066C457.569,569.835 456.568,568.624 455.345,568.422C450.731,567.701 445.144,568.97 440.307,567.47L441.196,607.709C452.398,608.142 463.072,610.767 473.912,613.132L473.913,613.131ZM394.583,564.786C384.437,566.315 373.736,566.228 364.535,571.19L363.534,609.554L394.582,605.054C393.109,597.843 392.414,591.583 392.914,584.084C393.053,581.892 394.526,577.219 394.637,575.142C394.804,571.709 394.415,568.219 394.581,564.787L394.583,564.786ZM744.37,567.18C745.454,563.43 745.037,561.065 745.343,557.315C734.892,547.392 721.883,540.21 708.485,535.277C710.57,549.382 707.623,563.401 710.292,577.535C712.627,581.487 718.297,580.823 721.466,582.208C724.802,583.65 730.055,587.948 733.502,588.583C734.558,588.785 739.728,587.343 740.201,586.997C740.562,586.737 742.814,579.526 742.925,578.603C743.648,573.555 742.953,572.199 744.37,567.18ZM523.613,550.825C471.884,525.384 393.888,520.653 341.771,545.344C336.351,547.911 335.878,547.479 330.819,549.18C327.011,550.449 316.532,557.776 312.251,560.372C285.789,576.468 262.274,596.601 241.982,620.745C238.646,624.726 226.166,641.023 225.749,645.119C225.61,646.388 225.86,647.686 226.638,648.696C230.168,651.609 233.809,648.523 238.173,648.148C243.649,647.658 251.293,648.667 256.379,646.446C258.519,645.523 268.053,633.956 270.388,631.216C281.117,618.524 292.069,600.784 305.522,591.669C310.97,587.977 317.391,585.64 323.089,582.294C324.117,581.688 325.73,582.034 326.286,581.631C327.092,581.054 326.814,578.429 327.509,577.535C327.787,577.189 334.263,574.045 335.348,573.554C346.661,568.448 371.928,559.824 383.824,558.555C398.417,556.969 424.823,555.786 439.027,557.574C441.001,557.805 440.167,559.91 442.418,560.343C446.365,561.093 452.174,559.68 456.288,560.285C490.088,565.189 515.688,574.909 540.899,599.11C551.906,609.696 562.747,621.898 571.864,634.532C578.341,643.474 584.622,652.358 590.71,661.531C605.303,683.482 617.533,703.587 628.707,727.673C629.374,729.058 632.043,737.74 632.515,737.971L662.229,744.577C664.008,743.942 664.342,738.693 663.813,736.991C663.424,735.78 662.284,735.78 662.006,735.001C647.58,693.81 627.094,658.619 601.883,623.544C578.173,590.603 560.856,570.671 524.637,552.181C524.025,551.864 523.859,550.97 523.609,550.825L523.613,550.825ZM588.6,524.519C586.126,526.019 572.089,526.74 571.45,527.346C571.2,527.577 571.672,529.019 570.811,529.942C565.585,535.596 560.971,531.009 560.665,542.865C560.526,547.653 560.192,564.153 564.501,566.114C568.42,567.931 582.902,566.979 586.766,563.749L588.6,524.519ZM661.927,521.836C652.865,519.125 640.691,517.913 631.268,519.125C629.239,519.385 627.821,520.798 625.82,521.058C625.82,531.817 625.292,542.894 626.598,553.595C627.015,557.114 627.237,564.181 630.073,566.085C633.52,568.364 658.508,568.595 660.649,564.816L661.927,521.836ZM263.83,501.587C267.082,498.616 268.528,498.529 265.22,493.655C259.299,484.915 241.565,484.309 232.699,487.626C222.331,491.491 218.023,501.76 231.393,505.481C239.509,507.76 257.716,507.183 263.831,501.587L263.83,501.587ZM222.608,483.905C228.223,476.723 225.332,466.713 218.967,461.117C206.014,449.81 172.436,450.589 158.844,461.117C151.812,466.569 153.896,478.799 160.957,483.732C170.547,490.453 199.121,492.991 210.518,491.491C212.019,491.289 211.63,490.02 212.436,489.703C216.522,488.088 219.607,487.799 222.609,483.905L222.608,483.905ZM247.792,450.502C236.173,451.8 219.885,461.953 234.617,472.626C238.925,475.741 244.846,475.482 250.044,476.289C257.299,477.443 266.666,479.347 274.227,477.933C275.033,477.789 287.069,472.626 287.653,472.164C288.431,471.558 290.46,468.068 290.655,467.231C290.738,466.712 287.403,458.635 286.819,457.828C280.287,448.684 257.8,449.405 247.793,450.501L247.792,450.502ZM789.566,527.201C794.041,527.893 796.32,533.576 801.213,533.518C803.159,533.518 804.215,532.22 805.716,531.874C833.123,525.788 871.204,517.538 894.719,500.75C914.982,486.27 900.695,477.385 884.99,469.799C874.594,464.78 865.088,463.136 854.609,461.059C833.067,456.761 812.164,454.569 790.9,451.079C780.643,449.377 769.997,446.579 759.768,444.906C688.943,433.455 616.618,427.57 544.181,424.339C531.589,423.762 519.665,421.253 507.157,420.676C497.206,420.214 487.283,421.195 477.387,421.628C477.304,422.955 480.472,423.214 481.362,423.272C511.827,425.464 542.124,429.185 572.672,432.329C583.512,433.454 594.659,434.665 605.416,435.963C615.033,437.117 627.625,435.444 637.382,436.771C640.551,437.233 642.747,440.002 645.943,440.434C656.672,441.876 670.32,441.271 681.272,442.165C704.565,444.098 729.554,446.607 752.847,450.299C779.865,454.597 808.689,462.818 834.873,465.414C848.465,466.77 862.336,468.5 875.594,472.395C882.376,474.385 885.934,476.751 891.243,480.27C897.608,484.481 895.134,491.116 889.909,494.866C885.851,497.751 880.069,499.366 875.622,501.356C850.466,512.49 822.726,518.75 796.514,525.932L789.566,527.201ZM450.426,450.935C451.065,449.839 450.787,440.32 450.259,438.56C449.898,437.377 444.672,431.839 443.644,431.118C438.14,427.195 424.937,424.311 418.488,422.291C414.736,421.137 404.256,415.282 401.06,418.887L390.275,447.155C390.247,450.328 394.166,448.915 395.834,449.405C406.369,452.405 416.042,452.001 426.91,452.924C433.248,453.472 439.724,454.135 445.923,455.664L447.229,455.231C447.285,452.779 450.064,451.539 450.426,450.933L450.426,450.935ZM326.733,415.051C326.121,414.388 326.566,412.426 325.065,411.878C319.645,409.83 317.504,413.955 314.03,415.426C307.025,418.368 304.857,420.243 298.631,423.618C295.462,425.349 293.906,423.301 290.737,427.945C288.013,431.926 286.679,439.454 291.654,442.079C295.518,444.098 300.938,442.685 305.33,443.089C318.895,444.358 331.653,445.858 345.44,444.877L334.627,422.493C332.292,420.099 328.957,417.387 326.733,415.051ZM445.367,421.513C447.869,413.84 445.033,399.014 439.002,393.879C437.418,392.523 432.359,389.61 430.385,389.379C426.521,388.889 410.316,388.571 408.315,391.571C407.87,392.234 405.174,406.945 405.285,407.782C405.674,410.609 417.626,414.561 420.628,415.599C425.659,417.387 431.135,418.224 436.194,419.897C436.972,420.128 436.833,421.426 437.445,421.57C438.418,421.83 445.061,421.772 445.367,421.512L445.367,421.513ZM396.835,393.331C390.303,387.591 384.827,389.61 376.877,389.437C369.066,389.235 360.672,388.543 352.75,389.379C351.138,389.552 346.273,392.437 344.661,393.504C331.764,402.129 333.209,407.552 339.908,420.618C344.077,428.695 350.498,436.281 354.195,444.732C362.284,443.809 371.985,449.29 379.712,449.116C380.768,449.116 380.991,448.828 381.658,448.049C383.465,446.059 388.635,434.088 390.052,430.771C392.887,423.992 400.976,403.397 399.781,396.965C399.559,395.898 397.696,394.08 396.835,393.331ZM286.79,390.274L286.79,414.908C286.79,420.619 302.606,413.783 305.108,412.427C312.391,408.475 319.729,403.341 326.789,398.697C330.486,396.274 336.156,395.553 335.99,390.707C335.934,388.832 331.848,388.659 330.264,388.486C321.397,387.621 302.913,387.563 294.101,388.486C291.488,388.774 289.403,390.274 286.791,390.274L286.79,390.274ZM175.299,434.782C176.967,432.042 177.495,420.792 178.245,416.754C179.802,408.649 182.47,402.735 181.608,393.389C181.163,388.226 180.051,387.13 175.159,386.668C167.376,385.918 149.92,385.774 142.332,386.697C141.081,386.841 139.302,387.101 138.441,388.024C135.356,391.283 141.054,406.283 142.972,410.206C144.779,413.927 153.312,428.205 155.73,430.974C159.455,435.243 161.289,434.262 166.209,435.301C168.405,435.763 172.88,438.762 175.298,434.782L175.299,434.782ZM476.86,294.018C480.029,291.826 482.086,290.412 481.252,285.595C471.94,293.96 457.208,292.835 445.645,296.931C442.754,297.969 440.253,300.508 436.917,300.883L437.723,307.056C444.783,303.306 452.177,300.364 459.932,298.345C465.741,296.816 471.829,297.508 476.86,294.018ZM419.6,162.974C415.959,163.493 415.041,166.58 411.15,168.08C406.452,169.868 400.226,170.532 395.445,172.378L389.413,176.849C394.333,181.724 393.416,179.041 396.974,177.541C405.924,173.733 416.431,174.166 419.6,162.974ZM335.072,174.599L358.81,150.398L376.905,162.08C380.824,165.426 379.49,172.32 384.215,173.705C384.715,165.657 380.685,158.936 385.994,151.812C395.528,138.976 411.177,139.812 420.016,130.755C421.017,129.745 423.741,125.159 420.905,126.284C419.043,127.034 415.679,130.524 412.566,131.966C407.118,134.476 401.809,134.562 396.5,136.754C393.081,138.167 386.855,144.513 388.578,136.754C388.745,136.004 390.135,136.062 390.552,135.052C391.553,132.485 391.414,128.591 392.442,125.418C394.026,120.687 399.502,110.015 403.255,107.101C407.702,103.668 411.316,103.957 414.985,102.342C423.157,98.65 432.747,94.006 435.137,84.227C437.277,83.881 437.472,87.4 439.084,89.506C450.675,104.909 472.578,108.573 480.389,126.283C482.529,131.129 483.502,136.263 484.28,141.484C483.224,142.58 477.998,137.878 476.692,137.273C467.297,132.86 455.9,131.244 448.924,122.706C448.59,127.206 450.842,130.379 454.177,132.917C459.458,136.955 468.131,138.455 474.524,142.234C475.552,142.84 484.169,147.801 482.557,149.532C481.723,149.503 480.806,149.647 480.083,150.08C467.603,157.407 451.814,164.128 443.364,176.473C439.862,181.579 434.302,194.155 433.469,200.184C432.857,204.511 434.748,212.818 434.108,215.126C433.691,216.597 430.022,220.433 428.91,223.203C424.935,233.356 424.212,246.366 425.88,257.125C426.492,261.221 426.297,262.49 426.658,266.096C426.964,269.269 429.326,273.221 429.521,276.653C432.245,263.644 442.474,253.808 454.26,249.51C458.985,247.808 464.433,247.433 468.909,245.904C470.632,245.327 483.78,239.125 484.336,238.433C484.614,238.087 488.172,231.02 488.394,230.356C488.839,229.087 489.033,227.933 487.31,228.308C485.726,229.404 485.17,231.567 483.835,232.779C471.104,244.288 454.065,241.404 440,250.836C438.916,251.557 431.522,258.768 430.799,257.845C431.216,254.614 429.854,251.614 429.854,248.442C429.91,241.865 431.355,230.991 434.218,225.135C441.111,211.001 468.491,205.232 480.86,198.367C485.558,195.742 493.507,189.512 493.34,183.569C491.811,184.78 490.533,186.944 489.004,188.011C477.552,196.03 466.823,197.501 454.954,202.809C448.95,205.492 443.224,210.164 437.276,213.078C438.221,197.934 442.029,184.464 453.203,174.137C459.818,168.051 465.878,166.753 473.105,162.57C486.308,154.926 499.789,146.878 505.849,131.648L515.744,149.561C524.083,158.734 536.536,162.714 546.292,169.753C548.071,171.051 555.465,179.387 556.465,181.118C556.771,181.695 559.773,193.233 559.801,193.868C559.884,195.801 560.107,197.185 560.218,199.175C560.552,205.521 559.051,211.434 561.024,217.549L558.8,216.741L557.16,218.443C554.325,215.674 550.961,213.395 547.654,211.289C542.484,208.001 536.23,205.145 531.143,202.03C530.726,201.77 521.998,193.665 523.944,198.309C524.278,199.117 531.088,206.963 532.116,207.741C548.571,220.087 570.03,221.962 573.032,247.605C573.727,253.547 571.058,257.037 571.281,260.066C571.42,262.287 573.727,266.383 573.088,269.469L523.055,238.605C522.999,243.163 525.807,242.355 527.141,243.768C537.592,254.96 548.322,258.623 560.107,267.306C563.22,269.585 564.638,271.921 566.389,273.738C566.889,274.228 568.279,273.651 568.863,274.488C569.613,275.526 570.725,280.372 571.448,282.161C571.726,282.824 572.754,282.882 573.005,283.603C574.367,287.468 574.673,292.285 575.701,296.324L551.24,304.285C546.042,297.276 538.343,293.93 530.782,290.555C528.086,289.344 527.724,286.603 523.944,288.276C523.666,289.949 525.556,288.68 526.334,289.343C526.584,289.516 526.946,291.824 528.196,293.237C531.671,297.189 539.453,300.448 542.928,303.91C543.762,304.718 545.346,305.756 544.234,307.083L489.448,328.082C480.47,332.611 471.047,336.274 462.124,340.889C454.675,344.754 448.17,349.687 440.415,352.802L441.165,359.869C443.139,361.686 464.875,348.302 468.405,346.543C536.311,312.823 604.495,293.612 679.6,286.488C724.491,282.219 770.243,282.19 814.55,290.959L814.55,331.227C806.989,330.333 799.29,330.823 791.729,330.304C747.116,327.333 698.64,321.304 654.805,333.246C653.777,333.534 653.221,334.919 652.025,334.804L647.689,325.862C644.492,328.516 650.691,333.766 646.41,335.698C644.325,329.525 636.793,327.996 633.04,323.179C631.317,324.275 631.984,325.371 633.096,326.669C633.763,327.448 643.909,334.89 642.936,335.698L626.564,330.333C626.091,332.871 627.203,331.775 628.454,332.352C630.789,333.448 634.069,333.881 635.181,336.592L620.171,337.544C565.885,349.428 508.18,362.264 458.147,388.686C455.923,389.869 451.504,390.994 448.919,392.09C448.057,395.205 453.311,393.792 454.812,393.273C464.874,389.84 476.66,380.668 485.971,377.293C502.315,371.38 521.939,366.851 538.756,362.265C579.561,351.131 618.781,342.737 660.559,335.612C710.675,327.074 754.788,329.526 805.488,333.016C808.379,333.218 811.409,334.574 814.577,333.91L814.577,342.39L886.986,418.916C885.29,419.147 884.79,417.531 883.095,417.156C866.473,413.637 848.211,417.416 832.256,411.675C825.224,409.137 807.1,411.185 798.539,410.031C796.843,409.829 797.789,408.243 796.037,408.127C793.452,407.983 786.308,410.146 785.752,409.973C772.493,405.964 746.532,408.329 730.493,407.925C691.439,406.973 652.497,406.771 613.221,405.473C562.632,403.771 512.571,403.252 462.121,404.262C457.368,404.349 447.333,400.57 450.725,408.964C453.477,409.945 456.451,408.185 458.869,408.156C486.61,407.868 513.655,408.185 541.59,409.108C599.879,411.069 660.252,411.56 717.512,413.579C726.435,413.896 738.637,412.31 746.92,413.492C773.076,417.3 800.567,416.03 827.056,418.05C844.568,419.377 862.496,421.858 879.869,424.973C889.625,426.733 895.991,424.569 902.523,434.578C898.27,434.376 893.878,433.482 889.709,432.674C861.19,427.136 831.921,422.232 802.874,421.655C799.511,421.597 801.29,421.02 796.842,421.568C792.172,422.145 791.561,420.241 788.309,419.78C770.38,417.155 747.921,421.222 729.548,419.809C720.931,419.146 714.288,416.867 704.754,416.809C666.034,416.607 627.925,416.059 589.094,414.415C569.748,413.578 545.76,410.867 526.914,412.598C525.079,412.771 523.717,414.444 522.828,414.271C507.457,411.704 486.443,411.733 470.126,411.242C464.817,411.069 458.73,412.425 453.226,411.761C452.67,412.28 454.199,415.194 455.005,415.742C458.535,418.194 482.912,417.127 489.055,417.184C497.922,417.242 506.789,417.79 515.712,417.992C535.586,418.396 556.656,416.723 576.141,418.136C577.976,418.251 581.255,421.136 583.924,421.54C595.042,423.271 610.664,422.29 622.672,423.213C670.037,426.876 717.818,432.04 764.96,437.722C787.28,440.405 808.683,445.654 830.559,450.212C855.075,455.289 882.427,456.673 903.302,473.173C911.335,479.519 917.339,487.076 908.945,496.739C904.859,501.412 896.826,505.969 891.711,509.287C869.78,523.421 842.289,531.353 818.246,538.796C816.467,539.344 808.629,539.546 807.656,540.642L822.888,555.266C826.585,561.872 833.312,567.179 837.815,573.323C844.292,582.092 848.767,592.995 855.076,601.937L900.801,589.851C895.297,596.514 890.572,602.139 882.511,605.312C879.398,606.552 876.062,606.927 873.033,608.023C869.392,609.321 865.723,612.263 861.136,612.234C862.359,616.099 865.639,617.484 865.528,621.984L869.753,622.503L860.691,631.906L831.31,580.071C800.873,542.659 768.38,513.612 723.294,497.084C709.785,492.123 694.025,487.046 679.793,484.94C631.4,477.729 600.324,480.209 554.822,499.564C537.95,506.718 524.747,518.025 509.347,525.928C506.679,527.284 503.426,527.832 500.647,529.014C499.98,532.129 503.343,530.312 505.233,530.802C505.9,530.975 505.761,532.388 506.428,532.562C508.596,533.11 511.626,532.072 513.85,532.591C514.545,532.735 514.462,534.149 515.518,534.61C517.38,535.447 527.665,539.427 528.666,539.398C531.029,539.283 540.591,532.591 543.593,531.033C555.962,524.716 565.218,520.505 578.783,517.447C623.952,507.265 662.644,508.072 706.923,524.802C730.022,533.542 757.734,551.916 776.163,568.387C781.611,573.291 781.611,577.531 786.114,583.127C793.508,592.386 801.791,601.069 809.769,609.607C814.467,614.626 813.799,618.261 816.107,623.597C820.249,633.116 825.919,641.279 829.56,650.798C830.839,654.202 833.646,658.788 831.867,661.932C829.032,666.922 818.553,673.96 814.995,679.354L814.522,699.892C804.321,702.171 786.309,711.92 789.756,725.218C792.397,735.371 806.851,733.756 814.578,736.237L814.161,805.581C810.381,826.349 793.23,843.08 772.773,844.926L655.64,845.099L564.079,939.826C563.356,940.663 562.634,940.547 561.689,940.518C559.382,940.403 547.541,935.412 544.455,934.114C511.461,920.24 447.224,892.289 424.793,865.001C395.357,829.204 410.422,789.86 438.858,760.207C456.981,741.313 477.995,731.65 497.869,716.016C500.232,714.17 504.429,713.218 505.819,709.785C502.067,709.9 501.733,705.602 500.093,704.535C497.675,702.949 493.144,704.189 490.476,705.025C442.416,719.794 387.519,755.1 374.094,808.002C373.066,812.069 372.343,834.251 371.287,835.059C366.061,833.53 366.895,827.761 367.34,823.377C367.952,817.521 366.923,819.8 366.534,815.848C365.005,800.589 383.378,766.984 393.274,755.389C415.817,729.025 441.306,721.64 470.381,706.525C472.521,705.4 474.467,702.746 475.662,702.198C477.969,701.131 481.277,701.765 484.029,700.121C485.002,699.573 485.502,700.208 485.141,698.16C481.361,697.756 472.077,692.679 469.186,692.679C467.463,692.679 465.072,694.612 462.765,695.044C447.644,698.015 430.994,701.448 417.402,708.832C409.536,713.072 402.003,720.889 394.498,725.303C392.024,726.745 389.05,729.197 386.465,727.697C384.325,726.053 389.634,721.668 390.94,720.543C412.955,701.592 431.411,699.89 456.845,691.611C457.762,691.294 459.458,691.38 459.263,690.082C454.093,688.957 449.117,687.082 443.947,685.813C429.215,682.207 395.693,673.265 382.017,674.794C352.831,678.082 318.781,688.87 291.124,699.514C273.585,706.235 252.237,716.1 236.477,726.917C233.558,728.936 229.528,733.58 227.054,735.109C223.941,737.042 220.105,736.407 217.631,737.561C217.047,737.821 207.847,744.599 207.458,745.118C206.763,746.012 206.04,748.666 204.873,750.714C201.204,757.146 195.283,763.694 191.67,769.954C187.362,777.511 184.276,786.107 180.274,793.867L178.134,793.463C180.858,783.108 183.86,772.896 188.558,763.291C197.675,744.628 203.29,741.398 219.44,730.696C226.5,726.023 234.089,719.908 241.343,715.841C259.272,705.774 278.784,698.649 296.685,689.159L366.12,669.948C364.563,668.015 361.839,668.506 359.671,668.621C343.938,669.429 321.007,675.486 305.191,679.207C272.753,686.851 238.619,696.11 209.572,713.331C196.591,721.033 184.305,731.244 172.103,740.186L172.103,679.784L54.775,558.087C38.82,539.828 33.789,514.906 40.377,491.195C47.437,465.898 71.675,449.312 88.186,430.707C94.801,431.544 103.307,430.476 109.617,431.399C111.702,431.716 112.814,433.216 114.704,433.274C121.069,433.476 123.682,433.361 130.325,434.082C136.44,434.745 143.445,434.688 149.671,435.034L137.441,410.573C135.773,407.688 134.133,404.891 130.325,405.496C129.158,405.669 128.268,406.881 127.462,407.054C122.542,408.035 117.177,410.169 112.98,410.775C111.396,411.035 108.838,411.237 107.421,410.429C109.589,408.669 111.674,405.093 114.064,403.91C119.317,401.285 133.883,403.073 126.517,391.42L136.468,380.603C143.89,380.141 151.339,380.574 158.761,380.488C160.373,380.459 161.846,379.651 163.125,379.623C167.572,379.565 173.354,381.7 178.135,379.998C181.276,378.44 183.639,362.085 185.223,357.816C188.308,349.393 194.646,342.99 202.012,338.547C221.97,326.49 250.266,324.471 270.53,336.903C277.007,340.884 284.345,351.181 286.763,358.537C287.903,361.97 287.18,365.085 287.847,368.171C288.542,371.402 291.516,374.43 290.349,378.959L291.489,380.199L431.748,378.064L408.371,260.895L172.076,259.626L172.549,248.867C177.997,251.088 183.834,249.011 189.004,248.954C257.994,248.464 327.484,250.339 396.78,248.925C400.06,248.867 411.901,250.915 413.096,248.031C413.068,237.156 404.062,237.156 395.918,236.32L172.076,236.349L172.215,229.772L173.494,228.416C187.114,226.945 203.264,229.974 216.55,228.329C217.801,228.185 218.774,228.242 219.524,226.944L219.524,213.531C219.524,212.435 222.026,209.695 223.443,209.464C229.586,208.57 232.477,215.464 232.505,220.742C232.533,224.203 230.003,224.607 232.449,228.299L266.944,228.299C263.608,215.636 267.333,204.329 280.759,213.069L280.759,228.299L310.946,228.299C308.389,204.3 328.18,204.473 325.595,228.299L354.92,228.299C355.059,222.04 353.224,212.521 360.507,210.3C366.483,210.3 367.512,223.655 366.984,228.299C367.651,228.991 382.967,227.924 385.552,228.27C387.803,228.558 389.777,230.289 391.5,230.087C393.279,229.885 395.92,227.001 398.894,228.299C396.893,212.03 395.67,198.271 382.911,187.166C372.543,178.08 365.511,178.195 352.947,176.205C352.058,176.061 351.196,174.59 351.029,174.59L335.072,174.599Z" style="fill:rgb(69,28,21);fill-rule:nonzero;"/>
        <path d="M742.123,256.046C727.502,240.816 705.21,238.335 689.533,224.72C689.144,226.393 690.422,226.855 691.229,227.864C694.12,231.412 699.345,236.258 703.042,238.883C714.967,247.363 730.699,250.19 739.399,263.805C742.262,268.276 742.735,273.151 744.708,277.506C722.138,275.083 700.29,277.419 677.858,279.294C672.549,279.756 667.407,280.534 662.292,281.025C652.119,282.006 641.834,282.15 631.744,283.765C634.968,280.39 639.638,276.64 639.082,271.275C632.828,277.275 625.49,283.073 617.679,286.649C608.006,291.091 603.281,290.658 593.413,291.899C589.661,292.361 584.435,294.985 580.432,295.447C578.486,284.803 577.208,273.496 581.294,263.198C581.961,261.467 592.051,244.651 592.857,243.901C604.782,232.594 627.574,237.324 642.001,222.383C642.89,221.46 649.311,214.479 644.697,214.883C641.556,221.748 630.104,226.219 623.294,228.036C618.485,229.334 613.565,229.219 609.09,230.315C603.698,231.642 597.638,235.19 592.079,236.344C590.912,235.075 593.219,205.336 594.192,201.413C596.249,193.134 605.672,185.981 612.732,182.173C620.293,178.106 628.52,176.491 635.858,173.779C639.416,172.481 643.196,172.106 646.115,169.337L656.344,178.164L685.947,178.337C686.447,179.433 686.614,180.731 687.392,181.712C698.844,196.279 716.022,199.394 730.476,209.49C735.396,212.951 742.123,225.47 742.123,231.441L742.123,256.046Z" style="fill:rgb(69,28,21);fill-rule:nonzero;"/>
        <path d="M605,152.232L596.383,145.973C595.994,147.877 597.856,148.281 598.523,149.607C599.051,150.674 598.745,152.347 599.135,152.953C599.802,153.963 604.305,153.472 604.027,156.068C599.83,161.375 601.108,173.519 598.496,178.163C597.801,179.403 596.328,179.576 595.828,180.269C591.825,185.807 587.851,192.124 587.712,199.22C587.378,213.527 586.684,228.296 586.044,242.863L578.289,253.363C577.733,241.277 574.203,227.922 564.419,220.624C568.95,211.711 566.504,199.279 564.475,189.817L566.921,189.702L568.783,180.875L562.751,185.346C559.749,174.587 550.493,165.01 540.347,161.174C540.069,158.866 540.347,159.761 541.598,159.357C550.799,156.501 566.642,156.617 567.921,143.29C563.418,147.992 557.108,150.213 551.077,152.174C545.935,153.847 540.098,152.953 536.345,157.539C531.425,153.53 525.227,153.356 522.364,146.578L526.228,134.319C527.479,132.761 528.924,131.146 530.564,130.021C537.291,125.319 545.88,122.954 553.44,120.646C555.942,119.867 561.14,119.233 562.946,118.223C564.336,117.444 571.062,108.243 570.09,105.704C566.171,110.117 562.279,114.011 556.609,115.886C551.439,117.588 545.657,117.097 540.96,118.424C539.654,118.799 531.204,124.049 530.842,123.587C531.398,102.559 545.491,89.146 563.919,83.492L615.342,136.567C611.145,140.836 606.141,146.172 605.002,152.23L605,152.232Z" style="fill:rgb(69,28,21);fill-rule:nonzero;"/>
        <path d="M814.567,285.578C811.732,286.645 809.675,284.453 807.84,284.049C800.863,282.578 793.664,282.809 786.632,281.886C774.429,280.3 762.255,277.184 749.83,277.992L746.439,263.685C755.834,248.138 775.82,249.753 790.135,242.772C794.332,240.724 796.083,236.715 799.03,233.224L783.687,240.551C778.656,241.503 773.43,242.137 768.483,243.58C765.425,244.445 748.303,251.455 747.302,250.676C751.777,242.196 750.109,232.734 754.056,224.11C754.862,222.35 758.642,216.264 759.893,214.966C761.311,213.437 772.624,206.197 774.736,205.303C780.462,202.851 797.39,199.649 800.837,196.563C801.337,196.101 801.56,195.034 801.643,194.313L802.894,194.313C804.256,194.775 809.009,202.332 809.871,204.091C810.76,206.024 814.569,216.639 814.569,218.023L814.567,285.578Z" style="fill:rgb(69,28,21);fill-rule:nonzero;"/>
        <path d="M380.779,862.811C380.918,864.657 381.78,865.955 382.919,867.311C395.761,882.455 418.165,899.531 434.842,910.088C468.809,931.549 506.945,944.789 542.913,961.692L536.325,968.269C534.074,967.231 531.6,966.827 529.293,965.99C510.002,959.096 485.125,947.327 466.446,938.155C441.402,925.838 416.663,910.348 396.15,891.397C388.979,884.791 377.666,875.1 379.055,864.138C379.222,862.927 379.528,861.513 380.778,862.811L380.779,862.811Z" style="fill:rgb(69,28,21);fill-rule:nonzero;"/>
        <path d="M752.481,212.192C753.593,202.442 756.678,192.26 762.126,184.155C766.268,177.982 766.851,177.578 774.356,178.299C780.971,178.962 790.728,182.885 795.87,187.299C798.483,189.52 802.319,191.828 797.343,193.876C787.392,197.885 775.134,198.001 765.433,203.712L752.481,212.192Z" style="fill:rgb(69,28,21);fill-rule:nonzero;"/>
        <path d="M642.952,166.548L605.01,177.278C604.454,172.086 607.067,168.567 608.262,164.096C608.651,162.538 608.262,160.663 608.679,159.163C610.847,151.375 614.322,147.51 619.269,141.481C620.353,141.221 620.77,142.318 621.409,142.837C624.884,145.577 639.81,160.865 642.089,164.298C642.617,165.077 643.312,165.192 642.951,166.548L642.952,166.548Z" style="fill:rgb(69,28,21);fill-rule:nonzero;"/>
        <path d="M314.376,706.199C314.904,708.218 312.541,708.795 311.207,709.603C302.84,714.593 296.475,717.391 288.442,723.593C282.911,727.891 274.155,734.958 268.623,740.612C259.367,750.131 254.475,761.755 250.417,774.505C249.917,776.12 249.722,777.88 249.694,779.582L245.525,778.544C243.718,757.372 258.422,737.671 273.933,725.527C286.191,715.922 299.283,709.547 314.376,706.201L314.376,706.199Z" style="fill:rgb(69,28,21);fill-rule:nonzero;"/>
        <path d="M758.512,178.187C759.04,178.591 751.591,188.052 750.979,189.61C750.367,191.139 749.561,195.466 749.089,197.514C748.505,199.966 748.311,203.398 747.894,205.331C746.866,210.177 744.586,213.869 746.004,219.35C742.474,218.398 742.863,214.187 740.862,211.273C738.861,208.331 734.524,205.187 731.828,202.793C735.636,196.043 732.717,185.832 732.634,178.188L758.512,178.187Z" style="fill:rgb(69,28,21);fill-rule:nonzero;"/>
        <path d="M724.877,178.187C725.377,178.62 725.461,184.446 725.766,185.6C727.017,189.927 727.239,189.869 727.462,195.638C727.601,199.215 730.714,203.513 724.265,200.744C721.708,199.677 718.845,196.648 716.538,195.321C707.06,189.869 695.663,185.802 687.797,178.187L724.877,178.187Z" style="fill:rgb(69,28,21);fill-rule:nonzero;"/>
        <path d="M316.978,844.912L309.223,844.912C309.084,838.48 307.889,832.307 308.473,825.788C308.862,821.057 310.002,811.942 316.173,813.962C318.174,815.462 316.117,822.039 316.062,824.721C316.006,831.5 317.48,838.105 316.979,844.913L316.978,844.912Z" style="fill:rgb(69,28,21);fill-rule:nonzero;"/>
        <path d="M378.197,158.501C377.585,159.338 364.049,146.876 361.825,146.415L374.333,133.464C375.667,132.887 378.197,139.723 378.197,140.156L378.197,158.501Z" style="fill:rgb(69,28,21);fill-rule:nonzero;"/>
    </g>
</svg>
