<?xml version="1.0" encoding="UTF-8" standalone="no"?>
<!DOCTYPE svg PUBLIC "-//W3C//DTD SVG 1.1//EN" "http://www.w3.org/Graphics/SVG/1.1/DTD/svg11.dtd">
<svg width="100%" height="100%" viewBox="0 0 58 60" version="1.1" xmlns="http://www.w3.org/2000/svg" xmlns:xlink="http://www.w3.org/1999/xlink" xml:space="preserve" xmlns:serif="http://www.serif.com/" style="fill-rule:evenodd;clip-rule:evenodd;stroke-linejoin:round;stroke-miterlimit:2;">
    <g transform="matrix(0.057042,0,0,0.058594,-0.300196,0.000059)">
        <path d="M511.955,12.403C487.245,12.403 462.522,21.783 443.739,40.566L333.1,151.205L227.912,151.205C185.675,151.205 151.125,185.755 151.125,227.992L151.125,333.14L40.486,443.779C2.949,481.348 2.949,542.681 40.486,580.25L151.125,690.889L151.125,795.998C151.125,838.235 185.675,872.785 227.912,872.785L333.1,872.785L443.739,983.463C462.524,1002.232 487.241,1011.626 511.955,1011.626C536.669,1011.626 561.386,1002.231 580.171,983.463L690.81,872.785L795.998,872.785C838.235,872.785 872.785,838.235 872.785,795.998L872.785,690.889L983.424,580.25C1020.991,542.683 1020.991,481.345 983.424,443.779L872.785,333.14L872.785,227.992C872.785,185.755 838.235,151.205 795.998,151.205L690.81,151.205L580.171,40.566C561.388,21.783 536.665,12.403 511.955,12.403Z" style="fill:rgb(247,188,63);fill-rule:nonzero;"/>
    </g>
    <g transform="matrix(0.058594,0,0,0.058594,-0.000176,0.000059)">
        <path d="M945.76,579.93L839.579,690.089L839.579,794.825C839.579,836.996 806.529,871.322 765.891,871.322L664.963,871.322L558.782,981.481C540.742,1000.201 517.032,1009.576 493.322,1009.576C469.612,1009.576 445.902,1000.23 427.862,981.481L321.709,871.322L220.781,871.322C180.143,871.322 147.093,836.996 147.093,794.825L147.093,690.089L40.912,579.93C4.805,542.46 4.805,481.539 40.912,444.07L147.093,333.882L147.093,229.146C147.093,187.003 180.143,152.678 220.781,152.678L321.709,152.678L427.862,42.519C462.857,6.203 523.842,6.203 558.782,42.519L664.963,152.678L765.891,152.678C806.529,152.678 839.579,187.004 839.579,229.146L839.579,333.882L945.76,444.07C981.839,481.54 981.839,542.461 945.76,579.93ZM955.544,433.916L853.421,327.939L853.421,229.173C853.421,179.069 814.145,138.311 765.891,138.311L670.689,138.311L568.566,32.334C548.469,11.479 521.757,-0.001 493.322,-0.001C464.914,-0.001 438.174,11.479 418.078,32.334L315.955,138.311L220.781,138.311C172.499,138.311 133.251,179.069 133.251,229.144L133.251,327.938L31.128,433.915C-10.372,476.952 -10.372,547.017 31.128,590.082L133.251,696.059L133.251,794.825C133.251,844.929 172.499,885.687 220.781,885.687L315.955,885.687L418.078,991.635C438.175,1012.49 464.915,1023.999 493.322,1023.999C521.757,1023.999 548.47,1012.49 568.566,991.635L670.689,885.687L765.891,885.687C814.145,885.687 853.421,844.929 853.421,794.825L853.421,696.059L955.544,590.082C997.016,547.016 997.016,476.952 955.544,433.915L955.544,433.916Z" style="fill:rgb(69,28,21);fill-rule:nonzero;"/>
        <path d="M670.788,249.933C671.622,250.856 665.396,271.192 664.84,274.538C658.975,309.296 663.228,341.805 682.129,371.486C689.856,383.63 701.642,392.947 713.4,400.62C712.455,407.601 706.117,409.62 700.781,412.591C642.604,444.696 601.882,474.118 550.682,516.52C539.035,526.183 527.75,532.125 517.855,544.673C517.216,545.481 513.769,549.865 514.408,550.442C517.243,550.846 519.967,549.086 522.08,547.298C572.502,504.348 636.85,459.696 694.611,428.254C696.056,427.475 707.286,422.398 707.731,422.947C706.897,435.004 704.812,446.946 705.146,459.09C705.368,467.311 706.758,480.233 709.065,488.022C713.651,503.685 737.139,539.539 749.87,549.087C757.292,554.654 770.217,556.039 766.881,569.048C761.072,572.25 754.011,571.211 747.702,571.875C715.069,575.25 682.27,576.577 650.415,582.202C626.205,586.471 594.739,591.923 571.974,599.048C556.964,603.75 541.704,608.048 526.555,612.634C525.082,613.067 524.331,612.317 524.72,614.653C528.333,613.73 533.198,613.759 537.117,613.73C583.12,613.47 629.484,614.711 675.458,613.903C684.547,615.691 698.974,611.682 707.201,614.105C710.092,614.942 713.455,619.759 714.233,622.643C714.817,624.893 714.4,627.027 714.845,629.133C715.512,632.219 719.237,646.902 717.958,648.459L318.5,649.44C316.471,647.536 320.807,633.229 321.863,630.229C323.253,626.393 324.531,624.777 326.366,621.547C326.755,620.884 326.394,619.672 326.727,619.095C328.617,615.893 337.54,614.999 341.181,614.653C353.661,613.499 367.031,613.903 379.567,613.211C396.245,612.317 412.644,611.25 429.294,610.182C431.545,590.683 436.299,571.183 441.969,552.434C462.455,484.331 501.814,404.488 550.013,353.345C574.64,327.211 601.436,302.578 629.121,279.386C637.098,272.694 650.329,259.973 657.946,254.897C662.338,251.984 666.174,251.897 670.788,249.936L670.788,249.933Z" style="fill:rgb(69,28,21);fill-rule:nonzero;"/>
        <path d="M363.714,191.364C400.044,245.016 425.727,303.11 439.681,367.146C440.57,371.213 439.459,375.078 440.042,378.367C440.57,381.367 444.184,388.751 444.378,391.232C445.545,404.933 447.074,426.913 445.601,440.24C445.545,440.903 443.989,440.846 443.905,441.221L443.905,443.009C444.85,443.528 445.545,443.269 445.712,444.711C446.546,451.865 445.267,459.682 445.768,466.922L447.575,468.249C450.605,467.384 460.139,466.316 461.584,469.316C462.64,471.479 456.192,478.345 456.72,481.691C455.719,482.585 446.741,480.537 444.462,480.941C443.85,481.056 443.989,482.441 443.295,482.614C439.431,483.566 419.529,483.739 414.331,483.595C408.16,483.451 396.708,481.72 391.038,482.21C386.535,482.585 385.701,482.758 380.753,482.614C378.668,482.556 375.11,484.691 373.832,482.729C374.471,476.672 371.608,468.883 371.719,463.489C371.802,458.499 375.694,455.037 375.194,446.528C374.944,442.086 371.803,436.259 371.775,434.99C371.719,433.288 373.915,430.981 374.277,428.673C376.056,417.048 371.136,415.347 370.052,408.164C369.329,403.433 371.831,397.087 371.831,392.155C371.803,386.415 369.274,369.944 366.244,365.3C363.492,361.06 356.543,357.743 352.207,355.377L271.181,355.579C257.005,361.406 261.174,373.117 259.284,385.088C258.784,388.203 258.283,394.722 255.087,395.126L125.112,394.376L173.06,343.839L173.255,221.853C175.701,199.844 192.823,182.047 214.06,179.508L330.887,179.45L344.674,166.124L361.574,189.604C362.019,190.441 363.297,190.758 363.714,191.364Z" style="fill:rgb(69,28,21);fill-rule:nonzero;"/>
        <path d="M638.131,661.924L638.965,678.279L641.328,679.548C650.056,679.375 659.09,678.221 667.79,678.163C680.826,678.048 693.613,678.798 706.427,678.913C711.958,678.971 727.524,677.759 731.583,679.144C731.861,679.231 734.196,682.778 734.78,683.355C749.512,697.749 760.63,720.219 776.029,734.18C776.14,738.853 781.56,742.949 781.421,747.276C781.421,747.593 779.614,753.478 779.447,753.766C779.086,754.429 777.751,754.545 777.279,755.295C776.556,756.478 777.14,758.151 775.834,759.131C775.25,759.593 771.109,761.467 770.108,761.871C760.518,765.534 747.148,763.342 736.53,763.515C620.564,765.246 504.682,766.774 389.3,766.284C373.178,766.197 355.305,767.236 339.517,766.313C320.727,765.246 296.461,747.621 281.951,735.016C272.417,726.766 268.386,720.795 261.743,710.527C259.019,706.316 253.904,701.527 252.793,696.537C252.154,693.624 252.849,689.701 253.182,686.701C255.239,685.922 257.073,682.115 258.102,681.567C261.16,679.894 271.917,679.029 275.864,678.827C303.521,677.587 331.067,680.269 358.502,678.077L389.3,678.914C391.44,675.972 389.356,671.847 390.134,669.049C390.523,667.607 394.859,661.607 396.194,661.405L421.6,661.434L422.184,662.357C422.351,664.117 421.517,666.02 421.656,667.693C421.712,668.818 422.823,669.683 422.879,670.376C423.018,672.366 421.267,677.039 423.24,678.481C425.936,680.01 429.105,677.875 431.495,677.933C486.754,679.346 542.763,679.491 598.327,678.308C600.245,678.279 607.444,680.241 608.056,677.471C606.249,672.106 605.388,665.731 609.029,661.116C609.418,660.828 610.002,661.924 610.196,661.924L638.131,661.924Z" style="fill:rgb(69,28,21);fill-rule:nonzero;"/>
        <path d="M259.168,408.664C255.86,418.529 254.165,427.269 259.807,436.759C253.692,441.836 251.663,451.182 255.86,458.076C256.666,459.403 258.362,458.999 258.389,460.816C258.445,462.835 255.887,467.133 255.304,470.191C254.581,474.027 255.054,478.729 254.859,482.681C252.357,481.383 250.856,483.604 248.521,483.546C244.574,483.431 237.986,481.7 233.845,481.844C197.793,483.027 162.492,481.757 126.385,482.854C107.456,483.431 88.916,482.133 69.681,483.633C61.565,482.047 53.531,483.921 45.193,483.575C43.72,482.19 54.394,467.566 55.922,465.72C72.35,445.932 94.031,428.279 110.931,408.664L259.168,408.664Z" style="fill:rgb(69,28,21);fill-rule:nonzero;"/>
        <path d="M269.475,484.911C269.169,483.786 266.668,483.151 266.056,481.998C263.86,477.758 265.194,463.912 270.337,461.749C269.587,458.807 266.64,459.326 265.25,457.163C260.636,450.009 266.306,442.394 269.336,436.048C262.971,425.981 258.773,414.905 272.116,408.991C270.42,404.664 271.866,401.376 272.06,397.511C272.394,389.954 270.698,374.521 280.26,373.05C294.492,370.858 318.091,370.598 332.6,371.262C336.13,371.435 346.665,372.156 349.333,373.483C355.532,376.569 353.864,393.675 353.725,400.222C353.669,402.789 352.307,405.558 352.836,408.039C352.975,408.587 354.031,408.529 354.448,409.395C354.782,410.03 354.504,411.299 355.004,412.164C355.866,413.635 359.062,414.472 360.369,417.327C361.008,418.74 362.398,424.654 362.259,426.009C362.092,427.682 359.285,434.143 359.174,436.739C359.118,438.614 362.176,443.373 361.37,449.171C360.87,452.719 356.311,456.901 356.228,457.421C356.033,459.007 357.785,461.2 358.007,463.478C358.313,466.391 358.368,474.035 357.812,476.689C356.867,481.045 352.781,481.045 351.113,483.121C347.777,487.304 354.754,509.341 351.113,515.687L269.476,513.899L269.475,484.911Z" style="fill:rgb(69,28,21);fill-rule:nonzero;"/>
        <path d="M796.504,190.365C780.021,188.259 760.258,193.278 744.331,189.211C739.911,188.086 738.633,184.711 739.189,180.356L722.428,179.577C722.233,184.192 720.482,188.432 716.285,190.596C712.143,192.731 709.197,190.971 705.639,191.029C680.372,191.519 655.022,192.154 629.95,192.039C617.442,191.981 603.627,193.337 591.397,191.866C584.337,191.001 575.609,189.731 572.162,182.405C567.826,173.175 568.521,157.079 570.355,147.041C572.551,135.013 580.723,129.849 592.147,128.638C598.095,128.032 601.709,131.638 606.323,129.1L568.548,89.9C568.187,92.236 567.464,94.602 566.269,96.909C567.131,105.62 561.794,118.427 553.983,120.245C543.671,122.639 532.775,120.187 522.546,119.755C510.316,119.207 498.03,119.755 485.855,117.678C479.128,116.553 474.625,116.322 471.095,109.832C467.704,103.601 464.618,73.833 465.119,66.362C465.202,65.122 465.314,63.968 465.453,62.929C465.425,61.169 465.536,59.41 465.981,57.708C466.287,56.612 466.454,55.487 466.676,54.391C466.815,52.458 466.815,50.497 466.704,48.564C466.593,47.987 466.426,47.41 466.315,46.833C458.838,50.15 451.889,54.737 446.052,60.909C444.94,63.476 447.414,66.216 447.998,68.697C449.999,77.264 452.584,97.456 450.861,105.878C449.944,110.262 448.22,113.753 444.774,116.58C443.746,117.388 441.828,117.243 440.716,118.195C439.465,119.291 438.326,123.502 436.213,124.627C439.41,127.396 443.079,130.454 443.94,134.896C448.054,132.675 454.225,132.646 459.089,132.358C479.074,131.175 509.289,129.675 528.468,133.223C534.917,134.406 545.507,136.367 548.954,142.28C554.458,151.77 551.761,155.664 553.012,164.808C553.346,167.231 554.874,168.067 554.735,170.865C554.679,171.961 552.206,180.759 551.705,182.086C551.038,183.788 549.731,186.355 548.342,187.538C544.478,190.826 528.134,189.874 522.575,190.192C511.345,190.855 500.421,192.875 488.997,190.538C488.219,192.124 483.799,192.499 484.355,194.144C484.883,195.702 488.691,202.624 490.081,203.346C494.195,205.509 505.814,203.894 510.678,203.894C559.127,204.038 608.104,204.586 656.636,204.413L807.43,203.548C805.012,198.241 800.815,194.087 796.506,190.366L796.504,190.365Z" style="fill:rgb(69,28,21);fill-rule:nonzero;"/>
        <path d="M785.814,789.33C773.695,790.772 761.631,792.561 749.345,793.022C693.919,795.157 637.243,792.474 581.845,792.128C516.941,791.753 452.426,791.176 387.633,791.263C365.646,791.292 339.99,789.965 318.031,787.657C316.057,787.455 311.777,787.109 311.61,784.599C311.471,780.215 320.755,779.984 324.146,779.724C333.458,779.032 343.687,779.955 353.304,779.666C464.377,776.637 576.34,779.579 686.691,780.618C708.984,780.82 732.11,779.089 754.541,780.503C761.907,780.965 775.722,781.945 782.56,783.589C783.755,783.877 785.896,784.772 786.424,785.897L785.814,789.33Z" style="fill:rgb(69,28,21);fill-rule:nonzero;"/>
        <path d="M439.618,540.654C440.146,543.942 437.283,545.298 434.642,545.817C423.524,547.894 403.399,545.702 391.03,545.961C305.696,547.692 219.166,547.807 134.166,548.73L49.471,548.24L43.467,536.183C56.754,535.548 70.179,536.76 83.438,536.789C185.672,537.077 289.213,536.558 391.892,538.895C397.034,539.01 438.284,538.607 439.618,540.655L439.618,540.654Z" style="fill:rgb(69,28,21);fill-rule:nonzero;"/>
        <path d="M415.07,106.876C460.822,159.922 503.906,235.785 522.752,304.147C527.311,320.675 529.534,338.848 534.093,355.434L526.755,363.222C524.087,363.51 522.725,358.347 521.863,355.867C515.942,338.704 514.525,318.859 508.104,300.6C486.228,238.439 460.239,184.239 420.268,134.049C413.514,125.569 406.314,117.723 399.254,109.473L408.371,100.185C410.039,99.868 413.875,105.464 415.07,106.877L415.07,106.876Z" style="fill:rgb(69,28,21);fill-rule:nonzero;"/>
        <path d="M616.911,825.412C607.099,831.123 603.597,827.835 593.173,828.123C531.271,829.911 464.894,833.546 403.047,830.517C390.956,829.911 378.67,827.719 366.745,825.844L366.078,823.767C366.05,821.402 369.386,820.161 371.359,819.815C387.926,816.93 406.91,820.969 422.921,818.95C424.561,818.748 424.005,817.248 424.533,817.219C426.284,817.132 430.12,817.94 432.205,817.854C477.874,816.441 524.266,817.335 569.685,818.546C582.304,818.892 598.982,817.248 610.99,818.95C614.52,819.469 617.383,821.863 620.524,823.334C621.024,825.44 617.967,824.805 616.911,825.411L616.911,825.412Z" style="fill:rgb(69,28,21);fill-rule:nonzero;"/>
        <path d="M907.102,441.652C893.093,439.979 878.583,442.027 864.407,442.171C816.181,442.69 767.676,440.844 719.311,441.709C715.364,442.026 711.917,431.325 714.808,429.363C715.364,428.959 716.893,429.19 717.977,428.671C718.783,428.296 719.283,426.998 720.145,426.854C722.119,426.537 728.345,427.575 731.402,427.431C747.635,426.652 762.673,427.229 778.655,427.171C817.097,426.969 855.567,425.758 894.204,427.834L907.102,441.652Z" style="fill:rgb(69,28,21);fill-rule:nonzero;"/>
        <path d="M941.474,483.57L929.021,480.887L928.159,483.598C922.516,482.704 917.124,483.569 911.176,482.588C896.166,480.136 876.403,481.377 860.114,481.232C829.232,480.944 797.851,481.203 766.636,479.934C758.603,479.617 750.125,480.597 742.064,478.694C738.645,477.915 732.808,476.184 738.2,472.81C742.953,469.868 753.015,469.579 758.825,469.262C814.084,466.262 872.178,469.522 927.297,469.233C935.942,468.627 938.888,476.387 941.473,483.569L941.474,483.57Z" style="fill:rgb(69,28,21);fill-rule:nonzero;"/>
        <path d="M254.004,505.873L39.168,506.306L40.891,497.393C43.587,494.941 53.427,496.989 56.79,497.018C91.535,497.393 126.392,496.066 161.498,496.383C191.74,496.671 222.121,497.248 252.28,498.316C255.199,500.162 254.837,502.816 254.003,505.873L254.004,505.873Z" style="fill:rgb(69,28,21);fill-rule:nonzero;"/>
        <path d="M260.025,596.841L259.636,599.552C258.33,601.485 246.822,602.783 243.987,603.013C242.514,603.128 241.235,602.436 239.984,602.523C194.009,605.263 147.868,604.658 102.449,605.552L89.023,591.476C90.691,591.245 92.136,592.399 93.776,592.428C137.138,593.12 180.667,592.399 223.584,594.159C228.532,594.361 258.413,594.303 260.025,596.842L260.025,596.841Z" style="fill:rgb(69,28,21);fill-rule:nonzero;"/>
        <path d="M938.801,539.647C938.412,540.282 927.988,542.33 926.404,542.474C915.897,543.282 900.359,541.839 889.407,541.637C862.167,541.147 832.286,542.214 805.24,540.685C802.738,540.541 785.116,538.781 785.088,536.618C790.008,533.56 797.846,532.839 803.545,532.551C826.894,531.368 852.689,532.897 876.649,532.638C890.825,532.494 905.307,530.965 919.566,531.34C925.542,531.484 940.497,530.503 938.801,539.647Z" style="fill:rgb(69,28,21);fill-rule:nonzero;"/>
        <path d="M555.632,895.584C558.273,899.19 541.873,900.517 540.733,900.574C513.382,901.987 479.554,904.93 452.091,902.709C444.586,902.074 436.775,898.815 429.076,898.267C425.046,891.777 435.775,893.392 439.194,892.873C471.076,888.171 504.32,891.46 536.314,893.767C542.346,894.2 549.489,891.921 555.632,895.584Z" style="fill:rgb(69,28,21);fill-rule:nonzero;"/>
        <path d="M364.087,504.894C361.697,501.173 368.312,499.327 370.675,498.952C377.652,497.942 389.521,498 397.054,497.798C412.008,497.423 427.102,498.26 441.973,498.058C445.448,498.808 446.504,502.76 445.253,505.933C443.947,507.837 433.551,506.77 430.771,506.856C419.708,507.116 408.951,507.029 397.972,506.712C393.413,506.597 365.617,507.26 364.088,504.895L364.087,504.894Z" style="fill:rgb(69,28,21);fill-rule:nonzero;"/>
        <path d="M528.139,972.26C527.222,973.875 524.359,975.173 522.719,976.01C503.067,986.077 476.494,985.615 458.538,972.26L528.139,972.26Z" style="fill:rgb(69,28,21);fill-rule:nonzero;"/>
    </g>
</svg>
