<?xml version="1.0" encoding="UTF-8" standalone="no"?>
<!DOCTYPE svg PUBLIC "-//W3C//DTD SVG 1.1//EN" "http://www.w3.org/Graphics/SVG/1.1/DTD/svg11.dtd">
<svg width="100%" height="100%" viewBox="0 0 58 61" version="1.1" xmlns="http://www.w3.org/2000/svg" xmlns:xlink="http://www.w3.org/1999/xlink" xml:space="preserve" xmlns:serif="http://www.serif.com/" style="fill-rule:evenodd;clip-rule:evenodd;stroke-linejoin:round;stroke-miterlimit:2;">
    <g transform="matrix(0.057042,0,0,0.058594,-0.300196,0.000059)">
        <path d="M511.955,12.403C487.245,12.403 462.522,21.783 443.739,40.566L333.1,151.205L227.912,151.205C185.675,151.205 151.125,185.755 151.125,227.992L151.125,333.14L40.486,443.779C2.949,481.348 2.949,542.681 40.486,580.25L151.125,690.889L151.125,795.998C151.125,838.235 185.675,872.785 227.912,872.785L333.1,872.785L443.739,983.463C462.524,1002.232 487.241,1011.626 511.955,1011.626C536.669,1011.626 561.386,1002.231 580.171,983.463L690.81,872.785L795.998,872.785C838.235,872.785 872.785,838.235 872.785,795.998L872.785,690.889L983.424,580.25C1020.991,542.683 1020.991,481.345 983.424,443.779L872.785,333.14L872.785,227.992C872.785,185.755 838.235,151.205 795.998,151.205L690.81,151.205L580.171,40.566C561.388,21.783 536.665,12.403 511.955,12.403Z" style="fill:rgb(247,188,63);fill-rule:nonzero;"/>
    </g>
    <g transform="matrix(0.058594,0,0,0.058594,-0.000176,0.000059)">
        <path d="M945.76,579.93L839.579,690.089L839.579,794.825C839.579,836.996 806.529,871.293 765.891,871.293L664.963,871.293L558.782,981.481C540.742,1000.201 517.032,1009.576 493.322,1009.576C469.612,1009.576 445.902,1000.23 427.862,981.481L321.709,871.293L220.781,871.293C180.143,871.293 147.093,836.996 147.093,794.825L147.093,690.089L40.912,579.93C4.805,542.46 4.805,481.539 40.912,444.07L147.093,333.882L147.093,229.174C147.093,187.003 180.143,152.677 220.781,152.677L321.709,152.677L427.862,42.518C462.857,6.202 523.842,6.202 558.782,42.518L664.963,152.677L765.891,152.677C806.529,152.677 839.579,187.003 839.579,229.174L839.579,333.882L945.76,444.07C981.839,481.54 981.839,542.461 945.76,579.93ZM955.544,433.916L853.421,327.939L853.421,229.173C853.421,179.069 814.145,138.311 765.891,138.311L670.689,138.311L568.566,32.334C548.469,11.479 521.757,-0.001 493.322,-0.001C464.914,-0.001 438.174,11.479 418.078,32.334L315.955,138.311L220.781,138.311C172.499,138.311 133.251,179.069 133.251,229.173L133.251,327.939L31.128,433.916C-10.372,476.953 -10.372,547.018 31.128,590.083L133.251,696.06L133.251,794.826C133.251,844.93 172.499,885.688 220.781,885.688L315.955,885.688L418.078,991.636C438.175,1012.491 464.915,1024 493.322,1024C521.757,1024 548.47,1012.491 568.566,991.636L670.689,885.688L765.891,885.688C814.145,885.688 853.421,844.93 853.421,794.826L853.421,696.06L955.544,590.083C997.016,547.017 997.016,476.953 955.544,433.916Z" style="fill:rgb(69,28,21);fill-rule:nonzero;"/>
        <path d="M635.428,689.27C608.494,689.414 574.916,687.568 548.815,689.876C542.644,690.395 539.142,691.434 538.225,698.385C536.112,714.711 541.811,752.412 547.12,767.959C549.01,773.468 548.399,778.343 555.292,780.795C560.462,782.612 580.281,781.026 587.341,780.795C594.985,780.535 600.377,780.362 608.661,780.882C610.384,780.997 613.053,779.497 615.499,779.469C633.483,779.181 653.302,778.748 671.147,779.411C673.76,779.526 675.261,781.199 678.235,780.796C683.405,780.104 682.96,781.027 686.296,781.027C688.075,781.027 699.944,778.633 702.14,777.998C705.392,777.075 711.674,773.239 711.73,769.344C711.841,764.786 709.951,757.604 709.59,753.018C708.589,739.403 707.894,728.5 704.253,714.914C700.584,701.213 697.693,690.425 682.183,689.011C668.424,687.771 649.717,689.184 635.43,689.271L635.428,689.27ZM673.87,582.832C670.451,579.082 633.621,581.188 626.478,581.332C622.976,581.39 618.528,579.63 615.109,581.245C613.664,581.908 612.357,585.024 610.106,585.37C612.385,596.62 614.442,607.898 615.943,619.378C617.138,628.608 618.639,640.233 619.362,649.55C619.807,655.492 618.528,667.376 620.696,672.107C622.086,675.136 625.56,676.001 628.479,676.261C637.179,677.069 645.268,676.348 653.968,676.117C655.775,676.059 657.915,677.415 659.972,677.473C668.505,677.733 677.067,677.098 685.517,678.31C687.324,678.281 693.745,674.906 694.412,673.752C695.496,671.819 692.55,649.638 691.938,646.09C689.27,631.062 685.461,612.774 681.542,598.323C679.791,591.891 676.761,588.227 673.87,582.833L673.87,582.832ZM412.753,671.876C416.561,675.193 428.458,676.001 433.433,676.087C488.831,677.212 544.618,674.731 599.932,675.481C603.101,674.096 607.965,674.039 608.91,669.741C611.106,659.876 606.353,641.3 605.13,630.858C603.268,615.224 603.379,602.301 598.459,586.956C598.209,586.177 595.401,581.1 595.068,581.014L521.464,581.62L424.205,581.649C422.231,584.937 418.813,587.158 417.673,591.081C416.7,594.542 418.146,597.542 417.59,600.686C415.811,610.811 413.031,621.426 411.753,631.896C411.003,638.011 411.614,645.222 410.725,651.222C410.503,652.664 409.141,653.732 409.085,654.856C409.057,655.779 410.336,662.673 410.558,663.942C411.031,666.538 410.53,669.942 412.754,671.874L412.753,671.876ZM396.937,581.014C395.603,579.514 385.846,581.649 383.011,581.706C373.866,581.821 364.693,581.331 355.493,581.331C347.349,581.331 312.743,578.995 307.85,582.485C304.765,587.994 301.651,591.773 299.9,598.321C294.98,616.349 290.727,638.589 288.448,657.396C287.781,662.675 285.613,667.953 287.03,673.751L295.925,678.309C304.375,677.098 312.908,677.732 321.442,677.472C327.085,677.299 332.977,676.232 338.37,675.943C342.845,675.683 350.545,676.751 355.604,676.635C365.889,676.404 381.566,676.895 390.738,673.087C396.992,670.491 397.993,665.645 398.799,659.27C400.244,648.02 399.772,635.184 400.522,623.819C401.134,614.935 405.275,594.137 402.023,586.782C400.689,583.782 398.243,584.359 397.298,583.176C396.937,582.714 397.298,581.388 396.937,581.013L396.937,581.014ZM646.408,518.132C640.932,513.863 636.29,515.392 630.092,515.796C619.029,516.488 607.438,516.258 597.404,516.575C553.82,517.931 509.93,516.027 466.317,517.296C463.676,517.988 460.841,518.248 459.896,521.305C460.646,527.132 456.977,563.88 459.646,565.553L468.457,568.38C514.348,568.726 560.657,567.947 606.076,568.322C621.836,568.437 638.653,570.514 654.469,569.851C659.417,569.62 664.92,569.62 666.81,563.88C667.811,560.822 664.642,557.361 663.641,554.794C660.75,547.439 657.998,539.535 654.552,532.295C652.94,528.891 648.77,520.007 646.408,518.132ZM315.05,570.14L383.762,568.438C389.905,569.765 396.215,567.659 402.552,569.13C412.642,566.072 429.709,570.832 439.021,567.947C440.633,567.457 445.053,564.053 445.636,562.38L449.555,519.545L447.526,517.382C426.457,516.228 405.137,517.238 384.012,516.574C379.759,516.43 375.451,516.891 371.087,516.949C364.583,517.064 360.914,515.651 355.549,515.161C353.603,514.959 341.234,515.19 339.816,515.565C330.782,517.873 325.557,536.766 322.082,545.045C320.386,549.026 314.688,558.602 314.494,562.727C314.383,564.919 315.578,567.688 315.05,570.14ZM529.358,476.278L525.467,479.364L527.885,500.507C529.581,500.969 531.137,502.036 532.805,502.497C540.505,504.487 558.127,502.728 566.8,502.901C587.202,503.305 615.638,506.016 635.234,503.651C641.627,502.872 636.513,498.632 635.429,496.238C632.983,490.844 630.648,479.162 624.866,477.056C623.059,476.393 620.113,476.191 618.112,476.046C596.959,474.604 574.055,475.873 553.069,476.075C545.175,476.133 537.281,476.421 529.359,476.277L529.358,476.278ZM514.821,479.018C512.097,474.893 508.956,477.085 506.176,476.912C488.553,475.845 471.208,476.854 453.808,476.652C449.416,476.594 440.605,474.142 438.742,479.825C437.825,482.623 435.129,498.228 435.74,500.305C436.991,504.632 446.997,502.613 450.583,502.67C467.844,502.93 485.523,503.189 502.701,502.728C507.732,502.584 513.847,504.084 517.683,500.334C515.848,494.623 517.989,483.806 514.82,479.017L514.821,479.018ZM430.432,476.105C427.958,475.701 425.651,477.057 423.233,477.028C403.387,476.682 382.373,474.461 362.443,476.076C360.747,476.191 357.301,476.624 355.883,477.23C351.074,479.249 348.156,491.479 345.988,496.239C344.904,498.633 339.789,502.873 346.21,503.652C368.864,506.392 396.41,501.431 419.536,503.45C432.072,500.739 426.235,485.422 430.432,476.105ZM542.422,445.933L496.28,445.933C497.42,448.933 494.668,449.337 494.501,450.75C493.751,456.432 493.806,463.096 500.06,463.73C513.902,465.172 530.274,462.692 544.395,463.499C549.704,461.855 543.061,449.653 542.421,445.932L542.422,445.933ZM415.199,463.528L479.63,463.701C482.132,463.614 484.494,462.028 485.662,459.72L483.911,447.663C483.411,446.884 480.464,446.365 479.38,446.192C462.508,443.481 440.577,447.692 423.176,445.932C419.007,444.865 413.559,456.432 413.559,458.941C413.531,459.258 415.004,463.383 415.199,463.527L415.199,463.528ZM611.385,453.346C609.495,451.154 605.854,449.25 604.325,446.019C600.239,443.509 595.597,445.932 591.567,446.019C579.67,446.25 567.635,445.673 555.682,445.932L553.903,446.769C553.319,451.211 554.82,462.634 559.963,463.643C568.802,465.403 581.477,462.46 590.761,463.643C594.93,464.566 598.433,464.97 602.602,463.758L615.444,465.489L617.584,461.595C615.027,459.259 613.554,455.913 611.385,453.345L611.385,453.346ZM409.918,446.827L378.23,445.442C376.896,445.904 365.805,458.365 365.055,460.182C364.166,462.259 365.055,463.441 365.5,465.461C375.896,462.951 386.347,465.634 396.715,462.836C402.274,459.721 405.804,451.99 409.918,446.827ZM792.643,449.769C790.364,447.779 781.219,446.452 777.828,446.048C767.126,444.75 756.203,445.298 745.418,445.096C735.439,444.894 717.288,442.385 708.032,447.029C705.391,448.356 705.002,451.067 703.195,452.654C701.805,453.865 699.137,454.212 698.414,455.683C696.969,458.683 695.384,471.49 694.689,475.759C690.381,502.527 690.575,530.911 688.268,557.246C688.185,558.083 686.823,559.092 686.795,560.823C686.795,564.198 698.886,593.245 700.832,599.562C701.944,603.11 705.946,623.157 707.475,624.196L709.977,624.254C710.422,613.697 711.478,603.341 712.729,592.957C714.536,578.102 716.982,549.314 724.542,536.911C726.377,533.911 730.963,528.661 733.993,527.19C739.413,524.594 761.15,524.104 768.405,523.671C772.936,523.411 777.411,522.806 782.192,522.2C784.027,521.969 786.278,522.171 788.168,522.287C798.508,522.864 810.905,524.797 822.413,524.97C834.921,525.143 835.588,521.768 830.529,510.259C824.72,497.019 812.35,477.145 804.373,465.549C802.372,462.664 794.505,451.415 792.643,449.771L792.643,449.769ZM284.947,454.096C284.335,453.663 282.584,454.009 281.222,453.115C279.109,451.702 278.804,448.182 275.357,446.769C264.6,442.356 249.646,444.865 238.555,445.096C227.909,445.298 217.597,444.808 207.006,446.048C200.752,446.798 194.581,446.856 190.245,451.73C179.21,464.133 166.924,486.69 158.947,501.719C157.724,504.027 155.028,506.478 153.971,509.017C152.47,512.651 148.662,524.19 154.777,524.882C163.839,524.334 173.039,524.536 182.128,524.045C187.187,523.757 194.803,521.882 200.057,522.17C205.616,522.487 210.925,523.237 216.29,523.555C224.99,524.103 238.777,524.247 246.894,525.978C255.344,527.795 263.071,540.747 265.073,548.823C270.021,568.986 271.772,595.062 273.106,615.859C273.273,618.282 275.357,620.82 274.023,624.253L277.331,624.138C282.418,602.504 289.95,581.736 297.15,560.794C295.454,535.439 293.759,510.69 290.896,485.653C290.562,482.74 290.562,479.538 290.284,477.49C289.867,474.49 286.115,454.933 284.947,454.097L284.947,454.096ZM751.255,403.992C749.365,402.694 745.724,399.002 743.083,397.819C735.8,394.56 701.834,395.713 692.466,396.261C687.685,396.549 678.512,397.242 674.704,400.011C667.338,405.434 665.642,416.51 664.253,425.106C661.473,442.182 657.221,488.623 661.668,504.516C662.947,509.131 668.311,517.727 670.535,522.804C673.676,529.929 676.511,537.255 679.624,544.409L681.792,508.497C685.128,501.545 685.211,491.132 686.045,482.738C686.99,473.046 686.629,459.489 689.909,450.403C691.966,444.692 700.249,436.125 706.086,435.259C713.091,434.221 720.623,434.567 727.461,434.451C744.139,434.134 761.011,434.278 777.522,435.288C776.716,432.173 777.995,429.375 775.826,426.836C774.992,425.884 773.575,425.48 772.796,424.615C764.429,415.125 761.511,410.942 751.254,403.991L751.255,403.992ZM307.072,398.367C296.065,394.675 272.188,396.175 259.874,396.29C253.703,396.377 248.728,394.963 242.196,397.415C240,398.223 226.074,407.684 224.156,409.559C223.406,410.309 223.739,411.492 222.989,412.27C218.847,416.424 211.509,422.798 208.174,427.096C206.339,429.461 207.034,431.134 206.617,433.875L208.285,434.913C224.574,434.567 240.973,434.134 257.373,434.451C263.933,434.566 271.91,434.278 278.665,435.345C281.055,435.72 289.867,442.095 291.562,444.143C295.676,449.076 297.816,469.325 298.678,476.651C301.068,496.583 301.93,516.717 304.738,536.014C305.099,538.408 304.599,541.091 304.794,543.514L323.39,503.823C324.78,487.814 325.197,470.968 323.585,455.334C323.446,453.978 322.084,453.026 321.917,451.671C320.221,436.845 322.39,419.48 314.746,406.817C313.801,405.259 312.05,401.452 310.855,400.385C309.743,399.404 308.659,400.068 308.048,399.75C307.27,399.317 307.242,398.394 307.075,398.365L307.072,398.367ZM460.368,394.473L460.368,431.308C460.368,431.741 459.006,433.154 459.506,434.394L521.491,434.394C521.852,434.394 522.936,433.009 522.742,432.288C521.046,420.346 520.907,408.289 521.074,396.261L460.368,394.473ZM403.08,430.847C401.218,416.396 405.665,399.637 391.989,390.06C392.601,393.723 394.518,398.454 394.991,402.002C395.13,403.069 394.379,404.742 394.602,406.358C395.742,414.492 397.882,422.598 397.104,430.847L403.08,430.847ZM587.73,430.847C585.284,422.915 588.87,414.261 590.065,406.213C590.287,404.742 589.37,403.357 589.481,402.059C589.787,398.684 593.122,393.434 592.01,389.165L584.755,398.915C580.864,409.213 584.116,420.895 580.891,430.846L587.73,430.847ZM456.227,390.81C479.159,391.214 501.952,391.704 524.772,389.022C527.718,388.041 525.8,381.522 522.382,382.013L458.228,382.071C454.726,382.734 454.698,388.071 456.227,390.811L456.227,390.81ZM719.15,372.551C715.87,370.243 706.809,372.493 702.722,372.378C687.212,372.003 666.615,369.493 651.41,371.397C649.714,371.599 640.625,374.57 639.819,375.58C635.344,381.378 636.233,390.204 633.954,396.781L630.507,456.115L649.242,481.758L653.523,482.277C655.163,476.364 654.023,470.191 654.412,464.133C655.385,449.941 656.497,433.903 657.942,419.885C658.192,417.52 662.389,403.27 663.418,401.626C663.918,400.847 668.56,397.04 669.561,396.463C680.318,390.175 694.994,391.184 706.919,390.954C715.925,390.752 724.986,391.416 733.965,390.55C737.05,383.656 729.212,379.445 724.431,376.387C723.375,375.695 721.79,375.925 720.595,375.002C719.872,374.483 719.733,372.954 719.15,372.55L719.15,372.551ZM353.158,458.048C355.076,454.702 353.297,441.029 352.991,436.472C352.741,433.068 352.046,430.357 351.851,427.674C350.906,414.665 351.267,398.021 348.877,385.589C348.432,383.397 344.791,375.753 343.179,374.599C342.317,373.964 334.812,371.57 333.45,371.397C313.409,368.887 289.643,373.647 269.435,371.484C264.765,374.34 257.733,376.936 253.285,380.282C252.396,380.945 252.507,382.243 251.728,383.34C251.339,383.888 250.116,384.061 249.699,384.725C249.393,385.215 249.616,388.879 249.254,390.004C250.282,391.619 273.103,390.841 277.05,390.956C284.805,391.129 294.284,390.668 301.677,391.937C308.487,393.091 319.439,397.302 322.302,404.254C327.25,416.311 325.749,427.128 326.972,439.33C327.389,443.368 329.14,448.733 329.557,453.493C330.307,461.743 329.529,471.463 330.391,479.252C330.474,480.233 330.335,481.242 331.28,481.935C336.422,483.06 335.31,481.127 337.284,478.531C341.648,472.762 345.901,466.906 350.126,460.82C350.765,459.897 352.794,458.714 353.156,458.051L353.158,458.048ZM600.238,428.77C603.574,418.761 601.989,408.002 603.268,397.733C604.463,387.897 608.077,378.551 610.69,369.032L609.467,367.042C606.548,366.148 599.099,375.349 597.82,377.888C595.346,382.763 592.622,401.426 592.15,407.483C591.566,415.3 592.873,423.752 590.315,431.742L598.848,432.636C597.764,430.04 600.154,428.973 600.238,428.771L600.238,428.77ZM384.679,375.464C382.205,371.772 376.868,363.176 373.171,369.205C376.229,370.907 374.672,372.551 375.117,374.311C377.341,382.59 380.787,391.705 381.732,400.243C382.51,407.483 381.704,416.685 382.844,423.982C383.261,426.78 385.346,429.578 385.179,432.607L394.519,430.415C390.85,424.415 392.629,415.214 391.99,408.233C391.768,405.868 390.545,404.022 390.35,401.945C389.266,391.07 391.267,385.33 384.68,375.465L384.679,375.464ZM644.351,366.321C646.158,365.138 652.301,366.696 654.691,366.638C660.139,366.523 666.671,365.196 671.897,365.167C681.209,365.138 691.799,367.244 701.055,366.148C705.002,365.686 704.78,363.812 701.722,361.792C700.721,361.129 688.13,355.59 687.268,355.475C672.786,353.485 645.629,355.302 630.981,357.292C624.338,358.215 617.639,363.349 613.747,368.715C615.915,375.811 610.884,382.878 610.022,388.762C609.021,395.512 608.966,407.915 608.493,415.588C608.159,421.299 608.966,427.472 607.381,433.01C609.966,433.645 611.022,437.193 612.273,438C613.19,438.635 614.747,438.404 615.692,439.096C616.748,439.875 617.888,443.48 619.973,444.029C621.974,444.837 624.837,440.135 625.282,438.318C627.533,428.886 626.144,413.944 627.061,403.819C627.673,397.329 630.091,379.56 633.399,374.916C633.649,374.57 638.652,369.378 639.014,369.205C640.348,368.542 642.044,369.09 643.295,368.282C643.879,367.907 643.962,366.551 644.351,366.321ZM367.585,368.369C363.999,363.552 356.995,358.36 351.157,357.437C340.65,355.764 328.67,354.668 318.024,356.168L296.037,355.649L279.999,363.87C281.139,365.456 281.917,365.889 283.807,366.149C291.812,367.245 301.43,365.168 309.435,365.168C314.939,365.197 320.275,366.235 325.751,366.437C329.698,366.61 336.981,365.226 340.094,366.091C340.928,366.322 340.9,367.851 341.567,368.226C342.79,368.918 344.291,368.745 345.431,369.611C349.044,372.322 353.408,377.226 354.159,381.841C355.299,388.85 356.633,396.119 357.745,402.956C359.468,413.744 357.272,427.792 359.746,439.07C360.246,441.435 361.191,443.945 364.082,443.974C366.306,444.003 367.056,440.599 368.919,439.301C370.198,438.407 372.477,438.234 372.949,437.715C373.421,437.196 375.2,433.331 376.646,432.177C376.201,422.081 374.811,412.101 374.005,402.063C373.199,391.967 373.949,376.968 367.584,368.372L367.585,368.369ZM516.544,253.652L503.952,254.344L508.761,263.978C516.071,270.007 515.376,279.785 515.599,288.641C516.211,312.38 515.21,336.726 514.265,360.379L508.233,373.186C511.93,372.378 522.465,375.955 524.938,373.244C525.8,372.263 525.688,370.475 526.272,369.465C527.745,366.984 532.554,360.927 532.999,358.562C533.749,354.726 532.137,351.322 532.11,347.947C531.999,331.073 532.833,314.227 533.055,297.382C533.111,292.767 533.778,276.152 532.221,273.354L516.544,253.652ZM475.739,253.45L464.871,253.652L448.416,275.199C448.11,294.323 449.305,313.015 449.278,331.908C449.278,336.869 449.361,341.946 449.334,347.023C449.306,350.802 447.666,354.638 448.417,358.561C448.89,360.926 453.698,366.984 455.144,369.464C456.172,371.195 455.311,373.502 458.229,374.079C463.038,375.031 468.291,372.55 473.183,373.185L467.151,360.378C466.206,336.725 465.205,312.38 465.817,288.64C465.928,284.054 465.956,275.689 467.262,271.679C469.069,265.968 477.157,261.179 475.74,253.449L475.739,253.45ZM497.81,373.013C504.287,365.081 501.84,357.84 501.701,348.668C501.395,324.611 501.284,300.381 501.367,276.036C501.367,273.93 502.368,272.055 502.229,269.95C502.146,268.912 496.475,254.864 495.864,254.316C493.001,251.749 486.747,253.826 483.467,254.403C484.356,259.509 480.048,265.133 479.242,269.922C477.213,282.095 478.353,294.96 478.158,307.103C477.852,323.631 475.712,350.082 479.381,365.428C479.854,367.447 482.939,370.649 483.606,373.014L497.81,373.013ZM513.375,114.157L468.067,114.157L468.373,226.393C468.957,229.047 473.487,227.056 475.183,227.172C476.879,227.259 479.491,227.576 481.104,227.922C482.049,228.153 486.413,229.393 486.024,230.807C485.718,231.845 476.24,232.826 474.322,232.942C466.789,233.346 461.369,228.933 462.564,242.057C463.176,248.691 480.937,246.24 486.469,246.297C494.419,246.384 506.149,247.393 513.82,246.384C521.464,245.374 518.99,236.894 516.238,232.192C506.732,234.067 497.281,230.75 487.719,231.24C489.47,227.029 494.196,229.019 497.531,228.586C500.422,228.211 503.34,227.346 506.259,227.173C508.177,227.029 511.568,228.846 512.986,226.856L513.375,114.157ZM513.375,101.754L468.54,101.725C466.427,104.927 470.097,106.773 472.709,107.119C479.853,108.013 501.589,108.013 508.705,107.119C511.763,106.715 514.236,105.158 513.375,101.754ZM472.348,93.763L468.067,95.09C468.873,96.359 469.707,96.33 471.013,96.475C479.936,97.456 491.638,96.215 501.005,96.388C505.091,96.446 509.622,99.013 513.346,95.09C511.261,93.705 512.29,92.234 512.151,90.186C511.595,89.263 510.483,89.378 509.566,89.292C500.727,88.225 480.964,88.513 471.902,89.321C470.318,89.465 467.371,89.638 468.066,91.975L472.348,93.763ZM507.288,51.275L474.127,51.275C474.266,55.515 468.651,61.919 468.067,64.948C467.011,70.544 469.095,78.13 468.067,83.986L513.375,83.986C512.319,78.13 514.403,70.544 513.347,64.948C512.791,61.919 507.148,55.516 507.287,51.275L507.288,51.275ZM190.662,781.257C192.219,781.632 194.303,784.69 196.166,785.324C203.254,787.689 206.812,785.036 212.844,784.776C224.741,784.286 236.749,785.18 248.645,784.863C249.812,784.575 251.063,773.008 251.397,770.585C256.122,736.49 263.238,701.79 268.13,667.377C268.603,664.002 270.298,660.743 270.632,657.483C271.382,649.839 265.962,625.119 264.739,615.686C262.71,600.225 261.237,587.274 258.29,571.986C256.094,560.419 257.123,554.448 250.174,544.727C247.95,541.612 250.257,543.083 246.31,539.881C235.914,531.343 233.079,534.112 219.876,533.708C197.417,532.987 170.399,530.333 148.662,534.545C147.689,534.747 146.355,533.795 145.465,533.968C143.297,534.43 139.433,538.526 138.294,540.631C128.871,558.053 116.808,589.379 112.416,608.705C112.194,609.772 113.055,610.32 111.165,610.032L58.158,555.053C35.81,529.352 35.977,488.68 58.575,463.21L174.402,343.013L174.847,221.056C177.293,199.191 194.332,181.481 215.457,178.942L332.979,178.452L449.25,57.822C474.322,35.813 511.541,35.467 536.836,57.418L653.58,178.452L771.102,178.942C791.755,181.394 808.182,198.239 811.629,219.383L812.157,343.013L927.984,463.21C950.86,489.776 950.749,528.14 928.401,555.053L873.67,611.82C871.141,608.618 871.307,604.291 870.084,600.484C864.08,581.389 856.019,562.928 847.263,545.217C846.29,543.256 846.346,540.919 844.928,538.785C843.121,536.102 840.786,536.449 839.369,533.708C832.364,535.035 825.554,531.891 818.133,531.948C816.076,531.948 814.214,532.9 812.185,532.9C791.505,532.987 770.685,532.929 750.589,533.188C746.114,533.246 743.445,537.082 742.695,537.313C739.637,538.265 738.414,537.688 735.607,541.294C727.852,551.246 728.297,560.303 725.962,572.072C721.431,594.715 717.901,620.301 715.205,643.435C712.286,668.703 721.487,694.029 725.295,718.807C726.379,725.989 726.184,734.268 727.324,741.537C728.936,752.181 731.438,760.604 732.689,771.651C733.162,775.834 734.107,780.103 734.69,784.285C735.691,785.756 764.71,784.4 769.38,784.833C776.885,785.468 781.61,788.669 789.727,784.631C791.256,783.852 792.173,781.833 793.507,781.429C798.621,779.9 806.265,782.266 811.713,780.391L811.713,800.352C811.713,817.515 786.557,841.168 769.435,839.841L654.859,839.841L625.729,868.225C623.394,868.513 621.282,867.331 618.975,867.273C604.799,866.956 588.066,865.283 573.639,863.754C571.804,863.581 553.237,862.139 556.961,857.552C567.079,854.148 577.391,851.293 587.565,848.062C589.01,847.6 590.178,846.533 591.651,846.072C600.379,843.332 609.635,843.678 616.807,836.697C614.667,831.476 608.552,832.168 604.604,830.899C601.88,830.005 598.683,828.418 594.736,827.668C585.758,825.966 567.885,826.11 561.798,820.139C561.103,819.476 559.547,819.072 561.214,818.062C564.188,816.302 566.69,817.081 569.108,816.562C596.626,810.62 625.812,811.831 653.747,806.726C664.143,804.822 675.178,801.592 685.546,799.111L685.24,794.092C682.516,792.967 678.902,793.371 676.29,792.707C654.915,787.313 631.288,790.255 609.496,790.169C584.924,790.082 559.769,788.842 535.197,788.323C528.498,788.179 504.705,789.679 500.619,786.967C499.924,786.505 499.396,785.9 498.84,785.265C498.896,781.054 523.301,784.082 526.775,780.102C530.111,776.294 530.083,772.487 530.166,767.641C530.472,749.93 525.496,719.845 521.521,701.384C520.076,694.75 519.575,692.5 512.571,690.279C443.414,689.212 373.924,690.798 305.212,689.01C300.653,688.866 298.847,687.193 293.51,689.27C278.167,695.212 279,714.221 276.026,727.922C275.359,731.124 273.274,734.066 272.524,737.585C271.412,742.662 272.524,747.825 272.107,752.209C271.384,759.882 268.771,768.506 269.717,776.41C270.44,782.554 274.109,784.371 279.529,784.862C293.705,786.073 311.217,784.054 325.643,784.025C336.65,783.996 347.824,784.775 359.026,784.862C367.81,784.92 376.538,783.131 385.154,784.833C384.542,785.698 384.515,787.66 384.07,788.15C382.986,789.361 362.75,790.602 359.137,791.092C354.05,791.784 348.297,792.332 343.071,793.948C341.82,794.323 335.066,796.544 334.704,796.775C328.95,800.813 345.656,803.15 347.212,803.323C366.475,805.486 387.961,805.4 406.863,807.967C408.42,808.198 423.846,811.515 422.762,813.188L415.257,818.294C401.303,821.496 386.988,822.361 373.757,828.274C371.895,829.485 374.507,832.457 375.786,833.12C380.623,835.63 394.437,837.678 400.108,838.024C410.254,838.687 420.9,836.178 430.434,841.601C430.712,842.005 429.572,842.986 429.155,843.361C423.234,848.668 391.074,851.668 381.373,853.226C380.15,853.399 379.122,854.611 377.787,854.812C369.087,856.254 360.053,856.312 351.381,858.446L331.701,839.841L214.707,839.697C197.724,839.293 174.847,816.881 174.847,799.458L174.847,781.257C179.406,781.978 186.466,780.305 190.663,781.257L190.662,781.257Z" style="fill:rgb(69,28,21);fill-rule:nonzero;"/>
        <path d="M412.498,880.628C405.855,888.993 391.79,887.81 382.2,890.406L366.328,874.426C374,874.772 382.227,875.291 389.788,876.243C394.652,876.878 397.904,877.08 402.685,877.483C405.465,877.743 409.384,880.627 412.497,880.627L412.498,880.628Z" style="fill:rgb(69,28,21);fill-rule:nonzero;"/>
        <path d="M602.267,893.051C596.597,898.445 590.787,911.079 582.643,902.253C582.309,901.013 582.921,900.522 583.421,899.657C586.228,894.753 597.013,893.513 602.267,893.051Z" style="fill:rgb(69,28,21);fill-rule:nonzero;"/>
    </g>
</svg>
