<?xml version="1.0" encoding="UTF-8" standalone="no"?>
<!DOCTYPE svg PUBLIC "-//W3C//DTD SVG 1.1//EN" "http://www.w3.org/Graphics/SVG/1.1/DTD/svg11.dtd">
<svg width="100%" height="100%" viewBox="0 0 60 60" version="1.1" xmlns="http://www.w3.org/2000/svg" xmlns:xlink="http://www.w3.org/1999/xlink" xml:space="preserve" xmlns:serif="http://www.serif.com/" style="fill-rule:evenodd;clip-rule:evenodd;stroke-linejoin:round;stroke-miterlimit:2;">
    <g transform="matrix(0.058594,0,0,0.058594,-0.000022,0.000007)">
        <path d="M506.879,15.421C481.207,16.805 461.362,26.642 442.67,43.545C405.143,77.467 371.163,117.878 333.896,152.348C297.955,155.002 259.909,150.386 224.199,152.749C186.354,155.287 155.952,185.805 152.75,223.39L152.292,333.924L35.557,451.64C7.376,487.494 7.376,536.473 35.557,572.356L152.292,690.043C154.945,725.984 150.33,764.03 152.725,799.74C155.234,837.584 185.781,867.987 223.366,871.16L333.9,871.651C371.139,906.15 405.176,946.475 442.674,980.426C485.797,1019.482 538.093,1019.511 581.245,980.426C618.743,946.475 652.752,906.151 690.019,871.651C725.96,868.969 764.006,873.613 799.687,871.242C837.243,868.732 867.473,838.705 871.136,801.496L871.594,690.068L988.329,572.381C1016.568,536.44 1016.568,487.577 988.329,451.665L871.594,333.949L871.013,221.742C866.975,184.792 837.524,156.062 800.516,152.832L690.011,152.374C652.743,117.904 618.735,77.493 581.237,43.571C560.036,24.418 536.066,13.861 506.875,15.447L506.879,15.421ZM502.434,0.36C534.913,-2.207 565.691,9.042 589.228,31.138L696.82,138.441L804.873,138.727C818.978,140.66 832.131,145.073 844.073,152.803C905.945,192.753 879.379,266.221 885.812,327.747L998.971,441.886C1034.508,486.048 1031.652,548.295 992.827,589.283L885.812,696.298L885.231,804.929C883.298,819.033 878.885,832.216 871.155,844.157C831.205,906.001 757.737,879.463 696.211,885.867L582.072,999.054C537.853,1034.619 475.721,1031.793 434.674,992.881L327.659,885.866L219.029,885.294C204.924,883.364 191.742,878.949 179.8,871.247C117.928,831.268 144.523,757.858 138.09,696.303L24.903,582.135C-10.634,537.973 -7.749,475.755 31.076,434.738L138.091,327.752L138.639,219.093C140.572,204.988 145.013,191.835 152.715,179.893C192.694,118.021 266.133,144.587 327.659,138.154L441.798,24.967C458.961,11.15 480.306,2.122 502.43,0.362L502.434,0.36Z" style="fill:rgb(69,28,21);fill-rule:nonzero;"/>
    </g>
    <g transform="matrix(0.058594,0,0,0.058594,-0.000022,0.000007)">
        <path d="M416.479,421.846C416.741,419.567 416.479,420.432 415.181,420.058C405.172,417.116 394.009,416.02 384.173,411.981L382.731,408.549C386.307,408.811 389.307,407.569 392.913,407.654C400.067,407.801 414.114,411.086 421.844,412.529C547.117,435.663 675.708,455.652 802.424,470.594C843.73,475.469 885.324,478.382 926.63,483.142C943.475,485.075 960.234,488.219 977.109,489.314C983.224,504.458 982.705,522.37 976.214,537.341L856.45,537.251C843.874,538.463 830.172,535.433 817.856,540.423C806.462,545.038 807.645,551.701 818.721,555.509C822.499,556.807 830.172,555.509 828.096,562.172C825.442,567.595 805.251,563.182 799.684,563.008C772.252,562.113 740.898,562.427 713.495,563.903C705.216,564.336 688.025,565.634 686.583,576.162C685.371,585.046 707.351,587.556 713.495,587.96C720.966,588.418 728.898,586.893 735.734,587.037C741.503,587.127 748.57,589.316 754.368,589.691C764.608,590.329 777.444,589.462 787.136,590.671C789.847,591.014 792.299,592.055 794.607,593.411L792.991,599.44C794.693,599.326 796.02,598.604 797.837,598.517C811.884,597.879 853.104,597.622 863.805,605.353C864.557,605.901 870.814,612.882 870.959,613.401C871.564,615.42 871.507,623.208 870.321,624.824C869.683,625.719 862.85,629.468 861.35,630.074C854.744,632.814 847.418,632.987 840.899,636.276C834.178,639.68 828.957,644.785 831.351,653.006C833.226,659.38 853.619,662.669 859.59,661.631C854.6,669.391 850.215,669.419 841.504,668.611C827.053,667.255 817.995,659.669 823.389,644.497C824.109,642.477 827.629,635.44 828.956,634.084C838.1,624.536 849.638,629.122 859.33,623.613C866.829,619.344 862.186,611.96 854.974,609.825C824.283,600.768 787.765,609.244 756.18,603.854C735.989,604.777 714.932,601.489 694.827,602.989C685.164,603.684 676.799,606.22 670.915,613.748C631.599,612.971 592.024,614.93 552.824,612.738C545.296,612.337 543.392,614.036 536.267,610.603C535.2,610.088 533.671,610.341 533.008,609.908C532.37,609.507 526.547,599.466 524.787,597.274C522.335,594.159 518.932,591.015 516.451,587.842C508.374,577.458 501.711,565.949 491.962,556.834C495.251,556.605 498.856,557.21 502.087,556.744C506.501,556.139 510.885,552.706 514.808,551.696C524.125,549.331 553.46,553.514 554.181,538.6C554.443,533.495 547.922,527.899 543.018,527.466C541.085,527.319 531.74,528.071 529.749,528.446C527.787,528.789 523.605,531.878 520.836,532.86C506.529,538.052 500.241,535.629 486.222,535.485C472.751,535.338 459.252,535.657 445.781,535.514L460.002,546.59C476.588,565.455 498.423,578.637 511.346,600.934C514.029,605.492 515.932,611.664 518.788,616.597C520.404,619.453 529.749,634.221 531.653,634.798C543.451,636.154 555.219,635.403 567.046,635.836C590.612,636.672 614.467,638.461 638.033,639.413C657.907,640.19 656.667,637.855 672.849,631.596C681.877,628.105 691.137,631.882 700.165,632.348C717.905,633.243 735.789,630.473 753.355,632.406C754.393,632.52 758.23,632.807 758.345,634.079C756.729,634.537 755.23,634.915 753.528,635.002C730.394,636.416 709.857,636.358 686.867,634.973C673.598,634.196 668.262,642.559 655.714,644.636C651.849,645.274 648.878,643.367 646.08,646.598L423.34,646.712C418.869,649.337 412.523,652.308 415.725,658.394C417.571,661.942 426.109,664.249 421.408,668.778C416.591,673.422 400.178,669.96 392.909,670.451C385.698,670.942 374.333,672.326 376.496,681.989C363.977,685.363 350.824,686.373 337.873,687.354C328.556,688.049 309.865,686.692 301.903,689.546C298.672,690.7 297.519,693.902 292.615,694.479C277.01,696.382 243.117,691.422 230.05,698.517C215.599,706.392 224.829,717.843 237.665,719.228C261.26,721.766 290.047,719.571 313.873,719.286C330.055,721.046 352.208,720.151 367.669,724.189C370.15,724.827 377.044,730.967 378.197,733.217C379.928,736.649 378.63,740.255 380.015,743.803C379.901,745.88 370.871,754.245 368.823,755.601C355.266,764.629 330.517,762.177 314.825,763.735C299.047,765.321 299.479,780.407 286.644,784.417C256.126,787.244 224.858,784.074 193.994,784.998C189.782,785.145 185.571,786.614 181.158,785.95L181.158,777.931L264.231,777.095C269.654,776.028 276.605,775.653 281.567,773.115C286.153,770.779 289.644,764.75 294.518,762.096C313.931,751.596 346.641,760.914 361.871,749.52C374.332,740.203 362.1,729.271 350.304,728.232C315.863,725.203 280.961,730.799 246.433,728.203C234.03,727.28 213.348,721.078 216.002,704.896C219.982,680.493 262.875,686.291 280.095,683.753C284.479,683.091 287.479,679.975 291.979,678.763C303.517,675.648 317.651,676.743 328.612,673.658C331.265,672.906 334.699,671.351 334.699,668.293C334.47,663.678 328.151,662.438 324.459,661.717C308.883,658.775 261.75,657.737 246.837,661.136C243.346,661.945 239.77,663.992 236.424,664.914C221.944,668.894 206.396,666.414 191.512,666.385C186.031,666.385 173.744,668.664 169.417,666.704L85.25,583.032L84.385,580.811C115.451,571.292 148.363,559.725 180.842,556.062C266.713,546.399 380.305,570.023 452.273,618.281C456.802,621.31 467.993,631.29 471.57,632.732C473.589,633.541 476.07,633.313 478.204,633.19C479.214,633.132 480.656,633.795 480.425,632.325C468.454,624.075 457.234,614.701 444.83,607.086C373.871,563.501 261.549,541.493 179.053,551.617C145.881,555.684 111.787,566.991 80.346,577.837C69.904,567.222 57.357,557.559 50.693,544.031L51.502,543.079C67.367,534.599 81.501,523.176 97.971,515.821C128.258,502.322 160.853,490.812 194.053,487.582C275.194,479.679 358.556,484.813 430.437,526.436C457.205,526.232 506.155,538.291 527.789,518.533C529.549,516.917 530.5,514.062 531.683,513.283C534.048,511.697 550.951,508.321 554.586,508.004C563.614,507.227 588.969,510.283 594.911,504.832C598.689,501.371 598.776,491.506 593.238,489.746C591.565,489.198 586.748,488.621 584.758,488.477C548.385,485.592 509.79,491.073 473.734,488.506C468.34,488.105 462.398,486.66 457.321,484.9C454.956,481.698 477.599,479.593 478.868,479.362C489.021,477.343 498.915,470.68 498.31,459.286L525.655,448.44L524.819,446.738C526.405,446.852 541.03,441.287 539.905,440.507C531.453,438.257 523.925,442.325 516.223,445.67C513.021,447.084 496.406,456.429 495.224,456.343C493.493,456.196 486.599,452.795 482.532,452.161C439.495,445.383 396.142,449.882 352.961,448.527C341.798,448.184 330.404,446.248 319.299,445.816C285.954,444.46 251.023,447.258 218.053,447.633C200.631,447.837 175.016,448.385 159.642,439.412C146.056,431.48 156.065,415.557 149.373,404.365C145.623,398.106 138.556,396.346 132.326,393.894C135.182,389.193 140.72,391.009 145.249,392.51C149.691,393.981 155.402,398.019 158.085,401.885C163.71,409.99 154.566,422.105 160.71,431.22C163.479,435.345 177.527,438.056 182.488,438.748C182.578,436.123 179.603,433.96 179.633,431.364C179.723,424.182 183.585,418.903 189.729,415.759C205.911,407.509 241.967,411.173 260.687,411.23C278.686,411.288 297.609,412.297 315.723,411.23C319.357,411.026 325.473,410.682 328.819,410.105C338.251,408.461 333.492,401.74 327.117,398.884C316.012,393.922 301.157,395.365 291.897,390.606C287.83,388.529 282.984,383.856 279.176,382.039C268.849,377.077 228.092,381.287 213.554,380.164C207.237,379.673 199.997,376.992 196.766,371.164C194.863,367.732 193.997,358.472 190.911,355.732C188.142,353.28 178.796,351.982 174.96,351.694C179.027,343.934 186.181,346.387 192.93,349.271C205.391,354.578 202.651,368.424 209.949,371.308C214.911,372.06 220.16,372.692 225.121,373.01C241.938,374.135 275.657,371.712 289.243,379.933C293.974,382.789 293.944,385.5 300.81,387.029C314.05,389.914 326.107,390.029 337.905,398.769C350.943,408.432 342.405,417.98 329.021,419.191C324.607,419.592 321.29,418.326 317.512,418.268C282.264,417.892 247.015,418.759 211.767,418.358C209.084,418.329 206.864,417.06 203.892,417.463C202.046,417.692 196.565,419.857 194.921,420.982C190.911,423.693 186.874,431.395 190.969,435.606C191.746,436.415 200.834,440.048 202.247,440.307C216.035,442.903 227.919,437.74 240.207,437.451C245.428,437.337 251.197,438.605 256.158,438.778C299.858,440.105 343.76,439.53 387.575,439.587L416.479,421.846Z" style="fill:rgb(69,28,21);fill-rule:nonzero;"/>
    </g>
    <g transform="matrix(0.058594,0,0,0.058594,-0.000022,0.000007)">
        <path d="M842.723,234.495L842.723,241.591L800.494,241.649C791.667,241.101 779.437,240.553 771.072,244.101C766.197,246.149 762.332,250.591 757.082,252.293C738.91,258.235 722.699,253.475 704.613,255.062C698.526,255.61 686.96,265.042 695.585,269.311C710.873,276.869 742.573,266.08 753.794,280.359C759.534,287.657 750.737,295.704 744.794,299.512C737.9,303.954 733.285,304.272 725.093,304.675C669.999,307.56 610.954,299.57 556.35,303.78C546.485,304.532 538.524,307.328 534.601,317.078C542.072,316.497 549.831,318.549 557.187,318.896C574.032,319.648 586.378,315.637 601.666,325.04C609.367,329.8 609.194,337.616 611.473,345.549C623.299,344.251 635.068,342.117 646.923,341.078C721.314,334.415 793.455,343.472 864.241,367.038L939.526,442.266C896.172,428.94 851.895,417.806 806.753,412.094C766.86,407.075 726.939,407.162 686.902,407.652L650.932,411.2C657.422,411.633 665.47,413.911 671.787,413.94C678.191,413.969 686.556,412.18 693.046,412.065C746.957,410.998 798.734,413.623 851.635,424.065C877.884,429.257 903.585,436.786 929.286,444.054C930.757,445.236 928.219,445.064 927.498,444.977C837.56,436.641 747.592,428.68 657.567,420.978L621.886,416.622C590.676,414.978 558.946,410.305 528.14,404.767C508.266,401.191 488.507,396.229 468.864,391.671C471.373,387.95 477.402,388.037 481.065,386.537C489.372,383.133 497.651,378.576 506.189,375.259C537.976,362.913 571.205,353.914 604.666,347.222C604.29,335.309 602.041,329.511 590.503,325.531C581.186,322.329 562.639,324.608 551.88,324.233C533.044,323.538 513.949,321.839 495.113,321.493C467.999,320.978 424.558,325.271 399.809,318.204C379.098,312.319 386.338,303.233 396.088,290.023C400.963,283.417 405.78,283.245 401.569,272.947C396.233,260.024 388.012,258.034 375.061,255.957C351.293,252.179 287.344,255.005 272.171,238.073C266.806,232.073 269.95,228.266 269.921,221.228C266.575,219.786 264.268,221.948 261.556,222.093C246.672,222.929 227.317,221.717 217.568,235.823C215.203,239.255 214.597,250.851 214.885,255.409C215.4,263.601 218.548,268.101 225.269,272.543C237.586,280.706 253.393,280.908 267.325,284.629C274.479,286.562 280.824,290.254 282.18,298.186C284.142,309.609 276.901,316.33 269.315,323.31C268.71,323.858 267.18,323.858 266.43,324.637C264.151,326.944 264.786,330.146 266.401,332.627C271.161,339.752 296.861,349.732 305.688,352.847C335.398,363.26 366.205,370.414 396.723,378.144L398.713,379.673C397.904,380.653 396.953,381.375 395.656,381.49C391.185,381.891 373.993,378.201 368.513,377.048C336.438,370.356 294.728,359.28 265.335,345.232C258.239,341.858 247.538,335.713 251.259,326.339C254.259,318.781 281.835,314.195 270.354,299.369C263.431,290.398 244.567,289.764 234.067,286.821C182.867,272.427 199.713,214.882 245.547,210.526C259.681,209.199 271.219,210.64 285.266,205.853C291.525,203.748 305.919,196.478 310.736,192.238C317.11,186.671 315.409,178.017 326.803,181.681C325.101,184.854 324.236,189.527 322.534,192.498C321.207,194.777 317.429,196.998 318.005,199.248C321.062,203.546 325.678,206.142 330.351,208.305C329.024,211.161 311.977,211.651 308.66,211.334C306.555,211.13 304.478,209.431 302.429,209.632C301.767,209.69 296.17,213.093 295.968,213.41C293.372,217.304 295.649,227.111 297.699,231.179C301.651,238.939 314.025,244.101 322.16,245.774C354.264,252.408 393.753,230.371 402.262,198.093C389.08,210.093 371.629,215.112 354.322,209.198C360.754,204.381 366.495,198.9 371.658,192.756C383.052,179.257 393.926,160.853 399.176,143.922C401.079,137.72 401.974,127.307 404.281,122.404C404.976,120.962 406.041,120.125 407.166,119.087C411.031,129.269 412.733,140.375 416.454,150.614C422.137,166.248 437.972,190.016 450.693,200.718C453,202.68 455.856,203.977 458.279,205.708C458.393,209.054 455.596,209.573 452.943,210.122C436.271,213.583 420.781,210.874 409.82,197.199C408.897,200.776 412.964,204.353 414.464,207.641C416.31,211.708 416.916,215.516 419.339,219.669C426.435,231.87 444.146,244.187 457.616,247.966C484.874,255.61 526.671,225.496 531.921,198.093C518.739,210.093 501.259,215.112 483.981,209.198C490.385,204.381 496.125,198.9 501.288,192.756C510.663,181.68 519.864,167.113 525.258,153.671C530.363,140.922 532.931,127.191 535.498,113.721C536.738,112.163 537.056,113.868 537.229,115.077C541.267,142.278 551.767,168.988 569.651,190.103C575.651,197.17 583.006,203.429 591.429,207.41C572.824,214.506 552.373,213.121 539.047,197.199C538.728,198.699 539.48,199.766 540.085,201.035C547.7,217.188 560.824,238.735 578.304,244.504C598.178,251.11 615.11,248.888 632.532,236.976C644.128,229.073 652.464,211.102 657.137,198.093C643.926,210.093 626.475,215.112 609.197,209.198C627.687,194.949 641.099,174.844 650.474,153.672L678.454,180.757C681.425,182.113 687.107,180.324 688.925,181.395C689.383,181.681 693.483,188.549 694.867,190.106C697.463,193.106 701.645,197.288 704.617,199.884C706.348,201.384 712.722,204.874 712.982,205.307C715.751,210.095 700.925,211.249 698.415,211.394C683.964,212.203 673.897,207.673 664.263,197.202C665.273,202.25 669.023,207.038 671.503,211.711C675.311,218.922 677.676,225.153 683.791,231.383C692.848,240.613 715.895,245.719 728.616,244.277C732.02,243.876 737.731,241.248 740.933,239.691C756.48,232.105 769.345,214.711 773.441,198.097C760.259,210.097 742.808,215.116 725.501,209.202C735.597,201.846 743.673,192.27 750.769,182.059L753.452,181.164C768.336,182.318 785.037,179.808 799.69,181.193C807.795,181.945 806.67,185.231 811.199,190.106C816.939,196.308 823.054,202.077 830.265,206.519C830.355,209.778 817.4,211.25 814.746,211.394C800.872,212.171 789.853,207.933 780.997,197.202C780.359,200.317 784.112,205.509 786.045,208.163C792.939,217.566 816.274,234.498 828.072,234.498L842.723,234.495Z" style="fill:rgb(69,28,21);fill-rule:nonzero;"/>
    </g>
    <g transform="matrix(0.058594,0,0,0.058594,-0.000022,0.000007)">
        <path d="M430.694,850.773L425.502,850.937L417.368,865.879C419.128,865.879 420.772,866.288 422.271,865.012C424.435,863.082 428.098,853.561 430.694,850.791L430.694,850.773ZM842.715,759.324C810.668,749.055 777.122,742.68 743.604,739.017C653.031,729.094 550.141,744.786 475.519,799.274C474.307,800.631 476.442,800.141 477.307,800.165C478.98,800.222 480.798,800.329 482.441,800.001C485.066,799.429 500.325,788.29 504.68,785.838C576.994,745.397 670.077,735.013 751.564,745.282C782.37,749.147 813.032,755.522 842.599,764.81C841.822,785.521 847.502,809.519 831.465,825.817C825.58,825.081 819.927,825.572 813.87,825.081C803.255,824.133 777.208,817.411 768.987,819.308C762.237,820.87 766.304,827.645 761.862,831.683C757.074,836.041 740.546,835.174 733.94,834.831C723.902,834.34 712.883,831.569 702.903,831.25C694.278,831.005 685.538,832.893 677.144,833.098C654.732,833.67 632.809,833.016 610.541,832.15C602.061,831.823 569.927,831.316 565.283,838.438C563.004,841.929 563.178,847.639 566.581,850.35C569.552,852.713 586.657,856.957 591.186,857.709C599.724,859.148 610.281,856.703 615.762,865.125C627.415,883.067 611.868,893.047 596.349,897.951C582.475,902.309 549.361,901.238 533.294,901.5C494.786,902.072 456.249,899.685 417.77,900.519C408.511,900.683 403.059,904.583 396.944,894.378C398.126,892.792 416.212,893.642 419.616,893.511C472.114,891.663 525.535,894.811 577.686,892.62C581.811,892.456 592.57,892.048 595.714,891.124C604.108,888.557 614.232,874.855 606.56,866.576C602.637,862.365 581.321,862.856 575.234,862.136C563.667,860.779 549.158,850.165 556.11,837.3C560.292,829.54 573.1,826.513 581.205,825.994C608.348,824.203 637.193,827.466 664.509,825.83L676.133,813.513C692.43,810.43 709.449,810.112 724.939,803.706C729.612,801.776 743.429,796.208 735.525,790.696C721.737,789.339 707.805,789.6 693.988,788.706C678.123,787.696 652.076,783.053 637.394,786.312C632.346,787.437 628.568,790.062 622.972,790.524C604.511,792.143 568.369,783.89 554.119,790.033C546.129,793.492 554.209,798.888 553.254,804.686C542.783,805.872 532.197,805.422 521.727,806.477C510.564,807.548 496.834,811.702 486.161,811.816C462.45,812.143 410.01,806.191 394.694,827.738C387.886,837.286 400.694,839.536 408.049,840.199C431.067,842.243 459.681,837.803 480.507,847.672C484.083,849.373 490.487,850.068 490.718,855.75C490.865,860.19 487.112,861.433 485.122,863.567C484.257,864.491 484.286,866.249 483.074,867.287C477.593,871.956 428.413,870.574 417.827,870.893C413.991,870.975 409.866,872.103 406.318,872.218C396.222,872.545 386.155,872.16 376.089,873.052L344.994,842.88L318.803,842.88C321.053,836.306 323.389,830.16 327.658,824.592L325.898,822.891C382.838,739.356 487.776,690.233 586.541,678.608C620.722,674.57 653.432,676.531 686.864,674.137C691.652,673.794 699.325,671.224 703.709,671.512C705.873,671.659 707.055,673.704 709.103,674.108C723.122,676.906 744.467,675.522 759.697,676.819C777.581,678.348 815.541,682.328 831.405,688.588C834.261,689.713 838.904,696.348 842.712,697.674L842.715,759.324Z" style="fill:rgb(69,28,21);fill-rule:nonzero;"/>
    </g>
    <g transform="matrix(0.058594,0,0,0.058594,-0.000022,0.000007)">
        <path d="M965.083,467.343L968.833,472.477C966.612,472.363 964.333,472.624 962.112,472.535C886.365,468.814 810.82,463.218 735.852,451.94L702.421,444.96C736.227,446.95 769.601,452.921 803.205,456.498C857.001,462.181 911.085,465.065 965.083,467.344L965.083,467.343Z" style="fill:rgb(69,28,21);fill-rule:nonzero;"/>
    </g>
    <g transform="matrix(0.058594,0,0,0.058594,-0.000022,0.000007)">
        <path d="M947.505,573.717L933.717,587.015C925.957,586.614 898.584,588.977 894.171,582.198C892.066,578.996 893.828,575.679 897.344,574.612L947.505,573.717Z" style="fill:rgb(69,28,21);fill-rule:nonzero;"/>
    </g>
</svg>
