<?xml version="1.0" encoding="UTF-8" standalone="no"?>
<!DOCTYPE svg PUBLIC "-//W3C//DTD SVG 1.1//EN" "http://www.w3.org/Graphics/SVG/1.1/DTD/svg11.dtd">
<svg width="100%" height="100%" viewBox="0 0 60 61" version="1.1" xmlns="http://www.w3.org/2000/svg" xmlns:xlink="http://www.w3.org/1999/xlink" xml:space="preserve" xmlns:serif="http://www.serif.com/" style="fill-rule:evenodd;clip-rule:evenodd;stroke-linejoin:round;stroke-miterlimit:2;">
    <g transform="matrix(0.058594,0,0,0.058594,0.000042,0.000006)">
        <path d="M511.955,12.403C487.245,12.403 462.522,21.783 443.739,40.566L333.1,151.205L227.912,151.205C185.675,151.205 151.125,185.755 151.125,227.992L151.125,333.14L40.486,443.779C2.949,481.348 2.949,542.681 40.486,580.25L151.125,690.889L151.125,795.998C151.125,838.235 185.675,872.785 227.912,872.785L333.1,872.785L443.739,983.463C462.524,1002.232 487.241,1011.626 511.955,1011.626C536.669,1011.626 561.386,1002.231 580.171,983.463L690.81,872.785L795.998,872.785C838.235,872.785 872.785,838.235 872.785,795.998L872.785,690.889L983.424,580.25C1020.991,542.683 1020.991,481.345 983.424,443.779L872.785,333.14L872.785,227.992C872.785,185.755 838.235,151.205 795.998,151.205L690.81,151.205L580.171,40.566C561.388,21.783 536.665,12.403 511.955,12.403Z" style="fill:rgb(247,188,63);fill-rule:nonzero;"/>
    </g>
    <g transform="matrix(0.058594,0,0,0.058594,0.000042,0.000006)">
        <path d="M506.958,15.446C481.286,16.83 461.441,26.667 442.721,43.57C405.223,77.463 371.215,117.874 333.947,152.344C298.006,154.998 259.96,150.354 224.25,152.745C186.406,155.254 156.003,185.772 152.801,223.357L152.31,333.89L35.575,451.577C7.394,487.431 7.365,536.439 35.546,572.293L152.252,690.009C154.906,725.95 150.29,763.996 152.653,799.706C155.191,837.55 185.709,867.953 223.294,871.155L333.827,871.646C371.066,906.144 405.074,946.469 442.572,980.449C485.695,1019.505 537.991,1019.534 581.143,980.478C618.641,946.528 652.678,906.203 689.946,871.704C725.887,869.051 763.933,873.666 799.614,871.303C837.17,868.794 867.399,838.766 871.063,801.556L871.554,690.128L988.318,572.47C1016.557,536.529 1016.557,487.666 988.347,451.725L871.612,334.009L871.064,221.831C867.029,184.852 837.578,156.122 800.599,152.892L690.066,152.401C652.798,117.931 618.819,77.491 581.321,43.598C560.12,24.416 536.15,13.859 506.959,15.445L506.958,15.446ZM502.515,0.36C534.994,-2.207 565.772,9.042 589.309,31.166L696.9,138.469L804.924,138.788C819.029,140.721 832.182,145.134 844.124,152.864C905.996,192.814 879.43,266.282 885.834,327.808L998.992,441.976C1034.5,486.137 1031.644,548.385 992.79,589.373L885.776,696.359L885.171,805.018C883.238,819.094 878.825,832.276 871.095,844.218C831.145,906.061 757.677,879.495 696.151,885.899L581.983,999.056C537.764,1034.622 475.661,1031.795 434.586,992.884L327.6,885.841L218.97,885.26C204.865,883.327 191.683,878.886 179.741,871.184C117.869,831.176 144.464,757.795 138.06,696.24L24.902,582.072C-10.635,537.882 -7.75,475.663 31.074,434.646L138.117,327.689L138.698,219.031C140.631,204.926 145.072,191.773 152.774,179.831C192.753,117.959 266.192,144.525 327.718,138.121L441.886,24.963C459.049,11.146 480.394,2.089 502.518,0.358L502.515,0.36Z" style="fill:rgb(69,28,21);fill-rule:nonzero;"/>
    </g>
    <g transform="matrix(0.058594,0,0,0.058594,0.000042,0.000006)">
        <path d="M511.44,802.832C518.939,788.179 531.891,775.949 543.4,764.209L520.67,732.739C518.391,732.363 496.065,757.401 492.95,760.776L511.44,802.832ZM240.385,680.415C235.885,681.771 234.155,690.915 239.49,692.501C249.932,695.558 250.336,677.444 240.385,680.415ZM763.4,672.54C760.026,673.52 755.035,682.607 755.814,685.924C757.083,691.26 769.486,694.491 772.977,690.078C778.746,682.809 774.621,669.194 763.401,672.54L763.4,672.54ZM803.408,650.358C797.408,651.396 794.437,657.944 797.236,663.194C801.303,670.924 813.735,671.588 816.36,662.417C818.495,654.859 810.475,649.119 803.409,650.36L803.408,650.358ZM583.034,649.755C581.217,651.341 576.717,655.957 574.554,655.034L536.796,612.805L515.97,637.237C534.2,654.544 551.911,672.947 565.525,694.234C565.901,698.301 528.027,723.713 523.902,729.569L547.411,761.096C583.669,728.386 624.859,701.878 663.31,671.879C649.061,654.197 635.446,636.083 618.485,620.852C609.572,627.428 600.024,632.823 591.804,640.322C588.747,643.12 586.439,646.754 583.035,649.754L583.034,649.755ZM678.164,612.142C674.27,613.037 671.588,618.603 671.356,622.267C670.694,631.555 685.894,635.766 691.028,625.901C695.903,616.498 687.134,610.094 678.163,612.142L678.164,612.142ZM509.998,733.896C523.757,720.195 540.285,709.234 555.457,697.148L556.38,695.36C554.073,692.245 552.198,687.774 550.034,684.803C537.919,668.015 502.036,630.2 485.104,619.181C477.546,614.278 453.663,602.999 446.683,611.48C443.683,615.173 442.039,636.748 441.318,642.546C440.598,648.344 437.684,658.122 439.183,663.343C440.798,669.054 451.702,682.756 455.365,688.9C462.519,700.986 469.585,714.139 475.758,726.196C480.835,736.148 485.392,746.532 490.152,756.656C496.988,749.3 502.873,740.964 509.997,733.897L509.998,733.896ZM388.042,700.696L432.723,684.543L434.137,682.64C426.638,669.833 419.08,657.141 410.225,645.228C396.581,626.825 380.024,606.518 364.939,589.269C362.43,586.384 351.238,573.376 348.959,572.337C348.297,572.051 347.747,571.846 347.026,572.075C321.816,579.978 294.413,584.536 270.529,596.016C259.28,601.41 255.703,603.602 254.809,616.727C253.482,636.399 265.222,643.091 275.635,657.254C311.431,706.059 331.132,759.999 359.17,812.555C361.939,817.718 364.621,823.112 366.728,828.564L373.939,811.372C379.304,804.94 387.179,804.449 394.217,801.478C406.851,796.113 419.11,789.565 432.436,785.931C420.033,756.336 405.091,727.866 388.044,700.695L388.042,700.696ZM448.442,603.92C464.105,600.805 483.835,609.314 496.324,618.66C498.603,620.362 510.054,631.698 511.006,631.467L531.024,607.064C523.726,601.411 517.669,594.286 510.602,588.373C501.545,580.787 480.084,565.787 468.315,565.816C464.421,565.816 457.469,569.998 455.739,573.489C454.383,576.2 447.374,602.766 448.441,603.92L448.442,603.92ZM383.628,587.911L383.628,524.423C383.628,519.404 389.858,505.905 394.676,503.51C412.3,494.77 415.675,515.279 416.511,527.942C418.703,560.796 414.751,596.045 416.511,629.159C416.773,630.688 420.809,637.726 421.934,638.937C423.261,640.437 425.366,639.223 425.366,642.081L438.231,590.593C443.51,568.671 457.096,547.989 456.49,525.288C456.343,520.211 455.795,508.558 454.615,504.058C454.067,501.923 451.096,499.298 449.279,497.856C426.405,479.828 380.917,478.818 353.024,478.645C326.371,478.498 298.709,478.849 272.46,483.376C255.874,486.232 239.606,490.76 225.962,500.885L226.453,515.077C242.577,514.01 257.663,506.654 273.96,508.01C280.998,508.591 299.401,513.837 305.026,517.76C306.612,518.856 307.911,520.962 309.497,522.202C311.66,503.626 326.371,497.626 338.717,513.404C346.044,522.779 347.918,534.057 348.149,545.768C348.207,548.306 347.053,549.374 346.735,551.508C360.032,562.642 371.859,575.247 383.628,587.91L383.628,587.911ZM252.211,479.541L236.26,435.553C231.731,436.476 200.983,447.552 200.81,449.802L222.876,487.185C223.914,487.847 229.482,484.849 231.587,484.243C238.337,482.31 245.317,480.839 252.211,479.542L252.211,479.541ZM449.366,384.584C435.117,382.392 421.185,378.18 406.935,375.959C389.311,373.219 370.821,372.44 353.053,372.094C348.899,372.004 328.391,371.546 326.458,372.93L329.487,416.515C318.382,417.096 307.478,417.438 296.431,419.457C279.095,422.601 261.442,428.601 244.222,432.495C249.501,447.321 256.683,461.426 259.769,476.945L260.605,477.55C270.816,475.445 281.316,473.483 291.729,472.473C320.805,469.646 353.111,469.386 382.302,471.608C393.696,472.473 405.811,475.012 417.291,475.964L449.366,384.584ZM708.075,357.758C707.355,356.229 708.304,354.152 706.921,353.057C706.085,352.419 694.835,350.23 693.018,350.115C685.345,349.534 677.24,351.615 669.596,351.759C672.307,354.528 674.182,364.739 678.047,365.085C679.461,365.232 681.451,364.19 683.326,364.162C687.422,364.072 707.411,365.287 708.623,362.633C710.613,358.335 708.394,358.451 708.075,357.758ZM423.608,477.811C434.598,480.378 445.876,482.628 455.28,489.291L456.866,488.482C469.212,468.983 478.038,447.753 487.672,426.898C491.335,418.937 496.066,411.235 499.527,403.216C504.315,392.053 507.402,380.082 512.421,368.977C512.65,365.025 499.008,356.833 495.258,355.103C491.537,353.401 480.028,349.651 476.192,349.248C473.163,348.929 468.808,350.143 467.423,352.911C464.885,357.988 464.164,368.862 462.433,375.006C457.241,393.524 448.991,412.245 442.242,430.302C436.3,446.224 431.598,462.695 423.608,477.809L423.608,477.811ZM460.038,350.834C433.732,345.7 407.338,338.95 380.542,336.614C338.919,333.008 275.258,333.643 235.164,344.835C221.982,348.527 178.743,370.218 172.455,381.583C168.301,389.111 171.619,389.082 173.637,395.198C177.415,406.794 180.791,409.967 186.098,420.004C190.021,427.388 192.934,436.013 197.578,443.138C203.722,439.071 210.529,436.302 217.366,433.619C248.461,421.302 282.93,413.658 316.073,409.332C314.948,399.092 316.102,387.9 315.296,377.891C314.576,369.295 308.979,366.036 322.795,364.997C353.457,362.66 396.609,366.353 426.579,372.295C434.886,373.939 443.222,375.584 451.472,377.545L460.038,350.834ZM278.864,309.066L265.999,309.066C262.538,309.066 247.452,315.614 244.25,318.383L244.25,331.277L278.864,325.047L278.864,309.066ZM397.878,301.971C393.292,301.881 388.677,302.118 384.061,302.029C376.302,301.882 368.081,301.367 360.149,302C355.822,302.319 325.708,306.298 324.381,307.538C323.169,308.663 318.035,322.509 318.843,323.287C344.371,323.549 370.043,321.845 395.195,326.863L397.878,301.971ZM493.758,341.084C496.095,338.373 486.114,312.874 483.893,308.778C482.22,305.663 474.403,294.067 472.038,292.192C470.826,291.24 446.135,283.683 442.472,282.731C432.492,280.077 421.79,278.779 411.579,277.366L410.743,277.971C409.243,287.086 406.503,296.086 405.09,305.201C403.965,312.441 405.605,321.123 401.427,327.729C408.581,327.7 415.821,328.594 422.888,329.806C435.522,331.969 454.704,339.296 466.04,340.017C468.347,340.164 469.386,338.575 471.174,338.459C479.02,337.854 486.289,338.86 493.76,341.084L493.758,341.084ZM404.08,277.134C394.705,277.625 384.523,277.338 375.235,278.029C368.629,278.487 349.852,279.932 344.573,281.981C341.833,283.048 326.112,299.749 327.728,301.076C337.305,299.864 346.968,297.47 356.602,296.663C366.034,295.854 375.64,296.516 384.956,296.692C389.831,296.782 394.706,296.634 399.552,296.578L404.08,277.134ZM244.251,276.211C230.665,277.711 208.051,283.163 205.397,299.056C204.128,306.555 205.193,314.517 205.193,321.901C205.251,330.035 204.76,338.256 205.594,346.333C215.834,341.949 226.045,336.958 237.035,334.737C237.844,327.699 235.275,319.103 239.804,313.046C241.362,310.969 244.246,310.219 244.246,309.959L244.251,276.211ZM463.587,282.442C453.087,272.491 436.732,265.741 422.57,262.626C409.272,259.713 390.437,259.799 377.428,264.242C370.448,266.607 363.496,272.405 356.141,274.453C355.969,276.184 357.872,275.001 358.795,274.911C363.9,274.363 369.323,273.094 374.342,272.69C397.418,270.844 419.715,271.132 442.272,276.67C449.512,278.43 456.262,281.977 463.588,282.439L463.587,282.442ZM278.894,301.966L278.894,247.363C278.894,247.159 280.221,246.353 279.789,246.036C269.578,245.056 260.723,247.738 251.463,251.43L250.483,306.408C259.483,303.177 269.434,300.119 278.895,301.966L278.894,301.966ZM341.891,250.506C323.69,245.718 304.825,244.564 285.99,245.141L285.99,324.176L306.268,323.138C308.431,318.09 310.393,312.84 312.758,307.879C315.873,301.303 325.738,280.765 330.353,276.611C333.584,273.726 338.805,271.563 341.487,267.323L341.891,250.506ZM929.749,490.322C930.092,488.966 929.406,488.851 928.884,488.101C922.999,479.592 908.433,466.265 900.472,458.795C871.916,431.94 839.523,407.451 804.563,389.51C798.391,386.337 783.91,378.578 777.939,377.049C773.006,375.78 768.161,378.347 764.209,373.905C757.171,365.944 751.027,356.223 743.758,348.204C733.46,336.897 721.374,327.263 711.51,315.609C712.115,294.841 715.779,274.015 715.346,253.189C711.596,251.631 709.289,248.141 706.318,246.237C700.261,242.372 693.54,240.814 686.473,239.863L690.021,343.762L708.655,346.445C708.941,344.483 707.76,333.984 710.011,334.013L747.74,374.857C723.51,374.799 698.762,374.857 675.426,381.866L668.907,363.55C664.321,354.752 660.715,345.291 655.84,336.638C654.311,333.898 651.167,327.148 648.398,326.456C643.61,325.274 643.495,330.898 644.042,334.215C645.6,343.792 653.907,360.522 657.195,370.819C657.8,372.694 661.695,384.924 661.233,385.53C638.388,392.857 615.658,400.731 594.111,411.231L597.457,376.358L583.006,357.09C581.679,357.955 581.794,358.792 581.65,360.148C579.227,380.426 577.9,400.935 576.199,421.299L547.037,440.539C560.19,439.01 573.113,441.259 585.429,446.106L599.419,452.077L573.084,466.961C554.248,460.672 528.288,459.951 511.558,472.124C507.78,474.864 497.482,487.787 494.251,492.113C478.733,512.968 469.618,537.371 459.983,561.283C469.531,557.649 477.867,560.303 486.636,564.37C518.74,579.283 551.393,616.406 575.911,642.107C576.631,642.859 577.151,643.723 577.209,644.79L578.507,644.761C593.074,628.406 611.852,617.156 628.293,603.051L620.735,594.628L647.791,572.879L655.781,582.686L678.511,567.917C661.031,536.678 634.696,509.968 607.437,487.18C607.408,485.824 628.061,472.065 629.388,471.777C630.772,471.491 631.465,472.039 632.59,472.642C636.109,474.488 645.512,483.113 649.147,486.257C654.656,491.045 660.05,496.122 665.156,501.372C667.002,503.275 670.983,509.737 673.55,509.795C676.492,509.885 680.126,504.574 682.463,502.757C706,484.123 742.662,467.566 771.219,458.307C773.844,457.471 778.344,454.961 780.565,457.009C782.123,457.989 780.536,459.086 779.613,459.605C775.661,461.884 768.075,463.47 763.373,465.576C740.095,475.931 717.769,488.969 695.328,500.969C695.042,501.345 698.241,504.401 698.847,504.949C714.394,518.737 731.009,535.092 743.095,552.168C748.172,559.35 752.008,567.427 757.027,574.638C803.669,545.13 852.013,518.189 903.79,498.545C912.04,495.401 921.212,492.113 929.75,490.324L929.749,490.322ZM646.465,287.776L638.59,239.346C614.822,240.269 589.265,249.672 569.334,262.566C560.334,268.393 543.374,286.478 545.277,297.959C546.086,303.036 566.045,322.102 567.92,329.544C586.409,305.343 616.61,291.555 646.465,287.777L646.465,287.776ZM681.137,344.658L680.242,303.381L674.761,235.163C673.203,229.942 652.81,231.615 648.945,233.634C645.022,235.711 650.041,249.124 650.705,252.989C653.012,266.661 654.57,280.449 657.166,294.035C632.475,298.564 605.793,304.448 586.121,321.091C583.583,323.226 573.054,333.119 573.804,336.033L615.052,388.127C617.042,388.765 628.292,380.339 631.407,378.839C636.138,376.618 642.253,374.599 647.387,373.936C644.791,360.552 636.368,347.283 635.849,333.524C635.473,323.976 641.416,317.89 650.935,322.015C656.646,324.467 664.261,341.283 666.944,347.312C671.242,344.918 676.347,344.485 681.136,344.659L681.137,344.658ZM390.669,255.701C389.949,245.115 395.948,214.539 376.564,224.26L373.911,260.258L390.669,255.701ZM341.921,243.355C340.623,236.894 345.353,224.116 341.085,218.923C338.604,215.894 322.451,210.443 317.98,209.173C299.808,204.068 279.501,204.068 261.56,210.5C258.388,211.625 254.176,212.605 253.339,216.471L251.377,243.354C256.454,241.479 261.588,239.806 267.011,239.027C283.943,236.546 307.596,236.546 324.528,239.027C330.413,239.892 336.383,241.19 341.921,243.354L341.921,243.355ZM325.076,205.165C325.134,196.281 326.086,190.512 315.644,189.3C305.433,188.118 306.385,191.637 306.471,200.694L325.076,205.165ZM431.628,259.365C432.58,258.269 429.926,237.529 429.81,234.097C429.352,220.713 431.079,205.627 428.772,192.532C427.416,184.946 414.292,184.6 412.33,188.984C409.013,196.397 412.101,208.397 412.158,216.271C412.216,222.79 410.341,231.155 410.312,237.616C410.312,242.519 412.014,248.981 411.322,254.346L412.649,255.673L431.628,259.365ZM345.065,181.224L466.761,59.614C492.923,37.721 531.864,37.952 557.766,60.015L678.511,180.788L801.361,181.393C822.966,184.249 840.215,201.873 842.811,223.449L842.925,344.943L922.652,425.478L896.605,409.354C873.068,396.287 827.233,380.682 800.552,378.432C799.514,378.342 795.677,377.68 795.677,379.297C816.705,388.152 836.925,400.786 855.444,414.113C884.606,435.112 911.403,460.351 934.162,488.1L973.16,478.899L975.929,484.986C948.613,490.265 922.191,499.005 896,508.091C916.538,526.984 932.864,549.656 951.036,570.684L946.998,574.664C946.075,574.868 942.238,569.991 941.287,568.895C928.047,553.203 915.615,536.589 901.77,521.388C900.241,519.686 893.838,512.158 892.943,511.552C891.991,510.914 891.529,510.716 890.347,510.743C886.654,510.89 866.694,520.175 861.935,522.396C848.032,528.886 832.484,536.934 819.043,544.318C792.188,559.087 766.257,575.759 740.585,592.431L766.026,628.776L791.525,613.834C801.217,621.161 806.64,631.833 813.822,641.092C818.582,637.601 823.658,634.284 828.793,631.342C831.245,629.928 843.129,623.208 844.744,623.641C848.292,624.536 863.753,648.967 868.108,652.774L842.725,679.917L842.696,800.69C842.295,805.45 839.927,812.834 837.821,817.132C837.069,818.661 831.994,827.17 830.263,825.959C814.312,801.326 797.293,777.154 779.092,754.135C770.237,742.914 760.401,729.876 749.93,720.271C747.795,718.309 745.315,717.415 744.132,714.444L712.143,733.193L695.298,713.607L707.182,705.184C707.673,703.482 707.673,701.838 707.068,700.136C705.424,695.578 692.501,676.858 688.925,672.012C688.148,670.974 683.733,665.291 683.3,665.291C666.282,678.646 648.052,690.357 630.543,703.02C594.862,728.836 558.316,754.71 528.317,787.276C522.548,793.506 517.356,800.429 511.702,806.804L527.855,843.668L570.516,806.4C576.169,802.679 581.217,798.093 586.64,794.112C590.303,791.401 613.812,776.372 614.244,774.757C614.416,774.176 613.549,773.055 613.729,772.767L642.257,754.104C648.487,759.498 653.968,765.613 659.131,772.046C660.169,773.344 659.967,774.901 660.631,775.767C665.304,781.854 671.534,785.257 676.64,790.911C679.899,792.555 691.611,779.171 694.293,780.758C696.572,785.835 702.024,789.296 705.946,793.507C720.166,808.708 731.676,826.188 744.108,842.832L722.792,842.832C715.725,824.429 701.101,810.497 688.611,795.786L670.987,810.785L636.921,774.556C634.238,773.861 618.258,785.546 615.086,787.911C603.202,796.68 592.702,807.122 580.674,815.689L579.897,817.362C601.646,838.332 614.713,865.821 628.529,892.243L623.769,897.839C621.981,898.215 622.673,897.463 622.24,896.714C607.298,871.33 596.914,842.313 574.819,821.573C558.897,831.553 545.109,844.332 532.879,858.523C545.253,890.714 553.301,924.318 561.118,957.922C561.29,963.258 552.493,967.527 548.744,970.671C538.764,932.567 529.995,893.944 516.294,857.022C499.824,812.601 479.228,769.334 459.7,726.268C454.277,714.297 445.566,702.731 439.422,691.048C434.691,691.71 399.645,704.317 399.616,706.451C411.039,723.181 420.327,741.324 429.038,759.583C450.325,804.235 468.123,850.56 481.305,898.327C481.305,900.346 472.45,904.125 470.315,905.077C465.065,907.442 427.394,923.163 425.029,922.557C423.933,922.271 417.356,915.634 418.193,914.711C429.471,912.028 441.211,908.048 451.941,903.577C458.749,900.75 464.719,895.847 472.363,895.154C463.854,861.29 450.874,828.868 437.663,796.678C435.558,795.149 426.76,800.976 424.135,802.072C409.222,808.418 394.136,814.043 379.714,821.571C376.599,823.619 372.387,837.551 373.08,841.214C374.032,846.117 380.291,858.117 382.455,863.857C385.627,872.164 388.714,880.529 391.57,888.952L344.784,842.945L279.681,842.741C279.534,840.001 279.967,837.145 279.591,834.405C277.341,818.54 271.745,799.359 270.793,783.725C269.984,770.947 272.437,754.188 272.639,741.092C272.811,729.006 274.514,701.921 272.41,691.536C270.996,684.671 262.257,673.998 257.526,668.691C257.812,671.316 256.228,674.489 259.199,675.297L254.469,729.15L221.096,736.159C221.472,720.352 220.605,704.458 221.067,688.623C221.353,678.585 221.876,668.028 223.692,658.394C224.093,656.289 223.806,653.952 224.672,651.818C222.912,649.482 208.952,654.183 206.009,655.366C204.971,640.021 208.518,625.079 211.316,610.137L206.009,608.666C204.711,610.714 203.471,612.906 202.72,615.214C200.672,621.416 197.96,639.905 197.153,646.943C196.433,653.231 196.81,660.904 196.23,667.336L215.787,662.461L212.931,736.448C211.951,739.679 200.557,740.198 197.095,741.034C192.047,742.216 187.172,744.178 182.038,745.044L181.115,679.797C178.952,674.374 166.721,667.307 166,662.057C166.147,644.664 172.144,601.194 189.422,593.031C201.277,587.435 205.806,589.714 216.392,595.714C227.353,601.916 236.439,610.829 245.987,618.963L245.987,606.098C245.987,597.531 260.496,590.233 267.303,587.464C278.639,582.82 293.581,578.493 305.465,575.003C317.32,571.512 329.925,568.888 341.896,565.686C342.963,564.619 325.599,551.321 324.041,550.225C304.513,536.437 287.898,524.755 263.265,524.813C230.151,524.871 183.192,548.697 158.962,571.426C144.309,585.156 142.174,613.28 139.434,632.721C139.23,634.048 139.463,634.942 138.078,635.808L59.533,557.206C37.034,531.823 37.034,492.046 59.533,466.662L180.739,345.427L181.172,224.221C180.829,205.962 203.642,181.184 221.641,181.184L278.898,181.184L278.898,200.712L292.224,199.847L292.224,181.184L345.065,181.224Z" style="fill:rgb(69,28,21);fill-rule:nonzero;"/>
    </g>
    <g transform="matrix(0.058594,0,0,0.058594,0.000042,0.000006)">
        <path d="M363.002,628.936C367.733,637.013 345.984,644.916 342.897,634.33C339.81,623.715 360.406,624.523 363.002,628.936Z" style="fill:rgb(69,28,21);fill-rule:nonzero;"/>
    </g>
    <g transform="matrix(0.058594,0,0,0.058594,0.000042,0.000006)">
        <path d="M371.825,654.726C376.902,653.831 388.122,653.601 384.719,661.389C382.44,666.552 373.7,669.177 368.739,667.158C361.989,664.418 365.248,655.909 371.826,654.726L371.825,654.726Z" style="fill:rgb(69,28,21);fill-rule:nonzero;"/>
    </g>
    <g transform="matrix(0.058594,0,0,0.058594,0.000042,0.000006)">
        <path d="M441.114,316.817C436.47,320.278 429.576,314.51 426.692,310.846C427.183,304.068 429.692,299.539 437.192,301.298C443.682,302.798 446.278,312.951 441.115,316.816L441.114,316.817Z" style="fill:rgb(69,28,21);fill-rule:nonzero;"/>
    </g>
    <g transform="matrix(0.058594,0,0,0.058594,0.000042,0.000006)">
        <path d="M221.792,299.455C232.58,297.811 232.205,316.848 220.667,315.752C212.417,314.975 216.485,300.262 221.792,299.455Z" style="fill:rgb(69,28,21);fill-rule:nonzero;"/>
    </g>
</svg>
