<?xml version="1.0" encoding="UTF-8" standalone="no"?>
<!DOCTYPE svg PUBLIC "-//W3C//DTD SVG 1.1//EN" "http://www.w3.org/Graphics/SVG/1.1/DTD/svg11.dtd">
<svg width="100%" height="100%" viewBox="0 0 60 61" version="1.1" xmlns="http://www.w3.org/2000/svg" xmlns:xlink="http://www.w3.org/1999/xlink" xml:space="preserve" xmlns:serif="http://www.serif.com/" style="fill-rule:evenodd;clip-rule:evenodd;stroke-linejoin:round;stroke-miterlimit:2;">
    <g transform="matrix(0.058594,0,0,0.058594,0.000059,0.000015)">
        <path d="M511.955,12.403C487.245,12.403 462.522,21.783 443.739,40.566L333.1,151.205L227.912,151.205C185.675,151.205 151.125,185.755 151.125,227.992L151.125,333.14L40.486,443.779C2.949,481.348 2.949,542.681 40.486,580.25L151.125,690.889L151.125,795.998C151.125,838.235 185.675,872.785 227.912,872.785L333.1,872.785L443.739,983.463C462.524,1002.232 487.241,1011.626 511.955,1011.626C536.669,1011.626 561.386,1002.231 580.171,983.463L690.81,872.785L795.998,872.785C838.235,872.785 872.785,838.235 872.785,795.998L872.785,690.889L983.424,580.25C1020.991,542.683 1020.991,481.345 983.424,443.779L872.785,333.14L872.785,227.992C872.785,185.755 838.235,151.205 795.998,151.205L690.81,151.205L580.171,40.566C561.388,21.783 536.665,12.403 511.955,12.403Z" style="fill:rgb(247,188,63);fill-rule:nonzero;"/>
    </g>
    <g transform="matrix(0.058594,0,0,0.058594,0.000059,0.000015)">
        <path d="M506.84,15.445C481.17,16.826 461.329,26.663 442.632,43.574C405.104,77.497 371.114,117.888 333.856,152.35C297.912,155.011 259.879,150.396 224.171,152.789C186.307,155.316 155.921,185.836 152.721,223.431L152.253,333.959L35.527,451.662C7.331,487.505 7.331,536.52 35.527,572.363L152.253,690.066C154.914,726.01 150.299,764.043 152.692,799.751C155.219,837.615 185.739,868.001 223.334,871.168L333.862,871.674C371.086,906.17 405.144,946.493 442.638,980.45C485.757,1019.493 538.04,1019.527 581.193,980.45C618.72,946.493 652.711,906.17 689.969,871.674C725.913,868.979 763.98,873.628 799.654,871.235C837.215,868.742 867.433,838.693 871.104,801.503L871.543,690.066L988.303,572.363C1016.533,536.453 1016.533,487.572 988.303,451.662L871.543,333.959L870.97,221.781C866.928,184.793 837.485,156.057 800.497,152.823L689.969,152.355C652.711,117.893 618.721,77.502 581.193,43.579C560.004,24.411 536.052,13.867 506.845,15.45L506.84,15.445ZM502.399,0.358C534.873,-2.202 565.663,9.05 589.211,31.148L696.774,138.442L804.842,138.748C818.957,140.668 832.095,145.081 844.054,152.796C905.904,192.749 879.358,266.221 885.792,327.767L998.947,441.899C1034.487,486.063 1031.623,548.317 992.782,589.28L885.792,696.304L885.19,804.945C883.27,819.026 878.857,832.232 871.142,844.157C831.189,906.007 757.717,879.461 696.171,885.862L582.039,999.051C537.842,1034.625 475.689,1031.795 434.658,992.886L327.634,885.862L218.993,885.289C204.912,883.369 191.706,878.956 179.781,871.241C117.898,831.254 144.51,757.85 138.076,696.304L24.887,582.138C-10.619,537.974 -7.756,475.754 31.052,434.723L138.076,327.766L138.611,219.091C140.531,204.976 144.977,191.838 152.692,179.879C192.679,118.029 266.117,144.575 327.629,138.141L441.795,24.986C458.942,11.141 480.266,2.112 502.398,0.361L502.399,0.358Z" style="fill:rgb(69,28,21);fill-rule:nonzero;"/>
    </g>
    <g transform="matrix(0.058594,0,0,0.058594,0.000059,0.000015)">
        <path d="M496.996,732.86C496.223,733.032 485.206,739.058 484.363,739.799C470.787,751.354 490.898,775.272 505.923,768.399C514.311,764.558 515.524,739.596 509.259,734.442C506.53,732.185 500.332,732.118 496.997,732.859L496.996,732.86ZM783.843,744.92C784.483,744.28 790.041,729.963 790.244,728.615C792.266,715.544 784.147,702.844 770.604,701.295C764.17,700.55 752.851,712.412 750.156,717.869C747.697,722.888 746.45,733.702 748.068,738.957C751.032,748.558 778.454,750.377 783.844,744.919L783.843,744.92ZM465.062,694.693C463.344,694.932 452.16,698.23 451.486,698.87C450.24,700.116 449.263,703.35 448.825,705.102C447.544,710.155 447.78,723.36 448.424,728.683C448.997,733.838 456.745,743.842 462.202,744.28C469.613,744.92 480.056,737.239 483.223,730.603C486.727,723.159 485.245,717.195 482.411,709.784C479.75,702.71 473.585,693.446 465.062,694.692L465.062,694.693ZM665.972,768.197L665.972,684.282C665.972,683.68 659.672,676.097 658.426,674.951C646.703,664.036 623.29,666.832 616.957,682.362C615.003,687.213 614.666,697.151 614.43,702.878C613.523,724.842 615.203,747.109 614.464,769.073L665.972,768.197ZM630.466,634.998L592.265,634.998L586.942,651.875L700.602,651.875L698.816,634.998L667.756,634.998L688.911,601.479L682.847,575.506L668.126,601.176L648.655,629.642C647.24,629.002 644.916,619.805 643.939,617.515C637.168,601.918 626.691,588.308 619.785,572.846C614.53,578.135 611.869,586.388 610.184,593.496L630.466,634.998ZM382.73,574.631L382.73,462.284C382.73,458.511 379.429,451.942 379.597,447.63L366.728,421.894L366.728,573.722L321.453,572.843L321.453,431.626L305.485,458.778C306.125,495.766 304.475,532.822 305.418,569.777C305.452,571.292 305.657,572.405 306.325,573.718C294.332,572.811 282.778,576.952 270.953,577.39L267.248,594.132C271.661,594.6 276.646,595.715 280.992,595.951C308.211,597.501 339.911,593.122 366.288,595.917C368.545,596.118 370.195,597.635 371.678,597.736C373.464,597.803 374.743,596.153 376.899,595.883C381.548,595.205 413.113,597.332 413.82,594.502L410.215,574.627C401.053,574.455 391.788,572.437 382.726,574.627L382.73,574.631ZM618.47,340.2C612.204,338.853 601.694,341.145 594.923,340.2L594.923,373.921L624.231,373.921L624.231,346.399C624.231,346.294 622.917,346.6 622.715,346.16C621.77,344.038 622.113,340.939 618.47,340.198L618.47,340.2ZM562.077,340.197L537.654,340.197C537.348,340.197 532.129,341.342 531.86,341.478C528.019,343.668 531.593,366.878 529.401,371.965C533.443,376.547 535.936,373.784 540.282,373.885C547.761,374.057 554.464,375.536 562.078,373.919L562.077,340.197ZM461.723,244.29C459.836,243.956 459.298,245.503 458.354,246.648C450.775,255.845 445.822,268.174 439.085,278.011L422.646,242.505C421.636,249.579 414.695,258.068 415.067,265.176C415.334,270.296 424.735,282.121 427.06,287.342C426.955,289.565 407.825,289.902 404.894,290.912L398.696,303.747L481.263,305.128C482.712,304.05 481.702,304.083 481.435,303.174C480.795,301.287 477.056,290.912 476.247,290.373L449.331,287.779C448.354,287.006 460.818,269.015 461.896,267.061C462.906,265.242 465.702,260.358 466.006,258.706C466.779,254.799 461.559,248.97 461.728,244.288L461.723,244.29ZM613.386,174.355C609.445,172.031 594.117,171.761 589.199,171.458C541.835,168.393 492.618,170.713 445.321,170.513C436.394,170.479 426.321,182.506 421.437,189.31C399.069,220.302 381.72,265.005 366.695,300.478C366.494,300.984 365.112,300.984 364.944,301.724C364.037,305.969 365.049,310.617 368.245,313.582L378.351,312.98C389.165,293.913 397.452,273.566 406.817,253.792C410.523,246.01 413.588,237.925 417.9,230.177C424.065,219.195 432.689,209.83 438.584,198.646C441.582,196.355 442.088,201.038 443.603,203.362C454.855,220.441 461.289,232.4 469.879,250.793C477.29,266.66 479.951,289.803 486.824,307.556C488.677,312.374 489.283,317.123 495.111,317.932C502.859,319.01 508.721,318.909 516.334,318.811C570.335,318.343 624.402,319.651 678.403,318.41C680.155,317.598 682.614,310.763 682.883,308.708C686.521,279.232 657.82,226.478 640.572,202.627C634.104,193.633 622.516,179.72 613.386,174.363L613.386,174.355ZM820.495,625.232L822.246,670.103C826.793,673.539 836.799,665.084 838.113,679.064C840.033,699.276 837.001,721.948 838.218,742.43L830.267,743.337C831.513,730.94 833.905,723.765 819.757,720.531C811.941,718.712 806.619,718.544 799.747,723.058C793.987,726.797 789.203,744.213 790.213,751.22C780.949,752.635 771.584,753.814 762.32,754.858C758.177,755.364 754.942,754.256 750.833,756.711C747.296,756.444 742.782,742.798 733.147,746.167C730.856,746.94 726.679,756.442 727.251,759.305L721.928,758.426L719.3,775.809L697.942,777.965C710.036,785.544 708.688,796.762 694.438,799.761C683.119,802.186 666.444,803.197 655.125,800.806C641.616,797.942 639.258,791.171 650.442,782.413C652.329,780.931 655.024,780.627 656.203,778.876C648.084,778.637 639.898,779.143 631.746,778.91C613.926,778.404 595.398,779.044 577.577,778.003C572.389,777.697 574.545,777.23 568.684,777.936C554.266,779.62 529.169,778.337 514.616,776.15C513.1,775.911 512.089,774.364 510.136,774.331C508.283,774.297 505.049,776.184 502.624,776.689C500.3,777.128 490.294,779.249 488.947,778.777C484.905,770.557 474.832,755.937 465.939,752.872C461.492,751.356 453.542,755.028 451.285,759.037C447.343,766.078 447.714,780.496 446.636,788.614L438.652,788.614C438.958,779.316 438.213,769.884 438.618,760.62C439.325,743.069 440.706,725.956 440.471,708.236C440.437,705.575 439.325,703.183 439.461,700.252C439.662,696.446 442.29,689.371 446.367,688.462C448.455,688.023 456.237,687.384 458.595,687.35C466.983,687.283 476.18,689.237 484.837,688.257C483.86,692.334 481.94,695.264 483.725,699.61C484.47,701.429 486.79,702.675 487.868,704.293C489.822,707.224 490.664,711.536 494.538,712.714C499.221,714.196 501.713,712.886 504.105,708.908C505.318,706.954 509.798,694.962 510.236,692.738C510.608,690.952 509.997,689.909 509.701,688.291L519.47,689.17L507.915,724.676C515.023,725.957 522.468,725.754 529.711,725.621C531.799,725.554 533.753,724.742 535.842,724.644C543.961,724.338 556.728,727.744 560.366,718.984C567.137,693.348 574.717,667.712 583.576,642.75C596.141,607.581 610.324,574.365 629.727,542.362C635.352,533.132 646.537,513.458 653.14,506.249C654.117,505.204 659.036,502.071 660.416,501.937C666.614,506.451 669.646,514.267 672.948,521.038C692.722,561.294 700.807,606.839 710.61,650.296C713.103,661.48 717.617,674.079 719.908,685.432C722.906,700.558 723.176,716.357 725.635,731.583L729.037,732.695L728.13,734.446L736.147,732.256L737.026,730.47L732.579,689.17L742.348,689.17C739.249,697.322 746.121,704.936 754.745,702.005C757.777,700.96 765.592,693.044 765.559,689.271L791.195,687.418C787.961,692.842 789.376,702.375 793.351,706.957C798.876,713.324 818.785,717.097 826.162,713.021C836.807,707.092 829.497,694.763 830.272,685.364C827.948,684.219 826.331,681.49 824.512,680.277C818.684,676.436 808.713,679.332 802.312,679.437C778.461,679.838 754.746,680.549 730.828,680.277C730.226,675.19 729.851,669.935 728.941,664.848C725.235,644.838 719.711,623.042 714.624,603.706C704.046,563.281 686.899,524.979 669.113,487.553C668.435,486.104 669.113,483.881 668.103,483.073C667.158,482.328 662.544,480.648 661.129,480.479C634.718,481.928 606.455,478.626 580.246,480.445C576.169,480.751 565.289,481.792 565.087,487.148L572.767,584.807C572.165,588.782 566.771,586.963 564.716,584.635C564.544,577.932 563.335,571.093 562.93,564.423C562.023,548.489 563.035,531.511 561.179,515.577C559.898,504.662 553.835,489.032 554.071,479.128C554.105,477.847 555.216,475.287 556.126,474.513C558.889,472.323 581.964,473.536 587.421,473.435C614.64,472.69 640.916,471.784 668.203,474.314C670.089,474.515 672.448,473.569 673.559,473.741C674.438,473.875 682.048,479.805 682.385,480.444C682.757,481.055 681.917,482.701 682.318,484.049C683.063,486.373 686.933,490.551 688.348,493.212C702.968,520.768 712.097,548.526 721.462,578.171C724.393,587.401 726.785,597.137 729.041,606.536C755.216,606.097 781.492,607.281 807.667,606.603C809.722,606.569 811.709,605.763 813.798,605.658C818.817,605.486 833.707,606.736 836.975,604.846C837.414,604.607 841.153,600.736 841.354,600.332C842.099,598.681 842.836,582.377 842.668,579.48C842.267,572.439 840.04,563.209 838.525,556.135C824.612,490.816 797.696,418.658 751.242,369.912C749.726,368.295 748.883,365.533 747.267,364.151C745.684,362.804 732.512,356.167 731.266,356.167L654.864,356.167L653.112,414.783C612.519,414.955 571.96,414.516 531.4,414.716C524.359,414.75 517.251,414.682 510.11,414.716C505.899,414.783 502.126,417.512 498.589,412.998L496.399,415.659C493.872,410.438 491.413,405.014 488.516,399.961C479.926,384.869 471.268,367.857 455.368,359.402C420.199,358.695 384.659,358.357 349.388,358.867C344.739,358.972 340.191,357.284 335.711,361.124C334.766,361.964 328.435,369.781 327.29,371.365C289.965,421.761 256.21,486.777 238.423,547.077C233.976,562.135 228.721,578.574 225.588,593.801C224.815,597.574 227.441,596.328 227.407,598.113C227.302,601.583 222.556,603.166 226.362,606.198C229.596,608.758 235.66,607.01 239.702,607.411L247.618,572.242C263.99,516.456 290.603,464.612 316.272,412.733C326.243,399.561 336.013,386.592 347.668,374.801C352.62,376.418 352.856,381.606 355.012,385.244C376.942,422.401 395.908,471.618 405.711,513.862C411.64,539.532 415.716,565.841 420.668,591.309C421.48,595.62 421.678,600.236 421.982,604.615C427.237,608.388 433.806,607.613 439.971,607.479C480.699,606.502 522.639,604.919 563.468,606.534C569.06,606.773 580.379,607.107 584.893,609.094C585.8,609.495 589.306,611.654 589.407,612.328L586.038,618.56C579.233,619.874 571.856,621.12 565.421,623.68C560.637,625.634 546.994,632.237 543.12,635.134C541.436,636.38 540.661,638.503 539.886,639.008C536.955,640.794 479.856,639.476 471.029,639.476C404.699,639.581 332.642,635.972 266.784,639.409C263.348,639.581 251.962,640.221 250.412,642.778C244.887,651.907 268.839,648.943 273.488,650.088C274.533,655.916 270.659,672.827 277.059,675.421C277.594,675.622 284.503,674.982 284.841,674.781C285.481,674.409 288.58,667.403 288.58,666.528L288.58,651.436L289.927,650.089L318.763,650.089C319.002,650.729 317.884,651.134 317.884,651.436L317.884,670.975C317.884,675.388 332.976,673.367 332.976,670.068L332.976,650.092L371.144,650.092C370.066,657.84 364.811,672.763 376.972,673.201C391.053,673.774 382.531,658.951 384.484,650.092L430.669,650.092C430.067,655.247 427.873,664.14 428.883,668.99C429.122,670.035 433.061,672.628 434.644,672.729C451.555,673.807 443.706,661.444 446.637,650.091L487.466,650.091C487.5,652.011 486.152,653.055 485.782,655.043C485.276,657.57 484.401,667.575 484.805,669.899C484.839,670.1 487.87,672.964 488.073,673.032C501.245,677.343 499.291,658.142 500.807,650.091L535.437,650.091L524.59,676.973L522.603,679.061C518.325,677.545 514.418,679.262 510.172,679.433C437.037,682.297 363.027,677.109 289.858,680.245C287.197,680.379 270.993,681.626 270.117,682.232C269.611,682.538 266.547,689.138 266.344,690.485C265.03,701.534 267.389,715.144 266.378,726.463C275.608,724.273 293.463,727.978 299.627,735.39C305.96,743.037 308.251,753.211 302.288,761.935C294.439,773.422 278.539,772.109 266.378,771.3C265.132,772.112 265.776,772.614 265.872,773.523C266.111,776.723 268.432,782.72 268.129,785.516C268.062,786.526 264.895,790.839 264.019,791.141C258.46,793.095 258.123,788.581 253.913,787.2C257.551,760.688 254.958,733.671 255.699,706.923C254.792,705.946 239.832,713.728 237.306,714.705C232.927,716.491 227.57,717.097 223.157,719.185C212.377,724.406 199.711,735.389 189.066,741.924C186.674,743.406 183.878,745.428 181.115,746.001L181.115,678.964L59.504,557.286C36.799,531.717 37.035,491.63 59.905,466.297L180.673,345.495L181.074,224.289C183.096,202.291 200.68,184.235 222.543,181.372L345.4,180.77L466.168,60.002C492.073,37.937 531.016,37.735 557.157,59.601L678.431,180.774L801.288,181.376C822.612,184.205 839.557,201.319 842.656,222.542L843.124,345.5L963.892,466.302C987.439,493.588 987.035,531.116 963.453,558.2C943.308,581.444 917.1,602.195 896.416,625.237L820.495,625.232Z" style="fill:rgb(69,28,21);fill-rule:nonzero;"/>
    </g>
    <g transform="matrix(0.058594,0,0,0.058594,0.000059,0.000015)">
        <path d="M624.01,832.335C626.469,832.001 655.406,835.299 657.967,836.141C666.018,838.735 671.273,848.302 665.984,855.68C653.217,873.399 618.047,869.997 598.913,867.673C591.299,866.728 589.043,868.919 582.069,863.193C575.938,858.207 576.544,853.356 580.856,846.922C588.031,836.243 605.212,836.311 616.463,834.559C619.023,834.187 621.752,832.639 624.009,832.336L624.01,832.335Z" style="fill:rgb(69,28,21);fill-rule:nonzero;"/>
    </g>
    <g transform="matrix(0.058594,0,0,0.058594,0.000059,0.000015)">
        <path d="M467.432,519.038C471.575,512.2 476.528,505.125 481.075,498.489C484.444,493.537 488.183,488.72 491.922,484.037L455.506,484.037C457.19,489.124 456.279,495.086 456.346,500.51C456.451,505.462 458.94,511.795 454.19,515.972L451.933,511.121L451.188,479.725C452.3,477.939 468.604,478.913 471.973,478.748C478.744,478.376 486.526,477.097 493.196,476.895C495.992,476.79 500.675,476.895 502.629,479.118C502.963,479.49 506.638,487.001 507.042,488.011C508.558,491.986 508.828,496.467 510.141,500.004C512.668,506.842 522.369,525.842 520.213,532.31C519.334,534.87 507.917,533.591 504.818,533.759C492.792,534.571 484.673,536.016 472.782,534.704C469.38,534.332 463.922,535.95 462.171,531.976C460.655,528.574 465.54,522.139 467.426,519.04L467.432,519.038Z" style="fill:rgb(69,28,21);fill-rule:nonzero;"/>
    </g>
    <g transform="matrix(0.058594,0,0,0.058594,0.000059,0.000015)">
        <path d="M584.01,889.603C583.542,890.138 582.123,890.348 581.618,891.118C580.271,893.105 579.9,895.7 578.013,897.316C570.333,903.986 531.626,904.727 520.745,904.087C514.783,903.753 496.76,902.841 496.76,894.722C496.76,893.071 501.88,882.999 503.126,881.955C513.67,873.163 557.43,874.914 571.006,877.812C575.52,878.789 589.332,883.269 584.009,889.602L584.01,889.603Z" style="fill:rgb(69,28,21);fill-rule:nonzero;"/>
    </g>
    <g transform="matrix(0.058594,0,0,0.058594,0.000059,0.000015)">
        <path d="M768.693,481.574C768.894,481.841 768.426,482.82 768.693,483.124C775.498,491.816 776.205,498.485 780.079,507.985C781.629,511.791 784.492,515.564 785.873,519.068C787.288,522.605 787.456,527.423 789.41,531.094C777.417,531.667 765.425,531.867 753.398,531.973C748.311,532.007 742.551,533.995 737.06,531.534C730.357,528.57 740.934,517.318 743.056,513.613C747.94,505.023 752.152,495.961 757.44,487.606L723.686,484.911C722.846,485.818 725.269,504.685 725.404,507.717C725.438,509.401 725.843,510.412 724.123,511.558C723.078,510.679 722.439,509.571 722.101,508.257C721.156,504.114 719.709,494.883 719.372,490.571C719.133,487.91 718.866,484.878 719.678,482.25C721.025,479.959 726.045,481.61 728.605,481.438C737.566,480.798 745.348,480.693 754.342,480.531C758.249,480.464 765.627,477.702 768.693,481.576L768.693,481.574Z" style="fill:rgb(69,28,21);fill-rule:nonzero;"/>
    </g>
    <g transform="matrix(0.058594,0,0,0.058594,0.000059,0.000015)">
        <path d="M386.937,745.321C387.338,745.56 391.856,751.923 392.361,752.8C397.717,761.828 400.918,772.608 404.488,782.377C405.566,785.409 410.248,789.351 405.566,791.54C403.006,792.719 372.788,792.652 368.005,792.218C361.368,791.578 358.269,784.167 357.158,778.17C355.474,768.704 354.901,759.339 360.999,751.389C364.738,746.538 382.02,742.395 386.938,745.325L386.937,745.321Z" style="fill:rgb(69,28,21);fill-rule:nonzero;"/>
    </g>
    <g transform="matrix(0.058594,0,0,0.058594,0.000059,0.000015)">
        <path d="M319.428,712.469C331.32,710.549 351.027,715.4 352.509,729.582C354.059,744.068 352.242,760.338 334.318,760.305C320.607,760.238 309.053,750.704 306.56,737.33C304.303,725.337 305.448,714.692 319.428,712.469Z" style="fill:rgb(69,28,21);fill-rule:nonzero;"/>
    </g>
    <g transform="matrix(0.058594,0,0,0.058594,0.000059,0.000015)">
        <path d="M404.727,684.108C414.429,683.229 432.553,681.38 434.17,694.18C434.409,696.1 435.077,703.916 435.01,705.499C434.905,709.406 432.315,715.066 428.845,717.121C425.544,719.041 412.776,722.41 408.835,722.814C400.009,723.721 393.17,718.671 387.646,712.203C386.265,710.586 380.707,702.467 380.403,700.749C380.097,698.93 382.559,691.991 383.704,690.609C386.702,686.971 399.975,684.545 404.725,684.107L404.727,684.108Z" style="fill:rgb(69,28,21);fill-rule:nonzero;"/>
    </g>
    <g transform="matrix(0.058594,0,0,0.058594,0.000059,0.000015)">
        <path d="M672.877,807.518C680.659,806.611 693.089,806.811 701.073,807.212C711.314,807.785 721.049,809.941 730.246,814.455L731.728,817.453C731.556,818.969 725.563,824.864 724.013,825.774C711.582,833.084 685.407,831.434 670.989,830.894C646.397,829.987 650.912,810.143 672.876,807.515L672.877,807.518Z" style="fill:rgb(69,28,21);fill-rule:nonzero;"/>
    </g>
    <g transform="matrix(0.058594,0,0,0.058594,0.000059,0.000015)">
        <path d="M295.931,793.666C295.597,793.561 290.676,789.725 290.541,788.95C290.14,786.76 293.438,782.954 294.819,781.101C308.732,762.337 334.435,758.16 351.178,776.182C355.625,780.965 354.412,789.859 347.405,791.948C340.702,793.935 331.1,791.881 323.622,792.149C317.895,792.35 300.041,795.147 295.931,793.664L295.931,793.666Z" style="fill:rgb(69,28,21);fill-rule:nonzero;"/>
    </g>
    <g transform="matrix(0.058594,0,0,0.058594,0.000059,0.000015)">
        <path d="M324.754,684.055C334.085,682.505 361.608,684.089 368.951,690.051C372.858,693.285 372.69,694.734 369.763,698.877C362.925,708.545 332.269,708.545 322.096,704.031C311.821,699.449 315.089,685.671 324.757,684.055L324.754,684.055Z" style="fill:rgb(69,28,21);fill-rule:nonzero;"/>
    </g>
    <g transform="matrix(0.058594,0,0,0.058594,0.000059,0.000015)">
        <path d="M274.638,698.311C275.01,697.776 284.576,690.563 285.553,690.159C295.76,685.679 312.469,690.226 310.684,703.735C310.417,705.925 307.518,711.618 306.204,713.471C298.489,723.948 280.366,721.556 273.999,710.406C272.248,707.374 272.753,701.007 274.639,698.312L274.638,698.311Z" style="fill:rgb(69,28,21);fill-rule:nonzero;"/>
    </g>
    <g transform="matrix(0.058594,0,0,0.058594,0.000059,0.000015)">
        <path d="M359.024,713.44C362.865,709.465 373.947,704.142 379.102,707.41C387.389,712.631 390.926,728.363 387.591,737.088C378.361,741.467 363.067,741.703 357.475,731.732C354.983,727.252 355.353,717.28 359.025,713.44L359.024,713.44Z" style="fill:rgb(69,28,21);fill-rule:nonzero;"/>
    </g>
    <g transform="matrix(0.058594,0,0,0.058594,0.000059,0.000015)">
        <path d="M614.292,801.323C621.4,800.683 634.37,800.578 641.141,802.368C642.488,802.702 649.092,807.186 649.529,808.162C653.875,816.786 640.669,818.773 635.246,819.616C627.936,820.761 615.404,822.244 608.633,819.75C606.073,818.805 604.186,817.426 602.435,815.303C593.137,804.051 604.355,802.199 614.293,801.323L614.292,801.323Z" style="fill:rgb(69,28,21);fill-rule:nonzero;"/>
    </g>
    <g transform="matrix(0.058594,0,0,0.058594,0.000059,0.000015)">
        <path d="M560.126,917.631C577.037,917.325 578.957,927.771 561.407,931.342C555.478,932.555 536.377,934.171 541.868,923.358C544.631,917.901 554.602,917.733 560.126,917.631Z" style="fill:rgb(69,28,21);fill-rule:nonzero;"/>
    </g>
    <g transform="matrix(0.058594,0,0,0.058594,0.000059,0.000015)">
        <path d="M578.061,223.865L549.191,223.865C548.685,223.865 547.405,222.416 546.092,222.958C545.653,223.33 546.971,224.137 546.971,224.305L546.971,243.844C546.971,244.216 546.264,247.921 546.064,249.167C545.892,250.38 545.558,252.064 544.313,250.514L541.618,218.073C547.514,216.591 553.813,217.366 559.742,216.658C568.669,215.546 576.484,211.84 585.85,215.648L587.366,216.793C592.925,227.977 599.864,238.285 605.153,249.638C606.399,252.299 606.669,256.207 607.881,258.431C609.195,260.89 612.564,261.126 611.486,264.731C609.499,271.098 604.681,266.887 600.773,266.415C589.959,265.202 574.564,268.335 562.504,267.425C561.022,267.291 554.385,266.546 554.082,265.134L578.061,223.865Z" style="fill:rgb(69,28,21);fill-rule:nonzero;"/>
    </g>
</svg>
