<?xml version="1.0" encoding="UTF-8" standalone="no"?>
<!DOCTYPE svg PUBLIC "-//W3C//DTD SVG 1.1//EN" "http://www.w3.org/Graphics/SVG/1.1/DTD/svg11.dtd">
<svg width="100%" height="100%" viewBox="0 0 60 61" version="1.1" xmlns="http://www.w3.org/2000/svg" xmlns:xlink="http://www.w3.org/1999/xlink" xml:space="preserve" xmlns:serif="http://www.serif.com/" style="fill-rule:evenodd;clip-rule:evenodd;stroke-linejoin:round;stroke-miterlimit:2;">
    <g transform="matrix(0.058594,0,0,0.058594,-0.000135,0.000017)">
        <path d="M506.87,15.458C481.202,16.839 461.362,26.675 442.634,43.584C405.143,77.504 371.122,117.892 333.867,152.385C297.926,155.013 259.896,150.398 224.191,152.786C186.33,155.312 155.946,185.864 152.78,223.422L152.274,333.974L35.558,451.667C7.364,487.507 7.364,536.518 35.558,572.358L152.274,690.085C154.969,726.026 150.32,764.056 152.713,799.761C155.239,837.589 185.757,868.005 223.349,871.205L333.867,871.673C371.122,906.166 405.143,946.486 442.634,980.44C485.784,1019.514 538.062,1019.514 581.212,980.44C618.736,946.486 652.724,906.166 689.979,871.673C725.92,869.012 763.984,873.627 799.689,871.234C837.213,868.708 867.462,838.695 871.134,801.474L871.573,690.08L988.323,572.353C1016.55,536.445 1016.55,487.569 988.323,451.662L871.573,333.969L871,221.766C866.924,184.814 837.518,156.048 800.499,152.814L689.981,152.375C652.726,117.882 618.739,77.495 581.214,43.574C560.026,24.408 536.077,13.864 506.873,15.448L506.87,15.458ZM502.425,0.358C534.897,-2.202 565.684,9.049 589.23,31.145L696.818,138.43L804.844,138.736C818.958,140.656 832.128,145.103 844.053,152.782C905.931,192.765 879.354,266.197 885.788,327.739L998.967,441.895C1034.47,486.055 1031.641,548.27 992.803,589.298L885.788,696.28L885.215,804.912C883.295,819.026 878.848,832.196 871.135,844.154C831.219,905.999 757.753,879.455 696.212,885.889L582.056,999.069C537.862,1034.606 475.714,1031.81 434.653,992.871L327.671,885.889L219.039,885.316C204.925,883.362 191.755,878.916 179.797,871.236C117.919,831.253 144.529,757.854 138.096,696.279L24.917,582.156C-10.62,537.996 -7.757,475.747 31.048,434.72L138.097,327.738L138.67,219.106C140.59,204.992 145.002,191.822 152.716,179.864C192.699,118.053 266.165,144.563 327.673,138.163L441.796,24.984C458.975,11.14 480.297,2.112 502.428,0.361L502.425,0.358Z" style="fill:rgb(69,28,21);fill-rule:nonzero;"/>
    </g>
    <g transform="matrix(0.058594,0,0,0.058594,-0.000135,0.000017)">
        <path d="M629.592,347.307C631.815,346.6 637.07,348.214 638.519,347.679C639.63,347.307 643.032,343.973 645.222,342.963C652.127,339.729 660.245,337.371 667.218,333.868C672.338,331.275 678.873,328.243 681.096,322.449C668.296,330.836 652.767,333.228 638.923,339.291L638.484,336.663L630.67,338.583L629.592,347.307ZM842.713,238.978C821.829,229.647 800.069,226.245 788.986,203.475C785.719,206.776 785.786,211.155 783.057,215.298C770.998,233.589 755.739,233.285 738.796,242.953C727.411,249.454 723.2,260.469 717.979,271.787L707.335,261.985L699.352,246.12C696.354,246.693 696.523,250.869 695.175,253.497C684.834,273.741 670.72,277.952 653.575,290.92L658.459,296.646C672.809,284.452 691.301,279.4 700.194,261.176C702.822,265.959 705.078,269.025 709.086,272.696C722.29,284.789 743.815,291.02 753.179,306.751C757.726,314.397 758.905,323.728 759.31,332.52C758.603,335.316 752.27,331.341 750.383,330.869C737.448,327.534 724.817,326.288 713.499,318.002C712.253,319.012 714.206,321.135 714.846,321.977C727.377,338.044 758.265,333.463 771.2,346.398C772.783,348.015 775.545,351.046 773.052,352.664C768.605,355.224 765.743,359.737 761.835,362.769C759.646,364.453 752.066,369.035 749.709,369.337C748.564,369.509 739.637,367.013 737.953,366.372C735.191,365.327 718.585,356.166 717.507,357.075C721.751,365.766 731.789,368.359 738.829,373.917C721.145,378.902 703.191,389.008 696.185,406.793C694.804,407.194 694.703,406.392 693.962,405.915C682.745,398.37 671.831,388.938 665.128,377.048L671.359,373.511L680.218,358.825C673.245,362.194 668.428,369.402 660.311,370.244C658.593,369.843 649.768,350.572 649.128,347.305L643.233,357.141C639.057,356.539 636.058,354.379 631.713,353.604C613.759,350.438 603.587,353.002 586.408,355.187C578.458,356.197 565.456,359.128 559.258,353.536C557.675,352.088 557.641,349.73 555.889,349.089C552.386,361.519 548.613,373.982 547.03,386.815C546.829,388.432 547.364,388.263 545.211,388.129L545.211,364.617C545.211,363.506 547.198,356.432 547.636,354.613C555.586,323.724 579.4,284.886 616.487,290.68C628.883,292.634 639.123,304.794 630.5,316.684C623.493,326.217 614.668,322.781 604.731,321.535C603.653,334.908 629.893,332.213 636.933,328.44C645.186,324.028 652.259,306.815 647.746,298.528C646.839,296.911 638.415,288.692 639.359,287.816C643.906,287.682 648.824,285.188 652.698,282.932C664.016,276.262 672.504,261.879 677.725,250.258C687.729,227.824 662.702,204.009 639.931,206.199C628.074,207.344 622.381,211.925 618.238,222.738C615.206,230.654 614.836,243.757 624.537,247.159C626.895,247.999 630.298,246.72 628.781,243.858C625.716,238.097 621.741,234.629 625.076,226.915C627.973,220.212 635.215,216.203 642.457,216.742C656.941,217.787 666.575,234.932 661.118,247.866C655.965,260.093 641.716,275.184 627.4,274.51C624.536,274.338 621.405,272.893 618.473,272.724C608.3,272.151 598.027,272.963 587.854,271.817C592.031,264.709 593.85,258.411 593.176,250.091C592.166,237.459 585.934,228.701 578.085,219.876C570.607,211.455 554.439,211.725 546.523,219.37C538.473,227.219 533.285,244.263 539.146,254.368C540.053,255.951 543.491,260.061 543.053,255.783C542.28,247.665 542.919,238.099 549.621,232.271C558.278,224.759 570.168,231.669 573.234,241.602C580.51,265.147 559.019,275.994 545.613,289.535C529.411,305.973 512.905,339.186 506.404,361.316C501.115,379.303 498.084,400.053 507.987,416.963L522.134,421.443C516.542,425.418 508.256,425.418 501.755,424.576C497.477,432.256 502.7,441.317 510.547,443.709C513.511,444.587 518.53,443.136 519.474,447.179C519.14,448.863 504.08,450.817 502.16,447.752C494.379,459.07 507.482,468.805 517.722,471.163L516.206,473.42L499.936,470.725C497.848,498.683 499.602,527.854 492.828,555.071C490.235,554.026 490.941,549.277 491.042,546.616C492.288,510.473 490.67,474.565 488.414,438.287C486.292,404.333 487.507,369.807 500.945,338.11C503.337,332.485 514.183,315.676 514.553,311.904C514.925,308.771 511.319,297.15 510.713,292.603C508.456,275.357 504.683,238.674 509.298,223.011C512.33,212.603 531.799,188.417 541.77,180.872C550.798,174.068 563.261,166.826 575.05,170.531C579.261,171.878 585.829,178.346 586.738,182.792C590.241,199.533 569.155,201.689 557.668,197.243C563.26,211.694 587.344,206.574 594.957,195.896C599.875,188.991 598.392,169.285 593.677,162.582C583.706,148.334 564.776,152.982 550.561,155.912C547.428,156.552 545.508,158.708 541.735,157.226C541.907,152.173 541.63,147.761 540.522,142.91C538.939,135.937 534.358,132.232 535.402,124.822C536.985,113.774 556.387,110.843 557.701,124.01C557.968,126.739 555.579,129.771 559.756,130.477C570.737,122.392 565.112,111.041 554.4,105.921C541.398,99.69 529.878,106.666 523.478,118.182C505.086,102.384 474.972,103.361 464.261,127.345C455.941,146.006 466.956,170.394 488.884,170.629C494.004,170.663 502.29,166.89 504.379,162.141C505.257,160.154 503.268,161.164 502.56,161.196C496.901,161.731 491.242,163.015 485.684,161.33C470.694,156.715 475.006,127.646 489.794,125.355C514.518,121.549 524.59,142.096 521.188,163.856C520.211,170.222 501.045,192.926 495.52,197.709C490.434,202.054 485.549,204.581 479.554,207.444C483.057,214.18 487.504,222.13 488.278,229.743C488.813,234.829 489.625,247.09 489.356,251.874C489.222,253.457 489.461,254.804 487.941,255.815C485.718,256.254 486.83,254.164 486.627,252.75C485.549,246.653 484.808,240.455 483.057,234.527C478.88,236.986 474.501,242.308 469.785,237.66C479.655,230.148 483.259,225.803 476.152,214.384C472.582,208.658 460.017,197.98 453.314,197.239C423.908,193.905 403.966,210.342 405.752,240.321C407.133,262.687 441.424,270.435 447.723,253.828C448.7,251.302 449.374,244.868 445.803,245.205C438.796,260.801 419.428,258.376 416.7,240.961C413.466,220.279 436.843,210.274 449.306,225.197C453.753,230.586 461.938,250.427 463.352,257.366C466.889,275.151 464.463,310.318 458.232,327.329C454.056,338.714 446.948,347.472 435.125,351.279C435.965,352.424 437.213,352.795 438.426,353.3C444.927,356.164 460.759,359.397 466.99,356.534C481.036,350.033 480.733,335.414 485.752,322.917C486.287,321.502 486.43,320.289 488.413,320.66C484.978,333.932 487.802,347.607 477.735,358.386C473.39,363.068 463.015,368.727 456.615,367.144C454.291,366.571 452.674,364.787 450.72,364.112C440.682,360.845 433.17,357.645 423.537,354.007C417.07,351.548 403.158,348.954 398.745,344.171C396.117,341.375 390.122,330.36 388.774,326.588C380.083,302.234 413.667,285.83 427.107,303.379C433.069,311.16 432.26,320.39 423.907,325.88L413.802,329.551C444.893,337.13 448.463,304.052 429.802,286.469C420.37,277.61 400.968,280.574 390.223,286.001C387.932,285.867 387.158,282.7 385.339,281.184C373.482,271.348 350.779,276.199 347.208,292.232C355.394,286.809 364.993,279.129 374.627,286.169L373.854,287.786C377.862,287.82 380.288,293.142 379.715,296.713C379.409,298.633 374.056,310.692 372.81,312.949C358.023,340.233 312.077,338.65 293.012,317.564C287.791,311.77 282.57,296.713 283.176,289.101C283.31,287.551 284.759,287.956 284.995,287.147C285.597,285.059 285.062,283.24 286.443,280.781C287.121,279.602 294.292,271.653 295.403,271.046C308.809,263.636 326.494,278.794 325.82,292.57C325.514,299.037 322.923,307.795 315.243,308.267C313.929,309.412 315.348,309.884 316.59,310.053C324.944,310.96 337.171,294.962 338.249,287.282C340.405,271.787 329.963,255.922 313.895,254.069C275.495,249.69 250.029,284.486 270.307,319.013C274.417,326.02 285.768,334.272 284.859,343.097C284.658,345.017 280.749,351.417 279.301,352.63C276.067,355.426 263.133,359.535 258.484,362.028C238.071,373.076 226.585,404.403 241.979,423.67C248.884,432.327 273.945,436.841 280.986,427.173C284.657,422.12 285.331,415.013 285.129,409.017C284.957,403.763 281.694,397.969 276.169,397.025C283.95,405.379 276.135,422.356 264.379,419.897C248.884,416.663 255.824,397.8 262.492,389.109C272.227,376.376 281.557,373.85 296.412,369.741C321.035,362.97 337.136,361.118 362.501,366.204C391.301,371.964 416.969,384.326 428.927,412.554C432.666,421.413 439.066,449.64 437.584,458.533C437.317,460.015 436.744,461.699 435.563,462.744L427.613,428.992C424.043,417.741 417.541,402.988 409.053,394.668C408.451,394.095 401.07,388.133 402.282,392.142C405.146,396.723 408.446,402.079 410.4,407.098C416.329,422.054 414.644,440.614 414.24,456.513C411.781,454.762 410.501,451.797 408.547,449.81C396.421,437.515 387.562,434.517 373.549,426.197C356.639,416.193 347.747,397.7 340.572,380.15C334.475,393.455 328.951,408.815 318.34,419.224C317.7,416.933 317.939,414.677 317.295,412.285C314.87,403.325 310.963,395.409 305.438,388.369C304.493,387.19 304.158,384.091 302.845,383.215C299.948,381.429 291.999,386.718 288.597,386.819C297.085,399.754 305.203,414.642 302.374,430.777C281.085,445.834 252.353,451.897 237.633,475.24C235.241,479.013 233.927,483.728 231.132,487.4L223.788,508.015C222.441,504.377 220.622,500.065 218.6,496.764C214.659,490.432 195.425,474.162 188.554,469.109C181.581,463.989 173.059,459.677 166.154,454.221C164.807,453.176 156.588,446.07 156.386,445.261C155.641,442.633 160.394,440.108 162.247,438.929C175.418,430.676 195.157,428.655 198.896,409.455C197.481,407.973 192.395,415.653 191.418,416.596C180.807,426.499 159.317,426.061 149.649,438.727C147.695,433.506 145.101,438.727 141.262,435.594C131.527,427.611 138.433,405.716 143.519,396.251C148.673,386.651 166.829,371.897 177.001,367.552C188.588,362.634 202.231,360.444 213.043,353C220.925,347.577 224.193,339.796 229.548,332.217C233.219,337.169 245.11,353.438 250.399,354.954C253.228,355.727 260.134,347.981 264.614,349.059C251.208,337.472 237.363,324.402 229.549,308.267C224.833,312.478 223.217,318.238 219.713,323.257C213.616,331.948 200.21,347.139 190.273,349.901C187.477,350.713 183.941,350.302 181.178,351.753C181.111,350.372 182.085,349.16 182.056,347.778C181.483,325.681 176.397,282.969 188.792,264.78C205.163,240.83 241.575,245.782 259.698,223.82C262.932,219.879 265.929,214.254 268.186,209.673C270.106,211.088 270.746,213.614 272.598,215.467C284.893,227.863 302.038,228.2 317.264,233.859C327.773,237.766 336.262,244.47 343.235,253.16C344.212,255.316 334.645,266.768 342.328,268.251C350.783,266.028 352.265,256.192 357.89,250.095C364.863,242.583 374.968,239.249 384.298,235.644C388.542,234.027 395.515,233.893 396.728,229.413C397.941,224.866 396.422,221.632 391.271,222.137C388.105,222.443 374.597,227.83 370.959,229.413C363.211,232.815 356.071,237.127 349.569,242.483C344.079,237.835 337.948,231.839 331.851,228.133C312.92,216.579 281.493,217.186 273.004,192.865L267.311,187.475C265.761,196.199 260.304,207.517 254.444,214.119C241.509,228.637 214.259,231.433 197.416,241.437C191.117,245.21 186.031,250.498 181.18,255.854L181.18,221.631C181.18,203.677 205.938,180.873 224.195,181.21L345.425,180.809L466.183,60.051C492.255,38.021 530.924,37.651 557.198,59.65L678.428,180.813L799.658,181.214C817.14,180.469 842.707,203.816 842.707,220.793L842.713,238.978Z" style="fill:rgb(69,28,21);fill-rule:nonzero;"/>
    </g>
    <g transform="matrix(0.058594,0,0,0.058594,-0.000135,0.000017)">
        <path d="M452.887,602.594C453.059,603.167 455.043,604.481 455.548,605.289C453.797,605.9 451.001,603.302 448.777,602.291C440.659,598.518 432.171,594.847 423.817,591.714C404.078,584.405 382.857,580.396 367.194,564.868C364.735,570.393 372.179,577.23 376.053,580.868C392.188,595.925 408.255,595.083 426.276,605.255C445.274,616 462.318,634.291 465.215,656.86C465.96,662.687 465.215,670.3 466.428,676.094C467.268,680.439 472.087,683.606 473.468,686.772C474.003,687.951 473.84,689.197 472.866,689.164C472.494,689.13 468.454,685.425 466.836,684.583C459.055,680.541 448.074,674.107 440.427,670.975C423.214,663.968 403.576,661.173 386.06,655.211C385.554,655.039 377.403,648.238 379.188,652.314C379.694,653.459 386.632,660.87 388.047,662.083C405.563,676.938 434.565,675.388 452.788,688.795C475.087,705.199 482.801,733.73 489.302,759.33C483.104,757.208 476.67,755.692 470.203,754.918C431.264,750.169 381.31,757.006 348.569,731.777C340.821,725.815 332.502,717.63 330.346,707.827C320.072,718.269 311.247,728.105 299.02,736.425C263.483,760.61 220.738,760.812 181.596,775.297C181.128,769.368 180.718,763.036 181.128,757.074C181.94,745.082 186.282,724.872 193.591,715.373C213.229,689.941 241.793,686.034 267.393,669.326C274.737,664.543 282.45,659.322 285.044,650.53C285.416,649.385 284.872,648.812 283.73,649.25C280.53,650.463 271.839,658.917 267.595,661.477C247.89,673.3 223.266,676.062 203.797,688.29C203.625,688.395 202.214,685.056 202.18,684.753C197.768,656.121 211.039,632.104 234.517,616.879C249.473,607.178 269.717,602.9 282.315,590.066C283.393,588.988 287.401,584.137 287.704,583.026C288.076,581.847 287.599,581.409 286.424,581.746C284.235,582.424 275.982,589.224 272.647,591.043C258.769,598.857 242.432,602.698 228.52,610.883C226.869,611.86 219.493,618.125 218.448,617.249C215.416,604.382 214.742,590.066 216.797,576.963C218.448,566.453 225.959,551.43 233.1,543.514C246.405,528.861 267.29,524.954 282.852,514.242C289.993,509.324 293.092,503.227 297.505,496.052L297.066,494.738C292.013,498.679 286.018,504.473 280.325,507.302C272.207,511.412 261.293,513.803 252.502,517.609C245.597,520.641 238.624,524.481 232.224,528.455C229.866,529.162 230.877,522.493 231.113,521.111C233.572,506.155 242.364,488.067 252.637,476.917C265.673,462.837 284.705,457.212 300.738,447.814C318.591,437.338 331.93,419.485 341.429,401.464C345.64,414.5 353.252,426.357 364.166,434.711C372.116,440.741 381.716,445.322 389.766,451.722C407.215,465.499 416.949,484.665 421.362,506.223C424.158,519.932 421.496,512.253 413.008,510.198C404.385,508.042 399.4,508.412 390.406,504.371C379.762,499.52 369.522,492.851 360.966,484.935C360.932,491.908 365.479,496.186 370.297,500.497C392.192,519.933 420.722,521.651 439.417,547.689C444.503,554.762 452.891,575.58 452.891,583.967C452.891,588.009 452.079,599.731 452.891,602.594L452.887,602.594Z" style="fill:rgb(69,28,21);fill-rule:nonzero;"/>
    </g>
    <g transform="matrix(0.058594,0,0,0.058594,-0.000135,0.000017)">
        <path d="M646.468,583.949C651.487,530.492 707.369,527.292 738.393,496.504L746.814,484.917C749.34,493.944 754.999,502.13 761.905,508.462C772.751,518.433 785.013,522.34 796.836,530.39C817.922,544.773 837.493,569.733 830.722,596.849C828.971,596.782 825.232,591.796 822.941,590.449C807.547,581.321 786.259,581.286 772.987,568.419C769.922,581.657 787.774,583.644 796.532,587.518C814.553,595.501 823.513,600.15 833.652,617.868C840.052,629.018 844.566,645.388 842.713,658.087C836.178,657.886 831.732,652.731 826.444,649.936C809.838,641.212 791.176,637.843 776.557,625.245C775.479,626.085 776.318,628.411 776.796,629.456C781.815,640.572 807.988,650.071 819.003,656.471C828.704,662.096 836.99,668.058 843.155,677.658C843.489,678.231 842.716,678.736 842.716,678.937L842.716,742.432C826.548,732.36 808.526,725.758 791.213,718.078L771.676,705.177C772.956,708.074 773.865,711.308 775.752,713.968C783.735,725.454 813.31,734.987 826.447,742.297C832.376,745.564 842.11,751.762 842.75,758.836C843.727,769.278 843.76,791.106 842.716,801.514C842.41,804.243 838.977,817.042 836.787,817.817C831.97,819.434 818.16,816.772 812.703,815.56C789.629,810.407 768.88,800.065 750.825,785.076C744.223,779.551 739.574,773.522 734.825,766.415C725.831,781.101 710.707,790.6 695.616,798.28C673.856,809.362 647.043,814.213 623.599,822.129C614.235,825.295 605.073,829.472 595.843,833.043C596.888,818.02 599.278,800.167 605.746,786.525C621.914,752.47 682.58,744.992 690.866,718.011C691.038,717.438 691.038,716.495 690.427,716.697C666.477,735.021 636.599,742.802 611.067,759.005C609.854,759.712 604.936,764.766 603.825,763.754C597.526,739.535 601.096,713.463 619.354,695.375C641.08,673.851 670.554,666.507 692.651,647.88C694.402,646.432 703.497,637.505 704.036,636.192C704.275,635.619 704.571,634.205 703.769,634.137C698.918,639.56 693.866,643.67 687.331,647.038C674.262,653.741 658.026,658.491 644.687,664.756C637.142,668.326 630.203,673.447 622.489,676.748C620.3,662.196 624.106,643.131 630.068,629.691C641.521,603.754 676.148,599.308 696.123,583.88C697.403,582.903 704.679,575.897 705.083,575.054C705.284,574.586 705.255,573.572 704.644,573.74L646.471,598.599C646.777,593.85 646.032,588.628 646.471,583.946L646.468,583.949Z" style="fill:rgb(69,28,21);fill-rule:nonzero;"/>
    </g>
    <g transform="matrix(0.058594,0,0,0.058594,-0.000135,0.000017)">
        <path d="M705.965,824.591C705.86,824.992 702.832,831.294 702.294,832.271C701.482,833.753 695.389,841.905 694.412,842.343L679.052,842.945C676.424,843.718 670.833,852.073 667.734,853.825C663.322,856.25 652.104,857.362 646.479,859.181C637.856,862.045 622.26,872.251 617.746,880.234C615.389,884.344 613.973,887.948 616.769,892.495C618.284,894.92 623.742,896.739 623.405,898.289L552.264,968.353C526.293,987.182 490.083,985.33 466.2,964.008L375.623,873.431C386.099,869.557 393.678,864.539 392.398,852.21C391.017,839.039 383.27,840.218 375.185,833.044C367.471,826.206 360.364,811.89 362.351,801.515C362.752,799.326 366.326,797.068 368.313,796.766C371.648,796.231 379.9,803.065 383.606,805.052C393.442,810.374 404.861,813.507 416.044,814.349C430.528,815.46 436.794,812.226 450.84,819.537C453.366,820.851 461.08,827.015 455.893,818.897C452.861,814.114 444.339,808.724 438.882,807.512C434.2,806.434 427.968,807.846 423.118,807.311C416.28,806.499 406.983,804.919 400.516,802.393C392.061,799.058 364.575,781.745 359.792,774.738C355.514,768.371 354.538,757.087 354.739,749.576C372.828,764.027 396.743,763.824 418.706,765.542C433.797,766.721 448.887,767.934 464.011,769.079C478.428,770.157 492.912,770.157 507.026,773.526C508.306,771.808 501.199,762.107 500.154,759.581C498.874,756.448 498.706,753.282 497.729,750.453C496.179,745.872 493.148,741.426 493.216,736.205C525.688,721.788 562.067,720.171 594.101,704.272C592.653,713.131 588.712,721.417 587.903,730.478C586.556,744.895 590.059,747.893 578.606,759.379C562.572,775.446 540.711,772.583 525.25,791.278C521.545,795.758 513.258,810.141 514.134,815.632C514.335,816.777 516.088,819.506 516.829,818.36C521.68,810.546 528.585,796.634 535.557,790.941C549.94,779.151 575.237,780.533 588.307,764.667C590.631,766.856 589.284,770.393 590.025,773.594C590.56,775.951 593.124,778.276 593.124,780.162C593.124,781.745 588.644,791.985 587.735,795.185C582.514,814.385 580.728,834.697 584.3,854.335L619.601,836.785C645.875,828.061 673.664,821.998 698.827,810.376C700.983,809.399 703.644,807.007 705.53,806.401C708.259,805.589 705.969,808.456 705.969,808.624C705.969,812.666 706.714,821.256 705.969,824.59L705.965,824.591Z" style="fill:rgb(69,28,21);fill-rule:nonzero;"/>
    </g>
    <g transform="matrix(0.058594,0,0,0.058594,-0.000135,0.000017)">
        <path d="M674.308,469.53C685.592,481.96 699.571,488.09 714.561,494.524C717.761,495.871 721.365,496.074 724.599,496.916C719.513,500.655 714.426,505.742 708.902,508.739C705.231,510.726 701.626,511.164 698.662,512.714C656.927,534.036 636.413,546.567 632.27,597.262C631.964,600.9 633.043,607.603 632.27,610.399C632.069,611.172 630.418,611.51 629.744,612.487C620.043,625.994 613.205,641.051 611.049,657.759C610.409,662.845 610.877,678.946 608.657,682.012C606.67,684.74 593.836,692.757 590.265,694.677C565.136,708.117 535.056,708.892 508.479,716.774C504.235,718.02 501.338,720.075 497.296,721.153C501.472,691.241 508.58,667.763 534.652,650.584C557.423,635.594 576.791,630.306 596.766,608.849C599.495,605.919 606.703,596.824 601.617,594.196C600.91,594.196 594.105,601.068 592.725,602.112C586.83,606.66 578.308,613.363 572.178,617.102C555.134,627.578 533.508,633.776 516.835,645.666C516.463,628.992 516.396,612.352 522.36,596.588C533.981,565.767 570.461,555.864 593.602,535.518C596.532,532.958 604.785,524.301 605.594,520.865C605.861,519.787 605.928,518.001 604.315,518.676C583.633,541.211 550.016,543.367 527.481,563.106C527.586,557.043 527.548,549.969 528.388,544.041C530.51,529.759 538.426,514.197 550.283,505.54C569.685,491.393 597.239,489.169 614.923,473.371C617.584,470.979 621.795,467.14 621.154,463.636C607.512,475.426 588.783,476.503 572.278,482.263C563.318,485.396 554.695,489.741 546.139,493.817C545.232,478.76 551.865,465.219 560.118,453.194C571.369,436.891 581.844,431.872 597.205,420.992C609.5,412.301 631.327,396.436 639.715,383.636C643.353,378.111 645.071,371.24 649.147,365.952C649.147,368.276 650.292,370.23 651.336,372.183C658.848,385.96 674.814,405.194 687.749,413.918C700.886,422.81 716.549,428.84 727.16,441.169C722.882,453.093 721.602,468.757 726.826,480.479C728.376,484.049 735.786,491.292 727.504,490.584C708.034,482.264 687.42,475.931 671.79,461.009C668.657,463.064 672.563,467.612 674.316,469.531L674.308,469.53Z" style="fill:rgb(69,28,21);fill-rule:nonzero;"/>
    </g>
    <g transform="matrix(0.058594,0,0,0.058594,-0.000135,0.000017)">
        <path d="M181.169,678.96L102.078,599.97C101.333,599.225 101.2,598.42 101.238,597.377C101.343,595.221 106.527,583.364 107.874,580.804C115.554,566.219 131.116,552.543 148.666,554.294C155.673,555.001 165.441,562.951 166.755,569.924C171.235,594.21 145.433,591.819 129.669,587.945C131.757,605.697 160.995,603.069 172.313,596.4C183.631,589.764 195.32,568.442 190.839,555.642C189.053,550.488 179.723,541.427 179.386,539.507C178.409,533.982 182.384,535.027 185.213,532.029C192.657,524.215 190.434,509.494 179.419,506.26C179.858,508.955 181.878,509.73 182.114,512.93C182.792,522.395 174.973,525.932 167.023,527.178C160.926,528.123 139.469,524.214 135.36,519.633C135.026,519.261 131.352,514.379 131.217,514.041C129.971,511.38 130.95,508.516 130.472,505.923C128.754,496.592 123.802,485.813 113.259,484.904C95.912,483.389 80.551,492.82 83.549,511.953C84.322,516.905 92.375,523.776 93.25,519.128C93.622,517.174 87.692,513.133 90.791,505.115C95.675,492.382 116.088,493.696 118.042,507.675C120.972,528.896 97.394,533.848 86.177,547.557C81.023,553.856 76.745,563.288 74.59,571.069C73.243,571.441 73.108,570.697 72.367,570.191C41.344,548.869 33.428,502.687 55.222,472.203C69.538,452.161 96.721,446.603 109.05,424.843C111.678,420.228 112.688,415.816 115.012,411.234C117.067,421.643 124.915,431.748 131.888,439.664C153.918,464.692 190.499,476.515 209.059,504.54C214.92,513.399 220.983,525.188 219.299,535.967C218.764,539.47 211.485,548.093 209.396,552.674C202.188,568.708 197.169,589.255 198.92,607.041C199.388,611.656 204.276,620.818 204.04,622.906C203.839,624.692 199.123,630.316 197.909,632.641C194.54,638.872 188.814,649.045 188.242,655.816C187.097,668.953 188.777,683.437 190.465,696.372L181.168,708.701L181.169,678.96Z" style="fill:rgb(69,28,21);fill-rule:nonzero;"/>
    </g>
    <g transform="matrix(0.058594,0,0,0.058594,-0.000135,0.000017)">
        <path d="M842.713,247.847L842.713,282.475C834.73,278.028 819.74,283.62 812.97,278.938C802.023,271.393 810.511,256.942 821.661,256.875C825.939,258.155 825.366,266.206 828.027,265.599C836.954,257.582 826.343,252.765 819.909,248.892C802.629,251.385 787.033,274.458 804.515,287.797C794.14,293.153 788.65,307.031 788.481,318.416C788.447,321.381 791.31,336.269 793.062,337.448C793.234,337.62 794.645,336.438 795.655,337.047C796.333,337.419 798.283,340.853 800.168,342.336C811.082,350.791 831.158,348.298 835.604,334.016C831.393,335.363 829.137,337.755 824.387,338.328C816.337,339.305 812.631,338.156 809.128,330.715C804.681,321.25 807.276,313.064 813.844,305.553C822.13,296.088 831.36,298.143 842.712,299.355L842.712,345.065L876.295,378.985C876.868,383.364 876.123,387.777 875.455,392.021C873.198,406.101 867.304,425.369 855.042,433.79C852.684,435.441 851.236,436.654 848.035,436.114L857.467,442.211C869.526,447.904 871.884,443.592 880.911,436.114C873.433,465.857 846.553,443.928 832.877,432.139C824.961,425.301 817.247,415.263 808.388,409.604C806.199,408.223 802.426,407.415 800.944,406.337C800.132,405.735 800.877,404.417 800.104,403.709C798.891,402.598 796.331,402.193 794.815,400.98C787.842,395.455 785.148,388.854 790.503,380.769C794.545,374.706 810.309,376.424 809.872,385.485C814.554,381.578 813.173,375.514 808.895,371.775C798.689,362.949 784.44,369.249 779.623,380.566C777.299,386.124 777.568,396.196 775.278,400.204C773.459,403.37 759.581,407.143 754.899,409.972C746.849,414.856 739.371,423.21 733.846,430.722L703.294,411.69C708.953,400.069 720.877,391.21 732.263,385.585C741.964,380.836 751.463,378.849 760.794,373.088C772.853,365.678 782.015,357.189 789.291,344.928L784.98,334.856L779.658,344.658L777.806,344.085C777.271,341.323 773.023,339.504 772.147,337.517C770.968,334.924 772.147,331.824 771.641,329.163C770.763,324.38 767.599,316.7 765.611,312.085C762.714,305.349 758.739,299.117 753.013,294.502C760.053,286.653 773.594,283.184 775.211,270.957C771.573,273.652 767.834,276.38 763.96,278.771C758.571,282.038 751.598,284.16 748.128,289.584C745.332,286.35 740.852,284.801 737.484,282.443C734.554,280.422 731.892,276.448 728.187,276.245L728.894,274.628L726.469,273.213C732.667,238.215 776.591,246.737 789.459,216.792L796.971,225.651C810.984,236.531 826.344,241.82 842.714,247.849L842.713,247.847Z" style="fill:rgb(69,28,21);fill-rule:nonzero;"/>
    </g>
    <g transform="matrix(0.058594,0,0,0.058594,-0.000135,0.000017)">
        <path d="M889.78,631.454C887.692,612.389 888.702,594.637 898.976,578.064C918.479,546.603 942.968,549.028 967.49,530.232C968.77,529.222 969.578,527.032 969.882,526.83C971.128,526.152 973.317,527.403 974.227,526.152C976.046,523.727 974.361,516.485 973.349,513.689C972.977,512.744 973.75,512.174 971.934,512.476C968.734,514.833 965.197,518.674 962.233,520.964C958.898,523.557 953.61,527.937 950.477,530.059C943.437,534.91 932.186,538.514 924.405,542.657C925.82,531.002 924.911,519.246 925.245,507.558C925.579,495.937 925.885,489.705 931.342,478.994C936.058,469.697 944.041,461.209 952.26,454.775C984.866,480.813 991.906,525.276 963.915,557.748L889.78,631.454Z" style="fill:rgb(69,28,21);fill-rule:nonzero;"/>
    </g>
    <g transform="matrix(0.058594,0,0,0.058594,-0.000135,0.000017)">
        <path d="M181.358,795.023C190.285,788.892 199.952,786.433 210.293,783.537C243.001,774.442 278.571,772.792 308.146,754.872C307.068,769.693 305.62,786.939 300.601,801.053C298.244,807.756 296.154,812.573 290.092,816.312C273.014,826.821 251.422,822.207 232.458,825.239C222.319,826.89 212.955,831.1 204.197,836.22C190.218,827.462 180.214,811.967 181.359,795.024L181.358,795.023Z" style="fill:rgb(69,28,21);fill-rule:nonzero;"/>
    </g>
    <g transform="matrix(0.058594,0,0,0.058594,-0.000135,0.000017)">
        <path d="M832.045,519.562C830.832,519.801 830.698,517.979 830.53,517.103C827.701,503.394 827.566,486.181 821.233,474.021C818.303,468.463 813.755,462.737 810.286,457.415C809.513,462.063 810.219,467.251 810.859,471.933C813.048,488.102 813.554,502.013 814.294,518.249C814.466,521.92 814.189,525.659 814.294,529.331L770.774,499.588C786.943,500.495 791.018,469.272 776.13,466.308C780.947,480.759 771.785,488.506 757.705,484.7C752.046,475.874 749.891,467.487 751.271,456.978C753.191,442.224 765.385,431.782 780.138,430.772C799.17,429.492 819.515,456.473 826.892,471.901C831.608,481.771 833.158,496.592 833.359,507.606C833.393,511.277 832.958,515.926 832.045,519.564L832.045,519.562Z" style="fill:rgb(69,28,21);fill-rule:nonzero;"/>
    </g>
    <g transform="matrix(0.058594,0,0,0.058594,-0.000135,0.000017)">
        <path d="M210.471,838.364C214.008,838.259 216.938,836.141 220.206,835.231C248.737,827.113 282.691,839.037 304.619,815.458C308.931,810.776 313.175,798.852 320.417,807.879C331.971,822.195 320.923,836.679 306.775,842.742C279.996,841.227 250.691,844.898 224.215,842.847C220.105,842.475 213.436,841.432 210.472,838.367L210.471,838.364Z" style="fill:rgb(69,28,21);fill-rule:nonzero;"/>
    </g>
    <g transform="matrix(0.058594,0,0,0.058594,-0.000135,0.000017)">
        <path d="M827.613,829.485C810.805,848.955 782.543,841.241 759.84,842.824C758.933,842.623 755.798,833.83 755.697,832.483C755.563,830.294 756.742,828.373 756.674,826.352L755.697,806.377C777.996,818.503 802.215,826.891 827.613,829.485Z" style="fill:rgb(69,28,21);fill-rule:nonzero;"/>
    </g>
    <g transform="matrix(0.058594,0,0,0.058594,-0.000135,0.000017)">
        <path d="M625.156,385.491C627.413,387.175 605.08,402.266 603.564,403.377C588.709,414.425 569.172,424.531 556.776,438.341C553.678,441.776 552.263,447.065 547.917,449.389C549.399,433.658 551.892,421.397 562.132,409.035C578.604,389.161 600.566,386.601 625.155,385.49L625.156,385.491Z" style="fill:rgb(69,28,21);fill-rule:nonzero;"/>
    </g>
    <g transform="matrix(0.058594,0,0,0.058594,-0.000135,0.000017)">
        <path d="M325.021,842.794C327.177,840.032 329.703,837.674 331.387,834.508C335.395,826.929 335.463,812.175 346.781,812.546C358.166,812.88 354.057,827.03 359.615,833.464C361.03,835.115 367.059,839.494 369.148,840.841C376.39,845.523 386.058,846.197 384.542,857.481C383.864,862.938 374.841,866.508 369.99,867.485L344.996,842.794L325.021,842.794Z" style="fill:rgb(69,28,21);fill-rule:nonzero;"/>
    </g>
    <g transform="matrix(0.058594,0,0,0.058594,-0.000135,0.000017)">
        <path d="M895.985,543.552L893.324,543.552L892.446,522.23C887.225,525.228 878.602,526.777 873.819,522.669C886.585,519.402 894.872,513.911 893.322,499.124C887.797,500.069 883.621,501.448 877.793,500.91C876.075,500.776 871.999,500.003 871.123,498.282C878.736,500 892.513,490.534 894.028,483.427C896.285,472.648 895.679,464.092 899.754,452.774C903.897,441.321 911.779,430.744 917.741,420.134L927.914,431.115C926.196,435.258 919.055,434.786 917.337,436.504C907.164,446.34 903.493,469.414 901.438,482.854C899.249,496.698 898.709,508.858 897.8,522.736C897.332,529.608 895.543,536.547 895.981,543.553L895.985,543.552Z" style="fill:rgb(69,28,21);fill-rule:nonzero;"/>
    </g>
</svg>
