<?xml version="1.0" encoding="UTF-8" standalone="no"?>
<!DOCTYPE svg PUBLIC "-//W3C//DTD SVG 1.1//EN" "http://www.w3.org/Graphics/SVG/1.1/DTD/svg11.dtd">
<svg width="100%" height="100%" viewBox="0 0 60 60" version="1.1" xmlns="http://www.w3.org/2000/svg" xmlns:xlink="http://www.w3.org/1999/xlink" xml:space="preserve" xmlns:serif="http://www.serif.com/" style="fill-rule:evenodd;clip-rule:evenodd;stroke-linejoin:round;stroke-miterlimit:2;">
    <g transform="matrix(0.058594,0,0,0.058594,-0.000022,0.000007)">
        <path d="M506.879,15.446C481.207,16.83 461.362,26.667 442.67,43.57C405.143,77.492 371.163,117.903 333.896,152.373C297.955,155.027 259.909,150.411 224.199,152.774C186.354,155.312 155.952,185.83 152.75,223.415L152.292,333.949L35.557,451.665C7.376,487.519 7.376,536.498 35.557,572.381L152.292,690.068C154.945,726.009 150.33,764.055 152.725,799.765C155.234,837.61 185.781,868.012 223.366,871.185L333.9,871.676C371.139,906.175 405.176,946.5 442.674,980.45C485.797,1019.506 538.093,1019.535 581.245,980.45C618.743,946.5 652.752,906.174 690.019,871.676C725.96,868.993 764.006,873.638 799.687,871.243C837.243,868.734 867.473,838.706 871.136,801.496L871.594,690.068L988.329,572.381C1016.568,536.44 1016.568,487.577 988.329,451.665L871.594,333.949L871.013,221.742C866.975,184.792 837.524,156.062 800.516,152.832L690.011,152.374C652.743,117.904 618.735,77.493 581.237,43.571C560.036,24.418 536.066,13.861 506.875,15.447L506.879,15.446ZM502.434,0.36C534.913,-2.207 565.691,9.042 589.228,31.138L696.82,138.441L804.873,138.727C818.978,140.66 832.131,145.073 844.073,152.803C905.945,192.753 879.379,266.221 885.812,327.747L998.971,441.886C1034.508,486.047 1031.652,548.295 992.827,589.283L885.812,696.298L885.231,804.928C883.298,819.033 878.885,832.215 871.155,844.157C831.205,906.001 757.737,879.463 696.211,885.867L582.072,999.054C537.853,1034.62 475.721,1031.793 434.674,992.882L327.659,885.867L219.029,885.286C204.924,883.353 191.742,878.94 179.8,871.239C117.928,831.26 144.523,757.85 138.09,696.295L24.903,582.127C-10.634,537.965 -7.749,475.747 31.076,434.73L138.091,327.744L138.639,219.085C140.572,204.98 145.013,191.827 152.715,179.885C192.694,118.013 266.133,144.579 327.659,138.146L441.798,24.959C458.961,11.142 480.306,2.114 502.43,0.354L502.434,0.36Z" style="fill:rgb(69,28,21);fill-rule:nonzero;"/>
    </g>
    <g transform="matrix(0.058594,0,0,0.058594,-0.000022,0.000007)">
        <path d="M420.036,747.795C397.249,736.257 370.221,732.998 346.107,742.661C344.117,743.47 334.338,747.882 334.8,749.988C344.751,757.459 357.674,767.295 370.654,767.237C374.952,767.208 395.028,765.189 398.749,764.237C406.595,762.218 414.325,753.189 420.037,747.795L420.036,747.795ZM406.71,704.265L406.71,732.681L408.498,733.139C408.498,733.975 405.7,732.91 406.71,735.331L425.344,743.35C428.431,737.206 436.363,724.832 432.065,718.428C429.758,714.996 408.874,701.986 406.71,704.265ZM314.291,681.276L277.081,665.209C273.707,681.478 253.284,688.4 238.458,688.285C236.122,688.547 240.765,693.304 241.775,693.881C247.573,697.025 254.438,696.218 260.582,694.462C263.38,693.653 267.014,690.799 269.466,690.971C274.889,691.314 284.61,700.547 292.513,699.798C299.926,699.078 315.416,690.481 314.291,681.28L314.291,681.276ZM434.228,712.258C434.081,703.201 435.757,694.23 435.18,685.144C434.113,668.616 430.218,662.876 419.604,650.992C415.681,646.579 411.095,642.512 406.739,638.56L406.768,698.009C417.123,699.48 426.354,705.624 434.228,712.258ZM269.091,661.665C250.746,651.858 230.122,646.694 212.67,635.157C204.623,643.176 195.738,652.349 183.825,653.675L246.447,681.683C248.611,681.683 263.494,674.068 265.11,672.337C267.562,669.654 267.533,664.838 269.09,661.664L269.091,661.665ZM337.107,670.001C319.483,660.367 300.099,654.713 281.811,646.694C271.167,642.05 261.187,635.791 250.745,630.685C240.072,625.493 228.823,621.339 218.468,615.484C219.22,621.888 215.295,627.224 214.054,633.195L232.947,641.387C249.677,648.627 266.58,655.867 283.31,662.963C298.05,669.194 314.491,672.309 327.27,682.924C328.799,684.857 325.914,685.059 325.337,685.924C323.317,688.895 322.279,693.049 319.366,695.962C315.645,699.712 307.915,702.712 302.838,704.298C310.367,711.971 320.203,708.884 329.721,708.538C330.933,708.162 340.192,697.029 340.74,695.558C343.278,688.75 341.72,678.943 340.135,672.021C338.693,671.874 337.568,670.261 337.106,670.002L337.107,670.001ZM400.479,732.681C400.307,711.192 399.441,689.789 399.584,668.27C399.584,665.732 400.507,663.569 400.536,661.232C400.65,651.252 400.16,641.3 398.286,631.464C388.709,624.051 376.739,615.253 365.23,611.244C358.509,608.879 339.183,603.888 332.549,603.86C327.386,603.831 326.462,610.696 324.155,614.821C323.697,615.63 322.165,615.946 321.27,617.475C315.905,626.503 317.145,641.993 317.174,652.175C318.097,654.886 332.318,659.876 335.404,661.492C336.673,662.154 344.173,666.799 344.606,667.377C345.818,668.963 348.212,681.367 348.414,683.992C349.856,703.722 336.53,717.481 317.031,717.596C316.021,727.605 320.752,737.759 328.252,744.133C348.617,729.451 376.625,726.855 400.48,732.682L400.479,732.681ZM617.883,456.78C596.422,457.876 572.943,462.867 556.039,476.654C557.481,484.269 558.866,491.596 564.317,497.393C583.182,517.44 603.69,522.084 630.718,516.69C645.429,513.719 656.851,502.469 664.986,490.556C667.034,487.527 676.697,471.576 675.399,468.951C658.323,457.413 637.958,455.74 617.882,456.778L617.883,456.78ZM476.86,403.244L455.572,406.792C455.171,413.744 462.235,433.618 469.533,435.06C474.869,436.127 486.753,431.31 492.84,431.656C484.937,423.377 477.725,415.272 476.86,403.244ZM538.126,391.706L483.061,402.84C484.763,414.234 492.032,422.628 500.599,429.723L536.655,424.387L538.126,423.233L538.126,391.706ZM267.301,386.37C260.436,388.764 246.994,393.466 245.321,401.225C241.86,417.003 245.174,437.743 245.493,453.896C249.733,459.953 258.156,468.145 265.973,468.145C268.742,468.145 274.569,467.54 277.569,467.222C278.896,467.075 279.761,467.132 280.598,465.838C275.233,461.309 272.031,455.627 270.012,448.935C267.185,439.474 266.695,426.984 266.378,417.061C266.035,407.081 266.035,396.148 267.301,386.37ZM308.923,386.484C297.125,382.417 283.857,382.821 271.828,385.561C273.126,407.022 266.607,438.636 279.357,457.356C280.166,458.568 286.539,465 287.491,465.259C290.865,466.211 297.356,462.75 300.615,463.154C301.682,463.268 308.922,468.663 311.663,469.443C319.768,471.722 330.701,464.972 339.21,465.405L328.105,460.991C316.423,454.241 317.807,437.021 319.307,425.425C313.624,422.223 308,426.234 302.894,426.867C302.174,426.957 300.269,427.934 301.048,425.915C303.413,419.828 316.018,419.713 320.547,422.367C326.143,425.656 321.442,435.953 322.364,439.934C322.511,440.572 323.864,440.449 324.066,441.203C325.48,445.904 324.818,448.27 328.191,452.885C334.278,461.135 337.71,456.837 346.334,456.519C336.267,443.106 334.998,421.732 339.873,406.098C340.331,404.627 344.488,398.079 345.469,397.502C348.036,395.973 359.891,395.31 364.622,393.55C365.862,393.117 366.151,393.893 365.862,391.704C360.324,391.042 354.526,387.377 349.219,386.599C336.47,384.724 321.701,391.128 309.038,392.599L308.923,386.484ZM460.878,436.098C455.542,432.983 450.494,422.656 448.85,416.599C447.87,412.993 445.965,400.129 445.85,396.494C445.792,393.955 447.783,383.485 446.659,381.927C430.448,385.821 413.949,388.417 397.651,391.965C387.844,394.1 378.21,396.09 368.345,398.167C365.23,398.862 353.836,401.599 351.701,402.84C350.403,403.56 350.374,404.311 349.913,405.493C348.99,407.858 348.269,415.848 348.125,418.791C347.487,431.252 349.105,443.655 356.721,453.895L460.878,436.098ZM539.019,353.515C536.221,352.706 534.461,354.64 532.327,355.246C511.934,360.813 489.463,363.265 469.734,369.034C465.494,370.274 461.023,372.784 457.013,374.745L456.432,401.455L538.005,384.465L539.019,353.515ZM309.039,380.167L309.039,367.273C309.039,361.273 303.328,357.148 298.366,354.841C288.818,350.427 264.964,348.207 256.195,354.408C253.888,356.023 245.984,366.725 245.984,369.061L245.984,390.81C264.704,378.291 287.203,376.301 309.039,380.166L309.039,380.167ZM695.301,296.689L695.301,364.619C697.176,365.715 702.887,368.484 704.618,368.513C706.118,368.542 719.156,364.619 720.223,363.523C731.848,351.754 727.55,327.755 729.915,313.016L729.079,311.343L695.301,296.689ZM329.288,257.864C311.318,259.306 294.155,267.815 280.627,279.353C280.627,281.545 297.674,290.401 300.645,291.295C308.203,293.632 328.423,296.487 336.095,295.766C350.892,294.439 370.507,282.613 380.949,272.257C366.959,260.661 347.229,256.45 329.288,257.863L329.288,257.864ZM631.381,245.172L631.381,430.328C631.381,434.395 622.814,430.99 621.083,430.876C610.41,430.04 593.825,432.001 583.44,434.77C570.864,438.116 559.21,444.491 549.836,453.49L551.48,470.739C565.902,458.797 587.478,452.278 606.083,450.317C630.168,447.778 656.129,448.731 677.128,461.855C679.724,457.817 680.791,454.24 681.138,449.019C683.013,421.789 680.934,390.55 681.08,362.802C681.194,337.851 682.234,313.304 681.109,288.238C680.733,279.411 680.447,270.585 680.071,261.758C666.6,250.826 648.745,244.739 631.381,245.172ZM623.391,172.367C609.776,173.925 597.661,182.52 587.046,190.655C566.912,206.087 552.836,219.644 551.423,246.47C548.279,305.717 555.779,366.436 553.269,425.914C553.04,431.395 551.827,437.654 551.481,443.192C570.692,425.625 598.498,423.837 623.391,424.558L623.391,172.367ZM680.215,253.162L680.215,224.317C680.215,220.539 675.6,203.664 674.043,199.424C671.562,192.703 667.841,186.415 662.39,181.771C653.852,174.473 643.035,168.214 631.382,169.685L631.382,240.73C644.535,240.877 658.958,243.182 671.073,248.576C672.544,249.214 679.467,253.999 680.217,253.162L680.215,253.162ZM298.396,181.252L309.934,181.252C310.743,182.029 309.411,200.52 309.844,203.953C310.073,205.597 311.517,205.107 311.69,205.828C313.161,212.174 311.69,214.77 306.094,216.933C288.701,223.567 277.249,228.154 264.615,242.922C261.5,246.556 256.538,251.374 259.51,256.133L274.855,274.478C303.671,247.248 353.746,240.701 384.956,267.353C386.34,267.324 396.811,247.767 397.994,244.883C402.897,232.912 403.128,227.922 403.128,215.461C403.07,184.539 402.866,153.56 403.619,122.638L465.751,60.448C491.913,37.718 531.258,37.66 557.68,60.015L678.454,180.789L799.689,181.222L818.755,186.587C811.313,203.375 809.38,221.374 807.217,239.402C806.465,245.574 807.07,251.286 804.967,257.574C800.756,270.064 784.429,282.063 777.737,294.294C772.401,304.015 769.805,316.331 766.314,326.831L749.901,319.764C748.228,315.697 751.343,304.476 748.055,302.082C742.603,298.072 727.604,300.9 721.056,302.024C725.181,306.062 730.921,306.091 736.171,305.543C735.852,326.456 743.527,362.194 719.297,372.607C716.297,373.876 711.884,373.359 709.547,377.049C715.719,381.982 723.018,376.501 730.171,377.711C731.902,377.997 749.555,384.345 750.362,385.038C754.516,388.499 745.776,408.806 744.391,413.71C737.382,438.747 738.304,463.583 731.843,489.053C727.661,505.466 718.949,534.888 706.863,546.685C703.257,550.204 704.469,547.494 701.815,547.2C700.027,547.028 694.114,553.546 692.065,554.931C676.258,565.69 655.403,574.488 640.836,585.42C639.163,586.689 629.471,594.045 631.375,595.92C632.615,596.092 633.769,595.862 634.951,595.519C639.999,594.019 651.595,585.741 657.681,582.741C667.517,577.895 677.872,573.828 688.199,570.193C689.959,571.924 674.094,589.663 672.363,592.086C664.373,603.307 660.162,614.672 649.922,624.71C639.076,635.325 624.423,645.334 608.674,645.68C600.886,645.852 593.53,646.228 585.685,646.575C575.272,647.066 557.157,643.056 546.831,640.085C544.524,639.423 535.841,636.653 534.601,635.441C533.217,634.114 531.255,625.864 530.015,623.153C526.641,615.769 521.16,609.452 517.929,601.49C512.939,589.231 513.747,579.395 510.66,567.915C509.189,562.55 497.997,549.281 494.738,542.099C492.113,536.33 492.142,529.263 490.613,525.802C489.286,522.802 477.864,514.726 474.633,510.687C470.653,505.754 463.932,496.265 462.028,490.467C460.499,485.823 460.211,480.602 458.624,476.073C458.133,474.689 457.701,471.891 455.566,472.497L460.239,509.13L479.363,528.168C476.478,547.206 495.66,560.388 497.276,576.858C500.103,605.616 502.641,604.549 513.429,629.067C516.803,636.711 515.794,641.297 523.265,646.778C532.38,653.499 544.841,655.807 555.514,658.922L561.918,674.354C556.351,683.556 547.294,691.43 542.419,701.007C539.91,705.94 538.928,711.42 536.534,716.439C528.313,733.659 506.91,773.148 492.863,784.657C482.623,793.022 467.595,794.493 456.72,800.897C444.98,807.791 436.067,814.57 423,820.483C404.597,828.79 399.491,830.463 378.752,828.588C345.436,825.588 305.745,807.877 276.785,791.118C269.862,787.108 262.651,782.378 256.651,777.099L315.552,778.887L316.157,775.715L291.956,771.533C274.13,770.437 263.803,759.332 249.871,752.322C231.929,743.294 207.729,742.803 191.806,729.592C188.085,726.505 185.345,722.208 181.133,719.641L180.7,678.537L126.991,624.366C143.49,629.673 158.576,638.702 173.114,647.932C181.912,650.067 188.488,646.49 195.296,641.586C210.209,630.798 210.901,618.914 209.113,601.261C204.412,597.021 199.363,593.184 194.056,589.694C169.884,573.887 143.779,561.484 118.078,548.446C100.281,539.417 79.657,527.245 61.254,520.034C54.965,517.553 49.514,516.169 42.62,516.919C41.843,500.737 46.024,484.786 55.571,471.69L149.173,377.483C154.135,396.059 154.682,415.76 159.384,434.336C163.047,448.758 167.662,451.066 174.96,462.258C182.056,473.133 190.796,493.67 200.747,500.42C207.208,504.804 209.574,504.862 215.775,511.15C226.419,521.967 232.678,529.553 240.812,543.831C244.273,549.946 246.119,557.302 251.312,562.205C249.639,554.388 248.456,546.456 245.774,538.869C241.563,526.956 229.217,506.418 219.756,498.284C216.843,495.775 211.795,493.409 209.574,490.726C206.17,486.659 204.295,478.871 201.094,474.342C195.787,466.9 189.354,464.737 185.172,454.727C174.672,429.661 170.836,419.738 167.836,392.134C166.884,383.394 164.404,372.029 164.317,363.578C164.317,362.251 164.489,362.049 165.126,361.011C167.491,356.944 180.414,348.031 181.135,344.166L181.135,224.286C180.792,206.027 203.576,181.249 221.576,181.249L255.757,181.249C256.452,200.2 252.757,219.295 256.652,238.073C258.614,236.573 259.825,233.775 261.527,231.842C268.103,224.343 276.613,218.718 285.353,213.929C288.209,212.371 298.391,209.141 298.391,206.545L298.396,181.252Z" style="fill:rgb(69,28,21);fill-rule:nonzero;"/>
    </g>
    <g transform="matrix(0.058594,0,0,0.058594,-0.000022,0.000007)">
        <path d="M849.828,389.931C838.463,387.479 828.021,382.085 817.406,377.499C815.041,381.624 815.156,386.008 812.387,390.22C805.32,400.979 794.619,403.864 782.359,402.796C792.022,414.824 808.233,420.478 823.376,417.19C837.481,414.161 845.385,402.854 849.827,389.932L849.828,389.931ZM815.186,369.047C835.291,379.056 857.732,383.268 878.703,390.796C883.001,392.325 891.106,395.527 894.856,397.748C900.741,401.239 906.423,409.978 911.99,414.334L856.06,393.479C855.108,404.498 846.57,413.497 838.292,420.103L940.403,458.294C931.115,471.793 924.163,486.937 916.548,501.504C911.788,510.619 906.798,519.705 902.039,528.734C895.231,541.656 882.107,573.213 874.175,582.559C865.089,593.289 847.84,602.202 838.234,613.192L783.227,642.989C799.005,619.134 815.735,595.626 829.004,570.213C837.398,554.146 847.696,533.32 854.416,516.619C856.608,511.225 859.839,504.995 859.146,499.139C845.964,514.917 839.416,534.705 828.34,551.81C797.159,600.01 764.679,648.239 724.21,689.227C716.883,711.091 699,730.908 683.741,748.215C669.376,764.512 655.415,769.531 638.195,781.704C617.455,796.357 606.062,810.289 588.351,826.846C570.409,843.605 545.314,856.902 523.623,867.777C514.104,872.565 495.095,884.622 485.317,885.43C476.75,886.15 456.213,878.738 448.54,874.267C433.569,865.527 420.416,852.085 404.061,845.018C421.137,838.614 438.444,831.72 454.049,822.202C458.895,819.26 463.481,814.875 468.096,812.25C486.239,801.924 496.941,804.779 511.854,785.886C531.497,760.993 540.987,735.696 555.525,708.784C562.246,696.381 575.976,685.333 582.812,672.584C607.099,660.065 633.118,658.306 654.492,639.903C665.02,630.817 666.001,622.336 673.27,611.635C694.529,580.396 719.364,558.301 733.267,521.581C737.681,509.956 743.449,494.294 746.565,482.467C752.507,460.055 748.815,438.248 756.315,414.97C758.94,406.865 763.93,399.769 764.594,390.827C777.113,393.625 783.43,402.221 796.496,394.75C813.255,385.174 808.149,359.905 807.082,343.868L778.843,333.051C777.314,331.291 787.814,303.456 790.15,299.62C794.506,292.466 802.524,285.688 807.572,278.852C824.648,255.776 819.687,239.133 824.331,212.999C825.369,207.086 827.62,201.403 828.543,195.461C836.995,201.835 840.744,212.422 842.706,222.546L842.735,344.185L863.157,365.934L815.188,348.194L815.186,369.047Z" style="fill:rgb(69,28,21);fill-rule:nonzero;"/>
    </g>
    <g transform="matrix(0.058594,0,0,0.058594,-0.000022,0.000007)">
        <path d="M841.316,669.147C837.134,673.618 829.461,678.608 826.894,682.646C820.26,693.088 814.404,706.616 808.606,717.664C803.039,721.212 782.328,735.029 776.761,734.279C776.18,734.221 770.444,732 769.665,731.596C759.685,726.289 751.723,713.078 743.387,705.405L744.107,702.001C761.241,685.819 775.26,663.81 795.393,651.176C800.412,648.003 816.277,639.465 821.411,638.052C826.488,636.668 829.488,641.773 833.007,644.283C837.391,647.37 841.084,648.321 844.17,653.513C850.025,663.32 846.939,663.118 841.315,669.147L841.316,669.147Z" style="fill:rgb(69,28,21);fill-rule:nonzero;"/>
    </g>
    <g transform="matrix(0.058594,0,0,0.058594,-0.000022,0.000007)">
        <path d="M842.723,680.295L842.723,706.486C842.723,707.263 836.204,718.514 835.108,720.187C825.676,734.09 808.426,748.368 794.35,757.57C790.312,760.195 774.707,769.916 771.043,770.666C769.053,771.067 760.717,772.195 758.813,772.195C751.515,772.253 740.698,758.984 735.276,754.427C728.555,748.744 720.623,744.389 714.854,737.582L733.488,716.698C739.286,728.149 758.67,744.101 772.082,743.38C780.159,742.947 808.629,726.708 813.907,720.275C816.445,717.188 819.532,708.045 822.157,703.689C824.58,699.651 827.753,696.218 830.32,692.324C831.589,690.362 831.935,687.507 833.435,685.661C835.108,683.584 840.041,681.075 842.723,680.296L842.723,680.295Z" style="fill:rgb(69,28,21);fill-rule:nonzero;"/>
    </g>
    <g transform="matrix(0.058594,0,0,0.058594,-0.000022,0.000007)">
        <path d="M662.763,315.026C663.801,315.921 665.85,315.084 666.052,317.535C666.224,319.41 664.783,328.554 664.177,330.804C663.973,331.499 662.504,335.419 662.302,335.592C661.869,335.911 656.302,336.572 655.35,336.287C652.465,335.422 653.273,333.258 652.437,332.451C651.775,331.789 649.812,332.361 649.235,330.778C648.023,327.432 650.417,314.048 653.793,312.433C658.812,310.01 659.995,312.662 662.764,315.029L662.763,315.026Z" style="fill:rgb(69,28,21);fill-rule:nonzero;"/>
    </g>
    <g transform="matrix(0.058594,0,0,0.058594,-0.000022,0.000007)">
        <path d="M662.172,389.666C659.835,392.493 658.479,394.656 654.125,394.108C650.693,393.675 649.02,389.118 645.731,388.887C645.527,381.993 646.312,370.311 655.769,372.186C662.894,373.6 662.721,383.839 662.173,389.666L662.172,389.666Z" style="fill:rgb(69,28,21);fill-rule:nonzero;"/>
    </g>
    <g transform="matrix(0.058594,0,0,0.058594,-0.000022,0.000007)">
        <path d="M371.83,652.074C394.214,646.969 387.493,681.005 369.493,668.227C363.032,663.669 366.032,653.401 371.83,652.074Z" style="fill:rgb(69,28,21);fill-rule:nonzero;"/>
    </g>
    <g transform="matrix(0.058594,0,0,0.058594,-0.000022,0.000007)">
        <path d="M376.382,411.36C377.392,412.485 375.801,420.042 374.565,420.821C370.931,423.1 362.594,419.754 364.037,414.36C366.229,406.024 370.354,408.331 376.383,411.36L376.382,411.36Z" style="fill:rgb(69,28,21);fill-rule:nonzero;"/>
    </g>
</svg>
