<?xml version="1.0" encoding="UTF-8" standalone="no"?>
<!DOCTYPE svg PUBLIC "-//W3C//DTD SVG 1.1//EN" "http://www.w3.org/Graphics/SVG/1.1/DTD/svg11.dtd">
<svg width="100%" height="100%" viewBox="0 0 60 61" version="1.1" xmlns="http://www.w3.org/2000/svg" xmlns:xlink="http://www.w3.org/1999/xlink" xml:space="preserve" xmlns:serif="http://www.serif.com/" style="fill-rule:evenodd;clip-rule:evenodd;stroke-linejoin:round;stroke-miterlimit:2;">
    <g transform="matrix(0.058594,0,0,0.058594,0.000132,0.000059)">
        <path d="M979.237,525.826C979.83,523.022 980.046,520.191 980.262,517.387C980.073,520.191 979.804,523.022 979.237,525.826Z" style="fill:rgb(69,28,21);fill-rule:nonzero;"/>
    </g>
    <g transform="matrix(0.058594,0,0,0.058594,0.000132,0.000059)">
        <path d="M860.298,459.394C859.651,457.399 856.658,456.185 854.69,454.622C849.702,455.485 846.116,458.532 846.763,462.792C847.033,464.41 850.214,466.351 852.344,466.755C856.011,467.483 861.295,462.603 860.298,459.394Z" style="fill:rgb(69,28,21);fill-rule:nonzero;"/>
    </g>
    <g transform="matrix(0.058594,0,0,0.058594,0.000132,0.000059)">
        <path d="M975.729,537.428C976.187,536.296 976.43,535.109 976.834,534.004C976.43,535.109 976.187,536.296 975.729,537.428Z" style="fill:rgb(69,28,21);fill-rule:nonzero;"/>
    </g>
    <g transform="matrix(0.058594,0,0,0.058594,0.000132,0.000059)">
        <path d="M842.01,507.635C848.211,507.365 853.334,506.53 857.244,501.784C854.359,500.058 851.663,498.495 848.481,496.58C853.388,492.455 857.783,488.734 862.124,485.121C855.545,486.739 849.155,488.518 842.711,489.947C836.348,491.349 829.931,492.428 823.541,493.641L823.541,494.827C825.968,495.582 828.475,496.175 830.821,497.146C831.926,497.55 833.409,498.548 833.517,499.438C834.461,507.257 835.081,515.13 835.863,523.003C836.052,524.621 836.429,526.212 836.726,527.802C837.211,527.829 837.67,527.856 838.182,527.883C839.126,523.785 840.096,519.686 841.067,515.588C841.444,516.019 841.768,516.451 842.145,516.909C844.922,515.561 847.726,514.24 851.15,512.595C847.861,510.842 845.326,509.413 842.01,507.634L842.01,507.635Z" style="fill:rgb(69,28,21);fill-rule:nonzero;"/>
    </g>
    <g transform="matrix(0.058594,0,0,0.058594,0.000132,0.000059)">
        <path d="M477.758,499.692C473.067,501.795 469.993,509.318 471.826,514.252C474.468,521.316 487.815,525.981 495.822,522.26C504.639,518.189 513.267,513.659 522.029,509.453C525.642,507.673 526.613,504.815 526.1,501.149C525.561,497.347 523.862,494.786 519.656,494.166C513.32,493.222 507.011,492.09 500.702,491.011C488.758,490.849 488.758,490.849 479.725,498.83C479.24,499.288 478.431,499.396 477.757,499.693L477.758,499.692Z" style="fill:rgb(69,28,21);fill-rule:nonzero;"/>
    </g>
    <g transform="matrix(0.058594,0,0,0.058594,0.000132,0.000059)">
        <path d="M560.933,518.948C567.997,517.222 575.169,515.874 582.071,513.636C585.711,512.45 590.052,506.572 587.329,501.233C585.172,497.054 582.206,493.09 579.025,489.585C574.63,484.759 563.926,484.139 558.695,487.967C555.352,490.367 552.143,492.847 548.962,495.409C544.945,498.644 542.437,507.65 545.484,510.535C549.636,514.498 554.247,518.57 560.933,518.947L560.933,518.948Z" style="fill:rgb(69,28,21);fill-rule:nonzero;"/>
    </g>
    <g transform="matrix(0.058594,0,0,0.058594,0.000132,0.000059)">
        <path d="M629.566,545.967C632.289,546.641 636.657,546.318 638.275,544.592C642.886,539.631 646.795,533.888 650.327,528.091C652.026,525.314 651.109,521.674 648.251,519.814C638.437,513.478 628.892,506.36 616.328,506.117C614.009,506.36 611.664,506.279 609.453,506.953C602.551,509.029 598.776,514.125 596.646,520.812C595.109,525.746 596.242,529.629 599.855,533.188C608.132,541.304 618.998,543.38 629.567,545.968L629.566,545.967Z" style="fill:rgb(69,28,21);fill-rule:nonzero;"/>
    </g>
    <g transform="matrix(0.058594,0,0,0.058594,0.000132,0.000059)">
        <path d="M645.115,502.337C646.49,502.337 648.566,502.984 649.672,502.202C651.802,500.719 653.743,498.67 655.011,496.432C655.469,495.65 654.148,492.873 652.989,492.28C646.329,488.937 639.4,488.182 632.417,491.552C629.424,492.981 629.074,494.895 631.446,497.241C635.194,500.854 639.508,502.984 645.116,502.337L645.115,502.337Z" style="fill:rgb(69,28,21);fill-rule:nonzero;"/>
    </g>
    <g transform="matrix(0.058594,0,0,0.058594,0.000132,0.000059)">
        <path d="M502.247,749.823C504.296,751.629 506.076,753.975 508.448,755.215C518.289,760.284 523.655,768.561 525.111,779.104C526.594,789.862 527.214,800.728 527.753,811.62C528.13,819.358 527.429,827.204 527.753,834.996C528.4,852.468 529.586,869.885 530.18,887.357C530.423,895.823 529.56,904.37 529.614,912.89C529.695,926.29 529.991,939.717 530.585,953.118C530.855,959.778 531.933,966.41 532.661,973.097C543.23,971.776 545.765,968.648 544.794,958.942C543.985,950.988 543.284,943.034 542.826,935.026C542.368,926.236 542.071,917.42 542.017,908.603C541.99,903.184 542.718,897.791 542.772,892.372C542.907,880.643 542.826,868.915 542.826,857.186C542.826,830.79 542.853,804.421 542.772,778.025C542.772,773.468 542.745,768.831 541.801,764.409C539.159,752.195 534.791,748.663 523.844,750.443C519.368,751.144 515.594,750.47 511.468,749.311C508.556,748.502 505.428,748.61 502.355,748.313C502.328,748.825 502.274,749.311 502.247,749.823Z" style="fill:rgb(69,28,21);fill-rule:nonzero;"/>
    </g>
    <g transform="matrix(0.058594,0,0,0.058594,0.000132,0.000059)">
        <path d="M521.695,728.534C528.597,727.698 534.232,727.051 539.895,726.35C546.15,725.514 549.305,718.45 545.827,713.138C544.533,711.17 543.293,709.094 541.675,707.449C535.339,700.978 526.981,696.637 518.919,700.735C513.985,703.242 509.617,707.179 505.546,711.089C502.122,714.351 502.634,719.852 506.759,722.197C511.72,725.028 517.274,726.727 521.696,728.533L521.695,728.534Z" style="fill:rgb(69,28,21);fill-rule:nonzero;"/>
    </g>
    <g transform="matrix(0.058594,0,0,0.058594,0.000132,0.000059)">
        <path d="M903.767,407.017C902.5,410.01 901.367,412.679 900.262,415.348C899.13,418.017 897.107,420.633 897.053,423.302C896.702,436.675 896.891,450.049 896.891,464.446C907.757,453.095 911.666,438.724 919.593,426.753C920.213,425.836 919.89,423.41 919.081,422.52C914.551,417.694 909.86,413.083 905.249,408.5L961.142,464.393C962.355,465.606 963.245,467.035 964.351,468.303C961.493,464.69 958.231,461.266 954.537,458.165C954.052,458.677 953.512,459.163 953.081,459.729C944.183,470.622 936.095,481.838 929.813,494.672C922.102,510.337 915.28,526.164 911.074,543.042C907.084,559.031 904.468,575.397 900.1,591.251C897.619,600.337 896.379,609.154 897.161,619.13C918.596,597.776 939.707,577.204 960.28,556.119C983.818,531.934 984.654,494.321 964.486,468.519C975.648,481.596 981.014,497.908 980.609,514.085C981.256,496.074 974.866,477.821 961.142,464.124L903.767,407.017Z" style="fill:rgb(69,28,21);fill-rule:nonzero;"/>
    </g>
    <g transform="matrix(0.058594,0,0,0.058594,0.000132,0.000059)">
        <path d="M635.697,881.626C637.477,878.822 640.496,876.153 640.82,873.187C641.872,864.289 641.872,855.257 642.195,846.252C642.276,844.392 642.599,841.48 641.575,840.752C638.286,838.406 639.526,835.333 639.256,832.448C638.582,825.68 639.067,818.589 634.16,812.145C631.086,819.452 631.437,826.651 631.706,833.688C632.11,843.826 633.351,853.883 633.971,863.994C634.295,869.575 634.025,875.183 634.025,880.791C634.564,881.088 635.157,881.33 635.697,881.627L635.697,881.626Z" style="fill:rgb(69,28,21);fill-rule:nonzero;"/>
    </g>
    <g transform="matrix(0.058594,0,0,0.058594,0.000132,0.000059)">
        <path d="M799.452,693.006C798.832,693.033 798.266,693.087 797.672,693.114C796.971,741.781 796.297,790.448 795.596,839.411C797.106,839.249 798.4,838.872 799.694,838.926C804.682,839.115 806.003,836.823 805.734,831.943C804.898,815.199 804.44,798.429 803.954,781.712C803.765,775.942 803.954,770.199 803.9,764.456C803.873,763.297 803.981,761.49 803.388,761.14C799.64,759.037 800.449,755.532 800.611,752.485C801.582,732.614 801.204,712.797 799.452,693.006Z" style="fill:rgb(69,28,21);fill-rule:nonzero;"/>
    </g>
    <g transform="matrix(0.058594,0,0,0.058594,0.000132,0.000059)">
        <path d="M658.386,722.511C662.107,722.511 665.046,722.673 667.958,722.484C675.454,721.972 682.032,718.763 687.344,713.748C690.445,710.809 692.332,706.549 694.516,702.747C695.001,701.965 694.867,700.051 694.273,699.592C691.9,697.732 689.447,695.548 686.643,694.82C682.464,693.742 677.961,693.31 673.647,693.526C670.196,693.688 666.448,694.578 663.401,696.222C659.707,698.163 656.822,701.534 653.263,703.744C645.444,708.543 650.243,714.367 651.51,720.029C652.642,725.044 656.768,721.512 658.385,722.51L658.386,722.511Z" style="fill:rgb(69,28,21);fill-rule:nonzero;"/>
    </g>
    <g transform="matrix(0.058594,0,0,0.058594,0.000132,0.000059)">
        <path d="M806.567,463.907C806.702,455.549 806.702,455.549 798.451,453.607C787.316,451.019 778.822,454.82 773.133,465.632C775.829,466.198 778.606,466.009 780.467,467.277C786.668,471.51 793.382,471.106 800.284,470.539C805.73,470.108 806.485,469.541 806.566,463.906L806.567,463.907Z" style="fill:rgb(69,28,21);fill-rule:nonzero;"/>
    </g>
    <g transform="matrix(0.058594,0,0,0.058594,0.000132,0.000059)">
        <path d="M514.157,533.179C511.919,538.598 512.351,541.645 515.829,544.692C520.601,548.871 525.67,549.68 530.308,546.849C532.923,545.258 535.889,543.883 537.911,541.726C541.389,538.032 544.409,533.88 547.267,529.728C548.723,527.652 548.238,525.495 545.461,524.443C542.172,523.176 538.882,521.828 535.593,520.48C523.298,520.399 518.283,523.23 514.158,533.179L514.157,533.179Z" style="fill:rgb(69,28,21);fill-rule:nonzero;"/>
    </g>
    <g transform="matrix(0.058594,0,0,0.058594,0.000132,0.000059)">
        <path d="M371.302,510.884C365.91,512.852 361.703,516.762 359.412,521.965C355.556,530.782 354.208,540.218 354.424,549.844C354.505,552.999 355.529,555.587 358.738,557.366C363.645,560.089 368.66,559.523 373.486,558.148C376.371,557.366 379.687,555.667 381.332,553.376C385.188,548.037 388.585,542.187 386.994,535.392C388.099,525.443 384.783,517.732 376.829,512.231C375.346,511.206 372.812,510.344 371.302,510.883L371.302,510.884Z" style="fill:rgb(69,28,21);fill-rule:nonzero;"/>
    </g>
    <g transform="matrix(0.058594,0,0,0.058594,0.000132,0.000059)">
        <path d="M321.975,484.485C315.234,482.058 307.847,480.495 300.837,484.916C295.525,488.232 289.243,490.443 284.848,494.676C277.649,501.578 274.252,511.177 275.034,520.964C275.654,528.783 278.674,536.521 281.154,544.098C283.176,550.326 287.922,553.643 294.473,554.532C300.836,555.395 307.145,556.473 313.427,557.633C325.29,559.817 333.406,553.4 340.902,545.716C346.133,540.324 345.351,533.259 345.593,525.279C347.399,515.519 341.657,506.783 336.857,497.724C333.514,491.415 328.31,486.777 321.974,484.486L321.975,484.485Z" style="fill:rgb(69,28,21);fill-rule:nonzero;"/>
    </g>
    <g transform="matrix(0.058594,0,0,0.058594,0.000132,0.000059)">
        <path d="M281.386,615.341C279.175,614.209 277.045,612.86 274.699,611.998C268.012,609.517 261.973,606.228 256.985,600.97C255.125,599.056 252.536,597.815 250.325,596.252C249.84,596.441 249.327,596.683 248.842,596.899C249.085,598.652 249.031,600.458 249.597,602.076C252.752,610.569 259.87,614.991 267.581,618.496C270.52,619.844 271.841,621.597 272.138,624.616C272.974,633.217 273.675,641.845 274.861,650.419C275.131,652.333 277.099,654.032 278.258,655.811C280.011,654.463 282.68,653.411 283.273,651.686C284.513,647.884 284.999,643.732 285.241,639.661C285.592,634.511 284.001,628.822 285.78,624.346C288.072,618.549 285.079,617.228 281.385,615.341L281.386,615.341Z" style="fill:rgb(69,28,21);fill-rule:nonzero;"/>
    </g>
    <g transform="matrix(0.058594,0,0,0.058594,0.000132,0.000059)">
        <path d="M358.032,463.004C350.213,461.063 348.568,461.791 346.007,469.286C345.171,471.74 344.254,474.193 343.85,476.728C342.097,487.917 352.64,505.982 366.337,503.636C379.602,503.933 385.966,494.658 381.058,482.12C376.906,471.524 368.251,465.538 358.032,463.004Z" style="fill:rgb(69,28,21);fill-rule:nonzero;"/>
    </g>
    <g transform="matrix(0.058594,0,0,0.058594,0.000132,0.000059)">
        <path d="M274.087,396.585C274.06,396.45 273.602,396.342 273.197,396.181C273.197,399.605 273.251,403.002 273.17,406.346C272.846,417.32 272.739,428.347 271.93,439.294C271.714,442.233 269.396,444.956 268.182,447.491C273.655,447.14 279.965,447.356 285.681,451.347C287.056,452.291 289.968,451.859 291.855,451.131C297.247,449.082 302.209,445.631 308.464,446.52C309.138,446.601 309.947,445.603 310.702,445.091C310.621,444.552 310.567,444.039 310.54,443.5C307.197,443.123 303.503,441.667 300.591,442.61C294.983,444.443 289.914,443.527 284.683,441.747C287.325,440.291 289.968,438.808 292.637,437.325L292.421,435.869C287.73,434.413 283.065,432.93 278.347,431.501C279.479,430.503 280.612,429.56 282.257,428.131C277.862,427.78 277.673,425.003 277.889,422.334C278.644,413.463 275.112,405.213 274.087,396.585Z" style="fill:rgb(69,28,21);fill-rule:nonzero;"/>
    </g>
    <g transform="matrix(0.058594,0,0,0.058594,0.000132,0.000059)">
        <path d="M238.535,511.312C236.863,517.136 234.922,523.283 235.246,529.161C235.57,534.904 238.374,540.593 240.396,546.147C243.173,553.723 247.244,556.339 255.333,556.339C258.73,556.204 262.559,557.391 264.635,553.211C267.493,547.549 269.273,541.698 268.733,535.146C268.059,527.03 263.448,520.694 260.132,513.738C258.11,509.559 254.847,507.159 250.857,505.622C245.465,503.573 240.099,505.838 238.535,511.311L238.535,511.312Z" style="fill:rgb(69,28,21);fill-rule:nonzero;"/>
    </g>
    <g transform="matrix(0.058594,0,0,0.058594,0.000132,0.000059)">
        <path d="M187.185,703.33C187.023,698.477 185.513,693.651 184.381,688.851C184.084,687.638 183.195,686.613 181.981,684.402L181.981,709.477C182.358,709.639 182.736,709.854 183.113,710.043C184.569,707.805 187.265,705.513 187.184,703.329L187.185,703.33Z" style="fill:rgb(69,28,21);fill-rule:nonzero;"/>
    </g>
    <g transform="matrix(0.058594,0,0,0.058594,0.000132,0.000059)">
        <path d="M252.431,474.725C250.328,478.85 251.487,481.924 255.343,484.431C268.662,492.978 287.374,485.725 292.281,469.197C293.171,466.285 292.524,463.265 289.288,462.322C284.489,460.92 279.474,460.084 274.594,459.006C274.513,459.33 274.432,459.599 274.378,459.923C273.488,459.923 272.625,459.896 271.736,459.923C267.692,460.004 263.135,458.979 260.223,462.646C257.257,466.394 254.588,470.492 252.431,474.725Z" style="fill:rgb(69,28,21);fill-rule:nonzero;"/>
    </g>
    <g transform="matrix(0.058594,0,0,0.058594,0.000132,0.000059)">
        <path d="M317.413,453.513C310.349,456.722 306.79,460.955 308.596,469.07C313.638,471.038 318.788,473.788 324.18,470.095C328.818,466.967 334.129,464.595 337.014,459.283C331.163,454.214 325.986,449.631 317.412,453.513L317.413,453.513Z" style="fill:rgb(69,28,21);fill-rule:nonzero;"/>
    </g>
    <g transform="matrix(0.058594,0,0,0.058594,0.000132,0.000059)">
        <path d="M328.667,605.885C313.406,606.559 298.685,609.255 284.638,602.65C286.229,613.03 318.826,615.565 328.667,605.885Z" style="fill:rgb(69,28,21);fill-rule:nonzero;"/>
    </g>
    <g transform="matrix(0.058594,0,0,0.058594,0.000132,0.000059)">
        <path d="M795.966,325.799C790.439,323.804 784.804,322.024 779.195,320.137C773.83,321 773.533,321.377 774.827,326.177C775.204,327.579 775.393,329.035 775.69,330.464C777.523,339.362 784.075,344.296 792.029,341.977C796.1,340.764 799.848,338.175 803.488,335.83C806.67,333.781 806.157,330.599 802.652,328.955C800.414,327.903 798.284,326.636 795.965,325.8L795.966,325.799Z" style="fill:rgb(69,28,21);fill-rule:nonzero;"/>
    </g>
    <g transform="matrix(0.058594,0,0,0.058594,0.000132,0.000059)">
        <path d="M826.326,323.162C823.899,325.939 824.627,330.037 826.218,332.087C829.723,336.563 834.145,340.634 840.778,341.281L840.778,313.645C834.118,314.346 830.182,318.822 826.326,323.163L826.326,323.162Z" style="fill:rgb(69,28,21);fill-rule:nonzero;"/>
    </g>
    <g transform="matrix(0.058594,0,0,0.058594,0.000132,0.000059)">
        <path d="M981.447,579.931L871.252,690.099L871.252,794.82C871.252,836.989 836.956,871.312 794.787,871.312L690.066,871.312L579.871,981.48C561.159,1000.192 536.543,1009.575 511.926,1009.575C487.336,1009.575 462.72,1000.219 444.008,981.48L333.84,871.312L229.119,871.312C186.95,871.312 152.654,836.989 152.654,794.82L152.654,690.099L42.459,579.931C4.981,542.453 4.981,481.546 42.459,444.068L152.654,333.873L152.654,229.152C152.654,187.01 186.95,152.687 229.119,152.687L333.84,152.687L444.008,42.519C480.326,6.201 543.58,6.201 579.871,42.519L690.066,152.687L794.787,152.687C836.956,152.687 871.252,187.01 871.252,229.152L871.252,333.873L981.447,444.068C1018.898,481.546 1018.898,542.453 981.447,579.931ZM991.612,433.931L885.623,327.942L885.623,229.179C885.623,179.083 844.856,138.316 794.787,138.316L695.997,138.316L590.035,32.354C569.166,11.485 541.449,-0.001 511.925,-0.001C482.455,-0.001 454.711,11.485 433.842,32.354L327.88,138.316L229.117,138.316C179.021,138.316 138.281,179.083 138.281,229.152L138.281,327.942L32.292,433.931C-10.767,476.963 -10.767,547.011 32.292,590.096L138.281,696.058L138.281,794.821C138.281,844.917 179.021,885.684 229.117,885.684L327.88,885.684L433.842,991.646C454.711,1012.488 482.455,1024.001 511.925,1024.001C541.449,1024.001 569.166,1012.488 590.035,991.646L695.997,885.684L794.787,885.684C844.856,885.684 885.623,844.917 885.623,794.821L885.623,696.058L991.612,590.096C1034.644,547.01 1034.644,476.962 991.612,433.931Z" style="fill:rgb(69,28,21);fill-rule:nonzero;"/>
    </g>
    <g transform="matrix(0.058594,0,0,0.058594,0.000132,0.000059)">
        <path d="M528.355,317.532C527.411,301.651 523.987,285.878 522.666,269.998C520.994,250.396 515.44,231.631 508.646,213.566C500.261,191.106 492.388,168.485 485.431,145.594C479.742,126.882 475.509,107.766 472.678,88.326C471.411,79.617 467.609,71.286 464.778,62.469C464.859,62.361 464.886,62.334 464.994,62.253L464.617,62.307C464.482,62.388 464.428,62.469 464.32,62.577L425.494,101.672C424.577,103.721 424.442,105.959 425.683,108.817C426.681,111.001 426.411,113.751 427.004,116.151C429.538,127.232 432.504,137.937 442.103,145.621C454.101,155.193 466.153,164.818 472.894,179.297C473.245,180.079 474.107,180.645 474.485,181.4C476.992,186.577 479.446,191.807 481.63,196.418C478.475,198.791 476.157,200.543 473.568,202.511C478.367,206.259 487.13,202.915 487.373,211.813C485.297,212.244 483.059,212.73 480.875,213.242C480.875,213.539 480.902,213.889 480.929,214.213C482.547,214.159 484.218,213.755 485.728,214.078C487.157,214.402 489.206,215.21 489.611,216.316C493.089,225.618 496.54,234.893 499.398,244.384C502.822,255.816 506.004,267.356 508.727,278.977C512.987,296.853 517.759,314.702 520.456,332.848C523.017,350.212 523.395,367.926 524.339,385.505C524.797,393.702 524.285,401.925 524.393,410.149C524.42,412.576 525.067,415.002 525.445,417.429C525.984,417.375 526.577,417.348 527.144,417.267C528.061,405.35 529.678,393.405 529.732,381.488C529.867,360.161 529.651,338.807 528.357,317.533L528.355,317.532Z" style="fill:rgb(69,28,21);fill-rule:nonzero;"/>
    </g>
    <g transform="matrix(0.058594,0,0,0.058594,0.000132,0.000059)">
        <path d="M504.057,44.544C504.057,44.517 504.057,44.49 504.03,44.463C503.113,44.571 503.194,44.571 504.057,44.544Z" style="fill:rgb(69,28,21);fill-rule:nonzero;"/>
    </g>
    <g transform="matrix(0.058594,0,0,0.058594,0.000132,0.000059)">
        <path d="M531.161,46.677C519.648,44.062 507.084,44.466 504.037,44.547C508.378,60.266 512.584,75.581 517.06,91.92C519.702,90.329 522.668,89.628 523.504,87.876C529.436,75.419 531.62,62.019 532.105,48.349C532.132,47.945 531.835,47.432 531.485,46.974L531.161,46.677Z" style="fill:rgb(69,28,21);fill-rule:nonzero;"/>
    </g>
    <g transform="matrix(0.058594,0,0,0.058594,0.000132,0.000059)">
        <path d="M575.088,78.369C574.926,78.207 574.737,77.992 574.549,77.83L578.971,82.225C577.677,80.931 576.356,79.664 575.088,78.369ZM598.411,101.718L597.386,100.37L559.558,62.569C558.048,61.059 556.403,59.765 554.759,58.471L554.031,58.471C553.95,58.498 553.869,58.525 553.734,58.552C551.901,62.947 549.474,67.207 548.288,71.79C545.861,81.227 544.001,90.825 542.06,100.37C540.119,109.969 540.685,119.621 541.197,129.247C541.386,132.833 541.79,137.066 543.785,139.762C548.396,145.99 554.273,151.545 561.958,153.594C570.775,155.913 578.459,152.731 584.256,145.802C593.315,135.017 598.411,122.453 600.379,108.54C600.783,105.736 600.163,103.606 598.276,101.53L598.411,101.718Z" style="fill:rgb(69,28,21);fill-rule:nonzero;"/>
    </g>
    <g transform="matrix(0.058594,0,0,0.058594,0.000132,0.000059)">
        <path d="M673.337,176.589L673.121,176.104L644.972,147.982L644.028,147.281L660.421,163.674C654.894,158.147 649.366,152.646 643.839,147.146L638.554,141.969C638.23,146.957 637.934,152.781 637.718,157.23C636.774,174.162 635.534,191.068 631.517,207.596C629.63,215.253 627.419,222.803 626.178,230.541C624.506,240.948 624.129,251.572 622.295,261.925C619.895,275.811 621.971,289.534 622.619,303.339C622.646,304.229 623.697,305.065 624.722,306.655C626.232,293.039 627.634,280.448 629.009,268.099C633.404,267.883 636.558,267.722 639.659,267.56C639.767,267.021 639.875,266.482 639.956,265.915C638.096,265.376 636.046,265.133 634.375,264.216C633.162,263.569 631.571,261.951 631.652,260.873C631.949,256.802 632.865,252.811 633.512,249.037C636.208,247.797 638.743,246.664 641.277,245.505C641.142,245.101 640.98,244.696 640.819,244.292C638.878,244.076 636.909,243.915 634.914,243.726C636.154,232.186 641.007,222.264 649.042,214.957C659.665,205.331 666.702,193.576 673.335,181.281C674.521,179.097 674.413,177.749 672.769,176.023L673.337,176.589Z" style="fill:rgb(69,28,21);fill-rule:nonzero;"/>
    </g>
    <g transform="matrix(0.058594,0,0,0.058594,0.000132,0.000059)">
        <path d="M736.113,656.666C727.162,661.384 718.48,665.644 708.207,666.588C698.42,667.505 688.713,669.797 678.98,671.468C677.524,671.684 676.122,671.98 674.666,672.196C669.058,672.924 663.423,673.868 657.761,674.326C653.905,674.596 649.969,673.975 646.113,674.191C623.653,675.539 601.221,678.154 578.653,677.561C566.196,677.21 553.686,677.588 541.229,677.615C534.65,677.615 528.071,677.723 521.52,677.561C518.905,677.48 516.343,676.59 513.755,676.375C502.889,675.431 492.05,674.73 481.212,673.787C470.562,672.897 459.885,672.007 449.262,670.848C443.169,670.201 436.913,669.716 431.143,667.828C424.456,665.698 418.066,662.328 411.811,659.011C410.598,658.364 409.627,654.94 410.247,653.699C411.622,651.003 413.725,648.226 416.287,646.824C417.959,645.907 421.706,646.5 423.162,647.876C429.983,654.239 438.611,655.237 446.997,656.396C458.941,658.068 471.074,658.176 482.965,660.09C495.637,662.166 508.04,661.249 520.604,660.063C527.749,659.416 535.029,660.494 542.255,660.845C551.206,661.276 560.185,661.977 569.19,662.112C574.259,662.193 579.382,661.195 584.478,660.98C603.406,660.333 622.36,660.063 641.261,659.093C657.277,658.257 673.292,655.669 689.281,655.723C699.446,655.75 707.993,650.816 717.591,649.818C721.339,649.441 725.356,649.252 727.459,644.965C733.687,646.691 733.957,652.083 736.114,656.667L736.113,656.666ZM397.493,329.91C392.235,327.349 386.951,329.667 381.72,331.096C378.592,331.932 375.303,332.255 372.041,332.633C368.913,332.957 365.705,333.469 362.631,333.172C360.663,332.956 357.724,331.878 357.158,330.395C354.758,324.382 349.932,321.902 344.351,320.122C342.706,319.61 341.035,319.044 339.336,318.801C337.961,318.612 336.532,318.801 335.13,319.044C324.75,320.554 316.499,327.834 306.388,329.991C302.586,330.8 298.569,330.8 294.066,331.204C294.47,322.306 294.74,313.652 295.414,305.024C295.495,303.784 297.733,301.815 299.081,301.708C308.572,300.926 318.143,299.578 327.526,300.36C335.237,300.98 342.598,304.566 350.255,306.346C364.626,309.716 377.352,307.128 387.733,295.75C392.047,291.032 397.035,286.879 401.969,282.781C406.795,278.764 412.646,278.656 418.551,279.384C423.215,279.95 427.88,280.382 432.49,281.137C441.981,282.701 447.993,277.281 453.521,270.864C454.006,270.325 454.519,269.812 455.058,269.273C455.139,269.165 455.301,269.165 456.568,268.626C457.673,275.69 458.752,282.458 459.723,289.279C459.858,290.25 459.966,291.706 459.399,292.245C455.193,296.316 451.095,300.63 446.349,303.947C444.3,305.403 440.714,305.133 437.883,304.837C431.089,304.19 424.348,302.572 417.553,302.249C409.087,301.845 400.27,301.548 394.824,310.526C396.9,310.391 399.165,310.742 401.052,310.041C409.599,306.859 417.634,309.798 425.83,311.443C432.651,312.818 439.581,314.436 446.483,314.463C450.096,314.463 453.979,311.686 457.187,309.34C459.721,307.534 461.366,304.514 463.2,302.222C471.882,307.83 472.367,312.764 466.489,319.316C464.521,321.554 463.361,324.547 461.959,327.27C458.103,334.819 456.162,335.52 448.478,331.908C445.809,330.641 437.397,334.281 435.051,337.732C430.683,344.176 423.619,345.066 416.878,340.752C410.677,336.789 404.152,333.149 397.492,329.913L397.493,329.91ZM335.642,344.281C326.987,354.338 322.727,365.959 321.622,379.008C321.46,380.734 320.651,382.486 320.84,384.158C321.325,388.364 318.198,389.065 315.636,388.957C310.702,388.714 306.064,387.609 303.045,382.621C295.388,369.949 293.716,356.36 296.089,342.097C296.79,337.891 300.16,336.462 306.308,337.352C306.146,341.073 305.31,345.468 309.759,347.22C311.862,348.029 315.691,348.164 316.877,346.869C322.485,340.776 327.932,334.359 329.199,325.326C333.917,327.052 338.663,328.777 344.217,330.826C341.44,335.302 339.067,340.236 335.643,344.28L335.642,344.281ZM235.315,790.021C236.528,789.697 237.715,789.158 238.928,789.131C250.225,788.942 261.495,788.807 272.766,788.754C273.764,788.727 274.842,788.943 275.732,789.401C283.416,793.472 291.1,797.598 298.785,801.723C277.08,801.211 256.346,795.468 235.316,790.021L235.315,790.021ZM220.109,783.524C217.79,783.767 215.067,784.414 213.153,783.524C206.898,780.585 200.966,777.026 194.873,773.71C195.035,773.144 195.25,772.605 195.412,772.011C198.567,771.553 201.694,770.852 204.849,770.636C210.862,770.178 216.82,769.908 222.833,769.611C229.87,769.314 236.907,769.072 243.917,768.721C251.116,768.37 254.594,773.79 258.638,778.212C259.069,778.697 258.692,779.884 258.692,781.259C252.652,781.259 246.694,780.962 240.762,781.34C233.86,781.771 227.011,782.85 220.109,783.524ZM104.737,556.178C96.298,561.597 84.812,557.068 83.275,547.523C82.871,545.069 83.679,544.126 85.944,543.721C95.516,541.968 105.114,540.135 114.686,538.356C119,537.574 123.341,536.738 127.682,536.172C128.868,536.037 130.216,536.657 131.349,537.224C133.776,538.437 136.094,539.812 138.845,541.376C132.644,543.452 126.335,545.124 120.403,547.658C114.957,550.004 109.726,552.97 104.738,556.178L104.737,556.178ZM708.072,258.325C715.972,262.235 723.306,266.279 730.99,269.595C739.564,273.289 748.542,271.86 757.278,269.865C767.119,267.6 775.612,268.517 782.245,273.397C769.896,280.407 755.93,283.508 742.341,285.018C728.779,286.582 715.217,282.484 706.077,270.404C705.457,269.595 704.891,268.22 705.133,267.33C705.915,264.256 707.074,261.29 708.072,258.325ZM855.502,434.173C852.995,432.879 850.298,430.803 847.764,430.911C836.656,431.288 825.574,432.61 814.466,433.149C803.438,433.688 792.357,434.174 781.329,433.931C770.086,433.661 758.869,432.313 747.626,431.639C739.969,431.181 732.824,427.945 724.951,428.404C721.149,428.62 717.159,426.328 713.357,424.899C710.58,423.847 707.749,422.715 705.403,420.989C702.006,418.508 702.707,414.869 706.859,414.114C710.769,413.386 714.84,413.737 718.857,413.871C734.441,414.437 750.025,414.976 765.556,415.677C774.966,416.108 784.349,416.944 793.705,417.457C800.419,417.834 807.078,418.131 813.765,418.239C820.02,418.347 826.275,418.023 832.504,418.266C836.009,418.401 840.215,416.756 840.134,414.383C839.622,398.34 839.514,382.298 838.193,366.336C837.33,355.982 831.884,347.597 822.366,342.582C817.89,340.209 813.226,340.695 808.966,343.364C800.419,348.756 794.892,356.468 793.409,366.471C791.791,377.31 790.955,388.283 789.742,399.203C789.445,401.926 788.825,404.811 785.482,404.811C782.112,404.811 780.871,402.546 780.844,399.203C780.736,392.435 780.709,385.641 779.9,378.981C778.309,365.5 775.937,352.315 765.017,342.42C759.085,337.055 748.57,334.331 742.611,342.177C739.915,345.682 738,349.861 736.221,353.986C732.419,362.776 729.642,371.808 729.561,381.514C729.534,387.257 729.75,393.027 729.48,398.77C729.426,400.226 728.267,402.329 727.053,402.922C725.84,403.461 723.467,402.949 722.415,402.032C721.121,400.846 719.961,398.77 719.908,397.044C719.692,387.392 719.881,377.739 719.827,368.113C719.692,348.323 727.188,331.768 740.992,317.855C745.468,313.379 746.816,306.369 743.958,300.572C742.367,297.39 743.311,295.341 746.519,294.586C754.284,292.645 762.076,290.811 769.922,289.247C770.947,289.004 772.322,290.191 773.427,290.865C775.908,292.294 778.307,293.831 780.761,295.287C782.271,296.177 783.781,297.013 785.291,297.821C787.044,298.792 788.688,300.14 790.549,300.49C793.838,301.164 797.209,301.353 800.552,301.407C806.511,301.542 808.587,299.574 809.207,293.75C809.369,291.944 809.584,290.137 809.773,288.196C820.153,292.375 830.076,294.829 841.022,293.211C841.022,290.515 841.561,287.846 840.86,285.608C840.213,283.586 838.46,281.24 836.6,280.485C834.012,279.433 830.776,280 827.972,279.353C822.202,277.924 816.297,276.765 810.932,274.419C800.309,269.728 791.357,261.639 779.494,259.617C772.511,258.431 765.878,256.732 758.41,258.512C742.044,262.448 725.651,262.637 709.851,253.497C711.469,248.401 713.221,243.009 715.028,237.32C725.786,247.458 751.157,244.034 755.822,236.026C753.989,235.702 752.371,235.271 750.726,235.19C744.875,234.813 738.97,234.866 733.147,234.165C727.728,233.545 722.254,232.52 717.913,228.638C720.933,221.331 723.764,214.51 726.541,207.796C735.358,205.909 742.961,209.576 750.699,212.245C751.481,212.542 752.074,213.566 752.64,214.321C753.907,215.966 754.959,217.799 756.361,219.255C761.106,224.189 766.04,228.988 770.867,233.869C772.916,235.972 774.669,238.399 776.934,240.259C788.555,250.046 803.33,252.635 817.189,257.11C824.792,259.537 832.935,260.319 841.024,261.882C841.024,258.161 841.159,254.791 840.943,251.421C840.862,250.423 839.891,248.914 839.002,248.59C836.414,247.673 833.69,246.891 830.994,246.703C821.395,245.975 811.878,244.897 802.657,242.2C792.438,239.18 783.514,234.408 777.69,224.944C784.215,225.51 790.551,226.535 796.86,226.535C803.196,226.535 809.613,225.807 815.922,224.863C817.998,224.566 819.858,222.598 821.8,221.412C821.638,220.981 821.476,220.549 821.288,220.145C818.996,220.145 816.677,220.253 814.359,220.118C805.839,219.741 797.184,219.983 788.772,218.689C778.284,217.098 768.335,213.35 758.574,209.01C748.706,204.615 738.622,200.436 726.947,205.262C731.072,197.497 735.197,189.705 739.511,181.508C739.484,181.4 739.457,181.265 739.43,181.157L729.05,181.157L727.594,181.508C726.219,182.533 725.194,184.096 724.305,186.146C719.425,197.982 713.844,209.576 709.341,221.601C702.735,239.288 696.831,257.245 690.683,275.094C688.499,281.457 686.045,287.739 684.536,294.237C680.761,310.657 677.094,327.131 674.048,343.713C672.161,354.067 671.406,364.609 670.354,375.07C669.518,383.078 668.628,391.113 668.44,399.147C668.116,413.06 668.359,426.999 668.386,440.939C668.386,443.5 669.195,446.358 665.609,447.464C659.165,442.395 658.518,434.954 656.927,427.809C655.633,421.823 653.745,415.973 651.939,410.122C651.696,409.205 650.672,408.504 649.62,407.237C649.269,408.585 649.027,409.124 649.027,409.664C648.596,427.378 648.623,445.038 657.439,461.243C662.589,470.734 669.195,478.984 678.577,484.646C682.001,486.695 681.947,487.855 678.954,490.497C675.719,493.328 672.834,496.644 670.353,500.149C668.331,502.98 668.6,506.323 672.106,507.968C677.094,510.314 682.325,512.12 687.448,514.169C690.576,515.409 694.512,515.787 696.642,517.971C708.964,530.67 716.432,546.443 721.582,562.971C725.923,576.937 728.457,591.47 727.055,606.434C726.165,616.06 726.624,616.086 717.483,618.163C717.24,618.217 716.944,617.974 716.62,617.866C716.485,617.489 716.243,617.084 716.216,616.653C715.434,600.233 712.495,584.325 705.593,569.334C704.11,566.018 702.492,562.486 700.012,559.978C694.97,554.909 689.47,550.218 683.808,545.823C679.467,542.372 672.214,542.641 668.386,546.632C662.778,552.456 657.925,559.169 657.871,567.555C657.79,584.137 658.599,600.773 658.68,617.354C658.707,620.67 657.224,624.095 655.849,627.222C655.337,628.3 653.045,629.217 651.562,629.217C646.358,629.19 640.831,623.42 640.346,617.623C639.915,612.177 639.915,606.703 639.294,601.311C637.892,589.421 635.735,577.746 627.808,568.093C614.165,551.457 597.395,541.185 575.043,542.668C567.332,543.18 560.295,545.041 553.77,549.813C548.108,553.938 544.819,559.6 541.475,565.101C538.293,570.359 536.406,576.533 534.842,582.546C532.793,590.446 531.687,598.562 530.043,606.596C529.126,611.153 527.32,615.655 527.05,620.239C526.753,625.955 523.033,628.678 518.934,630.646C514.647,632.695 510.279,630.916 506.774,627.815C505.992,627.114 505.318,625.82 505.318,624.795C505.453,614.388 505.48,603.926 505.992,593.519C506.369,585.889 506.774,578.474 504.024,570.925C500.411,560.922 495.315,552.24 486.094,546.821C483.29,545.203 479.057,544.233 476.118,545.068C467.355,547.575 460.264,552.752 454.198,559.843C446.406,568.794 444.141,580.146 439.584,590.445C436.349,597.698 434.219,605.463 431.549,613.201C428.637,613.039 425.779,612.931 422.436,612.797C423.056,608.294 423.865,604.412 424.162,600.448C425.564,580.631 432.359,562.216 439.153,543.827C439.477,542.937 440.501,541.913 441.418,541.643C446.918,539.89 452.473,538.327 458.054,536.763C465.118,534.768 468.785,527.003 465.145,520.747C462.988,516.972 460.022,513.683 457.272,510.043C458.431,508.587 459.564,507.104 460.75,505.702C468.084,497.128 474.582,488.015 479.273,477.715C480.918,474.102 483.048,470.759 484.935,467.281C485.393,466.364 486.013,465.475 486.148,464.531C487.119,458.788 488.089,453.018 488.817,447.248C490.138,437.542 491.244,427.808 492.403,418.048C493.023,412.817 494.156,407.533 493.859,402.329C493.185,391.059 491.972,379.816 490.57,368.626C488.979,355.711 487.308,342.742 484.989,329.962C482.508,316.184 479.408,302.541 476.307,288.898C474.662,281.51 473.206,273.988 470.483,266.978C465.819,254.845 460.669,242.874 454.899,231.253C450.747,222.922 445.705,214.941 440.232,207.364C435.271,200.489 429.204,194.395 423.542,188.005C420.414,184.446 417.206,180.914 413.89,177.517C409.468,173.014 404.48,169.024 400.544,164.171C394.801,157.215 389.786,149.665 384.663,142.655C383.045,144.165 381.589,145.621 380.079,147.05L372.152,155.004C393.263,170.75 412.541,188.302 426.724,210.681C415.885,223.812 405.262,226.831 393.237,229.77C379.999,232.979 366.625,235.567 353.387,238.748C347.752,240.123 344.355,244.383 341.2,249.91C342.872,249.91 343.654,250.126 344.22,249.883C348.399,248.292 352.417,246.027 356.704,244.949C368.918,241.929 381.806,244.598 393.966,240.5C401.381,238.019 409.254,236.779 416.399,233.732C422.466,231.171 427.804,226.857 433.412,223.298C439.667,234.622 446.192,246.432 452.609,258.025C448.457,262.42 444.952,266.626 440.853,270.104C438.858,271.803 435.757,272.827 433.115,272.962C429.826,273.178 426.455,272.099 423.139,271.695C412.812,270.455 402.863,272.046 394.101,277.465C388.816,280.727 384.071,285.203 380.027,289.895C374.796,295.988 368.083,297.687 360.911,297.876C350.072,298.146 340.42,291.54 329.257,292.052C321.357,292.403 313.403,290.246 305.422,290.219C300.784,290.192 295.689,291.271 291.59,293.374C285.847,296.313 279.969,297.203 273.822,297.418C268.376,297.661 263.468,296.582 259.99,291.513C256.916,286.983 253.303,282.777 249.61,277.978C254.436,274.904 259.074,271.911 263.738,268.946C256.35,269.189 249.017,270.429 241.656,270.995C235.643,271.453 229.55,271.319 223.51,270.968C219.978,270.752 216.527,269.081 213.022,268.892C208.951,268.676 204.825,269.269 200.754,269.674C195.928,270.159 191.155,270.779 186.383,271.507C183.336,271.965 181.26,273.34 181.799,277.061C182.123,279.191 181.853,281.402 181.853,283.963C185.493,282.777 188.621,281.779 192.53,280.458C193.555,287.9 193.662,294.937 195.631,301.408C198.678,311.546 196.844,312.409 189.16,317.154C188.028,317.855 186.949,318.718 185.736,319.095C182.447,320.039 181.692,322.115 181.8,325.35C181.989,331.417 183.229,338.076 181.369,343.388L181.369,345.518L157.804,369.353C165.192,376.309 172.202,382.753 178.969,389.44C181.746,392.19 183.607,395.911 186.545,398.391C191.452,402.516 196.629,406.399 202.129,409.661C207.225,412.654 212.671,415.566 219.061,413.058C222.971,411.548 225.181,408.42 224.292,404.781C221.164,406.399 218.172,409.149 215.152,409.176C211.997,409.23 208.87,406.642 205.338,405.051C210.164,402.517 215.368,401.276 215.287,395.749C215.071,383.993 214.667,372.184 213.4,360.509C211.162,340.26 208.25,320.093 205.662,299.871C204.934,294.236 204.53,288.52 203.586,282.885C203.209,280.755 202.481,278.706 205.312,278.706C207.604,278.706 210.866,276.495 211.999,281.106C213.994,289.033 215.909,297.068 218.82,304.644C223.323,316.346 224.266,328.586 225.749,340.8C226.18,344.467 227.555,348.026 228.499,351.612C233.325,326.51 226.746,303.026 220.383,280.351C225.236,280.944 230.197,281.025 234.862,282.238C237.963,283.02 241.683,284.719 243.355,287.199C248.1,294.155 253.762,299.952 260.665,304.563C262.525,305.803 264.979,306.612 267.163,306.693C273.068,307.017 279.026,306.801 285.174,306.801C285.228,306.99 285.309,307.853 285.39,308.715C286.927,325.486 283.26,342.526 287.17,359.215C288.815,366.171 290.19,373.235 292.589,379.922C295.42,387.741 300.192,394.212 309.44,395.398C310.141,395.479 310.923,395.829 311.408,396.315C314.643,399.604 318.472,398.984 322.058,397.501C325.617,395.991 329.284,394.185 332.25,391.731C336.726,388.064 340.635,383.696 344.814,379.679C349.991,374.637 352.04,368.085 353.415,361.345C354.898,353.823 355.68,346.165 356.731,338.912C359.778,339.505 362.717,340.098 366.357,340.799C366.546,343.064 366.761,346.111 367.112,349.157C367.489,352.77 369.323,353.956 371.857,351.53C374.796,348.726 376.737,344.762 379.218,341.392C379.973,340.34 380.971,338.938 382.022,338.75C391.081,337.375 399.062,339.721 405.857,346.515C404.913,348.16 403.943,349.939 402.945,351.665C396.717,362.261 390.354,372.776 384.287,383.454C375.416,399.2 369.62,416.186 364.955,433.577C364.119,436.624 362.906,439.67 361.369,442.448C359.616,445.657 356.947,442.367 354.736,442.852C354.547,441.45 353.927,439.886 354.305,438.646C355.41,435.033 357.244,431.609 358.268,427.969C359.32,424.383 359.751,420.608 360.452,416.914C359.724,416.671 359.023,416.456 358.349,416.213C354.062,424.598 349.748,432.984 345.677,441.45C345.3,442.205 346.243,444.416 347.052,444.739C352.795,447.058 358.646,448.999 364.47,451.048C366.142,451.641 368.406,451.56 369.539,452.666C374.958,457.978 380.243,463.505 385.366,469.14C392.16,476.555 396.151,485.129 389.464,497.423C385.851,503.975 385.042,511.282 391.297,517.968C394.128,521.015 395.827,525.679 396.636,529.858C397.391,533.741 396.717,538.108 395.881,542.072C392.807,557.009 384.773,568.091 369.889,573.025C365.198,574.562 360.129,574.805 354.763,575.721C364.901,582.866 374.122,577.366 383.343,574.427C378.625,590.604 365.952,600.338 354.628,611.096C354.224,611.473 353.576,611.608 353.064,611.851C343.843,615.761 338.585,623.499 334.11,631.803C329.014,641.24 326.399,651.539 325.185,662.136C324.754,665.911 324.376,669.766 324.457,673.568C324.565,682.25 324.942,690.905 325.347,699.587C325.482,702.526 325.94,705.465 326.264,708.377C326.668,708.404 327.046,708.458 327.45,708.485C330.497,703.227 332.114,697.457 332.141,691.337C332.168,684.866 331.44,678.422 331.386,671.924C331.251,658.362 334.406,645.555 341.766,634.096C344.813,629.405 348.857,625.306 352.416,620.965C352.982,621.127 353.521,621.289 354.061,621.477C354.573,681.711 358.078,741.89 354.816,801.828C328.204,798.026 302.105,792.122 279.106,777.238C255.784,762.139 239.876,740.461 226.233,716.627C225.235,717.328 224.507,717.84 223.159,718.784C221.379,712.367 218.791,706.408 218.279,700.315C216.877,684.731 218.845,668.904 214.531,653.482C213.911,651.271 214.747,648.656 214.369,646.283C212.347,633.422 209.219,620.992 203.989,608.859C194.498,586.831 177.269,574.32 155.754,566.501C145.805,562.861 135.505,560.084 125.421,556.929C123.992,556.444 122.671,555.77 121.134,555.123C126.742,553.586 132.242,552.912 137.015,550.593C142.677,547.843 147.611,548.598 152.95,550.809C159.124,553.343 165.353,555.797 171.689,557.927C173.307,558.466 175.329,557.792 177.135,557.657C177.27,557.118 177.459,556.552 177.593,555.958C173.009,550.539 168.399,545.119 164.004,539.969C165.703,539.834 167.86,539.888 169.963,539.484C177.324,538.082 184.9,537.084 190.346,530.802C191.101,529.966 193.986,530.101 195.307,530.802C197.033,531.746 198.327,533.579 199.513,535.224C205.714,543.987 208.869,553.963 211.053,564.343C211.7,567.336 212.752,570.221 213.641,573.16C214.827,576.935 216.688,580.629 217.065,584.484C217.685,590.928 216.957,597.48 217.55,603.897C218.655,616.327 220.246,628.675 221.702,641.078C221.972,643.532 222.457,645.958 222.834,648.412C223.508,648.439 224.209,648.466 224.937,648.493C225.557,645.204 226.878,641.914 226.743,638.679C226.096,622.394 225.179,606.136 224.155,589.85C223.616,581.977 223.184,573.996 221.648,566.285C219.033,553.424 215.635,540.725 212.454,527.999C210.324,519.533 208.248,511.04 205.633,502.681C204.689,499.742 201.589,497.504 200.483,494.565C196.708,484.292 193.338,474.047 185.573,465.634C178.698,458.112 173.359,449.241 166.996,441.233C159.743,432.012 152.113,423.06 144.644,414.001C139.845,408.123 135.018,402.299 130.462,396.772C112.128,415.079 94.548,432.686 76.78,450.427C77.05,450.67 77.508,451.344 78.101,451.559C78.856,451.829 79.719,451.721 80.474,451.775C82.227,446.679 86.001,444.414 88.778,447.272C92.903,451.559 97.703,451.235 102.637,450.966C109.755,450.615 114.258,454.714 118.653,459.243C115.66,463.206 111.697,461.535 108.219,461.589C104.525,461.643 100.831,460.942 96.356,460.484C97.084,462.21 97.246,463.153 97.785,463.666C102.072,467.764 118.061,469.679 123.049,466.686C128.388,463.424 134.077,462.992 140.143,463.936C142.084,464.206 144.619,463.316 146.263,462.103C148.797,460.162 150.766,457.465 153.138,455.228C156.535,452.046 159.825,451.912 162.925,455.147C167.32,459.785 171.337,464.88 175.84,469.437C185.385,479.063 188.27,492.004 193.123,503.949C194.768,507.939 192.584,511.04 188.081,511.202C181.475,511.418 174.654,511.606 168.237,510.231C160.768,508.613 153.758,505.054 146.451,502.816C138.308,500.309 130.462,500.174 122.535,504.757C114.662,509.314 106.034,512.414 97.029,506.213C98.566,513.358 105.118,517.321 112.371,515.38C115.553,514.544 118.734,513.223 121.538,511.551C130.84,505.943 139.225,506.536 148.338,512.818C157.586,519.208 168.991,519.99 179.83,521.877C181.663,522.201 183.362,523.09 185.115,523.683C183.794,525.004 182.715,526.676 181.179,527.539C167.617,535.008 153.03,534.63 138.336,532.878C133.537,532.339 128.818,530.91 124.046,530.883C119.786,530.829 115.526,532.42 111.212,532.797C108.111,533.067 104.903,532.608 101.748,532.339C100.481,532.258 99.106,531.422 98,531.746C91.179,533.633 84.357,535.736 77.59,537.92C72.656,539.484 67.83,541.371 62.949,542.989C61.978,543.313 60.576,543.474 59.902,543.016C57.017,540.967 55.534,542.719 54.051,544.796C58.284,552.372 158.476,654.586 175.408,668.607C183.2,659.521 192.34,652.484 204.527,650.003C204.851,653.481 204.743,656.501 205.444,659.278C206.415,663.026 205.417,665.237 201.696,666.18C197.382,667.285 196.331,670.521 195.98,674.457C195.468,679.121 194.794,683.786 193.715,688.343C193.068,691.012 193.661,692.468 195.495,693.169C200.052,689.529 204.258,686.132 209.354,682.034C209.354,689.422 209.246,695.192 209.408,700.935C209.516,704.224 209.031,706.381 204.932,706.085C203.557,705.977 202.074,707.029 200.645,707.541C200.672,707.945 200.699,708.35 200.726,708.727C203.476,709.131 206.226,709.509 208.707,709.859C209.705,713.769 210.621,717.597 211.538,721.264C202.182,722.019 192.179,722.801 182.203,723.583L182.203,729.892L216.418,729.892C218.521,734.422 220.435,738.52 222.565,743.077L182.364,743.077C181.205,750.977 181.205,751.004 188.431,751.004C199.486,751.004 210.648,751.867 221.595,750.734C228.632,749.979 232.002,753.511 235.831,757.636C237.125,759.065 238.204,760.71 239.309,762.22C235.265,762.651 231.328,763.218 227.419,763.406C215.205,764.053 203.045,764.646 190.831,764.943C188.836,764.997 186.733,763.514 184.872,762.409C183.901,761.843 183.362,760.522 182.607,759.551C182.203,759.659 181.771,759.821 181.367,759.928L181.367,761.303C181.798,765.536 181.394,770.443 183.659,773.086C193.743,784.734 205.984,793.874 221.244,797.864C238.85,802.421 256.43,807.274 274.225,810.779C286.358,813.179 298.895,813.826 311.271,814.608C319.629,815.174 328.095,814.069 336.481,814.716C344.947,815.336 352.901,812.182 361.448,812.748C374.606,813.611 387.871,812.856 401.083,812.991C409.765,813.126 418.42,813.8 427.102,813.8C439.451,813.746 451.826,813.18 464.175,813.126C467.087,813.126 470.349,813.665 472.803,815.067C477.306,817.736 475.391,822.077 474.69,826.283C465.927,826.283 457.326,826.175 448.725,826.31C432.305,826.526 415.858,826.903 399.411,827.146C390.109,827.281 380.834,827.038 371.559,827.335C363.497,827.605 355.489,828.548 347.428,828.818C344.921,828.899 342.386,827.766 339.879,827.2C337.614,826.688 335.349,825.69 333.085,825.717C324.053,825.852 314.993,826.445 305.934,826.526C298.573,826.607 291.132,826.903 283.879,825.933C273.714,824.531 263.657,821.916 253.519,820.109C242.815,818.222 231.976,817.602 221.407,814.123C207.36,809.566 194.957,803.392 186.68,790.612C185.871,789.372 183.903,788.886 182.474,788.051C182.123,788.24 181.773,788.482 181.422,788.698C182.015,792.095 181.395,796.652 183.39,798.647C189.214,804.579 195.469,810.591 202.695,814.501C210.865,819.004 220.032,822.455 229.172,824.261C246.455,827.604 263.144,833.401 280.778,835.558C295.661,837.364 310.436,837.445 325.077,835.558C334.676,834.318 344.139,834.21 353.738,834.318C352.147,840.897 353.576,843.108 361.314,845.912C362.743,846.424 364.657,846.829 365.978,846.316C371.397,844.24 373.959,839.602 375.037,834.641C379.594,834.884 383.557,835.126 387.925,835.396C379,843.08 377.005,852.032 381.211,862.682C389.758,861.657 398.952,862.952 407.149,857.478C413.027,853.488 414.348,849.47 409.36,843.107C407.661,840.896 405.558,839.009 403.617,836.96C403.725,836.609 403.86,836.232 403.968,835.882L428.504,835.882C424.244,841.679 427.264,847.395 429.34,853.192C431.227,858.531 434.679,859.69 438.992,856.077C440.691,854.648 442.281,852.464 442.74,850.361C443.792,845.589 444.169,840.682 444.897,835.181C451.638,833.186 459.241,834.318 468.165,836.61C461.371,840.87 463.905,847.098 462.692,852.302C462.099,854.89 470.538,861.28 474.475,861.658L474.475,872.389C443.468,873.036 412.704,873.629 381.509,874.276C389.625,882.392 397.12,889.887 404.67,897.41C418.394,887.137 418.906,886.517 420.524,878.644L431.929,878.644C432.603,881.826 433.196,884.63 433.789,887.38C436.296,886.814 438.993,886.625 441.258,885.547C445.464,883.525 449.32,880.694 453.58,878.779C455.71,877.781 458.433,877.593 460.833,877.727C463.961,877.916 467.061,878.805 470.189,879.291C471.699,879.507 473.236,879.48 474.719,879.588C474.8,880.046 474.935,880.478 475.016,880.936C465.229,884.684 454.848,887.299 445.87,892.449C436.352,897.895 426.538,903.773 421.334,912.94C437.404,929.549 452.988,946.023 469.111,962.011C475.097,967.97 482.862,971.69 491.22,973.901C491.22,960.959 491.517,948.422 491.139,935.911C490.815,926.259 489.117,916.606 488.982,906.927C488.631,885.411 488.847,863.895 488.847,842.325C488.847,837.337 489.224,832.349 485.908,827.981C485.126,826.983 485.45,825.177 485.342,823.721C484.506,812.586 483.94,801.423 482.781,790.369C481.541,778.236 480.031,766.157 478.09,754.159C477.173,748.416 477.847,742.026 472.886,737.469C469.704,734.503 466.065,731.888 463.503,728.491C456.412,719.108 449.644,709.537 442.958,699.857C439.075,694.168 435.597,688.182 432.065,682.251C431.499,681.307 431.526,679.744 431.876,678.638C432.011,678.234 433.844,678.018 434.788,678.234C437.754,679.016 440.639,680.067 443.551,681.038C444.171,681.281 444.953,681.55 445.304,682.09C447.623,685.676 450.076,689.262 452.045,693.037C457.168,702.77 466.578,707.435 475.394,712.477C480.274,715.281 486.907,715.308 491.059,711.479C496.236,706.68 499.66,700.101 498.555,692.471C498.016,688.696 499.66,687.51 502.977,687.941C507.183,688.507 511.335,689.532 515.541,689.828C522.956,690.367 530.478,691.311 537.812,690.583C544.768,689.936 546.979,694.142 548.947,698.86C553.153,709.052 560.541,715.388 571.029,718.219C574.13,719.028 577.338,719.324 580.466,719.972C591.521,722.264 602.521,723.288 613.441,719.298C619.427,717.087 620.802,711.91 616.434,707.489C614.924,705.925 613.145,704.577 611.608,703.04C608.75,700.209 606.054,697.297 607.105,692.983C614.169,689.936 619.292,692.363 623.471,697.89C626.356,701.692 630.077,703.498 634.606,701.368C637.275,700.128 639.971,698.321 641.859,696.083C646.362,690.691 652.617,688.291 658.791,686.7C667.068,684.57 675.831,684.3 684.324,682.817C691.9,681.496 699.369,679.501 706.918,677.991C710.531,677.236 714.225,676.886 717.865,676.373C718.216,676.804 718.593,677.236 718.917,677.667C717.003,683.976 714.846,690.204 713.174,696.595C709.184,711.91 700.421,724.851 692.764,738.36C690.769,741.838 688.935,745.802 683.597,745.208C682.599,745.1 681.467,746.071 680.469,746.745C676.613,749.414 672.596,751.922 668.956,754.888C666.395,757.018 663.698,759.283 665.073,763.624C665.612,765.404 664.642,767.668 664.615,769.717C664.507,774.004 664.588,778.345 664.588,782.659C666.448,780.933 667.608,778.965 668.417,776.889C670.358,772.009 671.841,766.94 674.052,762.222C674.996,760.092 677.18,758.582 678.797,756.803C679.228,757.073 679.633,757.342 680.064,757.585C677.583,784.709 676.721,811.86 678.473,839.146L771.897,839.146C771.951,837.852 772.032,836.827 772.059,835.83C772.383,821.243 772.598,806.684 773.03,792.124C773.246,785.356 773.893,778.589 774.243,771.821C774.998,758.313 775.807,744.805 776.292,731.324C776.481,725.743 775.699,720.135 775.699,714.527C775.672,653.188 775.699,591.822 775.645,530.483C775.645,522.826 775.079,515.195 774.944,507.511C774.809,500.69 774.917,493.895 774.917,486.642C785.648,494.731 790.312,503.359 790.636,515.923C790.879,524.146 790.528,532.397 790.609,540.62C790.663,547.172 788.236,553.697 790.798,559.494C788.317,561.166 786.403,562.46 783.572,564.374C787.023,565.938 789.099,566.908 792.389,568.418C792.389,581.333 792.173,594.841 792.47,608.349C792.605,614.577 793.602,620.806 794.465,627.007C794.627,628.005 796.002,628.813 796.811,629.676C797.431,628.813 798.429,628.004 798.644,627.007C801.933,613.445 800.828,599.586 800.882,585.809C800.963,572.193 799.75,558.469 799.156,544.799C798.913,539.811 799.048,534.796 798.536,529.835C797.565,520.236 796.055,510.665 795.139,501.039C794.735,496.86 793.198,493.786 789.666,491.683C781.901,486.992 774.109,482.462 766.398,477.717C759.253,473.295 751.973,469.035 745.26,464.047C740.569,460.542 736.443,456.174 732.615,451.725C729.056,447.627 726.225,442.962 723.07,438.54C726.629,438.27 729.379,438.675 731.941,439.538C733.478,440.077 734.961,441.129 736.12,442.315C740.461,446.737 744.236,451.833 749.035,455.688C756.531,461.647 768.232,458.061 770.713,449.568C771.198,447.95 771.279,446.171 771.468,445.038L808.595,445.038C811.399,448.139 814.338,450.754 816.387,453.909C820.647,460.515 827.415,461.755 834.155,462.321C837.283,462.564 842.028,461.35 843.538,459.139C848.256,452.048 851.842,444.175 855.779,436.545C856.076,435.952 855.914,434.415 855.509,434.172L855.502,434.173Z" style="fill:rgb(69,28,21);fill-rule:nonzero;"/>
    </g>
</svg>
