<?xml version="1.0" encoding="UTF-8" standalone="no"?>
<!DOCTYPE svg PUBLIC "-//W3C//DTD SVG 1.1//EN" "http://www.w3.org/Graphics/SVG/1.1/DTD/svg11.dtd">
<svg width="100%" height="100%" viewBox="0 0 60 60" version="1.1" xmlns="http://www.w3.org/2000/svg" xmlns:xlink="http://www.w3.org/1999/xlink" xml:space="preserve" xmlns:serif="http://www.serif.com/" style="fill-rule:evenodd;clip-rule:evenodd;stroke-linejoin:round;stroke-miterlimit:2;">
    <g transform="matrix(0.058594,0,0,0.058594,-0,0)">
        <path d="M447.368,594.229C444.105,593.798 442.002,595.415 441.14,598.516C440.709,600.053 440.385,601.671 440.385,603.262C440.304,611.728 440.331,620.195 440.331,628.796C445.427,628.445 449.606,628.122 453.597,627.852C453.597,617.983 453.759,608.735 453.516,599.514C453.408,596.063 450.496,594.661 447.368,594.229Z" style="fill:rgb(69,28,21);fill-rule:nonzero;"/>
    </g>
    <g transform="matrix(0.058594,0,0,0.058594,-0,0)">
        <path d="M381.691,524.039C381.233,520.642 379.103,519.617 376.029,520.318C357.991,524.416 339.818,528.083 321.941,532.856C311.075,535.795 300.667,540.46 289.747,544.423C289.612,543.264 289.396,542.401 289.45,541.592C290.016,533.099 293.926,525.926 299.157,519.698C304.172,513.685 304.927,508.131 301.125,501.228C296.568,492.923 294.87,483.621 295.732,474.319C296.46,466.5 297.35,458.195 305.951,453.935C306.976,453.45 307.623,451.454 307.784,450.079C308.458,444.713 308.997,439.159 313.5,435.627C317.302,432.661 318.515,429.264 319,424.599C320.213,413.328 325.876,404.511 335.259,397.906C330.972,400.414 327.143,403.406 323.53,406.642C317.382,412.116 312.96,418.533 313.122,427.296C313.122,428.267 312.286,429.345 311.639,430.262C307.864,435.52 303.658,440.481 303.253,447.464C303.172,448.785 301.5,450.403 300.152,451.239C295.811,453.989 293.303,457.791 291.578,462.59C287.048,475.047 290.122,487.073 293.331,499.017C295.434,506.782 295.569,514.386 290.716,520.938C283.598,530.51 284.784,541.349 284.137,552.458C285.323,552.107 285.863,551.973 286.375,551.784C303.173,546.203 319.998,540.702 336.715,534.986C343.105,532.775 348.983,532.425 354.295,537.386C354.646,537.71 355.185,537.844 355.967,538.195C355.59,535.849 355.293,533.881 354.969,531.616C360.308,530.268 365.35,529.001 370.608,527.679C372.226,539.866 374.949,550.813 383.604,559.145C383.604,551.865 383.793,544.693 383.496,537.548C383.307,533.018 382.283,528.542 381.689,524.039L381.691,524.039Z" style="fill:rgb(69,28,21);fill-rule:nonzero;"/>
    </g>
    <g transform="matrix(0.058594,0,0,0.058594,-0,0)">
        <path d="M294.533,321.646C289.814,322.401 285.554,323.075 280.216,323.938C284.368,327.875 287.739,331.056 291.46,334.615C292.539,330.004 293.455,326.122 294.534,321.646L294.533,321.646Z" style="fill:rgb(69,28,21);fill-rule:nonzero;"/>
    </g>
    <g transform="matrix(0.058594,0,0,0.058594,-0,0)">
        <path d="M516.409,538.591C514.98,538.483 512.661,540.263 511.933,541.8C509.425,547.193 509.452,552.99 509.749,558.814L522.853,558.814C522.125,552.882 521.774,547.489 520.669,542.259C520.318,540.695 517.973,538.7 516.409,538.592L516.409,538.591Z" style="fill:rgb(69,28,21);fill-rule:nonzero;"/>
    </g>
    <g transform="matrix(0.058594,0,0,0.058594,-0,0)">
        <path d="M461.51,534.911C462.103,534.83 462.75,534.749 463.343,534.614C468.79,527.28 472.726,519.245 474.236,509.188C465.824,509.835 458.382,510.428 449.565,511.102C453.744,519.488 457.654,527.172 461.51,534.91L461.51,534.911Z" style="fill:rgb(69,28,21);fill-rule:nonzero;"/>
    </g>
    <g transform="matrix(0.058594,0,0,0.058594,-0,0)">
        <path d="M243.726,333.995C249.55,336.476 254.916,338.794 260.281,341.059C255.32,334.103 247.824,331.002 243.726,333.995Z" style="fill:rgb(69,28,21);fill-rule:nonzero;"/>
    </g>
    <g transform="matrix(0.058594,0,0,0.058594,-0,0)">
        <path d="M608.793,262.543C598.25,261.68 587.6,261.653 577.03,262.192C571.934,262.462 566.892,265.104 564.411,270.119C561.283,276.321 559.342,282.953 559.8,289.991L624.215,289.991C623.73,285.192 623.568,280.958 622.894,276.779C621.573,268.798 616.881,263.217 608.792,262.542L608.793,262.543Z" style="fill:rgb(69,28,21);fill-rule:nonzero;"/>
    </g>
    <g transform="matrix(0.058594,0,0,0.058594,-0,0)">
        <path d="M447.874,231.859C447.631,229.756 447.523,228.003 447.308,226.278C445.34,212.149 436.738,204.977 424.794,204.654C417.622,204.492 410.396,204.924 403.224,205.409C389.662,206.299 382.193,218.028 383.73,231.86L447.874,231.859Z" style="fill:rgb(69,28,21);fill-rule:nonzero;"/>
    </g>
    <g transform="matrix(0.058594,0,0,0.058594,-0,0)">
        <path d="M522.614,481.987C524.852,486.894 526.793,491.074 529.328,496.601C534.694,491.397 538.9,487.272 543.16,483.146C542.863,482.769 542.567,482.364 542.297,481.987L522.614,481.987Z" style="fill:rgb(69,28,21);fill-rule:nonzero;"/>
    </g>
    <g transform="matrix(0.058594,0,0,0.058594,-0,0)">
        <path d="M387.046,259.272C387.181,252.1 392.142,247.597 400.096,247.408C405.65,247.273 410.45,252.207 410.827,258.679C410.989,261.564 410.854,264.476 410.854,267.361L420.749,267.361C420.749,264.53 420.695,262.049 420.776,259.569C420.857,252.505 425.198,246.977 430.968,246.6C437.898,246.169 441.618,249.296 443.128,257.197C443.721,260.487 443.748,263.857 444.072,267.686C448.116,267.47 451.999,267.228 456.017,267.012L456.017,235.654L376.961,235.654L376.961,268.225C380.385,267.955 383.567,267.74 387.045,267.47C387.045,264.558 386.991,261.889 387.045,259.273L387.046,259.272Z" style="fill:rgb(69,28,21);fill-rule:nonzero;"/>
    </g>
    <g transform="matrix(0.058594,0,0,0.058594,-0,0)">
        <path d="M330.089,320.316C323.51,319.157 322.755,319.291 320.167,324.657C318.037,329.079 316.473,333.797 314.559,338.516C325.937,336.979 326.261,327.353 330.09,320.316L330.089,320.316Z" style="fill:rgb(69,28,21);fill-rule:nonzero;"/>
    </g>
    <g transform="matrix(0.058594,0,0,0.058594,-0,0)">
        <path d="M607.389,307.301L595.229,307.301L595.229,294.359L585.441,294.359L585.441,307.22L573.011,307.22L573.011,294.386C568.212,294.035 563.79,293.712 559.233,293.388L559.233,315.066C568.616,316.522 620.439,315.767 623.567,314.176L623.567,294.115L607.389,294.115L607.389,307.301Z" style="fill:rgb(69,28,21);fill-rule:nonzero;"/>
    </g>
    <g transform="matrix(0.058594,0,0,0.058594,-0,0)">
        <path d="M710.231,549.64C706.995,553.819 704.003,557.675 701.037,561.585C701.253,562.097 701.495,562.664 701.711,563.176C708.479,561.936 715.22,560.668 721.96,559.428C721.933,558.781 721.906,558.161 721.879,557.514C718.05,554.926 714.221,552.31 710.231,549.641L710.231,549.64Z" style="fill:rgb(69,28,21);fill-rule:nonzero;"/>
    </g>
    <g transform="matrix(0.058594,0,0,0.058594,-0,0)">
        <path d="M772.982,400.251L772.982,415.35C773.359,415.62 773.764,415.889 774.141,416.186C779.237,412.654 784.36,409.095 789.456,405.589C789.267,405.185 789.105,404.807 788.944,404.403C783.794,403.082 778.698,401.761 772.982,400.251Z" style="fill:rgb(69,28,21);fill-rule:nonzero;"/>
    </g>
    <g transform="matrix(0.058594,0,0,0.058594,-0,0)">
        <path d="M743.277,400.065C746.459,401.952 748.589,403.22 751.77,405.08C751.285,401.952 750.961,399.687 750.53,396.641C747.942,397.854 745.946,398.798 743.277,400.065Z" style="fill:rgb(69,28,21);fill-rule:nonzero;"/>
    </g>
    <g transform="matrix(0.058594,0,0,0.058594,-0,0)">
        <path d="M580.539,494.42C580.027,494.447 579.487,494.474 578.975,494.501C559.912,529.391 544.624,565.144 552.74,606.479L553.845,606.479C553.98,603.998 554.357,601.491 554.196,599.01C553.091,581.781 556.488,565.063 560.263,548.427C560.587,547.133 561.422,545.488 562.501,544.895C566.006,543.062 569.889,541.956 573.259,539.934C578.786,536.671 585.042,533.598 586.228,526.506C587.738,517.339 586.686,508.225 583.532,499.462C582.912,497.655 581.537,496.092 580.539,494.42Z" style="fill:rgb(69,28,21);fill-rule:nonzero;"/>
    </g>
    <g transform="matrix(0.058594,0,0,0.058594,-0,0)">
        <path d="M597.768,501.031C598.253,505.237 598.631,508.608 599.089,512.868C601.111,510.037 602.675,507.853 604.293,505.534C602.136,504.024 600.249,502.73 597.768,501.031Z" style="fill:rgb(69,28,21);fill-rule:nonzero;"/>
    </g>
    <g transform="matrix(0.058594,0,0,0.058594,-0,0)">
        <path d="M640.057,562.213C652.514,557.198 664.62,553.585 675.406,545.981C668.018,541.667 661.143,537.676 653.997,533.47C647.93,542.017 642.349,550.699 640.057,562.213Z" style="fill:rgb(69,28,21);fill-rule:nonzero;"/>
    </g>
    <g transform="matrix(0.058594,0,0,0.058594,-0,0)">
        <path d="M640.712,609.76C639.445,608.87 638.393,606.902 638.258,605.338C637.907,601.32 638.15,597.222 638.15,592.881C635.589,592.881 633.62,593.124 631.76,592.827C627.5,592.153 626.233,594.202 626.367,598.058C626.502,601.725 626.394,605.365 626.394,609.275L620.112,609.275C620.112,606.471 620.031,603.963 620.139,601.483C620.328,598.086 619.114,596.818 615.825,598.14C615.582,600.081 615.367,601.834 615.178,603.587C614.989,605.474 614.774,607.335 614.612,609.195C614.315,608.925 614.019,608.629 613.749,608.386C611.565,609.707 609.057,610.678 607.359,612.484C605.418,614.56 603.288,617.149 602.775,619.818C601.804,624.806 601.912,630.037 601.535,635.484L614.019,635.484C614.019,633.462 614.019,631.736 614.046,630.01C614.154,623.97 614.316,623.835 620.787,624.806C621.111,628.365 621.38,632.005 621.704,635.888L629.604,635.888L629.604,624.914C631.869,625.049 635.212,624.59 635.617,625.453C637.019,628.581 637.424,632.113 638.232,635.618L648.855,635.618C648.855,632.868 648.99,630.387 648.828,627.934C648.37,620.897 647.021,614.291 640.712,609.761L640.712,609.76Z" style="fill:rgb(69,28,21);fill-rule:nonzero;"/>
    </g>
    <g transform="matrix(0.058594,0,0,0.058594,-0,0)">
        <path d="M348.345,130.313C349.424,132.039 350.259,133.791 350.987,135.544L444.037,42.521C480.329,6.202 543.612,6.202 579.877,42.521L633.776,96.393C637.82,93.508 642.431,91.297 647.635,89.922L590.042,32.356C569.2,11.46 541.454,-0 511.957,-0C482.46,-0 454.714,11.459 433.872,32.356L348.318,117.883C348.318,122.035 348.318,126.188 348.345,130.313Z" style="fill:rgb(69,28,21);fill-rule:nonzero;"/>
    </g>
    <g transform="matrix(0.058594,0,0,0.058594,-0,0)">
        <path d="M991.616,433.912L885.624,327.92L885.624,229.154C885.624,179.057 844.883,138.288 794.812,138.288L728.213,138.288L728.213,147.509C729.561,149.208 730.613,150.933 731.583,152.659L794.812,152.659C836.982,152.659 871.279,186.983 871.279,229.153L871.279,333.878L981.45,444.076C1018.929,481.528 1018.929,542.464 981.45,579.916L871.279,690.114L871.279,794.839C871.279,837.009 836.982,871.333 794.812,871.333L690.06,871.333L579.862,981.504C561.15,1000.216 536.586,1009.573 511.969,1009.573C487.352,1009.573 462.761,1000.244 444.049,981.504L333.851,871.333L229.099,871.333C186.956,871.333 152.632,837.009 152.632,794.839L152.632,690.114L42.461,579.916C5.009,542.464 5.009,481.528 42.461,444.076L152.632,333.878L152.632,229.153C152.632,186.983 186.956,152.659 229.099,152.659L267.656,152.659C268.438,147.644 269.759,142.898 271.512,138.288L229.099,138.288C179.028,138.288 138.26,179.056 138.26,229.154L138.26,327.92L32.295,433.912C-10.765,476.972 -10.765,547.049 32.295,590.082L138.26,696.074L138.26,794.84C138.26,844.937 179.028,885.706 229.099,885.706L327.892,885.706L433.857,991.671C454.726,1012.54 482.472,1024 511.969,1024C541.44,1024 569.212,1012.541 590.054,991.671L695.992,885.706L794.812,885.706C844.883,885.706 885.624,844.938 885.624,794.84L885.624,696.074L991.616,590.082C1034.676,547.049 1034.676,476.972 991.616,433.912Z" style="fill:rgb(69,28,21);fill-rule:nonzero;"/>
    </g>
    <g transform="matrix(0.058594,0,0,0.058594,-0,0)">
        <path d="M561.37,861.434C557.514,861.164 553.632,860.598 549.749,860.571C535.863,860.49 522.004,860.463 508.118,860.598C503.426,860.652 498.708,861.056 494.07,861.811C490.807,862.323 489.729,861.46 489.999,858.252C490.215,856.068 490.053,853.83 490.053,850.783C497.737,850.783 504.937,850.702 512.136,850.783C526.831,851.026 541.58,851.187 556.302,851.754C562.234,851.97 562.207,852.428 561.371,861.434L561.37,861.434ZM477.542,830.4C480.885,830.4 484.229,830.481 487.572,830.373C505.26,829.861 522.948,829.429 540.608,828.62C545.084,828.404 547.133,829.833 547.511,834.147C547.7,836.061 548.185,837.895 548.643,840.268L477.541,840.268L477.542,830.4ZM459.639,819.614C448.935,819.398 448.773,819.317 450.283,806.699C475.035,807.292 499.518,807.912 524.162,808.506L524.162,820.801C517.125,820.801 510.222,820.909 503.346,820.774C488.759,820.45 474.199,819.911 459.639,819.615L459.639,819.614ZM454.408,789.011C480.508,788.418 506.285,787.879 532.304,787.312L532.304,799.445C506.554,801.305 480.858,799.094 454.65,799.337C454.542,797.746 454.461,796.182 454.407,794.618C454.38,793.189 454.407,791.733 454.407,789.01L454.408,789.011ZM470.235,773.022C494.016,769.894 517.474,773.696 540.959,772.941L540.959,783.187L470.235,783.187L470.235,773.022ZM490.781,758.786C499.355,758.759 507.957,758.759 516.504,758.759C525.402,758.759 534.246,758.975 543.144,758.651C547.782,758.516 547.863,761.024 548.132,764.448C548.456,768.519 545.786,768.331 543.333,768.331C525.888,768.385 508.443,768.304 490.998,768.412C486.495,768.439 486.091,766.093 485.659,761.887C485.308,758.49 488.409,758.786 490.782,758.786L490.781,758.786ZM489.163,721.711C490.242,711.061 502.752,705.506 512.486,709.605C522.004,713.623 523.999,721.226 524.565,730.097C524.916,735.678 525.536,741.233 526.075,746.814C526.264,749.268 525.482,750.724 522.678,750.697C511.92,750.481 501.161,750.4 490.403,750.266C489.999,750.266 489.594,749.996 488.974,749.835C488.974,740.452 488.246,730.988 489.163,721.712L489.163,721.711ZM638.916,686.255L630.126,686.255C630.126,680.62 629.829,675.092 630.342,669.619C630.477,668.055 633.011,666.761 634.494,665.332C635.977,666.896 638.538,668.379 638.7,670.078C639.293,675.309 638.916,680.594 638.916,686.256L638.916,686.255ZM832.97,722.979C828.683,720.795 824.827,717.074 820.136,714.917C815.525,712.814 810.16,712.436 805.603,710.684C800.615,708.77 796.328,705.48 791.879,704.348C788.347,703.431 783.17,703.836 777.4,702.676C773.086,701.813 768.34,700.654 763.163,699.71C758.633,698.874 754.076,696.663 749.115,695.8C744.45,694.964 739.516,694.937 734.663,694.101C729.891,693.292 725.037,692.537 720.319,691.728C715.412,690.919 710.504,690.649 705.867,689.895C700.825,689.059 696.214,686.821 691.738,686.12C686.399,685.257 681.33,685.5 677.205,684.853C675.345,684.529 673.996,684.422 672.837,684.314C674.185,686.606 675.668,688.817 677.421,691.028C686.265,701.921 697.131,710.549 707.512,719.663C712.258,723.842 718.621,726.215 724.283,729.316C729.082,731.931 733.963,734.385 738.762,736.947C740.272,737.756 741.647,738.727 743.076,739.616C742.645,740.398 742.186,741.18 741.728,741.935C736.308,741.126 730.862,740.641 725.523,739.454C716.949,737.54 708.455,735.032 699.827,733.118C697.481,732.606 694.839,733.442 691.253,733.765C697.185,742.582 707.674,743.418 713.767,751.695C710.963,751.695 708.779,752.261 707.026,751.614C693.841,746.895 681.034,740.856 667.552,737.324C653.504,733.603 654.718,722.98 653.801,712.922C652.291,696.474 651.024,680.027 649.703,663.579C649.218,657.377 648.732,651.203 648.436,645.001C648.247,642.197 647.384,640.687 644.23,640.714C631.099,640.822 617.941,640.768 604.109,640.768C603.408,653.899 602.707,666.437 602.006,679.002C601.548,679.164 601.089,679.326 600.604,679.514C595.616,670.32 590.628,661.152 585.613,652.012C585.451,651.985 585.289,651.958 585.101,651.931C585.425,653.953 585.667,656.002 586.099,657.998C592.274,685.177 605.674,707.853 626.732,726.35C644.609,742.016 663.752,755.686 684.514,767.145C685.862,767.927 687.156,768.844 688.505,769.68C688.397,770.111 688.316,770.516 688.235,770.947C684.865,770.677 681.494,770.408 678.07,770.138C672.408,769.734 666.665,768.574 661.056,769.14C654.908,769.76 653.992,772.268 656.418,777.957C660.301,787.151 665.316,795.618 672.785,802.466C675.67,805.135 678.205,808.209 680.901,811.094C680.793,811.606 680.685,812.119 680.55,812.631C678.824,812.631 676.775,813.224 675.427,812.523C666.988,808.074 658.575,803.436 650.297,798.61C640.24,792.705 629.589,787.987 617.833,788.795C602.707,789.82 588.227,793.783 575.258,802.169C571.294,804.704 567.061,806.861 562.747,808.802C561.399,809.395 559.053,809.179 557.84,808.317C557.139,807.778 557.22,805.081 557.84,803.868C560.86,798.287 564.85,793.191 567.277,787.42C574.988,768.896 568.571,753.608 548.106,749.591C545.221,749.052 542.309,748.863 538.966,748.405C537.941,719.393 529.448,694.02 502.62,677.6C480.402,698.739 472.206,724.705 476.601,754.391C468.836,756.224 460.666,757.734 452.766,760.134C436.642,765.014 426.342,776.204 420.653,791.708C418.469,797.802 417.148,804.219 415.395,810.447C414.856,812.28 414.586,814.33 413.562,815.867C412.564,817.35 410.731,818.348 409.302,819.561C408.331,818.078 406.848,816.757 406.444,815.139C402.858,800.714 394.958,790.414 379.993,786.585C373.225,784.859 366.835,786.315 360.714,789.2C351.223,793.676 342.002,798.664 332.403,802.816C323.047,806.834 313.394,810.042 303.849,813.547C303.04,813.871 302.096,814.275 301.288,814.194C300.102,814.032 298.942,813.493 297.756,813.115C298.16,811.956 298.214,810.5 298.996,809.745C307.84,800.82 316.36,791.491 325.851,783.321C345.723,766.145 363.923,747.406 380.478,727.157C387.542,718.502 390.023,707.582 392.8,695.88C387.704,703.699 383.686,710.952 378.698,717.397C366.376,733.359 352.005,747.353 333.373,755.523C316.845,762.749 299.561,768.277 281.577,771C280.283,771.216 278.908,771.162 277.586,771.108C276.777,771.081 275.941,770.838 274.027,770.488C288.425,760.323 305.385,756.117 318.166,743.471C302.878,747.327 288.48,750.32 273.461,749.16C279.689,745.736 285.972,742.419 292.119,738.806C296.46,736.298 300.531,733.279 304.873,730.798C307.273,729.45 307.947,727.805 307.893,725.136C307.866,715.807 307.893,706.451 307.866,697.121C307.65,697.148 307.408,697.256 307.192,697.31C303.013,697.984 298.375,698.335 293.576,699.17C289.289,699.925 284.84,701.03 280.175,701.866C275.807,702.675 271.358,703.78 266.774,704.67C262.325,705.506 257.849,706.423 253.319,707.312C248.87,708.202 244.071,707.716 239.595,708.633C235.065,709.577 230.886,712.03 226.464,713.028C221.907,714.026 217.35,714.754 213.009,715.805C208.371,716.884 203.734,717.396 199.474,718.528C194.809,719.768 190.657,722.06 186.559,723.3C184.726,723.839 183.054,724.379 181.355,724.945L181.355,794.833C181.355,821.23 202.764,842.612 229.134,842.612L345.75,842.612L464.334,961.169C490.65,987.485 533.279,987.485 559.595,961.169L678.179,842.612L794.795,842.612C821.192,842.612 842.574,821.23 842.574,794.833L842.574,726.994C839.5,725.808 836.265,724.648 832.975,722.976L832.97,722.979Z" style="fill:rgb(69,28,21);fill-rule:nonzero;"/>
    </g>
    <g transform="matrix(0.058594,0,0,0.058594,-0,0)">
        <path d="M662.555,180.99C660.56,170.501 661.423,160.579 670.078,153.245C679.272,145.48 689.734,144.536 701.274,150.171L701.274,136.689L708.257,136.689C708.257,142.216 708.176,147.636 708.311,153.056C708.311,154.296 708.473,156.049 709.255,156.669C717.209,162.897 716.939,171.66 717.128,180.99L662.555,180.99ZM658.268,156.211C651.365,156.346 644.436,156.265 636.401,156.265C636.94,145.695 636.698,134.937 638.261,124.422C639.771,114.527 647.267,109.538 656.893,108.541C661.692,108.029 666.681,108.325 671.399,109.188C678.895,110.509 686.013,119.218 686.876,126.957C687.388,131.622 688.008,136.232 688.656,141.517C680.594,140.169 674.015,142.784 668.326,147.611C665.845,149.687 663.985,152.545 661.693,154.837C660.857,155.646 659.428,156.185 658.269,156.212L658.268,156.211ZM335.411,160.983C335.33,163.167 335.411,165.351 335.411,167.886L286.581,167.886C286.096,157.559 287.821,147.906 293.187,139.197C297.771,131.809 309.823,128.331 319.287,131.297C319.799,131.459 320.339,131.674 321.687,132.187L321.687,104.442C324.302,104.712 326.109,104.927 328.347,105.143C328.347,114.58 328.293,123.855 328.374,133.104C328.401,134.803 328.509,136.879 329.479,138.092C334.845,144.914 335.842,152.733 335.411,160.984L335.411,160.983ZM311.279,641.79L356.415,641.79C362.374,641.79 363.506,643.057 363.183,649.528L303.055,649.528C304.349,641.79 304.349,641.844 311.279,641.79ZM310.632,633.566C313.571,633.512 316.51,633.566 319.907,633.566L319.907,613.047C322.468,612.67 324.679,612.373 327.43,611.968L327.43,633.296L331.798,633.296C334.359,629.818 330.045,624.425 336.058,621.297L336.058,633.161C341.208,633.161 346.034,633.188 350.807,633.107C354.636,633.053 358.303,633.107 359.085,638.338L306.399,638.338C306.264,633.7 306.318,633.619 310.632,633.566ZM961.172,464.399L861.84,365.094C859.494,358.245 855.773,351.774 850.542,345.815C850.946,337.996 849.544,330.23 846.282,322.33C845.177,319.634 843.909,317.072 842.561,314.646L842.561,229.173C842.561,202.776 821.179,181.394 794.809,181.394L737.89,181.394C737.863,173.683 736.057,166.025 736.057,166.025C735.032,159.985 732.902,153.46 728.211,147.501C728.211,146.126 728.211,133.184 728.238,124.528C728.238,120.214 724.706,116.709 720.365,116.709L704.807,116.709C700.169,103.2 688.279,91.93 674.959,89.53C670.51,88.721 666.034,88.317 661.693,88.317C659.401,88.317 657.109,88.425 654.844,88.668C635.188,90.663 621.248,103.255 618.498,121.455C618.471,121.536 618.471,121.617 618.471,121.725L559.584,62.811C533.376,36.63 490.531,36.63 464.323,62.811L355.419,171.769L355.419,161.712C355.5,159.959 355.608,157.182 355.365,153.731L355.365,152.976L355.338,152.976C355.068,149.066 354.313,144.348 352.615,139.414C351.429,131.918 349.514,119.947 348.301,112.424L348.301,96.947C348.301,87.321 340.05,81.686 324.924,81.686C302.814,81.686 301.709,92.067 301.709,92.067L301.709,111.4C290.87,113.8 281.568,120.028 276.202,128.683C271.699,135.99 268.949,144.16 267.574,152.95L266.657,152.95C266.657,152.95 266.684,158.963 266.684,166.836C266.684,167.51 266.603,168.184 266.657,168.885L266.684,169.559L266.684,181.396L229.124,181.396C202.754,181.396 181.372,202.778 181.372,229.175L181.372,318.153C180.32,320.067 178.056,324.031 178.056,324.031C174.793,329.801 171.585,335.571 168.484,341.395C165.788,346.41 165.653,351.075 165.545,354.391L164.709,362.426L62.761,464.401C36.526,490.609 36.526,533.373 62.761,559.635L181.372,678.219L181.372,709.712C181.669,709.658 181.938,709.631 182.262,709.577C186.064,708.795 190.567,707.986 195.609,706.935C199.68,706.126 204.318,706.045 209.037,705.128C213.297,704.238 217.557,702.432 222.168,701.515C226.482,700.679 231.255,701.488 235.838,700.598C240.233,699.789 244.412,697.47 248.942,696.607C253.364,695.798 258.082,696.445 262.612,695.636C267.061,694.854 271.483,693.937 275.959,693.155C280.462,692.373 284.965,691.672 289.441,690.917C293.971,690.216 298.204,688.005 302.653,687.358C304.379,687.061 306.131,687.088 307.857,687.142C307.857,678.055 307.83,668.969 307.83,659.909L307.83,654.84L319.37,654.84L319.37,668.996L328.16,668.996L328.16,654.948L337.732,654.948L337.732,669.023L345.336,669.023L345.336,654.975L357.092,654.975L357.092,677.759C357.362,677.975 357.631,678.163 357.928,678.379C360.436,673.58 363.725,669.05 365.289,663.981C369.064,651.955 369.711,639.633 365.99,627.365C362.916,617.119 359.896,606.819 356.823,596.546C353.965,587.109 348.33,578.885 341.238,572.711C335.684,567.912 328.431,563.274 319.425,566.456C314.949,568.047 309.826,567.75 305.135,568.856C276.042,575.624 247.596,583.713 221.927,600.025C212.706,605.93 203.808,611.889 195.665,619.843C194.128,612.59 197.121,606.334 198.469,599.863C199.116,596.573 200.599,593.446 201.516,590.21C204.967,577.726 203.215,565.997 196.366,555.05C191.432,547.231 188.574,538.737 189.221,529.516C189.814,521.292 192.834,513.716 197.067,506.732C198.523,504.359 198.981,502.741 196.797,500.234C190.191,492.711 189.867,477.181 196.15,468.633C201.758,461.029 203.565,452.239 203.942,443.288C204.427,432.745 207.42,422.985 212.786,414.437C218.125,405.971 227.211,401.845 237.808,399.877C237.808,406.51 237.269,412.819 237.943,419.021C238.779,426.409 237.431,432.88 233.305,439.028C231.66,441.482 230.824,444.528 230.258,447.548C234.087,442.829 237.969,438.057 241.798,433.285C245.546,428.593 246.517,423.147 245.735,417.404C242.715,395.052 248.998,376.07 266.065,360.458C258.111,350.077 247.514,344.577 234.869,342.501C232.146,342.043 229.53,340.587 226.888,340.668C222.709,340.83 218.476,341.504 214.431,342.582C204.967,345.143 196.393,349.673 188.196,354.985C187.63,355.362 187.01,355.632 185.419,356.468C185.689,354.014 185.392,352.127 186.093,350.833C190.245,343.041 194.613,335.41 198.927,327.726C199.763,326.189 201.138,324.76 201.273,323.169C202.298,313.193 206.612,304.969 213.406,297.689C215.186,295.802 216.48,293.078 217.208,290.517C220.956,277.035 235.786,267.787 249.564,270.861C254.256,271.886 258.812,273.611 264.529,275.364C263.882,273.8 263.693,272.021 262.696,271.158C257.411,266.547 250.724,265.927 244.145,265.172C241.961,264.929 239.75,265.145 236.892,265.145C238.375,256.274 240.505,248.239 246.14,241.471C247.812,239.476 249.268,237.238 251.128,235.458C254.013,232.735 256.79,229.634 260.242,227.854C268.061,223.863 276.312,220.709 284.239,216.907C285.452,216.341 286.531,214.103 286.558,212.647C286.72,200.945 286.639,189.27 286.639,177.595L286.639,172.957L296.211,172.957L296.211,186.681L305.19,186.681L305.19,172.957L315.76,172.957L315.76,186.627L324.199,186.627L324.199,172.984L335.416,172.984L335.416,177.783C335.416,200.863 335.524,223.944 335.335,247.024C335.308,250.907 336.521,253.037 340.62,254.115L340.62,227.044C343.478,227.988 345.959,228.77 348.709,229.659C350.057,226.289 351.378,223.188 352.484,220.033C354.479,214.479 358.524,210.812 363.404,207.738C365.157,206.606 366.882,204.583 367.529,202.615C373.11,185.413 384.893,175.005 401.826,169.1C408.809,166.646 415.469,163.222 422.992,164.139C429.49,164.921 435.853,166.754 442.352,168.103C445.965,164.84 450.063,161.254 453.973,157.48C454.782,156.698 455.24,155.215 455.24,154.029C455.348,146.506 455.294,138.957 455.294,131.353C450.953,129.439 451.115,128.387 454.863,124.639C456.157,123.291 455.78,120.325 456.292,117.602C452.409,117.278 449.066,117.009 445.722,116.766C445.506,116.173 445.237,115.607 444.994,115.013C449.012,111.75 452.975,108.488 457.073,105.333C457.477,105.009 458.826,105.36 459.365,105.845C463.113,109.108 466.753,112.478 471.364,116.684C467.454,116.981 464.65,117.223 461.442,117.439C462.494,120.297 460.31,123.937 464.624,125.663C465.082,125.825 464.732,128.818 464.3,130.328C463.869,131.892 462.278,133.294 462.224,134.777C461.954,140.817 462.116,146.83 462.116,152.923C469.261,152.222 469.153,152.195 469.639,145.481C469.855,143 468.507,139.118 472.74,139.01C473.576,138.983 474.627,143.135 475.355,145.427C475.732,146.667 475.571,148.042 475.732,150.146C478.347,149.094 480.747,148.474 482.796,147.234C493.258,140.871 504.151,141.572 515.152,145.293C521.758,147.504 528.31,148.529 535.428,148.232C547.804,147.639 558.778,151.575 567.622,161.093C570.264,163.924 574.875,165.596 578.839,166.324C585.391,167.483 592.401,172.445 594.774,178.727C595.286,180.021 596.904,181.504 598.225,181.774C607.392,183.581 615.077,187.868 620.982,195.121C622.815,197.359 624.218,199.92 625.808,202.32C619.876,205.043 614.457,207.632 608.956,210.004C608.147,210.381 606.934,210.408 606.125,210.058C598.656,206.742 591.241,207.47 583.773,210.112C582.587,210.57 580.888,210.84 579.89,210.301C572.772,206.634 565.438,207.874 557.888,208.225C544.568,208.791 536.479,218.013 527.474,225.374C521.623,230.146 518.765,237.561 517.201,245.354C516.446,249.075 513.723,252.472 511.593,255.843C510.757,257.137 509.193,258 507.818,258.944C498.866,264.984 496.493,273.747 497.707,283.912C498.031,286.77 497.41,288.738 493.824,288.873C489.591,289.062 485.304,289.52 481.151,290.356C471.121,292.405 464.191,298.715 458.367,308.448C457.477,306.399 456.372,304.997 456.345,303.595C456.183,293.295 456.264,282.995 456.264,272.21C454.107,272.129 452.57,271.967 451.006,271.94C441.245,271.913 431.485,272.021 421.724,271.886C407.245,271.724 392.766,271.482 378.313,271.077C375.293,270.996 373.891,272.021 374.484,274.798C375.616,280.406 372.785,283.291 368.282,285.799C364.534,287.875 360.921,290.491 360.84,295.964C362.08,295.182 363.509,294.562 364.561,293.564C375.4,282.779 387.803,277.17 403.361,281.538C404.251,281.808 405.302,281.457 406.327,281.403C416.519,280.783 425.66,282.94 432.454,291.298C433.452,292.538 434.422,294.021 435.744,294.749C449.468,302.326 456.452,315.106 461.521,328.992C464.19,336.245 468.666,341.287 475.515,344.01C484.197,347.407 492.367,351.533 499.054,358.247C499.378,357.95 499.701,357.654 500.025,357.33C497.356,354.175 495.064,350.535 491.909,348.028C487.352,344.415 482.364,341.125 477.16,338.51C469.233,334.6 462.088,321.739 464.487,313.326C466.563,305.965 472.603,301.975 479.02,298.658C491.369,292.241 502.559,295.018 513.101,303.161C520.812,309.066 526.663,316.211 529.602,325.594C529.926,326.646 530.95,327.859 531.948,328.155C541.601,331.364 548.288,337.295 550.553,348.189C555.218,344.118 559.747,344.414 564.574,346.706C565.437,347.137 567.135,346.787 567.998,346.194C577.435,339.615 587.142,341.017 596.417,345.924C602.619,349.214 608.496,353.528 609.979,361.401C610.168,362.345 611.597,363.423 612.648,363.747C617.717,365.473 621.815,368.304 624.377,373.049C635.108,371.97 648.132,379.601 651.933,390.386C654.737,398.313 659.24,404.892 663.743,411.849C667.356,417.403 671.994,420.127 677.386,422.85C683.911,426.22 690.409,429.726 696.368,433.932C702.785,438.489 705.535,445.688 707.531,453.103C708.124,455.341 708.69,457.606 710.227,459.817C710.227,457.822 710.389,455.799 710.2,453.804C708.717,436.844 698.768,426.356 683.614,420.558C675.741,417.538 670.645,412.793 666.169,405.513C662.232,399.069 659.213,392.436 656.22,385.641C652.122,376.474 644.006,371.512 635.62,366.983C634.191,366.228 632.735,365.608 631.737,365.15C631.144,352.828 630.658,340.91 629.93,328.992C629.553,322.575 625.4,319.043 618.902,319.043L607.901,319.043C607.901,322.98 607.928,326.485 607.901,330.017C607.901,330.26 607.658,330.529 607.443,331.042L595.283,331.042L595.283,319.313L585.253,319.313L585.253,331.015L574.576,331.015C574.279,327.132 574.01,323.223 573.632,318.127C567.916,319.098 562.55,319.125 557.939,321.039C551.711,323.574 554.245,330.179 553.22,336.057C549.957,329.074 544.16,326.323 538.39,323.492C537.527,323.061 536.637,322.306 536.206,321.47C530.328,309.903 520.972,301.733 510.079,295.127C508.812,294.372 507.491,293.347 506.115,293.24C500.776,292.701 499.86,288.953 499.806,284.801C499.698,274.124 502.098,264.767 513.449,260.453C519.731,258.107 521.268,252.903 521.861,246.864C522.751,238.155 526.687,231.198 534.372,226.561C535.127,226.103 535.99,225.671 536.475,225.024C546.451,211.219 560.553,209.655 575.491,212.81C581.045,213.996 586.222,214.131 591.75,213.942C596.603,213.753 601.565,214.994 606.499,215.344C608.063,215.452 610.004,215.155 611.245,214.292C618.175,209.466 625.859,206.769 634.11,205.61C636.833,205.206 636.914,203.696 636.914,201.592C636.86,189.486 636.887,177.325 636.887,165.219L636.887,160.231L644.976,160.231C646.135,166.217 643.223,172.715 647.564,179.267C651.932,172.715 648.885,166.54 649.91,160.501L658.889,160.501C654.575,177.191 656.004,205.826 657.029,223.972C660.211,224.296 662.071,223.595 662.017,219.685C661.828,208.603 661.963,197.521 661.963,186.089L676.658,186.089L676.658,198.977L685.502,198.977L685.502,186.304C685.691,186.196 685.933,185.927 686.149,185.927C698.363,185.657 696.179,184.12 696.341,195.957C696.368,196.982 696.179,197.979 696.098,199.381C697.338,199.489 698.471,199.678 699.603,199.705C705.427,199.813 705.589,199.489 704.969,193.719C704.699,191.265 704.888,188.758 704.888,186.008L717.911,186.008C717.911,192.398 717.992,198.546 717.857,204.747C717.803,207.228 718.369,208.576 720.958,209.627C726.324,211.838 728.993,216.718 731.42,221.76C732.229,223.405 733.712,225.023 735.303,225.966C747.382,233.192 755.256,242.872 755.04,257.729C755.013,258.969 755.795,260.56 756.712,261.423C763.102,267.49 763.588,276.037 758.977,284.989C742.287,273.233 724.383,269.863 704.619,277.736C693.214,266.816 685.017,263.931 679.22,269C691.219,271.804 699.712,279.138 705.536,289.195C710.47,287.281 715.162,284.746 720.15,283.641C731.636,281.133 740.777,286.041 748.839,293.833C750.322,295.289 752.344,296.179 754.178,297.23C754.663,297.527 755.283,297.581 755.85,297.823C772.001,304.806 773.619,301.301 788.044,300.169L788.044,283.991C787.019,283.694 785.833,283.317 784.674,282.939C784.485,280.809 783.595,278.598 787.047,278.328C787.694,278.274 788.53,276.36 788.638,275.227C789.15,270.104 789.312,264.954 789.851,259.858C789.986,258.537 791.118,257.35 791.792,256.11C792.331,257.296 793.356,258.51 793.383,259.723C793.545,265.736 793.464,271.802 793.464,278.004C795.54,278.355 796.78,278.543 798.344,278.84C798.425,279.811 798.964,281.132 798.533,281.698C797.67,282.723 796.295,283.343 794.462,284.556C794.354,285.581 793.249,287.576 796.727,288.142C797.698,288.304 798.345,290.407 799.504,292.133C797.158,292.591 795.918,292.861 794.516,293.104C794.462,294.479 794.516,295.639 794.354,296.771C793.896,300.007 794.92,301.463 798.398,302.568C812.311,307.071 822.099,316.023 827.788,329.882C830.538,336.569 831.374,342.824 829.945,349.673C829.729,350.886 830.296,352.504 831.024,353.61C832.076,355.336 833.559,356.873 834.961,358.356C843.05,367.065 846.259,377.203 844.29,388.986C842.591,398.962 844.506,408.319 848.874,417.324C850.411,420.479 851.489,423.795 852.595,427.732C830.216,413.469 808.807,411.554 789.447,430.374C782.194,427.004 775.399,423.202 768.173,420.667C760.866,418.106 753.155,418.78 746.171,420.343C752.076,421.26 758.52,421.718 764.695,423.282C777.233,426.491 786.832,434.148 793.95,444.799C796.97,449.275 800.394,452.861 805.355,455.53C821.155,463.996 828.624,483.194 823.69,501.664C822.962,504.441 823.447,506.113 825.389,508.216C830.943,514.229 834.664,521.428 835.581,529.436C836.848,540.814 837.414,552.301 837.657,563.733C837.873,576.783 831.698,586.975 821.56,594.714C815.17,599.594 809.534,604.798 808.645,613.372C808.214,617.416 807.917,621.488 807.459,626.719C803.873,623.483 801.042,621.03 798.319,618.468C782.815,604.07 765.532,592.314 745.849,584.602C741.805,583.011 736.816,583.335 732.314,583.55C714.087,584.494 699.203,593.014 685.884,604.743C678.631,611.133 675.207,619.869 672.969,628.956C670.704,638.366 668.574,647.857 667.199,657.456C666.471,662.606 666.929,667.459 667.981,672.097C669.06,672.394 670.165,672.663 671.351,672.771C675.126,673.175 679.548,673.607 684.185,674.146C688.364,674.604 692.678,675.683 696.992,676.222C701.414,676.761 705.701,677.732 709.799,678.325C714.545,678.999 718.913,679.619 722.526,680.32C726.678,681.129 731.72,682.504 737.41,683.69C742.129,684.634 747.144,685.955 752.294,687.06C757.282,688.139 762.621,688.139 767.474,689.163C772.84,690.349 778.071,690.889 782.546,691.913C789.206,693.396 794.518,694.798 797.403,695.526C799.857,696.2 804.521,698.95 810.453,701.647C814.417,703.427 819.216,704.721 823.773,706.905C828.087,708.954 831.835,712.459 836.068,714.563C838.198,715.588 840.436,716.343 842.566,717.071L842.566,678.217L961.177,559.633C987.412,533.371 987.412,490.607 961.177,464.399L961.172,464.399Z" style="fill:rgb(69,28,21);fill-rule:nonzero;"/>
    </g>
</svg>
