<?xml version="1.0" encoding="UTF-8" standalone="no"?>
<!DOCTYPE svg PUBLIC "-//W3C//DTD SVG 1.1//EN" "http://www.w3.org/Graphics/SVG/1.1/DTD/svg11.dtd">
<svg width="100%" height="100%" viewBox="0 0 60 61" version="1.1" xmlns="http://www.w3.org/2000/svg" xmlns:xlink="http://www.w3.org/1999/xlink" xml:space="preserve" xmlns:serif="http://www.serif.com/" style="fill-rule:evenodd;clip-rule:evenodd;stroke-linejoin:round;stroke-miterlimit:2;">
    <g transform="matrix(0.058594,0,0,0.058594,0.000132,0.000059)">
        <path d="M511.955,12.403C487.245,12.403 462.522,21.783 443.739,40.566L333.1,151.205L227.912,151.205C185.675,151.205 151.125,185.755 151.125,227.992L151.125,333.14L40.486,443.779C2.949,481.348 2.949,542.681 40.486,580.25L151.125,690.889L151.125,795.998C151.125,838.235 185.675,872.785 227.912,872.785L333.1,872.785L443.739,983.463C462.524,1002.232 487.241,1011.626 511.955,1011.626C536.669,1011.626 561.386,1002.231 580.171,983.463L690.81,872.785L795.998,872.785C838.235,872.785 872.785,838.235 872.785,795.998L872.785,690.889L983.424,580.25C1020.991,542.683 1020.991,481.345 983.424,443.779L872.785,333.14L872.785,227.992C872.785,185.755 838.235,151.205 795.998,151.205L690.81,151.205L580.171,40.566C561.388,21.783 536.665,12.403 511.955,12.403Z" style="fill:rgb(247,188,63);fill-rule:nonzero;"/>
    </g>
    <g transform="matrix(0.058594,0,0,0.058594,0.000132,0.000059)">
        <path d="M981.447,579.931L871.252,690.099L871.252,794.82C871.252,836.989 836.956,871.312 794.787,871.312L690.066,871.312L579.871,981.48C561.159,1000.192 536.543,1009.575 511.926,1009.575C487.336,1009.575 462.72,1000.219 444.008,981.48L333.84,871.312L229.119,871.312C186.95,871.312 152.654,836.989 152.654,794.82L152.654,690.099L42.459,579.931C4.981,542.453 4.981,481.546 42.459,444.068L152.654,333.873L152.654,229.179C152.654,187.01 186.95,152.687 229.119,152.687L333.84,152.687L444.008,42.519C480.326,6.201 543.58,6.201 579.871,42.519L690.066,152.687L794.787,152.687C836.956,152.687 871.252,187.01 871.252,229.179L871.252,333.873L981.447,444.068C1018.898,481.546 1018.898,542.453 981.447,579.931ZM991.612,433.931L885.623,327.942L885.623,229.179C885.623,179.083 844.856,138.316 794.787,138.316L695.997,138.316L590.008,32.354C569.166,11.485 541.449,-0.001 511.925,-0.001C482.455,-0.001 454.711,11.485 433.842,32.354L327.88,138.316L229.117,138.316C179.021,138.316 138.281,179.083 138.281,229.179L138.281,327.942L32.292,433.931C-10.767,476.963 -10.767,547.011 32.292,590.096L138.281,696.058L138.281,794.821C138.281,844.917 179.021,885.684 229.117,885.684L327.88,885.684L433.842,991.646C454.711,1012.488 482.455,1024.001 511.925,1024.001C541.449,1024.001 569.166,1012.488 590.008,991.646L695.997,885.684L794.787,885.684C844.856,885.684 885.623,844.917 885.623,794.821L885.623,696.058L991.612,590.096C1034.644,547.01 1034.644,476.962 991.612,433.931Z" style="fill:rgb(69,28,21);fill-rule:nonzero;"/>
    </g>
    <g transform="matrix(0.058594,0,0,0.058594,0.000132,0.000059)">
        <path d="M624.788,165.61C626.972,164.181 628.671,163.588 629.506,162.401C631.501,159.678 632.202,156.793 630.045,153.53C627.618,149.863 625.812,145.792 623.547,142.071C621.983,139.537 620.312,136.975 618.235,134.899C614.946,131.61 611.279,132.661 609.391,136.786C607.665,140.534 607.558,143.877 609.984,147.409C612.33,150.752 614.028,154.581 616.563,157.789C618.855,160.647 621.848,162.858 624.786,165.608L624.788,165.61ZM460.345,95.913C459.509,96.938 457.568,98.582 456.435,100.658C452.579,107.83 448.913,115.137 445.38,122.497C444.248,124.816 443.627,127.431 442.899,129.939C442.656,130.721 442.387,131.988 442.791,132.366C444.732,134.253 446.781,137.192 448.938,137.354C452.12,137.57 455.571,136.626 457.539,132.663C462.177,123.145 465.709,113.358 467.434,102.843C468.243,98.017 466.679,95.806 460.343,95.914L460.345,95.913ZM181.852,222.123C184.198,208.372 190.75,197.884 201.615,190.146C210.027,184.106 219.545,181.302 229.871,181.302C267.025,181.302 304.179,181.275 341.333,181.383C344.568,181.383 346.752,180.439 349.017,178.148C387.169,139.916 425.32,101.683 463.58,63.558C488.143,39.076 527.454,36.865 554.578,58.354C557.112,60.376 559.458,62.695 561.75,64.96C599.039,102.222 636.328,139.43 673.455,176.799C676.744,180.115 679.926,181.949 684.617,181.383C687.394,181.032 690.198,181.302 693.515,181.302C684.213,201.955 680.573,223.687 676.96,245.85C672.269,246.227 667.227,246.632 662.535,247.009C660.998,234.714 659.461,223.067 658.032,211.419C656.441,198.315 651.426,186.317 645.36,174.939C642.448,169.439 637.433,164.936 630.558,162.671C631.771,165.367 632.634,168.333 634.279,170.787C642.449,183.082 646.196,196.913 648.218,211.284C649.485,220.182 650.348,229.133 651.373,238.031C651.589,239.945 651.589,241.887 651.777,243.774C652.128,246.659 650.887,247.926 648.029,247.818C647.328,247.791 646.573,247.818 645.818,247.818C639.59,247.818 639.967,247.791 639.32,241.644C637.136,221.368 630.962,202.71 615.324,188.582C611.765,185.347 607.101,183.351 602.625,180.601C602.248,177.123 603.272,172.458 599.12,168.63C595.615,165.368 593.027,161.188 589.656,157.791C586.555,154.717 583.589,155.985 581.163,159.624C578.008,164.369 578.817,168.468 582.026,172.377C584.911,175.909 587.958,179.414 591.436,182.299C593.054,183.647 595.885,183.431 598.177,184.052C599.067,184.268 600.091,184.591 600.738,185.184C616.538,200.768 624.33,220.046 626.837,241.751C626.945,242.776 626.918,243.827 626.918,244.852C626.891,245.715 626.837,246.551 626.81,247.359C617.724,248.114 608.934,248.572 600.171,249.705C595.453,250.271 590.869,251.889 586.258,253.183C582.214,254.342 579.652,258.009 580.569,261.272C581.297,263.806 585.26,266.071 588.28,267.204C591.893,268.552 596.18,268.094 599.901,269.28C605.725,271.113 611.279,273.702 616.968,275.94C617.076,276.452 617.211,276.992 617.319,277.504C612.708,280.011 608.314,283.517 603.38,284.865C593.134,287.588 582.673,290.042 572.185,290.958C562.398,291.848 552.368,291.147 542.553,290.041C526.942,288.315 511.492,287.695 495.989,290.742C493.724,291.173 491.325,291.039 488.979,291.335C480.189,292.548 471.346,293.681 462.556,295.191C458.35,295.892 455.357,298.534 454.198,303.334C458.809,309.401 465.468,312.205 473.045,313.553C485.771,315.845 498.497,318.164 511.17,320.752C514.244,321.345 517.102,323.044 520.553,324.419C514.729,329.623 508.42,332.642 501.113,332.993C486.526,333.748 471.94,334.125 457.38,334.88C437.805,335.878 418.285,337.441 398.71,338.115C389.785,338.385 380.645,337.98 371.91,336.362C358.887,333.908 346.323,334.609 333.597,337.71C328.933,338.842 323.971,338.842 319.145,339.247C302.24,340.649 285.253,341.458 269.103,347.444C265.652,348.738 262.47,350.248 261.365,354.643C264.547,355.991 267.755,357.339 271.152,358.795C271.179,358.795 270.559,359.065 269.507,359.577C275.007,363.406 280.642,364.754 286.493,364.916C293.368,365.105 299.624,367.019 306.041,369.284C312.835,371.738 320.223,372.493 327.368,373.895C329.795,374.38 332.275,374.623 334.756,374.947C331.871,386.568 325.13,392.742 313.294,394.198C301.673,395.654 289.918,396.652 278.216,396.867C261.958,397.083 245.673,396.436 229.441,396.085C219.573,395.869 209.597,396.382 199.917,395.033C180.046,392.31 160.175,392.714 140.276,392.499C138.901,392.472 137.472,392.175 136.07,392.041C135.881,391.637 135.666,391.205 135.423,390.801C139.009,387.512 142.676,384.33 146.127,380.906C156.939,370.175 167.778,359.444 178.374,348.524C179.911,346.933 181.043,344.264 181.124,342.08C181.421,332.805 181.232,323.476 181.232,314.174C189.051,313.365 196.654,311.855 204.204,311.909C222.107,312.098 240.037,313.041 257.967,313.527C272.122,313.931 286.331,314.255 300.486,314.363C305.474,314.417 310.705,314.606 315.396,313.258C319.332,312.153 322.676,308.917 326.181,306.544C328.392,305.088 330.414,303.416 332.652,301.96C337.155,299.048 336.939,294.545 332.571,291.31C329.713,289.18 327.502,286.214 324.806,283.868C323.512,282.79 321.678,282.358 320.195,281.441C315.773,278.88 311.244,276.615 309.275,271.195C307.118,265.155 308.385,260.572 314.64,258.604C325.614,255.18 336.668,251.89 347.911,249.787C363.846,246.794 379.969,244.448 396.093,242.75C407.228,241.591 418.553,241.752 429.769,241.725C436.24,241.698 442.199,240.377 447.942,237.465C449.317,236.764 450.962,236.467 452.526,236.333C460.291,235.686 468.083,235.281 475.794,234.5C482.292,233.853 484.638,231.75 485.689,226.438C486.794,220.992 482.696,218.808 479.11,216.678C474.311,213.793 469.134,211.69 463.283,212.256C461.692,212.418 460.074,212.283 458.079,212.283C458.295,210.611 458.295,209.425 458.618,208.373C464.792,188.367 472.692,169.143 483.531,151.213C484.583,149.514 487.063,148.759 488.816,147.465C492.537,144.688 496.797,142.396 499.817,138.972C505.371,132.663 509.685,125.572 510.764,116.809C511.222,112.846 508.688,111.093 506.315,110.122C504.104,109.232 500.329,109.097 498.604,110.419C487.684,118.616 479.272,128.592 478.221,143.043C478.167,143.825 477.574,144.607 477.062,145.254C463.203,163.022 455.169,183.648 448.698,204.868C447.188,209.829 445.786,212.283 440.286,210.665C438.291,210.072 435.945,210.584 433.438,210.584C433.384,198.424 434.948,186.992 437.941,175.749C440.853,164.614 444.142,153.586 447.243,142.505C446.515,142.289 445.814,142.074 445.113,141.885C431.686,162.161 425.134,184.485 425.431,209.641C424.137,209.641 422.303,209.614 420.443,209.641C402.243,209.668 384.017,209.425 365.844,209.857C358.699,210.046 351.554,211.34 344.49,212.715C337.372,214.117 330.443,216.274 323.406,218.054C322.435,218.324 321.411,218.458 320.359,218.485C305.503,219.132 290.62,219.537 275.736,220.399C265.329,220.992 254.975,222.88 244.568,223.014C229.388,223.257 214.182,222.448 199.002,222.151C193.529,222.043 188.082,222.124 181.854,222.124L181.852,222.123Z" style="fill:rgb(69,28,21);fill-rule:nonzero;"/>
    </g>
    <g transform="matrix(0.058594,0,0,0.058594,0.000132,0.000059)">
        <path d="M96.206,592.792C112.168,580.389 130.583,573.298 149.349,566.504C163.073,561.516 176.904,557.202 191.221,554.641C201.898,552.727 212.737,551.891 223.522,550.651C227.755,550.193 232.015,549.761 236.275,549.653C241.802,549.464 247.383,549.545 252.911,549.734C257.818,549.869 262.698,550.3 267.578,550.651C280.035,551.514 292.626,551.622 304.948,553.509C321.449,556.016 337.033,561.544 350.46,572.032C354.154,574.917 358.737,576.912 361.919,580.255C369.172,587.912 375.966,596.055 382.572,604.251C387.749,610.641 392.521,617.355 397.213,624.149C403.9,633.801 411.476,643.103 416.599,653.538C424.391,669.554 430.592,686.324 437.117,702.933C440.029,710.402 442.509,718.113 444.37,725.932C447.74,740.438 449.789,755.132 447.848,770.123C447.524,772.63 446.581,773.871 443.992,774.572C426.251,779.371 408.779,785.249 390.822,789.051C372.676,792.88 354.072,793.958 334.821,792.745C334.821,790.965 334.74,789.078 334.821,787.245C335.441,770.825 334.578,754.459 331.208,738.443C327.649,721.457 320.801,705.846 311.364,691.178C303.976,679.719 295.375,669.473 284.806,661.142C276.906,654.941 268.359,649.063 259.219,645.099C250.375,641.243 240.399,640.111 230.936,637.63C219.801,634.691 208.746,638.142 197.611,638.007C183.078,637.845 171.107,645.637 158.3,650.814C156.979,651.38 154.444,651.111 153.501,650.194C134.52,631.509 115.7,612.636 96.907,593.789C96.583,593.519 96.395,593.115 96.206,592.791L96.206,592.792Z" style="fill:rgb(69,28,21);fill-rule:nonzero;"/>
    </g>
    <g transform="matrix(0.058594,0,0,0.058594,0.000132,0.000059)">
        <path d="M426.917,922.695C438.646,922.102 450.455,921.805 462.157,920.862C475.611,919.73 489.011,918.058 502.439,916.602C516.594,915.092 530.722,913.528 544.851,912.045C554.288,911.074 563.94,910.454 570.411,902.339C572.999,899.104 574.132,894.763 576.424,891.258C578.069,888.697 580.145,886 582.679,884.571C595.864,876.995 608.617,868.852 619.267,857.986C624.525,852.594 627.517,845.772 624.147,838.034C623.176,835.769 621.181,833.801 619.321,832.075C611.852,825.227 602.685,821.533 593.491,817.596C587.101,814.819 580.145,811.799 576.262,804.87C573.377,799.666 573.889,795.945 579.201,793.114C583.65,790.768 588.368,788.8 593.006,786.832C599.261,784.244 605.382,780.954 611.88,779.498C622.395,777.152 633.18,775.966 643.884,774.429C654.453,772.892 665.022,771.463 675.619,770.115C685.487,768.821 695.382,767.742 705.277,766.394C718.435,764.588 731.673,763.536 744.372,759.114C753.998,755.798 763.38,743.476 763.138,733.5C762.922,725.789 760.9,720.639 754.052,717.053C750.87,715.381 747.959,712.928 745.559,710.259C744.184,708.722 743.591,706.08 743.537,703.896C743.537,703.168 746.098,701.793 747.554,701.604C756.964,700.283 766.428,699.177 775.864,698.045C790.235,696.319 804.606,694.621 819.004,692.922C826.715,692.032 834.399,691.223 842.65,690.28L842.65,792.629C842.623,821.964 821.97,842.671 792.716,842.671C755.859,842.671 719.028,842.698 682.171,842.617C679.286,842.617 677.264,843.426 675.215,845.502C637.09,883.761 598.885,921.94 560.679,960.119C532.665,988.052 491.224,987.971 463.13,960.011C452.534,949.469 441.965,938.873 431.395,928.33C429.831,926.766 428.16,925.283 426.542,923.773C426.65,923.422 426.812,923.045 426.919,922.695L426.917,922.695Z" style="fill:rgb(69,28,21);fill-rule:nonzero;"/>
    </g>
    <g transform="matrix(0.058594,0,0,0.058594,0.000132,0.000059)">
        <path d="M618.002,329.983C625.309,330.711 632.481,331.951 638.655,336.454C647.499,342.925 656.612,349.099 665.024,356.136C669.554,359.965 673.355,364.953 676.51,370.022C684.787,383.395 695.815,393.776 709.647,401.002C717.628,405.181 726.094,408.471 734.479,411.733C753.595,419.175 770.177,430.391 785.896,443.548C799.027,454.576 812.67,464.956 822.133,479.489C834.023,497.715 842.193,517.641 846.992,538.779C849.526,549.914 851.171,561.346 852.357,572.724C853.516,583.94 853.813,595.291 854.137,606.616C854.326,614.219 853.786,614.165 846.129,615.675C839.335,617.023 832.756,619.531 825.907,620.771C815.985,622.604 805.928,623.71 795.952,625.247C792.204,625.813 788.51,626.73 784.763,627.431C783.226,627.701 781.635,627.728 779.91,627.889C779.559,616.403 777.241,605.78 773.897,595.184C768.073,576.877 757.45,563.342 738.954,556.763C731.378,554.067 723.801,551.559 717.249,549.321C721.185,547.218 726.227,544.845 730.919,541.96C735.745,538.994 740.248,535.489 744.858,532.227C744.561,531.634 744.265,531.041 743.968,530.421C733.237,534.546 722.533,538.644 711.829,542.77C718.893,533.926 725.822,525.298 730.082,514.352C709.887,528.939 692.524,546.356 670.468,557.68C648.709,568.869 625.953,576.688 602.658,583.294C602.415,582.782 602.173,582.269 601.93,581.73C608.347,578.495 614.629,575.016 621.154,571.997C636.361,564.987 650.866,556.952 661.382,543.444C665.993,537.485 667.583,530.259 668.716,522.953C670.657,510.146 664.672,499.712 658.983,489.008C653.644,478.978 654.319,466.845 666.775,461.695C673.084,459.053 679.07,455.682 685.217,452.744C691.742,449.643 693.764,443.712 694.357,437.322C695.435,425.432 692.281,414.485 687.482,403.538C684.058,395.692 681.038,387.819 674.998,381.564C665.885,372.154 657.176,362.286 647.389,353.604C639.678,346.783 630.592,341.471 622.179,335.404C620.453,334.137 618.944,332.519 617.326,331.063C617.569,330.712 617.757,330.335 618,329.985L618.002,329.983Z" style="fill:rgb(69,28,21);fill-rule:nonzero;"/>
    </g>
    <g transform="matrix(0.058594,0,0,0.058594,0.000132,0.000059)">
        <path d="M686.448,245.874C689.764,229.778 692.649,214.247 696.316,198.906C697.691,193.028 700.846,187.555 703.164,181.893C708.745,181.704 714.299,181.354 719.881,181.354C744.174,181.3 768.413,181.327 792.679,181.327C821.96,181.327 842.64,202.007 842.64,231.342C842.667,268.038 842.694,304.706 842.586,341.402C842.559,344.664 843.503,346.902 845.821,349.113C854.098,357.121 862.133,365.344 870.761,373.972C863.805,375.752 857.657,375.05 851.591,373.568C845.929,372.193 840.402,370.117 834.659,369.227C826.543,367.987 818.293,366.8 810.15,366.962C791.33,367.366 773.023,365.587 754.958,359.79C744.2,356.285 732.876,354.694 722.253,350.38C718.155,348.681 713.328,349.248 709.257,346.012C706.264,343.666 706.264,341.752 707.451,338.975C708.691,336.09 709.932,333.529 709.231,329.997C708.449,326.087 711.765,323.715 714.974,322.582C729.291,317.486 743.581,312.336 758.141,307.941C767.039,305.272 776.475,304.301 785.508,301.901C793.03,299.879 800.688,297.506 807.563,293.947C810.879,292.221 813.144,287.638 814.87,283.89C816.299,280.708 815.436,277.446 811.635,275.316C803.87,271.002 796.725,265.313 788.582,261.97C780.197,258.519 770.895,257.171 762.024,254.906C760.46,254.502 758.762,254.367 757.413,253.612C747.033,247.95 735.574,247.006 724.195,246.143C715.082,245.442 705.915,245.388 696.801,245.172C693.889,245.118 690.95,245.549 686.447,245.873L686.448,245.874Z" style="fill:rgb(69,28,21);fill-rule:nonzero;"/>
    </g>
    <g transform="matrix(0.058594,0,0,0.058594,0.000132,0.000059)">
        <path d="M588.796,514.017C585.614,510.431 582.756,507.249 579.952,504.041C578.253,502.127 576.851,502.315 574.452,503.502C564.018,508.625 553.071,511.968 541.477,507.681C538.538,506.576 536.219,503.906 532.66,501.237C535.006,500.239 536.192,499.404 537.459,499.188C543.687,498.163 548.621,494.928 552.747,490.344C554.446,488.43 555.713,486.677 552.019,485.572C551.507,485.437 551.075,484.925 550.644,484.52C547.678,481.635 545.117,480.772 540.83,483.199C531.959,488.241 521.822,486.003 513.652,478.615C511.926,477.078 510.039,475.649 508.475,473.519C515.647,472.387 522.145,470.931 528.023,466.104C525.758,464.567 523.925,463.246 522.01,461.952C519.988,460.604 517.831,459.445 515.997,457.881C511.494,454.187 507.099,450.359 502.732,446.53C500.413,444.535 496.315,443.295 497.367,439.412C498.392,435.664 502.517,436.042 505.671,435.125C511.036,433.588 516.213,431.458 521.579,429.975C526.055,428.708 530.638,427.926 535.33,426.901C533.982,419.675 530.854,413.905 524.141,410.562C526.972,407.38 534.414,406.005 538.916,408.459C543.634,411.047 548.137,414.121 552.451,417.33C554.257,418.651 555.471,419.972 558.113,419.352C560.432,418.813 563.02,419.244 565.609,419.244C564.504,411.587 559.623,407.3 554.15,403.444C561.457,396.38 574.695,398.806 585.561,413.986C596.777,409.106 600.822,397.809 594.189,387.806C589.093,380.122 585.426,371.494 580.276,363.864C573.886,354.292 572.214,354.427 564.638,362.812C562.643,365.05 561.187,367.8 559.38,370.496C555.47,361.302 554.608,351.973 559.326,342.509C561.267,338.546 562.346,333.881 567.388,332.398C567.954,332.236 568.601,331.643 568.979,331.805C579.791,336.416 590.603,341.134 601.576,345.852C598.341,355.073 595.86,363.917 599.069,373.65C601.28,370.846 602.979,368.258 605.109,366.074C612.631,358.39 619.291,357.851 627.811,364.321C631.532,367.125 634.902,370.414 638.38,373.461C631.612,382.628 628.728,392.604 628.889,404.036C632.799,400.369 635.737,396.783 639.458,394.384C646.765,389.693 653.371,390.663 658.412,397.593C662.322,402.985 665.53,409.052 668.118,415.199C670.733,421.454 665.476,430.594 659.706,434.234C653.208,438.305 648.328,438.305 642.127,433.452C635.899,428.545 621.447,431.322 616.108,436.795C620.179,439.572 624.412,442.214 628.376,445.261C631.611,447.742 631.288,449.117 627.621,450.95C620.503,454.536 613.682,458.365 605.161,458.688C601.09,458.823 597.153,462.624 592.219,465.267C594.996,466.507 596.964,467.586 599.067,468.26C605.107,470.309 609.906,475.108 616.646,475.917C618.641,476.133 620.502,478.964 622.011,480.878C622.362,481.309 621.418,483.736 620.744,483.898C616.565,484.842 612.332,485.489 608.099,486.163C606.994,486.325 605.888,486.325 604.81,486.406C604.999,487.673 604.81,489.21 605.457,490.127C609.528,495.762 615.056,499.348 621.985,499.941C627.108,500.399 632.392,500.534 635.898,496.274C643.474,504.659 644.472,514.878 643.825,525.555C643.528,530.894 640.967,534.992 636.599,537.284C632.258,539.576 627.513,538.255 623.819,535.235C620.503,532.566 617.726,529.222 614.463,525.906C612.953,533.752 612.683,541.355 617.429,548.716C612.252,551.277 607.237,556.778 600.443,552.248C595.374,548.824 590.17,545.211 588.687,538.524C588.444,537.419 587.878,536.34 587.447,535.235C581.866,539.279 581.596,552.356 586.8,563.761C585.883,564.381 584.94,565.082 583.915,565.648C576.743,569.908 569.517,574.141 562.372,578.455C557.276,581.502 555.362,581.394 551.129,577.323C540.668,567.347 539.077,550.442 547.112,537.823C549.593,541.436 551.669,545.696 554.85,548.851C557.007,551.062 560.539,552.41 563.667,553.057C568.197,553.974 570.111,551.601 572.025,547.287C576.447,537.446 581.408,527.874 586.207,518.195C586.908,516.766 587.906,515.472 588.795,514.016L588.796,514.017Z" style="fill:rgb(69,28,21);fill-rule:nonzero;"/>
    </g>
    <g transform="matrix(0.058594,0,0,0.058594,0.000132,0.000059)">
        <path d="M85.262,582.655C75.663,572.571 65.391,563.08 56.655,552.349C45.358,538.436 41.556,521.909 43.551,503.79C48.135,503.79 52.556,503.844 56.924,503.763C67.952,503.493 78.952,503.17 89.953,502.873C97.502,502.684 104.998,502.442 112.52,502.442C132.634,502.469 152.694,502.361 172.808,502.819C180.681,502.981 188.581,504.329 196.427,505.434C208.048,507.052 219.668,508.589 231.181,510.773C240.914,512.66 250.486,515.411 260.085,517.918C261.271,518.242 262.215,519.401 263.24,520.237C264.453,521.262 265.64,522.394 266.799,523.499C268.417,524.928 271.167,526.168 271.437,527.84C271.976,531.264 267.581,537.762 264.966,538.032C259.034,538.679 253.049,538.868 247.09,539.164C240.188,539.515 233.231,539.515 226.329,540.162C217.485,540.998 208.669,542.292 199.825,543.505C193.031,544.476 186.236,546.471 179.442,546.444C166.392,546.363 155.446,553.724 143.124,555.665C123.199,558.82 106.536,569.065 89.739,579.095C88.337,579.904 87.205,581.09 85.263,582.654L85.262,582.655Z" style="fill:rgb(69,28,21);fill-rule:nonzero;"/>
    </g>
    <g transform="matrix(0.058594,0,0,0.058594,0.000132,0.000059)">
        <path d="M478.951,652.549C471.482,661.635 462.612,666.623 451.962,668.538C448.511,669.131 445.168,670.237 441.824,671.126C439.155,671.854 437.51,671.315 436.432,668.376C434.329,662.606 431.956,656.917 429.341,651.363C428.182,648.909 426.052,646.914 424.515,644.649C422.628,641.737 420.848,638.744 419.015,635.778C416.157,631.329 413.515,626.746 410.387,622.486C406.477,617.121 402.19,612.052 398.038,606.902C394.128,602.076 390.192,597.276 386.175,592.585C381.564,587.112 376.819,581.719 371.912,576.057C381.079,575.572 390.651,575.032 400.276,574.547C397.067,551.737 386.687,531.866 377.061,511.725C376.657,510.862 375.929,509.892 375.093,509.514C365.414,505.065 362.151,495.871 358.7,487.027C357.999,485.247 359.266,481.769 360.803,480.313C361.801,479.369 365.387,479.989 367.031,481.095C374.715,486.272 380.027,493.228 381.51,502.611C381.753,503.878 381.106,505.334 380.998,506.116C397.93,525.691 409.093,547.638 411.708,573.71L421.9,573.71C426.996,542.542 417.937,513.584 409.578,484.303C405.291,484.249 402.433,481.256 400.869,477.293C398.119,470.202 395.504,463.003 393.535,455.669C392.645,452.353 392.942,448.524 393.535,445.073C394.182,441.325 397.498,440.004 400.356,442.296C402.89,444.318 405.263,446.934 406.773,449.792C409.685,455.184 412.165,460.847 414.403,466.589C416.021,470.768 418.205,475.001 415.616,479.827C415.023,480.932 415.643,482.847 416.074,484.303C420.307,498.189 425.753,511.885 428.558,526.041C431.065,538.821 430.715,552.14 431.524,565.217C431.74,568.156 431.551,571.122 431.551,574.115C437.294,576.353 442.875,578.537 448.483,580.721C452.77,549.175 452.446,518.762 447.351,488.402L448.942,487.377C450.155,488.078 452.097,488.536 452.474,489.534C460.023,510.753 463.609,532.458 461.021,555.025C460.077,563.329 459.7,571.661 458.999,580.99C464.661,582.015 471.186,583.093 477.684,584.387C484.505,585.762 491.354,587.137 498.067,588.971C502.678,590.211 503.19,592.611 499.685,595.819C493.403,601.616 485.907,605.148 477.468,606.415C465.632,608.275 454.685,612.589 444.116,618.09C438.103,621.191 436.62,627.095 438.562,633.351C441.069,641.251 446.812,644.244 453.85,646.023C460.779,647.749 467.736,649.232 474.692,650.876C476.013,651.227 477.28,651.874 478.952,652.548L478.951,652.549Z" style="fill:rgb(69,28,21);fill-rule:nonzero;"/>
    </g>
    <g transform="matrix(0.058594,0,0,0.058594,0.000132,0.000059)">
        <path d="M600.451,692.971C607.839,696.584 614.067,700.305 620.754,702.704C625.742,704.484 631.404,704.403 636.662,705.508C643.052,706.91 649.334,708.69 656.183,709.471C652.624,707.476 649.173,705.292 645.533,703.458C640.68,701.058 635.854,698.497 630.704,696.744C623.478,694.263 620.404,687.577 614.769,682.67C626.336,676.738 637.498,673.368 650.197,674.339C663.759,675.364 675.056,682.562 687.513,686.391C692.07,687.82 696.33,691.217 699.808,694.614C709.973,704.455 703.798,720.956 694.254,726.537C679.721,735.057 663.948,740.369 646.908,738.643C635.773,737.511 624.61,735.165 613.933,731.875C608.487,730.203 604.092,725.269 599.266,721.764C598.565,721.225 598.268,720.281 597.594,719.715C592.66,715.374 591.959,712.705 594.439,706.854C596.407,702.19 598.429,697.579 600.452,692.968L600.451,692.971Z" style="fill:rgb(69,28,21);fill-rule:nonzero;"/>
    </g>
    <g transform="matrix(0.058594,0,0,0.058594,0.000132,0.000059)">
        <path d="M286.422,449.426C289.037,459.833 296.776,466.25 304.325,472.775C299.687,476.226 295.374,476.765 290.547,477.089C276.446,477.979 263.342,475.121 251.317,467.949C243.741,463.419 237.216,457.595 238.941,447.485C241.233,434.354 252.638,420.604 268.222,421.035C283.105,421.439 297.988,421.79 312.845,422.922C322.201,423.65 330.397,428.153 335.736,435.945C340.94,443.548 338.513,451.745 335.466,459.591C335.25,460.13 334.711,460.535 334.441,461.047C328.887,472.883 323.44,473.692 312.736,466.736C304.027,461.047 295.345,455.304 286.421,449.426L286.422,449.426Z" style="fill:rgb(69,28,21);fill-rule:nonzero;"/>
    </g>
    <g transform="matrix(0.058594,0,0,0.058594,0.000132,0.000059)">
        <path d="M556.053,589.363C567.593,583.135 578.782,576.987 590.052,571.056C594.312,568.818 598.896,567.227 603.156,565.043C614.237,559.3 625.13,553.234 636.239,547.571C648.776,541.181 654.277,530.666 652.228,516.753C650.448,504.62 645.407,494.186 637.318,484.938C631.548,478.359 629.256,470.513 632.761,462.101C635.349,455.846 641.551,453.284 647.132,450.426C656.299,445.815 665.682,441.663 674.768,436.945C676.736,435.947 678.947,433.305 679.082,431.283C679.352,426.403 678.839,421.361 677.923,416.535C677.357,413.407 675.577,410.522 674.202,407.61C668.001,394.641 660.316,382.724 649.073,373.395C638.423,364.632 628.366,355.034 617.096,347.215C608.657,341.391 598.789,337.643 589.433,333.249C584.957,331.173 580.131,329.852 575.52,328.045C574.765,327.775 574.28,326.724 573.687,326.077C574.577,325.43 575.44,324.324 576.329,324.297C584.93,323.92 593.423,324.621 601.134,328.8C610.005,333.626 619.253,337.967 627.207,344.034C637.587,351.88 646.997,361.047 656.542,369.972C661.018,374.178 664.9,379.085 668.918,383.75C677.519,393.807 682.831,405.455 685.446,418.316C686.578,423.708 687.819,429.182 688.061,434.709C688.385,443.418 684.879,447.354 676.872,450.832C670.051,453.798 663.553,457.519 657.028,461.159C652.579,463.666 650.746,468.196 650.126,472.915C649.048,481.246 651.178,488.742 655.95,495.914C668.353,514.518 665.764,535.899 647.969,550.054C636.133,559.545 622.274,565.099 609.089,572.001C604.532,574.374 600.434,577.555 596.012,580.117C589.514,583.757 582.881,587.154 576.357,590.713C574.524,591.738 572.636,592.843 571.072,594.245C565.41,599.368 558.076,597.076 556.054,589.365L556.053,589.363Z" style="fill:rgb(69,28,21);fill-rule:nonzero;"/>
    </g>
    <g transform="matrix(0.058594,0,0,0.058594,0.000132,0.000059)">
        <path d="M267.883,807.261C272.601,807.558 277.347,808.151 282.065,808.097C295.654,807.962 309.216,807.558 322.778,807.261C336.34,806.937 349.929,806.91 363.437,806.183C377.943,805.455 392.448,804.296 406.873,802.759C415.312,801.896 423.67,800.332 431.894,798.31C437.179,797.016 442.059,794.266 447.182,792.297C450.741,790.976 454.3,789.439 457.994,788.9C465.355,787.741 471.394,784.721 475.789,778.654C476.22,778.061 476.814,777.576 477.407,777.171C486.197,771.617 487.814,765.092 482.233,756.356C480.211,753.201 478.027,749.966 475.223,747.539C472.446,745.112 468.833,743.603 465.463,741.607C465.948,738.56 467.108,737.401 470.101,737.59C478.459,738.102 485.874,740.852 492.399,745.84C494.556,747.485 496.309,749.723 497.899,751.907C499.84,754.63 501.458,757.596 503.264,760.427C506.392,765.307 505.61,770.16 503.21,775.068C498.599,784.289 490.592,790.167 482.341,795.613C469.696,803.971 455.891,808.825 440.603,810.065C429.441,810.955 418.386,813.408 407.251,814.918C402.155,815.592 396.978,815.835 391.829,815.996C379.453,816.427 367.051,816.508 354.675,817.048C344.807,817.479 334.993,818.828 325.151,818.908C313.207,819.016 301.235,818.504 289.318,817.641C283.872,817.264 278.425,815.7 273.222,813.974C270.876,813.192 269.124,810.739 267.102,809.04C267.372,808.447 267.614,807.854 267.884,807.26L267.883,807.261Z" style="fill:rgb(69,28,21);fill-rule:nonzero;"/>
    </g>
    <g transform="matrix(0.058594,0,0,0.058594,0.000132,0.000059)">
        <path d="M668.72,565.075C675.892,562.945 683.037,560.518 690.29,558.739C694.685,557.634 699.349,557.741 703.798,556.879C712.749,555.126 720.973,558.281 728.927,561.085C737.097,564.051 744.727,568.661 752.249,573.137C758.369,576.75 759.691,583.841 762.171,589.854C763.6,593.251 760.391,596.945 756.32,597.538C737.419,600.288 718.492,600.504 699.564,597.808C698.27,597.646 696.895,597.619 695.574,597.673C683.09,598.212 671.605,584.003 672.117,573.38C672.225,571.142 670.634,568.796 669.825,566.478C669.448,566.02 669.097,565.534 668.72,565.076L668.72,565.075Z" style="fill:rgb(69,28,21);fill-rule:nonzero;"/>
    </g>
    <g transform="matrix(0.058594,0,0,0.058594,0.000132,0.000059)">
        <path d="M766.577,653.377C771.403,652.568 776.176,651.624 781.029,651.004C793.513,649.467 806.212,648.928 818.453,646.313C832.123,643.428 845.604,639.303 857.98,632.427C862.537,629.893 867.255,627.601 871.461,624.608C879.523,618.946 881.788,610.345 881.572,601.097C881.545,598.94 879.55,596.217 877.662,594.842C874.022,592.254 869.681,590.69 865.879,588.236C864.369,587.238 862.913,585.162 862.563,583.329C861.754,579.231 861.619,574.944 861.188,570.333C863.884,570.576 867.093,570.441 870.113,571.196C882.354,574.216 893.57,579.581 903.897,586.915C907.564,589.503 908.427,592.658 908.292,597.134C907.834,612.368 897.777,621.023 887.342,629.65C877.77,637.604 866.878,643.374 855.473,647.984C849.784,650.303 843.34,651.058 837.139,651.732C825.761,652.972 814.329,653.781 802.897,654.455C793.514,654.994 784.131,655.156 774.775,655.291C772.079,655.318 769.41,654.536 766.713,654.132C766.659,653.862 766.632,653.647 766.578,653.377L766.577,653.377Z" style="fill:rgb(69,28,21);fill-rule:nonzero;"/>
    </g>
    <g transform="matrix(0.058594,0,0,0.058594,0.000132,0.000059)">
        <path d="M240.888,710.059C241.751,703.211 241.778,697.333 243.315,691.886C245.661,683.636 249.031,675.682 251.943,667.566C252.941,664.843 254.019,662.12 254.963,659.369C256.23,655.783 259.223,655.406 261.704,656.862C274.457,664.384 286.078,673.309 294.652,685.658C298.157,690.673 297.537,693.18 294.248,698.33C288.478,707.335 278.88,711.11 270.656,716.772C267.663,718.821 264.482,720.708 261.165,722.191C248.223,728.042 241.617,720.681 240.889,710.058L240.888,710.059Z" style="fill:rgb(69,28,21);fill-rule:nonzero;"/>
    </g>
    <g transform="matrix(0.058594,0,0,0.058594,0.000132,0.000059)">
        <path d="M211.079,645.649C220.839,643.708 230.276,645.73 239.686,648.022C244.728,649.235 246.993,653.037 245.429,658.16C242.301,668.352 238.877,678.436 235.561,688.573C234.24,692.617 232.838,696.581 231.463,700.625C229.576,706.233 224.776,708.121 218.791,707.608C211.997,707.042 208.114,702.701 204.717,698.171C202.83,695.637 202.937,691.43 202.668,687.952C201.886,677.841 201.293,667.676 200.673,657.566C200.592,656.083 200.592,654.6 200.7,653.117C201.266,645.244 202.83,645.163 208.438,645.648C209.301,645.702 210.191,645.648 211.08,645.648L211.079,645.649Z" style="fill:rgb(69,28,21);fill-rule:nonzero;"/>
    </g>
    <g transform="matrix(0.058594,0,0,0.058594,0.000132,0.000059)">
        <path d="M278.307,755.844C271.486,756.221 265.122,755.52 260.027,750.263C254.068,744.17 255.875,735.488 263.074,731.201C275.207,724.11 286.909,716.237 298.826,708.741C300.525,707.663 302.385,706.638 304.326,706.234C305.27,706.018 307.238,707.043 307.535,707.933C311.364,719.122 315.057,730.339 318.563,741.663C319.318,744.117 313.413,750.534 309.881,751.208C302.332,752.664 294.755,754.066 287.125,755.306C284.24,755.764 281.247,755.683 278.308,755.845L278.307,755.844Z" style="fill:rgb(69,28,21);fill-rule:nonzero;"/>
    </g>
    <g transform="matrix(0.058594,0,0,0.058594,0.000132,0.000059)">
        <path d="M765.644,601.968C771.36,610.569 770.659,619.952 771.279,630.197C759.281,629.604 747.525,629.092 735.824,628.364C731.456,628.094 727.115,627.393 722.72,626.989C715.386,626.315 707.999,626.234 700.8,624.994C692.199,623.511 685.836,617.903 679.958,611.836C677.531,609.329 679.634,606.956 680.902,604.745C682.007,602.777 683.463,602.318 685.944,602.939C694.922,605.177 703.955,606.579 713.284,606.687C730.863,606.957 748.227,605.824 765.645,601.969L765.644,601.968Z" style="fill:rgb(69,28,21);fill-rule:nonzero;"/>
    </g>
    <g transform="matrix(0.058594,0,0,0.058594,0.000132,0.000059)">
        <path d="M701.776,651.802C697.273,651.802 692.717,652.233 688.268,651.721C677.672,650.508 666.995,649.294 656.506,647.245C647.447,645.519 638.63,642.634 631.782,635.786C629.463,633.494 627.091,631.229 624.88,628.803C624.152,627.994 623.586,626.835 623.451,625.756C622.399,615.295 626.929,607.637 635.611,602.11C636.959,601.247 637.984,599.791 639.386,599.171C642.918,597.58 646.504,596.151 650.144,594.911C657.019,592.538 663.922,590.3 670.527,588.117C674.005,591.784 677.268,595.235 680.287,598.444C675.596,600.089 670.473,602.65 665.053,603.567C657.935,604.753 653.998,610.335 648.795,613.947C645.991,615.888 645.452,619.582 648.04,623.006C654.673,631.769 664.217,635.705 674.005,639.426C677.456,640.72 680.853,642.284 684.305,643.686C689.401,645.843 694.524,647.973 699.647,650.103C700.429,650.427 701.157,650.723 701.939,651.047C701.885,651.29 701.831,651.532 701.777,651.802L701.776,651.802Z" style="fill:rgb(69,28,21);fill-rule:nonzero;"/>
    </g>
    <g transform="matrix(0.058594,0,0,0.058594,0.000132,0.000059)">
        <path d="M321.462,791.839C304.907,792.998 289.08,791.974 273.658,786.581C271.771,785.934 269.748,785.368 267.726,785.098C261.282,784.235 260.23,783.561 258.963,777.36C258.343,774.529 258.208,771.455 258.612,768.597C259.151,764.714 261.2,762.369 265.838,762.8C274.924,763.609 284.064,764.013 293.178,764.472C300.97,764.849 308.735,765.092 316.285,762.315C319.332,761.21 321.65,761.587 321.543,765.982C321.3,774.529 321.462,783.076 321.462,791.839Z" style="fill:rgb(69,28,21);fill-rule:nonzero;"/>
    </g>
    <g transform="matrix(0.058594,0,0,0.058594,0.000132,0.000059)">
        <path d="M397.407,844.539C405.954,842.786 414.42,840.09 423.048,839.443C442.919,837.852 461.307,831.543 479.507,824.128C486.194,821.405 493.339,819.895 501.131,817.603C487.353,836.045 467.94,842.57 447.611,847.046C430.814,850.74 413.935,851.441 397.434,845.914C397.434,845.456 397.407,844.997 397.407,844.539Z" style="fill:rgb(69,28,21);fill-rule:nonzero;"/>
    </g>
    <g transform="matrix(0.058594,0,0,0.058594,0.000132,0.000059)">
        <path d="M181.245,712.413C181.245,702.059 181.137,692.191 181.326,682.323C181.38,679.249 180.436,677.119 178.225,674.989C172.455,669.516 166.874,663.827 160.726,657.706C169.974,654.174 178.548,650.75 187.311,647.595C190.412,646.49 191.571,648.161 191.49,651.612C191.139,666.279 189.198,681.028 193.081,695.587C193.944,698.796 193.782,702.381 193.378,705.698C193.216,707.127 191.464,708.826 189.981,709.554C187.42,710.794 184.508,711.36 181.245,712.412L181.245,712.413Z" style="fill:rgb(69,28,21);fill-rule:nonzero;"/>
    </g>
    <g transform="matrix(0.058594,0,0,0.058594,0.000132,0.000059)">
        <path d="M596.68,604.578C593.822,607.409 590.856,609.458 589.023,612.262C584.305,619.461 585.788,625.447 592.825,630.408C594.982,631.891 597.166,633.374 599.269,634.965C599.727,635.289 600.321,636.124 600.159,636.502C600.024,637.014 599.188,637.554 598.649,637.58C596.869,637.607 595.009,637.85 593.391,637.256C587.918,635.396 582.336,633.508 577.133,631.001C570.096,627.631 568.883,618.032 574.949,613.152C579.155,609.836 583.874,607.005 588.727,604.74C590.965,603.715 594.092,604.578 596.681,604.578L596.68,604.578Z" style="fill:rgb(69,28,21);fill-rule:nonzero;"/>
    </g>
    <g transform="matrix(0.058594,0,0,0.058594,0.000132,0.000059)">
        <path d="M438.931,453.414C443.892,454.25 446.75,456.515 448.314,460.047C450.498,465.008 452.52,470.05 454.057,475.227C454.758,477.627 454.704,480.566 454.03,483.019C452.925,487.009 449.339,487.953 445.86,485.58C440.683,482.075 437.69,477.06 436.127,471.155C434.833,466.275 432.649,461.314 436.046,456.407C436.909,455.194 438.122,454.223 438.931,453.414Z" style="fill:rgb(69,28,21);fill-rule:nonzero;"/>
    </g>
</svg>
