<?xml version="1.0" encoding="UTF-8" standalone="no"?>
<!DOCTYPE svg PUBLIC "-//W3C//DTD SVG 1.1//EN" "http://www.w3.org/Graphics/SVG/1.1/DTD/svg11.dtd">
<svg width="100%" height="100%" viewBox="0 0 60 61" version="1.1" xmlns="http://www.w3.org/2000/svg" xmlns:xlink="http://www.w3.org/1999/xlink" xml:space="preserve" xmlns:serif="http://www.serif.com/" style="fill-rule:evenodd;clip-rule:evenodd;stroke-linejoin:round;stroke-miterlimit:2;">
    <g transform="matrix(0.058594,0,0,0.058594,0.000146,0.000059)">
        <path d="M511.955,12.403C487.245,12.403 462.522,21.783 443.739,40.566L333.1,151.205L227.912,151.205C185.675,151.205 151.125,185.755 151.125,227.992L151.125,333.14L40.486,443.779C2.949,481.348 2.949,542.681 40.486,580.25L151.125,690.889L151.125,795.998C151.125,838.235 185.675,872.785 227.912,872.785L333.1,872.785L443.739,983.463C462.524,1002.232 487.241,1011.626 511.955,1011.626C536.669,1011.626 561.386,1002.231 580.171,983.463L690.81,872.785L795.998,872.785C838.235,872.785 872.785,838.235 872.785,795.998L872.785,690.889L983.424,580.25C1020.991,542.683 1020.991,481.345 983.424,443.779L872.785,333.14L872.785,227.992C872.785,185.755 838.235,151.205 795.998,151.205L690.81,151.205L580.171,40.566C561.388,21.783 536.665,12.403 511.955,12.403Z" style="fill:rgb(247,188,63);fill-rule:nonzero;"/>
    </g>
    <g transform="matrix(0.058594,0,0,0.058594,0.000146,0.000059)">
        <path d="M981.44,579.931L871.245,690.099L871.245,794.82C871.245,836.989 836.949,871.312 794.78,871.312L690.059,871.312L579.864,981.48C561.152,1000.192 536.536,1009.575 511.946,1009.575C487.329,1009.575 462.713,1000.219 444.001,981.48L333.833,871.312L229.112,871.312C186.943,871.312 152.647,836.989 152.647,794.82L152.647,690.099L42.452,579.931C4.974,542.453 4.974,481.546 42.452,444.068L152.647,333.873L152.647,229.152C152.647,187.01 186.943,152.687 229.112,152.687L333.833,152.687L444.001,42.519C480.319,6.201 543.6,6.201 579.864,42.519L690.059,152.687L794.78,152.687C836.949,152.687 871.245,187.01 871.245,229.152L871.245,333.873L981.44,444.068C1018.891,481.546 1018.891,542.453 981.44,579.931ZM991.605,433.931L885.616,327.942L885.616,229.179C885.616,179.083 844.849,138.316 794.78,138.316L695.99,138.316L590.028,32.354C569.159,11.485 541.442,-0.001 511.945,-0.001C482.448,-0.001 454.704,11.485 433.835,32.354L327.873,138.316L229.11,138.316C179.014,138.316 138.274,179.083 138.274,229.152L138.274,327.942L32.312,433.931C-10.774,476.963 -10.774,547.011 32.312,590.096L138.274,696.058L138.274,794.821C138.274,844.917 179.014,885.684 229.11,885.684L327.873,885.684L433.835,991.646C454.704,1012.488 482.448,1024.001 511.945,1024.001C541.442,1024.001 569.159,1012.488 590.028,991.646L695.99,885.684L794.78,885.684C844.849,885.684 885.616,844.917 885.616,794.821L885.616,696.058L991.605,590.096C1034.637,547.01 1034.637,476.962 991.605,433.931Z" style="fill:rgb(69,28,21);fill-rule:nonzero;"/>
    </g>
    <g transform="matrix(0.058594,0,0,0.058594,0.000146,0.000059)">
        <path d="M488.201,323.038C493.728,315.812 499.39,308.451 504.998,301.064C505.996,299.743 507.667,298.098 507.532,296.777C506.13,286.37 509.15,276.987 513.679,267.927C515.054,265.204 514.623,263.397 512.088,262.184C506.21,259.407 500.44,256.144 494.266,254.257C478.52,249.323 457.031,259.002 453.499,275.557C451.719,283.861 445.707,288.661 438.104,292.112C429.881,295.86 424.973,302.681 422.466,311.417C419.446,322.013 415.995,332.475 412.894,342.585C431.255,337.732 450.668,332.582 470.782,327.243C463.529,320.826 455.225,319.909 445.68,318.615C452.421,315.46 457.382,311.74 464.122,315.649C467.789,317.779 472.184,318.696 476.606,320.26C476.606,311.713 476.363,304.002 476.687,296.291C476.984,288.607 477.199,288.607 484.803,288.849C482.107,301.09 482.457,312.926 488.2,323.037L488.201,323.038ZM722.125,291.627C713.039,296.696 705.112,303.194 700.42,312.981C698.371,317.214 700.824,322.768 705.489,323.361C712.041,324.224 718.727,324.197 725.252,325.194C739.245,327.324 753.158,329.912 767.771,332.447C767.771,328.214 768.715,324.628 767.582,321.932C764.239,314.194 760.437,306.564 756.042,299.365C752.321,293.245 750.056,286.881 751.108,280.006C753.022,267.334 746.255,259.515 736.764,253.502C732.342,250.698 726.491,250.213 722.097,247.382C716.893,244.066 712.202,239.671 707.915,235.141C701.282,228.158 684.97,227.349 678.418,235.896C674.913,240.453 671.192,244.874 667.363,249.161C664.505,252.423 664.343,255.497 666.527,259.218C670.652,266.201 672.998,273.589 673.214,282.055C673.322,286.45 676.449,291.465 679.523,295.024C683.675,299.796 689.122,303.436 694.217,307.723C698.801,301.63 692.815,297.396 690.442,292.274C695.349,291.708 699.852,290.845 702.009,297.154C707.968,291.465 713.468,285.695 722.123,291.627L722.125,291.627ZM653.318,229.586C645.499,225.811 639.325,220.904 634.957,213.678C631.479,207.908 627.677,202.273 623.633,196.854C617.432,188.496 607.779,186.15 598.504,183.642C588.231,180.838 580.601,175.014 575.478,165.712C570.301,156.275 556.955,149.642 546.44,158.19C542.477,161.399 539.106,165.389 535.898,169.352C529.993,176.632 524.385,183.858 514.598,186.527C502.546,189.843 494.835,197.905 490.548,209.742C487.96,216.86 484.724,223.924 480.626,230.287C478.172,234.062 473.508,236.434 469.841,239.508C471.971,239.885 474.047,240.155 476.096,240.64C485.236,242.608 494.376,244.684 503.517,246.707C509.125,247.947 514.976,248.487 520.288,250.455C531.963,254.823 539.89,250.698 548.221,241.773C547.25,240.533 545.714,239.454 545.282,238.025C543.637,232.606 539.566,230.341 534.632,228.534C530.021,226.862 525.734,224.409 521.151,222.252C525.573,217.453 530.426,217.156 535.414,219.664C539.62,214.892 538.029,204.242 548.76,206.83C546.118,212.061 543.664,216.914 541.238,221.767C542.263,221.201 543.26,220.608 544.258,220.041C547.925,224.058 551.538,228.13 554.018,230.88C557.793,226.674 562.43,221.12 567.499,216.024C570.438,213.058 570.708,210.2 568.766,206.884C567.067,203.972 565.153,201.195 563.239,198.202C572.811,196.422 572.811,196.422 579.228,208.286C595.163,204.053 602.55,206.075 615.034,217.157C621.694,223.062 628.758,228.535 636.011,233.739C640.918,237.244 650.678,234.683 653.321,229.587L653.318,229.586ZM490.385,341.318C518.129,336.33 546.305,331.288 574.993,326.138C569.142,320.071 563.022,313.708 555.58,305.997L569.223,305.997C575.748,292.408 573.267,293.594 584.43,294.942C569.115,306.859 578.256,316.674 586.29,326.191C587.746,327.89 591.548,327.566 593.058,327.917C597.534,317.941 600.877,308.693 605.595,300.2C612.929,286.988 618.213,284.778 632.935,287.15C630.967,289.28 629.457,291.167 627.677,292.758C624.361,295.724 620.37,298.097 617.539,301.467C614.169,305.484 610.475,309.717 610.043,315.973C617.781,312.657 624.603,309.044 631.855,306.806C638.002,304.865 643.664,304.676 647.304,312.225C636.061,316.593 624.764,321.015 613.412,325.41C613.52,326.057 613.655,326.731 613.763,327.351C640.833,326.488 667.607,329.292 694.623,335.709C692.709,331.206 691.01,328.402 690.363,325.409C688.449,315.81 683.919,308.045 675.588,302.707C667.014,297.234 663.752,289.442 662.916,279.277C661.838,266.74 656.634,255.739 643.908,250.346C631.209,244.954 621.934,235.247 612.551,225.702C606.053,219.123 599.501,212.167 589.525,214.243C577.742,216.697 567.578,222.197 561.97,234.195C558.357,241.933 553.666,249.132 545.28,253.176C540.508,255.495 535.385,258.164 531.934,261.993C525.355,269.327 518.021,276.418 517.644,287.661C517.482,292.892 516.431,299.444 513.168,302.922C502.599,314.354 495.804,327.673 490.385,341.316L490.385,341.318ZM868.045,454.398C870.337,461.192 872.467,467.097 874.219,473.083C875.297,476.723 875.945,480.525 876.376,484.299C876.457,485.27 875.19,487.049 874.246,487.292C871.334,488.02 868.287,488.209 865.456,488.586C862.436,475.428 861.789,461.597 849.602,451.917C852.837,465.425 855.776,477.828 858.742,490.311C856.181,491.12 854.779,491.551 852.945,492.117C848.55,480.361 845.072,467.959 833.451,460.868C832.426,460.248 831.051,460.221 828.49,459.601C830.62,462.513 832.292,464.158 833.235,466.126C836.983,473.918 840.596,481.737 843.966,489.664C844.397,490.635 843.319,493.304 842.375,493.627C829.703,497.968 816.923,502.039 804.143,506.191C803.604,506.38 802.984,506.326 802.256,506.407C799.533,497.402 794.329,490.095 786.348,484.972C785.458,484.406 784.164,484.433 782.573,484.783C788.478,492.548 794.059,500.205 795.38,510.289C793.331,511.179 791.174,512.149 788.936,513.12C784.433,501.904 779.634,491.092 767.393,486.67C766.908,487.021 766.368,487.371 765.856,487.748C766.827,489.204 767.582,490.93 768.795,492.143C775.482,498.83 779.149,506.999 781.629,516.112C780.173,516.867 778.879,517.541 778.178,517.892C774.026,511.933 770.224,506.002 765.856,500.501C764.13,498.317 761.272,496.996 758.792,495.54C758.091,495.136 756.959,495.54 756.015,495.567C756.312,496.43 756.339,497.508 756.878,498.182C762.891,505.165 767.528,512.957 771.06,521.882C766.935,524.093 762.944,526.223 758.954,528.326C751.405,532.343 751.027,533.017 753.993,541.349C755.907,546.714 758.981,551.649 761.677,556.744C763.295,559.818 764.562,563.377 766.935,565.776C778.879,577.747 790.985,589.557 803.361,601.097C807.19,604.656 812.043,607.137 817.166,610.588C815.413,596.271 808.08,585.998 798.535,576.184C803.577,574.917 806.678,577.074 809.643,579.312C817.192,585.082 820.428,593.467 823.07,602.149C823.609,603.902 823.987,605.735 825.119,607.838C826.548,583.788 836.848,565.858 859.712,556.313C845.799,574.108 833.073,592.335 835.77,616.385C843.104,600.315 851.786,584.758 872.627,582.143C859.362,592.712 850.922,606.894 842.052,621.535C856.719,625.768 871.306,629.974 885.812,634.153C879.988,639.923 874.353,645.531 868.691,651.112C857.69,643.94 844.668,640.327 831.995,635.986C820.374,631.996 808.511,628.76 796.836,625.039C793.223,623.88 789.88,621.857 786.24,620.806C778.744,618.514 771.114,616.654 763.538,614.578C761.3,613.931 759.17,612.745 756.878,612.529C754.532,612.259 752.079,612.853 749.679,613.041C749.868,615.252 749.598,617.679 750.353,619.701C755.853,634.18 761.596,648.605 767.15,662.841C757.282,661.628 747.629,657.61 739.19,651.274C724.253,640.085 707.671,632.913 689.66,628.761C688.501,628.491 687.179,628.41 686.317,627.79C679.037,622.236 670.787,624.851 662.86,624.635C646.871,624.15 634.711,633.236 621.77,640.543C606.213,649.333 590.575,658.015 574.937,666.669C573.535,667.451 571.809,667.694 569.005,668.637C572.456,662.948 575.206,658.499 578.523,653.107C573.939,653.97 570.246,655.399 566.633,655.21C556.306,654.779 546.735,658.311 536.786,659.874C521.768,662.247 506.696,664.835 492.811,671.171C473.695,679.853 453.743,687.106 436.379,699.131C424.893,707.112 413.191,715.551 407.152,729.086C402.865,738.604 399.549,748.822 407.718,757.504C413.623,763.786 421.307,768.559 428.533,773.52C441.664,782.552 455.576,790.614 468.248,800.267C477.307,807.196 484.911,816.04 493.134,824.075C507.181,837.745 512.951,854.192 508.961,873.551C502.679,904.207 487.715,930.118 465.093,951.688C463.421,953.279 461.426,954.573 459.835,955.786C445.221,941.145 430.716,926.64 416.156,912.08C425.539,903.425 434.032,893.395 438.157,880.615C440.287,873.982 441.069,866.918 442.282,860.016C442.794,856.834 442.983,853.599 443.064,850.417C443.118,848.664 443.172,846.696 442.39,845.24C439.775,840.36 437.132,835.453 433.897,831.004C428.612,823.751 423.247,816.471 415.32,811.78C414.08,811.025 412.92,809.785 411.599,809.488C402.621,807.52 396.042,801.561 389.005,796.303C386.767,794.631 384.179,793.472 381.698,792.205C374.742,788.565 370.023,782.768 366.653,775.893C363.444,769.314 360.533,762.547 357.782,755.725C357.027,753.811 356.865,751.303 357.351,749.308C359.131,742.514 360.829,735.665 363.471,729.221C365.251,724.853 368.135,720.728 371.29,717.169C393.426,692.337 421.143,675.701 451.449,662.894C467.411,656.126 484.127,652.352 501.06,649.062C507.504,647.822 513.678,644.991 519.745,642.052C509.742,642.052 499.712,641.836 489.709,642.133C481.62,642.376 473.559,642.996 465.524,643.939C460.401,644.559 457.543,642.51 455.71,638.115C455.198,636.902 454.524,635.742 453.553,633.801C475.392,628.57 497.663,627.896 519.476,623.555C515.566,617.327 511.199,616.194 503.245,617.408C490.222,619.403 477.092,620.859 463.988,622.531C463.422,622.612 462.721,622.423 462.235,622.639C454.227,626.629 449.725,621.749 444.952,615.251C464.014,612.609 482.618,610.02 501.303,607.378C497.474,601.581 497.286,601.635 490.006,602.794C477.738,604.762 465.389,606.488 453.041,608.348C451.882,608.51 450.749,608.806 449.617,609.049C441.582,610.855 441.528,610.882 437.08,603.63C435.489,601.069 434.249,598.291 432.523,594.975C450.965,593.87 468.545,592.764 486.474,591.659C485.449,588.073 484.074,585.673 479.41,586.051C465.902,587.156 452.367,587.911 438.832,588.747C436.621,588.909 434.329,589.124 432.199,588.666C430.689,588.315 428.883,587.156 428.182,585.862C426.834,583.462 426.241,580.712 424.947,576.964C428.344,576.128 431.364,574.969 434.492,574.672C446.814,573.62 459.162,572.866 471.457,571.895C474.908,571.652 475.016,570.951 472.562,565.397C467.358,566.071 462.02,567.015 456.654,567.5C448.431,568.255 440.207,568.686 431.957,569.253C430.339,569.361 428.722,569.496 427.104,569.604C426.538,569.658 425.486,569.847 425.459,569.739C424.246,565.803 422.871,561.866 422.224,557.822C422.143,557.121 425.109,555.207 426.754,555.045C442.122,553.454 457.518,552.079 472.913,550.704C474.045,550.596 475.178,550.704 476.634,550.704C476.068,560.626 482.485,567.555 486.421,575.428C494.564,591.794 509.285,602.175 521.769,614.712C530.451,623.421 537.218,620.239 545.361,616.707C547.922,615.602 550.349,614.361 552.614,613.337C552.237,611.072 551.589,608.861 551.536,606.623C551.239,594.571 552.021,582.707 554.529,570.736C556.012,563.51 557.872,556.689 561.593,550.622C565.772,543.801 572.54,539.028 580.413,538.839C583.918,538.785 588.151,543.342 590.901,546.712C598.747,556.526 600.958,568.309 601.012,580.577C601.039,588.72 600.985,596.862 601.174,605.005C601.498,617.381 598.289,628.786 592.061,639.409C589.769,643.319 587.639,647.336 584.835,652.351C586.695,651.542 587.747,651.299 588.556,650.706C597.507,644.801 606.001,638.169 615.383,633.019C628.325,625.928 640.539,616.68 655.961,615.116C664.886,614.226 673.756,613.633 682.438,617.219C693.466,621.749 704.412,626.71 715.844,629.918C726.602,632.938 735.661,638.735 745.125,644.019C746.5,644.801 748.091,645.178 750.895,646.23C749.169,642.914 747.713,640.757 746.851,638.357C740.542,620.912 734.394,603.414 728.058,585.915C724.526,576.182 720.131,566.691 717.246,556.769C711.611,537.248 708.241,517.242 706.65,496.994C706.623,496.805 707.001,496.563 707.89,495.565C708.78,498.207 709.696,500.364 710.317,502.629C714.55,518.159 718.675,533.77 722.962,549.328C723.636,551.674 724.849,553.966 726.171,556.069C726.683,556.932 728.085,557.39 729.164,557.687C731.456,558.334 733.828,558.658 736.12,559.17L736.12,560.68C733.559,561.381 730.97,562.055 728.139,562.783C729.379,565.641 730.646,568.553 731.833,571.303C735.662,572.301 739.409,573.298 743.13,574.269C743.103,574.862 743.076,575.455 743.049,576.022C740.191,576.265 737.333,576.534 734.232,576.777C734.556,577.963 734.906,579.042 735.203,580.147C736.201,584.137 737.468,587.319 742.914,586.537C745.556,586.16 748.441,587.615 751.245,588.263C751.272,588.829 751.326,589.395 751.353,589.935C747.929,590.906 744.451,591.903 741.026,592.874C741.997,597.269 743.992,600.423 749.6,601.178C759.954,602.607 770.226,604.872 780.768,606.112C777.263,601.097 775.241,595.92 771.035,591.552C762.461,582.735 755.451,572.382 750.274,560.95C743.291,545.555 737.036,529.97 734.231,513.092C733.018,505.758 729.944,498.748 728.245,491.495C725.603,480.063 724.012,468.361 720.803,457.064C717.783,446.333 716.786,435.467 715.869,424.494C715.572,421.339 716.84,419.991 719.94,418.859C730.644,415.03 741.321,411.04 751.729,406.456C761.543,402.088 769.902,395.806 774.081,385.318C774.297,384.806 774.243,384.186 774.351,383.512C771.196,382.326 769.498,383.458 767.88,386.127C763.512,393.164 761.706,394.62 755.639,396.993C762.919,386.37 767.88,375.45 768.257,363.209C767.637,362.697 767.529,362.535 767.421,362.535C763.592,362.562 758.82,361.268 756.232,363.074C754.129,364.53 754.614,369.761 753.94,373.32C753.616,374.992 753.266,376.663 752.915,378.335C752.511,378.443 752.106,378.551 751.729,378.686C750.92,376.826 750.435,374.696 749.222,373.159C748.224,371.946 746.391,371.433 744.908,370.598C744.584,372.081 743.641,373.672 743.991,374.939C744.584,377.177 745.905,379.226 746.957,381.302C749.141,385.562 748.386,387.557 744.261,390.227C735.094,396.078 724.929,396.455 715.061,396.024C709.965,386.318 709.938,376.153 709.669,366.015C709.615,364.02 703.764,358.897 701.122,358.87C690.229,358.735 679.31,358.816 668.039,358.816L668.039,366.312C670.897,366.932 673.863,367.579 676.856,368.199C676.856,368.846 676.829,369.439 676.829,370.086C673.809,370.625 670.789,371.191 667.338,371.785L667.338,380.629C669.252,381.114 671.328,381.627 674.564,382.409C671.49,383.568 669.387,384.323 667.23,385.132C667.5,386.588 667.769,388.152 668.039,389.77C669.414,390.282 670.762,390.768 673.27,391.711C670.789,392.304 669.441,392.601 667.662,393.005L667.662,404.329C667.204,404.464 666.745,404.599 666.287,404.76C665.748,403.412 665.02,402.091 664.642,400.716C661.002,387.127 660.49,373.134 659.007,359.302C658.306,352.588 653.722,348.922 648.95,345.632C643.611,341.965 637.68,339.646 630.777,339.997C626.328,340.213 621.772,338.298 617.323,338.568C603.95,339.323 590.657,340.644 577.338,341.884C565.475,342.962 553.584,343.987 541.829,345.605C535.655,346.441 529.561,348.301 523.629,350.269C522.524,350.62 521.957,353.639 521.769,355.5C520.798,366.581 520.313,377.717 519.073,388.771C517.725,400.715 515.838,412.579 514.139,424.415C512.602,434.984 510.93,445.553 509.448,456.096C508.531,462.783 508.046,469.55 507.021,476.21C505.43,486.159 503.624,496.054 501.736,505.949C500.091,514.415 498.231,522.881 496.29,531.294C495.643,534.044 494.403,536.659 493.459,539.356C492.839,539.221 492.273,539.113 491.679,539.005C492.083,534.61 492.326,530.188 492.973,525.847C494.86,512.77 497.152,499.774 498.878,486.644C500.172,476.749 500.765,466.773 501.763,456.851C502.653,447.765 503.731,438.705 504.594,429.646C505.484,420.425 506.158,411.15 506.967,401.686C505.295,401.282 503.651,400.931 501.332,400.338C505.916,397.076 510.149,393.894 507.479,387.477C505.699,387.342 503.758,387.153 501.79,386.992C501.682,386.641 501.547,386.318 501.439,385.967C503.677,384.403 506.885,383.271 507.937,381.114C509.177,378.499 508.557,375.047 508.8,371.731C504.756,371.488 500.738,371.273 496.748,371.003C496.694,370.518 496.586,370.005 496.532,369.52C498.851,368.442 501.116,367.174 503.515,366.365C509.312,364.424 509.339,364.505 508.422,358.249C503.784,358.465 498.958,358.087 494.483,359.139C492.623,359.57 490.816,362.806 490.115,365.125C489.225,368.01 489.495,371.272 489.306,374.346C488.389,388.312 487.661,402.306 486.583,416.272C485.963,424.603 484.857,432.908 483.941,441.239C483.644,443.693 482.943,445.472 479.87,446.011C457.95,449.84 441.772,463.887 424.894,476.802C415.322,484.136 410.712,493.761 408.231,505.22C406.802,511.826 402.919,517.919 401.517,524.525C399.603,533.827 398.794,543.372 397.877,552.862C396.772,564.429 396.044,576.023 395.073,587.589C394.965,588.721 394.426,589.827 394.048,590.986C379.839,594.41 364.497,593.574 351.609,599.964C359.886,608.835 368.568,617.22 376.091,626.549C379.839,631.187 381.483,637.523 383.829,643.185C384.072,643.724 382.804,644.911 381.78,646.447C380.135,642.672 378.895,639.733 377.628,636.741C377.251,636.876 376.846,636.984 376.496,637.065C376.82,639.222 376.793,641.541 377.601,643.509C379.084,647.014 377.736,648.443 374.446,648.955C372.613,646.232 374.689,641.513 369.566,639.788C369.566,642.08 369.296,643.859 369.593,645.531C370.698,651.867 370.105,652.568 363.607,652.406C362.448,648.793 364.766,644.021 359.347,640.543C359.185,643.212 358.808,645.127 359.023,646.96C359.913,653.781 360.021,653.781 353.01,655.237C352.579,651.193 352.147,647.175 351.716,643.104C351.042,643.077 350.368,643.05 349.694,642.996C349.343,644.937 348.75,646.879 348.669,648.847C348.318,656.693 348.399,656.693 340.688,655.021C339.96,651.92 339.232,648.847 338.531,645.773L337.021,645.962C336.563,649.224 336.104,652.514 335.619,656.046C333.462,656.477 331.251,656.936 329.175,657.34C328.339,653.808 327.611,650.626 326.856,647.472C326.263,647.499 325.67,647.526 325.076,647.526C324.618,650.869 324.159,654.132 323.647,657.88C320.87,657.988 317.877,658.123 314.749,658.257C314.452,653.943 314.21,649.818 313.913,645.72C313.347,645.693 312.754,645.666 312.16,645.639C309.329,649.414 311.675,654.186 310.461,658.581L303.289,658.581C302.75,654.833 302.237,651.139 301.725,647.446C300.97,647.446 300.215,647.473 299.46,647.473C298.948,650.951 298.435,654.402 297.896,657.88L291.91,657.88C291.694,654.591 291.506,651.598 291.29,648.605C290.778,648.551 290.292,648.497 289.78,648.443C289.079,651.786 288.351,655.157 287.677,658.527C285.035,658.311 282.743,658.096 279.966,657.826C280.182,654.213 280.424,650.519 280.694,646.852C275.355,649.656 277.944,654.644 276.65,658.985C273.9,657.933 270.017,657.583 268.723,655.588C267.375,653.593 268.696,649.899 268.831,646.987L267.267,646.61C266.512,648.039 265.595,649.414 265.11,650.924C263.142,656.721 263.169,656.748 256.401,655.912C256.617,653.297 256.859,650.708 257.102,648.12L255.43,647.716C254.459,650.277 253.489,652.866 252.572,655.4L245.67,655.4C246.452,652.057 247.207,649.037 247.908,645.99C247.423,645.828 246.964,645.72 246.506,645.586C245.94,647.285 245.293,648.956 244.834,650.682C243.324,656.101 242.866,656.344 237.177,654.025C238.175,650.897 239.118,647.716 240.089,644.561L239.011,644.022C237.447,646.314 236.018,648.686 234.266,650.816C233.646,651.598 232.325,651.814 231.3,652.272C230.896,651.14 229.979,649.845 230.248,648.875C230.922,646.26 232.162,643.779 233.187,641.245C232.836,641.029 232.459,640.787 232.109,640.571C230.141,643.375 227.957,646.125 226.312,649.118C225.045,651.491 223.831,652.219 221.701,650.574C223.454,646.044 225.206,641.515 226.986,636.985C226.42,636.688 225.908,636.419 225.395,636.095C223.265,639.411 220.757,642.485 219.167,646.044C217.522,649.63 215.689,649.98 212.588,647.608C214.26,643.375 215.931,639.088 217.63,634.828C217.172,634.531 216.713,634.235 216.255,633.992C214.233,637.254 211.537,640.274 210.404,643.779C208.975,648.12 206.171,650.547 202.612,652.596C194.065,657.422 185.491,662.222 177.052,667.156C173.87,668.989 171.633,668.747 168.936,666.024C165.674,662.708 163.517,659.014 161.548,654.808C156.857,644.859 151.626,635.179 146.099,625.716C144.05,622.211 140.491,619.623 137.363,616.333C142.001,614.284 145.775,615.794 148.31,618.787C153.055,624.341 157.315,630.327 161.387,636.42C163.706,639.871 165.162,643.916 167.804,647.636C167.696,645.722 167.534,643.861 167.427,641.947C166.483,625.743 165.459,609.457 171.498,593.954C173.278,589.37 176.028,585.11 178.751,580.985C179.56,579.745 181.69,579.394 183.658,579.071C173.871,601.045 175.03,623.721 176.971,646.477C177.915,636.258 180.449,626.579 184.655,617.223C187.54,610.779 192.447,606.681 198.487,603.607C199.404,603.122 200.725,603.418 202.639,603.256C193.526,617.762 188.538,632.753 185.491,649.173C192.016,645.56 197.678,641.435 204.014,639.089C210.889,636.582 214.179,631.378 217.441,625.797C225.125,612.532 237.42,604.47 250.119,596.974C254.217,594.547 258.828,592.93 263.384,591.501C265.595,590.8 268.264,591.204 270.664,591.501C276.757,592.148 282.878,593.82 288.944,593.685C298.273,593.496 307.818,593.092 316.823,590.854C325.559,588.697 333.513,586.891 340.145,592.768C345.241,590.719 349.636,588.966 354.732,586.917C347.911,568.043 338.743,550.788 319.708,540.677C319.816,540.3 319.951,539.895 320.059,539.518C322.62,539.518 325.586,538.682 327.662,539.68C332.111,541.864 336.425,544.56 340.172,547.769C347.506,554.024 353.626,561.385 357.886,570.175C358.156,570.795 358.614,571.334 359.207,572.143C361.849,559.066 365.381,552.056 375.007,551.84C373.093,557.152 370.693,562.167 369.534,567.478C368.402,572.709 368.536,578.263 368.105,583.979C373.012,582.82 377.38,581.903 381.64,580.69C382.449,580.447 383.285,579.072 383.5,578.075C384.983,570.364 386.412,562.599 387.706,554.807C387.868,553.836 387.517,552.353 386.87,551.76C374.413,540.759 361.418,530.568 345.564,524.69C341.735,523.288 338.284,520.942 333.889,518.623C342.247,509.645 350.498,500.747 358.91,491.688C349.932,489.504 344.269,494.034 328.173,515.9C327.229,515.523 326.178,515.172 325.18,514.687C324.263,514.256 323.427,513.716 322.187,513.015C328.092,500.046 337.07,489.558 346.884,479.609C343.46,478.423 335.937,480.957 332.729,485.136C327.687,491.634 322.861,498.348 318.574,505.331C314.934,511.317 315.285,511.532 309.056,507.461C312.022,496.11 319.463,487.455 326.905,478.746C320.515,476.319 311.86,485.999 303.502,504.576C283.172,498.321 262.816,492.039 241.192,485.379C247.582,477.075 253.46,469.363 259.445,461.544C251.222,459.872 241.866,468.743 235.529,484.138C232.644,483.734 229.651,483.329 225.202,482.763C231.484,469.578 237.443,456.987 243.348,444.531C238.98,444.558 235.879,447.524 233.534,451.083C227.198,460.52 222.453,470.685 219.945,482.036L211.128,482.036C214.714,470.2 218.246,458.66 221.886,446.662C217.95,447.013 215.442,449.143 214.202,452.324C210.589,461.707 207.3,471.198 203.525,481.551C177.749,476.94 150.706,478.369 122.746,479.906C127.357,469.526 131.509,460.089 135.661,450.652C135.364,450.355 135.041,450.113 134.744,449.816C131.293,453.752 127.383,457.365 124.525,461.706C122.044,465.427 120.076,469.795 119.213,474.163C118.054,479.852 115.33,482.737 109.291,482.467C110.531,464.402 116.733,447.847 128.057,431.589C125.738,432.182 124.552,432.209 123.662,432.775C115.978,437.574 112.311,445.232 109.129,453.266C105.678,462.083 103.197,471.034 103.036,480.552C102.874,486.376 101.958,487.346 94.92,487.481L94.92,456.798C85.402,466.1 87.074,477.586 86.966,489.099C72.811,494.006 58.548,498.967 44.258,503.901C43.8,503.577 43.314,503.227 42.856,502.876C45.067,496.27 46.415,489.179 49.731,483.194C53.829,475.806 58.817,468.553 64.722,462.568C102.173,424.632 139.947,387.047 177.694,349.488C180.39,346.846 181.307,344.23 181.28,340.617C181.199,303.598 181.172,266.579 181.253,229.613C181.28,206.83 196.271,187.875 218.407,182.645C222.236,181.755 226.307,181.378 230.27,181.378C267.424,181.27 304.551,181.297 341.705,181.378C344.563,181.378 346.612,180.542 348.661,178.493C386.92,140.126 425.153,101.785 463.52,63.58C488.244,38.936 527.771,36.86 554.895,58.619C557.322,60.56 559.533,62.771 561.743,64.955C599.517,102.729 637.318,140.503 675.011,178.331C677.168,180.488 679.325,181.378 682.372,181.378C719.661,181.27 756.977,181.297 794.238,181.324C817.021,181.351 836.056,196.288 841.287,218.397C842.231,222.36 842.581,226.567 842.581,230.665C842.689,267.549 842.689,304.38 842.581,341.237C842.554,344.607 843.606,346.926 845.978,349.299C876.85,379.982 907.614,410.719 938.27,441.591C940.292,443.64 942.126,446.579 942.611,449.356C944.013,457.741 945.065,466.261 945.577,474.754C946.062,482.627 945.658,482.654 936.976,481.899C936.572,469.523 934.873,457.363 927.809,446.686C927.054,445.608 925.814,444.853 925.275,444.34C926.623,456.743 928.025,469.172 929.454,481.979L921.042,481.979C920.772,469.792 920.826,457.282 911.983,447.279C911.147,446.335 909.502,446.147 906.914,445.014C911.902,457.659 914.005,469.496 913.628,481.413C903.868,482.572 894.458,483.705 884.697,484.891C882.27,474.996 881.084,463.591 872.24,455.529C871.458,454.828 869.975,454.882 868.034,454.397L868.045,454.398Z" style="fill:rgb(69,28,21);fill-rule:nonzero;"/>
    </g>
    <g transform="matrix(0.058594,0,0,0.058594,0.000146,0.000059)">
        <path d="M740.412,777.745C735.397,778.608 730.274,779.471 725.178,780.36C722.293,766.717 719.651,761.972 714.798,762.484C716.308,768.604 717.764,774.671 719.382,781.115C713.127,781.897 707.141,782.652 701.156,783.407C700.671,778.122 700.266,773.296 699.808,768.524C699.7,767.661 699.511,766.664 698.999,766.043C698.244,765.153 697.139,764.506 696.195,763.751C695.629,764.803 694.55,765.827 694.496,766.906C694.334,771.166 694.523,775.48 694.523,779.767C694.55,780.765 694.415,781.762 694.334,782.706L678.372,782.706C678.749,779.524 679.046,776.963 679.289,774.375C679.37,773.189 679.586,771.841 679.1,770.87C678.399,769.549 677.105,768.524 676.053,767.392C675.136,768.551 673.572,769.576 673.384,770.843C672.764,774.726 672.656,778.689 672.332,783.084C667.29,782.868 662.922,782.68 658.366,782.464C657.935,777.557 662.033,772.596 656.209,768.039C655.346,771.517 654.106,774.941 653.675,778.5C653.298,781.466 652.273,782.652 649.226,782.41C645.856,782.194 642.485,782.356 638.441,782.356C638.899,779.282 639.223,776.748 639.627,774.24C639.708,773.674 640.193,773.108 640.166,772.595C639.977,770.276 641.595,766.96 638.036,766.232C634.396,765.477 634.801,769.171 634.315,771.085C631.808,780.657 631.915,780.684 622.182,780.549L618.542,780.549C619.89,774.429 621.184,768.578 622.532,762.457C617.814,762.754 617.814,762.754 612.017,779.686C610.669,779.686 609.186,779.767 607.73,779.659C604.953,779.416 602.176,779.066 599.48,778.796C601.233,771.435 602.904,764.263 604.792,756.309C600.208,756.983 599.615,759.949 598.645,762.214C596.353,767.633 594.331,773.107 592.012,779.065C587.698,778.526 583.438,777.987 579.232,777.42C582.494,769.035 585.487,761.216 588.507,753.424C587.941,753.127 587.321,752.858 586.754,752.534C584.112,757.01 581.227,761.351 578.827,765.988C574.082,775.128 574.216,775.182 563.593,772.809C566.451,766.716 569.309,760.649 572.167,754.556C571.628,754.259 571.142,753.963 570.63,753.693C564.752,758.465 561.085,765.017 557.472,771.542C554.21,770.464 551.19,769.493 547.496,768.307C551.972,760.838 556.178,753.127 561.031,745.874C567.583,736.114 573.838,726.003 581.657,717.321C588.991,709.098 596.729,700.631 607.352,696.21C614.578,693.136 622.1,690.656 629.515,688.013C630.351,687.716 631.51,687.636 632.319,687.986C644.56,693.325 657.556,695.562 670.578,694.187C682.738,692.92 694.952,691.814 707.058,688.902C714.392,687.149 723.667,688.821 730.785,691.895C750.198,700.334 767.642,712.117 781.717,728.213C785.141,732.149 787.541,737.003 790.48,741.398C794.255,746.979 795.495,753.45 797.328,759.948C794.578,761.215 791.963,762.429 788.916,763.804C787.325,760.245 785.815,756.632 784.144,753.127C782.526,749.865 780.855,746.575 778.94,743.448C778.509,742.693 777.107,742.558 776.109,742.127C776.082,743.017 775.812,743.987 776.028,744.796C777.834,750.728 779.425,756.686 781.69,762.402C782.984,765.745 781.798,766.959 778.994,767.821C775.947,768.765 772.874,769.735 769.422,770.787C767.319,764.828 766.941,757.953 762.601,752.965C762.143,753.127 761.657,753.316 761.172,753.477C761.63,758.088 761.927,762.752 762.628,767.336C763.383,772.54 762.871,773.483 757.613,774.373C754.297,774.912 750.98,775.425 747.017,776.072C746.1,772.324 745.264,768.361 744.132,764.532C743.027,760.784 741.921,756.956 737.041,754.071C738.254,762.618 739.306,769.952 740.411,777.744L740.412,777.745Z" style="fill:rgb(69,28,21);fill-rule:nonzero;"/>
    </g>
    <g transform="matrix(0.058594,0,0,0.058594,0.000146,0.000059)">
        <path d="M664.96,812.85C662.83,813.066 660.646,812.688 659.109,813.497C654.714,815.816 650.481,818.458 646.437,821.316C641.53,824.74 641.368,826.385 643.956,831.103C650.589,825.333 657.41,819.428 664.96,812.85ZM710.095,841.781L705.188,841.781C706.132,830.484 705.754,819.375 698.367,809.992C697.639,809.075 696.372,808.59 694.7,807.431C697.45,819.537 699.149,830.78 697.019,842.293C686.261,842.832 675.746,843.345 664.88,843.857C669.113,833.315 674.748,823.662 684.05,816.005C682.405,816.221 680.653,816.086 679.17,816.679C668.843,820.939 660.97,827.814 656.225,838.087C653.475,844.073 652.262,844.666 645.871,843.399C644.011,843.022 642.123,842.752 639.481,842.347C638.915,838.788 638.268,834.825 637.675,830.861C636.354,822.071 631.366,815.439 625.165,809.642C623.925,808.456 621.66,808.348 619.179,808.429C628.05,818.27 629.856,829.729 629.317,842.321L619.017,842.321C618.801,828.139 614.595,815.952 599.604,808.376C605.455,819.781 610.389,830.296 610.739,842.726C609.04,842.726 607.288,842.672 605.562,842.753C602.327,842.942 600.79,841.486 600.277,838.223C599.091,830.458 596.772,823.043 591.514,816.923C589.627,814.739 587.119,813.013 584.881,811.099C584.638,811.342 584.342,811.638 584.072,811.935C585.959,816.546 588.116,821.075 589.599,825.821C591.082,830.647 591.891,835.662 593.185,841.459C586.121,838.817 580.162,836.633 574.204,834.233C573.53,833.963 572.856,832.696 572.829,831.887C572.748,818.46 572.775,804.979 572.775,792.037C589.195,793.277 605.372,794.464 621.523,795.785C629.423,796.432 637.296,797.591 645.223,798.212C648.27,798.428 651.397,797.322 654.417,797.592C668.006,798.724 681.433,797.215 694.968,796.298C701.304,795.867 707.748,795.166 714.138,794.788C726.352,794.087 738.566,793.521 750.699,791.957C757.682,791.04 764.477,788.29 771.379,786.349C773.051,785.891 774.722,785.378 776.933,784.704C777.499,792.361 778.065,799.614 778.632,807.433C776.044,804.413 773.698,801.69 771.406,798.967C770.786,799.21 770.193,799.452 769.573,799.668C770.031,801.825 770.058,804.198 771.029,806.112C775.505,814.902 776.826,824.231 776.152,834.368C774.076,834.826 771.892,835.312 769.465,835.851C766.553,823.287 763.021,811.369 751.427,804.089C755.633,814.955 761.079,825.47 760.837,837.927L755.337,837.927C750.241,829.461 745.873,820.186 733.147,818.622C737.973,825.821 742.152,832.076 746.493,838.574C736.086,839.976 726.487,841.243 715.217,842.726C719.558,832.076 723.521,822.423 727.593,812.474C724.735,810.101 722.767,812.878 721.203,814.928C715.325,822.774 711.146,831.429 710.095,841.782L710.095,841.781Z" style="fill:rgb(69,28,21);fill-rule:nonzero;"/>
    </g>
    <g transform="matrix(0.058594,0,0,0.058594,0.000146,0.000059)">
        <path d="M481.21,455.242C480.806,459.205 480.428,462.98 479.997,467.24C472.852,467.617 466.462,470.125 460.315,476.461C466.759,475.787 472.017,475.221 478.029,474.601C477.274,477.944 476.573,481.315 475.926,484.146C467.46,485.359 459.398,486.195 451.498,487.759C449.152,488.217 447.184,490.698 445.054,492.289C443.652,493.341 442.331,494.473 440.983,495.605C441.145,496.171 441.334,496.737 441.549,497.331C452.873,496.63 464.224,495.983 475.764,495.282C475.413,498.113 475.144,500.378 474.766,503.317C472.42,503.668 469.751,504.234 467.082,504.395C457.106,505.096 447.076,505.285 437.154,506.498C435.321,506.741 433.945,510.731 432.355,513.023C432.706,513.589 433.002,514.182 433.353,514.749C447.104,513.832 460.881,512.889 475.145,511.918C474.956,515.45 474.714,519.036 474.471,522.973C459.588,523.674 445.001,524.348 430.549,525.022C428.931,531.628 430.36,533.731 436.211,533.758C447.239,533.785 458.239,533.704 469.267,533.677C475.064,533.677 475.064,533.677 475.064,539.393L475.064,543.356C456.838,544.704 438.988,548.614 420.519,546.807C415.315,532.086 419.575,518.2 424.186,504.503C426.693,497.088 429.174,489.35 433.542,482.96C441.577,471.177 452.389,462.226 466.652,458.29C471.343,456.996 475.442,453.194 481.212,455.243L481.21,455.242Z" style="fill:rgb(69,28,21);fill-rule:nonzero;"/>
    </g>
    <g transform="matrix(0.058594,0,0,0.058594,0.000146,0.000059)">
        <path d="M364.191,660.497L364.191,688.942C363.975,689.131 363.76,689.346 363.544,689.535C362.843,688.295 362.061,687.081 361.387,685.787C358.933,680.988 357.073,675.649 350.899,674.193C350.198,674.031 349.443,674.112 348.823,674.085C351.708,679.262 354.566,684.385 358.044,690.667C348.23,691.206 339.871,691.719 331.513,692.204C331.162,691.638 330.785,691.126 330.408,690.613C333.94,685.706 337.418,680.799 340.896,675.999C337.714,674.543 334.695,675.81 332.322,678.56C329.734,681.553 326.876,684.573 325.231,688.105C323.371,692.041 320.971,692.419 317.493,691.34C316.522,691.043 315.498,690.828 314.258,690.531C316.415,682.928 322.535,678.29 327.443,672.763C327.173,672.332 326.904,671.873 326.634,671.388C323.83,672.79 320.487,673.626 318.33,675.702C315.445,678.506 313.126,682.065 311.185,685.651C308.516,690.531 307.006,691.259 301.101,688.86C302.072,682.227 307.194,678.237 311.077,673.411C301.047,673.249 299.429,681.958 294.792,688.429C288.699,688.078 281.958,687.809 275.244,687.243C274.273,687.189 273.222,685.868 272.629,684.897C270.823,681.904 269.34,678.669 267.506,675.676C264.945,671.47 264.864,671.524 259.121,670.796C262.087,675.757 265.08,680.718 268.315,686.084C263.084,687.028 259.579,686.947 257.746,681.446C256.856,678.723 254.241,676.323 251.895,674.409C250.574,673.277 248.255,673.331 245.613,672.683C249.334,677.401 252.219,681.068 255.077,684.762C254.7,685.328 254.322,685.921 253.945,686.488C250.656,685.356 247.393,684.142 244.077,683.118C242.459,682.606 240.761,682.093 239.089,682.066C231.593,681.931 230.084,680.556 230.084,673.33L230.084,660.118C274.895,668.746 319.329,666.238 364.194,660.495L364.191,660.497Z" style="fill:rgb(69,28,21);fill-rule:nonzero;"/>
    </g>
    <g transform="matrix(0.058594,0,0,0.058594,0.000146,0.000059)">
        <path d="M644.631,668.92C648.082,666.062 650.778,663.42 653.906,661.424C661.159,656.813 667.01,651.232 668.547,643.305C671.675,647.511 674.398,652.472 678.334,656.058C682.351,659.725 687.609,662.017 692.489,665.063C683.753,671.103 655.82,673.637 644.631,668.919L644.631,668.92Z" style="fill:rgb(69,28,21);fill-rule:nonzero;"/>
    </g>
    <g transform="matrix(0.058594,0,0,0.058594,0.000146,0.000059)">
        <path d="M628.024,483.768C627.269,474.628 626.487,466.135 625.921,457.642C625.544,452.277 629.696,447.073 633.902,447.423C637.542,447.72 640.4,449.796 640.75,453.193C641.721,462.522 642.125,471.878 642.503,481.234C642.53,482.043 640.723,483.58 639.645,483.661C635.87,483.931 632.042,483.769 628.024,483.769L628.024,483.768Z" style="fill:rgb(69,28,21);fill-rule:nonzero;"/>
    </g>
    <g transform="matrix(0.058594,0,0,0.058594,0.000146,0.000059)">
        <path d="M695.735,671.625C696.005,672.056 696.382,672.677 696.706,673.297C699.888,679.498 699.915,679.579 693.497,682.302C677.158,689.204 660.738,687.667 644.534,682.059C638.414,679.929 638.494,679.228 642.458,673.377C660.388,680.576 677.994,677.313 695.735,671.624L695.735,671.625Z" style="fill:rgb(69,28,21);fill-rule:nonzero;"/>
    </g>
    <g transform="matrix(0.058594,0,0,0.058594,0.000146,0.000059)">
        <path d="M292.201,549.451C296.812,556.839 301.422,564.226 306.329,572.099C303.525,577.114 282.36,579.595 276.266,574.337C285.972,568.729 290.88,560.02 292.201,549.451Z" style="fill:rgb(69,28,21);fill-rule:nonzero;"/>
    </g>
    <g transform="matrix(0.058594,0,0,0.058594,0.000146,0.000059)">
        <path d="M269.033,583.631C270.192,581.69 271.163,580.072 272.242,578.292C284.699,581.177 297.155,580.314 309.531,577.348C313.737,576.323 313.98,576.593 316.811,583.199C308.776,588.942 280.304,590.128 269.034,583.63L269.033,583.631Z" style="fill:rgb(69,28,21);fill-rule:nonzero;"/>
    </g>
    <g transform="matrix(0.058594,0,0,0.058594,0.000146,0.000059)">
        <path d="M951.763,455.064C961.038,464.015 970.529,472.724 975.328,485.693C967.644,484.399 960.526,483.212 953.327,481.999C952.788,473.074 952.275,464.177 951.763,455.064Z" style="fill:rgb(69,28,21);fill-rule:nonzero;"/>
    </g>
</svg>
