<?xml version="1.0" encoding="UTF-8" standalone="no"?>
<!DOCTYPE svg PUBLIC "-//W3C//DTD SVG 1.1//EN" "http://www.w3.org/Graphics/SVG/1.1/DTD/svg11.dtd">
<svg width="100%" height="100%" viewBox="0 0 60 60" version="1.1" xmlns="http://www.w3.org/2000/svg" xmlns:xlink="http://www.w3.org/1999/xlink" xml:space="preserve" xmlns:serif="http://www.serif.com/" style="fill-rule:evenodd;clip-rule:evenodd;stroke-linejoin:round;stroke-miterlimit:2;">
    <g transform="matrix(0.058594,0,0,0.058594,-0.000615,0)">
        <path d="M511.955,12.403C487.245,12.403 462.522,21.783 443.739,40.566L333.1,151.205L227.912,151.205C185.675,151.205 151.125,185.755 151.125,227.992L151.125,333.14L40.486,443.779C2.949,481.348 2.949,542.681 40.486,580.25L151.125,690.889L151.125,795.998C151.125,838.235 185.675,872.785 227.912,872.785L333.1,872.785L443.739,983.463C462.524,1002.232 487.241,1011.626 511.955,1011.626C536.669,1011.626 561.386,1002.231 580.171,983.463L690.81,872.785L795.998,872.785C838.235,872.785 872.785,838.235 872.785,795.998L872.785,690.889L983.424,580.25C1020.991,542.683 1020.991,481.345 983.424,443.779L872.785,333.14L872.785,227.992C872.785,185.755 838.235,151.205 795.998,151.205L690.81,151.205L580.171,40.566C561.388,21.783 536.665,12.403 511.955,12.403Z" style="fill:rgb(247,188,63);fill-rule:nonzero;"/>
    </g>
    <g transform="matrix(0.058594,0,0,0.058594,-0.000615,0)">
        <path d="M511.958,0C482.446,0 454.702,11.508 433.837,32.374L327.905,138.306L229.132,138.306C179.024,138.306 138.266,179.064 138.266,229.172L138.266,327.945L32.295,433.916C-10.751,476.962 -10.751,547.007 32.295,590.08L138.266,696.051L138.266,794.824C138.266,844.932 179.024,885.69 229.132,885.69L327.905,885.69L433.837,991.661C454.702,1012.526 482.446,1023.995 511.958,1023.995C541.47,1023.995 569.175,1012.526 590.04,991.661L696.011,885.69L794.744,885.69C844.852,885.69 885.61,844.932 885.61,794.824L885.61,696.051L991.581,590.08C1034.627,547.007 1034.627,476.962 991.581,433.916L885.61,327.945L885.61,229.172C885.61,179.064 844.852,138.306 794.744,138.306L696.011,138.306L590.04,32.374C569.175,11.509 541.47,0 511.958,0ZM511.958,17.269C536.75,17.269 561.518,26.325 579.577,44.411L689.324,154.119L793.643,154.119C835.642,154.119 869.798,188.302 869.798,230.274L869.798,334.632L979.545,444.34C1016.844,481.666 1016.844,542.33 979.545,579.656L869.798,689.364L869.798,793.683C869.798,835.682 835.642,869.838 793.643,869.838L689.324,869.838L579.577,979.585C560.941,998.221 536.436,1007.553 511.919,1007.553C487.429,1007.553 462.897,998.248 444.261,979.585L334.553,869.838L230.273,869.838C188.274,869.838 154.118,835.682 154.118,793.683L154.118,689.364L44.331,579.656C7.005,542.33 7.005,481.666 44.331,444.34L154.118,334.632L154.118,230.274C154.118,188.302 188.274,154.119 230.273,154.119L334.553,154.119L444.261,44.411C462.347,26.325 487.166,17.269 511.958,17.269Z" style="fill:rgb(69,28,21);fill-rule:nonzero;"/>
    </g>
    <g transform="matrix(0.058594,0,0,0.058594,-0.000615,0)">
        <path d="M621.958,441.467L589.197,441.467C589.439,443.75 589.6,445.334 589.788,447.106L621.958,447.106L621.958,441.467ZM427.7,401.16L427.7,408.33C436.857,408.33 445.504,408.437 454.151,408.196C455.252,408.169 456.997,406.585 457.266,405.43C457.749,403.47 457.4,401.16 454.393,401.16L427.7,401.16ZM611.592,387.787C606.705,387.787 602.328,387.68 597.95,387.841C596.795,387.895 595.13,388.378 594.566,389.237C592.525,392.486 590.86,396.004 588.766,399.898L610.625,399.898C610.947,395.789 611.269,391.869 611.592,387.787ZM408.044,607.34L385.245,607.34L385.245,617.544L408.044,617.544L408.044,607.34ZM562.719,817.522C552.595,817.522 552.542,817.629 549.319,825.659C547.869,829.311 549.265,832.184 551.763,834.252C554.421,836.427 557.375,839.166 561.35,836.427C565.432,833.661 569.701,831.11 573.568,828.129C574.508,827.404 574.938,824.96 574.481,823.752C572.172,817.683 566.774,817.576 562.719,817.522ZM479.608,440.527L426.277,440.527C426.841,441.87 427.459,442.622 427.324,443.132C425.74,449.067 429.58,448.583 433.42,448.583C447.062,448.502 460.703,448.529 474.371,448.529L479.607,448.529L479.608,440.527ZM517.552,448.556C520.21,448.556 522.842,448.449 525.501,448.61C527.703,448.771 528.75,448.127 528.723,445.71C528.642,440.151 528.83,434.566 528.589,429.007C528.535,427.96 526.951,426.187 526.011,426.134C520.318,425.865 514.571,425.892 508.852,426.161C507.966,426.188 506.489,427.772 506.435,428.685C506.166,432.794 506.247,436.902 506.274,440.984C506.301,448.503 506.328,448.503 514.035,448.557L517.553,448.557L517.552,448.556ZM666.588,420.817C662.56,420.817 659.123,420.951 655.712,420.763C653.054,420.575 652.033,421.569 652.06,424.2C652.141,430.242 652.06,436.257 652.087,442.326C652.114,447.804 653.269,448.341 658.747,447.858C666.105,447.214 673.543,447.24 680.928,447.214C686.567,447.214 692.206,447.751 697.819,447.697C698.92,447.697 700.88,446.14 700.961,445.2C701.203,442.031 700.719,438.836 700.531,435.586C697.497,435.264 694.758,434.78 691.992,434.754C684.419,434.566 676.793,434.512 669.22,434.62C665.836,434.647 665.299,432.901 665.649,430.135C665.998,427.154 666.267,424.147 666.589,420.817L666.588,420.817ZM335.727,594.531L335.727,564.267L298.32,564.267C305.544,574.015 305.517,585.186 307.907,596.035C317.413,595.498 326.758,595.015 335.727,594.531ZM320.636,654.871L408.688,654.871L408.688,643.082L319.266,643.082C319.776,647.298 320.179,650.843 320.636,654.871ZM542.176,800.362C542.203,800.093 542.23,799.798 542.23,799.503C546.177,799.503 550.286,800.174 554.019,799.369C562.424,797.516 565.244,794.938 560.518,787.178C557.725,782.613 554.315,778.424 550.931,774.235C549.561,772.516 547.789,770.368 545.856,769.965C541.022,768.945 536.001,769.75 532.107,772.785C526.36,777.296 520.882,782.264 515.646,787.393C512.209,790.696 512.773,793.408 516.72,795.798C518.331,796.792 520.077,797.785 521.876,798.054C528.616,798.994 535.437,799.611 542.177,800.363L542.176,800.362ZM627.328,394.232L701.443,394.232L701.443,386.82L696.529,386.82C674.724,386.82 652.946,386.739 631.168,386.901C627.247,386.928 623.3,387.948 619.54,388.485C619.057,395.171 618.627,400.972 618.17,407.148C610.06,407.148 602.031,407.041 593.975,407.202C592.444,407.229 589.705,408.115 589.652,408.679C589.545,411.579 590.109,414.506 590.565,417.433C590.592,417.621 591.612,417.728 592.203,417.728C603.777,417.755 615.351,417.755 627.327,417.755L627.328,394.232ZM427.7,385.907C427.458,388.592 427.297,390.526 427.082,392.835C428.854,392.916 430.251,393.023 431.701,393.023C440.079,393.05 448.458,392.889 456.863,393.184C458.877,393.238 462.368,394.634 462.556,395.816C463.415,401.751 463.442,407.819 463.738,414.049C460.73,414.183 458.528,414.371 456.326,414.371C448.109,414.344 439.919,414.237 431.701,414.21C429.177,414.183 426.76,414.667 426.867,417.728C426.921,420.145 427.699,422.454 431.137,422.132C433.983,421.89 436.857,422.105 439.703,422.105C448.753,422.105 457.802,422.239 466.852,422.051C469.86,421.997 471.739,420.413 471.551,416.68C471.256,409.242 471.47,401.75 471.47,393.371L520.853,393.371C521.068,392.78 521.229,392.136 521.444,391.545C518.705,389.934 516.1,387.168 513.254,386.98C502.593,386.201 491.879,386.148 481.191,386.013C467.549,385.879 453.908,385.932 440.213,385.906L427.699,385.906L427.7,385.907ZM259.732,394.447C263.465,393.615 266.956,392.191 270.527,392.164C294.077,391.976 317.655,392.083 341.259,392.083L380.331,392.083C379.337,387.786 378.451,383.732 377.431,379.247L261.559,379.247C260.888,384.591 260.27,389.854 259.733,394.446L259.732,394.447ZM348.671,564.241C348.671,576.298 348.725,587.818 348.537,599.365C348.537,600.896 347.624,603.393 346.63,603.688C343.945,604.52 340.964,604.52 338.117,604.547C330.115,604.681 322.086,604.574 314.083,604.574C314.217,607.125 314.566,609.461 314.513,611.771C314.379,615.101 315.802,615.987 319.024,615.933C327.537,615.745 336.103,615.879 344.642,615.987C348.079,616.014 351.543,616.309 355.249,616.47C355.249,607.474 355.491,598.988 355.168,590.503C354.873,582.742 358.82,578.15 366.5,578.338C371.629,578.445 376.731,578.66 381.833,578.714C390.48,578.795 399.1,578.741 408.391,578.741C408.66,574.015 408.928,569.101 409.197,564.24L348.671,564.241ZM480.521,426.51C462.529,426.94 445.075,426.161 427.808,426.993C427.271,433.438 427.486,433.706 432.615,433.733L488.094,433.733C488.524,438.862 488.953,443.561 489.356,448.207L497.358,448.207L497.358,418.695C505.307,418.695 512.664,418.641 519.995,418.722C530.763,418.856 528.239,418.641 528.722,409.431C528.722,409.297 528.803,409.109 528.695,409.001C526.762,406.396 527.701,401.267 522.895,401.214C508.931,401.026 494.941,401.133 480.52,401.133L480.521,426.51ZM409.064,634.382C408.661,631.16 410.89,627.105 405.895,626.702C396.147,625.95 386.346,625.708 375.846,625.171C375.846,619.8 375.927,613.382 375.819,606.911C375.685,600.225 376.813,599.016 383.741,599.016C391.663,598.989 399.584,599.016 407.855,599.016L407.855,588.087L364.97,588.087L364.97,624.715L316.688,624.715C317.198,628.421 317.628,631.375 318.058,634.382L409.064,634.382ZM580.63,750.361C580.496,749.636 580.388,748.911 580.281,748.186C574.051,749.77 567.74,751.194 561.564,753.02C557.858,754.148 554.394,762.392 556.623,764.862C563.873,772.837 571.231,780.813 579.072,788.171C581.945,790.856 586.296,791.528 590.216,788.493C594.378,785.244 599.212,782.746 602.891,779.067C608.369,773.562 614.008,767.896 613.31,758.873C612.853,752.858 611.403,750.602 605.173,750.414C596.983,750.145 588.792,750.36 580.629,750.36L580.63,750.361ZM700.531,427.53L700.531,401.348C699.403,401.267 698.571,401.16 697.711,401.16C678.108,401.106 658.532,401.106 638.929,401.026C635.116,400.999 633.612,402.906 633.585,406.424C633.531,411.741 633.451,417.058 633.531,422.348C633.585,424.819 632.672,425.758 630.174,425.732C623.246,425.625 616.345,425.705 609.443,425.705L589.437,425.705C589.706,426.806 590.243,427.746 590.001,428.337C588.121,432.956 590.914,433.278 594.298,433.224C598.863,433.17 603.428,433.17 607.993,433.17L633.45,433.17L633.45,445.952C636.78,446.435 639.868,446.892 643.305,447.402L643.305,443.508C643.305,435.398 643.278,427.315 643.305,419.206C643.332,416.655 643.359,413.594 646.689,413.513C655.792,413.244 664.896,413.432 673.999,413.432C674.241,416.869 674.509,419.904 674.643,422.938C674.75,426.026 676.496,427.476 679.423,427.503C686.297,427.584 693.226,427.53 700.53,427.53L700.531,427.53ZM552.085,718.379C549.561,718.379 545.828,717.976 542.203,718.46C537.96,719.051 533.395,719.642 529.689,721.602C524.318,724.422 525.849,739.003 531.757,741.312C542.794,745.582 554.26,746.924 566.049,745.018C570.346,744.32 574.669,743.622 579.019,743.326C585.41,742.843 591.882,742.869 598.273,742.306C603.429,741.876 606.732,738.412 607.725,733.095C608.719,728.02 607.188,723.32 602.811,721.736C596.876,719.588 590.593,717.332 584.363,717.09C573.998,716.66 563.632,717.842 552.085,718.379ZM437.206,622.19L437.206,686.584L469.725,686.584C467.711,665.209 473.135,643.914 474.478,622.19L437.206,622.19ZM638.338,624.07C639.922,646.627 641.453,668.808 643.037,691.418L683.129,691.418L683.129,624.07L638.338,624.07ZM505.87,377.287C506.192,376.75 506.461,376.159 506.783,375.622C497.519,365.928 488.2,356.288 478.963,346.567C469.86,337.007 460.783,327.474 451.868,317.834C443.919,309.241 436.212,300.487 428.398,291.813C427.861,291.947 427.351,292.055 426.814,292.162C426.814,301.185 426.76,310.234 426.841,319.284C426.922,325.165 427.351,331.046 427.378,336.9C427.405,340.982 426.895,345.063 426.841,349.145C426.68,357.228 426.653,365.391 426.653,373.528C426.653,375.837 427.485,377.341 430.278,377.18C436.32,376.777 442.389,376.321 448.404,376.374C457.534,376.401 466.691,376.965 475.821,377.099C480.332,377.153 484.844,376.481 489.328,376.535C494.833,376.589 500.338,377.018 505.87,377.287ZM379.982,370.869C380.841,361.229 376.679,353.173 371.711,345.6C366.26,337.329 359.144,330.723 349.718,326.91C339.997,322.936 329.954,321.163 319.401,321.674C308.982,322.157 299.234,324.816 290.641,330.321C281.43,336.256 272.73,343.05 268.218,353.683C265.801,359.376 263.25,364.961 260.645,370.869L379.982,370.869ZM397.812,404.033C389.863,404.033 382.908,403.926 375.926,404.06C368.783,404.194 361.64,404.812 354.497,404.812C345.635,404.839 336.827,404.329 327.966,404.329C315.291,404.356 302.59,404.759 289.888,404.732C280.597,404.732 271.332,404.195 262.041,404.007C254.898,403.9 247.701,403.9 240.558,403.926C239.081,403.926 237.631,404.114 236.181,404.383C232.959,405.001 229.575,411.875 230.945,414.883C233.281,420.146 235.483,425.517 237.954,430.726C238.437,431.746 239.861,432.928 240.962,433.009C245.608,433.304 250.307,433.116 254.979,433.251C262.283,433.493 269.587,433.627 276.811,434.298C279.765,434.567 281.752,437.869 285.485,437.252C290.05,436.473 294.803,436.285 299.449,436.366C306.619,436.42 313.735,436.984 320.878,437.145C326.866,437.252 332.855,437.064 338.843,437.011C341.985,436.984 345.1,436.904 348.242,436.85C358.258,436.662 368.248,436.313 378.264,436.393C384.897,436.447 391.503,437.064 397.813,437.413L397.812,404.033ZM701.417,269.847C667.259,306.556 633.961,342.378 600.287,378.576L701.417,378.576L701.417,269.847ZM783.239,454.464C784.77,461.231 786.085,467.112 787.401,473.02C790.113,484.809 792.664,496.678 795.538,508.466C797.283,515.609 799.835,522.591 801.499,529.761C804.909,544.423 808.051,559.165 811.086,573.908C811.677,576.781 813.019,577.399 815.597,577.345C821.183,577.264 826.795,577.318 832.38,577.318L846.988,577.318C855.205,537.011 863.234,497.402 871.317,457.794C869.706,458.358 868.927,459.486 867.96,460.399C865.839,462.386 863.932,465.259 861.408,466.038C852.063,468.911 842.611,471.543 833.024,473.45C817.583,476.538 803.7,472.107 791.294,462.897C788.474,460.802 786.299,457.768 783.238,454.465L783.239,454.464ZM635.519,249.653L465.134,249.653C499.372,274.949 527.192,306.609 555.254,338.457C581.946,308.918 608.263,279.809 635.519,249.653ZM516.639,704.469C516.934,704.174 517.203,703.878 517.471,703.556C512.02,698.132 513.792,691.606 514.195,685.349C514.652,678.475 515.001,671.573 516.048,664.833C517.418,655.73 518.331,646.358 521.392,637.765C526.172,624.311 534.389,612.63 544.62,602.507C547.117,600.01 549.534,597.405 552.327,595.31C555.093,593.242 558.047,592.705 560.759,596.062C564.438,600.6 568.573,604.762 572.387,609.193C582.591,621.116 587.479,635.563 590.755,650.467C594.165,666.015 596.072,681.832 595.401,697.836C595.267,701.434 596.744,702.616 599.939,702.616C606.518,702.616 613.097,702.616 619.676,702.697C621.985,702.724 622.576,701.891 622.496,699.501C622.201,691.633 622.281,683.765 622.039,675.897C621.851,668.7 621.985,661.477 621.019,654.414C619.999,647.002 618.146,639.671 616.078,632.448C614.923,628.474 611.969,624.983 610.976,620.982C607.431,606.293 598.973,594.397 589.601,583.119C582.377,574.472 572.281,569.343 562.828,563.328C555.9,558.951 551.066,560.428 545.185,564.187C530.711,573.478 518.976,585.589 509.604,599.741C504.153,607.958 499.803,617.196 496.714,626.541C492.874,638.034 491.558,649.984 492.256,662.417C492.927,674.206 491.155,686.129 490.215,697.944C489.839,702.455 493.061,704.04 495.988,704.308C502.809,704.872 509.737,704.469 516.638,704.469L516.639,704.469ZM770.027,477.262C765.301,479.142 761.407,481.263 757.218,482.23C745.241,485.023 733.104,483.062 721.127,482.096C717.099,481.774 712.99,479.813 709.338,477.826C705.149,475.543 701.389,472.375 696.18,468.723C694.891,505.297 696.126,541.442 695.723,577.345L794.785,577.345C786.46,543.698 778.324,510.749 770.026,477.262L770.027,477.262ZM474.345,486.419L458.475,486.419L458.475,460.398C451.708,460.398 445.532,460.425 439.382,460.371C436.348,460.344 436.16,462.197 436.374,464.506C436.669,468.427 437.18,472.347 437.153,476.295C436.938,501.349 436.562,526.35 436.374,551.377C436.347,554.143 437.126,556.855 437.153,559.621C437.26,568.483 437.18,577.291 437.18,586.152L437.18,607.984C443.383,607.984 449.076,607.93 454.796,608.011C461.617,608.118 468.464,608.602 475.312,608.494C478.185,608.44 481.22,608.091 482.643,604.385C483.798,601.458 485.839,598.773 487.799,596.222C495.479,586.206 500.098,573.987 510.222,565.663C515.942,560.937 521.044,555.459 526.28,550.195C526.978,549.524 527.354,548.154 527.327,547.107C527.166,536.715 526.548,526.269 526.656,515.85C526.844,502.396 525.555,488.889 528.428,475.489C529.422,470.763 528.589,465.688 528.589,461.257L509.818,461.257L509.818,486.338L493.894,486.338L493.894,460.639C488.416,460.639 483.206,460.854 477.997,460.505C475.177,460.317 474.533,461.687 474.426,463.727C474.265,467.191 474.372,470.628 474.345,474.039L474.345,486.419ZM248.347,450.194C248.777,454.329 249.582,458.357 249.502,462.332C249.421,466.172 251.274,468.293 254.094,470.2C255.114,470.871 256.162,471.65 256.967,472.617C261.371,477.665 265.667,482.821 270.045,487.923C271.065,489.158 272.623,490.098 273.294,491.521C278.02,501.913 280.894,512.789 282.021,524.175C282.209,526.108 282.988,528.149 284.035,529.814C286.908,534.567 290.48,538.998 292.95,543.966C294.481,547 295.984,547.967 299.261,547.967C334.439,547.86 369.644,547.913 404.822,547.886C406.245,547.886 407.615,547.752 408.474,547.725C408.474,539.105 408.42,531.076 408.501,523.02C408.689,503.9 409.065,484.781 409.011,465.688C409.011,464.023 407.051,462.197 405.708,460.72C403.936,458.679 401.277,457.175 400.122,454.893C398.994,452.637 397.866,452.02 395.557,452.047C384.655,452.154 373.752,452.101 362.823,452.101L353.048,452.101C353.048,466.817 353.048,481.022 353.102,495.281C353.102,497.886 352.807,500.007 349.45,499.98C344.455,499.953 339.434,500.141 334.439,499.873C333.472,499.819 331.754,498.262 331.754,497.376C331.62,486.42 331.861,475.517 331.835,464.561C331.835,460.506 331.405,456.451 331.164,452.504L308.178,452.504C308.178,467.3 308.124,481.72 308.259,496.114C308.286,498.96 307.373,500.061 304.446,499.981C298.377,499.847 292.255,499.954 285.649,499.954L285.649,452.638C272.92,451.806 260.729,451.027 248.35,450.194L248.347,450.194ZM683.21,610.589L683.21,460.64L657.27,460.64L657.27,465.286C657.27,472.644 657.377,480.029 657.136,487.386C657.082,488.648 655.552,490.85 654.558,490.904C650.987,491.146 647.334,490.743 643.736,490.34C642.93,490.259 641.668,489.132 641.641,488.433C641.453,483.841 641.614,479.249 641.614,474.657L641.614,460.962L624.992,460.962C624.67,465.42 624.133,469.206 624.079,472.992C623.998,476.913 624.186,480.86 624.509,484.754C624.966,490.823 624.214,491.575 618.172,491.091C615.755,490.876 613.285,491.279 610.868,491.118C609.928,491.011 608.29,490.124 608.263,489.561C608.075,486.607 608.37,483.6 608.397,480.646C608.424,473.906 608.424,467.192 608.424,460.237C601.711,460.559 595.454,460.855 589.304,461.177C589.304,469.743 589.411,477.746 589.277,485.775C589.143,492.784 588.606,499.792 588.552,506.774C588.525,511.312 589.304,515.824 589.223,520.335C589.142,528.364 588.659,536.393 588.498,544.396C588.471,545.309 589.142,546.491 589.868,547.189C593.735,550.868 598.031,554.225 601.683,558.118C606.463,563.247 610.571,568.994 615.378,574.042C624.589,583.79 630.846,594.988 633.665,608.119C633.88,609.166 635.84,610.482 636.995,610.482C652.14,610.643 667.286,610.589 683.21,610.589ZM718.657,189.69C730.768,193.745 742.932,197.827 755.124,201.908C750.317,195.893 745.537,189.985 740.811,184.051C741.106,183.648 741.348,183.272 741.643,182.869C743.013,182.788 744.355,182.654 745.752,182.654C761.515,182.627 777.278,182.6 793.068,182.654C820.136,182.708 841.189,203.761 841.297,230.856C841.324,238.214 841.297,245.572 841.297,253.762C835.873,245.867 827.038,241.597 824.675,230.856C822.876,236.039 821.963,240.228 820.083,243.907C814.82,254.138 806.603,260.986 795.566,264.772C784.422,268.531 775.131,275.433 767.558,284.348C765.329,286.98 764.309,290.712 763.1,294.069C761.543,298.527 760.361,303.092 758.938,307.898C774.513,295.599 792.532,290.014 810.711,284.858L811.543,286.362C806.763,289.208 802.225,292.565 797.176,294.767C786.086,299.627 776.257,306.502 766.939,313.94C760.199,319.338 756.574,327.152 754.801,335.879C753.351,342.807 750.934,349.547 748.678,356.261C746.691,362.034 744.274,367.674 741.83,374.011C742.958,373.501 743.387,373.447 743.683,373.179C751.9,365.633 761.594,360.316 771.288,355.053C778.216,351.294 785.735,348.662 792.878,345.278C797.846,342.969 802.599,340.176 808.158,337.222C805.473,344.016 802.411,349.011 795.51,351.83C788.528,354.676 781.922,358.785 775.746,363.162C769.328,367.7 763.098,372.722 757.781,378.442C751.793,384.967 747.013,392.459 746.61,401.966C746.476,405.215 745.133,408.491 743.844,411.526C741.212,417.622 738.232,423.556 735.6,430.055C757.593,417.944 780.015,407.471 805.768,408.143C800.854,413.299 794.409,415.447 787.373,417.031C775.745,419.663 763.715,422.778 754.961,431.156C747.952,437.842 742.635,446.489 737.318,454.733C735.599,457.418 736.244,461.554 735.761,465.206C769.274,459.057 772.255,453.605 784.178,441.306C787.911,444.367 791.375,447.912 795.43,450.463C804.104,455.968 813.368,460.828 824.056,459.244C835.227,457.579 846.613,455.914 857.193,452.208C863.45,450.006 868.498,444.018 873.788,439.372C876.151,437.304 877.789,435.962 880.045,439.05C882.166,441.95 884.717,444.662 886.356,447.777C891.297,457.229 899.46,462.895 908.725,467.085C913.559,469.314 918.849,470.63 924.031,471.972C926.018,472.455 928.301,472.053 930.395,471.811C938.585,470.71 946.507,472.482 954.456,473.906C956.282,474.228 958.081,475.195 959.854,475.168C968.232,475.061 971.643,480.216 974.328,487.198C984.828,514.239 977.336,544.503 954.725,563.703C954.725,555.889 954.644,548.45 954.752,541.012C954.833,533.305 955.289,525.625 955.235,517.945C955.208,508.493 954.913,499.04 954.537,489.588C954.403,485.882 950.751,483.761 947.179,484.674C941.889,486.044 936.438,488.595 931.201,488.272C920.164,487.601 908.778,487.064 900.132,478.014C896.99,474.765 892.452,472.831 888.8,470.441C880.18,505.109 871.56,539.803 862.672,575.518C865.169,576.082 867.828,577.237 870.486,577.237C891.727,577.344 912.914,577.21 934.155,577.237C936.008,577.237 937.914,577.694 940.466,578.043C936.572,582.205 933.806,586.045 927.227,585.992C889.793,585.616 852.36,585.804 814.926,585.804C801.822,585.804 788.717,585.723 775.666,585.831C751.391,586.019 727.115,586.395 702.866,586.663C700.852,586.69 698.838,586.341 696.045,586.126C695.911,589.214 695.75,592.571 695.588,596.303L921.398,596.303C916.833,603.822 913.288,604.977 904.749,604.547C894.41,604.01 883.991,604.386 873.626,604.386C850.64,604.413 827.653,604.467 804.667,604.467C792.153,604.467 779.64,604.44 767.126,604.413C754.102,604.413 741.132,604.494 728.108,604.359C718.656,604.252 709.203,603.822 699.751,603.527C698.569,603.5 697.415,603.527 696.018,603.527L696.018,630.058C727.678,629.091 758.721,630.622 789.844,631.615C821.773,632.635 853.755,631.83 886.812,631.83C885.174,633.549 884.154,634.676 883.106,635.724C870.055,648.748 856.951,661.691 844.088,674.876C842.557,676.433 841.43,679.146 841.403,681.294C841.269,718.003 841.322,754.684 841.296,791.393C841.296,820.851 820.753,841.34 791.214,841.34C754.962,841.34 718.71,841.367 682.431,841.259C678.94,841.259 676.496,842.172 673.945,844.696C635.894,882.908 597.789,921.121 559.55,959.145C534.711,983.877 496.901,985.784 469.511,963.925C467.014,961.884 464.704,959.575 462.422,957.292C424.988,919.885 387.528,882.505 350.229,844.991C347.49,842.225 344.751,841.258 340.991,841.258C304.282,841.365 267.601,841.365 230.892,841.312C208.12,841.285 189.162,826.569 184.006,804.496C182.636,798.615 182.69,792.412 182.153,786.612C190.692,789.915 198.426,793.245 206.348,795.876C210.269,797.219 214.619,797.595 218.808,797.89C232.235,798.937 245.876,798.588 259.061,800.951C275.066,803.824 291.5,804.898 307.021,810.565C314.97,813.465 323.133,815.748 331.189,818.245C332.827,818.755 334.546,818.997 336.264,819.346C336.452,818.916 336.694,818.487 336.908,818.084C333.981,816.177 331.215,813.761 328.046,812.445C315.264,807.101 302.67,800.603 289.35,797.38C273.426,793.567 257.287,790.049 240.531,789.968C225.735,789.861 210.589,788.84 196.867,782.127C192.221,779.844 188.113,776.38 183.924,773.212C183.092,772.594 182.635,770.956 182.608,769.775C182.527,754.281 182.554,738.84 183.306,723.238C184.138,727.132 184.622,731.16 185.83,734.919C191.603,752.884 204.037,764.055 221.975,769.05C228.661,770.93 235.697,771.682 242.518,773.185C254.414,775.87 266.283,778.744 278.152,781.51C279.468,781.832 280.784,782.154 282.073,782.477C282.261,782.02 282.476,781.564 282.664,781.054C280.328,779.792 278.072,778.288 275.602,777.321C262.605,772.165 249.232,768.218 235.268,766.472C223.909,764.995 213.678,759.973 205.004,753.099C198.586,748.024 194.773,740.021 192.544,731.777C191.577,728.125 190.772,724.419 190.047,720.687C188.355,711.852 186.744,702.991 185.106,694.129C185.509,693.86 185.912,693.646 186.288,693.377C188.678,694.881 191.014,696.492 193.485,697.835C197.835,700.225 202.266,702.481 206.697,704.763C209.651,706.294 212.497,708.2 215.666,709.086C223.319,711.261 231.107,713.007 238.921,714.672C242.036,715.343 245.312,715.129 248.4,715.719C261.558,718.216 274.743,720.633 287.821,723.614C291.339,724.42 294.507,726.917 298.562,728.985C297.864,717.653 299.502,707.099 294.722,696.546C289.62,685.375 284.464,674.526 273.454,668.269C265.72,663.892 257.342,660.669 249.259,656.856C240.908,652.882 232.315,649.364 224.366,644.718C211.906,637.441 203.931,626.028 197.539,613.38C196.653,611.608 195.794,609.835 195.767,607.392C196.599,608.198 197.593,608.923 198.238,609.863C204.817,619.127 214.028,625.223 223.695,630.621C231.617,635.025 239.485,639.671 247.782,643.35C255.704,646.841 264.189,649.097 272.353,652.104C277.536,654.064 282.45,656.776 287.713,658.522C296.36,661.422 303.395,666.175 308.363,673.909C308.551,674.231 309.088,674.339 310.484,675.144C309.356,661.637 308.577,648.855 307.154,636.126C306.697,632.152 303.18,628.392 303.26,624.579C303.448,616.657 297.836,612.871 292.868,609.729C281.187,602.264 268.915,595.631 256.535,589.428C244.37,583.305 231.454,578.633 219.45,572.269C210.911,567.758 205.728,559.567 202.237,550.437C205.218,553.069 207.903,556.264 211.287,558.251C219.128,562.789 227.077,567.274 235.428,570.792C245.31,575.062 255.487,578.794 265.799,581.829C275.278,584.622 284.435,587.844 292.787,593.188C293.969,593.913 295.499,594.182 297.782,594.987C296.09,589.589 294.721,584.944 293.163,580.352C290.585,572.779 288.598,564.911 285.08,557.795C278.555,544.476 267.464,536.151 253.312,531.828C248.317,530.297 243.537,527.934 238.516,526.565C229.816,524.202 220.873,522.671 212.227,520.093C201.862,516.978 193.376,510.829 187.146,501.833C186.958,501.538 187.119,501.027 187.119,500.141C191.12,502.155 194.88,503.927 198.559,505.888C210.938,512.467 224.204,515.636 238.087,517.65C248.372,519.154 258.818,521.221 267.867,527.129C268.807,527.747 269.908,527.988 271.68,528.686C268.377,516.521 266.363,504.948 259.542,494.609C253.473,485.425 244.826,482.256 235.105,479.329C227.452,477.046 220.282,473.099 213.085,469.501C204.197,465.07 196.892,458.572 190.313,451.187C186.258,446.568 181.962,442.218 177.746,437.76C177.988,437.411 178.176,437.089 178.39,436.766C183.277,439.774 188.567,442.298 192.918,445.923C203.794,454.892 216.254,460.504 229.358,464.989C231.587,465.768 234.272,465.392 237.521,465.607C236.366,463.271 235.292,461.472 234.54,459.538C232.553,454.543 230.619,449.468 228.686,444.446C224.309,432.738 215.85,424.736 204.76,419.795C189.373,412.947 175.463,404.139 164.131,391.599C160.398,387.464 157.069,382.952 153.792,378.441C153.282,377.689 153.711,375.595 154.436,374.762C158.007,370.68 161.874,366.787 165.876,362.597C169.447,367.323 173.019,371.217 175.651,375.648C182.176,386.47 191.548,389.88 203.579,387.705C205.486,387.383 207.553,388 209.54,387.947C220.926,387.598 232.339,387.195 242.543,386.846C246.437,373.554 249.632,360.61 254.09,348.097C259.434,333.005 271.115,323.338 285.025,316.517C292.705,312.758 300.922,310.072 309.086,307.414C313.007,306.152 317.384,306.018 321.573,305.669C330.73,304.917 339.887,304.622 348.99,306.555C362.444,309.428 373.319,316.41 380.946,327.957C387.471,337.758 391.446,348.58 394.05,360.1C395.554,366.786 398.561,373.258 401.757,379.408C403.637,383.033 408.229,383.302 412.713,384.779L412.713,255.775C401.757,261.79 397.648,273.713 390.264,283.192C390.318,283.192 389.915,283.326 389.781,283.138C379.738,271.537 365.801,266.543 352.294,260.769C348.696,259.212 345.554,256.472 342.6,253.572C357.584,257.385 373.186,259.292 386.317,270.409C381.51,259.023 382.101,246.859 375.79,236.815C374.42,234.64 373.051,232.008 370.983,230.907C357.073,223.657 343.109,216.433 328.877,209.827C320.794,206.094 314.108,200.992 309.247,193.688C307.26,190.707 306.508,186.867 305.031,182.92C307.018,182.786 308.388,182.651 309.784,182.651C320.525,182.624 331.32,182.517 342.062,182.705C345.338,182.759 347.486,181.711 349.715,179.456C387.175,141.861 424.716,104.374 462.231,66.86C490.776,38.288 533.07,38.288 561.615,66.833C590.939,96.103 620.209,125.4 649.506,154.644C650.661,155.799 652.084,156.631 654.152,158.135C639.114,163.21 634.764,175.348 629.903,187.217C628.748,190.117 626.895,192.776 624.774,196.616C635.811,192.803 646.069,189.204 656.461,185.606C653.131,194.629 645.183,197.421 637.261,200.187C634.441,201.181 631.434,201.664 628.775,202.926C619.511,207.276 608.689,207.652 600.472,214.419C598.136,216.352 595.746,218.313 593.812,220.595C590.858,223.979 588.468,224.086 585.783,220.434C577.029,208.377 564.676,201.851 551.088,196.427C542.522,193.043 534.842,187.431 526.839,182.678C525.872,182.114 525.443,180.691 525.308,178.999C531.028,181.819 536.64,185.095 542.575,187.35C548.214,189.498 554.444,190.062 560.003,192.291C566.824,195.057 573.242,198.897 579.848,202.173C581.567,203.005 583.446,203.543 585.514,203.677C581.943,190.035 576.142,178.193 564.3,170.54C556.217,165.277 547.785,160.658 539.514,155.717C537.258,154.347 535.083,152.897 532.962,151.367C524.074,144.922 514.729,139.068 506.592,131.845C499.879,125.937 495.636,117.881 493.702,108.885C493.568,108.079 493.058,107.328 492.252,105.582C491.124,107.596 490.05,108.858 489.728,110.281C484.438,132.489 471.709,148.842 451.999,160.363C437.874,168.607 424.931,178.462 416.687,193.285C415.103,196.131 412.498,198.414 410.43,201.019C409.678,201.932 409.114,203.006 408.335,204.188C426.461,199.354 444.104,194.628 462.821,189.607C457.101,195.595 450.522,197.341 444.077,199.382C429.147,204.054 415.344,210.848 406.724,224.409C403.206,229.941 401.944,236.976 400.118,243.448C398.695,248.47 397.97,253.733 396.627,260.366C399.232,258.943 401.246,258.11 402.964,256.902C405.918,254.807 408.764,252.579 411.53,250.242C412.389,249.544 413.061,248.335 413.275,247.234C413.57,245.515 413.248,243.689 413.356,241.944C413.705,237.621 415.773,235.607 419.398,235.633C427.776,235.687 436.155,235.606 444.56,235.74C450.414,235.847 456.268,236.465 462.149,236.438C468.648,236.438 475.173,235.794 481.698,235.794C490.291,235.794 498.884,236.224 507.477,236.385C509.625,236.412 511.774,235.741 513.922,235.767C522.891,235.955 531.833,236.358 540.802,236.438C551.892,236.572 562.983,236.465 574.073,236.492C582.183,236.492 590.292,236.599 598.402,236.465C607.613,236.304 616.85,235.74 626.061,235.686C633.311,235.632 640.562,236.116 647.812,236.25C651.276,236.357 654.767,236.143 658.204,236.143C669.832,236.197 681.486,236.358 693.087,236.304C697.947,236.304 702.835,236.116 707.668,235.847C711.239,235.659 714.408,239.177 714.086,242.856C713.844,245.676 714.005,248.549 714.113,251.395C714.301,258.055 714.704,264.687 714.811,271.374C714.892,276.879 714.542,282.357 714.542,287.889C714.569,297.905 714.945,307.922 714.757,317.965C714.435,331.768 713.495,345.597 713.307,359.427C713.173,369.927 713.978,380.48 713.951,391.007C713.897,403.628 713.414,416.249 713.119,428.843C713.119,429.729 712.85,430.723 713.173,431.475C714.005,433.462 714.596,436.282 716.154,437.007C719.135,438.457 719.994,435.02 720.961,433.167C723.297,428.656 725.204,423.903 727.379,419.284C730.709,412.248 728.534,404.81 728.883,397.56C729.205,390.874 727.594,383.999 728.48,377.42C730.199,364.745 732.374,352.017 735.65,339.664C737.852,331.447 742.578,323.901 745.532,315.872C746.982,311.898 747.439,307.386 747.546,303.117C747.788,292.778 751.144,283.675 756.408,274.867C761.671,266.167 769.647,260.635 777.649,255.022C780.845,252.766 784.335,250.887 787.128,248.228C788.444,246.993 789.411,244.012 788.873,242.455C786.188,235.205 783.905,227.712 777.058,222.718C773.621,220.221 771.123,216.407 767.713,213.776C762.315,209.587 755.871,208.217 749.13,207.09C738.603,205.371 728.614,201.585 720.343,194.415C719.323,193.475 718.598,192.186 717.738,191.031C718.06,190.601 718.329,190.145 718.651,189.688L718.657,189.69Z" style="fill:rgb(69,28,21);fill-rule:nonzero;"/>
    </g>
    <g transform="matrix(0.058594,0,0,0.058594,-0.000615,0)">
        <path d="M203.687,274.554C208.494,272.298 213.247,270.231 217.839,267.868C224.338,264.511 230.675,260.913 237.12,257.503C238.033,256.993 239.188,256.966 239.134,256.993C234.22,262.74 229.333,269.48 223.452,275.092C215.745,282.45 207.125,288.841 199.15,295.903C195.31,299.26 192.034,303.261 188.409,306.886C187.093,308.202 185.509,309.249 184.032,310.457C183.549,310.162 183.065,309.839 182.582,309.544L182.582,304.898C182.582,280.569 182.555,256.267 182.582,231.964C182.609,203.392 203.367,182.661 231.965,182.634L288.169,182.634C282.234,195.201 275.44,206.292 261.987,211.475C255.515,213.946 248.909,216.201 242.867,219.504C232.475,225.251 224.956,234.032 219.612,244.612C217.437,248.909 215.665,253.366 213.436,257.555C210.455,263.06 207.233,268.404 203.688,274.553L203.687,274.554Z" style="fill:rgb(69,28,21);fill-rule:nonzero;"/>
    </g>
</svg>
