<?xml version="1.0" encoding="UTF-8" standalone="no"?>
<!DOCTYPE svg PUBLIC "-//W3C//DTD SVG 1.1//EN" "http://www.w3.org/Graphics/SVG/1.1/DTD/svg11.dtd">
<svg width="100%" height="100%" viewBox="0 0 53 61" version="1.1" xmlns="http://www.w3.org/2000/svg" xmlns:xlink="http://www.w3.org/1999/xlink" xml:space="preserve" xmlns:serif="http://www.serif.com/" style="fill-rule:evenodd;clip-rule:evenodd;stroke-linejoin:round;stroke-miterlimit:2;">
    <g transform="matrix(0.058594,0,0,0.058594,0.000092,0.00006)">
        <path d="M439.392,0C437.895,0.001 436.525,0.024 435.346,0.105C425.893,0.748 425.127,13.324 425.127,13.324L416.547,138.047C407.59,142.122 399.205,147.786 391.853,155.137L294.16,252.83L201.28,252.83C163.985,252.83 133.477,283.338 133.477,320.633L133.477,413.478L35.784,511.171C2.639,544.344 2.639,598.501 35.784,631.674L133.477,729.367L133.477,822.177C133.477,859.472 163.985,889.98 201.28,889.98L294.16,889.98L391.853,987.708C408.44,1004.281 430.265,1012.576 452.087,1012.576C473.909,1012.576 495.735,1004.281 512.321,987.708L610.014,889.98L702.894,889.98C740.189,889.98 770.697,859.472 770.697,822.177L770.697,729.367L868.39,631.674C901.561,598.503 901.561,544.342 868.39,511.171L770.697,413.478L770.697,320.633C770.697,283.338 740.189,252.83 702.894,252.83L610.014,252.83L512.321,155.137C508.356,151.172 504.083,147.725 499.591,144.709C498.716,135.901 497.984,128.831 497.638,126.921C495.733,116.516 487.244,113.702 487.244,113.702C487.244,113.702 486.321,113.606 486.233,113.597C482.67,73.007 478.036,21.24 476.886,14.892C474.981,4.487 466.492,1.673 466.492,1.673C466.492,1.673 449.869,-0.008 439.392,-0.001L439.392,0Z" style="fill:rgb(247,188,63);fill-rule:nonzero;"/>
    </g>
    <g transform="matrix(0.058594,0,0,0.058594,0.000092,0.00006)">
        <path d="M377.813,760.006C372.765,760.458 368.099,760.839 363.479,761.292C359.812,761.625 357.741,763.578 356.884,767.292C355.765,772.102 354.265,776.84 352.693,781.53C352.336,782.554 350.955,783.84 349.955,783.959C345.145,784.411 340.336,784.602 335.526,784.721C323.264,785.031 311.026,785.364 298.787,785.435C291.62,785.459 284.453,785.03 277.287,784.745C274.477,784.65 274.144,783.269 275.216,780.84C278.311,773.792 281.835,766.864 284.121,759.554C286.764,751.173 287.978,742.363 290.335,733.839C293.287,723.339 297.216,713.053 299.883,702.481C302.597,691.79 304.335,680.838 306.312,669.98C307.336,664.408 307.764,663.813 313.55,663.289C314.955,663.17 316.312,662.908 318.217,662.622L318.217,675.027L323.622,675.027L323.622,663.598C325.646,663.384 327.884,663.169 330.265,662.908C330.265,666.599 330.194,670.027 330.289,673.48C330.36,677.337 333.456,675.29 335.884,676.599C336.122,671.742 336.313,667.551 336.527,663.337C341.86,661.67 342.432,662.075 342.479,667.385C342.503,670.218 342.479,673.076 342.479,676.147L348.408,676.147L348.408,662.98L359.194,662.98C360.004,673.456 360.813,684.004 361.551,693.671C362.884,693.29 364.099,692.671 365.313,692.671C378.766,692.623 392.194,692.6 405.623,692.719C410.456,692.743 415.29,692.981 420.099,693.314C421.194,693.385 422.266,694.124 424.028,694.885C424.766,690.337 425.742,685.694 426.266,681.004C427.099,673.528 427.599,665.98 428.266,658.48C428.742,653.361 429.528,652.932 436.719,653.98L436.719,664.314L443.029,664.314L443.029,654.338L450.672,654.338L450.672,664.41L456.767,664.41C456.624,661.148 456.505,658.1 456.338,654.624L464.338,654.624L464.338,664.481C466.362,664.576 468.148,664.671 470.267,664.767L470.267,654.576L478.315,654.576C478.744,657.624 479.148,660.552 479.577,663.767L485.363,663.767C485.125,660.719 484.934,657.767 484.649,653.91C488.244,653.91 491.554,653.743 494.816,654.053C495.602,654.124 496.602,655.696 496.864,656.767C498.102,661.434 499.031,666.148 500.174,670.839C500.46,672.006 501.126,673.077 501.603,674.196C501.913,674.077 502.222,674.006 502.532,673.91C501.794,665.124 501.08,656.338 500.27,646.671L566.867,646.671C568.653,661.719 570.415,676.719 572.2,691.72C572.724,691.744 573.271,691.744 573.795,691.768C574.152,688.863 574.819,685.935 574.819,683.006C574.795,679.839 575.057,677.673 579.129,678.149C581.248,678.363 583.462,677.792 585.51,677.578C587.177,679.983 584.415,685.15 590.367,684.007C590.486,682.007 590.605,680.102 590.748,677.793C594.105,677.579 597.415,677.388 600.462,677.174C602.486,679.46 599.7,684.388 604.272,684.079C608.272,683.793 604.939,679.579 607.058,677.103C610.106,677.103 613.725,676.936 617.296,677.222C618.106,677.27 619.082,678.698 619.391,679.698C619.796,680.888 619.224,682.436 619.701,683.531C620.106,684.412 621.653,685.46 622.415,685.269C623.439,685.007 624.772,683.745 624.891,682.745C625.129,681.174 624.51,679.459 624.224,677.84C630.224,676.007 631.034,676.459 632.034,682.364C633.272,689.626 634.391,696.912 635.605,704.269C615.057,704.84 594.914,705.34 574.794,705.888C574.746,706.531 574.723,707.221 574.675,707.888C578.27,708.15 581.889,708.412 585.485,708.65C586.985,710.555 584.295,714.65 588.318,714.698C589.247,714.722 590.199,711.15 591.413,708.65L602.866,708.65C603.176,710.412 603.223,711.983 603.723,713.412C604.056,714.341 605.009,715.055 605.699,715.841C606.485,715.008 607.651,714.27 607.961,713.27C608.366,711.96 608.056,710.437 608.056,708.698L618.461,708.698C618.866,711.198 619.271,713.722 619.675,716.198C624.556,717.222 624.651,717.15 624.366,712.436C624.295,711.055 624.176,709.65 624.056,707.722C627.913,707.96 631.509,708.103 635.056,708.603C635.723,708.674 636.389,710.294 636.604,711.27C637.89,716.865 638.89,722.508 640.318,728.032C640.699,729.556 642.08,730.937 643.342,732.056C644.247,732.889 645.699,733.032 646.818,733.675C651.223,736.127 654.056,739.485 654.699,744.794C655.913,755.366 657.58,765.866 659.104,776.723C647.675,777.675 636.556,778.794 625.437,779.461C608.675,780.532 591.889,781.342 575.103,782.247C569.103,782.557 563.127,782.604 557.174,783.009C553.888,783.247 553.341,781.652 552.531,778.818C548.96,766.437 544.888,754.198 540.983,741.913C540.912,741.651 540.483,741.437 539.578,740.651C542.435,756.628 545.173,771.842 547.888,787.057C539.388,790.628 369.432,790.581 358.837,786.986C360.099,780.724 361.313,774.343 362.837,768.105C363.099,766.986 364.766,765.557 365.908,765.462C369.003,765.176 372.122,765.533 375.242,765.605C376.671,765.629 378.075,765.605 379.742,765.605C380.004,764.01 380.361,762.605 380.456,761.2C381.051,753.843 381.551,746.462 381.551,738.985C378.67,745.58 378.337,752.652 377.813,760.009L377.813,760.006Z" style="fill:rgb(69,28,21);fill-rule:nonzero;"/>
    </g>
    <g transform="matrix(0.058594,0,0,0.058594,0.000092,0.00006)">
        <path d="M420.173,125.227C419.935,129.894 419.863,133.918 419.435,137.918C419.316,138.918 418.221,140.228 417.244,140.632C405.91,145.537 396.601,153.132 387.982,161.799C357.958,192.038 327.767,222.062 297.695,252.253C295.885,254.063 294.124,254.801 291.6,254.801C261.909,254.73 232.242,254.277 202.598,254.872C174.145,255.491 153.335,269.063 140.954,294.897C136.716,303.707 135.002,313.207 134.978,322.945C134.907,352.35 134.93,381.732 135.002,411.137C135.026,413.828 134.264,415.709 132.359,417.637C101.049,448.78 69.882,480.067 38.619,511.234C19.071,530.758 10.833,554.425 13.571,581.616C15.523,600.569 23.381,617.164 36.905,630.784C68.548,662.547 100.263,694.214 132.026,725.81C134.121,727.905 135.026,729.953 135.026,732.953C134.907,762.335 134.955,791.74 134.955,821.145C134.955,850.431 153.622,876.598 181.48,885.384C188.433,887.575 195.98,888.765 203.314,888.86C232.576,889.241 261.839,889.074 291.101,888.955C293.911,888.955 295.911,889.669 297.934,891.717C329.006,922.932 360.221,953.98 391.269,985.195C405.388,999.433 422.27,1008.219 442.08,1010.315C468.033,1013.077 491.39,1006.124 510.224,987.648C542.487,955.957 574.273,923.813 606.178,891.789C608.178,889.789 610.13,888.932 613.011,888.956C642.654,889.075 672.322,889.551 701.965,888.861C730.418,888.194 751.156,874.408 763.442,848.551C767.561,839.86 769.204,830.479 769.228,820.86C769.252,791.598 769.276,762.311 769.18,733.049C769.18,730.12 769.966,728.001 772.085,725.906C803.3,694.834 834.372,663.643 865.587,632.595C879.706,618.547 888.397,601.785 890.54,582.118C893.421,555.856 886.254,532.379 867.516,513.355C836.087,481.402 804.253,449.878 772.49,418.258C770.18,415.972 769.157,413.782 769.157,410.472C769.3,381.067 769.276,351.685 769.228,322.28C769.18,293.351 750.704,267.446 723.132,258.588C716.06,256.302 708.37,255.04 700.965,254.897C671.56,254.492 642.154,254.707 612.749,254.802C610.035,254.826 608.177,253.992 606.296,252.088C575.676,221.373 545.033,190.658 514.294,160.039C510.246,156.015 505.603,152.563 501.389,148.682C500.294,147.73 499.079,146.325 498.913,144.991C498.389,140.777 498.318,136.467 498.008,130.729C503.722,134.705 508.77,137.92 513.532,141.563C516.842,144.087 519.842,147.039 522.794,149.992C552.366,179.516 581.962,209.065 611.439,238.708C613.677,240.946 615.868,241.756 618.987,241.732C645.511,241.637 672.012,241.708 698.56,241.684C716.179,241.66 732.704,245.684 747.18,255.994C770.419,272.494 782.014,295.257 782.228,323.638C782.466,350.424 782.395,377.234 782.18,403.997C782.156,408.021 783.442,410.711 786.204,413.497C815.895,442.974 845.443,472.546 874.968,502.142C896.635,523.833 906.183,550.214 903.826,580.572C902.04,603.382 892.945,623.43 876.778,639.764C846.349,670.527 815.658,700.979 785.014,731.504C783.014,733.528 782.228,735.528 782.228,738.361C782.347,765.528 782.347,792.719 782.299,819.886C782.228,839.148 776.775,856.672 764.513,871.673C749.894,889.578 731.084,900.602 707.774,901.34C678.273,902.316 648.773,901.959 619.248,902.007C615.819,902.007 613.486,903.055 611.081,905.459C581.414,935.269 551.604,964.984 521.889,994.746C506.77,1009.889 488.769,1019.723 467.626,1022.77C435.649,1027.413 407.22,1019.008 384.005,996.269C353.195,966.102 322.909,935.411 292.503,904.839C290.503,902.839 288.503,902.006 285.646,902.029C258.884,902.148 232.074,902.1 205.311,902.1C187.811,902.124 171.453,898.028 157.048,887.814C133.786,871.337 122.166,848.623 121.952,820.217C121.714,792.907 121.833,765.573 121.976,738.263C121.976,735.43 121.119,733.453 119.119,731.477C89.118,701.572 59.142,671.619 29.212,641.666C7.545,619.951 -2.027,593.57 0.354,563.212C2.164,540.092 11.545,519.949 27.95,503.449C58.26,472.948 88.689,442.591 119.166,412.281C121.19,410.233 121.976,408.257 121.952,405.424C121.857,378.257 121.857,351.066 121.881,323.899C121.952,304.637 127.381,287.113 139.667,272.112C154.31,254.207 173.096,243.159 196.406,242.421C225.764,241.469 255.169,241.802 284.551,241.802C288.265,241.754 290.789,240.683 293.385,238.064C323.052,208.23 352.815,178.491 382.577,148.777C392.696,138.658 404.339,130.943 417.768,125.991C418.339,125.777 418.958,125.61 420.173,125.229L420.173,125.227Z" style="fill:rgb(69,28,21);fill-rule:nonzero;"/>
    </g>
    <g transform="matrix(0.058594,0,0,0.058594,0.000092,0.00006)">
        <path d="M160.828,829.176C164.614,829.009 168.114,828.962 171.566,828.652C184.4,827.438 197.186,826.081 210.019,824.938C214.424,824.581 218.876,824.7 223.305,824.819C239.067,825.248 254.877,825.486 270.615,826.367C292.854,827.629 315.044,829.272 337.212,830.962C347.617,831.748 357.974,832.724 368.284,834.224C374.76,835.153 381.07,837.462 387.522,838.772C395.141,840.32 402.903,841.129 410.475,842.796C428.285,846.772 446.333,847.677 464.452,847.487C495.405,847.177 526.358,847.154 557.287,846.606C575.264,846.273 593.24,845.273 611.193,844.249C624.955,843.487 638.741,842.749 652.384,841.058C673.789,838.391 695.147,835.272 716.409,831.653C725.623,830.058 734.552,826.772 744.719,823.962C743.243,829.153 742.528,834.034 740.552,838.343C732.933,854.772 719.861,863.677 701.742,863.796C668.551,864.082 635.36,863.915 602.169,863.844C599.764,863.82 598.145,864.511 596.431,866.249C562.764,900.012 528.953,933.655 495.334,967.465C483.548,979.346 469.381,985.799 452.762,985.989C435.571,986.179 420.928,979.656 408.69,967.346C375.356,933.798 341.832,900.44 308.474,866.939C306.26,864.701 304.117,863.796 300.974,863.82C268.164,863.915 235.377,863.891 202.567,863.868C182.114,863.868 165.304,850.106 160.828,829.177L160.828,829.176Z" style="fill:rgb(69,28,21);fill-rule:nonzero;"/>
    </g>
    <g transform="matrix(0.058594,0,0,0.058594,0.000092,0.00006)">
        <path d="M786.316,466.45C787.34,467.64 788.864,469.783 790.697,471.617C809.697,490.689 828.674,509.784 847.77,528.737C860.175,541.047 866.532,555.857 866.247,573.262C866.009,586.5 861.604,598.524 853.294,608.929C852.508,609.834 850.889,610.667 849.746,610.572C835.222,609.429 820.698,608.024 806.174,606.881C793.864,605.905 781.507,605.31 769.149,604.381C757.22,603.5 745.315,602.286 733.386,601.381C722.076,600.476 710.767,599.762 699.457,598.976C698.814,598.928 698.171,598.857 697.243,598.786C696.481,595.643 695.695,592.524 694.981,589.381C693.148,581.167 691.386,572.928 689.433,564.714C689.028,563.071 688.028,561.5 687.052,560.047C684.552,556.333 681.028,555.38 676.599,555.571C665.242,556.095 653.884,556.214 642.527,556.261C641.003,556.261 639.051,555.404 637.979,554.285C633.812,549.952 630.05,545.213 625.812,540.928C624.55,539.642 622.264,538.737 620.455,538.69C609.479,538.476 598.502,538.595 587.526,538.619C583.645,538.619 578.335,542.762 577.05,546.452C576.455,548.214 575.598,550.214 574.264,551.381C570.859,554.262 569.312,557.595 569.931,562.024C570.098,563.405 569.955,564.81 569.955,566.453L552.836,566.453C551.884,559.524 551.241,552.548 549.907,545.691C549.431,543.072 547.478,540.739 546.145,538.286C545.645,537.429 544.716,536.691 544.502,535.762C542.478,527.119 540.288,525.309 531.383,525.286C530.216,525.262 529.073,525.286 527.692,525.286C526.144,508.095 524.644,491.142 523.144,474.499C559.454,468.023 592.741,456.665 611.217,420.45C613.05,422.545 614.622,423.902 615.693,425.641C623.86,438.689 636.003,447.475 648.122,456.284C664.17,467.927 681.551,476.999 700.694,482.332C711.242,485.284 722.075,485.546 732.79,483.665C743.695,481.76 754.648,479.855 765.243,476.712C772.148,474.664 778.41,470.402 786.315,466.45L786.316,466.45Z" style="fill:rgb(69,28,21);fill-rule:nonzero;"/>
    </g>
    <g transform="matrix(0.058594,0,0,0.058594,0.000092,0.00006)">
        <path d="M277.635,417.723C279.706,420.509 281.802,422.509 282.945,424.985C291.421,443.962 305.398,457.509 323.755,466.772C328.85,469.367 334.208,471.534 339.136,474.367C347.041,478.962 355.755,479.034 364.422,479.581C366.636,479.724 368.851,479.605 371.827,479.605C370.589,496.034 369.351,512.082 368.089,528.677C365.184,528.677 362.494,528.629 359.779,528.701C352.874,528.844 345.945,529.32 339.04,529.082C334.111,528.963 332.254,532.844 329.183,535.225C328.064,536.13 326.373,537.058 325.135,536.796C324.325,536.629 323.492,534.51 323.349,533.225C322.944,528.987 318.635,523.606 314.444,523.415C306.087,523.01 297.729,523.01 289.372,522.915C283.634,522.844 277.896,522.891 272.157,522.891C266.776,522.891 261.704,527.439 261.276,532.891C261.086,535.582 260.538,537.343 257.228,537.177C254.633,537.058 249.537,541.915 249.18,544.677C248.156,552.272 247.347,559.915 246.299,567.535C245.561,572.773 244.68,577.988 243.561,583.202C243.394,583.94 241.68,584.797 240.68,584.845C234.156,585.178 227.632,585.321 221.108,585.464C212.679,585.607 207.727,589.512 205.512,597.821C205.393,598.297 205.202,598.773 205.012,599.416C200.345,599.773 195.678,600.13 191.036,600.44C172.202,601.726 153.369,603.011 134.559,604.345C123.249,605.107 111.94,605.797 100.677,606.797C88.915,607.868 77.153,609.297 65.414,610.607C63.104,610.845 60.795,611.107 58.485,611.464C54.794,612.035 52.247,611.083 49.771,607.726C32.485,584.154 34.033,552.058 54.343,531.034C70.843,513.915 87.867,497.295 104.773,480.581C105.606,479.771 107.868,479.414 108.987,479.938C124.178,486.629 139.821,490.986 156.655,490.891C167.465,490.82 178.274,491.177 188.775,488.367C198.085,485.843 207.513,483.486 216.442,479.986C232.085,473.843 244.657,463.033 256.228,451.152C264.419,442.747 270.133,432.699 275.252,422.247C275.871,421.033 276.538,419.818 277.633,417.723L277.635,417.723Z" style="fill:rgb(69,28,21);fill-rule:nonzero;"/>
    </g>
    <g transform="matrix(0.058594,0,0,0.058594,0.000092,0.00006)">
        <path d="M213.679,747.906C215.631,739.953 217.631,732.882 219.131,725.715C221.583,713.929 223.75,702.072 225.964,690.238C226.94,684.881 227.583,679.452 228.678,674.142C228.892,673.142 230.369,671.928 231.44,671.666C234.345,671.023 237.416,671.142 240.274,670.404C241.726,670.023 243.703,668.618 243.988,667.356C245.655,659.784 246.845,652.141 248.202,644.522C248.273,644.022 248.107,643.522 248.059,643.046C247.726,642.832 247.369,642.617 247.035,642.451C246.249,643.594 245.154,644.665 244.749,645.951C243.987,648.261 243.297,650.713 243.178,653.118C242.868,658.951 239.749,661.332 234.202,661.737C231.059,661.999 227.916,663.023 224.797,663.808C221.416,664.641 219.368,666.546 218.511,670.237C215.63,682.952 212.535,695.595 209.273,708.214C207.582,714.762 207.392,714.619 200.582,714.238C193.058,713.809 185.558,713.571 178.01,713.238C177.129,713.214 176.224,713.119 174.677,713C177.225,704.857 179.439,696.857 182.344,689.142C182.82,687.809 186.225,687.618 189.32,686.499C191.391,676.261 193.368,664.856 196.011,653.617C197.678,646.426 199.606,639.117 202.821,632.521C204.226,629.592 209.012,628.307 212.274,626.283C212.607,626.64 212.964,626.997 213.298,627.354C213.893,624.33 214.488,621.33 215.131,618.092L245.679,618.092C245.203,622.259 244.774,626.378 244.346,630.473C244.775,630.64 245.227,630.759 245.679,630.878C246.369,629.521 247.227,628.211 247.655,626.759C251.631,613.854 253.917,600.568 255.369,587.139C255.393,586.901 255.369,586.639 255.393,586.353C256.345,575.972 258.107,574.662 268.655,576.639C268.988,579.401 269.203,582.211 269.798,584.901C269.869,585.258 271.869,585.187 273.489,585.401C273.608,582.234 273.751,579.425 273.87,576.425L280.132,576.425L280.132,585.544C281.775,585.615 282.989,585.687 284.608,585.806L284.608,576.425L290.751,576.425L290.751,586.306L294.989,586.306L294.989,576.425L302.013,576.425L302.013,586.997L306.68,586.997L306.68,576.283C311.775,576.283 316.514,576.164 321.228,576.402C321.99,576.45 323.109,577.997 323.276,578.997C323.776,581.545 324.133,584.211 323.895,586.759C323.514,590.807 325.681,591.664 328.967,591.759C336.277,591.973 343.563,592.449 350.872,592.402C354.134,592.402 355.705,593.545 356.11,596.64C356.253,597.545 356.562,598.402 356.681,599.331C357.657,606.117 358.8,606.641 365.872,605.998C372.634,605.403 379.42,605.617 386.206,605.522C386.682,605.522 387.206,605.832 387.944,606.07C386.896,613.142 385.73,620.166 384.825,627.189C384.373,630.737 384.277,634.308 384.158,637.856C384.087,640.38 383.706,642.094 380.491,642.07C374.729,642.022 368.991,642.308 365.657,648.356C365.419,648.761 363.586,648.689 362.705,648.308C361.014,647.546 359.253,646.641 357.943,645.379C355.991,643.474 354.419,641.212 352.681,639.069C352.943,638.521 353.181,637.998 353.443,637.45C342.562,637.355 331.657,637.212 320.752,637.212C317.228,637.212 314.847,638.855 314.395,642.688C314.014,646.117 311.514,646.64 308.752,646.379C302.966,645.808 301.252,647.26 300.014,652.832C298.062,661.427 295.752,669.904 293.681,678.475C290.038,693.428 286.514,708.404 282.871,723.333C281.038,730.857 279.085,738.381 277.061,745.833C276.394,748.166 275.132,749.809 272.037,749.452C268.727,749.095 265.299,749.69 261.965,749.595C246.108,749.071 230.25,748.5 213.678,747.904L213.679,747.906Z" style="fill:rgb(69,28,21);fill-rule:nonzero;"/>
    </g>
    <g transform="matrix(0.058594,0,0,0.058594,0.000092,0.00006)">
        <path d="M580.864,572.54C583.745,572.659 585.936,572.778 588.626,572.897C588.769,575.564 588.888,578.373 589.031,581.373L594.364,581.373L594.364,573.278L600.84,573.278C601.316,575.969 601.292,578.85 602.507,581.064C603.031,582.016 606.078,581.588 608.436,581.802L608.436,573.326L614.317,573.326C614.65,575.945 615.007,578.612 615.365,581.421L620.27,581.421L620.27,573.683C620.889,573.397 621.222,573.135 621.532,573.112C628.723,572.612 628.77,572.612 630.08,579.612C632.651,593.398 635.152,607.208 637.747,620.994C638.318,624.018 639.176,626.97 639.938,630.185C636.295,630.875 633.057,631.495 629.843,632.066C629.843,632.399 629.843,632.709 629.867,633.018L656.772,633.018C659.939,643.756 662.891,653.804 665.844,663.852C666.225,663.781 666.582,663.709 666.939,663.638C666.249,658.186 665.772,652.709 664.772,647.328C663.843,642.495 662.32,637.756 661.153,632.947C660.558,630.59 659.51,629.518 656.748,629.78C652.653,630.161 648.486,629.875 644.438,629.875C642.081,616.803 639.771,603.994 637.652,592.136C640.033,590.445 641.7,589.279 643.343,588.136C643.2,587.922 643.057,587.731 642.938,587.517L648.843,587.517C648.843,589.708 648.653,591.779 648.891,593.779C649.105,595.35 649.867,596.827 650.391,598.327C650.867,596.732 651.581,595.208 651.772,593.613C652.01,591.732 651.82,589.78 651.82,587.589L661.415,587.589L661.415,598.208L663.082,598.303C663.296,594.874 663.487,591.446 663.749,587.35C665.511,587.35 667.297,587.421 669.059,587.35C671.011,587.231 671.94,587.945 671.773,590.041C671.654,591.993 671.654,593.993 671.844,595.922C671.939,596.732 672.701,597.47 673.154,598.279C673.63,597.517 674.487,596.779 674.535,596.017C674.678,593.326 674.583,590.612 674.583,587.993C681.345,586.517 681.655,586.803 682.964,592.993C685.059,603.065 687.297,613.112 689.44,623.184C690.059,626.113 691.202,627.756 694.797,628.041C703.178,628.755 709.845,632.16 711.631,641.47C713.75,652.446 715.917,663.423 718.107,674.375C719.393,680.756 720.655,687.137 722.202,693.447C722.416,694.328 724.083,695.328 725.178,695.471C728.511,695.9 731.916,695.923 735.273,696.185C742.059,696.709 747.178,699.566 749.702,706.233C750.321,707.924 751.178,709.566 752.131,711.662C745.25,715.805 742.464,722.043 744.417,730.281C726.964,730.757 710.154,729.543 693.202,732.257C694.202,737.519 691.059,737.662 687.464,737.638C679.131,737.543 670.821,737.686 662.511,737.733C660.511,737.757 659.32,737.376 657.797,735.519C655.297,732.471 651.44,730.59 648.487,727.876C646.892,726.424 645.13,724.4 644.796,722.4C642.201,707.281 640.034,692.09 637.486,676.947C636.7,672.256 635.391,667.613 633.772,663.113C633.296,661.803 631.01,660.684 629.367,660.327C626.724,659.732 623.867,660.208 621.224,659.613C619.557,659.208 617.748,657.946 616.748,656.542C615.296,654.542 613.796,653.637 611.272,653.709C601.272,653.828 591.248,653.757 581.01,653.757C580.867,654.9 580.986,655.757 580.605,656.233C579.772,657.281 578.605,658.971 577.7,658.9C576.2,658.733 573.843,657.662 573.557,656.543C572.7,653.114 572.628,649.471 572.247,645.924C572.104,644.519 571.842,643.138 571.557,641.376C566.39,642.424 565.676,639.447 566.176,635.447C566.581,632.28 566.89,629.066 567.271,625.661C570.2,625.471 573.009,625.304 576.343,625.066C577.843,607.566 579.343,590.161 580.867,572.541L580.864,572.54Z" style="fill:rgb(69,28,21);fill-rule:nonzero;"/>
    </g>
    <g transform="matrix(0.058594,0,0,0.058594,0.000092,0.00006)">
        <path d="M425.519,167.816C427.019,177.173 423.305,185.602 427.067,193.817C427.686,189.198 428.496,184.579 428.829,179.936C429.781,166.412 430.615,152.888 431.329,139.364C433.115,105.84 434.805,72.291 436.543,38.767C436.876,32.791 437.21,26.767 437.495,20.79C437.781,14.98 439.4,13.337 445.019,13.337C448.662,13.337 452.329,13.242 455.972,13.48C461.115,13.766 463.877,16.647 464.21,21.575C465.067,34.194 466.067,46.766 466.805,59.385C467.234,66.742 467.21,74.123 467.472,81.504C467.805,90.861 468.258,100.219 468.543,109.552C468.686,114.1 468.567,118.624 468.567,122.886C467.996,123.315 467.805,123.576 467.591,123.6C459.21,124.219 459.043,124.219 458.662,132.743C458.162,142.91 458.233,153.101 457.733,163.267C457.328,171.958 456.519,180.672 455.876,189.506C451.424,189.816 447.281,189.935 443.161,190.53C442.066,190.697 440.375,192.34 440.375,193.316C440.351,202.816 440.589,212.316 440.851,221.84C440.851,222.221 441.422,222.602 442.256,223.721C442.589,220.316 442.946,217.673 443.089,215.007C443.422,209.555 443.899,204.126 443.803,198.673C443.732,195.03 445.303,194.149 448.446,194.244C452.208,194.363 455.97,194.292 460.089,194.292C460.756,186.054 461.684,177.958 461.994,169.839C462.47,157.363 462.518,144.886 462.804,132.41C462.947,127.505 463.399,127.1 468.256,127.148C472.851,127.196 477.399,127.434 481.971,127.338C485.328,127.267 486.304,129.195 486.423,131.933C487.113,147.124 487.78,162.362 488.423,177.601C488.875,188.268 489.256,198.935 489.733,209.625C489.781,210.839 490.257,212.054 491.066,213.22C494.209,201.148 490.614,188.696 493.161,176.481C496.399,178.457 498.09,181.076 498.209,185.005C498.757,200.767 499.447,216.553 500.209,232.315C500.685,242.601 501.328,252.887 501.971,263.173C502.4,270.173 502.376,270.006 496.138,273.316C492.567,275.197 488.971,275.887 484.923,275.864C469.518,275.816 454.089,276.007 438.684,276.174C431.708,276.245 424.708,276.579 417.731,276.626C413.564,276.674 409.255,272.293 409.398,268.269C410.208,240.84 411.017,213.435 411.898,186.029C411.993,182.41 413.184,179.315 416.089,176.815C419.208,174.148 422.018,171.172 425.518,167.815L425.519,167.816Z" style="fill:rgb(69,28,21);fill-rule:nonzero;"/>
    </g>
    <g transform="matrix(0.058594,0,0,0.058594,0.000092,0.00006)">
        <path d="M467.92,521.851C460.896,520.732 460.896,520.732 459.301,513.565C456.944,502.874 456.944,502.993 445.991,503.327C433.586,503.708 421.181,503.922 408.8,504.065C406.276,504.089 405.062,504.994 404.395,507.375C401.847,516.661 398.728,525.828 396.657,535.233C395.395,540.852 395.3,546.805 395.276,552.638C395.252,556.448 393.014,556.471 390.538,556.59C387.776,556.757 386.157,555.328 385.99,552.59C385.895,550.376 385.919,548.138 386.204,545.947C386.823,540.78 385.633,536.399 381.585,532.804C380.585,531.852 379.894,529.852 380.014,528.399C381.609,508.661 383.157,488.922 385.276,469.231C386.157,461.278 388.443,453.469 390.133,445.588C391.419,439.516 392.681,433.445 394.228,427.445C394.49,426.397 396.061,425.04 397.133,424.945C403.681,424.374 410.252,424.112 417.11,423.731C416.491,433.636 416.086,442.612 415.277,451.541C415.015,454.446 416.063,454.922 418.444,454.851C422.635,454.756 426.801,454.827 431.373,454.827L431.373,474.47C431.683,474.518 431.944,474.565 432.254,474.637C432.468,474.256 432.802,473.899 432.825,473.542C433.063,467.256 433.206,460.994 433.611,454.756C433.778,452.065 432.778,451.304 430.301,451.375C426.539,451.47 422.753,451.399 419.182,451.399C420.063,439.732 420.92,428.351 421.801,416.565C430.134,416.16 438.706,415.732 447.54,415.303C447.564,425.232 443.278,434.637 445.254,444.28C445.873,444.423 446.468,444.542 447.087,444.637C447.801,442.089 448.706,439.565 449.111,436.946C451.135,424.803 452.992,412.612 454.873,400.421C454.944,400.04 454.897,399.635 454.992,399.254C456.325,393.063 456.325,393.063 462.754,393.135C472.421,393.254 482.088,393.564 491.731,393.373C495.874,393.278 497.731,394.897 498.35,398.683C500.85,413.159 503.564,427.588 505.874,442.041C508.017,455.494 509.946,468.994 511.636,482.518C512.874,492.613 513.565,502.756 514.493,512.852C514.874,516.852 515.112,520.9 515.612,524.9C516.16,529.352 515.231,530.519 510.612,530.519C503.802,530.543 497.016,530.614 490.231,530.471C487.969,530.423 486.945,531.161 486.517,533.376C485.779,536.924 484.66,540.4 483.85,543.971C482.683,548.971 478.659,547.281 475.564,547.495C472.731,547.709 471.492,546.138 471.135,543.281C470.206,536.162 469.016,529.114 467.921,521.852L467.92,521.851Z" style="fill:rgb(69,28,21);fill-rule:nonzero;"/>
    </g>
    <g transform="matrix(0.058594,0,0,0.058594,0.000092,0.00006)">
        <path d="M442.357,616.531C441.833,620.412 441.238,623.745 440.952,627.103C440.785,629.151 439.881,629.865 437.952,629.674C437.047,629.603 436.119,629.674 435.19,629.674C427.785,629.626 427.761,629.626 426.142,636.793C425.452,639.817 425.118,642.936 424.285,645.96C423.952,647.341 422.999,649.555 422.094,649.651C419.57,649.984 415.88,651.032 414.88,647.675C413.451,642.913 410.142,643.389 406.618,643.413C401.308,643.437 396.046,643.318 390.451,643.27C392.618,631.77 394.88,621.365 396.475,610.912C397.88,601.912 398.427,592.793 399.546,583.769C401.641,566.983 403.832,550.221 406.141,533.458C406.665,529.434 407.546,529.267 413.808,529.648C417.165,529.886 416.499,532.219 416.689,534.148C416.856,536.1 416.784,538.053 416.903,540.005C416.951,541.029 417.141,542.053 417.284,543.386L422.236,543.386L422.236,530.005L431.093,530.005L431.093,543.696L436.617,543.696L436.617,530.1L444.76,530.1C444.76,533.124 444.927,536.243 444.689,539.291C444.427,543.148 444.999,545.886 450.308,544.72C450.118,540.982 450.07,536.958 449.713,532.982C449.523,530.625 450.165,529.744 452.642,529.672C460.928,529.41 461.023,529.386 461.904,537.672C463.404,552.053 464.833,566.482 466.38,580.863C466.57,582.863 467.428,584.792 467.951,586.744C468.332,586.72 468.713,586.696 469.07,586.696C469.284,584.482 469.57,582.291 469.641,580.077C469.784,576.601 469.831,573.077 469.831,569.577C469.831,567.41 470.783,566.696 472.926,566.577C478.236,566.22 483.545,565.577 489.141,565.053C489.331,564.053 489.498,562.839 489.689,561.743C490.094,561.505 490.284,561.291 490.522,561.267C498.855,560.481 498.76,560.529 498.975,568.696C499.023,570.434 497.475,573.244 500.761,573.601C501.142,573.672 502.19,570.41 502.452,568.601C502.714,566.291 502.5,563.958 502.5,562.029C502.976,561.577 503.071,561.41 503.19,561.41C511.904,560.481 511.904,560.481 511.928,569.339C511.928,570.744 511.928,572.125 512.547,573.672C517.999,570.886 513.833,565.315 516.023,561.577C516.166,561.482 516.404,561.291 516.642,561.291C525.142,561.315 525.071,561.315 525.261,569.696C525.309,571.029 526.309,573.41 527.047,573.482C530.166,573.744 528.666,571.053 529.023,569.553C529.118,569.053 529.023,568.505 529.023,567.982C528.952,561.696 528.975,561.887 535.333,561.22C538.619,560.91 540.095,561.744 540.405,565.149C541.048,572.149 542.048,579.102 542.762,586.102C543.095,589.316 543.643,591.364 547.857,590.983C554.238,590.435 560.643,590.721 567.048,590.673C569.239,590.649 571.429,590.673 574.429,590.673C573.477,600.673 572.572,610.15 571.596,620.245C565.929,620.483 560.501,620.674 555.072,620.912C552.31,621.007 551.072,619.579 550.715,616.983C550.477,615.197 549.953,613.483 549.548,611.745L510.5,611.745C508.143,611.745 505.786,611.888 503.452,611.697C499.761,611.411 496.642,611.697 496.047,616.364C495.976,616.983 495.047,618.031 494.571,618.007C490.38,617.936 486.023,621.007 481.999,617.317C481.499,616.841 480.618,616.555 479.928,616.555C467.523,616.531 455.118,616.531 442.356,616.531L442.357,616.531Z" style="fill:rgb(69,28,21);fill-rule:nonzero;"/>
    </g>
    <g transform="matrix(0.058594,0,0,0.058594,0.000092,0.00006)">
        <path d="M452.841,287.618C443.436,287.618 434.507,287.451 425.555,287.713C423.15,287.808 420.96,287.689 420.817,285.284C420.746,283.736 422.293,281.451 423.722,280.712C425.817,279.641 428.46,279.283 430.889,279.283C446.556,279.164 462.247,279.188 477.914,279.259C480.366,279.259 483.176,279.14 485.176,280.235C487.081,281.306 489.271,283.878 489.271,285.807C489.271,289.236 486.08,288.617 483.557,288.331C478.652,287.76 473.723,287.283 468.819,286.974C467.819,286.926 466.771,287.831 465.748,288.284C466.843,288.689 467.915,289.379 469.034,289.474C474.082,289.926 479.129,290.212 484.725,290.617C484.368,295.903 484.177,300.784 483.535,305.617C483.44,306.403 481.297,306.903 480.273,307.427C479.035,302.927 478.963,298.498 476.702,295.927C475.011,293.927 470.607,294.26 467.416,293.57C467.345,293.927 467.249,294.308 467.178,294.665C469.535,295.213 471.892,295.736 474.392,296.308C474.725,299.022 475.13,301.713 475.368,304.427C475.582,307.07 476.416,308.713 479.535,308.903C483.178,309.141 486.773,309.927 490.369,310.617C492.512,311.022 494.06,311.855 494.369,314.593C495.202,321.641 496.512,328.689 497.298,335.76C497.393,336.784 496.036,338.546 494.917,339.093C489.56,341.688 483.798,341.664 478.06,340.736C476.941,340.546 475.441,338.76 475.227,337.522C474.394,332.308 472.965,330.784 467.655,330.808C457.202,330.808 446.75,330.879 436.297,330.903C435.654,330.903 434.987,330.903 434.345,330.951C426.535,331.57 425.583,332.475 424.202,340.213C422.321,350.785 420.369,361.309 418.297,372.452C415.773,372.238 413.202,372.142 410.678,371.785C408.249,371.428 407.773,369.666 407.94,367.428C409.059,350.928 410.226,334.38 411.154,317.856C411.297,315.285 412.154,314.404 414.511,314.261C425.273,313.594 436.059,312.785 446.869,312.213C449.464,312.094 450.964,311.737 451.131,308.665C451.536,301.57 452.25,294.498 452.845,287.617L452.841,287.618Z" style="fill:rgb(69,28,21);fill-rule:nonzero;"/>
    </g>
    <g transform="matrix(0.058594,0,0,0.058594,0.000092,0.00006)">
        <path d="M483.817,345.938C484.341,360.724 484.865,375.129 485.388,390.106C484.269,390.177 483.055,390.344 481.84,390.368C474.126,390.558 466.435,390.963 458.744,390.844C454.911,390.796 452.744,392.13 452.244,395.844C451.815,399.201 449.911,400.392 446.72,400.368C438.815,400.32 430.863,400.344 422.505,400.344C422.886,396.13 423.243,391.249 423.791,386.415C425.243,373.629 426.767,360.867 428.339,348.129C428.672,345.438 428.839,342.557 430.03,340.2C430.601,338.986 433.149,338.176 434.84,338.152C441.364,338.033 447.912,338.366 454.412,338.509C457.674,338.58 460.936,338.604 464.198,338.509C467.269,338.39 469.341,338.652 471.317,341.985C472.603,344.199 477.103,344.604 480.174,345.652C481.126,345.985 482.222,345.842 483.817,345.938Z" style="fill:rgb(69,28,21);fill-rule:nonzero;"/>
    </g>
    <g transform="matrix(0.058594,0,0,0.058594,0.000092,0.00006)">
        <path d="M326.247,566.619C330.247,566.833 333.58,567.024 337.319,567.214C337.581,563.357 337.867,559.619 338.057,555.88C338.2,553.856 338.081,551.999 341.081,551.951C343.986,551.88 344.272,553.499 344.248,555.665C344.224,556.951 344.248,558.213 344.248,559.451C347.177,559.689 347.177,559.689 349.105,552.165L357.939,552.165L357.939,559.594L362.701,559.594C362.868,557.118 363.034,554.832 363.225,552.165C365.963,552.379 368.511,552.594 371.225,552.784C371.654,555.284 372.106,557.641 372.582,560.237L376.582,560.237C376.32,557.856 376.106,555.618 375.82,552.856C377.677,552.761 379.249,552.689 381.082,552.594C381.725,555.761 382.32,558.642 382.939,561.832L394.63,561.832C393.178,572.927 391.82,583.618 390.392,594.261C390.13,596.142 389.225,597.047 386.94,596.952C379.916,596.619 372.844,596.404 365.797,596.595C362.535,596.69 361.368,595.452 360.892,592.547C359.916,586.69 359.844,586.785 353.82,586.809C346.082,586.88 338.391,586.738 330.677,586.714C328.915,586.69 327.201,586.762 327.082,584.262C326.844,578.5 326.558,572.714 326.249,566.619L326.247,566.619Z" style="fill:rgb(69,28,21);fill-rule:nonzero;"/>
    </g>
    <g transform="matrix(0.058594,0,0,0.058594,0.000092,0.00006)">
        <path d="M424.236,832.619C428.046,832.095 431.855,831.19 435.665,831.095C445.332,830.809 454.999,830.905 464.666,830.809C478.762,830.642 492.857,830.452 506.953,830.19C517.644,830.023 528.334,829.857 539.025,829.404C559.549,828.499 580.073,827.499 600.574,826.261C611.979,825.571 623.336,823.999 634.718,823.38C643.028,822.88 651.361,823.261 658.623,823.261C650.79,826.88 641.337,829.047 631.527,830.285C622.717,831.356 613.979,833.166 605.169,834.38C600.264,835.07 595.335,835.38 590.383,835.594C581.645,835.999 572.93,835.999 564.192,836.523C549.906,837.333 535.668,838.404 521.405,839.333C519.857,839.452 518.286,839.547 516.714,839.547C501.452,839.571 486.166,839.999 470.904,839.476C457.285,839.024 443.689,837.571 430.094,836.381C428.07,836.214 426.142,835.095 424.165,834.429C424.189,833.81 424.213,833.239 424.236,832.619Z" style="fill:rgb(69,28,21);fill-rule:nonzero;"/>
    </g>
    <g transform="matrix(0.058594,0,0,0.058594,0.000092,0.00006)">
        <path d="M322.217,549.009L322.217,572.557L258.049,572.557C258.478,568.485 258.906,564.176 259.406,559.842C259.739,557.128 260.406,554.437 260.501,551.699C260.596,548.532 262.406,548.508 264.692,548.866C266.597,549.128 268.478,549.414 270.406,549.723C270.835,548.485 271.216,547.628 271.406,546.771C272.644,541.009 272.62,540.938 278.359,541.009C288.669,541.176 298.955,541.319 309.288,541.652C310.431,541.7 312.479,543.057 312.502,543.843C312.645,548.391 315.169,549.2 318.955,548.7C319.788,548.581 320.717,548.867 322.217,549.01L322.217,549.009Z" style="fill:rgb(69,28,21);fill-rule:nonzero;"/>
    </g>
    <g transform="matrix(0.058594,0,0,0.058594,0.000092,0.00006)">
        <path d="M480.589,633.17C484.018,633.527 486.97,634.027 489.946,634.027C492.279,634.027 493.256,635.027 493.565,637.146C494.113,640.86 494.708,644.575 495.327,648.718L429.802,648.718C430.707,644.266 431.373,640.242 432.493,636.361C432.731,635.528 434.541,635.004 435.707,634.67C436.517,634.456 437.493,634.837 438.398,634.837C444.517,634.885 445.351,634.266 445.708,628.123C445.946,624.48 446.803,622.504 451.16,622.623C459.232,622.861 467.351,622.599 475.422,622.194C479.16,622.004 480.184,624.075 480.541,626.956C480.803,628.861 480.589,630.861 480.589,633.17Z" style="fill:rgb(69,28,21);fill-rule:nonzero;"/>
    </g>
    <g transform="matrix(0.058594,0,0,0.058594,0.000092,0.00006)">
        <path d="M421.557,679.654C402.866,680.249 384.223,680.821 364.913,681.44C365.437,675.654 365.603,670.392 366.508,665.273C367.913,657.487 368.151,657.535 376.294,657.511C389.461,657.511 402.628,657.63 415.795,657.463C418.676,657.439 419.819,658.439 420.747,661.106C422.866,667.201 423.438,673.201 421.557,679.654Z" style="fill:rgb(69,28,21);fill-rule:nonzero;"/>
    </g>
    <g transform="matrix(0.058594,0,0,0.058594,0.000092,0.00006)">
        <path d="M203.659,608.751C204.064,613.894 203.564,614.275 198.826,614.632C186.897,615.537 174.992,616.656 163.111,617.632C152.754,618.489 142.396,619.013 132.11,620.156C123.134,621.156 114.253,622.894 105.276,624.132C97.371,625.227 89.419,626.156 81.49,627.132C79.299,627.418 77.133,627.727 74.942,627.942C69.132,628.394 68.037,627.799 64.37,622.156C110.609,614.418 156.848,608.537 203.658,608.751L203.659,608.751Z" style="fill:rgb(69,28,21);fill-rule:nonzero;"/>
    </g>
    <g transform="matrix(0.058594,0,0,0.058594,0.000092,0.00006)">
        <path d="M699.003,606.641C706.146,606.998 712.741,607.117 719.313,607.689C724.289,608.118 729.242,609.189 734.242,609.808C745.409,611.213 756.576,612.879 767.766,613.784C779.766,614.689 791.79,615.213 803.41,618.665C804.577,618.998 805.672,619.665 806.672,621.094C805.22,621.261 803.743,621.642 802.291,621.57C785.338,620.856 768.338,620.26 751.409,619.26C735.361,618.26 719.313,616.855 703.289,615.45C702.218,615.355 700.837,613.974 700.36,612.855C699.598,611.141 699.503,609.164 699.003,606.641Z" style="fill:rgb(69,28,21);fill-rule:nonzero;"/>
    </g>
    <g transform="matrix(0.058594,0,0,0.058594,0.000092,0.00006)">
        <path d="M487.239,629.292C487.596,625.173 489.287,622.959 493.668,623.506C496.073,623.816 498.573,623.554 501.501,623.554C500.739,618.102 503.93,618.435 507.525,618.482C518.978,618.625 530.454,618.53 541.93,618.315C544.978,618.267 547.144,618.625 546.597,622.506C549.216,622.863 551.692,623.649 554.05,623.435C558.622,623.03 559.979,625.506 560.455,629.292L487.239,629.292Z" style="fill:rgb(69,28,21);fill-rule:nonzero;"/>
    </g>
    <g transform="matrix(0.058594,0,0,0.058594,0.000092,0.00006)">
        <path d="M358.415,659.701L317.176,659.701C315.866,659.701 314.485,659.915 313.295,659.487C311.7,658.963 308.89,659.749 309.152,656.558C309.39,653.963 309.509,651.129 313.224,651.272C317.153,651.415 319.248,649.605 320.51,645.915C320.939,644.677 323.153,643.296 324.629,643.248C330.486,642.986 336.344,643.391 342.248,643.272C345.748,643.201 347.605,644.486 347.748,648.082C347.843,651.701 350.129,652.963 353.153,652.082C357.177,650.939 358.034,652.796 358.082,656.13C358.082,657.035 358.225,657.916 358.415,659.701Z" style="fill:rgb(69,28,21);fill-rule:nonzero;"/>
    </g>
    <g transform="matrix(0.058594,0,0,0.058594,0.000092,0.00006)">
        <path d="M681.178,584.912L643.368,584.912C643.606,579.864 643.701,575.078 644.13,570.316C644.249,569.411 645.701,567.959 646.559,567.887C655.94,567.554 665.297,567.411 674.702,567.363C675.631,567.339 677.202,568.125 677.393,568.815C678.75,573.934 679.845,579.125 681.179,584.911L681.178,584.912Z" style="fill:rgb(69,28,21);fill-rule:nonzero;"/>
    </g>
    <g transform="matrix(0.058594,0,0,0.058594,0.000092,0.00006)">
        <path d="M489.996,558.433C490.377,554.266 490.71,550.528 491.091,546.338C492.448,546.243 493.805,546.005 495.163,546.005C507.925,546.124 520.711,546.41 533.473,546.386C536.449,546.386 537.735,547.434 538.116,550.243C538.497,552.862 539.092,555.481 539.616,558.434L489.996,558.433Z" style="fill:rgb(69,28,21);fill-rule:nonzero;"/>
    </g>
    <g transform="matrix(0.058594,0,0,0.058594,0.000092,0.00006)">
        <path d="M574.912,674.157C575.079,672.252 574.936,669.943 575.674,667.919C576.103,666.776 577.984,665.49 579.269,665.467C582.198,665.372 584.769,665.396 584.841,661.467C593.913,661.467 602.746,661.419 611.627,661.538C612.722,661.586 613.818,662.752 614.937,663.324C615.747,663.753 616.58,664.372 617.437,664.395C620.056,664.538 622.651,664.538 625.247,664.324C628.247,664.11 629.509,665.491 629.723,668.324C629.866,670.062 630.223,671.8 630.533,674.157L574.912,674.157Z" style="fill:rgb(69,28,21);fill-rule:nonzero;"/>
    </g>
    <g transform="matrix(0.058594,0,0,0.058594,0.000092,0.00006)">
        <path d="M500.032,643.261C499.722,640.594 499.389,637.666 499.032,634.404C504.223,634.142 509.151,633.833 514.032,633.737C523.366,633.499 532.723,633.427 542.033,633.285C545.414,633.214 548.819,633.285 552.2,633.118C557.843,632.88 558.891,633.689 559.486,639.142C559.581,640.285 559.772,641.404 560.01,643.261L500.032,643.261Z" style="fill:rgb(69,28,21);fill-rule:nonzero;"/>
    </g>
    <g transform="matrix(0.058594,0,0,0.058594,0.000092,0.00006)">
        <path d="M454.412,524.561L413.102,524.561C413.435,520.228 413.602,516.037 414.221,511.846C414.292,511.179 416.245,510.37 417.34,510.346C425.316,510.203 433.269,510.203 441.221,510.203C442.673,510.179 444.245,510.655 445.507,510.203C450.317,508.37 451.388,511.441 452.221,514.965C452.935,517.989 453.602,521.013 454.412,524.56L454.412,524.561Z" style="fill:rgb(69,28,21);fill-rule:nonzero;"/>
    </g>
    <g transform="matrix(0.058594,0,0,0.058594,0.000092,0.00006)">
        <path d="M450.85,290.423C449.85,296.352 448.969,302.066 447.826,307.709C447.683,308.447 446.278,309.376 445.421,309.423C441.016,309.733 436.564,309.899 432.159,309.78C431.04,309.732 429.254,308.518 428.992,307.494C427.516,302.018 426.444,296.446 425.111,290.422L450.85,290.423Z" style="fill:rgb(69,28,21);fill-rule:nonzero;"/>
    </g>
    <g transform="matrix(0.058594,0,0,0.058594,0.000092,0.00006)">
        <path d="M627.877,569.085L581.757,569.085C581.662,567.728 581.614,566.585 581.543,565.442C581.257,561.871 582.591,560.442 586.448,560.537C598.067,560.799 609.71,560.894 621.33,560.489C625.735,560.346 627.854,561.465 627.878,565.894L627.877,569.085Z" style="fill:rgb(69,28,21);fill-rule:nonzero;"/>
    </g>
    <g transform="matrix(0.058594,0,0,0.058594,0.000092,0.00006)">
        <path d="M380.331,549.319L338.782,549.319C339.139,547.414 339.139,545.39 339.901,543.7C340.425,542.533 341.925,541.129 343.02,541.081C354.068,540.652 365.139,540.438 376.211,540.414C377.306,540.414 378.902,542.033 379.402,543.271C380.116,544.985 380.021,547.057 380.331,549.319Z" style="fill:rgb(69,28,21);fill-rule:nonzero;"/>
    </g>
    <g transform="matrix(0.058594,0,0,0.058594,0.000092,0.00006)">
        <path d="M450.548,401.861C449.715,406.028 449.024,409.409 448.31,413.004C444.5,413.004 440.905,412.885 437.286,413.028C431.548,413.171 425.833,413.695 420.143,413.599C418.452,413.575 416.786,411.932 415.143,411.004C416.595,408.552 414.476,403.79 418.857,403.432C429.191,402.599 439.572,402.361 450.548,401.861Z" style="fill:rgb(69,28,21);fill-rule:nonzero;"/>
    </g>
    <g transform="matrix(0.058594,0,0,0.058594,0.000092,0.00006)">
        <path d="M216.896,606.336C218.039,597.979 218.991,597.098 226.563,596.979C234.349,596.908 242.135,596.955 249.73,596.955C250.016,597.693 250.182,597.979 250.159,598.193C248.897,606.336 248.897,606.336 240.611,606.336L216.896,606.336Z" style="fill:rgb(69,28,21);fill-rule:nonzero;"/>
    </g>
    <g transform="matrix(0.058594,0,0,0.058594,0.000092,0.00006)">
        <path d="M547.138,580.876C556.376,576.614 565.329,579.043 574.162,578.233L574.162,587.876L548.257,587.876C547.9,585.638 547.519,583.185 547.138,580.876Z" style="fill:rgb(69,28,21);fill-rule:nonzero;"/>
    </g>
    <g transform="matrix(0.058594,0,0,0.058594,0.000092,0.00006)">
        <path d="M620.12,557.364L588.357,557.364C587.786,551.245 588.619,550.292 594.452,550.316L612.405,550.316C618.715,550.292 618.715,550.292 620.119,557.364L620.12,557.364Z" style="fill:rgb(69,28,21);fill-rule:nonzero;"/>
    </g>
    <g transform="matrix(0.058594,0,0,0.058594,0.000092,0.00006)">
        <path d="M273.027,539.195C273.051,535.504 274.289,534.362 277.337,534.433C287.361,534.671 297.409,534.671 307.409,534.766C308.338,534.766 309.409,534.718 310.1,535.171C310.814,535.671 311.41,536.719 311.505,537.6C311.576,538.052 310.457,539.124 309.862,539.124C297.671,539.219 285.457,539.195 273.028,539.195L273.027,539.195Z" style="fill:rgb(69,28,21);fill-rule:nonzero;"/>
    </g>
    <g transform="matrix(0.058594,0,0,0.058594,0.000092,0.00006)">
        <path d="M496.303,541.506L496.303,537.077L532.399,537.077C532.566,538.482 532.756,539.791 532.947,541.506L496.303,541.506Z" style="fill:rgb(69,28,21);fill-rule:nonzero;"/>
    </g>
    <g transform="matrix(0.058594,0,0,0.058594,0.000092,0.00006)">
        <path d="M375.141,654.273C375.403,651.725 376.57,650.321 379.57,650.273C389.808,650.011 400.023,649.559 410.499,649.178C410.785,650.654 411.047,652.011 411.523,654.273L375.141,654.273Z" style="fill:rgb(69,28,21);fill-rule:nonzero;"/>
    </g>
    <g transform="matrix(0.058594,0,0,0.058594,0.000092,0.00006)">
        <path d="M421.542,690.064C418.661,689.945 415.566,690.326 412.875,689.445C411.708,689.064 411.375,686.135 410.661,684.278C420.852,681.659 422.518,682.611 421.542,690.064Z" style="fill:rgb(69,28,21);fill-rule:nonzero;"/>
    </g>
    <g transform="matrix(0.058594,0,0,0.058594,0.000092,0.00006)">
        <path d="M363.251,690.314C364.275,683.6 364.275,683.6 371.394,684.266L371.394,689.623C370.037,689.861 368.68,690.171 367.299,690.29C366.037,690.385 364.728,690.314 363.251,690.314Z" style="fill:rgb(69,28,21);fill-rule:nonzero;"/>
    </g>
    <g transform="matrix(0.058594,0,0,0.058594,0.000092,0.00006)">
        <path d="M407.092,683.814C406.782,686.028 406.568,687.671 406.306,689.505L399.044,689.505L399.044,683.814L407.092,683.814Z" style="fill:rgb(69,28,21);fill-rule:nonzero;"/>
    </g>
    <g transform="matrix(0.058594,0,0,0.058594,0.000092,0.00006)">
        <path d="M387.289,683.704L394.146,683.704C393.836,685.728 393.551,687.561 393.265,689.514L386.932,689.514C387.051,687.704 387.17,685.895 387.289,683.704Z" style="fill:rgb(69,28,21);fill-rule:nonzero;"/>
    </g>
    <g transform="matrix(0.058594,0,0,0.058594,0.000092,0.00006)">
        <path d="M375.817,683.731L382.056,683.731C381.675,685.707 381.342,687.469 381.008,689.207C375.151,690.588 374.603,690.017 375.817,683.731Z" style="fill:rgb(69,28,21);fill-rule:nonzero;"/>
    </g>
    <g transform="matrix(0.058594,0,0,0.058594,0.000092,0.00006)">
        <path d="M216.557,608.625C218.295,608.744 219.533,608.863 220.867,608.958L220.867,615.196C219.176,615.339 217.676,615.506 215.629,615.696C215.939,613.339 216.224,611.22 216.558,608.624L216.557,608.625Z" style="fill:rgb(69,28,21);fill-rule:nonzero;"/>
    </g>
</svg>
