<?xml version="1.0" encoding="UTF-8" standalone="no"?>
<!DOCTYPE svg PUBLIC "-//W3C//DTD SVG 1.1//EN" "http://www.w3.org/Graphics/SVG/1.1/DTD/svg11.dtd">
<svg width="100%" height="100%" viewBox="0 0 60 61" version="1.1" xmlns="http://www.w3.org/2000/svg" xmlns:xlink="http://www.w3.org/1999/xlink" xml:space="preserve" xmlns:serif="http://www.serif.com/" style="fill-rule:evenodd;clip-rule:evenodd;stroke-linejoin:round;stroke-miterlimit:2;">
    <g transform="matrix(0.058594,0,0,0.058594,-0.000835,0)">
        <path d="M511.968,0C482.497,0 454.751,11.479 433.881,32.349L327.909,138.321L229.126,138.321C179.027,138.321 138.282,179.067 138.282,229.165L138.282,327.948L32.31,433.92C-10.751,476.981 -10.751,547.006 32.31,590.093L138.282,696.065L138.282,794.848C138.282,844.947 179.028,885.692 229.126,885.692L327.909,885.692L433.881,991.664C454.751,1012.507 482.496,1024.013 511.968,1024.013C541.493,1024.013 569.185,1012.507 590.055,991.664L696.027,885.692L794.81,885.692C844.882,885.692 885.654,844.919 885.654,794.848L885.654,696.065L991.666,590.093C1034.7,547.005 1034.7,476.981 991.666,433.92L885.654,327.948L885.654,229.165C885.654,179.066 844.881,138.321 794.81,138.321L696.027,138.321L590.055,32.349C569.185,11.479 541.494,-0 511.968,-0ZM511.968,15.286C536.859,15.286 561.757,24.353 579.904,42.5L690.102,152.698L794.81,152.698C836.981,152.698 871.317,186.994 871.317,229.165L871.317,333.873L981.515,444.071C1018.968,481.551 1018.968,542.463 981.515,579.943L871.317,690.102L871.317,794.85C871.317,837.021 836.981,871.317 794.81,871.317L690.102,871.317L579.904,981.515C561.191,1000.228 536.586,1009.598 511.968,1009.598C487.377,1009.598 462.745,1000.255 444.032,981.515L333.873,871.317L229.125,871.317C186.954,871.317 152.658,837.021 152.658,794.85L152.658,690.102L42.46,579.943C4.98,542.463 4.98,481.551 42.46,444.071L152.658,333.873L152.658,229.165C152.658,186.994 186.954,152.698 229.125,152.698L333.873,152.698L444.032,42.5C462.192,24.353 487.077,15.286 511.968,15.286Z" style="fill:rgb(69,28,21);fill-rule:nonzero;"/>
    </g>
    <g transform="matrix(0.058594,0,0,0.058594,-0.000835,0)">
        <path d="M641.166,486.754C651.358,481.146 660.903,476.049 670.26,470.657C672.013,469.686 673.55,467.799 674.332,465.965C677.81,457.795 680.857,449.463 684.255,441.266C684.767,440.053 686.115,438.974 687.329,438.327C691.589,436.008 696.092,434.148 700.218,431.694C701.89,430.669 703.211,428.701 704.047,426.867C704.64,425.519 704.155,423.658 704.155,421.717C703.292,421.528 702.025,421.07 700.731,421.043C685.497,420.666 670.262,420.396 655.055,420.045C652.763,419.964 651.9,420.773 651.765,423.065C651.199,432.125 649.365,440.699 642.543,447.413C641.087,448.842 639.928,450.649 638.822,452.374C638.418,453.048 638.552,454.1 638.337,455.367C642.435,453.587 645.995,452.05 649.149,450.675C646.56,462.404 643.972,474.187 641.168,486.752L641.166,486.754ZM92.293,485.729C92.077,485.81 91.862,485.891 91.646,485.972C92.185,489.747 92.401,493.603 93.318,497.297C97.578,514.446 99.439,532.296 107.393,548.42C114.107,561.956 121.414,575.114 133.79,584.47C140.45,589.458 147.865,593.341 153.635,599.758C159.297,606.068 166.119,611.325 172.348,617.177C174.667,619.361 177.714,621.572 178.577,624.349C180.896,631.602 182.541,639.071 183.727,646.567C185.21,656.004 185.399,665.684 187.232,675.041C189.794,688.064 193.703,700.872 196.534,713.896C198.88,724.816 208.937,728.618 215.463,735.683C215.652,735.872 215.975,735.953 216.272,736.007C225.898,737.22 235.497,739.324 245.096,739.431C256.96,739.539 267.584,742.559 277.884,748.005C281.497,749.919 285.892,750.836 290.045,751.214C300.453,752.104 310.942,752.454 321.377,752.913C325.287,753.102 329.25,752.94 333.214,752.94C333.241,752.563 333.268,752.185 333.295,751.808C329.655,750.81 326.069,749.624 322.402,748.923C312.56,746.928 302.692,744.663 292.661,743.53C287.646,742.91 282.846,742.586 278.451,739.863C275.593,738.056 272.681,736.277 269.607,734.956C265.212,733.042 260.736,731.181 256.152,729.968C251.406,728.728 246.364,728.377 241.538,727.46C235.687,726.301 229.836,725.087 224.066,723.604C220.749,722.768 216.3,722.31 214.629,720.045C210.45,714.41 206.324,708.154 204.599,701.521C201.714,690.547 200.716,679.087 198.991,667.789C198.452,664.446 198.937,660.671 197.508,657.812C191.576,645.759 190.201,632.574 187.397,619.739C186.076,613.807 186.75,607.12 179.928,603.345C169.116,597.386 158.708,590.753 148.165,584.416C145.145,582.636 141.829,581.234 139.159,579.05C124.329,566.997 116.51,550.388 110.281,532.996C107.126,524.233 105.401,514.93 102.165,506.194C99.55,499.13 95.64,492.523 92.296,485.729L92.293,485.729ZM516.351,143.938L516.081,142.752C509.313,144.316 502.41,145.367 495.858,147.579C490.438,149.413 484.587,151.624 480.435,155.345C469.865,164.917 463.529,176.808 461.506,191.449C459.78,204.095 463.259,214.8 470.647,223.913C478.628,233.728 488.389,241.547 502.087,243.138C510.715,244.163 519.182,246.428 527.837,244.217C543.287,240.28 556.311,232.515 560.76,216.364C565.56,199.161 564.643,182.066 554.154,166.481C550.676,161.277 546.874,156.666 541.238,153.511C537.059,151.192 533.365,147.956 529.32,145.368C528.026,144.532 526.327,144.128 524.763,143.993C521.986,143.777 519.182,143.939 516.35,143.939L516.351,143.938ZM460.779,474.512C451.962,487.562 440.394,496.272 427.29,503.013C426.778,502.824 426.265,502.609 425.78,502.447C426.373,493.118 427.047,483.842 427.56,474.513C427.695,471.951 427.857,469.255 427.263,466.801C425.51,459.278 422.76,451.917 421.601,444.286C419.687,432.395 418.338,420.396 417.556,408.37C416.882,398.259 417.394,388.066 417.394,377.766C411.92,376.499 406.689,375.285 401.512,374.099L400.218,375.366C401.377,375.959 402.483,376.525 403.642,377.065C408.954,379.384 408.954,383.725 408.711,388.713C408.01,404.649 408.9,420.53 411.839,436.277C413.457,444.878 414.94,453.507 416.585,462.647C414.751,461.002 412.864,459.384 411.084,457.659C409.844,456.446 408.981,454.558 407.498,453.776C396.281,447.655 395.337,436.196 392.56,425.653C392.129,423.954 391.805,422.229 391.293,419.775C367.808,423.388 344.376,427.001 320.945,430.614C322.347,449.489 323.749,467.77 325.151,486.24C319.785,487.049 314.878,487.858 309.997,488.532C306.087,489.098 303.04,486.267 302.933,481.926C303.284,481.872 303.634,481.845 304.012,481.791C313.261,480.2 313.153,480.011 312.263,470.79C311.427,462.431 311.184,454.019 310.942,445.606C310.726,438.73 310.915,431.855 310.915,424.035C336.207,420.098 362.766,415.946 389.298,411.82L389.298,368.004C381.586,368.597 374.36,368.597 367.35,369.811C355.001,371.914 342.813,374.961 330.491,377.253C308.623,381.298 286.783,385.45 264.834,388.847C239.488,392.73 214.493,398.069 190.064,405.861C184.509,407.668 178.955,409.501 173.589,411.82C171.944,412.521 170.111,414.705 169.841,416.404C168.358,426.434 167.279,436.492 166.066,446.576C165.958,447.735 165.931,448.868 165.823,450.324C159.702,448.76 154.444,446.199 152.045,440.32C148.189,430.829 144.738,421.176 140.99,411.199C143.875,409.986 146.491,408.799 149.187,407.829C152.099,406.75 155.038,405.888 155.712,402.167C155.82,401.628 156.602,400.927 157.222,400.711C163.936,398.257 170.677,395.884 177.391,393.431C179.683,392.595 181.22,393.296 182.946,394.887C183.971,395.831 186.047,396.37 187.422,396.073C199.502,393.242 211.528,390.276 223.526,387.148C225.198,386.717 227.517,385.611 228.002,384.29C229.997,378.897 235.228,379.086 239.111,377.9C244.612,376.147 250.705,376.282 256.503,375.311C259.065,374.907 261.464,373.666 263.999,373.046C266.695,372.372 269.284,369.837 272.169,373.504C273.032,374.61 276.429,374.124 278.559,373.774C292.526,371.293 306.412,368.543 320.38,366.116C325.988,365.172 331.732,364.849 337.421,364.094C341.061,363.636 344.351,362.611 344.62,357.919C344.647,357.299 346.48,356.059 346.966,356.247C355.918,360.238 364.169,355.654 372.689,354.44C377.974,353.658 383.367,353.685 388.705,353.469C392.129,353.361 395.581,353.469 400.03,353.469C400.812,351.797 402.106,349.263 403.239,346.647C403.94,345.002 404.398,343.492 401.945,342.387C401.082,342.01 401.217,339.394 400.786,337.291C392.158,331.575 390.944,331.467 384.608,336.32C378.083,329.687 369.724,328.77 360.287,329.633C361.851,322.838 358.453,319.009 353.223,316.34C351.47,315.423 349.502,314.587 347.561,314.426C338.312,313.59 329.01,313.105 320.031,316.556C319.06,316.933 317.631,316.179 316.418,315.855C313.803,315.127 311.187,313.752 308.545,313.59C298.407,312.862 297.247,314.102 293.364,323.647C291.719,327.745 288.699,331.305 286.138,334.972C285.707,335.565 284.224,335.754 283.307,335.646C278.966,335.242 275.434,336.293 273.438,340.931C269.636,337.21 266.05,337.021 261.304,338.909C254.563,341.632 244.533,334.703 243.535,327.611C242.591,321.14 232.022,316.071 225.119,318.578C223.879,319.036 222.045,318.982 220.886,318.362C214.792,315.207 208.86,313.886 202.659,318.146C201.688,318.82 200.151,318.901 198.884,318.739C195.028,318.308 191.712,319.575 190.795,323.242C189.555,328.23 185.025,328.877 181.519,331.736C181.411,330.253 181.249,329.04 181.249,327.799C181.249,295.281 181.222,262.709 181.249,230.137C181.303,202.364 202.389,181.306 230.161,181.306C267.155,181.279 304.149,181.252 341.144,181.36C344.541,181.36 346.86,180.308 349.206,177.963C386.82,140.187 424.543,102.546 462.211,64.877C490.685,36.403 533.233,36.376 561.68,64.823C599.375,102.491 637.07,140.133 674.658,177.882C677.166,180.444 679.646,181.36 683.152,181.36C720.146,181.252 757.167,181.252 794.135,181.306C817.027,181.333 835.983,196.109 841.294,218.192C842.211,221.913 842.642,225.796 842.642,229.625C842.75,252.706 842.669,275.76 842.75,298.868C842.75,301.645 842.48,303.263 839.11,304.153C835.713,305.043 832.747,307.631 829.7,309.411C827.004,308.305 824.172,306.553 821.206,306.229C819.642,306.067 817,308.063 816.299,309.707C814.843,313.05 814.412,316.825 813.791,319.441C808.587,322.299 803.707,324.969 798.961,327.584C792.625,324.294 785.965,319.765 778.657,317.419C773.669,315.801 769.651,313.455 765.741,310.435C759.216,305.447 753.284,305.77 747.379,311.648C746.543,312.484 745.923,313.508 745.087,314.533C743.361,313.104 742.256,311.621 740.773,311.028C737.295,309.545 734.356,311.055 732.954,314.803C731.929,317.661 731.12,320.627 730.285,323.566C728.937,328.366 728.991,328.393 723.895,331.52C722.061,328.851 720.039,326.181 718.34,323.377C716.102,319.737 713.055,317.041 708.876,317.014C703.187,316.987 699.708,313.751 696.338,310.057C692.401,305.77 687.386,303.451 681.885,302.157C677.22,301.025 673.985,303.478 671.1,306.633C669.617,308.251 668.188,309.95 666.894,311.46C666.355,311.541 666.031,311.703 665.815,311.622C658.427,308.791 654.679,310.975 654.625,319.064C654.571,324.43 653.439,328.205 648.828,331.575C645.215,334.244 642.923,338.666 639.822,342.63C639.202,342.576 637.8,342.01 636.64,342.36C635.454,342.711 633.998,343.762 633.62,344.868C633.216,346.081 633.35,348.077 634.132,349.047C635.345,350.53 637.152,351.905 639.012,352.525C654.651,357.837 670.856,360.479 686.953,356.543C692.534,355.168 697.037,354.467 702.403,356.058C704.992,356.84 708.011,356.058 710.816,356.193C712.919,356.301 714.995,355.6 716.317,358.97C716.91,360.453 721.898,360.696 724.918,360.642C726.644,360.615 728.342,358.889 730.419,357.703C728.639,361.235 729.826,362.503 733.466,363.096C747.784,365.307 762.048,367.788 776.311,370.16C783.996,371.427 791.653,372.641 799.338,373.935C802.762,374.474 806.187,375.364 809.665,375.688C811.768,375.877 813.952,375.257 816.109,374.96C816.864,374.879 817.592,374.529 818.32,374.609C823.875,375.094 829.456,375.634 834.66,376.119C835.631,378.411 836.547,380.676 838.003,384.235C841.859,376.389 847.225,380.568 851.593,380.541C856.339,380.514 861.165,381.62 865.776,382.887C872.625,384.721 879.393,386.959 886.026,389.493C887.32,389.978 888.695,392.432 888.695,393.996C888.614,407.721 888.56,421.472 887.805,435.197C887.266,445.605 886.699,456.229 884.381,466.34C882.143,476.074 877.775,485.349 874.135,494.706C872.382,499.182 870.09,503.469 867.61,508.781C866.019,502.202 864.941,496.405 863.188,490.796C858.604,475.804 853.67,460.893 849.032,445.928C847.953,442.423 845.176,442.746 842.749,442.396C835.9,441.344 829.078,440.05 822.176,439.834C817.242,439.699 816.487,437.542 817.026,433.578C817.107,432.877 817.107,432.149 817.134,431.286C825.924,432.392 834.526,433.524 843.747,434.71C842.641,431.771 841.617,429.668 841.024,427.403C838.247,417.399 835.658,407.342 832.881,397.338C832.126,394.534 830.967,391.783 827.192,393.941C827.677,389.708 824.523,385.474 819.561,384.639C812.793,383.507 805.944,382.752 799.123,381.862C798.557,381.781 797.856,381.943 797.397,381.673C787.447,375.66 775.961,377.952 765.283,375.741C752.853,373.179 740.18,371.643 727.507,370.16C717.584,368.974 707.608,368.38 697.604,367.733C694.719,367.571 691.753,368.623 688.895,368.488C680.348,368.084 671.854,367.356 663.36,366.789C662.632,366.762 661.904,366.87 661.392,366.87C655.433,381.619 653.734,396.827 653.573,413.005L658.48,413.005C671.476,413.005 684.527,412.762 697.523,413.086C705.154,413.221 712.757,414.138 720.388,414.866C722.383,415.028 723.893,415.729 723.624,418.479C721.683,436.599 719.93,454.745 718.016,473.62C720.874,473.917 723.948,474.267 727.076,474.618C726.186,479.175 723.598,481.143 719.283,480.469C716.721,480.065 714.214,479.417 711.652,479.04C707.634,478.447 707.446,475.67 707.823,472.596C709.279,461.19 710.762,449.839 712.083,438.46C712.434,435.251 712.137,432.043 712.137,429.373C710.681,430.802 709.333,432.905 707.364,433.957C702.349,436.707 697.253,439.404 691.914,441.372C684.634,444.068 682.126,450.216 682.288,456.499C682.45,465.289 677.839,472.165 675.547,479.957C675.439,480.308 675.116,480.766 674.738,480.982C667.323,485.539 659.854,490.123 652.412,494.653C651.657,495.084 650.659,495.111 649.958,495.597C639.981,503.12 631.191,511.586 626.338,523.666C621.862,521.401 617.197,519.028 612.155,516.467C614.878,512.476 616.928,508.243 620.136,505.196C623.965,501.502 624.666,496.702 624.936,492.388C625.583,481.603 628.9,471.518 631.219,461.137C633.322,451.592 634.347,441.777 635.857,432.097C637.96,418.211 639.902,404.324 642.22,390.465C642.948,385.935 644.593,381.54 645.375,376.902C639.632,383.346 633.107,388.739 632.891,398.823C632.648,408.557 630.222,418.21 628.793,427.917C627.229,438.487 625.8,449.083 624.263,459.653C624.074,461.109 623.67,462.538 623.131,465.073C615.419,458.629 608.166,452.535 600.859,446.549C595.682,442.208 590.262,438.136 585.166,433.687C580.906,429.885 576.807,425.894 573.032,421.607C566.075,413.788 559.793,405.375 552.594,397.825C542.537,387.255 535.661,374.96 530.106,361.667C526.061,351.96 521.343,342.523 516.355,331.791C515.249,338.397 514.926,344.006 513.335,349.21C511.124,356.274 508.751,363.501 505.084,369.837C501.417,376.093 499.503,382.833 497.049,389.467C491.737,403.92 482.543,416.053 472.916,427.648C461.915,440.887 450.833,454.261 435.517,463.078C435.679,463.429 435.841,463.752 436.002,464.103C449.457,458.872 462.939,453.614 477.391,447.979C475.531,452.266 474.128,455.556 472.322,459.708C477.445,457.821 481.84,456.095 486.343,454.558C488.662,453.776 491.089,453.183 493.542,452.859C497.371,452.374 499.609,453.884 500.957,457.901C504.058,467.284 507.698,476.479 511.446,486.59C513.468,481.602 514.816,477.18 517.027,473.162C521.422,465.127 526.303,457.307 530.913,449.326C532.18,447.142 533.448,447.816 535.281,448.679C541.671,451.699 544.826,457.442 548.089,463.185C550.111,466.744 552.241,470.196 555.073,473.512C554.911,470.222 554.642,466.96 554.669,463.67C554.669,460.03 554.642,456.309 555.208,452.75C555.882,448.732 563.486,445.497 568.69,447.357C577.184,450.377 585.542,453.882 593.928,457.334C599.563,459.653 605.253,461.918 610.672,464.695C614.797,466.825 618.545,469.737 621.511,471.706C620.567,478.231 620.028,483.948 618.842,489.529C618.195,492.468 616.901,495.407 615.202,497.888C610.645,504.575 605.549,510.911 601.019,517.598C599.86,519.324 599.374,521.966 599.671,524.069C601.154,535.582 603.527,546.988 604.551,558.529C605.387,567.67 602.286,576.433 599.023,584.953C597.729,588.35 596.839,592.071 594.817,595.037C591.581,599.89 591.959,604.286 594.143,609.328C597.136,616.312 599.536,623.538 603.068,630.441C601.855,623.188 600.614,615.961 599.428,608.681C599.212,607.333 598.727,605.58 599.374,604.636C607.193,592.556 611.049,579.56 610.24,565.053C609.943,559.498 611.022,553.89 610.914,548.282C610.752,540.948 610.078,533.614 609.62,526.226C614.339,525.795 619.273,525.282 624.234,525.013C624.908,524.959 626.068,525.93 626.256,526.631C627.496,531.7 629.249,536.769 629.465,541.946C629.762,550.44 629.33,559.014 628.656,567.535C628.279,571.822 626.607,575.975 625.555,580.1C629.249,582.715 632.97,585.385 637.338,588.459C628.44,589.241 619.057,588.675 618.679,600.889C628.089,607.306 637.5,614.721 647.854,620.411C655.161,624.402 663.601,626.559 671.798,628.473C674.737,629.201 678.377,626.559 681.775,625.858C692.857,623.566 703.993,621.463 715.102,619.306C715.291,619.872 715.506,620.465 715.695,621.032C705.799,625.859 695.931,630.658 685.981,635.512C686.062,635.593 686.17,636.132 686.466,636.267C696.362,640.446 696.416,648.832 695.58,657.595C695.283,660.75 694.879,663.958 694.528,667.14C694.177,667.194 693.8,667.221 693.422,667.275C691.696,660.777 690.105,654.252 688.191,647.834C687.598,645.947 686.438,643.789 684.874,642.738C680.56,639.745 675.949,637.21 671.338,634.703C666.943,632.303 662.952,632.896 659.474,636.671C658.18,638.046 656.724,639.313 654.728,640.338C655.564,637.911 656.4,635.485 657.37,632.68C651.977,630.145 646.638,627.557 641.219,625.13C633.642,621.733 626.011,618.335 618.354,615.153C612.934,612.888 609.294,615.8 609.941,621.84C610.777,629.282 611.828,636.697 612.88,644.112C614.471,655.599 616.223,667.031 618.03,679.65C626.712,671.237 634.613,663.553 642.54,655.841C642.891,656.138 643.241,656.461 643.592,656.785C638.873,663.876 634.263,671.049 629.436,678.086C627.117,681.456 624.286,684.53 621.832,687.82C621.077,688.818 620.241,690.139 620.349,691.271C620.969,700.223 621.805,709.121 622.614,718.693C631.997,718.208 641.111,717.992 650.171,717.183C667.94,715.592 683.93,707.26 701.105,703.324C715.072,700.142 728.905,696.286 743.438,696.206C750.772,696.179 758.322,696.476 765.494,695.1C771.049,694.048 776.495,691.136 781.483,688.224C790.219,683.101 798.632,677.465 807.072,671.857C809.984,669.943 812.519,667.516 815.593,664.981C812.762,677.627 808.906,689.114 801.221,699.521C793.887,709.498 785.366,717.371 773.314,720.229C754.898,724.624 737.479,731.554 720.034,738.672C713.644,741.261 706.687,742.447 698.948,744.523C708.331,747.004 716.178,745.817 724.24,742.905C734.378,739.265 744.813,736.218 755.302,733.899C762.555,732.308 770.402,733.306 777.574,731.58C786.58,729.396 795.235,725.756 803.944,722.493C805.238,721.981 806.344,720.336 807.072,718.961C813.004,708.149 819.26,697.471 824.544,686.308C829.29,676.197 832.633,665.384 837.136,655.138C839.94,648.721 844.2,642.95 846.897,636.533C849.512,630.223 851.022,623.51 852.964,616.957C856.766,604.095 860.217,591.126 864.37,578.372C867.525,568.773 869.601,559.12 870.706,549.009C871.434,541.971 875.667,535.338 877.851,528.355C883.028,511.772 887.962,495.055 892.169,481.276C892.007,502.335 887.1,526.251 886.83,550.438C887.531,550.519 888.259,550.627 888.987,550.708C892.816,526.629 897.615,502.605 900.231,478.418C902.9,454.016 904.033,429.344 900.312,403.917C901.93,405.292 902.954,406.047 903.817,406.937C922.665,425.731 941.566,444.524 960.306,463.453C988.079,491.387 987.971,532.723 960.171,560.657C939.921,581.015 919.591,601.291 899.287,621.568C898.397,622.485 897.4,623.24 895.647,623.563C897.804,618.548 900.42,613.64 902.091,608.463C905.65,597.192 908.643,585.787 912.068,574.462C914.144,567.64 916.301,560.818 918.836,554.131C919.861,551.489 921.937,549.197 923.636,546.824C927.95,540.892 931.914,534.609 936.821,529.19C944.721,520.481 945.261,509.587 946.582,499.018C947.634,490.713 947.714,482.274 947.607,473.78C944.183,475.074 944.371,477.986 943.886,480.656C942.322,489.177 941.567,497.967 938.709,506.029C935.608,514.846 929.487,522.153 923.286,529.326C916.141,537.631 909.858,546.798 906.757,557.53C904.33,565.943 903.279,574.76 900.474,582.984C893.841,602.317 888.745,622.216 879.065,640.39C878.148,642.17 876.908,643.895 875.479,645.324C865.502,655.408 855.31,665.358 845.441,675.577C843.931,677.141 842.852,679.81 842.799,682.021C842.583,694.91 842.61,707.771 842.772,720.633C842.826,723.599 841.774,725.001 839.321,726.43C826.999,733.791 814.137,740.397 804.268,751.183C801.787,753.933 799.495,756.872 796.664,759.245C791.002,763.991 783.721,764.287 776.819,765.447C766.141,767.254 755.437,768.817 744.705,770.408C741.442,770.866 738.126,771.109 734.836,771.46L734.836,773.186C737.964,773.294 741.119,773.51 744.273,773.429C748.668,773.294 753.09,772.782 757.485,772.62C767.354,772.216 777.33,772.35 787.145,771.514C798.578,770.543 808.204,764.638 817.857,758.922C825.784,754.203 833.739,749.539 842.34,744.469C842.475,746.464 842.691,747.678 842.691,748.918C842.718,764.126 842.745,779.36 842.691,794.621C842.529,821.477 821.309,842.616 794.345,842.697C757.027,842.751 719.736,842.724 682.446,842.616C679.372,842.616 677.242,843.452 675.085,845.636C661.684,859.253 648.148,872.681 634.639,886.189C633.641,887.187 632.536,888.103 631.511,889.101C630.405,884.598 629.731,880.311 628.302,876.266C622.316,859.845 608.187,852.026 594.004,844.449C583.057,838.598 570.519,838.76 558.924,835.47C543.851,831.21 527.943,830.158 513.949,821.719C499.281,812.848 501.842,802.79 509.797,794.054C517.886,785.102 527.404,777.471 535.466,768.519C541.937,761.374 547.896,753.527 552.804,745.222C558.628,735.299 555.042,722.33 547.249,713.809C541.074,707.041 534.684,701.028 526.056,698.008C520.475,696.067 514.596,694.988 508.179,694.206C511.846,698.197 515.54,702.133 519.18,706.151C529.48,717.503 526.865,727.452 517.751,736.323C506.022,747.81 491.542,755.305 477.252,763.152C468.057,768.221 459.24,774.045 450.531,779.977C444.006,784.426 437.346,788.929 431.71,794.43C419.9,805.97 417.824,819.479 425.077,834.444C433.355,851.512 447.295,863.026 463.177,871.654C478.492,879.986 476.093,890.879 472.56,902.635C469.945,911.209 462.772,916.198 456.49,921.617C451.798,925.635 445.839,928.223 440.527,931.594C437.723,933.401 435.916,932.969 433.489,930.542C405.447,902.284 377.243,874.215 349.174,845.984C346.774,843.584 344.428,842.587 341.085,842.614C303.767,842.722 266.476,842.749 229.186,842.641C209.26,842.614 191.572,830.399 184.534,811.929C184.157,811.012 183.914,809.988 183.509,808.666C200.847,808.531 217.402,814.436 234.578,812.549C251.484,810.635 268.39,809.071 285.297,807.345C285.324,806.994 285.324,806.617 285.351,806.266C277.558,805.107 269.793,803.624 261.947,802.869C252.321,801.952 242.533,802.141 232.934,800.847C225.195,799.822 217.673,797.126 209.961,795.481C204.838,794.402 199.391,794.483 194.484,792.839C190.17,791.383 186.287,788.471 182.566,785.748C181.514,784.993 181.299,782.593 181.299,780.975C181.218,748.133 181.218,715.264 181.299,682.423C181.326,679.349 180.436,677.219 178.279,675.062C140.098,637.043 102.053,598.89 63.899,560.871C51.927,548.953 44.755,534.797 43.353,517.837C41.708,498.046 47.425,480.573 61.041,466.202C75.628,450.887 90.62,435.949 106.043,421.442C109.171,418.449 114.725,417.721 119.309,416.562C123.407,415.564 127.722,415.349 131.901,414.782C135.352,424.246 138.211,433.98 142.417,443.094C144.601,447.786 149.023,451.534 152.798,455.282C165.471,467.847 174.207,483.028 181.433,499.017C183.779,504.167 183.509,510.504 184.615,516.247C188.201,535.122 191.814,553.969 195.427,572.817C195.481,573.221 195.427,573.68 195.427,575.54C183.806,567.343 172.831,559.631 161.911,551.974C161.56,552.109 161.237,552.271 160.913,552.432C164.149,557.933 166.899,563.865 170.782,568.88C175.42,574.839 180.974,580.07 186.178,585.597C187.068,586.541 187.985,587.673 189.144,588.132C196.397,590.963 201.547,596.626 206.239,602.315C209.259,605.955 210.985,611.024 212.063,615.743C214.247,625.153 215.865,634.725 217.159,644.298C217.887,649.826 217.321,655.542 217.833,661.096C218.157,664.493 219.181,667.864 220.341,671.1C221.447,674.147 223.442,676.816 224.574,679.836C227.756,688.41 235.683,692.536 241.777,698.36C242.721,699.25 244.851,699.142 246.442,699.142C254.288,699.115 262.162,698.522 269.927,699.061C280.443,699.762 290.878,701.218 301.313,702.647C303.389,702.89 305.331,704.319 307.272,705.316C316.601,710.223 325.553,716.075 335.341,719.769C342.136,722.331 349.982,722.277 357.424,722.762C367.293,723.436 377.215,723.571 387.111,723.733C389.78,723.76 392.45,723.005 396.252,722.466C376.434,714.242 355.995,717.181 336.123,712.409C366.43,700.896 396.063,699.035 426.613,710.764C425.804,706.612 424.806,703.241 424.591,699.817C424.079,691.728 423.944,683.612 423.593,675.496C423.512,673.447 423.377,671.344 422.919,669.348C421.652,663.686 422.865,658.482 424.941,653.224C429.174,642.492 432.868,631.545 437.533,621.002C439.852,615.798 439.609,611.726 436.131,607.709C430.981,601.777 428.042,594.955 426.02,587.459C423.027,576.134 419.441,564.998 416.124,553.889C414.21,557.556 411.648,561.816 409.734,566.346C406.66,573.572 404.584,581.284 401.052,588.294C398.086,594.091 393.475,599.079 389.943,604.607C389.215,605.739 389.323,607.977 389.97,609.326C393.367,616.552 397.061,623.644 400.648,630.816C400.324,631.059 400.001,631.301 399.677,631.544C395.039,626.286 389.97,621.379 385.952,615.689C383.714,612.48 381.206,611.456 377.809,610.97C373.36,610.323 368.911,609.568 364.489,608.759C374.978,610.916 379.75,603.501 384.065,596.437C390.401,585.921 396.091,575.028 401.78,564.135C405.447,556.99 408.467,549.494 412.053,542.321C416.421,533.612 415.99,525.415 410.759,517.299C409.734,515.708 408.925,513.982 407.712,511.825C403.02,514.144 398.086,515.897 393.987,518.809C383.822,526.089 373.683,522.746 363.842,518.971C355.241,515.681 347.151,511.017 339.251,507.134L353.191,507.134C349.362,498.074 345.641,489.257 341.893,480.44C342.378,480.224 342.837,480.036 343.295,479.82C343.753,480.602 344.239,481.357 344.643,482.193C346.827,486.615 348.499,491.091 353.029,494.165C355.995,496.214 357.667,500.151 360.067,503.171C361.226,504.627 362.629,505.975 364.112,507.135C367.887,510.101 371.554,510.775 376.623,509.292C384.793,506.865 393.583,506.65 401.268,502.039C403.695,500.556 404.153,499.37 403.991,496.97C403.101,485.51 402.346,474.024 401.483,461.621C407.658,464.048 412.808,465.719 417.58,468.173C418.847,468.82 419.683,471.867 419.467,473.674C417.391,493.411 416.42,513.149 421.004,532.617C424.725,548.418 428.608,564.272 433.596,579.696C436.724,589.538 441.847,598.786 446.512,608.089C448.13,611.217 448.642,613.697 447.24,617.041C442.225,628.716 437.533,640.472 432.76,652.175C433.137,652.418 433.542,652.606 433.919,652.849C440.336,640.796 446.754,628.77 453.009,616.664C453.521,615.639 453.009,613.887 452.524,612.592C450.016,605.258 447.077,598.032 444.812,590.617C440.417,576.326 435.968,562.035 432.274,547.556C429.874,538.092 428.715,528.304 426.989,518.732C436.399,515.901 445.513,513.124 454.977,510.265C456.622,513.824 458.482,517.815 460.585,522.399C461.879,520.781 462.607,520.08 463.093,519.217C467.704,511.424 474.606,511.02 482.21,513.366C485.527,514.391 488.6,516.305 491.728,517.815C500.249,521.94 508.769,526.093 518.422,530.838C509.848,535.206 502.136,539.17 494.397,543.16C494.424,543.295 494.478,543.457 494.505,543.618C508.256,540.059 522.035,536.527 536.272,532.859C537.189,537.362 538.132,541.838 539.076,546.368C539.4,546.449 539.723,546.476 540.047,546.53C542.15,541.811 544.253,537.093 546.141,532.913C556.037,538.387 566.579,544.184 577.122,550.008C577.203,549.846 577.257,549.657 577.365,549.469C570.867,543.564 563.721,538.225 558.059,531.592C552.424,525.013 548.298,517.086 543.526,509.751C538.996,513.769 534.655,517.948 529.99,521.723C526.026,524.959 522.494,528.518 516.319,524.15C508.607,518.649 499.17,515.522 491.89,509.617C483.828,503.146 477.222,494.814 470.238,487.048C466.948,483.381 464.252,479.175 460.774,474.51L460.779,474.512Z" style="fill:rgb(69,28,21);fill-rule:nonzero;"/>
    </g>
    <g transform="matrix(0.058594,0,0,0.058594,-0.000835,0)">
        <path d="M224.728,442.024C246.892,437.09 268.787,432.182 290.681,427.356C295.238,426.331 295.508,426.817 295.858,434.447C276.282,438.761 256.707,443.129 236.538,447.605C237.697,457.635 238.857,467.073 239.935,476.483C240.636,482.766 241.256,489.048 241.849,495.331C241.93,496.14 241.849,497.272 241.364,497.812C237.994,501.668 227.1,501.83 223.244,497.839C232.735,494.765 229.176,487.188 228.691,481.122C227.747,469.851 226.049,458.688 224.754,447.471C224.592,446.042 224.727,444.532 224.727,442.024L224.728,442.024Z" style="fill:rgb(69,28,21);fill-rule:nonzero;"/>
    </g>
    <g transform="matrix(0.058594,0,0,0.058594,-0.000835,0)">
        <path d="M790.016,488.062C790.933,469.996 791.823,452.443 792.766,434.296C772.57,430.872 752.401,427.42 732.017,423.996C732.017,422.378 731.586,420.518 732.152,418.981C732.556,417.929 734.417,416.581 735.442,416.743C757.741,420.383 780.013,424.185 802.986,428.095C802.609,432.193 802.15,435.914 801.934,439.689C801.26,450.987 800.721,462.338 800.1,473.636C800.073,474.094 800.127,474.526 800.073,474.984C799.183,482.803 799.183,482.803 807.003,484.26C807.273,484.314 807.434,484.637 807.677,484.826C802.176,493.805 804.307,493.185 790.016,488.062Z" style="fill:rgb(69,28,21);fill-rule:nonzero;"/>
    </g>
    <g transform="matrix(0.058594,0,0,0.058594,-0.000835,0)">
        <path d="M466.878,858.748C473.727,860.096 479.686,863.548 484.647,868.212C492.601,875.708 498.722,884.498 499.396,895.985C499.477,897.711 499.45,899.544 499.045,901.216C496.43,912.406 491.441,922.652 483.703,930.93C477.178,937.833 469.143,943.333 461.808,949.481C460.217,950.802 458.599,952.096 456.739,953.633C455.04,951.746 453.315,949.831 450.996,947.243C455.769,943.549 460.757,939.801 465.583,935.891C478.606,925.267 489.122,913.08 490.929,895.365C491.576,889.352 489.743,884.31 486.615,879.537C481.896,872.473 476.045,866.514 468.738,862.011C467.821,861.472 467.066,860.609 466.23,859.881C466.446,859.504 466.661,859.126 466.877,858.749L466.878,858.748Z" style="fill:rgb(69,28,21);fill-rule:nonzero;"/>
    </g>
    <g transform="matrix(0.058594,0,0,0.058594,-0.000835,0)">
        <path d="M542.937,841.062C548.249,841.062 552.967,840.361 557.417,841.197C565.398,842.734 573.568,844.298 580.956,847.48C587.94,850.5 594.654,854.787 599.076,861.609C600.101,863.2 601.368,864.683 602.743,866.004C609.834,872.934 612.126,881.724 612.72,891.161C612.882,893.669 612.477,896.257 612.801,898.738C613.718,906.261 610.806,911.842 604.901,915.536C605.44,908.876 606.465,901.865 606.465,894.828C606.465,884.285 603.499,874.983 595.922,866.705C588.723,858.832 581.065,852.225 570.927,849.152C562.299,846.483 553.401,844.703 544.664,842.465C544.26,842.384 543.963,841.926 542.938,841.063L542.937,841.062Z" style="fill:rgb(69,28,21);fill-rule:nonzero;"/>
    </g>
    <g transform="matrix(0.058594,0,0,0.058594,-0.000835,0)">
        <path d="M588.204,876.368C589.229,880.116 591.008,883.864 591.143,887.639C591.925,905.813 591.224,924.283 580.088,939.436C570.57,952.379 558.814,963.676 545.116,972.493L544.145,971.711C544.792,970.686 545.197,969.419 546.059,968.718C557.06,959.55 565.176,948.064 572.942,936.227C583.62,920.049 588.446,902.28 587.88,883.001C587.826,880.844 587.368,878.687 587.098,876.503C587.475,876.449 587.826,876.422 588.204,876.368Z" style="fill:rgb(69,28,21);fill-rule:nonzero;"/>
    </g>
    <g transform="matrix(0.058594,0,0,0.058594,-0.000835,0)">
        <path d="M514.396,778.207C512.455,779.96 510.594,781.82 508.572,783.438C498.865,791.284 493.445,801.612 493.311,813.799C493.257,817.682 497.059,822.481 500.429,825.339C505.148,829.357 511.08,831.945 517.686,835.882C510.028,833.536 503.099,832.269 496.951,829.357C487.783,824.962 484.898,814.985 488.646,805.548C493.58,793.091 502.317,784.166 514.396,778.207Z" style="fill:rgb(69,28,21);fill-rule:nonzero;"/>
    </g>
    <g transform="matrix(0.058594,0,0,0.058594,-0.000835,0)">
        <path d="M179.091,466.189C177.878,463.627 176.799,461.389 175.505,458.639C187.342,454.675 198.936,450.82 210.612,446.91C212.176,455.107 212.176,455.134 205.516,457.372C196.834,460.284 188.151,463.169 179.092,466.189L179.091,466.189Z" style="fill:rgb(69,28,21);fill-rule:nonzero;"/>
    </g>
</svg>
