<?xml version="1.0" encoding="UTF-8" standalone="no"?>
<!DOCTYPE svg PUBLIC "-//W3C//DTD SVG 1.1//EN" "http://www.w3.org/Graphics/SVG/1.1/DTD/svg11.dtd">
<svg width="100%" height="100%" viewBox="0 0 59 59" version="1.1" xmlns="http://www.w3.org/2000/svg" xmlns:xlink="http://www.w3.org/1999/xlink" xml:space="preserve" xmlns:serif="http://www.serif.com/" style="fill-rule:evenodd;clip-rule:evenodd;stroke-linejoin:round;stroke-miterlimit:2;">
    <g transform="matrix(1.543369,0,0,1.543369,-557.965706,-1724.467918)">
        <path d="M388.227,1147.453C388.211,1147.824 388.199,1148.195 388.188,1148.578L388.695,1148.578L388.695,1146.965C388.547,1147.066 388.406,1147.145 388.289,1147.246C388.242,1147.285 388.23,1147.383 388.227,1147.453" style="fill:rgb(88,39,26);fill-rule:nonzero;"/>
        <path d="M387.621,1130.824C387.66,1130.664 387.625,1130.516 387.473,1130.391C387.434,1130.473 387.398,1130.539 387.367,1130.605C387,1131.387 386.766,1132.215 386.512,1133.039C386.469,1133.188 386.492,1133.309 386.609,1133.398C386.699,1133.473 386.797,1133.535 386.898,1133.582C387.117,1133.676 387.195,1133.801 387.211,1134.039C387.219,1134.207 387.27,1134.379 387.301,1134.547C387.324,1134.652 387.398,1134.68 387.484,1134.652C387.625,1134.609 387.688,1134.684 387.73,1134.797C387.898,1135.219 388.191,1135.281 388.508,1134.965C388.711,1134.762 388.898,1134.547 389.117,1134.367C389.23,1134.273 389.395,1134.203 389.543,1134.188C389.73,1134.164 389.938,1134.102 389.992,1133.914C390.121,1133.484 390.242,1133.051 390.328,1132.613C390.426,1132.117 390.484,1131.613 390.559,1131.113C390.578,1130.977 390.609,1130.84 390.637,1130.703C390.324,1130.668 390.07,1130.82 389.977,1131.086C389.945,1131.18 389.922,1131.273 389.895,1131.367C389.793,1131.734 389.691,1132.105 389.59,1132.477C389.539,1132.656 389.496,1132.84 389.441,1133.02C389.426,1133.062 389.383,1133.094 389.355,1133.133C389.301,1132.52 389.418,1131.938 389.488,1131.34C389.422,1131.375 389.367,1131.418 389.348,1131.473C389.281,1131.656 389.23,1131.848 389.168,1132.031C389.148,1132.086 389.105,1132.133 389.074,1132.184C389.055,1132.176 389.039,1132.168 389.02,1132.16C389.02,1132.113 389.012,1132.066 389.016,1132.02C389.035,1131.859 389.066,1131.699 389.082,1131.535C389.086,1131.488 389.055,1131.402 389.016,1131.387C388.93,1131.352 388.898,1131.422 388.883,1131.5C388.809,1131.832 388.742,1132.168 388.652,1132.496C388.523,1132.965 388.383,1133.434 388.242,1133.898C388.23,1133.938 388.184,1133.965 388.152,1133.996C388.133,1133.961 388.098,1133.922 388.105,1133.895C388.145,1133.535 388.184,1133.18 388.246,1132.824C388.316,1132.395 388.406,1131.973 388.484,1131.547C388.492,1131.504 388.48,1131.461 388.477,1131.406C388.402,1131.414 388.336,1131.422 388.281,1131.43C388.18,1131.672 388.082,1131.91 387.984,1132.145C387.961,1132.137 387.941,1132.133 387.918,1132.129C387.918,1132.066 387.906,1132.004 387.922,1131.945C387.957,1131.773 387.992,1131.605 388.043,1131.438C388.082,1131.316 388.039,1131.258 387.91,1131.207C387.848,1131.379 387.789,1131.539 387.73,1131.699C387.586,1132.082 387.445,1132.461 387.301,1132.84C387.285,1132.879 387.238,1132.902 387.207,1132.938C387.191,1132.93 387.176,1132.922 387.16,1132.914C387.176,1132.762 387.176,1132.609 387.207,1132.465C387.34,1131.914 387.488,1131.371 387.621,1130.824" style="fill:rgb(88,39,26);fill-rule:nonzero;"/>
        <path d="M383.27,1140.93C383.734,1140.965 384.199,1141.176 384.32,1141.746C384.34,1141.84 384.387,1141.871 384.484,1141.891C384.707,1141.938 384.922,1142.004 385.137,1142.078C385.516,1142.203 385.887,1142.344 386.27,1142.641C386.477,1142.387 386.699,1142.117 386.926,1141.844C387.035,1141.953 387.102,1142.02 387.184,1142.098C386.855,1142.457 386.539,1142.809 386.203,1143.18C385.355,1142.461 384.375,1142.172 383.27,1142.258L383.27,1140.93ZM383.754,1151.164C383.496,1151.176 383.234,1151.191 382.973,1151.195C382.289,1151.211 381.652,1151.035 381.082,1150.676C380.582,1150.359 380.199,1149.922 379.945,1149.383C379.711,1148.883 379.465,1148.387 379.355,1147.836C379.262,1147.359 379.246,1146.891 379.359,1146.41C379.449,1146.035 379.52,1145.66 379.668,1145.301C379.895,1144.754 380.223,1144.281 380.652,1143.875C380.84,1143.699 381.02,1143.504 381.238,1143.379C381.762,1143.078 382.305,1142.809 382.93,1142.805C383.477,1142.805 384.031,1142.797 384.574,1142.852C384.844,1142.875 385.105,1143.02 385.363,1143.137C385.742,1143.309 386.062,1143.566 386.375,1143.848C386.668,1144.109 386.867,1144.434 387.066,1144.75C387.238,1145.027 387.352,1145.352 387.426,1145.672C387.527,1146.129 387.57,1146.598 387.637,1147.059C387.617,1147.609 387.449,1148.102 387.168,1148.559C387.164,1148.566 387.152,1148.574 387.145,1148.578L387.746,1148.578C387.82,1148.234 387.902,1147.895 387.973,1147.551C387.996,1147.441 388,1147.324 388.004,1147.211C388.008,1146.926 387.996,1146.641 388.004,1146.355C388.004,1146.312 388.059,1146.246 388.102,1146.23C388.301,1146.156 388.504,1146.098 388.699,1146.023C388.73,1146.012 388.754,1145.957 388.758,1145.922C388.762,1145.844 388.75,1145.762 388.746,1145.68C388.496,1145.758 388.254,1145.828 388.016,1145.91C387.922,1145.941 387.891,1145.934 387.859,1145.824C387.695,1145.188 387.469,1144.57 387.055,1144.043C386.844,1143.773 386.598,1143.531 386.375,1143.277C386.684,1142.941 387,1142.598 387.332,1142.238C387.527,1142.418 387.598,1142.656 387.633,1142.906C387.672,1143.195 387.594,1143.469 387.488,1143.734C387.461,1143.809 387.449,1143.863 387.5,1143.938C387.738,1144.312 387.926,1144.707 388.035,1145.141C388.066,1145.254 388.082,1145.375 388.109,1145.488C388.273,1145.445 388.438,1145.398 388.621,1145.352L388.621,1145.125C388.621,1144.633 388.605,1144.137 388.625,1143.645C388.656,1142.945 388.652,1142.246 388.809,1141.559C388.852,1141.371 388.824,1141.164 388.848,1140.973C388.895,1140.625 388.965,1140.285 389.012,1139.938C389.086,1139.43 389.141,1138.922 389.203,1138.414C389.254,1138.016 389.293,1137.613 389.363,1137.215C389.516,1136.344 389.68,1135.473 389.84,1134.602C389.84,1134.59 389.836,1134.578 389.836,1134.57C389.516,1134.605 389.277,1134.832 389.211,1135.141C389.102,1135.664 388.969,1136.188 388.871,1136.715C388.793,1137.16 388.77,1137.617 388.688,1138.062C388.594,1138.582 388.453,1139.094 388.348,1139.617C388.273,1139.98 388.223,1140.352 388.156,1140.723C388.145,1140.789 388.125,1140.863 388.09,1140.922C388.062,1140.965 387.984,1141.027 387.965,1141.016C387.91,1140.984 387.848,1140.926 387.84,1140.871C387.828,1140.77 387.863,1140.664 387.863,1140.562C387.867,1140.277 387.844,1139.996 387.867,1139.711C387.91,1139.203 387.969,1138.695 388.047,1138.191C388.137,1137.602 388.258,1137.02 388.355,1136.43C388.398,1136.18 388.43,1135.926 388.453,1135.672C388.457,1135.621 388.414,1135.57 388.395,1135.52C388.367,1135.52 388.344,1135.52 388.316,1135.523C388.277,1135.734 388.234,1135.949 388.191,1136.164C388.082,1136.691 387.977,1137.215 387.859,1137.742C387.844,1137.824 387.789,1137.895 387.75,1137.973C387.727,1137.969 387.699,1137.961 387.676,1137.957C387.684,1137.781 387.684,1137.605 387.707,1137.438C387.762,1137.059 387.836,1136.688 387.895,1136.312C387.938,1136.059 387.98,1135.809 388.016,1135.555C388.02,1135.492 387.996,1135.43 387.988,1135.363C387.965,1135.363 387.938,1135.363 387.914,1135.359C387.875,1135.504 387.812,1135.645 387.801,1135.789C387.754,1136.504 387.555,1137.184 387.395,1137.879C387.258,1138.461 387.129,1139.051 386.973,1139.629C386.898,1139.887 386.773,1140.129 386.668,1140.379C386.656,1140.379 386.641,1140.375 386.625,1140.375C386.609,1140.336 386.586,1140.293 386.582,1140.254C386.535,1139.734 386.551,1139.219 386.66,1138.703C386.867,1137.715 387.047,1136.719 387.242,1135.723C387.273,1135.566 387.332,1135.414 387.371,1135.254C387.379,1135.211 387.355,1135.16 387.34,1135.066C386.965,1135.609 386.984,1136.23 386.754,1136.766C386.668,1136.473 386.762,1136.195 386.824,1135.918C386.879,1135.672 386.953,1135.426 387.016,1135.18C387.027,1135.129 387.016,1135.07 386.992,1135.016C386.508,1136.258 386.32,1137.582 385.867,1138.836C385.855,1138.656 385.836,1138.477 385.832,1138.297C385.828,1138.109 385.828,1137.922 385.844,1137.738C385.887,1137.312 385.922,1136.883 385.992,1136.461C386.086,1135.91 386.207,1135.367 386.32,1134.82C386.367,1134.594 386.422,1134.363 386.492,1134.145C386.547,1133.973 386.473,1133.875 386.336,1133.762C385.73,1135.805 385.348,1137.875 385.043,1139.98C384.699,1139.488 384.211,1139.227 383.668,1139.059C383.465,1138.996 383.25,1138.973 383.035,1138.953C383.434,1139.273 383.914,1139.48 384.176,1139.934C384.262,1140.086 384.293,1140.262 384.324,1140.445C382.996,1139.98 381.66,1140.078 380.316,1140.207C380.965,1140.324 381.645,1140.293 382.25,1140.59C382.246,1140.605 382.242,1140.621 382.242,1140.637C381.754,1140.746 381.266,1140.855 380.777,1140.969C380.781,1140.984 380.781,1141 380.785,1141.016C381.211,1141.074 381.691,1141.023 381.895,1141.59C381.793,1141.73 381.664,1141.906 381.578,1142.027C381.922,1141.961 382.324,1141.883 382.746,1141.805L382.746,1140.883C382.988,1140.836 383.039,1140.871 383.055,1141.109C383.074,1141.43 383.09,1141.75 383.105,1142.074C383.113,1142.254 383.066,1142.289 382.883,1142.312C382.676,1142.336 382.477,1142.383 382.273,1142.418C382.266,1142.422 382.258,1142.438 382.246,1142.434C381.855,1142.359 381.574,1142.648 381.234,1142.738C381.184,1142.75 381.113,1142.754 381.074,1142.727C380.652,1142.434 380.203,1142.461 379.746,1142.613C379.711,1142.625 379.68,1142.645 379.629,1142.668C379.824,1142.848 380.02,1143.016 380.195,1143.195C380.273,1143.273 380.43,1143.336 380.312,1143.5C380.258,1143.574 380.207,1143.582 380.137,1143.535C380.098,1143.508 380.059,1143.477 380.023,1143.441C379.809,1143.219 379.59,1142.996 379.367,1142.77C379.301,1142.809 379.242,1142.84 379.207,1142.859C379.488,1143.148 379.766,1143.434 380.043,1143.715C379.895,1143.898 379.75,1144.062 379.621,1144.238C379.32,1144.652 379.062,1145.09 379,1145.617C378.996,1145.66 378.906,1145.715 378.844,1145.73C378.285,1145.895 377.891,1146.727 377.938,1147.109L378.91,1147.109L378.91,1147.273C378.906,1147.371 378.867,1147.422 378.758,1147.414C378.578,1147.406 378.395,1147.41 378.215,1147.414C378.129,1147.414 378.047,1147.434 377.957,1147.445L377.957,1147.656L378.836,1147.656C378.848,1147.84 378.844,1148.023 378.875,1148.203C378.988,1148.871 379.285,1149.461 379.715,1149.984C379.781,1150.062 379.793,1150.137 379.777,1150.246C379.746,1150.465 379.738,1150.691 379.766,1150.91C379.793,1151.129 379.867,1151.34 379.93,1151.551C379.945,1151.605 379.984,1151.652 380.027,1151.723C380.191,1151.449 380.344,1151.199 380.496,1150.945C380.559,1150.992 380.617,1151.035 380.695,1151.094C380.539,1151.359 380.379,1151.629 380.219,1151.902C380.277,1151.949 380.328,1151.992 380.379,1152.027C380.484,1152.094 380.562,1152.066 380.609,1151.949C380.707,1151.723 380.809,1151.496 380.902,1151.277C381.152,1151.395 381.383,1151.496 381.609,1151.609C381.641,1151.621 381.668,1151.688 381.66,1151.719C381.566,1152.191 381.461,1152.664 381.367,1153.137C381.34,1153.254 381.316,1153.375 381.316,1153.492C381.32,1153.52 381.316,1153.547 381.309,1153.566C381.469,1153.512 381.625,1153.441 381.773,1153.352C381.797,1153.145 381.816,1152.953 381.844,1152.762C381.879,1152.477 381.938,1152.195 381.965,1151.91C381.98,1151.738 382.051,1151.734 382.176,1151.789C382.199,1151.801 382.227,1151.801 382.266,1151.805C382.215,1152.207 382.168,1152.598 382.109,1152.988C382.102,1153.047 382.094,1153.094 382.082,1153.133C382.145,1153.082 382.211,1153.035 382.273,1152.977L384.215,1151.035C384.074,1151.113 383.926,1151.156 383.754,1151.164" style="fill:rgb(88,39,26);fill-rule:nonzero;"/>
        <path d="M384.891,1148.348C384.531,1148.723 384.055,1148.863 383.539,1148.848C383.027,1148.832 382.59,1148.613 382.238,1148.262C382.086,1148.109 381.996,1147.879 381.914,1147.672C381.609,1146.902 381.832,1146.223 382.336,1145.625C382.543,1145.383 382.816,1145.219 383.168,1145.199C383.406,1145.191 383.637,1145.141 383.879,1145.188C384.215,1145.254 384.469,1145.441 384.711,1145.672C385.043,1145.984 385.172,1146.387 385.262,1146.812C385.293,1146.965 385.301,1147.125 385.316,1147.281C385.34,1147.703 385.164,1148.062 384.891,1148.348M385.242,1145.707C385.133,1145.449 384.883,1145.32 384.656,1145.176C384.285,1144.945 383.895,1144.75 383.438,1144.777C383.078,1144.801 382.73,1144.902 382.414,1145.074C382.27,1145.156 382.125,1145.262 382.027,1145.391C381.48,1146.109 381.305,1146.918 381.555,1147.793C381.727,1148.387 382.074,1148.867 382.719,1149.023C382.961,1149.082 383.195,1149.188 383.465,1149.137C383.695,1149.094 383.945,1149.141 384.172,1149.098C384.516,1149.031 384.77,1148.793 385.031,1148.578C385.434,1148.242 385.719,1147.848 385.652,1147.277C385.707,1146.711 385.457,1146.211 385.242,1145.707" style="fill:rgb(88,39,26);fill-rule:nonzero;"/>
        <path d="M372.762,1144.438C372.875,1143.902 373,1143.367 373.113,1142.836C373.172,1142.562 373.219,1142.289 373.27,1142.016C373.277,1141.977 373.277,1141.93 373.25,1141.879C373.172,1142.117 373.094,1142.355 373.016,1142.594C372.887,1143.004 372.762,1143.422 372.625,1143.832C372.512,1144.156 372.504,1144.152 372.168,1144.152C371.801,1144.152 371.801,1144.156 371.703,1144.508C371.578,1144.953 371.457,1145.398 371.316,1145.836C371.129,1146.395 370.922,1146.945 370.73,1147.504C370.617,1147.836 370.523,1148.176 370.414,1148.512C370.406,1148.531 370.391,1148.559 370.371,1148.578L370.988,1148.578C371.363,1147.238 371.73,1145.918 372.098,1144.594C372.266,1144.578 372.434,1144.559 372.598,1144.551C372.684,1144.547 372.738,1144.539 372.762,1144.438" style="fill:rgb(88,39,26);fill-rule:nonzero;"/>
        <path d="M397.82,1135.762C397.828,1135.797 397.84,1135.836 397.848,1135.871C397.84,1135.836 397.828,1135.797 397.82,1135.762" style="fill:rgb(88,39,26);fill-rule:nonzero;"/>
        <path d="M397.914,1138.844L393.828,1142.926L393.828,1146.809C393.828,1148.371 392.555,1149.645 390.992,1149.645L387.109,1149.645L383.023,1153.73C382.332,1154.422 381.418,1154.77 380.508,1154.77C379.594,1154.77 378.68,1154.426 377.988,1153.73L373.902,1149.645L370.02,1149.645C368.457,1149.645 367.184,1148.371 367.184,1146.809L367.184,1142.926L363.102,1138.844C361.711,1137.453 361.711,1135.195 363.102,1133.805L367.184,1129.719L367.184,1125.836C367.184,1124.273 368.457,1123 370.02,1123L373.902,1123L377.988,1118.918C379.332,1117.57 381.68,1117.57 383.023,1118.918L387.109,1123L390.992,1123C392.555,1123 393.828,1124.273 393.828,1125.836L393.828,1129.719L397.914,1133.805C399.301,1135.195 399.301,1137.453 397.914,1138.844M398.289,1133.43L394.359,1129.5L394.359,1125.836C394.359,1123.98 392.848,1122.469 390.992,1122.469L387.328,1122.469L383.402,1118.539C382.629,1117.766 381.602,1117.34 380.508,1117.34C379.414,1117.34 378.383,1117.766 377.613,1118.539L373.684,1122.469L370.02,1122.469C368.164,1122.469 366.652,1123.98 366.652,1125.836L366.652,1129.5L362.723,1133.43C361.125,1135.023 361.125,1137.621 362.723,1139.219L366.652,1143.148L366.652,1146.809C366.652,1148.668 368.164,1150.176 370.02,1150.176L373.684,1150.176L377.613,1154.105C378.383,1154.879 379.414,1155.305 380.508,1155.305C381.602,1155.305 382.629,1154.879 383.402,1154.105L387.328,1150.176L390.992,1150.176C392.848,1150.176 394.359,1148.668 394.359,1146.809L394.359,1143.148L398.289,1139.219C399.887,1137.621 399.887,1135.023 398.289,1133.43" style="fill:rgb(88,39,26);fill-rule:nonzero;"/>
        <path d="M394.113,1131.508L393.656,1131.055L393.633,1131.109C393.648,1131.152 393.66,1131.195 393.656,1131.234C393.641,1131.656 393.621,1132.078 393.59,1132.5C393.562,1132.867 393.52,1133.234 393.469,1133.602C393.359,1134.371 393.242,1135.137 393.129,1135.906C393.062,1136.352 393,1136.797 392.93,1137.242C392.918,1137.285 392.832,1137.344 392.781,1137.348C392.516,1137.359 392.246,1137.352 391.965,1137.352C391.898,1137.602 391.832,1137.836 391.785,1138.07C391.688,1138.523 391.602,1138.984 391.52,1139.441C391.387,1140.145 391.254,1140.848 391.133,1141.555C391,1142.312 390.871,1143.074 390.762,1143.836C390.668,1144.488 390.613,1145.145 390.527,1145.801C390.453,1146.34 390.355,1146.871 390.277,1147.41C390.223,1147.797 390.18,1148.184 390.133,1148.578L390.602,1148.578C390.625,1148.383 390.652,1148.203 390.68,1148.02C390.742,1147.582 390.801,1147.148 390.863,1146.711C390.906,1146.395 390.953,1146.078 390.996,1145.762C391.043,1145.426 391.078,1145.09 391.125,1144.758C391.23,1144.023 391.332,1143.293 391.445,1142.566C391.562,1141.809 391.688,1141.055 391.82,1140.301C391.922,1139.719 392.047,1139.141 392.164,1138.562C392.199,1138.375 392.227,1138.184 392.27,1137.996C392.277,1137.957 392.336,1137.906 392.371,1137.902C392.625,1137.895 392.879,1137.898 393.133,1137.891C393.164,1137.891 393.223,1137.844 393.227,1137.812C393.266,1137.434 393.293,1137.051 393.332,1136.672C393.355,1136.461 393.398,1136.254 393.43,1136.047C393.484,1135.684 393.531,1135.316 393.594,1134.953C393.668,1134.496 393.762,1134.047 393.836,1133.59C393.914,1133.109 393.98,1132.625 394.055,1132.141C394.074,1132.004 394.094,1131.867 394.113,1131.723L394.113,1131.508Z" style="fill:rgb(88,39,26);fill-rule:nonzero;"/>
        <path d="M384.914,1131.395C384.895,1131.453 384.766,1131.504 384.688,1131.504C384.383,1131.52 384.074,1131.508 383.77,1131.512C383.66,1131.516 383.551,1131.527 383.445,1131.547C383.41,1131.555 383.375,1131.59 383.348,1131.617C383.332,1131.637 383.328,1131.668 383.32,1131.691C383.273,1131.812 383.262,1131.992 383.176,1132.043C383.07,1132.105 382.902,1132.07 382.762,1132.07L376.438,1132.07L376.438,1130.688C376.66,1130.688 376.875,1130.695 377.094,1130.684C377.34,1130.672 377.59,1130.637 377.836,1130.617C377.938,1130.613 378.039,1130.617 378.164,1130.617L378.164,1131.605L381.434,1131.605C381.438,1131.547 381.441,1131.492 381.441,1131.441C381.445,1131.281 381.445,1131.121 381.445,1130.961C381.445,1130.574 381.461,1130.559 381.836,1130.559L385.184,1130.559C385.098,1130.844 385.02,1131.125 384.914,1131.395M382.223,1135.75L381.398,1135.75L381.398,1134.508C381.355,1134.488 381.344,1134.477 381.336,1134.477C380.754,1134.477 380.863,1134.383 380.852,1134.938C380.848,1135.203 380.852,1135.469 380.852,1135.75L379.828,1135.75C379.805,1135.32 379.867,1134.883 379.801,1134.445L379.305,1134.445C379.148,1134.883 379.336,1135.324 379.254,1135.773L378.004,1135.773L378.004,1134.516L377.547,1134.516C377.527,1134.934 377.504,1135.352 377.48,1135.781L376.441,1135.781L376.441,1132.309L383.086,1132.309C382.797,1133.465 382.508,1134.613 382.223,1135.75M378.684,1136.738C378.684,1136.512 378.68,1136.285 378.691,1136.059C378.691,1136.031 378.766,1135.984 378.805,1135.984C379.066,1135.98 379.324,1135.992 379.594,1135.996L379.594,1136.738L378.684,1136.738ZM381.93,1136.684C381.922,1136.707 381.844,1136.711 381.801,1136.711C381.371,1136.715 380.941,1136.711 380.516,1136.711C380.301,1136.715 380.289,1136.727 380.297,1136.949C380.301,1137.16 380.297,1137.375 380.297,1137.602C380.117,1137.602 379.949,1137.609 379.781,1137.602C379.648,1137.594 379.586,1137.641 379.586,1137.773C379.582,1137.91 379.57,1138.047 379.562,1138.195C379.445,1138.172 379.336,1138.152 379.227,1138.125C379.121,1138.102 379.02,1138.074 378.91,1138.047L378.91,1137.566C378.91,1137.352 378.836,1137.277 378.613,1137.273C378.379,1137.27 378.145,1137.273 377.891,1137.273L377.891,1136.48C377.887,1136.273 377.867,1136.25 377.668,1136.25L376.441,1136.25L376.441,1135.973L378.449,1135.973C378.449,1136.219 378.453,1136.449 378.445,1136.68C378.438,1136.918 378.477,1136.949 378.695,1136.969C379.031,1136.996 379.371,1136.984 379.711,1136.969C379.754,1136.969 379.824,1136.859 379.828,1136.797C379.84,1136.535 379.832,1136.273 379.832,1136L382.16,1136C382.082,1136.238 382.012,1136.465 381.93,1136.684M381.477,1138.402C381.109,1138.363 380.781,1138.328 380.453,1138.293C380.293,1138.273 380.133,1138.238 379.969,1138.234C379.836,1138.227 379.82,1138.16 379.828,1138.051C379.836,1137.988 379.832,1137.922 379.832,1137.832C380.023,1137.832 380.207,1137.828 380.391,1137.836C380.516,1137.84 380.555,1137.781 380.555,1137.672L380.555,1136.953L381.828,1136.953C381.711,1137.445 381.59,1137.934 381.477,1138.402M378.668,1137.996C377.93,1137.828 377.199,1137.668 376.438,1137.5C376.43,1137.445 376.414,1137.367 376.398,1137.273C376.629,1137.273 376.836,1137.266 377.043,1137.277C377.211,1137.281 377.324,1137.246 377.305,1137.043C377.301,1136.977 377.328,1136.906 377.34,1136.82L377.125,1136.82L377.125,1137.062L376.441,1137.062L376.441,1136.477L377.656,1136.477C377.656,1136.742 377.672,1137.02 377.652,1137.297C377.641,1137.469 377.73,1137.492 377.852,1137.492C378.121,1137.496 378.391,1137.492 378.668,1137.492L378.668,1137.996ZM375.941,1130.418C375.941,1131.008 375.938,1131.602 375.934,1132.191L375.934,1132.395C375.453,1132.395 374.992,1132.398 374.531,1132.395C372.957,1132.387 371.387,1132.375 369.812,1132.367C369.711,1132.367 369.609,1132.367 369.508,1132.375C369.359,1132.383 369.352,1132.289 369.367,1132.184C369.375,1132.129 369.387,1132.074 369.398,1132.008C369.578,1131.996 369.758,1131.977 369.938,1131.977C371.648,1131.973 373.359,1131.973 375.07,1131.977C375.172,1131.977 375.262,1131.973 375.25,1131.82L374.77,1131.82L374.77,1131.129L374.27,1131.129L374.27,1131.816L373.391,1131.816L373.391,1131.125L372.93,1131.125L372.93,1131.848L371.375,1131.848L371.375,1131.117L369.688,1131.117C369.688,1130.719 369.695,1130.348 369.688,1129.977C369.672,1129.27 369.648,1128.562 369.625,1127.855L369.625,1127.668L370.375,1127.668L370.375,1128.441L370.805,1128.441L370.805,1127.672L371.738,1127.672L371.738,1128.441L372.156,1128.441L372.156,1127.672L373.105,1127.672C373.117,1128.203 373.43,1128.559 373.84,1128.805C374.117,1128.977 374.457,1129.078 374.785,1129.129C375.145,1129.184 375.516,1129.148 375.883,1129.148C375.938,1129.148 375.996,1129.145 376.047,1129.145C376.332,1129.141 376.613,1129.145 376.906,1129.145C376.836,1129.512 376.766,1129.895 376.695,1130.258C376.496,1130.258 376.301,1130.266 376.105,1130.258C375.984,1130.25 375.941,1130.293 375.941,1130.418M375.934,1133.129C375.844,1133.117 375.754,1133.105 375.668,1133.09C375.527,1133.066 375.48,1133.129 375.484,1133.262C375.492,1133.441 375.488,1133.621 375.488,1133.805L374.453,1133.805L374.453,1133.336L375.199,1133.336L375.199,1132.793C375.43,1132.793 375.656,1132.789 375.883,1132.797C375.914,1132.801 375.957,1132.867 375.961,1132.91C375.969,1132.977 375.945,1133.047 375.934,1133.129M375.926,1133.809L375.723,1133.809L375.723,1133.328C375.797,1133.324 375.859,1133.32 375.926,1133.316L375.926,1133.809ZM373.156,1132.773L373.625,1132.773L373.625,1133.379L373.156,1133.379L373.156,1132.773ZM374.203,1133.422C374.199,1133.547 374.203,1133.672 374.203,1133.82L372.527,1133.82L372.527,1132.766L372.914,1132.766C372.914,1132.957 372.91,1133.141 372.914,1133.324C372.918,1133.512 372.961,1133.551 373.148,1133.555C373.316,1133.555 373.488,1133.543 373.656,1133.555C373.809,1133.566 373.844,1133.496 373.84,1133.363C373.836,1133.168 373.84,1132.973 373.84,1132.77L374.984,1132.77L374.984,1133.094L374.527,1133.094C374.289,1133.098 374.207,1133.18 374.203,1133.422M372.316,1133.84L371.938,1133.84C371.926,1133.711 371.902,1133.594 371.906,1133.477C371.906,1133.297 371.809,1133.254 371.656,1133.254C371.305,1133.258 370.957,1133.254 370.594,1133.254L370.594,1132.773L372.316,1132.773L372.316,1133.84ZM371.66,1133.836L369.699,1133.836L369.699,1132.773L370.359,1132.773C370.359,1132.918 370.355,1133.062 370.359,1133.203C370.363,1133.406 370.41,1133.453 370.609,1133.457L371.684,1133.457C371.676,1133.586 371.668,1133.703 371.66,1133.836M370.016,1126.961C370.684,1126.988 371.352,1126.973 372.02,1126.977C372.066,1126.977 372.113,1126.973 372.184,1126.965L372.184,1125.734C372.34,1125.707 372.48,1125.684 372.66,1125.656L372.66,1126.957C372.824,1126.98 372.945,1126.992 373.082,1127.008C373.074,1127.148 373.07,1127.277 373.062,1127.418L369.641,1127.418C369.598,1127.082 369.738,1126.949 370.016,1126.961M375.758,1128.266C375.848,1127.977 375.848,1127.977 376.152,1127.961C376.309,1127.949 376.469,1127.934 376.625,1127.922C376.707,1127.918 376.754,1127.895 376.777,1127.793C376.898,1127.207 377.031,1126.625 377.168,1126.043C377.203,1125.883 377.25,1125.727 377.316,1125.586C377.344,1125.523 377.438,1125.473 377.508,1125.465C377.648,1125.445 377.793,1125.457 377.961,1125.457C377.691,1126.516 377.426,1127.551 377.164,1128.59C377.129,1128.738 377.055,1128.785 376.902,1128.781C376.48,1128.77 376.059,1128.777 375.613,1128.777C375.66,1128.609 375.707,1128.438 375.758,1128.266M376.566,1124.316C376.785,1124.305 376.793,1124.164 376.805,1124.008C376.809,1123.938 376.812,1123.863 376.832,1123.801C376.859,1123.723 376.922,1123.586 376.941,1123.59C377.039,1123.617 377.145,1123.66 377.223,1123.727C377.285,1123.785 377.301,1123.895 377.359,1123.965C377.41,1124.031 377.488,1124.074 377.566,1124.133C377.617,1124.098 377.668,1124.047 377.73,1124.02C377.844,1123.961 377.918,1123.926 377.766,1123.812C377.68,1123.746 377.746,1123.664 377.816,1123.613C377.859,1123.582 377.91,1123.562 377.926,1123.555C377.887,1123.398 377.855,1123.266 377.824,1123.133C377.934,1123.113 378.047,1123.098 378.168,1123.078C378.234,1122.926 378.309,1122.742 378.395,1122.562C378.414,1122.52 378.465,1122.469 378.5,1122.465C378.543,1122.465 378.605,1122.508 378.629,1122.547C378.691,1122.652 378.734,1122.77 378.789,1122.883C378.816,1122.941 378.852,1122.996 378.887,1123.062C378.969,1123.008 379.031,1122.953 379.109,1122.918C379.285,1122.836 379.469,1122.961 379.426,1123.145C379.371,1123.367 379.512,1123.535 379.555,1123.727C379.586,1123.863 379.637,1124.023 379.73,1124.117C379.988,1124.371 379.789,1124.691 379.887,1124.965C379.898,1125 379.82,1125.09 379.766,1125.121C379.5,1125.27 379.207,1125.223 378.922,1125.227C378.465,1125.227 378.012,1125.23 377.555,1125.223C377.449,1125.223 377.344,1125.188 377.238,1125.176C377.211,1125.172 377.18,1125.184 377.148,1125.188C377.074,1125.203 377,1125.227 376.926,1125.227C376.777,1125.227 376.73,1125.145 376.801,1125.016C376.855,1124.922 376.918,1124.836 376.984,1124.734C376.789,1124.73 376.629,1124.664 376.504,1124.516C376.41,1124.402 376.422,1124.324 376.566,1124.316M379.691,1121.629C379.871,1121.461 380.066,1121.309 380.246,1121.145C380.289,1121.105 380.32,1121.039 380.324,1120.984C380.328,1120.676 380.324,1120.363 380.324,1120.023C380.527,1120.023 380.707,1120.016 380.887,1120.031C380.922,1120.031 380.973,1120.109 380.977,1120.156C380.996,1120.352 381,1120.547 381.008,1120.746C381.266,1120.746 381.5,1120.742 381.734,1120.75C382.352,1120.762 382.922,1120.938 383.438,1121.273C383.582,1121.363 383.711,1121.496 383.812,1121.633C383.883,1121.727 383.895,1121.863 383.938,1121.996L383.574,1121.996C382.375,1121.996 381.18,1122 379.988,1121.992C379.891,1121.992 379.789,1121.957 379.703,1121.91C379.559,1121.828 379.602,1121.715 379.691,1121.629M383.656,1123.973L380.746,1123.973C380.652,1123.973 380.559,1123.98 380.469,1123.996C380.223,1124.043 380.027,1123.953 379.863,1123.777C379.84,1123.75 379.832,1123.699 379.832,1123.656L379.832,1122.605C379.828,1122.504 379.859,1122.453 379.969,1122.457C380.254,1122.461 380.539,1122.457 380.844,1122.457L380.844,1123.301L381.312,1123.301L381.312,1122.473L382.242,1122.473L382.242,1123.305L382.695,1123.305C382.727,1123.027 382.754,1122.758 382.785,1122.473L383.934,1122.473C383.969,1122.988 383.984,1123.496 383.656,1123.973M384.344,1125.758L383.871,1125.758L383.871,1124.906C384.121,1124.871 384.355,1124.844 384.625,1124.809C384.523,1125.152 384.434,1125.457 384.344,1125.758M383.844,1126.352L383,1126.352C382.977,1126.242 382.953,1126.125 382.926,1125.992L384.258,1125.992L384.258,1126.004C384.195,1126.355 384.195,1126.352 383.844,1126.352M383.754,1127.523C383.598,1127.539 383.418,1127.551 383.223,1127.57L383.223,1126.961C383.223,1126.789 383.172,1126.738 382.996,1126.738C382.785,1126.734 382.57,1126.738 382.328,1126.738L382.328,1125.988L382.715,1125.988C382.723,1126.117 382.727,1126.242 382.738,1126.367C382.746,1126.5 382.812,1126.574 382.957,1126.574L384.059,1126.574C383.957,1126.898 383.859,1127.203 383.754,1127.523M382.98,1127.5C382.977,1127.535 382.891,1127.586 382.84,1127.586C382.566,1127.598 382.293,1127.594 381.984,1127.594C381.961,1127.414 381.941,1127.234 381.918,1127.047L380.363,1127.047L380.363,1126.738C380.707,1126.738 381.055,1126.73 381.406,1126.742C381.559,1126.75 381.613,1126.695 381.609,1126.551C381.605,1126.367 381.609,1126.188 381.609,1125.992L382.102,1125.992L382.102,1126.742C382.102,1126.922 382.145,1126.965 382.324,1126.965C382.539,1126.969 382.75,1126.965 382.988,1126.965C382.988,1127.152 382.996,1127.324 382.98,1127.5M381.734,1127.578C381.699,1127.582 381.664,1127.59 381.629,1127.594C381.352,1127.605 381.074,1127.617 380.797,1127.625C380.57,1127.629 380.422,1127.508 380.367,1127.273L381.734,1127.273L381.734,1127.578ZM380.332,1125.988L381.344,1125.988L381.344,1126.551L380.332,1126.551L380.332,1125.988ZM380.312,1124.258L383.621,1124.258L383.621,1125.738L380.312,1125.738L380.312,1124.258ZM387.926,1125.457C388.523,1125.441 389.121,1125.426 389.719,1125.426C389.918,1125.426 390.121,1125.461 390.32,1125.488C390.355,1125.492 390.398,1125.543 390.41,1125.578C390.477,1125.801 390.539,1126.023 390.59,1126.254C390.605,1126.34 390.574,1126.434 390.562,1126.543C391.297,1126.535 392.016,1126.344 392.758,1126.496L392.758,1126.523L392.762,1126.523L392.762,1126.059L392.699,1125.965L391.059,1125.965C390.984,1125.742 390.926,1125.508 390.824,1125.293C390.766,1125.184 390.633,1125.051 390.52,1125.039C390.125,1124.988 389.727,1124.969 389.328,1124.965C388.879,1124.961 388.43,1124.984 387.98,1124.996C387.766,1125.004 387.547,1125.008 387.332,1125.031C387.289,1125.035 387.227,1125.094 387.211,1125.141C387.012,1125.758 386.836,1126.383 386.621,1126.996C386.344,1127.789 386.039,1128.57 385.75,1129.355C385.645,1129.641 385.547,1129.926 385.438,1130.211C385.418,1130.258 385.348,1130.32 385.297,1130.32C384.668,1130.328 384.039,1130.332 383.406,1130.324C382.668,1130.32 381.93,1130.305 381.191,1130.293C381.168,1130.293 381.148,1130.297 381.137,1130.297C381.105,1130.641 381.074,1130.965 381.043,1131.301L378.527,1131.301C378.488,1130.961 378.453,1130.621 378.41,1130.25C378.031,1130.273 377.652,1130.297 377.25,1130.32C377.664,1128.695 378.074,1127.086 378.488,1125.465L379.871,1125.465C379.879,1125.48 379.891,1125.488 379.891,1125.496C379.914,1126.043 379.926,1126.59 379.969,1127.137C379.984,1127.359 380.059,1127.578 380.113,1127.797C380.137,1127.91 380.223,1127.926 380.328,1127.926C381.379,1127.922 382.434,1127.922 383.488,1127.922L383.676,1127.922C383.578,1128.391 383.484,1128.848 383.387,1129.301C383.398,1129.305 383.406,1129.309 383.414,1129.312C383.523,1129.043 383.645,1128.777 383.75,1128.512C384.027,1127.805 384.328,1127.109 384.566,1126.391C384.754,1125.809 384.859,1125.203 385,1124.609C385.07,1124.316 385.141,1124.027 385.203,1123.738C385.23,1123.605 385.234,1123.469 385.266,1123.34C385.301,1123.188 385.359,1123.039 385.414,1122.859C385.418,1122.863 385.418,1122.863 385.418,1122.867L385.418,1122.816L382.27,1119.668C381.328,1118.727 379.684,1118.727 378.742,1119.668L374.344,1124.066L370.02,1124.066C369.043,1124.066 368.25,1124.859 368.25,1125.836L368.25,1130.16L363.852,1134.559C362.879,1135.531 362.879,1137.113 363.852,1138.09L368.25,1142.484L368.25,1146.809C368.25,1147.219 368.395,1147.59 368.629,1147.891C368.621,1147.852 368.621,1147.812 368.637,1147.762C368.992,1146.383 369.379,1145.012 369.68,1143.625C370.117,1141.629 370.68,1139.676 371.32,1137.738C371.371,1137.582 371.414,1137.418 371.473,1137.262C371.496,1137.203 371.555,1137.125 371.602,1137.117C372.094,1137.043 372.582,1136.98 373.074,1136.914C373.082,1136.914 373.094,1136.922 373.105,1136.926C372.91,1137.652 372.711,1138.379 372.512,1139.109C372.523,1139.113 372.535,1139.117 372.543,1139.125C372.57,1139.086 372.598,1139.047 372.625,1139.008C372.906,1138.559 373.078,1138.062 373.215,1137.555C373.457,1136.672 373.699,1135.789 373.938,1134.902C374,1134.68 374.07,1134.453 374.129,1134.242L375.934,1134.242C375.934,1134.301 375.93,1134.367 375.934,1134.438C375.949,1135.621 375.965,1136.805 375.977,1137.992C375.98,1138.07 375.977,1138.125 376.086,1138.133C376.668,1138.156 377.238,1138.27 377.797,1138.434C377.863,1138.453 377.934,1138.461 378.008,1138.477C377.859,1139.445 377.707,1140.414 377.551,1141.422C377.234,1141.422 376.926,1141.418 376.613,1141.422C376.359,1141.422 376.348,1141.418 376.305,1141.664C376.23,1142.109 376.172,1142.555 376.109,1143C376.047,1143.465 375.98,1143.926 375.922,1144.391C375.895,1144.605 375.887,1144.82 375.871,1145.035C375.887,1145.035 375.902,1145.039 375.918,1145.043C375.996,1144.711 376.074,1144.383 376.156,1144.055C376.289,1143.551 376.426,1143.051 376.555,1142.551C376.602,1142.383 376.648,1142.215 376.664,1142.043C376.676,1141.93 376.742,1141.895 376.82,1141.891C377.012,1141.879 377.207,1141.887 377.398,1141.879C377.578,1141.871 377.758,1141.859 377.938,1141.836C377.969,1141.832 378.008,1141.762 378.02,1141.715C378.074,1141.453 378.113,1141.191 378.172,1140.934C378.254,1140.574 378.355,1140.219 378.426,1139.859C378.484,1139.559 378.508,1139.254 378.547,1138.953C378.559,1138.855 378.574,1138.762 378.59,1138.637C378.891,1138.684 379.172,1138.723 379.457,1138.766C379.867,1138.828 380.281,1138.895 380.691,1138.953C381.016,1138.996 381.34,1139.035 381.66,1139.082C381.793,1139.102 381.871,1139.07 381.906,1138.926C382.051,1138.309 382.219,1137.699 382.352,1137.078C382.602,1135.891 382.953,1134.734 383.332,1133.582C383.457,1133.199 383.543,1132.801 383.652,1132.406C383.703,1132.219 383.773,1132.035 383.844,1131.828C384.02,1131.828 384.207,1131.832 384.391,1131.828C384.73,1131.824 385.074,1131.82 385.414,1131.805C385.453,1131.801 385.508,1131.73 385.527,1131.68C385.816,1130.91 386.109,1130.141 386.383,1129.367C386.668,1128.555 386.934,1127.738 387.207,1126.926C387.348,1126.5 387.492,1126.074 387.637,1125.652C387.684,1125.516 387.797,1125.461 387.926,1125.457" style="fill:rgb(88,39,26);fill-rule:nonzero;"/>
        <path d="M389.68,1129.102C389.586,1129.301 389.422,1129.43 389.219,1129.512C389.102,1129.406 389.082,1129.293 389.145,1129.168C389.215,1129.012 389.289,1128.852 389.379,1128.703C389.621,1128.305 389.996,1128.125 390.449,1128.086C390.559,1128.078 390.668,1128.062 390.797,1128.047C390.598,1128.18 390.418,1128.301 390.238,1128.414C389.973,1128.582 389.805,1128.824 389.68,1129.102M391.426,1128.078C391.637,1128.035 391.859,1128.059 392.078,1128.055C392.16,1128.055 392.242,1128.059 392.328,1128.059L392.328,1128.055L392.762,1128.055L392.762,1127.797L392.199,1127.797L392.199,1127.793L391.238,1127.793C391.086,1127.793 390.934,1127.816 390.781,1127.824C390.586,1127.832 390.391,1127.812 390.203,1127.848C389.691,1127.953 389.379,1128.332 389.078,1128.715C388.973,1128.852 388.879,1128.996 388.75,1129.102C388.684,1129.16 388.551,1129.172 388.449,1129.16C388.41,1129.156 388.352,1129.027 388.363,1128.961C388.379,1128.84 388.414,1128.707 388.484,1128.605C388.695,1128.289 388.949,1128.012 389.316,1127.875C389.496,1127.812 389.695,1127.793 389.887,1127.762C390.039,1127.734 390.195,1127.699 390.352,1127.695C390.969,1127.691 391.582,1127.691 392.199,1127.695L392.199,1127.691L392.762,1127.691L392.762,1127.492L392.738,1127.484C392.723,1127.488 392.707,1127.492 392.691,1127.492C391.969,1127.504 391.242,1127.492 390.52,1127.535C390.059,1127.562 389.59,1127.629 389.141,1127.742C388.66,1127.867 388.293,1128.18 388.051,1128.625C387.926,1128.855 387.801,1129.086 387.703,1129.328C387.66,1129.43 387.656,1129.57 387.688,1129.676C387.77,1129.945 387.891,1130.203 387.977,1130.469C388.02,1130.602 388.008,1130.746 388.133,1130.848C388.32,1131.004 388.699,1130.996 388.867,1130.824C389,1130.684 389.133,1130.566 389.363,1130.645C389.461,1130.676 389.598,1130.621 389.703,1130.57C389.934,1130.461 390.152,1130.328 390.375,1130.207C390.414,1130.188 390.457,1130.172 390.5,1130.164C390.801,1130.105 390.906,1129.984 390.953,1129.691C391.066,1128.973 391.691,1128.34 392.426,1128.352L392.762,1128.352L392.762,1128.207L392.375,1128.207C392.207,1128.227 392.051,1128.242 391.891,1128.246C391.574,1128.254 391.336,1128.41 391.105,1128.59C390.961,1128.699 390.844,1128.852 390.699,1128.965C390.555,1129.07 390.391,1129.148 390.234,1129.238C390.219,1129.223 390.199,1129.207 390.184,1129.191C390.191,1129.125 390.184,1129.043 390.215,1128.988C390.488,1128.516 390.883,1128.188 391.426,1128.078" style="fill:rgb(88,39,26);fill-rule:nonzero;"/>
    </g>
</svg>
