<?xml version="1.0" encoding="UTF-8" standalone="no"?>
<!DOCTYPE svg PUBLIC "-//W3C//DTD SVG 1.1//EN" "http://www.w3.org/Graphics/SVG/1.1/DTD/svg11.dtd">
<svg width="100%" height="100%" viewBox="0 0 60 60" version="1.1" xmlns="http://www.w3.org/2000/svg" xmlns:xlink="http://www.w3.org/1999/xlink" xml:space="preserve" xmlns:serif="http://www.serif.com/" style="fill-rule:evenodd;clip-rule:evenodd;stroke-linejoin:round;stroke-miterlimit:2;">
    <g transform="matrix(0.058594,0,0,0.058594,0.000381,0)">
        <path d="M511.955,12.403C487.245,12.403 462.522,21.783 443.739,40.566L333.1,151.205L227.912,151.205C185.675,151.205 151.125,185.755 151.125,227.992L151.125,333.14L40.486,443.779C2.949,481.348 2.949,542.681 40.486,580.25L151.125,690.889L151.125,795.998C151.125,838.235 185.675,872.785 227.912,872.785L333.1,872.785L443.739,983.463C462.524,1002.232 487.241,1011.626 511.955,1011.626C536.669,1011.626 561.386,1002.231 580.171,983.463L690.81,872.785L795.998,872.785C838.235,872.785 872.785,838.235 872.785,795.998L872.785,690.889L983.424,580.25C1020.991,542.683 1020.991,481.345 983.424,443.779L872.785,333.14L872.785,227.992C872.785,185.755 838.235,151.205 795.998,151.205L690.81,151.205L580.171,40.566C561.388,21.783 536.665,12.403 511.955,12.403Z" style="fill:rgb(247,188,63);fill-rule:nonzero;"/>
    </g>
    <g transform="matrix(0.058594,0,0,0.058594,0.000381,0)">
        <path d="M511.955,-0C482.428,0 454.708,11.479 433.864,32.35L327.926,138.328L229.098,138.328C179.024,138.328 138.249,179.076 138.249,229.177L138.249,327.966L32.311,433.904C-10.779,476.967 -10.779,546.995 32.311,590.086L138.249,696.064L138.249,794.853C138.276,844.927 179.024,885.702 229.098,885.702L327.926,885.702L433.864,991.68C454.708,1012.524 482.428,1023.991 511.955,1023.991C541.428,1023.991 569.175,1012.524 590.046,991.68L696.024,885.702L794.773,885.702C844.874,885.702 885.622,844.927 885.622,794.853L885.622,696.064L991.639,590.086C1034.675,546.996 1034.675,476.968 991.639,433.904L885.622,327.966L885.622,229.177C885.622,179.076 844.874,138.328 794.773,138.328L696.024,138.328L590.046,32.35C569.175,11.479 541.428,0 511.955,0ZM511.955,12.403C536.665,12.403 561.388,21.783 580.171,40.566L690.81,151.205L795.998,151.205C838.235,151.205 872.785,185.755 872.785,227.992L872.785,333.14L983.424,443.779C1020.991,481.346 1020.991,542.684 983.424,580.25L872.785,690.889L872.785,795.998C872.785,838.235 838.235,872.785 795.998,872.785L690.81,872.785L580.171,983.463C561.387,1002.232 536.669,1011.626 511.955,1011.626C487.241,1011.626 462.524,1002.231 443.739,983.463L333.1,872.785L227.912,872.785C185.675,872.785 151.125,838.235 151.125,795.998L151.125,690.889L40.486,580.25C2.949,542.681 2.949,481.348 40.486,443.779L151.125,333.14L151.125,227.992C151.125,185.755 185.675,151.205 227.912,151.205L333.1,151.205L443.739,40.566C462.522,21.783 487.245,12.403 511.955,12.403Z" style="fill:rgb(69,28,21);fill-rule:nonzero;"/>
    </g>
    <g transform="matrix(0.058594,0,0,0.058594,0.000381,0)">
        <path d="M693.705,243.916L707.349,243.916C704.383,241.489 702.145,239.709 699.772,237.714C697.723,239.817 695.916,241.678 693.705,243.916ZM349.549,245.318C349.306,245.507 349.118,245.642 348.902,245.776C351.275,250.36 353.648,254.863 356.183,259.744C358.61,258.045 360.578,256.67 363.059,254.917C358.232,251.465 353.864,248.418 349.549,245.317L349.549,245.318ZM281.813,260.122C280.276,257.156 279.197,254.783 277.849,252.518C277.498,251.898 276.123,251.116 275.827,251.332C271.809,253.948 267.872,256.725 263.019,260.123L281.813,260.122ZM501.093,918.313C515.115,922.654 529.191,920.335 543.293,918.744C529.271,916.452 515.222,915.292 501.093,918.313ZM565.944,632.779C569.53,636.932 599.489,637.174 602.994,632.725C590.159,630.568 578.078,631.269 565.944,632.779ZM661.239,634.802C656.817,631.89 619.605,631.755 614.832,634.613C619.012,637.633 657.491,637.795 661.239,634.802ZM664.394,244.32C671.459,244.32 677.93,244.374 684.375,244.266C685.4,244.239 686.667,243.565 687.26,242.783C689.067,240.599 690.55,238.145 692.464,235.395C685.588,235.395 679.143,235.341 672.699,235.476C671.89,235.503 670.946,236.177 670.353,236.851C668.465,239.062 666.713,241.408 664.394,244.32ZM568.209,245.345C572.928,245.021 577.566,244.509 582.177,244.347C588.487,244.158 592.532,241.327 594.851,235.098C584.254,233.345 574.169,233.049 568.209,245.345ZM627.533,235.314C619.875,235.314 612.406,235.287 604.936,235.368C604.181,235.368 603.183,235.826 602.725,236.42C600.81,238.874 599.085,241.462 597.062,244.321L615.236,244.321C622.301,244.321 624.377,242.838 627.532,235.315L627.533,235.314ZM663.423,235.395C654.713,235.395 646.651,235.368 638.615,235.476C637.752,235.503 636.512,236.069 636.107,236.797C634.732,239.062 633.68,241.516 632.305,244.32C639.828,244.32 647.298,244.374 654.74,244.212C655.819,244.212 657.059,243.133 657.895,242.217C659.675,240.276 661.212,238.145 663.423,235.395ZM336.013,236.15C330.539,232.375 326.117,228.654 321.101,226.119C318.162,224.636 313.605,223.719 310.935,224.986C305.569,227.548 300.958,231.808 296.077,235.314C296.239,235.611 296.401,235.907 296.589,236.15L336.013,236.15ZM350.979,260.31C347.716,254.297 344.777,248.904 341.757,243.592C341.272,242.756 340.139,241.758 339.276,241.731C334.665,241.515 330.054,241.65 325.065,241.65C327.303,245.884 329.568,249.308 331.051,253.056C333.424,258.88 337.172,261.55 343.536,260.364C345.693,259.986 347.931,260.31 350.978,260.31L350.979,260.31ZM305.866,260.31C302.172,254.027 298.963,248.391 295.538,242.837C295.107,242.163 293.866,241.839 292.922,241.678C287.987,240.626 284.698,243.835 282.109,246.963C281.3,247.988 283.484,251.493 284.401,253.839C285.021,255.322 285.614,256.886 286.639,258.073C287.448,259.098 288.796,260.149 289.983,260.203C294.918,260.446 299.906,260.311 305.865,260.311L305.866,260.31ZM302.334,241.65C305.597,247.717 308.617,253.461 311.772,259.15C312.096,259.716 313.147,260.202 313.875,260.202C318.837,260.337 323.798,260.283 329.272,260.283C326.009,254.162 323.07,248.472 319.942,242.917C319.564,242.243 318.378,241.704 317.515,241.704C312.58,241.569 307.592,241.65 302.334,241.65ZM782.259,687.277L782.259,686.09C775.787,685.659 769.262,684.877 762.736,684.823C740.301,684.661 717.839,684.742 695.404,684.796C693.867,684.823 692.357,685.497 690.847,685.848L691.09,687.816C721.453,689.596 751.869,688.382 782.259,687.277ZM519.133,889.056C515.412,887.897 512.58,886.359 509.614,886.117C500.068,885.389 490.496,884.796 480.95,884.769C472.564,884.742 464.178,885.389 455.819,886.063C454.147,886.225 452.583,887.924 450.696,889.056C459.055,896.337 506.487,896.121 519.133,889.056ZM321.533,652.329C321.533,652.032 321.506,651.709 321.506,651.385C319.376,650.981 317.272,650.279 315.142,650.172C304.41,649.768 293.651,649.309 282.919,649.282C256.116,649.147 229.339,649.201 202.536,649.282C199.489,649.282 196.388,649.66 193.368,650.172C192.397,650.361 191.561,651.493 190.671,652.167C191.588,652.976 192.397,654.351 193.368,654.486C197.278,655.025 201.296,655.43 205.26,655.457C233.951,655.511 262.669,655.646 291.36,655.403C299.665,655.349 307.971,654.324 316.249,653.623C318.056,653.461 319.781,652.787 321.534,652.329L321.533,652.329ZM778.052,655.457L778.052,654.486C766.484,653.92 754.916,653.111 743.348,652.868C724.149,652.383 704.923,652.086 685.697,651.978C657.599,651.816 629.448,651.897 601.35,651.897C600.757,651.897 600.002,651.681 599.597,651.951C598.357,652.787 597.278,653.785 596.119,654.728C597.09,655.834 597.926,657.128 599.139,657.937C599.867,658.422 601.134,658.153 602.159,658.153C633.816,657.856 665.5,657.614 697.13,657.263C719.754,657.047 742.377,656.724 764.974,656.346C769.342,656.265 773.711,655.78 778.052,655.456L778.052,655.457ZM400.648,634.829C400.648,634.236 400.621,633.616 400.621,633.022C396.711,632.213 392.801,630.703 388.891,630.703C367.319,630.703 345.747,631.161 324.175,631.323C302.738,631.458 281.274,631.35 259.836,631.566C256.438,631.593 253.014,632.86 249.643,633.561C249.67,634.019 249.697,634.451 249.724,634.882C254.335,635.475 258.892,636.365 263.476,636.527C285.614,637.255 307.807,638.091 329.972,638.28C349.036,638.469 368.101,637.849 387.165,637.498C390.401,637.444 393.664,637.013 396.872,636.527C398.193,636.311 399.38,635.421 400.647,634.828L400.648,634.829ZM512.446,184.727C509.399,182.92 506.783,181.653 504.437,179.981C498.64,175.747 491.952,176.826 486.883,179.603C475.531,185.94 464.933,193.706 453.177,201.472L541.596,201.472C535.421,197.292 529.165,193.544 522.613,190.362C519.701,188.933 518.487,187.369 518.622,184.079C518.865,177.607 518.838,171.082 518.568,164.583C518.514,163.316 516.815,162.102 515.898,160.862C514.739,161.995 513.336,162.965 512.581,164.287C512.069,165.177 512.446,166.606 512.446,167.792C512.419,173.212 512.446,178.632 512.446,184.726L512.446,184.727ZM473.131,865.434C475.747,866.647 478.173,868.589 480.762,868.859C497.157,870.423 513.579,872.311 530.054,872.85C543.483,873.281 556.965,873.848 570.448,870.504C581.45,867.754 593.045,867.43 604.397,865.974C605.233,865.839 606.015,865.192 606.824,864.788C606.797,864.222 606.77,863.709 606.716,863.197C603.696,862.9 600.568,863.062 597.71,862.253C585.063,858.748 572.174,858.694 559.258,858.694C548.472,858.694 537.686,858.586 526.927,858.721C511.692,858.91 496.483,859.233 481.275,859.692C477.958,859.827 474.372,860.231 473.132,865.436L473.131,865.434ZM622.706,848.042C622.598,847.718 622.49,847.422 622.355,847.098C615.722,846.262 609.088,845.291 602.455,844.563C586.626,842.837 570.69,841.705 554.862,840.303C531.348,838.254 507.565,839.413 483.917,839.386C476.987,839.359 470.057,839.521 463.181,840.303C454.795,841.328 446.463,843.026 438.103,844.644C436.701,844.941 435.514,846.316 433.303,847.826C436.781,849.147 439.047,850.549 441.366,850.792C450.75,851.655 460.188,852.653 469.598,852.733C499.287,852.949 529.002,852.814 558.718,852.733C564.03,852.679 569.342,852.355 574.654,852.032C589.458,851.088 604.235,850.091 619.012,849.066C620.279,848.958 621.493,848.392 622.706,848.041L622.706,848.042ZM723.178,263.87C721.911,254.918 716.841,250.495 708.078,250.495L588.299,250.495C586.061,250.495 583.823,250.549 581.639,250.225C570.098,248.607 558.907,248.041 550.656,258.638C549.766,259.771 548.391,260.553 547.42,261.631C546.773,262.305 546.395,263.222 545.748,264.247L570.286,264.247L570.286,275.06L586.357,275.06L586.357,264.139L620.549,264.139L620.549,275.599L649.267,275.599L649.267,264.058L683.108,264.058L683.108,276.192C688.636,275.976 693.678,275.734 698.856,275.518L698.856,263.869L723.178,263.87ZM581.665,229.921L691.009,229.921C689.769,228.923 689.229,228.519 688.744,228.06C682.38,222.424 675.882,216.896 669.653,211.126C660.134,202.281 650.939,193.113 641.259,184.484C636.351,180.116 634.41,180.277 629.61,183.864C623.813,188.151 618.231,192.736 612.622,197.239C610.734,198.722 608.982,200.367 606.609,202.362L606.609,196.538C606.609,181.626 606.609,166.688 606.582,151.749C606.582,149.295 606.124,146.491 603.077,146.868C601.971,147.003 600.515,150.023 600.461,151.749C599.976,170.22 599.841,188.664 599.382,207.162C599.328,209.103 598.223,211.342 596.928,212.852C592.182,218.434 587.167,223.8 581.666,229.921L581.665,229.921ZM346.934,266.566C346.772,265.946 346.664,265.326 346.556,264.705C323.986,264.705 301.443,264.678 278.874,264.705C271.324,264.705 263.288,263.222 256.358,265.298C249.617,267.347 243.846,272.902 237.914,277.244C229.339,283.446 220.953,289.864 212.594,296.362C208.28,299.706 208.657,302.133 213.753,303.912C216.315,304.802 219.092,305.395 221.789,305.503C228.234,305.719 234.705,305.557 241.447,305.557C241.447,311.624 241.393,317.179 241.474,322.788C241.528,325.781 242.822,326.86 245.708,325.269C250.804,322.465 255.928,319.795 261.213,316.991L261.213,305.558C266.903,305.558 272.377,305.288 277.797,305.612C283.621,305.963 288.232,304.372 293.113,300.92C304.87,292.615 317.328,285.28 329.462,277.595C335.313,273.901 341.111,270.234 346.935,266.566L346.934,266.566ZM758.502,315.427C758.583,314.942 758.664,314.429 758.745,313.89C754.107,312.002 749.469,308.524 744.804,308.47C711.125,308.012 677.445,308.092 643.766,308.254C622.922,308.335 602.051,309.09 581.207,309.036C534.476,308.928 487.692,308.524 440.961,308.227C396.576,307.93 352.192,307.634 307.834,307.364C301.12,307.283 294.621,307.957 289.579,313.35C301.282,313.808 312.904,314.267 325.146,314.725C318.297,321.278 312.122,327.399 305.677,333.196C304.14,334.571 301.659,335.596 299.61,335.65C287.799,335.893 275.935,335.758 264.097,335.731C262.776,335.731 261.158,336.082 260.187,335.488C254.713,332.171 251.747,336.324 248.295,339.56C254.092,340.234 259.836,340.585 265.526,340.126C271.323,339.668 275.476,341.178 278.523,346.409C281.651,351.721 285.453,356.656 289.363,362.399C276.528,362.399 264.852,362.507 253.176,362.372C242.552,362.21 231.901,362.048 221.33,361.401C216.261,361.131 212.755,363.073 209.007,366.713C210.409,366.767 211.272,366.875 212.108,366.875C257.517,367.172 302.926,367.819 348.309,367.684C391.049,367.549 433.788,366.551 476.501,366.066C510.989,365.662 545.424,365.203 579.912,365.149C608.01,365.122 636.107,365.688 664.232,365.985C689.202,366.255 714.225,366.767 739.195,366.74C769.8,366.713 800.406,366.255 831.011,365.931C831.335,365.931 831.685,365.634 833.033,364.933C829.716,363.585 827.289,361.805 824.755,361.643C815.182,360.996 805.556,360.376 796.01,360.807C789.134,361.104 783.957,359.54 779.534,354.201C776.002,349.994 771.633,346.543 767.642,342.768C767.777,342.39 767.939,342.067 768.073,341.716L801.051,341.716C795.766,336.862 790.831,334.57 784.225,334.705C768.747,334.921 753.242,334.274 737.764,333.923C737.413,333.923 737.063,333.572 736.362,333.168C741.297,328.314 746.312,323.919 750.707,318.903C752.918,316.395 754.887,314.562 758.5,315.425L758.502,315.427ZM394.285,182.543C393.233,182.543 393.045,182.516 392.991,182.597C389.728,185.752 389.998,190.039 389.971,193.976C389.782,210.236 389.944,226.523 389.809,242.783C389.782,244.482 389.162,246.774 387.975,247.718C377.108,256.536 366.349,265.515 354.916,273.605C345.559,280.184 335.393,285.578 325.551,291.429C320.535,294.395 315.412,297.226 309.615,300.543L732.509,300.543C731.188,299.114 729.543,298.386 727.952,297.604C723.772,295.501 718.946,294.152 715.629,291.105C709.589,285.55 701.877,284.741 695.028,284.633C652.288,284.013 609.495,284.336 566.755,284.336L561.389,284.336C561.281,282.961 561.227,282.125 561.2,281.235C561.065,273.307 560.364,272.66 552.14,272.66C546.693,272.66 541.219,272.714 535.745,272.606C532.644,272.552 530.676,269.775 532.428,267.833C537.47,262.251 542.675,256.858 547.96,251.492C557.047,242.297 566.215,233.183 576.139,223.26C569.586,218.487 564.032,214.2 558.207,210.398C556.05,208.969 553.138,207.998 550.576,207.971C518.595,207.836 486.642,208.106 454.661,207.701C446.922,207.62 440.316,209.103 434.302,213.984C431.12,216.546 427.588,218.703 424.19,221.022C419.498,224.15 414.779,227.251 409.467,230.756C409.467,216.977 409.521,204.114 409.359,191.252C409.332,189.769 407.876,188.286 407.067,186.803C406.393,188.151 405.099,189.5 405.072,190.875C404.748,203.441 404.587,216.006 404.506,228.599C404.452,235.394 401.998,238.873 394.286,241.596L394.285,182.543ZM328.651,553.286C324.606,553.286 320.939,552.666 317.595,553.421C314.063,554.257 310.395,555.821 307.672,558.086C304.436,560.809 306.162,567.227 310.207,568.548C313.739,569.734 317.461,570.813 321.155,571.029C328.301,571.407 335.447,571.164 342.565,571.11C382.932,570.84 423.272,570.355 463.665,570.301C546.232,570.166 628.799,570.247 711.393,570.247C716.597,570.247 718.593,568.279 718.943,562.805C719.186,559.273 715.303,554.5 711.77,554.23C705.595,553.799 699.42,553.583 693.245,553.286C691.708,553.178 690.225,553.07 688.877,552.962L688.877,482.475L645.032,482.475C644.628,488.542 644.574,494.313 643.792,499.975C642.983,505.692 642.174,511.597 640.098,516.909C638.022,522.248 635.19,527.803 631.226,531.767C622.948,540.018 612.054,542.283 600.513,542.769C588.945,543.281 578.321,540.504 567.643,536.297C553.351,530.634 542.431,516.235 541.756,501C541.513,494.852 541.028,488.704 540.677,482.475L468.95,482.475C468.95,493.207 469.112,503.67 468.896,514.078C468.68,522.545 465.418,530.068 459.728,536.27C450.29,546.49 437.617,548.162 424.592,549.294C411.595,550.427 400.809,544.899 390.967,538.077C386.14,534.706 382.365,528.235 380.424,522.41C376.757,511.489 375.058,499.948 375.651,488.191C375.948,482.42 375.381,482.151 369.8,482.151C357.369,482.097 344.938,482.097 332.534,482.097C331.267,482.097 329.999,482.259 328.651,482.34L328.651,553.286ZM687.989,395.945C689.148,395.864 690.308,395.675 691.467,395.648C710.477,395.54 729.515,395.324 748.525,395.297C776.65,395.243 804.774,395.297 832.872,395.243C836.377,395.243 839.91,394.812 843.361,394.299C844.359,394.164 845.653,393.193 846.031,392.304C847.217,389.392 848.161,386.372 848.916,383.298C850.049,378.795 847.595,375.802 842.957,375.721C824.621,375.397 806.284,374.723 787.948,374.858C745.343,375.155 702.765,375.883 660.16,376.395C643.145,376.557 626.103,376.719 609.115,376.53C552.165,375.856 495.241,374.615 438.264,374.4C389.754,374.184 341.244,375.128 292.706,375.344C267.278,375.452 241.823,375.155 216.395,375.02C204.8,374.966 193.205,374.616 183.444,382.786C181.152,384.727 176.945,385.779 178.779,389.392C180.1,391.954 183.606,393.491 186.356,395.189C187.219,395.701 188.675,395.27 189.834,395.27L328.408,395.27L328.408,400.663C328.408,417.705 328.435,434.72 328.381,451.735C328.354,460.094 329.46,458.908 321.046,458.962C308.939,459.043 296.75,458.584 284.67,459.232C281.218,459.421 277.174,461.982 274.828,464.652C273.669,466.027 274.801,471.312 276.581,472.768C279.385,475.033 283.565,476.57 287.232,476.678C303.411,477.109 319.644,476.975 335.85,476.975C355.049,476.975 374.302,476.84 393.528,476.84C443.845,476.813 494.135,476.867 544.452,476.813C596.36,476.759 648.295,476.624 700.229,476.516C716.489,476.462 732.749,476.273 749.036,476.138C752.892,476.111 755.804,473.522 754.78,470.233C753.594,466.62 751.409,463.249 749.144,460.121C748.335,459.015 746.097,458.476 744.506,458.476C727.491,458.341 710.476,458.368 693.434,458.368L689.632,458.368C689.093,437.146 688.526,416.68 687.987,395.944L687.989,395.945ZM463.45,640.114C449.105,640.114 435.218,640.465 421.357,639.979C415.721,639.763 413.133,643.026 409.169,646.424C427.856,647.395 445.572,645.399 463.261,647.907L463.261,655.322C461.346,655.322 459.756,655.349 458.138,655.322C440.719,655.025 423.272,654.944 405.88,654.243C400.595,654.054 398.842,656.859 396.577,661.631L462.318,661.631L462.318,669.154L395.121,669.154C395.121,672.12 394.663,675.086 395.229,677.81C396.469,684.12 401.188,687.949 405.907,691.859C416.774,700.865 429.286,706.852 441.986,712.595C447.837,715.238 453.824,717.637 459.621,720.334C460.915,720.954 462.506,722.464 462.56,723.597C462.776,732.415 462.668,741.286 462.668,750.535L457.464,750.535C446.22,750.535 434.975,750.292 423.731,750.697C420.792,750.805 417.907,752.935 415.075,754.175C413.403,754.93 411.785,756.413 410.113,756.494C395.174,756.979 380.236,757.195 365.324,757.546C364.299,757.573 363.248,757.654 362.277,757.924C353.19,760.513 343.995,761.456 334.53,761.241C317.919,760.863 301.363,761.16 284.779,761.133C281.516,761.106 278.658,761.618 276.797,765.663C279.898,766.31 282.702,767.362 285.534,767.443C297.507,767.821 309.479,767.794 321.478,768.117C328.084,768.279 334.664,768.818 341.27,769.196C340.542,770.302 339.76,770.679 338.978,770.706C332.372,771.057 325.738,771.488 319.105,771.65C305.676,772.054 292.221,772.405 278.765,772.594C268.869,772.729 258.946,772.513 249.022,772.702C245.678,772.756 241.768,772.621 240.528,778.338C245.166,779.632 249.804,780.9 254.442,782.167C253.93,783.273 253.417,784.324 252.581,786.239C255.52,787.372 258.19,788.909 261.075,789.475C264.796,790.203 268.679,789.933 272.427,790.554C275.69,791.093 278.872,792.172 281.946,793.304C284.265,794.14 286.341,796.001 288.687,796.378C294.323,797.295 300.093,798.077 305.81,798.158C342.078,798.67 378.319,798.913 414.533,799.344C416.852,799.371 419.549,799.587 421.328,800.8C426.775,804.629 432.977,804.198 439.071,804.71C441.794,804.926 444.545,805.411 447.295,805.762L447.295,806.895C446.486,807.03 445.704,807.299 444.895,807.299C430.684,807.596 416.501,807.865 402.317,808.243C393.176,808.459 383.981,808.782 374.84,809.187C372.09,809.295 369.285,809.591 366.562,810.212C362.706,811.075 358.688,812.046 357.987,817.735C360.98,819.002 363.973,820.782 367.236,821.537C371.604,822.589 376.215,823.128 380.719,823.29C396.089,823.856 411.459,824.126 426.829,824.557C431.494,824.692 436.186,824.988 440.959,825.231C440.15,827.146 439.476,828.844 438.802,830.516C446.137,834.857 451.422,836.529 458.513,836.718C472.346,837.015 486.206,837.527 500.039,837.5C536.28,837.365 572.521,837.069 608.762,836.745C616.204,836.691 617.984,834.804 618.416,826.984C615.935,825.501 613.508,823.182 610.731,822.616C606.309,821.645 601.644,821.726 597.06,821.618C591.424,821.483 585.816,821.591 580.18,821.591C581.933,820.647 583.739,820.836 585.438,820.593C591.209,819.757 598.112,822.103 601.698,814.93C601.941,814.445 603.316,814.472 604.152,814.418C615.208,813.771 626.263,813.097 637.292,812.584C651.314,811.964 665.336,811.613 679.358,810.885C682.513,810.75 685.614,809.699 688.688,808.836C690.737,808.27 692.706,806.598 694.701,806.571C713.064,806.382 731.401,806.733 749.764,806.328C757.988,806.139 766.159,804.494 775.057,803.443C773.331,800.153 771.255,799.048 768.181,799.075C759.148,799.129 750.141,799.183 741.108,798.94C736.605,798.832 732.102,798.05 727.598,797.592C727.598,797.134 727.598,796.675 727.625,796.217C729.162,795.866 730.645,795.327 732.182,795.3C747.121,794.869 762.059,794.599 776.998,794.275C783.092,794.167 789.537,795.354 794.283,789.853C794.58,789.556 795.416,789.718 796.009,789.583C799.461,788.639 803.074,788.1 806.256,786.644C808.009,785.862 810.301,783.246 810.004,781.952C809.6,779.876 807.577,777.772 805.69,776.424C803.506,774.86 800.594,774.375 798.302,772.892C793.799,770.007 788.999,768.982 783.714,769.009C768.91,769.144 754.106,769.117 739.302,768.982C737.361,768.982 735.419,768.038 733.478,767.499C730,766.582 726.521,764.883 723.016,764.829C705.273,764.559 687.503,764.775 669.76,764.64C664.205,764.613 658.111,764.478 653.958,760.595C649.967,756.847 645.788,756.496 641.015,756.496C633.788,756.523 626.508,756.496 619.281,756.334C618.095,756.307 616.099,755.93 615.883,755.228C612.863,746.896 605.744,742.689 599.461,737.323C585.844,725.755 570.77,717.153 553.593,712.38C553.512,712.056 553.377,711.76 553.377,711.49C553.35,684.255 553.296,657.02 553.485,629.786C553.485,628.573 555.292,626.901 556.64,626.173C573.358,617.49 590.913,610.183 603.775,595.675C608.575,590.282 612.62,584.215 617.581,577.662L462.693,577.662C462.693,588.178 462.693,598.398 462.666,608.618C462.666,610.964 463.286,613.66 462.342,615.602C461.56,617.166 458.917,617.867 457.003,619C463.987,619.647 464.149,619.863 462.854,625.903C451.34,626.658 438.693,622.748 429.579,633.049L463.447,633.049L463.45,640.114ZM675.072,637.229C678.335,637.66 681.571,638.442 684.806,638.496C699.044,638.631 713.227,638.496 727.465,638.631C748.012,638.847 768.56,639.332 789.134,639.44C818.796,639.602 848.484,639.467 878.119,639.467C878.847,639.467 879.548,639.575 880.923,639.629C879.737,640.95 878.955,641.921 878.092,642.784C867.225,653.705 856.25,664.491 845.518,675.547C844.035,677.084 842.875,679.781 842.875,681.965C842.74,718.665 842.767,755.364 842.767,792.091C842.794,807.812 837.509,821.132 825.348,831.46C816.153,839.253 805.421,842.677 793.637,842.704C756.479,842.839 719.321,842.785 682.163,842.704C679.305,842.677 677.282,843.513 675.233,845.562C637.293,883.61 599.245,921.55 561.359,959.597C550.168,970.814 536.983,978.284 521.343,980.225C502.845,982.49 485.587,978.472 470.703,966.662C467.359,963.992 464.231,961.053 461.211,958.033C423.81,920.686 386.437,883.367 349.144,845.912C346.906,843.62 344.695,842.676 341.459,842.676C304.328,842.784 267.17,843.054 230.012,842.649C209.141,842.433 193.744,832.429 185.277,813.176C182.904,807.648 181.529,801.257 181.448,795.217C181.044,767.551 181.286,739.858 181.286,712.191C181.286,711.49 181.367,710.789 181.421,709.899C210.462,708.551 239.396,711.625 268.141,707.904C268.168,707.5 268.168,707.095 268.195,706.664C261.804,706.179 255.387,705.316 248.969,705.262C226.615,705.073 204.288,705.181 181.26,705.181C181.26,697.658 181.071,690.35 181.341,683.016C181.476,679.457 180.316,677.03 177.809,674.549C166.807,663.817 155.994,652.869 145.1,641.948C144.102,640.95 143.132,639.872 141.352,637.957L147.042,637.957C172.47,637.822 197.952,637.768 223.407,637.553C226.508,637.526 229.636,636.744 232.737,636.313C232.764,635.747 232.791,635.234 232.791,634.695C230.553,634.237 228.315,633.374 226.05,633.347C197.197,632.943 168.345,632.619 139.519,632.43C136.634,632.403 134.638,631.594 132.589,629.545C109.75,606.571 86.775,583.677 63.882,560.757C36.216,533.037 36.135,491.133 63.801,463.44C101.984,425.203 140.193,386.994 178.457,348.865C180.506,346.816 181.342,344.793 181.315,341.935C181.234,304.777 181.126,267.619 181.315,230.461C181.396,213.311 188.488,199.451 202.725,189.582C211.084,183.811 220.576,181.412 230.607,181.385C267.63,181.277 304.626,181.304 341.622,181.412C344.669,181.412 346.772,180.576 348.957,178.392C386.439,140.749 424.19,103.321 461.536,65.543C474.857,52.114 490.685,44.537 509.345,43.863C528.679,43.162 545.937,49.283 559.851,63.116C598.33,101.46 636.729,139.886 675.073,178.365C677.203,180.549 679.333,181.439 682.408,181.412C718.946,181.304 755.51,181.358 792.048,181.358C807.769,181.358 821.116,186.535 831.444,198.75C839.21,207.918 842.688,218.65 842.742,230.461C842.85,267.322 842.769,304.184 842.796,341.018C842.796,342.474 842.742,345.036 843.227,345.171C848.539,346.573 848.755,352.182 851.964,355.364C888.205,391.335 924.257,427.496 960.391,463.575C971.285,474.442 978.323,487.385 980.21,502.567C982.826,523.654 977.487,542.88 962.44,558.277C938.468,582.842 914.011,606.976 889.634,631.137C888.286,632.458 885.778,633.186 883.81,633.186C840.153,633.294 796.497,633.186 752.84,633.348C729.623,633.402 706.406,633.86 683.162,634.265C680.492,634.319 677.796,635.101 675.126,635.532C675.099,636.098 675.072,636.665 675.072,637.231L675.072,637.229Z" style="fill:rgb(69,28,21);fill-rule:nonzero;"/>
    </g>
    <g transform="matrix(0.058594,0,0,0.058594,0.000381,0)">
        <path d="M405.335,678.272L456.65,678.272C466.897,678.272 466.897,678.272 475.606,685.633L470.887,685.633C453.414,685.633 435.967,685.444 418.521,685.741C412.777,685.849 409.38,683.071 405.335,678.272Z" style="fill:rgb(69,28,21);fill-rule:nonzero;"/>
    </g>
    <g transform="matrix(0.058594,0,0,0.058594,0.000381,0)">
        <path d="M432.696,693.642L467.589,693.642C473.09,693.642 478.672,692.914 483.984,693.831C489.889,694.829 495.579,697.309 501.35,699.116C501.269,699.574 501.161,700.06 501.026,700.518C499.516,700.599 497.979,700.734 496.442,700.761C483.58,700.761 470.69,700.276 457.882,700.95C448.552,701.408 440.705,697.903 432.697,693.642L432.696,693.642Z" style="fill:rgb(69,28,21);fill-rule:nonzero;"/>
    </g>
    <g transform="matrix(0.058594,0,0,0.058594,0.000381,0)">
        <path d="M541.147,458.056L541.147,395.524C542.846,395.416 544.41,395.308 545.974,395.308C563.852,395.281 581.73,395.173 599.635,395.335C613.468,395.443 627.328,395.982 641.161,396.117C644.37,396.144 644.828,397.6 644.774,400.189C644.531,411.11 644.343,422.058 644.208,432.979C644.127,441.203 644.181,449.455 644.181,458.057L541.147,458.056Z" style="fill:rgb(69,28,21);fill-rule:nonzero;"/>
    </g>
    <g transform="matrix(0.058594,0,0,0.058594,0.000381,0)">
        <rect x="375.945" y="395.389" width="93.569" height="63.233" style="fill:rgb(69,28,21);fill-rule:nonzero;"/>
    </g>
    <g transform="matrix(0.058594,0,0,0.058594,0.000381,0)">
        <path d="M349.107,362.395L307.823,362.395C306.07,362.395 304.237,362.152 302.511,362.449C298.035,363.177 295.662,361.694 293.801,357.191C291.913,352.58 288.273,348.67 285.388,344.463C284.606,343.33 283.716,342.225 282.233,340.31C297.738,340.31 312.191,340.903 326.537,340.067C334.384,339.582 338.671,342.116 341.584,349.046C343.445,353.549 346.357,357.594 349.107,362.394L349.107,362.395Z" style="fill:rgb(69,28,21);fill-rule:nonzero;"/>
    </g>
    <g transform="matrix(0.058594,0,0,0.058594,0.000381,0)">
        <path d="M457.005,341.475C468.654,341.475 480.114,341.421 491.574,341.502C498.207,341.529 504.841,341.637 511.474,342.014C513.038,342.122 515.006,343.093 515.977,344.306C519.833,349.348 523.419,354.661 527.626,360.62C522.61,360.62 518.404,360.539 514.197,360.62C501.227,360.89 488.284,361.159 475.286,361.564C472.374,361.645 470.567,360.863 468.895,358.301C465.201,352.557 461.048,347.11 457.003,341.475L457.005,341.475Z" style="fill:rgb(69,28,21);fill-rule:nonzero;"/>
    </g>
    <g transform="matrix(0.058594,0,0,0.058594,0.000381,0)">
        <path d="M342.662,340.232C358.383,340.232 373.402,340.205 388.476,340.286C389.501,340.286 390.93,340.744 391.523,341.499C396.458,347.782 401.257,354.2 406.704,361.372C393.114,361.75 380.629,361.561 368.252,362.558C358.814,363.34 352.046,361.695 349.026,351.529C347.947,347.754 345.116,344.437 342.662,340.231L342.662,340.232Z" style="fill:rgb(69,28,21);fill-rule:nonzero;"/>
    </g>
    <g transform="matrix(0.058594,0,0,0.058594,0.000381,0)">
        <path d="M314.473,333.976C318.787,329.041 324.423,322.219 330.598,315.882C331.946,314.507 335.182,314.615 337.555,314.588C343.838,314.561 350.121,314.885 356.431,314.912C365.977,314.993 375.522,314.939 384.744,314.939C382.425,317.42 380.025,320.224 377.409,322.84C373.607,326.642 369.751,330.363 365.76,333.977C365.059,334.651 363.711,334.84 362.686,334.813C355.486,334.624 348.314,334.112 341.087,334.004C331.299,333.869 321.456,333.977 314.472,333.977L314.473,333.976Z" style="fill:rgb(69,28,21);fill-rule:nonzero;"/>
    </g>
    <g transform="matrix(0.058594,0,0,0.058594,0.000381,0)">
        <path d="M492.054,333.976C497.932,327.693 503.191,321.977 508.584,316.368C509.285,315.694 510.741,315.505 511.874,315.505C529.59,315.478 547.306,315.478 566.02,315.478C562.434,318.983 559.387,322.031 556.232,325.024C554.668,326.534 552.727,327.747 551.27,329.419C547.603,333.679 543.369,335.27 537.518,334.947C523.82,334.165 510.094,334.246 496.342,333.976C495.183,333.949 494.023,333.976 492.055,333.976L492.054,333.976Z" style="fill:rgb(69,28,21);fill-rule:nonzero;"/>
    </g>
    <g transform="matrix(0.058594,0,0,0.058594,0.000381,0)">
        <path d="M523.272,341.858L563.693,341.858C564.017,341.858 564.286,341.966 564.583,341.912C574.21,339.809 580.196,344.528 584.618,352.428C586.101,355.017 588.043,357.39 590.308,360.598L585.724,360.598C570.381,360.652 555.038,360.571 539.695,360.733C537.214,360.733 535.704,360.086 534.356,357.983C530.797,352.509 526.968,347.224 523.273,341.858L523.272,341.858Z" style="fill:rgb(69,28,21);fill-rule:nonzero;"/>
    </g>
    <g transform="matrix(0.058594,0,0,0.058594,0.000381,0)">
        <path d="M499.858,315.805C494.087,321.602 488.344,327.4 482.519,333.117C481.98,333.656 480.955,333.953 480.173,333.953C463.536,333.98 446.898,333.98 430.341,333.98C435.869,328.129 441.801,321.873 447.814,315.698C448.407,315.024 449.567,314.539 450.457,314.539C466.906,314.458 483.354,314.485 499.803,314.485C499.83,314.916 499.83,315.375 499.857,315.806L499.858,315.805Z" style="fill:rgb(69,28,21);fill-rule:nonzero;"/>
    </g>
    <g transform="matrix(0.058594,0,0,0.058594,0.000381,0)">
        <path d="M462.803,361.505C446.786,361.505 432.009,361.532 417.232,361.451C416.126,361.424 414.616,360.75 413.996,359.887C409.601,353.874 405.421,347.726 400.837,341.119C408.414,341.119 415.722,341.146 423.029,341.119C430.121,341.092 437.213,340.93 444.304,341.092C445.841,341.119 447.89,341.793 448.78,342.899C453.418,348.696 457.759,354.764 462.802,361.505L462.803,361.505Z" style="fill:rgb(69,28,21);fill-rule:nonzero;"/>
    </g>
    <g transform="matrix(0.058594,0,0,0.058594,0.000381,0)">
        <path d="M556.843,333.976C562.533,328.232 568.492,322.138 574.586,316.179C575.179,315.586 576.42,315.397 577.39,315.397C592.895,315.343 608.454,315.37 624.903,315.37C623.42,317.123 622.422,318.417 621.317,319.63C618.378,322.92 615.25,326.048 612.499,329.472C609.802,332.762 606.809,334.218 602.36,334.083C587.152,333.786 571.97,333.975 556.843,333.975L556.843,333.976Z" style="fill:rgb(69,28,21);fill-rule:nonzero;"/>
    </g>
    <g transform="matrix(0.058594,0,0,0.058594,0.000381,0)">
        <path d="M440.581,314.478C434.379,321.084 428.582,327.313 422.703,333.488C422.056,334.189 421.004,334.782 420.114,334.782C404.933,334.863 389.751,334.836 373.896,334.836C380.637,327.987 386.866,321.596 393.176,315.313C393.796,314.72 395.037,314.504 395.98,314.504C410.757,314.477 425.534,314.477 440.58,314.477L440.581,314.478Z" style="fill:rgb(69,28,21);fill-rule:nonzero;"/>
    </g>
    <g transform="matrix(0.058594,0,0,0.058594,0.000381,0)">
        <path d="M647.622,342.894L660.403,342.894C671.647,342.894 683.242,344.62 694.028,342.436C706.459,339.928 709.236,349.096 714.98,355.271C716.005,356.404 716.679,357.86 718.054,360.017C715.465,360.017 713.659,360.098 711.798,360.017C698.208,359.666 684.671,359.262 671.081,358.858C670.65,358.858 670.164,358.723 669.76,358.858C662.021,361.528 657.653,357.833 654.336,351.227C652.88,348.342 650.21,346.05 647.622,342.895L647.622,342.894Z" style="fill:rgb(69,28,21);fill-rule:nonzero;"/>
    </g>
    <g transform="matrix(0.058594,0,0,0.058594,0.000381,0)">
        <path d="M585.273,342.023C599.78,342.023 614.368,342.185 629.01,341.969C641.117,341.753 645.728,350.598 651.445,359.739C647.4,359.739 644.084,359.685 640.767,359.739C627.527,359.955 614.26,360.251 600.993,360.359C599.645,360.413 597.784,359.739 597.029,358.741C593.038,353.348 589.317,347.793 585.272,342.023L585.273,342.023Z" style="fill:rgb(69,28,21);fill-rule:nonzero;"/>
    </g>
    <g transform="matrix(0.058594,0,0,0.058594,0.000381,0)">
        <path d="M682.846,314.942C677.83,320.578 672.923,326.24 667.746,331.768C666.694,332.874 664.834,333.871 663.324,333.898C647.954,334.033 632.557,333.979 615.596,333.979C622.391,327.346 628.27,321.548 634.229,315.831C634.768,315.346 635.874,315.373 636.737,315.373L682.874,315.373C683.278,315.373 683.656,315.562 684.06,315.67L682.846,314.942Z" style="fill:rgb(69,28,21);fill-rule:nonzero;"/>
    </g>
    <g transform="matrix(0.058594,0,0,0.058594,0.000381,0)">
        <path d="M674.594,333.976C681.173,328.34 686.944,323.621 692.472,318.633C695.169,316.233 698,315.235 701.613,315.289C714.179,315.478 726.744,315.37 739.337,315.37L744.299,315.37C738.178,321.815 732.704,327.666 727.068,333.437C726.61,333.922 725.477,333.949 724.668,333.949C708.408,333.976 692.148,333.976 674.594,333.976Z" style="fill:rgb(69,28,21);fill-rule:nonzero;"/>
    </g>
    <g transform="matrix(0.058594,0,0,0.058594,0.000381,0)">
        <path d="M712.702,342.009L758.57,342.009C759.298,342.009 760.296,341.928 760.673,342.36C766.201,348.184 771.675,354.063 776.96,359.752L758.435,359.752C749.132,359.779 739.829,359.698 730.499,359.887C727.614,359.995 725.969,359.321 724.243,356.651C720.98,351.635 716.855,347.186 712.702,342.009Z" style="fill:rgb(69,28,21);fill-rule:nonzero;"/>
    </g>
</svg>
