<?xml version="1.0" encoding="UTF-8" standalone="no"?>
<!DOCTYPE svg PUBLIC "-//W3C//DTD SVG 1.1//EN" "http://www.w3.org/Graphics/SVG/1.1/DTD/svg11.dtd">
<svg width="100%" height="100%" viewBox="0 0 60 61" version="1.1" xmlns="http://www.w3.org/2000/svg" xmlns:xlink="http://www.w3.org/1999/xlink" xml:space="preserve" xmlns:serif="http://www.serif.com/" style="fill-rule:evenodd;clip-rule:evenodd;stroke-linejoin:round;stroke-miterlimit:2;">
    <g transform="matrix(0.058594,0,0,0.058594,-0.000091,0.000034)">
        <path d="M511.955,12.403C487.245,12.403 462.522,21.783 443.739,40.566L333.1,151.205L227.912,151.205C185.675,151.205 151.125,185.755 151.125,227.992L151.125,333.14L40.486,443.779C2.949,481.348 2.949,542.681 40.486,580.25L151.125,690.889L151.125,795.998C151.125,838.235 185.675,872.785 227.912,872.785L333.1,872.785L443.739,983.463C462.524,1002.232 487.241,1011.626 511.955,1011.626C536.669,1011.626 561.386,1002.231 580.171,983.463L690.81,872.785L795.998,872.785C838.235,872.785 872.785,838.235 872.785,795.998L872.785,690.889L983.424,580.25C1020.991,542.683 1020.991,481.345 983.424,443.779L872.785,333.14L872.785,227.992C872.785,185.755 838.235,151.205 795.998,151.205L690.81,151.205L580.171,40.566C561.388,21.783 536.665,12.403 511.955,12.403Z" style="fill:rgb(247,188,63);fill-rule:nonzero;"/>
    </g>
    <g transform="matrix(0.058594,0,0,0.058594,-0.000091,0.000034)">
        <path d="M504.859,520.601C502.644,506.839 500.161,493.076 497.045,479.533C495.396,472.355 496.385,464.278 490.879,458.264C489.716,457.032 487.849,455.495 486.555,455.719C485.217,455.843 483.438,457.872 483.108,459.34C481.876,465.332 480.955,471.434 480.19,477.536C477.515,499.859 475.188,522.247 472.2,544.548C470.421,558.003 467.677,571.37 465.396,584.803C464.432,590.708 463.374,596.634 462.584,602.605C460.562,617.86 458.658,633.181 456.748,648.457C456.088,653.64 454.707,658.949 455.236,664.041C455.914,671.263 460.438,677.035 465.004,682.523C468.781,687.021 473.542,689.788 479.6,689.152C486.865,688.387 494.109,687.373 501.352,686.277C502.603,686.028 504.158,685.138 504.861,684.081C510.218,675.916 512.39,667.07 511.095,657.258C509.757,647.052 508.283,636.779 508.003,626.507C507.101,596.371 506.796,566.233 506.248,536.097L504.997,536.097C504.997,530.92 505.675,525.649 504.873,520.601L504.859,520.601Z" style="fill:rgb(69,28,21);fill-rule:nonzero;"/>
    </g>
    <g transform="matrix(0.058594,0,0,0.058594,-0.000091,0.000034)">
        <path d="M842.659,774.314C842.659,762.395 842.681,762.264 831.026,759.322C816.32,755.632 801.591,752.013 786.754,748.742C777.36,746.633 767.877,744.349 758.285,743.54C745.664,742.445 732.911,742.551 720.225,742.551C715.44,742.529 710.501,743.173 705.913,744.436C702.709,745.313 698.846,747.111 697.243,749.681C693.597,755.498 694.014,762.478 697.554,768.075C702.469,775.867 708.024,783.374 714.257,790.134C723.717,800.472 734.121,809.933 743.801,820.117C747.074,823.564 749.264,828.041 752.537,832.891C750.409,833.015 749.706,833.264 749.308,833.015C740.089,827.571 731.002,821.93 721.761,816.575C718.862,814.908 715.726,813.327 712.52,812.736C698.911,810.297 687.805,814.248 680.43,826.476C678.259,830.078 675.645,830.271 672.089,828.143C673.01,825.424 673.956,822.829 674.746,820.175C675.58,817.388 676.283,814.532 677.029,811.703C678.149,807.422 676.718,803.801 673.495,802.901C655.079,797.899 636.467,797.718 618.248,803.025C608.239,805.924 598.823,810.883 589.253,815.119C583.653,817.602 579.025,816.855 576.215,812.4C579.027,808.953 581.833,805.859 584.161,802.457C589.891,793.985 595.838,785.578 600.909,776.71C604.574,770.323 603.168,766.174 597.443,761.499C591.011,756.273 583.263,754.124 575.34,754.189C554.51,754.313 533.68,755.328 512.85,755.726C495.795,756.037 480.431,761.17 466.405,770.85C460.128,775.149 456.484,780.683 457.362,788.146C457.984,792.999 459.907,797.672 461.468,802.369C462.831,806.494 463.335,810.512 461.032,814.771C459.365,814.149 457.828,813.719 456.359,813.104C451.749,811.237 447.294,808.164 442.553,807.529C419.528,804.499 397.732,807.529 378.987,822.806C374.271,826.601 373.039,835.339 376.66,840.3C379.404,844.052 382.079,847.894 384.781,851.648C381.533,854.193 379.094,854.348 376.44,851.399C373.957,848.68 371.282,845.98 368.187,844.068C363.62,841.281 359.89,836.166 353.524,837.549C348.123,838.712 342.769,840.249 337.391,841.631C337.347,842.191 337.329,842.794 337.267,843.386C344.071,840.711 347.32,845.253 351.073,849.004C388.826,886.823 426.601,924.598 464.42,962.351C466.903,964.809 469.665,967.005 472.52,968.98C487.248,979.231 503.447,983.006 521.314,980.636C536.042,978.707 548.729,972.756 559.046,962.505C598.16,923.742 637.01,884.716 675.883,845.712C677.905,843.696 679.902,842.794 682.775,842.794C720.067,842.856 757.36,842.856 794.674,842.838C797.86,842.838 801.083,842.402 804.222,841.961C824.767,839.086 843.029,818.168 842.7,796.964C842.576,789.457 842.678,781.885 842.678,774.334L842.659,774.314Z" style="fill:rgb(69,28,21);fill-rule:nonzero;"/>
    </g>
    <g transform="matrix(0.058594,0,0,0.058594,-0.000091,0.000034)">
        <path d="M384.114,681.995C385.389,682.119 386.877,681.248 388.133,680.545C398.164,674.858 405.495,666.717 410.368,656.203C414.362,647.467 413.025,638.006 414.537,628.963C416.447,617.681 417.741,606.289 419.539,594.985C420.945,586.03 422.812,577.162 424.349,568.251C426.371,556.552 427.684,544.699 430.322,533.176C434.621,514.278 439.87,495.598 444.392,476.721C445.73,471.165 447.882,465.483 444.828,459.601C442.109,454.443 439.782,453.852 435.609,458.089C423.471,470.447 413.791,484.67 405.099,499.574C384.883,534.277 369.19,570.867 359.861,610.046C356.588,623.611 354.131,637.417 351.257,651.443C352.837,655.898 354.374,660.07 355.843,664.262C360.429,677.322 372.964,680.899 384.136,681.997L384.114,681.995Z" style="fill:rgb(69,28,21);fill-rule:nonzero;"/>
    </g>
    <g transform="matrix(0.058594,0,0,0.058594,-0.000091,0.000034)">
        <path d="M542.109,456.957C538.818,453.995 535.524,455.178 534.646,459.415C534.024,462.115 533.308,465.015 533.725,467.646C536.973,488.674 540.397,509.679 543.976,530.641C545.227,537.863 547.466,544.864 548.605,552.086C550.36,563.565 551.548,575.111 552.954,586.656C554.509,599.519 555.741,612.403 557.652,625.2C558.927,633.672 559.761,642.606 563.246,650.244C567.657,659.968 574.682,668.792 584.296,674.081C594.305,679.525 604.819,680.004 615.025,673.334C624.419,667.143 633.682,661.13 630.016,647.258C630.452,647.28 630.918,647.302 631.335,647.32C629.842,637.904 629.251,628.268 626.637,619.203C622.139,603.597 617.33,587.991 611.097,573.043C595.644,536.036 574.727,501.971 553.019,468.476C550.188,464.09 546.039,460.486 542.11,456.931L542.109,456.957Z" style="fill:rgb(69,28,21);fill-rule:nonzero;"/>
    </g>
    <g transform="matrix(0.058594,0,0,0.058594,-0.000091,0.000034)">
        <path d="M385.393,782.024C388.112,774.957 385.517,767.845 379.488,766.571C376.875,766.011 374.199,765.389 371.63,765.607C357.736,766.789 343.666,767.119 330.079,769.844C311.971,773.552 294.147,778.799 276.391,784.111C255.407,790.389 234.665,797.435 213.813,804.173C204.089,807.29 194.409,810.473 184.049,813.831C194.146,832.071 208.018,842.937 229.002,842.849C254.31,842.787 279.64,842.6 304.926,842.973C312.081,843.097 317.7,840.889 323.693,837.224C340.857,826.754 357.21,815.34 371.587,801.183C377.249,795.565 382.452,789.615 385.393,781.999L385.393,782.024Z" style="fill:rgb(69,28,21);fill-rule:nonzero;"/>
    </g>
    <g transform="matrix(0.058594,0,0,0.058594,-0.000091,0.000034)">
        <path d="M980.651,580.695C945.312,616.121 909.93,651.482 874.481,686.777C872.11,689.148 871.059,691.456 871.059,694.855C871.121,729.337 871.308,763.842 870.997,798.325C870.624,833.313 841.343,865.886 806.707,870.298C801.879,870.933 796.983,871.219 792.133,871.219C759.714,871.281 727.294,871.281 694.874,871.219C691.539,871.197 689.169,872.121 686.775,874.51C651.48,909.981 616.097,945.342 580.693,980.702C561.685,999.645 538.681,1009.588 511.859,1009.588C485.037,1009.588 462.011,999.667 443.004,980.702C407.621,945.342 372.238,909.959 336.966,874.51C334.527,872.115 332.181,871.194 328.823,871.219C295.811,871.281 262.82,871.343 229.809,871.241C192.319,871.117 162.116,846.767 154.17,810.155C153.075,804.997 152.745,799.597 152.702,794.285C152.453,778.46 152.64,762.633 152.64,746.786C152.64,729.622 152.516,712.435 152.702,695.292C152.746,691.714 151.713,689.257 149.236,686.775C113.787,651.481 78.404,616.12 43.066,580.693C24.102,561.684 14.224,538.681 14.246,511.815C14.308,485.476 23.794,462.692 42.386,444.013C77.966,408.213 113.7,372.567 149.456,336.943C151.739,334.703 152.704,332.488 152.704,329.261C152.58,296.073 152.58,262.952 152.642,229.786C152.704,189.75 181.55,157.506 221.256,152.941C224.771,152.568 228.346,152.692 231.923,152.692C264.496,152.648 297.025,152.714 329.577,152.568C331.904,152.568 334.779,151.361 336.425,149.712C371.896,114.461 407.234,79.012 442.639,43.696C477.319,9.082 532.544,5.438 571.461,35.158C575.194,38.033 578.683,41.305 582.041,44.64C617.029,79.54 651.972,114.505 686.872,149.537C689.131,151.796 691.352,152.766 694.576,152.766C727.566,152.642 760.6,152.642 793.59,152.722C831.365,152.784 861.634,177.064 869.58,213.917C870.899,219.909 871.048,226.231 871.092,232.421C871.216,264.687 871.216,296.952 871.092,329.218C871.092,332.422 871.969,334.681 874.296,336.944C909.81,372.371 945.347,407.819 980.773,443.356C999.825,462.496 1009.681,485.697 1009.461,512.717C1009.274,539.21 999.408,561.928 980.685,580.695L980.651,580.695ZM991.065,433.478C956.999,399.346 922.846,365.215 888.671,331.193C886.257,328.798 885.336,326.383 885.355,323.027C885.479,291.968 885.542,260.866 885.311,229.785C885.249,222.586 884.608,215.233 882.94,208.296C872.931,166.724 837.549,138.716 794.835,138.431C763.294,138.244 731.774,138.369 700.254,138.453C697.162,138.453 695.052,137.507 692.901,135.361C659.581,101.932 626.196,68.547 592.789,35.161C590.07,32.442 587.345,29.698 584.426,27.216C558.921,5.442 529.399,-3.316 496.277,1.118C471.276,4.434 450.117,15.824 432.316,33.713C398.602,67.625 364.712,101.34 330.997,135.207C328.714,137.49 326.517,138.455 323.271,138.455C292.783,138.331 262.296,138.331 231.808,138.433C225.748,138.455 219.604,138.557 213.7,139.64C169.23,147.674 138.369,184.746 138.325,230.007C138.281,261.066 138.281,292.168 138.387,323.249C138.387,326.453 137.528,328.737 135.201,331.019C100.916,365.151 66.675,399.392 32.5,433.655C11.736,454.485 0.717,479.771 0.037,509.118C-0.71,540.813 10.353,568.119 32.83,590.639C66.808,624.683 100.808,658.704 134.895,692.639C137.44,695.14 138.404,697.623 138.385,701.177C138.198,717.463 138.323,733.728 138.323,750.036C138.323,765.115 138.136,780.217 138.447,795.296C138.571,802.056 139.169,808.949 140.73,815.489C150.717,857.171 186.319,885.311 229.165,885.552C260.531,885.676 291.919,885.614 323.306,885.49C326.554,885.49 328.769,886.498 331.032,888.763C364.329,922.214 397.737,955.577 431.144,988.963C433.844,991.682 436.588,994.426 439.507,996.908C465.056,1018.594 494.6,1027.352 527.7,1022.853C552.876,1019.406 574.058,1007.817 591.924,989.797C625.507,955.951 659.309,922.368 692.936,888.61C695.089,886.457 697.192,885.493 700.289,885.536C730.909,885.598 761.55,885.66 792.17,885.536C798.23,885.492 804.374,885.412 810.278,884.261C854.945,875.986 885.39,839.176 885.455,793.763C885.477,762.968 885.499,732.173 885.393,701.399C885.393,697.709 886.382,695.122 889.014,692.488C922.75,658.971 956.246,625.322 989.938,591.806C1011.361,570.493 1023.104,544.855 1023.762,514.653C1024.465,483.133 1013.446,455.894 991.123,433.484L991.065,433.478Z" style="fill:rgb(69,28,21);fill-rule:nonzero;"/>
    </g>
    <g transform="matrix(0.058594,0,0,0.058594,-0.000091,0.000034)">
        <path d="M959.478,461.733C931.163,433.747 903.112,405.498 874.994,377.293C873.874,376.154 873.171,374.574 872.25,373.211C871.752,373.46 871.286,373.709 870.782,373.958C868.654,383.726 866.545,393.493 860.861,402.339C857.283,395.754 852.015,391.957 844.97,389.521C846.507,393.385 847.67,396.611 849.095,399.727C851.466,404.773 854.738,409.538 856.251,414.806C857.806,420.207 857.894,426.088 858.36,431.795C859.15,441.321 860.818,450.979 860.009,460.417C859.387,467.419 855.598,474.223 852.942,481.006C852.021,483.308 850.267,483.377 847.915,481.84C841.923,477.933 835.909,474.027 829.499,470.822C814.09,463.117 798.638,455.458 782.878,448.5C766.284,441.19 749.493,434.298 732.46,428.087C709.062,419.483 685.312,411.691 661.717,403.57C658.643,402.494 655.526,401.486 652.41,400.453C652.223,399.955 652.037,399.401 651.912,398.916C658.059,394.243 664.029,389.258 670.438,384.978C679.679,378.787 689.139,372.884 698.774,367.242C703.272,364.629 708.322,362.874 713.239,360.899C719.671,358.311 726.409,355.716 733.301,357.651C741.444,359.891 749.456,362.784 757.138,366.299C771.8,373.082 786.221,380.435 800.73,387.59C804.637,389.475 808.434,391.566 812.297,393.557C814.033,391.491 815.588,389.911 816.883,388.138C826.08,375.319 832.599,361.052 838.262,346.434C840.129,341.562 842.456,336.381 842.499,331.333C842.872,295.511 842.686,259.689 842.623,223.868C842.623,221.522 841.814,219.146 841.372,216.778C840.999,216.84 840.65,216.902 840.277,216.965C839.425,241.636 841.285,266.374 838.168,291.111C835.094,286.942 832.568,282.792 829.301,279.346C826.097,276.011 822.079,273.423 818.436,270.5C818.063,270.749 817.689,270.936 817.36,271.178C832.198,307.088 832.439,341.504 807.768,372.651C747.934,345.477 684.499,330.134 620.209,316.153C628.265,310.821 636.32,305.486 644.903,301.205C651.773,297.802 659.741,296.532 666.37,292.82C672.603,289.311 678.881,289.703 684.763,290.779C699.426,293.454 714.088,296.509 728.289,300.942C740.756,304.849 752.543,310.798 764.637,315.846C771.551,318.721 778.443,321.663 785.489,324.603C790.031,313.431 792.14,302.544 791.789,291.635C791.416,278.136 789.157,264.725 787.907,251.248C787.72,249.164 788.28,246.706 789.313,244.795C791.771,240.122 795.087,235.884 797.259,231.099C803.052,218.347 804.919,204.803 804.546,190.844C804.235,180.549 804.235,180.33 793.944,181.318C793.695,181.318 793.446,181.629 793.266,181.691C789.01,200.897 789.072,221.376 775.882,238.409C774.607,236.897 773.58,235.709 772.566,234.502C762.996,222.935 751.692,213.694 737.315,208.843C734.353,207.835 730.752,208.719 726.297,208.719C727.678,210.43 728.008,211.021 728.512,211.438C734.703,216.422 740.892,221.403 747.125,226.364C762.27,238.458 774.518,252.265 775.615,272.919C776.113,282.335 776.866,291.73 773.089,300.993C771.067,300.433 769.53,299.941 767.999,299.475C745.347,292.803 722.761,285.669 699.911,279.589C685.841,275.812 671.332,273.467 656.956,270.875C645.872,268.853 634.7,267.036 623.505,265.742C610.072,264.162 596.573,262.276 583.096,262.164C560.115,261.977 537.089,263.085 514.086,263.719C504.934,263.968 495.802,264.155 486.693,264.708C479.34,265.081 471.855,265.268 464.699,266.73C446.393,270.42 428.109,274.346 410.023,278.956C395.229,282.751 380.698,287.604 366.058,292.169C361.248,293.662 356.664,295.859 351.856,297.414C345.359,299.48 338.687,301.122 332.212,303.207C329.026,304.24 326.152,306.299 322.949,307.158C302.382,312.646 282.892,320.722 264.19,330.864C260.413,332.905 256.332,334.442 251.767,336.482C252.265,326.517 251.829,317.078 253.478,308.013C257.56,284.922 268.36,264.663 281.925,245.808C284.296,242.517 286.119,238.828 288.708,234.438C286.406,234.562 285.46,234.314 285.043,234.687C271.983,245.969 259.208,257.515 252.294,274.086C239.673,239.055 250.602,209.072 272.225,181.13C268.405,181.13 265.003,181.006 261.623,181.192C260.372,181.254 258.724,181.87 257.977,182.841C251.612,190.743 245.663,198.864 242.218,208.653C236.401,225.093 234.865,241.951 236.052,259.291C236.674,267.808 238.049,275.885 241.782,283.567C242.46,284.93 242.404,287.101 241.844,288.569C235.964,304.833 234.118,321.713 234.008,338.833C233.946,347.173 234.008,355.536 234.008,364.58C239.583,362.054 244.368,359.926 249.066,357.687C260.479,352.243 271.849,346.735 285.019,347.832C293.513,348.554 302.162,348.467 310.459,350.091C323.475,352.592 336.271,356.213 348.212,359.156C323.299,367.497 297.553,374.74 272.86,384.727C247.991,394.78 224.198,407.532 199.307,419.407C198.212,412.318 196.98,404.986 195.972,397.612C193.402,378.889 194.043,360.144 199.767,342.145C204.595,327.044 211.246,312.469 217.085,297.653C217.745,296.004 218.137,294.25 218.665,292.539C218.229,292.29 217.763,292.103 217.302,291.861C207.337,301.541 200.642,313.591 193.486,326.037C189.38,320.767 185.409,315.677 180.997,309.992C180.997,317.784 181.246,324.742 180.935,331.678C180.748,335.498 181.75,338.285 184.973,340.304C187.586,341.953 187.543,343.969 186.336,346.713C184.824,349.961 183.374,353.452 182.889,356.985C181.595,366.292 180.917,375.664 179.84,384.971C178.085,400.292 179.137,415.283 184.973,429.704C186.336,433.064 188.047,436.223 189.384,439.033C204.024,432.229 217.699,425.139 231.923,419.498C253.06,411.113 274.834,404.331 295.928,395.836C319.568,386.244 343.778,378.693 368.69,373.491C371.415,372.931 375.209,372.11 376.899,373.447C380.607,376.322 384.406,380.053 386.074,384.268C388.93,391.489 390.199,399.369 392.283,407.622C387.629,407.622 383.832,407 380.321,407.746C366.493,410.602 352.533,413.234 338.99,417.118C286.289,432.351 237.166,455.683 191.116,485.227C178.934,493.041 168.179,503.006 156.611,512.159C148.709,505.662 148.973,505.552 147.261,500.701C139.227,477.895 142.259,454.278 142.632,430.945C142.756,420.98 145.245,411.037 146.714,400.721C135.762,412.442 131.679,427.192 127.42,441.986C117.345,434.545 117.85,422.495 114.009,411.981C95.638,430.397 77.617,448.352 59.684,466.416C57.861,468.258 56.368,470.479 54.899,472.607C44.737,487.379 40.851,503.534 43.244,521.445C45.241,536.129 51.058,548.816 61.352,559.198C100.049,598.158 138.944,636.922 177.838,675.684C180.097,677.943 181.111,680.095 181.111,683.367C180.987,720.967 181.049,758.544 181.049,796.165L181.049,801.653C190.729,797.547 199.772,793.905 208.64,789.932C216.124,786.553 223.28,782.469 230.787,779.199C242.727,774.066 254.646,768.62 262.921,758.413C268.956,750.995 274.006,742.456 277.847,733.698C283.136,721.604 287.812,709.092 291.039,696.318C294.946,681.085 295.911,665.04 300.192,649.939C307.106,625.399 315.162,601.145 323.766,577.132C331.054,556.697 341.831,537.821 352.301,518.812C367.599,491.112 383.03,463.499 402.06,438.126C405.638,433.36 407.635,428.293 408.426,422.586C409.048,418.2 409.764,413.829 409.938,409.417C410.311,398.574 411.45,387.533 406.186,377.349C396.155,357.968 378.112,349.319 358.511,343.986C348.173,341.155 337.022,341.416 326.289,340.035C324.534,339.786 322.973,338.193 321.33,337.204C322.711,335.841 324.005,333.539 325.542,333.34C333.817,332.307 342.158,331.299 350.499,331.256C358.686,331.234 366.873,332.575 375.082,332.992C380.588,333.241 385.047,330.646 388.164,326.253C390.516,322.937 392.246,319.164 394.373,315.673C396.258,312.556 398.455,310.845 401.967,313.962C403.348,315.213 405.302,315.785 406.179,316.221C405.345,321.597 404.138,326.713 403.808,331.871C403.497,336.917 404.797,341.617 408.748,345.48C415.75,352.284 424.201,357.113 433.2,359.725C441.541,362.164 446.853,360.584 449.904,352.35C452.847,344.338 452.561,335.998 451.397,327.898C450.775,323.661 448.628,318.745 445.536,315.892C437.041,308.1 426.878,302.81 415.553,300.154C409.144,298.686 402.713,297.342 397.928,292.34C398.426,288.893 400.323,287.026 403.92,287.798C411.778,289.447 419.526,291.618 427.472,292.912C434.21,294.007 441.125,294.362 447.995,294.691C449.532,294.753 451.573,293.77 452.605,292.582C454.907,289.969 457.234,287.119 458.665,283.978C460.289,280.444 462.33,278.49 466.281,278.142C471.7,277.706 477.08,276.761 482.041,276.101C481.668,281.327 480.703,285.912 481.226,290.346C482.831,304.482 484.561,318.617 487.131,332.599C488.494,340.106 489.327,348.293 495.669,353.89C497.38,355.383 499.794,356.565 502.056,356.939C513.689,358.868 521.986,348.686 525.345,340.169C532.588,322.061 534.586,303.206 529.296,284.022C528.462,280.973 527.871,277.856 527.081,274.452C533.098,274.452 538.67,274.39 544.311,274.452C547.21,274.514 549.208,275.591 549.929,278.863C550.651,282.111 551.528,285.557 553.308,288.345C555.567,291.947 558.31,297.125 561.671,297.849C567.88,299.187 574.841,300.661 581.316,296.797C586.343,293.81 592.203,292.099 597.032,288.807C608.292,281.059 621.022,279.896 634.039,279.852C637.747,279.808 641.458,280.487 646.024,280.904C641.855,285.975 637.924,289.267 632.788,291.637C621.616,296.77 610.751,302.546 599.842,308.231C597.913,309.195 596.24,310.801 594.709,312.381C587.685,319.624 580.639,326.648 575.262,335.625C569.619,344.998 567.031,354.48 566.395,365.037C566.022,371.907 574.867,378.646 581.277,377.329C591.023,375.288 600.571,372.519 608.517,366.135C610.359,364.667 612.207,362.184 612.511,359.969C613.587,352.594 613.979,345.087 614.595,337.624C615.317,328.712 616.574,327.813 624.428,330.469C626.537,331.191 627.303,332.074 626.755,334.532C625.635,339.342 624.646,344.256 624.272,349.15C623.899,354.812 628.136,358.347 633.776,357.425C636.346,356.989 638.778,355.733 641.349,355.453C652.016,354.314 661.564,350.034 671.003,345.29C672.098,344.73 673.573,344.214 674.668,344.525C682.789,346.566 690.867,348.806 700.042,351.286C691.087,355.585 683.185,359.276 675.393,363.139C666.591,367.488 657.614,371.545 649.252,376.528C644.903,379.116 641.789,383.684 637.904,387.064C630.705,393.255 625.371,400.585 622.627,409.738C620.325,417.464 621.376,422.556 626.161,425.937C630.243,428.793 634.327,431.711 638.519,434.388C659.963,448.084 677.523,466.105 693.415,485.574C704.17,498.788 712.884,513.648 722.805,527.541C733.868,543.06 744.404,558.753 750.308,577.125C754.477,589.988 758.144,603.135 763.785,615.339C771.928,632.854 775.923,650.985 778.184,669.993C779.634,682.021 780.467,694.423 786.196,705.705C790.782,714.638 796.227,722.518 805.292,727.413C808.496,729.149 811.526,731.252 814.467,733.43C822.896,739.534 832.927,741.376 842.695,744.954C842.695,724.08 842.757,703.799 842.633,683.517C842.633,680.356 843.467,678.098 845.794,675.835C882.142,639.574 918.468,603.27 954.751,566.9C958.814,562.862 962.675,558.603 966.45,554.322C975.625,543.874 980.103,531.275 981.113,517.776C982.762,495.914 975.252,477.301 959.537,461.761L959.478,461.733Z" style="fill:rgb(69,28,21);fill-rule:nonzero;"/>
    </g>
    <g transform="matrix(0.058594,0,0,0.058594,-0.000091,0.000034)">
        <path d="M655.573,587.81C659.219,600.19 663.036,612.503 666.416,624.949C668.544,632.829 668.457,641.455 673.791,648.238C678.905,654.691 683.251,662.374 692.558,663.844C695.874,664.404 699.296,664.342 702.677,664.522L702.677,664.335C705.048,664.335 707.399,664.357 709.767,664.335C716.9,664.211 721.773,661.087 723.529,654.326C724.954,648.708 725.57,642.846 726.298,637.051C727.748,625.549 723.554,615.08 720.132,604.456C714.115,585.821 707.928,567.361 696.339,551.25C686.615,537.751 677.001,524.187 667.914,510.271C649.762,482.438 625.442,461.323 597.324,444.137C593.218,441.654 589.137,442.314 584.944,442.426C584.197,442.448 583.165,443.72 582.816,444.641C581.391,448.393 583.911,450.763 585.759,453.685C594.978,468.215 603.758,482.987 612.845,497.584C630.581,526.009 646.099,555.487 655.581,587.819L655.573,587.81Z" style="fill:rgb(69,28,21);fill-rule:nonzero;"/>
    </g>
</svg>
