<?xml version="1.0" encoding="UTF-8" standalone="no"?>
<!DOCTYPE svg PUBLIC "-//W3C//DTD SVG 1.1//EN" "http://www.w3.org/Graphics/SVG/1.1/DTD/svg11.dtd">
<svg width="100%" height="100%" viewBox="0 0 61 60" version="1.1" xmlns="http://www.w3.org/2000/svg" xmlns:xlink="http://www.w3.org/1999/xlink" xml:space="preserve" xmlns:serif="http://www.serif.com/" style="fill-rule:evenodd;clip-rule:evenodd;stroke-linejoin:round;stroke-miterlimit:2;">
    <g transform="matrix(0.058594,0,0,0.058594,0.000117,0.000031)">
        <path d="M700.968,585.288C705.181,578.679 707.708,573.103 711.66,568.822C718.488,561.335 727.643,557.998 737.742,557.8C747.82,557.613 757.875,557.551 767.93,557.822C779.72,558.133 790.39,561.556 798.93,570.248C804.22,575.693 806.197,582.652 807.997,589.568C814.913,616.156 816.889,643.357 815.879,670.669C815.244,687.926 811.006,704.282 800.73,718.75C796.604,724.544 790.719,726.127 784.506,727.246C779.347,728.167 774.033,728.453 768.786,728.671C767.778,728.715 766.259,727.308 765.799,726.213C763.167,719.868 761.038,713.281 758.225,707.024C755.636,701.143 753.153,694.949 749.224,689.987C745.054,684.672 739.827,679.58 733.965,676.419C729.422,673.961 723.23,674.222 717.762,674.029C714.905,673.905 713.655,673.593 712.846,670.581C710.363,661.25 705.14,654.357 695.304,651.437C680.463,647.025 666.258,655.171 663.47,670.186C662.972,672.756 661.846,673.235 659.63,673.192C655.479,673.13 651.331,673.005 647.204,673.214C644.677,673.338 643.626,672.449 642.897,670.053C640.128,660.591 633.918,653.807 624.323,651.985C608.384,648.979 597.341,653.304 593.499,669.636C592.734,672.866 591.458,673.302 588.8,673.214C584.649,673.09 580.501,673.401 576.374,673.027C575.167,672.965 573.188,671.334 573.057,670.239C571.893,661.04 570.599,651.797 570.244,642.576C569.808,629.732 565.72,618.25 558.125,608.151C555.225,604.286 550.814,601.521 546.445,597.745C547.192,596.998 548.113,595.573 549.432,594.888C557.819,590.345 561.529,582.813 562.978,573.899C563.414,571.242 564.316,570.121 567.129,570.103C573.452,570.081 579.797,569.356 586.098,569.543C591.17,569.73 595.253,572.088 599.161,575.8C608.975,585.065 615.078,596.92 623.026,607.481C628.098,614.309 634.157,618.085 643.927,616.944C656.617,615.45 669.636,616.508 682.501,616.446C693.61,616.424 704.719,616.508 715.784,616.384C717.122,616.34 718.441,615.289 719.736,614.691C719.033,613.571 718.442,612.251 717.52,611.287C714.228,607.883 710.165,607.292 705.533,607.292C688.957,607.292 672.403,607.168 655.871,606.302C651.919,606.115 647.748,603.296 644.389,600.726C641.072,598.199 638.614,594.534 636.002,591.219C633.656,588.275 634.639,585.904 638.417,585.425C640.483,585.176 642.543,585.301 644.628,585.301L700.964,585.301L700.968,585.288ZM746.477,753.584C746.166,759.378 742.612,765.55 739.078,770.511C734.049,777.558 727.771,783.684 721.822,790.051C720.745,791.19 718.791,792.092 717.21,792.092C691.786,792.216 666.341,792.154 640.478,792.154C639.14,786.864 637.777,781.638 636.483,776.435C631.766,757.202 622.717,739.902 612.464,723.239C607.373,714.984 601.663,707.014 593.012,701.789C588.774,699.2 584.67,696.281 580.586,693.447C579.31,692.57 578.215,691.449 576.192,689.651C582.011,689.215 586.752,688.469 591.473,688.469C627.852,688.407 664.275,688.22 700.632,688.593C708.141,688.637 716.044,689.732 723.026,692.327C730.645,695.14 735.672,702.163 738.548,709.65C744.037,723.657 747.33,738.499 746.473,753.559L746.477,753.584ZM609.937,839.468C609.915,841.447 608.643,843.968 607.149,845.262C595.842,855.142 582.362,859.225 567.543,859.73C557.093,860.103 546.642,860.607 536.236,861.529C527.52,862.344 522.558,858.212 519.484,850.618C518.146,847.369 516.497,844.207 515.028,841.024C510.591,831.561 502.777,828.005 492.766,827.654C477.507,827.156 462.073,826.689 447.605,821.309C435.618,816.828 424.07,811.078 412.478,805.524C403.762,801.398 400.052,794.371 401.369,784.623C402.377,777.049 401.742,769.035 403.958,761.878C406.634,753.382 411.181,745.303 415.792,737.53C419.987,730.549 425.255,724.204 430.282,717.749C431.072,716.672 433.027,716.473 434.408,715.863C434.844,717.201 435.198,718.564 435.727,719.84C437.109,723.157 437.837,727.063 440.121,729.544C450.988,741.378 464.14,749.216 480.561,750.489C492.593,751.454 504.711,753.389 516.677,752.792C530.179,752.17 543.945,750.576 555.779,742.627C564.802,736.565 571.148,728.751 572.926,717.643C573.237,715.732 574.619,714.021 575.646,711.911C590.071,721.703 598.194,734.832 602.014,750.639C604.976,763.043 607.285,775.602 609.742,788.116C610.24,790.705 610.115,793.431 610.115,796.064C610.137,810.532 610.177,825 609.928,839.468L609.937,839.468ZM609.16,872.266C608.662,890.357 597.853,899.907 582.046,905.989C567.929,911.366 553.329,914.09 538.444,915.627C526.479,916.853 514.513,918.571 502.504,918.963C495.259,919.212 487.97,917.494 480.703,916.548C474.139,915.714 467.531,915.185 461.097,913.803C436.881,908.575 418.812,894.439 406.254,873.538C403.117,868.267 401.91,861.287 401.599,855.008C400.921,841.045 401.35,826.993 401.35,812.218C418.869,823.986 436.96,832.109 456.72,835.995C465.019,837.644 473.559,838.323 482.012,839.244C486.841,839.742 491.716,839.879 496.59,840.209C499.82,840.396 501.264,842.667 502.627,845.281C505.614,851.162 508.645,857.049 512.111,862.647C516.324,869.497 522.496,873.01 530.795,873.207C549.852,873.643 568.886,873.269 587.526,869.255C594.991,867.631 601.819,863.106 609.152,859.858C609.152,863.461 609.214,867.872 609.13,872.262L609.16,872.266ZM392.435,751.732C391.999,752.678 390.699,753.885 389.778,753.885C371.929,754.009 354.08,753.947 336.209,753.947C336.022,753.511 335.773,753.088 335.574,752.653C344.927,744.53 354.301,736.384 363.654,728.239C374.697,718.667 385.718,709.073 396.762,699.522C402.6,694.493 408.156,689.093 414.523,684.856C418.344,682.329 423.371,681.078 428.025,680.444C433.47,679.722 439.113,680.257 444.887,680.257C444.887,681.489 445.26,683.443 444.763,685.173C444.39,686.779 443.425,688.839 442.131,689.498C422.24,699.641 408.738,715.668 399.626,735.691C397.186,740.981 394.952,746.405 392.425,751.696L392.435,751.732ZM458.354,683.571C459.3,668.664 460.769,653.691 463.115,638.915C465.138,625.962 474.532,618.146 485.465,612.13C486.847,611.34 488.409,610.879 490.319,610.114C490.954,610.973 491.638,611.981 492.429,613.076C491.508,613.798 490.736,614.283 490.145,614.899C487.513,617.6 484.612,620.127 482.417,623.176C478.509,628.597 480.811,633.846 484.346,638.325C487.483,642.364 491.613,645.131 497.146,645.153C504.83,645.197 512.536,645.775 520.199,645.589C527.949,645.402 533.262,640.691 535.523,633.36C537.826,625.83 537.633,618.321 535.772,610.659C538.915,608.773 540.913,610.535 542.71,612.769C551.799,624.274 557.244,636.898 557.046,652.024C556.859,664.692 558.322,677.382 558.452,690.071C558.576,701.268 558.079,712.487 557.531,723.684C557.469,725.352 556.037,727.661 554.569,728.47C542.186,735.298 529.299,740.436 514.809,740.699C500.758,740.948 486.817,740.263 473.183,736.921C467.762,735.627 462.689,732.77 458.847,731.189C458.847,724.756 458.891,719.641 458.825,714.569C458.701,704.229 457.748,693.888 458.389,683.569L458.354,683.571ZM499.028,586.311C498.468,577.156 500.677,573.687 507.744,572.831C516.02,571.754 522.19,575.507 523.595,583.215C526.383,598.562 529.24,613.908 528.381,629.671C528.008,635.882 526.315,637.596 520.016,637.596L504.911,637.596C497.929,637.596 492.045,634.547 491.738,630.351C491.178,622.469 491.862,616.124 500.74,614.016C500.118,604.795 499.62,595.552 499.029,586.309L499.028,586.311ZM457.666,568.022C455.295,565.035 452.793,562.097 450.86,558.845C446.099,550.875 448.925,543.082 452.596,535.836C456.019,529.03 460.148,522.575 464.452,516.296C470.227,507.799 478.986,503.035 488.602,501.476C497.253,500.07 506.473,500.157 515.19,501.432C529.153,503.448 537.057,513.88 543.204,525.451C549.023,536.428 550.296,548.591 551.503,560.776C552.268,568.24 545.684,579.503 537.21,582.27C533.37,566.572 523.247,557.746 510.579,559.437C495.716,561.453 487.132,569.163 484.519,585.124C473.849,582.006 464.628,576.803 457.668,568.021L457.666,568.022ZM474.727,445.581C472.312,446.944 470.377,446.415 468.338,444.791C462.103,439.918 455.802,435.175 449.413,430.257C467.657,420.509 485.397,410.915 503.246,401.474C507.92,398.991 512.401,401.972 512.643,407.181C513.265,419.19 508.1,427.577 497.472,433C489.766,436.977 482.279,441.342 474.727,445.58L474.727,445.581ZM430.4,402.877C410.092,403.954 390.42,400.481 371.693,392.273C363.197,388.539 357.993,381.647 353.119,374.094C346.884,364.456 343.218,354.203 342.713,341.491C344.692,343.426 346.074,344.584 347.213,345.972C357.181,357.915 371.056,362.46 385.524,364.743C397.973,366.672 410.706,366.959 423.33,367.463C429.304,367.712 435.317,366.673 441.509,366.212C443.42,376.707 438.366,389.067 450.51,398.244C443.001,400.043 436.789,402.569 430.4,402.874L430.4,402.877ZM343.349,294.637C344.575,286.558 347.961,278.764 350.572,270.904C356.497,253.099 369.804,242.846 386.775,237.204C404.185,231.429 421.288,231.124 439.093,238.15C451.695,243.154 460.521,250.971 467.854,261.488C472.839,268.711 472.31,276.988 472.466,285.243C472.59,294.069 467.811,299.47 460.962,303.575C457.975,305.374 454.795,306.911 451.543,308.162C443.793,311.236 441.049,317.054 441.203,325.024C441.39,334.487 441.247,343.949 441.247,353.785C436.635,354.283 432.136,354.992 427.613,355.104C419.622,355.353 411.629,355.477 403.638,355.104C390.4,354.482 377.293,352.117 365.525,345.993C354.745,340.373 347.259,330.339 343.461,319.252C340.916,311.875 342.079,302.72 343.337,294.64L343.349,294.637ZM486.48,280.589C486.791,276.793 487.513,274.988 491.77,275.168C497.06,275.355 502.418,274.981 507.709,274.533C510.958,274.284 512.296,275.155 512.078,278.64C511.829,282.897 512.016,287.202 512.034,291.506C512.056,297.3 515.986,302.549 521.584,303.537C525.623,304.215 529.795,304.527 533.901,304.439C540.399,304.252 546.876,296.996 546.942,289.62C546.942,286.017 545.778,282.441 545.473,278.818C545.349,277.455 546.22,276.055 546.612,274.667C547.359,275.719 548.541,276.733 548.852,277.916C549.617,280.878 549.773,283.996 550.563,286.939C551.745,291.308 554.913,293.745 559.235,294.821C573.066,298.331 580.465,293.11 583.693,276.049C593.265,277.916 603.606,277.935 611.905,282.042C621.916,287.002 629.205,296.049 630.939,308.212C632.781,321.253 634.804,334.25 636.889,348.016C625.143,347.954 614.21,347.182 608.325,358.51C604.087,366.655 606.744,377.435 615.241,386.854C611.638,391.926 605.866,391.752 600.773,392.362C591.025,393.501 591.42,393.196 590.41,383.207C589.508,374.096 587.995,364.984 585.998,356.005C583.21,343.425 573.813,336.465 562.638,332.206C548.148,326.673 533.175,326.368 517.982,329.331C502.153,332.38 491.856,341.56 486.741,356.467C483.648,365.38 482.746,374.777 483.032,384.24C483.156,388.453 483.032,392.956 478.116,394.405C473.112,395.855 468.104,396.16 463.626,392.189C457.105,386.395 454.273,379.631 454.471,370.717C454.844,355.656 454.16,340.595 453.724,325.534C453.662,322.485 454.801,320.922 457.259,319.802C459.238,318.881 461.142,317.779 463.184,316.927C479.342,310.187 485.227,296.773 486.478,280.592L486.48,280.589ZM676.978,383.693C669.909,389.618 662.927,395.439 655.616,401.564C645.802,394.692 636.23,387.689 626.262,381.19C622.509,378.732 619.193,376.249 617.48,372.079C615.613,367.555 614.779,364.109 620.797,358.972C624.618,355.723 630.435,354.448 634.146,356.732C648.087,365.36 661.963,374.032 675.86,382.682C676.109,382.806 676.233,383.055 676.98,383.69L676.978,383.693ZM575.638,513.486C574.717,516.056 570.678,517.525 568.019,519.436C567.708,519.623 567.098,519.374 566.7,519.48C557.874,522.511 553.264,518.341 548.807,510.874C540.816,497.372 527.555,491.159 512.516,488.414C510.076,487.978 507.556,487.649 505.073,487.58C499.099,487.456 496.225,485.209 495.984,479.391C495.611,470.104 495.673,460.773 495.548,451.465C495.486,447.252 498.162,445.207 501.429,443.473C510.738,438.488 518.268,431.508 520.442,420.97C521.867,413.9 521.581,406.326 520.94,399.081C520.442,393.2 514.748,390.014 508.777,391.177C506.057,391.675 503.444,392.783 500.72,393.243C499.052,393.492 496.376,394.338 496.463,391.177C496.712,381.165 496.152,371.044 497.782,361.252C499.693,349.879 509.11,344.72 519.298,342.349C532.778,339.206 546.39,339.188 559.695,344.172C566.611,346.761 570.255,351.944 572.78,358.552C577.323,370.166 574.603,382.219 575.412,394.053C575.599,396.71 575.434,399.368 575.434,402.044L576.268,402.044L576.268,468.15C576.268,479.061 576.312,489.995 576.246,500.95C576.246,505.188 576.993,509.732 575.611,513.486L575.638,513.486ZM969.48,479.458C947.262,479.582 925.087,479.582 902.869,479.414C900.566,479.392 897.909,478.555 896.063,477.198C890.972,473.489 885.964,469.492 881.353,465.189C871.407,455.88 859.793,451.468 846.181,451.84C837.773,452.089 829.32,451.818 820.889,451.716C808.88,451.592 796.915,451.094 784.949,451.405C774.784,451.654 764.465,452.631 755.859,458.628C740.535,469.298 725.517,480.407 710.457,491.473C701.104,498.388 692.103,505.831 682.596,512.506C679.696,514.572 675.636,515.406 671.992,515.78C668.109,516.153 666.086,513.06 667.555,509.435C668.632,506.778 669.883,503.927 671.855,501.882C681.69,491.695 692.294,482.276 703.821,473.978C721.846,461.025 739.826,447.962 758.071,435.316C765.097,430.443 772.934,427.829 782.002,427.873C827.997,428.246 874.058,428.06 920.097,428.06L926.022,428.06C921.498,423.579 917.899,419.959 914.145,416.49C913.398,415.83 912.017,415.631 910.915,415.631C891.661,415.693 872.428,415.88 853.196,416.067C849.904,416.111 846.632,416.378 842.306,416.565C847.639,411.624 851.878,407.322 856.554,403.524C859.081,401.483 862.155,399.417 865.205,398.956C869.331,398.334 873.701,399.392 877.96,399.454C884.109,399.578 890.233,399.476 897.346,399.476C892.996,395.169 889.508,391.374 885.644,388.037C884.02,386.674 881.649,385.535 879.607,385.467C871.484,385.156 863.317,385.031 855.215,385.489C851.879,385.676 848.058,386.715 845.511,388.738C838.002,394.706 830.911,401.186 823.951,407.816C822.065,409.658 820.397,410.299 817.914,410.274C803.687,410.212 789.482,410.398 775.256,410.212C765.31,410.025 756.287,413.442 748.427,418.665C737.757,425.691 727.943,434.055 718.02,442.201C703.64,453.969 689.435,465.978 675.252,478.009C669.458,482.907 662.825,487.34 658.39,493.355C650.486,504.113 648.269,516.232 655.403,528.658C656.455,530.5 657.799,532.218 658.981,533.973C653.424,536.786 648.245,539.481 642.998,542.096C631.23,547.958 619.462,553.82 607.629,559.55C606.509,560.11 604.71,560.172 603.565,559.674C595.442,556.295 587.121,554.384 578.251,554.95C574.585,555.199 570.83,555.261 567.186,554.888C565.997,554.764 564.286,553.195 564,551.944C562.88,547.575 562.264,543.008 561.43,538.53C560.528,533.657 561.741,532.185 566.676,531.987C576.797,531.489 584.679,527.114 588.587,517.65C590.983,511.831 591.923,505.399 593.485,499.384C601.323,496.179 609.775,493.565 617.372,489.351C623.564,485.928 628.855,480.723 634.343,476.091C642.466,469.241 650.348,462.128 658.515,455.322C674.63,441.776 690.986,428.515 707.057,414.903C721.262,402.872 734.961,390.292 749.32,378.481C753.427,375.12 758.848,372.289 764.008,371.477C773.097,370.114 782.472,370.245 791.736,370.183C815.711,370.059 839.685,370.161 863.66,370.161C864.693,370.161 865.726,369.912 867.481,369.725C863.66,365.904 860.565,362.502 857.14,359.56C855.603,358.266 853.344,357.208 851.408,357.164C824.931,357.04 798.431,356.853 771.932,357.164C762.008,357.288 752.37,359.336 744.466,366.166C735.86,373.587 727.188,380.942 718.56,388.318C705.76,399.251 692.917,410.141 680.139,421.075C668.261,431.261 656.537,441.646 644.484,451.614C632.914,461.208 621.212,470.626 609.115,479.54C603.408,483.753 596.732,486.851 589.29,485.558C589.352,484.133 589.726,482.944 589.539,481.805C588.637,475.196 591.008,470.608 596.191,465.953C611.164,452.583 625.457,438.356 639.991,424.481C644.142,420.504 648.137,416.336 652.461,412.581C662.385,404.019 672.506,395.676 682.495,387.18C689.411,381.255 696.019,374.995 703.111,369.309C713.189,361.229 723.419,353.37 733.848,345.751C742.718,339.253 752.048,335.016 763.86,335.454C788.427,336.313 813.017,335.703 837.584,335.703L842.457,335.703L842.457,245.359C841.754,245.235 841.362,245.11 840.92,245.11C771.938,245.066 702.978,244.986 633.997,245.234C626.664,245.256 619.704,247.848 616.126,255.64C614.24,259.766 611.67,263.588 609.078,267.32C608.219,268.552 606.178,269.977 604.995,269.76C597.728,268.378 590.549,266.53 583.084,264.8C583.084,257.16 583.022,249.476 583.146,241.77C583.168,240.476 583.98,239.025 584.839,237.974C588.156,233.823 591.974,230.07 594.96,225.701C601.678,216.063 610.899,212.001 622.337,212.265C639.33,212.638 656.323,213.516 673.316,213.472C697.269,213.41 721.199,212.507 745.152,212.29C775.032,212.103 804.957,212.268 834.837,212.268L839.797,212.268C839.162,210.401 838.895,208.932 838.216,207.681C828.951,191.566 815.712,181.313 796.502,181.204C758.586,181.017 720.714,181.142 682.798,181.204C679.923,181.204 677.925,180.327 675.904,178.285C649.361,151.631 622.774,125.066 596.164,98.501C595.131,97.424 593.992,96.435 592.212,94.835C592.212,110.115 592.336,124.342 592.088,138.525C592.044,141.531 591.055,144.936 589.387,147.416C585.74,152.749 581.571,157.779 577.224,162.631C575.183,164.89 574.349,167.043 574.411,170.074C574.909,201.228 575.288,232.36 575.643,263.513C575.705,268.958 575.767,274.446 575.332,279.869C574.896,285.053 572.195,287.509 567.626,287.794C559.811,288.23 557.835,287.234 556.342,281.186C555.664,278.354 555.16,275.392 555.203,272.47C555.265,258.309 555.701,244.127 555.825,229.944C555.949,208.626 555.803,187.308 555.949,165.99C555.949,163.463 556.322,160.482 557.685,158.46C561.55,152.622 565.83,146.977 570.287,141.533C573.934,137.121 577.07,132.619 577.049,126.647C576.987,112.003 576.987,97.337 576.676,82.715C576.614,80.605 575.581,78.128 574.131,76.566C569.146,71.145 563.988,65.808 558.477,60.846C549.41,52.678 538.871,47.102 525.633,44.599L525.633,98.191C525.633,100.102 525.757,102.031 525.611,103.966C525.3,108.466 524.161,112.463 520.01,115.273C515.529,118.372 511.821,122.76 507.079,125.285C499.57,129.324 498.473,135.297 498.78,142.981C499.029,148.252 500.429,152.092 504.138,155.781C513.995,165.595 523.765,175.453 532.987,185.815C536.148,189.325 539.464,194.355 539.551,198.746C540.173,227.002 539.924,255.28 539.8,283.558C539.778,286.651 539.122,289.99 537.759,292.757C536.265,295.806 528.999,297.082 524.432,295.389C520.219,293.833 518.594,290.273 518.594,285.971C518.594,263.336 518.656,240.678 518.55,218.043C518.488,210.512 517.517,203.289 511.612,197.383C501.996,187.767 492.819,177.734 483.531,167.81C479.691,163.684 476.725,159.336 476.769,153.1C476.956,120.849 476.831,88.575 476.831,56.301L476.831,51.82C471.933,55.772 467.544,58.648 463.878,62.292C425.172,100.823 386.575,139.485 348.023,178.147C345.87,180.3 343.785,181.221 340.691,181.196C303.258,181.134 265.803,181.134 228.37,181.174C225.47,181.174 222.576,181.61 219.676,182.033C198.82,184.865 180.729,205.854 180.992,227.721C181.241,253.167 181.054,278.656 181.054,304.102L181.054,309.043C191.087,309.043 200.549,309.167 209.99,309.021C216.928,308.897 223.163,310.602 228.037,315.607C236.116,323.818 243.823,332.424 251.968,340.548C261.892,350.471 271.508,360.768 282.331,369.66C295.811,380.769 310.455,390.473 324.396,401.012C329.095,404.572 333.134,408.937 338.008,413.394C336.471,413.705 336.185,413.83 335.942,413.83C293.284,414.141 250.691,414.452 208.077,414.751C206.496,414.773 204.698,414.813 203.403,415.541C197.058,419.188 190.691,422.852 184.565,426.87C176.091,432.403 167.858,438.308 159.471,443.973C154.772,447.134 149.767,448.734 143.861,448.603C122.982,448.292 102.125,448.479 81.268,448.541C79.731,448.541 77.777,448.603 76.768,449.506C72.903,452.867 69.325,456.597 64.781,461.032C69.785,461.343 73.563,461.754 77.317,461.754C100.106,461.816 122.895,461.941 145.706,461.754C152.402,461.732 158.571,461.878 165.07,456.943C178.396,446.734 193.216,438.413 207.53,429.5C209.528,428.268 212.098,427.303 214.358,427.347C231.526,427.409 248.696,428.025 265.864,428.05C318.577,428.174 371.247,428.174 423.96,428.028C429.449,428.028 433.84,428.862 438.297,432.814C451.843,444.845 465.784,456.481 480.011,467.7C486.663,472.971 484.797,479.292 484.162,485.725C484.1,486.646 483.44,487.941 482.712,488.295C478.499,490.249 474.26,493.324 469.913,493.541C452.656,494.418 435.356,494.201 418.055,494.792C413.07,494.979 409.559,493.056 405.893,490.068C400.759,485.917 395.135,483.021 387.956,483.042C276.799,483.166 165.642,483.104 54.463,483.104C53.281,483.104 51.98,482.793 50.953,483.166C49.789,483.602 48.321,484.398 47.879,485.45C40.041,504.66 40.7,523.629 49.528,542.423C54.469,552.896 62.745,560.536 70.627,568.615C72.843,570.899 75.039,571.907 78.333,571.907C156.712,571.845 235.09,571.845 313.49,571.845C314.324,571.845 315.158,571.867 316.017,571.969C316.141,571.782 316.328,571.658 316.453,571.533L317.592,572.093C317.094,572.071 316.54,572.049 316.036,572.031C307.891,580.922 299.833,589.902 291.513,598.574C290.001,600.111 287.231,601.163 285.036,601.163C246.549,601.35 208.084,601.225 169.598,601.35C166.306,601.35 163.891,600.603 161.364,598.232C157.873,594.915 153.834,592.127 149.838,589.406C144.704,585.958 140.046,581.92 132.889,582.293C121.231,582.915 109.529,582.542 97.849,582.542C93.766,582.564 89.726,582.564 85.532,582.564C91.612,592.027 99.122,597.186 110.384,595.188C114.118,594.528 118.09,594.877 121.91,595.144C129.858,595.779 137.739,597.079 144.151,602.302C148.016,605.439 151.154,609.503 154.975,612.774C156.668,614.199 159.213,615.431 161.407,615.431C203.121,615.555 244.857,615.369 286.593,615.68C291.821,615.742 295.418,614.342 298.866,610.981C319.306,591.112 339.702,571.156 360.318,551.418C372.569,539.672 385.258,528.387 397.641,516.729C403.261,511.458 409.782,507.179 417.225,506.608C429.081,505.687 441.09,506.359 453.779,506.359C452.528,508.556 451.321,510.946 449.846,513.165C443.15,523.308 438.056,534.11 436.08,546.141C435.52,549.676 434.412,550.553 430.989,550.074C422.295,548.823 414.281,550.385 407.783,556.902C405.213,559.516 402.711,562.192 400.011,564.652C384.708,578.352 369.362,591.964 354.038,605.642C348.767,610.359 343.543,615.214 338.209,619.869C329.493,627.378 320.14,634.249 312.105,642.416C303.565,651.11 293.553,654.535 281.961,654.338C261.741,653.965 241.477,653.218 221.256,652.869C206.305,652.62 191.332,652.745 176.403,652.745L155.766,652.745C161.803,660.144 168.082,666.774 174.932,672.768C179.631,676.894 182.09,681.308 181.167,687.675C180.669,691.098 181.105,694.613 181.105,698.213C208.899,698.213 235.992,698.275 263.062,698.089C265.632,698.089 268.526,696.751 270.614,695.17C288.331,681.558 306.049,667.924 323.415,653.939C337.291,642.742 350.749,631.062 364.251,619.47C376.348,609.063 388.138,598.284 400.279,587.943C407.019,582.193 414.089,576.856 421.18,571.587C425.68,568.208 431.147,568.867 436.109,569.72C438.088,570.093 439.488,573.647 441.156,575.757C442.625,577.599 444.075,579.491 445.637,581.246C454.265,590.818 464.474,597.975 477.801,601.73C461.005,610.555 452.794,624.607 449.765,641.951C448.296,650.447 447.462,659.054 446.274,667.989C440.15,667.989 434.243,667.927 428.359,668.011C418.106,668.198 409.281,671.546 401.618,678.659C391.782,687.77 381.419,696.355 371.211,705.092C358.697,715.828 345.744,726.147 333.581,737.322C319.771,749.968 305.632,762.043 289.694,772.055C282.91,776.293 276.06,778.247 268.222,778.135C244.533,777.824 220.844,777.762 197.176,777.637C191.905,777.593 186.638,777.637 180.666,777.637C181.102,787.166 181.039,795.706 182.048,804.137C184.531,825.323 206.22,843.304 228.372,843.062C265.827,842.626 303.304,843 340.737,842.875C343.811,842.831 345.915,843.777 348.048,845.906C382.407,880.397 416.876,914.822 451.257,949.291C452.334,950.386 452.769,952.148 453.516,953.573C454.014,953.075 454.524,952.583 455.01,952.104L455.01,923.804C462.826,925.777 470.598,927.756 477.668,929.536C477.668,936.715 477.855,943.785 477.606,950.832C477.357,956.999 476.442,963.149 476.224,969.318C476.202,970.594 477.606,972.411 478.838,973.071C487.422,977.838 496.643,980.514 506.94,981.26L506.94,931.488C520.179,930.629 532.934,929.795 545.866,928.918C545.206,943.342 544.503,958.271 543.825,973.728C546.812,971.905 549.339,970.567 551.729,968.961C555.768,966.304 558.161,963.229 557.921,957.654C557.485,947.797 558.232,937.873 558.668,927.972C558.712,926.895 559.502,925.271 560.379,924.923C563.715,923.56 567.273,922.577 571.137,921.345L571.137,950.545C572.83,948.921 573.994,947.844 575.089,946.767C608.811,913.067 642.468,879.344 676.278,845.731C677.84,844.194 680.535,843.055 682.689,843.055C719.266,842.931 755.82,842.682 792.375,843.055C808.753,843.242 822.036,837.653 832.442,825.25C838.919,817.566 842.694,808.564 842.717,798.575C842.904,760.089 842.841,721.602 842.739,683.116C842.739,680.259 843.548,678.243 845.596,676.178C880.306,641.599 914.951,606.955 949.552,572.288C955.57,566.226 961.495,560.037 967.204,553.693C972.432,547.899 975.503,540.916 978.137,532.924L972.891,532.924C953.219,532.924 933.526,532.946 913.832,532.924C902.877,532.924 892.799,530.883 885.664,521.31C883.865,518.852 881.513,516.636 879.078,514.79C869.396,507.567 859.319,500.937 850.01,493.296C845.05,489.213 839.977,489.189 834.4,489.543C831.612,489.73 828.849,490.178 826.035,490.165C811.106,490.041 796.155,489.667 781.226,489.505C779.315,489.483 777.1,490.003 775.494,491.042C753.232,505.598 731.124,520.439 708.795,534.886C703.966,538.023 698.389,540.201 692.988,542.329C687.611,544.501 678.388,538.091 680.408,530.759C681.198,527.971 682.891,524.921 685.132,523.119C696.307,514.008 707.57,504.853 719.337,496.532C731.676,487.75 744.695,479.934 757.297,471.569C764.718,466.671 772.511,463.578 781.601,463.665C802.151,463.852 822.723,463.727 843.294,463.727C844.918,463.727 846.568,463.851 848.148,464.1C857.852,465.637 865.141,471.938 872.584,477.404C884.703,486.23 895.922,496.241 907.69,505.572C909.445,506.997 912.102,507.987 914.386,508.012C935.243,508.199 956.122,508.136 976.979,508.136L982.599,508.136C979.923,499.178 977.527,491.165 975.135,483.217C974.301,480.385 972.478,479.57 969.534,479.614L969.48,479.458Z" style="fill:rgb(69,28,21);fill-rule:nonzero;"/>
    </g>
    <g transform="matrix(0.058594,0,0,0.058594,0.000117,0.000031)">
        <path d="M980.83,580.703C945.614,616.006 910.29,651.266 874.964,686.459C872.394,689.029 871.168,691.531 871.211,695.329C871.335,729.644 871.46,763.982 871.149,798.341C870.776,833.293 841.488,865.895 806.844,870.308C802.033,870.93 797.118,871.229 792.287,871.229C759.86,871.291 727.455,871.291 695.028,871.207C691.692,871.207 689.296,872.109 686.905,874.524C651.58,909.981 616.211,945.351 580.798,980.698C561.807,999.667 538.798,1009.634 511.97,1009.59C485.163,1009.59 462.132,999.667 443.12,980.698C407.729,945.351 372.359,909.982 337.057,874.524C334.661,872.134 332.29,871.207 328.912,871.207C295.914,871.331 262.916,871.331 229.918,871.269C192.397,871.145 162.21,846.768 154.262,810.169C153.142,804.991 152.837,799.609 152.768,794.318C152.581,778.488 152.706,762.637 152.706,746.808C152.706,729.639 152.644,712.47 152.83,695.28C152.874,691.745 151.865,689.287 149.339,686.783C113.882,651.502 78.491,616.133 43.144,580.72C24.197,561.708 14.339,538.677 14.361,511.848C14.423,485.524 23.911,462.735 42.485,444.052C78.052,408.244 113.794,372.611 149.58,336.979C151.82,334.72 152.81,332.523 152.81,329.251C152.686,296.099 152.686,262.969 152.748,229.818C152.81,189.772 181.641,157.543 221.379,152.954C224.914,152.581 228.492,152.705 232.027,152.705C264.608,152.661 297.167,152.727 329.704,152.581C332.032,152.581 334.907,151.374 336.554,149.768C372.033,114.465 407.336,79.052 442.771,43.705C477.437,9.126 532.654,5.46 571.601,35.165C575.354,38.065 578.824,41.314 582.161,44.671C617.157,79.579 652.131,114.509 687.039,149.527C689.279,151.811 691.495,152.776 694.723,152.776C727.743,152.652 760.741,152.652 793.761,152.732C831.567,152.794 861.821,177.08 869.746,213.92C871.065,219.913 871.258,226.259 871.283,232.428C871.407,264.701 871.407,296.975 871.283,329.226C871.261,332.456 872.16,334.715 874.469,336.976C909.992,372.389 945.515,407.846 980.949,443.369C1000.027,462.513 1009.885,485.697 1009.666,512.702C1009.479,539.201 999.611,561.946 980.883,580.696L980.83,580.703ZM991.093,433.335C957.107,399.305 923.099,365.275 889.004,331.333C886.502,328.806 885.494,326.329 885.538,322.793C885.725,306.371 885.6,289.927 885.6,273.527C885.6,258.707 885.849,243.91 885.538,229.113C885.351,222.219 884.816,215.15 883.235,208.497C873.246,166.805 837.767,138.746 794.779,138.439C763.427,138.252 732.032,138.377 700.637,138.483C697.388,138.505 695.173,137.493 692.909,135.209C672.601,114.725 652.183,94.329 631.721,73.933C616.243,58.477 601.226,42.428 584.957,27.784C559.819,5.105 529.697,-3.347 496.216,1.175C471.077,4.579 449.891,16.192 432.02,34.217C398.429,68.027 364.619,101.64 330.984,135.384C328.812,137.556 326.684,138.477 323.629,138.477C293.134,138.353 262.639,138.353 232.143,138.477C225.976,138.477 219.695,138.664 213.592,139.709C168.101,147.766 137.606,187.636 138.353,230.711C138.851,261.491 138.415,292.272 138.54,323.075C138.54,326.411 137.594,328.807 135.204,331.22C101.108,365.14 67.078,399.148 33.114,433.2C-11.059,477.504 -11.037,546.618 33.158,590.813C67.056,624.755 100.932,658.675 134.94,692.485C137.597,695.142 138.587,697.731 138.543,701.421C138.419,732.356 138.356,763.268 138.587,794.224C138.631,801.271 139.209,808.472 140.803,815.278C150.572,856.86 186.381,885.314 229.105,885.533C260.478,885.72 291.852,885.595 323.225,885.511C326.629,885.467 328.975,886.544 331.348,888.915C353.237,910.979 375.214,932.956 397.234,954.889C411.175,968.786 424.634,983.255 439.299,996.34C464.415,1018.821 494.362,1027.296 527.645,1022.861C552.849,1019.5 574.035,1007.932 591.928,989.907C625.629,956.009 659.483,922.265 693.425,888.564C695.074,886.915 697.949,885.707 700.253,885.707C731.033,885.52 761.814,885.645 792.639,885.52C798.52,885.52 804.516,885.396 810.29,884.338C854.485,876.434 885.551,839.309 885.638,794.411C885.682,763.455 885.682,732.542 885.576,701.608C885.576,697.743 886.653,695.065 889.416,692.321C923.095,658.818 956.619,625.161 990.298,591.636C1011.507,570.537 1023.143,545.136 1023.955,515.3C1024.832,483.465 1013.746,456 991.155,433.343L991.093,433.335Z" style="fill:rgb(69,28,21);fill-rule:nonzero;"/>
    </g>
</svg>
