<?xml version="1.0" encoding="UTF-8" standalone="no"?>
<!DOCTYPE svg PUBLIC "-//W3C//DTD SVG 1.1//EN" "http://www.w3.org/Graphics/SVG/1.1/DTD/svg11.dtd">
<svg width="100%" height="100%" viewBox="0 0 60 60" version="1.1" xmlns="http://www.w3.org/2000/svg" xmlns:xlink="http://www.w3.org/1999/xlink" xml:space="preserve" xmlns:serif="http://www.serif.com/" style="fill-rule:evenodd;clip-rule:evenodd;stroke-linejoin:round;stroke-miterlimit:2;">
    <g transform="matrix(0.058594,0,0,0.058594,-0.000103,0.000015)">
        <path d="M511.955,12.403C487.245,12.403 462.522,21.783 443.739,40.566L333.1,151.205L227.912,151.205C185.675,151.205 151.125,185.755 151.125,227.992L151.125,333.14L40.486,443.779C2.949,481.348 2.949,542.681 40.486,580.25L151.125,690.889L151.125,795.998C151.125,838.235 185.675,872.785 227.912,872.785L333.1,872.785L443.739,983.463C462.524,1002.232 487.241,1011.626 511.955,1011.626C536.669,1011.626 561.386,1002.231 580.171,983.463L690.81,872.785L795.998,872.785C838.235,872.785 872.785,838.235 872.785,795.998L872.785,690.889L983.424,580.25C1020.991,542.683 1020.991,481.345 983.424,443.779L872.785,333.14L872.785,227.992C872.785,185.755 838.235,151.205 795.998,151.205L690.81,151.205L580.171,40.566C561.388,21.783 536.665,12.403 511.955,12.403Z" style="fill:rgb(247,188,63);fill-rule:nonzero;"/>
    </g>
    <g transform="matrix(0.058594,0,0,0.058594,-0.000103,0.000015)">
        <path d="M914.742,532.485C907.871,538.565 899.243,540.739 890.287,541.639C886.136,542.012 883.569,539.729 882.164,536.088C880.87,532.709 882.842,530.73 885.437,528.756C890.751,524.805 890.11,520.085 883.968,517.318C871.104,511.525 857.515,508.076 843.574,506.276C825.902,503.992 808.208,501.316 790.449,500.308C771.636,499.231 752.844,497.06 733.855,499.686C720.288,501.596 706.414,501.136 692.825,502.978C675.789,505.28 658.886,508.666 642.004,512.045C636.87,513.078 631.972,515.405 627.12,517.577C621.501,520.079 620.953,524.909 625.801,528.531C628.676,530.684 630.804,532.744 629.161,536.566C627.58,540.213 624.749,542.123 620.709,541.569C609.14,540.076 598.647,536.653 591.315,526.553C586.486,519.88 586.268,513.162 590.151,506.291C598.01,492.307 608.569,480.716 621.609,471.364C650.345,450.794 682.769,439.598 717.389,434.549C730.034,432.751 742.964,432.62 755.784,431.718C791.611,431.058 825.747,438.501 858.237,452.968C881.551,463.308 902.45,477.511 917.158,499.113C919.79,502.977 922.074,507.279 923.436,511.714C926.205,520.758 920.822,527.059 914.743,532.459L914.742,532.485ZM859.733,521.067C841.315,521.129 822.875,521.089 804.434,521.089C804.39,521.836 804.31,522.601 804.247,523.348C808.024,524.157 811.886,524.754 815.574,525.787C822.95,527.803 830.239,529.956 837.461,532.394C838.693,532.83 839.259,535.113 840.162,536.563C838.494,536.874 836.696,537.795 835.178,537.44C823.104,534.739 811.14,531.647 799.088,529.032C795.858,528.329 792.37,528.97 788.902,528.97C788.715,531.297 788.591,533.314 788.404,535.819C785.573,535.072 783.071,534.5 780.589,533.734C761.533,527.698 742.501,528.687 722.831,531.189C709.967,532.832 697.739,537.138 684.897,538.148C682.153,538.397 679.408,538.17 676.642,538.17L676.393,536.701C682.498,534.131 688.577,531.542 694.658,528.974C694.534,528.271 694.409,527.611 694.285,526.952L640.589,526.952C645.723,521.905 661.488,518.72 679.818,518.632C693.078,518.588 706.315,519.068 720.32,519.379C712.461,516.062 704.953,512.903 697.446,509.72C697.57,509.085 697.757,508.444 697.944,507.834C712.038,510.317 726.153,512.794 741.147,515.43C739.94,512.337 738.733,510.141 738.291,507.768C737.98,506.119 738.789,504.277 739.1,502.522C740.525,503.182 742.305,503.53 743.425,504.563C745.995,506.977 748.055,509.964 750.691,512.334C755.346,516.528 760.987,514.263 762.458,508.14C763.08,505.657 764.76,501.532 766.123,501.51C770.143,501.323 769.987,505.2 770.448,508.315C771.369,514.659 773.391,515.669 779.449,513.343C786.715,510.53 793.959,507.68 801.248,505.001C802.586,504.503 804.148,504.628 806.102,505.374C801.491,508.647 796.882,511.916 791.372,515.78C816.574,514.815 840.7,513.652 864.518,518.238C864.58,518.898 864.642,519.576 864.705,520.26C863.056,520.571 861.413,521.069 859.764,521.069L859.733,521.067ZM715.973,567.808C719.072,560.586 721.966,553.781 724.886,546.997C725.01,546.686 725.197,546.499 725.259,546.188C727.655,537.495 727.698,537.955 736.609,537.187C752.635,535.868 768.221,537.187 783.5,542.545C786.73,543.665 788.596,544.847 789.43,548.338C790.768,553.982 792.834,559.468 794.807,565.746C788.441,567.569 782.36,569.654 776.147,570.973C767.278,572.883 758.409,571.894 749.475,570.413C741.572,569.075 733.428,569.032 725.393,568.415C722.188,568.166 718.983,567.979 715.953,567.793L715.973,567.808ZM749.014,631.919C736.15,634.595 723.703,630.643 713.231,621.535C720.212,608.056 722.232,593.699 722.1,578.354C744.47,578.105 766.664,584.017 789.188,578.603C790.308,592.06 788.69,604.946 795.355,617.832C779.593,622.748 764.578,628.655 749.013,631.926L749.014,631.919ZM566.321,357.561C545.641,355.234 525.05,356.372 504.415,356.285C491.682,356.223 478.84,356.907 466.261,359.732C456.316,361.972 446.174,363.484 436.208,365.507C426.044,367.548 415.989,370.118 405.803,371.851C402.069,372.486 398.032,371.229 394.146,370.93C394.084,370.557 394.022,370.165 393.897,369.791C403.074,365.927 412.25,362.064 421.426,358.2C421.364,357.478 421.302,356.75 421.239,356.003C418.694,355.443 416.124,354.422 413.6,354.422C402.513,354.484 391.427,355.125 380.363,355.082C368.245,355.038 356.127,354.46 344.009,354.136C343.449,354.092 342.914,353.763 340.978,353.103C344.338,351.765 346.579,350.776 348.881,349.942C359.638,346.146 370.877,345.132 382.183,344.584C395.443,343.924 408.68,342.742 421.961,342.674C431.752,342.652 441.565,344.099 451.378,344.889C453.967,345.138 456.537,345.387 459.127,345.636L459.625,344.186L425.269,329.631C425.393,329.133 425.518,328.666 425.642,328.162C427.154,328.038 428.76,327.527 430.185,327.789C447.813,331.168 465.397,334.683 482.981,337.997C484.997,338.37 487.175,337.748 489.699,337.561C488.143,333.392 486.756,330.009 485.635,326.54C485.199,325.246 484.975,323.665 485.262,322.371C486.357,318.071 488.554,317.43 491.738,320.635C495.559,324.499 498.938,328.824 502.736,332.732C507.783,337.847 511.429,338.395 517.466,334.53C519.221,333.391 520.341,330.821 521.2,328.712C522.077,326.584 522.252,324.144 522.756,321.863C523.316,319.449 524.206,316.903 527.149,317.339C530.242,317.775 532.351,319.909 532.768,323.269C533.079,325.596 533.204,327.924 533.67,330.25C535.033,336.814 537.734,338.351 544.208,336C546.797,335.054 549.298,333.785 551.759,332.484C562.297,326.908 573.229,322.671 585.303,322.298C585.49,322.734 585.676,323.132 585.863,323.574C578.816,328.384 571.769,333.211 564.7,338.018C564.824,338.454 564.949,338.939 565.011,339.381C569.554,339.008 574.055,338.659 578.578,338.286C581.21,338.037 583.849,337.564 586.481,337.608C605.25,337.857 624.042,337.795 642.789,338.554C651.526,338.927 660.242,340.726 668.913,342.045C670.077,342.232 671.066,343.582 672.118,344.372C670.824,345.05 669.529,346.282 668.235,346.282C657.434,346.158 646.634,345.293 635.877,345.604C618.907,346.04 601.982,347.272 585.034,348.218C583.628,348.28 582.221,348.878 579.701,349.512C593.18,352.169 605.649,354.123 617.833,357.217C623.626,358.686 628.92,362.245 634.364,364.944C636.162,365.846 637.917,367.402 635.901,369.356C634.719,370.52 632.435,371.615 631.029,371.266C624.18,369.617 617.463,367.557 610.723,365.535C596.213,361.191 581.351,359.256 566.291,357.588L566.321,357.561ZM570.86,394.58C571.358,395.302 572.042,395.899 572.509,396.422C566.274,406.872 555.539,405.401 545.859,406.784C533.456,408.564 522.281,403.536 510.713,400.55C504.982,399.038 498.924,398.154 492.975,398.005C479.386,397.632 465.797,397.881 450.958,397.881C459.739,390.066 464.02,381.087 465.491,370.769C465.864,368.068 467.557,367.234 469.903,366.836C479.475,365.187 489.002,364.926 498.771,365.542C511.525,366.307 524.412,364.92 537.232,365.169C544.037,365.293 550.843,366.75 557.582,367.888C558.677,368.012 560.482,369.774 560.395,370.607C559.213,380.684 565.622,387.357 570.867,394.536L570.86,394.58ZM568.825,456.398C552.953,460.966 536.884,464.542 520.2,462.59C513.285,461.775 506.479,459.802 499.586,458.657C488.259,456.747 476.931,455.452 465.384,457.188C460.244,457.935 454.869,457.312 449.271,457.312C452.127,453.099 454.735,449.321 457.306,445.523C460.355,441.043 461.562,436.149 461.936,430.683C462.372,424.759 463.691,418.829 465.166,413.033C465.477,411.851 467.867,410.836 469.472,410.376C484.685,406.138 499.152,409.629 513.289,415.074C527.427,420.494 541.696,420.388 556.185,417.053C556.888,416.929 557.566,416.617 558.295,416.617C559.042,416.555 559.764,416.573 560.666,416.573C563.454,429.591 566.459,441.994 576.054,452.729C573.44,454.092 571.269,455.716 568.832,456.438L568.825,456.398ZM422.625,532.505C415.886,538.715 407.148,540.76 398.17,541.638C394.243,542.011 391.716,539.902 390.245,536.454C388.733,532.876 390.494,530.549 393.475,528.792C398.982,525.587 396.966,519.308 391.913,517.201C378.895,511.694 365.394,508.068 351.476,506.268C333.782,503.984 316.066,501.812 298.328,500.145C286.869,499.068 275.343,498.938 263.841,498.39L263.779,497.469C239.982,499.709 216.164,501.551 192.477,504.384C178.164,506.095 164.004,509.151 149.889,512.09C144.799,513.167 139.857,515.425 135.005,517.622C129.386,520.148 128.857,524.954 133.773,528.598C136.517,530.614 138.67,532.662 137.264,536.237C135.839,539.84 133.182,542.099 129.076,541.595C117.287,540.232 106.662,536.741 99.242,526.536C94.388,519.84 94.258,513.123 98.122,506.273C105.981,492.311 116.54,480.676 129.58,471.369C158.338,450.799 190.74,439.625 225.36,434.554C244.854,431.698 264.546,431.698 284.193,432.774C310.076,434.155 334.794,440.436 358.854,449.897C375.516,456.483 391.081,465.154 404.538,476.701C413.495,484.363 421.068,494.022 427.742,503.835C435.733,515.579 433.013,522.933 422.627,532.505L422.625,532.505ZM366.559,521.026C348.447,521.275 330.315,521.462 312.204,521.648C312.16,522.27 312.08,522.88 312.017,523.49C317.263,524.479 322.577,525.114 327.713,526.496C333.774,528.145 339.743,530.273 345.582,532.576C346.771,533.012 347.318,535.078 348.152,536.415C346.547,536.788 344.748,537.84 343.28,537.535C331.381,534.859 319.571,531.63 307.607,529.259C303.83,528.512 299.682,530.006 295.664,530.093C289.783,530.217 283.832,530.217 277.948,529.906C268.289,529.284 258.63,527.734 248.993,527.796C242.56,527.818 236.15,530.011 229.718,531.113C227.503,531.486 225.132,531.237 222.935,531.673C213.847,533.602 204.846,535.911 195.736,537.622C192.133,538.282 188.294,537.684 184.298,536.745C190.359,534.2 196.394,531.586 202.453,529.018C202.431,528.458 202.391,527.966 202.329,527.437C200.487,527.126 198.639,526.603 196.797,526.603C182.725,526.541 168.675,526.581 154.626,526.541C152.915,526.541 151.179,526.292 149.467,525.682C161.563,519.338 174.91,519.36 187.906,518.767C201.034,518.145 214.249,519.078 228.299,519.389C220.33,516.072 212.866,512.957 205.38,509.839C205.424,509.528 205.442,509.204 205.504,508.893C206.363,508.644 207.327,508.103 208.093,508.258C219.662,510.386 231.187,512.67 242.734,514.844C244.557,515.155 246.399,515.155 249.035,515.342C247.871,512.38 246.621,510.295 246.291,508.031C246.042,506.276 246.851,504.341 247.15,502.48C248.6,503.227 250.286,503.687 251.45,504.782C254.02,507.196 256.08,510.14 258.738,512.487C263.237,516.482 269.166,514.267 270.22,508.38C270.469,507.086 270.593,505.679 271.209,504.541C271.956,503.29 273.207,502.301 274.215,501.206C275.466,502.482 276.785,503.751 278.011,505.07C278.198,505.194 278.073,505.63 278.073,505.923C278.801,514.88 280.201,516.527 290.367,512.046C297.194,509.084 304.439,507.018 311.508,504.626C312.13,504.439 312.871,504.688 314.931,504.875C309.38,508.739 304.745,511.966 299.191,515.83C324.393,515.015 348.562,513.528 372.403,518.419C372.425,519.122 372.447,519.844 372.465,520.572C370.467,520.759 368.47,521.07 366.491,521.07L366.559,521.026ZM225.466,552.483C227.576,548.227 229.635,544.075 231.658,539.882C233.83,535.402 238.353,535.931 241.866,535.818C250.23,535.569 258.638,536.129 267.024,536.54C274.949,536.913 282.918,537.548 290.842,538.009C292.752,538.133 294.663,538.009 296.486,538.009C297.824,542.29 299.075,546.285 300.394,550.457C290.011,558.733 278.024,559.238 265.533,556.493C260.573,555.416 255.545,554.234 250.781,552.454C243.142,549.598 235.765,551.832 228.258,552.827C227.58,552.889 226.808,552.951 226.13,552.871C225.694,552.827 225.383,552.435 225.47,552.498L225.466,552.483ZM303.138,595.964C283.666,594.383 264.918,598.665 245.973,602.286C237.609,603.891 228.235,603.014 221.364,597.196C224.22,589.974 226.983,583.541 229.289,576.999C230.384,573.863 230.565,570.392 231.287,567.12C231.723,565.122 231.947,561.874 233.11,561.457C236.819,560.094 240.991,559.198 244.943,559.26C248.347,559.322 251.704,560.928 255.085,561.936C268.981,566.087 282.899,568.28 297.366,562.185C296.358,575.159 300.459,585.784 308.738,595.729C306.236,595.853 304.674,596.102 303.137,595.978L303.138,595.964ZM266.014,326.576C270.538,316.653 277.671,308.684 284.389,300.32C304.146,275.733 330.775,260.608 358.304,247.129C379.203,236.921 401.726,230.533 424.316,224.803C438.322,221.225 452.372,218.898 466.838,218.37C481.7,217.81 496.497,216.068 511.314,214.86C511.358,215.52 511.376,216.154 511.376,216.814C523.033,216.814 534.756,216.192 546.347,216.938C583.096,219.197 618.198,228.595 652.378,242.03C677.756,251.996 701.07,265.695 721.815,283.081C734.833,293.991 746.073,307.163 754.612,322.201C764.71,339.939 760.692,351.288 744.448,364.768C734.394,373.176 721.639,376.469 708.402,376.622C701.795,376.684 696.35,370.234 697.953,363.824C698.451,361.758 700.679,359.474 702.651,358.491C710.532,354.714 708.799,344.134 701.226,341.017C684.235,333.992 666.783,328.833 648.606,326.046C632.69,323.588 616.73,321.13 600.749,319.109C589.926,317.771 579.06,317.068 568.215,316.296C550.982,315.045 533.793,313.77 516.582,312.979C509.36,312.606 502.115,313.352 494.915,313.813C488.285,314.186 481.677,314.846 475.07,315.369C456.608,316.838 438.08,317.871 419.661,319.868C402.472,321.71 385.305,324.106 368.247,327.046C352.244,329.809 336.789,334.686 321.73,340.942C314.134,344.078 312.4,354.377 320.081,358.46C325.352,361.248 326.142,364.365 324.711,368.954C323.218,373.714 319.005,376.945 313.669,376.593C295.228,375.361 279.005,369.7 267.897,353.631C261.817,344.828 261.641,336.091 265.987,326.585L266.014,326.576ZM970.669,475.996C961.339,463.22 950.758,451.212 939.694,439.906C908.609,408.184 877.041,376.967 845.561,345.641C843.52,343.6 842.686,341.577 842.686,338.704C842.748,302.416 842.624,266.15 842.81,229.884C842.854,219.149 840.327,209.402 833.831,200.906C824.611,188.81 812.625,181.368 797.06,181.28C760.333,181.156 723.65,181.218 686.923,181.342C682.947,181.342 680.118,180.29 677.264,177.415C645.762,145.715 614.172,114.037 582.45,82.579C574.042,74.259 565.261,66.29 556.107,58.826C542.123,47.432 525.878,42.537 507.723,43.503C496,44.125 484.738,46.751 475.387,53.689C463.247,62.689 451.283,72.129 440.504,82.644C408.826,113.575 377.719,145.078 346.546,176.492C343.167,179.896 339.873,181.389 335.021,181.364C300.248,181.115 265.452,181.24 230.657,181.302C226.749,181.302 222.754,181.551 218.868,182.204C198.825,185.627 181.263,204.881 181.087,225.956C180.776,263.122 180.963,300.266 181.087,337.41C181.087,340.658 180.166,342.899 177.857,345.116C171.205,351.46 164.729,357.98 158.341,364.566C125.412,398.351 90.266,429.963 59.949,466.273C56.439,470.486 53.078,474.988 50.531,479.84C43.594,492.88 41.003,506.775 43.22,521.594C44.67,531.275 46.954,540.649 52.945,548.266C62.297,560.143 71.869,571.931 82.427,582.732C113.929,614.871 145.915,646.505 177.812,678.27C180.071,680.51 181.104,682.682 181.085,685.932C180.961,721.913 181.209,757.872 180.898,793.852C180.711,813.324 189.525,827.374 205.441,837.318C209.791,840.062 215.21,841.07 220.698,843.093C221.196,839.888 221.706,837.934 221.862,835.914C222.54,825.948 223.138,816.003 223.729,806.015C224.911,786.894 226.318,767.795 227.195,748.652C227.855,734.339 227.873,719.982 228.072,705.647C228.57,675.747 228.949,645.869 229.391,615.992C229.413,614.455 229.578,612.899 229.64,611.885C237.455,612.258 244.853,613.422 252.032,612.762C259.211,612.059 266.17,609.296 273.282,607.846C279.449,606.62 285.73,605.562 291.986,605.083C297.823,604.647 297.779,604.959 297.891,610.746C298.526,652.456 299.21,694.166 299.907,735.876C299.907,736.436 299.969,737.065 299.969,737.631C301.176,759.716 302.427,781.822 303.522,803.907C303.833,809.657 303.398,815.454 303.584,821.228C303.833,828.407 304.349,835.585 304.791,842.852L336.403,842.852C336.714,840.917 337.324,839.075 337.262,837.233C336.764,821.756 336.428,806.258 335.42,790.803C334.922,782.922 332.632,775.129 332.128,767.248C331.163,751.486 330.896,735.68 330.149,719.896C330.087,718.62 328.612,716.492 327.579,716.318C320.159,715.154 315.746,710.898 312.585,704.266C308.478,695.726 311.266,680.316 319.325,675.157C323.476,672.481 328.632,671.249 333.484,669.737C343.977,666.445 356.644,673.34 358.356,684.116C359.65,692.436 359.302,701.283 353.328,708.066C349.793,712.086 344.854,714.871 340.837,717.967C340.837,733.443 339.717,749.337 341.21,765.012C342.591,779.962 347.643,794.494 349.377,809.422C350.783,821.715 349.688,834.294 349.688,847.158C349.564,847.034 349.439,846.971 349.315,846.847C355.682,853.257 362.048,859.689 368.458,866.122C368.396,866.06 368.334,866.06 368.334,865.998C367.345,864.766 368.272,861.785 368.645,859.719C374.855,829.205 375.033,798.251 373.188,767.496C371.477,739.023 370.027,710.573 370.288,682.078C370.35,672.046 370.288,662.013 370.288,652.2C365.851,649.761 361.023,647.632 356.831,644.67C351.168,640.694 350.333,634.879 352.444,628.513C355.275,619.863 359.359,612.18 369.26,610.072C371.743,609.512 374.506,610.259 377.141,610.57C380.016,610.943 382.847,611.734 385.725,612.02C394.418,612.897 401.772,619.55 402.98,627.738C404.449,637.573 400.478,645.125 391.697,648.856C388.934,650.038 385.966,650.785 381.95,652.086C381.577,671.317 380.942,691.206 380.873,711.095C380.829,727.757 382.429,744.266 384.98,760.774C386.629,771.531 386.716,782.551 387.021,793.462C387.332,804.394 386.772,815.371 387.145,826.304C387.705,842.132 385.147,857.477 381.439,872.734C381.066,874.203 380.736,875.696 380.232,878.023C384.576,882.416 388.903,886.804 393.272,891.151C392.482,890.012 392.463,888.824 393.95,886.801C396.52,883.397 398.362,879.118 399.283,874.968C400.932,867.702 401.368,860.172 402.793,852.884C403.982,846.867 406.284,841.117 407.448,835.102C409.203,825.904 410.454,816.596 411.841,807.332C413.16,798.792 415.158,790.253 415.506,781.691C416.066,766.171 415.63,750.606 415.63,735.239C411.566,733.746 407.683,732.825 404.281,730.939C400.217,728.699 395.653,726.241 396.005,720.511C396.316,715.682 396.708,710.808 397.872,706.176C398.594,703.345 400.529,700.687 402.352,698.295C406.26,693.161 411.77,691.599 418.07,690.853C423.776,690.15 428.124,690.853 432.515,695.004C436.423,698.738 441.516,701.171 443.469,706.683C443.718,707.243 443.842,707.847 443.842,708.419C444.153,717.441 442.019,728.506 429.902,732.874C428.608,733.31 427.133,735.4 427.046,736.807C426.256,749.298 425.857,761.855 425.16,774.368C424.849,780.361 424.214,786.376 423.492,792.348C422.727,798.558 421.625,804.773 420.748,811.008C419.566,819.548 418.489,828.109 417.301,836.671C416.679,841.239 415.963,845.759 415.303,850.282C419.279,846.486 422.986,842.73 425.752,838.383C436.97,820.887 442.788,801.261 447.288,781.262C449.746,770.483 450.231,759.243 452.602,748.442C456.068,732.571 458.022,716.611 458.134,700.41C458.321,673.496 458.57,646.581 459.011,619.668C459.447,593.785 460.392,567.925 460.747,542.043C461.058,519.256 460.996,496.469 460.769,473.682C460.707,469.139 462.437,468.305 466.388,468.106C480.877,467.272 494.707,470.477 508.647,473.794C518.811,476.208 529.195,478.274 539.688,476.121C547.064,474.628 554.33,472.499 561.861,470.589C561.861,472.039 561.839,473.638 561.861,475.262C562.172,505.118 562.421,534.995 562.85,564.895C563.348,600.085 564.101,635.275 564.605,670.466C564.792,683.045 564.418,695.624 564.729,708.202C564.978,715.974 565.538,723.811 566.683,731.494C568.705,745.236 571.251,758.869 573.576,772.545C577.111,793.554 584.728,813.268 592.433,832.981C592.869,834.145 594.082,835.003 594.891,836.03C596.316,837.916 597.791,839.782 599.129,841.736C599.988,843.012 600.598,844.455 601.96,847.007C602.582,841.363 603.167,837.172 603.472,832.913C603.97,826.613 604.748,820.246 604.461,813.968C604.088,806.065 603.098,798.162 601.916,790.347C600.423,780.336 599.172,770.216 596.496,760.513C593.073,748.022 592.432,735.531 593.665,722.82C593.976,719.814 593.541,718.694 590.504,717.487C583.084,714.544 577.069,709.32 575.598,701.263C573.339,688.684 579.114,678.125 590.241,671.737C600.646,665.72 616.145,672.415 621.018,679.179C625.76,685.809 625.057,693.141 625.057,700.451C625.057,710.417 618.801,717.508 608.9,718.54C606.486,718.789 605.453,719.461 605.583,721.987C606.243,733.6 606.081,745.344 607.624,756.848C610.082,775.025 614.231,792.938 616.536,811.115C617.812,821.147 616.847,831.487 616.785,841.695C616.723,849.95 616.349,858.226 616.225,866.48C616.203,867.401 616.86,868.409 617.414,869.249C621.079,875.067 624.483,881.125 628.654,886.57C629.276,887.36 629.643,888.02 629.886,888.655C630.01,888.966 630.259,889.215 630.384,889.489C630.82,890.049 631.174,890.653 631.479,891.244C631.541,891.368 631.603,891.493 631.728,891.617C632.867,890.478 634.055,889.315 635.219,888.17C634.97,885.998 634.908,886.197 635.655,884.063C635.779,883.69 635.779,881.101 636.028,880.902C636.526,873.329 636.818,865.755 637.87,858.313C640.415,840.97 644.368,823.825 646.256,806.438C648.87,782.026 648.123,757.659 643.269,733.401C640.836,721.019 640.046,708.331 638.397,695.796C637.582,689.496 636.356,683.261 635.74,676.983C634.931,668.926 634.334,660.848 634.047,652.769C633.736,644.493 633.985,636.216 633.985,627.413C626.521,626.249 620.638,622.341 616.972,615.778C615.634,613.407 614.974,610.221 615.236,607.546C615.609,603.047 616.642,598.523 618.155,594.286C623.245,579.885 643.159,572.289 656.397,586.603C657.778,588.096 659.627,589.26 660.784,590.903C662.165,592.857 663.902,595.159 664.014,597.401C664.574,609.673 659.446,619.178 649.13,625.939C647.836,626.798 646.541,628.752 646.498,630.22C646.311,644.862 645.838,659.549 646.56,674.147C647.263,688.043 649.236,701.873 650.754,715.748C651.893,726.527 653.455,737.283 654.313,748.106C655.408,761.761 656.572,775.459 656.659,789.136C656.721,801.298 655.365,813.504 654.637,825.709C654.264,832.822 653.934,839.979 653.473,847.113C652.975,854.138 652.378,861.185 651.718,868.188C651.842,869.265 651.905,870.36 651.905,871.436C660.225,863.115 668.501,854.84 676.778,846.542C677.724,845.621 678.863,844.806 679.609,843.711C680.791,841.913 682.615,839.977 682.658,838.092C682.969,828.038 687.138,818.488 685.601,808.148C684.369,799.564 684.879,790.74 683.908,782.156C682.371,769.007 679.957,755.967 678.488,742.839C676.976,729.36 676.161,715.837 675.022,701.963C673.902,701.652 671.904,701.652 670.61,700.669C667.318,698.143 662.377,695.709 661.609,692.393C660.072,685.895 659.412,678.453 661.049,672.109C666.077,652.658 682.101,649.366 696.019,658.081C703.922,663.084 705.129,670.66 705.261,679.573C705.448,688.749 698.829,700.033 688.182,703.172C687.871,722.183 688.431,741.216 693.036,759.788C697.535,778.031 700.5,796.405 700.347,815.153C700.285,824.329 699.165,833.505 698.524,842.616L713.891,842.616C715.098,827.073 716.617,811.948 717.357,796.779C718.303,777.329 718.651,757.901 719.224,738.429C719.535,727.628 719.859,716.871 720.126,706.093C720.499,689.826 720.848,673.559 721.134,657.27C721.258,650.552 721.156,643.835 721.156,637.249C722.432,637.125 722.761,636.938 722.998,637.062C742.514,644.175 761.569,642.899 780.316,634.206C783.172,632.887 786.24,632.053 789.448,630.889C789.635,632.071 789.821,632.625 789.821,633.173C790.524,664.807 791.202,696.463 791.843,728.097C791.905,731.19 791.183,734.289 791.345,737.361C791.781,747.086 792.334,756.767 792.969,766.493C793.467,774.286 794.151,782.035 794.792,789.829C795.912,803.747 797.094,817.643 798.239,831.583C798.612,835.36 798.961,839.135 799.316,842.889C812.51,842.167 826.538,833.911 833.892,823.329C839.997,814.526 842.804,805.042 842.761,794.308C842.574,758.766 842.805,723.269 842.574,687.727C842.512,682.525 844.155,679.034 847.733,675.433C886.326,636.599 924.765,597.611 963.182,558.579C965.292,556.407 967.046,553.881 968.87,551.422C975.324,542.575 978.88,532.653 980.461,521.808C982.875,505.234 980.399,489.428 970.626,476.014L970.669,475.996Z" style="fill:rgb(69,28,21);fill-rule:nonzero;"/>
    </g>
    <g transform="matrix(0.058594,0,0,0.058594,-0.000103,0.000015)">
        <path d="M980.781,580.806C945.437,616.237 910.049,651.604 874.595,686.881C872.205,689.277 871.216,691.623 871.216,695.004C871.34,728.613 871.527,762.224 871.194,795.789C870.883,830.606 847.858,860.045 814.073,868.738C807.179,870.536 799.803,871.177 792.625,871.221C759.915,871.47 727.206,871.345 694.474,871.265C691.425,871.265 689.29,872.186 687.164,874.339C651.732,909.881 616.257,945.356 580.737,980.81C561.243,1000.26 537.622,1010.161 510.093,1009.656C483.97,1009.158 461.577,999.228 443.071,980.701C407.793,945.445 372.471,910.211 337.281,874.845C334.798,872.362 332.409,871.223 328.829,871.267C295.812,871.391 262.817,871.454 229.8,871.311C192.326,871.187 162.141,846.768 154.195,810.129C153.006,804.709 152.77,798.999 152.726,793.401C152.602,760.406 152.602,727.367 152.726,694.372C152.726,691.497 151.892,689.475 149.851,687.391C114.309,652.003 78.812,616.527 43.358,581.008C24.479,562.151 14.469,539.364 14.293,512.67C14.169,486.02 23.645,462.947 42.458,444.024C78.043,408.219 113.782,372.568 149.565,336.983C151.849,334.681 152.726,332.415 152.726,329.211C152.602,296.216 152.602,263.221 152.682,230.182C152.704,192.555 177.115,162.173 213.974,154.27C219.531,153.088 225.433,152.82 231.141,152.801C263.412,152.677 295.682,152.677 327.953,152.863C332.209,152.885 335.044,151.5 337.92,148.582C372.803,113.567 407.751,78.575 442.788,43.67C477.429,9.117 532.684,5.517 571.607,35.241C575.359,38.097 578.851,41.389 582.188,44.702C617.181,79.651 652.152,114.6 687.056,149.658C689.315,151.942 691.58,152.819 694.783,152.801C729.139,152.739 763.451,152.614 797.807,152.823C833.041,153.072 866.036,182.042 870.119,217.101C871.768,231.151 871.021,245.464 871.283,259.645C871.407,265.42 871.305,271.192 871.305,276.944C871.305,294.572 871.181,312.2 871.429,329.806C871.451,332.133 872.661,334.983 874.304,336.633C909.67,372.241 945.211,407.65 980.687,443.17C999.303,461.764 1009.27,484.288 1009.621,510.631C1009.994,537.984 1000.093,561.452 980.775,580.814L980.781,580.806ZM991.184,433.485C957.53,399.744 923.833,366.046 890.026,332.459C886.865,329.298 885.415,326.249 885.44,321.68C885.689,291.188 885.627,260.718 885.502,230.225C885.502,224.761 885.315,219.227 884.382,213.87C876.94,170.536 839.73,138.836 795.781,138.484C765.289,138.297 734.819,138.297 704.326,138.546C698.551,138.568 694.513,137.053 690.408,132.902C658.049,100.148 625.406,67.681 592.85,35.125C590.106,32.424 587.405,29.68 584.487,27.178C558.956,5.423 529.429,-3.314 496.303,1.12C471.298,4.48 450.158,15.872 432.355,33.786C398.635,67.681 364.74,101.4 331.021,135.252C328.737,137.554 326.497,138.482 323.272,138.457C292.78,138.333 262.288,138.333 231.795,138.457C225.734,138.479 219.589,138.581 213.684,139.664C169.12,147.808 138.43,184.755 138.364,230.065C138.342,261.172 138.302,292.235 138.426,323.343C138.448,326.573 137.505,328.807 135.178,331.07C100.91,365.251 66.686,399.453 32.505,433.721C11.694,454.554 0.739,479.887 0.037,509.194C-0.71,540.894 10.421,568.203 32.9,590.705C66.883,624.753 100.887,658.758 134.98,692.741C137.351,695.068 138.471,697.371 138.427,700.819C138.24,717.393 138.365,733.99 138.365,750.542C138.365,765.184 138.178,779.849 138.427,794.491C138.489,800.813 139.062,807.224 140.25,813.415C147.801,853.632 185.297,885.2 226.107,885.508C258.071,885.757 290.033,885.632 322.019,885.53C326.014,885.508 328.846,886.538 331.722,889.438C364.804,922.718 398.019,955.867 431.211,989.037C433.8,991.669 436.438,994.283 439.224,996.676C464.843,1018.607 494.501,1027.366 527.781,1022.844C552.961,1019.44 574.124,1007.828 591.993,989.783C625.581,955.954 659.388,922.366 693.041,888.603C695.213,886.431 697.341,885.529 700.396,885.529C731.042,885.653 761.688,885.653 792.334,885.573C798.37,885.529 804.496,885.386 810.423,884.297C855.163,875.867 885.479,839.184 885.523,793.719C885.567,762.942 885.585,732.142 885.461,701.364C885.461,697.63 886.513,695.063 889.151,692.473C922.826,658.951 956.392,625.298 990.045,591.776C1011.361,570.57 1023.106,545.061 1023.852,515.029C1024.642,483.374 1013.622,455.998 991.165,433.453L991.184,433.485Z" style="fill:rgb(69,28,21);fill-rule:nonzero;"/>
    </g>
</svg>
