<?xml version="1.0" encoding="UTF-8" standalone="no"?>
<!DOCTYPE svg PUBLIC "-//W3C//DTD SVG 1.1//EN" "http://www.w3.org/Graphics/SVG/1.1/DTD/svg11.dtd">
<svg width="100%" height="100%" viewBox="0 0 61 60" version="1.1" xmlns="http://www.w3.org/2000/svg" xmlns:xlink="http://www.w3.org/1999/xlink" xml:space="preserve" xmlns:serif="http://www.serif.com/" style="fill-rule:evenodd;clip-rule:evenodd;stroke-linejoin:round;stroke-miterlimit:2;">
    <g transform="matrix(0.058594,0,0,0.058594,0.000132,0.000031)">
        <path d="M700.974,585.28C705.187,578.671 707.714,573.117 711.666,568.814C718.494,561.327 727.649,557.99 737.748,557.792C747.826,557.605 757.902,557.543 767.936,557.792C779.726,558.103 790.396,561.545 798.936,570.241C804.226,575.686 806.203,582.645 808.003,589.561C814.919,616.149 816.895,643.35 815.885,670.684C815.25,687.918 811.012,704.275 800.736,718.743C796.61,724.537 790.725,726.12 784.512,727.239C779.353,728.141 774.039,728.446 768.792,728.664C767.784,728.708 766.265,727.282 765.805,726.206C763.173,719.861 761.044,713.274 758.231,707.017C755.642,701.136 753.159,694.942 749.23,689.98C745.06,684.665 739.833,679.595 733.971,676.412C729.428,673.954 723.236,674.215 717.768,674.016C714.911,673.892 713.661,673.58 712.852,670.568C710.369,661.237 705.168,654.299 695.31,651.424C680.469,647.012 666.264,655.158 663.476,670.173C662.978,672.743 661.852,673.222 659.636,673.179C655.485,673.117 651.337,672.992 647.21,673.201C644.683,673.325 643.632,672.436 642.91,670.04C640.141,660.578 633.931,653.794 624.336,651.972C608.397,648.966 597.354,653.291 593.512,669.623C592.747,672.853 591.471,673.289 588.813,673.201C584.662,673.077 580.514,673.388 576.387,673.014C575.18,672.952 573.201,671.321 573.07,670.226C571.906,661.027 570.612,651.784 570.257,642.563C569.821,629.719 565.733,618.237 558.138,608.138C555.238,604.273 550.827,601.508 546.458,597.732C547.205,596.985 548.126,595.56 549.445,594.875C557.832,590.332 561.542,582.8 562.991,573.886C563.427,571.229 564.329,570.108 567.142,570.09C573.465,570.068 579.81,569.343 586.111,569.53C591.183,569.717 595.266,572.075 599.174,575.787C608.988,585.052 615.091,596.907 623.039,607.468C628.111,614.274 634.192,618.072 643.94,616.931C656.63,615.437 669.649,616.495 682.514,616.433C693.623,616.389 704.732,616.477 715.797,616.371C717.135,616.327 718.454,615.276 719.749,614.678C719.046,613.539 718.455,612.238 717.533,611.274C714.241,607.87 710.178,607.279 705.546,607.279C688.97,607.279 672.416,607.155 655.884,606.289C651.932,606.102 647.761,603.283 644.402,600.713C641.085,598.186 638.627,594.521 636.015,591.206C633.663,588.219 634.652,585.891 638.43,585.412C640.496,585.163 642.556,585.288 644.641,585.288L700.977,585.288L700.974,585.28ZM746.489,753.571C746.178,759.365 742.624,765.537 739.09,770.498C734.061,777.545 727.783,783.671 721.834,790.038C720.757,791.177 718.803,792.079 717.222,792.079C691.798,792.203 666.353,792.141 640.49,792.141C639.152,786.851 637.789,781.625 636.495,776.422C631.771,757.212 622.729,739.889 612.476,723.226C607.385,714.971 601.675,707.001 593.024,701.776C588.786,699.187 584.682,696.268 580.598,693.455C579.322,692.553 578.227,691.389 576.204,689.634C582.023,689.198 586.764,688.452 591.485,688.452C627.864,688.39 664.287,688.203 700.666,688.576C708.153,688.62 716.056,689.715 723.038,692.285C730.657,695.117 735.684,702.143 738.56,709.63C744.049,723.637 747.342,738.479 746.485,753.539L746.489,753.571ZM609.949,839.448C609.927,841.421 608.655,843.948 607.161,845.242C595.854,855.144 582.374,859.205 567.555,859.71C557.105,860.083 546.654,860.587 536.248,861.509C527.532,862.324 522.57,858.192 519.496,850.598C518.158,847.349 516.509,844.209 515.04,841.004C510.603,831.541 502.789,827.985 492.778,827.634C477.519,827.136 462.085,826.669 447.617,821.289C435.63,816.833 424.082,811.058 412.49,805.504C403.774,801.397 400.064,794.351 401.381,784.603C402.389,777.051 401.754,769.015 403.97,761.858C406.671,753.362 411.193,745.283 415.804,737.51C419.999,730.529 425.267,724.184 430.294,717.729C431.109,716.652 433.039,716.453 434.42,715.862C434.856,717.181 435.21,718.538 435.739,719.814C437.121,723.131 437.849,727.037 440.133,729.518C451,741.352 464.152,749.211 480.573,750.463C492.605,751.428 504.723,753.363 516.689,752.766C530.191,752.144 543.957,750.55 555.791,742.601C564.814,736.539 571.16,728.725 572.938,717.617C573.249,715.706 574.649,713.995 575.658,711.91C590.083,721.68 598.228,734.809 602.026,750.616C604.988,763.02 607.297,775.579 609.754,788.093C610.252,790.682 610.127,793.408 610.127,796.041C610.171,810.509 610.189,824.977 609.94,839.445L609.949,839.448ZM609.172,872.243C608.674,890.334 597.865,899.884 582.058,905.966C567.941,911.368 553.385,914.067 538.456,915.604C526.491,916.811 514.525,918.548 502.516,918.94C495.271,919.189 487.982,917.471 480.715,916.525C474.151,915.691 467.543,915.162 461.109,913.78C436.893,908.552 418.824,894.416 406.288,873.515C403.127,868.244 401.919,861.264 401.614,854.985C400.936,841.022 401.365,826.97 401.365,812.195C418.884,823.963 436.975,832.086 456.735,835.972C465.034,837.621 473.574,838.3 482.027,839.221C486.856,839.719 491.731,839.856 496.605,840.186C499.835,840.373 501.279,842.644 502.642,845.258C505.629,851.139 508.66,857.026 512.126,862.624C516.339,869.474 522.511,872.987 530.81,873.184C549.867,873.62 568.901,873.246 587.541,869.232C595.006,867.633 601.834,863.083 609.167,859.835C609.167,863.413 609.229,867.849 609.145,872.239L609.172,872.243ZM392.452,751.709C392.016,752.655 390.741,753.862 389.795,753.862C371.946,753.986 354.097,753.924 336.226,753.924C336.039,753.488 335.79,753.065 335.591,752.63C344.944,744.507 354.318,736.361 363.671,728.238C374.714,718.644 385.735,709.05 396.779,699.5C402.617,694.471 408.195,689.071 414.54,684.834C418.361,682.307 423.388,681.056 428.042,680.422C433.487,679.7 439.13,680.235 444.904,680.235C444.904,681.467 445.277,683.415 444.78,685.151C444.407,686.757 443.461,688.817 442.148,689.476C422.257,699.619 408.755,715.646 399.643,735.669C397.203,740.959 394.969,746.383 392.442,751.674L392.452,751.709ZM458.37,683.548C459.316,668.641 460.785,653.668 463.131,638.892C465.154,625.939 474.548,618.123 485.481,612.107C486.863,611.317 488.425,610.856 490.335,610.041C490.97,610.943 491.654,611.952 492.445,613.047C491.524,613.769 490.752,614.236 490.161,614.87C487.529,617.571 484.628,620.098 482.433,623.147C478.525,628.568 480.827,633.817 484.362,638.296C487.505,642.335 491.629,645.102 497.162,645.124C504.846,645.168 512.552,645.746 520.215,645.56C527.987,645.373 533.278,640.619 535.539,633.331C537.842,625.801 537.649,618.292 535.788,610.63C538.949,608.744 540.922,610.506 542.726,612.74C551.815,624.245 557.26,636.869 557.062,651.995C556.875,664.663 558.338,677.353 558.468,690.042C558.592,701.239 558.095,712.458 557.547,723.655C557.485,725.323 556.053,727.632 554.585,728.441C542.202,735.291 529.315,740.407 514.825,740.67C500.774,740.919 486.833,740.234 473.199,736.892C467.778,735.598 462.705,732.741 458.863,731.16C458.863,724.727 458.925,719.612 458.841,714.54C458.717,704.2 457.764,693.859 458.405,683.54L458.37,683.548ZM499.044,586.281C498.484,577.126 500.693,573.657 507.76,572.801C516.036,571.724 522.206,575.477 523.611,583.185C526.399,598.532 529.256,613.878 528.397,629.641C528.024,635.852 526.331,637.566 520.032,637.566L504.927,637.566C497.945,637.566 492.061,634.517 491.754,630.321C491.194,622.439 491.878,616.094 500.756,613.986C500.196,604.765 499.636,595.522 499.045,586.279L499.044,586.281ZM457.682,567.993C455.311,565.006 452.809,562.068 450.876,558.816C446.115,550.846 448.947,543.053 452.612,535.786C456.035,529.002 460.164,522.547 464.468,516.268C470.243,507.771 479.002,503.007 488.618,501.471C497.269,500.046 506.489,500.133 515.206,501.409C529.169,503.432 537.073,513.857 543.22,525.428C549.039,536.405 550.312,548.568 551.519,560.753C552.284,568.217 545.7,579.48 537.226,582.247C533.386,566.527 523.263,557.723 510.595,559.414C495.732,561.437 487.148,569.14 484.535,585.101C473.865,581.958 464.644,576.78 457.684,567.998L457.682,567.993ZM474.743,445.555C472.347,446.918 470.418,446.389 468.354,444.79C462.119,439.892 455.818,435.152 449.429,430.234C467.673,420.465 485.413,410.892 503.262,401.451C507.936,398.968 512.417,401.949 512.68,407.158C513.24,419.167 508.112,427.554 497.487,432.977C489.802,436.954 482.294,441.319 474.742,445.557L474.743,445.555ZM430.416,402.855C410.108,403.932 390.436,400.465 371.709,392.251C363.213,388.517 358.009,381.625 353.135,374.072C346.9,364.434 343.234,354.203 342.729,341.469C344.702,343.398 346.09,344.562 347.229,345.95C357.197,357.893 371.072,362.438 385.54,364.721C397.989,366.65 410.722,366.937 423.346,367.441C429.314,367.69 435.333,366.651 441.525,366.19C443.436,376.685 438.382,389.045 450.526,398.222C443.04,400.045 436.805,402.547 430.416,402.852L430.416,402.855ZM343.365,294.615C344.597,286.536 347.977,278.742 350.588,270.882C356.519,253.077 369.82,242.846 386.813,237.182C404.201,231.407 421.304,231.102 439.109,238.128C451.711,243.132 460.537,250.949 467.87,261.466C472.855,268.689 472.351,276.966 472.482,285.221C472.606,294.047 467.852,299.448 460.978,303.576C457.991,305.356 454.811,306.893 451.559,308.144C443.809,311.218 441.065,317.036 441.219,325.006C441.406,334.469 441.263,343.931 441.263,353.767C436.651,354.203 432.152,354.974 427.629,355.086C419.638,355.273 411.645,355.459 403.654,355.086C390.416,354.464 377.309,352.099 365.541,345.975C354.761,340.355 347.275,330.321 343.477,319.234C340.932,311.857 342.095,302.702 343.353,294.622L343.365,294.615ZM486.496,280.57C486.807,276.774 487.529,274.969 491.811,275.149C497.082,275.336 502.437,274.962 507.728,274.514C510.977,274.265 512.315,275.136 512.122,278.621C511.873,282.878 512.06,287.183 512.06,291.487C512.082,297.281 516.012,302.53 521.61,303.518C525.649,304.196 529.821,304.508 533.927,304.42C540.425,304.233 546.902,296.977 546.968,289.623C546.968,286.001 545.804,282.422 545.499,278.799C545.375,277.436 546.246,276.036 546.638,274.648C547.403,275.7 548.567,276.714 548.878,277.897C549.643,280.859 549.799,283.977 550.589,286.92C551.778,291.289 554.939,293.726 559.261,294.802C573.092,298.312 580.491,293.109 583.719,276.03C593.291,277.897 603.632,277.916 611.931,282.023C621.942,286.983 629.231,296.03 630.965,308.193C632.807,321.234 634.83,334.231 636.915,347.997C625.169,347.935 614.236,347.163 608.351,358.491C604.113,366.636 606.77,377.416 615.267,386.835C611.664,391.907 605.892,391.733 600.799,392.343C591.051,393.482 591.446,393.177 590.436,383.188C589.534,374.077 588.021,364.965 586.024,355.986C583.236,343.406 573.861,336.446 562.664,332.187C548.174,326.654 533.201,326.368 518.008,329.312C502.201,332.361 491.882,341.541 486.767,356.448C483.674,365.361 482.772,374.758 483.058,384.221C483.182,388.434 483.058,392.937 478.142,394.386C473.138,395.836 468.13,396.141 463.652,392.17C457.131,386.376 454.299,379.612 454.497,370.698C454.87,355.637 454.248,340.576 453.75,325.515C453.688,322.466 454.827,320.903 457.285,319.783C459.258,318.862 461.193,317.742 463.21,316.908C479.368,310.168 485.253,296.754 486.504,280.573L486.496,280.57ZM677.004,383.675C669.935,389.6 662.953,395.421 655.642,401.546C645.828,394.674 636.256,387.671 626.288,381.172C622.554,378.714 619.219,376.231 617.506,372.061C615.664,367.537 614.805,364.091 620.823,358.954C624.644,355.705 630.461,354.43 634.172,356.714C648.113,365.342 661.989,374.014 675.886,382.664C676.135,382.788 676.322,383.037 677.006,383.672L677.004,383.675ZM575.664,513.468C574.743,516.038 570.704,517.507 568.045,519.418C567.734,519.605 567.124,519.356 566.726,519.462C557.9,522.493 553.29,518.323 548.833,510.856C540.842,497.354 527.581,491.141 512.542,488.396C510.102,487.96 507.582,487.631 505.099,487.562C499.125,487.438 496.251,485.191 496.01,479.373C495.637,470.086 495.699,460.755 495.574,451.447C495.512,447.234 498.188,445.189 501.455,443.455C510.764,438.47 518.294,431.49 520.468,420.952C521.893,413.882 521.607,406.308 520.966,399.063C520.468,393.182 514.774,389.996 508.803,391.159C506.083,391.657 503.47,392.765 500.746,393.225C499.078,393.474 496.396,394.32 496.489,391.159C496.738,381.147 496.178,371.026 497.808,361.234C499.719,349.861 509.159,344.702 519.324,342.331C532.804,339.194 546.416,339.17 559.721,344.154C566.637,346.768 570.281,351.926 572.828,358.534C577.352,370.148 574.627,382.179 575.442,394.035C575.629,396.692 575.464,399.35 575.464,402.026L576.298,402.026L576.298,468.132C576.298,479.065 576.342,489.999 576.276,500.932C576.276,505.17 577.023,509.714 575.641,513.468L575.664,513.468ZM969.509,479.44C947.313,479.564 925.116,479.564 902.898,479.396C900.595,479.374 897.938,478.537 896.092,477.18C891.001,473.471 885.993,469.474 881.382,465.171C871.436,455.862 859.822,451.45 846.21,451.822C837.802,452.071 829.349,451.8 820.918,451.698C808.909,451.574 796.944,451.076 784.978,451.387C774.813,451.636 764.494,452.619 755.888,458.61C740.564,469.28 725.546,480.389 710.486,491.476C701.133,498.37 692.132,505.812 682.625,512.487C679.725,514.553 675.665,515.387 672.021,515.761C668.138,516.134 666.115,513.041 667.584,509.416C668.661,506.759 669.912,503.908 671.891,501.863C681.726,491.676 692.33,482.257 703.857,473.959C721.882,461.006 739.862,447.943 758.107,435.297C765.133,430.424 772.97,427.81 782.038,427.854C828.033,428.227 874.094,428.041 920.133,428.041L926.058,428.041C921.534,423.56 917.935,419.94 914.181,416.471C913.434,415.811 912.053,415.612 910.951,415.612C891.697,415.674 872.464,415.861 853.232,416.048C849.94,416.092 846.668,416.359 842.342,416.546C847.675,411.605 851.914,407.303 856.59,403.505C859.117,401.464 862.191,399.398 865.262,398.937C869.369,398.315 873.736,399.373 877.996,399.435C884.145,399.559 890.269,399.457 897.382,399.457C893.032,395.15 889.544,391.355 885.68,388.018C884.056,386.655 881.703,385.535 879.643,385.448C871.52,385.137 863.353,385.012 855.251,385.47C851.915,385.657 848.094,386.696 845.547,388.719C838.038,394.693 830.947,401.167 824.009,407.797C822.098,409.639 820.431,410.28 817.947,410.255C803.72,410.193 789.515,410.379 775.311,410.193C765.344,410.006 756.32,413.423 748.46,418.602C737.79,425.671 727.998,434.036 718.075,442.181C703.673,453.949 689.468,465.958 675.285,477.989C669.491,482.887 662.858,487.32 658.423,493.335C650.519,504.093 648.302,516.212 655.436,528.638C656.488,530.48 657.832,532.198 659.014,533.953C653.481,536.785 648.278,539.467 643.031,542.076C631.263,547.938 619.495,553.8 607.662,559.53C606.542,560.09 604.743,560.152 603.598,559.654C595.475,556.25 587.154,554.339 578.284,554.912C574.618,555.161 570.863,555.223 567.219,554.85C566.037,554.726 564.319,553.157 564.033,551.906C562.913,547.537 562.297,542.97 561.463,538.492C560.561,533.619 561.774,532.147 566.709,531.928C576.852,531.492 584.712,527.074 588.62,517.613C591.01,511.794 591.956,505.362 593.518,499.347C601.356,496.142 609.808,493.528 617.405,489.314C623.616,485.891 628.888,480.686 634.376,476.054C642.499,469.204 650.381,462.091 658.548,455.285C674.663,441.739 691.019,428.478 707.09,414.866C721.295,402.835 734.994,390.255 749.353,378.444C753.46,375.083 758.881,372.252 764.041,371.44C773.13,370.077 782.505,370.208 791.769,370.146C815.744,370.022 839.718,370.124 863.693,370.124C864.726,370.124 865.759,369.875 867.514,369.688C863.693,365.867 860.598,362.465 857.173,359.523C855.636,358.229 853.377,357.177 851.441,357.133C824.964,357.009 798.464,356.822 771.965,357.133C762.041,357.257 752.403,359.305 744.499,366.135C735.893,373.556 727.221,380.911 718.593,388.287C705.793,399.22 692.95,410.11 680.172,421.044C668.294,431.23 656.57,441.615 644.517,451.583C632.947,461.177 621.245,470.595 609.148,479.509C603.441,483.722 596.765,486.82 589.323,485.527C589.385,484.102 589.759,482.913 589.572,481.774C588.67,475.165 591.041,470.577 596.247,465.922C611.198,452.552 625.491,438.325 640.024,424.45C644.175,420.473 648.17,416.305 652.494,412.55C662.418,403.988 672.539,395.645 682.528,387.149C689.444,381.224 696.052,374.964 703.144,369.278C713.222,361.221 723.452,353.339 733.881,345.72C742.751,339.222 752.081,334.985 763.893,335.423C788.46,336.282 813.071,335.672 837.617,335.672L842.49,335.672L842.49,245.35C841.787,245.226 841.395,245.101 840.953,245.101C771.971,245.057 703.011,244.977 634.03,245.225C626.697,245.247 619.737,247.857 616.159,255.631C614.273,259.757 611.703,263.579 609.111,267.311C608.258,268.543 606.211,269.968 605.028,269.751C597.761,268.369 590.582,266.521 583.117,264.791C583.117,257.151 583.055,249.467 583.179,241.761C583.201,240.467 584.013,239.016 584.872,237.965C588.189,233.814 592.007,230.061 594.993,225.692C601.711,216.054 610.932,211.992 622.37,212.256C639.363,212.629 656.356,213.507 673.349,213.463C697.302,213.401 721.232,212.455 745.185,212.281C775.065,212.094 804.99,212.259 834.87,212.259L839.83,212.259C839.195,210.392 838.928,208.923 838.249,207.672C828.984,191.557 815.745,181.304 796.535,181.195C758.619,181.008 720.747,181.133 682.831,181.195C679.956,181.195 677.958,180.318 675.937,178.276C649.416,151.622 622.807,125.057 596.22,98.492C595.168,97.415 594.023,96.426 592.243,94.826C592.243,110.106 592.367,124.333 592.119,138.516C592.075,141.522 591.086,144.927 589.418,147.407C585.771,152.74 581.602,157.77 577.277,162.622C575.211,164.881 574.377,167.034 574.445,170.065C574.943,201.219 575.322,232.351 575.677,263.504C575.739,268.949 575.801,274.437 575.366,279.86C574.93,285.038 572.223,287.5 567.66,287.785C559.845,288.221 557.891,287.225 556.376,281.177C555.698,278.345 555.187,275.383 555.237,272.461C555.299,258.3 555.735,244.118 555.859,229.956C555.983,208.616 555.837,187.298 555.983,165.98C555.983,163.453 556.356,160.472 557.719,158.45C561.584,152.612 565.864,146.967 570.343,141.523C573.965,137.111 577.105,132.609 577.083,126.637C577.021,111.993 577.021,97.327 576.71,82.705C576.648,80.595 575.615,78.118 574.165,76.556C569.18,71.135 564.022,65.798 558.511,60.836C549.444,52.668 538.927,47.092 525.667,44.589L525.667,98.203C525.667,100.089 525.791,102.024 525.645,103.953C525.334,108.453 524.195,112.45 520.044,115.26C515.588,118.353 511.855,122.747 507.135,125.272C499.605,129.311 498.507,135.284 498.814,142.968C499.063,148.239 500.463,152.079 504.191,155.768C514.026,165.582 523.797,175.44 533.04,185.802C536.183,189.312 539.495,194.342 539.583,198.733C540.205,227.011 539.956,255.267 539.832,283.545C539.81,286.638 539.154,289.977 537.791,292.722C536.297,295.796 529.031,297.072 524.464,295.379C520.251,293.823 518.626,290.263 518.626,285.961C518.626,263.326 518.688,240.668 518.582,218.033C518.52,210.502 517.549,203.279 511.666,197.373C502.028,187.757 492.851,177.724 483.564,167.8C479.724,163.674 476.758,159.326 476.802,153.09C476.989,120.839 476.864,88.565 476.864,56.314L476.864,51.814C471.966,55.766 467.577,58.642 463.911,62.286C425.205,100.817 386.608,139.479 348.056,178.141C345.903,180.294 343.818,181.215 340.724,181.19C303.291,181.128 265.836,181.128 228.403,181.168C225.503,181.168 222.609,181.604 219.709,182.027C198.853,184.859 180.762,205.848 181.025,227.715C181.274,253.161 181.087,278.65 181.087,304.096L181.087,309.056C191.12,309.056 200.582,309.18 210.023,309.012C216.961,308.888 223.196,310.593 228.07,315.598C236.149,323.809 243.856,332.415 252.001,340.539C261.925,350.462 271.541,360.781 282.364,369.651C295.844,380.76 310.488,390.464 324.429,401.024C329.128,404.559 333.167,408.928 338.041,413.384C336.529,413.695 336.218,413.82 335.975,413.82C293.339,414.131 250.724,414.442 208.11,414.741C206.529,414.763 204.731,414.803 203.436,415.531C197.091,419.178 190.724,422.842 184.598,426.86C176.124,432.393 167.891,438.276 159.504,443.963C154.805,447.124 149.8,448.724 143.894,448.593C123.015,448.282 102.158,448.469 81.301,448.531C79.764,448.531 77.81,448.593 76.801,449.496C72.936,452.875 69.358,456.587 64.814,461.022C69.818,461.333 73.596,461.744 77.35,461.744C100.139,461.806 122.928,461.931 145.739,461.744C152.435,461.722 158.604,461.868 165.103,456.933C178.429,446.724 193.249,438.403 207.563,429.49C209.561,428.258 212.131,427.293 214.391,427.293C231.559,427.417 248.729,428.015 265.897,428.04C318.61,428.164 371.28,428.164 423.993,428.018C429.501,428.018 433.873,428.852 438.33,432.804C451.876,444.835 465.817,456.471 480.044,467.69C486.696,472.961 484.83,479.282 484.195,485.715C484.133,486.636 483.473,487.931 482.745,488.285C478.532,490.239 474.293,493.314 469.946,493.531C452.689,494.408 435.389,494.191 418.111,494.782C413.107,494.969 409.592,493.046 405.926,490.083C400.792,485.913 395.168,483.014 387.989,483.036C276.832,483.16 165.675,483.098 54.496,483.098C53.314,483.098 52.013,482.787 50.986,483.16C49.822,483.596 48.354,484.392 47.912,485.444C40.074,504.654 40.733,523.623 49.561,542.417C54.502,552.89 62.799,560.53 70.66,568.609C72.876,570.893 75.072,571.901 78.366,571.901C156.745,571.839 235.123,571.839 313.523,571.839C314.357,571.839 315.191,571.861 316.05,571.963C316.174,571.776 316.361,571.652 316.486,571.527C316.859,571.714 317.233,571.9 317.625,572.087C317.127,572.065 316.573,572.043 316.069,572.025C307.924,580.916 299.866,589.896 291.546,598.568C290.034,600.105 287.264,601.157 285.069,601.157C246.604,601.344 208.117,601.219 169.631,601.344C166.339,601.344 163.924,600.579 161.397,598.226C157.906,594.909 153.867,592.121 149.871,589.4C144.737,585.952 140.079,581.914 132.922,582.287C121.264,582.909 109.562,582.536 97.882,582.536C93.818,582.558 89.78,582.558 85.565,582.558C91.645,592.021 99.155,597.18 110.417,595.182C114.151,594.522 118.123,594.871 121.943,595.138C129.891,595.773 137.772,597.067 144.184,602.296C148.049,605.433 151.187,609.497 155.008,612.768C156.701,614.193 159.246,615.425 161.44,615.425C203.154,615.549 244.89,615.363 286.626,615.674C291.854,615.736 295.451,614.336 298.899,610.975C319.339,591.106 339.735,571.15 360.351,551.412C372.602,539.666 385.291,528.381 397.674,516.723C403.294,511.452 409.815,507.173 417.258,506.602C429.114,505.681 441.123,506.353 453.812,506.353C452.561,508.55 451.354,510.94 449.885,513.159C443.189,523.302 438.095,534.104 436.119,546.135C435.559,549.67 434.451,550.547 431.028,550.062C422.334,548.83 414.32,550.373 407.822,556.89C405.252,559.504 402.75,562.18 400.05,564.64C384.747,578.34 369.401,591.952 354.077,605.63C348.806,610.347 343.582,615.202 338.248,619.857C329.532,627.387 320.179,634.237 312.144,642.404C303.604,651.098 293.592,654.523 282,654.326C261.78,653.953 241.516,653.206 221.295,652.857C206.344,652.608 191.371,652.733 176.442,652.733L155.805,652.733C161.842,660.132 168.121,666.762 174.971,672.756C179.67,676.882 182.129,681.296 181.206,687.685C180.708,691.089 181.144,694.601 181.144,698.201C208.938,698.201 236.031,698.263 263.101,698.077C265.671,698.077 268.565,696.739 270.653,695.158C288.37,681.546 306.088,667.912 323.454,653.927C337.33,642.73 350.788,631.05 364.29,619.458C376.387,609.051 388.177,598.272 400.318,587.931C407.058,582.181 414.128,576.844 421.219,571.575C425.719,568.196 431.186,568.855 436.148,569.708C438.121,570.081 439.527,573.635 441.195,575.745C442.664,577.587 444.114,579.479 445.676,581.234C454.304,590.806 464.513,597.963 477.84,601.718C461.044,610.543 452.833,624.595 449.804,641.939C448.335,650.435 447.501,659.042 446.313,667.977C440.189,667.977 434.282,667.915 428.398,667.999C418.167,668.186 409.32,671.534 401.657,678.647C391.821,687.758 381.458,696.343 371.25,705.08C358.736,715.816 345.783,726.135 333.641,737.31C319.81,749.956 305.671,762.031 289.732,772.043C282.948,776.238 276.098,778.235 268.26,778.123C244.571,777.812 220.882,777.75 197.214,777.625C191.943,777.581 186.676,777.625 180.704,777.625C181.14,787.175 181.077,795.694 182.086,804.125C184.569,825.311 206.258,843.314 228.41,843.05C265.865,842.614 303.342,842.988 340.775,842.863C343.849,842.841 345.959,843.722 348.086,845.894C382.445,880.385 416.914,914.81 451.295,949.279C452.372,950.374 452.807,952.136 453.554,953.561C454.052,953.063 454.562,952.571 455.048,952.092L455.048,923.792C462.864,925.765 470.636,927.744 477.706,929.524C477.706,936.703 477.893,943.773 477.644,950.82C477.395,956.987 476.48,963.137 476.262,969.306C476.24,970.582 477.644,972.399 478.894,973.059C487.456,977.826 496.677,980.502 506.974,981.248L506.974,931.476C520.213,930.617 532.968,929.783 545.9,928.906C545.24,943.352 544.537,958.259 543.859,973.693C546.846,971.894 549.367,970.556 551.763,968.951C555.802,966.294 558.195,963.219 557.955,957.644C557.519,947.787 558.266,937.863 558.702,927.962C558.746,926.91 559.536,925.261 560.413,924.913C563.749,923.55 567.307,922.561 571.171,921.335L571.171,950.535C572.882,948.911 574.028,947.834 575.123,946.757C608.845,913.057 642.524,879.334 676.334,845.721C677.89,844.184 680.572,843.045 682.723,843.045C719.3,842.921 755.854,842.672 792.409,843.045C808.787,843.232 822.07,837.643 832.476,825.24C838.953,817.556 842.728,808.576 842.751,798.565C842.938,760.079 842.875,721.592 842.773,683.106C842.773,680.249 843.588,678.233 845.63,676.19C880.34,641.589 914.985,606.945 949.586,572.278C955.604,566.216 961.529,560.027 967.238,553.683C972.466,547.889 975.537,540.906 978.171,532.914L972.925,532.914C953.253,532.914 933.56,532.958 913.866,532.914C902.911,532.914 892.833,530.873 885.72,521.3C883.897,518.842 881.55,516.626 879.112,514.78C869.43,507.557 859.353,500.927 850.044,493.286C845.084,489.203 840.011,489.179 834.456,489.533C831.643,489.72 828.88,490.168 826.091,490.155C811.14,489.968 796.188,489.595 781.26,489.477C779.349,489.455 777.134,489.975 775.528,491.014C753.266,505.592 731.158,520.411 708.829,534.858C704,537.995 698.423,540.173 693.022,542.301C687.645,544.473 678.422,538.063 680.442,530.731C681.232,527.943 682.925,524.893 685.166,523.091C696.341,513.98 707.604,504.825 719.371,496.504C731.71,487.722 744.729,479.906 757.331,471.541C764.752,466.643 772.545,463.55 781.635,463.637C802.185,463.824 822.757,463.699 843.328,463.699C844.952,463.699 846.602,463.823 848.182,464.072C857.886,465.609 865.175,471.91 872.618,477.332C884.737,486.202 895.956,496.213 907.724,505.566C909.479,506.972 912.136,507.962 914.42,507.981C935.277,508.168 956.156,508.105 977.013,508.105L982.658,508.105C979.957,499.147 977.561,491.134 975.171,483.186C974.337,480.354 972.514,479.539 969.57,479.583L969.509,479.44Z" style="fill:rgb(69,28,21);fill-rule:nonzero;"/>
    </g>
    <g transform="matrix(0.058594,0,0,0.058594,0.000132,0.000031)">
        <path d="M980.833,580.697C945.617,616 910.293,651.26 874.967,686.453C872.397,689.023 871.171,691.525 871.214,695.323C871.338,729.638 871.463,763.976 871.152,798.335C870.779,833.287 841.491,865.889 806.847,870.302C802.036,870.924 797.121,871.223 792.29,871.223C759.863,871.285 727.458,871.285 695.031,871.201C691.695,871.201 689.299,872.103 686.908,874.518C651.583,909.975 616.214,945.345 580.801,980.692C561.81,999.661 538.801,1009.628 511.973,1009.584C485.166,1009.584 462.135,999.661 443.123,980.692C407.732,945.345 372.362,909.976 337.06,874.518C334.664,872.122 332.293,871.201 328.915,871.201C295.917,871.325 262.919,871.325 229.921,871.263C192.4,871.139 162.213,846.762 154.265,810.163C153.145,804.985 152.84,799.603 152.771,794.312C152.584,778.482 152.709,762.631 152.709,746.802C152.709,729.633 152.647,712.464 152.833,695.274C152.877,691.739 151.868,689.281 149.342,686.777C113.885,651.496 78.494,616.127 43.147,580.714C24.2,561.702 14.342,538.671 14.364,511.82C14.426,485.518 23.914,462.729 42.488,444.045C78.055,408.237 113.797,372.604 149.583,336.972C151.823,334.713 152.813,332.516 152.813,329.244C152.689,296.092 152.689,262.962 152.751,229.811C152.813,189.765 181.644,157.536 221.382,152.947C224.917,152.574 228.495,152.698 232.03,152.698C264.611,152.654 297.17,152.72 329.707,152.574C332.01,152.574 334.91,151.367 336.557,149.742C372.036,114.46 407.339,79.047 442.774,43.7C477.44,9.121 532.657,5.455 571.604,35.16C575.357,38.06 578.827,41.309 582.164,44.666C617.16,79.574 652.134,114.504 687.042,149.544C689.282,151.803 691.498,152.774 694.726,152.774C727.746,152.65 760.744,152.65 793.764,152.73C831.57,152.792 861.824,177.078 869.749,213.918C871.068,219.911 871.261,226.257 871.286,232.426C871.41,264.677 871.41,296.973 871.286,329.224C871.264,332.454 872.163,334.713 874.472,336.974C909.995,372.387 945.518,407.844 980.952,443.367C1000.03,462.511 1009.888,485.695 1009.669,512.7C1009.482,539.199 999.614,561.944 980.886,580.694L980.833,580.697ZM991.096,433.335C957.11,399.305 923.102,365.275 889.007,331.333C886.505,328.806 885.491,326.329 885.541,322.793C885.728,306.371 885.603,289.971 885.603,273.527C885.603,258.707 885.852,243.91 885.541,229.113C885.354,222.219 884.819,215.15 883.238,208.497C873.249,166.805 837.77,138.746 794.782,138.439C763.43,138.252 732.035,138.377 700.64,138.483C697.391,138.505 695.176,137.493 692.912,135.209C672.604,114.725 652.186,94.329 631.724,73.933C616.246,58.477 601.229,42.428 584.96,27.784C559.822,5.105 529.7,-3.347 496.219,1.175C471.08,4.579 449.894,16.192 432.023,34.217C398.432,68.027 364.622,101.64 330.987,135.384C328.815,137.556 326.687,138.477 323.632,138.477C293.137,138.353 262.642,138.353 232.146,138.477C225.979,138.477 219.676,138.664 213.595,139.709C168.104,147.766 137.609,187.636 138.356,230.711C138.854,261.491 138.418,292.272 138.543,323.075C138.543,326.411 137.597,328.807 135.207,331.22C101.111,365.14 67.081,399.148 33.095,433.178C-11.056,477.504 -11.034,546.618 33.157,590.813C67.055,624.733 100.931,658.675 134.939,692.485C137.596,695.142 138.586,697.731 138.542,701.421C138.418,732.356 138.355,763.268 138.586,794.224C138.63,801.271 139.208,808.472 140.802,815.278C150.571,856.86 186.38,885.314 229.104,885.533C260.477,885.72 291.851,885.595 323.224,885.511C326.628,885.467 328.974,886.544 331.347,888.915C353.236,910.979 375.213,932.956 397.233,954.889C411.174,968.786 424.633,983.255 439.298,996.34C464.414,1018.821 494.361,1027.296 527.644,1022.861C552.848,1019.5 574.034,1007.932 591.927,989.907C625.628,956.009 659.482,922.265 693.424,888.564C695.073,886.915 697.948,885.707 700.252,885.707C731.032,885.52 761.813,885.645 792.638,885.52C798.519,885.52 804.515,885.396 810.289,884.338C854.484,876.434 885.55,839.309 885.637,794.411C885.681,763.455 885.681,732.542 885.575,701.608C885.575,697.743 886.652,695.065 889.415,692.321C923.094,658.818 956.618,625.161 990.297,591.636C1011.506,570.537 1023.142,545.136 1023.954,515.3C1024.831,483.465 1013.745,456 991.154,433.343L991.096,433.335Z" style="fill:rgb(69,28,21);fill-rule:nonzero;"/>
    </g>
</svg>
