<?xml version="1.0" encoding="UTF-8" standalone="no"?>
<!DOCTYPE svg PUBLIC "-//W3C//DTD SVG 1.1//EN" "http://www.w3.org/Graphics/SVG/1.1/DTD/svg11.dtd">
<svg width="100%" height="100%" viewBox="0 0 61 60" version="1.1" xmlns="http://www.w3.org/2000/svg" xmlns:xlink="http://www.w3.org/1999/xlink" xml:space="preserve" xmlns:serif="http://www.serif.com/" style="fill-rule:evenodd;clip-rule:evenodd;stroke-linejoin:round;stroke-miterlimit:2;">
    <g transform="matrix(0.058594,0,0,0.058594,-0.000058,-0.000027)">
        <path d="M700.974,585.283C705.187,578.674 707.714,573.098 711.666,568.817C718.494,561.33 727.649,557.993 737.748,557.795C747.826,557.608 757.903,557.546 767.936,557.817C779.726,558.128 790.396,561.551 798.936,570.243C804.226,575.664 806.203,582.648 808.004,589.541C814.92,616.15 816.896,643.352 815.886,670.664C815.251,687.921 811.013,704.277 800.737,718.745C796.611,724.539 790.726,726.122 784.513,727.241C779.354,728.162 774.04,728.448 768.793,728.666C767.785,728.71 766.266,727.284 765.806,726.208C763.173,719.863 761.045,713.276 758.231,707.019C755.642,701.138 753.159,694.944 749.23,689.982C745.06,684.667 739.833,679.575 733.971,676.414C729.428,673.956 723.236,674.217 717.768,674.024C714.911,673.9 713.661,673.588 712.852,670.576C710.369,661.245 705.168,654.352 695.31,651.432C680.469,647.02 666.264,655.166 663.476,670.181C662.978,672.751 661.827,673.23 659.636,673.187C655.485,673.125 651.337,673 647.21,673.209C644.683,673.333 643.632,672.444 642.903,670.048C640.14,660.586 633.924,653.802 624.329,651.98C608.39,648.974 597.347,653.299 593.504,669.631C592.739,672.861 591.463,673.297 588.805,673.209C584.654,673.085 580.506,673.396 576.379,673.022C575.172,672.96 573.193,671.329 573.062,670.234C571.898,661.035 570.604,651.792 570.249,642.571C569.813,629.727 565.725,618.245 558.13,608.146C555.23,604.281 550.819,601.516 546.45,597.74C547.197,596.993 548.118,595.568 549.437,594.883C557.824,590.34 561.534,582.808 562.983,573.894C563.419,571.237 564.321,570.116 567.134,570.098C573.457,570.076 579.802,569.351 586.103,569.538C591.175,569.725 595.28,572.083 599.166,575.795C608.98,585.06 615.083,596.915 623.031,607.476C628.103,614.282 634.162,618.08 643.932,616.939C656.622,615.445 669.642,616.503 682.507,616.441C693.616,616.419 704.725,616.503 715.79,616.379C717.128,616.335 718.447,615.284 719.742,614.686C719.039,613.547 718.448,612.246 717.526,611.282C714.234,607.878 710.171,607.287 705.539,607.287C688.963,607.287 672.409,607.163 655.877,606.297C651.925,606.11 647.71,603.291 644.395,600.721C641.078,598.194 638.62,594.529 636.008,591.214C633.656,588.227 634.645,585.899 638.423,585.42C640.489,585.171 642.549,585.296 644.634,585.296L700.97,585.296L700.974,585.283ZM746.483,753.58C746.172,759.374 742.618,765.546 739.084,770.507C734.055,777.533 727.777,783.68 721.828,790.025C720.751,791.189 718.797,792.091 717.216,792.091C691.792,792.215 666.346,792.153 640.484,792.153C639.146,786.863 637.783,781.637 636.489,776.434C631.765,757.201 622.723,739.901 612.47,723.238C607.379,714.983 601.669,707.013 593.018,701.788C588.78,699.199 584.676,696.28 580.592,693.446C579.316,692.568 578.221,691.448 576.198,689.65C582.017,689.214 586.759,688.461 591.479,688.461C627.858,688.399 664.281,688.212 700.66,688.585C708.147,688.647 716.029,689.749 723.032,692.338C730.651,695.151 735.678,702.174 738.554,709.661C744.043,723.668 747.336,738.51 746.48,753.57L746.483,753.58ZM609.942,839.479C609.92,841.458 608.648,843.979 607.154,845.273C595.847,855.153 582.367,859.236 567.548,859.741C557.098,860.114 546.647,860.619 536.241,861.54C527.525,862.355 522.541,858.223 519.489,850.628C518.151,847.379 516.502,844.217 515.033,841.034C510.596,831.571 502.782,828.015 492.771,827.664C477.512,827.166 462.078,826.699 447.61,821.319C435.623,816.838 424.075,811.088 412.483,805.534C403.767,801.408 400.057,794.381 401.374,784.633C402.382,777.058 401.747,769.045 403.963,761.888C406.664,753.392 411.187,745.313 415.797,737.54C419.992,730.559 425.26,724.214 430.287,717.759C431.102,716.682 433.032,716.483 434.413,715.873C434.849,717.211 435.203,718.574 435.732,719.85C437.114,723.167 437.842,727.074 440.126,729.554C450.993,741.388 464.145,749.226 480.566,750.499C492.598,751.464 504.717,753.399 516.682,752.802C530.184,752.18 543.95,750.586 555.784,742.637C564.807,736.575 571.153,728.761 572.931,717.652C573.242,715.741 574.624,714.03 575.651,711.92C590.076,721.712 598.221,734.841 602.019,750.648C604.981,763.053 607.29,775.589 609.747,788.125C610.245,790.714 610.12,793.44 610.12,796.073C610.12,810.541 610.182,825.009 609.933,839.478L609.942,839.479ZM609.166,872.278C608.668,890.369 597.859,899.898 582.052,906.001C567.935,911.403 553.335,914.102 538.45,915.639C526.485,916.846 514.519,918.583 502.51,918.975C495.265,919.224 487.976,917.506 480.709,916.56C474.145,915.726 467.537,915.197 461.103,913.815C436.887,908.587 418.818,894.451 406.26,873.55C403.123,868.279 401.91,861.299 401.605,855.02C400.927,841.057 401.356,827.005 401.356,812.23C418.876,823.998 436.966,832.121 456.726,836.007C465.025,837.656 473.565,838.335 482.018,839.256C486.847,839.754 491.722,839.891 496.596,840.221C499.826,840.408 501.27,842.679 502.633,845.293C505.62,851.174 508.651,857.061 512.117,862.659C516.33,869.509 522.502,873.022 530.801,873.22C549.858,873.656 568.892,873.282 587.532,869.268C594.997,867.644 601.825,863.119 609.158,859.871C609.158,863.474 609.22,867.885 609.136,872.276L609.166,872.278ZM392.44,751.743C392.004,752.689 390.729,753.896 389.783,753.896C371.934,754.02 354.085,753.958 336.214,753.958C336.027,753.522 335.778,753.105 335.579,752.664C344.932,744.541 354.306,736.395 363.659,728.25C374.702,718.678 385.723,709.084 396.767,699.533C402.605,694.504 408.183,689.104 414.528,684.867C418.349,682.34 423.376,681.089 428.03,680.455C433.475,679.733 439.118,680.268 444.892,680.268C444.892,681.5 445.265,683.454 444.768,685.184C444.395,686.79 443.449,688.85 442.135,689.509C422.244,699.652 408.741,715.679 399.63,735.702C397.19,740.992 394.956,746.416 392.429,751.707L392.44,751.743ZM458.359,683.582C459.305,668.675 460.774,653.702 463.12,638.926C465.143,625.973 474.537,618.157 485.47,612.141C486.852,611.351 488.414,610.89 490.324,610.125C490.959,610.984 491.643,611.992 492.434,613.087C491.513,613.809 490.741,614.294 490.15,614.91C487.517,617.611 484.617,620.138 482.422,623.187C478.514,628.608 480.816,633.857 484.351,638.336C487.494,642.375 491.618,645.142 497.151,645.164C504.835,645.186 512.541,645.786 520.204,645.6C527.976,645.413 533.267,640.702 535.529,633.371C537.832,625.841 537.639,618.332 535.778,610.67C538.939,608.784 540.912,610.546 542.716,612.78C551.805,624.285 557.25,636.909 557.052,652.035C556.865,664.703 558.328,677.393 558.458,690.082C558.582,701.279 558.085,712.498 557.537,723.695C557.475,725.363 556.043,727.672 554.575,728.481C542.192,735.309 529.305,740.447 514.815,740.71C500.764,740.959 486.823,740.274 473.188,736.932C467.767,735.638 462.694,732.781 458.852,731.2C458.852,724.767 458.914,719.652 458.83,714.58C458.706,704.24 457.753,693.899 458.394,683.58L458.359,683.582ZM499.033,586.321C498.473,577.166 500.682,573.697 507.75,572.84C516.027,571.763 522.196,575.516 523.601,583.224C526.389,598.571 529.246,613.917 528.387,629.681C528.014,635.892 526.321,637.607 520.022,637.607L504.917,637.607C497.935,637.607 492.051,634.558 491.744,630.362C491.184,622.48 491.868,616.135 500.746,614.027C500.124,604.806 499.626,595.563 499.035,586.32L499.033,586.321ZM457.671,568.033C455.3,565.046 452.798,562.102 450.865,558.856C446.104,550.886 448.936,543.093 452.601,535.847C456.024,529.041 460.153,522.586 464.457,516.307C470.232,507.81 478.991,503.046 488.607,501.487C497.258,500.081 506.478,500.168 515.195,501.443C529.158,503.466 537.062,513.891 543.209,525.462C549.028,536.439 550.301,548.602 551.508,560.787C552.273,568.251 545.689,579.514 537.215,582.281C533.375,566.561 523.252,557.757 510.584,559.448C495.721,561.471 487.137,569.174 484.524,585.135C473.854,581.998 464.633,576.814 457.673,568.032L457.671,568.033ZM474.732,445.591C472.342,446.954 470.407,446.425 468.343,444.801C462.108,439.928 455.807,435.185 449.418,430.267C467.662,420.519 485.402,410.925 503.251,401.484C507.925,399.001 512.406,401.982 512.67,407.191C513.23,419.2 508.102,427.587 497.477,433.01C489.771,436.987 482.284,441.352 474.732,445.59L474.732,445.591ZM430.405,402.887C410.097,403.964 390.425,400.491 371.698,392.283C363.202,388.549 357.998,381.657 353.124,374.104C346.889,364.466 343.223,354.213 342.718,341.501C344.691,343.43 346.079,344.594 347.218,345.982C357.186,357.925 371.061,362.47 385.529,364.753C397.978,366.688 410.711,366.969 423.336,367.479C429.304,367.728 435.323,366.689 441.515,366.228C443.426,376.723 438.378,389.083 450.516,398.26C443.03,400.059 436.795,402.585 430.406,402.89L430.405,402.887ZM343.354,294.653C344.586,286.574 347.966,278.78 350.577,270.92C356.502,253.115 369.809,242.862 386.802,237.22C404.19,231.445 421.293,231.14 439.099,238.166C451.701,243.17 460.527,250.987 467.86,261.504C472.845,268.727 472.341,277.004 472.472,285.259C472.596,294.085 467.842,299.486 460.968,303.591C457.981,305.39 454.801,306.927 451.549,308.178C443.799,311.252 441.055,317.07 441.209,325.04C441.396,334.503 441.253,343.965 441.253,353.801C436.641,354.299 432.142,355.008 427.619,355.12C419.628,355.307 411.635,355.493 403.644,355.12C390.406,354.498 377.298,352.133 365.531,346.009C354.751,340.389 347.265,330.333 343.467,319.268C340.922,311.891 342.085,302.736 343.343,294.656L343.354,294.653ZM486.485,280.605C486.796,276.809 487.518,275.004 491.8,275.184C497.071,275.371 502.426,274.997 507.717,274.549C510.966,274.3 512.304,275.171 512.111,278.656C511.862,282.913 512.049,287.218 512.049,291.522C512.071,297.316 516.001,302.565 521.599,303.553C525.638,304.231 529.81,304.543 533.916,304.455C540.414,304.268 546.891,297.012 546.957,289.636C546.957,286.033 545.793,282.457 545.488,278.834C545.364,277.471 546.235,276.065 546.633,274.664C547.398,275.741 548.562,276.749 548.873,277.938C549.638,280.9 549.794,284.018 550.584,286.961C551.773,291.33 554.934,293.767 559.256,294.843C573.088,298.353 580.487,293.132 583.714,276.071C593.286,277.938 603.627,277.957 611.926,282.064C621.937,287.024 629.226,296.071 630.96,308.234C632.802,321.275 634.825,334.272 636.91,348.038C625.164,347.976 614.231,347.204 608.346,358.532C604.108,366.677 606.765,377.457 615.24,386.876C611.662,391.948 605.887,391.774 600.794,392.384C591.046,393.523 591.441,393.218 590.431,383.229C589.529,374.118 587.973,365.006 586.019,356.027C583.231,343.447 573.856,336.487 562.659,332.228C548.169,326.695 533.196,326.39 518.003,329.353C502.196,332.402 491.877,341.582 486.761,356.49C483.668,365.403 482.766,374.8 483.052,384.263C483.176,388.476 483.052,392.979 478.136,394.428C473.132,395.878 468.124,396.183 463.646,392.212C457.125,386.418 454.293,379.654 454.491,370.74C454.864,355.679 454.18,340.618 453.744,325.557C453.682,322.508 454.821,320.945 457.279,319.825C459.252,318.904 461.162,317.802 463.204,316.95C479.362,310.21 485.247,296.795 486.498,280.615L486.485,280.605ZM677,383.716C669.931,389.647 662.949,395.462 655.638,401.587C645.824,394.715 636.251,387.712 626.284,381.213C622.55,378.755 619.215,376.272 617.502,372.102C615.66,367.578 614.801,364.132 620.819,358.995C624.64,355.746 630.457,354.471 634.168,356.755C648.109,365.383 661.985,374.055 675.882,382.705C676.131,382.829 676.255,383.078 677.002,383.713L677,383.716ZM575.659,513.509C574.738,516.079 570.699,517.548 568.04,519.459C567.729,519.646 567.119,519.397 566.721,519.503C557.873,522.534 553.285,518.364 548.827,510.897C540.836,497.395 527.575,491.182 512.536,488.437C510.096,488.001 507.576,487.672 505.093,487.603C499.119,487.479 496.245,485.232 496.004,479.414C495.631,470.127 495.693,460.796 495.568,451.488C495.506,447.275 498.182,445.23 501.449,443.496C510.758,438.511 518.288,431.531 520.462,420.993C521.887,413.923 521.601,406.349 520.96,399.104C520.462,393.223 514.768,390.036 508.797,391.2C506.077,391.698 503.464,392.799 500.74,393.266C499.072,393.515 496.39,394.361 496.483,391.2C496.732,381.188 496.172,371.067 497.802,361.275C499.713,349.902 509.153,344.743 519.318,342.372C532.799,339.229 546.41,339.211 559.715,344.195C566.631,346.784 570.276,351.967 572.822,358.575C577.346,370.189 574.621,382.242 575.436,394.076C575.623,396.733 575.458,399.391 575.458,402.067L576.292,402.067L576.292,468.173C576.292,479.085 576.336,490.018 576.27,500.973C576.27,505.211 577.017,509.755 575.635,513.509L575.659,513.509ZM969.506,479.481C947.31,479.605 925.113,479.605 902.895,479.437C900.592,479.415 897.935,478.578 896.089,477.221C890.998,473.512 885.99,469.515 881.379,465.212C871.433,455.903 859.842,451.491 846.207,451.863C837.799,452.112 829.346,451.841 820.915,451.739C808.906,451.615 796.941,451.117 784.975,451.428C774.81,451.677 764.491,452.654 755.885,458.651C740.56,469.321 725.543,480.43 710.483,491.496C701.13,498.411 692.129,505.854 682.622,512.529C679.722,514.595 675.662,515.429 672.018,515.803C668.135,516.176 666.112,513.083 667.581,509.458C668.658,506.801 669.909,503.95 671.888,501.905C681.723,491.718 692.328,482.299 703.854,474C721.879,461.047 739.86,447.984 758.104,435.338C765.13,430.465 772.967,427.851 782.035,427.895C828.03,428.268 874.092,428.082 920.131,428.082L926.062,428.082C921.538,423.601 917.939,419.981 914.185,416.512C913.438,415.852 912.057,415.653 910.955,415.653C891.701,415.715 872.468,415.902 853.236,416.089C849.944,416.133 846.672,416.4 842.346,416.587C847.679,411.646 851.918,407.344 856.595,403.546C859.122,401.505 862.196,399.439 865.246,398.978C869.372,398.356 873.742,399.414 878.002,399.476C884.151,399.6 890.275,399.498 897.389,399.498C893.039,395.198 889.551,391.396 885.686,388.059C884.062,386.696 881.709,385.557 879.649,385.489C871.526,385.178 863.359,385.053 855.257,385.511C851.921,385.698 848.1,386.743 845.553,388.76C838.044,394.734 830.953,401.208 823.993,407.838C822.107,409.68 820.433,410.321 817.956,410.296C803.729,410.234 789.524,410.42 775.298,410.234C765.352,410.047 756.329,413.464 748.469,418.687C737.799,425.713 728.007,434.077 718.084,442.223C703.682,453.991 689.477,466 675.294,478.031C669.5,482.929 662.867,487.362 658.432,493.377C650.528,504.135 648.311,516.254 655.445,528.681C656.497,530.523 657.841,532.235 659.023,533.996C653.465,536.809 648.287,539.504 643.04,542.119C631.272,547.981 619.504,553.843 607.67,559.573C606.55,560.133 604.751,560.195 603.606,559.697C595.483,556.293 587.162,554.407 578.292,554.973C574.626,555.222 570.871,555.284 567.227,554.911C566.045,554.787 564.327,553.218 564.041,551.967C562.921,547.598 562.305,543.031 561.471,538.553C560.569,533.68 561.782,532.208 566.717,532.01C576.838,531.512 584.72,527.137 588.628,517.673C591.018,511.854 591.964,505.422 593.526,499.407C601.364,496.202 609.816,493.588 617.413,489.374C623.605,485.951 628.896,480.746 634.384,476.114C642.507,469.264 650.389,462.151 658.556,455.323C674.671,441.798 691.027,428.538 707.098,414.926C721.303,402.895 735.003,390.315 749.339,378.503C753.465,375.142 758.889,372.311 764.049,371.499C773.138,370.136 782.513,370.248 791.777,370.205C815.752,370.081 839.727,370.183 863.701,370.183C864.734,370.183 865.767,369.934 867.522,369.747C863.701,365.926 860.606,362.523 857.181,359.582C855.644,358.288 853.385,357.236 851.449,357.186C824.971,357.062 798.472,356.875 771.973,357.186C762.049,357.31 752.411,359.358 744.507,366.188C735.901,373.609 727.229,380.964 718.601,388.34C705.801,399.273 692.957,410.163 680.18,421.097C668.302,431.283 656.578,441.668 644.525,451.636C632.955,461.23 621.253,470.649 609.156,479.562C603.449,483.775 596.773,486.873 589.331,485.58C589.393,484.155 589.767,482.966 589.58,481.827C588.678,475.218 591.049,470.63 596.232,465.975C611.206,452.605 625.498,438.378 640.032,424.503C644.183,420.508 648.178,416.358 652.502,412.603C662.426,404.041 672.547,395.698 682.536,387.202C689.452,381.271 696.06,375.017 703.152,369.331C713.23,361.251 723.46,353.392 733.889,345.773C742.759,339.275 752.089,335.038 763.901,335.476C788.468,336.335 813.08,335.725 837.625,335.725L842.498,335.725L842.498,245.38C841.795,245.256 841.403,245.131 840.961,245.131C771.979,245.087 703.018,245.007 634.037,245.255C626.704,245.277 619.744,247.869 616.166,255.661C614.28,259.787 611.71,263.609 609.118,267.341C608.259,268.573 606.218,269.998 605.035,269.781C597.768,268.399 590.589,266.551 583.124,264.821C583.124,257.181 583.062,249.496 583.186,241.791C583.208,240.497 584.02,239.046 584.879,237.995C588.196,233.844 592.014,230.091 595,225.722C601.718,216.084 610.939,212.022 622.377,212.286C639.37,212.659 656.363,213.518 673.356,213.493C697.309,213.431 721.24,212.528 745.192,212.304C775.072,212.117 804.997,212.282 834.878,212.282L839.838,212.282C839.203,210.415 838.936,208.946 838.257,207.695C828.992,191.58 815.753,181.327 796.543,181.217C758.627,181.03 720.755,181.155 682.839,181.217C679.964,181.217 677.966,180.339 675.945,178.298C649.424,151.644 622.814,125.079 596.205,98.514C595.172,97.437 594.033,96.448 592.253,94.848C592.253,110.128 592.377,124.355 592.129,138.538C592.085,141.544 591.096,144.949 589.428,147.429C585.781,152.762 581.612,157.792 577.287,162.644C575.221,164.903 574.387,167.056 574.412,170.087C574.91,201.241 575.333,232.373 575.688,263.527C575.75,268.972 575.812,274.46 575.377,279.883C574.941,285.061 572.234,287.523 567.671,287.809C559.856,288.245 557.901,287.249 556.387,281.201C555.709,278.369 555.205,275.407 555.248,272.484C555.31,258.323 555.746,244.141 555.87,229.958C555.994,208.64 555.848,187.322 555.994,166.004C555.994,163.477 556.367,160.496 557.73,158.474C561.595,152.636 565.875,146.991 570.354,141.547C573.976,137.135 577.116,132.633 577.094,126.661C577.032,112.017 577.032,97.351 576.721,82.729C576.659,80.619 575.601,78.142 574.176,76.58C569.191,71.159 564.033,65.822 558.522,60.86C549.454,52.692 538.938,47.116 525.678,44.613L525.678,98.205C525.678,100.116 525.802,102.045 525.656,103.98C525.345,108.48 524.206,112.477 520.055,115.287C515.574,118.386 511.866,122.774 507.124,125.299C499.615,129.338 498.518,135.311 498.825,142.995C499.074,148.266 500.474,152.106 504.202,155.795C514.037,165.609 523.808,175.467 533.051,185.829C536.194,189.339 539.506,194.369 539.594,198.76C540.216,227.016 539.967,255.294 539.843,283.572C539.821,286.646 539.165,290.005 537.802,292.749C536.308,295.823 529.042,297.099 524.475,295.406C520.262,293.85 518.656,290.29 518.656,285.987C518.656,263.352 518.718,240.694 518.594,218.059C518.532,210.528 517.561,203.305 511.678,197.399C502.04,187.783 492.863,177.75 483.576,167.826C479.736,163.7 476.77,159.352 476.814,153.116C477.001,120.864 476.876,88.591 476.876,56.317L476.876,51.836C471.978,55.788 467.589,58.664 463.923,62.286C425.216,100.839 386.62,139.501 348.046,178.163C345.918,180.316 343.833,181.237 340.735,181.212C303.302,181.15 265.847,181.15 228.414,181.19C225.514,181.19 222.62,181.626 219.72,182.049C198.863,184.881 180.773,205.87 181.036,227.737C181.285,253.183 181.098,278.673 181.098,304.096L181.098,309.056C191.131,309.056 200.593,309.18 210.034,309.034C216.972,308.91 223.207,310.615 228.081,315.62C236.16,323.831 243.867,332.438 252.012,340.561C261.936,350.484 271.552,360.781 282.375,369.673C295.856,380.782 310.499,390.486 324.44,401.025C329.139,404.579 333.178,408.951 338.052,413.407C336.515,413.718 336.229,413.843 335.986,413.843C293.328,414.154 250.735,414.465 208.121,414.764C206.54,414.786 204.742,414.826 203.447,415.554C197.102,419.201 190.735,422.865 184.609,426.883C176.135,432.416 167.902,438.299 159.515,443.986C154.816,447.147 149.811,448.747 143.883,448.616C123.026,448.305 102.169,448.492 81.312,448.554C79.775,448.554 77.821,448.616 76.812,449.519C72.947,452.88 69.369,456.61 64.825,461.045C69.829,461.356 73.607,461.767 77.361,461.767C100.151,461.829 122.939,461.954 145.751,461.767C152.447,461.745 158.616,461.891 165.115,456.956C178.441,446.747 193.261,438.426 207.575,429.513C209.573,428.281 212.143,427.316 214.403,427.36C231.572,427.422 248.741,428.038 265.909,428.063C318.623,428.187 371.292,428.187 424.005,428.041C429.519,428.041 433.885,428.875 438.342,432.827C451.888,444.858 465.829,456.494 480.056,467.713C486.708,472.984 484.842,479.305 484.207,485.738C484.145,486.659 483.485,487.954 482.757,488.308C478.544,490.262 474.305,493.337 469.958,493.554C452.701,494.432 435.401,494.214 418.123,494.805C413.119,494.992 409.604,493.069 405.938,490.081C400.804,485.93 395.18,483.034 388.001,483.055C276.843,483.179 165.686,483.117 54.507,483.117C53.325,483.117 52.024,482.806 50.997,483.179C49.833,483.615 48.364,484.411 47.923,485.463C40.085,504.673 40.744,523.642 49.572,542.436C54.513,552.909 62.789,560.549 70.671,568.628C72.887,570.912 75.083,571.92 78.377,571.92C156.756,571.858 235.134,571.858 313.513,571.858C314.372,571.858 315.224,571.88 316.058,571.982C316.182,571.795 316.369,571.671 316.494,571.546C316.867,571.733 317.241,571.919 317.633,572.106C317.135,572.084 316.581,572.062 316.077,572.044C307.932,580.935 299.874,589.915 291.554,598.587C290.042,600.124 287.272,601.176 285.077,601.176C246.612,601.363 208.125,601.238 169.639,601.363C166.347,601.363 163.932,600.598 161.405,598.245C157.914,594.928 153.875,592.14 149.879,589.419C144.745,585.971 140.087,581.933 132.93,582.306C121.272,582.928 109.57,582.555 97.89,582.555C93.826,582.577 89.788,582.577 85.573,582.577C91.653,592.04 99.163,597.199 110.426,595.201C114.16,594.541 118.132,594.89 121.952,595.157C129.9,595.792 137.781,597.086 144.193,602.315C148.058,605.452 151.196,609.516 155.017,612.787C156.71,614.212 159.255,615.444 161.45,615.444C203.164,615.568 244.9,615.382 286.636,615.693C291.864,615.755 295.461,614.355 298.909,610.994C319.349,591.125 339.745,571.169 360.361,551.431C372.612,539.685 385.301,528.4 397.684,516.742C403.304,511.471 409.825,507.192 417.268,506.621C429.124,505.7 441.133,506.372 453.822,506.372C452.571,508.569 451.364,510.959 449.889,513.178C443.193,523.321 438.099,534.123 436.123,546.154C435.563,549.689 434.455,550.566 431.032,550.087C422.338,548.836 414.324,550.398 407.826,556.915C405.256,559.529 402.754,562.205 400.054,564.665C384.751,578.365 369.405,591.977 354.08,605.655C348.809,610.372 343.585,615.227 338.251,619.882C329.535,627.391 320.182,634.262 312.147,642.429C303.607,651.123 293.595,654.548 282.003,654.351C261.739,653.978 241.518,653.231 221.298,652.882C206.347,652.633 191.374,652.758 176.445,652.758L155.808,652.758C161.845,660.157 168.124,666.787 174.974,672.781C179.673,676.907 182.132,681.321 181.209,687.688C180.711,691.092 181.147,694.626 181.147,698.226C208.941,698.226 236.034,698.288 263.104,698.102C265.674,698.102 268.568,696.783 270.656,695.202C288.373,681.59 306.091,667.956 323.457,653.971C337.333,642.774 350.791,631.094 364.293,619.502C376.39,609.095 388.18,598.316 400.321,587.975C407.061,582.225 414.131,576.888 421.222,571.619C425.722,568.24 431.189,568.899 436.151,569.752C438.124,570.125 439.53,573.679 441.198,575.789C442.667,577.631 444.117,579.523 445.679,581.278C454.307,590.85 464.516,598.007 477.843,601.762C461.047,610.587 452.836,624.639 449.807,641.961C448.338,650.48 447.504,659.086 446.316,668.022C440.192,668.022 434.285,667.96 428.401,668.044C418.17,668.231 409.323,671.579 401.66,678.692C391.824,687.803 381.461,696.388 371.252,705.125C358.738,715.861 345.785,726.18 333.643,737.355C319.811,750.001 305.672,762.076 289.734,772.088C282.95,776.283 276.1,778.28 268.262,778.168C244.573,777.857 220.884,777.795 197.216,777.67C191.945,777.648 186.678,777.67 180.706,777.67C181.142,787.22 181.079,795.761 182.088,804.192C184.571,825.378 206.26,843.359 228.413,843.118C265.868,842.682 303.345,843.056 340.778,842.931C343.852,842.887 345.956,843.79 348.089,845.962C382.448,880.453 416.917,914.878 451.299,949.347C452.376,950.442 452.811,952.204 453.558,953.629C454.056,953.131 454.566,952.639 455.052,952.16L455.052,923.86C462.868,925.839 470.64,927.812 477.71,929.592C477.71,936.771 477.897,943.841 477.648,950.889C477.399,957.056 476.484,963.206 476.266,969.375C476.244,970.651 477.648,972.468 478.899,973.128C487.461,977.895 496.682,980.571 506.979,981.317L506.979,931.545C520.218,930.686 532.974,929.852 545.905,928.975C545.245,943.399 544.542,958.328 543.864,973.762C546.851,971.963 549.372,970.625 551.768,969.02C555.807,966.363 558.201,963.288 557.96,957.713C557.524,947.856 558.271,937.932 558.707,928.03C558.751,926.953 559.541,925.329 560.418,924.981C563.754,923.618 567.312,922.635 571.176,921.403L571.176,950.603C572.887,948.979 574.033,947.902 575.128,946.807C608.85,913.128 642.529,879.406 676.318,845.793C677.899,844.256 680.575,843.117 682.729,843.117C719.306,842.993 755.86,842.744 792.415,843.117C808.793,843.304 822.076,837.715 832.483,825.312C838.96,817.628 842.735,808.626 842.758,798.615C842.945,760.151 842.882,721.664 842.78,683.177C842.78,680.32 843.589,678.304 845.637,676.239C880.347,641.66 914.992,607.015 949.593,572.327C955.611,566.29 961.536,560.098 967.245,553.753C972.473,547.959 975.544,540.976 978.178,532.984L972.932,532.984C953.26,532.984 933.589,533.006 913.873,532.984C902.918,532.984 892.84,530.943 885.727,521.37C883.904,518.912 881.557,516.696 879.119,514.85C869.437,507.627 859.36,500.997 850.051,493.356C845.091,489.273 840.018,489.249 834.441,489.603C831.653,489.79 828.89,490.238 826.099,490.225C811.148,490.101 796.196,489.727 781.267,489.565C779.356,489.543 777.141,490.063 775.535,491.102C753.273,505.658 731.165,520.5 708.836,534.946C704.007,538.089 698.43,540.261 693.029,542.389C687.652,544.561 678.429,538.151 680.449,530.819C681.239,528.031 682.932,524.981 685.173,523.179C696.348,514.068 707.611,504.913 719.378,496.592C731.717,487.81 744.736,479.994 757.338,471.629C764.759,466.731 772.552,463.638 781.642,463.725C802.192,463.912 822.764,463.787 843.335,463.787C844.959,463.787 846.609,463.911 848.189,464.16C857.893,465.697 865.182,471.998 872.625,477.42C884.744,486.29 895.963,496.301 907.731,505.632C909.486,507.057 912.143,508.047 914.427,508.072C935.284,508.259 956.163,508.196 977.02,508.196L982.665,508.196C979.964,499.216 977.568,491.225 975.178,483.277C974.344,480.445 972.521,479.63 969.577,479.674L969.506,479.481Z" style="fill:rgb(69,28,21);fill-rule:nonzero;"/>
    </g>
    <g transform="matrix(0.058594,0,0,0.058594,-0.000058,-0.000027)">
        <path d="M980.833,580.699C945.617,616.003 910.292,651.262 874.967,686.455C872.397,689.025 871.171,691.527 871.214,695.325C871.338,729.64 871.525,763.978 871.152,798.337C870.779,833.289 841.491,865.892 806.847,870.305C802.036,870.927 797.143,871.226 792.29,871.226C759.863,871.288 727.458,871.288 695.031,871.204C691.695,871.204 689.299,872.106 686.908,874.521C651.583,909.978 616.214,945.348 580.801,980.695C561.81,999.664 538.801,1009.631 511.973,1009.631C485.166,1009.587 462.135,999.664 443.123,980.695C407.732,945.348 372.362,909.978 337.059,874.521C334.663,872.125 332.292,871.204 328.914,871.204C295.916,871.328 262.918,871.328 229.919,871.266C192.398,871.142 162.211,846.764 154.263,810.166C153.143,804.988 152.838,799.606 152.769,794.315C152.582,778.485 152.707,762.634 152.707,746.805C152.707,729.636 152.645,712.467 152.831,695.277C152.875,691.742 151.866,689.284 149.34,686.802C113.883,651.499 78.492,616.13 43.145,580.716C24.198,561.703 14.34,538.672 14.362,511.822C14.424,485.52 23.912,462.731 42.486,444.047C78.053,408.239 113.795,372.606 149.582,336.973C151.822,334.714 152.812,332.517 152.812,329.267C152.688,296.093 152.688,262.963 152.75,229.812C152.812,189.766 181.643,157.536 221.381,152.948C224.916,152.575 228.494,152.699 232.029,152.699C264.61,152.655 297.169,152.721 329.706,152.575C332.034,152.575 334.909,151.368 336.556,149.743C372.035,114.461 407.338,79.048 442.773,43.701C477.439,9.122 532.656,5.456 571.604,35.161C575.357,38.061 578.827,41.31 582.164,44.667C617.16,79.575 652.134,114.506 687.042,149.545C689.282,151.804 691.498,152.775 694.748,152.775C727.746,152.651 760.744,152.651 793.764,152.731C831.57,152.793 861.824,177.079 869.749,213.919C871.068,219.912 871.261,226.258 871.286,232.427C871.41,264.679 871.41,296.974 871.286,329.225C871.264,332.455 872.164,334.714 874.472,336.975C910.016,372.388 945.518,407.845 980.953,443.369C1000.053,462.513 1009.889,485.698 1009.67,512.702C1009.483,539.201 999.615,561.947 980.887,580.696L980.833,580.699ZM991.096,433.337C957.11,399.307 923.102,365.277 889.007,331.335C886.505,328.808 885.491,326.331 885.541,322.795C885.728,306.373 885.603,289.973 885.603,273.529C885.603,258.709 885.852,243.912 885.541,229.114C885.354,222.22 884.819,215.151 883.238,208.498C873.249,166.805 837.77,138.747 794.782,138.44C763.43,138.253 732.035,138.378 700.64,138.484C697.391,138.506 695.176,137.494 692.912,135.21C672.604,114.726 652.186,94.33 631.768,73.934C616.246,58.478 601.25,42.429 585.004,27.785C559.822,5.106 529.7,-3.346 496.241,1.176C471.08,4.58 449.894,16.193 432.023,34.218C398.432,68.029 364.622,101.641 330.987,135.386C328.815,137.558 326.687,138.479 323.632,138.479C293.137,138.355 262.641,138.355 232.146,138.479C225.979,138.479 219.698,138.666 213.595,139.711C168.104,147.768 137.609,187.638 138.356,230.713C138.854,261.493 138.418,292.274 138.543,323.077C138.543,326.413 137.597,328.809 135.207,331.222C101.111,365.142 67.081,399.15 33.117,433.202C-11.056,477.506 -11.034,546.621 33.161,590.816C67.059,624.758 100.935,658.679 134.943,692.489C137.6,695.146 138.59,697.735 138.546,701.425C138.422,732.36 138.359,763.272 138.59,794.229C138.634,801.276 139.212,808.478 140.806,815.283C150.554,856.865 186.384,885.319 229.108,885.538C260.503,885.725 291.855,885.6 323.228,885.516C326.632,885.472 328.978,886.549 331.351,888.939C353.24,910.982 375.217,932.958 397.238,954.891C411.179,968.789 424.638,983.257 439.303,996.342C464.419,1018.823 494.366,1027.298 527.649,1022.863C552.853,1019.502 574.04,1007.934 591.932,989.909C625.633,956.011 659.487,922.267 693.43,888.566C695.079,886.917 697.954,885.709 700.258,885.709C731.038,885.522 761.819,885.647 792.644,885.522C798.525,885.522 804.521,885.398 810.295,884.34C854.49,876.436 885.556,839.311 885.644,794.413C885.706,763.457 885.706,732.544 885.582,701.61C885.582,697.77 886.659,695.067 889.422,692.323C923.101,658.82 956.626,625.163 990.304,591.638C1011.513,570.539 1023.149,545.138 1023.961,515.302C1024.839,483.467 1013.752,456.002 991.161,433.345L991.096,433.337Z" style="fill:rgb(69,28,21);fill-rule:nonzero;"/>
    </g>
</svg>
