<?xml version="1.0" encoding="UTF-8" standalone="no"?>
<!DOCTYPE svg PUBLIC "-//W3C//DTD SVG 1.1//EN" "http://www.w3.org/Graphics/SVG/1.1/DTD/svg11.dtd">
<svg width="100%" height="100%" viewBox="0 0 60 61" version="1.1" xmlns="http://www.w3.org/2000/svg" xmlns:xlink="http://www.w3.org/1999/xlink" xml:space="preserve" xmlns:serif="http://www.serif.com/" style="fill-rule:evenodd;clip-rule:evenodd;stroke-linejoin:round;stroke-miterlimit:2;">
    <g transform="matrix(0.058594,0,0,0.058594,0.000074,0.00002)">
        <path d="M824.836,756.156C818.206,762.939 811.269,769.503 801.237,770.776C797.615,771.212 793.883,771.212 790.195,771.212C776.87,771.212 763.457,772.133 750.241,770.901C729.496,768.922 708.817,765.699 688.906,759.222C669.237,752.746 649.567,746.204 630.271,738.741C611.195,731.387 596.838,718.369 586.608,700.39C578.244,685.682 569.068,671.347 559.343,657.495C554.489,650.602 547.225,645.641 539.125,642.524C537.762,642.026 536.225,641.846 534.8,641.864C520.18,642.051 505.515,641.864 490.939,642.941C486.042,643.314 481.016,646.432 476.67,649.219C471.25,652.71 466.462,657.166 461.084,661.447C454.169,654.356 443.083,650.142 431.822,646.322C428.001,645.003 425.522,645.7 423.283,649.023C413.119,664.082 399.838,675.936 384.647,685.639C378.259,689.721 371.3,693.125 364.209,695.891C349.106,701.815 334.003,707.789 318.504,712.421C308.757,715.364 298.33,715.912 288.188,717.648C281.273,718.812 274.402,720.367 267.422,721.295C258.97,722.39 250.474,722.988 241.957,723.865C231.727,724.917 221.498,726.124 211.268,727.095C207.621,727.406 203.936,727.117 199.809,727.117C199.809,715.789 199.436,704.572 199.996,693.376C200.432,685.583 210.402,677.702 219.336,677.79C243.001,678.039 265.875,672.787 288.661,667.406C303.545,663.896 318.78,660.886 332.917,655.354C356.187,646.266 377.261,633.226 394.713,614.786C404.043,604.93 413.68,595.205 424.151,586.555C430.671,581.154 438.573,576.698 446.608,573.976C458.989,569.825 472.029,567.522 484.783,564.427C487.353,563.805 489.021,564.489 490.383,567.146C493.501,573.051 498.286,577.441 504.498,579.966C516.55,584.926 528.668,589.757 540.742,594.63C555.889,600.71 570.136,608.329 581.244,620.6C591.956,632.388 602.538,644.309 612.613,656.646C622.953,669.335 635.685,678.708 649.91,686.567C675.419,700.66 703.013,709.024 730.958,716.378C736.03,717.741 741.407,718.176 746.676,718.463C753.174,718.836 755.149,716.907 755.764,710.275C756.946,697.148 757.127,684.042 753.262,670.234C756.865,670.999 759.936,671.97 763.119,672.319C777.541,673.9 791.986,675.194 806.409,676.862C816.683,678.069 826.056,684.041 826.034,696.905C825.972,714.489 826.594,732.05 826.712,749.613C826.712,751.828 826.276,754.685 824.845,756.133L824.836,756.156ZM454.797,675.85C447.113,688.605 439.737,701.578 431.242,713.784C423.054,725.529 411.2,733.168 398.16,738.942C367.119,752.662 334.762,762.036 301.482,768.424C279.727,772.593 257.752,772.22 235.756,772.089C227.304,772.027 219.16,771.386 212.135,766.252C208.47,763.595 204.759,760.72 201.993,757.164C200.325,755.036 200.195,751.476 199.883,748.537C199.51,745.637 199.821,742.632 199.821,739.141C201.14,739.079 202.018,739.017 202.87,738.954C223.813,738.052 244.821,737.859 265.698,736.079C280.209,734.828 294.566,731.512 308.988,729.011C338.888,723.809 365.845,711.01 392.188,696.697C405.623,689.409 416.445,679.113 425.139,666.557C426.695,664.273 428.213,661.971 429.551,659.554C430.932,656.984 432.6,656.741 434.884,658.303C441.316,662.696 447.792,666.93 454.092,671.518C454.951,672.153 455.411,674.835 454.82,675.843L454.797,675.85ZM210.775,610.776C212.225,600.304 213.961,589.833 215.89,579.406C216.637,575.299 218.105,571.262 219.4,567.223C223.439,554.491 234.832,546.061 248.53,545.051C258.782,544.304 269.011,541.647 278.912,538.663C285.234,536.753 286.924,530.321 287.671,524.175C288.107,520.84 288.349,517.458 288.486,514.077C288.673,509.578 287.627,508.943 283.327,510.281C273.031,513.442 262.757,516.669 252.374,519.589C246.313,521.3 238.039,516.359 235.251,510.413C230.491,500.293 230.771,489.998 233.054,479.416C237.136,460.537 240.803,441.592 245.216,422.823C247.431,413.405 253.383,405.568 262.032,401.683C279.572,393.736 297.683,387.041 316.518,379.489C315.398,384.517 314.539,388.753 313.469,392.924C308.659,411.562 309.959,430.682 308.684,449.605C307.676,464.577 315.489,472.151 326.773,478.407C328.154,479.172 329.629,479.813 332.131,481.064C326.425,485.675 321.66,490.613 315.93,493.797C310.093,497.089 306.315,500.58 306.425,507.715C306.549,513.135 305.722,518.581 305.479,524.047C305.355,527.382 307.564,528.789 310.507,527.364C326.972,519.176 342.492,509.649 354.368,495.226C356.739,492.395 358.823,489.321 361.02,486.357L362.271,488.137C364.729,494.415 366.838,500.913 369.801,506.972C372.327,512.068 375.489,517.004 379.087,521.395C383.63,526.927 387.714,527.499 393.641,523.523C407.164,514.501 421.674,507.476 436.712,501.483C451.201,495.69 466.15,492 483.229,492.021L483.229,553.356C474.426,555.615 464.306,558.253 453.835,560.951C453.835,556.234 453.648,551.446 453.897,546.616C454.084,543.013 452.248,542.291 449.242,542.665C448.806,542.727 448.34,542.727 447.948,542.914C433.459,549.324 418.992,555.998 406.919,566.337C395.482,576.084 385.055,587.104 374.364,597.729C355.354,616.652 332.743,629.801 307.212,636.958C285.172,643.125 262.561,647.122 240.147,651.754C233.627,653.073 226.91,653.639 220.588,649.781C214.046,645.786 210.292,639.354 209.194,632.702C208.03,625.677 209.816,618.082 210.775,610.794L210.775,610.776ZM271.495,334.038C274.301,324.993 281.571,320.23 288.991,316.257C309.495,305.193 329.91,293.712 351.248,284.514C375.549,274.065 400.904,266.074 425.623,256.613C436.38,252.531 447.027,247.393 453.678,237.492C457.76,231.412 460.835,224.409 463.118,217.427C466.671,206.341 471.569,195.519 471.942,183.621C472.191,176.947 472.378,170.317 472.44,163.688C472.502,155.193 476.373,151.109 486.138,150.231C485.478,161.098 484.819,171.525 484.271,181.974C484.022,186.846 483.835,191.721 484.022,196.594C484.582,213.014 480.332,228.118 472.541,242.518C464.265,257.709 459.15,273.976 458.118,291.384C457.682,298.584 457.284,305.785 456.842,313.271C455.834,313.333 454.845,313.52 453.836,313.458C432.674,312.898 412.039,316.401 391.711,321.866C377.223,325.73 362.47,328.891 348.509,334.225C335.513,339.185 323.571,346.848 310.948,352.841C300.653,357.713 290.093,362.061 279.534,366.342C273.189,368.912 267.087,363.399 266.341,355.322C265.663,347.529 269.328,341.009 271.475,334.028L271.495,334.038ZM472.757,339.316C478.619,339.192 484.479,339.254 490.341,339.316C496.551,339.36 498.727,341.618 499.122,347.768C499.62,355.122 500.416,362.454 500.815,369.808C501.064,374.463 498.488,377.162 493.79,377.425C486.436,377.798 479.016,377.861 471.706,378.414C463.364,379.049 455.066,380.038 446.768,381.115C443.408,381.488 438.382,389.238 437.767,394.176C436.69,403.527 435.552,412.835 434.519,421.55C421.962,425.763 408.922,429.19 396.761,434.524C380.406,441.68 364.952,450.702 351.364,462.535C348.134,465.366 344.866,468.154 341.375,470.613C340.143,471.472 337.71,472.063 336.503,471.447C328.995,467.651 320.544,464.554 319.336,454.346C319.149,452.722 318.776,451.141 318.838,449.561C319.398,435.709 319.274,421.813 320.811,408.071C322.062,397.117 325.31,386.36 327.858,375.559C328.107,374.464 329.196,373.232 330.229,372.703C342.896,366.359 355.255,359.114 368.514,354.154C380.412,349.655 393.386,348.031 405.723,344.539C418.74,340.83 431.912,339.779 445.347,340.084C454.457,340.271 463.633,339.524 472.744,339.319L472.757,339.316ZM482.159,410.334C492.586,410.707 503.036,410.969 513.441,411.236C528.237,411.547 543.011,411.858 557.785,412.113C558.507,412.157 559.191,412.237 560.156,412.3C560.592,430.85 564.107,449.158 560.218,467.466C559.496,470.801 557.76,474.052 555.893,476.949C555.016,478.268 552.645,479.345 550.977,479.345C531.329,479.283 511.661,478.312 492.013,478.909C472.695,479.531 453.377,481.211 435.025,488.437C420.141,494.255 406.553,502.157 394.084,512.146C392.329,513.552 390.108,514.361 387.936,515.55C380.384,504.464 375.16,492.895 372.35,479.394C374.372,477.925 377.247,475.704 380.275,473.688C398.759,461.548 418.296,451.736 440.117,447.279C444.971,446.271 449.908,445.568 454.847,445.064C460.18,444.504 460.752,444.012 460.927,438.676C461.051,433.517 461.549,428.381 461.425,423.221C461.403,422.213 459.384,420.502 458.177,420.408C453.964,420.097 449.725,420.284 444.807,420.284C445.18,414.354 445.535,407.969 445.946,401.559C446.07,398.597 446.568,395.654 446.506,392.712C446.484,389.881 447.975,388.499 450.389,388.257C454.602,387.821 458.841,387.759 463.209,387.535C463.458,390.982 463.147,394.471 463.937,397.677C466.196,406.458 471.291,409.926 482.135,410.365L482.159,410.334ZM572.029,565.151C572.091,566.644 573.566,568.573 574.929,569.407C580.2,572.612 585.971,575.007 591.02,578.495C598.001,583.324 604.916,588.418 611.15,594.169C622.697,604.772 633.432,616.253 645.023,626.79C656.636,637.305 670.751,644.067 684.625,651.092C700.167,659.038 717.071,662.485 733.886,666.063C740.955,667.575 742.162,667.861 742.25,675.942C742.312,684.745 741.217,693.526 740.669,702.329C740.482,704.961 739.462,705.465 736.892,704.719C721.766,700.332 706.4,696.707 691.516,691.723C678.257,687.243 664.998,682.261 652.638,675.83C641.926,670.254 633.298,661.363 625.396,652.143C615.649,640.706 606.144,629.115 596.068,617.985C582.216,602.706 564.566,593.31 545.424,586.286C534.733,582.353 524.064,578.383 513.681,573.773C500.444,567.893 494.714,556.716 494.626,542.732C494.564,529.429 495.124,516.126 495.572,502.823C495.696,499.313 496.381,495.821 496.866,491.606L513.023,491.606C513.396,501.594 514.012,511.605 514.056,521.614C514.118,529.781 517.348,535.839 525.142,538.232C532.803,540.578 540.794,541.897 548.653,543.59C556.314,545.239 563.998,546.776 571.9,548.419C571.9,554.629 571.651,559.922 572.024,565.147L572.029,565.151ZM564.1,488.181C568.163,482.867 569.607,476.591 570.074,470.115C570.709,461.619 570.995,453.08 571.48,443.816C577.454,444.936 583.423,445.926 589.35,447.238C611.434,452.179 631.279,462.451 649.28,475.622C661.815,484.776 672.396,496.543 684.053,506.926C695.71,517.309 709.518,524.356 723.853,530.042C736.058,534.871 748.747,538.428 761.369,542.094C766.266,543.5 771.467,544.222 776.582,544.378C794.802,544.876 804.527,556.474 807.996,571.665C811.157,585.67 813.484,599.917 815.723,614.121C816.669,620.07 818.007,626.546 816.538,632.078C814.715,638.905 811.423,645.557 804.07,649.42C795.882,653.745 787.869,651.417 780.142,649.856C759.243,645.73 738.366,641.448 717.863,635.807C696.218,629.883 676.636,619.276 659.799,604.217C649.986,595.48 640.547,586.282 631.458,576.777C616.991,561.542 599.101,551.531 580.266,543.167C573.855,540.336 566.436,539.85 559.499,538.207C551.816,536.384 544.176,534.386 536.515,532.607C526.527,530.305 523.212,526.988 522.334,515.923C521.712,507.888 522.21,499.744 522.21,491.929C531.43,491.929 540.013,491.991 548.531,491.867C552.482,491.823 556.5,491.494 560.407,490.834C561.788,490.585 563.195,489.341 564.116,488.158L564.1,488.181ZM568.265,386.19C574.475,386.19 580.799,385.754 587.012,386.252C601.017,387.459 614.343,391.585 627.317,396.57C638.644,400.938 649.928,405.526 660.86,410.707C675.327,417.556 688.147,426.952 700.418,437.138C701.65,438.171 702.901,439.204 704.282,440.081C711.065,444.294 710.912,451.299 711.284,457.928C711.657,465.172 711.906,472.439 711.595,479.683C711.471,483.79 710.145,487.85 709.355,491.932C708.695,492.181 708.017,492.368 707.314,492.554C701.738,487.134 696.009,481.885 690.653,476.287C676.405,461.338 659.634,449.857 641.743,439.803C623.171,429.331 603.063,423.58 582.186,420.177C578.72,419.617 575.183,419.43 571.012,418.995C571.012,416.885 571.323,414.714 570.95,412.629C570.452,409.903 569.413,407.296 568.735,404.572C568.362,403.296 568.299,401.958 568.299,400.664C568.277,396.078 568.299,391.51 568.299,386.176L568.265,386.19ZM962.541,464.81C923.817,425.866 884.939,387.076 846.018,348.309C843.778,346.05 842.77,343.897 842.77,340.648C842.894,302.144 842.832,263.661 842.832,225.2C842.832,224.018 842.956,222.786 842.77,221.641C838.644,198.701 819.303,181.073 796.077,181.117C758.626,181.241 721.154,181.117 683.725,181.179C680.408,181.201 678.037,180.345 675.625,177.906C644.716,146.843 613.72,115.89 582.767,84.85C581.672,83.755 581.099,82.087 580.284,80.681C579.649,81.054 579.033,81.428 578.442,81.801C578.318,83.929 577.944,86.057 578.006,88.167C578.255,95.697 578.504,103.227 578.971,110.734C579.282,115.718 579.83,120.722 580.352,125.683C581.273,134.728 582.878,143.794 583.14,152.882C583.638,170.62 586.892,187.238 597.914,201.858C604.741,210.902 611.7,219.507 622.83,223.657C628.754,225.872 634.399,228.816 640.173,231.384C654.31,237.684 668.162,244.687 682.695,249.89C691.498,253.051 700.52,255.49 708.687,260.185C715.975,264.354 723.109,268.812 727.149,276.737C729.806,281.964 732.88,286.945 735.711,292.082C736.414,293.358 736.719,294.826 737.447,296.737C735.997,296.488 735.406,296.488 734.902,296.301C716.901,288.529 699.12,280.342 680.899,273.119C668.342,268.135 655.171,264.536 642.351,260.145C629.136,255.578 616.162,250.332 602.793,246.359C596.558,244.492 591.048,241.947 586.328,237.709C578.271,230.53 573.508,221.618 571.73,210.796C569.228,195.758 565.232,180.962 563.344,165.881C561.832,153.764 562.423,141.382 562.155,129.133C561.782,110.342 561.782,91.573 561.166,72.804C560.793,61.696 556.667,56.449 548.28,53.991C549.002,63.584 550.06,73.221 550.433,82.924C551.242,105.513 552.057,128.102 552.256,150.712C552.443,173.85 554.888,196.549 562.113,218.611C564.285,225.262 566.133,232.134 571.421,237.38C578.27,244.185 585.888,250.2 594.8,253.779C607.379,258.851 620.353,262.955 633.195,267.389C646.345,271.913 659.736,275.907 672.621,281.021C688.142,287.213 703.311,294.214 718.523,301.108C727.326,305.084 735.975,309.384 744.536,313.818C746.378,314.783 748.183,316.693 748.973,318.56C750.84,322.866 751.979,327.473 753.603,331.885C756.279,339.173 760.035,346.11 759.334,354.364C758.569,363.936 752.507,368.15 743.814,364.374C729.369,358.052 714.969,351.642 700.722,344.946C690.756,340.248 681.031,334.98 670.098,329.404C669.787,332.235 669.221,334.015 669.476,335.66C670.378,341.279 671.866,346.855 672.594,352.519C673.403,359.061 677.728,362.442 682.846,365.339C706.73,378.994 732.722,387.731 758.099,397.917C769.47,402.46 777.549,410.451 780.49,422.218C784.728,439.253 787.932,456.529 791.62,473.652C794.209,485.682 796.405,497.602 790.5,509.434C788.11,514.151 779.304,520.586 775.068,519.378C756.694,514.176 738.166,509.39 721.329,499.907C717.95,497.997 717.794,495.931 719.636,493.211C722.337,489.235 723.283,484.913 722.884,480.215C721.832,467.812 720.227,455.409 720.053,442.962C719.991,437.648 717.421,434.927 714.173,432.381C704.185,424.675 694.592,416.224 683.703,410.033C661.729,397.476 638.7,387.071 613.851,381.188C599.428,377.741 585.181,373.527 570.122,374.712C569.419,374.774 568.697,374.588 568.012,374.525C567.135,362.012 566.301,349.785 565.423,336.701C576.509,337.379 586.959,337.012 597.034,338.854C613.805,341.841 630.38,346.164 646.997,350.05C651.782,351.127 653.101,350.299 652.66,345.283C652.224,340.149 651.098,335.075 650.638,329.961C650.265,325.462 647.937,323.595 643.57,323.155C640.428,322.844 637.314,321.861 634.24,321.027C612.288,315.078 589.984,311.786 567.198,312.598C565.331,312.66 563.446,312.598 561.778,312.598C560.658,298.702 560.023,285.289 558.399,272.008C556.115,253.612 550.474,236.006 544.24,218.598C540.089,206.963 537.083,195.131 537.149,182.531C537.398,140.514 537.273,98.453 537.211,56.415C537.211,46.295 537.211,46.295 525.818,44.934L525.818,78.323C525.756,109.737 526.005,141.173 525.507,172.587C525.258,189.029 530.423,204.023 535.824,219.017C543.156,239.279 548.951,259.892 551.235,281.296C552.529,293.479 552.33,305.795 553.208,318.022C554.11,330.14 555.778,342.214 556.612,354.375C557.514,367.634 557.906,380.938 558.454,394.241C558.703,399.599 557.048,401.463 551.692,402.253C550.51,402.44 549.321,402.275 548.133,402.297C537.64,402.546 527.124,403.112 516.631,403C506.051,402.876 495.403,402.627 484.866,401.55C476.722,400.697 473.276,394.723 475.734,385.547C481.901,385.236 488.115,384.912 494.306,384.601C500.541,384.29 507.082,379.05 506.906,373.8C506.595,363.834 506.246,353.823 505.151,343.901C504.118,334.461 502.32,333.188 492.726,332.156C485.745,331.366 478.764,330.687 471.717,329.959C471.655,329.461 471.468,329.038 471.468,328.64C472.028,310.595 472.302,292.572 473.397,274.571C473.77,267.831 475.525,261.224 479.172,254.989C484.219,246.428 489.204,237.471 492.058,228.053C494.647,219.448 494.759,210.008 495.306,200.92C496.208,185.29 496.731,169.66 497.129,154.008C497.253,148.277 496.451,142.549 496.407,136.797C496.345,106.371 496.385,75.967 496.385,45.519C489.426,45.706 488.284,46.708 488.175,52.281C487.802,68.416 487.41,84.529 487.186,100.664C487.062,112.496 487.164,124.307 487.164,135.744C480.972,138.488 474.783,140.747 469.097,143.954C466.421,145.51 463.826,148.54 462.819,151.462C461.369,155.7 460.934,160.441 460.822,164.963C460.386,180.922 457.773,196.399 452.831,211.633C448.705,224.388 440.977,234.2 430.023,241.51C416.896,250.247 401.639,254.045 387.04,259.226C355.714,270.421 324.41,281.661 295.455,298.389C292.008,300.362 288.606,302.409 285.181,304.406C286.17,301.002 287.552,298.084 289.244,295.362C291.77,291.211 295.501,287.525 296.95,283.047C300.684,271.566 309.616,265.836 319.1,260.216C328.452,254.665 339.275,253.257 349.065,249.152C367.395,241.469 385.199,232.49 403.485,224.653C413.144,220.527 420.652,214.138 426.228,205.642C431.1,198.134 437.248,190.517 439.048,182.153C442.651,165.447 443.902,148.171 445.678,131.092C446.929,119.106 447.607,107.032 448.267,94.98C448.516,89.952 448.08,84.882 447.956,79.833C447.141,79.397 446.351,78.956 445.542,78.514C444.777,79.964 444.291,81.65 443.146,82.77C411.403,114.645 379.55,146.431 347.785,178.307C345.744,180.373 343.746,181.225 340.87,181.207C302.541,181.145 264.19,181.145 225.861,181.145C224.679,181.145 223.471,181.021 222.308,181.207C198.49,184.785 180.577,205.333 180.862,229.393C181.298,266.515 180.924,303.702 181.049,340.867C181.049,343.941 180.103,346.026 177.975,348.133C141.403,384.617 104.852,421.146 68.367,457.719C64.528,461.54 60.75,465.491 57.281,469.683C43.803,486.059 40.027,505.026 43.692,525.463C46.324,540.237 54.076,552.289 64.722,562.848C102.656,600.497 140.326,638.364 178.172,676.101C180.213,678.142 181.047,680.164 181.028,683.06C180.966,721.235 180.966,759.432 180.966,797.629C180.966,798.948 180.842,800.305 181.028,801.605C184.675,825.511 205.264,843.292 229.169,843.007C266.334,842.571 303.478,842.945 340.621,842.82C343.72,842.82 345.805,843.697 347.953,845.869C386.721,884.746 425.555,923.602 464.432,962.392C466.89,964.85 469.678,967.022 472.533,969C487.263,979.274 503.442,983.049 521.355,980.656C536.019,978.727 548.73,972.775 559.07,962.524C598.167,923.756 637.023,884.725 675.9,845.716C677.941,843.675 679.939,842.816 682.815,842.841C721.166,842.903 759.495,842.903 797.824,842.903C799.293,842.903 800.811,842.925 802.236,842.654C813.849,840.632 823.53,835.3 831.323,826.321C838.238,818.375 842.541,809.22 842.628,798.727C842.877,760.244 842.752,721.762 842.65,683.279C842.628,680.23 843.484,678.12 845.656,675.947C884.534,637.179 923.39,598.367 962.157,559.468C964.64,557.029 966.83,554.222 968.831,551.367C979.302,536.373 983.121,519.866 980.444,501.711C978.316,487.42 972.519,474.951 962.399,464.809L962.541,464.81Z" style="fill:rgb(69,28,21);fill-rule:nonzero;"/>
    </g>
    <g transform="matrix(0.058594,0,0,0.058594,0.000074,0.00002)">
        <path d="M980.917,580.676C945.617,616.107 910.187,651.472 874.733,686.75C872.231,689.252 871.223,691.71 871.223,695.246C871.347,729.47 871.472,763.649 871.161,797.829C870.788,833.501 841.855,865.837 806.533,870.425C801.86,871.047 797.116,871.302 792.396,871.302C759.688,871.364 726.978,871.302 694.248,871.426C691.946,871.47 689.064,872.677 687.42,874.301C651.835,909.644 616.405,945.185 580.885,980.638C562.511,999.056 540.273,1009.023 514.326,1009.637C486.622,1010.259 462.87,1000.395 443.222,980.814C407.791,945.47 372.426,910.084 337.127,874.674C334.756,872.303 332.448,871.227 329.048,871.227C294.868,871.351 260.645,871.476 226.465,871.227C190.88,870.978 158.281,842.03 153.605,806.841C153.045,802.473 152.746,798.017 152.703,793.582C152.579,778.216 152.681,762.805 152.681,747.395C152.681,729.767 152.619,712.161 152.743,694.555C152.765,691.462 151.822,689.353 149.669,687.201C114.106,651.814 78.631,616.317 43.178,580.82C24.431,562.073 14.53,539.374 14.311,512.856C14.124,486.03 23.707,462.871 42.674,443.794C78.149,408.143 113.755,372.581 149.428,337.084C151.842,334.694 152.745,332.274 152.745,328.94C152.621,296.077 153.118,263.237 152.558,230.374C151.936,193.626 179.055,157.865 221.203,152.992C224.713,152.556 228.294,152.743 231.85,152.743C264.12,152.721 296.368,152.681 328.66,152.805C332.195,152.827 334.677,151.816 337.155,149.339C371.511,114.808 406.634,81.045 440.265,45.812C478.748,5.507 545.11,5.397 583.811,45.936C617.398,81.148 652.522,114.933 686.877,149.463C689.273,151.859 691.687,152.78 695.022,152.736C728.016,152.674 761.054,152.612 794.049,152.714C831.543,152.838 861.75,177.147 869.675,213.807C870.969,219.799 871.212,226.122 871.231,232.291C871.355,264.583 871.355,296.831 871.209,329.101C871.209,332.505 872.261,334.851 874.631,337.179C910.084,372.5 945.472,407.844 980.815,443.274C999.079,461.561 1008.98,483.666 1009.594,509.482C1010.272,537.164 1000.462,560.982 980.902,580.608L980.917,580.676ZM991.177,433.462C957.304,399.524 923.41,365.585 889.384,331.778C886.484,328.922 885.457,326.115 885.457,322.097C885.644,291.759 885.581,261.399 885.519,231.061C885.519,227.657 885.581,224.234 885.332,220.853C881.094,174.555 842.371,138.817 795.767,138.465C764.243,138.216 732.697,138.341 701.174,138.465C697.422,138.487 694.917,137.301 692.327,134.713C659.245,101.455 626.031,68.285 592.839,35.137C590.12,32.393 587.375,29.673 584.475,27.19C558.966,5.435 529.441,-3.302 496.314,1.111C471.311,4.446 450.17,15.841 432.345,33.754C398.648,67.649 364.754,101.368 331.013,135.24C328.729,137.524 326.514,138.47 323.241,138.47C292.75,138.346 262.258,138.346 231.766,138.448C225.749,138.47 219.604,138.572 213.655,139.68C169.113,147.758 138.402,184.748 138.337,230.057C138.315,261.12 138.293,292.226 138.399,323.311C138.421,326.541 137.478,328.756 135.194,331.038C100.904,365.196 66.659,399.442 32.479,433.709C11.712,454.542 0.714,479.831 0.034,509.159C-0.713,540.858 10.417,568.145 32.853,590.69C66.55,624.409 100.203,658.15 134.053,691.737C137.283,694.917 138.508,698.081 138.421,702.538C138.172,718.563 138.359,734.545 138.359,750.504C138.359,765.168 138.235,779.81 138.421,794.474C138.545,800.796 139.056,807.185 140.244,813.397C147.795,853.613 185.312,885.159 226.099,885.488C258.216,885.737 290.332,885.675 322.47,885.51C326.353,885.488 329.011,886.717 331.69,889.443C364.816,922.701 398.008,955.849 431.2,989.019C433.814,991.633 436.427,994.265 439.235,996.658C464.832,1018.567 494.489,1027.37 527.791,1022.848C552.97,1019.426 574.11,1007.788 592.001,989.766C625.566,955.959 659.373,922.35 693.048,888.566C695.176,886.413 697.329,885.517 700.402,885.536C731.025,885.598 761.671,885.66 792.295,885.536C798.356,885.514 804.5,885.349 810.406,884.26C855.123,875.874 885.505,839.148 885.527,793.729C885.549,762.908 885.589,732.13 885.465,701.353C885.465,697.644 886.542,695.074 889.155,692.44C922.852,658.962 956.395,625.288 990.07,591.788C1011.386,570.582 1023.108,545.052 1023.877,515.043C1024.667,483.388 1013.647,456.013 991.19,433.468L991.177,433.462Z" style="fill:rgb(69,28,21);fill-rule:nonzero;"/>
    </g>
</svg>
