<?xml version="1.0" encoding="UTF-8" standalone="no"?>
<!DOCTYPE svg PUBLIC "-//W3C//DTD SVG 1.1//EN" "http://www.w3.org/Graphics/SVG/1.1/DTD/svg11.dtd">
<svg width="100%" height="100%" viewBox="0 0 61 60" version="1.1" xmlns="http://www.w3.org/2000/svg" xmlns:xlink="http://www.w3.org/1999/xlink" xml:space="preserve" xmlns:serif="http://www.serif.com/" style="fill-rule:evenodd;clip-rule:evenodd;stroke-linejoin:round;stroke-miterlimit:2;">
    <g transform="matrix(0.058594,0,0,0.058594,0.000044,0.000079)">
        <path d="M981.097,580.557C945.904,615.904 910.6,651.12 875.253,686.313C872.527,688.989 871.301,691.646 871.326,695.556C871.45,729.739 871.575,763.923 871.282,798.129C870.909,833.41 841.753,865.837 806.735,870.338C801.924,870.973 797.053,871.24 792.179,871.259C759.927,871.321 727.632,871.321 695.38,871.215C691.802,871.215 689.343,872.223 686.884,874.681C651.668,910.029 616.365,945.288 581.106,980.547C562.598,999.055 540.226,1009.11 514.1,1009.615C486.613,1010.113 462.924,1000.328 443.428,980.876C407.905,945.463 372.426,909.94 337.035,874.396C334.751,872.093 332.492,871.235 329.285,871.235C295.255,871.297 261.181,871.422 227.152,871.213C190.883,870.964 158.631,842.409 153.735,806.468C153.113,802.124 152.858,797.643 152.858,793.23C152.796,760.649 152.734,728.112 152.88,695.553C152.88,691.887 151.934,689.274 149.277,686.639C113.908,651.467 78.626,616.186 43.367,580.905C24.529,562.024 14.584,539.191 14.452,512.538C14.328,485.885 23.87,462.833 42.707,443.908C78.186,408.209 113.819,372.665 149.473,337.164C151.844,334.793 152.877,332.465 152.877,329.084C152.753,295.01 152.628,260.981 152.877,226.929C153.126,190.704 181.792,158.474 217.732,153.644C222.119,153.022 226.557,152.81 230.97,152.785C246.382,152.661 261.794,152.723 277.163,152.723C294.639,152.723 312.093,152.679 329.547,152.785C332.646,152.829 334.775,151.864 336.902,149.711C371.789,114.671 406.785,79.741 441.736,44.811C481.387,5.139 542.75,5.139 582.422,44.789C617.286,79.631 652.172,114.451 686.927,149.381C689.298,151.752 691.626,152.785 695.029,152.785C729.212,152.661 763.418,152.536 797.601,152.785C833.19,153.034 865.683,181.875 870.425,217.179C871.103,222.295 871.371,227.476 871.371,232.657C871.433,264.93 871.433,297.182 871.371,329.455C871.327,332.529 872.23,334.658 874.358,336.81C909.925,372.223 945.426,407.702 980.861,443.203C999.127,461.469 1009.051,483.577 1009.71,509.396C1010.413,537.059 1000.664,560.902 981.103,580.529L981.097,580.557ZM991.179,433.345C957.194,399.293 923.185,365.285 889.068,331.343C886.566,328.816 885.558,326.339 885.577,322.824C885.826,306.38 885.639,289.958 885.639,273.514C885.639,258.716 885.888,243.919 885.515,229.121C885.391,222.227 884.837,215.18 883.231,208.505C873.264,166.813 837.763,138.733 794.82,138.448C763.424,138.261 732.051,138.386 700.678,138.47C697.429,138.47 695.214,137.505 692.95,135.221C672.62,114.737 652.18,94.341 631.762,73.945C616.24,58.489 601.244,42.44 584.998,27.796C559.816,5.117 529.694,-3.336 496.235,1.165C471.075,4.569 449.911,16.204 432.017,34.229C398.426,68.039 364.616,101.608 330.981,135.397C328.853,137.55 326.724,138.471 323.626,138.471C293.131,138.347 262.635,138.347 232.184,138.449C225.973,138.471 219.692,138.698 213.632,139.725C168.098,147.782 137.625,187.652 138.371,230.684C138.869,261.464 138.415,292.289 138.558,323.047C138.558,326.408 137.637,328.797 135.197,331.192C101.123,365.112 67.093,399.142 33.129,433.194C-11.066,477.477 -11.022,546.612 33.129,590.807C67.137,624.837 101.123,658.867 135.241,692.809C137.637,695.199 138.558,697.595 138.558,700.954C138.434,732.042 138.309,763.108 138.58,794.218C138.642,801.397 139.258,808.752 140.951,815.712C150.984,857.382 186.551,885.352 229.538,885.55C260.89,885.674 292.285,885.612 323.681,885.528C326.73,885.484 328.859,886.449 330.992,888.602C352.925,910.645 374.902,932.621 396.922,954.576C410.929,968.584 424.519,983.14 439.273,996.334C464.389,1018.794 494.336,1027.312 527.641,1022.855C552.823,1019.519 574.01,1007.948 591.924,989.945C625.515,956.135 659.325,922.522 692.96,888.756C695.219,886.497 697.441,885.482 700.688,885.482C731.336,885.606 761.964,885.606 792.613,885.526C798.494,885.482 804.49,885.339 810.264,884.344C854.437,876.484 885.547,839.315 885.635,794.417C885.697,763.483 885.697,732.527 885.573,701.614C885.573,697.774 886.65,695.071 889.394,692.327C923.094,658.825 956.642,625.168 990.298,591.643C1011.484,570.544 1023.121,545.165 1023.977,515.328C1024.836,483.45 1013.746,455.984 991.177,433.349L991.179,433.345Z" style="fill:rgb(69,28,21);fill-rule:nonzero;"/>
    </g>
    <g transform="matrix(0.058594,0,0,0.058594,0.000044,0.000079)">
        <path d="M711.804,796.474C708.114,799.019 705.086,800.052 700.563,797.42C683.592,787.672 665.062,781.657 646.181,777.068C635.994,774.585 625.456,773.49 615.071,771.778C591.821,767.913 568.396,767.652 544.948,768.374C533.224,768.747 521.434,769.824 509.864,771.753C493.749,774.454 477.612,777.485 461.893,781.831C450.257,785.017 438.84,789.647 429.641,798.209C424.569,802.933 422.045,802.752 416.973,798.231C413.55,795.2 412.473,788.878 415.019,785.146C420.222,777.484 428.192,773.598 436.337,770.129C453.791,762.686 472.101,758.646 490.785,755.704C511.73,752.387 532.762,750.283 553.949,749.642C560.579,749.455 567.253,749.62 573.906,749.62C581.437,749.62 589.033,749.122 596.519,749.744C607.189,750.621 617.969,751.455 628.375,753.827C647.015,758.022 665.611,762.653 683.789,768.537C693.998,771.829 705.019,774.443 713.121,782.632C718.081,787.661 717.602,792.467 711.802,796.485L711.804,796.474ZM639.505,803.73L639.505,797.231C645.585,797.542 651.471,797.853 657.376,798.133C657.398,798.569 657.438,799.035 657.5,799.452C651.662,800.834 645.864,802.215 639.519,803.734L639.505,803.73ZM639.644,824.152L639.644,812.845C650.336,809.615 660.962,806.61 671.5,803.163C675.695,801.757 679.228,801.383 682.719,804.569C684.343,806.019 686.322,807.052 688.14,808.259C688.162,808.695 688.202,809.18 688.264,809.622C672.259,814.408 656.254,819.194 639.634,824.156L639.644,824.152ZM560.224,810.37L560.224,818.339C557.722,819.086 555.395,819.721 552.781,820.467L552.781,810.368L560.224,810.37ZM552.694,791.84L560.246,791.84L560.246,800.82L552.694,800.82L552.694,791.84ZM561.212,846.551C556.296,848.48 551.574,850.945 546.547,852.108C542.857,852.985 538.336,853.203 534.955,851.859C528.412,849.227 528.369,841.101 535.453,836.908C543.357,832.278 552.226,829.289 561.184,825.382L561.212,846.551ZM544.351,930.045C532.32,931.097 520.443,932.13 508.389,933.206L508.389,782.684C519.981,781.589 531.485,780.512 543.605,779.392L543.605,787.493C543.605,798.58 543.583,809.668 543.667,820.776C543.689,823.259 543.169,824.597 540.481,825.63C535.981,827.366 531.656,829.669 527.55,832.216C521.513,835.95 520.261,848.331 525.154,853.424C531.278,859.681 531.278,859.681 544.343,861.152L544.351,930.045ZM483.953,794.563C488.851,793.094 493.788,791.619 499.212,789.995L499.212,797.569C493.984,796.891 489.113,796.275 484.239,795.658C484.115,795.285 484.052,794.936 483.928,794.563L483.953,794.563ZM499.208,824.97C478.9,819.836 457.604,819.282 438.218,808.153C443.004,805.191 447.549,802.359 452.093,799.591C456.088,797.133 459.667,796.585 464.717,798.228C474.223,801.302 484.323,802.64 494.202,804.726C495.783,805.037 497.339,805.404 499.206,805.803L499.208,824.97ZM414.77,746.768C414.894,711.53 414.894,676.315 414.77,641.1C414.77,637.826 415.691,636.557 418.809,635.698C422.96,634.491 427.283,633.066 428.996,628.211C429.183,627.651 430.315,627.159 431.019,627.134C434.971,627.072 438.944,627.072 443.423,627.072C443.423,637.764 443.672,648.105 443.361,658.402C442.925,673.199 456.622,683.584 468.06,683.035C480.838,682.413 493.615,681.716 506.393,681.299C513.067,681.05 520.576,672.21 522.2,665.338C523.146,661.255 523.146,656.907 523.146,652.648C523.146,644.986 522.71,637.302 522.648,629.639C522.604,622.767 523.88,621.274 530.486,619.693C536.721,618.181 542.956,616.687 549.235,615.411C560.915,613.04 570.18,606.19 579.686,599.625C588.248,593.719 593.035,584.981 596.986,575.87C600.123,568.647 599.643,568.537 607.897,568.449C626.822,568.2 645.681,569.009 664.211,572.992C680.962,576.57 697.494,581.115 712.445,590.117C715.077,591.716 715.955,593.453 715.936,596.418C715.874,645.267 715.874,694.117 715.874,742.944L715.874,762.461C707.883,755.458 698.135,751.286 687.926,748.915C671.152,745.032 654.203,741.955 637.254,738.948C619.01,735.656 600.634,733.59 581.95,734.554C568.975,735.214 555.934,734.927 542.936,735.456C523.286,736.315 503.615,737.167 484.295,741.536C468.532,745.096 452.658,748.32 437.026,752.403C430.33,754.158 424.16,757.78 417.75,760.592C416.3,761.227 414.893,761.974 412.896,762.963C413.618,757.144 414.782,751.941 414.807,746.76L414.77,746.768ZM394.962,718.156C394.94,719.494 394.962,720.788 394.962,722.176C387.343,720.857 380.054,719.606 372.392,718.311L372.392,705.358C377.526,706.391 382.557,707.181 387.431,708.476C395.752,710.629 395.225,712.341 394.961,718.158L394.962,718.156ZM390.152,730.256C385.565,730.692 380.975,731.09 375.772,731.55C375.896,729.334 375.959,728.059 376.021,726.192C380.962,727.244 385.571,728.258 390.16,729.266C390.16,729.577 390.16,729.944 390.138,730.256L390.152,730.256ZM364.341,783.386C355.954,779.453 346.975,780.617 337.358,782.465L337.358,683.515C346.14,681.959 354.878,680.372 364.341,678.686L364.341,783.386ZM325.942,722.527C313.142,716.994 301.594,710.782 291.517,700.133C294.548,697.787 297.249,695.434 300.145,693.481C300.892,692.983 302.628,693.357 303.593,693.854C309.126,697.084 314.834,699.517 321.442,699.057C324.691,698.808 326.203,700.022 326.029,703.669C325.718,709.687 325.967,715.722 325.967,722.506L325.942,722.527ZM392.401,694.602L376.045,694.602L376.045,686.874L392.401,686.874L392.401,694.602ZM281.705,680.617C281.332,678.619 281.083,676.578 280.846,674.555C280.099,668.935 281.157,664.828 286.951,661.667C298.345,655.518 310.531,652.249 323.023,649.811C345.021,645.486 367.218,642.413 389.721,642.127C390.449,642.127 391.19,642.189 392.422,642.251L392.422,661.308C391.744,661.432 391.04,661.681 390.381,661.619C373.3,660.698 356.834,664.164 340.39,668.096C326.515,671.37 312.53,674.201 298.676,677.668C294.369,678.745 290.311,681.004 286.272,683.001C283.372,684.407 282.208,683.25 281.704,680.605L281.705,680.617ZM286.091,473.704C291.798,470.567 297.31,467.096 304.072,463.078L304.072,469.906C304.072,502.114 303.948,534.365 304.196,566.617C304.24,572.809 304.072,579.285 307.426,585.037C315.044,597.924 324.682,608.551 338.931,614.434C350.61,619.245 362.466,623.106 375.068,624.401C378.472,624.774 379.611,627.102 380.159,629.89C346.195,631.888 313.878,640.538 281.67,650.593L281.67,623.457C281.67,576.584 281.714,529.666 281.608,482.771C281.608,478.688 282.373,475.79 286.132,473.704L286.091,473.704ZM284.771,307.507C290.789,302.895 296.714,298.154 303.696,292.644C303.883,295.65 304.132,297.013 304.132,298.394C304.132,347.309 304.07,396.269 304.194,445.206C304.216,448.809 303.005,450.079 299.738,451.311C293.764,453.57 288.08,456.626 281.713,459.654L281.713,455.354C281.713,408.481 281.735,361.629 281.651,314.756C281.651,311.663 282.354,309.423 284.788,307.511L284.771,307.507ZM374.078,583.416L374.078,603.241C364.264,599.75 354.889,596.435 345.537,593.12C345.599,592.417 345.661,591.695 345.661,591.01C355.277,589.541 362.939,581.262 374.048,583.413L374.078,583.416ZM417.321,622.559L391.788,622.559L391.788,615.775C391.81,604.995 391.912,594.215 391.788,583.436C391.744,579.31 392.348,576.52 397.476,575.993C404.26,575.29 410.912,573.665 417.96,572.346C417.524,589.954 418.271,606.618 417.325,622.557L417.321,622.559ZM432.694,571.38L443.144,571.38L443.144,582.314L432.694,582.314L432.694,571.38ZM443.298,593.531L443.298,606.288L432.562,606.288L432.562,592.566C436.184,592.877 439.5,593.201 443.298,593.531ZM504.947,578.536L504.947,659.044C490.94,654.501 477.35,654.588 463.606,657.115C457.831,658.192 457.457,657.818 457.439,652.024C457.315,627.325 457.19,602.626 457.377,577.948C457.399,570.857 460.14,568.925 468.025,570.462C479.398,572.659 490.638,575.316 501.923,577.794C503.043,578.043 504.139,578.354 504.954,578.541L504.947,578.536ZM543.001,593.602C542.939,594.038 542.814,594.504 542.69,594.921C536.653,596.433 530.659,597.952 524.336,599.551L524.336,583.436C530.944,587.058 536.938,590.308 542.975,593.601L543.001,593.602ZM510.086,564.445C484.64,558.427 458.822,555.751 432.652,557.793C406.175,559.878 379.916,563.655 354.647,572.196C348.872,574.15 343.516,577.424 338.181,580.495C335.001,582.294 332.779,582.667 329.553,580.246C322.703,575.174 322.242,568.368 329.74,564.658C340.871,559.125 352.112,553.395 363.967,549.948C376.965,546.195 390.598,544.26 404.1,542.835C421.642,540.924 439.293,540.265 456.923,539.082C456.967,539.455 456.967,539.804 456.985,540.177C473.693,539.082 490.049,541.359 506.493,544.154C522.762,546.923 538.415,551.333 552.927,558.974C558.858,562.092 564.058,567.119 568.603,572.169C573.146,577.216 569.437,585.21 562.629,586.022C559.337,586.395 556.462,586.022 553.013,584.093C539.313,576.321 525.636,568.11 510.091,564.421L510.086,564.445ZM576.461,486.526L576.461,554.542C574.75,553.92 573.43,553.708 572.397,553.073C552.879,541.459 532.022,533.094 509.76,528.659C500.737,526.879 491.296,526.966 482.009,526.593C463.896,525.871 445.761,524.465 427.693,525.099C405.738,525.864 383.608,526.393 362.202,532.586C349.666,536.189 336.998,539.546 323.803,543.168C323.741,542.67 323.143,541.04 323.143,539.434C323.121,500.487 323.205,461.539 323.121,422.591C323.099,419.317 324.328,417.475 326.811,415.763C340.555,406.147 355.221,398.638 371.797,395.521C380.667,393.853 389.756,393.081 398.713,391.631C425.103,387.374 451.69,389.235 478.211,389.129C486.356,389.085 494.546,390.71 502.713,391.699C517.972,393.541 533.076,396.223 547.655,401.403C555.778,404.322 563.638,407.704 570.532,413.259C574.944,416.794 576.811,420.285 576.681,426.168C576.183,446.279 576.432,466.411 576.432,486.522L576.461,486.526ZM335.698,258.434C349.091,247.786 364.415,241.441 381.232,238.938C394.8,236.915 408.478,235.335 422.09,233.536C444.594,230.636 467.273,231.32 489.667,233.038C513.773,234.88 537.419,240.568 559.307,251.59C563.831,253.874 567.826,257.297 571.822,260.503C575.313,263.291 576.608,266.914 576.583,271.7C576.334,310.472 576.459,349.244 576.521,388.017C576.521,391.291 577.019,394.581 577.38,398.95C567.719,390.3 556.589,386.304 545.721,381.76C544.445,381.2 543.089,379.04 543.089,377.634C542.902,358.665 542.965,339.719 542.965,320.793C542.965,320.357 542.943,319.891 542.987,319.474C543.889,310.385 544.02,309.967 535.72,306.893C530.934,305.094 525.533,304.964 520.461,303.974C515.258,302.984 515.302,306.65 515.258,309.88C515.196,319.518 515.302,329.135 515.32,338.729L515.32,373.637C497.712,372.934 480.609,372.212 462.848,371.484L462.848,366.984C462.848,347.883 462.87,328.805 462.848,309.726C462.848,297.453 462.826,297.387 450.882,297.519C447.503,297.541 444.12,297.892 440.783,298.378C434.746,299.193 433.384,300.724 433.296,306.874C433.234,314.712 433.296,322.549 433.296,330.41L433.296,370.215C414.547,372.543 396.28,374.827 378.519,377.021C378.519,359.457 378.457,341.915 378.541,324.351C378.541,320.704 379.35,317.018 379.219,313.374C378.97,307.929 376.562,305.383 371.513,306.525C364.729,308.037 358.187,310.763 351.688,313.265C350.767,313.638 350.064,315.897 350.064,317.242C350.126,338.407 350.313,359.549 350.5,380.691C350.544,383.174 350.127,384.755 347.451,385.72C339.108,388.751 331.424,393.009 324.904,399.178C324.655,399.427 324.114,399.427 323.062,399.738C323.062,391.725 323.018,383.975 323.062,376.202C323.062,344.939 323.56,313.675 322.813,282.389C322.564,271.236 327.947,264.54 335.656,258.415L335.698,258.434ZM598.958,356.816C605.654,357.189 612.262,357.438 618.805,357.911C627.63,358.546 636.61,358.571 645.195,360.301C658.236,362.933 671.167,366.338 683.879,370.203C694.022,373.296 703.221,378.545 711.344,385.527C714.549,388.228 715.974,391.321 715.931,395.824C715.744,454.267 715.807,512.733 715.807,571.199L715.807,576.663C698.792,565.971 680.921,558.835 661.777,554.928L661.777,482.082C654.092,477.514 645.925,476.114 636.419,477.166L636.419,551.285C623.4,550.725 611.324,550.252 598.942,549.748L598.958,356.816ZM962.66,464.811C923.822,425.776 884.853,386.894 845.839,347.99C843.642,345.837 842.833,343.69 842.833,340.658C842.957,302.193 842.895,263.706 842.895,225.22C842.895,224.038 843.019,222.824 842.851,221.66C838.812,198.849 819.513,181.044 796.219,181.11C759.203,181.154 722.209,181.11 685.194,181.11L680.234,181.11C680.67,181.67 680.794,181.944 680.999,182.031C681.789,182.404 682.623,182.653 683.457,182.952C693.666,187.016 704.051,190.658 712.876,197.662C715.16,199.504 715.863,201.222 715.863,203.92C715.801,258.851 715.801,313.759 715.801,368.668L715.801,373.41C699.357,360.676 680.498,354.968 661.705,348.36L661.705,275.909C653.757,271.559 645.634,269.847 636.084,271.322L636.084,345.222C623.218,344.544 611.231,343.859 598.914,343.199L598.914,168.747C626.577,164.422 652.44,171.691 677.183,180.778C663.373,166.902 649.278,152.676 635.051,138.339L635.051,155.003L598.65,155.003L598.65,150.348C598.65,136.121 598.463,121.938 598.774,107.711C598.898,102.77 597.679,99.171 593.901,95.79C588.02,90.544 582.682,84.681 576.601,78.577C576.414,81.72 576.29,83.823 576.228,85.778C565.865,82.878 555.876,80.133 545.974,77.15C545.009,76.839 543.802,75.308 543.758,74.293C543.571,67.223 543.696,60.154 543.571,53.084C543.549,52.051 543.198,50.408 542.451,50.035C535.096,46.326 527.28,44.216 519.157,43.514L519.157,71.221L465.214,71.221L465.214,62.593C457.596,70.167 449.824,77.961 441.679,86.106C443.72,86.417 445.936,86.965 448.133,86.94C459.615,86.753 471.142,85.932 482.58,86.212C494.765,86.585 506.972,87.419 519.047,88.869C537.248,91.066 554.833,96.027 572.068,102.13C575.099,103.225 576.549,104.675 576.549,108.453C576.362,151.66 576.425,194.889 576.425,238.096L576.425,242.925C575.131,242.247 574.297,241.96 573.637,241.456C565.382,235.067 555.722,231.532 545.908,228.437C542.616,227.404 541.738,225.979 541.782,222.662C542.093,206.569 542.155,190.454 542.218,174.339C542.28,160.507 540.681,158.576 527.091,155.414C526.531,155.29 525.884,155.392 525.336,155.29C517.168,153.491 514.731,155.352 514.359,163.677C514.297,165.146 514.297,166.621 514.297,168.089L514.297,218.717C497.567,217.51 481.189,216.302 464.393,215.095C464.766,206.687 465.401,198.322 465.532,189.935C465.719,179.484 465.719,169.034 465.345,158.628C465.221,154.545 461.767,151.975 457.53,151.821C453.23,151.697 448.945,151.572 444.664,151.843C436.145,152.465 433.84,154.475 432.698,161.854C432.511,163.043 432.636,164.225 432.636,165.414L432.636,215.647C412.372,218.678 392.876,221.597 373.138,224.561L373.138,220.808C373.138,203.2 373.182,185.615 373.138,168.007C373.138,162.319 371.557,160.652 366.289,162.96C361.92,164.871 358.341,168.623 354.565,171.764C349.953,175.56 347.364,179.602 347.913,186.649C348.859,198.966 347.191,211.48 347.54,223.862C347.789,231.107 346.333,235.784 339.131,238.835C333.623,241.163 328.879,245.268 323.105,249.022L323.105,181.336L304.07,181.336L304.07,186.757C304.07,216.682 304.092,246.562 304.008,276.464C304.008,278.088 303.33,280.615 302.185,281.25C295.467,284.916 288.529,288.144 282.052,291.349L282.052,181.114L226.087,181.114C224.898,181.114 223.691,180.99 222.527,181.158C198.574,184.824 180.791,205.506 181.12,229.766C181.742,266.782 181.244,303.797 181.369,340.813C181.369,343.862 180.404,345.947 178.276,348.08C141.59,384.656 104.947,421.299 68.37,457.963C64.617,461.697 60.949,465.559 57.612,469.621C44.132,486 40.356,504.969 44,525.408C46.614,540.162 54.407,552.237 65.054,562.797C102.948,600.45 140.623,638.322 178.472,676.04C180.538,678.081 181.372,680.104 181.372,682.978C181.248,720.718 181.31,758.458 181.35,796.221C181.35,798.81 181.848,801.399 182.14,804.015C184.903,825.158 206.444,843.183 228.596,842.919C266.028,842.483 303.483,842.875 340.938,842.732C343.987,842.732 346.097,843.634 348.249,845.763C387,884.667 425.837,923.483 464.719,962.299C467.177,964.739 469.965,966.929 472.821,968.929C487.531,979.16 503.733,982.936 521.604,980.587C536.182,978.676 548.718,972.815 559.059,962.76C581.672,940.585 603.912,918.016 626.307,895.622C627.272,894.614 628.174,893.512 629.755,891.782C609.711,888.029 590.61,887.432 571.026,892.155C570.466,885.591 569.62,879.179 569.532,872.747C569.096,843.218 568.872,813.645 568.567,784.093C568.545,782.687 568.567,781.305 568.567,779.724C590.149,779.413 610.347,783.676 630.37,788.001L630.37,891.298C631.733,890.022 632.828,889.101 633.793,888.093C647.735,874.196 661.72,860.32 675.507,846.291C677.99,843.789 680.361,842.688 683.938,842.688C721.985,842.812 760.033,842.812 798.059,842.75C799.795,842.75 801.525,842.439 803.262,842.19C814.964,840.634 824.163,834.659 831.847,825.943C838.741,818.149 842.846,809.016 842.89,798.675C843.139,760.364 843.014,722.031 842.952,683.698C842.908,680.362 843.767,677.966 846.182,675.575C885.02,636.935 923.727,598.185 962.411,559.434C964.869,556.951 967.11,554.206 969.107,551.333C979.47,536.338 983.443,519.849 980.721,501.693C978.593,487.4 972.817,474.908 962.74,464.765L962.66,464.811Z" style="fill:rgb(69,28,21);fill-rule:nonzero;"/>
    </g>
</svg>
