<?xml version="1.0" encoding="UTF-8" standalone="no"?>
<!DOCTYPE svg PUBLIC "-//W3C//DTD SVG 1.1//EN" "http://www.w3.org/Graphics/SVG/1.1/DTD/svg11.dtd">
<svg width="100%" height="100%" viewBox="0 0 61 61" version="1.1" xmlns="http://www.w3.org/2000/svg" xmlns:xlink="http://www.w3.org/1999/xlink" xml:space="preserve" xmlns:serif="http://www.serif.com/" style="fill-rule:evenodd;clip-rule:evenodd;stroke-linejoin:round;stroke-miterlimit:2;">
    <g transform="matrix(0.058594,0,0,0.058594,0.00001,-0.000039)">
        <path d="M511.955,12.403C487.245,12.403 462.522,21.783 443.739,40.566L333.1,151.205L227.912,151.205C185.675,151.205 151.125,185.755 151.125,227.992L151.125,333.14L40.486,443.779C2.949,481.348 2.949,542.681 40.486,580.25L151.125,690.889L151.125,795.998C151.125,838.235 185.675,872.785 227.912,872.785L333.1,872.785L443.739,983.463C462.524,1002.232 487.241,1011.626 511.955,1011.626C536.669,1011.626 561.386,1002.231 580.171,983.463L690.81,872.785L795.998,872.785C838.235,872.785 872.785,838.235 872.785,795.998L872.785,690.889L983.424,580.25C1020.991,542.683 1020.991,481.345 983.424,443.779L872.785,333.14L872.785,227.992C872.785,185.755 838.235,151.205 795.998,151.205L690.81,151.205L580.171,40.566C561.388,21.783 536.665,12.403 511.955,12.403Z" style="fill:rgb(247,188,63);fill-rule:nonzero;"/>
    </g>
    <g transform="matrix(0.058594,0,0,0.058594,0.00001,-0.000039)">
        <path d="M500.62,153.346C504.684,154.553 509.16,154.354 513.463,154.728C510.189,150.291 508.372,146.078 510.893,141.511C513.264,137.254 515.218,132.312 520.905,130.907C522.685,130.471 524.328,129.308 525.909,128.337C526.612,127.901 527.508,126.974 527.446,126.364C527.135,122.63 526.525,118.899 526.04,115.145C525.542,110.907 525.312,106.297 529.662,104.299C533.11,102.718 534.143,100.59 534.89,97.362C535.898,92.906 539.788,91.524 543.869,93.802C544.877,94.362 545.798,95.078 547.491,96.198C548.051,93.827 548.586,91.941 548.916,90.006C550.715,78.633 555.591,76.372 564.768,83.068C567.687,77.031 572.672,79.776 577.458,80.323C565.273,68.006 554.889,53.912 538.005,48.071C538.254,50.243 539.387,52.944 538.565,53.909C532.591,60.605 530.859,70.09 523.768,76.105C522.187,77.443 522.256,80.648 521.285,82.845C520.364,84.868 519.462,87.457 517.775,88.402C514.856,90.051 513.804,94.439 509.542,93.91C509.418,93.888 509.169,94.632 508.982,95.005C506.063,101.306 508.671,112.02 514.403,116.301C508.802,122.182 502.547,128.047 509.487,137.004C505.909,138.168 503.032,139.157 500.09,139.991C496.138,141.111 495.149,144.578 495.703,147.565C496.139,149.781 498.535,152.699 500.644,153.34L500.62,153.346Z" style="fill:rgb(69,28,21);fill-rule:nonzero;"/>
    </g>
    <g transform="matrix(0.058594,0,0,0.058594,0.00001,-0.000039)">
        <path d="M848.389,422.198C842.614,444.833 826.588,458.489 806.412,467.71C792.646,474.033 777.585,473.728 762.744,473.068C759.651,472.944 756.509,472.881 753.479,472.365C748.538,471.55 743.665,470.367 738.791,469.334C738.667,468.699 738.48,468.058 738.355,467.423C740.795,465.537 743.097,463.515 745.6,461.803C750.168,458.666 755.612,456.295 756.358,449.881C756.794,446.607 756.42,443.207 756.42,439.672C791.306,433.305 821.186,428.716 852.033,397.497C852.469,397.621 852.892,397.684 853.352,397.808C851.703,405.931 850.408,414.164 848.367,422.178L848.389,422.198ZM717.144,803.49C671.675,857.543 614.527,878.422 544.47,864.393L544.47,881.035C544.448,890.497 544.426,899.96 544.426,909.466C544.448,914.053 542.123,916.799 537.906,918.292C531.122,920.682 524.887,918.479 518.893,915.79C517.555,915.168 516.522,912.516 516.522,910.786C516.335,893.31 516.273,875.856 516.5,858.402C516.544,854.712 515.206,853.069 512.019,851.355C503.347,846.725 494.916,841.563 485.915,836.294C485.915,843.715 485.479,851.18 486.039,858.578C486.475,863.625 484.172,866.24 480.289,868.15C477.283,869.644 474.184,871.069 471.002,872.015C467.623,873.023 465.581,870.895 465.625,867.515C465.874,851.532 466.061,835.593 466.123,819.61C466.123,818.185 465.202,816.579 464.281,815.372C462.24,812.652 460.198,809.815 457.651,807.622C453.064,803.627 453.961,799.125 456.095,794.646C460.42,785.71 464.92,776.885 469.575,768.081C483.648,741.384 504.703,720.835 528.304,702.832C539.721,694.116 552.301,686.959 564.552,679.362C567.975,677.234 571.951,675.759 575.859,674.638C577.552,674.14 579.767,674.887 581.591,675.559C603.919,683.529 626.116,691.828 648.575,699.292C651.649,700.3 656.566,697.973 659.772,695.844C675.557,685.46 691.958,676.392 710.202,671.255C718.874,668.772 727.963,667.764 736.855,666.009C738.809,665.636 740.738,664.976 743.134,664.341C756.636,715.188 744.69,760.766 717.162,803.49L717.144,803.49ZM736.107,642.32C737.644,646.645 738.982,650.465 740.501,654.724C735.56,655.222 731.083,655.626 726.648,656.149C704.627,658.738 684.56,666.951 665.394,677.709C661.33,679.993 657.775,680.696 653.604,678.145C651.295,676.763 648.532,676.147 644.91,674.784C674.571,659.964 702.98,645.079 736.11,642.335L736.107,642.32ZM446.087,791.891C416.119,737.597 411.53,682.601 441.718,628.811C475.265,569.006 528.022,538.511 597.399,543.254C656.063,547.225 699.489,577.371 729.523,627.977C702.98,633.155 677.841,638.91 655.162,652.325C646.556,657.372 637.708,661.963 629.014,666.924C626.948,668.106 625.324,668.106 623.021,667.235C610.726,662.561 598.366,658.146 585.917,653.909C584.361,653.411 582.034,653.971 580.453,654.83C570.31,660.076 559.75,664.732 550.375,671.165C537.115,680.298 524.776,690.815 511.977,700.694C487.695,719.487 471.712,745.043 455.289,770.203C451.779,775.58 450.13,782.234 447.627,788.294C447.254,789.153 446.88,790.03 446.09,791.897L446.087,791.891ZM346.393,773.96C346.393,788.801 345.895,803.467 346.58,818.023C346.953,825.312 344.427,830.406 339.488,835.016C334.59,839.584 328.708,839.69 323.044,839.055C323.044,816.925 322.92,794.948 323.106,772.971C323.128,768.776 322.272,766.626 318.059,764.365C303.723,756.703 289.869,748.009 275.818,739.732C275.32,739.421 274.828,739.172 273.733,738.55C273.36,742.328 272.725,745.708 272.7,749.089C272.638,766.104 272.04,783.163 272.949,800.156C273.509,810.102 264.496,817.741 254.924,815.766L254.924,811.136C254.613,783.363 254.289,755.546 254.109,727.774C254.087,724.544 253.101,722.441 250.792,720.156C240.803,710.254 230.88,700.331 221.439,689.924C212.965,680.571 205.961,670.143 200.165,658.814C194.614,648.034 188.529,637.539 182.711,626.892C182.089,625.728 181.721,624.452 180.956,622.567C190.814,622.567 200.276,621.69 209.541,622.754C223.35,624.335 237.335,626.177 250.706,629.956C266.096,634.306 281.333,639.506 295.889,646.729C309.084,653.272 323.266,657.926 336.988,663.393C337.237,663.517 337.61,663.517 337.822,663.704C345.703,669.367 352.949,667.5 360.611,662.714C367.044,658.694 374.223,655.886 381.095,652.636C384.561,650.968 387.945,650.439 391.545,652.614C395.298,654.854 400.963,655.863 402.61,659.069C404.079,661.901 401.204,666.994 400.195,671.078C395.87,688.576 395.783,706.227 397.563,724.055C399.716,745.285 405.972,765.462 413.393,785.77C390.45,784.675 368.319,780.897 346.365,773.98L346.393,773.96ZM386.234,814.309C386.172,818.634 376.245,824.364 372.249,822.762L372.249,784.912C377.147,785.161 381.536,785.41 386.322,785.615C386.322,795.472 386.446,804.891 386.26,814.31L386.234,814.309ZM174.681,607.079C166.799,582.007 161.684,556.605 161.42,530.084C161.233,512.432 161.42,494.978 164.295,477.546C166.181,466.064 166.554,465.8 178.17,463.539C200.586,459.17 223.244,457.658 245.9,459.344C271.587,461.255 297.384,463.495 322.127,471.617C330.469,474.318 338.747,477.324 346.782,480.75C348.867,481.627 350.491,484.353 351.524,486.612C357.013,498.687 362.172,510.894 365.136,523.913C367.352,533.551 374.62,538.776 382.963,542.464C405.665,552.497 427.949,563.344 449.838,577.087C427.773,595.946 415.171,620.119 407.311,646.838C400.483,644.075 393.677,641.131 386.718,638.649C384.895,637.971 382.281,638.027 380.594,638.898C371.461,643.485 362.526,648.493 353.392,653.103C352.054,653.825 349.814,653.781 348.345,653.165C328.827,645.371 309.375,637.358 289.814,629.542C270.186,621.682 249.264,618.609 228.626,614.766C212.774,611.822 196.638,609.893 180.369,611.013C177.164,611.262 175.67,610.111 174.681,607.061L174.681,607.079ZM178.504,426.33C178.94,425.148 180.813,424.046 182.213,423.698C197.076,419.902 211.852,415.685 227.418,415.509C240.657,415.322 253.94,414.04 267.2,413.841C302.284,413.343 335.94,419.199 368.17,434.215C397.48,447.849 426.065,462.559 453.025,480.43C459.37,484.6 465.737,488.729 472.279,492.571C473.598,493.336 475.901,493.069 477.507,492.549C482.579,490.9 487.584,488.883 492.589,486.992C498.738,484.708 504.884,482.362 511.097,480.251C512.373,479.815 514.302,479.753 515.354,480.375C536.102,493.373 556.761,506.501 577.442,519.608C578.475,520.286 579.309,521.257 581.307,522.987C574.26,522.987 568.551,522.738 562.865,523.049C542.227,524.169 522.798,529.701 503.652,537.825C488.174,544.389 476.604,556.223 462.334,564.193C460.311,565.313 459.216,565.444 457.305,564.317C441.564,555.271 425.822,546.16 409.883,537.378C403.231,533.688 396.073,530.923 389.312,527.366C387.358,526.333 385.36,524.422 384.414,522.406C377.718,508.223 371.614,493.755 364.655,479.704C361.736,473.798 356.487,469.034 350.318,466.751C330.032,459.287 309.724,451.624 287.835,450.153C273.279,449.163 258.701,448.442 244.145,447.496C237.536,447.06 230.972,445.984 224.386,445.872C217.668,445.685 210.884,445.934 204.232,446.706C193.035,447.913 181.904,449.65 169.741,451.293C172.641,442.906 175.404,434.541 178.5,426.286L178.504,426.33ZM206.757,389.072C217.581,386.527 228.448,384.043 239.47,382.618C246.693,381.653 254.158,382.618 261.513,382.742C261.949,382.742 262.434,382.866 262.72,383.115C268.321,388.056 273.895,393.039 279.164,397.781C273.196,397.781 267.221,397.408 261.293,397.825C243.4,399.076 225.551,401.229 207.635,401.69C200.588,401.877 194.484,404.391 188.008,405.797C189.346,394.469 197.8,391.197 206.757,389.067L206.757,389.072ZM232.839,339.626C238.813,333.434 244.65,326.958 251.457,321.843C268.143,309.307 282.918,293.873 302.831,285.969C329.001,275.585 355.105,265.024 382.834,258.964C392.538,256.811 401.583,258.242 410.717,259.711C420.377,261.248 430.059,263.507 439.346,266.539C446.459,268.891 453.067,272.862 459.873,276.221C460.663,276.594 461.846,278.02 461.653,278.393C459.5,282.675 457.944,287.658 454.606,290.754C451.401,293.716 446.285,294.637 442.048,296.486C427.338,303.007 412.606,309.527 397.919,316.07C396.469,316.705 395.193,317.626 393.967,319.605C395.965,319.605 398.006,319.916 399.96,319.543C414.494,317.041 429.006,314.297 443.607,311.903C448.741,311.069 453.53,311.925 458.185,315.133C467.933,321.939 478.252,327.911 488.022,334.694C496.43,340.513 502.732,348.306 505.256,358.515C508.113,370.041 510.571,381.655 513.445,393.159C514.005,395.312 515.331,397.571 516.98,399.021C522.581,404.006 528.308,408.901 534.302,413.358C537.681,415.903 539.399,418.474 539.218,422.864C538.845,430.921 539.094,439.045 540.139,447.673C541.06,446.422 542.355,445.321 542.902,443.92C545.995,435.885 548.876,427.783 551.882,419.748C553.288,415.927 552.069,412.964 549.355,410.132C543.474,403.965 537.741,397.617 532.121,391.536C536.994,386.856 542.242,383.127 545.733,378.165C559.63,358.582 574.428,339.393 580.29,315.33C580.968,312.498 581.609,309.685 582.593,305.407C587.335,309.776 591.616,313.684 595.898,317.68C596.271,318.053 596.458,318.713 596.844,319.105C605.472,327.36 614.254,335.506 622.707,343.958C625.868,347.119 628.352,350.983 631.203,354.54C653.444,382.203 669.316,413.138 679.877,447.036C682.335,454.852 681.327,462.843 683.829,470.461C692.172,495.841 690.24,521.945 689.144,548.005C689.1,548.795 688.771,549.586 688.522,550.333C670.782,535.974 649.465,531.386 628.234,526.776C620.396,525.065 612.229,524.847 604.215,523.857C602.989,523.733 601.122,523.359 600.836,522.563C597.413,513.693 589.574,509.017 582.482,503.989C569.331,494.658 556.115,485.284 542.217,477.139C531.129,470.662 519.011,465.876 507.243,460.651C504.959,459.643 501.798,459.444 499.449,460.153C490.843,462.854 482.346,465.972 473.937,469.198C468.709,471.196 464.496,472.559 458.81,468.538C447.526,460.634 435.253,454.202 423.353,447.198C405.174,436.418 386.315,427.022 366.468,419.776C350.178,413.851 334.326,406.361 316.982,403.529C311.362,402.608 305.741,401.643 300.209,400.392C298.516,400.019 296.848,398.88 295.622,397.623C288.838,390.882 282.076,384.099 275.599,377.051C270.9,371.979 264.753,371.431 258.628,371.189C249.341,370.878 239.988,370.753 230.701,371.251C225.828,371.5 220.975,373.137 216.145,374.213C212.038,375.115 207.978,376.142 203.192,377.306C212.238,363.518 221.788,350.96 232.809,339.61L232.839,339.626ZM379.905,233.042C378.48,231.436 377.03,229.856 375.468,228.169C377.049,226.37 378.474,224.765 379.949,223.072C386.382,229.196 392.683,235.081 400.959,238.682C406.933,241.296 412.332,245.246 417.842,248.803C420.101,250.253 422.342,252.357 419.952,255.323C417.867,257.955 416.199,256.001 414.071,254.763C403.291,248.418 392.753,241.612 379.427,241.217C372.533,240.968 365.661,238.846 358.79,237.57C365.53,233.705 372.094,230.215 379.91,233.046L379.905,233.042ZM425.158,227.644C426.801,227.666 428.848,229.555 429.987,231.11C433.366,235.697 436.31,240.594 439.515,245.293C441.251,247.838 443.554,250.035 444.936,252.713C445.658,254.163 445.372,256.509 444.625,258.046C444.314,258.749 441.725,258.544 440.213,258.419C435.228,257.784 432.793,253.832 430.29,250.164C425.548,243.336 420.915,236.42 416.348,229.746C419.354,228.956 422.229,227.636 425.13,227.661L425.158,227.644ZM509.063,288.654C515.125,277.83 523.158,268.083 529.503,257.368C531.631,253.765 531.37,248.696 531.943,244.261C532.578,239.145 532.441,233.92 533.48,228.937C535.017,221.319 535.72,221.077 543.382,221.297L543.382,243.954C547.359,239.977 551.395,235.919 555.523,231.923C556.425,231.089 557.851,229.95 558.772,230.143C560.309,230.516 562.855,231.985 562.767,232.775C562.132,238.395 566.016,240.876 569.661,243.467C565.753,246.828 561.933,250.076 558.113,253.368C558.362,253.741 558.549,254.115 558.816,254.488L571.484,254.488C571.982,251.656 572.517,248.825 573.239,244.893C576.575,247.507 579.319,249.635 582.9,252.446C586.192,252.197 591.287,250.535 596.512,255.39C591.328,257.126 586.918,258.726 582.439,260.089C580.267,260.724 579.209,261.645 578.686,264.041C577.323,270.121 575.456,276.073 573.44,283.428C576.67,280.397 578.885,278.182 581.278,276.139C586.767,271.422 592.3,266.808 597.876,262.219C598.598,261.659 599.743,261.037 600.552,261.186C604.529,261.846 608.456,262.767 612.408,263.601C606.434,268.916 600.443,274.71 593.944,279.913C579.257,291.637 568.06,306.369 556.709,321.1C545.622,335.525 537.697,351.442 532.318,368.522C530.146,375.548 525.775,379.873 520.924,384.418C519.213,386.042 518.111,386.416 516.798,383.783C514.452,379.084 515.043,374.387 516.3,369.71C522.293,347.207 534.325,327.93 548.376,309.686C551.65,305.448 553.317,300.048 556.06,295.393C562.14,285.009 565.808,273.658 570.638,262.395C564.906,261.897 559.858,261.275 554.787,261.101C553.735,261.039 552.26,262.42 551.601,263.516C544.575,274.998 536.166,285.976 531.095,298.292C524.509,314.209 514.212,327.997 507.691,344.089C502.14,337.635 496.758,331.399 491.467,325.23C497.217,313.089 502.422,300.487 509.075,288.653L509.063,288.654ZM688.419,392.873C689.471,386.855 690.286,380.754 691.693,374.783C692.004,373.663 694.568,373.09 696.105,372.256C696.478,372.629 696.765,372.978 697.095,373.308C695.072,380.048 693.056,386.789 691.033,393.507L688.419,392.873ZM648.702,336.011C666.639,339.919 684.598,343.827 702.447,348.218C707.936,349.556 713.205,351.971 718.276,354.541C724.577,357.727 724.487,363.367 718.463,367.648C718.152,367.897 717.785,368.146 717.673,368.507C714.953,375.467 712.184,382.383 709.682,389.364C708.232,393.341 706.981,397.421 706.104,401.527C705.793,403.021 706.726,404.776 707.05,406.425C708.456,405.61 709.838,404.819 711.245,404.01C711.369,403.966 711.369,403.761 711.432,403.637C713.013,398.826 716.131,396.59 721.399,396.392C726.49,396.205 731.498,394.923 736.592,394.239C739.841,393.803 742.386,394.799 743.332,398.303C744.409,402.143 744.278,405.592 740.563,408.072C740.439,408.134 740.314,408.321 740.19,408.321C731.869,410.692 730.398,418.091 728.049,424.787C725.591,431.834 723.22,438.904 720.848,445.929C720.537,446.85 720.412,447.858 720.058,449.576C726.403,447.161 731.869,444.834 737.512,442.946C739.528,442.286 741.949,442.112 743.989,442.573C745.9,442.946 748.731,444.241 749.08,445.622C749.702,448.279 749.453,451.31 746.379,453.328C732.284,462.593 718.277,471.989 704.27,481.364C701.152,483.474 698.146,485.776 694.917,488.126L694.917,457.214C698.408,458.508 701.855,459.784 705.85,461.278C706.858,456.536 707.978,452.167 708.57,447.754C708.694,446.721 707.294,445.227 706.286,444.331C700.137,438.823 693.903,433.441 687.712,427.996C686.947,427.336 686.019,426.614 685.689,425.756C682.615,418.16 679.652,410.542 676.819,403.384C681.891,402.351 686.984,401.43 691.99,400.247C692.955,399.998 694.1,398.953 694.448,398.031C697.958,388.13 701.32,378.206 705.03,367.382C697.105,366.822 689.969,366.349 682.855,365.826C675.412,365.266 667.948,364.749 660.506,363.959C659.274,363.835 658.023,362.553 657.127,361.501C649.245,352.412 641.407,343.278 633.328,333.838C638.487,334.56 643.669,334.958 648.696,336.054L648.702,336.011ZM713.899,332.936C720.442,328.586 726.809,323.363 734.098,320.751C746.326,316.295 758.6,311.003 772.343,312.979C777.284,313.701 782.354,313.881 787.338,313.9C799.062,313.962 808.437,320.049 817.921,325.624C823.055,328.611 827.823,332.43 832.192,336.47C836.735,340.683 836.692,343.211 833.113,348.326C831.532,350.629 829.777,352.913 827.643,354.671C818.707,362.091 809.552,369.227 798.597,373.53C795.062,374.893 791.439,376.013 787.773,376.978C784.481,377.837 783.012,380.027 782.44,383.083C780.928,390.987 779.322,398.869 778.028,406.794C777.281,411.188 775.215,413.775 770.695,414.676C759.849,416.873 749.069,419.331 738.246,421.679C737.873,421.044 737.456,420.453 737.064,419.837C738.427,418.144 739.46,415.667 741.215,414.921C745.08,413.297 749.382,412.089 750.238,407.5C751.29,401.88 750.362,396.391 746.548,391.693C742.31,386.403 736.361,386.316 730.477,386.664C726.942,386.851 723.407,388.089 719.149,389.016C720.755,383.595 721.85,378.653 723.736,374.043C724.788,371.317 727.227,369.189 728.74,366.622C730.669,363.417 728.678,354.13 725.84,351.671C720.195,346.885 714.863,341.638 706.805,340.935C706.681,340.562 706.494,340.17 706.369,339.796C708.852,337.493 711.093,334.836 713.899,332.947L713.899,332.936ZM844.396,355.669C846.568,364.254 848.808,372.86 850.829,381.51C851.14,382.804 850.705,384.603 849.97,385.68C842.198,397.206 831.264,405.066 819.562,412.091C800.615,423.376 779.516,428.162 758.286,432.224C749.724,433.848 740.832,433.873 732.094,434.62C731.907,430.12 733.787,429.019 737.427,428.888C754.091,428.253 769.964,423.573 785.574,418.153C787.285,417.531 788.866,414.879 789.352,412.925C790.908,406.845 791.941,400.652 793.086,394.483C793.584,391.583 794.754,389.255 797.673,388.116C798.88,387.618 799.913,386.734 801.164,386.293C818.267,380.518 831.616,369.585 844.393,355.666L844.396,355.669ZM962.51,464.737C923.759,425.812 884.9,387.017 846.018,348.267C843.734,346.027 842.726,343.855 842.744,340.605C842.868,302.118 842.806,263.632 842.806,225.145C842.784,223.409 842.495,221.679 842.184,219.961C840.23,209.071 834.807,200.246 826.64,192.869C818.538,185.471 809.054,181.343 798.274,181.211C770.325,180.9 742.355,181.149 714.363,181.149L710.125,181.149C715.483,185.649 716.931,191.05 716.777,197.615C716.59,205.892 712.825,209.054 705.141,207.407C701.65,206.66 698.379,204.837 694.997,203.499C689.091,215.727 680.836,218.055 670.079,212.5C668.056,215.245 668.897,217.043 671.087,219.679C674.18,223.413 676.203,228.088 678.42,232.479C679.54,234.651 679.889,237.221 680.922,239.483C684.961,248.243 683.642,251.887 675.128,255.224C674.468,259.375 674.207,263.545 673.105,267.497C671.369,273.776 666.497,274.896 662.062,270.086C659.666,267.497 657.936,264.311 656.592,262.402C652.945,263.367 649.062,265.694 646.098,264.86C640.565,263.279 637.382,258.711 638.853,251.27C635.144,254.388 632.201,255.77 628.82,252.807C628.185,252.247 626.604,252.62 625.484,252.745C619.69,253.467 613.913,254.282 608.118,254.942C605.878,255.191 604.67,254.382 603.307,252.179C600.675,247.879 596.677,244.297 591.298,244.363C583.548,244.425 578.345,239.403 572.307,236.042C571.498,235.606 571.031,233.714 571.125,232.551C571.498,228.668 569.302,226.402 566.252,224.911C563.769,223.729 560.894,223.287 558.502,221.949C556.791,220.959 554.88,219.292 554.307,217.537C552.901,213.23 551.189,211.606 546.798,212.309C541.9,213.056 537.029,214.195 532.088,214.749C529.586,214.998 526.954,214.376 524.382,214.089C525.347,211.606 526.268,209.148 527.189,206.691C527.313,206.442 527.313,206.131 527.376,205.832C527.127,205.894 526.94,205.894 526.698,205.956C526.325,204.045 525.933,202.135 525.603,200.492C522.242,198.14 518.665,195.862 515.438,193.203C513.023,191.205 511.772,191.467 510.584,194.298C508.387,199.569 505.773,204.639 503.844,210.018C501.081,217.68 497.782,225.364 496.489,233.334C494.69,244.311 494.516,255.53 493.744,266.683C493.371,272.303 493.184,277.945 492.736,283.588C492.363,288.722 491.946,293.84 490.981,298.89C489.73,305.191 488.081,311.426 486.239,317.574C485.928,318.694 482.99,320.275 482.287,319.902C475.986,316.299 469.883,312.306 462.901,307.937C473.878,277.266 471.354,245.475 468.303,214.124C472.323,212.257 476.119,210.546 480.356,208.616L480.356,231.69C480.729,231.734 481.146,231.814 481.52,231.877C489.468,211.788 502.795,193.303 499.523,169.526C496.803,170.403 494.389,171.219 491.949,172.009C491.949,173.061 491.887,173.808 491.949,174.536C493.026,185.184 487.997,192.078 478.403,195.701C472.323,198.004 465.977,199.541 459.785,201.669C458.466,202.105 456.511,203.754 456.599,204.675C457.097,210.077 453.637,213.698 451.197,217.673C449.131,221.034 446.256,220.859 443.03,218.395C441.754,217.43 439.756,216.509 438.35,216.796C429.173,218.576 420.237,217.232 411.302,215.346C409.833,215.035 408.053,215.284 406.933,214.531C403.616,212.378 400.566,209.832 397.075,207.176C396.702,207.425 395.799,207.898 394.99,208.514C389.109,212.97 386.911,212.397 383.068,205.857C381.817,203.685 379.838,201.93 377.361,199.051C377.361,201.553 377.485,202.698 377.339,203.837C375.976,212.421 373.873,220.61 365.154,225.023C362.671,226.299 360.654,227.002 358.041,224.65C354.923,221.93 350.269,223.86 348.644,227.594C347.941,229.218 346.316,230.581 344.848,231.633C343.466,232.641 341.444,232.865 340.149,233.961C332.399,240.723 323.244,240.525 313.979,239.052C306.031,237.776 300.938,232.312 297.206,226.055C293.646,227.306 290.422,228.775 287.041,229.615C276.568,232.272 270.772,227.729 270.86,217.079C270.86,214.639 271.171,212.25 271.296,209.768C267.17,208.978 262.843,210.907 259.243,207.005C255.465,202.922 259.119,198.837 257.687,195.303C255.49,193.679 252.658,191.768 252.459,189.683C252.21,186.982 254.108,184.107 255.135,181.164C246.572,181.164 238.142,181.288 229.711,181.102C219.041,180.915 209.249,183.492 200.73,190.059C188.633,199.302 181.169,211.245 181.103,226.834C180.979,264.881 181.041,302.907 181.103,340.954C181.147,343.811 180.338,345.827 178.29,347.892C140.747,385.303 103.315,422.78 65.86,460.278C62.941,463.153 60.24,466.252 57.583,469.411C43.971,485.723 40.195,504.692 43.686,525.132C46.101,539.359 53.302,551.346 63.643,561.62C101.712,599.536 139.628,637.606 177.698,675.521C180.243,678.023 181.146,680.481 181.146,683.996C181.022,721.868 181.084,759.74 181.084,797.656C181.084,798.838 180.96,800.046 181.106,801.21C184.336,824.635 204.51,843.012 228.023,842.88C265.61,842.756 303.196,842.88 340.783,842.756C343.876,842.756 345.942,843.721 348.094,845.849C386.866,884.731 425.682,923.569 464.543,962.363C467.001,964.821 469.789,966.975 472.644,968.971C487.398,979.246 503.556,983 521.472,980.629C535.852,978.7 548.345,972.989 558.532,963.021C579.763,942.405 600.509,921.263 621.433,900.318C622.292,899.441 623.082,898.432 623.63,897.791C616.977,895.681 610.589,893.752 604.266,891.512C603.233,891.139 601.982,889.514 601.957,888.419C601.708,882.862 601.833,877.266 601.833,871.382C612.942,869.826 623.656,868.289 634.941,866.708L634.941,886.643C636.652,884.994 637.729,884.054 638.737,883.04C651.163,870.57 663.699,858.166 676.038,845.608C678.079,843.542 680.102,842.751 682.998,842.776C721.309,842.838 759.642,842.838 797.975,842.82C799.444,842.82 800.962,842.842 802.387,842.571C814.001,840.598 823.661,835.194 831.455,826.259C838.37,818.289 842.63,809.112 842.696,798.64C842.945,760.154 842.82,721.667 842.718,683.18C842.718,680.131 843.62,678.021 845.749,675.891C884.653,637.119 923.469,598.281 962.285,559.421C964.725,556.938 966.915,554.175 968.915,551.319C979.388,536.324 983.229,519.792 980.507,501.636C978.397,487.365 972.581,474.939 962.482,464.752L962.51,464.737Z" style="fill:rgb(69,28,21);fill-rule:nonzero;"/>
    </g>
    <g transform="matrix(0.058594,0,0,0.058594,0.00001,-0.000039)">
        <path d="M491.311,629.345C494.871,628.53 498.644,628.268 501.871,626.775C507.142,624.317 512.014,620.956 517.151,618.146C522.64,615.184 525.955,610.44 528.348,604.974C532.275,595.907 525.821,590.308 518.292,589.737C507.117,588.86 496.996,591.517 487.819,598.628C481.035,603.831 476.6,610.067 474.58,618.124C474.207,619.618 475.078,621.877 476.074,623.221C479.852,628.225 485.427,628.866 491.311,629.345Z" style="fill:rgb(69,28,21);fill-rule:nonzero;"/>
    </g>
    <g transform="matrix(0.058594,0,0,0.058594,0.00001,-0.000039)">
        <path d="M980.935,580.619C945.719,615.922 910.438,651.182 875.069,686.353C872.281,689.098 871.273,691.817 871.273,695.662C871.397,729.999 871.584,764.336 871.211,798.652C870.838,833.099 841.506,865.768 807.41,870.224C802.45,870.859 797.399,871.189 792.393,871.189C760.427,871.251 728.461,871.313 696.495,871.127C691.908,871.083 688.877,872.552 685.737,875.714C650.873,910.754 615.921,945.684 580.925,980.636C561.802,999.714 538.662,1009.682 511.658,1009.594C485.004,1009.47 462.128,999.583 443.268,980.724C407.855,945.377 372.464,910.008 337.161,874.551C334.79,872.155 332.462,871.172 329.059,871.172C296.039,871.296 263.041,871.296 230.043,871.234C192.391,871.11 162.006,846.513 154.233,809.761C153.094,804.471 152.851,798.915 152.851,793.448C152.727,760.604 152.727,727.738 152.851,694.871C152.873,691.467 151.774,689.164 149.403,686.814C113.99,651.489 78.577,616.163 43.252,580.729C24.174,561.606 14.25,538.444 14.403,511.44C14.527,485.116 24.173,462.415 42.79,443.732C78.181,408.187 113.704,372.73 149.271,337.295C151.754,334.812 152.874,332.422 152.849,328.842C152.725,295.844 152.725,262.824 152.787,229.804C152.849,189.781 181.526,157.222 221.396,153.138C235.469,151.688 249.783,152.765 263.988,152.702C268.444,152.68 272.879,152.702 277.292,152.702C294.79,152.702 312.222,152.64 329.72,152.764C332.595,152.764 334.618,151.955 336.657,149.864C372.005,114.451 407.352,79.038 442.765,43.713C477.454,9.112 532.626,5.424 571.617,35.15C575.351,38.007 578.818,41.255 582.177,44.613C616.953,79.302 651.73,114.034 686.396,148.854C689.053,151.555 691.711,152.806 695.595,152.787C728.461,152.6 761.327,152.6 794.172,152.725C831.649,152.849 861.858,177.227 869.784,213.89C871.078,219.883 871.278,226.207 871.321,232.376C871.445,264.518 871.445,296.616 871.277,328.736C871.277,332.271 872.242,334.754 874.743,337.276C910.112,372.448 945.394,407.729 980.653,443.01C999.974,462.352 1009.985,485.756 1009.699,513.112C1009.388,539.436 999.556,562.027 980.938,580.667L980.935,580.619ZM991.064,433.284C956.968,399.123 922.851,365.027 888.667,330.953C886.514,328.825 885.549,326.696 885.574,323.598C885.698,306.89 885.636,290.16 885.636,273.431C885.636,258.634 885.885,243.836 885.512,229.038C885.388,222.144 884.79,215.097 883.209,208.401C873.242,166.862 837.807,138.761 795.17,138.475C763.775,138.288 732.401,138.351 701.006,138.475C697.645,138.475 695.256,137.573 692.861,135.158C671.807,113.928 650.664,92.808 629.499,71.687C614.723,56.956 600.431,41.653 584.909,27.734C559.859,5.23 529.869,-3.288 496.585,1.125C471.578,4.417 450.392,15.79 432.587,33.662C398.864,67.56 364.966,101.283 331.244,135.159C328.848,137.555 326.458,138.495 323.121,138.476C292.779,138.352 262.416,138.352 232.075,138.476C225.908,138.498 219.605,138.663 213.523,139.752C168.23,147.766 137.626,187.548 138.372,230.798C138.932,261.579 138.434,292.359 138.559,323.14C138.581,326.544 137.526,328.872 135.155,331.263C101.081,365.205 67.029,399.213 33.065,433.287C-11.086,477.526 -10.999,546.662 33.189,590.878C67.197,624.886 101.226,658.938 135.278,692.88C137.562,695.139 138.57,697.361 138.552,700.63C138.428,731.696 138.365,762.784 138.574,793.85C138.636,801.051 139.196,808.406 140.833,815.388C150.668,857.014 186.367,885.313 229.179,885.533C260.552,885.72 291.926,885.595 323.321,885.511C326.526,885.511 328.81,886.345 331.093,888.654C353.816,911.575 376.627,934.385 399.482,957.175C412.699,970.326 425.411,984.025 439.352,996.408C464.512,1018.824 494.458,1027.298 527.742,1022.864C552.902,1019.485 574.111,1007.891 592.025,989.866C625.594,956.056 659.404,922.465 693.017,888.698C695.32,886.37 697.585,885.512 700.767,885.512C731.416,885.636 762.043,885.636 792.713,885.512C798.594,885.512 804.613,885.388 810.365,884.305C854.845,876.225 885.582,839.188 885.648,793.851C885.67,763.071 885.692,732.29 885.586,701.509C885.542,697.626 886.725,694.966 889.469,692.266C923.038,658.851 956.453,625.304 990.066,591.889C1011.362,570.724 1023.152,545.213 1023.964,515.223C1024.798,483.367 1013.689,455.901 991.098,433.288L991.064,433.284Z" style="fill:rgb(69,28,21);fill-rule:nonzero;"/>
    </g>
</svg>
