<?xml version="1.0" encoding="UTF-8" standalone="no"?>
<!DOCTYPE svg PUBLIC "-//W3C//DTD SVG 1.1//EN" "http://www.w3.org/Graphics/SVG/1.1/DTD/svg11.dtd">
<svg width="100%" height="100%" viewBox="0 0 31 27" version="1.1" xmlns="http://www.w3.org/2000/svg" xmlns:xlink="http://www.w3.org/1999/xlink" xml:space="preserve" xmlns:serif="http://www.serif.com/" style="fill-rule:evenodd;clip-rule:evenodd;stroke-linejoin:round;stroke-miterlimit:2;">
    <g transform="matrix(0.03125,0,0,0.03125,-1.460938,-2.959937)">
        <path d="M654.021,321.116C709.066,301.584 760.56,279.98 808.503,256.304C829.219,246.241 850.083,235.291 871.095,223.454C892.107,211.617 911.935,198.743 930.579,184.834C949.223,170.925 965.944,156.423 980.741,141.33C995.538,126.237 1007.376,110.699 1016.255,94.718C1012.704,142.661 1006.785,187.94 998.499,230.556C994.948,248.904 990.804,267.697 986.069,286.934C981.334,306.171 975.711,324.52 969.201,341.98C962.691,359.44 955.44,375.717 947.449,390.81C939.458,405.903 930.432,418.777 920.371,429.43C912.084,437.717 904.094,445.855 896.399,453.846C888.704,461.837 880.714,469.383 872.427,476.486C864.732,483.589 856.89,490.395 848.899,496.906C840.908,503.417 832.77,509.335 824.483,514.662C807.91,524.725 791.337,535.971 774.765,548.4C758.193,560.829 744.284,575.035 733.037,591.016C727.71,598.711 722.531,606.405 717.5,614.1C712.469,621.795 706.402,628.897 699.3,635.408C694.565,639.551 689.386,643.102 683.763,646.062C678.14,649.022 672.073,652.277 665.563,655.828C659.644,658.788 654.022,662.635 648.695,667.37C643.368,672.105 638.337,676.84 633.601,681.576C631.233,683.944 628.57,687.051 625.611,690.898C622.652,694.745 619.989,698.592 617.621,702.44C615.253,706.288 613.477,710.431 612.294,714.87C611.111,719.309 611.407,723.304 613.182,726.856C616.733,735.143 622.356,740.765 630.05,743.724C637.744,746.683 645.735,748.163 654.022,748.164C667.635,748.164 680.361,745.205 692.198,739.286C704.035,733.367 715.281,725.821 725.936,716.646C736.591,707.471 746.357,697.409 755.234,686.46C764.111,675.511 772.398,665.301 780.094,655.83C780.686,655.83 781.13,655.09 781.426,653.61C781.722,652.13 782.462,651.39 783.646,651.39C796.075,648.43 807.617,645.175 818.272,641.624C827.743,638.664 836.917,635.409 845.794,631.858C854.671,628.307 861.478,624.756 866.214,621.204C854.377,640.144 841.355,659.085 827.15,678.026C814.721,694.599 800.219,712.208 783.646,730.852C767.073,749.496 748.724,766.809 728.6,782.79C708.476,798.771 691.015,812.237 676.218,823.186C661.421,834.135 648.251,844.049 636.71,852.928C625.169,861.807 614.811,870.241 605.636,878.232C596.461,886.223 587.731,895.249 579.445,905.31C574.118,911.821 568.644,916.704 563.021,919.96C557.398,923.216 552.219,925.435 547.484,926.618C542.157,928.394 536.83,929.282 531.503,929.282C526.176,929.282 520.849,928.394 515.522,926.618C510.787,925.434 505.608,923.215 499.985,919.96C494.362,916.705 488.887,911.822 483.561,905.31C475.274,895.247 466.544,886.221 457.37,878.232C448.196,870.243 437.838,861.808 426.296,852.928C414.754,844.048 401.437,834.134 386.344,823.186C371.251,812.238 353.643,798.773 333.518,782.79C313.986,766.809 295.785,749.496 278.916,730.852C262.047,712.208 247.693,694.599 235.856,678.026C221.651,659.086 208.629,640.145 196.792,621.204C201.527,624.755 208.333,628.307 217.212,631.858C226.091,635.409 234.969,638.665 243.846,641.624C254.5,645.175 266.042,648.431 278.472,651.39C279.656,651.39 280.396,652.13 280.692,653.61C280.988,655.09 281.432,655.83 282.024,655.83C289.719,665.301 298.005,675.511 306.884,686.46C315.763,697.409 325.529,707.471 336.182,716.646C346.835,725.821 358.229,733.367 370.364,739.286C382.499,745.205 395.372,748.164 408.984,748.164C417.271,748.164 425.261,746.684 432.956,743.724C440.651,740.764 446.273,735.141 449.824,726.856C452.784,719.161 451.304,710.875 445.384,701.996C439.464,693.117 434.137,686.311 429.403,681.576C419.932,671.513 408.686,662.931 395.665,655.828C389.746,652.868 383.976,649.761 378.353,646.506C372.73,643.251 367.551,639.552 362.816,635.408C355.121,628.897 348.907,621.795 344.172,614.1C339.437,606.405 334.406,598.711 329.078,591.016C318.424,575.627 304.515,561.569 287.35,548.844C270.185,536.119 253.909,524.725 238.52,514.662C220.764,504.008 203.895,490.987 187.914,475.598C171.933,460.209 156.839,444.82 142.634,429.43C132.571,418.776 123.545,405.903 115.556,390.81C107.567,375.717 100.316,359.441 93.804,341.98C87.292,324.519 81.669,306.171 76.936,286.934C72.203,267.697 68.059,248.905 64.506,230.556C56.219,187.94 50.301,142.661 46.75,94.718C55.629,110.699 67.467,126.237 82.264,141.33C97.061,156.423 113.782,170.925 132.426,184.834C151.07,198.743 170.898,211.617 191.91,223.454C212.922,235.291 233.49,246.241 253.614,256.304C301.557,279.98 353.347,301.584 408.984,321.116C410.168,348.343 413.275,372.018 418.306,392.142C423.337,412.266 429.699,429.727 437.394,444.524C445.089,459.321 453.671,471.899 463.142,482.256C472.613,492.613 482.083,501.344 491.552,508.447C496.287,511.407 500.874,513.774 505.314,515.549C509.754,517.324 514.045,518.804 518.188,519.989C522.331,520.581 526.77,520.877 531.506,520.877C535.649,520.877 540.088,520.581 544.824,519.989C548.967,518.805 553.258,517.325 557.698,515.549C562.138,513.773 566.725,511.406 571.46,508.447C580.931,501.344 590.253,492.614 599.426,482.256C608.599,471.898 617.034,459.321 624.73,444.524C632.426,429.727 638.937,412.267 644.262,392.142C649.587,372.017 652.843,348.342 654.028,321.116L654.021,321.116Z" style="fill-rule:nonzero;"/>
    </g>
</svg>
