<?xml version="1.0" encoding="UTF-8" standalone="no"?>
<!DOCTYPE svg PUBLIC "-//W3C//DTD SVG 1.1//EN" "http://www.w3.org/Graphics/SVG/1.1/DTD/svg11.dtd">
<svg width="100%" height="100%" viewBox="0 0 33 33" version="1.1" xmlns="http://www.w3.org/2000/svg" xmlns:xlink="http://www.w3.org/1999/xlink" xml:space="preserve" xmlns:serif="http://www.serif.com/" style="fill-rule:evenodd;clip-rule:evenodd;stroke-linejoin:round;stroke-miterlimit:2;">
    <g transform="matrix(0.03125,0,0,0.03125,-0.255156,0.167969)">
        <path d="M792.181,673.529C787.681,679.958 787.36,687.03 791.217,694.745L892.474,877.972L710.211,775.75C701.21,772.535 694.138,772.857 688.995,776.714C685.78,779.929 682.727,783.304 679.834,786.84C676.941,790.376 675.816,793.751 676.459,796.966L689.96,905.938L629.206,831.683C618.919,819.468 605.74,814.324 589.667,816.253C580.666,817.539 572.952,821.396 566.523,827.825C560.094,834.254 556.237,841.968 554.951,850.969L526.985,1029.375L499.019,850.969C497.733,841.968 493.876,834.254 487.447,827.825C481.018,821.396 473.304,817.539 464.303,816.253C457.231,814.967 449.838,815.449 442.123,817.7C434.408,819.951 427.979,824.612 422.836,831.683L364.01,905.938L376.547,796.966C377.19,793.751 376.386,790.376 374.136,786.84C371.886,783.304 369.154,779.929 365.939,776.714C359.51,773.499 352.116,773.178 343.759,775.75L161.496,877.972L262.753,694.745C265.968,687.03 265.646,679.958 261.789,673.529C256.646,665.814 250.217,662.6 242.502,663.885L132.566,674.493L208.75,614.703C215.179,609.56 219.519,603.452 221.769,596.38C224.019,589.308 224.501,582.236 223.216,575.164C221.93,566.806 217.912,559.252 211.162,552.502C204.412,545.752 197.179,541.734 189.464,540.448L8.165,512.482L189.464,483.551C197.179,482.265 204.411,478.408 211.162,471.979C217.913,465.55 221.931,458.157 223.216,449.799C224.502,442.727 223.859,435.655 221.287,428.583C218.715,421.511 214.536,415.403 208.75,410.26L132.566,349.506L242.502,361.078C250.86,362.364 257.289,358.828 261.789,350.47C265.646,344.684 265.968,337.934 262.753,330.219L161.496,146.992L343.759,248.249C352.117,252.106 359.51,251.785 365.939,247.285C369.154,244.714 371.886,241.66 374.136,238.124C376.386,234.588 377.19,231.213 376.547,227.998L364.01,119.026L422.836,192.317C427.979,199.389 434.408,204.05 442.123,206.3C449.838,208.55 457.231,209.032 464.303,207.747C473.304,206.461 481.018,202.604 487.447,196.175C493.876,189.746 497.733,182.353 499.019,173.995L526.985,-5.375L554.951,173.995C556.237,182.353 559.934,189.746 566.041,196.175C572.148,202.604 579.702,206.461 588.703,207.747L589.667,207.747C597.382,209.033 604.614,208.229 611.365,205.336C618.116,202.443 624.063,198.103 629.206,192.317L689.96,119.026L676.459,227.998C675.816,231.213 676.941,234.588 679.834,238.124C682.727,241.66 685.78,244.714 688.995,247.285C694.138,251.785 701.21,252.106 710.211,248.249L892.474,146.992L791.217,330.219C787.36,337.934 787.681,344.684 792.181,350.47C796.681,358.828 803.11,362.364 811.468,361.078L920.44,349.506L845.22,410.26C833.648,420.547 828.826,433.726 830.755,449.799C832.041,458.157 835.738,465.55 841.845,471.979C847.952,478.408 855.506,482.265 864.507,483.551L1044.841,512.482L864.507,540.448C855.506,541.734 847.952,545.752 841.845,552.502C835.738,559.252 832.041,566.806 830.755,575.164C828.826,591.237 833.648,604.416 845.22,614.703L920.44,674.493L811.468,663.885C803.753,663.242 797.324,666.457 792.181,673.529ZM282.037,512.482C282.037,546.556 288.466,578.38 301.324,607.953C314.182,637.526 331.701,663.403 353.881,685.584C376.061,707.765 402.099,725.123 431.994,737.659C461.889,750.195 493.552,756.463 526.983,756.464C561.057,756.464 592.881,750.196 622.454,737.659C652.027,725.122 677.743,707.764 699.602,685.584C721.461,663.404 738.819,637.527 751.677,607.953C764.535,578.379 770.964,546.555 770.964,512.482C770.964,478.409 764.535,446.585 751.677,417.011C738.819,387.437 721.461,361.721 699.602,339.863C677.743,318.005 652.027,300.647 622.454,287.788C592.881,274.929 561.057,268.5 526.983,268.501C493.552,268.501 461.889,274.93 431.994,287.788C402.099,300.646 376.061,318.004 353.881,339.863C331.701,361.722 314.182,387.438 301.324,417.011C288.466,446.584 282.037,478.408 282.037,512.482ZM730.462,512.482C730.462,540.77 725.158,567.29 714.55,592.041C703.942,616.792 689.316,638.49 670.672,657.135C652.028,675.78 630.491,690.406 606.06,701.013C581.629,711.62 555.27,716.924 526.983,716.925C499.338,716.925 472.979,711.621 447.906,701.013C422.833,690.405 401.135,675.779 382.812,657.135C364.489,638.491 349.863,616.793 338.934,592.041C328.005,567.289 322.54,540.769 322.54,512.482C322.54,484.195 328.005,457.675 338.934,432.923C349.863,408.171 364.489,386.473 382.812,367.829C401.135,349.185 422.833,334.559 447.906,323.951C472.979,313.343 499.338,308.039 526.983,308.039C555.271,308.039 581.63,313.343 606.06,323.951C630.49,334.559 652.027,349.185 670.672,367.829C689.317,386.473 703.943,408.171 714.55,432.923C725.157,457.675 730.461,484.195 730.462,512.482Z" style="fill-rule:nonzero;"/>
    </g>
</svg>
