<?xml version="1.0" encoding="UTF-8" standalone="no"?>
<!DOCTYPE svg PUBLIC "-//W3C//DTD SVG 1.1//EN" "http://www.w3.org/Graphics/SVG/1.1/DTD/svg11.dtd">
<svg width="100%" height="100%" viewBox="0 0 110 110" version="1.1" xmlns="http://www.w3.org/2000/svg" xmlns:xlink="http://www.w3.org/1999/xlink" xml:space="preserve" xmlns:serif="http://www.serif.com/" style="fill-rule:evenodd;clip-rule:evenodd;stroke-linejoin:round;stroke-miterlimit:2;">
    <g transform="matrix(0.106526,0,0,0.106526,0.000014,0)">
        <path d="M887.391,551.156C872.043,550.039 857.872,545.217 843.641,542.512C830.939,540.102 817.709,543.212 804.949,543.395C769.491,543.978 734.267,541.69 699.044,541.161C670.76,540.744 646.944,547.335 617.602,543.455C599.902,541.161 592.258,542.522 575.322,543.337C564.679,543.87 561.855,541.803 552.918,540.162C523.634,534.811 491.704,544.337 461.597,541.212L452.189,536.096C454.836,530.274 460.303,524.981 465.891,521.983C484.473,512.164 509.523,517.631 531.339,512.75C550.862,508.398 570.619,495.991 589.966,493.345C600.432,491.928 623.072,489.7 633.245,489.816C643.653,489.999 657.766,495.52 669.056,496.402C697.634,498.696 722.685,486.994 752.498,488.758C773.726,490.058 789.015,495.991 810.654,487.825C832.176,479.711 850.17,461.422 863.577,443.84C877.984,425.023 897.271,417.614 920.851,418.496C937.786,419.146 946.901,425.552 962.013,430.844C962.896,431.144 963.895,431.377 965.012,431.661L974.185,435.13C975.485,443.128 976.655,451.184 977.595,459.298C981.124,490.287 981.3,520.983 978.828,551.149C948.956,549.682 916.908,553.324 887.389,551.149L887.391,551.156ZM963.422,639.235C947.017,638.818 930.492,640.235 914.262,638.002C895.739,635.355 886.801,628.299 871.218,624.124C846.638,617.538 819.059,617.773 793.715,618.008C745.496,618.358 696.16,619.832 647.707,618.067C636.829,617.65 616.659,617.067 606.603,614.598C603.839,613.898 601.429,612.363 599.194,610.599L601.194,604.602C605.84,603.669 612.66,600.133 616.836,599.368C622.54,598.251 629.538,599.601 635.477,599.068C662.762,596.774 690.164,591.717 716.038,583.78C747.027,574.312 785.249,590.896 818.238,591.248C840.289,591.431 861.341,594.012 882.922,594.6C906.384,595.3 907.561,592.718 927.318,584.427C942.96,577.783 959.836,575.136 976.772,573.607C973.89,595.893 969.421,617.827 963.424,639.231L963.422,639.235ZM914.146,753.486C913.329,754.369 912.562,755.02 911.911,755.136C907.912,755.903 901.915,754.786 897.386,755.136C853.695,758.665 812.533,766.837 768.137,766.721C755.259,766.721 740.323,764.487 727.974,765.071C699.513,766.488 670.876,770.952 642.239,771.892C589.375,773.597 536.57,768.482 483.941,772.942C462.007,774.824 426.961,783.762 406.85,776.471C391.208,770.825 386.093,755.772 367.511,750.068C331.641,739.013 300.24,745.541 269.721,766.003C267.074,767.767 250.375,779.645 253.786,782.938C265.371,783.355 273.897,774 284.246,769.413C291.067,766.356 307.003,760.18 313.942,758.947C327.232,756.537 357.809,758.297 368.041,767.356C383.094,780.704 401.5,791.759 422.61,793.053C429.607,793.47 436.605,791.753 442.721,791.87C462.361,792.337 491.822,792.403 510.58,795.339C529.338,798.279 532.161,805.512 545.391,815.097C559.093,824.977 575.204,827.68 592.022,826.387C607.075,825.204 619.307,817.214 634.948,823.623C641.475,826.328 649.648,834.678 656.94,836.206C664.878,837.856 676.933,835.789 685.577,837.673L699.572,843.142C680.167,849.376 661.879,859.489 647.766,874.308C644.767,877.483 637.828,888.126 634.359,888.773L550.8,888.832C533.512,893.889 515.165,892.184 497.348,894.418C470.24,897.77 449.953,911.824 422.609,914.47C381.447,918.41 330.17,919.292 288.949,917.704C285.715,917.586 281.833,918.754 279.188,918.754C253.726,904.112 229.676,887.059 207.389,867.595C118.243,789.681 61.322,683.541 47.091,568.698C42.564,531.946 42.504,494.959 46.741,458.501C71.262,454.914 96.724,451.857 120.069,462.03C120.069,462.03 137.828,470.614 141.65,473.261C158.762,485.257 176.05,499.664 187.223,518.01C191.692,525.361 191.575,531.3 198.101,539.414C208.509,552.292 225.092,564.17 242.086,565.64C274.31,568.462 304.182,548.175 337.641,559.231C341.933,560.648 345.697,563.935 349.401,565.288C354.693,567.228 360.926,567.17 366.395,569.522C391.034,580.165 402.677,621.916 431.549,620.211C458.657,618.627 473.652,596.278 505.053,594.573C528.809,593.273 554.977,594.106 566.032,618.329C570.736,628.62 566.849,634.324 576.44,643.614C584.203,651.142 599.079,657.316 609.899,657.081C617.367,656.898 623.601,653.436 630.01,652.67C652.238,649.848 669.702,650.376 688.813,662.785C697.222,668.196 700.926,676.368 712.746,676.898C714.28,676.957 726.564,673.253 728.8,672.311C740.501,667.547 753.674,658.139 766.493,653.141C789.603,644.027 812.653,648.789 835.293,656.67C848.935,661.434 860.343,674.076 875.22,675.84C889.392,677.49 890.45,672.43 901.505,668.961C915.912,664.434 938.492,663.669 953.134,667.079C953.901,667.262 954.434,667.02 954.668,667.197C944.26,697.187 930.676,726.059 914.153,753.461L914.146,753.486ZM828.417,858.424C742.682,937.103 630.25,980.441 511.761,980.441C458.25,980.441 405.915,971.385 356.755,954.215C358.172,952.681 362.224,952.216 364.106,951.745C411.795,940.749 473.127,931.811 521.875,934.457C539.692,935.457 557.51,941.278 575.386,940.103C584.559,939.52 606.669,935.928 615.137,933.106C630.485,927.932 635.189,907.174 642.951,895.119C658.358,871.186 684.054,863.012 708.458,852.545C735.037,841.195 736.037,819.909 755.618,806.09C761.38,802.033 782.021,793.917 789.312,791.86C817.949,783.627 854.525,786.568 879.575,803.268C864.11,822.673 847.174,841.196 828.416,858.426L828.417,858.424ZM87.907,313.73C95.551,313.789 103.079,316.552 110.605,317.082C142.653,319.492 172.936,307.321 206.16,314.025C225.565,317.965 238.972,331.666 259.142,335.723C286.897,341.25 320.121,331.843 346.289,346.661C337.821,358.774 321.239,352.835 309.008,352.658C275.549,352.191 241.267,353.125 207.513,352.841C190.166,352.658 174.466,348.726 158.059,357.898C148.475,363.249 147.063,367.894 134.773,370.246C111.605,374.833 87.966,371.296 64.738,373.833C71.03,353.369 78.791,333.318 87.906,313.736L87.907,313.73ZM130.716,239.704C160.412,197.483 196.987,161.26 238.208,131.682C249.146,125.273 259.906,122.214 274.431,120.979C283.545,120.212 306.067,120.979 312.536,127.976C314.3,129.858 321.357,141.324 322.709,144.03C326.884,152.439 320.18,161.436 319.592,170.55C318.242,191.66 338.762,201.775 356.991,204.421C367.869,206.005 397.271,205.121 405.386,210.713C410.502,214.182 414.97,220.532 422.028,224.12C446.02,236.116 462.72,232.469 487.006,236.056C501.766,238.173 515.055,251.521 527.933,254.226C539.694,256.636 556.57,253.876 569.683,255.876C574.682,256.643 579.798,260.933 574.27,264.814C571.153,267.049 561.04,265.464 556.394,265.864C541.869,267.097 537.048,266.681 522.935,265.864C501.295,264.564 478.068,277.977 452.783,275.86C395.685,271.038 336.411,273.45 278.843,273.566C241.973,273.684 204.516,273.507 167.411,273.684C151.006,273.743 133.893,276.978 117.252,275.919C114.253,275.736 111.371,274.619 108.314,274.802C115.253,262.866 122.721,251.163 130.718,239.697L130.716,239.704ZM353.758,71.227C359.05,72.41 375.339,83.929 378.632,86.986C383.689,91.632 388.982,98.922 389.805,105.921C390.505,112.565 386.336,129.442 389.272,133.147C404.032,142.32 426.612,154.904 421.555,175.603C419.38,184.541 412.146,191.127 410.382,200.124C403.208,197.184 394.563,195.537 386.861,194.655C375.453,193.355 349.756,194.472 340.818,187.187C338.524,185.363 334.291,176.721 334.114,173.839C333.814,167.195 340.641,158.727 340.758,151.553C341.175,134.265 329.527,124.092 315.473,116.742C312.533,115.208 299.126,109.803 296.715,109.803L272.082,109.803C297.956,94.455 325.24,81.401 353.76,71.228L353.758,71.227ZM603.437,248.224C608.611,226.937 623.077,214.824 640.601,202.945C658.889,190.655 689.76,188.068 709.224,198.77C738.449,214.824 743.095,230.994 782.611,227.936C814.482,225.466 822.95,200.299 845.413,182.893L845.763,182.593C884.75,221.873 916.092,267.505 938.79,317.782L936.026,320.076C931.027,323.663 921.031,330.014 919.149,331.072C913.152,334.247 898.098,340.656 891.747,341.538C869.225,344.478 847.821,331.894 825.946,329.483C811.304,327.833 790.37,330.783 776.198,335.245C767.025,338.127 756.146,345.888 746.855,347.065C730.273,349.3 707.575,347.415 690.11,348.298C658.121,350.003 629.425,354.767 596.789,346.881C587.028,344.471 578.266,337.355 567.858,334.591C538.574,326.828 500.234,334.174 469.421,332.709C455.543,332.059 435.139,330.239 421.614,328.182C415.968,327.299 408.324,320.656 402.327,318.479C386.038,312.422 363.105,313.892 345.699,313.715C337.29,313.597 337.936,312.598 331.174,311.598C322.706,310.298 313.004,311.898 305.595,305.952C304.545,304.302 305.412,302.012 306.528,300.718C309.175,297.601 321.405,295.072 325.639,294.779C369.389,291.31 414.608,298.248 457.241,295.962C470.531,295.262 483.938,292.082 497.286,291.435C530.451,289.785 570.731,294.257 603.132,288.083C604.956,287.733 606.307,286.201 608.071,285.789C604.896,270.794 599.603,263.973 603.425,248.214L603.437,248.224ZM693.983,140.429C707.45,128.963 725.266,120.142 742.437,113.615L742.254,113.556L749.898,110.734L749.957,110.734L752.662,109.667C752.603,109.667 752.544,109.608 752.479,109.549L752.538,109.549C782.469,127.425 809.636,148.418 834.275,171.704L830.158,175.233C815.223,186.759 805.049,208.81 786.761,214.22C756.419,223.218 743.188,200.578 718.902,190.228C715.433,188.694 697.145,182.23 694.557,182.23L671.682,182.23C675.446,164.824 680.208,152.182 693.968,140.421L693.983,140.429ZM944.176,337.178L946.411,336.178C956.819,362.169 965.052,389.219 970.756,417.268L969.051,416.568L968.992,416.568C958.172,410.629 944.706,404.395 932.946,403.043C906.249,399.868 863.558,410.334 847.328,433.091C838.744,445.146 827.747,457.847 815.986,467.491C796.228,483.78 777.352,478.546 753.713,476.37C709.846,472.313 665.096,477.954 621.053,469.726C614.702,469.608 608.351,470.026 602.001,469.844C599.061,469.726 596.355,468.661 593.18,468.611C559.192,468.261 546.431,476.667 517.853,453.674C513.796,450.44 494.038,445.795 488.393,445.265C446.408,441.325 395.66,446.382 352.381,445.324C335.681,444.907 318.804,442.914 302.281,441.914C287.874,441.097 270.762,442.381 256.65,439.562C249.771,438.212 244.949,433.8 236.48,433.035C200.963,429.683 157.213,433.618 120.579,433.035C111.993,432.917 103.467,433.153 94.941,433.094C93.236,433.035 84.121,432.094 82.886,431.677C77.594,430.093 86.238,421.621 88.532,420.974C92.531,419.741 100.233,421.157 104.997,420.741C112.406,420.091 119.932,418.154 127.283,417.624C130.693,417.391 134.399,418.974 139.279,418.207C147.628,416.907 156.802,410.563 164.859,408.151C183.852,402.389 205.492,399.39 225.368,400.683C249.948,402.333 284.112,413.091 306.928,400.866C313.572,397.337 318.336,390.81 324.099,386.813C337.094,377.757 364.497,374.17 380.256,375.052C424.888,377.522 466.168,402.278 513.739,394.81C542.259,390.341 566.544,378.815 596.475,376.169C641.577,372.229 718.021,386.635 755.538,366.936C762.065,363.467 766.593,358.938 774.238,355.528C802.581,343.062 821.163,341.415 851.153,349.942C865.56,354.059 877.967,359.291 893.903,358.175C911.191,356.992 926.068,346.002 941.416,338.476L941.357,338.476L944.176,337.178ZM764.944,66.154C686.324,21.405 599.648,0 513.678,0L513.619,0C351.792,0 192.671,75.856 95.057,214.632C-59.184,434.086 -21.785,725.103 178.675,900.396C273.29,983.073 392.484,1024 511.737,1024C636.459,1024 761.239,979.192 857.853,890.517C1114.47,654.892 1066.899,237.977 764.944,66.154Z" style="fill:rgb(165,164,196);fill-rule:nonzero;"/>
    </g>
</svg>
