<?xml version="1.0" encoding="UTF-8" standalone="no"?>
<!DOCTYPE svg PUBLIC "-//W3C//DTD SVG 1.1//EN" "http://www.w3.org/Graphics/SVG/1.1/DTD/svg11.dtd">
<svg width="100%" height="100%" viewBox="0 0 61 60" version="1.1" xmlns="http://www.w3.org/2000/svg" xmlns:xlink="http://www.w3.org/1999/xlink" xml:space="preserve" xmlns:serif="http://www.serif.com/" style="fill-rule:evenodd;clip-rule:evenodd;stroke-linejoin:round;stroke-miterlimit:2;">
    <g transform="matrix(0.058594,0,0,0.058594,0.000018,-0.000046)">
        <path d="M511.96,1009.647C486.288,1009.647 462.174,999.658 444.021,981.532L42.429,579.94C4.995,542.48 4.995,481.522 42.429,444.116L444.048,42.497C462.201,24.344 486.288,14.355 511.96,14.355C537.605,14.355 561.692,24.344 579.845,42.497L981.464,444.116C999.617,462.242 1009.579,486.356 1009.579,512.028C1009.579,537.673 999.616,561.787 981.464,579.94L579.872,981.532C561.719,999.658 537.605,1009.647 511.96,1009.647Z" style="fill:rgb(232,203,158);fill-rule:nonzero;"/>
    </g>
    <g transform="matrix(0.058594,0,0,0.058594,0.000018,-0.000046)">
        <path d="M511.919,14.436C487.304,14.435 462.71,23.798 444.025,42.483L42.444,444.104C5.055,481.493 5.055,542.503 42.444,579.892L444.025,981.513C462.722,1000.194 487.346,1009.559 511.958,1009.56C536.57,1009.561 561.143,1000.191 579.852,981.513L981.473,579.892C1018.833,542.501 1018.833,481.495 981.473,444.104L579.852,42.483C561.155,23.802 536.533,14.437 511.919,14.436Z" style="fill:rgb(232,203,158);fill-rule:nonzero;"/>
    </g>
    <g transform="matrix(0.058594,0,0,0.058594,0.000018,-0.000046)">
        <path d="M1009.046,512.209C1009.046,509.075 1009.08,505.942 1009.012,502.809C1009.012,501.832 1008.773,500.855 1008.64,499.878C1005.54,476.765 994.961,457.695 978.519,441.287C846.377,309.212 714.336,177.103 582.261,44.995C580.711,43.479 579.229,41.929 577.645,40.48C555.172,20.163 528.892,11.774 498.771,15.615C476.332,18.546 457.801,28.957 441.898,44.894C323.502,163.323 204.972,281.719 86.542,400.149C71.347,415.344 56.05,430.338 41.091,445.735C25.592,461.672 16.765,481.011 14.979,503.08C12.52,533.808 22.627,559.919 44.561,581.752C100.221,637.21 155.645,692.837 211.204,748.396C288.461,825.653 365.651,903.011 442.975,980.201C481.486,1018.644 541.492,1019.386 579.363,981.582C713.561,847.688 847.657,713.591 981.652,579.461C1000.116,560.997 1009.078,538.322 1009.044,512.211L1009.046,512.209ZM511.944,1024C480.477,1023.629 453.995,1012.005 431.825,989.802C342.641,900.449 253.355,811.198 164.07,721.912C120.573,678.381 77.042,634.85 33.511,591.353C9.286,567.094 -2.001,537.714 0.29,503.618C2.176,475.923 13.666,452.27 33.376,432.628C86.24,379.798 139.103,326.901 191.967,274.071C272.054,194.017 352.142,114.031 432.161,33.944C456.554,9.584 485.867,-2.006 520.233,0.285C547.76,2.104 571.311,13.391 590.853,32.933C723.871,165.985 856.89,299.003 989.874,432.089C992.805,435.02 995.636,438.019 998.263,441.186C1034.921,485.02 1032.225,549.609 991.794,590.04C858.304,723.597 724.78,857.054 591.257,990.51C569.323,1012.444 542.942,1023.664 511.945,1024L511.944,1024Z" style="fill:rgb(69,28,21);fill-rule:nonzero;"/>
    </g>
    <g transform="matrix(0.058594,0,0,0.058594,0.000018,-0.000046)">
        <path d="M218.982,676.305L195.734,676.305C195.4,676.305 194.521,675.426 193.039,675.493C189.973,675.627 187.142,677.38 185.357,679.772C185.357,683.781 211.334,681.625 215.546,683.31L217.096,682.632L218.982,676.305ZM547.653,738.67L645.665,738.67L608.603,638.67C594.183,587.154 570.699,538.367 554.863,487.424C552.673,480.416 552.033,472.128 550.011,465.524C549.237,463.098 546.575,463.098 547.653,459.459C545.362,459.354 545.901,459.153 545.666,460.975C544.826,467.68 546.573,474.486 546.711,480.719C547.017,492.949 545.701,505.315 547.688,517.377L547.653,738.67ZM663.017,738.67L721.912,738.67L619.453,452.553C617.263,451.646 618.038,454.844 617.971,456.024C616.455,484.427 618.005,515.458 618.005,544.164C618.005,572.634 614.669,602.014 625.384,628.8C634.043,650.464 643.949,673.409 650.182,696.084C654.124,710.471 654.394,725.902 663.019,738.671L663.017,738.67ZM517.971,378.329L474.912,378.329C469.69,386.718 467.264,397.635 455.067,397.197C452.91,397.092 452.001,395.58 450.99,395.445C449.642,395.244 448.227,396.391 446.475,395.98C439.736,394.43 433.099,383.615 429.359,378.325L407.088,378.325C408.469,382.705 413.523,385.704 416.522,389.208C426.428,400.764 435.019,413.635 444.217,425.832L517.97,425.832L517.971,378.329ZM368.477,509.999L330.876,509.999L330.876,611.447C330.876,618.219 324.373,635.773 322.385,643.59C319.016,656.764 314.77,667.545 310.795,680.483C304.798,699.823 299.609,719.465 293.241,738.67L311.57,738.67C314.906,733.818 317.736,727.484 319.487,721.857C334.885,672.834 351.933,623.576 366.96,574.283C379.426,533.313 396.711,493.084 410.558,452.552L411.093,595.678C407.185,628.36 390.675,658.919 381.41,690.725C376.761,706.695 375.244,723.744 367.461,738.67L390.271,738.67C396.234,711.042 406.073,684.627 414.732,657.74C433.229,600.328 456.342,543.691 474.671,485.975C477.535,476.979 479.186,467.444 482.353,458.482L482.319,738.669L511.497,738.736L512.507,735.704L513.08,738.602L517.965,738.669L517.965,434.762L569.447,435.739L569.447,477.821L575.377,493.151L576.354,430.786C552.432,430.652 528.51,430.958 504.555,430.82C494.717,430.786 484.778,430.753 474.939,430.82C467.122,430.887 447.446,432.033 441.246,429.742C436.63,428.057 427.735,412.694 423.894,407.808C418.166,400.463 411.933,393.185 405.565,386.245C404.184,384.728 401.084,379.338 400.14,378.799C398.253,377.789 382.856,377.853 381.811,379.267C380.865,381.962 380.025,387.993 378.104,389.914C376.015,391.969 363.212,398.034 360.011,395.406L358.562,397.629C357.417,428.963 360.28,460.365 359.607,491.732C359.502,495.977 357.349,499.784 359.712,503.895L369.449,504.029L368.477,509.999ZM315.006,407.034C324.642,405.517 335.39,405.72 345.262,405.989C346.812,406.023 352.641,408.044 352.641,405.521L352.641,389.686C352.641,388.979 343.881,380.791 343.24,378.332L313.995,378.332C313.661,379.377 315.005,380.489 315.005,380.791L315.006,407.034ZM377.876,371.388C393.813,370.643 409.951,371.961 425.888,371.388C421.777,359.933 418.644,349.151 417.836,336.853L387.277,334.764C386.165,347.264 381.953,359.73 376.428,370.916C376.161,373.948 377.438,371.384 377.877,371.384L377.876,371.388ZM308.065,334.764L308.065,371.388L340.747,370.882L334.817,334.764C325.788,334.458 317.095,334.229 308.065,334.764ZM451.494,267.58C447.181,264.817 435.928,281.259 434.075,285.033C421.575,310.134 422.754,344.163 432.829,369.938C436.131,378.429 436.94,384.628 447.148,387.222C450.483,377.957 455.335,369.028 458.064,359.527C465.207,334.628 465.174,300.936 455.907,276.542C455.439,275.397 451.931,267.816 451.494,267.58ZM359.548,384.257C365.511,368.051 371.812,350.295 374.272,333.145C376.766,316.029 378.956,295.713 373.16,279.068C371.341,273.846 367.803,269.466 363.895,265.625C355.64,263.974 343.477,288.199 341.961,294.904C338.322,311.144 339.872,361.144 350.182,374.317C351.327,375.766 353.147,376.238 354.057,377.383C354.897,378.428 357.629,386.042 359.549,384.257L359.548,384.257ZM628.854,336.717L613.017,336.717L613.017,339.682L647.653,339.682L648.731,390.558C649.199,392.141 651.527,392.58 652.976,392.209C653.986,392.008 660.489,376.98 661.231,374.588C664.971,362.627 664.263,350.767 667.228,338.975C666.282,333.82 669.25,310.673 666.218,308.247C663.624,307.913 656.616,305.08 656.447,302.586C656.648,296.925 658.67,293.893 664.399,293.085C663.085,271.724 647.89,246.724 636.502,280.551C630.437,298.61 628.989,317.781 628.854,336.717ZM515.006,339.682L574.406,339.682L575.451,392.108C578.955,394.567 583.335,385.538 584.48,382.978C590.679,368.962 593.88,343.76 594.217,328.362C594.389,321.488 592.836,314.986 593.105,308.146C580.908,308.18 579.628,295.343 591.151,293.085C588.725,283.82 586.063,259.359 571.677,265.188C567.398,266.974 562.984,279.271 561.603,283.854C556.381,300.869 556.044,319.063 555.606,336.751L478.821,335.706C475.991,346.757 471.947,357.909 466.692,368.152L466.558,371.286C470.534,373.577 473.97,371.42 477.811,371.353C491.187,371.019 504.63,371.659 517.973,371.387L516.928,344.197L515.006,339.682ZM480.369,278.329L480.369,243.188L478.92,241.907C462.68,245.916 455.302,239.144 448.159,225.836L397.182,225.836L397.182,271.894C397.182,272.066 398.765,273.343 399.136,274.893C402.371,288.235 407.694,302.858 408.132,316.402C408.266,320.579 408.304,324.758 407.087,328.835L417.97,328.835C417.368,315.931 421.17,300.87 426.158,288.977C432.223,274.59 450.888,250.938 467.937,263.472L480.369,278.329ZM573.394,218.929L569.452,218.929L568.475,241.705L486.265,242.682L486.265,297.635C486.265,298.78 489.601,305.283 490.005,307.743C490.444,310.473 489.537,317.345 491.185,318.491C496.037,319.303 523.732,321.389 525.45,318.997C525.889,315.561 526.357,310.776 525.956,307.474C525.717,305.487 523.766,306.464 523.834,304.644C523.939,300.635 525.721,295.008 525.956,290.729C526.529,276.915 525.383,262.966 525.889,249.119L527.371,246.66L573.395,246.66L573.394,218.929ZM629.829,210.034L397.182,208.012L397.182,219.905L452.64,219.905C454.291,221.623 454.797,226.172 455.201,226.88C455.535,227.482 457.02,227.759 457.593,228.565C459.311,231.092 460.457,233.889 463.018,235.741L524.406,235.741C527.405,230.283 525.888,221.489 524.874,215.424L526.525,213.133L623.863,213.973L623.863,263.467L629.826,259.019L629.829,210.034ZM519.924,201.105L519.924,175.869C519.924,175.497 520.934,174.252 521.104,173.544L528.415,171.455L595.463,171.627C597.788,172.305 606.952,184.599 608.468,187.328C610.455,190.866 614.701,204.983 619.418,204.073C621.103,202.86 621.237,201.782 620.732,199.861C620.264,198.109 614.129,185.98 612.848,183.924C609.816,179.106 604.088,174.895 601.089,170.683C599.741,168.762 601.796,165.225 595.732,164.416L436.535,163.709L427.438,167.516L403.112,200.097L519.924,201.105ZM563.994,149.623L470.43,149.623L472.115,144.637L513.018,143.691L513.591,139.715C520.127,138.769 527.068,140.692 533.267,140.76C538.388,140.794 556.549,138.469 559.042,140.693C559.577,141.161 563.658,150.7 565.477,148.61C566.05,145.41 559.884,136.278 557.088,135.739C530.168,133.381 503.348,136.111 476.361,135.739C475.96,134.661 476.8,131.797 477.878,131.797L513.019,131.797L513.019,124.89C521.914,126.339 531.213,126.07 540.276,125.935C542.971,125.868 546.037,124.587 548.092,124.857C551.528,125.296 553.921,131.932 557.054,133.752C559.345,131.999 558.132,132.337 557.188,130.72C555.234,127.452 553.145,126.104 550.989,123.645C550.722,123.339 551.457,122.095 550.722,121.422C547.353,118.524 530.742,119.906 525.351,119.906L509.583,119.906C498.195,119.906 486.706,120.345 475.351,119.4L458.572,156.563L512.548,156.63C517.973,150.902 527.743,154.473 535.324,153.598C537.918,153.292 539.603,151.88 542.198,151.576C546.14,151.108 561.942,151.003 564.469,153.126C567.299,155.552 566.456,161.92 572.421,160.505C573.367,159.665 566.895,150.229 563.998,149.622L563.994,149.623ZM238.763,622.834L266.02,523.879C264.875,522.026 251.128,513.3 248.399,511.783C211.607,491.264 155.812,466.601 115.044,456.999C102.611,454.068 89.404,453.428 77.409,449.115L82.429,445.106C102.004,448.408 121.613,452.181 140.582,458.246C174.814,469.162 215.312,487.154 247.051,504.203C254.767,508.314 261.775,513.839 269.457,517.882C270.67,508.381 277.948,497.262 278.992,488.199C279.393,484.728 277.105,481.764 280.34,478.765C277.173,475.429 273.938,471.993 270.468,468.893C236.843,438.738 191.931,415.895 148.871,402.384C142.402,400.329 135.495,399.149 128.891,397.634L284.349,242.21C297.961,240.795 311.808,242.315 325.454,241.742C334.315,241.37 345.13,240.428 354.126,239.72C361.168,239.118 368.142,236.721 375.42,237.698C375.621,236.013 373.162,236.791 371.949,236.721C368.007,236.587 363.997,236.893 360.056,236.721C345.939,236.081 331.72,236.349 317.435,236.721C308.607,236.893 299.241,239.451 290.279,236.253L422.893,103.538C442.536,97.339 463.998,96.092 484.652,93.06C508.978,89.489 533.776,85.041 558.135,82.379C562.279,81.94 576.396,80.492 579.328,81.844L732.798,235.28C731.852,236.729 730.877,236.628 729.395,236.797C711.471,238.751 692.03,236.53 674.004,238.852C672.926,238.986 669.388,239.224 669.456,240.705C684.685,241.584 700.217,242.423 715.514,241.75C722.893,241.416 730.339,238.381 737.717,240.233L911.975,414.457C895.061,418.534 877.642,421.095 860.863,425.71C829.9,434.167 786.402,451.114 760.594,469.982C758.572,471.464 756.887,474.194 754.933,475.272C752.507,476.553 751.058,475.238 749.677,475.845C749.209,476.017 742.702,482.28 742.702,482.752L742.702,514.457C742.702,514.629 740.579,516.175 742.196,516.916C756.077,504.686 773.901,495.555 790.983,488.48C832.998,471.061 890.915,459.033 936.198,457.483C940.241,457.349 951.764,456.805 954.83,457.722C956.919,458.324 959.547,462.607 961.468,463.955C954.999,463.989 948.564,465.909 942.162,466.414C924.507,467.896 905.606,466.519 888.186,469.85C850.653,477.094 813.388,486.764 778.651,502.902C771.98,506.001 745.7,518.94 742.667,524.297C738.658,531.237 748.293,546.399 750.922,553.778C759.21,577.464 765.208,606.136 774.877,628.811C775.584,630.462 776.798,631.877 777.572,633.528L887.241,633.767L875.651,645.425L800.618,646.638L793.206,647.615C792.394,650.041 793.98,654.555 796.677,654.555L866.454,654.555L795.161,724.804L699.137,449.603L699.137,478.343L677.372,477.333L677.372,415.945L730.842,416.384L731.749,418.338C729.626,422.583 731.715,426.222 731.854,430.265C732.093,439.126 730.338,454.22 731.854,461.97C732.188,463.823 735.122,467.226 736.774,468.405L736.774,380.804C740.345,377.064 746.949,382.387 748.432,375.615C749.746,369.416 749.005,351.323 748.671,344.112C748.537,341.889 748.537,338.215 747.155,336.733L689.237,336.733L689.237,340.709C707.296,341.922 725.659,342.495 743.684,340.709L743.684,375.379L693.684,377.333L694.694,379.32L730.846,379.32L730.846,410.519C730.846,410.758 731.991,411.293 731.381,412.001C730.875,412.746 730.168,412.88 729.326,412.978C719.69,414.46 703.214,412.911 692.736,413.012C689.4,413.079 674.037,412.172 672.857,413.919L673.163,475.88L671.782,477.194C665.852,477.872 660.023,478.101 654.093,478.339C652.577,478.373 650.185,477.393 650.622,479.788C651.767,481.54 653.284,481.203 655.035,481.338C665.614,482.178 677.339,481.577 687.75,481.304C691.557,481.17 695.365,481.371 699.138,481.304L699.138,611.458C699.138,611.993 701.53,617.691 701.901,619.679C704.395,633.527 708.134,647.543 712.716,661.188L736.773,738.681L782.292,738.681C779.833,741.579 776.8,746.127 772.959,746.666C759.617,748.452 736.706,746.8 722.386,746.666C608.505,745.554 494.793,746.532 380.878,746.666C336.842,746.7 292.738,746.933 248.702,746.093C246.444,743.061 237.583,736.996 237.954,733.492C242.502,722.171 247.32,710.851 251.397,699.328C259.854,675.777 268.749,650.339 275.352,626.249C286.538,585.313 296.444,546.836 310.089,506.573C315.884,489.525 321.646,469.073 328.62,452.8C329.126,451.587 329.126,449.869 330.878,449.6L330.878,504.047L352.643,504.047L352.643,411.985L315.003,411.985L315.003,429.303C315.003,429.742 311.331,434.829 310.59,436.749C308.198,442.881 307.154,451.237 305.031,457.942C291.453,501.203 275.247,545.037 263.623,588.804C255.47,619.565 245.193,649.687 232.12,679.066L219.957,715.926L146.709,643.655L220.967,643.655C221.034,643.655 220.9,642.61 221.072,642.442C224.071,640.521 222.285,639.713 219.724,637.422L140.311,636.677L125.924,622.829L238.763,622.834Z" style="fill:rgb(69,28,21);fill-rule:nonzero;"/>
    </g>
    <g transform="matrix(0.058594,0,0,0.058594,0.000018,-0.000046)">
        <path d="M574.193,908.764C576.888,906.372 574.327,899.465 569.981,900.004C535.446,902.026 498.182,897.477 463.95,900.038C461.491,900.21 452.427,900.984 452.933,904.519C453.439,908.023 461.929,908.764 464.961,909C487.232,910.583 514.455,909.678 537.232,909.977C542.488,910.082 572.104,910.617 574.193,908.764ZM507.077,826.824C504.685,823.589 479.382,825.005 473.856,824.837C438.411,823.792 401.518,822.074 365.972,823.792C360.952,823.993 355.628,825.477 350.305,824.972C347.575,825.879 347.105,832.25 349.703,834.204C353.544,837.068 377.129,835.45 383.834,835.653C420.188,836.663 457.317,838.079 493.638,835.619C496.368,835.447 499.063,835.686 501.657,836.297L507.077,826.824ZM425.676,773.623L418.971,777.801L423.924,783.698L644.206,784.233C646.261,784.099 655.527,782.548 656.571,781.774C661.321,778.169 653.202,772.778 649.192,773.25L425.676,773.623ZM764.488,756.508L747.103,773.287L680.796,773.287C678.337,773.392 674.63,775.039 674.462,777.7C673.889,788.28 687.063,783.326 693.667,783.192C708.323,782.858 723.081,783.498 737.737,783.259L694.476,826.588C679.719,826.588 664.826,827.295 650.103,826.827C621.801,825.92 592.522,822.818 563.951,824.772C562.03,824.906 554.922,825.546 554.012,826.726L553.611,829.725C557.318,829.691 559.137,833.836 561.799,834.947C563.685,835.787 572.143,836.497 574.905,836.665C611.226,838.923 648.759,833.329 685.282,836.197L556.037,965.374C530.296,986.735 492.964,986.6 467.459,964.906L286.294,783.707C316.786,783.239 347.412,782.73 377.938,783.201C383.295,783.268 405.937,787.682 404.117,776.968C404.117,776.767 401.321,774.003 401.118,773.902C397.782,772.217 371.199,773.53 364.966,773.396C362.608,773.329 360.451,772.351 358.127,772.318C330.735,771.783 303.309,772.824 275.917,772.318L259.576,756.516L764.488,756.508Z" style="fill:rgb(69,28,21);fill-rule:nonzero;"/>
    </g>
    <g transform="matrix(0.058594,0,0,0.058594,0.000018,-0.000046)">
        <path d="M573.401,76.352C526.164,78.61 479.803,88.953 432.802,94.175C454.5,73.218 472.694,45.354 505.612,42.726C534.891,40.368 555.645,54.855 573.401,76.351L573.401,76.352Z" style="fill:rgb(69,28,21);fill-rule:nonzero;"/>
    </g>
    <g transform="matrix(0.058594,0,0,0.058594,0.000018,-0.000046)">
        <path d="M440.491,297.291C451.778,295.304 453.867,319.899 439.985,314.205C432.033,310.903 435.1,298.235 440.491,297.291Z" style="fill:rgb(69,28,21);fill-rule:nonzero;"/>
    </g>
    <g transform="matrix(0.058594,0,0,0.058594,0.000018,-0.000046)">
        <path d="M365.289,299.312C366.196,300.828 364.955,309.622 363.571,310.565L354.609,311.004C355.721,307.096 352.554,307.601 352.554,304.602C352.554,299.918 354.306,295.101 359.832,296.314C360.51,296.448 365.156,299.044 365.29,299.313L365.289,299.312Z" style="fill:rgb(69,28,21);fill-rule:nonzero;"/>
    </g>
</svg>
