<?xml version="1.0" encoding="UTF-8" standalone="no"?>
<!DOCTYPE svg PUBLIC "-//W3C//DTD SVG 1.1//EN" "http://www.w3.org/Graphics/SVG/1.1/DTD/svg11.dtd">
<svg width="100%" height="100%" viewBox="0 0 61 60" version="1.1" xmlns="http://www.w3.org/2000/svg" xmlns:xlink="http://www.w3.org/1999/xlink" xml:space="preserve" xmlns:serif="http://www.serif.com/" style="fill-rule:evenodd;clip-rule:evenodd;stroke-linejoin:round;stroke-miterlimit:2;">
    <g transform="matrix(0.058594,0,0,0.058594,0.000027,-0.000007)">
        <path d="M511.96,1009.647C486.288,1009.647 462.174,999.658 444.021,981.532L42.429,579.94C4.995,542.48 4.995,481.522 42.429,444.116L444.048,42.497C462.201,24.344 486.288,14.355 511.96,14.355C537.605,14.355 561.692,24.344 579.845,42.497L981.464,444.116C999.617,462.242 1009.579,486.356 1009.579,512.028C1009.579,537.673 999.616,561.787 981.464,579.94L579.872,981.532C561.719,999.658 537.605,1009.647 511.96,1009.647Z" style="fill:rgb(232,203,158);fill-rule:nonzero;"/>
    </g>
    <g transform="matrix(0.058594,0,0,0.058594,0.000027,-0.000007)">
        <path d="M511.919,14.436C487.304,14.435 462.71,23.798 444.025,42.483L42.444,444.104C5.055,481.493 5.055,542.503 42.444,579.892L444.025,981.513C462.722,1000.194 487.346,1009.559 511.958,1009.56C536.57,1009.561 561.143,1000.191 579.852,981.513L981.473,579.892C1018.833,542.501 1018.833,481.495 981.473,444.104L579.852,42.483C561.155,23.802 536.533,14.437 511.919,14.436Z" style="fill:rgb(232,203,158);fill-rule:nonzero;"/>
    </g>
    <g transform="matrix(0.058594,0,0,0.058594,0.000027,-0.000007)">
        <path d="M499.959,15.274C482.034,17.093 462.223,26.595 448.678,38.253L33.039,455.206C6.826,491.662 9.016,541.326 38.295,575.322L448.173,985.233C484.663,1017.039 538.74,1017.275 575.432,985.701L985.31,575.857C1017.251,539.637 1017.251,485.121 985.778,448.598L575.9,38.72C554.539,20.222 528.19,12.372 499.956,15.27L499.959,15.274ZM501.942,0.412C534.557,-2.283 563.634,8.33 587.792,29.826L994.705,436.705C1034.126,481.416 1033.755,543.243 994.199,587.718L587.286,994.631C542.609,1034.052 480.782,1033.681 436.273,994.163L29.394,587.217C-10.061,542.54 -9.69,480.679 29.862,436.204L436.775,29.325C454.767,13.321 477.645,2.438 501.938,0.416L501.942,0.412Z" style="fill:rgb(69,28,21);fill-rule:nonzero;"/>
    </g>
    <g transform="matrix(0.058594,0,0,0.058594,0.000027,-0.000007)">
        <path d="M542.8,455.574C540.879,457.832 532.422,459.078 533.366,465.008C534.273,468.748 542.227,469.725 545.529,470.634C602.74,468.545 661.905,473.397 718.948,470.668C726.192,470.334 734.043,468.747 741.388,468.511C749.845,460.694 735.054,455.708 728.652,454.966C721.778,454.192 711.772,455.071 704.123,454.861C686.4,454.422 648.462,455.906 635.22,444.989C621.136,433.365 626.696,416.653 641.049,408.533C652.808,401.895 667.431,403.58 680.268,400.481C692.398,397.55 671.541,386.431 668.037,384.578C639.229,369.012 594.047,367.799 570.125,392.765C553.278,410.353 565.981,438.015 548.359,450.818C544.518,453.581 546.136,451.697 542.799,455.569L542.8,455.574ZM623.73,344.685C620.36,344.074 617.935,341.417 614.97,340.103C599.606,333.398 568.339,331.141 553.244,338.486C549.572,340.239 543.641,346.303 541.148,347.078C525.986,351.762 509.443,345.326 497.246,360.319C489.8,369.416 488.418,378.817 495.797,388.352C504.658,399.74 509.375,395.63 520.966,398.696C526.256,400.111 529.962,405.098 524.638,408.602C516.888,413.757 488.89,410.523 484.408,417.395C480.163,423.965 500.648,426.155 504.152,426.29C508.667,426.462 512.204,425.313 515.945,425.28C527.232,425.246 538.553,425.519 549.84,425.175C554.388,410.99 557.42,396.098 569.18,385.922C582.893,374.096 602.503,365.538 620.899,367.189C619.686,359.271 622.718,352.33 623.729,344.682L623.73,344.685ZM781.448,336.661C783.537,335.144 785.255,331.439 786.132,329.046C791.118,315.67 788.423,304.922 786.371,291.343C792.739,295.723 794.592,298.958 795.232,306.64C797.018,328.069 786.203,347.106 768.581,358.763C758.271,365.569 744.996,367.894 734.854,375.239C727.744,380.428 733.608,381.573 739.571,382.011C757.26,383.292 790.347,380.798 806.62,374.127C819.457,368.803 835.663,357.752 839.067,343.567L844.155,348.957C842.706,355.123 838.461,359.907 834.687,364.759L819.862,377.023C834.923,375.608 849.984,373.62 864.573,369.375L878.96,383.93C868.919,385.211 859.014,387.838 848.939,388.85C824.545,391.309 799.41,391.95 775.117,391.781C756.249,391.676 730.709,395.588 715.109,384.806C693.377,369.745 719.758,355.729 734.179,350.473C734.647,352.528 733.067,352.696 731.956,353.64C725.487,359.031 702.441,370.284 717.771,378.944C719.523,377.596 720.669,376.013 722.656,374.867C735.291,367.556 763.998,357.582 770.5,345.891C774.24,339.085 772.454,330.156 771.14,322.811C768.344,307.11 763.93,299.125 748.633,293.127C717.265,280.829 674.036,291.779 651.9,316.948C641.253,329.044 626.967,349.63 630.336,366.342C639.332,368.801 654.932,368.667 663.018,372.845C664.669,373.724 664.871,375.439 666.017,376.012C687.749,386.827 702.675,396.127 727.777,397.71C757.528,399.596 796.545,398.417 826.262,395.756C844.254,394.139 863.224,390.702 880.643,386.086C882.058,386.153 886.876,390.028 884.888,391.342C881.99,393.263 864.066,396.699 859.483,397.475C822.488,403.472 776.362,403.101 738.592,402.697C729.023,402.592 726.496,403.877 717.904,404.618C697.688,406.37 665.208,403.337 647.115,412.637C641.253,415.636 636.569,419.915 636.569,426.788C636.569,433.089 638.995,435.986 644.521,438.614C657.56,444.847 686.233,442.185 701.126,442.05C709.482,441.945 741.187,443.465 746.41,440.028C750.285,437.4 746.477,434.536 743.243,433.458C736.067,431.066 720.466,433.764 715.48,429.751C712.886,427.662 716.254,424.158 718.512,422.945C721.511,421.26 732.461,420.486 736.572,420.351C770.568,419.105 804.464,420.752 839.067,418.397C861.641,416.847 884.182,413.984 906.588,411.086L910.496,415.466C890.314,417.993 870.199,420.756 849.916,422.373C831.284,423.822 812.314,425.035 793.749,426.281C787.415,426.72 780.844,425.574 774.544,426.787C779.8,434.839 788.493,438.58 795.265,444.51C800.69,449.294 808.608,459.503 814.403,462.805C818.716,465.299 829.902,464.422 835.124,464.726C859.956,466.242 885.057,466.815 909.687,462.435C920.334,460.548 929.431,458.594 937.585,450.912L939.067,443.533C942.369,447.846 948.973,452.091 951.904,456.303C952.439,457.143 953.252,457.313 952.85,458.797C941.495,463.783 928.995,469.343 916.63,471.365C903.928,473.454 889.44,471.737 876.535,471.566C857.431,471.299 838.563,472.311 819.863,467.691C827.747,475.272 835.497,483.56 844.189,490.164C870.301,509.908 908.644,534.437 937.822,549.161C939.068,549.801 939.035,551.048 940.281,551.655C945.537,554.216 952.31,555.934 957.768,558.293C958.169,559.809 957.367,559.944 956.791,560.787C955.342,562.91 935.969,582.384 934.452,582.755C913.865,579.284 893.818,572.883 873.265,569.412C817.772,560.079 761.303,563.246 705.473,567.66C702.575,567.02 684.044,552.431 680.506,549.398C671.779,541.952 663.423,528.744 650.789,528.138C631.483,527.128 607.561,535.55 588.895,533.664C581.112,532.852 569.993,522.309 564.771,516.413C563.558,514.998 553.922,500.207 551.934,502.161L567.871,528.105L579.529,541.043C588.491,542.627 597.555,542.761 606.652,542.593C612.582,542.459 620.197,541.953 626.295,541.548C635.661,540.946 643.816,537.033 653.62,540.841C656.484,541.953 672.05,554.453 675.554,557.351C680.035,561.057 685.055,565.674 688.863,570.087C655.709,572.479 622.184,579.858 589.94,587.911C572.655,592.258 552.136,597.277 535.66,603.578C527.573,606.678 506.482,619.279 499.44,617.19C497.789,616.684 496.745,614.36 494.116,613.652C481.077,610.282 463.422,614.024 450.012,614.464C433.502,615.066 409.85,613.518 394.283,616.822C385.556,618.709 385.152,628.615 385.59,635.993C387.308,638.587 408.434,638.385 412.309,637.846C418.879,636.869 422.08,632.556 427.538,630.4C442.531,624.571 465.005,630.505 481.009,629.255L471.609,634.073C463.017,635.05 454.526,632.928 446.002,633.096C428.987,633.497 421.676,643.17 402.74,644.046C366.688,645.663 314.295,634.746 280.636,644.08C276.997,645.09 265.44,648.831 267.731,653.817C270.595,660.185 280.804,658.365 286.229,659.039C290.609,659.612 311.196,665.172 300.01,670.326C293.777,673.224 270.36,671.233 261.802,671.539C259.713,671.606 257.793,672.485 255.905,672.549C231.343,673.361 206.511,672.348 182.117,675.548L72.277,566.652C86.967,557.69 103.578,551.221 116.55,539.563L52.028,538.586L48.592,534.678L121.032,533.633C155.972,537.44 191.451,532.754 226.424,534.61C228.985,534.744 240.272,535.79 241.249,536.564C243.877,538.552 242.731,541.146 239.732,542.09C235.385,543.505 214.833,542.625 212.98,545.122C211.329,555.769 214.766,559.374 225.413,559.374C239.126,559.34 253.951,558.935 267.799,558.329C296.438,557.116 321.236,546.705 349.539,544.515C379.223,542.19 408.637,538.955 438.219,536.664C445.867,536.091 447.35,534.541 453.448,532.183C458.838,530.128 472.35,527.163 459.782,521.906C445.496,522.04 429.492,517.694 415.509,517.897C411.196,517.964 405.199,519.851 400.785,519.919C368.338,520.454 335.319,520.597 303.176,519.04C302.708,519.006 302.775,520.59 301.996,520.793C296.436,522.141 274.435,521.905 268.943,520.659C267.831,520.42 262.373,516.952 262.34,516.447C264.025,514.83 266.484,512.471 268.775,512.067C271.774,511.494 278.984,511.16 282.488,510.989C304.86,509.809 328.681,512.337 350.312,506.878C356.579,501.285 350.379,501.958 345.46,501.285C333.634,499.668 308.566,501.218 299.502,494.31C297.649,492.861 297.211,490.132 294.111,488.582C283.43,483.157 255.701,487.302 243.167,487.402C210.754,487.708 178.645,486.829 146.636,485.583C143.637,485.449 130.8,487.402 128.913,489.39C118.94,499.936 140.807,502.295 130.261,510.448C124.836,514.66 111.595,514.693 104.284,514.996C84.304,515.808 64.324,512.671 44.647,515.942L44.613,508.631C57.854,507.25 71.298,508.526 84.573,508.096C86.932,508.029 89.054,507.15 91.379,507.051C102.094,506.545 113.886,508.668 123.455,502.638C115.335,488.756 129.452,483.669 140.807,482.591C165.1,480.266 191.886,484.141 216.347,483.231C226.893,471.977 240.741,461.162 250.478,449.437C257.689,440.812 263.854,429.524 270.728,420.528C275.613,423.392 279.792,429.457 284.98,431.748C290.573,434.207 299.906,435.522 306.106,437.206C310.284,438.318 315.406,441.788 319.718,440.913C321.369,440.579 337.744,427.099 340.17,424.841C344.415,420.933 346.942,416.148 352.03,413.048L370.292,389.901C371.37,389.662 377.367,395.562 379.221,396.606C387.004,401.019 387.004,400.11 394.417,406.04C399.807,410.319 408.366,413.52 413.959,418.001C418.07,421.303 419.283,424.807 422.382,428.277C430.3,437.037 446.473,446.539 458.366,446.977C460.893,444.854 445.664,439.194 444.619,438.554C433.298,431.816 431.31,424.335 423.898,415.946C420.192,411.802 413.352,410.252 412.375,404.086C425.616,391.99 438.656,378.075 449.471,363.755C450.616,362.171 452.436,360.352 452.436,358.365C449.64,355.569 431.108,376.526 428.716,378.446C421.674,384.174 411.869,389.598 404.221,394.349C402.536,395.427 401.559,397.483 399.773,398.493C397.078,398.694 374.806,377.266 372.178,373.122C364.496,380.737 357.555,391.687 349.503,398.729C348.222,399.874 346.303,400.245 345.156,401.256C332.925,411.768 320.459,423.999 302.736,417.968C308.7,409.241 313.889,399.774 318.336,390.205C320.493,385.623 324.67,376.761 325.984,372.213C326.156,371.573 326.961,370.225 325.879,370.158C319.949,370.292 314.019,369.986 308.089,370.124C249.699,371.169 188.242,372.819 135.58,401.492L112.601,415.475L147.137,380.535C206.302,355.299 270.892,363.857 333.561,363.284C335.279,362.845 341.075,351.693 342.658,349.537C347.578,342.934 361.055,324.57 366.311,319.988C367.19,319.214 368.534,318.438 369.647,318.371C370.624,318.266 382.922,326.828 386.46,328.277C392.727,330.871 399.904,332.489 406.44,334.915C409.675,336.161 415.571,340.946 418.502,338.722L431.743,321.909C428.172,321.537 426.521,325.008 423.32,325.784C418.468,326.896 411.864,326.829 407.147,325.345C410.449,320.661 411.325,313.384 414.189,308.734C419.209,300.479 431.238,291.079 436.73,281.072C437.169,280.26 438.111,280.027 437.676,278.545C420.257,278.784 403.814,272.312 387.001,268.74C337.843,289.765 283.26,297.986 229.822,298.255L236.257,292.358C285.415,292.324 334.473,283.126 380.531,266.718L364.122,259.002C349.836,251.252 328.07,233.732 321.938,218.469C320.725,215.437 318.602,210.618 319.95,207.653L345.591,182.012L339.627,193.805C336.763,204.62 338.748,227.903 346.534,236.225C357.383,247.917 372.444,257.384 387.673,262.034C405.261,267.459 425.477,270.491 443.873,271.468C452.768,264.73 457.957,254.352 465.47,246.367C465.642,246.166 467.054,246.739 467.693,246.128C478.138,235.548 482.855,220.083 494.176,210.615C504.183,223.25 521.602,228.304 531.744,240.13C539.595,249.194 545.693,262.165 553.105,271.97C558.193,278.708 564.359,283.999 568.873,291.141C575.983,290.53 597.478,293.702 602.128,288.85C603.712,287.199 604.419,283.257 604.217,280.999C603.51,272.441 575.982,255.898 568.671,249.496C542.694,226.686 535.011,199.327 540.099,165.263C533.664,166.476 527.329,168.329 520.793,169.07C489.088,172.742 439.761,163.073 409.302,152.762C403.44,150.74 391.815,146.798 387.065,143.462C385.684,142.485 384.943,141.171 386.96,140.632C388.846,140.193 404.817,147.303 408.591,148.55C423.416,153.368 439.825,157.277 455.189,160.039C483.289,165.025 513.984,168.867 541.612,160.345C545.79,151.147 549.631,139.961 555.056,131.47C558.156,126.652 567.287,116.308 571.599,112.534C575.608,109.098 591.545,98.585 596.229,100.741C599.733,102.325 608.359,113.881 611.997,116.981C598.284,114.286 583.054,118.565 571.734,126.449C542.623,146.631 537.67,200.675 557.044,228.64C570.05,247.373 584.032,252.933 600.138,266.309C606.035,271.194 612.706,280.393 610.044,288.378C637.403,281.875 616.378,247.171 611.762,230.055C607.753,215.264 609.067,204.145 614.492,189.926C620.489,174.259 631.136,158.457 647.006,151.718L659.304,163.814C634.405,175.506 623.185,190.701 624.836,218.936C626.049,239.59 637.437,254.55 643.03,273.62C648.555,292.522 643.603,305.932 624.263,311.963C609.438,316.612 589.391,317.556 574.599,313.513C592.726,312.634 612.403,313.885 628.778,304.685C636.46,300.373 643.873,290.062 636.123,282.481C634.202,282.013 626.891,293.734 623.791,295.722C619.31,298.62 609.134,299.9 603.71,300.27C574.936,302.089 546.499,299.936 516.95,302.157C508.561,302.797 489.962,301.079 484.369,308.019C481.438,311.691 481.775,318.295 486.627,319.711C492.422,321.396 500.037,318.899 506.978,323.013C514.728,327.662 508.427,333.997 501.217,334.705C488.548,335.951 473.69,334.839 461.156,336.221C459.202,336.422 454.99,338.007 455.395,340.601C461.493,342.185 467.087,340.601 472.612,340.567C486.831,340.462 522.074,343.599 533.125,337.063C536.528,335.075 538.751,329.381 539.863,328.775C547.545,324.563 580.8,325.136 590.706,325.945C603.981,327.057 616.751,331.269 628.746,336.659C630.969,330.392 635.552,324.024 639.595,318.701C653.881,299.9 668.066,287.097 691.819,281.032C718.639,274.125 761.328,280.831 776.086,307.077C777.198,309.132 781.443,318.87 781.443,320.386L781.448,336.661Z" style="fill:rgb(69,28,21);fill-rule:nonzero;"/>
    </g>
    <g transform="matrix(0.058594,0,0,0.058594,0.000027,-0.000007)">
        <path d="M698.705,818.365L673.368,842.759C665.248,842.725 657.094,842.291 648.974,841.985C633.408,841.412 597.558,838.649 585.934,850.846C579.296,857.787 587.012,867.861 595.031,869.344C603.387,870.86 610.9,869.344 618.347,869.611C627.343,870.012 628.354,878.675 621.143,882.111C615.246,884.941 594.121,887.872 586.944,888.31C548.23,890.904 508.506,886.895 469.692,889.287C464.739,889.593 452.744,890.432 449.779,894.509C444.153,902.157 454.395,907.683 460.931,908.862C475.958,911.625 505.406,906.874 515.952,919.846C522.32,927.764 515.484,936.76 507.832,940.23C490.75,948.047 468.209,942.319 450.014,943.43L441.625,935.579C446.376,935.684 451.161,935.445 455.945,935.512C463.897,935.646 472.219,936.522 480.272,934.332C493.412,930.794 490.986,921.326 479.326,917.047C472.891,914.722 470.128,916.808 464.771,916.646C445.465,916.073 429.562,895.925 453.45,886.827C463.49,883.02 475.62,884.333 486.301,883.424C487.682,877.864 492.231,877.157 497.386,876.585C514.233,874.766 533.707,876.957 550.453,875.44C553.957,875.173 566.558,872.441 560.157,867.724C548.297,858.964 538.29,865.366 526.599,859.941C518.715,856.269 514.874,846.868 505.676,845.386L467.906,843.769C456.922,834.268 467.6,832.684 476.531,832.078C496.781,830.832 544.018,838.042 556.856,820.824C563.831,811.458 558.642,806.504 549.039,804.011C534.854,800.339 521.175,802.866 507.091,802.63C489.031,802.363 471.309,799.227 453.451,805.056C449.104,806.471 442.703,811.828 439.098,812.401C424.475,814.726 399.98,812 383.942,812.401C381.617,812.435 379.461,813.446 377.136,813.446C359.076,813.847 341.152,813.713 323.159,815.198L318.442,812.975L241.622,735.615L344.588,736.592C408.403,740.366 469.219,748.081 531.046,763.85C588.19,778.439 642.402,801.216 698.703,818.366L698.705,818.365Z" style="fill:rgb(69,28,21);fill-rule:nonzero;"/>
    </g>
    <g transform="matrix(0.058594,0,0,0.058594,0.000027,-0.000007)">
        <path d="M382.518,691.295L381.508,693.249C386.73,692.647 391.447,692.137 396.805,692.272C470.324,694.294 563.317,719.53 634.881,738.836C667.159,747.563 705.805,758.547 735.826,772.866C737.106,773.477 741.723,774.888 741.048,776.471L704.12,813.096C681.546,804.235 658.129,797.698 635.15,789.814C621.942,785.266 609.038,779.504 595.763,774.989C479.488,735.501 358.091,724.752 235.448,729.503L194.376,688.364C198.924,689.109 203.372,687.524 207.617,687.319C242.321,685.634 278.406,687.214 313.009,688.397C336.19,689.171 359.337,690.587 382.518,691.295Z" style="fill:rgb(69,28,21);fill-rule:nonzero;"/>
    </g>
    <g transform="matrix(0.058594,0,0,0.058594,0.000027,-0.000007)">
        <path d="M748.197,667.874C746.715,669.356 746.613,673.602 747.49,675.489C749.074,678.993 755.913,678.588 755.913,681.924C755.913,688.022 737.651,686.068 733.676,686.372C729.228,686.744 724.545,688.124 719.929,688.394C706.654,689.072 692.671,687.554 679.43,686.473C674.915,684.451 676.869,681.824 680.912,680.88C688.594,679.027 711.371,683.879 714.066,675.556C716.761,667.301 697.961,670.603 694.322,670.636C678.992,670.808 659.989,669.626 645.13,671.646C640.379,672.324 637.616,675.891 634.146,676.43C626.43,677.676 607.865,675.924 602.205,680.001C596.241,684.314 608.338,687.817 611.639,688.222C618.782,689.062 631.215,686.2 636.336,689.101C643.344,693.11 634.011,699.748 642.637,704.499C652.981,710.16 672.995,705.034 684.45,705.005C686.708,705.005 688.898,706.05 691.289,706.117C703.553,706.318 728.958,705.072 738.594,711.979C748.769,719.257 743.176,723.03 743.042,731.218C742.908,737.316 750.286,737.283 755.34,737.62C763.763,738.193 772.052,736.475 780.475,736.61C778.217,739.036 772.995,745.842 770.098,746.448C764.708,747.458 746.749,746.916 740.515,746.482C732.934,745.947 720.804,743.382 718.614,734.858C717.132,728.961 722.421,727.816 723.196,725.053C724.881,719.089 715.008,717.641 710.898,717.001C691.154,713.969 672.151,716.6 652.912,717.88C633.64,719.161 614.03,716.431 594.825,719.868L579.528,715.926C584.11,715.353 625.452,712.759 625.822,710.468C626.023,709.288 622.52,704.942 621.273,704.201C619.656,703.255 608.638,700.663 606.381,700.394C578.719,697.058 548.597,704.134 520.868,702.146C506.717,701.136 492.397,694.531 478.078,694.228L498.429,680.65C604.933,621.013 733.843,603.796 854.701,617.543C864.371,618.621 878.657,620.508 887.855,622.799C889.607,623.238 891.561,623.2 892.74,624.821L852.645,664.545C844.256,662.793 836.809,662.49 828.184,662.692C805.205,663.16 781.216,662.625 758.439,665.792C756.282,666.098 749.241,666.837 748.196,667.881L748.197,667.874Z" style="fill:rgb(69,28,21);fill-rule:nonzero;"/>
    </g>
    <g transform="matrix(0.058594,0,0,0.058594,0.000027,-0.000007)">
        <path d="M405.173,684.381L483.308,644.825C609.219,587.142 773.743,563.49 909.695,594.083C911.413,594.455 920.376,596.037 920.308,597.217L898.037,619.151C881.123,616.22 864.074,612.312 846.958,610.526C720.507,597.352 575.862,618.511 470.47,692.097L405.173,684.381Z" style="fill:rgb(69,28,21);fill-rule:nonzero;"/>
    </g>
    <g transform="matrix(0.058594,0,0,0.058594,0.000027,-0.000007)">
        <path d="M416.713,856.492C413.714,858.446 400.709,857.806 396.025,858.951C392.318,859.83 392.218,863.466 388.41,865.15C385.04,866.599 376.752,867.272 373.181,866.599C369.34,865.854 354.111,847.697 350,843.957C371.361,846.956 392.959,845.675 414.522,845.945C419.138,846.757 420.317,854.166 416.712,856.491L416.713,856.492Z" style="fill:rgb(69,28,21);fill-rule:nonzero;"/>
    </g>
    <g transform="matrix(0.058594,0,0,0.058594,0.000027,-0.000007)">
        <path d="M829.721,687.356L817.389,699.149C812.941,699.082 790.333,700.564 789.693,694.769C789.082,689.951 796.432,689.041 799.936,688.603C809.37,687.458 820.051,688.67 829.721,687.357L829.721,687.356Z" style="fill:rgb(69,28,21);fill-rule:nonzero;"/>
    </g>
</svg>
