<?xml version="1.0" encoding="UTF-8" standalone="no"?>
<!DOCTYPE svg PUBLIC "-//W3C//DTD SVG 1.1//EN" "http://www.w3.org/Graphics/SVG/1.1/DTD/svg11.dtd">
<svg width="100%" height="100%" viewBox="0 0 34 33" version="1.1" xmlns="http://www.w3.org/2000/svg" xmlns:xlink="http://www.w3.org/1999/xlink" xml:space="preserve" xmlns:serif="http://www.serif.com/" style="fill-rule:evenodd;clip-rule:evenodd;stroke-linejoin:round;stroke-miterlimit:2;">
    <g transform="matrix(0.03125,0,0,0.03125,0.000063,0)">
        <path d="M497.39,1022.347C496.568,1021.266 483.74,999.255 468.883,973.435L441.871,926.49L263.347,926.465L246.276,896.832C236.887,880.533 228.596,865.921 227.851,864.36C226.824,862.206 228.976,857.203 236.774,843.623C242.427,833.779 247.051,825.221 247.051,824.606C247.051,823.991 235.045,802.686 220.371,777.261L193.691,731.034L150.227,730.176L134.898,703.794C126.467,689.284 118.129,674.855 116.37,671.73L113.171,666.048L123.467,648.117C129.13,638.255 133.763,629.521 133.763,628.709C133.763,627.897 121.842,606.592 107.271,581.365L80.779,535.498L37.208,534.638L-0.002,470.158L43.124,395.317C66.843,354.155 86.911,319.369 87.718,318.015C88.835,316.142 82.614,304.183 61.696,267.987C46.576,241.825 34.434,219.481 34.712,218.333C34.99,217.185 43.249,202.185 53.065,185L70.912,153.754L182.726,153.644L271.106,0.11L347.692,-0L355.828,14.355C360.303,22.25 365.291,30.63 366.914,32.978L369.864,37.246L476.175,37.246L497.595,0.001L573.816,0.001L595.236,37.246L701.547,37.246L704.497,32.978C706.119,30.631 711.108,22.251 715.582,14.355L723.718,-0L800.304,0.11L888.662,153.606L1000.452,154.42L1018.586,185.458C1028.56,202.529 1036.776,217.47 1036.844,218.661C1036.917,219.852 1024.65,242.139 1009.595,268.189C988.767,304.228 982.574,316.14 983.69,318.013C984.496,319.366 1004.565,354.152 1028.284,395.315L1071.41,470.156L1034.2,534.636L990.629,535.494L964.137,581.361C949.566,606.588 937.645,627.893 937.645,628.705C937.645,629.517 942.278,638.251 947.941,648.113L958.237,666.044L955.038,671.726C953.278,674.851 944.941,689.28 936.51,703.79L921.181,730.172L877.717,731.03L851.037,777.257C836.363,802.682 824.357,823.987 824.357,824.602C824.357,825.217 828.982,833.775 834.634,843.619C842.432,857.2 844.585,862.203 843.558,864.356C842.814,865.918 834.522,880.529 825.133,896.828L808.062,926.461L629.532,926.486L573.521,1023.479L536.203,1023.893C507.499,1024.212 498.54,1023.856 497.39,1022.34L497.39,1022.347ZM597.883,969.944L625.269,922.611L804.503,921.06L821.414,891.792C830.715,875.695 838.325,862.237 838.325,861.885C838.325,861.533 833.537,853.019 827.685,842.965L817.045,824.685L873.412,727.073L917.096,726.215L951.765,665.969L930.181,628.885L987.172,529.983L1031.16,528.432L1064.871,470.105L1020.456,393.246C980.585,324.25 976.213,316.01 977.721,312.701C978.645,310.674 990.993,288.974 1005.162,264.479C1020.871,237.323 1030.565,219.008 1030.005,217.548C1029.499,216.23 1021.955,202.734 1013.24,187.556L997.394,159.959L885.658,159.849L796.076,4.624L727.472,5.46L706.089,41.967L591.027,41.153L570.261,5.459L501.151,5.459L480.385,41.153L365.323,41.967L343.94,5.46L275.336,4.624L185.754,159.849L74.018,159.959L58.172,187.556C49.457,202.735 41.913,216.231 41.407,217.548C40.847,219.009 50.541,237.323 66.25,264.479C80.419,288.974 92.765,310.668 93.685,312.688C95.185,315.979 90.747,324.343 50.949,393.231L6.539,470.101L40.252,528.432L84.24,529.983L141.231,628.885L119.647,665.969L154.316,726.215L198,727.073L254.367,824.685L243.727,842.965C237.875,853.019 233.087,861.533 233.087,861.885C233.087,862.237 240.697,875.695 249.998,891.792L266.909,921.06L446.158,922.611L472.698,968.403C487.295,993.588 499.811,1015.076 500.511,1016.153C501.487,1017.654 509.815,1018.014 536.142,1017.695L570.499,1017.277L597.883,969.944ZM509.117,934.638L483.352,890.021L277.534,888.47L272.442,879.935C269.641,875.24 267.322,870.396 267.289,869.169C267.256,867.942 278.148,848.069 291.495,825.007L315.761,783.076L311.42,775.25C303.032,760.129 304.522,759.704 292.399,780.678L281.505,799.526L275.245,788.907C271.802,783.066 260.935,764.32 251.096,747.25L233.206,716.212L254.097,715.779C269.323,715.464 274.971,714.833 274.927,713.451C274.894,712.408 272.575,707.714 269.775,703.02L264.683,694.485L164.446,692.934L153.307,672.54L202.476,587.406L197.22,577.56C194.329,572.145 191.491,567.421 190.913,567.064C190.335,566.707 185.004,574.826 179.067,585.106L168.273,603.798L144.035,561.822C130.704,538.735 119.797,519.509 119.797,519.096C119.797,518.683 129.539,518.346 141.445,518.346L163.093,518.346L150.567,496.619L101.231,496.619C63.602,496.619 51.536,496.159 50.383,494.679C49.552,493.612 46.893,489.157 44.473,484.778L40.075,476.817L90.799,388.965C118.697,340.647 141.523,300.387 141.523,299.5C141.523,298.613 130,277.951 115.917,253.585C101.834,229.219 90.311,208.988 90.311,208.626C90.311,208.264 113.938,207.968 142.815,207.968L195.319,207.968L297.488,30.939L321.972,31.828L370.427,116.285L382.454,116.34C389.069,116.377 394.481,116.027 394.481,115.572C394.481,115.116 389.942,106.837 384.394,97.175C378.846,87.513 374.307,79.156 374.307,78.605C374.307,78.053 395.956,77.604 422.416,77.604C451.491,77.604 470.525,78.183 470.525,79.067C470.525,79.872 465.986,88.292 460.438,97.779C454.89,107.266 450.351,115.338 450.351,115.715C450.351,116.093 455.78,116.402 462.415,116.402L474.479,116.402L523.57,31.048L547.839,31.048L596.93,116.402L608.994,116.402C615.629,116.402 621.058,116.092 621.058,115.715C621.058,115.338 616.519,107.266 610.971,97.779C605.423,88.292 600.884,79.871 600.884,79.067C600.884,78.184 619.918,77.604 648.993,77.604C675.453,77.604 697.102,78.055 697.102,78.605C697.102,79.157 692.563,87.512 687.015,97.175C681.467,106.838 676.928,115.116 676.928,115.572C676.928,116.028 682.34,116.373 688.955,116.34L700.982,116.285L749.437,31.828L773.921,30.939L876.09,207.968L928.594,207.968C957.472,207.968 981.098,208.265 981.098,208.626C981.098,208.987 969.575,229.22 955.492,253.585C941.409,277.951 929.886,298.612 929.886,299.5C929.886,300.388 952.712,340.647 980.611,388.965L1031.335,476.817L1026.937,484.778C1024.518,489.157 1021.859,493.612 1021.027,494.679C1019.874,496.158 1007.808,496.619 970.179,496.619L920.843,496.619L908.317,518.346L929.965,518.346C941.871,518.346 951.613,518.683 951.613,519.096C951.613,519.509 940.706,538.735 927.375,561.822L903.137,603.798L892.343,585.106C886.406,574.825 881.076,566.706 880.497,567.064C879.918,567.422 877.08,572.145 874.19,577.56L868.934,587.406L918.103,672.54L906.964,692.934L806.727,694.485L801.635,703.02C798.835,707.715 796.516,712.409 796.483,713.451C796.446,714.833 802.087,715.464 817.313,715.779L838.204,716.212L820.314,747.25C810.475,764.321 799.607,783.067 796.165,788.907L789.905,799.526L779.011,780.678C766.888,759.704 768.378,760.129 759.99,775.25L755.649,783.076L779.915,825.007C793.261,848.069 804.154,867.942 804.121,869.169C804.084,870.395 801.769,875.241 798.968,879.935L793.876,888.47L588.058,890.021L562.293,934.638C548.122,959.177 536.157,979.255 535.705,979.255C535.253,979.255 523.288,959.177 509.117,934.638ZM560.737,926.073L584.993,883.813L790.191,883.014L794.083,876.848C796.224,873.457 797.975,869.983 797.975,869.129C797.975,868.275 787.498,849.458 774.692,827.313C761.887,805.168 750.988,785.951 750.473,784.608C749.918,783.164 753.179,775.734 758.465,766.398C768.796,748.153 766.741,747.657 780.394,771.687C785.123,780.009 789.442,786.807 789.992,786.793C790.542,786.779 799.544,771.94 809.996,753.815L828.999,720.862L785.723,719.311L803.553,688.273L903.941,686.722L911.718,672.755L887.991,631.724C874.941,609.157 863.953,589.506 863.574,588.055C863.195,586.604 866.988,578.407 872.003,569.838L881.122,554.259L891.778,572.84C898.858,585.187 902.953,590.902 903.981,589.874C904.831,589.024 913.711,574.152 923.713,556.826L941.898,525.325L920.259,524.894C908.358,524.658 898.847,523.921 899.123,523.257C899.399,522.593 903.462,515.29 908.151,507.026L916.676,492.001L1016.969,491.184L1024.838,476.873L922.407,299.552L971.214,214.947L873.131,214.13L770.549,36.48L753.75,35.573L729.092,78.447C715.53,102.028 703.615,121.635 702.615,122.019C701.615,122.403 693.02,122.518 683.515,122.276L666.234,121.834L687.622,84.589L649.455,84.173C628.463,83.944 611.014,84.026 610.679,84.367C610.344,84.702 614.638,92.836 620.221,102.443C625.804,112.05 630.373,120.517 630.373,121.26C630.373,122.002 622.167,122.598 612.138,122.583L593.903,122.546L544.242,36.471L527.171,36.471L477.51,122.546L459.275,122.583C449.246,122.599 441.04,122.002 441.04,121.26C441.04,120.518 445.608,112.049 451.192,102.443C456.775,92.837 461.069,84.702 460.734,84.367C460.399,84.032 442.95,83.945 421.958,84.173L383.791,84.589L405.179,121.834L387.898,122.276C378.394,122.518 369.799,122.404 368.798,122.019C367.798,121.636 355.883,102.028 342.321,78.447L317.663,35.573L300.863,36.48L198.281,214.13L100.198,214.947L148.996,299.537L46.568,476.863L54.442,491.183L154.735,492L163.26,507.025C167.949,515.289 172.011,522.593 172.288,523.256C172.565,523.919 163.053,524.656 151.152,524.893L129.513,525.324L147.698,556.825C157.7,574.151 166.589,589.033 167.453,589.896C168.511,590.954 172.47,585.377 179.605,572.775L190.187,554.084L199.356,569.75C204.399,578.366 208.215,586.603 207.836,588.053C207.457,589.503 196.469,609.155 183.419,631.722L159.691,672.753L167.468,686.72L267.856,688.271L285.686,719.309L242.41,720.86L261.413,753.813C271.865,771.937 280.867,786.777 281.417,786.791C281.967,786.805 286.286,780.007 291.015,771.685C304.668,747.655 302.614,748.151 312.944,766.396C317.97,775.273 321.479,783.189 320.973,784.508C320.478,785.797 309.58,805.006 296.754,827.194C283.928,849.382 273.434,868.244 273.434,869.108C273.434,869.971 275.186,873.454 277.326,876.845L281.218,883.011L486.416,883.81L510.672,926.07C524.013,949.313 535.277,968.33 535.704,968.33C536.131,968.33 547.395,949.313 560.736,926.07L560.737,926.073ZM463.542,810.643C424.279,742.666 391.928,686.469 391.651,685.761C391.374,685.053 402.23,684.282 415.777,684.047L440.407,683.62L400.921,615.337L389.943,614.881C383.905,614.63 378.965,614.753 378.965,615.158C378.965,615.561 385.683,627.496 393.894,641.681C402.105,655.866 408.502,667.793 408.109,668.185C407.717,668.577 357.139,668.718 295.714,668.5L184.032,668.102L239.562,571.896C270.103,518.983 295.656,475.502 296.347,475.272C297.038,475.042 304.211,486.372 312.289,500.45C320.367,514.528 327.578,525.859 328.312,525.63C329.046,525.401 331.781,521.38 334.388,516.694L339.128,508.175L319.174,473.686C308.199,454.717 298.812,439.197 298.314,439.197C297.816,439.197 292.189,448.272 285.811,459.365C279.432,470.457 273.709,479.361 273.093,479.152C272.477,478.943 240.328,423.95 201.651,356.947C162.974,289.944 130.789,234.251 130.129,233.184C129.172,231.637 158.191,231.244 273.271,231.244L417.614,231.244L406.05,251.145C399.69,262.091 394.486,271.879 394.486,272.898C394.486,274.295 404.295,274.648 434.432,274.335L474.378,273.921L479.437,265.454C482.219,260.797 484.496,256.432 484.496,255.755C484.496,255.078 470.878,254.521 454.234,254.521C437.59,254.521 423.972,254.068 423.972,253.515C423.972,251.843 534.726,60.534 535.694,60.534C536.663,60.534 647.445,251.839 647.445,253.511C647.445,254.066 633.827,254.521 617.183,254.521C600.539,254.521 586.921,255.076 586.921,255.755C586.921,256.433 589.197,260.798 591.98,265.454L597.039,273.921L636.985,274.335C667.122,274.648 676.931,274.298 676.931,272.898C676.931,271.879 671.727,262.091 665.367,251.145L653.803,231.244L798.146,231.244C913.226,231.244 942.246,231.638 941.288,233.184C940.628,234.251 908.443,289.944 869.766,356.947C831.089,423.95 798.94,478.942 798.324,479.152C797.708,479.361 791.985,470.458 785.606,459.365C779.227,448.272 773.571,439.197 773.037,439.197C772.502,439.197 763.122,454.73 752.192,473.714L732.319,508.231L737.043,516.722C739.641,521.392 742.368,525.4 743.103,525.63C743.838,525.86 751.048,514.529 759.126,500.45C767.204,486.372 774.391,475.046 775.097,475.281C775.803,475.516 801.351,518.997 831.871,571.905L887.361,668.101L775.69,668.499C714.271,668.717 663.698,668.572 663.306,668.184C662.914,667.792 669.311,655.865 677.521,641.68C685.731,627.495 692.45,615.56 692.45,615.157C692.45,614.754 687.51,614.629 681.472,614.88L670.494,615.336L631.008,683.619L655.638,684.046C669.184,684.281 680.041,685.058 679.764,685.771C678.404,689.274 536.38,934.238 535.71,934.237C535.283,934.237 502.81,878.619 463.547,810.642L463.542,810.643ZM532.601,876.399L532.601,843.378L490.535,770.482C467.399,730.389 447.76,696.713 446.892,695.646C444.539,692.753 408.026,692.893 408.723,695.793C409.333,698.33 531.142,909.42 531.996,909.42C532.328,909.42 532.6,894.561 532.6,876.399L532.601,876.399ZM602.238,801.77C635.635,743.843 662.961,695.831 662.961,695.077C662.961,692.832 626.366,693.374 624.518,695.645C623.65,696.712 604.011,730.388 580.875,770.481L538.809,843.377L538.809,876.708C538.809,895.756 539.389,909.407 540.162,908.565C540.906,907.755 568.84,859.696 602.238,801.769L602.238,801.77ZM532.601,758.886L532.601,693.706L495.356,693.706C474.871,693.706 458.111,694.153 458.111,694.701C458.111,695.749 531.546,823.879 532.214,823.996C532.427,824.033 532.602,794.733 532.602,758.884L532.601,758.886ZM612.8,695.875C613.498,694.055 607.616,693.706 576.221,693.706L538.809,693.706L538.809,824.693L575.388,761.368C595.507,726.539 612.342,697.067 612.799,695.874L612.8,695.875ZM532.601,649.477L532.601,614.559L466.435,614.559L439.24,661.802L441.649,666.854C442.974,669.633 445.832,674.716 448,678.15L451.942,684.394L532.602,684.394L532.601,649.477ZM623.41,678.151C625.578,674.717 628.436,669.634 629.761,666.855L632.17,661.803L604.975,614.56L538.809,614.56L538.809,684.395L619.469,684.395L623.41,678.151ZM394.185,653.661C391.362,648.707 385.211,637.905 380.516,629.657L371.981,614.66L278.318,613.784L324.754,533.438L311.122,509.616C303.624,496.514 297.114,485.785 296.655,485.773C295.971,485.756 196.236,657.314 194.548,661.412C194.264,662.103 240.221,662.668 296.675,662.668L399.319,662.668L394.185,653.661ZM876.863,661.412C875.175,657.314 775.441,485.756 774.756,485.773C774.296,485.784 767.786,496.514 760.289,509.616L746.657,533.438L793.093,613.784L699.43,614.66L690.895,629.657C686.201,637.905 680.049,648.707 677.226,653.661L672.092,662.668L774.736,662.668C831.19,662.668 877.147,662.103 876.863,661.412ZM447.831,635.51L459.572,615.335L448.051,614.884C441.715,614.635 430.939,614.635 424.105,614.884L411.679,615.335L423.571,635.841C430.111,647.119 435.604,656.198 435.776,656.016C435.948,655.833 441.373,646.606 447.831,635.51ZM648.026,635.51L659.767,615.335L648.246,614.884C641.91,614.635 631.134,614.635 624.3,614.884L611.874,615.335L623.766,635.841C630.306,647.119 635.799,656.198 635.971,656.016C636.143,655.833 641.568,646.606 648.026,635.51ZM363.864,600.919C329.521,541.541 328.613,540.096 326.84,542.005C324.843,544.156 288.954,606.23 288.954,607.534C288.954,607.983 306.776,608.351 328.559,608.351L368.164,608.351L363.864,600.919ZM395.588,606.412C393.212,600.497 343.376,516.051 342.374,516.242C341.715,516.37 338.954,520.246 336.237,524.859L331.298,533.248L374.595,608.351L385.482,608.351C393.572,608.351 396.168,607.852 395.589,606.411L395.588,606.412ZM498.002,548.623L532.461,488.906L513.553,456.234L375.509,457.04L347.838,504.697L407.674,608.331L463.542,608.337L498.001,548.62L498.002,548.623ZM600.451,607.188C592.767,592.701 536.505,496.616 535.706,496.616C534.907,496.616 478.645,592.701 470.961,607.188C470.622,607.828 499.757,608.352 535.706,608.352C571.655,608.352 600.791,607.828 600.451,607.188ZM693.661,556.509L723.553,504.666L695.902,457.042L557.858,456.236L538.95,488.908L607.869,608.342L663.769,608.354L693.661,556.511L693.661,556.509ZM718.465,570.801L740.113,533.25L735.039,524.633C732.249,519.893 729.487,516.016 728.902,516.016C727.969,516.016 677.842,601.386 675.822,606.414C675.243,607.857 677.839,608.354 685.929,608.354L696.816,608.354L718.465,570.801ZM782.456,607.534C782.456,606.231 746.567,544.156 744.57,542.005C742.796,540.095 741.889,541.541 707.546,600.919L703.247,608.352L742.852,608.352C764.635,608.352 782.457,607.984 782.457,607.535L782.456,607.534ZM357.139,477.39C363.168,466.849 368.101,457.785 368.101,457.246C368.101,456.707 357.575,456.267 344.709,456.267C325.961,456.267 321.416,456.679 321.819,458.343C322.832,462.535 343.965,497.923 345.053,497.25C345.671,496.869 351.11,487.931 357.14,477.39L357.139,477.39ZM738.805,478.306C744.889,467.809 749.867,458.556 749.867,457.743C749.867,456.874 740.285,456.266 726.589,456.266C713.786,456.266 703.311,456.706 703.311,457.245C703.311,459.536 726.474,498.85 727.279,497.925C727.536,497.632 732.722,488.802 738.806,478.305L738.805,478.306ZM542.689,471.387C546.103,465.205 549.122,459.273 549.398,458.206C549.772,456.76 546.294,456.266 535.705,456.266C525.116,456.266 521.638,456.759 522.012,458.206C522.772,461.146 534.817,482.628 535.705,482.628C536.132,482.628 539.274,477.57 542.689,471.387ZM283.135,445.404C288.043,436.904 292.058,429.228 292.058,428.346C292.058,427.464 272.804,393.405 249.271,352.659L206.484,278.575L178.518,262.551C163.137,253.738 150.292,246.787 149.973,247.106C149.219,247.861 272.158,460.933 273.323,460.891C273.811,460.874 278.226,453.905 283.134,445.404L283.135,445.404ZM860.486,354.319C894.344,295.687 921.779,247.448 921.452,247.122C921.125,246.796 908.291,253.739 892.931,262.552L865.003,278.576L822.177,352.64C798.623,393.375 779.352,427.434 779.352,428.327C779.352,430.347 796.877,460.848 798.062,460.892C798.537,460.909 826.627,412.952 860.486,354.32L860.486,354.319ZM405.366,393.967C423.706,362.263 439.298,335.125 440.015,333.662C440.977,331.697 437.747,324.853 427.668,307.504L414.018,284.007L387.035,284.007L345.753,355.501C323.048,394.823 304.471,427.584 304.471,428.304C304.471,429.024 307.325,434.563 310.813,440.613L317.155,451.613L372.019,451.613L405.366,393.967ZM509.323,450.239C509.323,449.484 494.911,423.941 477.295,393.476C451.606,349.048 444.896,338.492 443.391,340.144C442.044,341.621 385.352,439.351 379.404,450.447C379.061,451.087 408.152,451.611 444.051,451.611C480.815,451.611 509.322,451.012 509.322,450.24L509.323,450.239ZM588.331,392.138C607.185,359.428 622.595,332.018 622.575,331.226C622.555,330.434 616.705,319.661 609.575,307.285L596.611,284.782L474.801,284.782L461.837,307.285C454.707,319.661 448.856,330.435 448.837,331.226C448.818,332.017 464.227,359.428 483.081,392.138L517.361,451.611L554.053,451.611L588.331,392.138ZM692.006,450.447C686.059,439.35 629.367,341.622 628.019,340.144C626.514,338.493 619.803,349.048 594.115,393.476C576.5,423.941 562.087,449.484 562.087,450.239C562.087,451.013 590.594,451.61 627.358,451.61C663.257,451.61 692.348,451.086 692.005,450.446L692.006,450.447ZM760.596,440.612C764.084,434.562 766.938,429.04 766.938,428.341C766.938,427.642 748.363,394.881 725.661,355.538L684.384,284.007L657.392,284.007L643.742,307.504C633.664,324.853 630.433,331.697 631.395,333.662C632.112,335.127 647.704,362.263 666.044,393.967L699.39,451.611L754.254,451.611L760.596,440.612ZM316.536,387.475C326.059,370.978 334.217,356.487 334.664,355.273C335.244,353.697 319.622,343.925 280.014,321.092C249.509,303.507 224.364,289.261 224.136,289.435C223.47,289.943 297.391,417.469 298.352,417.469C298.831,417.469 307.014,403.972 316.537,387.475L316.536,387.475ZM810.81,353.611C831.094,318.489 847.503,289.61 847.275,289.436C847.046,289.271 821.901,303.508 791.397,321.093C751.789,343.926 736.166,353.697 736.747,355.274C738.25,359.357 772.18,417.47 773.06,417.47C773.538,417.47 790.527,388.733 810.811,353.611L810.81,353.611ZM357.626,316.208L375.725,284.782L339.43,284.366C319.468,284.137 286.285,284.137 265.69,284.366L228.245,284.782L282.266,316.105C311.977,333.332 337.016,347.474 337.907,347.531C338.798,347.586 347.672,333.492 357.627,316.208L357.626,316.208ZM788.728,316.208L843.164,284.782L805.719,284.366C785.125,284.137 751.915,284.137 731.92,284.366L695.565,284.782L713.745,316.208C723.744,333.492 732.458,347.634 733.108,347.634C733.758,347.634 758.787,333.492 788.727,316.208L788.728,316.208ZM457.846,303.017L468.862,284.006L420.756,284.006L422.622,287.498C424.971,291.894 439.091,316.144 442.145,321.03C443.403,323.042 444.971,324.089 445.631,323.358C446.291,322.627 451.787,313.473 457.845,303.017L457.846,303.017ZM639.739,303.206L650.416,284.783L638.915,284.33C632.59,284.081 621.93,284.081 615.228,284.33L603.041,284.783L614.59,304.668C621.813,317.105 626.687,324.005 627.601,323.091C628.405,322.288 633.867,313.339 639.739,303.206ZM391.176,258.254C396.409,249.211 400.691,241.529 400.691,241.183C400.691,240.837 344.654,240.552 276.163,240.552L151.635,240.552L210.583,274.63L381.66,274.703L391.175,258.262L391.176,258.254ZM590.022,274.003C590.022,273.622 587.544,269.083 584.516,263.916L579.01,254.521L492.401,254.521L486.895,263.916C483.867,269.083 481.389,273.622 481.389,274.003C481.389,274.384 505.831,274.696 535.705,274.696C565.579,274.696 590.021,274.384 590.021,274.003L590.022,274.003ZM890.301,257.593L919.775,240.554L795.247,240.554C726.757,240.554 670.719,240.838 670.719,241.185C670.719,241.532 675.001,249.213 680.234,258.256L689.749,274.697L860.826,274.624L890.3,257.585L890.301,257.593ZM512.37,208.376C524.778,186.837 535.279,169.214 535.705,169.214C536.131,169.214 546.633,186.837 559.04,208.376L581.599,247.538L638.349,248.385L633.196,239.302C607.458,193.938 536.313,71.438 535.705,71.438C535.097,71.438 463.952,193.938 438.214,239.302L433.061,248.385L489.811,247.538L512.37,208.376ZM574.244,246.833C573.129,243.642 536.434,180.144 535.705,180.144C534.976,180.144 498.282,243.642 497.166,246.833C496.847,247.746 511.599,248.314 535.705,248.314C559.811,248.314 574.563,247.748 574.244,246.833ZM295.42,864.714C297.037,860.794 369.009,737.187 369.652,737.224C370.269,737.261 407.031,800.562 439.189,856.964L444.323,865.967L369.613,865.967C328.522,865.967 295.136,865.402 295.42,864.713L295.42,864.714ZM427.553,853.164C425.941,850.39 412.456,826.995 397.585,801.176C382.714,775.357 370.065,754.231 369.475,754.231C368.61,754.231 311.215,852.306 309.388,856.906C309.104,857.623 336.234,858.207 369.677,858.207L430.483,858.207L427.553,853.164ZM632.221,856.964C664.396,800.533 701.141,737.26 701.758,737.225C702.39,737.188 757.102,831.192 772.399,858.596L776.514,865.968L627.087,865.968L632.221,856.964ZM762.023,856.909C760.196,852.309 702.8,754.234 701.936,754.234C701.346,754.234 688.696,775.359 673.826,801.179C658.956,826.999 645.47,850.393 643.858,853.167L640.928,858.211L701.735,858.211C735.179,858.211 762.309,857.624 762.024,856.91L762.023,856.909ZM68.844,473.588C70.584,469.211 142.464,346.082 143.28,346.082C144.282,346.082 217.567,472.251 217.567,473.976C217.567,474.478 183.988,474.889 142.947,474.889C101.906,474.889 68.56,474.304 68.844,473.588ZM198.646,456.585C171.136,408.392 143.772,361.61 143.113,361.645C142.666,361.663 137.672,369.875 132.015,379.88C126.358,389.885 112.951,413.26 102.22,431.825L82.71,465.579L203.779,465.579L198.646,456.585ZM853.844,473.976C853.844,472.251 927.13,346.082 928.131,346.082C928.947,346.082 1000.827,469.21 1002.567,473.588C1002.851,474.305 969.505,474.889 928.464,474.889C887.423,474.889 853.844,474.478 853.844,473.976ZM969.19,431.824C958.459,413.26 945.052,389.884 939.395,379.879C933.738,369.874 928.745,361.668 928.298,361.644C927.638,361.607 900.274,408.391 872.765,456.584L867.631,465.577L988.7,465.577L969.19,431.824ZM237.435,181.193C239.113,178.419 255.342,150.31 273.5,118.729C291.658,87.148 307.304,60.434 308.27,59.364C309.618,57.87 318.486,72.069 346.435,120.473C366.46,155.153 383.076,184.137 383.361,184.882C383.651,185.641 351.053,186.237 309.131,186.237L234.384,186.237L237.435,181.193ZM369.653,177.716C369.653,177.298 356.852,154.776 341.207,127.667C325.562,100.558 312.048,77.081 311.177,75.495C309.846,73.072 305.238,80.15 282.381,119.724C267.414,145.637 253.623,169.457 251.734,172.658L248.299,178.478L308.976,178.478C342.348,178.478 369.653,178.135 369.653,177.717L369.653,177.716ZM688.05,184.883C688.334,184.139 704.951,155.154 724.976,120.474C752.925,72.07 761.793,57.871 763.141,59.365C764.107,60.435 779.754,87.149 797.911,118.73C816.068,150.311 832.298,178.42 833.976,181.194L837.027,186.238L762.28,186.238C720.359,186.238 687.76,185.642 688.051,184.883L688.05,184.883ZM819.678,172.658C817.789,169.457 803.998,145.637 789.031,119.724C766.174,80.15 761.565,73.072 760.235,75.495C759.364,77.082 745.85,100.559 730.205,127.667C714.56,154.775 701.759,177.297 701.759,177.716C701.759,178.134 729.064,178.477 762.436,178.477L823.113,178.477L819.678,172.658Z" style="fill-rule:nonzero;"/>
    </g>
</svg>
