<?xml version="1.0" encoding="UTF-8" standalone="no"?>
<!DOCTYPE svg PUBLIC "-//W3C//DTD SVG 1.1//EN" "http://www.w3.org/Graphics/SVG/1.1/DTD/svg11.dtd">
<svg width="100%" height="100%" viewBox="0 0 3060 92" version="1.1" xmlns="http://www.w3.org/2000/svg" xmlns:xlink="http://www.w3.org/1999/xlink" xml:space="preserve" xmlns:serif="http://www.serif.com/" style="fill-rule:evenodd;clip-rule:evenodd;">
    <g transform="matrix(1,0,0,1,-118.818113,-128.41478)">
        <g>
            <g transform="matrix(4.166667,0,0,4.166667,0,0)">
                <g opacity="0.5">
                    <g transform="matrix(1,0,0,1,751.9752,48.5772)">
                        <path d="M0,-13.672C-0.113,-13.672 -0.223,-13.66 -0.335,-13.655C3.284,-13.479 6.167,-10.499 6.167,-6.836C6.167,-3.174 3.284,-0.193 -0.335,-0.017C-0.223,-0.012 -0.113,0 0,0C3.775,0 6.836,-3.061 6.836,-6.836C6.836,-10.611 3.775,-13.672 0,-13.672" style="fill:rgb(35,31,32);fill-rule:nonzero;"/>
                    </g>
                </g>
            </g>
            <g transform="matrix(4.166667,0,0,4.166667,3133.297083,137.004583)">
                <path d="M0,17.72C4.885,17.72 8.86,13.745 8.86,8.86C8.86,3.975 4.885,0 0,0C-4.885,0 -8.86,3.975 -8.86,8.86C-8.86,13.745 -4.885,17.72 0,17.72Z" style="fill:none;fill-rule:nonzero;stroke:rgb(35,31,32);stroke-width:1px;"/>
            </g>
        </g>
        <g transform="matrix(4.166667,0,0,4.166667,3106.9568,186.964992)">
            <path d="M0.797,-0.219C1.109,-0.156 1.688,0.094 2.422,0.094C3.75,0.094 4.656,-0.656 4.656,-1.844C4.656,-2.75 4.016,-3.297 3.328,-3.5C3.969,-3.719 4.469,-4.188 4.469,-5C4.469,-6.078 3.656,-6.75 2.422,-6.75C1.688,-6.75 1.203,-6.516 0.875,-6.438L0.875,-5.094C1.156,-5.359 1.641,-5.547 2.125,-5.547C2.672,-5.547 3.031,-5.234 3.031,-4.75C3.031,-4.266 2.672,-3.969 2.172,-3.969C2.062,-3.969 1.969,-3.969 1.891,-4L1.891,-2.875C1.953,-2.891 2.031,-2.906 2.188,-2.906C2.766,-2.906 3.172,-2.547 3.172,-2.031C3.172,-1.453 2.781,-1.094 2.125,-1.094C1.625,-1.094 1.047,-1.281 0.797,-1.609L0.797,-0.219Z" style="fill:rgb(35,31,31);fill-rule:nonzero;"/>
        </g>
        <g transform="matrix(4.166667,0,0,4.166667,3133.923729,186.964992)">
            <path d="M0.312,-3.344C0.312,-1.422 1.141,0.094 2.719,0.094C4.312,0.094 5.156,-1.422 5.156,-3.344C5.156,-5.266 4.312,-6.781 2.719,-6.781C1.141,-6.781 0.312,-5.266 0.312,-3.344ZM1.781,-3.344C1.781,-4.656 2.062,-5.578 2.719,-5.578C3.406,-5.578 3.688,-4.641 3.688,-3.344C3.688,-2.031 3.406,-1.109 2.719,-1.109C2.062,-1.109 1.781,-2.031 1.781,-3.344Z" style="fill:rgb(35,31,31);fill-rule:nonzero;"/>
        </g>
    </g>
    <g transform="matrix(1,0,0,1,-118.818113,-128.41478)">
        <g>
            <g transform="matrix(4.166667,0,0,4.166667,0,0)">
                <g opacity="0.5">
                    <g transform="matrix(1,0,0,1,653.6396,34.9048)">
                        <path d="M0,13.672C0.113,13.672 0.223,13.661 0.334,13.655C-3.284,13.48 -6.167,10.499 -6.167,6.836C-6.167,3.174 -3.284,0.193 0.334,0.017C0.223,0.012 0.113,0 0,0C-3.775,0 -6.836,3.061 -6.836,6.836C-6.836,10.612 -3.775,13.672 0,13.672" style="fill:rgb(35,31,32);fill-rule:nonzero;"/>
                    </g>
                </g>
            </g>
            <g transform="matrix(4.166667,0,0,4.166667,2723.564167,137.004583)">
                <path d="M0,17.72C4.885,17.72 8.86,13.745 8.86,8.86C8.86,3.975 4.885,0 0,0C-4.885,0 -8.86,3.975 -8.86,8.86C-8.86,13.745 -4.885,17.72 0,17.72Z" style="fill:none;fill-rule:nonzero;stroke:rgb(35,31,32);stroke-width:1px;"/>
            </g>
        </g>
        <g transform="matrix(4.166667,0,0,4.166667,2697.980463,186.964992)">
            <path d="M5.016,-1.297C4.703,-1.266 4.234,-1.234 3.672,-1.234L2.703,-1.234C3.109,-1.672 3.469,-2.031 3.875,-2.562C4.5,-3.391 4.766,-3.953 4.766,-4.609C4.766,-5.875 3.938,-6.781 2.562,-6.781C1.75,-6.781 1.297,-6.484 0.812,-6.406L0.812,-4.797C1.094,-5.219 1.594,-5.484 2.156,-5.484C2.781,-5.484 3.25,-5.047 3.25,-4.359C3.25,-3.953 3.109,-3.578 2.672,-2.953C1.938,-1.922 1.297,-1.266 0.672,-0.672L0.672,0L3.391,0C3.922,0 4.672,0.016 5.016,0.047L5.016,-1.297Z" style="fill:rgb(35,31,31);fill-rule:nonzero;"/>
        </g>
        <g transform="matrix(4.166667,0,0,4.166667,2724.947392,186.964992)">
            <path d="M2.875,-6.672C2.75,-6.438 2.5,-6.094 2.141,-5.656C0.719,-3.875 0.359,-3.25 0.359,-2.219C0.359,-0.953 1.422,0.078 2.719,0.078C4.062,0.078 5.141,-0.906 5.141,-2.172C5.141,-3.391 4.328,-4.344 3.094,-4.344C2.828,-4.344 2.594,-4.266 2.469,-4.203C2.859,-4.688 3.203,-5.156 3.578,-5.578C3.906,-5.984 4.297,-6.438 4.547,-6.672L2.875,-6.672ZM1.75,-2.172C1.75,-2.719 2.203,-3.156 2.75,-3.156C3.297,-3.156 3.734,-2.703 3.734,-2.125C3.734,-1.578 3.312,-1.125 2.766,-1.125C2.203,-1.125 1.75,-1.594 1.75,-2.172Z" style="fill:rgb(35,31,31);fill-rule:nonzero;"/>
        </g>
    </g>
    <g transform="matrix(1,0,0,1,-118.818113,-128.41478)">
        <g>
            <g transform="matrix(4.166667,0,0,4.166667,0,0)">
                <g opacity="0.5">
                    <g transform="matrix(1,0,0,1,678.2234,34.9048)">
                        <path d="M0,13.672C0.113,13.672 0.223,13.661 0.335,13.655C-3.284,13.48 -6.167,10.499 -6.167,6.836C-6.167,3.174 -3.284,0.193 0.335,0.017C0.223,0.012 0.113,0 0,0C-3.775,0 -6.836,3.061 -6.836,6.836C-6.836,10.612 -3.775,13.672 0,13.672" style="fill:rgb(35,31,32);fill-rule:nonzero;"/>
                    </g>
                </g>
            </g>
            <g transform="matrix(4.166667,0,0,4.166667,2825.9975,137.004583)">
                <path d="M0,17.72C4.885,17.72 8.86,13.745 8.86,8.86C8.86,3.975 4.885,0 0,0C-4.885,0 -8.86,3.975 -8.86,8.86C-8.86,13.745 -4.885,17.72 0,17.72Z" style="fill:none;fill-rule:nonzero;stroke:rgb(35,31,32);stroke-width:1px;"/>
            </g>
        </g>
        <g transform="matrix(4.166667,0,0,4.166667,2802.28015,186.964992)">
            <path d="M5.016,-1.297C4.703,-1.266 4.234,-1.234 3.672,-1.234L2.703,-1.234C3.109,-1.672 3.469,-2.031 3.875,-2.562C4.5,-3.391 4.766,-3.953 4.766,-4.609C4.766,-5.875 3.938,-6.781 2.562,-6.781C1.75,-6.781 1.297,-6.484 0.812,-6.406L0.812,-4.797C1.094,-5.219 1.594,-5.484 2.156,-5.484C2.781,-5.484 3.25,-5.047 3.25,-4.359C3.25,-3.953 3.109,-3.578 2.672,-2.953C1.938,-1.922 1.297,-1.266 0.672,-0.672L0.672,0L3.391,0C3.922,0 4.672,0.016 5.016,0.047L5.016,-1.297Z" style="fill:rgb(35,31,31);fill-rule:nonzero;"/>
        </g>
        <g transform="matrix(4.166667,0,0,4.166667,2829.247079,186.964992)">
            <path d="M2.25,0C2.328,-0.188 2.5,-0.594 2.641,-0.906C3.422,-2.594 4.109,-4.109 4.938,-5.828C5.094,-6.125 5.266,-6.484 5.391,-6.703C5.156,-6.672 4.75,-6.672 4.406,-6.672L1.578,-6.672C1.234,-6.672 0.812,-6.672 0.594,-6.703L0.594,-5.359C0.797,-5.375 1.219,-5.406 1.578,-5.406L3.438,-5.406C2.719,-3.891 2.078,-2.547 1.312,-1.031C1.188,-0.781 0.906,-0.234 0.734,0L2.25,0Z" style="fill:rgb(35,31,31);fill-rule:nonzero;"/>
        </g>
    </g>
    <g transform="matrix(1,0,0,1,-118.818113,-128.41478)">
        <g>
            <g transform="matrix(4.166667,0,0,4.166667,0,0)">
                <g opacity="0.5">
                    <g transform="matrix(1,0,0,1,629.0556,34.9048)">
                        <path d="M0,13.672C0.167,13.672 0.331,13.659 0.496,13.647C-2.707,13.392 -5.236,10.444 -5.236,6.836C-5.236,3.228 -2.707,0.28 0.496,0.025C0.331,0.014 0.167,0 0,0C-3.775,0 -6.836,3.061 -6.836,6.836C-6.836,10.612 -3.775,13.672 0,13.672" style="fill:rgb(35,31,32);fill-rule:nonzero;"/>
                    </g>
                </g>
            </g>
            <g transform="matrix(4.166667,0,0,4.166667,2621.130833,137.004583)">
                <path d="M0,17.72C4.885,17.72 8.86,13.745 8.86,8.86C8.86,3.975 4.885,0 0,0C-4.885,0 -8.86,3.975 -8.86,8.86C-8.86,13.745 -4.885,17.72 0,17.72Z" style="fill:none;fill-rule:nonzero;stroke:rgb(35,31,32);stroke-width:1px;"/>
            </g>
        </g>
        <g transform="matrix(4.166667,0,0,4.166667,2597.541458,186.964992)">
            <path d="M5.016,-1.297C4.703,-1.266 4.234,-1.234 3.672,-1.234L2.703,-1.234C3.109,-1.672 3.469,-2.031 3.875,-2.562C4.5,-3.391 4.766,-3.953 4.766,-4.609C4.766,-5.875 3.938,-6.781 2.562,-6.781C1.75,-6.781 1.297,-6.484 0.812,-6.406L0.812,-4.797C1.094,-5.219 1.594,-5.484 2.156,-5.484C2.781,-5.484 3.25,-5.047 3.25,-4.359C3.25,-3.953 3.109,-3.578 2.672,-2.953C1.938,-1.922 1.297,-1.266 0.672,-0.672L0.672,0L3.391,0C3.922,0 4.672,0.016 5.016,0.047L5.016,-1.297Z" style="fill:rgb(35,31,31);fill-rule:nonzero;"/>
        </g>
        <g transform="matrix(4.166667,0,0,4.166667,2624.508388,186.964992)">
            <path d="M0.656,-0.188C1,-0.109 1.578,0.125 2.312,0.125C3.656,0.125 4.75,-0.844 4.75,-2.109C4.75,-3.438 3.797,-4.234 2.672,-4.234C2.5,-4.234 2.312,-4.219 2.234,-4.172L2.531,-5.469L3.594,-5.469C3.906,-5.469 4.141,-5.453 4.391,-5.438L4.391,-6.703C4.188,-6.688 3.859,-6.672 3.5,-6.672L2.25,-6.672C1.938,-6.672 1.75,-6.672 1.562,-6.703C1.547,-6.453 1.484,-5.984 1.391,-5.578C1.203,-4.672 1,-3.828 0.797,-2.859C1.062,-3.047 1.547,-3.125 1.938,-3.125C2.641,-3.125 3.188,-2.719 3.188,-2.094C3.188,-1.484 2.703,-1.062 1.984,-1.062C1.484,-1.062 0.906,-1.312 0.656,-1.609L0.656,-0.188Z" style="fill:rgb(35,31,31);fill-rule:nonzero;"/>
        </g>
    </g>
    <g transform="matrix(1,0,0,1,-118.818113,-128.41478)">
        <g>
            <g transform="matrix(4.166667,0,0,4.166667,0,0)">
                <g opacity="0.5">
                    <g transform="matrix(1,0,0,1,604.4717,34.9048)">
                        <path d="M0,13.672C0.177,13.672 0.35,13.659 0.523,13.646C-2.316,13.378 -4.553,10.435 -4.553,6.836C-4.553,3.238 -2.316,0.295 0.523,0.027C0.35,0.014 0.177,0 0,0C-3.775,0 -6.836,3.061 -6.836,6.836C-6.836,10.612 -3.775,13.672 0,13.672" style="fill:rgb(35,31,32);fill-rule:nonzero;"/>
                    </g>
                </g>
            </g>
            <g transform="matrix(4.166667,0,0,4.166667,2518.6975,137.004583)">
                <path d="M0,17.72C4.885,17.72 8.86,13.745 8.86,8.86C8.86,3.975 4.885,0 0,0C-4.885,0 -8.86,3.975 -8.86,8.86C-8.86,13.745 -4.885,17.72 0,17.72Z" style="fill:none;fill-rule:nonzero;stroke:rgb(35,31,32);stroke-width:1px;"/>
            </g>
        </g>
        <g transform="matrix(4.166667,0,0,4.166667,2494.238046,186.964992)">
            <path d="M5.016,-1.297C4.703,-1.266 4.234,-1.234 3.672,-1.234L2.703,-1.234C3.109,-1.672 3.469,-2.031 3.875,-2.562C4.5,-3.391 4.766,-3.953 4.766,-4.609C4.766,-5.875 3.938,-6.781 2.562,-6.781C1.75,-6.781 1.297,-6.484 0.812,-6.406L0.812,-4.797C1.094,-5.219 1.594,-5.484 2.156,-5.484C2.781,-5.484 3.25,-5.047 3.25,-4.359C3.25,-3.953 3.109,-3.578 2.672,-2.953C1.938,-1.922 1.297,-1.266 0.672,-0.672L0.672,0L3.391,0C3.922,0 4.672,0.016 5.016,0.047L5.016,-1.297Z" style="fill:rgb(35,31,31);fill-rule:nonzero;"/>
        </g>
        <g transform="matrix(4.166667,0,0,4.166667,2521.204975,186.964992)">
            <path d="M4.312,0C4.297,-0.234 4.297,-0.547 4.297,-0.906L4.297,-1.734C4.75,-1.734 5.125,-1.734 5.375,-1.703L5.375,-2.812C5.141,-2.781 4.781,-2.781 4.297,-2.781L4.297,-6.797L3.75,-6.797L0.125,-2.359L0.125,-1.719C0.469,-1.734 1.016,-1.734 1.375,-1.734L2.859,-1.734L2.859,-0.906C2.859,-0.547 2.859,-0.25 2.828,0L4.312,0ZM2.859,-4.359L2.859,-2.781L1.688,-2.781L2.859,-4.359Z" style="fill:rgb(35,31,31);fill-rule:nonzero;"/>
        </g>
    </g>
    <g transform="matrix(1,0,0,1,-118.818113,-128.41478)">
        <g>
            <g transform="matrix(4.166667,0,0,4.166667,0,0)">
                <g opacity="0.5">
                    <g transform="matrix(1,0,0,1,579.8878,34.9048)">
                        <path d="M0,13.672C0.283,13.672 0.56,13.65 0.834,13.616C-1.638,13.204 -3.553,10.329 -3.553,6.836C-3.553,3.344 -1.638,0.469 0.834,0.056C0.56,0.023 0.283,0 0,0C-3.775,0 -6.836,3.061 -6.836,6.836C-6.836,10.612 -3.775,13.672 0,13.672" style="fill:rgb(35,31,32);fill-rule:nonzero;"/>
                    </g>
                </g>
            </g>
            <g transform="matrix(4.166667,0,0,4.166667,2416.26375,137.004583)">
                <path d="M0,17.72C4.885,17.72 8.86,13.745 8.86,8.86C8.86,3.975 4.885,0 0,0C-4.885,0 -8.86,3.975 -8.86,8.86C-8.86,13.745 -4.885,17.72 0,17.72Z" style="fill:none;fill-rule:nonzero;stroke:rgb(35,31,32);stroke-width:1px;"/>
            </g>
        </g>
        <g transform="matrix(4.166667,0,0,4.166667,2392.802762,186.964992)">
            <path d="M5.016,-1.297C4.703,-1.266 4.234,-1.234 3.672,-1.234L2.703,-1.234C3.109,-1.672 3.469,-2.031 3.875,-2.562C4.5,-3.391 4.766,-3.953 4.766,-4.609C4.766,-5.875 3.938,-6.781 2.562,-6.781C1.75,-6.781 1.297,-6.484 0.812,-6.406L0.812,-4.797C1.094,-5.219 1.594,-5.484 2.156,-5.484C2.781,-5.484 3.25,-5.047 3.25,-4.359C3.25,-3.953 3.109,-3.578 2.672,-2.953C1.938,-1.922 1.297,-1.266 0.672,-0.672L0.672,0L3.391,0C3.922,0 4.672,0.016 5.016,0.047L5.016,-1.297Z" style="fill:rgb(35,31,31);fill-rule:nonzero;"/>
        </g>
        <g transform="matrix(4.166667,0,0,4.166667,2419.769692,186.964992)">
            <path d="M0.797,-0.219C1.109,-0.156 1.688,0.094 2.422,0.094C3.75,0.094 4.656,-0.656 4.656,-1.844C4.656,-2.75 4.016,-3.297 3.328,-3.5C3.969,-3.719 4.469,-4.188 4.469,-5C4.469,-6.078 3.656,-6.75 2.422,-6.75C1.688,-6.75 1.203,-6.516 0.875,-6.438L0.875,-5.094C1.156,-5.359 1.641,-5.547 2.125,-5.547C2.672,-5.547 3.031,-5.234 3.031,-4.75C3.031,-4.266 2.672,-3.969 2.172,-3.969C2.062,-3.969 1.969,-3.969 1.891,-4L1.891,-2.875C1.953,-2.891 2.031,-2.906 2.188,-2.906C2.766,-2.906 3.172,-2.547 3.172,-2.031C3.172,-1.453 2.781,-1.094 2.125,-1.094C1.625,-1.094 1.047,-1.281 0.797,-1.609L0.797,-0.219Z" style="fill:rgb(35,31,31);fill-rule:nonzero;"/>
        </g>
    </g>
    <g transform="matrix(1,0,0,1,-118.818113,-128.41478)">
        <g>
            <g transform="matrix(4.166667,0,0,4.166667,0,0)">
                <g opacity="0.5">
                    <g transform="matrix(1,0,0,1,554.6172,34.9402)">
                        <path d="M0,13.602C-0.99,12.254 -1.66,9.716 -1.66,6.801C-1.66,3.886 -0.99,1.348 0,0C-3.453,0.344 -6.149,3.257 -6.149,6.801C-6.149,10.344 -3.453,13.258 0,13.602" style="fill:rgb(35,31,32);fill-rule:nonzero;"/>
                    </g>
                </g>
            </g>
            <g transform="matrix(4.166667,0,0,4.166667,2313.830417,137.004583)">
                <path d="M0,17.72C4.885,17.72 8.86,13.745 8.86,8.86C8.86,3.975 4.885,0 0,0C-4.885,0 -8.86,3.975 -8.86,8.86C-8.86,13.745 -4.885,17.72 0,17.72Z" style="fill:none;fill-rule:nonzero;stroke:rgb(35,31,32);stroke-width:1px;"/>
            </g>
        </g>
        <g transform="matrix(4.166667,0,0,4.166667,2291.931371,186.964992)">
            <path d="M5.016,-1.297C4.703,-1.266 4.234,-1.234 3.672,-1.234L2.703,-1.234C3.109,-1.672 3.469,-2.031 3.875,-2.562C4.5,-3.391 4.766,-3.953 4.766,-4.609C4.766,-5.875 3.938,-6.781 2.562,-6.781C1.75,-6.781 1.297,-6.484 0.812,-6.406L0.812,-4.797C1.094,-5.219 1.594,-5.484 2.156,-5.484C2.781,-5.484 3.25,-5.047 3.25,-4.359C3.25,-3.953 3.109,-3.578 2.672,-2.953C1.938,-1.922 1.297,-1.266 0.672,-0.672L0.672,0L3.391,0C3.922,0 4.672,0.016 5.016,0.047L5.016,-1.297Z" style="fill:rgb(35,31,31);fill-rule:nonzero;"/>
        </g>
        <g transform="matrix(4.166667,0,0,4.166667,2318.8983,186.964992)">
            <path d="M5.016,-1.297C4.703,-1.266 4.234,-1.234 3.672,-1.234L2.703,-1.234C3.109,-1.672 3.469,-2.031 3.875,-2.562C4.5,-3.391 4.766,-3.953 4.766,-4.609C4.766,-5.875 3.938,-6.781 2.562,-6.781C1.75,-6.781 1.297,-6.484 0.812,-6.406L0.812,-4.797C1.094,-5.219 1.594,-5.484 2.156,-5.484C2.781,-5.484 3.25,-5.047 3.25,-4.359C3.25,-3.953 3.109,-3.578 2.672,-2.953C1.938,-1.922 1.297,-1.266 0.672,-0.672L0.672,0L3.391,0C3.922,0 4.672,0.016 5.016,0.047L5.016,-1.297Z" style="fill:rgb(35,31,31);fill-rule:nonzero;"/>
        </g>
    </g>
    <g transform="matrix(1,0,0,1,-118.818113,-128.41478)">
        <g>
            <g transform="matrix(4.166667,0,0,4.166667,0,0)">
                <g opacity="0.5">
                    <g transform="matrix(1,0,0,1,530.7201,34.9049)">
                        <path d="M0,13.672L0,0C-3.775,0 -6.836,3.061 -6.836,6.836C-6.836,10.612 -3.775,13.672 0,13.672" style="fill:rgb(35,31,32);fill-rule:nonzero;"/>
                    </g>
                </g>
            </g>
            <g transform="matrix(4.166667,0,0,4.166667,2211.3975,137.004583)">
                <path d="M0,17.72C4.885,17.72 8.86,13.745 8.86,8.86C8.86,3.975 4.885,0 0,0C-4.885,0 -8.86,3.975 -8.86,8.86C-8.86,13.745 -4.885,17.72 0,17.72Z" style="fill:none;fill-rule:nonzero;stroke:rgb(35,31,32);stroke-width:1px;"/>
            </g>
        </g>
        <g transform="matrix(4.166667,0,0,4.166667,2185.066908,186.964992)">
            <path d="M5.016,-1.297C4.703,-1.266 4.234,-1.234 3.672,-1.234L2.703,-1.234C3.109,-1.672 3.469,-2.031 3.875,-2.562C4.5,-3.391 4.766,-3.953 4.766,-4.609C4.766,-5.875 3.938,-6.781 2.562,-6.781C1.75,-6.781 1.297,-6.484 0.812,-6.406L0.812,-4.797C1.094,-5.219 1.594,-5.484 2.156,-5.484C2.781,-5.484 3.25,-5.047 3.25,-4.359C3.25,-3.953 3.109,-3.578 2.672,-2.953C1.938,-1.922 1.297,-1.266 0.672,-0.672L0.672,0L3.391,0C3.922,0 4.672,0.016 5.016,0.047L5.016,-1.297Z" style="fill:rgb(35,31,31);fill-rule:nonzero;"/>
        </g>
        <g transform="matrix(4.166667,0,0,4.166667,2212.033838,186.964992)">
            <path d="M3.938,0C3.906,-0.203 3.906,-0.672 3.906,-1.047L3.906,-5.578C3.906,-5.906 3.906,-6.547 3.938,-6.781L3.312,-6.781C2.781,-6.5 1.609,-5.984 1.172,-5.828L1.172,-4.656C1.516,-4.828 2.141,-5.078 2.469,-5.203L2.469,-1.047C2.469,-0.688 2.453,-0.219 2.438,0L3.938,0Z" style="fill:rgb(35,31,31);fill-rule:nonzero;"/>
        </g>
    </g>
    <g transform="matrix(1,0,0,1,-118.818113,-128.41478)">
        <g>
            <g transform="matrix(4.166667,0,0,4.166667,0,0)">
                <g opacity="0.5">
                    <g transform="matrix(1,0,0,1,506.1361,34.9049)">
                        <path d="M0,13.672L0,0C-3.775,0 -6.836,3.061 -6.836,6.836C-6.836,10.612 -3.775,13.672 0,13.672" style="fill:rgb(35,31,32);fill-rule:nonzero;"/>
                    </g>
                </g>
            </g>
            <g transform="matrix(4.166667,0,0,4.166667,2108.964167,137.004583)">
                <path d="M0,17.72C4.885,17.72 8.86,13.745 8.86,8.86C8.86,3.975 4.885,0 0,0C-4.885,0 -8.86,3.975 -8.86,8.86C-8.86,13.745 -4.885,17.72 0,17.72Z" style="fill:none;fill-rule:nonzero;stroke:rgb(35,31,32);stroke-width:1px;"/>
            </g>
        </g>
        <g transform="matrix(4.166667,0,0,4.166667,2085.257962,186.964992)">
            <path d="M5.016,-1.297C4.703,-1.266 4.234,-1.234 3.672,-1.234L2.703,-1.234C3.109,-1.672 3.469,-2.031 3.875,-2.562C4.5,-3.391 4.766,-3.953 4.766,-4.609C4.766,-5.875 3.938,-6.781 2.562,-6.781C1.75,-6.781 1.297,-6.484 0.812,-6.406L0.812,-4.797C1.094,-5.219 1.594,-5.484 2.156,-5.484C2.781,-5.484 3.25,-5.047 3.25,-4.359C3.25,-3.953 3.109,-3.578 2.672,-2.953C1.938,-1.922 1.297,-1.266 0.672,-0.672L0.672,0L3.391,0C3.922,0 4.672,0.016 5.016,0.047L5.016,-1.297Z" style="fill:rgb(35,31,31);fill-rule:nonzero;"/>
        </g>
        <g transform="matrix(4.166667,0,0,4.166667,2112.224892,186.964992)">
            <path d="M0.312,-3.344C0.312,-1.422 1.141,0.094 2.719,0.094C4.312,0.094 5.156,-1.422 5.156,-3.344C5.156,-5.266 4.312,-6.781 2.719,-6.781C1.141,-6.781 0.312,-5.266 0.312,-3.344ZM1.781,-3.344C1.781,-4.656 2.062,-5.578 2.719,-5.578C3.406,-5.578 3.688,-4.641 3.688,-3.344C3.688,-2.031 3.406,-1.109 2.719,-1.109C2.062,-1.109 1.781,-2.031 1.781,-3.344Z" style="fill:rgb(35,31,31);fill-rule:nonzero;"/>
        </g>
    </g>
    <g transform="matrix(1,0,0,1,-118.818113,-128.41478)">
        <g>
            <g transform="matrix(4.166667,0,0,4.166667,0,0)">
                <g opacity="0.5">
                    <g transform="matrix(1,0,0,1,481.5522,34.9049)">
                        <path d="M0,13.672C0.617,13.672 1.212,13.583 1.781,13.429C2.684,12.034 3.282,9.615 3.282,6.858C3.282,4.065 2.668,1.62 1.745,0.234C1.187,0.086 0.604,0 0,0C-3.775,0 -6.836,3.061 -6.836,6.836C-6.836,10.612 -3.775,13.672 0,13.672" style="fill:rgb(35,31,32);fill-rule:nonzero;"/>
                    </g>
                </g>
            </g>
            <g transform="matrix(4.166667,0,0,4.166667,2006.530833,137.004583)">
                <path d="M0,17.72C4.885,17.72 8.86,13.745 8.86,8.86C8.86,3.975 4.885,0 0,0C-4.885,0 -8.86,3.975 -8.86,8.86C-8.86,13.745 -4.885,17.72 0,17.72Z" style="fill:none;fill-rule:nonzero;stroke:rgb(35,31,32);stroke-width:1px;"/>
            </g>
        </g>
        <g transform="matrix(4.166667,0,0,4.166667,1984.323292,186.964992)">
            <path d="M3.938,0C3.906,-0.203 3.906,-0.672 3.906,-1.047L3.906,-5.578C3.906,-5.906 3.906,-6.547 3.938,-6.781L3.312,-6.781C2.781,-6.5 1.609,-5.984 1.172,-5.828L1.172,-4.656C1.516,-4.828 2.141,-5.078 2.469,-5.203L2.469,-1.047C2.469,-0.688 2.453,-0.219 2.438,0L3.938,0Z" style="fill:rgb(35,31,31);fill-rule:nonzero;"/>
        </g>
        <g transform="matrix(4.166667,0,0,4.166667,2011.290221,186.964992)">
            <path d="M2.609,0C2.75,-0.234 3.188,-0.812 3.453,-1.156C4.594,-2.656 5.125,-3.344 5.125,-4.438C5.125,-5.719 4.047,-6.75 2.75,-6.75C1.422,-6.75 0.344,-5.766 0.344,-4.516C0.344,-3.297 1.281,-2.344 2.516,-2.344C2.672,-2.344 2.875,-2.391 2.984,-2.469C2.703,-2.094 2.203,-1.422 1.781,-0.922C1.531,-0.594 1.234,-0.25 0.984,0L2.609,0ZM3.719,-4.5C3.719,-3.938 3.281,-3.5 2.75,-3.5C2.188,-3.5 1.734,-3.969 1.734,-4.516C1.734,-5.094 2.188,-5.547 2.75,-5.547C3.281,-5.547 3.719,-5.078 3.719,-4.5Z" style="fill:rgb(35,31,31);fill-rule:nonzero;"/>
        </g>
    </g>
    <g transform="matrix(1,0,0,1,-118.818113,-128.41478)">
        <g>
            <g transform="matrix(4.166667,0,0,4.166667,0,0)">
                <g opacity="0.5">
                    <g transform="matrix(1,0,0,1,456.9683,34.9049)">
                        <path d="M0,13.672C0.546,13.672 1.075,13.601 1.585,13.48C2.737,12.348 3.542,9.79 3.542,6.811C3.542,3.886 2.765,1.37 1.646,0.208C1.118,0.077 0.569,0 0,0C-3.775,0 -6.836,3.061 -6.836,6.836C-6.836,10.612 -3.775,13.672 0,13.672" style="fill:rgb(35,31,32);fill-rule:nonzero;"/>
                    </g>
                </g>
            </g>
            <g transform="matrix(4.166667,0,0,4.166667,1904.0975,137.004583)">
                <path d="M0,17.72C4.885,17.72 8.86,13.745 8.86,8.86C8.86,3.975 4.885,0 0,0C-4.885,0 -8.86,3.975 -8.86,8.86C-8.86,13.745 -4.885,17.72 0,17.72Z" style="fill:none;fill-rule:nonzero;stroke:rgb(35,31,32);stroke-width:1px;"/>
            </g>
        </g>
        <g transform="matrix(4.166667,0,0,4.166667,1877.460913,186.964992)">
            <path d="M3.938,0C3.906,-0.203 3.906,-0.672 3.906,-1.047L3.906,-5.578C3.906,-5.906 3.906,-6.547 3.938,-6.781L3.312,-6.781C2.781,-6.5 1.609,-5.984 1.172,-5.828L1.172,-4.656C1.516,-4.828 2.141,-5.078 2.469,-5.203L2.469,-1.047C2.469,-0.688 2.453,-0.219 2.438,0L3.938,0Z" style="fill:rgb(35,31,31);fill-rule:nonzero;"/>
        </g>
        <g transform="matrix(4.166667,0,0,4.166667,1904.427842,186.964992)">
            <path d="M1.859,-2.031C1.859,-2.516 2.234,-2.891 2.703,-2.891C3.188,-2.891 3.594,-2.5 3.594,-2.031C3.594,-1.562 3.188,-1.172 2.703,-1.172C2.234,-1.172 1.859,-1.562 1.859,-2.031ZM2.031,-4.844C2.031,-5.219 2.344,-5.516 2.703,-5.516C3.109,-5.516 3.406,-5.219 3.406,-4.828C3.406,-4.438 3.109,-4.141 2.719,-4.141C2.344,-4.141 2.031,-4.438 2.031,-4.844ZM0.656,-4.969C0.656,-4.266 1.062,-3.75 1.578,-3.516C0.953,-3.25 0.469,-2.703 0.469,-1.938C0.469,-0.828 1.344,0.062 2.703,0.062C4.094,0.062 4.969,-0.812 4.969,-1.891C4.969,-2.719 4.453,-3.266 3.828,-3.516C4.328,-3.75 4.766,-4.25 4.766,-4.969C4.766,-5.953 3.906,-6.75 2.703,-6.75C1.531,-6.75 0.656,-5.953 0.656,-4.969Z" style="fill:rgb(35,31,31);fill-rule:nonzero;"/>
        </g>
    </g>
    <g transform="matrix(1,0,0,1,-118.818113,-128.41478)">
        <g>
            <g transform="matrix(4.166667,0,0,4.166667,0,0)">
                <g opacity="0.5">
                    <g transform="matrix(1,0,0,1,432.3844,34.9049)">
                        <path d="M0,13.672C1.046,13.672 2.032,13.43 2.919,13.011C3.681,11.565 4.172,9.328 4.172,6.811C4.172,4.335 3.698,2.128 2.956,0.68C2.061,0.249 1.061,0 0,0C-3.775,0 -6.836,3.061 -6.836,6.836C-6.836,10.612 -3.775,13.672 0,13.672" style="fill:rgb(35,31,32);fill-rule:nonzero;"/>
                    </g>
                </g>
            </g>
            <g transform="matrix(4.166667,0,0,4.166667,1801.664167,137.004583)">
                <path d="M0,17.72C4.885,17.72 8.86,13.745 8.86,8.86C8.86,3.975 4.885,0 0,0C-4.885,0 -8.86,3.975 -8.86,8.86C-8.86,13.745 -4.885,17.72 0,17.72Z" style="fill:none;fill-rule:nonzero;stroke:rgb(35,31,32);stroke-width:1px;"/>
            </g>
        </g>
        <g transform="matrix(4.166667,0,0,4.166667,1776.589521,186.964992)">
            <path d="M3.938,0C3.906,-0.203 3.906,-0.672 3.906,-1.047L3.906,-5.578C3.906,-5.906 3.906,-6.547 3.938,-6.781L3.312,-6.781C2.781,-6.5 1.609,-5.984 1.172,-5.828L1.172,-4.656C1.516,-4.828 2.141,-5.078 2.469,-5.203L2.469,-1.047C2.469,-0.688 2.453,-0.219 2.438,0L3.938,0Z" style="fill:rgb(35,31,31);fill-rule:nonzero;"/>
        </g>
        <g transform="matrix(4.166667,0,0,4.166667,1803.55645,186.964992)">
            <path d="M2.25,0C2.328,-0.188 2.5,-0.594 2.641,-0.906C3.422,-2.594 4.109,-4.109 4.938,-5.828C5.094,-6.125 5.266,-6.484 5.391,-6.703C5.156,-6.672 4.75,-6.672 4.406,-6.672L1.578,-6.672C1.234,-6.672 0.812,-6.672 0.594,-6.703L0.594,-5.359C0.797,-5.375 1.219,-5.406 1.578,-5.406L3.438,-5.406C2.719,-3.891 2.078,-2.547 1.312,-1.031C1.188,-0.781 0.906,-0.234 0.734,0L2.25,0Z" style="fill:rgb(35,31,31);fill-rule:nonzero;"/>
        </g>
    </g>
    <g transform="matrix(1,0,0,1,-118.818113,-128.41478)">
        <g>
            <g transform="matrix(4.166667,0,0,4.166667,0,0)">
                <g opacity="0.5">
                    <g transform="matrix(1,0,0,1,407.8005,34.9049)">
                        <path d="M0,13.672C1.238,13.672 2.395,13.338 3.397,12.763C4.04,11.315 4.448,9.189 4.448,6.811C4.448,4.47 4.051,2.373 3.425,0.927C2.417,0.341 1.25,0 0,0C-3.775,0 -6.836,3.061 -6.836,6.836C-6.836,10.612 -3.775,13.672 0,13.672" style="fill:rgb(35,31,32);fill-rule:nonzero;"/>
                    </g>
                </g>
            </g>
            <g transform="matrix(4.166667,0,0,4.166667,1699.230833,137.004583)">
                <path d="M0,17.72C4.885,17.72 8.86,13.745 8.86,8.86C8.86,3.975 4.885,0 0,0C-4.885,0 -8.86,3.975 -8.86,8.86C-8.86,13.745 -4.885,17.72 0,17.72Z" style="fill:none;fill-rule:nonzero;stroke:rgb(35,31,32);stroke-width:1px;"/>
            </g>
        </g>
        <g transform="matrix(4.166667,0,0,4.166667,1675.717296,186.964992)">
            <path d="M3.938,0C3.906,-0.203 3.906,-0.672 3.906,-1.047L3.906,-5.578C3.906,-5.906 3.906,-6.547 3.938,-6.781L3.312,-6.781C2.781,-6.5 1.609,-5.984 1.172,-5.828L1.172,-4.656C1.516,-4.828 2.141,-5.078 2.469,-5.203L2.469,-1.047C2.469,-0.688 2.453,-0.219 2.438,0L3.938,0Z" style="fill:rgb(35,31,31);fill-rule:nonzero;"/>
        </g>
        <g transform="matrix(4.166667,0,0,4.166667,1702.684225,186.964992)">
            <path d="M2.875,-6.672C2.75,-6.438 2.5,-6.094 2.141,-5.656C0.719,-3.875 0.359,-3.25 0.359,-2.219C0.359,-0.953 1.422,0.078 2.719,0.078C4.062,0.078 5.141,-0.906 5.141,-2.172C5.141,-3.391 4.328,-4.344 3.094,-4.344C2.828,-4.344 2.594,-4.266 2.469,-4.203C2.859,-4.688 3.203,-5.156 3.578,-5.578C3.906,-5.984 4.297,-6.438 4.547,-6.672L2.875,-6.672ZM1.75,-2.172C1.75,-2.719 2.203,-3.156 2.75,-3.156C3.297,-3.156 3.734,-2.703 3.734,-2.125C3.734,-1.578 3.312,-1.125 2.766,-1.125C2.203,-1.125 1.75,-1.594 1.75,-2.172Z" style="fill:rgb(35,31,31);fill-rule:nonzero;"/>
        </g>
    </g>
    <g transform="matrix(1,0,0,1,-118.818113,-128.41478)">
        <g transform="matrix(4.166667,0,0,4.166667,2928.430833,137.004583)">
            <path d="M0,17.72C4.885,17.72 8.86,13.745 8.86,8.86C8.86,3.975 4.885,0 0,0C-4.885,0 -8.86,3.975 -8.86,8.86C-8.86,13.745 -4.885,17.72 0,17.72Z" style="fill:none;fill-rule:nonzero;stroke:rgb(35,31,32);stroke-width:1px;"/>
        </g>
        <g transform="matrix(4.166667,0,0,4.166667,2907.147454,186.964992)">
            <path d="M5.016,-1.297C4.703,-1.266 4.234,-1.234 3.672,-1.234L2.703,-1.234C3.109,-1.672 3.469,-2.031 3.875,-2.562C4.5,-3.391 4.766,-3.953 4.766,-4.609C4.766,-5.875 3.938,-6.781 2.562,-6.781C1.75,-6.781 1.297,-6.484 0.812,-6.406L0.812,-4.797C1.094,-5.219 1.594,-5.484 2.156,-5.484C2.781,-5.484 3.25,-5.047 3.25,-4.359C3.25,-3.953 3.109,-3.578 2.672,-2.953C1.938,-1.922 1.297,-1.266 0.672,-0.672L0.672,0L3.391,0C3.922,0 4.672,0.016 5.016,0.047L5.016,-1.297Z" style="fill:rgb(35,31,31);fill-rule:nonzero;"/>
        </g>
        <g transform="matrix(4.166667,0,0,4.166667,2934.114383,186.964992)">
            <path d="M1.859,-2.031C1.859,-2.516 2.234,-2.891 2.703,-2.891C3.188,-2.891 3.594,-2.5 3.594,-2.031C3.594,-1.562 3.188,-1.172 2.703,-1.172C2.234,-1.172 1.859,-1.562 1.859,-2.031ZM2.031,-4.844C2.031,-5.219 2.344,-5.516 2.703,-5.516C3.109,-5.516 3.406,-5.219 3.406,-4.828C3.406,-4.438 3.109,-4.141 2.719,-4.141C2.344,-4.141 2.031,-4.438 2.031,-4.844ZM0.656,-4.969C0.656,-4.266 1.062,-3.75 1.578,-3.516C0.953,-3.25 0.469,-2.703 0.469,-1.938C0.469,-0.828 1.344,0.062 2.703,0.062C4.094,0.062 4.969,-0.812 4.969,-1.891C4.969,-2.719 4.453,-3.266 3.828,-3.516C4.328,-3.75 4.766,-4.25 4.766,-4.969C4.766,-5.953 3.906,-6.75 2.703,-6.75C1.531,-6.75 0.656,-5.953 0.656,-4.969Z" style="fill:rgb(35,31,31);fill-rule:nonzero;"/>
        </g>
    </g>
    <g transform="matrix(1,0,0,1,-118.818113,-128.41478)">
        <g transform="matrix(4.166667,0,0,4.166667,3030.86375,137.004583)">
            <path d="M0,17.72C4.885,17.72 8.86,13.745 8.86,8.86C8.86,3.975 4.885,0 0,0C-4.885,0 -8.86,3.975 -8.86,8.86C-8.86,13.745 -4.885,17.72 0,17.72Z" style="fill:none;fill-rule:nonzero;stroke:rgb(35,31,32);stroke-width:1px;"/>
        </g>
        <g transform="matrix(4.166667,0,0,4.166667,3001.026613,186.964992)">
            <path d="M5.016,-1.297C4.703,-1.266 4.234,-1.234 3.672,-1.234L2.703,-1.234C3.109,-1.672 3.469,-2.031 3.875,-2.562C4.5,-3.391 4.766,-3.953 4.766,-4.609C4.766,-5.875 3.938,-6.781 2.562,-6.781C1.75,-6.781 1.297,-6.484 0.812,-6.406L0.812,-4.797C1.094,-5.219 1.594,-5.484 2.156,-5.484C2.781,-5.484 3.25,-5.047 3.25,-4.359C3.25,-3.953 3.109,-3.578 2.672,-2.953C1.938,-1.922 1.297,-1.266 0.672,-0.672L0.672,0L3.391,0C3.922,0 4.672,0.016 5.016,0.047L5.016,-1.297Z" style="fill:rgb(35,31,31);fill-rule:nonzero;"/>
        </g>
        <g transform="matrix(4.166667,0,0,4.166667,3027.993542,186.964992)">
            <path d="M2.609,0C2.75,-0.234 3.188,-0.812 3.453,-1.156C4.594,-2.656 5.125,-3.344 5.125,-4.438C5.125,-5.719 4.047,-6.75 2.75,-6.75C1.422,-6.75 0.344,-5.766 0.344,-4.516C0.344,-3.297 1.281,-2.344 2.516,-2.344C2.672,-2.344 2.875,-2.391 2.984,-2.469C2.703,-2.094 2.203,-1.422 1.781,-0.922C1.531,-0.594 1.234,-0.25 0.984,0L2.609,0ZM3.719,-4.5C3.719,-3.938 3.281,-3.5 2.75,-3.5C2.188,-3.5 1.734,-3.969 1.734,-4.516C1.734,-5.094 2.188,-5.547 2.75,-5.547C3.281,-5.547 3.719,-5.078 3.719,-4.5Z" style="fill:rgb(35,31,31);fill-rule:nonzero;"/>
        </g>
    </g>
    <g transform="matrix(1,0,0,1,-118.818113,-128.41478)">
        <g>
            <g transform="matrix(4.166667,0,0,4.166667,0,0)">
                <g opacity="0.5">
                    <g transform="matrix(1,0,0,1,39.4244,48.5772)">
                        <path d="M0,-13.672C-0.113,-13.672 -0.223,-13.66 -0.334,-13.655C3.284,-13.479 6.167,-10.499 6.167,-6.836C6.167,-3.174 3.284,-0.193 -0.334,-0.017C-0.223,-0.012 -0.113,0 0,0C3.775,0 6.836,-3.061 6.836,-6.836C6.836,-10.611 3.775,-13.672 0,-13.672" style="fill:rgb(35,31,32);fill-rule:nonzero;"/>
                    </g>
                </g>
            </g>
            <g transform="matrix(4.166667,0,0,4.166667,164.324583,137.004583)">
                <path d="M0,17.72C4.885,17.72 8.86,13.745 8.86,8.86C8.86,3.975 4.885,0 0,0C-4.885,0 -8.86,3.975 -8.86,8.86C-8.86,13.745 -4.885,17.72 0,17.72Z" style="fill:none;fill-rule:nonzero;stroke:rgb(35,31,32);stroke-width:1px;"/>
            </g>
        </g>
        <g transform="matrix(4.166667,0,0,4.166667,152.932915,187.295071)">
            <path d="M3.938,0C3.906,-0.203 3.906,-0.672 3.906,-1.047L3.906,-5.578C3.906,-5.906 3.906,-6.547 3.938,-6.781L3.312,-6.781C2.781,-6.5 1.609,-5.984 1.172,-5.828L1.172,-4.656C1.516,-4.828 2.141,-5.078 2.469,-5.203L2.469,-1.047C2.469,-0.688 2.453,-0.219 2.438,0L3.938,0Z" style="fill:rgb(35,31,31);fill-rule:nonzero;"/>
        </g>
    </g>
    <g transform="matrix(1,0,0,1,-118.818113,-128.41478)">
        <g>
            <g transform="matrix(4.166667,0,0,4.166667,0,0)">
                <g opacity="0.5">
                    <g transform="matrix(1,0,0,1,64.0082,48.5772)">
                        <path d="M0,-13.672C-0.167,-13.672 -0.331,-13.659 -0.496,-13.647C2.708,-13.392 5.237,-10.444 5.237,-6.836C5.237,-3.228 2.708,-0.28 -0.496,-0.025C-0.331,-0.013 -0.167,0 0,0C3.775,0 6.836,-3.061 6.836,-6.836C6.836,-10.611 3.775,-13.672 0,-13.672" style="fill:rgb(35,31,32);fill-rule:nonzero;"/>
                    </g>
                </g>
            </g>
            <g transform="matrix(4.166667,0,0,4.166667,266.757917,137.004583)">
                <path d="M0,17.72C4.885,17.72 8.86,13.745 8.86,8.86C8.86,3.975 4.885,0 0,0C-4.885,0 -8.86,3.975 -8.86,8.86C-8.86,13.745 -4.885,17.72 0,17.72Z" style="fill:none;fill-rule:nonzero;stroke:rgb(35,31,32);stroke-width:1px;"/>
            </g>
        </g>
        <g transform="matrix(4.166667,0,0,4.166667,255.630342,186.964992)">
            <path d="M5.016,-1.297C4.703,-1.266 4.234,-1.234 3.672,-1.234L2.703,-1.234C3.109,-1.672 3.469,-2.031 3.875,-2.562C4.5,-3.391 4.766,-3.953 4.766,-4.609C4.766,-5.875 3.938,-6.781 2.562,-6.781C1.75,-6.781 1.297,-6.484 0.812,-6.406L0.812,-4.797C1.094,-5.219 1.594,-5.484 2.156,-5.484C2.781,-5.484 3.25,-5.047 3.25,-4.359C3.25,-3.953 3.109,-3.578 2.672,-2.953C1.938,-1.922 1.297,-1.266 0.672,-0.672L0.672,0L3.391,0C3.922,0 4.672,0.016 5.016,0.047L5.016,-1.297Z" style="fill:rgb(35,31,31);fill-rule:nonzero;"/>
        </g>
    </g>
    <g transform="matrix(1,0,0,1,-118.818113,-128.41478)">
        <g>
            <g transform="matrix(4.166667,0,0,4.166667,0,0)">
                <g opacity="0.5">
                    <g transform="matrix(1,0,0,1,88.5922,48.5772)">
                        <path d="M0,-13.672C-0.177,-13.672 -0.35,-13.659 -0.523,-13.646C2.315,-13.377 4.553,-10.435 4.553,-6.836C4.553,-3.237 2.315,-0.295 -0.523,-0.027C-0.35,-0.013 -0.177,0 0,0C3.775,0 6.836,-3.061 6.836,-6.836C6.836,-10.611 3.775,-13.672 0,-13.672" style="fill:rgb(35,31,32);fill-rule:nonzero;"/>
                    </g>
                </g>
            </g>
            <g transform="matrix(4.166667,0,0,4.166667,369.19125,137.004583)">
                <path d="M0,17.72C4.885,17.72 8.86,13.745 8.86,8.86C8.86,3.975 4.885,0 0,0C-4.885,0 -8.86,3.975 -8.86,8.86C-8.86,13.745 -4.885,17.72 0,17.72Z" style="fill:none;fill-rule:nonzero;stroke:rgb(35,31,32);stroke-width:1px;"/>
            </g>
        </g>
        <g transform="matrix(4.166667,0,0,4.166667,358.099775,186.964992)">
            <path d="M0.797,-0.219C1.109,-0.156 1.688,0.094 2.422,0.094C3.75,0.094 4.656,-0.656 4.656,-1.844C4.656,-2.75 4.016,-3.297 3.328,-3.5C3.969,-3.719 4.469,-4.188 4.469,-5C4.469,-6.078 3.656,-6.75 2.422,-6.75C1.688,-6.75 1.203,-6.516 0.875,-6.438L0.875,-5.094C1.156,-5.359 1.641,-5.547 2.125,-5.547C2.672,-5.547 3.031,-5.234 3.031,-4.75C3.031,-4.266 2.672,-3.969 2.172,-3.969C2.062,-3.969 1.969,-3.969 1.891,-4L1.891,-2.875C1.953,-2.891 2.031,-2.906 2.188,-2.906C2.766,-2.906 3.172,-2.547 3.172,-2.031C3.172,-1.453 2.781,-1.094 2.125,-1.094C1.625,-1.094 1.047,-1.281 0.797,-1.609L0.797,-0.219Z" style="fill:rgb(35,31,31);fill-rule:nonzero;"/>
        </g>
    </g>
    <g transform="matrix(1,0,0,1,-118.818113,-128.41478)">
        <g>
            <g transform="matrix(4.166667,0,0,4.166667,0,0)">
                <g opacity="0.5">
                    <g transform="matrix(1,0,0,1,113.1761,48.5772)">
                        <path d="M0,-13.672C-0.283,-13.672 -0.56,-13.649 -0.834,-13.616C1.637,-13.204 3.553,-10.328 3.553,-6.836C3.553,-3.344 1.637,-0.468 -0.834,-0.056C-0.56,-0.023 -0.283,0 0,0C3.775,0 6.836,-3.061 6.836,-6.836C6.836,-10.611 3.775,-13.672 0,-13.672" style="fill:rgb(35,31,32);fill-rule:nonzero;"/>
                    </g>
                </g>
            </g>
            <g transform="matrix(4.166667,0,0,4.166667,471.624583,137.004583)">
                <path d="M0,17.72C4.885,17.72 8.86,13.745 8.86,8.86C8.86,3.975 4.885,0 0,0C-4.885,0 -8.86,3.975 -8.86,8.86C-8.86,13.745 -4.885,17.72 0,17.72Z" style="fill:none;fill-rule:nonzero;stroke:rgb(35,31,32);stroke-width:1px;"/>
            </g>
        </g>
        <g transform="matrix(4.166667,0,0,4.166667,459.104338,186.964992)">
            <path d="M4.312,0C4.297,-0.234 4.297,-0.547 4.297,-0.906L4.297,-1.734C4.75,-1.734 5.125,-1.734 5.375,-1.703L5.375,-2.812C5.141,-2.781 4.781,-2.781 4.297,-2.781L4.297,-6.797L3.75,-6.797L0.125,-2.359L0.125,-1.719C0.469,-1.734 1.016,-1.734 1.375,-1.734L2.859,-1.734L2.859,-0.906C2.859,-0.547 2.859,-0.25 2.828,0L4.312,0ZM2.859,-4.359L2.859,-2.781L1.688,-2.781L2.859,-4.359Z" style="fill:rgb(35,31,31);fill-rule:nonzero;"/>
        </g>
    </g>
    <g transform="matrix(1,0,0,1,-118.818113,-128.41478)">
        <g>
            <g transform="matrix(4.166667,0,0,4.166667,0,0)">
                <g opacity="0.5">
                    <g transform="matrix(-1,0,0,1,144.5958,48.5418)">
                        <path d="M6.149,-13.602C5.158,-12.254 4.489,-9.716 4.489,-6.801C4.489,-3.886 5.158,-1.348 6.149,0C2.696,-0.344 0,-3.257 0,-6.801C0,-10.344 2.696,-13.258 6.149,-13.602" style="fill:rgb(35,31,32);fill-rule:nonzero;"/>
                    </g>
                </g>
            </g>
            <g transform="matrix(4.166667,0,0,4.166667,574.058333,137.004583)">
                <path d="M0,17.72C4.885,17.72 8.86,13.745 8.86,8.86C8.86,3.975 4.885,0 0,0C-4.885,0 -8.86,3.975 -8.86,8.86C-8.86,13.745 -4.885,17.72 0,17.72Z" style="fill:none;fill-rule:nonzero;stroke:rgb(35,31,32);stroke-width:1px;"/>
            </g>
        </g>
        <g transform="matrix(4.166667,0,0,4.166667,562.971638,186.964992)">
            <path d="M0.656,-0.188C1,-0.109 1.578,0.125 2.312,0.125C3.656,0.125 4.75,-0.844 4.75,-2.109C4.75,-3.438 3.797,-4.234 2.672,-4.234C2.5,-4.234 2.312,-4.219 2.234,-4.172L2.531,-5.469L3.594,-5.469C3.906,-5.469 4.141,-5.453 4.391,-5.438L4.391,-6.703C4.188,-6.688 3.859,-6.672 3.5,-6.672L2.25,-6.672C1.938,-6.672 1.75,-6.672 1.562,-6.703C1.547,-6.453 1.484,-5.984 1.391,-5.578C1.203,-4.672 1,-3.828 0.797,-2.859C1.062,-3.047 1.547,-3.125 1.938,-3.125C2.641,-3.125 3.188,-2.719 3.188,-2.094C3.188,-1.484 2.703,-1.062 1.984,-1.062C1.484,-1.062 0.906,-1.312 0.656,-1.609L0.656,-0.188Z" style="fill:rgb(35,31,31);fill-rule:nonzero;"/>
        </g>
    </g>
    <g transform="matrix(1,0,0,1,-118.818113,-128.41478)">
        <g>
            <g transform="matrix(4.166667,0,0,4.166667,0,0)">
                <g opacity="0.5">
                    <g transform="matrix(1,0,0,1,162.3439,48.5772)">
                        <path d="M0,-13.672L0,0C3.775,0 6.836,-3.061 6.836,-6.836C6.836,-10.611 3.775,-13.672 0,-13.672" style="fill:rgb(35,31,32);fill-rule:nonzero;"/>
                    </g>
                </g>
            </g>
            <g transform="matrix(4.166667,0,0,4.166667,676.49125,137.004583)">
                <path d="M0,17.72C4.885,17.72 8.86,13.745 8.86,8.86C8.86,3.975 4.885,0 0,0C-4.885,0 -8.86,3.975 -8.86,8.86C-8.86,13.745 -4.885,17.72 0,17.72Z" style="fill:none;fill-rule:nonzero;stroke:rgb(35,31,32);stroke-width:1px;"/>
            </g>
        </g>
        <g transform="matrix(4.166667,0,0,4.166667,667.225967,186.964992)">
            <path d="M2.875,-6.672C2.75,-6.438 2.5,-6.094 2.141,-5.656C0.719,-3.875 0.359,-3.25 0.359,-2.219C0.359,-0.953 1.422,0.078 2.719,0.078C4.062,0.078 5.141,-0.906 5.141,-2.172C5.141,-3.391 4.328,-4.344 3.094,-4.344C2.828,-4.344 2.594,-4.266 2.469,-4.203C2.859,-4.688 3.203,-5.156 3.578,-5.578C3.906,-5.984 4.297,-6.438 4.547,-6.672L2.875,-6.672ZM1.75,-2.172C1.75,-2.719 2.203,-3.156 2.75,-3.156C3.297,-3.156 3.734,-2.703 3.734,-2.125C3.734,-1.578 3.312,-1.125 2.766,-1.125C2.203,-1.125 1.75,-1.594 1.75,-2.172Z" style="fill:rgb(35,31,31);fill-rule:nonzero;"/>
        </g>
    </g>
    <g transform="matrix(1,0,0,1,-118.818113,-128.41478)">
        <g>
            <g transform="matrix(4.166667,0,0,4.166667,0,0)">
                <g opacity="0.5">
                    <g transform="matrix(1,0,0,1,186.9278,48.5772)">
                        <path d="M0,-13.672L0,0C3.775,0 6.836,-3.061 6.836,-6.836C6.836,-10.611 3.775,-13.672 0,-13.672" style="fill:rgb(35,31,32);fill-rule:nonzero;"/>
                    </g>
                </g>
            </g>
            <g transform="matrix(4.166667,0,0,4.166667,778.924583,137.004583)">
                <path d="M0,17.72C4.885,17.72 8.86,13.745 8.86,8.86C8.86,3.975 4.885,0 0,0C-4.885,0 -8.86,3.975 -8.86,8.86C-8.86,13.745 -4.885,17.72 0,17.72Z" style="fill:none;fill-rule:nonzero;stroke:rgb(35,31,32);stroke-width:1px;"/>
            </g>
        </g>
        <g transform="matrix(4.166667,0,0,4.166667,767.942963,186.964992)">
            <path d="M2.25,0C2.328,-0.188 2.5,-0.594 2.641,-0.906C3.422,-2.594 4.109,-4.109 4.938,-5.828C5.094,-6.125 5.266,-6.484 5.391,-6.703C5.156,-6.672 4.75,-6.672 4.406,-6.672L1.578,-6.672C1.234,-6.672 0.812,-6.672 0.594,-6.703L0.594,-5.359C0.797,-5.375 1.219,-5.406 1.578,-5.406L3.438,-5.406C2.719,-3.891 2.078,-2.547 1.312,-1.031C1.188,-0.781 0.906,-0.234 0.734,0L2.25,0Z" style="fill:rgb(35,31,31);fill-rule:nonzero;"/>
        </g>
    </g>
    <g transform="matrix(1,0,0,1,-118.818113,-128.41478)">
        <g>
            <g transform="matrix(4.166667,0,0,4.166667,0,0)">
                <g opacity="0.5">
                    <g transform="matrix(1,0,0,1,211.5117,48.5772)">
                        <path d="M0,-13.672C-0.617,-13.672 -1.212,-13.583 -1.781,-13.429C-2.684,-12.034 -3.282,-9.615 -3.282,-6.858C-3.282,-4.065 -2.667,-1.62 -1.745,-0.234C-1.187,-0.086 -0.604,0 0,0C3.775,0 6.836,-3.061 6.836,-6.836C6.836,-10.611 3.775,-13.672 0,-13.672" style="fill:rgb(35,31,32);fill-rule:nonzero;"/>
                    </g>
                </g>
            </g>
            <g transform="matrix(4.166667,0,0,4.166667,881.357917,137.004583)">
                <path d="M0,17.72C4.885,17.72 8.86,13.745 8.86,8.86C8.86,3.975 4.885,0 0,0C-4.885,0 -8.86,3.975 -8.86,8.86C-8.86,13.745 -4.885,17.72 0,17.72Z" style="fill:none;fill-rule:nonzero;stroke:rgb(35,31,32);stroke-width:1px;"/>
            </g>
        </g>
        <g transform="matrix(4.166667,0,0,4.166667,870.414063,186.964992)">
            <path d="M1.859,-2.031C1.859,-2.516 2.234,-2.891 2.703,-2.891C3.188,-2.891 3.594,-2.5 3.594,-2.031C3.594,-1.562 3.188,-1.172 2.703,-1.172C2.234,-1.172 1.859,-1.562 1.859,-2.031ZM2.031,-4.844C2.031,-5.219 2.344,-5.516 2.703,-5.516C3.109,-5.516 3.406,-5.219 3.406,-4.828C3.406,-4.438 3.109,-4.141 2.719,-4.141C2.344,-4.141 2.031,-4.438 2.031,-4.844ZM0.656,-4.969C0.656,-4.266 1.062,-3.75 1.578,-3.516C0.953,-3.25 0.469,-2.703 0.469,-1.938C0.469,-0.828 1.344,0.062 2.703,0.062C4.094,0.062 4.969,-0.812 4.969,-1.891C4.969,-2.719 4.453,-3.266 3.828,-3.516C4.328,-3.75 4.766,-4.25 4.766,-4.969C4.766,-5.953 3.906,-6.75 2.703,-6.75C1.531,-6.75 0.656,-5.953 0.656,-4.969Z" style="fill:rgb(35,31,31);fill-rule:nonzero;"/>
        </g>
    </g>
    <g transform="matrix(1,0,0,1,-118.818113,-128.41478)">
        <g>
            <g transform="matrix(4.166667,0,0,4.166667,0,0)">
                <g opacity="0.5">
                    <g transform="matrix(1,0,0,1,236.0956,48.5772)">
                        <path d="M0,-13.672C-0.546,-13.672 -1.075,-13.601 -1.585,-13.48C-2.737,-12.348 -3.543,-9.791 -3.543,-6.811C-3.543,-3.886 -2.765,-1.37 -1.646,-0.208C-1.118,-0.077 -0.569,0 0,0C3.775,0 6.836,-3.061 6.836,-6.836C6.836,-10.611 3.775,-13.672 0,-13.672" style="fill:rgb(35,31,32);fill-rule:nonzero;"/>
                    </g>
                </g>
            </g>
            <g transform="matrix(4.166667,0,0,4.166667,983.79125,137.004583)">
                <path d="M0,17.72C4.885,17.72 8.86,13.745 8.86,8.86C8.86,3.975 4.885,0 0,0C-4.885,0 -8.86,3.975 -8.86,8.86C-8.86,13.745 -4.885,17.72 0,17.72Z" style="fill:none;fill-rule:nonzero;stroke:rgb(35,31,32);stroke-width:1px;"/>
            </g>
        </g>
        <g transform="matrix(4.166667,0,0,4.166667,976.112033,186.964992)">
            <path d="M2.609,0C2.75,-0.234 3.188,-0.812 3.453,-1.156C4.594,-2.656 5.125,-3.344 5.125,-4.438C5.125,-5.719 4.047,-6.75 2.75,-6.75C1.422,-6.75 0.344,-5.766 0.344,-4.516C0.344,-3.297 1.281,-2.344 2.516,-2.344C2.672,-2.344 2.875,-2.391 2.984,-2.469C2.703,-2.094 2.203,-1.422 1.781,-0.922C1.531,-0.594 1.234,-0.25 0.984,0L2.609,0ZM3.719,-4.5C3.719,-3.938 3.281,-3.5 2.75,-3.5C2.188,-3.5 1.734,-3.969 1.734,-4.516C1.734,-5.094 2.188,-5.547 2.75,-5.547C3.281,-5.547 3.719,-5.078 3.719,-4.5Z" style="fill:rgb(35,31,31);fill-rule:nonzero;"/>
        </g>
    </g>
    <g transform="matrix(1,0,0,1,-118.818113,-128.41478)">
        <g>
            <g transform="matrix(4.166667,0,0,4.166667,0,0)">
                <g opacity="0.5">
                    <g transform="matrix(1,0,0,1,260.6795,48.5772)">
                        <path d="M0,-13.672C-1.046,-13.672 -2.032,-13.43 -2.919,-13.011C-3.681,-11.565 -4.172,-9.328 -4.172,-6.811C-4.172,-4.335 -3.698,-2.128 -2.956,-0.68C-2.061,-0.249 -1.061,0 0,0C3.775,0 6.836,-3.061 6.836,-6.836C6.836,-10.611 3.775,-13.672 0,-13.672" style="fill:rgb(35,31,32);fill-rule:nonzero;"/>
                    </g>
                </g>
            </g>
            <g transform="matrix(4.166667,0,0,4.166667,1086.224583,137.004583)">
                <path d="M0,17.72C4.885,17.72 8.86,13.745 8.86,8.86C8.86,3.975 4.885,0 0,0C-4.885,0 -8.86,3.975 -8.86,8.86C-8.86,13.745 -4.885,17.72 0,17.72Z" style="fill:none;fill-rule:nonzero;stroke:rgb(35,31,32);stroke-width:1px;"/>
            </g>
        </g>
        <g transform="matrix(4.166667,0,0,4.166667,1063.500379,186.964992)">
            <path d="M3.938,0C3.906,-0.203 3.906,-0.672 3.906,-1.047L3.906,-5.578C3.906,-5.906 3.906,-6.547 3.938,-6.781L3.312,-6.781C2.781,-6.5 1.609,-5.984 1.172,-5.828L1.172,-4.656C1.516,-4.828 2.141,-5.078 2.469,-5.203L2.469,-1.047C2.469,-0.688 2.453,-0.219 2.438,0L3.938,0Z" style="fill:rgb(35,31,31);fill-rule:nonzero;"/>
        </g>
        <g transform="matrix(4.166667,0,0,4.166667,1090.467308,186.964992)">
            <path d="M0.312,-3.344C0.312,-1.422 1.141,0.094 2.719,0.094C4.312,0.094 5.156,-1.422 5.156,-3.344C5.156,-5.266 4.312,-6.781 2.719,-6.781C1.141,-6.781 0.312,-5.266 0.312,-3.344ZM1.781,-3.344C1.781,-4.656 2.062,-5.578 2.719,-5.578C3.406,-5.578 3.688,-4.641 3.688,-3.344C3.688,-2.031 3.406,-1.109 2.719,-1.109C2.062,-1.109 1.781,-2.031 1.781,-3.344Z" style="fill:rgb(35,31,31);fill-rule:nonzero;"/>
        </g>
    </g>
    <g transform="matrix(1,0,0,1,-118.818113,-128.41478)">
        <g>
            <g transform="matrix(4.166667,0,0,4.166667,0,0)">
                <g opacity="0.5">
                    <g transform="matrix(1,0,0,1,285.2634,48.5772)">
                        <path d="M0,-13.672C-1.238,-13.672 -2.395,-13.338 -3.396,-12.763C-4.04,-11.315 -4.448,-9.189 -4.448,-6.811C-4.448,-4.47 -4.051,-2.373 -3.425,-0.927C-2.417,-0.341 -1.25,0 0,0C3.775,0 6.836,-3.061 6.836,-6.836C6.836,-10.611 3.775,-13.672 0,-13.672" style="fill:rgb(35,31,32);fill-rule:nonzero;"/>
                    </g>
                </g>
            </g>
            <g transform="matrix(4.166667,0,0,4.166667,1188.657917,137.004583)">
                <path d="M0,17.72C4.885,17.72 8.86,13.745 8.86,8.86C8.86,3.975 4.885,0 0,0C-4.885,0 -8.86,3.975 -8.86,8.86C-8.86,13.745 -4.885,17.72 0,17.72Z" style="fill:none;fill-rule:nonzero;stroke:rgb(35,31,32);stroke-width:1px;"/>
            </g>
        </g>
        <g transform="matrix(4.166667,0,0,4.166667,1164.371771,186.964992)">
            <path d="M3.938,0C3.906,-0.203 3.906,-0.672 3.906,-1.047L3.906,-5.578C3.906,-5.906 3.906,-6.547 3.938,-6.781L3.312,-6.781C2.781,-6.5 1.609,-5.984 1.172,-5.828L1.172,-4.656C1.516,-4.828 2.141,-5.078 2.469,-5.203L2.469,-1.047C2.469,-0.688 2.453,-0.219 2.438,0L3.938,0Z" style="fill:rgb(35,31,31);fill-rule:nonzero;"/>
        </g>
        <g transform="matrix(4.166667,0,0,4.166667,1191.3387,186.964992)">
            <path d="M3.938,0C3.906,-0.203 3.906,-0.672 3.906,-1.047L3.906,-5.578C3.906,-5.906 3.906,-6.547 3.938,-6.781L3.312,-6.781C2.781,-6.5 1.609,-5.984 1.172,-5.828L1.172,-4.656C1.516,-4.828 2.141,-5.078 2.469,-5.203L2.469,-1.047C2.469,-0.688 2.453,-0.219 2.438,0L3.938,0Z" style="fill:rgb(35,31,31);fill-rule:nonzero;"/>
        </g>
    </g>
    <g transform="matrix(1,0,0,1,-118.818113,-128.41478)">
        <g>
            <g transform="matrix(4.166667,0,0,4.166667,0,0)">
                <g opacity="0.5">
                    <g transform="matrix(1,0,0,1,309.8474,48.5772)">
                        <path d="M0,-13.672C-1.385,-13.672 -2.672,-13.257 -3.749,-12.549C-4.391,-11.211 -4.804,-9.141 -4.804,-6.811C-4.804,-4.525 -4.407,-2.485 -3.786,-1.146C-2.702,-0.423 -1.401,0 0,0C3.775,0 6.836,-3.061 6.836,-6.836C6.836,-10.611 3.775,-13.672 0,-13.672" style="fill:rgb(35,31,32);fill-rule:nonzero;"/>
                    </g>
                </g>
            </g>
            <g transform="matrix(4.166667,0,0,4.166667,1291.09125,137.004583)">
                <path d="M0,17.72C4.885,17.72 8.86,13.745 8.86,8.86C8.86,3.975 4.885,0 0,0C-4.885,0 -8.86,3.975 -8.86,8.86C-8.86,13.745 -4.885,17.72 0,17.72Z" style="fill:none;fill-rule:nonzero;stroke:rgb(35,31,32);stroke-width:1px;"/>
            </g>
        </g>
        <g transform="matrix(4.166667,0,0,4.166667,1266.075083,186.964992)">
            <path d="M3.938,0C3.906,-0.203 3.906,-0.672 3.906,-1.047L3.906,-5.578C3.906,-5.906 3.906,-6.547 3.938,-6.781L3.312,-6.781C2.781,-6.5 1.609,-5.984 1.172,-5.828L1.172,-4.656C1.516,-4.828 2.141,-5.078 2.469,-5.203L2.469,-1.047C2.469,-0.688 2.453,-0.219 2.438,0L3.938,0Z" style="fill:rgb(35,31,31);fill-rule:nonzero;"/>
        </g>
        <g transform="matrix(4.166667,0,0,4.166667,1293.042013,186.964992)">
            <path d="M5.016,-1.297C4.703,-1.266 4.234,-1.234 3.672,-1.234L2.703,-1.234C3.109,-1.672 3.469,-2.031 3.875,-2.562C4.5,-3.391 4.766,-3.953 4.766,-4.609C4.766,-5.875 3.938,-6.781 2.562,-6.781C1.75,-6.781 1.297,-6.484 0.812,-6.406L0.812,-4.797C1.094,-5.219 1.594,-5.484 2.156,-5.484C2.781,-5.484 3.25,-5.047 3.25,-4.359C3.25,-3.953 3.109,-3.578 2.672,-2.953C1.938,-1.922 1.297,-1.266 0.672,-0.672L0.672,0L3.391,0C3.922,0 4.672,0.016 5.016,0.047L5.016,-1.297Z" style="fill:rgb(35,31,31);fill-rule:nonzero;"/>
        </g>
    </g>
    <g transform="matrix(1,0,0,1,-118.818113,-128.41478)">
        <g>
            <g transform="matrix(4.166667,0,0,4.166667,0,0)">
                <g opacity="0.5">
                    <g transform="matrix(1,0,0,1,383.5991,34.9048)">
                        <path d="M0,13.672C1.385,13.672 2.672,13.257 3.749,12.549C4.391,11.211 4.804,9.141 4.804,6.811C4.804,4.525 4.407,2.485 3.786,1.146C2.702,0.423 1.401,0 0,0C-3.775,0 -6.836,3.061 -6.836,6.836C-6.836,10.612 -3.775,13.672 0,13.672" style="fill:rgb(35,31,32);fill-rule:nonzero;"/>
                    </g>
                </g>
            </g>
            <g transform="matrix(4.166667,0,0,4.166667,1598.39125,137.004583)">
                <path d="M0,17.72C4.885,17.72 8.86,13.745 8.86,8.86C8.86,3.975 4.885,0 0,0C-4.885,0 -8.86,3.975 -8.86,8.86C-8.86,13.745 -4.885,17.72 0,17.72Z" style="fill:none;fill-rule:nonzero;stroke:rgb(35,31,32);stroke-width:1px;"/>
            </g>
        </g>
        <g transform="matrix(4.166667,0,0,4.166667,1572.850825,186.964992)">
            <path d="M3.938,0C3.906,-0.203 3.906,-0.672 3.906,-1.047L3.906,-5.578C3.906,-5.906 3.906,-6.547 3.938,-6.781L3.312,-6.781C2.781,-6.5 1.609,-5.984 1.172,-5.828L1.172,-4.656C1.516,-4.828 2.141,-5.078 2.469,-5.203L2.469,-1.047C2.469,-0.688 2.453,-0.219 2.438,0L3.938,0Z" style="fill:rgb(35,31,31);fill-rule:nonzero;"/>
        </g>
        <g transform="matrix(4.166667,0,0,4.166667,1599.817754,186.964992)">
            <path d="M0.656,-0.188C1,-0.109 1.578,0.125 2.312,0.125C3.656,0.125 4.75,-0.844 4.75,-2.109C4.75,-3.438 3.797,-4.234 2.672,-4.234C2.5,-4.234 2.312,-4.219 2.234,-4.172L2.531,-5.469L3.594,-5.469C3.906,-5.469 4.141,-5.453 4.391,-5.438L4.391,-6.703C4.188,-6.688 3.859,-6.672 3.5,-6.672L2.25,-6.672C1.938,-6.672 1.75,-6.672 1.562,-6.703C1.547,-6.453 1.484,-5.984 1.391,-5.578C1.203,-4.672 1,-3.828 0.797,-2.859C1.062,-3.047 1.547,-3.125 1.938,-3.125C2.641,-3.125 3.188,-2.719 3.188,-2.094C3.188,-1.484 2.703,-1.062 1.984,-1.062C1.484,-1.062 0.906,-1.312 0.656,-1.609L0.656,-0.188Z" style="fill:rgb(35,31,31);fill-rule:nonzero;"/>
        </g>
    </g>
    <g transform="matrix(1,0,0,1,-118.818113,-128.41478)">
        <g>
            <g transform="matrix(4.166667,0,0,4.166667,0,0)">
                <g opacity="0.5">
                    <g transform="matrix(0,-1,-1,0,334.4312,34.9051)">
                        <path d="M-6.836,-6.836C-10.611,-6.836 -13.672,-3.775 -13.672,0C-13.672,3.775 -10.611,6.836 -6.836,6.836C-3.061,6.836 0,3.775 0,0C0,-3.775 -3.061,-6.836 -6.836,-6.836" style="fill:rgb(35,31,32);fill-rule:nonzero;"/>
                    </g>
                </g>
            </g>
            <g transform="matrix(4.166667,0,0,4.166667,1393.525,137.004583)">
                <path d="M0,17.72C4.885,17.72 8.86,13.745 8.86,8.86C8.86,3.975 4.885,0 0,0C-4.885,0 -8.86,3.975 -8.86,8.86C-8.86,13.745 -4.885,17.72 0,17.72Z" style="fill:none;fill-rule:nonzero;stroke:rgb(35,31,32);stroke-width:1px;"/>
            </g>
        </g>
        <g transform="matrix(4.166667,0,0,4.166667,1368.110467,186.964992)">
            <path d="M3.938,0C3.906,-0.203 3.906,-0.672 3.906,-1.047L3.906,-5.578C3.906,-5.906 3.906,-6.547 3.938,-6.781L3.312,-6.781C2.781,-6.5 1.609,-5.984 1.172,-5.828L1.172,-4.656C1.516,-4.828 2.141,-5.078 2.469,-5.203L2.469,-1.047C2.469,-0.688 2.453,-0.219 2.438,0L3.938,0Z" style="fill:rgb(35,31,31);fill-rule:nonzero;"/>
        </g>
        <g transform="matrix(4.166667,0,0,4.166667,1395.077396,186.964992)">
            <path d="M0.797,-0.219C1.109,-0.156 1.688,0.094 2.422,0.094C3.75,0.094 4.656,-0.656 4.656,-1.844C4.656,-2.75 4.016,-3.297 3.328,-3.5C3.969,-3.719 4.469,-4.188 4.469,-5C4.469,-6.078 3.656,-6.75 2.422,-6.75C1.688,-6.75 1.203,-6.516 0.875,-6.438L0.875,-5.094C1.156,-5.359 1.641,-5.547 2.125,-5.547C2.672,-5.547 3.031,-5.234 3.031,-4.75C3.031,-4.266 2.672,-3.969 2.172,-3.969C2.062,-3.969 1.969,-3.969 1.891,-4L1.891,-2.875C1.953,-2.891 2.031,-2.906 2.188,-2.906C2.766,-2.906 3.172,-2.547 3.172,-2.031C3.172,-1.453 2.781,-1.094 2.125,-1.094C1.625,-1.094 1.047,-1.281 0.797,-1.609L0.797,-0.219Z" style="fill:rgb(35,31,31);fill-rule:nonzero;"/>
        </g>
    </g>
    <g transform="matrix(1,0,0,1,-118.818113,-128.41478)">
        <g>
            <g transform="matrix(4.166667,0,0,4.166667,0,0)">
                <g opacity="0.5">
                    <g transform="matrix(0,-1,-1,0,359.015,34.9051)">
                        <path d="M-6.836,-6.836C-10.611,-6.836 -13.672,-3.775 -13.672,0C-13.672,3.775 -10.611,6.836 -6.836,6.836C-3.061,6.836 0,3.775 0,0C0,-3.775 -3.061,-6.836 -6.836,-6.836" style="fill:rgb(35,31,32);fill-rule:nonzero;"/>
                    </g>
                </g>
            </g>
            <g transform="matrix(4.166667,0,0,4.166667,1495.957917,137.004583)">
                <path d="M0,17.72C4.885,17.72 8.86,13.745 8.86,8.86C8.86,3.975 4.885,0 0,0C-4.885,0 -8.86,3.975 -8.86,8.86C-8.86,13.745 -4.885,17.72 0,17.72Z" style="fill:none;fill-rule:nonzero;stroke:rgb(35,31,32);stroke-width:1px;"/>
            </g>
        </g>
        <g transform="matrix(4.166667,0,0,4.166667,1474.541292,186.964992)">
            <path d="M3.938,0C3.906,-0.203 3.906,-0.672 3.906,-1.047L3.906,-5.578C3.906,-5.906 3.906,-6.547 3.938,-6.781L3.312,-6.781C2.781,-6.5 1.609,-5.984 1.172,-5.828L1.172,-4.656C1.516,-4.828 2.141,-5.078 2.469,-5.203L2.469,-1.047C2.469,-0.688 2.453,-0.219 2.438,0L3.938,0Z" style="fill:rgb(35,31,31);fill-rule:nonzero;"/>
        </g>
        <g transform="matrix(4.166667,0,0,4.166667,1501.508221,186.964992)">
            <path d="M4.312,0C4.297,-0.234 4.297,-0.547 4.297,-0.906L4.297,-1.734C4.75,-1.734 5.125,-1.734 5.375,-1.703L5.375,-2.812C5.141,-2.781 4.781,-2.781 4.297,-2.781L4.297,-6.797L3.75,-6.797L0.125,-2.359L0.125,-1.719C0.469,-1.734 1.016,-1.734 1.375,-1.734L2.859,-1.734L2.859,-0.906C2.859,-0.547 2.859,-0.25 2.828,0L4.312,0ZM2.859,-4.359L2.859,-2.781L1.688,-2.781L2.859,-4.359Z" style="fill:rgb(35,31,31);fill-rule:nonzero;"/>
        </g>
    </g>
</svg>
