<?xml version="1.0" encoding="UTF-8" standalone="no"?>
<!DOCTYPE svg PUBLIC "-//W3C//DTD SVG 1.1//EN" "http://www.w3.org/Graphics/SVG/1.1/DTD/svg11.dtd">
<svg width="100%" height="100%" viewBox="0 0 1577 85" version="1.1" xmlns="http://www.w3.org/2000/svg" xmlns:xlink="http://www.w3.org/1999/xlink" xml:space="preserve" xmlns:serif="http://www.serif.com/" style="fill-rule:evenodd;clip-rule:evenodd;">
    <g transform="matrix(1,0,0,1,-124.392598,-250.925932)">
        <g transform="matrix(4.166667,0,0,4.166667,784.656667,306.182682)">
            <path d="M0.797,-0.219C1.109,-0.156 1.688,0.094 2.422,0.094C3.766,0.094 4.656,-0.656 4.656,-1.844C4.656,-2.766 4.016,-3.297 3.328,-3.5C3.969,-3.719 4.484,-4.188 4.484,-5.016C4.484,-6.078 3.656,-6.766 2.422,-6.766C1.688,-6.766 1.203,-6.516 0.875,-6.453L0.875,-5.094C1.156,-5.375 1.656,-5.562 2.125,-5.562C2.688,-5.562 3.031,-5.234 3.031,-4.766C3.031,-4.281 2.688,-3.984 2.188,-3.984C2.062,-3.984 1.969,-3.984 1.906,-4L1.906,-2.875C1.953,-2.891 2.047,-2.906 2.188,-2.906C2.766,-2.906 3.188,-2.547 3.188,-2.031C3.188,-1.453 2.797,-1.094 2.125,-1.094C1.625,-1.094 1.047,-1.297 0.797,-1.609L0.797,-0.219Z" style="fill-rule:nonzero;"/>
        </g>
        <g transform="matrix(4.166667,0,0,4.166667,811.656667,306.182682)">
            <path d="M2.266,0C2.328,-0.188 2.516,-0.594 2.656,-0.906C3.422,-2.594 4.125,-4.125 4.953,-5.844C5.094,-6.141 5.281,-6.484 5.406,-6.703C5.156,-6.688 4.75,-6.688 4.422,-6.688L1.578,-6.688C1.234,-6.688 0.812,-6.688 0.594,-6.703L0.594,-5.375C0.797,-5.391 1.219,-5.406 1.578,-5.406L3.438,-5.406C2.734,-3.891 2.078,-2.547 1.312,-1.047C1.188,-0.781 0.906,-0.234 0.734,0L2.266,0Z" style="fill-rule:nonzero;"/>
        </g>
        <g transform="matrix(0.416667,0,0,0.416667,-741,-2092.641667)">
            <path d="M3713.39,5817.07C3763.63,5817.07 3804.49,5776.21 3804.49,5725.98C3804.49,5675.74 3763.63,5634.87 3713.39,5634.87C3663.16,5634.87 3622.29,5675.74 3622.29,5725.98C3622.29,5776.21 3663.16,5817.07 3713.39,5817.07Z" style="fill:none;fill-rule:nonzero;stroke:black;stroke-width:5px;"/>
        </g>
        <g transform="matrix(0.416667,0,0,0.416667,-741,-2092.6375)">
            <path d="M3713.39,5810.4C3759.95,5810.4 3797.82,5772.52 3797.82,5725.97C3797.82,5679.41 3759.95,5641.53 3713.39,5641.53C3666.83,5641.53 3628.95,5679.41 3628.95,5725.97C3628.95,5772.52 3666.83,5810.4 3713.39,5810.4Z" style="fill:none;fill-rule:nonzero;stroke:black;stroke-width:1.67px;"/>
        </g>
        <g transform="matrix(4.166667,0,0,4.166667,-741,129)">
            <g opacity="0.5">
                <g transform="matrix(0.1,0,0,0.1,0,-533.193)">
                    <path d="M3713.29,5657.61C3707.12,5657.61 3701.17,5658.5 3695.48,5660.04C3686.45,5673.98 3680.47,5698.18 3680.47,5725.75C3680.47,5753.68 3686.62,5778.13 3695.84,5791.98C3701.42,5793.47 3707.25,5794.32 3713.29,5794.32C3751.04,5794.32 3781.65,5763.72 3781.65,5725.97C3781.65,5688.21 3751.04,5657.61 3713.29,5657.61" style="fill-rule:nonzero;"/>
                </g>
            </g>
        </g>
    </g>
    <g transform="matrix(1,0,0,1,-124.392598,-250.925932)">
        <g transform="matrix(4.166667,0,0,4.166667,144.573333,306.182682)">
            <path d="M0.797,-0.219C1.109,-0.156 1.688,0.094 2.422,0.094C3.766,0.094 4.656,-0.656 4.656,-1.844C4.656,-2.766 4.016,-3.297 3.328,-3.5C3.969,-3.719 4.484,-4.188 4.484,-5.016C4.484,-6.078 3.656,-6.766 2.422,-6.766C1.688,-6.766 1.203,-6.516 0.875,-6.453L0.875,-5.094C1.156,-5.375 1.656,-5.562 2.125,-5.562C2.688,-5.562 3.031,-5.234 3.031,-4.766C3.031,-4.281 2.688,-3.984 2.188,-3.984C2.062,-3.984 1.969,-3.984 1.906,-4L1.906,-2.875C1.953,-2.891 2.047,-2.906 2.188,-2.906C2.766,-2.906 3.188,-2.547 3.188,-2.031C3.188,-1.453 2.797,-1.094 2.125,-1.094C1.625,-1.094 1.047,-1.297 0.797,-1.609L0.797,-0.219Z" style="fill-rule:nonzero;"/>
        </g>
        <g transform="matrix(4.166667,0,0,4.166667,171.573333,306.182682)">
            <path d="M3.938,0C3.922,-0.203 3.906,-0.688 3.906,-1.047L3.906,-5.578C3.906,-5.906 3.922,-6.547 3.953,-6.797L3.312,-6.797C2.797,-6.516 1.609,-6 1.188,-5.844L1.188,-4.672C1.516,-4.828 2.141,-5.078 2.469,-5.203L2.469,-1.047C2.469,-0.688 2.453,-0.219 2.438,0L3.938,0Z" style="fill-rule:nonzero;"/>
        </g>
        <g transform="matrix(0.416667,0,0,0.416667,-741,-2092.641667)">
            <path d="M2178.36,5817.07C2228.59,5817.07 2269.45,5776.21 2269.45,5725.98C2269.45,5675.74 2228.59,5634.87 2178.36,5634.87C2128.13,5634.87 2087.25,5675.74 2087.25,5725.98C2087.25,5776.21 2128.13,5817.07 2178.36,5817.07Z" style="fill:none;fill-rule:nonzero;stroke:black;stroke-width:5px;"/>
        </g>
        <g transform="matrix(0.416667,0,0,0.416667,-741,-2092.6375)">
            <path d="M2178.36,5810.4C2224.91,5810.4 2262.79,5772.52 2262.79,5725.97C2262.79,5679.41 2224.91,5641.53 2178.36,5641.53C2131.79,5641.53 2093.91,5679.41 2093.91,5725.97C2093.91,5772.52 2131.79,5810.4 2178.36,5810.4Z" style="fill:none;fill-rule:nonzero;stroke:black;stroke-width:1.67px;"/>
        </g>
        <g transform="matrix(4.166667,0,0,4.166667,-741,129)">
            <g opacity="0.5">
                <g transform="matrix(0.1,0,0,0.1,0,-533.193)">
                    <path d="M2178.26,5657.61C2176.59,5657.61 2174.95,5657.73 2173.3,5657.86C2205.34,5660.41 2230.63,5689.89 2230.63,5725.97C2230.63,5762.05 2205.34,5791.53 2173.3,5794.07C2174.95,5794.19 2176.59,5794.32 2178.26,5794.32C2216.01,5794.32 2246.62,5763.72 2246.62,5725.97C2246.62,5688.21 2216.01,5657.61 2178.26,5657.61" style="fill-rule:nonzero;"/>
                </g>
            </g>
        </g>
    </g>
    <g transform="matrix(1,0,0,1,-124.392598,-250.925932)">
        <g transform="matrix(4.166667,0,0,4.166667,889.656667,306.182682)">
            <path d="M0.797,-0.219C1.109,-0.156 1.688,0.094 2.422,0.094C3.766,0.094 4.656,-0.656 4.656,-1.844C4.656,-2.766 4.016,-3.297 3.328,-3.5C3.969,-3.719 4.484,-4.188 4.484,-5.016C4.484,-6.078 3.656,-6.766 2.422,-6.766C1.688,-6.766 1.203,-6.516 0.875,-6.453L0.875,-5.094C1.156,-5.375 1.656,-5.562 2.125,-5.562C2.688,-5.562 3.031,-5.234 3.031,-4.766C3.031,-4.281 2.688,-3.984 2.188,-3.984C2.062,-3.984 1.969,-3.984 1.906,-4L1.906,-2.875C1.953,-2.891 2.047,-2.906 2.188,-2.906C2.766,-2.906 3.188,-2.547 3.188,-2.031C3.188,-1.453 2.797,-1.094 2.125,-1.094C1.625,-1.094 1.047,-1.297 0.797,-1.609L0.797,-0.219Z" style="fill-rule:nonzero;"/>
        </g>
        <g transform="matrix(4.166667,0,0,4.166667,916.656667,306.182682)">
            <path d="M1.859,-2.047C1.859,-2.516 2.234,-2.906 2.703,-2.906C3.203,-2.906 3.594,-2.516 3.594,-2.047C3.594,-1.562 3.203,-1.172 2.703,-1.172C2.234,-1.172 1.859,-1.562 1.859,-2.047ZM2.031,-4.844C2.031,-5.234 2.344,-5.516 2.703,-5.516C3.109,-5.516 3.406,-5.234 3.406,-4.844C3.406,-4.453 3.109,-4.156 2.719,-4.156C2.344,-4.156 2.031,-4.453 2.031,-4.844ZM0.656,-4.969C0.656,-4.266 1.062,-3.766 1.578,-3.516C0.953,-3.266 0.469,-2.703 0.469,-1.938C0.469,-0.828 1.344,0.062 2.703,0.062C4.094,0.062 4.984,-0.812 4.984,-1.906C4.984,-2.734 4.453,-3.266 3.828,-3.516C4.328,-3.75 4.766,-4.266 4.766,-4.984C4.766,-5.953 3.922,-6.766 2.703,-6.766C1.531,-6.766 0.656,-5.953 0.656,-4.969Z" style="fill-rule:nonzero;"/>
        </g>
        <g transform="matrix(0.416667,0,0,0.416667,-741,-2092.641667)">
            <path d="M3969.23,5817.07C4019.46,5817.07 4060.34,5776.21 4060.34,5725.98C4060.34,5675.74 4019.46,5634.87 3969.23,5634.87C3919,5634.87 3878.13,5675.74 3878.13,5725.98C3878.13,5776.21 3919,5817.07 3969.23,5817.07Z" style="fill:none;fill-rule:nonzero;stroke:black;stroke-width:5px;"/>
        </g>
        <g transform="matrix(0.416667,0,0,0.416667,-741,-2092.6375)">
            <path d="M3969.23,5810.4C4015.79,5810.4 4053.66,5772.52 4053.66,5725.97C4053.66,5679.41 4015.79,5641.53 3969.23,5641.53C3922.68,5641.53 3884.79,5679.41 3884.79,5725.97C3884.79,5772.52 3922.68,5810.4 3969.23,5810.4Z" style="fill:none;fill-rule:nonzero;stroke:black;stroke-width:1.67px;"/>
        </g>
        <g transform="matrix(4.166667,0,0,4.166667,-741,129)">
            <g opacity="0.5">
                <g transform="matrix(0.1,0,0,0.1,0,-533.193)">
                    <path d="M3969.13,5657.61C3963.66,5657.61 3958.38,5658.32 3953.28,5659.53C3941.76,5670.85 3933.7,5696.41 3933.7,5726.22C3933.7,5755.47 3941.48,5780.63 3952.67,5792.25C3957.95,5793.55 3963.44,5794.32 3969.13,5794.32C4006.88,5794.32 4037.49,5763.72 4037.49,5725.97C4037.49,5688.21 4006.88,5657.61 3969.13,5657.61" style="fill-rule:nonzero;"/>
                </g>
            </g>
        </g>
    </g>
    <g transform="matrix(1,0,0,1,-124.392598,-250.925932)">
        <g transform="matrix(4.166667,0,0,4.166667,247.656667,306.182682)">
            <path d="M0.797,-0.219C1.109,-0.156 1.688,0.094 2.422,0.094C3.766,0.094 4.656,-0.656 4.656,-1.844C4.656,-2.766 4.016,-3.297 3.328,-3.5C3.969,-3.719 4.484,-4.188 4.484,-5.016C4.484,-6.078 3.656,-6.766 2.422,-6.766C1.688,-6.766 1.203,-6.516 0.875,-6.453L0.875,-5.094C1.156,-5.375 1.656,-5.562 2.125,-5.562C2.688,-5.562 3.031,-5.234 3.031,-4.766C3.031,-4.281 2.688,-3.984 2.188,-3.984C2.062,-3.984 1.969,-3.984 1.906,-4L1.906,-2.875C1.953,-2.891 2.047,-2.906 2.188,-2.906C2.766,-2.906 3.188,-2.547 3.188,-2.031C3.188,-1.453 2.797,-1.094 2.125,-1.094C1.625,-1.094 1.047,-1.297 0.797,-1.609L0.797,-0.219Z" style="fill-rule:nonzero;"/>
        </g>
        <g transform="matrix(4.166667,0,0,4.166667,274.656667,306.182682)">
            <path d="M5.016,-1.297C4.703,-1.266 4.234,-1.234 3.672,-1.234L2.703,-1.234C3.125,-1.672 3.484,-2.047 3.875,-2.562C4.5,-3.391 4.766,-3.953 4.766,-4.609C4.766,-5.891 3.938,-6.797 2.562,-6.797C1.75,-6.797 1.297,-6.5 0.812,-6.422L0.812,-4.797C1.094,-5.234 1.594,-5.5 2.156,-5.5C2.797,-5.5 3.266,-5.047 3.266,-4.375C3.266,-3.953 3.109,-3.594 2.672,-2.953C1.938,-1.922 1.297,-1.266 0.688,-0.672L0.688,0L3.391,0C3.938,0 4.688,0.016 5.016,0.047L5.016,-1.297Z" style="fill-rule:nonzero;"/>
        </g>
        <g transform="matrix(0.416667,0,0,0.416667,-741,-2092.641667)">
            <path d="M2434.2,5817.07C2484.43,5817.07 2525.29,5776.21 2525.29,5725.98C2525.29,5675.74 2484.43,5634.87 2434.2,5634.87C2383.96,5634.87 2343.09,5675.74 2343.09,5725.98C2343.09,5776.21 2383.96,5817.07 2434.2,5817.07Z" style="fill:none;fill-rule:nonzero;stroke:black;stroke-width:5px;"/>
        </g>
        <g transform="matrix(0.416667,0,0,0.416667,-741,-2092.6375)">
            <path d="M2434.2,5810.4C2480.75,5810.4 2518.63,5772.52 2518.63,5725.97C2518.63,5679.41 2480.75,5641.53 2434.2,5641.53C2387.63,5641.53 2349.75,5679.41 2349.75,5725.97C2349.75,5772.52 2387.63,5810.4 2434.2,5810.4Z" style="fill:none;fill-rule:nonzero;stroke:black;stroke-width:1.67px;"/>
        </g>
        <g transform="matrix(4.166667,0,0,4.166667,-741,129)">
            <g opacity="0.5">
                <g transform="matrix(0.1,0,0,0.1,0,-533.193)">
                    <path d="M2434.1,5657.61C2432.33,5657.61 2430.6,5657.73 2428.87,5657.87C2457.25,5660.55 2479.63,5689.98 2479.63,5725.97C2479.63,5761.96 2457.25,5791.38 2428.87,5794.05C2430.6,5794.19 2432.33,5794.32 2434.1,5794.32C2471.85,5794.32 2502.46,5763.72 2502.46,5725.97C2502.46,5688.21 2471.85,5657.61 2434.1,5657.61" style="fill-rule:nonzero;"/>
                </g>
            </g>
        </g>
    </g>
    <g transform="matrix(1,0,0,1,-124.392598,-250.925932)">
        <g transform="matrix(4.166667,0,0,4.166667,995.219167,306.182682)">
            <path d="M0.797,-0.219C1.109,-0.156 1.688,0.094 2.422,0.094C3.766,0.094 4.656,-0.656 4.656,-1.844C4.656,-2.766 4.016,-3.297 3.328,-3.5C3.969,-3.719 4.484,-4.188 4.484,-5.016C4.484,-6.078 3.656,-6.766 2.422,-6.766C1.688,-6.766 1.203,-6.516 0.875,-6.453L0.875,-5.094C1.156,-5.375 1.656,-5.562 2.125,-5.562C2.688,-5.562 3.031,-5.234 3.031,-4.766C3.031,-4.281 2.688,-3.984 2.188,-3.984C2.062,-3.984 1.969,-3.984 1.906,-4L1.906,-2.875C1.953,-2.891 2.047,-2.906 2.188,-2.906C2.766,-2.906 3.188,-2.547 3.188,-2.031C3.188,-1.453 2.797,-1.094 2.125,-1.094C1.625,-1.094 1.047,-1.297 0.797,-1.609L0.797,-0.219Z" style="fill-rule:nonzero;"/>
        </g>
        <g transform="matrix(4.166667,0,0,4.166667,1022.219167,306.182682)">
            <path d="M2.609,0C2.75,-0.234 3.203,-0.812 3.453,-1.156C4.594,-2.656 5.125,-3.344 5.125,-4.438C5.125,-5.734 4.062,-6.766 2.766,-6.766C1.422,-6.766 0.344,-5.781 0.344,-4.516C0.344,-3.297 1.297,-2.344 2.516,-2.344C2.672,-2.344 2.875,-2.406 2.984,-2.469C2.703,-2.094 2.203,-1.438 1.797,-0.922C1.531,-0.594 1.234,-0.25 0.984,0L2.609,0ZM3.719,-4.5C3.719,-3.953 3.297,-3.516 2.75,-3.516C2.188,-3.516 1.734,-3.969 1.734,-4.531C1.734,-5.094 2.188,-5.547 2.75,-5.547C3.297,-5.547 3.719,-5.078 3.719,-4.5Z" style="fill-rule:nonzero;"/>
        </g>
        <g transform="matrix(0.416667,0,0,0.416667,-741,-2092.641667)">
            <path d="M4225.07,5817.07C4275.3,5817.07 4316.18,5776.21 4316.18,5725.98C4316.18,5675.74 4275.3,5634.87 4225.07,5634.87C4174.84,5634.87 4133.97,5675.74 4133.97,5725.98C4133.97,5776.21 4174.84,5817.07 4225.07,5817.07Z" style="fill:none;fill-rule:nonzero;stroke:black;stroke-width:5px;"/>
        </g>
        <g transform="matrix(0.416667,0,0,0.416667,-741,-2092.6375)">
            <path d="M4225.07,5810.4C4271.63,5810.4 4309.5,5772.52 4309.5,5725.97C4309.5,5679.41 4271.63,5641.53 4225.07,5641.53C4178.52,5641.53 4140.63,5679.41 4140.63,5725.97C4140.63,5772.52 4178.52,5810.4 4225.07,5810.4Z" style="fill:none;fill-rule:nonzero;stroke:black;stroke-width:1.67px;"/>
        </g>
        <g transform="matrix(4.166667,0,0,4.166667,-741,129)">
            <g opacity="0.5">
                <g transform="matrix(0.1,0,0,0.1,0,-533.193)">
                    <path d="M4224.97,5657.61C4214.51,5657.61 4204.65,5660.03 4195.78,5664.22C4188.16,5678.68 4183.25,5701.05 4183.25,5726.22C4183.25,5750.98 4187.99,5773.05 4195.41,5787.53C4204.36,5791.84 4214.36,5794.32 4224.97,5794.32C4262.72,5794.32 4293.33,5763.72 4293.33,5725.97C4293.33,5688.21 4262.72,5657.61 4224.97,5657.61" style="fill-rule:nonzero;"/>
                </g>
            </g>
        </g>
    </g>
    <g transform="matrix(1,0,0,1,-124.392598,-250.925932)">
        <g transform="matrix(4.166667,0,0,4.166667,352.656667,306.182682)">
            <path d="M0.797,-0.219C1.109,-0.156 1.688,0.094 2.422,0.094C3.766,0.094 4.656,-0.656 4.656,-1.844C4.656,-2.766 4.016,-3.297 3.328,-3.5C3.969,-3.719 4.484,-4.188 4.484,-5.016C4.484,-6.078 3.656,-6.766 2.422,-6.766C1.688,-6.766 1.203,-6.516 0.875,-6.453L0.875,-5.094C1.156,-5.375 1.656,-5.562 2.125,-5.562C2.688,-5.562 3.031,-5.234 3.031,-4.766C3.031,-4.281 2.688,-3.984 2.188,-3.984C2.062,-3.984 1.969,-3.984 1.906,-4L1.906,-2.875C1.953,-2.891 2.047,-2.906 2.188,-2.906C2.766,-2.906 3.188,-2.547 3.188,-2.031C3.188,-1.453 2.797,-1.094 2.125,-1.094C1.625,-1.094 1.047,-1.297 0.797,-1.609L0.797,-0.219Z" style="fill-rule:nonzero;"/>
        </g>
        <g transform="matrix(4.166667,0,0,4.166667,379.656667,306.182682)">
            <path d="M0.797,-0.219C1.109,-0.156 1.688,0.094 2.422,0.094C3.766,0.094 4.656,-0.656 4.656,-1.844C4.656,-2.766 4.016,-3.297 3.328,-3.5C3.969,-3.719 4.484,-4.188 4.484,-5.016C4.484,-6.078 3.656,-6.766 2.422,-6.766C1.688,-6.766 1.203,-6.516 0.875,-6.453L0.875,-5.094C1.156,-5.375 1.656,-5.562 2.125,-5.562C2.688,-5.562 3.031,-5.234 3.031,-4.766C3.031,-4.281 2.688,-3.984 2.188,-3.984C2.062,-3.984 1.969,-3.984 1.906,-4L1.906,-2.875C1.953,-2.891 2.047,-2.906 2.188,-2.906C2.766,-2.906 3.188,-2.547 3.188,-2.031C3.188,-1.453 2.797,-1.094 2.125,-1.094C1.625,-1.094 1.047,-1.297 0.797,-1.609L0.797,-0.219Z" style="fill-rule:nonzero;"/>
        </g>
        <g transform="matrix(0.416667,0,0,0.416667,-741,-2092.641667)">
            <path d="M2690.04,5817.07C2740.27,5817.07 2781.13,5776.21 2781.13,5725.98C2781.13,5675.74 2740.27,5634.87 2690.04,5634.87C2639.8,5634.87 2598.93,5675.74 2598.93,5725.98C2598.93,5776.21 2639.8,5817.07 2690.04,5817.07Z" style="fill:none;fill-rule:nonzero;stroke:black;stroke-width:5px;"/>
        </g>
        <g transform="matrix(0.416667,0,0,0.416667,-741,-2092.6375)">
            <path d="M2690.04,5810.4C2736.59,5810.4 2774.46,5772.52 2774.46,5725.97C2774.46,5679.41 2736.59,5641.53 2690.04,5641.53C2643.47,5641.53 2605.59,5679.41 2605.59,5725.97C2605.59,5772.52 2643.47,5810.4 2690.04,5810.4Z" style="fill:none;fill-rule:nonzero;stroke:black;stroke-width:1.67px;"/>
        </g>
        <g transform="matrix(4.166667,0,0,4.166667,-741,129)">
            <g opacity="0.5">
                <g transform="matrix(0.1,0,0,0.1,0,-533.193)">
                    <path d="M2689.94,5657.61C2687.11,5657.61 2684.34,5657.84 2681.6,5658.16C2706.31,5662.29 2725.47,5691.04 2725.47,5725.97C2725.47,5760.89 2706.31,5789.64 2681.6,5793.77C2684.34,5794.1 2687.11,5794.32 2689.94,5794.32C2727.69,5794.32 2758.3,5763.72 2758.3,5725.97C2758.3,5688.21 2727.69,5657.61 2689.94,5657.61" style="fill-rule:nonzero;"/>
                </g>
            </g>
        </g>
    </g>
    <g transform="matrix(1,0,0,1,-124.392598,-250.925932)">
        <g transform="matrix(4.166667,0,0,4.166667,1207.219167,306.182682)">
            <path d="M4.312,0C4.312,-0.234 4.297,-0.547 4.297,-0.906L4.297,-1.734C4.766,-1.734 5.125,-1.734 5.375,-1.703L5.375,-2.812C5.156,-2.797 4.797,-2.781 4.297,-2.781L4.297,-5.625C4.297,-6.047 4.297,-6.547 4.312,-6.812L3.766,-6.812L0.125,-2.359L0.125,-1.719C0.469,-1.734 1.016,-1.734 1.375,-1.734L2.875,-1.734L2.875,-0.906C2.875,-0.547 2.875,-0.25 2.844,0L4.312,0ZM2.875,-4.375L2.875,-2.781L1.688,-2.781L2.875,-4.375Z" style="fill-rule:nonzero;"/>
        </g>
        <g transform="matrix(4.166667,0,0,4.166667,1234.219167,306.182682)">
            <path d="M3.938,0C3.922,-0.203 3.906,-0.688 3.906,-1.047L3.906,-5.578C3.906,-5.906 3.922,-6.547 3.953,-6.797L3.312,-6.797C2.797,-6.516 1.609,-6 1.188,-5.844L1.188,-4.672C1.516,-4.828 2.141,-5.078 2.469,-5.203L2.469,-1.047C2.469,-0.688 2.453,-0.219 2.438,0L3.938,0Z" style="fill-rule:nonzero;"/>
        </g>
        <g transform="matrix(0.416667,0,0,0.416667,-741,-2092.641667)">
            <path d="M4736.75,5817.07C4786.98,5817.07 4827.86,5776.21 4827.86,5725.98C4827.86,5675.74 4786.98,5634.87 4736.75,5634.87C4686.52,5634.87 4645.65,5675.74 4645.65,5725.98C4645.65,5776.21 4686.52,5817.07 4736.75,5817.07Z" style="fill:none;fill-rule:nonzero;stroke:black;stroke-width:5px;"/>
        </g>
        <g transform="matrix(0.416667,0,0,0.416667,-741,-2092.6375)">
            <path d="M4736.75,5810.4C4783.31,5810.4 4821.18,5772.52 4821.18,5725.97C4821.18,5679.41 4783.31,5641.53 4736.75,5641.53C4690.2,5641.53 4652.31,5679.41 4652.31,5725.97C4652.31,5772.52 4690.2,5810.4 4736.75,5810.4Z" style="fill:none;fill-rule:nonzero;stroke:black;stroke-width:1.67px;"/>
        </g>
        <g transform="matrix(4.166667,0,0,4.166667,-741,129)">
            <g opacity="0.5">
                <g transform="matrix(0.1,0,0,0.1,0,-533.193)">
                    <path d="M4736.65,5657.61C4722.8,5657.61 4709.93,5661.75 4699.16,5668.84C4692.74,5682.22 4688.61,5702.91 4688.61,5726.22C4688.61,5749.07 4692.58,5769.48 4698.79,5782.87C4709.63,5790.09 4722.64,5794.32 4736.65,5794.32C4774.4,5794.32 4805.01,5763.72 4805.01,5725.97C4805.01,5688.21 4774.4,5657.61 4736.65,5657.61" style="fill-rule:nonzero;"/>
                </g>
            </g>
        </g>
    </g>
    <g transform="matrix(1,0,0,1,-124.392598,-250.925932)">
        <g transform="matrix(4.166667,0,0,4.166667,463.656667,306.182682)">
            <path d="M0.797,-0.219C1.109,-0.156 1.688,0.094 2.422,0.094C3.766,0.094 4.656,-0.656 4.656,-1.844C4.656,-2.766 4.016,-3.297 3.328,-3.5C3.969,-3.719 4.484,-4.188 4.484,-5.016C4.484,-6.078 3.656,-6.766 2.422,-6.766C1.688,-6.766 1.203,-6.516 0.875,-6.453L0.875,-5.094C1.156,-5.375 1.656,-5.562 2.125,-5.562C2.688,-5.562 3.031,-5.234 3.031,-4.766C3.031,-4.281 2.688,-3.984 2.188,-3.984C2.062,-3.984 1.969,-3.984 1.906,-4L1.906,-2.875C1.953,-2.891 2.047,-2.906 2.188,-2.906C2.766,-2.906 3.188,-2.547 3.188,-2.031C3.188,-1.453 2.797,-1.094 2.125,-1.094C1.625,-1.094 1.047,-1.297 0.797,-1.609L0.797,-0.219Z" style="fill-rule:nonzero;"/>
        </g>
        <g transform="matrix(4.166667,0,0,4.166667,490.656667,306.182682)">
            <path d="M4.312,0C4.312,-0.234 4.297,-0.547 4.297,-0.906L4.297,-1.734C4.766,-1.734 5.125,-1.734 5.375,-1.703L5.375,-2.812C5.156,-2.797 4.797,-2.781 4.297,-2.781L4.297,-5.625C4.297,-6.047 4.297,-6.547 4.312,-6.812L3.766,-6.812L0.125,-2.359L0.125,-1.719C0.469,-1.734 1.016,-1.734 1.375,-1.734L2.875,-1.734L2.875,-0.906C2.875,-0.547 2.875,-0.25 2.844,0L4.312,0ZM2.875,-4.375L2.875,-2.781L1.688,-2.781L2.875,-4.375Z" style="fill-rule:nonzero;"/>
        </g>
        <g transform="matrix(0.416667,0,0,0.416667,-741,-2092.641667)">
            <path d="M2945.88,5817.07C2996.11,5817.07 3036.97,5776.21 3036.97,5725.98C3036.97,5675.74 2996.11,5634.87 2945.88,5634.87C2895.64,5634.87 2854.77,5675.74 2854.77,5725.98C2854.77,5776.21 2895.64,5817.07 2945.88,5817.07Z" style="fill:none;fill-rule:nonzero;stroke:black;stroke-width:5px;"/>
        </g>
        <g transform="matrix(0.416667,0,0,0.416667,-741,-2092.6375)">
            <path d="M2945.88,5810.4C2992.43,5810.4 3030.3,5772.52 3030.3,5725.97C3030.3,5679.41 2992.43,5641.53 2945.88,5641.53C2899.31,5641.53 2861.43,5679.41 2861.43,5725.97C2861.43,5772.52 2899.31,5810.4 2945.88,5810.4Z" style="fill:none;fill-rule:nonzero;stroke:black;stroke-width:1.67px;"/>
        </g>
        <g transform="matrix(4.166667,0,0,4.166667,-741,129)">
            <g opacity="0.5">
                <g transform="matrix(-0.1,0,0,0.1,596.677,-533.194)">
                    <path d="M3014.13,5657.96C3004.22,5671.44 2997.53,5696.82 2997.53,5725.97C2997.53,5755.12 3004.22,5780.5 3014.13,5793.98C2979.6,5790.54 2952.64,5761.41 2952.64,5725.97C2952.64,5690.54 2979.6,5661.4 3014.13,5657.96" style="fill-rule:nonzero;"/>
                </g>
            </g>
        </g>
    </g>
    <g transform="matrix(1,0,0,1,-124.392598,-250.925932)">
        <g transform="matrix(4.166667,0,0,4.166667,1423.656667,306.182682)">
            <path d="M4.312,0C4.312,-0.234 4.297,-0.547 4.297,-0.906L4.297,-1.734C4.766,-1.734 5.125,-1.734 5.375,-1.703L5.375,-2.812C5.156,-2.797 4.797,-2.781 4.297,-2.781L4.297,-5.625C4.297,-6.047 4.297,-6.547 4.312,-6.812L3.766,-6.812L0.125,-2.359L0.125,-1.719C0.469,-1.734 1.016,-1.734 1.375,-1.734L2.875,-1.734L2.875,-0.906C2.875,-0.547 2.875,-0.25 2.844,0L4.312,0ZM2.875,-4.375L2.875,-2.781L1.688,-2.781L2.875,-4.375Z" style="fill-rule:nonzero;"/>
        </g>
        <g transform="matrix(4.166667,0,0,4.166667,1450.656667,306.182682)">
            <path d="M0.797,-0.219C1.109,-0.156 1.688,0.094 2.422,0.094C3.766,0.094 4.656,-0.656 4.656,-1.844C4.656,-2.766 4.016,-3.297 3.328,-3.5C3.969,-3.719 4.484,-4.188 4.484,-5.016C4.484,-6.078 3.656,-6.766 2.422,-6.766C1.688,-6.766 1.203,-6.516 0.875,-6.453L0.875,-5.094C1.156,-5.375 1.656,-5.562 2.125,-5.562C2.688,-5.562 3.031,-5.234 3.031,-4.766C3.031,-4.281 2.688,-3.984 2.188,-3.984C2.062,-3.984 1.969,-3.984 1.906,-4L1.906,-2.875C1.953,-2.891 2.047,-2.906 2.188,-2.906C2.766,-2.906 3.188,-2.547 3.188,-2.031C3.188,-1.453 2.797,-1.094 2.125,-1.094C1.625,-1.094 1.047,-1.297 0.797,-1.609L0.797,-0.219Z" style="fill-rule:nonzero;"/>
        </g>
        <g transform="matrix(0.416667,0,0,0.416667,-741,-2092.641667)">
            <path d="M5248.43,5817.07C5298.66,5817.07 5339.54,5776.21 5339.54,5725.98C5339.54,5675.74 5298.66,5634.87 5248.43,5634.87C5198.2,5634.87 5157.33,5675.74 5157.33,5725.98C5157.33,5776.21 5198.2,5817.07 5248.43,5817.07Z" style="fill:none;fill-rule:nonzero;stroke:black;stroke-width:5px;"/>
        </g>
        <g transform="matrix(0.416667,0,0,0.416667,-741,-2092.6375)">
            <path d="M5248.43,5810.4C5294.99,5810.4 5332.86,5772.52 5332.86,5725.97C5332.86,5679.41 5294.99,5641.53 5248.43,5641.53C5201.88,5641.53 5163.99,5679.41 5163.99,5725.97C5163.99,5772.52 5201.88,5810.4 5248.43,5810.4Z" style="fill:none;fill-rule:nonzero;stroke:black;stroke-width:1.67px;"/>
        </g>
        <g transform="matrix(4.166667,0,0,4.166667,-741,129)">
            <g opacity="0.5">
                <g transform="matrix(0,-0.1,-0.1,0,1097.429,564.236)">
                    <path d="M5248.32,5657.6C5210.57,5657.6 5179.97,5688.22 5179.97,5725.97C5179.97,5763.72 5210.57,5794.33 5248.32,5794.33C5286.07,5794.33 5316.68,5763.72 5316.68,5725.97C5316.68,5688.22 5286.07,5657.6 5248.32,5657.6" style="fill-rule:nonzero;"/>
                </g>
            </g>
        </g>
    </g>
    <g transform="matrix(1,0,0,1,-124.392598,-250.925932)">
        <g transform="matrix(4.166667,0,0,4.166667,1315.657083,306.182682)">
            <path d="M4.312,0C4.312,-0.234 4.297,-0.547 4.297,-0.906L4.297,-1.734C4.766,-1.734 5.125,-1.734 5.375,-1.703L5.375,-2.812C5.156,-2.797 4.797,-2.781 4.297,-2.781L4.297,-5.625C4.297,-6.047 4.297,-6.547 4.312,-6.812L3.766,-6.812L0.125,-2.359L0.125,-1.719C0.469,-1.734 1.016,-1.734 1.375,-1.734L2.875,-1.734L2.875,-0.906C2.875,-0.547 2.875,-0.25 2.844,0L4.312,0ZM2.875,-4.375L2.875,-2.781L1.688,-2.781L2.875,-4.375Z" style="fill-rule:nonzero;"/>
        </g>
        <g transform="matrix(4.166667,0,0,4.166667,1342.657083,306.182682)">
            <path d="M5.016,-1.297C4.703,-1.266 4.234,-1.234 3.672,-1.234L2.703,-1.234C3.125,-1.672 3.484,-2.047 3.875,-2.562C4.5,-3.391 4.766,-3.953 4.766,-4.609C4.766,-5.891 3.938,-6.797 2.562,-6.797C1.75,-6.797 1.297,-6.5 0.812,-6.422L0.812,-4.797C1.094,-5.234 1.594,-5.5 2.156,-5.5C2.797,-5.5 3.266,-5.047 3.266,-4.375C3.266,-3.953 3.109,-3.594 2.672,-2.953C1.938,-1.922 1.297,-1.266 0.688,-0.672L0.688,0L3.391,0C3.938,0 4.688,0.016 5.016,0.047L5.016,-1.297Z" style="fill-rule:nonzero;"/>
        </g>
        <g transform="matrix(0.416667,0,0,0.416667,-741,-2092.641667)">
            <path d="M4992.59,5817.07C5042.82,5817.07 5083.7,5776.21 5083.7,5725.98C5083.7,5675.74 5042.82,5634.87 4992.59,5634.87C4942.36,5634.87 4901.49,5675.74 4901.49,5725.98C4901.49,5776.21 4942.36,5817.07 4992.59,5817.07Z" style="fill:none;fill-rule:nonzero;stroke:black;stroke-width:5px;"/>
        </g>
        <g transform="matrix(0.416667,0,0,0.416667,-741,-2092.6375)">
            <path d="M4992.59,5810.4C5039.15,5810.4 5077.02,5772.52 5077.02,5725.97C5077.02,5679.41 5039.15,5641.53 4992.59,5641.53C4946.04,5641.53 4908.15,5679.41 4908.15,5725.97C4908.15,5772.52 4946.04,5810.4 4992.59,5810.4Z" style="fill:none;fill-rule:nonzero;stroke:black;stroke-width:1.67px;"/>
        </g>
        <g transform="matrix(4.166667,0,0,4.166667,-741,129)">
            <g opacity="0.5">
                <g transform="matrix(0,-0.1,-0.1,0,1071.8455,538.6525)">
                    <path d="M4992.485,5657.605C4954.735,5657.605 4924.135,5688.215 4924.135,5725.965C4924.135,5763.715 4954.735,5794.325 4992.485,5794.325C5030.235,5794.325 5060.845,5763.715 5060.845,5725.965C5060.845,5688.215 5030.235,5657.605 4992.485,5657.605" style="fill-rule:nonzero;"/>
                </g>
            </g>
        </g>
    </g>
    <g transform="matrix(1,0,0,1,-124.392598,-250.925932)">
        <g transform="matrix(4.166667,0,0,4.166667,1102.655833,306.182682)">
            <path d="M4.312,0C4.312,-0.234 4.297,-0.547 4.297,-0.906L4.297,-1.734C4.766,-1.734 5.125,-1.734 5.375,-1.703L5.375,-2.812C5.156,-2.797 4.797,-2.781 4.297,-2.781L4.297,-5.625C4.297,-6.047 4.297,-6.547 4.312,-6.812L3.766,-6.812L0.125,-2.359L0.125,-1.719C0.469,-1.734 1.016,-1.734 1.375,-1.734L2.875,-1.734L2.875,-0.906C2.875,-0.547 2.875,-0.25 2.844,0L4.312,0ZM2.875,-4.375L2.875,-2.781L1.688,-2.781L2.875,-4.375Z" style="fill-rule:nonzero;"/>
        </g>
        <g transform="matrix(4.166667,0,0,4.166667,1129.655833,306.182682)">
            <path d="M0.312,-3.344C0.312,-1.438 1.156,0.094 2.734,0.094C4.312,0.094 5.156,-1.438 5.156,-3.344C5.156,-5.266 4.312,-6.797 2.734,-6.797C1.156,-6.797 0.312,-5.266 0.312,-3.344ZM1.781,-3.344C1.781,-4.656 2.062,-5.578 2.734,-5.578C3.406,-5.578 3.688,-4.656 3.688,-3.344C3.688,-2.047 3.406,-1.109 2.734,-1.109C2.062,-1.109 1.781,-2.031 1.781,-3.344Z" style="fill-rule:nonzero;"/>
        </g>
        <g transform="matrix(0.416667,0,0,0.416667,-741,-2092.641667)">
            <path d="M4480.91,5817.07C4531.14,5817.07 4572.01,5776.21 4572.01,5725.98C4572.01,5675.74 4531.14,5634.87 4480.91,5634.87C4430.68,5634.87 4389.81,5675.74 4389.81,5725.98C4389.81,5776.21 4430.68,5817.07 4480.91,5817.07Z" style="fill:none;fill-rule:nonzero;stroke:black;stroke-width:5px;"/>
        </g>
        <g transform="matrix(0.416667,0,0,0.416667,-741,-2092.6375)">
            <path d="M4480.91,5810.4C4527.47,5810.4 4565.34,5772.52 4565.34,5725.97C4565.34,5679.41 4527.47,5641.53 4480.91,5641.53C4434.35,5641.53 4396.47,5679.41 4396.47,5725.97C4396.47,5772.52 4434.35,5810.4 4480.91,5810.4Z" style="fill:none;fill-rule:nonzero;stroke:black;stroke-width:1.67px;"/>
        </g>
        <g transform="matrix(4.166667,0,0,4.166667,-741,129)">
            <g opacity="0.5">
                <g transform="matrix(0.1,0,0,0.1,0,-533.193)">
                    <path d="M4480.81,5657.61C4468.43,5657.61 4456.86,5660.95 4446.84,5666.7C4440.41,5681.18 4436.33,5702.44 4436.33,5726.22C4436.33,5749.63 4440.3,5770.6 4446.56,5785.05C4456.64,5790.91 4468.31,5794.32 4480.81,5794.32C4518.56,5794.32 4549.17,5763.72 4549.17,5725.97C4549.17,5688.21 4518.56,5657.61 4480.81,5657.61" style="fill-rule:nonzero;"/>
                </g>
            </g>
        </g>
    </g>
    <g transform="matrix(1,0,0,1,-124.392598,-250.925932)">
        <g transform="matrix(4.166667,0,0,4.166667,569.7225,306.182682)">
            <path d="M0.797,-0.219C1.109,-0.156 1.688,0.094 2.422,0.094C3.766,0.094 4.656,-0.656 4.656,-1.844C4.656,-2.766 4.016,-3.297 3.328,-3.5C3.969,-3.719 4.484,-4.188 4.484,-5.016C4.484,-6.078 3.656,-6.766 2.422,-6.766C1.688,-6.766 1.203,-6.516 0.875,-6.453L0.875,-5.094C1.156,-5.375 1.656,-5.562 2.125,-5.562C2.688,-5.562 3.031,-5.234 3.031,-4.766C3.031,-4.281 2.688,-3.984 2.188,-3.984C2.062,-3.984 1.969,-3.984 1.906,-4L1.906,-2.875C1.953,-2.891 2.047,-2.906 2.188,-2.906C2.766,-2.906 3.188,-2.547 3.188,-2.031C3.188,-1.453 2.797,-1.094 2.125,-1.094C1.625,-1.094 1.047,-1.297 0.797,-1.609L0.797,-0.219Z" style="fill-rule:nonzero;"/>
        </g>
        <g transform="matrix(4.166667,0,0,4.166667,596.7225,306.182682)">
            <path d="M0.656,-0.188C1,-0.109 1.578,0.125 2.312,0.125C3.656,0.125 4.75,-0.844 4.75,-2.125C4.75,-3.438 3.812,-4.234 2.688,-4.234C2.5,-4.234 2.312,-4.219 2.234,-4.188L2.531,-5.469L3.594,-5.469C3.922,-5.469 4.156,-5.453 4.406,-5.438L4.406,-6.719C4.188,-6.703 3.859,-6.688 3.5,-6.688L2.266,-6.688C1.938,-6.688 1.75,-6.688 1.562,-6.719C1.547,-6.469 1.484,-6 1.391,-5.578C1.203,-4.688 1,-3.828 0.797,-2.859C1.062,-3.047 1.547,-3.125 1.938,-3.125C2.656,-3.125 3.203,-2.719 3.203,-2.094C3.203,-1.484 2.703,-1.062 1.984,-1.062C1.484,-1.062 0.906,-1.312 0.656,-1.609L0.656,-0.188Z" style="fill-rule:nonzero;"/>
        </g>
        <g transform="matrix(0.416667,0,0,0.416667,-741,-2092.641667)">
            <path d="M3201.71,5817.07C3251.95,5817.07 3292.81,5776.21 3292.81,5725.98C3292.81,5675.74 3251.95,5634.87 3201.71,5634.87C3151.48,5634.87 3110.61,5675.74 3110.61,5725.98C3110.61,5776.21 3151.48,5817.07 3201.71,5817.07Z" style="fill:none;fill-rule:nonzero;stroke:black;stroke-width:5px;"/>
        </g>
        <g transform="matrix(0.416667,0,0,0.416667,-741,-2092.6375)">
            <path d="M3201.71,5810.4C3248.27,5810.4 3286.14,5772.52 3286.14,5725.97C3286.14,5679.41 3248.27,5641.53 3201.71,5641.53C3155.15,5641.53 3117.27,5679.41 3117.27,5725.97C3117.27,5772.52 3155.15,5810.4 3201.71,5810.4Z" style="fill:none;fill-rule:nonzero;stroke:black;stroke-width:1.67px;"/>
        </g>
        <g transform="matrix(4.166667,0,0,4.166667,-741,129)">
            <g opacity="0.5">
                <g transform="matrix(0.1,0,0,0.1,0,-533.193)">
                    <path d="M3201.61,5657.61L3201.61,5794.32C3239.36,5794.32 3269.98,5763.72 3269.98,5725.97C3269.98,5688.21 3239.36,5657.61 3201.61,5657.61" style="fill-rule:nonzero;"/>
                </g>
            </g>
        </g>
    </g>
    <g transform="matrix(1,0,0,1,-124.392598,-250.925932)">
        <g transform="matrix(4.166667,0,0,4.166667,1632.7225,306.182682)">
            <path d="M4.312,0C4.312,-0.234 4.297,-0.547 4.297,-0.906L4.297,-1.734C4.766,-1.734 5.125,-1.734 5.375,-1.703L5.375,-2.812C5.156,-2.797 4.797,-2.781 4.297,-2.781L4.297,-5.625C4.297,-6.047 4.297,-6.547 4.312,-6.812L3.766,-6.812L0.125,-2.359L0.125,-1.719C0.469,-1.734 1.016,-1.734 1.375,-1.734L2.875,-1.734L2.875,-0.906C2.875,-0.547 2.875,-0.25 2.844,0L4.312,0ZM2.875,-4.375L2.875,-2.781L1.688,-2.781L2.875,-4.375Z" style="fill-rule:nonzero;"/>
        </g>
        <g transform="matrix(4.166667,0,0,4.166667,1659.7225,306.182682)">
            <path d="M0.656,-0.188C1,-0.109 1.578,0.125 2.312,0.125C3.656,0.125 4.75,-0.844 4.75,-2.125C4.75,-3.438 3.812,-4.234 2.688,-4.234C2.5,-4.234 2.312,-4.219 2.234,-4.188L2.531,-5.469L3.594,-5.469C3.922,-5.469 4.156,-5.453 4.406,-5.438L4.406,-6.719C4.188,-6.703 3.859,-6.688 3.5,-6.688L2.266,-6.688C1.938,-6.688 1.75,-6.688 1.562,-6.719C1.547,-6.469 1.484,-6 1.391,-5.578C1.203,-4.688 1,-3.828 0.797,-2.859C1.062,-3.047 1.547,-3.125 1.938,-3.125C2.656,-3.125 3.203,-2.719 3.203,-2.094C3.203,-1.484 2.703,-1.062 1.984,-1.062C1.484,-1.062 0.906,-1.312 0.656,-1.609L0.656,-0.188Z" style="fill-rule:nonzero;"/>
        </g>
        <g transform="matrix(0.416667,0,0,0.416667,-741,-2092.641667)">
            <path d="M5760.11,5817.07C5810.34,5817.07 5851.21,5776.21 5851.21,5725.98C5851.21,5675.74 5810.34,5634.87 5760.11,5634.87C5709.88,5634.87 5669.02,5675.74 5669.02,5725.98C5669.02,5776.21 5709.88,5817.07 5760.11,5817.07Z" style="fill:none;fill-rule:nonzero;stroke:black;stroke-width:5px;"/>
        </g>
        <g transform="matrix(0.416667,0,0,0.416667,-741,-2092.6375)">
            <path d="M5760.11,5810.4C5806.68,5810.4 5844.54,5772.52 5844.54,5725.97C5844.54,5679.41 5806.68,5641.53 5760.11,5641.53C5713.55,5641.53 5675.68,5679.41 5675.68,5725.97C5675.68,5772.52 5713.55,5810.4 5760.11,5810.4Z" style="fill:none;fill-rule:nonzero;stroke:black;stroke-width:1.67px;"/>
        </g>
        <g transform="matrix(4.166667,0,0,4.166667,-741,129)">
            <g opacity="0.5">
                <g transform="matrix(0.1,0,0,0.1,0,-533.352)">
                    <path d="M5760.22,5795.12C5772.6,5795.12 5784.17,5791.78 5794.19,5786.03C5800.62,5771.55 5804.7,5750.29 5804.7,5726.51C5804.7,5703.1 5800.73,5682.13 5794.47,5667.67C5784.39,5661.81 5772.72,5658.4 5760.22,5658.4C5722.47,5658.4 5691.86,5689.01 5691.86,5726.76C5691.86,5764.52 5722.47,5795.12 5760.22,5795.12" style="fill-rule:nonzero;"/>
                </g>
            </g>
        </g>
    </g>
    <g transform="matrix(1,0,0,1,-124.392598,-250.925932)">
        <g transform="matrix(4.166667,0,0,4.166667,1522.655833,306.182682)">
            <path d="M4.312,0C4.312,-0.234 4.297,-0.547 4.297,-0.906L4.297,-1.734C4.766,-1.734 5.125,-1.734 5.375,-1.703L5.375,-2.812C5.156,-2.797 4.797,-2.781 4.297,-2.781L4.297,-5.625C4.297,-6.047 4.297,-6.547 4.312,-6.812L3.766,-6.812L0.125,-2.359L0.125,-1.719C0.469,-1.734 1.016,-1.734 1.375,-1.734L2.875,-1.734L2.875,-0.906C2.875,-0.547 2.875,-0.25 2.844,0L4.312,0ZM2.875,-4.375L2.875,-2.781L1.688,-2.781L2.875,-4.375Z" style="fill-rule:nonzero;"/>
        </g>
        <g transform="matrix(4.166667,0,0,4.166667,1549.655833,306.182682)">
            <path d="M4.312,0C4.312,-0.234 4.297,-0.547 4.297,-0.906L4.297,-1.734C4.766,-1.734 5.125,-1.734 5.375,-1.703L5.375,-2.812C5.156,-2.797 4.797,-2.781 4.297,-2.781L4.297,-5.625C4.297,-6.047 4.297,-6.547 4.312,-6.812L3.766,-6.812L0.125,-2.359L0.125,-1.719C0.469,-1.734 1.016,-1.734 1.375,-1.734L2.875,-1.734L2.875,-0.906C2.875,-0.547 2.875,-0.25 2.844,0L4.312,0ZM2.875,-4.375L2.875,-2.781L1.688,-2.781L2.875,-4.375Z" style="fill-rule:nonzero;"/>
        </g>
        <g transform="matrix(0.416667,0,0,0.416667,-741,-2092.641667)">
            <path d="M5504.27,5817.07C5554.5,5817.07 5595.38,5776.21 5595.38,5725.98C5595.38,5675.74 5554.5,5634.87 5504.27,5634.87C5454.04,5634.87 5413.18,5675.74 5413.18,5725.98C5413.18,5776.21 5454.04,5817.07 5504.27,5817.07Z" style="fill:none;fill-rule:nonzero;stroke:black;stroke-width:5px;"/>
        </g>
        <g transform="matrix(0.416667,0,0,0.416667,-741,-2092.6375)">
            <path d="M5504.27,5810.4C5550.84,5810.4 5588.7,5772.52 5588.7,5725.97C5588.7,5679.41 5550.84,5641.53 5504.27,5641.53C5457.71,5641.53 5419.84,5679.41 5419.84,5725.97C5419.84,5772.52 5457.71,5810.4 5504.27,5810.4Z" style="fill:none;fill-rule:nonzero;stroke:black;stroke-width:1.67px;"/>
        </g>
        <g transform="matrix(4.166667,0,0,4.166667,-741,129)">
            <g opacity="0.5">
                <g transform="matrix(0.1,0,0,0.1,0,-533.194)">
                    <path d="M5504.17,5794.33C5518.02,5794.33 5530.89,5790.18 5541.66,5783.1C5548.08,5769.72 5552.21,5749.02 5552.21,5725.72C5552.21,5702.86 5548.23,5682.46 5542.03,5669.07C5531.19,5661.84 5518.18,5657.61 5504.17,5657.61C5466.42,5657.61 5435.8,5688.22 5435.8,5725.97C5435.8,5763.73 5466.42,5794.33 5504.17,5794.33" style="fill-rule:nonzero;"/>
                </g>
            </g>
        </g>
    </g>
    <g transform="matrix(1,0,0,1,-124.392598,-250.925932)">
        <g transform="matrix(4.166667,0,0,4.166667,673.655833,306.182682)">
            <path d="M0.797,-0.219C1.109,-0.156 1.688,0.094 2.422,0.094C3.766,0.094 4.656,-0.656 4.656,-1.844C4.656,-2.766 4.016,-3.297 3.328,-3.5C3.969,-3.719 4.484,-4.188 4.484,-5.016C4.484,-6.078 3.656,-6.766 2.422,-6.766C1.688,-6.766 1.203,-6.516 0.875,-6.453L0.875,-5.094C1.156,-5.375 1.656,-5.562 2.125,-5.562C2.688,-5.562 3.031,-5.234 3.031,-4.766C3.031,-4.281 2.688,-3.984 2.188,-3.984C2.062,-3.984 1.969,-3.984 1.906,-4L1.906,-2.875C1.953,-2.891 2.047,-2.906 2.188,-2.906C2.766,-2.906 3.188,-2.547 3.188,-2.031C3.188,-1.453 2.797,-1.094 2.125,-1.094C1.625,-1.094 1.047,-1.297 0.797,-1.609L0.797,-0.219Z" style="fill-rule:nonzero;"/>
        </g>
        <g transform="matrix(4.166667,0,0,4.166667,700.655833,306.182682)">
            <path d="M2.875,-6.688C2.766,-6.453 2.516,-6.109 2.141,-5.656C0.719,-3.875 0.359,-3.25 0.359,-2.234C0.359,-0.953 1.422,0.078 2.734,0.078C4.062,0.078 5.156,-0.906 5.156,-2.188C5.156,-3.391 4.328,-4.344 3.094,-4.344C2.844,-4.344 2.594,-4.281 2.469,-4.203C2.859,-4.688 3.203,-5.172 3.578,-5.594C3.922,-5.984 4.297,-6.438 4.547,-6.688L2.875,-6.688ZM1.766,-2.172C1.766,-2.734 2.203,-3.156 2.75,-3.156C3.297,-3.156 3.734,-2.703 3.734,-2.125C3.734,-1.578 3.312,-1.125 2.766,-1.125C2.203,-1.125 1.766,-1.594 1.766,-2.172Z" style="fill-rule:nonzero;"/>
        </g>
        <g transform="matrix(0.416667,0,0,0.416667,-741,-2092.641667)">
            <path d="M3457.55,5817.07C3507.79,5817.07 3548.65,5776.21 3548.65,5725.98C3548.65,5675.74 3507.79,5634.87 3457.55,5634.87C3407.32,5634.87 3366.45,5675.74 3366.45,5725.98C3366.45,5776.21 3407.32,5817.07 3457.55,5817.07Z" style="fill:none;fill-rule:nonzero;stroke:black;stroke-width:5px;"/>
        </g>
        <g transform="matrix(0.416667,0,0,0.416667,-741,-2092.6375)">
            <path d="M3457.55,5810.4C3504.11,5810.4 3541.98,5772.52 3541.98,5725.97C3541.98,5679.41 3504.11,5641.53 3457.55,5641.53C3410.99,5641.53 3373.11,5679.41 3373.11,5725.97C3373.11,5772.52 3410.99,5810.4 3457.55,5810.4Z" style="fill:none;fill-rule:nonzero;stroke:black;stroke-width:1.67px;"/>
        </g>
        <g transform="matrix(4.166667,0,0,4.166667,-741,129)">
            <g opacity="0.5">
                <g transform="matrix(0.1,0,0,0.1,0,-533.193)">
                    <path d="M3457.45,5657.61L3457.45,5794.32C3495.2,5794.32 3525.81,5763.72 3525.81,5725.97C3525.81,5688.21 3495.2,5657.61 3457.45,5657.61" style="fill-rule:nonzero;"/>
                </g>
            </g>
        </g>
    </g>
</svg>
