<?xml version="1.0" encoding="UTF-8" standalone="no"?>
<!DOCTYPE svg PUBLIC "-//W3C//DTD SVG 1.1//EN" "http://www.w3.org/Graphics/SVG/1.1/DTD/svg11.dtd">
<svg width="100%" height="100%" viewBox="0 0 92 92" version="1.1" xmlns="http://www.w3.org/2000/svg" xmlns:xlink="http://www.w3.org/1999/xlink" xml:space="preserve" xmlns:serif="http://www.serif.com/" style="fill-rule:evenodd;clip-rule:evenodd;">
    <g transform="matrix(1,0,0,1,-221.251447,-128.41478)">
        <g>
            <g transform="matrix(4.166667,0,0,4.166667,0,0)">
                <g opacity="0.5">
                    <g transform="matrix(1,0,0,1,64.0082,48.5772)">
                        <path d="M0,-13.672C-0.167,-13.672 -0.331,-13.659 -0.496,-13.647C2.708,-13.392 5.237,-10.444 5.237,-6.836C5.237,-3.228 2.708,-0.28 -0.496,-0.025C-0.331,-0.013 -0.167,0 0,0C3.775,0 6.836,-3.061 6.836,-6.836C6.836,-10.611 3.775,-13.672 0,-13.672" style="fill:rgb(35,31,32);fill-rule:nonzero;"/>
                    </g>
                </g>
            </g>
            <g transform="matrix(4.166667,0,0,4.166667,266.757917,137.004583)">
                <path d="M0,17.72C4.885,17.72 8.86,13.745 8.86,8.86C8.86,3.975 4.885,0 0,0C-4.885,0 -8.86,3.975 -8.86,8.86C-8.86,13.745 -4.885,17.72 0,17.72Z" style="fill:none;fill-rule:nonzero;stroke:rgb(35,31,32);stroke-width:1px;"/>
            </g>
        </g>
        <g transform="matrix(4.166667,0,0,4.166667,255.630342,186.964992)">
            <path d="M5.016,-1.297C4.703,-1.266 4.234,-1.234 3.672,-1.234L2.703,-1.234C3.109,-1.672 3.469,-2.031 3.875,-2.562C4.5,-3.391 4.766,-3.953 4.766,-4.609C4.766,-5.875 3.938,-6.781 2.562,-6.781C1.75,-6.781 1.297,-6.484 0.812,-6.406L0.812,-4.797C1.094,-5.219 1.594,-5.484 2.156,-5.484C2.781,-5.484 3.25,-5.047 3.25,-4.359C3.25,-3.953 3.109,-3.578 2.672,-2.953C1.938,-1.922 1.297,-1.266 0.672,-0.672L0.672,0L3.391,0C3.922,0 4.672,0.016 5.016,0.047L5.016,-1.297Z" style="fill:rgb(35,31,31);fill-rule:nonzero;"/>
        </g>
    </g>
</svg>
