<?xml version="1.0" encoding="UTF-8" standalone="no"?>
<!DOCTYPE svg PUBLIC "-//W3C//DTD SVG 1.1//EN" "http://www.w3.org/Graphics/SVG/1.1/DTD/svg11.dtd">
<svg width="100%" height="100%" viewBox="0 0 92 92" version="1.1" xmlns="http://www.w3.org/2000/svg" xmlns:xlink="http://www.w3.org/1999/xlink" xml:space="preserve" xmlns:serif="http://www.serif.com/" style="fill-rule:evenodd;clip-rule:evenodd;">
    <g transform="matrix(1,0,0,1,-1348.01853,-128.41478)">
        <g>
            <g transform="matrix(4.166667,0,0,4.166667,0,0)">
                <g opacity="0.5">
                    <g transform="matrix(0,-1,-1,0,334.4312,34.9051)">
                        <path d="M-6.836,-6.836C-10.611,-6.836 -13.672,-3.775 -13.672,0C-13.672,3.775 -10.611,6.836 -6.836,6.836C-3.061,6.836 0,3.775 0,0C0,-3.775 -3.061,-6.836 -6.836,-6.836" style="fill:rgb(35,31,32);fill-rule:nonzero;"/>
                    </g>
                </g>
            </g>
            <g transform="matrix(4.166667,0,0,4.166667,1393.525,137.004583)">
                <path d="M0,17.72C4.885,17.72 8.86,13.745 8.86,8.86C8.86,3.975 4.885,0 0,0C-4.885,0 -8.86,3.975 -8.86,8.86C-8.86,13.745 -4.885,17.72 0,17.72Z" style="fill:none;fill-rule:nonzero;stroke:rgb(35,31,32);stroke-width:1px;"/>
            </g>
        </g>
        <g transform="matrix(4.166667,0,0,4.166667,1368.110467,186.964992)">
            <path d="M3.938,0C3.906,-0.203 3.906,-0.672 3.906,-1.047L3.906,-5.578C3.906,-5.906 3.906,-6.547 3.938,-6.781L3.312,-6.781C2.781,-6.5 1.609,-5.984 1.172,-5.828L1.172,-4.656C1.516,-4.828 2.141,-5.078 2.469,-5.203L2.469,-1.047C2.469,-0.688 2.453,-0.219 2.438,0L3.938,0Z" style="fill:rgb(35,31,31);fill-rule:nonzero;"/>
        </g>
        <g transform="matrix(4.166667,0,0,4.166667,1395.077396,186.964992)">
            <path d="M0.797,-0.219C1.109,-0.156 1.688,0.094 2.422,0.094C3.75,0.094 4.656,-0.656 4.656,-1.844C4.656,-2.75 4.016,-3.297 3.328,-3.5C3.969,-3.719 4.469,-4.188 4.469,-5C4.469,-6.078 3.656,-6.75 2.422,-6.75C1.688,-6.75 1.203,-6.516 0.875,-6.438L0.875,-5.094C1.156,-5.359 1.641,-5.547 2.125,-5.547C2.672,-5.547 3.031,-5.234 3.031,-4.75C3.031,-4.266 2.672,-3.969 2.172,-3.969C2.062,-3.969 1.969,-3.969 1.891,-4L1.891,-2.875C1.953,-2.891 2.031,-2.906 2.188,-2.906C2.766,-2.906 3.172,-2.547 3.172,-2.031C3.172,-1.453 2.781,-1.094 2.125,-1.094C1.625,-1.094 1.047,-1.281 0.797,-1.609L0.797,-0.219Z" style="fill:rgb(35,31,31);fill-rule:nonzero;"/>
        </g>
    </g>
</svg>
