<?xml version="1.0" encoding="UTF-8" standalone="no"?>
<!DOCTYPE svg PUBLIC "-//W3C//DTD SVG 1.1//EN" "http://www.w3.org/Graphics/SVG/1.1/DTD/svg11.dtd">
<svg width="100%" height="100%" viewBox="0 0 92 92" version="1.1" xmlns="http://www.w3.org/2000/svg" xmlns:xlink="http://www.w3.org/1999/xlink" xml:space="preserve" xmlns:serif="http://www.serif.com/" style="fill-rule:evenodd;clip-rule:evenodd;">
    <g transform="matrix(1,0,0,1,-3087.790613,-128.41478)">
        <g>
            <g transform="matrix(4.166667,0,0,4.166667,0,0)">
                <g opacity="0.5">
                    <g transform="matrix(1,0,0,1,751.9752,48.5772)">
                        <path d="M0,-13.672C-0.113,-13.672 -0.223,-13.66 -0.335,-13.655C3.284,-13.479 6.167,-10.499 6.167,-6.836C6.167,-3.174 3.284,-0.193 -0.335,-0.017C-0.223,-0.012 -0.113,0 0,0C3.775,0 6.836,-3.061 6.836,-6.836C6.836,-10.611 3.775,-13.672 0,-13.672" style="fill:rgb(35,31,32);fill-rule:nonzero;"/>
                    </g>
                </g>
            </g>
            <g transform="matrix(4.166667,0,0,4.166667,3133.297083,137.004583)">
                <path d="M0,17.72C4.885,17.72 8.86,13.745 8.86,8.86C8.86,3.975 4.885,0 0,0C-4.885,0 -8.86,3.975 -8.86,8.86C-8.86,13.745 -4.885,17.72 0,17.72Z" style="fill:none;fill-rule:nonzero;stroke:rgb(35,31,32);stroke-width:1px;"/>
            </g>
        </g>
        <g transform="matrix(4.166667,0,0,4.166667,3106.9568,186.964992)">
            <path d="M0.797,-0.219C1.109,-0.156 1.688,0.094 2.422,0.094C3.75,0.094 4.656,-0.656 4.656,-1.844C4.656,-2.75 4.016,-3.297 3.328,-3.5C3.969,-3.719 4.469,-4.188 4.469,-5C4.469,-6.078 3.656,-6.75 2.422,-6.75C1.688,-6.75 1.203,-6.516 0.875,-6.438L0.875,-5.094C1.156,-5.359 1.641,-5.547 2.125,-5.547C2.672,-5.547 3.031,-5.234 3.031,-4.75C3.031,-4.266 2.672,-3.969 2.172,-3.969C2.062,-3.969 1.969,-3.969 1.891,-4L1.891,-2.875C1.953,-2.891 2.031,-2.906 2.188,-2.906C2.766,-2.906 3.172,-2.547 3.172,-2.031C3.172,-1.453 2.781,-1.094 2.125,-1.094C1.625,-1.094 1.047,-1.281 0.797,-1.609L0.797,-0.219Z" style="fill:rgb(35,31,31);fill-rule:nonzero;"/>
        </g>
        <g transform="matrix(4.166667,0,0,4.166667,3133.923729,186.964992)">
            <path d="M0.312,-3.344C0.312,-1.422 1.141,0.094 2.719,0.094C4.312,0.094 5.156,-1.422 5.156,-3.344C5.156,-5.266 4.312,-6.781 2.719,-6.781C1.141,-6.781 0.312,-5.266 0.312,-3.344ZM1.781,-3.344C1.781,-4.656 2.062,-5.578 2.719,-5.578C3.406,-5.578 3.688,-4.641 3.688,-3.344C3.688,-2.031 3.406,-1.109 2.719,-1.109C2.062,-1.109 1.781,-2.031 1.781,-3.344Z" style="fill:rgb(35,31,31);fill-rule:nonzero;"/>
        </g>
    </g>
</svg>
