<?xml version="1.0" encoding="UTF-8" standalone="no"?>
<!DOCTYPE svg PUBLIC "-//W3C//DTD SVG 1.1//EN" "http://www.w3.org/Graphics/SVG/1.1/DTD/svg11.dtd">
<svg width="100%" height="100%" viewBox="0 0 92 92" version="1.1" xmlns="http://www.w3.org/2000/svg" xmlns:xlink="http://www.w3.org/1999/xlink" xml:space="preserve" xmlns:serif="http://www.serif.com/" style="fill-rule:evenodd;clip-rule:evenodd;">
    <g transform="matrix(1,0,0,1,-1858.59103,-128.41478)">
        <g>
            <g transform="matrix(4.166667,0,0,4.166667,0,0)">
                <g opacity="0.5">
                    <g transform="matrix(1,0,0,1,456.9683,34.9049)">
                        <path d="M0,13.672C0.546,13.672 1.075,13.601 1.585,13.48C2.737,12.348 3.542,9.79 3.542,6.811C3.542,3.886 2.765,1.37 1.646,0.208C1.118,0.077 0.569,0 0,0C-3.775,0 -6.836,3.061 -6.836,6.836C-6.836,10.612 -3.775,13.672 0,13.672" style="fill:rgb(35,31,32);fill-rule:nonzero;"/>
                    </g>
                </g>
            </g>
            <g transform="matrix(4.166667,0,0,4.166667,1904.0975,137.004583)">
                <path d="M0,17.72C4.885,17.72 8.86,13.745 8.86,8.86C8.86,3.975 4.885,0 0,0C-4.885,0 -8.86,3.975 -8.86,8.86C-8.86,13.745 -4.885,17.72 0,17.72Z" style="fill:none;fill-rule:nonzero;stroke:rgb(35,31,32);stroke-width:1px;"/>
            </g>
        </g>
        <g transform="matrix(4.166667,0,0,4.166667,1877.460913,186.964992)">
            <path d="M3.938,0C3.906,-0.203 3.906,-0.672 3.906,-1.047L3.906,-5.578C3.906,-5.906 3.906,-6.547 3.938,-6.781L3.312,-6.781C2.781,-6.5 1.609,-5.984 1.172,-5.828L1.172,-4.656C1.516,-4.828 2.141,-5.078 2.469,-5.203L2.469,-1.047C2.469,-0.688 2.453,-0.219 2.438,0L3.938,0Z" style="fill:rgb(35,31,31);fill-rule:nonzero;"/>
        </g>
        <g transform="matrix(4.166667,0,0,4.166667,1904.427842,186.964992)">
            <path d="M1.859,-2.031C1.859,-2.516 2.234,-2.891 2.703,-2.891C3.188,-2.891 3.594,-2.5 3.594,-2.031C3.594,-1.562 3.188,-1.172 2.703,-1.172C2.234,-1.172 1.859,-1.562 1.859,-2.031ZM2.031,-4.844C2.031,-5.219 2.344,-5.516 2.703,-5.516C3.109,-5.516 3.406,-5.219 3.406,-4.828C3.406,-4.438 3.109,-4.141 2.719,-4.141C2.344,-4.141 2.031,-4.438 2.031,-4.844ZM0.656,-4.969C0.656,-4.266 1.062,-3.75 1.578,-3.516C0.953,-3.25 0.469,-2.703 0.469,-1.938C0.469,-0.828 1.344,0.062 2.703,0.062C4.094,0.062 4.969,-0.812 4.969,-1.891C4.969,-2.719 4.453,-3.266 3.828,-3.516C4.328,-3.75 4.766,-4.25 4.766,-4.969C4.766,-5.953 3.906,-6.75 2.703,-6.75C1.531,-6.75 0.656,-5.953 0.656,-4.969Z" style="fill:rgb(35,31,31);fill-rule:nonzero;"/>
        </g>
    </g>
</svg>
