<?xml version="1.0" encoding="UTF-8" standalone="no"?>
<!DOCTYPE svg PUBLIC "-//W3C//DTD SVG 1.1//EN" "http://www.w3.org/Graphics/SVG/1.1/DTD/svg11.dtd">
<svg width="100%" height="100%" viewBox="0 0 92 92" version="1.1" xmlns="http://www.w3.org/2000/svg" xmlns:xlink="http://www.w3.org/1999/xlink" xml:space="preserve" xmlns:serif="http://www.serif.com/" style="fill-rule:evenodd;clip-rule:evenodd;">
    <g transform="matrix(1,0,0,1,-760.739363,-247.672697)">
        <g transform="matrix(4.166667,0,0,4.166667,784.656667,306.182682)">
            <path d="M0.797,-0.219C1.109,-0.156 1.688,0.094 2.422,0.094C3.766,0.094 4.656,-0.656 4.656,-1.844C4.656,-2.766 4.016,-3.297 3.328,-3.5C3.969,-3.719 4.484,-4.188 4.484,-5.016C4.484,-6.078 3.656,-6.766 2.422,-6.766C1.688,-6.766 1.203,-6.516 0.875,-6.453L0.875,-5.094C1.156,-5.375 1.656,-5.562 2.125,-5.562C2.688,-5.562 3.031,-5.234 3.031,-4.766C3.031,-4.281 2.688,-3.984 2.188,-3.984C2.062,-3.984 1.969,-3.984 1.906,-4L1.906,-2.875C1.953,-2.891 2.047,-2.906 2.188,-2.906C2.766,-2.906 3.188,-2.547 3.188,-2.031C3.188,-1.453 2.797,-1.094 2.125,-1.094C1.625,-1.094 1.047,-1.297 0.797,-1.609L0.797,-0.219Z" style="fill-rule:nonzero;"/>
        </g>
        <g transform="matrix(4.166667,0,0,4.166667,811.656667,306.182682)">
            <path d="M2.266,0C2.328,-0.188 2.516,-0.594 2.656,-0.906C3.422,-2.594 4.125,-4.125 4.953,-5.844C5.094,-6.141 5.281,-6.484 5.406,-6.703C5.156,-6.688 4.75,-6.688 4.422,-6.688L1.578,-6.688C1.234,-6.688 0.812,-6.688 0.594,-6.703L0.594,-5.375C0.797,-5.391 1.219,-5.406 1.578,-5.406L3.438,-5.406C2.734,-3.891 2.078,-2.547 1.312,-1.047C1.188,-0.781 0.906,-0.234 0.734,0L2.266,0Z" style="fill-rule:nonzero;"/>
        </g>
        <g transform="matrix(0.416667,0,0,0.416667,-741,-2092.641667)">
            <path d="M3713.39,5817.07C3763.63,5817.07 3804.49,5776.21 3804.49,5725.98C3804.49,5675.74 3763.63,5634.87 3713.39,5634.87C3663.16,5634.87 3622.29,5675.74 3622.29,5725.98C3622.29,5776.21 3663.16,5817.07 3713.39,5817.07Z" style="fill:none;fill-rule:nonzero;stroke:black;stroke-width:5px;"/>
        </g>
        <g transform="matrix(0.416667,0,0,0.416667,-741,-2092.6375)">
            <path d="M3713.39,5810.4C3759.95,5810.4 3797.82,5772.52 3797.82,5725.97C3797.82,5679.41 3759.95,5641.53 3713.39,5641.53C3666.83,5641.53 3628.95,5679.41 3628.95,5725.97C3628.95,5772.52 3666.83,5810.4 3713.39,5810.4Z" style="fill:none;fill-rule:nonzero;stroke:black;stroke-width:1.67px;"/>
        </g>
        <g transform="matrix(4.166667,0,0,4.166667,-741,129)">
            <g opacity="0.5">
                <g transform="matrix(0.1,0,0,0.1,0,-533.193)">
                    <path d="M3713.29,5657.61C3707.12,5657.61 3701.17,5658.5 3695.48,5660.04C3686.45,5673.98 3680.47,5698.18 3680.47,5725.75C3680.47,5753.68 3686.62,5778.13 3695.84,5791.98C3701.42,5793.47 3707.25,5794.32 3713.29,5794.32C3751.04,5794.32 3781.65,5763.72 3781.65,5725.97C3781.65,5688.21 3751.04,5657.61 3713.29,5657.61" style="fill-rule:nonzero;"/>
                </g>
            </g>
        </g>
    </g>
</svg>
