<?xml version="1.0" encoding="UTF-8" standalone="no"?>
<!DOCTYPE svg PUBLIC "-//W3C//DTD SVG 1.1//EN" "http://www.w3.org/Graphics/SVG/1.1/DTD/svg11.dtd">
<svg width="100%" height="100%" viewBox="0 0 92 92" version="1.1" xmlns="http://www.w3.org/2000/svg" xmlns:xlink="http://www.w3.org/1999/xlink" xml:space="preserve" xmlns:serif="http://www.serif.com/" style="fill-rule:evenodd;clip-rule:evenodd;">
    <g transform="matrix(1,0,0,1,-334.339363,-247.672697)">
        <g transform="matrix(4.166667,0,0,4.166667,352.656667,306.182682)">
            <path d="M0.797,-0.219C1.109,-0.156 1.688,0.094 2.422,0.094C3.766,0.094 4.656,-0.656 4.656,-1.844C4.656,-2.766 4.016,-3.297 3.328,-3.5C3.969,-3.719 4.484,-4.188 4.484,-5.016C4.484,-6.078 3.656,-6.766 2.422,-6.766C1.688,-6.766 1.203,-6.516 0.875,-6.453L0.875,-5.094C1.156,-5.375 1.656,-5.562 2.125,-5.562C2.688,-5.562 3.031,-5.234 3.031,-4.766C3.031,-4.281 2.688,-3.984 2.188,-3.984C2.062,-3.984 1.969,-3.984 1.906,-4L1.906,-2.875C1.953,-2.891 2.047,-2.906 2.188,-2.906C2.766,-2.906 3.188,-2.547 3.188,-2.031C3.188,-1.453 2.797,-1.094 2.125,-1.094C1.625,-1.094 1.047,-1.297 0.797,-1.609L0.797,-0.219Z" style="fill-rule:nonzero;"/>
        </g>
        <g transform="matrix(4.166667,0,0,4.166667,379.656667,306.182682)">
            <path d="M0.797,-0.219C1.109,-0.156 1.688,0.094 2.422,0.094C3.766,0.094 4.656,-0.656 4.656,-1.844C4.656,-2.766 4.016,-3.297 3.328,-3.5C3.969,-3.719 4.484,-4.188 4.484,-5.016C4.484,-6.078 3.656,-6.766 2.422,-6.766C1.688,-6.766 1.203,-6.516 0.875,-6.453L0.875,-5.094C1.156,-5.375 1.656,-5.562 2.125,-5.562C2.688,-5.562 3.031,-5.234 3.031,-4.766C3.031,-4.281 2.688,-3.984 2.188,-3.984C2.062,-3.984 1.969,-3.984 1.906,-4L1.906,-2.875C1.953,-2.891 2.047,-2.906 2.188,-2.906C2.766,-2.906 3.188,-2.547 3.188,-2.031C3.188,-1.453 2.797,-1.094 2.125,-1.094C1.625,-1.094 1.047,-1.297 0.797,-1.609L0.797,-0.219Z" style="fill-rule:nonzero;"/>
        </g>
        <g transform="matrix(0.416667,0,0,0.416667,-741,-2092.641667)">
            <path d="M2690.04,5817.07C2740.27,5817.07 2781.13,5776.21 2781.13,5725.98C2781.13,5675.74 2740.27,5634.87 2690.04,5634.87C2639.8,5634.87 2598.93,5675.74 2598.93,5725.98C2598.93,5776.21 2639.8,5817.07 2690.04,5817.07Z" style="fill:none;fill-rule:nonzero;stroke:black;stroke-width:5px;"/>
        </g>
        <g transform="matrix(0.416667,0,0,0.416667,-741,-2092.6375)">
            <path d="M2690.04,5810.4C2736.59,5810.4 2774.46,5772.52 2774.46,5725.97C2774.46,5679.41 2736.59,5641.53 2690.04,5641.53C2643.47,5641.53 2605.59,5679.41 2605.59,5725.97C2605.59,5772.52 2643.47,5810.4 2690.04,5810.4Z" style="fill:none;fill-rule:nonzero;stroke:black;stroke-width:1.67px;"/>
        </g>
        <g transform="matrix(4.166667,0,0,4.166667,-741,129)">
            <g opacity="0.5">
                <g transform="matrix(0.1,0,0,0.1,0,-533.193)">
                    <path d="M2689.94,5657.61C2687.11,5657.61 2684.34,5657.84 2681.6,5658.16C2706.31,5662.29 2725.47,5691.04 2725.47,5725.97C2725.47,5760.89 2706.31,5789.64 2681.6,5793.77C2684.34,5794.1 2687.11,5794.32 2689.94,5794.32C2727.69,5794.32 2758.3,5763.72 2758.3,5725.97C2758.3,5688.21 2727.69,5657.61 2689.94,5657.61" style="fill-rule:nonzero;"/>
                </g>
            </g>
        </g>
    </g>
</svg>
