<?xml version="1.0" encoding="UTF-8" standalone="no"?>
<!DOCTYPE svg PUBLIC "-//W3C//DTD SVG 1.1//EN" "http://www.w3.org/Graphics/SVG/1.1/DTD/svg11.dtd">
<svg width="100%" height="100%" viewBox="0 0 92 92" version="1.1" xmlns="http://www.w3.org/2000/svg" xmlns:xlink="http://www.w3.org/1999/xlink" xml:space="preserve" xmlns:serif="http://www.serif.com/" style="fill-rule:evenodd;clip-rule:evenodd;">
    <g transform="matrix(1,0,0,1,-227.739363,-247.672697)">
        <g transform="matrix(4.166667,0,0,4.166667,247.656667,306.182682)">
            <path d="M0.797,-0.219C1.109,-0.156 1.688,0.094 2.422,0.094C3.766,0.094 4.656,-0.656 4.656,-1.844C4.656,-2.766 4.016,-3.297 3.328,-3.5C3.969,-3.719 4.484,-4.188 4.484,-5.016C4.484,-6.078 3.656,-6.766 2.422,-6.766C1.688,-6.766 1.203,-6.516 0.875,-6.453L0.875,-5.094C1.156,-5.375 1.656,-5.562 2.125,-5.562C2.688,-5.562 3.031,-5.234 3.031,-4.766C3.031,-4.281 2.688,-3.984 2.188,-3.984C2.062,-3.984 1.969,-3.984 1.906,-4L1.906,-2.875C1.953,-2.891 2.047,-2.906 2.188,-2.906C2.766,-2.906 3.188,-2.547 3.188,-2.031C3.188,-1.453 2.797,-1.094 2.125,-1.094C1.625,-1.094 1.047,-1.297 0.797,-1.609L0.797,-0.219Z" style="fill-rule:nonzero;"/>
        </g>
        <g transform="matrix(4.166667,0,0,4.166667,274.656667,306.182682)">
            <path d="M5.016,-1.297C4.703,-1.266 4.234,-1.234 3.672,-1.234L2.703,-1.234C3.125,-1.672 3.484,-2.047 3.875,-2.562C4.5,-3.391 4.766,-3.953 4.766,-4.609C4.766,-5.891 3.938,-6.797 2.562,-6.797C1.75,-6.797 1.297,-6.5 0.812,-6.422L0.812,-4.797C1.094,-5.234 1.594,-5.5 2.156,-5.5C2.797,-5.5 3.266,-5.047 3.266,-4.375C3.266,-3.953 3.109,-3.594 2.672,-2.953C1.938,-1.922 1.297,-1.266 0.688,-0.672L0.688,0L3.391,0C3.938,0 4.688,0.016 5.016,0.047L5.016,-1.297Z" style="fill-rule:nonzero;"/>
        </g>
        <g transform="matrix(0.416667,0,0,0.416667,-741,-2092.641667)">
            <path d="M2434.2,5817.07C2484.43,5817.07 2525.29,5776.21 2525.29,5725.98C2525.29,5675.74 2484.43,5634.87 2434.2,5634.87C2383.96,5634.87 2343.09,5675.74 2343.09,5725.98C2343.09,5776.21 2383.96,5817.07 2434.2,5817.07Z" style="fill:none;fill-rule:nonzero;stroke:black;stroke-width:5px;"/>
        </g>
        <g transform="matrix(0.416667,0,0,0.416667,-741,-2092.6375)">
            <path d="M2434.2,5810.4C2480.75,5810.4 2518.63,5772.52 2518.63,5725.97C2518.63,5679.41 2480.75,5641.53 2434.2,5641.53C2387.63,5641.53 2349.75,5679.41 2349.75,5725.97C2349.75,5772.52 2387.63,5810.4 2434.2,5810.4Z" style="fill:none;fill-rule:nonzero;stroke:black;stroke-width:1.67px;"/>
        </g>
        <g transform="matrix(4.166667,0,0,4.166667,-741,129)">
            <g opacity="0.5">
                <g transform="matrix(0.1,0,0,0.1,0,-533.193)">
                    <path d="M2434.1,5657.61C2432.33,5657.61 2430.6,5657.73 2428.87,5657.87C2457.25,5660.55 2479.63,5689.98 2479.63,5725.97C2479.63,5761.96 2457.25,5791.38 2428.87,5794.05C2430.6,5794.19 2432.33,5794.32 2434.1,5794.32C2471.85,5794.32 2502.46,5763.72 2502.46,5725.97C2502.46,5688.21 2471.85,5657.61 2434.1,5657.61" style="fill-rule:nonzero;"/>
                </g>
            </g>
        </g>
    </g>
</svg>
