<?xml version="1.0" encoding="UTF-8" standalone="no"?>
<!DOCTYPE svg PUBLIC "-//W3C//DTD SVG 1.1//EN" "http://www.w3.org/Graphics/SVG/1.1/DTD/svg11.dtd">
<svg width="100%" height="100%" viewBox="0 0 92 92" version="1.1" xmlns="http://www.w3.org/2000/svg" xmlns:xlink="http://www.w3.org/1999/xlink" xml:space="preserve" xmlns:serif="http://www.serif.com/" style="fill-rule:evenodd;clip-rule:evenodd;">
    <g transform="matrix(1,0,0,1,-1040.718113,-128.41478)">
        <g>
            <g transform="matrix(4.166667,0,0,4.166667,0,0)">
                <g opacity="0.5">
                    <g transform="matrix(1,0,0,1,260.6795,48.5772)">
                        <path d="M0,-13.672C-1.046,-13.672 -2.032,-13.43 -2.919,-13.011C-3.681,-11.565 -4.172,-9.328 -4.172,-6.811C-4.172,-4.335 -3.698,-2.128 -2.956,-0.68C-2.061,-0.249 -1.061,0 0,0C3.775,0 6.836,-3.061 6.836,-6.836C6.836,-10.611 3.775,-13.672 0,-13.672" style="fill:rgb(35,31,32);fill-rule:nonzero;"/>
                    </g>
                </g>
            </g>
            <g transform="matrix(4.166667,0,0,4.166667,1086.224583,137.004583)">
                <path d="M0,17.72C4.885,17.72 8.86,13.745 8.86,8.86C8.86,3.975 4.885,0 0,0C-4.885,0 -8.86,3.975 -8.86,8.86C-8.86,13.745 -4.885,17.72 0,17.72Z" style="fill:none;fill-rule:nonzero;stroke:rgb(35,31,32);stroke-width:1px;"/>
            </g>
        </g>
        <g transform="matrix(4.166667,0,0,4.166667,1063.500379,186.964992)">
            <path d="M3.938,0C3.906,-0.203 3.906,-0.672 3.906,-1.047L3.906,-5.578C3.906,-5.906 3.906,-6.547 3.938,-6.781L3.312,-6.781C2.781,-6.5 1.609,-5.984 1.172,-5.828L1.172,-4.656C1.516,-4.828 2.141,-5.078 2.469,-5.203L2.469,-1.047C2.469,-0.688 2.453,-0.219 2.438,0L3.938,0Z" style="fill:rgb(35,31,31);fill-rule:nonzero;"/>
        </g>
        <g transform="matrix(4.166667,0,0,4.166667,1090.467308,186.964992)">
            <path d="M0.312,-3.344C0.312,-1.422 1.141,0.094 2.719,0.094C4.312,0.094 5.156,-1.422 5.156,-3.344C5.156,-5.266 4.312,-6.781 2.719,-6.781C1.141,-6.781 0.312,-5.266 0.312,-3.344ZM1.781,-3.344C1.781,-4.656 2.062,-5.578 2.719,-5.578C3.406,-5.578 3.688,-4.641 3.688,-3.344C3.688,-2.031 3.406,-1.109 2.719,-1.109C2.062,-1.109 1.781,-2.031 1.781,-3.344Z" style="fill:rgb(35,31,31);fill-rule:nonzero;"/>
        </g>
    </g>
</svg>
