<?xml version="1.0" encoding="UTF-8" standalone="no"?>
<!DOCTYPE svg PUBLIC "-//W3C//DTD SVG 1.1//EN" "http://www.w3.org/Graphics/SVG/1.1/DTD/svg11.dtd">
<svg width="100%" height="100%" viewBox="0 0 92 92" version="1.1" xmlns="http://www.w3.org/2000/svg" xmlns:xlink="http://www.w3.org/1999/xlink" xml:space="preserve" xmlns:serif="http://www.serif.com/" style="fill-rule:evenodd;clip-rule:evenodd;">
    <g transform="matrix(1,0,0,1,-528.551863,-128.41478)">
        <g>
            <g transform="matrix(4.166667,0,0,4.166667,0,0)">
                <g opacity="0.5">
                    <g transform="matrix(-1,0,0,1,144.5958,48.5418)">
                        <path d="M6.149,-13.602C5.158,-12.254 4.489,-9.716 4.489,-6.801C4.489,-3.886 5.158,-1.348 6.149,0C2.696,-0.344 0,-3.257 0,-6.801C0,-10.344 2.696,-13.258 6.149,-13.602" style="fill:rgb(35,31,32);fill-rule:nonzero;"/>
                    </g>
                </g>
            </g>
            <g transform="matrix(4.166667,0,0,4.166667,574.058333,137.004583)">
                <path d="M0,17.72C4.885,17.72 8.86,13.745 8.86,8.86C8.86,3.975 4.885,0 0,0C-4.885,0 -8.86,3.975 -8.86,8.86C-8.86,13.745 -4.885,17.72 0,17.72Z" style="fill:none;fill-rule:nonzero;stroke:rgb(35,31,32);stroke-width:1px;"/>
            </g>
        </g>
        <g transform="matrix(4.166667,0,0,4.166667,562.971638,186.964992)">
            <path d="M0.656,-0.188C1,-0.109 1.578,0.125 2.312,0.125C3.656,0.125 4.75,-0.844 4.75,-2.109C4.75,-3.438 3.797,-4.234 2.672,-4.234C2.5,-4.234 2.312,-4.219 2.234,-4.172L2.531,-5.469L3.594,-5.469C3.906,-5.469 4.141,-5.453 4.391,-5.438L4.391,-6.703C4.188,-6.688 3.859,-6.672 3.5,-6.672L2.25,-6.672C1.938,-6.672 1.75,-6.672 1.562,-6.703C1.547,-6.453 1.484,-5.984 1.391,-5.578C1.203,-4.672 1,-3.828 0.797,-2.859C1.062,-3.047 1.547,-3.125 1.938,-3.125C2.641,-3.125 3.188,-2.719 3.188,-2.094C3.188,-1.484 2.703,-1.062 1.984,-1.062C1.484,-1.062 0.906,-1.312 0.656,-1.609L0.656,-0.188Z" style="fill:rgb(35,31,31);fill-rule:nonzero;"/>
        </g>
    </g>
</svg>
