<?xml version="1.0" encoding="UTF-8" standalone="no"?>
<!DOCTYPE svg PUBLIC "-//W3C//DTD SVG 1.1//EN" "http://www.w3.org/Graphics/SVG/1.1/DTD/svg11.dtd">
<svg width="100%" height="100%" viewBox="0 0 92 92" version="1.1" xmlns="http://www.w3.org/2000/svg" xmlns:xlink="http://www.w3.org/1999/xlink" xml:space="preserve" xmlns:serif="http://www.serif.com/" style="fill-rule:evenodd;clip-rule:evenodd;">
    <g transform="matrix(1,0,0,1,-1293.741447,-247.672697)">
        <g transform="matrix(4.166667,0,0,4.166667,1315.657083,306.182682)">
            <path d="M4.312,0C4.312,-0.234 4.297,-0.547 4.297,-0.906L4.297,-1.734C4.766,-1.734 5.125,-1.734 5.375,-1.703L5.375,-2.812C5.156,-2.797 4.797,-2.781 4.297,-2.781L4.297,-5.625C4.297,-6.047 4.297,-6.547 4.312,-6.812L3.766,-6.812L0.125,-2.359L0.125,-1.719C0.469,-1.734 1.016,-1.734 1.375,-1.734L2.875,-1.734L2.875,-0.906C2.875,-0.547 2.875,-0.25 2.844,0L4.312,0ZM2.875,-4.375L2.875,-2.781L1.688,-2.781L2.875,-4.375Z" style="fill-rule:nonzero;"/>
        </g>
        <g transform="matrix(4.166667,0,0,4.166667,1342.657083,306.182682)">
            <path d="M5.016,-1.297C4.703,-1.266 4.234,-1.234 3.672,-1.234L2.703,-1.234C3.125,-1.672 3.484,-2.047 3.875,-2.562C4.5,-3.391 4.766,-3.953 4.766,-4.609C4.766,-5.891 3.938,-6.797 2.562,-6.797C1.75,-6.797 1.297,-6.5 0.812,-6.422L0.812,-4.797C1.094,-5.234 1.594,-5.5 2.156,-5.5C2.797,-5.5 3.266,-5.047 3.266,-4.375C3.266,-3.953 3.109,-3.594 2.672,-2.953C1.938,-1.922 1.297,-1.266 0.688,-0.672L0.688,0L3.391,0C3.938,0 4.688,0.016 5.016,0.047L5.016,-1.297Z" style="fill-rule:nonzero;"/>
        </g>
        <g transform="matrix(0.416667,0,0,0.416667,-741,-2092.641667)">
            <path d="M4992.59,5817.07C5042.82,5817.07 5083.7,5776.21 5083.7,5725.98C5083.7,5675.74 5042.82,5634.87 4992.59,5634.87C4942.36,5634.87 4901.49,5675.74 4901.49,5725.98C4901.49,5776.21 4942.36,5817.07 4992.59,5817.07Z" style="fill:none;fill-rule:nonzero;stroke:black;stroke-width:5px;"/>
        </g>
        <g transform="matrix(0.416667,0,0,0.416667,-741,-2092.6375)">
            <path d="M4992.59,5810.4C5039.15,5810.4 5077.02,5772.52 5077.02,5725.97C5077.02,5679.41 5039.15,5641.53 4992.59,5641.53C4946.04,5641.53 4908.15,5679.41 4908.15,5725.97C4908.15,5772.52 4946.04,5810.4 4992.59,5810.4Z" style="fill:none;fill-rule:nonzero;stroke:black;stroke-width:1.67px;"/>
        </g>
        <g transform="matrix(4.166667,0,0,4.166667,-741,129)">
            <g opacity="0.5">
                <g transform="matrix(0,-0.1,-0.1,0,1071.8455,538.6525)">
                    <path d="M4992.485,5657.605C4954.735,5657.605 4924.135,5688.215 4924.135,5725.965C4924.135,5763.715 4954.735,5794.325 4992.485,5794.325C5030.235,5794.325 5060.845,5763.715 5060.845,5725.965C5060.845,5688.215 5030.235,5657.605 4992.485,5657.605" style="fill-rule:nonzero;"/>
                </g>
            </g>
        </g>
    </g>
</svg>
