<?xml version="1.0" encoding="UTF-8" standalone="no"?>
<!DOCTYPE svg PUBLIC "-//W3C//DTD SVG 1.1//EN" "http://www.w3.org/Graphics/SVG/1.1/DTD/svg11.dtd">
<svg width="100%" height="100%" viewBox="0 0 92 92" version="1.1" xmlns="http://www.w3.org/2000/svg" xmlns:xlink="http://www.w3.org/1999/xlink" xml:space="preserve" xmlns:serif="http://www.serif.com/" style="fill-rule:evenodd;clip-rule:evenodd;">
    <g transform="matrix(1,0,0,1,-2370.75728,-128.41478)">
        <g>
            <g transform="matrix(4.166667,0,0,4.166667,0,0)">
                <g opacity="0.5">
                    <g transform="matrix(1,0,0,1,579.8878,34.9048)">
                        <path d="M0,13.672C0.283,13.672 0.56,13.65 0.834,13.616C-1.638,13.204 -3.553,10.329 -3.553,6.836C-3.553,3.344 -1.638,0.469 0.834,0.056C0.56,0.023 0.283,0 0,0C-3.775,0 -6.836,3.061 -6.836,6.836C-6.836,10.612 -3.775,13.672 0,13.672" style="fill:rgb(35,31,32);fill-rule:nonzero;"/>
                    </g>
                </g>
            </g>
            <g transform="matrix(4.166667,0,0,4.166667,2416.26375,137.004583)">
                <path d="M0,17.72C4.885,17.72 8.86,13.745 8.86,8.86C8.86,3.975 4.885,0 0,0C-4.885,0 -8.86,3.975 -8.86,8.86C-8.86,13.745 -4.885,17.72 0,17.72Z" style="fill:none;fill-rule:nonzero;stroke:rgb(35,31,32);stroke-width:1px;"/>
            </g>
        </g>
        <g transform="matrix(4.166667,0,0,4.166667,2392.802762,186.964992)">
            <path d="M5.016,-1.297C4.703,-1.266 4.234,-1.234 3.672,-1.234L2.703,-1.234C3.109,-1.672 3.469,-2.031 3.875,-2.562C4.5,-3.391 4.766,-3.953 4.766,-4.609C4.766,-5.875 3.938,-6.781 2.562,-6.781C1.75,-6.781 1.297,-6.484 0.812,-6.406L0.812,-4.797C1.094,-5.219 1.594,-5.484 2.156,-5.484C2.781,-5.484 3.25,-5.047 3.25,-4.359C3.25,-3.953 3.109,-3.578 2.672,-2.953C1.938,-1.922 1.297,-1.266 0.672,-0.672L0.672,0L3.391,0C3.922,0 4.672,0.016 5.016,0.047L5.016,-1.297Z" style="fill:rgb(35,31,31);fill-rule:nonzero;"/>
        </g>
        <g transform="matrix(4.166667,0,0,4.166667,2419.769692,186.964992)">
            <path d="M0.797,-0.219C1.109,-0.156 1.688,0.094 2.422,0.094C3.75,0.094 4.656,-0.656 4.656,-1.844C4.656,-2.75 4.016,-3.297 3.328,-3.5C3.969,-3.719 4.469,-4.188 4.469,-5C4.469,-6.078 3.656,-6.75 2.422,-6.75C1.688,-6.75 1.203,-6.516 0.875,-6.438L0.875,-5.094C1.156,-5.359 1.641,-5.547 2.125,-5.547C2.672,-5.547 3.031,-5.234 3.031,-4.75C3.031,-4.266 2.672,-3.969 2.172,-3.969C2.062,-3.969 1.969,-3.969 1.891,-4L1.891,-2.875C1.953,-2.891 2.031,-2.906 2.188,-2.906C2.766,-2.906 3.172,-2.547 3.172,-2.031C3.172,-1.453 2.781,-1.094 2.125,-1.094C1.625,-1.094 1.047,-1.281 0.797,-1.609L0.797,-0.219Z" style="fill:rgb(35,31,31);fill-rule:nonzero;"/>
        </g>
    </g>
</svg>
