<?xml version="1.0" encoding="UTF-8" standalone="no"?>
<!DOCTYPE svg PUBLIC "-//W3C//DTD SVG 1.1//EN" "http://www.w3.org/Graphics/SVG/1.1/DTD/svg11.dtd">
<svg width="100%" height="100%" viewBox="0 0 92 92" version="1.1" xmlns="http://www.w3.org/2000/svg" xmlns:xlink="http://www.w3.org/1999/xlink" xml:space="preserve" xmlns:serif="http://www.serif.com/" style="fill-rule:evenodd;clip-rule:evenodd;">
    <g transform="matrix(1,0,0,1,-121.139363,-247.672697)">
        <g transform="matrix(4.166667,0,0,4.166667,144.573333,306.182682)">
            <path d="M0.797,-0.219C1.109,-0.156 1.688,0.094 2.422,0.094C3.766,0.094 4.656,-0.656 4.656,-1.844C4.656,-2.766 4.016,-3.297 3.328,-3.5C3.969,-3.719 4.484,-4.188 4.484,-5.016C4.484,-6.078 3.656,-6.766 2.422,-6.766C1.688,-6.766 1.203,-6.516 0.875,-6.453L0.875,-5.094C1.156,-5.375 1.656,-5.562 2.125,-5.562C2.688,-5.562 3.031,-5.234 3.031,-4.766C3.031,-4.281 2.688,-3.984 2.188,-3.984C2.062,-3.984 1.969,-3.984 1.906,-4L1.906,-2.875C1.953,-2.891 2.047,-2.906 2.188,-2.906C2.766,-2.906 3.188,-2.547 3.188,-2.031C3.188,-1.453 2.797,-1.094 2.125,-1.094C1.625,-1.094 1.047,-1.297 0.797,-1.609L0.797,-0.219Z" style="fill-rule:nonzero;"/>
        </g>
        <g transform="matrix(4.166667,0,0,4.166667,171.573333,306.182682)">
            <path d="M3.938,0C3.922,-0.203 3.906,-0.688 3.906,-1.047L3.906,-5.578C3.906,-5.906 3.922,-6.547 3.953,-6.797L3.312,-6.797C2.797,-6.516 1.609,-6 1.188,-5.844L1.188,-4.672C1.516,-4.828 2.141,-5.078 2.469,-5.203L2.469,-1.047C2.469,-0.688 2.453,-0.219 2.438,0L3.938,0Z" style="fill-rule:nonzero;"/>
        </g>
        <g transform="matrix(0.416667,0,0,0.416667,-741,-2092.641667)">
            <path d="M2178.36,5817.07C2228.59,5817.07 2269.45,5776.21 2269.45,5725.98C2269.45,5675.74 2228.59,5634.87 2178.36,5634.87C2128.13,5634.87 2087.25,5675.74 2087.25,5725.98C2087.25,5776.21 2128.13,5817.07 2178.36,5817.07Z" style="fill:none;fill-rule:nonzero;stroke:black;stroke-width:5px;"/>
        </g>
        <g transform="matrix(0.416667,0,0,0.416667,-741,-2092.6375)">
            <path d="M2178.36,5810.4C2224.91,5810.4 2262.79,5772.52 2262.79,5725.97C2262.79,5679.41 2224.91,5641.53 2178.36,5641.53C2131.79,5641.53 2093.91,5679.41 2093.91,5725.97C2093.91,5772.52 2131.79,5810.4 2178.36,5810.4Z" style="fill:none;fill-rule:nonzero;stroke:black;stroke-width:1.67px;"/>
        </g>
        <g transform="matrix(4.166667,0,0,4.166667,-741,129)">
            <g opacity="0.5">
                <g transform="matrix(0.1,0,0,0.1,0,-533.193)">
                    <path d="M2178.26,5657.61C2176.59,5657.61 2174.95,5657.73 2173.3,5657.86C2205.34,5660.41 2230.63,5689.89 2230.63,5725.97C2230.63,5762.05 2205.34,5791.53 2173.3,5794.07C2174.95,5794.19 2176.59,5794.32 2178.26,5794.32C2216.01,5794.32 2246.62,5763.72 2246.62,5725.97C2246.62,5688.21 2216.01,5657.61 2178.26,5657.61" style="fill-rule:nonzero;"/>
                </g>
            </g>
        </g>
    </g>
</svg>
