<?xml version="1.0" encoding="UTF-8" standalone="no"?>
<!DOCTYPE svg PUBLIC "-//W3C//DTD SVG 1.1//EN" "http://www.w3.org/Graphics/SVG/1.1/DTD/svg11.dtd">
<svg width="100%" height="100%" viewBox="0 0 92 92" version="1.1" xmlns="http://www.w3.org/2000/svg" xmlns:xlink="http://www.w3.org/1999/xlink" xml:space="preserve" xmlns:serif="http://www.serif.com/" style="fill-rule:evenodd;clip-rule:evenodd;">
    <g transform="matrix(1,0,0,1,-973.941447,-247.672697)">
        <g transform="matrix(4.166667,0,0,4.166667,995.219167,306.182682)">
            <path d="M0.797,-0.219C1.109,-0.156 1.688,0.094 2.422,0.094C3.766,0.094 4.656,-0.656 4.656,-1.844C4.656,-2.766 4.016,-3.297 3.328,-3.5C3.969,-3.719 4.484,-4.188 4.484,-5.016C4.484,-6.078 3.656,-6.766 2.422,-6.766C1.688,-6.766 1.203,-6.516 0.875,-6.453L0.875,-5.094C1.156,-5.375 1.656,-5.562 2.125,-5.562C2.688,-5.562 3.031,-5.234 3.031,-4.766C3.031,-4.281 2.688,-3.984 2.188,-3.984C2.062,-3.984 1.969,-3.984 1.906,-4L1.906,-2.875C1.953,-2.891 2.047,-2.906 2.188,-2.906C2.766,-2.906 3.188,-2.547 3.188,-2.031C3.188,-1.453 2.797,-1.094 2.125,-1.094C1.625,-1.094 1.047,-1.297 0.797,-1.609L0.797,-0.219Z" style="fill-rule:nonzero;"/>
        </g>
        <g transform="matrix(4.166667,0,0,4.166667,1022.219167,306.182682)">
            <path d="M2.609,0C2.75,-0.234 3.203,-0.812 3.453,-1.156C4.594,-2.656 5.125,-3.344 5.125,-4.438C5.125,-5.734 4.062,-6.766 2.766,-6.766C1.422,-6.766 0.344,-5.781 0.344,-4.516C0.344,-3.297 1.297,-2.344 2.516,-2.344C2.672,-2.344 2.875,-2.406 2.984,-2.469C2.703,-2.094 2.203,-1.438 1.797,-0.922C1.531,-0.594 1.234,-0.25 0.984,0L2.609,0ZM3.719,-4.5C3.719,-3.953 3.297,-3.516 2.75,-3.516C2.188,-3.516 1.734,-3.969 1.734,-4.531C1.734,-5.094 2.188,-5.547 2.75,-5.547C3.297,-5.547 3.719,-5.078 3.719,-4.5Z" style="fill-rule:nonzero;"/>
        </g>
        <g transform="matrix(0.416667,0,0,0.416667,-741,-2092.641667)">
            <path d="M4225.07,5817.07C4275.3,5817.07 4316.18,5776.21 4316.18,5725.98C4316.18,5675.74 4275.3,5634.87 4225.07,5634.87C4174.84,5634.87 4133.97,5675.74 4133.97,5725.98C4133.97,5776.21 4174.84,5817.07 4225.07,5817.07Z" style="fill:none;fill-rule:nonzero;stroke:black;stroke-width:5px;"/>
        </g>
        <g transform="matrix(0.416667,0,0,0.416667,-741,-2092.6375)">
            <path d="M4225.07,5810.4C4271.63,5810.4 4309.5,5772.52 4309.5,5725.97C4309.5,5679.41 4271.63,5641.53 4225.07,5641.53C4178.52,5641.53 4140.63,5679.41 4140.63,5725.97C4140.63,5772.52 4178.52,5810.4 4225.07,5810.4Z" style="fill:none;fill-rule:nonzero;stroke:black;stroke-width:1.67px;"/>
        </g>
        <g transform="matrix(4.166667,0,0,4.166667,-741,129)">
            <g opacity="0.5">
                <g transform="matrix(0.1,0,0,0.1,0,-533.193)">
                    <path d="M4224.97,5657.61C4214.51,5657.61 4204.65,5660.03 4195.78,5664.22C4188.16,5678.68 4183.25,5701.05 4183.25,5726.22C4183.25,5750.98 4187.99,5773.05 4195.41,5787.53C4204.36,5791.84 4214.36,5794.32 4224.97,5794.32C4262.72,5794.32 4293.33,5763.72 4293.33,5725.97C4293.33,5688.21 4262.72,5657.61 4224.97,5657.61" style="fill-rule:nonzero;"/>
                </g>
            </g>
        </g>
    </g>
</svg>
