<?xml version="1.0" encoding="UTF-8" standalone="no"?>
<!DOCTYPE svg PUBLIC "-//W3C//DTD SVG 1.1//EN" "http://www.w3.org/Graphics/SVG/1.1/DTD/svg11.dtd">
<svg width="100%" height="100%" viewBox="0 0 92 92" version="1.1" xmlns="http://www.w3.org/2000/svg" xmlns:xlink="http://www.w3.org/1999/xlink" xml:space="preserve" xmlns:serif="http://www.serif.com/" style="fill-rule:evenodd;clip-rule:evenodd;">
    <g transform="matrix(1,0,0,1,-654.139363,-247.672697)">
        <g transform="matrix(4.166667,0,0,4.166667,673.655833,306.182682)">
            <path d="M0.797,-0.219C1.109,-0.156 1.688,0.094 2.422,0.094C3.766,0.094 4.656,-0.656 4.656,-1.844C4.656,-2.766 4.016,-3.297 3.328,-3.5C3.969,-3.719 4.484,-4.188 4.484,-5.016C4.484,-6.078 3.656,-6.766 2.422,-6.766C1.688,-6.766 1.203,-6.516 0.875,-6.453L0.875,-5.094C1.156,-5.375 1.656,-5.562 2.125,-5.562C2.688,-5.562 3.031,-5.234 3.031,-4.766C3.031,-4.281 2.688,-3.984 2.188,-3.984C2.062,-3.984 1.969,-3.984 1.906,-4L1.906,-2.875C1.953,-2.891 2.047,-2.906 2.188,-2.906C2.766,-2.906 3.188,-2.547 3.188,-2.031C3.188,-1.453 2.797,-1.094 2.125,-1.094C1.625,-1.094 1.047,-1.297 0.797,-1.609L0.797,-0.219Z" style="fill-rule:nonzero;"/>
        </g>
        <g transform="matrix(4.166667,0,0,4.166667,700.655833,306.182682)">
            <path d="M2.875,-6.688C2.766,-6.453 2.516,-6.109 2.141,-5.656C0.719,-3.875 0.359,-3.25 0.359,-2.234C0.359,-0.953 1.422,0.078 2.734,0.078C4.062,0.078 5.156,-0.906 5.156,-2.188C5.156,-3.391 4.328,-4.344 3.094,-4.344C2.844,-4.344 2.594,-4.281 2.469,-4.203C2.859,-4.688 3.203,-5.172 3.578,-5.594C3.922,-5.984 4.297,-6.438 4.547,-6.688L2.875,-6.688ZM1.766,-2.172C1.766,-2.734 2.203,-3.156 2.75,-3.156C3.297,-3.156 3.734,-2.703 3.734,-2.125C3.734,-1.578 3.312,-1.125 2.766,-1.125C2.203,-1.125 1.766,-1.594 1.766,-2.172Z" style="fill-rule:nonzero;"/>
        </g>
        <g transform="matrix(0.416667,0,0,0.416667,-741,-2092.641667)">
            <path d="M3457.55,5817.07C3507.79,5817.07 3548.65,5776.21 3548.65,5725.98C3548.65,5675.74 3507.79,5634.87 3457.55,5634.87C3407.32,5634.87 3366.45,5675.74 3366.45,5725.98C3366.45,5776.21 3407.32,5817.07 3457.55,5817.07Z" style="fill:none;fill-rule:nonzero;stroke:black;stroke-width:5px;"/>
        </g>
        <g transform="matrix(0.416667,0,0,0.416667,-741,-2092.6375)">
            <path d="M3457.55,5810.4C3504.11,5810.4 3541.98,5772.52 3541.98,5725.97C3541.98,5679.41 3504.11,5641.53 3457.55,5641.53C3410.99,5641.53 3373.11,5679.41 3373.11,5725.97C3373.11,5772.52 3410.99,5810.4 3457.55,5810.4Z" style="fill:none;fill-rule:nonzero;stroke:black;stroke-width:1.67px;"/>
        </g>
        <g transform="matrix(4.166667,0,0,4.166667,-741,129)">
            <g opacity="0.5">
                <g transform="matrix(0.1,0,0,0.1,0,-533.193)">
                    <path d="M3457.45,5657.61L3457.45,5794.32C3495.2,5794.32 3525.81,5763.72 3525.81,5725.97C3525.81,5688.21 3495.2,5657.61 3457.45,5657.61" style="fill-rule:nonzero;"/>
                </g>
            </g>
        </g>
    </g>
</svg>
