<?xml version="1.0" encoding="UTF-8" standalone="no"?>
<!DOCTYPE svg PUBLIC "-//W3C//DTD SVG 1.1//EN" "http://www.w3.org/Graphics/SVG/1.1/DTD/svg11.dtd">
<svg width="100%" height="100%" viewBox="0 0 92 92" version="1.1" xmlns="http://www.w3.org/2000/svg" xmlns:xlink="http://www.w3.org/1999/xlink" xml:space="preserve" xmlns:serif="http://www.serif.com/" style="fill-rule:evenodd;clip-rule:evenodd;">
    <g transform="matrix(1,0,0,1,-1400.341447,-247.672697)">
        <g transform="matrix(4.166667,0,0,4.166667,1423.656667,306.182682)">
            <path d="M4.312,0C4.312,-0.234 4.297,-0.547 4.297,-0.906L4.297,-1.734C4.766,-1.734 5.125,-1.734 5.375,-1.703L5.375,-2.812C5.156,-2.797 4.797,-2.781 4.297,-2.781L4.297,-5.625C4.297,-6.047 4.297,-6.547 4.312,-6.812L3.766,-6.812L0.125,-2.359L0.125,-1.719C0.469,-1.734 1.016,-1.734 1.375,-1.734L2.875,-1.734L2.875,-0.906C2.875,-0.547 2.875,-0.25 2.844,0L4.312,0ZM2.875,-4.375L2.875,-2.781L1.688,-2.781L2.875,-4.375Z" style="fill-rule:nonzero;"/>
        </g>
        <g transform="matrix(4.166667,0,0,4.166667,1450.656667,306.182682)">
            <path d="M0.797,-0.219C1.109,-0.156 1.688,0.094 2.422,0.094C3.766,0.094 4.656,-0.656 4.656,-1.844C4.656,-2.766 4.016,-3.297 3.328,-3.5C3.969,-3.719 4.484,-4.188 4.484,-5.016C4.484,-6.078 3.656,-6.766 2.422,-6.766C1.688,-6.766 1.203,-6.516 0.875,-6.453L0.875,-5.094C1.156,-5.375 1.656,-5.562 2.125,-5.562C2.688,-5.562 3.031,-5.234 3.031,-4.766C3.031,-4.281 2.688,-3.984 2.188,-3.984C2.062,-3.984 1.969,-3.984 1.906,-4L1.906,-2.875C1.953,-2.891 2.047,-2.906 2.188,-2.906C2.766,-2.906 3.188,-2.547 3.188,-2.031C3.188,-1.453 2.797,-1.094 2.125,-1.094C1.625,-1.094 1.047,-1.297 0.797,-1.609L0.797,-0.219Z" style="fill-rule:nonzero;"/>
        </g>
        <g transform="matrix(0.416667,0,0,0.416667,-741,-2092.641667)">
            <path d="M5248.43,5817.07C5298.66,5817.07 5339.54,5776.21 5339.54,5725.98C5339.54,5675.74 5298.66,5634.87 5248.43,5634.87C5198.2,5634.87 5157.33,5675.74 5157.33,5725.98C5157.33,5776.21 5198.2,5817.07 5248.43,5817.07Z" style="fill:none;fill-rule:nonzero;stroke:black;stroke-width:5px;"/>
        </g>
        <g transform="matrix(0.416667,0,0,0.416667,-741,-2092.6375)">
            <path d="M5248.43,5810.4C5294.99,5810.4 5332.86,5772.52 5332.86,5725.97C5332.86,5679.41 5294.99,5641.53 5248.43,5641.53C5201.88,5641.53 5163.99,5679.41 5163.99,5725.97C5163.99,5772.52 5201.88,5810.4 5248.43,5810.4Z" style="fill:none;fill-rule:nonzero;stroke:black;stroke-width:1.67px;"/>
        </g>
        <g transform="matrix(4.166667,0,0,4.166667,-741,129)">
            <g opacity="0.5">
                <g transform="matrix(0,-0.1,-0.1,0,1097.429,564.236)">
                    <path d="M5248.32,5657.6C5210.57,5657.6 5179.97,5688.22 5179.97,5725.97C5179.97,5763.72 5210.57,5794.33 5248.32,5794.33C5286.07,5794.33 5316.68,5763.72 5316.68,5725.97C5316.68,5688.22 5286.07,5657.6 5248.32,5657.6" style="fill-rule:nonzero;"/>
                </g>
            </g>
        </g>
    </g>
</svg>
