<?xml version="1.0" encoding="UTF-8" standalone="no"?>
<!DOCTYPE svg PUBLIC "-//W3C//DTD SVG 1.1//EN" "http://www.w3.org/Graphics/SVG/1.1/DTD/svg11.dtd">
<svg width="100%" height="100%" viewBox="0 0 92 92" version="1.1" xmlns="http://www.w3.org/2000/svg" xmlns:xlink="http://www.w3.org/1999/xlink" xml:space="preserve" xmlns:serif="http://www.serif.com/" style="fill-rule:evenodd;clip-rule:evenodd;">
    <g transform="matrix(1,0,0,1,-118.818113,-128.41478)">
        <g>
            <g transform="matrix(4.166667,0,0,4.166667,0,0)">
                <g opacity="0.5">
                    <g transform="matrix(1,0,0,1,39.4244,48.5772)">
                        <path d="M0,-13.672C-0.113,-13.672 -0.223,-13.66 -0.334,-13.655C3.284,-13.479 6.167,-10.499 6.167,-6.836C6.167,-3.174 3.284,-0.193 -0.334,-0.017C-0.223,-0.012 -0.113,0 0,0C3.775,0 6.836,-3.061 6.836,-6.836C6.836,-10.611 3.775,-13.672 0,-13.672" style="fill:rgb(35,31,32);fill-rule:nonzero;"/>
                    </g>
                </g>
            </g>
            <g transform="matrix(4.166667,0,0,4.166667,164.324583,137.004583)">
                <path d="M0,17.72C4.885,17.72 8.86,13.745 8.86,8.86C8.86,3.975 4.885,0 0,0C-4.885,0 -8.86,3.975 -8.86,8.86C-8.86,13.745 -4.885,17.72 0,17.72Z" style="fill:none;fill-rule:nonzero;stroke:rgb(35,31,32);stroke-width:1px;"/>
            </g>
        </g>
        <g transform="matrix(4.166667,0,0,4.166667,152.932915,187.295071)">
            <path d="M3.938,0C3.906,-0.203 3.906,-0.672 3.906,-1.047L3.906,-5.578C3.906,-5.906 3.906,-6.547 3.938,-6.781L3.312,-6.781C2.781,-6.5 1.609,-5.984 1.172,-5.828L1.172,-4.656C1.516,-4.828 2.141,-5.078 2.469,-5.203L2.469,-1.047C2.469,-0.688 2.453,-0.219 2.438,0L3.938,0Z" style="fill:rgb(35,31,31);fill-rule:nonzero;"/>
        </g>
    </g>
</svg>
