<?xml version="1.0" encoding="UTF-8" standalone="no"?>
<!DOCTYPE svg PUBLIC "-//W3C//DTD SVG 1.1//EN" "http://www.w3.org/Graphics/SVG/1.1/DTD/svg11.dtd">
<svg width="100%" height="100%" viewBox="0 0 92 92" version="1.1" xmlns="http://www.w3.org/2000/svg" xmlns:xlink="http://www.w3.org/1999/xlink" xml:space="preserve" xmlns:serif="http://www.serif.com/" style="fill-rule:evenodd;clip-rule:evenodd;">
    <g transform="matrix(1,0,0,1,-1613.541447,-247.672697)">
        <g transform="matrix(4.166667,0,0,4.166667,1632.7225,306.182682)">
            <path d="M4.312,0C4.312,-0.234 4.297,-0.547 4.297,-0.906L4.297,-1.734C4.766,-1.734 5.125,-1.734 5.375,-1.703L5.375,-2.812C5.156,-2.797 4.797,-2.781 4.297,-2.781L4.297,-5.625C4.297,-6.047 4.297,-6.547 4.312,-6.812L3.766,-6.812L0.125,-2.359L0.125,-1.719C0.469,-1.734 1.016,-1.734 1.375,-1.734L2.875,-1.734L2.875,-0.906C2.875,-0.547 2.875,-0.25 2.844,0L4.312,0ZM2.875,-4.375L2.875,-2.781L1.688,-2.781L2.875,-4.375Z" style="fill-rule:nonzero;"/>
        </g>
        <g transform="matrix(4.166667,0,0,4.166667,1659.7225,306.182682)">
            <path d="M0.656,-0.188C1,-0.109 1.578,0.125 2.312,0.125C3.656,0.125 4.75,-0.844 4.75,-2.125C4.75,-3.438 3.812,-4.234 2.688,-4.234C2.5,-4.234 2.312,-4.219 2.234,-4.188L2.531,-5.469L3.594,-5.469C3.922,-5.469 4.156,-5.453 4.406,-5.438L4.406,-6.719C4.188,-6.703 3.859,-6.688 3.5,-6.688L2.266,-6.688C1.938,-6.688 1.75,-6.688 1.562,-6.719C1.547,-6.469 1.484,-6 1.391,-5.578C1.203,-4.688 1,-3.828 0.797,-2.859C1.062,-3.047 1.547,-3.125 1.938,-3.125C2.656,-3.125 3.203,-2.719 3.203,-2.094C3.203,-1.484 2.703,-1.062 1.984,-1.062C1.484,-1.062 0.906,-1.312 0.656,-1.609L0.656,-0.188Z" style="fill-rule:nonzero;"/>
        </g>
        <g transform="matrix(0.416667,0,0,0.416667,-741,-2092.641667)">
            <path d="M5760.11,5817.07C5810.34,5817.07 5851.21,5776.21 5851.21,5725.98C5851.21,5675.74 5810.34,5634.87 5760.11,5634.87C5709.88,5634.87 5669.02,5675.74 5669.02,5725.98C5669.02,5776.21 5709.88,5817.07 5760.11,5817.07Z" style="fill:none;fill-rule:nonzero;stroke:black;stroke-width:5px;"/>
        </g>
        <g transform="matrix(0.416667,0,0,0.416667,-741,-2092.6375)">
            <path d="M5760.11,5810.4C5806.68,5810.4 5844.54,5772.52 5844.54,5725.97C5844.54,5679.41 5806.68,5641.53 5760.11,5641.53C5713.55,5641.53 5675.68,5679.41 5675.68,5725.97C5675.68,5772.52 5713.55,5810.4 5760.11,5810.4Z" style="fill:none;fill-rule:nonzero;stroke:black;stroke-width:1.67px;"/>
        </g>
        <g transform="matrix(4.166667,0,0,4.166667,-741,129)">
            <g opacity="0.5">
                <g transform="matrix(0.1,0,0,0.1,0,-533.352)">
                    <path d="M5760.22,5795.12C5772.6,5795.12 5784.17,5791.78 5794.19,5786.03C5800.62,5771.55 5804.7,5750.29 5804.7,5726.51C5804.7,5703.1 5800.73,5682.13 5794.47,5667.67C5784.39,5661.81 5772.72,5658.4 5760.22,5658.4C5722.47,5658.4 5691.86,5689.01 5691.86,5726.76C5691.86,5764.52 5722.47,5795.12 5760.22,5795.12" style="fill-rule:nonzero;"/>
                </g>
            </g>
        </g>
    </g>
</svg>
