<?xml version="1.0" encoding="UTF-8" standalone="no"?>
<!DOCTYPE svg PUBLIC "-//W3C//DTD SVG 1.1//EN" "http://www.w3.org/Graphics/SVG/1.1/DTD/svg11.dtd">
<svg width="100%" height="100%" viewBox="0 0 92 92" version="1.1" xmlns="http://www.w3.org/2000/svg" xmlns:xlink="http://www.w3.org/1999/xlink" xml:space="preserve" xmlns:serif="http://www.serif.com/" style="fill-rule:evenodd;clip-rule:evenodd;">
    <g transform="matrix(1,0,0,1,-1552.88478,-128.41478)">
        <g>
            <g transform="matrix(4.166667,0,0,4.166667,0,0)">
                <g opacity="0.5">
                    <g transform="matrix(1,0,0,1,383.5991,34.9048)">
                        <path d="M0,13.672C1.385,13.672 2.672,13.257 3.749,12.549C4.391,11.211 4.804,9.141 4.804,6.811C4.804,4.525 4.407,2.485 3.786,1.146C2.702,0.423 1.401,0 0,0C-3.775,0 -6.836,3.061 -6.836,6.836C-6.836,10.612 -3.775,13.672 0,13.672" style="fill:rgb(35,31,32);fill-rule:nonzero;"/>
                    </g>
                </g>
            </g>
            <g transform="matrix(4.166667,0,0,4.166667,1598.39125,137.004583)">
                <path d="M0,17.72C4.885,17.72 8.86,13.745 8.86,8.86C8.86,3.975 4.885,0 0,0C-4.885,0 -8.86,3.975 -8.86,8.86C-8.86,13.745 -4.885,17.72 0,17.72Z" style="fill:none;fill-rule:nonzero;stroke:rgb(35,31,32);stroke-width:1px;"/>
            </g>
        </g>
        <g transform="matrix(4.166667,0,0,4.166667,1572.850825,186.964992)">
            <path d="M3.938,0C3.906,-0.203 3.906,-0.672 3.906,-1.047L3.906,-5.578C3.906,-5.906 3.906,-6.547 3.938,-6.781L3.312,-6.781C2.781,-6.5 1.609,-5.984 1.172,-5.828L1.172,-4.656C1.516,-4.828 2.141,-5.078 2.469,-5.203L2.469,-1.047C2.469,-0.688 2.453,-0.219 2.438,0L3.938,0Z" style="fill:rgb(35,31,31);fill-rule:nonzero;"/>
        </g>
        <g transform="matrix(4.166667,0,0,4.166667,1599.817754,186.964992)">
            <path d="M0.656,-0.188C1,-0.109 1.578,0.125 2.312,0.125C3.656,0.125 4.75,-0.844 4.75,-2.109C4.75,-3.438 3.797,-4.234 2.672,-4.234C2.5,-4.234 2.312,-4.219 2.234,-4.172L2.531,-5.469L3.594,-5.469C3.906,-5.469 4.141,-5.453 4.391,-5.438L4.391,-6.703C4.188,-6.688 3.859,-6.672 3.5,-6.672L2.25,-6.672C1.938,-6.672 1.75,-6.672 1.562,-6.703C1.547,-6.453 1.484,-5.984 1.391,-5.578C1.203,-4.672 1,-3.828 0.797,-2.859C1.062,-3.047 1.547,-3.125 1.938,-3.125C2.641,-3.125 3.188,-2.719 3.188,-2.094C3.188,-1.484 2.703,-1.062 1.984,-1.062C1.484,-1.062 0.906,-1.312 0.656,-1.609L0.656,-0.188Z" style="fill:rgb(35,31,31);fill-rule:nonzero;"/>
        </g>
    </g>
</svg>
