<?xml version="1.0" encoding="UTF-8" standalone="no"?>
<!DOCTYPE svg PUBLIC "-//W3C//DTD SVG 1.1//EN" "http://www.w3.org/Graphics/SVG/1.1/DTD/svg11.dtd">
<svg width="100%" height="100%" viewBox="0 0 92 92" version="1.1" xmlns="http://www.w3.org/2000/svg" xmlns:xlink="http://www.w3.org/1999/xlink" xml:space="preserve" xmlns:serif="http://www.serif.com/" style="fill-rule:evenodd;clip-rule:evenodd;">
    <g transform="matrix(1,0,0,1,-1961.024363,-128.41478)">
        <g>
            <g transform="matrix(4.166667,0,0,4.166667,0,0)">
                <g opacity="0.5">
                    <g transform="matrix(1,0,0,1,481.5522,34.9049)">
                        <path d="M0,13.672C0.617,13.672 1.212,13.583 1.781,13.429C2.684,12.034 3.282,9.615 3.282,6.858C3.282,4.065 2.668,1.62 1.745,0.234C1.187,0.086 0.604,0 0,0C-3.775,0 -6.836,3.061 -6.836,6.836C-6.836,10.612 -3.775,13.672 0,13.672" style="fill:rgb(35,31,32);fill-rule:nonzero;"/>
                    </g>
                </g>
            </g>
            <g transform="matrix(4.166667,0,0,4.166667,2006.530833,137.004583)">
                <path d="M0,17.72C4.885,17.72 8.86,13.745 8.86,8.86C8.86,3.975 4.885,0 0,0C-4.885,0 -8.86,3.975 -8.86,8.86C-8.86,13.745 -4.885,17.72 0,17.72Z" style="fill:none;fill-rule:nonzero;stroke:rgb(35,31,32);stroke-width:1px;"/>
            </g>
        </g>
        <g transform="matrix(4.166667,0,0,4.166667,1984.323292,186.964992)">
            <path d="M3.938,0C3.906,-0.203 3.906,-0.672 3.906,-1.047L3.906,-5.578C3.906,-5.906 3.906,-6.547 3.938,-6.781L3.312,-6.781C2.781,-6.5 1.609,-5.984 1.172,-5.828L1.172,-4.656C1.516,-4.828 2.141,-5.078 2.469,-5.203L2.469,-1.047C2.469,-0.688 2.453,-0.219 2.438,0L3.938,0Z" style="fill:rgb(35,31,31);fill-rule:nonzero;"/>
        </g>
        <g transform="matrix(4.166667,0,0,4.166667,2011.290221,186.964992)">
            <path d="M2.609,0C2.75,-0.234 3.188,-0.812 3.453,-1.156C4.594,-2.656 5.125,-3.344 5.125,-4.438C5.125,-5.719 4.047,-6.75 2.75,-6.75C1.422,-6.75 0.344,-5.766 0.344,-4.516C0.344,-3.297 1.281,-2.344 2.516,-2.344C2.672,-2.344 2.875,-2.391 2.984,-2.469C2.703,-2.094 2.203,-1.422 1.781,-0.922C1.531,-0.594 1.234,-0.25 0.984,0L2.609,0ZM3.719,-4.5C3.719,-3.938 3.281,-3.5 2.75,-3.5C2.188,-3.5 1.734,-3.969 1.734,-4.516C1.734,-5.094 2.188,-5.547 2.75,-5.547C3.281,-5.547 3.719,-5.078 3.719,-4.5Z" style="fill:rgb(35,31,31);fill-rule:nonzero;"/>
        </g>
    </g>
</svg>
