<?xml version="1.0" encoding="UTF-8" standalone="no"?>
<!DOCTYPE svg PUBLIC "-//W3C//DTD SVG 1.1//EN" "http://www.w3.org/Graphics/SVG/1.1/DTD/svg11.dtd">
<svg width="100%" height="100%" viewBox="0 0 92 92" version="1.1" xmlns="http://www.w3.org/2000/svg" xmlns:xlink="http://www.w3.org/1999/xlink" xml:space="preserve" xmlns:serif="http://www.serif.com/" style="fill-rule:evenodd;clip-rule:evenodd;">
    <g transform="matrix(1,0,0,1,-938.28478,-128.41478)">
        <g>
            <g transform="matrix(4.166667,0,0,4.166667,0,0)">
                <g opacity="0.5">
                    <g transform="matrix(1,0,0,1,236.0956,48.5772)">
                        <path d="M0,-13.672C-0.546,-13.672 -1.075,-13.601 -1.585,-13.48C-2.737,-12.348 -3.543,-9.791 -3.543,-6.811C-3.543,-3.886 -2.765,-1.37 -1.646,-0.208C-1.118,-0.077 -0.569,0 0,0C3.775,0 6.836,-3.061 6.836,-6.836C6.836,-10.611 3.775,-13.672 0,-13.672" style="fill:rgb(35,31,32);fill-rule:nonzero;"/>
                    </g>
                </g>
            </g>
            <g transform="matrix(4.166667,0,0,4.166667,983.79125,137.004583)">
                <path d="M0,17.72C4.885,17.72 8.86,13.745 8.86,8.86C8.86,3.975 4.885,0 0,0C-4.885,0 -8.86,3.975 -8.86,8.86C-8.86,13.745 -4.885,17.72 0,17.72Z" style="fill:none;fill-rule:nonzero;stroke:rgb(35,31,32);stroke-width:1px;"/>
            </g>
        </g>
        <g transform="matrix(4.166667,0,0,4.166667,976.112033,186.964992)">
            <path d="M2.609,0C2.75,-0.234 3.188,-0.812 3.453,-1.156C4.594,-2.656 5.125,-3.344 5.125,-4.438C5.125,-5.719 4.047,-6.75 2.75,-6.75C1.422,-6.75 0.344,-5.766 0.344,-4.516C0.344,-3.297 1.281,-2.344 2.516,-2.344C2.672,-2.344 2.875,-2.391 2.984,-2.469C2.703,-2.094 2.203,-1.422 1.781,-0.922C1.531,-0.594 1.234,-0.25 0.984,0L2.609,0ZM3.719,-4.5C3.719,-3.938 3.281,-3.5 2.75,-3.5C2.188,-3.5 1.734,-3.969 1.734,-4.516C1.734,-5.094 2.188,-5.547 2.75,-5.547C3.281,-5.547 3.719,-5.078 3.719,-4.5Z" style="fill:rgb(35,31,31);fill-rule:nonzero;"/>
        </g>
    </g>
</svg>
