<?xml version="1.0" encoding="UTF-8" standalone="no"?>
<!DOCTYPE svg PUBLIC "-//W3C//DTD SVG 1.1//EN" "http://www.w3.org/Graphics/SVG/1.1/DTD/svg11.dtd">
<svg width="100%" height="100%" viewBox="0 0 92 92" version="1.1" xmlns="http://www.w3.org/2000/svg" xmlns:xlink="http://www.w3.org/1999/xlink" xml:space="preserve" xmlns:serif="http://www.serif.com/" style="fill-rule:evenodd;clip-rule:evenodd;">
    <g transform="matrix(1,0,0,1,-867.341447,-247.672697)">
        <g transform="matrix(4.166667,0,0,4.166667,889.656667,306.182682)">
            <path d="M0.797,-0.219C1.109,-0.156 1.688,0.094 2.422,0.094C3.766,0.094 4.656,-0.656 4.656,-1.844C4.656,-2.766 4.016,-3.297 3.328,-3.5C3.969,-3.719 4.484,-4.188 4.484,-5.016C4.484,-6.078 3.656,-6.766 2.422,-6.766C1.688,-6.766 1.203,-6.516 0.875,-6.453L0.875,-5.094C1.156,-5.375 1.656,-5.562 2.125,-5.562C2.688,-5.562 3.031,-5.234 3.031,-4.766C3.031,-4.281 2.688,-3.984 2.188,-3.984C2.062,-3.984 1.969,-3.984 1.906,-4L1.906,-2.875C1.953,-2.891 2.047,-2.906 2.188,-2.906C2.766,-2.906 3.188,-2.547 3.188,-2.031C3.188,-1.453 2.797,-1.094 2.125,-1.094C1.625,-1.094 1.047,-1.297 0.797,-1.609L0.797,-0.219Z" style="fill-rule:nonzero;"/>
        </g>
        <g transform="matrix(4.166667,0,0,4.166667,916.656667,306.182682)">
            <path d="M1.859,-2.047C1.859,-2.516 2.234,-2.906 2.703,-2.906C3.203,-2.906 3.594,-2.516 3.594,-2.047C3.594,-1.562 3.203,-1.172 2.703,-1.172C2.234,-1.172 1.859,-1.562 1.859,-2.047ZM2.031,-4.844C2.031,-5.234 2.344,-5.516 2.703,-5.516C3.109,-5.516 3.406,-5.234 3.406,-4.844C3.406,-4.453 3.109,-4.156 2.719,-4.156C2.344,-4.156 2.031,-4.453 2.031,-4.844ZM0.656,-4.969C0.656,-4.266 1.062,-3.766 1.578,-3.516C0.953,-3.266 0.469,-2.703 0.469,-1.938C0.469,-0.828 1.344,0.062 2.703,0.062C4.094,0.062 4.984,-0.812 4.984,-1.906C4.984,-2.734 4.453,-3.266 3.828,-3.516C4.328,-3.75 4.766,-4.266 4.766,-4.984C4.766,-5.953 3.922,-6.766 2.703,-6.766C1.531,-6.766 0.656,-5.953 0.656,-4.969Z" style="fill-rule:nonzero;"/>
        </g>
        <g transform="matrix(0.416667,0,0,0.416667,-741,-2092.641667)">
            <path d="M3969.23,5817.07C4019.46,5817.07 4060.34,5776.21 4060.34,5725.98C4060.34,5675.74 4019.46,5634.87 3969.23,5634.87C3919,5634.87 3878.13,5675.74 3878.13,5725.98C3878.13,5776.21 3919,5817.07 3969.23,5817.07Z" style="fill:none;fill-rule:nonzero;stroke:black;stroke-width:5px;"/>
        </g>
        <g transform="matrix(0.416667,0,0,0.416667,-741,-2092.6375)">
            <path d="M3969.23,5810.4C4015.79,5810.4 4053.66,5772.52 4053.66,5725.97C4053.66,5679.41 4015.79,5641.53 3969.23,5641.53C3922.68,5641.53 3884.79,5679.41 3884.79,5725.97C3884.79,5772.52 3922.68,5810.4 3969.23,5810.4Z" style="fill:none;fill-rule:nonzero;stroke:black;stroke-width:1.67px;"/>
        </g>
        <g transform="matrix(4.166667,0,0,4.166667,-741,129)">
            <g opacity="0.5">
                <g transform="matrix(0.1,0,0,0.1,0,-533.193)">
                    <path d="M3969.13,5657.61C3963.66,5657.61 3958.38,5658.32 3953.28,5659.53C3941.76,5670.85 3933.7,5696.41 3933.7,5726.22C3933.7,5755.47 3941.48,5780.63 3952.67,5792.25C3957.95,5793.55 3963.44,5794.32 3969.13,5794.32C4006.88,5794.32 4037.49,5763.72 4037.49,5725.97C4037.49,5688.21 4006.88,5657.61 3969.13,5657.61" style="fill-rule:nonzero;"/>
                </g>
            </g>
        </g>
    </g>
</svg>
