<?xml version="1.0" encoding="UTF-8" standalone="no"?>
<!DOCTYPE svg PUBLIC "-//W3C//DTD SVG 1.1//EN" "http://www.w3.org/Graphics/SVG/1.1/DTD/svg11.dtd">
<svg width="100%" height="100%" viewBox="0 0 92 92" version="1.1" xmlns="http://www.w3.org/2000/svg" xmlns:xlink="http://www.w3.org/1999/xlink" xml:space="preserve" xmlns:serif="http://www.serif.com/" style="fill-rule:evenodd;clip-rule:evenodd;">
    <g transform="matrix(1,0,0,1,-1187.141447,-247.672697)">
        <g transform="matrix(4.166667,0,0,4.166667,1207.219167,306.182682)">
            <path d="M4.312,0C4.312,-0.234 4.297,-0.547 4.297,-0.906L4.297,-1.734C4.766,-1.734 5.125,-1.734 5.375,-1.703L5.375,-2.812C5.156,-2.797 4.797,-2.781 4.297,-2.781L4.297,-5.625C4.297,-6.047 4.297,-6.547 4.312,-6.812L3.766,-6.812L0.125,-2.359L0.125,-1.719C0.469,-1.734 1.016,-1.734 1.375,-1.734L2.875,-1.734L2.875,-0.906C2.875,-0.547 2.875,-0.25 2.844,0L4.312,0ZM2.875,-4.375L2.875,-2.781L1.688,-2.781L2.875,-4.375Z" style="fill-rule:nonzero;"/>
        </g>
        <g transform="matrix(4.166667,0,0,4.166667,1234.219167,306.182682)">
            <path d="M3.938,0C3.922,-0.203 3.906,-0.688 3.906,-1.047L3.906,-5.578C3.906,-5.906 3.922,-6.547 3.953,-6.797L3.312,-6.797C2.797,-6.516 1.609,-6 1.188,-5.844L1.188,-4.672C1.516,-4.828 2.141,-5.078 2.469,-5.203L2.469,-1.047C2.469,-0.688 2.453,-0.219 2.438,0L3.938,0Z" style="fill-rule:nonzero;"/>
        </g>
        <g transform="matrix(0.416667,0,0,0.416667,-741,-2092.641667)">
            <path d="M4736.75,5817.07C4786.98,5817.07 4827.86,5776.21 4827.86,5725.98C4827.86,5675.74 4786.98,5634.87 4736.75,5634.87C4686.52,5634.87 4645.65,5675.74 4645.65,5725.98C4645.65,5776.21 4686.52,5817.07 4736.75,5817.07Z" style="fill:none;fill-rule:nonzero;stroke:black;stroke-width:5px;"/>
        </g>
        <g transform="matrix(0.416667,0,0,0.416667,-741,-2092.6375)">
            <path d="M4736.75,5810.4C4783.31,5810.4 4821.18,5772.52 4821.18,5725.97C4821.18,5679.41 4783.31,5641.53 4736.75,5641.53C4690.2,5641.53 4652.31,5679.41 4652.31,5725.97C4652.31,5772.52 4690.2,5810.4 4736.75,5810.4Z" style="fill:none;fill-rule:nonzero;stroke:black;stroke-width:1.67px;"/>
        </g>
        <g transform="matrix(4.166667,0,0,4.166667,-741,129)">
            <g opacity="0.5">
                <g transform="matrix(0.1,0,0,0.1,0,-533.193)">
                    <path d="M4736.65,5657.61C4722.8,5657.61 4709.93,5661.75 4699.16,5668.84C4692.74,5682.22 4688.61,5702.91 4688.61,5726.22C4688.61,5749.07 4692.58,5769.48 4698.79,5782.87C4709.63,5790.09 4722.64,5794.32 4736.65,5794.32C4774.4,5794.32 4805.01,5763.72 4805.01,5725.97C4805.01,5688.21 4774.4,5657.61 4736.65,5657.61" style="fill-rule:nonzero;"/>
                </g>
            </g>
        </g>
    </g>
</svg>
