<?xml version="1.0" encoding="UTF-8" standalone="no"?>
<!DOCTYPE svg PUBLIC "-//W3C//DTD SVG 1.1//EN" "http://www.w3.org/Graphics/SVG/1.1/DTD/svg11.dtd">
<svg width="100%" height="100%" viewBox="0 0 92 92" version="1.1" xmlns="http://www.w3.org/2000/svg" xmlns:xlink="http://www.w3.org/1999/xlink" xml:space="preserve" xmlns:serif="http://www.serif.com/" style="fill-rule:evenodd;clip-rule:evenodd;">
    <g transform="matrix(1,0,0,1,-426.118113,-128.41478)">
        <g>
            <g transform="matrix(4.166667,0,0,4.166667,0,0)">
                <g opacity="0.5">
                    <g transform="matrix(1,0,0,1,113.1761,48.5772)">
                        <path d="M0,-13.672C-0.283,-13.672 -0.56,-13.649 -0.834,-13.616C1.637,-13.204 3.553,-10.328 3.553,-6.836C3.553,-3.344 1.637,-0.468 -0.834,-0.056C-0.56,-0.023 -0.283,0 0,0C3.775,0 6.836,-3.061 6.836,-6.836C6.836,-10.611 3.775,-13.672 0,-13.672" style="fill:rgb(35,31,32);fill-rule:nonzero;"/>
                    </g>
                </g>
            </g>
            <g transform="matrix(4.166667,0,0,4.166667,471.624583,137.004583)">
                <path d="M0,17.72C4.885,17.72 8.86,13.745 8.86,8.86C8.86,3.975 4.885,0 0,0C-4.885,0 -8.86,3.975 -8.86,8.86C-8.86,13.745 -4.885,17.72 0,17.72Z" style="fill:none;fill-rule:nonzero;stroke:rgb(35,31,32);stroke-width:1px;"/>
            </g>
        </g>
        <g transform="matrix(4.166667,0,0,4.166667,459.104338,186.964992)">
            <path d="M4.312,0C4.297,-0.234 4.297,-0.547 4.297,-0.906L4.297,-1.734C4.75,-1.734 5.125,-1.734 5.375,-1.703L5.375,-2.812C5.141,-2.781 4.781,-2.781 4.297,-2.781L4.297,-6.797L3.75,-6.797L0.125,-2.359L0.125,-1.719C0.469,-1.734 1.016,-1.734 1.375,-1.734L2.859,-1.734L2.859,-0.906C2.859,-0.547 2.859,-0.25 2.828,0L4.312,0ZM2.859,-4.359L2.859,-2.781L1.688,-2.781L2.859,-4.359Z" style="fill:rgb(35,31,31);fill-rule:nonzero;"/>
        </g>
    </g>
</svg>
