<?xml version="1.0" encoding="UTF-8" standalone="no"?>
<!DOCTYPE svg PUBLIC "-//W3C//DTD SVG 1.1//EN" "http://www.w3.org/Graphics/SVG/1.1/DTD/svg11.dtd">
<svg width="100%" height="100%" viewBox="0 0 92 92" version="1.1" xmlns="http://www.w3.org/2000/svg" xmlns:xlink="http://www.w3.org/1999/xlink" xml:space="preserve" xmlns:serif="http://www.serif.com/" style="fill-rule:evenodd;clip-rule:evenodd;">
    <g transform="matrix(1,0,0,1,-1080.539363,-247.672697)">
        <g transform="matrix(4.166667,0,0,4.166667,1102.655833,306.182682)">
            <path d="M4.312,0C4.312,-0.234 4.297,-0.547 4.297,-0.906L4.297,-1.734C4.766,-1.734 5.125,-1.734 5.375,-1.703L5.375,-2.812C5.156,-2.797 4.797,-2.781 4.297,-2.781L4.297,-5.625C4.297,-6.047 4.297,-6.547 4.312,-6.812L3.766,-6.812L0.125,-2.359L0.125,-1.719C0.469,-1.734 1.016,-1.734 1.375,-1.734L2.875,-1.734L2.875,-0.906C2.875,-0.547 2.875,-0.25 2.844,0L4.312,0ZM2.875,-4.375L2.875,-2.781L1.688,-2.781L2.875,-4.375Z" style="fill-rule:nonzero;"/>
        </g>
        <g transform="matrix(4.166667,0,0,4.166667,1129.655833,306.182682)">
            <path d="M0.312,-3.344C0.312,-1.438 1.156,0.094 2.734,0.094C4.312,0.094 5.156,-1.438 5.156,-3.344C5.156,-5.266 4.312,-6.797 2.734,-6.797C1.156,-6.797 0.312,-5.266 0.312,-3.344ZM1.781,-3.344C1.781,-4.656 2.062,-5.578 2.734,-5.578C3.406,-5.578 3.688,-4.656 3.688,-3.344C3.688,-2.047 3.406,-1.109 2.734,-1.109C2.062,-1.109 1.781,-2.031 1.781,-3.344Z" style="fill-rule:nonzero;"/>
        </g>
        <g transform="matrix(0.416667,0,0,0.416667,-741,-2092.641667)">
            <path d="M4480.91,5817.07C4531.14,5817.07 4572.01,5776.21 4572.01,5725.98C4572.01,5675.74 4531.14,5634.87 4480.91,5634.87C4430.68,5634.87 4389.81,5675.74 4389.81,5725.98C4389.81,5776.21 4430.68,5817.07 4480.91,5817.07Z" style="fill:none;fill-rule:nonzero;stroke:black;stroke-width:5px;"/>
        </g>
        <g transform="matrix(0.416667,0,0,0.416667,-741,-2092.6375)">
            <path d="M4480.91,5810.4C4527.47,5810.4 4565.34,5772.52 4565.34,5725.97C4565.34,5679.41 4527.47,5641.53 4480.91,5641.53C4434.35,5641.53 4396.47,5679.41 4396.47,5725.97C4396.47,5772.52 4434.35,5810.4 4480.91,5810.4Z" style="fill:none;fill-rule:nonzero;stroke:black;stroke-width:1.67px;"/>
        </g>
        <g transform="matrix(4.166667,0,0,4.166667,-741,129)">
            <g opacity="0.5">
                <g transform="matrix(0.1,0,0,0.1,0,-533.193)">
                    <path d="M4480.81,5657.61C4468.43,5657.61 4456.86,5660.95 4446.84,5666.7C4440.41,5681.18 4436.33,5702.44 4436.33,5726.22C4436.33,5749.63 4440.3,5770.6 4446.56,5785.05C4456.64,5790.91 4468.31,5794.32 4480.81,5794.32C4518.56,5794.32 4549.17,5763.72 4549.17,5725.97C4549.17,5688.21 4518.56,5657.61 4480.81,5657.61" style="fill-rule:nonzero;"/>
                </g>
            </g>
        </g>
    </g>
</svg>
