<?xml version="1.0" encoding="UTF-8" standalone="no"?>
<!DOCTYPE svg PUBLIC "-//W3C//DTD SVG 1.1//EN" "http://www.w3.org/Graphics/SVG/1.1/DTD/svg11.dtd">
<svg width="100%" height="100%" viewBox="0 0 92 92" version="1.1" xmlns="http://www.w3.org/2000/svg" xmlns:xlink="http://www.w3.org/1999/xlink" xml:space="preserve" xmlns:serif="http://www.serif.com/" style="fill-rule:evenodd;clip-rule:evenodd;">
    <g transform="matrix(1,0,0,1,-630.98478,-128.41478)">
        <g>
            <g transform="matrix(4.166667,0,0,4.166667,0,0)">
                <g opacity="0.5">
                    <g transform="matrix(1,0,0,1,162.3439,48.5772)">
                        <path d="M0,-13.672L0,0C3.775,0 6.836,-3.061 6.836,-6.836C6.836,-10.611 3.775,-13.672 0,-13.672" style="fill:rgb(35,31,32);fill-rule:nonzero;"/>
                    </g>
                </g>
            </g>
            <g transform="matrix(4.166667,0,0,4.166667,676.49125,137.004583)">
                <path d="M0,17.72C4.885,17.72 8.86,13.745 8.86,8.86C8.86,3.975 4.885,0 0,0C-4.885,0 -8.86,3.975 -8.86,8.86C-8.86,13.745 -4.885,17.72 0,17.72Z" style="fill:none;fill-rule:nonzero;stroke:rgb(35,31,32);stroke-width:1px;"/>
            </g>
        </g>
        <g transform="matrix(4.166667,0,0,4.166667,667.225967,186.964992)">
            <path d="M2.875,-6.672C2.75,-6.438 2.5,-6.094 2.141,-5.656C0.719,-3.875 0.359,-3.25 0.359,-2.219C0.359,-0.953 1.422,0.078 2.719,0.078C4.062,0.078 5.141,-0.906 5.141,-2.172C5.141,-3.391 4.328,-4.344 3.094,-4.344C2.828,-4.344 2.594,-4.266 2.469,-4.203C2.859,-4.688 3.203,-5.156 3.578,-5.578C3.906,-5.984 4.297,-6.438 4.547,-6.672L2.875,-6.672ZM1.75,-2.172C1.75,-2.719 2.203,-3.156 2.75,-3.156C3.297,-3.156 3.734,-2.703 3.734,-2.125C3.734,-1.578 3.312,-1.125 2.766,-1.125C2.203,-1.125 1.75,-1.594 1.75,-2.172Z" style="fill:rgb(35,31,31);fill-rule:nonzero;"/>
        </g>
    </g>
</svg>
