<?xml version="1.0" encoding="UTF-8" standalone="no"?>
<!DOCTYPE svg PUBLIC "-//W3C//DTD SVG 1.1//EN" "http://www.w3.org/Graphics/SVG/1.1/DTD/svg11.dtd">
<svg width="100%" height="100%" viewBox="0 0 92 92" version="1.1" xmlns="http://www.w3.org/2000/svg" xmlns:xlink="http://www.w3.org/1999/xlink" xml:space="preserve" xmlns:serif="http://www.serif.com/" style="fill-rule:evenodd;clip-rule:evenodd;">
    <g transform="matrix(1,0,0,1,-547.539363,-247.672697)">
        <g transform="matrix(4.166667,0,0,4.166667,569.7225,306.182682)">
            <path d="M0.797,-0.219C1.109,-0.156 1.688,0.094 2.422,0.094C3.766,0.094 4.656,-0.656 4.656,-1.844C4.656,-2.766 4.016,-3.297 3.328,-3.5C3.969,-3.719 4.484,-4.188 4.484,-5.016C4.484,-6.078 3.656,-6.766 2.422,-6.766C1.688,-6.766 1.203,-6.516 0.875,-6.453L0.875,-5.094C1.156,-5.375 1.656,-5.562 2.125,-5.562C2.688,-5.562 3.031,-5.234 3.031,-4.766C3.031,-4.281 2.688,-3.984 2.188,-3.984C2.062,-3.984 1.969,-3.984 1.906,-4L1.906,-2.875C1.953,-2.891 2.047,-2.906 2.188,-2.906C2.766,-2.906 3.188,-2.547 3.188,-2.031C3.188,-1.453 2.797,-1.094 2.125,-1.094C1.625,-1.094 1.047,-1.297 0.797,-1.609L0.797,-0.219Z" style="fill-rule:nonzero;"/>
        </g>
        <g transform="matrix(4.166667,0,0,4.166667,596.7225,306.182682)">
            <path d="M0.656,-0.188C1,-0.109 1.578,0.125 2.312,0.125C3.656,0.125 4.75,-0.844 4.75,-2.125C4.75,-3.438 3.812,-4.234 2.688,-4.234C2.5,-4.234 2.312,-4.219 2.234,-4.188L2.531,-5.469L3.594,-5.469C3.922,-5.469 4.156,-5.453 4.406,-5.438L4.406,-6.719C4.188,-6.703 3.859,-6.688 3.5,-6.688L2.266,-6.688C1.938,-6.688 1.75,-6.688 1.562,-6.719C1.547,-6.469 1.484,-6 1.391,-5.578C1.203,-4.688 1,-3.828 0.797,-2.859C1.062,-3.047 1.547,-3.125 1.938,-3.125C2.656,-3.125 3.203,-2.719 3.203,-2.094C3.203,-1.484 2.703,-1.062 1.984,-1.062C1.484,-1.062 0.906,-1.312 0.656,-1.609L0.656,-0.188Z" style="fill-rule:nonzero;"/>
        </g>
        <g transform="matrix(0.416667,0,0,0.416667,-741,-2092.641667)">
            <path d="M3201.71,5817.07C3251.95,5817.07 3292.81,5776.21 3292.81,5725.98C3292.81,5675.74 3251.95,5634.87 3201.71,5634.87C3151.48,5634.87 3110.61,5675.74 3110.61,5725.98C3110.61,5776.21 3151.48,5817.07 3201.71,5817.07Z" style="fill:none;fill-rule:nonzero;stroke:black;stroke-width:5px;"/>
        </g>
        <g transform="matrix(0.416667,0,0,0.416667,-741,-2092.6375)">
            <path d="M3201.71,5810.4C3248.27,5810.4 3286.14,5772.52 3286.14,5725.97C3286.14,5679.41 3248.27,5641.53 3201.71,5641.53C3155.15,5641.53 3117.27,5679.41 3117.27,5725.97C3117.27,5772.52 3155.15,5810.4 3201.71,5810.4Z" style="fill:none;fill-rule:nonzero;stroke:black;stroke-width:1.67px;"/>
        </g>
        <g transform="matrix(4.166667,0,0,4.166667,-741,129)">
            <g opacity="0.5">
                <g transform="matrix(0.1,0,0,0.1,0,-533.193)">
                    <path d="M3201.61,5657.61L3201.61,5794.32C3239.36,5794.32 3269.98,5763.72 3269.98,5725.97C3269.98,5688.21 3239.36,5657.61 3201.61,5657.61" style="fill-rule:nonzero;"/>
                </g>
            </g>
        </g>
    </g>
</svg>
