<?xml version="1.0" encoding="UTF-8" standalone="no"?>
<!DOCTYPE svg PUBLIC "-//W3C//DTD SVG 1.1//EN" "http://www.w3.org/Graphics/SVG/1.1/DTD/svg11.dtd">
<svg width="100%" height="100%" viewBox="0 0 92 92" version="1.1" xmlns="http://www.w3.org/2000/svg" xmlns:xlink="http://www.w3.org/1999/xlink" xml:space="preserve" xmlns:serif="http://www.serif.com/" style="fill-rule:evenodd;clip-rule:evenodd;">
    <g transform="matrix(1,0,0,1,-733.418113,-128.41478)">
        <g>
            <g transform="matrix(4.166667,0,0,4.166667,0,0)">
                <g opacity="0.5">
                    <g transform="matrix(1,0,0,1,186.9278,48.5772)">
                        <path d="M0,-13.672L0,0C3.775,0 6.836,-3.061 6.836,-6.836C6.836,-10.611 3.775,-13.672 0,-13.672" style="fill:rgb(35,31,32);fill-rule:nonzero;"/>
                    </g>
                </g>
            </g>
            <g transform="matrix(4.166667,0,0,4.166667,778.924583,137.004583)">
                <path d="M0,17.72C4.885,17.72 8.86,13.745 8.86,8.86C8.86,3.975 4.885,0 0,0C-4.885,0 -8.86,3.975 -8.86,8.86C-8.86,13.745 -4.885,17.72 0,17.72Z" style="fill:none;fill-rule:nonzero;stroke:rgb(35,31,32);stroke-width:1px;"/>
            </g>
        </g>
        <g transform="matrix(4.166667,0,0,4.166667,767.942963,186.964992)">
            <path d="M2.25,0C2.328,-0.188 2.5,-0.594 2.641,-0.906C3.422,-2.594 4.109,-4.109 4.938,-5.828C5.094,-6.125 5.266,-6.484 5.391,-6.703C5.156,-6.672 4.75,-6.672 4.406,-6.672L1.578,-6.672C1.234,-6.672 0.812,-6.672 0.594,-6.703L0.594,-5.359C0.797,-5.375 1.219,-5.406 1.578,-5.406L3.438,-5.406C2.719,-3.891 2.078,-2.547 1.312,-1.031C1.188,-0.781 0.906,-0.234 0.734,0L2.25,0Z" style="fill:rgb(35,31,31);fill-rule:nonzero;"/>
        </g>
    </g>
</svg>
