<?xml version="1.0" encoding="UTF-8" standalone="no"?>
<!DOCTYPE svg PUBLIC "-//W3C//DTD SVG 1.1//EN" "http://www.w3.org/Graphics/SVG/1.1/DTD/svg11.dtd">
<svg width="100%" height="100%" viewBox="0 0 92 92" version="1.1" xmlns="http://www.w3.org/2000/svg" xmlns:xlink="http://www.w3.org/1999/xlink" xml:space="preserve" xmlns:serif="http://www.serif.com/" style="fill-rule:evenodd;clip-rule:evenodd;">
    <g transform="matrix(1,0,0,1,-1506.94353,-247.672697)">
        <g transform="matrix(4.166667,0,0,4.166667,1522.655833,306.182682)">
            <path d="M4.312,0C4.312,-0.234 4.297,-0.547 4.297,-0.906L4.297,-1.734C4.766,-1.734 5.125,-1.734 5.375,-1.703L5.375,-2.812C5.156,-2.797 4.797,-2.781 4.297,-2.781L4.297,-5.625C4.297,-6.047 4.297,-6.547 4.312,-6.812L3.766,-6.812L0.125,-2.359L0.125,-1.719C0.469,-1.734 1.016,-1.734 1.375,-1.734L2.875,-1.734L2.875,-0.906C2.875,-0.547 2.875,-0.25 2.844,0L4.312,0ZM2.875,-4.375L2.875,-2.781L1.688,-2.781L2.875,-4.375Z" style="fill-rule:nonzero;"/>
        </g>
        <g transform="matrix(4.166667,0,0,4.166667,1549.655833,306.182682)">
            <path d="M4.312,0C4.312,-0.234 4.297,-0.547 4.297,-0.906L4.297,-1.734C4.766,-1.734 5.125,-1.734 5.375,-1.703L5.375,-2.812C5.156,-2.797 4.797,-2.781 4.297,-2.781L4.297,-5.625C4.297,-6.047 4.297,-6.547 4.312,-6.812L3.766,-6.812L0.125,-2.359L0.125,-1.719C0.469,-1.734 1.016,-1.734 1.375,-1.734L2.875,-1.734L2.875,-0.906C2.875,-0.547 2.875,-0.25 2.844,0L4.312,0ZM2.875,-4.375L2.875,-2.781L1.688,-2.781L2.875,-4.375Z" style="fill-rule:nonzero;"/>
        </g>
        <g transform="matrix(0.416667,0,0,0.416667,-741,-2092.641667)">
            <path d="M5504.27,5817.07C5554.5,5817.07 5595.38,5776.21 5595.38,5725.98C5595.38,5675.74 5554.5,5634.87 5504.27,5634.87C5454.04,5634.87 5413.18,5675.74 5413.18,5725.98C5413.18,5776.21 5454.04,5817.07 5504.27,5817.07Z" style="fill:none;fill-rule:nonzero;stroke:black;stroke-width:5px;"/>
        </g>
        <g transform="matrix(0.416667,0,0,0.416667,-741,-2092.6375)">
            <path d="M5504.27,5810.4C5550.84,5810.4 5588.7,5772.52 5588.7,5725.97C5588.7,5679.41 5550.84,5641.53 5504.27,5641.53C5457.71,5641.53 5419.84,5679.41 5419.84,5725.97C5419.84,5772.52 5457.71,5810.4 5504.27,5810.4Z" style="fill:none;fill-rule:nonzero;stroke:black;stroke-width:1.67px;"/>
        </g>
        <g transform="matrix(4.166667,0,0,4.166667,-741,129)">
            <g opacity="0.5">
                <g transform="matrix(0.1,0,0,0.1,0,-533.194)">
                    <path d="M5504.17,5794.33C5518.02,5794.33 5530.89,5790.18 5541.66,5783.1C5548.08,5769.72 5552.21,5749.02 5552.21,5725.72C5552.21,5702.86 5548.23,5682.46 5542.03,5669.07C5531.19,5661.84 5518.18,5657.61 5504.17,5657.61C5466.42,5657.61 5435.8,5688.22 5435.8,5725.97C5435.8,5763.73 5466.42,5794.33 5504.17,5794.33" style="fill-rule:nonzero;"/>
                </g>
            </g>
        </g>
    </g>
</svg>
