<?xml version="1.0" encoding="UTF-8" standalone="no"?>
<!DOCTYPE svg PUBLIC "-//W3C//DTD SVG 1.1//EN" "http://www.w3.org/Graphics/SVG/1.1/DTD/svg11.dtd">
<svg width="100%" height="100%" viewBox="0 0 92 92" version="1.1" xmlns="http://www.w3.org/2000/svg" xmlns:xlink="http://www.w3.org/1999/xlink" xml:space="preserve" xmlns:serif="http://www.serif.com/" style="fill-rule:evenodd;clip-rule:evenodd;">
    <g transform="matrix(1,0,0,1,-2678.057697,-128.41478)">
        <g>
            <g transform="matrix(4.166667,0,0,4.166667,0,0)">
                <g opacity="0.5">
                    <g transform="matrix(1,0,0,1,653.6396,34.9048)">
                        <path d="M0,13.672C0.113,13.672 0.223,13.661 0.334,13.655C-3.284,13.48 -6.167,10.499 -6.167,6.836C-6.167,3.174 -3.284,0.193 0.334,0.017C0.223,0.012 0.113,0 0,0C-3.775,0 -6.836,3.061 -6.836,6.836C-6.836,10.612 -3.775,13.672 0,13.672" style="fill:rgb(35,31,32);fill-rule:nonzero;"/>
                    </g>
                </g>
            </g>
            <g transform="matrix(4.166667,0,0,4.166667,2723.564167,137.004583)">
                <path d="M0,17.72C4.885,17.72 8.86,13.745 8.86,8.86C8.86,3.975 4.885,0 0,0C-4.885,0 -8.86,3.975 -8.86,8.86C-8.86,13.745 -4.885,17.72 0,17.72Z" style="fill:none;fill-rule:nonzero;stroke:rgb(35,31,32);stroke-width:1px;"/>
            </g>
        </g>
        <g transform="matrix(4.166667,0,0,4.166667,2697.980463,186.964992)">
            <path d="M5.016,-1.297C4.703,-1.266 4.234,-1.234 3.672,-1.234L2.703,-1.234C3.109,-1.672 3.469,-2.031 3.875,-2.562C4.5,-3.391 4.766,-3.953 4.766,-4.609C4.766,-5.875 3.938,-6.781 2.562,-6.781C1.75,-6.781 1.297,-6.484 0.812,-6.406L0.812,-4.797C1.094,-5.219 1.594,-5.484 2.156,-5.484C2.781,-5.484 3.25,-5.047 3.25,-4.359C3.25,-3.953 3.109,-3.578 2.672,-2.953C1.938,-1.922 1.297,-1.266 0.672,-0.672L0.672,0L3.391,0C3.922,0 4.672,0.016 5.016,0.047L5.016,-1.297Z" style="fill:rgb(35,31,31);fill-rule:nonzero;"/>
        </g>
        <g transform="matrix(4.166667,0,0,4.166667,2724.947392,186.964992)">
            <path d="M2.875,-6.672C2.75,-6.438 2.5,-6.094 2.141,-5.656C0.719,-3.875 0.359,-3.25 0.359,-2.219C0.359,-0.953 1.422,0.078 2.719,0.078C4.062,0.078 5.141,-0.906 5.141,-2.172C5.141,-3.391 4.328,-4.344 3.094,-4.344C2.828,-4.344 2.594,-4.266 2.469,-4.203C2.859,-4.688 3.203,-5.156 3.578,-5.578C3.906,-5.984 4.297,-6.438 4.547,-6.672L2.875,-6.672ZM1.75,-2.172C1.75,-2.719 2.203,-3.156 2.75,-3.156C3.297,-3.156 3.734,-2.703 3.734,-2.125C3.734,-1.578 3.312,-1.125 2.766,-1.125C2.203,-1.125 1.75,-1.594 1.75,-2.172Z" style="fill:rgb(35,31,31);fill-rule:nonzero;"/>
        </g>
    </g>
</svg>
