<?xml version="1.0" encoding="UTF-8" standalone="no"?>
<!DOCTYPE svg PUBLIC "-//W3C//DTD SVG 1.1//EN" "http://www.w3.org/Graphics/SVG/1.1/DTD/svg11.dtd">
<svg width="100%" height="100%" viewBox="0 0 34 26" version="1.1" xmlns="http://www.w3.org/2000/svg" xmlns:xlink="http://www.w3.org/1999/xlink" xml:space="preserve" xmlns:serif="http://www.serif.com/" style="fill-rule:evenodd;clip-rule:evenodd;stroke-linejoin:round;stroke-miterlimit:2;">
    <g transform="matrix(0.03125,0,0,0.03125,-3.534156,-3.326125)">
        <path d="M223.648,138.276C260.204,129.433 296.466,121.915 332.433,115.723C368.4,109.531 405.251,106.435 442.986,106.436C471.289,106.436 496.347,108.057 518.162,111.3C539.977,114.543 558.55,120.292 573.882,128.547C605.722,141.518 631.076,165.692 649.944,201.069C659.967,180.433 672.791,163.777 688.416,151.1C704.041,138.423 721.14,128.842 739.713,122.356C758.286,115.87 778.038,111.595 798.97,109.532C819.902,107.469 840.686,106.437 861.322,106.436C897.878,106.436 933.55,109.679 968.338,116.164C1003.126,122.649 1038.209,130.02 1073.586,138.275L1122.228,232.908L1165.565,234.676C1171.462,235.267 1176.327,237.773 1180.158,242.195C1183.989,246.617 1185.906,252.071 1185.908,258.556L1185.908,895.348C1185.908,901.833 1183.697,907.287 1179.275,911.709C1174.853,916.131 1169.399,918.048 1162.914,917.459L744.578,886.505C729.249,894.76 714.95,901.688 701.683,907.289C688.416,912.89 672.938,915.69 655.251,915.69C636.973,915.69 620.317,912.89 605.282,907.289C590.247,901.688 574.77,894.76 558.85,886.505L137.859,917.459C131.374,918.05 125.625,916.133 120.612,911.709C115.599,907.285 113.093,901.831 113.093,895.348L113.093,262.979C113.093,257.082 115.157,251.922 119.284,247.5C123.411,243.078 128.423,240.572 134.318,239.981L171.463,238.213L183.846,212.565L184.732,212.565L223.648,138.276ZM262.562,714.925C292.044,709.028 321.967,704.163 352.331,700.332C382.695,696.501 412.913,694.584 442.986,694.582C526.713,694.582 588.919,712.86 629.602,749.416L629.602,278.897C629.602,251.775 625.032,229.222 615.892,211.239C606.752,193.256 594.222,178.957 578.302,168.344C562.382,157.731 543.809,150.36 522.582,146.233C501.355,142.106 478.654,140.042 454.479,140.042C389.62,140.042 325.647,148.591 262.558,165.69L262.558,714.922L262.562,714.925ZM670.284,750.303C683.846,737.92 697.555,728.044 711.411,720.673C725.267,713.302 739.565,707.7 754.306,703.867C769.047,700.034 784.524,697.527 800.738,696.348C816.952,695.169 834.198,694.579 852.476,694.58C884.316,694.58 915.271,696.348 945.341,699.885C975.411,703.422 1005.776,708.433 1036.437,714.919L1036.437,163.918C1008.134,157.433 977.179,151.831 943.572,147.112C909.965,142.393 878.714,140.035 849.821,140.038C787.32,140.038 739.856,152.715 707.428,178.069C694.457,188.092 685.022,201.653 679.125,218.752C673.228,235.851 670.279,256.488 670.279,280.663L670.279,750.296L670.284,750.303ZM221.877,724.653L221.877,215.22L184.732,282.436L184.732,796.292L221.877,724.653ZM1077.123,218.76L1077.123,724.656L1114.268,794.527L1114.268,288.631L1077.123,218.76ZM210.379,842.284L584.493,812.213L587.148,815.75C595.991,827.542 609.552,835.502 627.831,839.63C623.704,816.045 615.891,797.325 604.392,783.469C592.893,769.613 579.184,759 563.265,751.629C547.346,744.258 529.509,739.688 509.756,737.919C490.003,736.15 469.513,735.265 448.288,735.264C415.86,735.264 383.136,737.181 350.116,741.014C317.096,744.847 284.667,750.891 252.828,759.144L210.379,842.284ZM1093.043,842.284L1050.589,760.03C1016.98,753.545 983.371,747.796 949.764,742.783C916.157,737.77 882.253,735.264 848.053,735.264C790.271,735.264 746.934,744.109 718.043,761.798C689.152,779.487 673.232,806.02 670.283,841.397C690.33,837.27 705.661,828.425 716.274,814.863L718.042,812.208L1093.043,842.284Z" style="fill-rule:nonzero;"/>
    </g>
</svg>
