<?xml version="1.0" encoding="UTF-8" standalone="no"?>
<!DOCTYPE svg PUBLIC "-//W3C//DTD SVG 1.1//EN" "http://www.w3.org/Graphics/SVG/1.1/DTD/svg11.dtd">
<svg width="100%" height="100%" viewBox="0 0 437 99" version="1.1" xmlns="http://www.w3.org/2000/svg" xmlns:xlink="http://www.w3.org/1999/xlink" xml:space="preserve" xmlns:serif="http://www.serif.com/" style="fill-rule:evenodd;clip-rule:evenodd;stroke-linejoin:round;stroke-miterlimit:2;">
    <g transform="matrix(4.166667,0,0,4.166667,-221.289062,-411.979167)">
        <path d="M53.109,99.66L53.109,111.719L61.895,111.719L61.895,108.277L56.723,108.277L56.723,107.027L61.465,107.027L61.465,104.27L56.723,104.27L56.723,103.105L61.895,103.105L61.895,99.66" style="fill:rgb(16,14,13);fill-rule:nonzero;"/>
    </g>
    <g transform="matrix(4.166667,0,0,4.166667,-221.289062,-411.979167)">
        <path d="M77.824,104.473C78.199,104.473 78.492,104.164 78.492,103.809C78.492,103.43 78.199,103.137 77.824,103.137L76.469,103.137L76.469,104.473L77.824,104.473ZM72.855,99.66L77.977,99.66C80.258,99.66 82.121,101.512 82.121,103.809C82.121,105.074 81.539,106.203 80.648,106.957L83.988,111.719L79.672,111.719L76.863,107.73L76.469,107.73L76.469,111.719L72.855,111.719" style="fill:rgb(16,14,13);fill-rule:nonzero;"/>
    </g>
    <g transform="matrix(4.166667,0,0,4.166667,-221.289062,-411.979167)">
        <path d="M85.633,103.105L82.652,103.105L82.652,99.66L92.211,99.66L92.211,103.105L89.246,103.105L89.246,111.719L85.633,111.719" style="fill:rgb(16,14,13);fill-rule:nonzero;"/>
    </g>
    <g transform="matrix(4.166667,0,0,4.166667,-221.289062,-411.979167)">
        <path d="M92.844,99.66L96.477,99.66L96.477,103.926L100.09,103.926L100.09,99.66L103.703,99.66L103.703,111.719L100.09,111.719L100.09,107.371L96.477,107.371L96.477,111.719L92.844,111.719" style="fill:rgb(16,14,13);fill-rule:nonzero;"/>
    </g>
    <g transform="matrix(4.166667,0,0,4.166667,-221.289062,-411.979167)">
        <path d="M109.887,108.277C110.23,108.277 110.504,108.004 110.504,107.66C110.504,107.301 110.23,107.027 109.887,107.027L108.004,107.027L108.004,108.277L109.887,108.277ZM109.355,104.27C109.68,104.27 109.938,104.012 109.938,103.688C109.938,103.359 109.68,103.105 109.355,103.105L108.004,103.105L108.004,104.27L109.355,104.27ZM104.391,99.66L110.059,99.66C112.078,99.66 113.742,101.305 113.742,103.344C113.742,104.062 113.516,104.746 113.156,105.312C113.859,105.996 114.305,106.941 114.305,108.004C114.305,110.059 112.629,111.719 110.57,111.719L104.391,111.719" style="fill:rgb(16,14,13);fill-rule:nonzero;"/>
    </g>
    <g transform="matrix(4.166667,0,0,4.166667,-221.289062,-411.979167)">
        <path d="M149.086,99.66L157.871,99.66L157.871,103.105L152.699,103.105L152.699,104.27L157.445,104.27L157.445,107.027L152.699,107.027L152.699,108.277L157.871,108.277L157.871,111.719L149.086,111.719" style="fill:rgb(16,14,13);fill-rule:nonzero;"/>
    </g>
    <g transform="matrix(4.166667,0,0,4.166667,-221.289062,-411.979167)">
        <path d="M66.793,108.035L67.395,106.34L68.008,108.035L66.793,108.035ZM67.402,98.875L61.418,111.719L65.508,111.719L65.836,110.793L68.969,110.793L69.293,111.719L73.387,111.719" style="fill:rgb(16,14,13);fill-rule:nonzero;"/>
    </g>
    <g transform="matrix(4.166667,0,0,4.166667,-221.289062,-411.979167)">
        <path d="M126.109,104.27C124.703,104.27 123.562,103.129 123.562,101.723C123.562,101.215 123.715,100.738 123.969,100.344C123.055,99.805 121.988,99.492 120.848,99.492C117.422,99.492 114.648,102.266 114.648,105.691C114.648,109.113 117.422,111.891 120.848,111.891C124.273,111.891 127.051,109.113 127.051,105.691C127.051,105.16 126.977,104.648 126.852,104.16C126.617,104.23 126.367,104.27 126.109,104.27" style="fill:rgb(16,14,13);fill-rule:nonzero;"/>
    </g>
    <g transform="matrix(4.166667,0,0,4.166667,-221.289062,-411.979167)">
        <path d="M132.66,104.473L131.309,104.473L131.309,103.137L132.66,103.137C133.035,103.137 133.328,103.43 133.328,103.809C133.328,104.164 133.035,104.473 132.66,104.473M135.484,106.957C136.375,106.203 136.957,105.074 136.957,103.809C136.957,101.512 135.094,99.66 132.812,99.66L127.598,99.66C128.238,100.125 128.656,100.875 128.656,101.723C128.656,102.527 128.281,103.246 127.691,103.711L127.691,111.719L131.309,111.719L131.309,107.73L131.703,107.73L134.508,111.719L138.824,111.719" style="fill:rgb(16,14,13);fill-rule:nonzero;"/>
    </g>
    <g transform="matrix(4.166667,0,0,4.166667,-221.289062,-411.979167)">
        <path d="M148.441,99.66L144.809,99.66L144.809,104.887L137.926,99.098L137.926,111.719L141.539,111.719L141.539,106.512L148.441,112.301" style="fill:rgb(16,14,13);fill-rule:nonzero;"/>
    </g>
    <g transform="matrix(4.166667,0,0,4.166667,-221.289062,-411.979167)">
        <path d="M56.555,117.527C57.73,117.527 58.668,116.594 58.668,115.43C58.668,114.266 57.73,113.332 56.555,113.332L53.695,113.332L53.695,117.527L56.555,117.527ZM53.109,112.785L56.609,112.785C58.066,112.785 59.254,113.973 59.254,115.43C59.254,116.699 58.348,117.742 57.145,117.953L60.109,122.188L59.402,122.188L56.5,118.062L53.695,118.062L53.695,122.188L53.109,122.188" style="fill:rgb(16,14,13);fill-rule:nonzero;"/>
    </g>
    <g transform="matrix(4.166667,0,0,4.166667,-221.289062,-411.979167)">
        <path d="M74.699,119.238L72.363,113.746L70.023,119.238L74.699,119.238ZM72.309,112.559L72.414,112.559L76.609,122.188L75.969,122.188L74.941,119.77L69.797,119.77L68.754,122.188L68.113,122.188" style="fill:rgb(16,14,13);fill-rule:nonzero;"/>
    </g>
    <g transform="matrix(4.166667,0,0,4.166667,-221.289062,-411.979167)">
        <path d="M85.977,113.988L85.977,122.191L85.402,122.191L85.402,112.559L85.496,112.559L91.828,121.039L91.828,112.785L92.391,112.785L92.391,122.441L92.281,122.441" style="fill:rgb(16,14,13);fill-rule:nonzero;"/>
    </g>
    <g transform="matrix(4.166667,0,0,4.166667,-221.289062,-411.979167)">
        <path d="M101.984,117.488C101.984,114.801 104.16,112.652 106.82,112.652C108.543,112.652 110.145,113.574 111.016,115.07L110.492,115.363C109.758,114.066 108.395,113.172 106.82,113.172C104.469,113.172 102.586,115.109 102.586,117.488C102.586,119.879 104.469,121.801 106.82,121.801C109.062,121.801 110.895,120.051 111.016,117.82L106.82,117.82L106.82,117.395L111.629,117.395L111.629,117.555C111.602,120.199 109.453,122.336 106.82,122.336C104.16,122.336 101.984,120.172 101.984,117.488" style="fill:rgb(16,14,13);fill-rule:nonzero;"/>
    </g>
    <g transform="matrix(4.166667,0,0,4.166667,-221.289062,-411.979167)">
        <path d="M120.984,112.785L126.328,112.785L126.328,113.332L121.586,113.332L121.586,116.98L125.926,116.98L125.926,117.445L121.586,117.445L121.586,121.656L126.328,121.656L126.328,122.188L120.984,122.188" style="fill:rgb(16,14,13);fill-rule:nonzero;"/>
    </g>
    <g transform="matrix(4.166667,0,0,4.166667,-221.289062,-411.979167)">
        <path d="M138.926,117.527C140.102,117.527 141.035,116.594 141.035,115.43C141.035,114.266 140.102,113.332 138.926,113.332L136.066,113.332L136.066,117.527L138.926,117.527ZM135.48,112.785L138.98,112.785C140.434,112.785 141.625,113.973 141.625,115.43C141.625,116.699 140.719,117.742 139.512,117.953L142.48,122.188L141.77,122.188L138.871,118.062L136.066,118.062L136.066,122.188L135.48,122.188" style="fill:rgb(16,14,13);fill-rule:nonzero;"/>
    </g>
    <g transform="matrix(4.166667,0,0,4.166667,-221.289062,-411.979167)">
        <path d="M150.871,120.398L151.367,120.09C151.727,121.215 153.168,121.777 154.293,121.777C155.652,121.777 157.27,121.133 157.27,119.812C157.27,118.797 156.27,118.344 155.305,118.062L153.09,117.422C151.996,117.098 151.113,116.445 151.113,115.23C151.113,113.68 152.703,112.691 154.344,112.691C155.574,112.691 156.871,113.145 157.539,114.16L157.059,114.508C156.508,113.625 155.348,113.227 154.344,113.227C153.195,113.227 151.738,113.922 151.738,115.215C151.738,116.164 152.422,116.633 153.316,116.887L155.574,117.527C156.777,117.875 157.871,118.438 157.871,119.773C157.871,121.414 156.055,122.336 154.32,122.336C152.93,122.336 151.34,121.723 150.871,120.398" style="fill:rgb(16,14,13);fill-rule:nonzero;"/>
    </g>
</svg>
