<svg xmlns="http://www.w3.org/2000/svg" width="18.953" height="18.951"><path d="M9.67.003a6 6 0 0 0-.485.003c-1.659.08-3.046 1.141-3.688 2.82-.283.74-.277.73-.775 1.111a6 6 0 0 0-.875.87c-.255.32-.5.538-.635.566C2.093 5.61.978 6.483.446 7.541c-.38.756-.39.79-.435 1.77-.03.655-.004.926.14 1.403.187.633.675 1.455 1.075 1.813.494.443 1.314.915 1.766 1.016.414.092.504.155.86.6.36.446 1.18 1.2 1.385 1.27.044.015.103.18.132.366.19 1.237 1.486 2.615 2.874 3.056.546.174 1.837.147 2.502-.05.692-.207 1.48-.717 1.941-1.255.387-.453.81-1.267.893-1.72.045-.249.166-.398.607-.756.302-.246.611-.545.686-.665.28-.45.654-.736 1.161-.888 1.762-.53 2.92-2.128 2.92-4.027 0-1.18-.399-2.1-1.31-3.01-.616-.617-1.057-.877-1.78-1.05-.34-.082-.476-.17-.695-.456-.389-.508-.865-1.004-1.22-1.27-.186-.14-.327-.33-.357-.48-.113-.565-.61-1.406-1.155-1.955C11.631.443 10.763.046 9.67.003m-.125 3.844c.03 0 .05.04.076.095.06.13.465 1.035.9 2.01l.79 1.77 2.002.896c1.925.861 1.994.9 1.77 1.001l-2.003.897-1.77.792-.884 1.981c-.486 1.09-.893 1.992-.905 2.004s-.42-.879-.91-1.98l-.888-2-1.77-.793a554 554 0 0 1-2.01-.9c-.233-.107-.182-.136 1.77-1.003l2.01-.893.893-2.01c.66-1.478.836-1.866.929-1.867"/></svg>
