<?xml version="1.0" encoding="UTF-8" standalone="no"?>
<!DOCTYPE svg PUBLIC "-//W3C//DTD SVG 1.1//EN" "http://www.w3.org/Graphics/SVG/1.1/DTD/svg11.dtd">
<svg width="100%" height="100%" viewBox="0 0 30 26" version="1.1" xmlns="http://www.w3.org/2000/svg" xmlns:xlink="http://www.w3.org/1999/xlink" xml:space="preserve" xmlns:serif="http://www.serif.com/" style="fill-rule:evenodd;clip-rule:evenodd;stroke-linejoin:round;stroke-miterlimit:2;">
    <g transform="matrix(0.03125,0,0,0.03125,-1.773469,-3.089656)">
        <path d="M983.487,789.376C991.326,803.628 995.246,818.771 995.246,834.805C995.246,850.839 991.326,865.982 983.487,880.234C975.648,894.486 964.602,905.532 950.35,913.371C936.098,921.21 920.421,925.13 903.318,925.13L148.676,925.13C130.861,925.13 115.006,921.21 101.111,913.371C87.216,905.532 76.349,894.486 68.51,880.234C60.671,865.982 56.751,850.839 56.751,834.805C56.751,818.771 60.671,803.628 68.51,789.376L446.899,143.762C454.738,130.223 465.784,119.356 480.036,111.161C494.288,102.966 509.609,98.869 525.998,98.869C542.387,98.869 557.887,102.966 572.496,111.161C587.105,119.356 598.329,130.223 606.166,143.762L794.292,467.638L983.488,789.375L983.487,789.376ZM614.718,619.422C635.383,604.457 651.951,585.929 664.422,563.84C676.893,541.751 683.128,517.522 683.128,491.155C683.128,469.777 679.031,449.646 670.836,430.762C662.641,411.878 651.418,395.488 637.166,381.591C622.914,367.694 606.168,356.827 586.929,348.99C567.69,341.153 547.381,337.233 526.003,337.231C504.625,337.229 484.316,341.149 465.077,348.99C445.838,356.831 429.092,367.698 414.84,381.591C400.588,395.484 389.365,411.874 381.17,430.762C372.975,449.65 368.878,469.781 368.878,491.155C368.878,517.52 375.113,541.749 387.584,563.84C400.055,585.931 416.623,604.459 437.288,619.422L390.256,825.718C388.83,830.707 390.077,835.339 393.998,839.613C397.919,843.887 402.729,846.025 408.429,846.027L643.587,846.027C649.287,846.027 654.275,843.889 658.551,839.613C662.827,835.337 664.252,830.705 662.826,825.718L614.725,619.422L614.718,619.422Z" style="fill-rule:nonzero;"/>
    </g>
</svg>
