<?xml version="1.0" encoding="UTF-8" standalone="no"?>
<!DOCTYPE svg PUBLIC "-//W3C//DTD SVG 1.1//EN" "http://www.w3.org/Graphics/SVG/1.1/DTD/svg11.dtd">
<svg width="100%" height="100%" viewBox="0 0 30 26" version="1.1" xmlns="http://www.w3.org/2000/svg" xmlns:xlink="http://www.w3.org/1999/xlink" xml:space="preserve" xmlns:serif="http://www.serif.com/" style="fill-rule:evenodd;clip-rule:evenodd;stroke-linejoin:round;stroke-miterlimit:2;">
    <g transform="matrix(0.03125,0,0,0.03125,-1.411,-3.1025)">
        <path d="M962.53,789.999C970.371,804.255 974.47,819.402 974.825,835.44C975.18,851.478 971.082,866.625 962.53,880.881C944.709,910.106 918.691,924.719 884.477,924.719L621.449,924.719C618.597,917.591 615.389,908.146 611.826,896.384C608.263,884.622 606.125,872.86 605.412,861.099C604.699,849.338 605.947,839.002 609.154,830.092C612.361,821.182 619.312,816.014 630.005,814.589C650.676,811.737 670.279,807.103 688.813,800.688C707.347,794.273 724.098,785.362 739.065,773.956C754.032,762.55 766.685,748.828 777.022,732.79C787.359,716.752 794.31,697.685 797.873,675.588C800.725,657.056 798.587,635.493 791.459,610.899C784.331,586.305 774.886,562.247 763.124,538.726C751.362,515.205 738.71,493.998 725.167,475.106C711.624,456.214 700.576,443.918 692.021,438.218C699.862,469.583 704.496,498.808 705.922,525.894C707.348,549.417 704.853,573.118 698.438,596.997C692.023,620.876 678.48,639.23 657.809,652.06L647.117,658.474C643.552,639.942 637.671,623.191 629.475,608.222C621.279,593.253 612.904,580.066 604.349,568.662C593.656,555.832 582.251,544.07 570.134,533.377C570.847,534.09 572.095,536.407 573.876,540.327C575.657,544.247 576.548,546.564 576.548,547.277C576.548,551.553 576.905,555.651 577.618,559.572C578.331,563.493 579.401,567.234 580.827,570.797C582.966,580.064 584.036,588.618 584.036,596.459C584.749,605.013 585.462,614.458 586.175,624.794C586.888,635.13 586.531,644.218 585.105,652.059C582.253,667.028 578.689,680.394 574.413,692.155C570.137,703.916 561.939,716.925 549.82,731.182L547.681,733.321C533.425,745.438 523.98,756.487 519.346,766.467C514.712,776.447 511.682,784.288 510.257,789.99C508.831,784.288 505.801,776.447 501.168,766.467C496.535,756.487 487.09,745.438 472.833,733.321L469.624,731.182C458.22,716.926 450.201,703.917 445.567,692.155C440.933,680.393 437.903,667.028 436.478,652.059C435.052,644.218 434.518,635.129 434.875,624.794C435.232,614.459 435.767,605.014 436.478,596.459C437.191,592.183 437.548,588.085 437.548,584.164C437.548,580.243 438.261,575.789 439.687,570.8C440.4,567.235 441.47,563.493 442.896,559.575C444.322,555.657 445.035,551.559 445.035,547.28C445.748,546.567 446.105,545.854 446.105,545.141L450.383,535.518L451.453,533.379C439.336,544.072 428.287,555.834 418.307,568.664C409.04,580.068 400.129,593.255 391.575,608.224C383.021,623.193 376.962,639.944 373.399,658.476L364.846,652.062C344.888,637.093 331.879,617.49 325.819,593.254C319.759,569.018 317.086,545.496 317.799,522.687C318.512,495.601 322.433,467.445 329.561,438.219C320.294,443.921 309.067,456.217 295.882,475.107C282.697,493.997 270.222,515.204 258.458,538.727C246.694,562.25 237.428,586.308 230.66,610.9C223.892,635.492 221.932,657.055 224.779,675.589C229.055,698.399 236.183,718.002 246.163,734.397C256.143,750.792 268.439,764.335 283.051,775.026C297.663,785.717 314.236,794.092 332.77,800.152C351.304,806.212 370.907,811.023 391.578,814.586C402.271,816.012 409.043,821.18 411.893,830.089C414.743,838.998 415.634,849.334 414.565,861.096C413.496,872.858 411.358,884.62 408.151,896.381C404.944,908.142 401.914,917.587 399.062,924.716L133.898,924.716C117.503,924.716 102.533,920.974 88.99,913.491C75.447,906.008 64.755,895.137 56.914,880.878C49.073,866.619 45.153,851.294 45.152,834.901C45.151,818.508 49.072,803.539 56.914,789.993L432.208,143.118C440.049,129.575 450.92,118.883 464.821,111.042C478.722,103.201 493.869,99.281 510.262,99.28C545.189,99.28 571.207,113.893 588.315,143.118L962.539,789.993L962.53,789.999Z" style="fill-rule:nonzero;"/>
    </g>
</svg>
