<?xml version="1.0" encoding="UTF-8" standalone="no"?>
<!DOCTYPE svg PUBLIC "-//W3C//DTD SVG 1.1//EN" "http://www.w3.org/Graphics/SVG/1.1/DTD/svg11.dtd">
<svg width="100%" height="100%" viewBox="0 0 24 26" version="1.1" xmlns="http://www.w3.org/2000/svg" xmlns:xlink="http://www.w3.org/1999/xlink" xml:space="preserve" xmlns:serif="http://www.serif.com/" style="fill-rule:evenodd;clip-rule:evenodd;stroke-linejoin:round;stroke-miterlimit:2;">
    <g transform="matrix(0.03125,0,0,0.03125,-1.385875,-3.008)">
        <path d="M782.652,927.744L460.092,927.744L438.588,901.12C432.444,893.611 423.569,882.176 411.964,866.816C400.359,851.456 387.388,833.877 373.052,814.08C358.716,794.283 343.185,772.437 326.46,748.544C309.735,724.651 293.18,700.075 276.796,674.816L276.796,683.008C276.796,716.459 277.137,749.056 277.82,780.8C278.503,812.544 279.527,835.925 280.892,850.944L289.084,927.744L44.348,927.744L51.516,850.944C53.564,835.925 54.759,812.544 55.1,780.8C55.441,749.056 55.612,716.459 55.612,683.008L55.612,325.632L55.1,267.776C55.1,267.776 60.234,481.893 54.076,210.944C53.735,195.925 52.557,186.354 51.516,174.08C49.895,154.965 44.348,96.256 44.348,96.256L266.556,96.256C312.295,96.256 353.937,102.741 391.484,115.712C429.031,128.683 461.287,147.115 488.252,171.008C515.217,194.901 536.039,223.573 550.716,257.024C565.393,290.475 572.732,327.68 572.732,368.64C572.732,413.013 564.199,453.12 547.132,488.96C530.065,524.8 505.489,555.008 473.404,579.584C478.183,586.411 483.132,593.408 488.252,600.576C493.372,607.744 498.663,615.424 504.124,623.616C528.7,657.749 553.788,691.371 579.388,724.48C604.988,757.589 629.735,785.067 653.628,806.912L782.652,927.744ZM276.796,441.344C299.324,439.979 317.073,433.152 330.044,420.864C343.015,408.576 349.5,391.851 349.5,370.688C349.5,350.891 343.356,335.189 331.068,323.584C318.78,311.979 300.689,305.152 276.796,303.104L276.796,441.344Z" style="fill-rule:nonzero;"/>
    </g>
</svg>
