<?xml version="1.0" encoding="UTF-8" standalone="no"?>
<!DOCTYPE svg PUBLIC "-//W3C//DTD SVG 1.1//EN" "http://www.w3.org/Graphics/SVG/1.1/DTD/svg11.dtd">
<svg width="100%" height="100%" viewBox="0 0 32 32" version="1.1" xmlns="http://www.w3.org/2000/svg" xmlns:xlink="http://www.w3.org/1999/xlink" xml:space="preserve" xmlns:serif="http://www.serif.com/" style="fill-rule:evenodd;clip-rule:evenodd;stroke-linejoin:round;stroke-miterlimit:2;">
    <g transform="matrix(0.03125,0,0,0.03125,0,-0.000031)">
        <path d="M432.602,944.602L353.21,865.204L266.216,865.204L266.216,811.494L212.506,811.494L212.506,757.784L158.796,757.784L158.796,670.79L0,512.007L158.796,353.198L158.796,266.217L212.506,266.217L212.506,212.507L266.216,212.507L266.216,158.797L353.21,158.797L511.993,0.001L670.802,158.797L757.783,158.797L757.783,212.507L811.493,212.507L811.493,266.217L865.203,266.217L865.203,353.211L1023.999,511.994L865.203,670.803L865.203,757.784L811.493,757.784L811.493,811.494L757.783,811.494L757.783,865.204L670.802,865.204L511.993,1024L432.602,944.602ZM590.814,939.348L668.454,861.701L753.07,861.701L753.697,807.407L806.78,806.778L807.408,753.696L861.702,753.07L861.702,668.454L939.348,590.814C982.054,548.112 1016.995,512.646 1016.995,512C1016.995,511.354 982.054,475.888 939.348,433.186L861.701,355.546L861.701,270.93L807.407,270.304L806.78,217.221L753.697,216.594L753.07,162.3L668.454,162.3L590.814,84.654C548.112,41.948 512.646,7.007 512,7.007C511.354,7.007 475.888,41.948 433.186,84.654L355.546,162.3L270.93,162.3L270.303,216.594L217.22,217.221L216.593,270.304L162.299,270.93L162.299,355.546L84.652,433.186C41.946,475.888 7.005,511.354 7.005,512C7.005,512.646 41.946,548.112 84.652,590.814L162.299,668.454L162.299,753.07L216.593,753.696L217.22,806.779L270.303,807.408L270.93,861.702L355.546,861.702L433.186,939.348C475.888,982.054 511.354,1016.994 512,1016.994C512.646,1016.994 548.112,982.053 590.814,939.348ZM444.876,904.333L377.76,837.209L334.556,836.903C294.478,836.619 291.324,836.449 290.959,834.554C290.59,832.637 293.298,832.511 334.733,832.511L378.9,832.511L444.863,898.481C481.142,934.765 511.355,964.451 512.001,964.451C512.647,964.451 542.86,934.764 579.139,898.481L645.102,832.511L689.269,832.511C730.704,832.511 733.412,832.635 733.043,834.554C732.678,836.45 729.526,836.619 689.464,836.9L646.278,837.203L511.995,971.457L444.876,904.333ZM441.943,853.528L371.893,783.471L240.529,783.471L240.529,652.121L100.415,511.993L240.529,371.894L240.529,240.53L371.893,240.53L511.992,100.416L652.12,240.53L783.47,240.53L783.47,371.894L923.584,511.993L783.47,652.121L783.47,783.471L652.12,783.471L511.992,923.585L441.943,853.528ZM578.554,848.857L643.933,783.471L527.238,783.471L511.937,798.654L496.889,783.471L380.068,783.471L445.447,848.857C481.405,884.82 511.355,914.243 512.001,914.243C512.647,914.243 542.597,884.819 578.555,848.857L578.554,848.857ZM516.67,788.141L521.231,783.471L502.769,783.471L507.33,788.141C509.838,790.71 511.94,792.812 512,792.812C512.06,792.812 514.162,790.71 516.67,788.141ZM345.031,756.616L324.038,735.599L345.335,735.599C357.048,735.599 366.632,735.216 366.632,734.748C366.632,734.279 362.309,729.551 357.025,724.239L347.418,714.582L309.419,714.582L309.419,676.683L299.812,667.026C294.528,661.715 289.799,657.369 289.303,657.369C288.807,657.369 288.401,666.952 288.401,678.666L288.401,699.963L246.367,657.977L246.367,777.633L366.023,777.633L345.031,756.616ZM258.043,765.957L258.043,722.755L301.245,722.755L301.245,765.957L258.043,765.957ZM293.656,758.367L293.656,730.345L265.049,729.689L265.049,759.023L293.656,758.367ZM474.484,759.617L457.122,741.601L338.053,741.436L374.193,777.632L491.846,777.632L474.484,759.617ZM526.376,777.633L560.71,742.021L530.773,741.365L512.033,760.105L493.196,741.365L463.29,742.021L497.625,777.633L526.376,777.633ZM667.877,759.534L685.947,741.436L566.878,741.601L532.154,777.633L649.807,777.633L667.877,759.534ZM777.633,777.633L777.633,657.976L735.599,699.962L735.599,678.665C735.599,666.952 735.216,657.368 734.748,657.368C734.28,657.368 729.551,661.691 724.239,666.975L714.582,676.582L714.582,714.581L676.683,714.581L667.026,724.188C661.715,729.472 657.369,734.201 657.369,734.697C657.369,735.193 666.953,735.599 678.666,735.599L699.963,735.599L657.977,777.633L777.633,777.633ZM722.755,765.956L722.755,722.754L765.957,722.754L765.957,765.956L722.755,765.956ZM758.695,744.647L758.367,730.344L730.344,730.344L730.011,743.113C729.827,750.136 729.942,756.572 730.266,757.416C730.707,758.566 734.381,758.951 744.939,758.951L759.023,758.951L758.695,744.647ZM517.254,745.523L521.215,741.436L502.785,741.436L506.746,745.523C508.925,747.771 511.289,749.61 512,749.61C512.711,749.61 515.076,747.771 517.254,745.523ZM449.338,734.544C449.124,733.963 444.542,728.909 439.155,723.312L429.361,713.134L353.527,714.858L374.172,735.599L411.949,735.599C433.947,735.599 449.564,735.159 449.337,734.544L449.338,734.544ZM492.202,735.598L511.952,715.746L531.897,735.598L567.273,735.598L577.903,724.214C588.187,713.2 588.427,712.818 585.296,712.465C582.827,712.186 573.744,703.804 547.023,677.145L511.987,642.189L476.439,677.751C456.888,697.31 439.881,713.467 438.646,713.655C436.854,713.928 438.457,716.18 446.579,724.798L456.758,735.598L492.202,735.598ZM520.757,735.251C520.757,735.061 518.763,732.957 516.326,730.578L511.895,726.252L502.768,735.599L511.762,735.599C516.709,735.599 520.756,735.443 520.756,735.251L520.757,735.251ZM659.972,725.406C665.604,719.8 670.212,714.885 670.212,714.482C670.212,714.079 653.308,713.481 632.647,713.15L595.082,712.549L585.067,723.044C579.559,728.816 574.877,734.002 574.663,734.569C574.443,735.15 590.712,735.598 612.004,735.598L649.734,735.598L659.972,725.406ZM342.112,709.601C342.112,709.43 335.807,703.002 328.101,695.316L314.09,681.341L314.09,709.911L328.101,709.911C335.807,709.911 342.112,709.772 342.112,709.601ZM425.013,708.924C425.013,708.381 423.962,706.986 422.678,705.824C420.419,703.78 420.343,702.228 420.343,658.355L420.343,612.999L411.002,612.999L411.002,603.658L364.681,603.658C323.217,603.658 318.136,603.455 316.225,601.726C314.161,599.858 314.09,601.049 314.09,637.616L314.09,675.439L348.506,709.912L386.76,709.912C407.8,709.912 425.014,709.468 425.014,708.925L425.013,708.924ZM675.496,709.91L709.872,675.466L709.12,637.81C708.706,617.099 707.991,600.154 707.531,600.154C707.071,600.154 706.04,600.943 705.241,601.905C703.995,603.407 697.327,603.656 658.464,603.656L613.14,603.656L612.778,608.035C612.435,612.176 612.178,612.433 608.037,612.776L603.658,613.139L603.658,658.463C603.658,697.326 603.408,703.994 601.907,705.24C600.944,706.04 600.156,707.145 600.156,707.696C600.156,708.247 611.847,708.85 626.135,709.036C640.424,709.222 657.375,709.494 663.805,709.641L675.496,709.91ZM709.911,695.899C709.911,688.193 709.771,681.888 709.601,681.888C709.431,681.888 703.002,688.193 695.316,695.899L681.341,709.91L709.911,709.91L709.911,695.899ZM474.334,674.017L509.075,639.291L473.497,603.658L432.018,603.658L432.018,608.329C432.018,612.888 431.92,612.999 427.931,612.999L423.844,612.999L423.844,701.043L427.576,704.893C430.416,707.824 432.297,708.743 435.45,708.743C439.323,708.743 441.85,706.486 474.333,674.017L474.334,674.017ZM596.305,705.011L600.155,701.279L600.155,612.998L596.139,612.998C592.341,612.998 592.103,612.759 591.76,608.619L591.398,604.24L550.616,603.597L514.912,639.245L549.004,673.352C576.412,700.771 583.795,707.547 586.663,707.912C588.625,708.162 590.731,708.45 591.342,708.553C591.954,708.65 594.187,707.061 596.304,705.008L596.305,705.011ZM264.804,550.951L246.951,533.858L246.345,649.729L281.979,685.42L282.656,568.046L264.804,550.951ZM777.633,590.98L777.633,532.153L741.601,566.877L741.436,685.946L777.632,649.806L777.633,590.98ZM300.534,586.014C294.851,580.305 289.797,575.634 289.302,575.634C288.807,575.634 288.402,592.306 288.402,612.683L288.402,649.732L308.835,670.272L310.866,596.395L300.534,586.014ZM725.406,659.972L735.598,649.732L735.598,612.002C735.598,590.71 735.15,574.442 734.569,574.661C734.003,574.875 728.817,579.557 723.045,585.065L712.55,595.08L713.151,632.645C713.481,653.306 714.081,670.21 714.483,670.21C714.885,670.21 719.801,665.602 725.407,659.97L725.406,659.972ZM232.948,519.598L225.345,511.936L240.528,496.888L240.528,380.067L175.141,445.446C139.178,481.404 109.754,511.35 109.754,511.992C109.754,512.634 139.047,542.456 174.849,578.262L239.944,643.365L240.55,527.26L232.948,519.598ZM914.244,511.999C914.244,511.352 884.82,481.403 848.857,445.445L783.47,380.066L783.47,496.761L798.653,512.062L783.47,527.11L783.47,643.931L848.857,578.552C884.82,542.594 914.244,512.644 914.244,511.998L914.244,511.999ZM542.942,604.549C542.942,604.058 529.018,603.657 512,603.657C494.982,603.657 481.058,604.045 481.058,604.518C481.058,604.991 488.013,612.347 496.513,620.865L511.968,636.352L527.455,620.897C535.973,612.397 542.942,605.041 542.942,604.55L542.942,604.549ZM420.342,605.477C420.342,605.194 419.817,604.637 419.174,604.24C418.531,603.843 418.006,604.075 418.006,604.754C418.006,605.434 418.531,605.991 419.174,605.991C419.817,605.991 420.342,605.759 420.342,605.477ZM411.001,596.067C411.001,592.078 411.113,591.98 415.671,591.98L420.341,591.98L420.341,550.501L384.708,514.923L350.119,549.656C311.161,588.777 310.896,589.158 317.805,596.286L321.552,600.152L411,600.152L411.001,596.067ZM468.214,599.267C468.214,598.779 458.231,588.407 446.029,576.218L423.844,554.056L423.844,591.98L427.931,591.98C431.823,591.98 432.018,592.174 432.018,596.067L432.018,600.154L450.116,600.154C460.07,600.154 468.214,599.754 468.214,599.267ZM574.166,574.184L600.155,548.214L600.155,475.821L548.216,423.843L475.785,423.843L423.846,475.821L423.846,548.175L475.785,600.153L548.178,600.153L574.166,574.184ZM511.987,588.478L435.521,511.986L512.013,435.52L588.479,512.012L511.987,588.478ZM545.561,545.576C563.386,527.76 577.97,512.657 577.97,512.015C577.97,510.489 513.541,446.029 512.015,446.029C510.489,446.029 446.029,510.458 446.029,511.984C446.029,513.51 510.458,577.97 511.984,577.97C512.626,577.97 527.736,563.393 545.561,545.576ZM591.982,596.067C591.982,592.175 592.176,591.98 596.069,591.98L600.156,591.98L600.156,573.882C600.156,563.928 599.767,555.784 599.292,555.784C598.147,555.784 555.787,598.122 555.787,599.266C555.787,599.754 563.931,600.154 573.885,600.154L591.983,600.154L591.982,596.067ZM704.946,596.36C708.185,593.007 708.536,592.005 707.961,587.754C707.356,583.284 704.898,580.532 673.279,548.927L639.249,514.912L603.601,550.616L604.243,591.398L608.622,591.761C612.763,592.104 613.001,592.342 613.001,596.14L613.001,600.156L701.282,600.156L704.946,596.36ZM310.586,585.858C310.586,583.979 320.657,573.162 346.198,547.611L381.81,511.985L346.198,476.387C320.535,450.734 310.586,440.053 310.586,438.155C310.586,436.706 310.181,435.521 309.686,435.521C309.191,435.521 304.199,440.129 298.594,445.761L288.402,456.001L288.402,492.202L308.254,511.951L288.402,531.896L288.402,568L298.594,578.24C304.2,583.872 309.191,588.48 309.686,588.48C310.181,588.48 310.586,587.301 310.586,585.86L310.586,585.858ZM727.717,574.522L735.598,566.94L735.598,531.895L715.746,511.95L735.598,492.201L735.598,456.737L724.214,446.038C713.125,435.617 712.82,435.425 712.465,438.641C712.183,441.198 704.223,449.838 677.144,476.978L642.188,512.014L677.217,547.028C707.279,577.077 712.246,582.529 712.246,585.479L712.246,588.916L716.041,585.511C718.128,583.638 723.382,578.694 727.717,574.523L727.717,574.522ZM273.256,521.374L263.878,511.947L282.563,493.372L282.563,462.16L246.458,496.82L246.367,526.781L281.979,561.33L282.634,530.802L273.256,521.375L273.256,521.374ZM764.497,538.893L777.633,526.049L777.633,497.624L742.021,463.289L741.364,493.195L760.122,512.051L741.437,530.626L741.437,560.929L746.399,556.333C749.128,553.805 757.272,545.957 764.497,538.893ZM420.342,511.999C420.342,494.981 419.955,481.057 419.482,481.057C419.009,481.057 411.653,488.012 403.135,496.512L387.648,511.967L403.103,527.454C411.603,535.972 418.959,542.941 419.45,542.941C419.941,542.941 420.342,529.017 420.342,511.999ZM620.865,527.486L636.352,512.031L620.897,496.544C612.397,488.026 605.041,481.057 604.55,481.057C604.059,481.057 603.658,494.981 603.658,511.999C603.658,529.017 604.045,542.941 604.518,542.941C604.991,542.941 612.347,535.986 620.865,527.486ZM240.529,511.762L240.529,502.768L231.182,511.895L235.508,516.326C237.888,518.763 239.991,520.757 240.181,520.757C240.371,520.757 240.528,516.71 240.528,511.763L240.529,511.762ZM282.563,511.772L282.563,502.784L278.476,506.746C276.228,508.925 274.389,511.236 274.389,511.882C274.389,512.919 281.295,520.758 282.208,520.758C282.403,520.758 282.563,516.714 282.563,511.772ZM293.422,516.325L297.748,511.894L288.401,502.767L288.401,511.761C288.401,516.708 288.557,520.755 288.748,520.755C288.939,520.755 291.042,518.761 293.421,516.324L293.422,516.325ZM735.599,511.762L735.599,502.768L726.252,511.895L730.578,516.326C732.958,518.763 735.061,520.757 735.251,520.757C735.441,520.757 735.598,516.71 735.598,511.763L735.599,511.762ZM749.61,512C749.61,511.288 747.771,508.924 745.523,506.746L741.436,502.785L741.436,521.215L745.523,517.254C747.771,515.075 749.61,512.711 749.61,512ZM788.491,516.326L792.817,511.895L783.47,502.768L783.47,511.762C783.47,516.709 783.626,520.756 783.817,520.756C784.008,520.756 786.111,518.762 788.49,516.325L788.491,516.326ZM420.072,453.035L419.758,432.602L415.379,432.239C411.238,431.897 411,431.658 411,427.86L411,423.844L321.677,423.859L317.847,427.449C314.452,430.631 314.101,431.527 314.76,435.325C315.4,439.014 320.323,444.449 350.105,474.345L384.707,509.078L420.384,473.471L420.072,453.035ZM707.96,436.245C708.536,431.994 708.185,430.992 704.945,427.639L701.279,423.844L612.998,423.844L612.998,427.931C612.998,431.92 612.886,432.018 608.328,432.018L603.658,432.018L603.658,473.441L639.249,509.087L673.279,475.072C704.898,443.467 707.355,440.716 707.961,436.245L707.96,436.245ZM759.546,356.143L741.437,338.034L741.437,456.618L777.049,491.301L777.655,374.253L759.546,356.143ZM282.563,456.249L282.563,338.053L246.367,374.193L246.367,490.651L282.563,456.249ZM447.197,446.613L469.943,423.844L432.018,423.844L432.018,427.931C432.018,431.823 431.824,432.018 427.931,432.018L423.844,432.018L423.844,450.7C423.844,460.975 423.981,469.382 424.147,469.382C424.313,469.382 434.686,459.136 447.196,446.613L447.197,446.613ZM600.155,450.116L600.155,432.018L596.068,432.018C592.176,432.018 591.981,431.824 591.981,427.931L591.981,423.844L554.057,423.844L576.219,446.029C588.408,458.231 598.78,468.214 599.268,468.214C599.756,468.214 600.155,460.07 600.155,450.116ZM735.599,411.899L735.599,374.267L725.407,364.027C719.801,358.395 714.886,353.787 714.483,353.787C714.08,353.787 713.481,370.682 713.151,391.331L712.551,428.875L723.199,439.16C729.056,444.817 734.242,449.464 734.723,449.488C735.205,449.516 735.599,432.597 735.599,411.899ZM300.522,437.996L310.842,427.628L309.11,353.56L288.402,374.172L288.402,411.268C288.402,431.671 288.807,448.364 289.302,448.364C289.797,448.364 294.846,443.698 300.522,437.996ZM364.61,420.342L410.86,420.342L411.222,415.963C411.565,411.822 411.822,411.565 415.963,411.222L420.342,410.859L420.342,364.609C420.342,323.211 420.545,318.135 422.274,316.223C424.142,314.159 422.951,314.088 386.355,314.088L348.504,314.088L314.088,348.561L314.088,386.383C314.088,422.951 314.158,424.141 316.223,422.273C318.134,420.543 323.211,420.341 364.609,420.341L364.61,420.342ZM709.122,386.189L709.877,348.533L675.452,314.084L638.343,314.859C612.705,315.394 601.608,316.009 602.446,316.846C603.243,317.643 603.658,333.979 603.658,364.529L603.658,411L612.999,411L612.999,420.341L658.393,420.341C697.319,420.341 703.994,420.591 705.241,422.092C706.04,423.056 707.071,423.843 707.531,423.843C707.991,423.843 708.707,406.898 709.123,386.187L709.122,386.189ZM491.286,402.525L509.075,384.708L474.342,350.119C435.221,311.161 434.84,310.896 427.712,317.805L423.846,321.552L423.846,411L427.933,411C431.786,411 432.02,411.222 432.02,414.892C432.02,417.033 432.37,419.134 432.798,419.563C433.226,419.992 442.559,420.341 453.537,420.341L473.498,420.341L491.286,402.525ZM542.942,419.45C542.942,418.959 535.973,411.603 527.455,403.103L511.968,387.648L496.513,403.135C488.013,411.653 481.058,419.009 481.058,419.482C481.058,419.955 494.982,420.343 512,420.343C529.018,420.343 542.942,419.942 542.942,419.451L542.942,419.45ZM591.982,415.671C591.982,411.112 592.08,411 596.069,411L600.156,411L600.156,321.53L596.836,318.349C593.899,315.536 592.922,315.256 588.371,315.927C583.5,316.645 581.403,318.501 549.076,350.696L514.926,384.706L550.504,420.339L591.983,420.339L591.982,415.671ZM605.993,419.174C605.993,418.531 605.437,418.006 604.757,418.006C604.077,418.006 603.845,418.531 604.242,419.174C604.639,419.817 605.195,420.342 605.479,420.342C605.763,420.342 605.994,419.817 605.994,419.174L605.993,419.174ZM585.859,311.753C587.942,311.753 589.647,311.368 589.647,310.899C589.647,310.429 584.797,305.175 578.87,299.223L568.093,288.401L531.897,288.401L511.952,308.253L492.203,288.401L455.907,288.401L445.715,298.641C440.109,304.273 435.523,309.264 435.523,309.733C435.523,310.202 436.708,310.585 438.157,310.585C440.055,310.585 450.737,320.534 476.389,346.197L511.987,381.809L547.03,346.78C578.569,315.254 582.451,311.751 585.86,311.751L585.859,311.753ZM299.761,357.024L309.418,347.417L309.418,309.418L347.317,309.418L356.974,299.811C362.285,294.527 366.631,289.798 366.631,289.302C366.631,288.806 357.047,288.4 345.334,288.4L324.037,288.4L366.023,246.366L246.367,246.366L246.367,366.022L288.401,324.036L288.401,345.333C288.401,357.046 288.784,366.63 289.252,366.63C289.72,366.63 294.449,362.307 299.761,357.023L299.761,357.024ZM258.043,301.245L258.043,258.043L301.245,258.043L301.245,301.245L258.043,301.245ZM293.656,293.655L293.656,265.633L265.049,264.977L265.049,294.311L293.656,293.655ZM735.599,345.334L735.599,324.037L777.633,366.023L777.633,246.367L657.977,246.367L699.963,288.401L678.666,288.401C666.953,288.401 657.369,288.784 657.369,289.252C657.369,289.721 661.692,294.449 666.976,299.761L676.583,309.418L714.582,309.418L714.582,347.317L724.189,356.974C729.473,362.285 734.202,366.631 734.698,366.631C735.194,366.631 735.6,357.047 735.6,345.334L735.599,345.334ZM722.755,301.245L722.755,258.043L765.957,258.043L765.957,301.245L722.755,301.245ZM758.695,279.316L759.023,264.977L730.344,265.633L730.011,278.402C729.827,285.425 729.949,291.878 730.281,292.743C730.749,293.963 733.953,294.241 744.626,293.986L758.368,293.656L758.695,279.316ZM328.684,328.1L342.659,314.089L314.089,314.089L314.089,328.1C314.089,335.806 314.229,342.111 314.399,342.111C314.569,342.111 320.998,335.806 328.684,328.1ZM709.911,328.1L709.911,314.089L681.341,314.089L695.316,328.1C703.002,335.806 709.43,342.111 709.601,342.111C709.772,342.111 709.911,335.806 709.911,328.1ZM670.151,309.824C670.439,309.561 665.984,304.632 660.251,298.873L649.827,288.401L612.731,288.401C592.328,288.401 575.635,288.786 575.635,289.255C575.635,289.725 580.398,294.891 586.219,300.737L596.803,311.365L633.216,310.835C653.243,310.544 669.864,310.089 670.152,309.826L670.151,309.824ZM438.125,300.394C443.757,294.788 448.365,289.797 448.365,289.302C448.365,288.807 431.672,288.401 411.269,288.401L374.173,288.401L353.312,309.359L373.108,309.711C383.996,309.904 400.775,310.18 410.395,310.325L427.886,310.587L438.125,300.394ZM516.67,293.072L521.231,288.401L502.769,288.401L507.33,293.072C509.838,295.641 511.94,297.742 512,297.742C512.06,297.742 514.162,295.64 516.67,293.072ZM473.413,264.465L490.621,246.367L374.193,246.367L338.053,282.563L456.204,282.563L473.413,264.465ZM502.661,273.221L512.052,263.879L530.627,282.564L561.867,282.564L527.179,246.494L496.821,246.466L462.161,282.571L493.269,282.571L502.661,273.221ZM517.254,278.477C515.075,276.229 512.711,274.39 512,274.39C511.289,274.39 508.924,276.229 506.746,278.477L502.785,282.564L521.215,282.564L517.254,278.477ZM667.877,264.465L649.807,246.367L533.349,246.367L567.751,282.563L685.946,282.563L667.877,264.465ZM504.413,232.937L512.063,225.345L527.111,240.528L643.932,240.528L578.553,175.141C542.595,139.178 512.645,109.755 511.999,109.755C511.353,109.755 481.403,139.179 445.445,175.141L380.066,240.528L496.761,240.528L504.413,232.937ZM520.757,240.182C520.757,239.992 518.763,237.888 516.326,235.509L511.895,231.183L502.768,240.53L511.762,240.53C516.709,240.53 520.756,240.374 520.756,240.182L520.757,240.182ZM187.597,732.485C187.169,732.056 186.819,712.483 186.819,688.987L186.819,646.268L52.543,512.007L186.797,377.724L187.1,334.538C187.381,294.476 187.551,291.323 189.446,290.959C191.363,290.591 191.489,293.298 191.489,334.733L191.489,378.9L125.519,444.863C89.235,481.142 59.549,511.355 59.549,512.001C59.549,512.647 89.236,542.859 125.519,579.139L191.489,645.102L191.489,689.183C191.489,725.139 191.202,733.264 189.932,733.264C189.076,733.264 188.025,732.914 187.597,732.486L187.597,732.485ZM832.511,689.268L832.511,645.101L898.481,579.138C934.765,542.859 964.451,512.646 964.451,512C964.451,511.354 934.764,481.141 898.481,444.862L832.511,378.899L832.511,334.732C832.511,293.297 832.638,290.589 834.554,290.958C836.449,291.323 836.619,294.477 836.903,334.555L837.209,377.759L971.457,511.992L837.203,646.275L836.9,689.461C836.619,729.523 836.449,732.676 834.554,733.04C832.637,733.408 832.511,730.702 832.511,689.266L832.511,689.268ZM290.959,189.446C291.324,187.55 294.476,187.381 334.538,187.1L377.724,186.797L512.007,52.543L646.24,186.791L689.444,187.097C729.522,187.381 732.676,187.551 733.041,189.446C733.41,191.363 730.702,191.489 689.267,191.489L645.1,191.489L579.137,125.519C542.858,89.235 512.645,59.549 511.999,59.549C511.353,59.549 481.14,89.236 444.861,125.519L378.898,191.489L334.731,191.489C293.296,191.489 290.588,191.365 290.957,189.446L290.959,189.446Z" style="fill-rule:nonzero;"/>
    </g>
</svg>
