<?xml version="1.0" encoding="UTF-8" standalone="no"?>
<!DOCTYPE svg PUBLIC "-//W3C//DTD SVG 1.1//EN" "http://www.w3.org/Graphics/SVG/1.1/DTD/svg11.dtd">
<svg width="100%" height="100%" viewBox="0 0 30 32" version="1.1" xmlns="http://www.w3.org/2000/svg" xmlns:xlink="http://www.w3.org/1999/xlink" xml:space="preserve" xmlns:serif="http://www.serif.com/" style="fill-rule:evenodd;clip-rule:evenodd;stroke-linejoin:round;stroke-miterlimit:2;">
    <g transform="matrix(0.03125,0,0,0.03125,0,-0.000031)">
        <path d="M385.989,973.55L297.972,922.716L236.323,922.597L206.127,869.811L30.615,768.532L30.615,566.152L15.308,539.641C6.889,525.06 -0,512.553 -0,511.85C-0,511.147 6.888,498.64 15.308,484.059L30.615,457.548L30.62,255.188L206.127,153.877L236.323,101.103L297.698,101.073L385.273,50.537C433.439,22.742 473.428,0.001 474.137,0.001C474.846,0.001 514.82,22.742 562.97,50.537L650.514,101.073L711.904,101.103L742.1,153.889L917.612,255.168L917.612,457.548L932.919,484.059C941.338,498.64 948.226,511.147 948.226,511.85C948.226,512.553 941.338,525.06 932.919,539.641L917.612,566.153L917.612,768.52L742.1,869.834L711.904,922.597L650.516,922.627L562.944,973.131C514.779,1000.908 475.065,1023.799 474.689,1023.999C474.313,1024.199 434.399,1001.488 385.989,973.529L385.989,973.55ZM564.071,967.129L646.48,919.503L708.934,918.246L738.68,866.662L913.208,765.714L914.465,562.19L928.791,537.656C936.67,524.162 943.108,512.556 943.098,511.864C943.086,511.172 936.641,499.566 928.772,486.072L914.465,461.538L913.208,258.006L738.668,157.066L708.933,105.482L646.479,104.225L560.925,54.689C513.87,27.444 474.804,5.157 474.113,5.161C473.422,5.165 434.355,27.456 387.301,54.697L301.747,104.226L239.294,105.483L209.559,157.067L35.019,258.007L33.762,461.539L19.455,486.073C11.586,499.567 5.14,511.173 5.129,511.865C5.118,512.557 11.556,524.163 19.436,537.657L33.762,562.191L35.019,765.723L209.559,866.663L239.296,918.247L300.489,918.928L474.114,1019.26L477.888,1017.009C479.964,1015.771 518.746,993.327 564.071,967.132L564.071,967.129ZM457.128,973.744C448.478,968.687 418.204,951.158 389.853,934.792L338.305,905.035L353.356,905.035L413.515,939.732C446.603,958.815 474.339,974.168 475.152,973.848C475.965,973.528 503.233,957.914 535.749,939.151L594.869,905.035L602.431,905.08C608.722,905.11 609.57,905.358 607.477,906.545C606.094,907.33 575.694,924.864 539.924,945.509C504.154,966.154 474.43,983.024 473.871,982.996C473.312,982.966 465.778,978.808 457.128,973.751L457.128,973.744ZM432.803,911.9L392.751,888.678L256.454,888.619L188.681,770.916L107.993,724.37L106.736,628.873L73.081,570.718C54.57,538.733 39.425,512.249 39.425,511.865C39.425,511.481 54.57,484.997 73.081,453.012L106.736,394.857L107.993,299.36L188.648,252.833L256.454,135.126L392.754,135.037L433.055,111.761C455.221,98.959 473.697,88.485 474.113,88.485C474.529,88.485 493.005,98.959 515.171,111.761L555.473,135.037L691.773,135.096L759.546,252.801L840.234,299.347L841.491,394.844L875.147,452.999C893.657,484.984 908.802,511.468 908.802,511.852C908.802,512.236 893.657,538.72 875.147,570.705L841.491,628.86L840.234,724.357L759.546,770.903L691.773,888.608L555.48,888.667L515.205,911.943C493.054,924.745 474.463,935.195 473.892,935.165C473.321,935.135 454.831,924.661 432.802,911.889L432.803,911.9ZM510.447,909.438L545.318,889.308L509.312,888.974C489.509,888.791 457.475,888.791 438.126,888.974L402.946,889.308L437.901,909.652C457.126,920.841 473.468,929.9 474.216,929.782C474.965,929.663 491.268,920.509 510.447,909.438ZM377.865,880.616C377.865,879.782 323.032,848.418 321.575,848.418C320.135,848.418 268.555,877.988 266.582,879.944C265.833,880.686 286.422,881.13 321.626,881.13C352.558,881.13 377.865,880.898 377.865,880.617L377.865,880.616ZM589.827,863.599C606.414,853.987 620.124,845.648 620.292,845.068C620.727,843.569 477.156,761.02 474.114,761.02C471.072,761.02 327.5,843.569 327.936,845.068C328.104,845.648 341.814,853.986 358.401,863.599L388.56,881.076L559.669,881.076L589.827,863.599ZM450.838,849.506C450.838,848.247 473.406,808.157 474.114,808.157C474.822,808.157 497.39,848.248 497.39,849.506C497.39,850.519 490.637,850.934 474.114,850.934C457.591,850.934 450.838,850.519 450.838,849.506ZM484.808,842.596C484.808,841.547 474.694,823.254 474.114,823.254C473.534,823.254 463.42,841.546 463.42,842.596C463.42,843.03 468.232,843.385 474.114,843.385C479.996,843.385 484.808,843.03 484.808,842.596ZM683.491,880.653C681.689,879.015 627.744,848.418 626.658,848.418C625.196,848.418 570.362,879.781 570.362,880.616C570.362,880.898 595.934,881.129 627.188,881.129C658.442,881.129 683.779,880.915 683.49,880.652L683.491,880.653ZM258.677,811.773C257.044,810.154 203.638,779.431 203.197,779.857C202.97,780.077 215.425,802.133 230.876,828.869L258.969,877.481L259.305,845.105C259.489,827.298 259.201,812.299 258.676,811.772L258.677,811.773ZM718.711,826.606C733.416,801.116 745.26,780.086 745.032,779.872C744.804,779.658 732.16,786.703 716.937,795.528L689.258,811.573L688.922,844.775C688.637,872.942 688.848,877.596 690.28,875.464C691.212,874.082 704.006,852.096 718.711,826.606ZM292.311,859.343C304.421,852.409 314.829,846.302 315.44,845.773C316.051,845.244 314.636,843.647 312.295,842.225L308.038,839.639L306.781,800.851L274.366,819.788L270.086,817.747C267.732,816.625 265.542,815.706 265.22,815.706C264.898,815.706 264.633,829.031 264.633,845.317L264.633,874.928L267.464,873.44C269.021,872.621 280.203,866.278 292.312,859.344L292.311,859.343ZM683.146,816.095C682.873,815.822 680.672,816.541 678.256,817.693L673.863,819.788L641.448,800.851L640.191,839.639L635.96,842.209C633.633,843.622 632.037,845.087 632.414,845.464C632.791,845.841 644.319,852.601 658.033,860.487L682.968,874.825L683.307,845.709C683.493,829.695 683.426,816.369 683.148,816.095L683.146,816.095ZM358.67,820.98C377.522,810.121 392.809,800.814 392.64,800.298C392.471,799.782 383.019,794.009 371.636,787.471L350.939,775.583L343.888,779.603C340.01,781.814 331.36,786.737 324.665,790.543L312.493,797.463L312.433,836.847L316.522,839.472C318.771,840.915 321.46,841.788 322.498,841.41C323.536,841.032 339.81,831.839 358.662,820.98L358.67,820.98ZM631.548,839.508L635.785,836.889L635.725,797.463L623.553,790.543C616.858,786.737 608.208,781.814 604.33,779.603L597.279,775.583L576.582,787.471C565.199,794.009 555.746,799.781 555.576,800.298C555.319,801.078 625.205,842.127 626.79,842.127C627.072,842.127 629.21,840.949 631.541,839.508L631.548,839.508ZM290.706,804.919L307.465,795.391L306.781,750.011L287.28,738.705C276.554,732.487 267.071,727.108 266.206,726.753C264.967,726.243 264.633,734.908 264.633,767.637L264.633,809.167L268.722,811.786C270.971,813.226 273.067,814.414 273.38,814.426C273.693,814.438 281.49,810.16 290.708,804.919L290.706,804.919ZM679.358,811.828L683.595,809.209L683.595,767.658C683.595,734.912 683.262,726.244 682.022,726.753C681.157,727.108 671.674,732.487 660.948,738.705L641.447,750.011L640.763,795.377L657.462,804.903C666.646,810.143 674.377,814.433 674.641,814.438C674.905,814.443 677.028,813.269 679.359,811.828L679.358,811.828ZM259.293,720.566L258.969,635.491L186.198,593.492C146.174,570.393 112.912,551.493 112.282,551.493C111.621,551.493 111.136,566.309 111.136,586.524L111.136,621.555L196.598,769.782L227.155,787.691C243.961,797.541 258.14,805.609 258.664,805.62C259.189,805.632 259.471,767.356 259.293,720.565L259.293,720.566ZM180.964,681.479C174.736,670.645 169.452,661.312 169.221,660.738C168.99,660.164 179.842,659.695 193.336,659.695L217.871,659.695L206.021,680.14C199.504,691.385 193.747,700.718 193.229,700.881C192.711,701.044 187.191,692.313 180.964,681.479ZM199.061,677.115C201.927,672.164 204.053,667.895 203.786,667.628C203.519,667.361 198.483,667.306 192.596,667.509L181.892,667.875L187.09,676.982C189.949,681.991 192.64,686.096 193.069,686.104C193.498,686.112 196.195,682.068 199.061,677.117L199.061,677.115ZM720.721,788.021L751.148,770.401L837.09,621.53L837.09,586.512C837.09,566.305 836.606,551.494 835.944,551.494C835.314,551.494 802.052,570.393 762.028,593.493L689.257,635.492L688.935,720.567C688.757,767.358 688.994,805.642 689.454,805.642C689.916,805.642 703.988,797.713 720.723,788.022L720.721,788.021ZM742.381,680.454L730.369,659.695L754.897,659.695C768.387,659.695 779.236,660.165 779.006,660.738C777.652,664.106 755.806,701.183 755.167,701.197C754.742,701.205 748.988,691.872 742.382,680.455L742.381,680.454ZM761.138,676.98L766.336,667.872L755.632,667.506C749.745,667.305 744.709,667.357 744.442,667.625C743.797,668.268 754.152,686.117 755.159,686.099C755.588,686.091 758.279,681.986 761.138,676.977L761.138,676.98ZM434.551,777.153C461.777,761.432 468.299,757.17 466.97,755.965C464.628,753.843 427.451,732.661 426.131,732.697C425.534,732.712 419.384,735.995 412.464,739.99L399.882,747.253L399.54,772.043C399.353,785.677 399.481,796.833 399.833,796.833C400.182,796.833 415.804,787.977 434.55,777.153L434.551,777.153ZM548.685,772.043L548.343,747.253L535.761,739.99C528.841,735.995 522.613,732.732 521.921,732.738C519.49,732.768 480.676,755.965 480.996,757.205C481.305,758.403 546.043,796.581 548.055,796.751C548.588,796.796 548.872,785.678 548.684,772.043L548.685,772.043ZM329.864,782.365C338.271,777.521 345.151,773.264 345.151,772.904C345.152,772.207 314.325,754.056 313.141,754.056C312.756,754.056 312.441,762.596 312.441,773.033C312.441,783.47 312.922,791.821 313.509,791.591C314.096,791.361 321.456,787.208 329.864,782.365ZM635.786,772.928C635.786,762.548 635.471,754.056 635.086,754.056C633.897,754.056 603.074,772.209 603.084,772.904C603.096,773.631 633.349,791.534 634.843,791.698C635.362,791.757 635.787,783.309 635.787,772.929L635.786,772.928ZM391.241,753.173C390.948,752.88 383.556,756.717 374.814,761.699C366.072,766.681 359.243,771.081 359.639,771.477C360.034,771.872 367.27,776.191 375.717,781.072L391.075,789.947L391.424,771.826C391.616,761.859 391.528,753.465 391.241,753.172L391.241,753.173ZM588.354,771.691C589.183,770.948 559.212,752.798 557.158,752.798C556.809,752.798 556.522,761.247 556.522,771.572L556.522,790.346L571.934,781.469C580.411,776.587 587.799,772.186 588.353,771.69L588.354,771.691ZM373.035,757.432L391.076,746.968L391.694,711.908L367.479,698.068C354.161,690.456 342.415,684.228 341.377,684.228C340.339,684.228 333.413,687.625 325.986,691.777L312.482,699.326L312.452,744.619L332.263,756.152C343.159,762.495 352.731,767.732 353.535,767.79C354.337,767.849 363.114,763.186 373.036,757.431L373.035,757.432ZM615.549,756.258L635.774,744.62L635.744,699.327L622.24,691.778C614.813,687.626 607.887,684.229 606.849,684.229C605.811,684.229 594.065,690.457 580.747,698.069L556.532,711.909L557.15,746.975L574.764,757.328C584.452,763.022 593.041,767.729 593.85,767.789C594.659,767.849 604.424,762.66 615.547,756.26L615.549,756.258ZM181.459,758.774C178.102,752.355 113.202,640.098 112.212,638.998C111.615,638.334 111.136,656.255 111.136,679.341L111.136,720.879L146.05,741.14C165.253,752.283 181.408,761.447 181.952,761.503C182.496,761.562 182.274,760.332 181.46,758.775L181.459,758.774ZM802.335,740.937L837.09,720.898L837.09,679.351C837.09,656.151 836.613,638.331 836.011,638.999C835.027,640.088 770.346,751.999 766.699,758.921C765.837,760.558 765.683,761.69 766.356,761.437C767.029,761.184 783.221,751.959 802.335,740.938L802.335,740.937ZM494.623,742.623C505.486,736.335 514.875,730.711 515.486,730.125C516.113,729.525 514.742,727.931 512.341,726.471L508.084,723.883L506.827,574.8L491.1,565.685C482.45,560.672 474.807,556.57 474.115,556.57C473.423,556.57 465.78,560.672 457.13,565.685L441.403,574.8L440.146,723.883L435.889,726.471C433.49,727.93 432.117,729.524 432.744,730.124C434.378,731.688 472.683,753.923 473.866,753.995C474.42,754.025 483.762,748.911 494.625,742.623L494.623,742.623ZM307.408,722.038L307.408,702.601L291.367,711.823C282.544,716.895 275.326,721.505 275.326,722.066C275.326,722.852 305.668,741.37 307.094,741.455C307.266,741.467 307.409,732.727 307.409,722.037L307.408,722.038ZM410.635,735.703C416.139,732.529 420.642,729.712 420.642,729.443C420.642,728.756 401.405,717.57 400.223,717.57C399.69,717.57 399.253,722.949 399.253,729.522C399.253,736.095 399.562,741.474 399.941,741.474C400.32,741.474 405.132,738.877 410.635,735.702L410.635,735.703ZM548.973,729.522C548.973,722.948 548.536,717.57 548.003,717.57C546.01,717.57 527.391,729.119 528.154,729.882C529.436,731.164 546.996,741.356 548.03,741.418C548.549,741.448 548.974,736.096 548.974,729.522L548.973,729.522ZM664.094,728.214C668.938,725.36 672.772,722.504 672.614,721.869C672.456,721.234 665.238,716.639 656.573,711.657L640.819,702.6L640.819,741.658L648.053,737.53C652.032,735.26 659.251,731.067 664.094,728.213L664.094,728.214ZM431.502,723.758L435.739,721.139L435.739,578.055L406.487,594.95C390.398,604.242 362.652,620.205 344.828,630.423L312.421,649.001L312.745,655.211C313.102,662.061 311.68,660.781 331.383,671.983L338.374,675.958L398.622,641.145L399.879,711.554L412.461,718.908C419.381,722.952 425.542,726.288 426.152,726.32C426.763,726.35 429.169,725.2 431.499,723.759L431.502,723.758ZM535.763,718.907L548.345,711.553L549.602,641.144L609.85,675.957L616.841,671.982C636.544,660.78 635.122,662.059 635.48,655.21L635.804,649L599.643,628.241C579.755,616.823 552.008,600.862 537.984,592.771L512.486,578.06L512.486,721.098L516.575,723.717C518.824,725.157 521.23,726.319 521.922,726.299C522.614,726.284 528.842,722.953 535.762,718.908L535.763,718.907ZM286.649,705.826L306.779,694.132L306.779,663.22L287.278,651.88C276.552,645.643 267.069,640.26 266.204,639.917C264.966,639.427 264.631,647.629 264.631,678.432C264.631,699.958 265.056,717.558 265.575,717.544C266.094,717.529 275.577,712.257 286.649,705.826ZM683.596,678.432C683.596,647.629 683.262,639.427 682.023,639.917C681.158,640.259 671.675,645.643 660.949,651.88L641.448,663.22L641.448,694.132L661.578,705.826C672.65,712.257 682.133,717.531 682.652,717.544C683.171,717.559 683.596,699.957 683.596,678.432ZM391.705,680.454C391.705,666.268 391.403,654.662 391.035,654.662C389.55,654.662 346.354,680.186 346.905,680.738C347.976,681.809 389.794,706.03 390.761,706.139C391.28,706.198 391.705,694.64 391.705,680.454ZM578.764,694.09C590.404,687.404 600.388,681.538 600.949,681.054C601.799,680.323 559.255,654.662 557.192,654.662C556.823,654.662 556.522,666.268 556.522,680.454C556.522,694.64 556.764,706.246 557.06,706.246C557.356,706.246 567.123,700.776 578.763,694.089L578.764,694.09ZM332.558,678.584C332.543,677.903 314.263,667.244 313.111,667.244C312.742,667.244 312.441,672.584 312.441,679.111L312.441,690.978L322.506,685.104C328.042,681.874 332.565,678.94 332.558,678.584ZM635.325,667.621C634.689,666.985 615.69,677.588 615.669,678.591C615.661,678.951 620.043,681.797 625.406,684.917L635.157,690.59L635.521,679.385C635.722,673.223 635.64,667.928 635.325,667.62L635.325,667.621ZM307.464,651.831L307.523,646.484L435.115,573.085L435.115,533.376L419.388,524.257C410.738,519.242 403.202,515.109 402.641,515.073C402.081,515.043 373.156,531.426 338.366,551.494C303.576,571.562 274.31,587.962 273.333,587.94C272.355,587.91 270.456,587.069 269.113,586.053C267.77,585.037 266.201,584.206 265.626,584.206C265.051,584.206 264.736,595.387 264.923,609.052L265.265,633.898L285.395,645.513C296.467,651.901 305.95,657.139 306.469,657.153C306.988,657.168 307.438,654.772 307.468,651.831L307.464,651.831ZM663.656,645.006L684.854,632.834L684.854,608.52C684.854,582.778 684.627,581.887 679.118,586.053C677.775,587.069 675.876,587.918 674.898,587.94C673.92,587.97 644.655,571.561 609.865,551.494C575.075,531.427 546.15,515.037 545.59,515.073C545.03,515.103 537.493,519.242 528.844,524.257L513.117,533.376L513.117,573.096L640.721,646.485L640.766,651.832C640.796,654.773 641.184,657.179 641.635,657.179C642.085,657.179 651.994,651.701 663.653,645.007L663.656,645.006ZM259.599,605.081L259.599,580.663L233.156,565.207L211.803,577.499C200.059,584.259 190.919,590.26 191.493,590.834C192.969,592.31 257.51,629.44 258.656,629.473C259.175,629.488 259.6,618.511 259.6,605.081L259.599,605.081ZM722.492,611.064C740.196,600.925 755.383,591.993 756.241,591.216C757.433,590.136 752.759,586.9 736.436,577.504L715.071,565.206L688.628,580.662L688.628,605.08C688.628,618.51 689.005,629.498 689.466,629.498C689.927,629.498 704.789,621.202 722.492,611.063L722.492,611.064ZM107.362,580.554L107.362,547.965L81.255,532.925C66.896,524.653 53.9,517.231 52.374,516.432C49.624,514.992 51.644,518.652 93.409,590.811C100.518,603.094 106.566,613.143 106.849,613.143C107.132,613.143 107.363,598.478 107.363,580.554L107.362,580.554ZM869.165,565.962C883.508,541.051 896.07,519.353 897.08,517.746C898.864,514.909 898.832,514.868 895.998,516.354C894.392,517.197 881.33,524.653 866.971,532.925L840.864,547.965L840.864,580.805C840.864,599.874 841.331,613.144 841.976,612.45C842.587,611.793 854.822,590.873 869.165,565.961L869.165,565.962ZM184.11,561.819L184.11,536.916L165.552,526.276C155.345,520.424 146.406,515.476 145.687,515.281C144.968,515.086 136.9,519.246 127.758,524.527L111.136,534.128L111.136,544.827L147.308,565.751C167.202,577.259 183.621,586.685 183.794,586.698C183.966,586.71 184.109,575.515 184.109,561.819L184.11,561.819ZM804.693,563.513L837.09,544.821L837.09,534.128L820.469,524.527C811.327,519.246 803.259,515.086 802.54,515.281C801.821,515.476 792.882,520.425 782.675,526.276L764.117,536.916L764.117,586.971L768.206,584.588C770.455,583.277 786.874,573.794 804.692,563.513L804.693,563.513ZM336.183,547.495C368.963,528.532 395.856,512.54 395.945,511.958C396.034,511.376 368.654,495.048 335.1,475.675L274.092,440.451L265.26,445.18L264.559,476.673L294.79,494.07C311.417,503.639 325.021,511.645 325.021,511.861C325.021,512.077 311.433,520.074 294.825,529.632L264.629,547.009L264.629,578.716L268.718,580.783C270.967,581.92 273.656,582.652 274.694,582.411C275.732,582.17 303.401,566.458 336.181,547.495L336.183,547.495ZM679.91,580.386L684.931,577.825L684.579,562.618L684.225,547.411L654.492,530.266C638.139,520.836 624.791,512.555 624.83,511.863C624.875,511.171 638.25,502.882 654.563,493.444L684.225,476.283L684.929,446.199L674.116,440.463L613.373,475.534C579.964,494.823 552.515,511.105 552.375,511.716C552.142,512.731 671.604,582.674 673.896,582.866C674.443,582.911 677.149,581.796 679.911,580.387L679.91,580.386ZM212.103,568.565C218.85,564.631 224.37,561.18 224.37,560.897C224.37,560.614 218.85,557.171 212.103,553.245C205.356,549.32 197.996,545.009 195.747,543.665L191.658,541.222L191.658,580.635L195.747,578.176C197.996,576.824 205.356,572.498 212.103,568.564L212.103,568.565ZM756.306,551.666L755.939,541.653L740.375,550.716C731.815,555.701 724.886,560.321 724.979,560.983C725.068,561.646 732.075,566.24 740.543,571.193L755.939,580.198L756.306,570.938C756.508,565.845 756.508,557.172 756.306,551.665L756.306,551.666ZM259.599,562.096L259.599,550.051L252.365,554.159C248.386,556.419 243.512,559.237 241.533,560.423L237.936,562.579L240.904,564.449C246.728,568.119 257.728,574.117 258.655,574.128C259.174,574.136 259.599,568.72 259.599,562.095L259.599,562.096ZM698.573,569.556C703.137,567.035 707.595,564.405 708.478,563.712C710.207,562.355 709.937,562.151 695.863,554.158L688.629,550.05L688.629,562.095C688.629,568.72 688.999,574.14 689.452,574.14C689.905,574.14 694.009,572.077 698.574,569.556L698.573,569.556ZM457.54,560.122C465.963,555.18 473.422,551.136 474.114,551.136C474.806,551.136 482.264,555.18 490.687,560.122C499.11,565.064 506.314,569.108 506.696,569.108C507.078,569.108 507.546,560.56 507.736,550.113L508.084,531.118L523.48,522.119C531.948,517.17 538.872,512.554 538.867,511.862C538.863,511.17 531.934,506.575 523.471,501.65L508.084,492.697L507.736,473.656C507.544,463.184 507.076,454.616 506.696,454.616C506.314,454.616 499.111,458.66 490.687,463.602C482.263,468.544 474.805,472.588 474.114,472.588C473.422,472.588 465.964,468.544 457.54,463.602C449.116,458.66 441.913,454.616 441.531,454.616C441.149,454.616 440.681,463.184 440.491,473.656L440.143,492.697L424.416,501.848C415.766,506.881 408.689,511.389 408.689,511.866C408.689,512.343 415.766,516.869 424.416,521.925L440.143,531.117L440.491,550.112C440.683,560.559 441.151,569.107 441.531,569.107C441.913,569.107 449.116,565.063 457.54,560.121L457.54,560.122ZM245.173,549.502L259.599,541.219L259.599,482.506L245.173,474.223C237.239,469.667 230.419,465.94 230.018,465.94C229.617,465.94 220.822,470.823 210.473,476.791L191.658,487.642L191.658,536.079L210.216,546.869C220.423,552.804 229.218,557.687 229.761,557.722C230.303,557.752 237.239,554.057 245.173,549.501L245.173,549.502ZM737.753,546.933L756.568,536.082L756.568,487.642L737.753,476.791C727.405,470.823 718.61,465.94 718.208,465.94C717.806,465.94 710.987,469.667 703.053,474.223L688.627,482.506L688.627,541.216L702.781,549.435C710.566,553.955 717.386,557.683 717.936,557.719C718.486,557.749 727.404,552.902 737.752,546.933L737.753,546.933ZM107.39,536.081L107.42,530.734L123.749,521.46C132.73,516.359 140.078,512.04 140.078,511.862C140.078,511.684 132.73,507.365 123.749,502.264L107.42,492.99L107.39,487.643C107.375,484.702 106.885,482.296 106.301,482.296C104.58,482.296 56.229,510.502 55.905,511.695C55.588,512.86 103.142,541.081 105.79,541.299C106.818,541.388 107.372,539.577 107.39,536.082L107.39,536.081ZM867.801,527.104C881.449,519.225 892.482,512.29 892.32,511.692C891.998,510.5 843.645,482.296 841.925,482.296C841.341,482.296 840.852,484.702 840.836,487.643L840.806,492.99L824.477,502.264C815.496,507.365 808.148,511.684 808.148,511.862C808.148,512.04 815.496,516.359 824.477,521.46L840.806,530.734L840.836,536.081C840.851,539.022 841.341,541.428 841.925,541.428C842.509,541.428 854.153,534.982 867.8,527.104L867.801,527.104ZM287.861,524.886C300.068,517.864 309.601,511.718 309.046,511.229C307.728,510.067 265.881,486.07 265.173,486.07C264.874,486.07 264.631,497.676 264.631,511.862C264.631,526.048 264.864,537.654 265.15,537.654C265.435,537.654 275.655,531.909 287.862,524.886L287.861,524.886ZM684.854,511.862C684.854,497.016 684.364,486.07 683.698,486.07C681.896,486.07 639.985,510.467 639.667,511.701C639.361,512.887 680.684,537.376 683.282,537.549C684.493,537.623 684.855,531.712 684.855,511.862L684.854,511.862ZM183.847,502.506L183.481,492.402L167.361,501.68C158.495,506.783 151.241,511.365 151.241,511.861C151.241,512.357 158.495,516.939 167.361,522.042L183.481,531.321L183.847,521.965C184.049,516.819 184.049,508.062 183.847,502.505L183.847,502.506ZM784.248,520.13C791.514,515.916 797.35,512.132 797.218,511.723C796.997,511.038 775.63,498.344 767.578,494.114L764.118,492.296L764.118,531.428L767.578,529.61C769.481,528.61 776.983,524.344 784.248,520.13ZM81.256,490.799L107.363,475.758L107.363,442.918C107.363,423.849 106.896,410.579 106.251,411.273C105.64,411.93 93.405,432.85 79.062,457.762C64.719,482.674 52.157,504.371 51.147,505.978C49.363,508.815 49.395,508.856 52.229,507.37C53.835,506.527 66.897,499.071 81.256,490.799ZM165.552,497.448L184.11,486.808L184.11,436.753L180.021,439.152C177.772,440.472 161.353,449.952 143.535,460.219L111.138,478.887L111.138,489.607L127.179,499.056C136.002,504.253 144.07,508.411 145.108,508.296C146.147,508.177 155.346,503.299 165.553,497.447L165.552,497.448ZM419.384,499.474L435.111,490.299L435.111,450.629L307.507,377.24L307.462,371.893C307.432,368.952 306.988,366.555 306.469,366.566C305.95,366.578 296.467,371.838 285.395,378.257L265.265,389.928L264.923,414.723C264.736,428.36 265.057,439.518 265.626,439.518C266.2,439.518 267.769,438.687 269.112,437.671C270.455,436.655 272.404,435.815 273.441,435.805C274.48,435.793 303.637,452.174 338.236,472.204C372.835,492.234 401.71,508.628 402.402,508.636C403.094,508.644 410.737,504.521 419.387,499.475L419.384,499.474ZM609.886,472.23C644.645,452.162 673.892,435.761 674.88,435.784C675.868,435.814 677.775,436.655 679.118,437.671C684.625,441.836 684.854,440.943 684.854,415.25L684.854,390.982L663.671,378.764C652.02,372.044 642.112,366.546 641.653,366.546C641.194,366.546 640.797,368.952 640.769,371.893L640.724,377.24L513.12,450.629L513.12,490.299L528.847,499.474C537.497,504.52 545.051,508.664 545.633,508.683C546.216,508.698 575.131,492.298 609.89,472.23L609.886,472.23ZM820.54,499.156L837.09,489.596L837.09,478.888L804.693,460.22C786.874,449.953 770.456,440.472 768.207,439.153L764.118,436.754L764.118,486.765L782.676,497.605C792.883,503.567 801.854,508.506 802.612,508.581C803.37,508.656 811.438,504.415 820.541,499.157L820.54,499.156ZM897.02,505.886C896.042,504.329 883.508,482.673 869.165,457.762C854.822,432.851 842.587,411.931 841.976,411.273C841.331,410.579 840.864,423.856 840.864,442.934L840.864,475.79L869.465,492.253C885.195,501.308 898.23,508.716 898.432,508.716C898.634,508.716 897.998,507.442 897.02,505.885L897.02,505.886ZM212.236,470.4C219.056,466.432 224.151,462.717 223.559,462.146C222.967,461.575 217.387,458.182 211.159,454.608C204.931,451.034 197.996,446.979 195.747,445.598L191.658,443.087L191.658,482.5L195.747,480.057C197.996,478.714 205.416,474.368 212.235,470.399L212.236,470.4ZM756.306,453.58L755.939,443.617L740.396,452.667C731.847,457.645 724.885,462.243 724.923,462.885C724.968,463.527 731.956,468.107 740.466,473.062L755.939,482.072L756.306,472.807C756.508,467.711 756.508,459.059 756.306,453.58ZM259.084,449.907C258.497,449.32 243.128,457.359 239.718,460.036C238.486,461.003 240.662,462.81 248.525,467.345L258.969,473.368L259.333,461.944C259.534,455.661 259.422,450.244 259.083,449.907L259.084,449.907ZM706.591,463.364C709.271,461.759 709.711,460.978 708.478,460.012C706.19,458.218 690.437,449.584 689.451,449.584C688.998,449.584 688.628,455.004 688.628,461.629L688.628,473.674L695.862,469.566C699.841,467.307 704.668,464.516 706.59,463.365L706.591,463.364ZM186.241,430.239L258.969,388.248L259.293,303.166C259.47,256.371 259.263,218.084 258.831,218.084C258.399,218.084 244.341,226.002 227.592,235.68L197.138,253.276L111.137,402.177L111.137,437.204C111.137,458.343 111.608,472.231 112.326,472.231C112.98,472.231 146.242,453.335 186.242,430.24L186.241,430.239ZM169.221,363.054C171.423,357.936 192.513,322.608 193.229,322.837C193.748,323.003 199.504,332.339 206.021,343.583L217.871,364.028L193.336,364.028C179.842,364.028 168.99,363.59 169.221,363.053L169.221,363.054ZM204.03,355.537C202.12,351.24 193.765,337.608 193.041,337.608C192.537,337.608 191.204,339.448 190.08,341.697C188.956,343.946 186.554,348.192 184.743,351.133L181.45,356.48L192.949,356.48C199.274,356.48 204.26,356.055 204.029,355.536L204.03,355.537ZM837.09,437.203L837.09,402.176L751.089,253.275L720.635,235.679C703.885,226.001 689.828,218.083 689.396,218.083C688.964,218.083 688.756,256.37 688.934,303.166L689.256,388.249L761.6,430.144C801.389,453.186 834.651,472.082 835.516,472.135C836.739,472.209 837.089,464.437 837.089,437.204L837.09,437.203ZM742.205,343.584C748.722,332.339 754.479,323.003 754.997,322.838C755.713,322.609 776.803,357.936 779.005,363.055C779.235,363.591 768.384,364.03 754.89,364.03L730.355,364.03L742.205,343.584ZM762.809,349.875C760.677,346.242 758.31,341.996 757.549,340.439C756.788,338.882 755.738,337.608 755.217,337.608C754.47,337.608 746.147,351.149 744.197,355.537C743.967,356.056 748.932,356.481 755.231,356.481L766.685,356.481L762.809,349.875ZM491.099,458.039L506.826,448.924L508.083,299.841L512.34,297.253C514.743,295.792 516.113,294.2 515.485,293.598C514.154,292.319 474.991,269.669 474.113,269.669C473.235,269.669 434.073,292.319 432.741,293.598C432.114,294.2 433.484,295.792 435.886,297.253L440.143,299.841L441.4,448.924L457.127,458.039C465.777,463.052 473.42,467.154 474.112,467.154C474.804,467.154 482.447,463.052 491.097,458.039L491.099,458.039ZM246.486,450.726L259.599,443.061L259.599,418.643C259.599,405.213 259.222,394.225 258.761,394.225C257.804,394.225 195.971,429.724 192.572,432.225C190.586,433.686 192.661,435.212 211.444,446.083C223.051,452.802 232.733,458.32 232.96,458.345C233.187,458.375 239.273,454.941 246.485,450.726L246.486,450.726ZM736.591,446.13C755.549,435.217 757.645,433.689 755.657,432.226C752.257,429.724 690.424,394.225 689.466,394.225C689.005,394.225 688.628,405.212 688.628,418.64L688.628,443.055L701.524,450.672C708.617,454.861 714.616,458.312 714.856,458.34C715.095,458.37 724.876,452.874 736.591,446.131L736.591,446.13ZM435.261,303.009C434.985,302.317 432.778,300.705 430.357,299.427L425.956,297.103L399.882,312.166L398.625,382.632L338.376,347.767L331.385,351.742C311.685,362.942 313.104,361.665 312.741,368.514L312.411,374.724L435.11,445.295L435.437,374.781C435.617,335.998 435.541,303.701 435.26,303.009L435.261,303.009ZM600.266,395.125L635.831,374.724L635.494,368.514C635.122,361.667 636.533,362.936 616.879,351.763L609.925,347.809L549.603,382.599L548.346,312.166L522.194,297.059L513.117,302.246L512.466,445.677L538.583,430.602C552.947,422.311 580.704,406.346 600.265,395.126L600.266,395.125ZM148.067,323.222C167.174,290.052 182.609,262.716 182.368,262.475C182.127,262.234 166.001,271.219 146.533,282.442L111.136,302.848L111.136,344.384C111.136,368.039 111.607,385.406 112.231,384.725C112.834,384.068 128.959,356.391 148.066,323.221L148.067,323.222ZM837.09,344.133L837.09,302.848L801.693,282.442C782.225,271.219 766.1,262.232 765.861,262.472C765.371,262.961 835.826,385.418 836.597,385.418C836.869,385.418 837.09,366.84 837.09,344.133ZM286.649,372.297L306.779,360.539L306.779,329.591L286.649,317.897C275.577,311.466 266.094,306.192 265.575,306.179C265.056,306.164 264.631,323.705 264.631,345.157C264.631,366.609 265.056,384.136 265.575,384.107C266.094,384.077 275.577,378.764 286.649,372.297ZM683.596,345.157C683.596,323.706 683.171,306.166 682.652,306.179C682.133,306.194 672.65,311.466 661.578,317.897L641.448,329.591L641.448,360.5L661.578,372.269C672.65,378.742 682.133,384.065 682.652,384.099C683.171,384.129 683.596,366.609 683.596,345.157ZM391.705,343.27C391.705,329.084 391.472,317.478 391.185,317.478C389.833,317.478 348.122,342.152 347.814,343.134C347.495,344.152 388.536,368.875 390.761,369.006C391.28,369.036 391.705,357.455 391.705,343.27ZM579.961,356.315C592.076,349.304 601.525,343.168 600.958,342.679C599.586,341.495 557.75,317.477 557.06,317.477C556.764,317.477 556.522,329.083 556.522,343.269C556.522,357.455 556.84,369.061 557.228,369.061C557.616,369.061 567.846,363.325 579.961,356.314L579.961,356.315ZM323.163,351.133C328.323,348.192 332.551,345.495 332.559,345.14C332.567,344.785 328.043,341.851 322.507,338.62L312.442,332.746L312.442,344.613C312.442,351.14 312.744,356.48 313.112,356.48C313.48,356.48 318.004,354.074 323.164,351.133L323.163,351.133ZM635.786,344.613L635.786,332.746L625.721,338.62C620.185,341.85 615.662,344.784 615.67,345.14C615.685,345.886 633.424,356.316 634.843,356.415C635.362,356.445 635.787,351.141 635.787,344.614L635.786,344.613ZM367.491,325.656L391.696,311.816L391.078,276.756L372.946,266.239C362.973,260.455 354.143,255.887 353.323,256.09C352.503,256.293 342.976,261.553 332.151,267.781L312.469,279.104L312.528,324.397L326.007,332.205C333.421,336.499 340.34,339.896 341.384,339.754C342.427,339.605 354.173,333.267 367.486,325.656L367.491,325.656ZM621.888,332.261L635.694,324.398L635.784,279.098L616.09,267.778C605.258,261.552 595.725,256.293 594.905,256.091C594.085,255.889 585.254,260.456 575.282,266.24L557.15,276.757L556.847,294.287L556.542,311.817L580.751,325.839C594.066,333.551 605.662,339.92 606.521,339.993C607.38,340.067 614.294,336.587 621.888,332.262L621.888,332.261ZM307.146,292.448L306.779,282.397L291.189,291.453C282.614,296.434 275.614,301.043 275.633,301.695C275.648,302.347 282.667,306.904 291.223,311.82L306.779,320.758L307.146,311.629C307.348,306.608 307.348,297.977 307.146,292.449L307.146,292.448ZM672.613,301.685C672.643,301.03 668.192,297.912 662.72,294.757C657.248,291.602 650.082,287.444 646.795,285.516L640.819,282.011L640.819,321.124L656.689,312.001C665.417,306.983 672.584,302.341 672.614,301.686L672.613,301.685ZM410.918,300.462C416.266,297.331 420.642,294.55 420.642,294.281C420.642,293.701 400.939,282.249 399.941,282.249C399.562,282.249 399.253,287.628 399.253,294.201C399.253,300.774 399.69,306.154 400.223,306.154C400.756,306.154 405.569,303.592 410.917,300.462L410.918,300.462ZM548.973,294.201C548.973,287.627 548.664,282.249 548.285,282.249C547.288,282.249 527.584,293.701 527.584,294.281C527.584,294.968 546.821,306.154 548.003,306.154C548.536,306.154 548.973,300.775 548.973,294.201ZM287.278,285.018L306.779,273.712L307.121,251.022L307.464,228.332L273.509,209.027L264.631,214.514L264.631,256.065C264.631,288.812 264.964,297.479 266.204,296.97C267.069,296.615 276.552,291.236 287.278,285.018ZM683.596,255.931L683.596,214.515L674.718,209.028L640.763,228.333L641.447,273.702L661.577,285.445C672.649,291.903 682.132,297.224 682.651,297.268C683.17,297.312 683.595,278.711 683.595,255.932L683.596,255.931ZM447.286,279.527C458.294,273.186 467.558,267.58 467.873,267.07C468.359,266.284 401.653,226.891 399.834,226.891C399.485,226.891 399.353,238.046 399.541,251.681L399.883,276.471L412.464,283.734C419.384,287.729 425.547,291.011 426.159,291.027C426.771,291.042 436.279,285.868 447.286,279.527ZM535.763,283.757L548.345,276.458L548.687,251.674C548.874,238.043 548.746,226.89 548.394,226.89C548.045,226.89 532.428,235.743 513.689,246.563C493.305,258.333 480.076,266.695 480.759,267.377C482.568,269.186 520.529,290.993 521.925,291.026C522.617,291.041 528.845,287.77 535.765,283.756L535.763,283.757ZM391.705,252.161L391.705,233.394L375.879,242.554C367.175,247.592 359.956,252.078 359.838,252.524C359.624,253.329 388.957,270.718 390.761,270.855C391.28,270.9 391.705,262.482 391.705,252.161ZM573.577,261.931C582.258,256.984 588.908,252.53 588.354,252.033C587.8,251.536 580.411,247.136 571.935,242.254L556.523,233.377L556.523,252.151C556.523,262.477 556.808,270.925 557.159,270.925C557.508,270.925 564.897,266.877 573.578,261.93L573.577,261.931ZM329.5,260.62C338.109,255.644 345.153,251.256 345.152,250.869C345.151,250.267 316.522,233.315 313.51,232.133C312.922,231.903 312.442,240.253 312.442,250.691C312.442,261.129 312.759,269.668 313.145,269.668C313.531,269.668 320.892,265.596 329.501,260.62L329.5,260.62ZM635.786,250.691C635.786,240.254 635.305,231.903 634.718,232.133C631.713,233.313 603.077,250.266 603.076,250.867C603.075,251.65 633.36,269.52 634.843,269.61C635.362,269.64 635.787,261.128 635.787,250.691L635.786,250.691ZM548.789,221.072C588.298,198.323 620.48,179.236 620.304,178.656C620.128,178.076 606.414,169.738 589.826,160.125L559.667,142.648L388.558,142.648L358.399,160.125C341.812,169.737 328.1,178.076 327.928,178.656C327.447,180.283 472.579,263.506 474.904,262.937C476.032,262.661 509.279,243.821 548.788,221.072L548.789,221.072ZM462.337,195.607C456.013,184.629 450.838,175.004 450.838,174.218C450.838,173.205 457.591,172.79 474.114,172.79C490.637,172.79 497.39,173.205 497.39,174.218C497.39,175.477 474.822,215.567 474.114,215.567C473.961,215.567 468.661,206.585 462.337,195.606L462.337,195.607ZM479.687,191.193C482.503,186.091 484.808,181.562 484.808,181.128C484.808,180.694 479.996,180.339 474.114,180.339C468.232,180.339 463.42,180.694 463.42,181.128C463.42,182.177 473.534,200.47 474.114,200.47C474.362,200.47 476.871,196.296 479.687,191.193ZM372.518,235.702C383.763,229.275 392.958,223.673 392.951,223.252C392.943,222.831 389.406,220.469 385.088,218.003C380.77,215.537 364.665,206.274 349.301,197.419L321.366,181.32L312.442,186.835L312.502,226.261L331.609,237.178C342.118,243.182 351.02,247.935 351.391,247.741C351.762,247.547 361.266,242.129 372.51,235.702L372.518,235.702ZM623.56,233.182L635.732,226.262L635.792,186.836L626.868,181.321L598.933,197.42C583.568,206.275 567.465,215.537 563.147,218.004C558.829,220.471 555.432,222.911 555.598,223.428C555.764,223.945 565.214,229.717 576.597,236.255L597.294,248.143L604.345,244.123C608.221,241.912 616.871,236.989 623.566,233.183L623.56,233.182ZM236.323,225.318L258.97,212.256L259.306,179.002C259.591,150.791 259.38,146.129 257.948,148.261C254.935,152.727 202.983,243.089 202.983,243.863C202.983,244.275 205.389,243.211 208.33,241.496C211.271,239.781 223.868,232.502 236.324,225.318L236.323,225.318ZM718.711,197.118C704.006,171.628 691.212,149.642 690.28,148.26C688.843,146.129 688.636,150.791 688.922,179.004L689.258,212.261L716.937,228.252C732.161,237.047 744.803,244.068 745.032,243.853C745.261,243.638 733.417,222.608 718.712,197.118L718.711,197.118ZM312.268,181.516C314.595,180.103 316.191,178.638 315.814,178.261C315.437,177.884 303.909,171.124 290.195,163.238L265.26,148.9L264.921,178.016C264.735,194.03 264.802,207.356 265.08,207.63C265.353,207.903 267.554,207.184 269.97,206.032L274.363,203.937L306.778,222.874L308.035,184.086L312.268,181.516ZM661.413,211.162L673.83,203.921L678.239,206.024C680.664,207.18 682.872,207.903 683.145,207.63C683.418,207.357 683.49,194.031 683.304,178.016L682.965,148.9L658.03,163.238C644.316,171.124 632.779,177.892 632.394,178.278C632.009,178.664 633.746,180.19 636.255,181.671L640.817,184.363L640.817,223.322L644.906,220.863C647.155,219.511 654.583,215.145 661.412,211.163L661.413,211.162ZM350.7,159.265L378.494,143.224L349.871,142.885C334.128,142.699 308.53,142.699 292.987,142.885L264.726,143.224L292.044,159.151C307.069,167.911 320.16,175.13 321.135,175.192C322.11,175.251 335.415,168.087 350.701,159.265L350.7,159.265ZM656.297,158.95L683.548,143.223L655.264,142.884C639.707,142.698 614.099,142.698 598.357,142.884L569.734,143.223L597.413,159.265C612.637,168.088 625.982,175.165 627.07,174.992C628.158,174.819 641.31,167.6 656.298,158.95L656.297,158.95ZM545.094,134.537C544.538,133.999 474.49,93.526 474.113,93.526C473.736,93.526 403.688,133.998 403.132,134.537C402.844,134.816 434.785,135.045 474.113,135.045C513.441,135.045 545.382,134.816 545.094,134.537ZM135.563,788.204C100.213,767.693 70.052,750.062 68.54,749.024L65.79,747.137L66.474,591.333L73.394,604.048L73.394,743.4L127.809,774.755C196.84,814.532 194.387,812.958 198.31,819.978C200.091,823.164 201.163,825.71 200.693,825.634C200.223,825.56 170.915,808.715 135.564,788.204L135.563,788.204ZM749.918,819.977C753.842,812.957 751.388,814.53 820.419,774.754L874.834,743.399L874.834,604.047L881.754,591.332L882.078,669.161C882.256,711.967 881.974,747.417 881.449,747.939C880.537,748.847 747.653,825.77 746.997,825.77C746.823,825.77 748.137,823.163 749.918,819.977ZM66.172,354.078L66.472,275.558L129.38,239.196C163.979,219.197 194.364,201.748 196.902,200.421L201.516,198.008L198.477,203.445C196.806,206.435 194.446,209.725 193.234,210.755C192.022,211.785 164.561,227.857 132.211,246.468L73.392,280.308L73.392,349.898C73.392,416.605 73.288,419.681 70.924,424.156C69.567,426.723 67.875,429.673 67.163,430.711C66.273,432.01 65.964,408.139 66.17,354.078L66.172,354.078ZM878.295,426.034L874.835,419.676L874.835,280.308L816.016,246.468C783.666,227.856 756.205,211.785 754.993,210.755C753.781,209.725 751.419,206.431 749.745,203.436L746.702,197.991L750.063,199.736C756.646,203.154 880.514,274.847 881.45,275.781C881.975,276.304 882.257,311.756 882.079,354.562L881.755,432.391L878.295,426.034ZM340.749,117.19C342.132,116.407 372.553,98.873 408.35,78.226C444.147,57.579 473.754,40.685 474.145,40.685C474.536,40.685 504.129,57.58 539.908,78.229C575.687,98.878 606.094,116.412 607.478,117.194C609.565,118.372 608.699,118.621 602.4,118.652L594.806,118.697L535.718,84.579C503.22,65.814 475.963,50.2 475.148,49.88C474.333,49.56 446.61,64.913 413.543,83.998L353.42,118.697L345.827,118.652C339.522,118.622 338.661,118.373 340.75,117.19L340.749,117.19Z" style="fill-rule:nonzero;"/>
    </g>
</svg>
