<?xml version="1.0" encoding="UTF-8" standalone="no"?>
<!DOCTYPE svg PUBLIC "-//W3C//DTD SVG 1.1//EN" "http://www.w3.org/Graphics/SVG/1.1/DTD/svg11.dtd">
<svg width="100%" height="100%" viewBox="0 0 32 32" version="1.1" xmlns="http://www.w3.org/2000/svg" xmlns:xlink="http://www.w3.org/1999/xlink" xml:space="preserve" xmlns:serif="http://www.serif.com/" style="fill-rule:evenodd;clip-rule:evenodd;stroke-linejoin:round;stroke-miterlimit:2;">
    <g transform="matrix(0.03125,0,0,0.03125,0,-0.000031)">
        <path d="M328.727,1024L328.727,948.364L75.636,948.364L75.636,695.273L-0,695.273L-0,328.728L75.636,328.728L75.636,75.637L328.727,75.637L328.727,0.001L695.272,0.001L695.272,75.637L948.363,75.637L948.363,328.728L1023.999,328.728L1023.999,695.273L948.363,695.273L948.363,948.364L695.272,948.364L695.272,1024L328.727,1024ZM689.455,1018.182L689.455,942.546L942.546,942.546L942.546,689.455L1018.182,689.455L1018.182,334.546L942.546,334.546L942.546,81.455L689.455,81.455L689.455,5.819L334.546,5.819L334.546,81.455L81.455,81.455L81.455,334.546L5.819,334.546L5.819,689.455L81.455,689.455L81.455,942.546L334.546,942.546L334.546,1018.182L689.455,1018.182ZM373.881,978.909L373.091,922.909L354.909,922.043L354.909,903.273L120.727,903.273L120.727,669.091L100.363,669.091L100.363,650.182L45.09,650.182L45.09,373.818L100.363,373.818L100.363,353.454L120.727,353.454L120.727,120.727L354.909,120.727L354.909,98.909L373.818,98.909L373.818,45.091L650.182,45.091L650.182,98.909L669.091,98.909L669.091,120.727L903.273,120.727L903.273,353.454L923.637,353.454L923.637,373.818L978.91,373.818L978.91,650.182L923.637,650.182L923.637,669.091L903.273,669.091L903.273,903.273L669.091,903.273L669.091,922.043L650.909,922.909L650.119,978.909L373.881,978.909ZM423.273,971.637L423.273,922.182L381.091,922.182L381.091,971.637L423.273,971.637ZM594.909,971.637L594.909,922.182L429.091,922.182L429.091,971.637L594.909,971.637ZM642.909,971.637L642.909,922.182L600.727,922.182L600.727,971.637L642.909,971.637ZM373.534,910.182L373.977,903.273L359.272,903.273L359.272,909.576C359.272,913.043 359.739,916.346 360.31,916.917C360.881,917.488 363.99,917.761 367.219,917.523L373.09,917.091L373.534,910.182ZM423.273,899.608L423.273,881.398L360,882.182L359.114,896L381.092,896L381.092,917.818L423.274,917.818L423.273,899.608ZM594.909,917.817L594.909,881.453L429.091,881.453L429.091,917.817L594.909,917.817ZM642.909,906.908L642.909,895.999L664.887,895.999L664.001,882.181L600.728,881.397L600.728,917.817L642.91,917.817L642.909,906.908ZM664.443,910.181L664.886,903.272L650.181,903.272L650.181,909.575C650.181,913.042 650.648,916.345 651.219,916.916C651.79,917.487 654.899,917.76 658.128,917.522L663.999,917.091L664.443,910.181ZM354.909,886.546L354.909,877.091L423.273,877.091L423.273,846.546L186.182,846.546L186.182,875.637L149.818,875.637L149.818,839.273L177.454,839.273L177.454,600.728L145.454,600.728L145.454,669.092L127.999,669.092L127.999,896.001L354.908,896.001L354.909,886.546ZM896,782.546L896,669.091L878.545,669.091L878.545,600.727L846.545,600.727L846.545,839.272L874.181,839.272L874.181,875.636L837.817,875.636L837.817,846.545L600.726,846.545L600.726,877.09L669.09,877.09L669.09,895.999L895.999,895.999L896,782.546ZM594.41,852.859C593.884,839.531 593.454,824.149 593.454,818.677L593.454,808.727L430.545,808.727L430.545,818.677C430.545,824.149 430.115,839.531 429.589,852.859L428.633,877.091L595.365,877.091L594.41,852.859ZM177.455,866.909L177.455,848L158.546,848L158.546,866.909L177.455,866.909ZM865.455,866.909L865.455,848L846.546,848L846.546,866.909L865.455,866.909ZM421.818,823.273L421.818,807.273L215.273,807.273L215.273,602.182L184.728,602.182L184.728,719.758C184.728,784.425 185.164,837.77 185.698,838.303C186.232,838.836 239.577,839.273 304.243,839.273L421.819,839.273L421.818,823.273ZM838.918,720.364L839.29,602.182L808.727,602.182L808.727,807.273L602.182,807.273L602.182,839.29L838.546,838.545L838.918,720.364ZM421.818,781.091L421.818,760.727L392.727,760.727L392.727,730.182L315.636,730.182L315.636,746.182L276.363,746.182L276.363,706.909L293.867,706.909L293.09,632L261.817,631.175L261.817,602.182L221.09,602.182L221.09,801.455L421.817,801.455L421.818,781.091ZM593.455,801.454L593.455,760.727L564.364,760.727L564.364,730.182L459.637,730.182L459.637,760.727L430.546,760.727L430.546,801.454L593.455,801.454ZM802.909,801.454L802.909,602.182L762.182,602.182L762.182,631.174L730.909,631.999L730.133,706.909L747.637,706.909L747.637,746.182L708.364,746.182L708.364,730.182L631.273,730.182L631.273,760.727L602.182,760.727L602.182,801.454L802.909,801.454ZM421.818,754.909L421.818,730.181L398.545,730.181L398.545,741.575C398.545,747.842 398.981,753.405 399.515,753.939C400.049,754.473 405.285,754.909 411.151,754.909L421.818,754.909ZM453.513,742.182L453.935,730.182L430.545,730.182L430.545,755.032L453.09,754.182L453.513,742.182ZM593.455,754.909L593.455,730.181L570.182,730.181L570.182,741.575C570.182,747.842 570.618,753.405 571.152,753.939C571.686,754.473 576.922,754.909 582.788,754.909L593.455,754.909ZM625.15,742.182L625.572,730.182L602.182,730.182L602.182,755.032L624.727,754.182L625.15,742.182ZM306.909,733.818C306.909,730.485 306.37,730.182 300.443,730.182L293.977,730.182L293.534,723.273C293.128,716.946 292.754,716.325 289.091,715.904L285.091,715.444L285.091,737.455L296,737.455C306.667,737.455 306.909,737.374 306.909,733.819L306.909,733.818ZM738.609,726.909C738.197,716.744 738.05,716.364 734.545,716.364C731.239,716.364 730.868,716.991 730.465,723.273L730.022,730.182L723.556,730.182C717.629,730.182 717.09,730.485 717.09,733.818C717.09,737.375 717.328,737.454 728.063,737.454L739.036,737.454L738.609,726.909ZM306.642,720.364C306.277,717.19 305.431,716.364 302.545,716.364C299.659,716.364 298.814,717.19 298.448,720.364C298.033,723.974 298.429,724.364 302.545,724.364C306.658,724.364 307.057,723.974 306.642,720.364ZM392.727,724.364L392.727,693.818L421.818,693.818L421.818,640.087L384.727,639.273L383.912,602.182L330.181,602.182L330.181,631.273L298.181,631.273L298.181,706.764L314.908,707.637L315.781,724.364L392.727,724.364ZM421.818,724.363L421.818,699.636L398.545,699.636L398.545,724.363L421.818,724.363ZM453.818,724.363L453.818,699.636L430.545,699.636L430.545,724.363L453.818,724.363ZM564.364,724.363L564.364,693.818L593.455,693.818L593.455,640L430.546,640L430.546,693.818L459.637,693.818L459.637,724.363L564.364,724.363ZM593.455,724.363L593.455,699.636L570.182,699.636L570.182,724.363L593.455,724.363ZM625.455,724.363L625.455,699.636L602.182,699.636L602.182,724.363L625.455,724.363ZM708.655,716L709.091,707.636L725.818,706.763L725.818,631.272L693.818,631.272L693.818,602.181L640.087,602.181L639.273,639.271L602.182,640.086L602.182,693.817L631.273,693.817L631.273,724.362L708.219,724.362L708.655,716ZM725.551,720.364C725.186,717.19 724.34,716.364 721.454,716.364C718.568,716.364 717.723,717.19 717.357,720.364C716.942,723.974 717.338,724.364 721.454,724.364C725.567,724.364 725.966,723.974 725.551,720.364ZM120.727,663.273L120.727,650.182L106.182,650.182L106.182,663.273L120.727,663.273ZM141.091,663.273L141.091,600.727L106.182,600.727L106.182,642.909L128,642.909L128,663.273L141.091,663.273ZM896,663.272L896,642.909L917.818,642.909L917.818,600.727L882.909,600.727L882.909,663.272L896,663.272ZM917.818,663.273L917.818,650.182L903.273,650.182L903.273,663.273L917.818,663.273ZM100.364,642.909L100.364,600.727L52.364,600.727L52.364,642.909L100.364,642.909ZM971.636,642.909L971.636,600.727L923.636,600.727L923.636,642.909L971.636,642.909ZM421.818,631.273L421.818,602.182L392.727,602.182L392.727,615.758C392.727,623.225 393.163,629.77 393.697,630.303C394.231,630.836 400.776,631.273 408.242,631.273L421.818,631.273ZM593.455,631.273L593.455,602.182L580.364,602.182L580.364,580.364L602.182,580.364L602.182,593.455L631.273,593.455L631.273,430.546L602.182,430.546L602.182,443.637L580.364,443.637L580.364,421.819L593.455,421.819L593.455,392.728L430.546,392.728L430.546,421.819L443.637,421.819L443.637,443.637L421.819,443.637L421.819,430.546L392.728,430.546L392.728,593.455L421.819,593.455L421.819,580.364L443.637,580.364L443.637,602.182L430.546,602.182L430.546,631.273L593.455,631.273ZM630.962,616.364L631.378,602.182L602.182,602.182L602.182,631.378L630.546,630.545L630.962,616.364ZM293.516,613.454L293.941,602.181L269.091,602.181L269.091,625.571L293.091,624.726L293.516,613.454ZM322.909,625.455L322.909,602.182L298.182,602.182L298.182,625.455L322.909,625.455ZM725.818,625.455L725.818,602.182L701.091,602.182L701.091,625.455L725.818,625.455ZM754.909,613.818L754.909,602.182L730.182,602.182L730.182,612.849C730.182,618.716 730.618,623.952 731.152,624.485C731.686,625.018 737.249,625.455 743.516,625.455L754.91,625.455L754.909,613.818ZM100.364,594.909L100.364,429.091L52.364,429.091L52.364,594.909L100.364,594.909ZM141.091,594.909L141.091,429.091L106.182,429.091L106.182,594.909L141.091,594.909ZM205.455,593.459L215.273,593.455L215.273,430.546L205.455,430.542C200.055,430.539 184.346,430.109 170.546,429.586L145.455,428.634L145.455,595.368L170.546,594.416C184.346,593.893 200.055,593.462 205.455,593.46L205.455,593.459ZM878.545,594.909L878.545,428.633L853.454,429.585C839.654,430.108 823.945,430.539 818.545,430.541L808.727,430.545L808.727,593.367L827.272,593.822C837.472,594.072 853.181,594.419 862.181,594.593L878.545,594.909ZM917.818,594.909L917.818,429.091L882.909,429.091L882.909,594.909L917.818,594.909ZM971.636,594.909L971.636,429.091L923.636,429.091L923.636,594.909L971.636,594.909ZM261.818,593.455L261.818,564.364L293.818,564.364L293.818,459.637L261.818,459.637L261.818,430.546L221.091,430.546L221.091,593.455L261.818,593.455ZM293.516,582.182L293.091,570.909L269.091,570.064L269.091,593.454L293.941,593.454L293.516,582.182ZM322.909,593.455L322.909,570.065L298.909,570.91L298.059,593.455L322.909,593.455ZM384,593.454L384,430.545L330.182,430.545L330.182,459.636L298.182,459.636L298.182,564.363L330.182,564.363L330.182,593.454L384,593.454ZM436.364,590.545C436.364,588.606 435.394,587.636 433.455,587.636C431.516,587.636 430.546,588.606 430.546,590.545C430.546,592.484 431.516,593.454 433.455,593.454C435.394,593.454 436.364,592.484 436.364,590.545ZM593.455,590.545C593.455,588.606 592.485,587.636 590.546,587.636C588.607,587.636 587.637,588.606 587.637,590.545C587.637,592.484 588.607,593.454 590.546,593.454C592.485,593.454 593.455,592.484 593.455,590.545ZM693.818,593.455L693.818,564.364L725.818,564.364L725.818,459.637L693.818,459.637L693.818,430.546L640,430.546L640,593.455L693.818,593.455ZM725.516,582.182L725.091,570.909L701.091,570.064L701.091,593.454L725.941,593.454L725.516,582.182ZM754.909,593.455L754.909,570.065L730.909,570.91L730.059,593.455L754.909,593.455ZM802.909,593.454L802.909,430.545L762.182,430.545L762.182,459.636L730.182,459.636L730.182,564.363L762.182,564.363L762.182,593.454L802.909,593.454ZM293.516,441.818L293.941,430.545L269.091,430.545L269.091,453.935L293.091,453.09L293.516,441.818ZM322.909,442.182L322.909,430.546L298.182,430.546L298.182,441.213C298.182,447.08 298.618,452.316 299.152,452.849C299.686,453.382 305.249,453.819 311.516,453.819L322.91,453.819L322.909,442.182ZM725.516,441.818L725.941,430.545L701.091,430.545L701.091,453.935L725.091,453.09L725.516,441.818ZM754.909,442.182L754.909,430.546L730.182,430.546L730.182,441.213C730.182,447.08 730.618,452.316 731.152,452.849C731.686,453.382 737.249,453.819 743.516,453.819L754.91,453.819L754.909,442.182ZM436.364,433.455C436.364,431.516 435.394,430.546 433.455,430.546C431.516,430.546 430.546,431.516 430.546,433.455C430.546,435.394 431.516,436.364 433.455,436.364C435.394,436.364 436.364,435.394 436.364,433.455ZM593.455,433.455C593.455,431.516 592.485,430.546 590.546,430.546C588.607,430.546 587.637,431.516 587.637,433.455C587.637,435.394 588.607,436.364 590.546,436.364C592.485,436.364 593.455,435.394 593.455,433.455ZM100.364,423.273L100.364,381.091L52.364,381.091L52.364,423.273L100.364,423.273ZM141.091,423.273L141.091,359.273L128,359.273L128,381.091L106.182,381.091L106.182,423.273L141.091,423.273ZM177.455,304.727L177.455,186.182L149.819,186.182L149.819,149.818L186.183,149.818L186.183,177.454L423.274,177.454L423.274,145.454L354.91,145.454L354.91,127.999L128.001,127.999L128.001,353.454L145.456,353.454L145.456,423.272L177.456,423.272L177.455,304.727ZM878.545,388.364L878.545,353.455L896,353.455L896,128L669.091,128L669.091,145.455L600.727,145.455L600.727,177.455L837.818,177.455L837.818,149.819L874.182,149.819L874.182,186.183L846.546,186.183L846.546,423.274L878.546,423.274L878.545,388.364ZM917.818,423.273L917.818,381.091L896,381.091L896,359.273L882.909,359.273L882.909,423.273L917.818,423.273ZM971.636,423.273L971.636,381.091L923.636,381.091L923.636,423.273L971.636,423.273ZM215.273,421.818L215.273,213.818L421.818,213.818L421.818,184.71L185.454,185.454L184.71,421.818L215.273,421.818ZM261.818,421.82L261.818,392.826L293.091,392.001L293.865,314.183L276.363,314.183L276.363,274.91L315.636,274.91L315.636,292.365L392.727,292.365L392.727,260.365L421.818,260.365L421.818,219.638L221.091,219.638L221.091,421.82L261.818,421.82ZM293.516,410.545L293.091,399.272L269.091,398.427L269.091,421.817L293.941,421.817L293.516,410.545ZM322.909,421.819L322.909,398.546L298.182,398.546L298.182,421.819L322.909,421.819ZM384.32,403.273L384.727,384.728L421.818,383.913L421.818,328.728L392.826,328.728L392.001,297.455L315.637,296.68L315.637,314.183L298.182,314.183L298.182,392.728L330.182,392.728L330.182,421.819L383.913,421.819L384.32,403.273ZM421.818,407.22L421.818,392.622L393.454,393.455L392.621,421.819L421.817,421.819L421.818,407.22ZM630.962,407.636L630.546,393.454L602.182,392.621L602.182,421.817L631.378,421.817L630.962,407.636ZM693.818,421.82L693.818,392.728L725.818,392.728L725.818,314.183L708.363,314.183L708.363,296.68L631.999,297.455L631.174,328.728L602.181,328.728L602.181,383.914L639.272,384.729L640.087,421.82L693.818,421.82ZM725.818,421.819L725.818,398.546L701.091,398.546L701.091,421.819L725.818,421.819ZM754.909,421.818L754.909,398.428L730.909,399.273L730.059,421.818L754.909,421.818ZM802.909,421.816L802.909,219.636L602.182,219.636L602.182,260.363L631.273,260.363L631.273,292.363L708.364,292.363L708.364,274.908L747.637,274.908L747.637,314.181L730.135,314.181L730.909,391.999L762.182,392.824L762.182,421.816L802.909,421.816ZM839.29,421.819L838.546,185.455L602.182,184.711L602.182,213.819L808.727,213.819L808.727,421.819L839.29,421.819ZM593.455,356.364L593.455,328.727L564.463,328.727L563.637,297.455L460.364,297.455L459.538,328.727L430.545,328.727L430.545,384L593.454,384L593.455,356.364ZM120.727,373.818L120.727,359.273L106.182,359.273L106.182,373.818L120.727,373.818ZM917.818,373.818L917.818,359.273L903.273,359.273L903.273,373.818L917.818,373.818ZM421.818,321.455L421.818,296.605L399.273,297.455L398.428,321.455L421.818,321.455ZM453.513,309.455L453.091,297.455L430.546,296.605L430.546,321.455L453.936,321.455L453.513,309.455ZM593.455,321.455L593.455,296.605L570.91,297.455L570.065,321.455L593.455,321.455ZM625.15,309.455L624.728,297.455L602.183,296.605L602.183,321.455L625.573,321.455L625.15,309.455ZM293.818,298.909L293.818,292.364L300.363,292.364C306.666,292.364 306.908,292.203 306.908,288L306.908,283.636L285.09,283.636L285.09,305.454L289.454,305.454C293.656,305.454 293.818,305.212 293.818,298.909ZM306.642,301.455C306.277,298.281 305.431,297.455 302.545,297.455C299.659,297.455 298.814,298.281 298.448,301.455C298.033,305.065 298.429,305.455 302.545,305.455C306.658,305.455 307.057,305.066 306.642,301.455ZM725.551,301.455C725.186,298.281 724.34,297.455 721.454,297.455C718.568,297.455 717.723,298.281 717.357,301.455C716.942,305.065 717.338,305.455 721.454,305.455C725.567,305.455 725.966,305.066 725.551,301.455ZM738.909,305.454L738.909,283.636L717.091,283.636L717.091,288C717.091,292.202 717.333,292.364 723.636,292.364L730.181,292.364L730.181,298.909C730.181,305.212 730.342,305.454 734.545,305.454L738.909,305.454ZM421.818,292.363L421.818,267.636L398.545,267.636L398.545,292.363L421.818,292.363ZM453.818,292.363L453.818,267.636L430.545,267.636L430.545,292.363L453.818,292.363ZM564.364,292.364L564.364,260.364L593.455,260.364L593.455,221.091L430.546,221.091L430.546,260.364L459.637,260.364L459.637,292.364L564.364,292.364ZM593.455,292.363L593.455,267.636L570.182,267.636L570.182,292.363L593.455,292.363ZM625.455,292.363L625.455,267.636L602.182,267.636L602.182,292.363L625.455,292.363ZM593.459,204.727C593.462,199.727 593.892,184.345 594.415,170.545L595.367,145.454L428.633,145.454L429.585,170.545C430.108,184.345 430.539,199.727 430.541,204.727L430.545,213.818L593.454,213.818L593.458,204.727L593.459,204.727ZM177.455,177.454L177.455,158.545L158.546,158.545L158.546,177.454L177.455,177.454ZM865.455,177.454L865.455,158.545L846.546,158.545L846.546,177.454L865.455,177.454ZM423.273,139.636L423.273,104.727L381.091,104.727L381.091,128L359.273,128L359.273,139.636L423.273,139.636ZM594.909,139.636L594.909,104.727L429.091,104.727L429.091,139.636L594.909,139.636ZM664.727,139.636L664.727,128L642.909,128L642.909,104.727L600.727,104.727L600.727,139.636L664.727,139.636ZM373.818,120.727L373.818,104.727L359.273,104.727L359.273,120.727L373.818,120.727ZM664.727,120.727L664.727,104.727L650.182,104.727L650.182,120.727L664.727,120.727ZM423.273,98.908L423.273,52.363L381.091,52.363L381.091,98.908L423.273,98.908ZM594.909,98.908L594.909,52.363L429.091,52.363L429.091,98.908L594.909,98.908ZM642.909,98.908L642.909,52.363L600.727,52.363L600.727,98.908L642.909,98.908Z" style="fill-rule:nonzero;"/>
    </g>
</svg>
