<?xml version="1.0" encoding="UTF-8" standalone="no"?>
<!DOCTYPE svg PUBLIC "-//W3C//DTD SVG 1.1//EN" "http://www.w3.org/Graphics/SVG/1.1/DTD/svg11.dtd">
<svg width="100%" height="100%" viewBox="0 0 21 25" version="1.1" xmlns="http://www.w3.org/2000/svg" xmlns:xlink="http://www.w3.org/1999/xlink" xml:space="preserve" xmlns:serif="http://www.serif.com/" style="fill-rule:evenodd;clip-rule:evenodd;stroke-linejoin:round;stroke-miterlimit:2;">
    <g transform="matrix(0.03125,0,0,0.03125,-2.217671,-3.794844)">
        <path d="M549.597,121.435C567.261,121.435 581.817,127.814 593.266,140.571C604.715,153.328 609.13,168.866 606.513,187.183L533.895,710.224C531.278,727.888 522.773,743.262 508.382,756.346C493.991,769.43 477.962,775.972 460.297,775.972L128.612,775.972C110.948,775.972 96.392,769.43 84.943,756.346C73.494,743.262 69.079,727.888 71.696,710.224L139.407,187.183C142.024,168.866 150.529,153.328 164.92,140.571C179.311,127.814 195.667,121.435 213.986,121.435L549.597,121.435ZM667.355,247.044C686.328,247.044 701.211,253.586 712.004,266.67C722.797,279.754 726.886,295.128 724.27,312.792L651.652,836.816C649.035,855.133 640.694,870.671 626.629,883.428C612.564,896.185 596.373,902.564 578.054,902.564L247.349,902.564C229.032,902.564 214.312,896.185 203.19,883.428C192.068,870.671 187.816,855.133 190.433,836.816L192.396,823.077L460.296,823.077C475.343,823.077 489.571,820.297 502.982,814.737C516.393,809.177 528.496,801.654 539.291,792.167C550.086,782.68 559.082,771.395 566.277,758.311C573.472,745.227 578.052,731.488 580.016,717.095L644.784,247.043L667.354,247.043L667.355,247.044Z" style="fill-rule:nonzero;"/>
    </g>
</svg>
