<?xml version="1.0" encoding="UTF-8" standalone="no"?>
<!DOCTYPE svg PUBLIC "-//W3C//DTD SVG 1.1//EN" "http://www.w3.org/Graphics/SVG/1.1/DTD/svg11.dtd">
<svg width="100%" height="100%" viewBox="0 0 29 26" version="1.1" xmlns="http://www.w3.org/2000/svg" xmlns:xlink="http://www.w3.org/1999/xlink" xml:space="preserve" xmlns:serif="http://www.serif.com/" style="fill-rule:evenodd;clip-rule:evenodd;stroke-linejoin:round;stroke-miterlimit:2;">
    <g transform="matrix(0.03125,0,0,0.03125,-2.061219,-3.128219)">
        <path d="M447.902,407.15C417.233,417.136 387.099,425.875 357.5,433.366C327.901,440.857 298.124,447.812 268.167,454.229L445.768,146.107C453.613,131.843 464.49,120.61 478.399,112.407C492.308,104.204 507.463,100.103 523.866,100.103C540.984,100.103 556.675,104.204 570.94,112.407C585.205,120.61 596.26,131.843 604.107,146.107L792.399,472.416C750.318,464.571 710.733,456.724 673.644,448.877C636.555,441.03 604.102,433.898 576.285,427.481C548.468,421.064 526.535,415.894 510.487,411.969C494.439,408.044 486.059,406.083 485.346,406.085L467.158,400.734L447.901,407.154L447.902,407.15ZM603.027,670.337L590.19,674.614C556.669,688.165 519.937,700.29 479.994,710.989C440.051,721.688 398.326,730.96 354.819,738.805C311.312,746.65 266.734,753.248 221.085,758.598C175.436,763.948 129.788,768.406 84.142,771.971L180.432,605.073C223.227,597.941 269.587,589.025 319.514,578.326C369.441,567.627 419.723,554.074 470.362,537.668C484.626,541.235 505.31,546.228 532.415,552.647C559.52,559.066 591.081,566.198 627.098,574.043C663.115,581.888 702.521,589.912 745.316,598.115C788.111,606.318 832.333,613.985 877.982,621.117L959.292,761.268C910.791,751.282 865.679,741.118 823.955,730.776C782.231,720.434 746.034,711.162 715.365,702.96C684.696,694.758 660.445,687.804 642.614,682.097L615.867,673.538L603.03,670.329L603.027,670.337ZM605.164,747.366C615.863,750.217 633.159,755.21 657.052,762.345C680.945,769.48 709.474,777.326 742.64,785.884C775.806,794.442 813.073,803.535 854.442,813.163C895.811,822.791 939.676,832.242 986.039,841.516C980.333,864.34 970.348,883.776 956.084,899.824C941.82,915.872 921.492,923.896 895.101,923.896L154.755,923.896C138.35,923.896 123.194,919.795 109.288,911.592C95.382,903.389 84.505,892.156 76.657,877.892C73.09,872.899 70.772,867.906 69.704,862.913C68.636,857.92 67.388,852.571 65.959,846.864C113.746,843.297 161.712,838.839 209.855,833.491C257.998,828.143 305.072,821.545 351.075,813.698C397.078,805.851 441.656,796.4 484.809,785.345C527.962,774.29 568.082,761.63 605.17,747.364L605.164,747.366Z" style="fill-rule:nonzero;"/>
    </g>
</svg>
