<?xml version="1.0" encoding="UTF-8" standalone="no"?>
<!DOCTYPE svg PUBLIC "-//W3C//DTD SVG 1.1//EN" "http://www.w3.org/Graphics/SVG/1.1/DTD/svg11.dtd">
<svg width="100%" height="100%" viewBox="0 0 33 32" version="1.1" xmlns="http://www.w3.org/2000/svg" xmlns:xlink="http://www.w3.org/1999/xlink" xml:space="preserve" xmlns:serif="http://www.serif.com/" style="fill-rule:evenodd;clip-rule:evenodd;stroke-linejoin:round;stroke-miterlimit:2;">
    <g transform="matrix(0.03125,0,0,0.03125,0.000011,-0.000025)">
        <path d="M485.1,1021.305C470.156,1017.253 453.265,1008.365 442.314,998.791C430.56,988.515 129.371,688.234 75.793,633.375C17.228,573.41 12.829,568.087 6.606,549.668C-2.446,522.873 -2.198,497.434 7.364,471.853C11.985,459.49 16.991,451.787 28.331,439.586C66.845,398.152 430.679,34.952 447.904,20.744C466.802,5.156 489.177,-1.064 521.995,0.148C534.572,0.612 537.792,1.128 546.568,4.081C558.808,8.2 568.243,13.071 578.207,20.414C585.987,26.148 925.698,365.447 973.403,415.132C1011.534,454.845 1015.714,460.485 1021.193,479.616C1027.574,501.893 1027.164,525.401 1020.019,546.981C1013.803,565.753 1009.746,571.505 982.962,599.508C969.891,613.175 873.473,709.998 768.701,814.67L578.206,1004.984L568.577,1009.857C545.664,1021.453 534.451,1024.13 509.369,1023.996C497.365,1023.931 492.998,1023.448 485.099,1021.306L485.1,1021.305ZM532.783,1007.427C552.719,1003.66 564.305,996.579 588.799,973.189C609.891,953.048 905.961,656.729 961.496,600.18C995.218,565.842 995.824,565.147 1000.702,555.232C1011.907,532.456 1013.966,507.625 1006.628,483.746C1005.432,479.853 1002.153,471.852 999.341,465.966L994.23,455.264L568.577,29.902L556.805,24.656C539.742,17.052 528.714,14.506 512.927,14.526C497.119,14.546 485.174,17.21 471.254,23.82C462.691,27.886 459.623,30.227 444.994,43.858C395.039,90.404 39.402,446.855 31.91,457.887C25.334,467.57 19.259,480.935 17.292,490.046C14.683,502.126 14.965,524.557 17.863,535.529C21.385,548.865 27.388,560.272 36.235,570.44C45.881,581.528 356.408,892.74 416.649,951.694C464.831,998.847 465.521,999.392 484.568,1005.278C500.099,1010.078 515.195,1010.751 532.786,1007.427L532.783,1007.427ZM494.197,978.746C482.88,974.721 479.009,972.264 466.768,961.337C451.365,947.588 72.039,568.259 61.295,555.862C52.683,545.924 47.25,536.082 44.798,525.975C42.995,518.546 43.228,502.484 45.248,494.897C49.168,480.173 51.883,476.487 80.736,446.701C110.29,416.192 415.345,111.409 444.174,83.587C464.126,64.332 479.362,51.253 485.47,48.137C492.335,44.635 501.998,42.701 512.545,42.717C524.381,42.736 533.685,44.729 543.253,49.295C549.641,52.343 558.611,60.934 650.367,151.868C747.497,248.128 930.831,432.436 959.527,462.669C968.415,472.034 974.647,479.586 976.305,483.003C984.595,500.089 984.642,522.27 976.427,540.697C974.685,544.604 969.098,551.417 957.408,563.887C933.486,589.406 722.284,801.313 629.803,892.585C554.875,966.534 550.439,970.709 543.117,974.183C527.525,981.582 507.441,983.454 494.198,978.744L494.197,978.746ZM522.557,895.636C542.363,894.228 553.273,892.268 567.505,887.563C579.625,883.556 598.162,874.796 608.642,868.123C629.315,854.96 650.399,833.817 663.633,812.978C678.351,789.802 687.864,759.126 690.64,725.883C691.293,718.069 691.15,716.964 689.242,715.056C688.042,713.856 684.844,712.603 681.891,712.177C679.016,711.762 675.581,711.164 674.257,710.848C671.988,710.307 671.849,710.605 671.848,716.008C671.847,726.847 669.646,745.302 667.073,756.053C658.782,790.699 636.707,824.136 607.681,846.01C590.773,858.752 566.256,869.713 544.162,874.408C529.685,877.484 499.67,877.758 485.1,874.946C463.276,870.735 443.724,863.087 427.051,852.241C393.151,830.187 370.446,798.983 358.677,758.276C356.069,749.254 355.811,746.533 355.35,723.146C354.788,694.642 355.531,688.673 362.097,668.938C379.136,617.722 421.839,578.249 474.75,564.805C485.401,562.099 490.056,561.536 506.358,560.985L525.476,560.338L524.744,552.907C523.783,543.154 523.535,542.664 519.142,541.84C513.4,540.763 482.945,543.275 473.329,545.619C428.263,556.604 389.684,583.388 365.047,620.796C351.75,640.986 341.949,665.54 337.791,689.078C335.218,703.643 334.731,729.872 336.787,743.146C342.977,783.12 359.248,815.297 387.686,843.806C416.442,872.634 447.764,888.439 488.311,894.584C503.962,896.956 503.984,896.957 522.557,895.636ZM541.285,860.406C544.522,859.723 548.28,858.93 549.636,858.644C551.886,858.169 551.293,857.263 542.849,848.259C526.255,830.567 517.604,816.258 510.349,794.506C501.042,766.601 497.608,738.228 499.507,704.935C501.203,675.197 503.976,661.272 513.08,636.779C517.929,623.732 523.196,613.624 530.316,603.698C533.406,599.39 535.935,595.054 535.935,594.061C535.935,593.068 534.697,588.538 533.183,583.993C530.549,576.084 530.268,575.699 526.63,575.016C521.613,574.075 499.715,575.347 485.653,577.398C468.425,579.91 448.795,588.296 429.198,601.517C401.027,620.523 377.552,656.695 370.969,691.242C370.198,695.287 369.644,706.933 369.644,719.067C369.644,741.289 370.53,748.384 375.059,762.41C385.761,795.555 410.574,826.068 441.524,844.144C455.056,852.047 474.431,859.003 489.471,861.356C497.766,862.654 533.754,861.994 541.285,860.405L541.285,860.406ZM312.47,694.846C316.378,694.2 316.43,694.124 317.085,688.169C317.449,684.856 317.982,680.889 318.268,679.353L318.789,676.56L300.276,675.802C279.969,674.971 270.604,673.453 256.173,668.653C232.053,660.632 212.83,648.61 193.96,629.748C163.597,599.397 149.442,566.889 147.769,523.667C146.783,498.184 150.087,479.016 159.243,457.104C180.267,406.787 228.482,368.903 281.366,361.148C332.475,353.654 381.697,369.972 418.253,406.529C445.514,433.791 461.387,468.243 463.691,505.154C464.036,510.676 464.564,517.639 464.864,520.628L465.411,526.062L471.987,525.163C482.331,523.748 483.5,522.541 483.477,513.297C483.397,481.771 470.496,443.125 450.925,415.782C422.104,375.516 382.262,350.975 331.528,342.238C318.352,339.969 289.442,340.507 274.272,343.303C204.015,356.255 148.76,409.295 132.552,479.342C125.717,508.882 127.284,543.142 136.816,572.553C141.284,586.339 152.439,608.468 160.771,620.073C183.787,652.132 215.672,675.328 253.472,687.511C271.642,693.367 300.049,696.898 312.47,694.845L312.47,694.846ZM736.805,694.354C787.053,690.068 835.357,662.13 865.395,619.98C872.994,609.318 884.431,586.811 888.467,574.58C900.483,538.164 900.327,497.731 888.029,460.967C872.329,414.035 836.071,374.673 790.405,354.986C768.752,345.651 738.618,339.53 719.138,340.509C713.068,340.814 707.881,341.285 707.612,341.554C706.919,342.247 703.844,358.657 704.318,359.131C704.533,359.346 713.328,359.785 723.863,360.106C745.146,360.755 755.073,362.284 769.596,367.149C793.091,375.019 814.137,388.217 832.381,406.524C855.074,429.295 868.84,454.767 875.891,487.032C878.671,499.753 878.689,535.927 875.924,548.906C869.44,579.318 855.766,605.289 834.666,627.272C812.415,650.454 786.371,665.39 755.445,672.702C739.739,676.416 712.798,677.316 695.905,674.692C671.712,670.934 645.56,660.228 627.438,646.664C614.799,637.204 596.607,618.866 590.063,608.988C578.393,591.373 568.554,568.836 564.614,550.697C562.634,541.581 562.242,536.36 562.203,518.61L562.159,497.41L556.808,498.083C547.927,499.2 544.573,500.624 543.827,503.595C542.576,508.58 544.262,545.855 546.118,554.258C558.182,608.858 593.49,653.675 643.494,677.856C661.871,686.743 675.703,690.766 701.82,694.817C707.452,695.691 723.658,695.477 736.811,694.355L736.805,694.354ZM744.032,660.072C748.71,659.459 757.476,657.34 763.51,655.363C847.331,627.905 887.874,535.429 850.494,456.961C835.869,426.261 813.055,403.15 782.799,388.384C761.406,377.944 745.415,374.462 718.938,374.479C697.646,374.492 698.721,374.024 693.4,385.623C677.498,420.289 650.92,451.158 619.673,471.25C611.83,476.293 584.551,490.043 582.386,490.045C581.741,490.045 580.297,491.061 579.175,492.302C577.3,494.377 577.139,496.416 577.173,517.719C577.206,539.204 577.417,541.707 580.074,552.296C588.844,587.254 605.572,611.696 637.127,635.656C648.7,644.444 672.869,655.248 690.041,659.31C701.17,661.942 726.985,662.307 744.03,660.072L744.032,660.072ZM536.326,480.35C557.91,478.256 582.534,469.782 603.892,457.099C619.506,447.826 640.508,429.591 651.611,415.667C663.775,400.412 675.529,378.595 681.916,359.415C688.095,340.863 689.341,331.328 689.32,302.761C689.303,278.204 689.225,277.321 686.056,265.304C679.611,240.866 671.525,222.692 658.913,204.303C641.443,178.83 617.551,158.453 589.444,145.053C566.637,134.18 550.7,130.074 524.424,128.302C491.772,126.099 465.537,131.085 436.419,145.026C386.161,169.088 350.256,214.697 339.048,268.715C334.405,291.093 333.774,317.736 337.803,321.341C339.341,322.718 349.641,325.236 353.733,325.236C354.952,325.236 355.085,322.839 354.486,311.591C352.112,266.936 368.82,224.603 401.688,191.996C424.93,168.939 456.131,153.122 488.296,148.091C502.7,145.838 530.846,146.404 543.427,149.2C593.729,160.378 633.052,190.375 654.66,234.05C667.258,259.513 670.721,275.254 670.762,307.233C670.795,333.355 666.85,350.369 655.257,374.106C635.564,414.427 599.208,445.061 556.462,457.354C541.302,461.714 529.81,463.264 512.392,463.3C505.623,463.313 499.449,463.728 498.671,464.221C497.532,464.943 497.491,466.448 498.459,471.964C500.485,483.51 499.051,482.545 513.253,481.924C520.137,481.623 530.521,480.916 536.328,480.352L536.326,480.35ZM538.61,446.575C573.002,440.97 606.247,420.311 628.465,390.736C640.828,374.28 651.124,351.558 654.355,333.602C656.856,319.705 656.818,287.271 654.287,275.649C648.442,248.805 635.128,224.161 615.839,204.489C584.682,172.713 545.744,158.019 501.615,161.386C494.297,161.944 484.721,163.221 480.333,164.224L472.356,166.047L475.517,168.661C493.703,183.702 505.679,201.946 515.072,228.918C521.935,248.624 524.126,260.358 525.285,283.615C526.834,314.703 525.263,343.342 521.096,360.018C514.533,386.278 505.241,407.106 492.602,423.885L485.607,433.172L487.802,439.037C490.42,446.033 491.891,447.416 497.767,448.4C504.099,449.461 527.245,448.427 538.609,446.575L538.61,446.575Z" style="fill-rule:nonzero;"/>
    </g>
</svg>
