<?xml version="1.0" encoding="UTF-8" standalone="no"?>
<!DOCTYPE svg PUBLIC "-//W3C//DTD SVG 1.1//EN" "http://www.w3.org/Graphics/SVG/1.1/DTD/svg11.dtd">
<svg width="100%" height="100%" viewBox="0 0 29 30" version="1.1" xmlns="http://www.w3.org/2000/svg" xmlns:xlink="http://www.w3.org/1999/xlink" xml:space="preserve" xmlns:serif="http://www.serif.com/" style="fill-rule:evenodd;clip-rule:evenodd;stroke-linejoin:round;stroke-miterlimit:2;">
    <g transform="matrix(0.03125,0,0,0.03125,-1.820875,-1.072)">
        <path d="M551.316,149.882L595.564,72.226L676.836,212.194L954.964,212.194L815.9,455.106L975.732,730.528L667.804,730.528L702.116,790.128L621.748,790.128L507.068,989.696L385.164,778.392L163.02,778.392L274.996,587.856L231.652,512L154.892,512L192.82,444.272L58.268,212.2L381.548,212.2L483.588,34.304L551.316,149.882ZM476.364,687.178L519.708,614.034L560.342,684.466L709.342,427.106L628.974,427.106L662.383,364.797L426.695,364.797L448.367,331.388L328.263,331.388L433.919,511.988L375.223,511.988L476.364,687.178Z" style="fill-rule:nonzero;"/>
    </g>
</svg>
