<?xml version="1.0" encoding="UTF-8" standalone="no"?>
<!DOCTYPE svg PUBLIC "-//W3C//DTD SVG 1.1//EN" "http://www.w3.org/Graphics/SVG/1.1/DTD/svg11.dtd">
<svg width="100%" height="100%" viewBox="0 0 28 28" version="1.1" xmlns="http://www.w3.org/2000/svg" xmlns:xlink="http://www.w3.org/1999/xlink" xml:space="preserve" xmlns:serif="http://www.serif.com/" style="fill-rule:evenodd;clip-rule:evenodd;stroke-linejoin:round;stroke-miterlimit:2;">
    <g transform="matrix(0.03125,0,0,0.03125,-2.514406,-2.076625)">
        <path d="M934.924,869.698C938.407,876.67 941.545,883.992 944.337,891.665C947.129,899.338 950.267,907.008 953.75,914.676C956.541,920.254 958.633,926.181 960.026,932.456C961.419,938.731 963.511,945.006 966.302,951.281C964.207,949.887 962.638,949.19 961.596,949.19C960.554,949.19 959.682,948.841 958.981,948.144C945.037,944.661 931.964,940.476 919.761,935.589C907.558,930.702 895.53,925.823 883.676,920.952C876.704,917.469 870.08,914.852 863.805,913.103C857.53,911.354 851.255,908.737 844.98,905.254C817.089,891.31 790.073,876.668 763.93,861.327C737.787,845.986 711.465,829.95 684.962,813.219C680.081,832.044 672.934,850.173 663.521,867.604C654.108,885.035 642.778,900.375 629.531,913.622C616.284,926.869 600.944,937.502 583.513,945.521C566.082,953.54 546.908,957.549 525.993,957.549C504.378,957.549 484.854,953.54 467.422,945.521C449.99,937.502 434.651,926.869 421.404,913.622C408.157,900.375 397.001,885.035 387.936,867.604C378.871,850.173 371.899,832.044 367.02,813.219C325.185,839.717 283.178,864.295 240.998,886.953C198.818,909.611 154.718,928.959 108.697,944.998C105.906,945.695 102.595,946.567 98.766,947.613C94.937,948.659 90.927,949.879 86.738,951.274C88.132,947.09 89.352,943.081 90.399,939.246C91.446,935.411 92.666,932.101 94.06,929.315C98.244,918.856 102.079,908.744 105.564,898.98C109.049,889.216 112.884,879.455 117.068,869.697C122.646,855.753 128.224,843.028 133.802,831.522C139.38,820.016 145.655,807.988 152.627,795.437C156.11,789.859 159.248,783.932 162.04,777.657C164.832,771.382 167.97,765.107 171.453,758.832C177.728,747.676 184.527,736.52 191.848,725.364C199.169,714.208 205.968,703.4 212.243,692.941C214.338,688.757 216.604,684.922 219.04,681.437C221.476,677.952 223.393,674.466 224.792,670.979C205.27,665.401 186.793,658.254 169.362,649.538C151.931,640.822 136.591,629.841 123.344,616.594C110.097,603.347 99.637,588.008 91.965,570.576C84.293,553.144 80.458,533.62 80.461,512.005C80.461,491.086 84.47,471.912 92.489,454.485C100.508,437.058 111.315,421.544 124.912,407.943C138.509,394.342 154.023,382.838 171.454,373.429C188.885,364.02 207.014,357.222 225.839,353.034C220.261,343.276 214.683,334.037 209.105,325.317C203.527,316.597 197.6,307.358 191.325,297.6C177.381,275.288 164.132,251.757 151.578,227.006C139.024,202.255 128.216,177.677 119.155,153.272C114.274,148.391 110.788,142.116 108.697,134.447C106.602,128.869 104.336,123.115 101.9,117.186C99.464,111.257 97.547,105.503 96.148,99.925C94.754,95.741 93.185,91.383 91.442,86.852C89.699,82.321 88.13,77.614 86.736,72.733C102.077,77.614 116.196,82.669 129.093,87.897C141.99,93.125 154.715,98.528 167.268,104.107C181.212,109.685 193.937,115.263 205.443,120.841C216.949,126.419 228.977,131.997 241.528,137.575C263.84,149.428 285.281,161.63 305.85,174.18C326.419,186.73 346.813,199.28 367.032,211.83C371.216,193.005 378.014,174.702 387.427,156.921C396.84,139.14 408.344,123.626 421.941,110.379C435.538,97.132 451.052,86.499 468.483,78.48C485.914,70.461 505.088,66.452 526.003,66.452C548.315,66.452 568.012,70.461 585.094,78.48C602.176,86.499 617.342,97.132 630.591,110.379C643.84,123.626 654.996,138.966 664.059,156.397C673.122,173.828 680.444,192.305 686.026,211.827L746.687,174.177C766.91,161.627 788.176,149.425 810.484,137.572C823.034,131.994 835.236,126.416 847.089,120.838C858.942,115.26 871.492,109.682 884.739,104.104C897.289,98.526 910.014,93.123 922.914,87.894C935.814,82.665 950.281,77.611 966.316,72.73C960.738,88.071 955.335,102.19 950.106,115.087C944.877,127.984 939.474,140.709 933.896,153.262C931.105,162.328 927.619,170.871 923.438,178.891C919.257,186.911 915.072,194.755 910.883,202.423C908.092,207.304 906,211.837 904.607,216.022C903.214,220.207 901.819,224.041 900.42,227.526C882.989,259.598 863.465,292.717 841.849,326.883L831.391,343.617C829.997,345.011 829.125,346.407 828.776,347.804C828.427,349.201 827.555,350.597 826.161,351.991C845.683,357.569 864.16,364.891 881.591,373.958C899.022,383.025 914.362,394.181 927.609,407.426C940.856,420.671 951.489,435.837 959.508,452.923C967.527,470.009 971.536,489.706 971.536,512.014C971.536,532.933 967.527,552.107 959.508,569.534C951.489,586.961 940.856,602.301 927.609,615.552C914.362,628.803 899.022,640.133 881.591,649.542C864.16,658.951 846.031,666.098 827.206,670.983C832.784,680.741 838.362,689.805 843.94,698.175C849.518,706.545 855.096,715.261 860.674,724.322C868.343,736.175 875.315,748.028 881.59,759.881L900.415,795.44C906.69,807.99 912.444,820.018 917.676,831.525C922.908,843.032 928.662,855.757 934.937,869.7L934.924,869.698Z" style="fill-rule:nonzero;"/>
    </g>
</svg>
