<?xml version="1.0" encoding="UTF-8" standalone="no"?>
<!DOCTYPE svg PUBLIC "-//W3C//DTD SVG 1.1//EN" "http://www.w3.org/Graphics/SVG/1.1/DTD/svg11.dtd">
<svg width="100%" height="100%" viewBox="0 0 30 24" version="1.1" xmlns="http://www.w3.org/2000/svg" xmlns:xlink="http://www.w3.org/1999/xlink" xml:space="preserve" xmlns:serif="http://www.serif.com/" style="fill-rule:evenodd;clip-rule:evenodd;stroke-linejoin:round;stroke-miterlimit:2;">
    <g transform="matrix(0.03125,0,0,0.03125,-1.253625,-4.407938)">
        <path d="M934.941,724.32L982.937,796.718C988.902,805.937 991.885,815.564 991.885,825.597C991.885,835.63 989.58,844.85 984.97,853.255C980.36,861.66 973.716,868.71 965.039,874.405C956.362,880.1 946.329,882.947 934.94,882.946L705.54,882.946L620.938,756.857L685.202,756.857L581.077,599.043L635.579,599.043L515.999,423.333L398.044,599.043L450.921,599.043L345.984,756.857L410.248,756.857L326.46,882.946L96.248,882.946C84.86,882.946 74.962,880.099 66.555,874.405C58.148,868.711 51.64,861.661 47.031,853.255C42.422,844.849 40.117,835.63 40.116,825.597C40.115,815.564 43.097,805.938 49.064,796.718L152.376,640.532L394.792,640.532C387.741,623.179 378.793,610.298 367.948,601.891C357.103,593.484 346.256,587.383 335.409,583.588C322.936,579.249 310.191,577.35 297.175,577.893C293.921,565.962 289.854,555.116 284.974,545.354C280.635,536.677 274.941,528.407 267.892,520.542C260.843,512.677 252.437,507.389 242.674,504.678L468.006,165.459C473.971,157.325 481.157,151.224 489.562,147.156C497.967,143.088 506.78,141.054 515.999,141.054C525.218,141.054 534.031,143.088 542.436,147.156C550.841,151.224 557.756,157.325 563.18,165.459L856.845,606.362C847.626,609.073 839.355,613.954 832.033,621.005C824.711,628.056 818.881,635.377 814.544,642.968C809.121,651.102 804.512,660.05 800.715,669.812C787.156,669.269 774.14,670.896 761.667,674.693C750.821,677.947 739.568,683.235 727.907,690.557C716.246,697.879 706.62,709.132 699.028,724.317L934.935,724.317L934.941,724.32Z" style="fill-rule:nonzero;"/>
    </g>
</svg>
