<?xml version="1.0" encoding="UTF-8" standalone="no"?>
<!DOCTYPE svg PUBLIC "-//W3C//DTD SVG 1.1//EN" "http://www.w3.org/Graphics/SVG/1.1/DTD/svg11.dtd">
<svg width="100%" height="100%" viewBox="0 0 31 21" version="1.1" xmlns="http://www.w3.org/2000/svg" xmlns:xlink="http://www.w3.org/1999/xlink" xml:space="preserve" xmlns:serif="http://www.serif.com/" style="fill-rule:evenodd;clip-rule:evenodd;stroke-linejoin:round;stroke-miterlimit:2;">
    <g transform="matrix(0.03125,0,0,0.03125,-1.138431,-5.999829)">
        <path d="M500.142,810.206C455.803,789.354 452.429,786.431 440.391,758.45C422.56,717.003 423.353,670.484 442.596,628.939C459.507,592.433 496.7,551.303 526.732,535.903C537.954,530.148 636.813,492.276 746.42,451.738L945.706,378.038L1010.572,409.853L1010.572,437.637C1010.572,462.381 1008.727,466.372 993.717,474.136C965.162,488.901 949.493,563.518 965.492,608.539C972.547,628.392 976.557,632.132 992.467,633.704C1011.112,635.549 1011.152,635.619 1009.405,665.725L1007.657,695.898L809.46,764.1C576.316,844.326 573.562,844.736 500.146,810.213L500.142,810.206ZM779.057,709.185C938.097,654.369 952.373,648.36 948.951,637.681C941.212,613.523 939.545,546.1 946.046,520.275C949.763,505.52 952.031,492.691 951.081,491.772C950.136,490.853 872.595,518.058 778.774,552.232C620.355,609.931 567.537,634.899 567.537,652.097C567.537,654.942 591.413,650.727 620.599,642.732C649.785,634.737 674.81,629.342 676.215,630.747C677.62,632.152 650.871,644.762 616.775,658.762C582.679,672.762 552.31,688.836 549.294,694.471C546.279,700.106 544.559,704.706 545.472,704.686C546.387,704.67 575.843,696.871 610.93,687.358C646.017,677.845 675.543,670.88 676.539,671.875C677.536,672.87 651.451,685.01 618.573,698.85C553.364,726.299 547.024,730.084 552.198,738.457C554.272,741.812 579.693,737.352 615.524,727.343C648.445,718.148 677.287,711.259 679.616,712.039C681.941,712.82 659.111,723.738 628.872,736.304C576.496,758.069 564.664,768.729 592.657,768.929C599.682,768.984 683.563,742.094 779.056,709.178L779.057,709.185ZM281.897,703.045C190.193,657.399 185.101,653.958 172.597,629.159C154.196,592.671 154.592,537.67 173.547,496.962C189.439,462.832 221.937,424.566 248.943,408.185C268.566,396.282 660.925,250.088 673.651,249.938C682.576,249.833 882.099,344.814 882.234,349.234C882.289,350.897 800.35,382.357 700.159,419.144C502.957,491.552 468.731,509.207 432.701,557.089C390.75,612.841 384.071,631.683 383.988,694.512C383.948,725.767 382.603,751.248 381.001,751.132C379.396,751.017 334.805,729.377 281.903,703.046L281.897,703.045ZM82.961,606.405C23.641,568.785 20.783,489.272 75.856,408.828C112.271,355.638 134.802,343.741 349.354,264.401C457.44,224.435 550.091,191.851 555.245,191.995C560.399,192.139 576.17,198.3 590.29,205.687L615.959,219.113L599.034,225.075C455.017,275.795 238.656,360.096 220.554,372.542C185.158,396.881 148.591,439.392 131.268,476.348C117.799,505.082 115.76,516.904 115.76,566.266C115.76,597.526 114.306,623.102 112.531,623.102C110.756,623.102 97.447,615.587 82.965,606.399L82.961,606.405Z" style="fill-rule:nonzero;"/>
    </g>
</svg>
