<?xml version="1.0" encoding="UTF-8" standalone="no"?>
<!DOCTYPE svg PUBLIC "-//W3C//DTD SVG 1.1//EN" "http://www.w3.org/Graphics/SVG/1.1/DTD/svg11.dtd">
<svg width="100%" height="100%" viewBox="0 0 29 28" version="1.1" xmlns="http://www.w3.org/2000/svg" xmlns:xlink="http://www.w3.org/1999/xlink" xml:space="preserve" xmlns:serif="http://www.serif.com/" style="fill-rule:evenodd;clip-rule:evenodd;stroke-linejoin:round;stroke-miterlimit:2;">
    <g transform="matrix(0.03125,0,0,0.03125,-2.366063,-2.383969)">
        <path d="M952.495,706.642C884.043,685.214 812.912,674.5 739.103,674.5C683.746,674.5 629.579,680.75 576.603,693.25C580.175,686.702 588.508,681.196 601.603,676.732C614.698,672.268 629.132,668.399 644.907,665.124C660.682,661.849 675.86,659.171 690.443,657.088C705.026,655.005 715.591,653.666 722.139,653.07C679.878,635.809 634.342,626.583 585.533,625.392L572.141,581.642C571.546,586.403 570.654,591.463 569.463,596.82C568.272,600.987 567.231,605.451 566.338,610.212C565.445,614.973 564.404,619.735 563.213,624.498C526.309,625.093 490,630.003 454.285,639.23C418.57,648.457 385.832,662.891 356.071,682.534C357.262,681.343 359.345,681.641 362.321,683.426C366.488,683.426 369.166,684.021 370.357,685.212C376.905,685.212 385.238,686.105 395.357,687.89C405.476,689.675 415.892,691.907 426.607,694.586C437.322,697.265 447.738,699.943 457.857,702.622C467.976,705.301 476.011,707.831 481.964,710.212C488.512,711.997 493.869,713.783 498.036,715.57L523.036,723.606C527.797,725.391 533.155,727.177 539.108,728.964L548.93,734.322C554.882,737.298 559.644,739.977 563.216,742.358C565.597,743.549 567.978,744.888 570.358,746.376C572.738,747.864 575.119,749.203 577.5,750.394C579.881,751.585 582.262,753.073 584.642,754.858C541.19,746.525 497.887,739.084 454.732,732.536C411.577,725.988 368.274,723.309 324.822,724.5C320.061,724.5 316.787,724.797 315,725.392L293.572,725.392C291.787,725.987 288.513,726.284 283.75,726.284L260.536,659.32L246.25,713.784L234.642,690.57L218.57,735.212C193.57,741.76 168.868,749.796 144.464,759.319C120.06,768.842 97.143,781.342 75.714,796.819L255.178,411.999L331.07,531.641L523.926,76.287L681.96,426.285L742.674,277.179L952.495,706.642ZM971.245,786.106C979.578,790.273 984.192,794.886 985.085,799.946C985.978,805.006 983.895,809.917 978.835,814.678C973.775,819.439 966.334,824.201 956.513,828.964C946.692,833.727 935.234,837.893 922.139,841.464C913.211,844.44 903.985,846.077 894.461,846.374C884.937,846.671 875.116,847.415 864.997,848.606C856.664,850.987 847.884,852.773 838.657,853.964C829.43,855.155 820.948,858.429 813.211,863.786C812.02,866.167 811.128,867.358 810.533,867.358C809.938,868.549 810.534,870.929 812.319,874.5C812.319,875.095 814.402,876.583 818.569,878.964L826.605,882.536C829.581,883.727 832.26,885.661 834.641,888.34C837.022,891.019 837.618,894.441 836.427,898.608C834.642,905.156 828.987,910.215 819.463,913.786C809.939,917.357 801.903,920.035 795.356,921.822C789.999,923.607 784.791,925.244 779.732,926.732C774.673,928.22 769.167,929.857 763.214,931.642L724.822,830.75L705.18,898.606L674.823,779.856L639.109,947.712L567.681,947.712C431.372,960.211 410.837,959.615 506.075,945.926C469.766,944.141 434.052,941.611 398.933,938.336C363.814,935.061 327.505,931.043 290.005,926.282C272.744,924.497 255.631,921.669 238.666,917.8C221.701,913.931 204.886,909.615 188.22,904.854C179.887,902.473 171.553,900.389 163.22,898.604C154.887,896.819 146.553,894.438 138.22,891.462C131.672,888.486 124.381,885.807 116.346,883.426C108.311,881.045 102.508,876.581 98.936,870.034C95.96,865.273 98.043,860.213 105.186,854.856C112.329,849.499 120.811,844.439 130.632,839.678C140.453,834.917 150.275,830.899 160.096,827.624C169.917,824.349 176.019,822.117 178.4,820.928C184.352,819.143 193.281,816.911 205.186,814.232C217.091,811.553 229.443,808.875 242.24,806.196C255.037,803.517 267.389,801.137 279.294,799.054C291.199,796.971 300.425,795.93 306.972,795.929C349.233,790.572 391.793,787.893 434.65,787.893C454.888,787.893 475.275,787.149 495.81,785.661C516.345,784.173 536.137,781.048 555.184,776.286C573.636,772.119 591.791,768.101 609.648,764.232C627.505,760.363 645.065,756.94 662.326,753.964C674.231,751.583 686.433,750.095 698.933,749.5C711.433,748.905 723.338,748.608 734.647,748.608C746.552,748.013 758.456,747.716 770.361,747.716C782.266,747.716 794.468,748.311 806.968,749.502C834.349,752.478 862.325,756.049 890.896,760.216C919.467,764.383 946.252,773.013 971.252,786.108L971.245,786.106Z" style="fill-rule:nonzero;"/>
    </g>
</svg>
