<?xml version="1.0" encoding="UTF-8" standalone="no"?>
<!DOCTYPE svg PUBLIC "-//W3C//DTD SVG 1.1//EN" "http://www.w3.org/Graphics/SVG/1.1/DTD/svg11.dtd">
<svg width="100%" height="100%" viewBox="0 0 27 31" version="1.1" xmlns="http://www.w3.org/2000/svg" xmlns:xlink="http://www.w3.org/1999/xlink" xml:space="preserve" xmlns:serif="http://www.serif.com/" style="fill-rule:evenodd;clip-rule:evenodd;stroke-linejoin:round;stroke-miterlimit:2;">
    <g transform="matrix(0.03125,0,0,0.03125,-1.67936,-0.672)">
        <path d="M663.552,740.352L695.296,666.624C695.979,665.259 696.832,663.893 697.856,662.528C698.88,661.163 699.733,659.797 700.416,658.432L700.416,657.408C700.416,656.725 700.587,656.213 700.928,655.872C701.269,655.531 701.44,655.019 701.44,654.336L701.44,651.264C702.805,649.216 703.488,647.168 703.488,645.12C703.488,643.072 704.171,640.683 705.536,637.952L705.536,635.904L707.584,635.904L707.584,629.76L708.608,627.712L708.608,621.568C709.291,620.885 709.632,619.52 709.632,617.472L709.632,609.28L710.656,608.256L710.656,578.56C709.973,577.877 709.632,577.195 709.632,576.512L709.632,569.344C708.949,567.979 708.608,566.613 708.608,565.248C708.608,563.883 708.267,562.517 707.584,561.152L707.584,557.056L705.536,555.008C705.536,553.643 704.853,552.619 703.488,551.936C703.488,549.888 703.147,548.181 702.464,546.816L702.464,545.792C701.099,544.427 700.416,542.379 700.416,539.648L662.528,477.184L663.552,476.16C664.235,474.795 665.088,473.429 666.112,472.064C667.136,470.699 667.989,469.333 668.672,467.968C668.672,467.285 669.013,466.261 669.696,464.896L669.696,460.8C671.061,458.752 671.744,456.704 671.744,454.656C671.744,452.608 672.085,450.901 672.768,449.536L672.768,444.416C674.816,443.733 676.181,441.003 676.864,436.224L676.864,430.08L677.888,428.032L677.888,418.816L678.912,413.696L678.912,394.24C678.912,391.509 678.571,389.803 677.888,389.12L677.888,379.904C677.205,377.856 676.864,376.149 676.864,374.784C676.864,373.419 676.523,372.053 675.84,370.688L675.84,366.592C673.792,365.909 672.768,364.885 672.768,363.52L671.744,361.472C671.744,359.424 671.403,358.059 670.72,357.376L670.72,356.352L668.672,350.208L576.512,194.56L640,47.104C644.096,37.547 648.021,30.891 651.776,27.136C655.531,23.381 658.432,21.504 660.48,21.504L671.744,22.528C671.744,23.893 673.109,24.917 675.84,25.6L870.4,358.4L870.4,359.424C871.083,360.107 871.424,360.789 871.424,361.472L871.424,363.52C872.107,364.203 872.448,364.885 872.448,365.568L872.448,366.592C873.131,366.592 873.472,366.933 873.472,367.616C874.155,367.616 874.496,368.64 874.496,370.688L874.496,372.736C875.861,374.101 876.544,376.149 876.544,378.88L876.544,379.904L877.568,380.928L877.568,417.792L876.544,419.84L876.544,429.056L874.496,429.056L874.496,430.08C874.496,433.493 873.813,435.541 872.448,436.224L872.448,438.272C871.765,441.003 871.424,443.051 871.424,444.416C871.424,445.781 871.083,447.488 870.4,449.536L870.4,450.56C869.717,451.243 869.376,451.925 869.376,452.608L869.376,453.632L867.328,456.704C867.328,458.752 866.304,460.459 864.256,461.824L729.088,775.168C727.04,775.851 725.675,778.24 724.992,782.336L724.992,783.36L723.968,784.384L723.968,785.408L722.944,786.432L720.896,787.456C720.896,788.821 719.872,790.528 717.824,792.576L716.8,793.6L715.776,795.648L714.752,795.648L714.752,798.72L711.68,798.72L710.656,799.744L709.632,799.744L709.632,800.768L697.344,798.72C697.344,798.037 697.003,797.355 696.32,796.672L663.552,740.352ZM429.056,740.352L460.8,666.624C462.165,662.528 463.531,659.797 464.896,658.432L464.896,657.408C464.896,656.725 465.067,656.213 465.408,655.872C465.749,655.531 465.92,655.019 465.92,654.336L465.92,651.264C467.285,649.216 468.139,647.168 468.48,645.12C468.821,643.072 469.333,640.683 470.016,637.952L470.016,636.928C470.699,633.515 471.723,631.125 473.088,629.76L473.088,626.688C473.088,624.64 473.429,622.933 474.112,621.568L474.112,613.376C474.112,612.011 474.453,610.645 475.136,609.28L475.136,578.56L474.112,576.512L474.112,569.344C473.429,567.296 473.088,564.907 473.088,562.176C473.088,561.493 472.405,561.152 471.04,561.152L471.04,557.056L470.016,555.008C470.016,553.643 469.675,552.619 468.992,551.936C468.992,549.888 468.309,548.181 466.944,546.816L466.944,545.792C466.261,545.109 466.091,544.256 466.432,543.232C466.773,542.208 466.261,541.013 464.896,539.648L306.176,271.36L405.504,47.104C409.6,37.547 413.525,30.891 417.28,27.136C421.035,23.381 423.253,21.504 423.936,21.504L437.248,22.528C437.248,23.211 437.931,24.235 439.296,25.6L633.856,358.4L633.856,359.424C634.539,359.424 635.563,360.107 636.928,361.472L636.928,363.52C637.611,364.203 637.952,364.885 637.952,365.568L637.952,366.592C638.635,366.592 638.976,367.957 638.976,370.688L638.976,371.712L640,372.736L640,378.88C640,379.563 640.341,379.904 641.024,379.904L641.024,395.264C642.389,395.264 643.072,395.435 643.072,395.776C643.072,396.117 643.413,396.288 644.096,396.288L644.096,402.432L641.024,405.504L641.024,419.84L640,420.864L640,429.056L638.976,430.08L638.976,436.224L637.952,437.248L637.952,438.272L636.416,444.416C631.979,476.501 631.125,478.208 633.856,449.536L633.856,450.56C633.173,451.243 632.832,451.925 632.832,452.608L632.832,456.704L631.808,456.704C631.808,458.752 631.125,460.459 629.76,461.824L493.568,775.168C491.52,777.216 490.155,779.605 489.472,782.336L489.472,783.36L488.448,784.384L488.448,785.408C487.765,785.408 487.083,785.749 486.4,786.432L486.4,787.456C485.717,788.821 485.035,789.845 484.352,790.528L481.28,793.6L481.28,794.624L479.232,794.624L479.232,795.648L478.208,795.648L478.208,798.72L477.184,798.72L477.184,799.744L474.112,799.744L474.112,800.768L461.824,798.72L460.8,796.672C460.117,795.989 459.776,795.477 459.776,795.136C459.776,794.795 459.435,794.283 458.752,793.6L429.056,740.352ZM282.624,977.92L279.552,984.064L274.432,987.136L273.408,989.184L272.384,989.184L272.384,990.208L271.36,990.208L258.048,989.184C258.048,987.819 257.877,987.136 257.536,987.136C257.195,987.136 256.683,986.453 256,985.088L61.44,652.288C56.661,642.731 54.101,627.712 53.76,607.232C53.419,586.752 57.344,567.296 65.536,548.864L201.728,236.544C206.507,226.987 210.603,220.501 214.016,217.088L220.16,210.944L233.472,212.992L235.52,217.088L431.104,548.864C431.104,549.547 431.275,549.888 431.616,549.888C431.957,549.888 432.128,550.571 432.128,551.936L432.128,552.96C433.493,553.643 434.176,554.325 434.176,555.008L434.176,557.056C434.859,557.739 435.2,559.104 435.2,561.152L435.2,562.176L437.248,562.176L437.248,563.2C437.248,565.248 437.589,567.296 438.272,569.344L438.272,578.56L439.296,579.584L439.296,600.064L438.272,602.112L438.272,612.352L437.248,615.424L437.248,621.568C435.883,622.933 435.2,624.64 435.2,626.688L435.2,627.712L434.176,628.736C434.176,630.784 433.835,632.832 433.152,634.88C432.469,636.928 431.787,638.635 431.104,640C431.104,642.048 430.763,643.072 430.08,643.072L430.08,647.168C429.397,648.533 428.715,649.557 428.032,650.24C427.349,650.923 427.008,651.947 427.008,653.312L289.792,963.584L286.72,972.8L286.72,973.824L283.648,974.848C283.648,976.213 283.477,976.896 283.136,976.896C282.795,976.896 282.624,977.237 282.624,977.92ZM493.568,989.184C493.568,987.819 493.227,987.136 492.544,987.136C491.861,987.136 491.179,986.453 490.496,985.088L393.216,820.224L415.744,768L438.272,806.912C442.368,815.104 449.195,820.224 458.752,822.272L464.896,822.272C466.261,823.637 468.309,824.32 471.04,824.32L483.328,826.368L492.544,826.368L494.592,825.344L496.64,825.344L498.688,824.32C500.053,823.637 501.077,822.955 501.76,822.272L503.808,822.272C504.491,820.907 505.003,820.053 505.344,819.712C505.685,819.371 506.197,818.517 506.88,817.152L512,814.08C512.683,814.08 513.024,813.056 513.024,811.008C514.389,809.643 515.413,808.789 516.096,808.448C516.779,808.107 517.461,807.253 518.144,805.888L518.144,802.816C520.192,802.133 521.216,801.109 521.216,799.744C521.899,799.061 522.923,797.696 524.288,795.648C524.971,794.283 525.483,792.917 525.824,791.552C526.165,790.187 527.019,788.48 528.384,786.432L647.168,515.072L667.648,548.864C667.648,549.547 667.989,550.571 668.672,551.936L668.672,552.96L669.696,555.008L669.696,557.056C670.379,557.739 670.72,559.104 670.72,561.152L670.72,562.176C671.403,564.224 671.744,566.613 671.744,569.344L672.768,570.368L672.768,581.632L675.84,583.68L675.84,596.992L672.768,596.992L672.768,612.352L671.744,612.352L671.744,619.52L670.72,621.568L670.72,626.688L669.696,627.712L669.696,628.736C669.013,630.784 668.672,632.832 668.672,634.88C668.672,636.928 668.331,638.635 667.648,640C666.965,640.683 666.624,641.365 666.624,642.048C665.941,642.048 665.259,642.389 664.576,643.072L664.576,645.12L663.552,647.168C663.552,648.533 662.869,650.581 661.504,653.312L525.312,963.584L524.288,965.632L522.24,970.752C522.24,971.435 522.069,971.776 521.728,971.776C521.387,971.776 521.216,972.117 521.216,972.8L520.192,973.824L520.192,974.848L518.144,977.92C517.461,979.285 516.779,980.309 516.096,980.992C515.413,981.675 514.731,982.699 514.048,984.064L508.928,989.184L506.88,989.184L505.856,990.208L493.568,989.184ZM729.088,989.184C729.088,987.819 728.747,987.136 728.064,987.136C727.381,987.136 726.699,986.453 726.016,985.088L629.76,820.224L652.288,768L672.768,806.912C675.499,812.373 678.741,815.957 682.496,817.664C686.251,819.371 689.835,820.907 693.248,822.272L699.392,822.272C702.123,823.637 704.853,824.32 707.584,824.32L705.536,824.32L718.848,826.368L728.064,826.368C728.747,825.685 729.771,825.344 731.136,825.344C731.819,824.661 732.843,824.32 734.208,824.32L735.232,823.296L736.256,823.296L737.28,822.272L739.328,822.272C740.011,820.907 741.035,819.2 742.4,817.152C745.131,815.787 746.837,814.763 747.52,814.08L748.544,811.008C749.227,809.643 750.08,808.789 751.104,808.448C752.128,808.107 753.323,807.253 754.688,805.888L754.688,803.84C755.371,803.157 755.712,802.475 755.712,801.792L755.712,800.768C757.077,799.403 757.76,797.696 757.76,795.648C759.125,794.283 760.149,792.917 760.832,791.552C761.515,790.187 762.539,788.48 763.904,786.432L881.664,515.072L902.144,548.864C902.144,549.547 902.485,550.571 903.168,551.936L903.168,552.96L904.192,555.008L904.192,558.08L906.24,560.128L906.24,563.2C907.605,564.565 908.288,566.613 908.288,569.344L908.288,572.416C908.971,573.099 909.312,573.781 909.312,574.464L909.312,608.256L908.288,611.328L908.288,617.472L906.24,619.52L906.24,621.568C906.24,623.616 905.557,625.323 904.192,626.688L904.192,628.736C903.509,630.784 903.168,632.832 903.168,634.88C903.168,636.928 902.827,638.635 902.144,640L902.144,642.048L901.12,643.072L901.12,644.096L900.096,645.12L900.096,647.168C900.096,648.533 899.584,649.557 898.56,650.24C897.536,650.923 896.683,651.947 896,653.312L760.832,963.584L759.808,965.632L757.76,970.752C757.76,971.435 757.589,971.776 757.248,971.776C756.907,971.776 756.736,972.117 756.736,972.8L755.712,973.824L755.712,974.848L754.688,977.92L752.64,977.92C751.275,979.285 750.592,980.309 750.592,980.992C750.592,981.675 750.251,982.699 749.568,984.064L748.544,984.064L748.544,985.088L747.52,986.112L746.496,986.112L746.496,987.136L744.448,987.136L744.448,989.184L742.4,989.184L741.376,990.208L729.088,989.184Z" style="fill-rule:nonzero;"/>
    </g>
</svg>
