<?xml version="1.0" encoding="UTF-8" standalone="no"?>
<!DOCTYPE svg PUBLIC "-//W3C//DTD SVG 1.1//EN" "http://www.w3.org/Graphics/SVG/1.1/DTD/svg11.dtd">
<svg width="100%" height="100%" viewBox="0 0 122 122" version="1.1" xmlns="http://www.w3.org/2000/svg" xmlns:xlink="http://www.w3.org/1999/xlink" xml:space="preserve" xmlns:serif="http://www.serif.com/" style="fill-rule:evenodd;clip-rule:evenodd;stroke-linejoin:round;stroke-miterlimit:2;">
    <g transform="matrix(1.138362,0,0,1.138362,-77.4086,-76.270239)">
        <circle cx="121.341" cy="120.341" r="53.341" style="fill:rgb(237,212,173);"/>
    </g>
    <g transform="matrix(4.166667,0,0,4.166667,31.612883,56.376936)">
        <path d="M0,2.627C0.542,2.845 1.15,2.834 1.6,3.3C0.832,3.21 0.119,3.116 -0.596,3.046C-1.011,3.005 -1.434,3.036 -1.845,2.975C-2.813,2.83 -3.761,2.912 -4.703,3.153C-4.902,3.204 -4.97,3.299 -4.914,3.499C-4.779,3.977 -4.676,4.465 -4.517,4.934C-4.122,6.096 -3.578,7.182 -2.842,8.154C-2.521,8.019 -2.239,7.856 -1.936,7.779C-0.791,7.49 0.352,7.174 1.514,6.973C2.694,6.769 3.897,6.693 5.088,6.547C5.248,6.527 5.421,6.453 5.538,6.348C5.577,6.314 5.47,6.093 5.402,5.973C5.344,5.87 5.254,5.783 5.166,5.7C4.757,5.312 4.338,4.933 3.932,4.541C3.546,4.167 3.52,3.794 3.902,3.432C4.679,2.694 5.447,1.94 6.281,1.272C7.116,0.602 8.028,0.029 8.892,-0.577C7.402,-1.761 5.697,-2.466 3.644,-2.341C4.075,-2.933 4.44,-3.435 4.806,-3.936C4.674,-3.99 4.558,-3.983 4.501,-3.922C4.139,-3.53 3.74,-3.158 3.456,-2.714C3.251,-2.394 3.027,-2.293 2.665,-2.308C2.882,-3.167 3.549,-3.755 3.925,-4.529C3.64,-4.419 3.36,-4.29 3.203,-4.073C2.847,-3.576 2.555,-3.034 2.228,-2.516C2.158,-2.405 2.047,-2.321 1.955,-2.224C1.918,-2.248 1.881,-2.273 1.843,-2.297C1.919,-2.709 1.995,-3.12 2.071,-3.532C2.003,-3.553 1.935,-3.574 1.868,-3.595C1.702,-3.23 1.544,-2.86 1.365,-2.502C1.317,-2.405 1.21,-2.286 1.116,-2.272C-1.116,-1.938 -3.108,-1.021 -4.959,0.233C-5.027,0.278 -5.1,0.374 -5.101,0.448C-5.112,1.101 -5.108,1.754 -5.108,2.328C-4.156,2.281 -3.27,2.237 -2.364,2.193C-2.235,1.829 -2.249,1.326 -1.65,1.084C-1.701,1.536 -1.747,1.932 -1.792,2.327C-1.75,2.35 -1.709,2.373 -1.667,2.396C-1.574,2.291 -1.454,2.2 -1.394,2.078C-1.104,1.491 -0.763,0.959 -0.082,0.734C-0.389,1.268 -0.695,1.803 -1,2.334C-0.79,2.535 -0.655,2.546 -0.493,2.319C-0.307,2.058 -0.096,1.804 0.149,1.602C0.34,1.446 0.548,1.192 0.928,1.391C0.608,1.817 0.308,2.217 0,2.627M-1.091,10.09C4.223,14.793 12.167,13.871 16.256,8.819C14.496,7.991 12.717,7.294 10.729,7.291C11.369,6.873 12.088,7.162 12.745,7.018C12.853,5.467 12.873,5.555 13.378,5.432C13.308,5.827 13.24,6.216 13.17,6.604C13.106,6.961 13.282,7.061 13.634,7.016C13.767,6.057 14.129,5.22 14.987,4.665C14.997,4.814 14.961,4.944 14.915,5.07C14.704,5.657 14.482,6.241 14.285,6.832C14.252,6.929 14.322,7.061 14.345,7.177C14.469,7.115 14.623,7.08 14.712,6.985C14.993,6.681 15.223,6.324 15.526,6.046C15.72,5.87 16.01,5.799 16.257,5.681C16.283,5.723 16.309,5.765 16.336,5.807C15.97,6.322 15.604,6.837 15.22,7.376C15.879,7.528 16.464,7.663 17.074,7.804C19.209,4.426 19.667,0.839 18.434,-2.966C18.368,-3.17 18.285,-3.284 18.04,-3.247C17.579,-3.178 17.113,-3.142 16.65,-3.084C16.228,-3.031 15.807,-2.966 15.344,-2.901C15.582,-3.454 15.79,-3.934 15.997,-4.414C15.949,-4.446 15.902,-4.478 15.854,-4.51C15.72,-4.382 15.554,-4.275 15.46,-4.123C15.278,-3.829 15.092,-3.524 14.99,-3.198C14.87,-2.811 14.661,-2.612 14.241,-2.623C14.228,-3.347 14.596,-4.059 14.387,-4.809C14.269,-4.693 14.183,-4.573 14.147,-4.439C14.003,-3.9 13.854,-3.361 13.747,-2.814C13.682,-2.478 13.542,-2.297 13.144,-2.321L13.144,-4.186C13.104,-4.194 13.063,-4.203 13.023,-4.211C12.966,-4.035 12.89,-3.862 12.855,-3.682C12.767,-3.236 12.664,-2.79 12.633,-2.339C12.616,-2.086 12.5,-2.025 12.311,-1.924C11.227,-1.344 10.108,-0.813 9.094,-0.127C8.167,0.501 7.317,1.261 6.512,2.045C6.033,2.511 5.699,3.13 5.316,3.692C5.164,3.915 5.225,4.128 5.457,4.276C5.927,4.579 6.413,4.859 6.867,5.184C7.419,5.58 7.961,5.994 8.468,6.444C8.618,6.576 8.701,6.865 8.685,7.073C8.675,7.204 8.436,7.41 8.285,7.425C6.955,7.554 5.637,7.74 4.322,7.989C2.752,8.287 1.243,8.724 -0.17,9.471C-0.482,9.636 -0.761,9.866 -1.091,10.09M-6.085,1.046C-6.183,-6.01 -0.368,-12.166 7.208,-12.042C14.384,-11.924 20.089,-6.075 20.058,1.1C20.028,8.155 14.414,14.132 6.974,14.129C-0.545,14.126 -6.165,8.028 -6.085,1.046" style="fill:rgb(209,149,29);fill-rule:nonzero;"/>
    </g>
</svg>
