<?xml version="1.0" encoding="UTF-8" standalone="no"?>
<!DOCTYPE svg PUBLIC "-//W3C//DTD SVG 1.1//EN" "http://www.w3.org/Graphics/SVG/1.1/DTD/svg11.dtd">
<svg width="100%" height="100%" viewBox="0 0 109 110" version="1.1" xmlns="http://www.w3.org/2000/svg" xmlns:xlink="http://www.w3.org/1999/xlink" xml:space="preserve" xmlns:serif="http://www.serif.com/" style="fill-rule:evenodd;clip-rule:evenodd;stroke-linejoin:round;stroke-miterlimit:2;">
    <g transform="matrix(0.984234,0,0,0.984234,-64.660886,-63.637675)">
        <circle cx="121.341" cy="120.341" r="53.341" style="fill:rgb(237,212,173);"/>
    </g>
    <g transform="matrix(4.166667,0,0,4.166667,84.529173,86.024687)">
        <path d="M0,-15.304C-0.007,-15.266 -0.014,-15.227 -0.02,-15.189C0.745,-14.804 1.575,-14.864 2.463,-14.841C2.387,-14.962 2.358,-15.059 2.319,-15.063C1.547,-15.15 0.773,-15.226 0,-15.304M-4.839,-17.108C-4.846,-17.069 -4.853,-17.031 -4.861,-16.992C-3.77,-16.291 -2.554,-16.264 -1.314,-16.324C-0.822,-16.348 -0.323,-16.329 0.167,-16.277C0.569,-16.233 0.963,-16.111 1.36,-16.024C1.378,-16.064 1.395,-16.105 1.413,-16.146C1.227,-16.252 1.049,-16.38 0.852,-16.457C0.567,-16.57 0.272,-16.665 -0.027,-16.733C-0.285,-16.792 -0.569,-16.876 -0.815,-16.824C-1.755,-16.623 -2.671,-16.727 -3.594,-16.916C-4.005,-17 -4.423,-17.045 -4.839,-17.108M-19.175,-9.998C-19.229,-8.864 -19.281,-7.775 -19.336,-6.63C-19.177,-6.678 -19.113,-6.69 -19.056,-6.716C-18.249,-7.087 -17.635,-7.802 -16.712,-7.989C-16.411,-8.05 -16.428,-8.529 -16.696,-8.733C-16.929,-8.91 -17.152,-9.1 -17.386,-9.275C-17.885,-9.649 -18.44,-9.887 -19.175,-9.998M-3.372,-15.63C-3.37,-15.679 -3.368,-15.729 -3.366,-15.779C-3.783,-15.892 -4.204,-15.99 -4.616,-16.12C-5.481,-16.395 -6.355,-16.533 -7.263,-16.376C-7.418,-16.349 -7.584,-16.375 -7.744,-16.393C-7.992,-16.421 -8.239,-16.494 -8.487,-16.494C-9.05,-16.494 -9.614,-16.43 -10.175,-16.452C-10.512,-16.465 -10.856,-16.56 -11.177,-16.674C-11.62,-16.832 -12.05,-16.983 -12.53,-16.858C-12.812,-16.785 -13.108,-16.761 -13.387,-16.678C-13.727,-16.575 -14.055,-16.433 -14.388,-16.309C-14.383,-16.252 -14.378,-16.195 -14.373,-16.139C-14.21,-16.076 -14.052,-15.99 -13.883,-15.955C-13.467,-15.869 -13.045,-15.812 -12.628,-15.734C-11.753,-15.57 -10.869,-15.524 -10.003,-15.714C-9.14,-15.903 -8.289,-15.878 -7.428,-15.774C-7.192,-15.745 -6.959,-15.7 -6.724,-15.667C-6.25,-15.6 -5.778,-15.499 -5.303,-15.481C-4.798,-15.463 -4.289,-15.522 -3.783,-15.556C-3.645,-15.565 -3.509,-15.604 -3.372,-15.63M-7.665,-15.013C-7.656,-15.041 -7.647,-15.069 -7.638,-15.096C-7.77,-15.141 -7.9,-15.212 -8.036,-15.225C-8.449,-15.265 -8.864,-15.29 -9.278,-15.308C-10.244,-15.349 -11.21,-15.372 -12.175,-15.422C-12.857,-15.458 -13.537,-15.558 -14.219,-15.567C-14.901,-15.577 -15.584,-15.51 -16.267,-15.47C-16.339,-15.466 -16.433,-15.434 -16.475,-15.381C-16.749,-15.04 -17.011,-14.689 -17.285,-14.33C-17.198,-14.282 -17.166,-14.258 -17.13,-14.246C-16.342,-13.983 -15.598,-14.135 -14.889,-14.51C-14.359,-14.79 -13.811,-14.851 -13.262,-14.638C-12.106,-14.189 -10.97,-13.994 -9.755,-14.484C-9.095,-14.751 -8.364,-14.843 -7.665,-15.013M-6.975,-14.84L-6.962,-14.727C-6.887,-14.677 -6.818,-14.605 -6.735,-14.582C-6.137,-14.415 -5.543,-14.223 -4.934,-14.109C-4.469,-14.022 -3.98,-13.984 -3.509,-14.022C-2.918,-14.07 -2.338,-14.163 -1.78,-13.889C-1.492,-13.747 -1.222,-13.565 -0.926,-13.449C-0.518,-13.29 -0.098,-13.084 0.325,-13.063C1.41,-13.009 2.498,-13.045 3.625,-13.045C3.465,-13.328 3.328,-13.604 3.155,-13.856C3.105,-13.93 2.943,-13.981 2.849,-13.962C1.89,-13.767 0.956,-13.818 0.046,-14.192C-0.525,-14.427 -1.075,-14.747 -1.668,-14.88C-2.42,-15.048 -3.204,-15.119 -3.976,-15.13C-4.801,-15.142 -5.629,-15.041 -6.454,-14.975C-6.63,-14.961 -6.801,-14.886 -6.975,-14.84M4.67,-5.493C4.731,-5.521 4.792,-5.55 4.853,-5.578C4.863,-6.62 4.878,-7.661 4.87,-8.702C4.87,-8.778 4.703,-8.911 4.609,-8.915C4.212,-8.932 3.81,-8.944 3.417,-8.894C2.829,-8.82 2.246,-8.696 1.662,-8.585C1.388,-8.533 1.1,-8.503 0.85,-8.392C0.246,-8.125 0.219,-7.675 0.728,-7.257C1.889,-6.304 3.347,-6.06 4.67,-5.493M3.179,-1.29C2.857,-1.355 2.61,-1.396 2.366,-1.456C1.256,-1.728 0.172,-2.06 -1.014,-1.973C-2.388,-1.872 -3.644,-1.408 -4.918,-0.974C-5.066,-0.924 -5.259,-0.712 -5.256,-0.579C-5.253,-0.418 -5.097,-0.19 -4.946,-0.117C-4.676,0.013 -4.364,0.066 -4.064,0.122C-3.266,0.27 -2.455,0.358 -1.671,0.556C-1.13,0.693 -0.651,1.02 -0.514,1.621C-0.45,1.902 -0.503,2.21 -0.503,2.556C1.01,1.538 2.211,0.297 3.179,-1.29M-10.199,-11.164C-10.189,-11.192 -10.18,-11.22 -10.171,-11.249C-9.891,-11.269 -9.603,-11.256 -9.331,-11.316C-8.253,-11.557 -7.181,-11.83 -6.103,-12.073C-5.219,-12.272 -4.328,-12.439 -3.444,-12.636C-3.32,-12.664 -3.133,-12.77 -3.123,-12.858C-3.106,-13.004 -3.161,-13.232 -3.268,-13.305C-3.515,-13.472 -3.8,-13.608 -4.089,-13.682C-4.629,-13.821 -5.188,-13.887 -5.73,-14.019C-6.415,-14.185 -7.096,-14.24 -7.795,-14.121C-8.428,-14.014 -9.066,-13.931 -9.704,-13.855C-10.589,-13.749 -11.475,-13.635 -12.363,-13.571C-12.839,-13.537 -13.345,-13.519 -13.798,-13.64C-14.712,-13.885 -15.577,-13.744 -16.447,-13.49C-16.544,-13.462 -16.618,-13.353 -16.703,-13.281C-16.616,-13.22 -16.536,-13.128 -16.44,-13.104C-16.003,-12.997 -15.545,-12.954 -15.124,-12.806C-14.049,-12.426 -12.997,-11.98 -11.921,-11.604C-11.364,-11.409 -10.774,-11.308 -10.199,-11.164M4.806,-9.441C4.678,-9.97 4.525,-10.553 4.401,-11.142C4.341,-11.426 4.18,-11.557 3.914,-11.564C3.405,-11.576 2.896,-11.564 2.388,-11.577C1.777,-11.592 1.149,-11.54 0.56,-11.664C-0.434,-11.875 -1.402,-12.178 -2.442,-12.023C-3.047,-11.932 -3.669,-11.941 -4.27,-11.832C-4.493,-11.791 -4.804,-11.571 -4.847,-11.381C-4.89,-11.192 -4.696,-10.884 -4.519,-10.724C-4.077,-10.324 -3.669,-9.923 -3.431,-9.357C-3.34,-9.14 -3.137,-8.869 -2.936,-8.82C-2.439,-8.697 -1.91,-8.625 -1.4,-8.648C-0.807,-8.674 -0.222,-8.85 0.371,-8.912C0.81,-8.958 1.263,-8.88 1.698,-8.939C2.715,-9.076 3.726,-9.263 4.806,-9.441M-15.918,0.986C-15.72,1.13 -15.603,1.199 -15.506,1.289C-13.284,3.345 -10.657,4.425 -7.637,4.571C-7.303,4.587 -7.019,4.519 -6.729,4.331C-6.445,4.146 -6.112,4.02 -5.784,3.924C-4.814,3.641 -3.761,3.625 -2.885,3.043C-2.479,2.773 -2.086,2.478 -1.719,2.159C-1.565,2.025 -1.578,1.804 -1.81,1.705C-2.13,1.569 -2.449,1.412 -2.784,1.34C-4.227,1.03 -5.667,1.068 -7.087,1.479C-8.116,1.777 -9.07,1.647 -10.03,1.165C-10.617,0.87 -11.273,0.636 -11.92,0.557C-12.61,0.473 -13.33,0.575 -14.032,0.65C-14.616,0.712 -15.192,0.853 -15.918,0.986M4.594,-4.638C4.17,-4.75 3.822,-4.836 3.478,-4.935C3.197,-5.016 2.926,-5.16 2.641,-5.192C1.686,-5.3 0.957,-5.831 0.351,-6.49C-0.081,-6.961 -0.541,-7.311 -1.138,-7.494C-1.658,-7.654 -2.181,-7.808 -2.706,-7.949C-3.485,-8.157 -4.258,-8.191 -5.022,-7.864C-5.239,-7.771 -5.481,-7.707 -5.716,-7.69C-6.744,-7.614 -7.775,-7.574 -8.802,-7.494C-9.198,-7.463 -9.595,-7.386 -9.977,-7.279C-10.253,-7.203 -10.343,-6.959 -10.204,-6.704C-10.11,-6.533 -9.971,-6.361 -9.808,-6.26C-9.348,-5.973 -8.887,-5.667 -8.387,-5.471C-7.755,-5.223 -7.09,-5.055 -6.429,-4.893C-5.573,-4.684 -4.702,-4.535 -3.848,-4.32C-3.358,-4.197 -2.895,-3.97 -2.408,-3.834C-0.965,-3.433 0.528,-3.474 2.005,-3.365C2.676,-3.315 3.343,-3.206 4.098,-3.113C4.242,-3.556 4.422,-4.109 4.594,-4.638M-19.033,-10.401C-18.491,-10.139 -18.014,-9.921 -17.548,-9.68C-17.078,-9.437 -16.627,-9.158 -16.154,-8.92C-15.715,-8.699 -15.146,-8.695 -14.932,-8.112C-14.892,-8.003 -14.702,-7.889 -14.576,-7.882C-14.113,-7.857 -13.628,-7.789 -13.189,-7.895C-12.112,-8.153 -11.067,-8.501 -9.93,-8.194C-9.138,-7.98 -8.323,-8.021 -7.544,-8.299C-7.237,-8.408 -6.944,-8.582 -6.677,-8.771C-6.288,-9.045 -5.928,-9.359 -5.556,-9.655C-5.409,-9.772 -5.247,-9.873 -5.117,-10.006C-4.858,-10.269 -4.939,-10.699 -5.258,-10.891C-5.608,-11.101 -5.973,-11.223 -6.389,-11.186C-7.283,-11.107 -8.179,-11.053 -9.071,-10.962C-9.846,-10.882 -10.614,-10.751 -11.381,-11.021C-12.525,-11.423 -13.666,-11.835 -14.821,-12.203C-15.797,-12.514 -16.808,-12.65 -17.833,-12.55C-18.027,-12.531 -18.311,-12.407 -18.374,-12.257C-18.643,-11.617 -18.844,-10.949 -19.033,-10.401M-4.089,-3.186C-4.334,-3.674 -4.782,-3.942 -5.303,-4.051C-6.376,-4.276 -7.456,-4.476 -8.538,-4.647C-10.034,-4.884 -11.308,-5.527 -12.359,-6.618C-12.43,-6.692 -12.533,-6.764 -12.63,-6.779C-13.417,-6.897 -14.188,-7.055 -15.008,-6.963C-16.227,-6.826 -17.237,-6.146 -18.379,-5.823C-18.591,-5.763 -18.785,-5.622 -18.967,-5.491C-19.044,-5.436 -19.127,-5.292 -19.106,-5.216C-18.859,-4.317 -18.592,-3.423 -18.338,-2.554C-17.686,-2.665 -17.149,-2.764 -16.609,-2.847C-16.142,-2.919 -15.53,-2.633 -15.343,-2.23C-15.286,-2.106 -15.291,-1.856 -15.374,-1.781C-15.668,-1.516 -15.999,-1.287 -16.334,-1.074C-16.564,-0.927 -16.816,-0.755 -16.722,-0.488C-16.652,-0.292 -16.4,-0.062 -16.199,-0.029C-15.742,0.046 -15.262,0.052 -14.799,0.011C-13.229,-0.128 -11.672,-0.119 -10.193,0.489C-9.288,0.862 -8.444,0.685 -7.61,0.353C-7.389,0.266 -7.123,-0.018 -7.105,-0.231C-7.077,-0.561 -7.411,-0.734 -7.719,-0.831C-7.898,-0.888 -8.084,-0.923 -8.265,-0.973C-8.885,-1.14 -9.509,-1.295 -10.12,-1.489C-10.251,-1.531 -10.422,-1.717 -10.421,-1.835C-10.419,-1.966 -10.256,-2.112 -10.134,-2.217C-10.061,-2.279 -9.932,-2.288 -9.826,-2.296C-8.352,-2.406 -6.876,-2.497 -5.404,-2.627C-4.93,-2.669 -4.377,-2.597 -4.089,-3.186M5.867,-7.56C5.91,-0.462 0.23,5.542 -7.231,5.527C-14.742,5.511 -20.287,-0.588 -20.287,-7.578C-20.287,-14.619 -14.523,-20.846 -6.831,-20.641C0.263,-20.453 5.906,-14.666 5.867,-7.56" style="fill:rgb(68,86,108);fill-rule:nonzero;"/>
    </g>
</svg>
