<?xml version="1.0" encoding="UTF-8" standalone="no"?>
<!DOCTYPE svg PUBLIC "-//W3C//DTD SVG 1.1//EN" "http://www.w3.org/Graphics/SVG/1.1/DTD/svg11.dtd">
<svg width="100%" height="100%" viewBox="0 0 109 110" version="1.1" xmlns="http://www.w3.org/2000/svg" xmlns:xlink="http://www.w3.org/1999/xlink" xml:space="preserve" xmlns:serif="http://www.serif.com/" style="fill-rule:evenodd;clip-rule:evenodd;stroke-linejoin:round;stroke-miterlimit:2;">
    <g transform="matrix(0.984234,0,0,0.984234,-64.68146,-63.638397)">
        <circle cx="121.341" cy="120.341" r="53.341" style="fill:rgb(237,212,173);"/>
    </g>
    <g transform="matrix(4.166667,0,0,4.166667,15.105183,24.910857)">
        <path d="M0,14.726C0.907,15.843 1.922,16.732 3.094,17.44C3.178,17.491 3.364,17.431 3.474,17.371C4.396,16.864 5.31,16.341 6.232,15.833C6.49,15.691 6.766,15.583 7.117,15.421C4.756,14.534 2.46,14.116 0,14.726M7.303,3.455C7.341,3.464 7.378,3.472 7.416,3.481L7.416,8.983C7.47,8.99 7.525,8.997 7.579,9.004C8.351,7.069 9.171,5.151 9.664,3.104C10.153,4.757 10.84,6.261 12.233,7.319C12.269,7.303 12.305,7.287 12.341,7.271C12.231,6.172 12.121,5.073 12.019,4.057C12.719,4.496 13.437,4.946 14.154,5.397C14.201,5.28 14.195,5.242 14.174,5.217C13.219,4.088 12.355,2.887 11.739,1.546C11.106,0.167 10.592,-1.266 10.02,-2.672C9.97,-2.796 9.875,-2.901 9.801,-3.015C9.721,-2.906 9.609,-2.807 9.565,-2.685C8.672,-0.215 7.44,2.068 5.818,4.137C5.323,4.77 4.842,5.415 4.355,6.054C4.377,6.078 4.399,6.102 4.421,6.126C5.472,5.339 6.395,4.406 7.303,3.455M19.428,13.924C14.253,13.647 6.508,15.777 3.954,17.919C9.622,20.85 16.425,18.636 19.428,13.924M9.498,5.895C8.559,7.397 8.188,9.086 7.24,10.484C7.203,10.474 7.166,10.464 7.129,10.453C7.023,9.043 6.918,7.632 6.809,6.171C6.346,6.691 5.922,7.168 5.438,7.712C5.443,6.69 6.295,6.056 6.358,5.062C6.06,5.317 5.84,5.53 5.595,5.71C5.048,6.111 4.494,6.504 3.931,6.883C3.749,7.005 3.501,7.037 3.335,7.173C1.668,8.544 0.122,10.067 -1.747,11.183C-1.825,11.23 -1.9,11.414 -1.87,11.492C-1.493,12.473 -1.008,13.396 -0.376,14.229C-0.134,14.142 0.073,14.047 0.289,13.994C1.465,13.705 2.648,13.746 3.839,13.906C5.127,14.079 6.371,14.393 7.539,14.964C7.83,15.106 8.065,15.104 8.364,15.01C11.673,13.964 15.042,13.254 18.533,13.263C18.988,13.264 19.561,13.408 19.868,13.189C20.227,12.933 20.339,12.343 20.585,11.914C20.806,11.53 20.779,11.258 20.352,11.049C20.139,10.945 19.963,10.766 19.761,10.636C18.396,9.765 17.135,8.75 16.098,7.516C15.335,6.61 14.396,6.074 13.291,5.677C13.726,6.408 14.318,7.071 14.257,8.019C13.926,7.272 13.446,6.66 12.7,6.252C12.77,7.01 12.839,7.77 12.917,8.615C12.748,8.505 12.671,8.473 12.617,8.418C11.8,7.575 10.855,6.848 10.228,5.813C10.23,5.971 10.227,6.142 10.305,6.26C10.496,6.549 10.472,6.82 10.38,7.138C10.33,7.311 10.368,7.569 10.471,7.715C10.738,8.095 10.78,8.224 10.606,8.609C9.859,7.912 9.592,6.969 9.498,5.895M-3.624,7.11C-3.723,0.055 2.1,-6.124 9.711,-5.976C16.862,-5.838 22.55,-0.002 22.519,7.167C22.488,14.221 16.874,20.198 9.433,20.194C1.914,20.19 -3.705,14.092 -3.624,7.11" style="fill:rgb(37,49,47);fill-rule:nonzero;"/>
    </g>
</svg>
