<?xml version="1.0" encoding="UTF-8" standalone="no"?>
<!DOCTYPE svg PUBLIC "-//W3C//DTD SVG 1.1//EN" "http://www.w3.org/Graphics/SVG/1.1/DTD/svg11.dtd">
<svg width="100%" height="100%" viewBox="0 0 109 110" version="1.1" xmlns="http://www.w3.org/2000/svg" xmlns:xlink="http://www.w3.org/1999/xlink" xml:space="preserve" xmlns:serif="http://www.serif.com/" style="fill-rule:evenodd;clip-rule:evenodd;stroke-linejoin:round;stroke-miterlimit:2;">
    <g transform="matrix(0.984234,0,0,0.984234,-64.683276,-63.63566)">
        <circle cx="121.341" cy="120.341" r="53.341" style="fill:rgb(237,212,173);"/>
    </g>
    <g transform="matrix(4.166667,0,0,4.166667,20.09633,31.11997)">
        <path d="M0,11.051C-0.348,11.086 -0.472,11.28 -0.52,11.549C-0.603,12.02 -0.689,12.49 -0.763,12.962C-0.776,13.048 -0.771,13.168 -0.72,13.226C-0.491,13.493 -0.243,13.744 0,14.002L0,11.051ZM16.57,10.292C16.862,11.933 16.805,13.516 15.663,14.946C16.687,14.631 17.139,13.771 17.705,13.208C17.477,12.806 17.231,12.499 17.124,12.149C17.02,11.811 17.03,11.428 17.045,11.068C17.06,10.687 16.945,10.423 16.57,10.292M4.375,14.07C4.978,14.125 5.388,14.391 5.517,15.009C5.53,15.07 5.571,15.146 5.622,15.176C5.819,15.291 6.021,15.456 6.229,15.468C6.342,15.474 6.499,15.225 6.584,15.064C6.655,14.931 6.672,14.757 6.673,14.601C6.679,13.837 6.681,13.072 6.666,12.308C6.657,11.9 6.61,11.493 6.58,11.077C6.275,11.15 6.171,11.311 6.161,11.601C6.137,12.283 6.087,12.966 6.018,13.645C5.995,13.874 5.846,14.142 5.573,13.99C5.141,13.747 4.78,13.948 4.375,14.07M1.569,11.155C2.315,9.93 1.858,8.547 2.166,7.236C1.936,7.35 1.733,7.449 1.62,7.505C1.662,6.597 1.703,5.685 1.747,4.774C1.752,4.667 1.773,4.562 1.779,4.455C1.811,3.789 1.97,3.166 2.372,2.619C2.404,2.574 2.389,2.495 2.396,2.432C2.172,2.416 1.97,2.401 1.804,2.389C2.106,1.431 2.401,0.494 2.701,-0.457C1.906,-0.751 1.56,-1.323 1.414,-2.071C1.345,-2.423 1.189,-2.759 1.093,-3.044C0.547,-2.427 0.05,-1.867 -0.464,-1.287C-0.289,-1.264 -0.091,-1.238 0.196,-1.2C-0.007,-1.011 -0.146,-0.873 -0.294,-0.745C-0.766,-0.337 -1.244,0.064 -1.714,0.476C-1.802,0.553 -1.877,0.657 -1.927,0.764C-2.212,1.38 -2.487,2.001 -2.731,2.543C-1.853,2.238 -0.88,1.899 0.081,1.565C-0.14,1.956 -0.458,2.232 -0.922,2.346C-1.191,2.412 -1.457,2.518 -1.705,2.645C-2.48,3.042 -3.052,3.596 -3.141,4.53C-3.184,4.974 -3.286,5.412 -3.343,5.744C-2.597,5.499 -1.784,5.232 -0.905,4.943C-1.178,5.425 -1.533,5.679 -1.992,5.79C-3.486,6.15 -3.82,7.965 -3.163,8.902C-2.497,7.983 -1.309,8.053 -0.444,7.462C-0.635,7.746 -0.845,8.018 -1.117,8.197C-1.639,8.54 -2.211,8.81 -2.734,9.153C-2.953,9.298 -3.259,9.5 -3.126,9.836C-2.879,10.465 -2.581,11.073 -2.293,11.716C-1.51,10.953 -0.47,10.921 0.447,10.45L0.447,11.052C0.447,11.827 0.417,12.602 0.453,13.375C0.519,14.76 1.153,15.546 2.452,15.931C2.972,16.085 3.441,15.817 3.475,15.303C3.027,15.443 2.62,15.273 2.42,14.929C2.233,14.607 2.238,14.174 2.155,13.769C2.007,13.902 1.853,14.041 1.689,14.189C1.392,13.305 1.432,12.455 1.763,11.616C1.843,11.413 1.893,11.238 1.569,11.155M14.515,6.256C14.497,6.716 14.24,7.138 13.822,7.459C13.535,7.678 13.203,7.837 12.92,8.059C12.813,8.143 12.733,8.33 12.734,8.469C12.739,8.938 12.87,9.423 12.792,9.873C12.715,10.319 12.74,10.677 13.044,11.041C13.704,10.225 15.011,10.349 15.553,9.293C15.63,10.436 15.813,11.565 15.389,12.663C15.367,12.237 15.388,11.812 15.361,11.39C15.333,10.96 15.257,10.534 15.202,10.106C15.161,10.097 15.119,10.088 15.078,10.079C15,10.358 14.869,10.635 14.857,10.916C14.838,11.382 14.93,11.853 14.913,12.319C14.886,13.093 14.596,13.763 13.904,14.172C13.52,14.399 13.09,14.548 12.714,14.717C13.192,14.929 15.046,14.57 15.396,14.093C15.647,13.752 15.973,13.435 16.112,13.051C16.249,12.676 16.207,12.231 16.215,11.815C16.228,11.079 16.218,10.343 16.218,9.65C17.183,9.995 18.195,10.357 19.249,10.734C19.36,10.461 19.473,10.116 19.636,9.798C19.854,9.373 19.729,9.052 19.4,8.771C18.808,8.265 18.211,7.766 17.618,7.263C17.245,6.945 16.82,6.662 16.773,6.006C17.735,7.016 18.911,7.452 20.047,7.79C19.928,7.402 19.773,7.008 19.694,6.6C19.624,6.234 19.654,5.849 19.611,5.476C19.526,4.746 19.365,4.043 18.682,3.609C18.224,3.319 17.757,3.043 17.299,2.752C16.688,2.363 16.447,2.045 16.424,1.574C17.217,2.625 18.449,2.692 19.458,3.152C19.343,2.531 19.261,1.952 19.121,1.388C19.037,1.051 18.913,0.7 18.714,0.422C18.345,-0.094 17.715,-0.214 17.162,-0.431C16.625,-0.642 16.132,-1.021 16.049,-1.322C16.816,-1.042 17.61,-0.753 18.433,-0.454C18.266,-0.839 18.172,-1.165 17.995,-1.436C17.761,-1.797 17.528,-2.252 17.176,-2.424C16.349,-2.828 15.695,-3.364 15.233,-4.155C15.137,-4.319 14.985,-4.45 14.822,-4.639C14.748,-4.471 14.707,-4.376 14.664,-4.282C14.396,-3.694 14.146,-3.054 13.569,-2.731C12.766,-2.281 12.618,-1.454 12.247,-0.75C12.238,-0.733 12.278,-0.691 12.261,-0.721C12.964,-1.047 13.65,-1.365 14.335,-1.683C14.361,-1.653 14.387,-1.622 14.412,-1.592C14.167,-1.393 13.938,-1.168 13.671,-1.002C13.391,-0.828 13.064,-0.728 12.778,-0.561C12.485,-0.39 12.38,-0.13 12.445,0.227C12.54,0.75 12.584,1.283 12.648,1.802C12.437,1.751 12.192,1.692 11.917,1.626C12.197,2.141 12.457,2.617 12.725,3.108C13.253,2.873 13.798,2.631 14.345,2.388C14.245,2.779 14.019,3.066 13.637,3.24C13.419,3.338 13.204,3.457 13.015,3.602C12.918,3.676 12.826,3.828 12.826,3.945C12.827,4.865 12.85,5.785 12.868,6.759C12.441,6.991 12.441,6.991 12.758,7.562C13.351,7.121 13.933,6.688 14.515,6.256M8.178,10.702C8.216,10.687 8.253,10.671 8.291,10.656C8.42,10.796 8.525,10.978 8.682,11.069C9.3,11.426 9.935,11.753 10.563,12.094C10.946,12.302 11.352,12.481 11.703,12.735C12.048,12.985 12.337,13.314 12.66,13.616C12.66,13.148 12.736,12.661 12.64,12.211C12.53,11.702 12.377,11.126 12.044,10.76C11.474,10.133 10.763,9.629 10.084,9.108C9.618,8.749 9.202,8.366 8.898,7.801C10.079,8.561 11.202,9.283 12.3,9.99C12.261,9.48 12.239,8.922 12.169,8.37C12.111,7.921 12.038,7.467 11.897,7.04C11.669,6.348 11.04,6.052 10.464,5.705C9.897,5.362 9.377,4.959 9.136,4.355C10.185,4.97 11.248,5.592 12.279,6.196C12.279,5.818 12.227,5.409 12.291,5.02C12.412,4.283 12.358,3.571 12.088,2.889C11.818,2.207 11.425,1.621 10.691,1.327C10.372,1.2 10.09,0.981 9.795,0.797C9.124,0.377 8.685,-0.234 8.577,-0.954C9.435,0.341 10.638,0.931 12.02,1.135C11.99,0.84 11.925,0.549 11.94,0.262C11.974,-0.421 11.646,-0.893 11.113,-1.244C10.679,-1.53 10.21,-1.763 9.777,-2.049C9.484,-2.243 9.226,-2.489 8.894,-2.759C9.354,-2.619 9.716,-2.509 10.133,-2.381C10.001,-2.71 9.877,-2.923 9.831,-3.151C9.747,-3.573 9.49,-3.791 9.133,-4.005C8.511,-4.378 7.84,-4.729 7.565,-5.483C7.491,-5.687 7.416,-5.891 7.341,-6.095C7.22,-6.004 7.195,-5.91 7.157,-5.821C6.903,-5.211 6.71,-4.564 6.375,-4.002C5.962,-3.308 5.344,-2.777 4.658,-2.337C4.077,-1.964 3.541,-1.535 3.29,-0.863C3.05,-0.219 2.849,0.44 2.628,1.092C2.564,1.279 2.491,1.462 2.403,1.699C3.625,0.942 5.076,0.734 6.009,-0.395C5.902,0.047 5.704,0.419 5.33,0.657C4.937,0.907 4.512,1.109 4.121,1.363C3.217,1.949 2.51,2.726 2.319,3.805C2.175,4.624 2.207,5.474 2.16,6.319C3.524,5.464 5.11,4.952 6.078,3.551C5.69,4.403 5.132,5.117 4.359,5.615C3.405,6.229 2.669,6.961 2.579,8.162C2.542,8.655 2.518,9.149 2.464,9.64C2.432,9.927 2.353,10.209 2.292,10.512C3.397,9.922 4.443,9.364 5.55,8.773C5.004,9.504 4.262,9.844 3.563,10.232C2.43,10.862 1.748,12.111 1.944,13.235C2.488,12.808 3.004,12.307 3.607,11.955C4.289,11.557 5.059,11.312 5.772,10.963C6.191,10.758 6.574,10.481 6.997,10.223C6.997,11.768 7.014,13.287 6.985,14.804C6.977,15.201 6.939,15.643 6.518,15.894C5.963,16.225 5.666,16.204 5.006,15.799C4.861,15.711 4.732,15.598 4.595,15.496C5.118,16.341 6.205,16.915 7.357,16.522C7.718,16.399 7.822,16.234 7.784,15.887C7.743,15.512 7.738,15.134 7.717,14.758C7.756,14.754 7.796,14.749 7.835,14.745C7.879,14.958 7.908,15.176 7.971,15.384C8.241,16.283 8.656,16.761 9.668,16.789C10.587,16.815 11.421,16.557 12.207,16.077C12.562,15.86 12.97,15.705 13.374,15.601C13.659,15.528 13.979,15.587 14.283,15.587L14.283,15.466C13.427,15.364 12.571,15.336 11.711,15.555C11.755,14.667 11.519,14.335 10.834,14.31C10.922,14.392 11.012,14.455 11.075,14.538C11.37,14.931 11.169,15.698 10.761,15.752C10.041,15.849 9.443,15.385 9.345,14.659C9.251,13.971 9.172,13.28 9.046,12.597C9.004,12.367 8.841,12.159 8.732,11.941C8.698,11.959 8.663,11.976 8.629,11.994C8.589,12.611 8.549,13.229 8.508,13.846C8.475,13.848 8.442,13.849 8.408,13.851C8.332,12.801 8.255,11.752 8.178,10.702M-4.822,5.603C-4.916,-1.437 0.924,-7.686 8.651,-7.463C15.741,-7.258 21.422,-1.424 21.319,5.817C21.22,12.794 15.635,18.737 8.176,18.705C0.686,18.672 -4.911,12.583 -4.822,5.603" style="fill:rgb(150,78,55);fill-rule:nonzero;"/>
    </g>
</svg>
