<?xml version="1.0" encoding="UTF-8" standalone="no"?>
<!DOCTYPE svg PUBLIC "-//W3C//DTD SVG 1.1//EN" "http://www.w3.org/Graphics/SVG/1.1/DTD/svg11.dtd">
<svg width="100%" height="100%" viewBox="0 0 109 110" version="1.1" xmlns="http://www.w3.org/2000/svg" xmlns:xlink="http://www.w3.org/1999/xlink" xml:space="preserve" xmlns:serif="http://www.serif.com/" style="fill-rule:evenodd;clip-rule:evenodd;stroke-linejoin:round;stroke-miterlimit:2;">
    <g transform="matrix(4.166667,0,0,4.166667,104.068579,44.111825)">
        <path d="M0,4.89C0.329,2.758 0.296,0.733 -0.403,-1.312C-0.48,-0.239 -0.52,0.765 -0.632,1.762C-0.741,2.733 -0.924,3.696 -1.078,4.684C-0.731,4.75 -0.395,4.815 0,4.89M-20.222,7.289C-20.133,8.242 -20.047,9.159 -19.962,10.077C-19.978,10.079 -19.995,10.081 -20.012,10.083C-20.27,9.175 -20.529,8.267 -20.798,7.326C-21.509,7.396 -22.21,7.466 -22.92,7.536C-22.05,9.954 -18.486,13.367 -16.56,13.638C-16.568,13.582 -16.571,13.53 -16.582,13.48C-16.968,11.826 -17.356,10.172 -17.74,8.516C-17.866,7.97 -17.861,7.969 -18.413,8.047C-18.476,8.456 -18.54,8.872 -18.603,9.289C-18.637,9.294 -18.671,9.299 -18.705,9.304C-18.853,8.598 -19.001,7.892 -19.151,7.179C-19.406,7.193 -19.621,7.199 -19.834,7.218C-19.954,7.229 -20.071,7.261 -20.222,7.289M-2.32,4.501C-1.755,4.693 -1.653,4.654 -1.582,4.106C-1.49,3.396 -1.454,2.678 -1.386,1.965C-1.269,0.735 -1.137,-0.493 -1.03,-1.724C-0.998,-2.098 -0.909,-2.532 -1.053,-2.842C-1.399,-3.586 -1.868,-4.273 -2.288,-4.983C-2.331,-4.966 -2.374,-4.95 -2.418,-4.933C-2.549,-3.889 -2.68,-2.845 -2.812,-1.801C-2.905,-2.064 -2.955,-2.327 -2.956,-2.591C-2.96,-3.507 -2.944,-4.423 -2.94,-5.34C-2.94,-5.459 -2.919,-5.62 -2.984,-5.691C-3.345,-6.077 -3.73,-6.441 -4.172,-6.877C-4.306,-5.801 -4.425,-4.849 -4.548,-3.871C-4.735,-3.842 -4.94,-3.81 -5.186,-3.772L-5.186,3.24C-4.252,3.378 -3.288,3.52 -2.32,3.662L-2.32,4.501ZM-10.236,14.448C-6.61,14.782 -0.751,9.647 -0.257,5.705C-1.019,5.524 -1.786,5.341 -2.589,5.15C-2.75,5.652 -2.917,6.176 -3.085,6.701C-3.11,6.697 -3.134,6.693 -3.159,6.689C-3.099,5.919 -3.038,5.149 -2.975,4.357C-3.39,4.287 -3.782,4.221 -4.199,4.151C-4.47,5.919 -4.735,7.649 -5,9.379C-5.054,9.335 -5.066,9.296 -5.065,9.259C-5.014,7.632 -4.961,6.006 -4.912,4.379C-4.907,4.214 -4.84,4.016 -5.11,3.976C-5.545,3.912 -5.978,3.838 -6.414,3.767C-6.758,4.845 -7.094,5.895 -7.43,6.946C-7.442,6.94 -7.454,6.934 -7.466,6.929L-7.466,5.022C-7.923,4.993 -8.378,4.974 -8.831,4.933C-9.097,4.909 -9.176,5.013 -9.198,5.27C-9.295,6.43 -9.393,7.591 -9.528,8.748C-9.747,10.64 -9.996,12.529 -10.236,14.448M-12.859,14.571C-12.859,13.828 -12.838,13.142 -12.863,12.458C-12.98,9.335 -13.112,6.213 -13.232,3.091C-13.255,2.475 -13.244,2.485 -13.846,2.309C-13.981,2.269 -14.178,2.134 -14.189,2.026C-14.296,1.013 -14.368,-0.004 -14.452,-1.019C-14.502,-1.616 -14.556,-2.212 -14.609,-2.814L-15.371,-2.814C-15.394,-2.355 -15.416,-1.911 -15.438,-1.467C-15.461,-1.464 -15.484,-1.46 -15.508,-1.457C-15.717,-2.198 -15.926,-2.939 -16.139,-3.696C-16.437,-3.643 -16.734,-3.59 -17.064,-3.53C-16.977,-2.273 -16.89,-1.033 -16.804,0.208C-16.822,0.21 -16.84,0.212 -16.859,0.213C-17.135,-0.985 -17.412,-2.183 -17.699,-3.424C-17.988,-3.375 -18.241,-3.332 -18.486,-3.29C-18.454,-2.796 -18.424,-2.348 -18.395,-1.9C-18.418,-1.897 -18.441,-1.893 -18.464,-1.889C-18.571,-2.197 -18.679,-2.505 -18.788,-2.815C-19.415,-2.741 -20.027,-2.668 -20.64,-2.595C-20.241,-2.804 -19.835,-2.976 -19.416,-3.107C-19.12,-3.2 -18.908,-3.323 -18.968,-3.656C-18.417,-3.79 -17.896,-3.917 -17.403,-4.037C-17.58,-5.395 -17.749,-6.693 -17.925,-8.047C-20.061,-6.776 -21.645,-5.116 -22.734,-2.987C-22.786,-2.884 -22.83,-2.756 -22.82,-2.644C-22.726,-1.617 -22.609,-0.593 -22.521,0.434C-22.433,1.45 -22.371,2.469 -22.298,3.486C-22.328,3.491 -22.358,3.495 -22.388,3.5C-22.673,1.791 -22.958,0.082 -23.243,-1.628C-23.358,-1.523 -23.394,-1.423 -23.429,-1.322C-23.928,0.095 -24.042,1.559 -24.008,3.05C-23.982,4.234 -23.746,5.368 -23.38,6.485C-23.301,6.724 -23.209,6.839 -22.931,6.807C-22.464,6.753 -21.992,6.745 -21.522,6.716C-20.494,6.653 -19.467,6.589 -18.433,6.525C-18.412,6.75 -18.392,6.972 -18.37,7.21L-17.143,7.21C-17.025,7.729 -16.902,8.23 -16.797,8.736C-16.451,10.398 -16.114,12.062 -15.764,13.723C-15.738,13.848 -15.656,14.03 -15.559,14.061C-14.666,14.351 -13.755,14.564 -12.859,14.571M-24.976,2.506C-25.062,-4.519 -19.389,-10.474 -12.13,-10.585C-4.645,-10.699 1.184,-4.665 1.169,2.515C1.153,9.598 -4.472,15.589 -11.915,15.586C-19.434,15.584 -25.055,9.488 -24.976,2.506" style="fill:rgb(107,110,116);fill-rule:nonzero;"/>
    </g>
</svg>
