<?xml version="1.0" encoding="UTF-8" standalone="no"?>
<!DOCTYPE svg PUBLIC "-//W3C//DTD SVG 1.1//EN" "http://www.w3.org/Graphics/SVG/1.1/DTD/svg11.dtd">
<svg width="100%" height="100%" viewBox="0 0 109 110" version="1.1" xmlns="http://www.w3.org/2000/svg" xmlns:xlink="http://www.w3.org/1999/xlink" xml:space="preserve" xmlns:serif="http://www.serif.com/" style="fill-rule:evenodd;clip-rule:evenodd;stroke-linejoin:round;stroke-miterlimit:2;">
    <g transform="matrix(0.984234,0,0,0.984234,-64.660611,-63.636232)">
        <circle cx="121.341" cy="120.341" r="53.341" style="fill:rgb(237,212,173);"/>
    </g>
    <g transform="matrix(4.166667,0,0,4.166667,18.187528,18.644329)">
        <path d="M0,17.018C0.077,17.106 0.133,17.179 0.197,17.242C1.981,19.006 4.115,20.096 6.575,20.557C6.67,20.575 6.795,20.563 6.874,20.514C7.769,19.958 8.721,19.47 9.535,18.812C11.394,17.31 12.917,15.488 14.29,13.534C14.682,12.976 15.061,12.75 15.805,13.054C16.557,13.361 17.17,13.846 17.706,14.429C18.041,14.794 18.31,15.22 18.615,15.627C19.725,14.069 20.408,12.349 20.707,10.476C20.724,10.367 20.667,10.21 20.589,10.128C19.835,9.333 18.947,8.698 17.923,8.337C16.972,8.001 15.976,7.781 14.985,7.579C13.567,7.289 12.164,6.971 10.965,6.105C10.167,5.529 9.641,4.771 9.664,3.742C9.701,2.167 10.388,0.867 11.421,-0.276C12.139,-1.07 12.909,-1.805 13.866,-2.386C13.076,-2.695 12.29,-2.953 11.495,-3.185C11.356,-3.226 11.172,-3.186 11.028,-3.132C9.224,-2.457 7.397,-1.834 5.63,-1.073C4.147,-0.435 2.682,0.301 1.551,1.502C0.708,2.398 0.785,2.885 1.537,3.532C2.137,4.048 1.848,4.561 1.351,4.829C-0.032,5.575 -1.501,6.077 -3,6.513C-3.098,6.541 -3.239,6.612 -3.258,6.689C-3.317,6.931 -3.328,7.186 -3.358,7.439C-1.227,7.128 0.813,6.608 2.76,5.763C3.158,5.59 3.547,5.366 3.89,5.1C4.549,4.589 4.662,3.891 4.26,3.173C4.208,3.08 4.16,2.984 4.107,2.892C3.736,2.25 3.785,1.621 4.295,1.098C5.031,0.342 5.921,-0.164 6.967,-0.334C7.205,-0.373 7.474,-0.226 7.775,-0.154C7.456,0.384 7.195,0.817 6.941,1.255C6.437,2.125 6.348,3.088 6.576,4.019C6.868,5.213 7.725,6.033 8.787,6.594C9.787,7.123 10.839,7.551 11.846,8.067C12.126,8.21 12.411,8.465 12.548,8.74C12.796,9.24 12.687,9.494 12.067,9.935C10.468,11.074 8.637,11.623 6.725,11.933C5.686,12.102 4.642,12.242 3.598,12.385C2.844,12.487 2.09,12.595 1.332,12.659C0.027,12.768 -1.282,12.844 -2.626,12.937C-2.484,13.265 -2.336,13.58 -2.212,13.903C-2.122,14.134 -1.961,14.147 -1.759,14.108C-0.805,13.923 0.149,13.736 1.104,13.558C2.57,13.286 4.034,13.005 5.504,12.76C6.108,12.659 6.725,12.623 7.337,12.6C7.486,12.595 7.719,12.725 7.771,12.852C7.823,12.976 7.736,13.207 7.636,13.334C7.474,13.543 7.252,13.705 7.055,13.887C6.2,14.678 5.108,15.043 4.072,15.484C2.753,16.045 1.389,16.501 0,17.018M21.789,8.639C21.817,15.717 16.153,21.707 8.704,21.699C1.187,21.69 -4.358,15.591 -4.365,8.606C-4.372,1.561 1.397,-4.689 9.119,-4.469C16.202,-4.267 21.842,1.521 21.789,8.639" style="fill:rgb(88,151,170);fill-rule:nonzero;"/>
    </g>
</svg>
