<?xml version="1.0" encoding="UTF-8" standalone="no"?>
<!DOCTYPE svg PUBLIC "-//W3C//DTD SVG 1.1//EN" "http://www.w3.org/Graphics/SVG/1.1/DTD/svg11.dtd">
<svg width="100%" height="100%" viewBox="0 0 122 122" version="1.1" xmlns="http://www.w3.org/2000/svg" xmlns:xlink="http://www.w3.org/1999/xlink" xml:space="preserve" xmlns:serif="http://www.serif.com/" style="fill-rule:evenodd;clip-rule:evenodd;stroke-linejoin:round;stroke-miterlimit:2;">
    <g transform="matrix(1.138362,0,0,1.138362,-77.4086,-76.270239)">
        <circle cx="121.341" cy="120.341" r="53.341" style="fill:rgb(237,212,173);"/>
    </g>
    <g transform="matrix(4.166667,0,0,4.166667,21.500383,83.610269)">
        <path d="M0,-11.106L-0.193,-11.026C-0.129,-10.831 -0.076,-10.632 0.004,-10.444C0.025,-10.394 0.128,-10.359 0.194,-10.358C0.226,-10.358 0.298,-10.47 0.284,-10.503C0.2,-10.709 0.097,-10.906 0,-11.106M4.226,3.373C4.163,3.396 4.1,3.419 4.037,3.442C4.103,3.668 4.161,3.898 4.243,4.118C4.26,4.164 4.371,4.174 4.438,4.201C4.462,4.132 4.524,4.051 4.504,3.999C4.425,3.785 4.321,3.581 4.226,3.373M2.192,-11.311C2.153,-11.338 2.115,-11.364 2.077,-11.39C1.798,-11.305 1.758,-11.031 1.676,-10.797C1.658,-10.743 1.702,-10.667 1.718,-10.601C1.785,-10.627 1.888,-10.633 1.913,-10.681C2.018,-10.884 2.101,-11.1 2.192,-11.311M13.955,-7.903C13.916,-7.891 13.878,-7.88 13.839,-7.869C13.936,-7.481 13.897,-7.035 14.283,-6.773C14.337,-6.796 14.391,-6.82 14.445,-6.844C14.282,-7.197 14.119,-7.55 13.955,-7.903M15.314,-8.352C14.905,-8.084 14.783,-7.318 15.122,-7.046C15.187,-7.491 15.247,-7.899 15.314,-8.352M6.703,2.822C6.162,2.965 5.817,3.522 5.879,4.092C6.16,3.66 6.406,3.28 6.703,2.822M16.564,-8.175C16.109,-7.939 15.96,-7.527 15.752,-7.116C16.1,-7.117 16.548,-7.718 16.564,-8.175M5.372,2.942C4.902,3.409 4.855,4.107 5.262,4.212C5.3,3.781 5.336,3.361 5.372,2.942M0.861,-10.527C0.905,-10.526 0.949,-10.525 0.993,-10.524C1.034,-10.964 1.076,-11.403 1.117,-11.843C0.708,-11.515 0.635,-10.823 0.861,-10.527M19.455,-2.496C19.5,-2.684 19.512,-2.845 19.576,-2.983C19.845,-3.567 20.144,-4.137 20.401,-4.726C20.488,-4.925 20.836,-5.206 20.48,-5.365C20.15,-5.513 20.025,-5.109 19.926,-4.869C19.653,-4.205 19.403,-3.531 19.179,-2.849C19.111,-2.643 19.035,-2.511 18.83,-2.589C18.631,-2.666 18.31,-2.567 18.331,-3.006C18.364,-3.661 18.302,-4.322 18.271,-4.979C18.258,-5.246 18.125,-5.554 18.218,-5.769C18.39,-6.166 18.22,-6.505 18.164,-6.858C18.144,-6.98 17.928,-7.072 17.802,-7.177C17.731,-7.062 17.648,-6.952 17.595,-6.83C17.568,-6.766 17.584,-6.675 17.601,-6.602C17.726,-6.056 17.921,-5.517 17.969,-4.964C18.034,-4.235 17.985,-3.496 17.985,-2.759C17.657,-2.699 17.521,-2.849 17.484,-3.137C17.454,-3.363 17.429,-3.591 17.37,-3.809C17.244,-4.278 17.108,-4.746 16.954,-5.206C16.892,-5.392 16.792,-5.574 16.672,-5.728C16.612,-5.804 16.421,-5.877 16.369,-5.84C16.279,-5.776 16.181,-5.602 16.21,-5.515C16.3,-5.243 16.393,-4.938 16.584,-4.74C17.096,-4.208 17.043,-3.553 17.162,-2.837C16.419,-3.006 15.769,-3.141 15.126,-3.302C14.305,-3.508 13.503,-3.767 12.934,-4.454C12.528,-4.944 12.125,-5.439 12.369,-6.149C12.609,-6.844 12.443,-7.113 11.716,-7.277C11.211,-7.391 10.691,-7.486 10.218,-7.686C9.57,-7.96 9.582,-8.361 10.127,-8.82C10.434,-9.079 10.792,-9.115 11.128,-9.256C12.091,-9.66 13.089,-9.668 14.145,-9.685C14.031,-9.974 13.992,-10.364 13.776,-10.555C13.41,-10.878 13.2,-11.25 13.126,-11.7C13.102,-11.843 13.246,-12.015 13.313,-12.173C13.446,-12.097 13.648,-12.051 13.697,-11.938C13.85,-11.59 13.964,-11.22 14.056,-10.85C14.159,-10.442 14.222,-10.024 14.305,-9.596C14.596,-9.644 14.828,-9.682 15.096,-9.726C14.95,-10.326 15.116,-10.965 14.583,-11.465C14.406,-11.631 14.405,-12.013 14.379,-12.301C14.364,-12.47 14.457,-12.649 14.501,-12.823C14.636,-12.701 14.839,-12.603 14.894,-12.452C15.043,-12.041 15.165,-11.633 15.147,-11.161C15.129,-10.658 15.326,-10.147 15.435,-9.614L16.219,-9.614C16.354,-10.125 16.343,-10.589 16.097,-11.065C15.956,-11.336 15.94,-11.68 15.912,-11.996C15.902,-12.108 16.023,-12.233 16.085,-12.352C16.211,-12.273 16.418,-12.217 16.448,-12.11C16.549,-11.754 16.624,-11.381 16.639,-11.012C16.656,-10.588 16.582,-10.161 16.585,-9.736C16.586,-9.639 16.728,-9.473 16.826,-9.456C17.461,-9.347 18.064,-9.242 18.681,-8.952C19.412,-8.608 20.295,-8.59 21.157,-8.422C21.133,-8.555 21.127,-8.605 21.114,-8.652C20.562,-10.727 19.519,-12.52 18.005,-14.038C17.918,-14.126 17.783,-14.179 17.661,-14.216C16.535,-14.556 15.37,-14.613 14.207,-14.615C12.676,-14.618 11.145,-14.574 9.614,-14.541C9.137,-14.531 8.66,-14.492 8.062,-14.46C8.303,-14.909 8.414,-15.445 8.721,-15.608C9.167,-15.844 9.263,-16.237 9.489,-16.576C9.529,-16.636 9.476,-16.805 9.412,-16.875C9.356,-16.935 9.166,-16.977 9.135,-16.941C8.818,-16.575 8.452,-16.269 8.374,-15.71C8.313,-15.271 8.013,-14.864 7.811,-14.447C7.794,-14.412 7.72,-14.396 7.67,-14.386C7.466,-14.345 7.261,-14.309 7.01,-14.263C7.06,-14.639 7.064,-15.008 7.164,-15.349C7.335,-15.926 7.576,-16.481 7.764,-17.053C7.805,-17.179 7.783,-17.444 7.733,-17.46C7.533,-17.522 7.288,-17.516 7.217,-17.254C7.111,-16.86 6.707,-16.509 7.025,-16.043C7.053,-16.001 7.016,-15.913 7.005,-15.847C6.918,-15.319 6.829,-14.791 6.737,-14.237C6.647,-14.201 6.519,-14.161 6.402,-14.1C6.139,-13.961 5.989,-14.002 5.947,-14.326C5.906,-14.642 5.676,-14.933 5.871,-15.283C5.91,-15.353 5.788,-15.525 5.721,-15.638C5.62,-15.809 5.519,-15.985 5.385,-16.128C5.308,-16.21 5.131,-16.3 5.062,-16.264C4.958,-16.21 4.825,-16.026 4.85,-15.939C4.941,-15.624 5.011,-15.204 5.24,-15.05C5.589,-14.816 5.589,-14.504 5.696,-14.196C5.785,-13.936 5.681,-13.873 5.448,-13.774C4.715,-13.462 3.98,-13.141 3.294,-12.741C2.767,-12.435 2.855,-11.726 3.419,-11.467C3.779,-11.302 4.164,-11.186 4.545,-11.073C4.864,-10.978 4.831,-10.73 4.696,-10.587C4.5,-10.381 4.236,-10.181 3.968,-10.112C2.991,-9.86 1.998,-9.674 1.015,-9.444C0.011,-9.208 -0.988,-8.951 -1.99,-8.702C-2.27,-8.633 -2.381,-8.443 -2.437,-8.166C-2.799,-6.375 -2.814,-4.583 -2.425,-2.798C-2.074,-1.19 -1.401,0.279 -0.407,1.638C1.867,0.757 4.237,0.875 6.606,0.954C6.661,0.588 6.848,0.188 6.733,-0.084C6.566,-0.481 6.738,-0.778 6.774,-1.119C6.799,-1.353 6.849,-1.513 7.139,-1.445C7.41,-1.382 7.492,-1.196 7.423,-0.966C7.333,-0.667 7.172,-0.389 7.084,-0.089C6.988,0.237 6.901,0.578 6.902,0.912C6.903,0.99 7.273,1.068 7.475,1.143C7.495,1.151 7.525,1.134 7.549,1.128C7.713,0.608 7.964,0.097 8.014,-0.433C8.056,-0.875 8.194,-1.239 8.412,-1.592C8.46,-1.671 8.636,-1.758 8.689,-1.728C8.787,-1.673 8.863,-1.541 8.898,-1.426C8.92,-1.353 8.869,-1.243 8.823,-1.167C8.641,-0.862 8.402,-0.583 8.27,-0.259C8.081,0.205 7.966,0.7 7.818,1.188C7.988,1.268 8.118,1.329 8.269,1.399C8.32,1.294 8.372,1.204 8.408,1.108C8.64,0.476 8.858,-0.161 9.104,-0.788C9.259,-1.183 9.487,-1.229 9.869,-0.956C9.708,-0.63 9.564,-0.286 9.375,0.03C9.094,0.501 8.781,0.953 8.474,1.424C8.701,1.582 8.842,1.677 8.98,1.778C9.756,2.344 9.767,2.873 9.464,3.473C8.965,4.462 8.802,4.524 10.037,5.267C10.105,5.308 10.181,5.341 10.257,5.364C11.031,5.604 11.801,5.856 12.582,6.07C12.771,6.122 13.009,6.09 13.2,6.025C16.665,4.84 19.122,2.553 20.591,-0.793C20.824,-1.326 20.981,-1.893 21.191,-2.496L19.455,-2.496ZM-3.658,-5.49C-3.756,-12.546 2.059,-18.702 9.635,-18.578C16.811,-18.46 22.516,-12.61 22.485,-5.435C22.454,1.62 16.841,7.596 9.4,7.593C1.881,7.59 -3.738,1.492 -3.658,-5.49" style="fill:rgb(127,77,105);fill-rule:nonzero;"/>
    </g>
    <g transform="matrix(4.166667,0,0,4.166667,44.470383,59.718603)">
        <path d="M0,2.419C0.017,2.388 0.034,2.358 0.05,2.327C-0.359,1.968 -0.775,1.622 -1.342,1.548C-1.368,1.597 -1.395,1.646 -1.421,1.695C-0.948,1.936 -0.474,2.178 0,2.419M0.454,0.952C-0.092,0.995 -0.638,1.037 -1.167,1.079C-0.97,0.841 -0.747,0.574 -0.525,0.307C-0.556,0.275 -0.586,0.244 -0.616,0.213C-0.924,0.454 -1.233,0.695 -1.564,0.953C-1.647,0.733 -1.722,0.532 -1.798,0.331C-1.841,0.337 -1.884,0.342 -1.927,0.348C-1.914,0.605 -1.901,0.861 -1.886,1.163C-2.184,1.088 -2.446,1.022 -2.707,0.956C-2.717,0.986 -2.728,1.015 -2.738,1.044C-2.438,1.168 -2.138,1.292 -1.838,1.416C-2.507,2.158 -3.644,2.068 -4.168,1.221C-4.384,0.872 -4.286,0.532 -4.064,0.212C-3.582,-0.483 -2.833,-0.699 -2.074,-0.866C-1.347,-1.025 -0.617,-0.997 0.109,-0.804C0.748,-0.635 1.248,-0.253 1.622,0.252C2.271,1.128 1.902,2.457 0.882,2.998C0.231,3.344 -0.479,3.444 -1.209,3.32C-1.617,3.25 -1.897,2.94 -1.956,2.531C-2.021,2.083 -1.837,1.527 -1.498,1.425C-1.082,1.299 -0.632,1.289 -0.198,1.221C0.028,1.186 0.25,1.136 0.474,1.092C0.468,1.046 0.461,0.999 0.454,0.952" style="fill:rgb(127,77,105);fill-rule:nonzero;"/>
    </g>
    <g transform="matrix(4.166667,0,0,4.166667,81.868716,90.949853)">
        <path d="M0,-1.464C-0.03,-1.017 -0.055,-0.569 -0.095,-0.123C-0.1,-0.067 -0.197,0.03 -0.231,0.022C-0.307,0.005 -0.426,-0.064 -0.429,-0.118C-0.453,-0.601 -0.453,-1.085 -0.155,-1.494C-0.103,-1.484 -0.052,-1.474 0,-1.464" style="fill:rgb(127,77,105);fill-rule:nonzero;"/>
    </g>
    <g transform="matrix(4.166667,0,0,4.166667,85.464966,84.767353)">
        <path d="M0,1.53C0.039,0.837 0.385,0.387 0.88,0C0.898,0.434 0.374,1.392 0,1.53" style="fill:rgb(127,77,105);fill-rule:nonzero;"/>
    </g>
    <g transform="matrix(4.166667,0,0,4.166667,76.688716,87.116936)">
        <path d="M0,1.139C-0.347,0.779 -0.284,0.396 -0.204,0C0.188,0.109 0.308,0.715 0,1.139" style="fill:rgb(127,77,105);fill-rule:nonzero;"/>
    </g>
    <g transform="matrix(4.166667,0,0,4.166667,58.510799,31.414436)">
        <path d="M0,1.468C-0.322,1.085 -0.262,0.399 0.074,0C0.256,0.503 0.071,0.934 0,1.468" style="fill:rgb(127,77,105);fill-rule:nonzero;"/>
    </g>
    <g transform="matrix(-3.835593,-1.627678,-1.627678,3.835593,60.31349,35.806474)">
        <path d="M-0.407,-1.104C-0.448,-0.769 -0.492,-0.47 -0.517,-0.167C-0.521,-0.112 -0.46,-0.025 -0.407,0.002C-0.368,0.022 -0.271,-0.017 -0.234,-0.061C-0.095,-0.223 -0.188,-0.862 -0.407,-1.104" style="fill:rgb(127,77,105);fill-rule:nonzero;"/>
    </g>
    <g transform="matrix(4.166667,0,0,4.166667,54.987883,36.944436)">
        <path d="M0,-0.724C0.015,-0.5 0.029,-0.275 0.047,0C-0.24,-0.195 -0.261,-0.387 0,-0.724" style="fill:rgb(127,77,105);fill-rule:nonzero;"/>
    </g>
</svg>
