<?xml version="1.0" encoding="UTF-8" standalone="no"?>
<!DOCTYPE svg PUBLIC "-//W3C//DTD SVG 1.1//EN" "http://www.w3.org/Graphics/SVG/1.1/DTD/svg11.dtd">
<svg width="100%" height="100%" viewBox="0 0 746 744" version="1.1" xmlns="http://www.w3.org/2000/svg" xmlns:xlink="http://www.w3.org/1999/xlink" xml:space="preserve" xmlns:serif="http://www.serif.com/" style="fill-rule:evenodd;clip-rule:evenodd;stroke-linejoin:round;stroke-miterlimit:2;">
    <g transform="matrix(0.1,0,0,-0.1,-0.218296,743.919256)">
        <path d="M3530,7420C3505,7410 3476,7401 3464,7401C3452,7400 3422,7389 3396,7375C3370,7361 3345,7350 3340,7350C3297,7350 3152,7214 2490,6554C1959,6024 1769,5840 1752,5840C1739,5840 1719,5845 1708,5851C1696,5858 1661,5868 1631,5875C1578,5887 1546,5897 1433,5936C1406,5945 1367,5953 1346,5954L1306,5955L1288,5895C1278,5862 1265,5801 1259,5760C1254,5719 1241,5647 1230,5600C1220,5553 1207,5486 1201,5450C1195,5414 1185,5360 1179,5330C1173,5300 1166,5264 1163,5250C1160,5234 989,5055 666,4730C210,4272 150,4207 91,4100C48,4023 19,3936 8,3852C-5,3755 5,3563 26,3508C34,3484 46,3451 51,3434C74,3358 134,3259 204,3180C245,3134 406,2957 450,2910C543,2810 643,2699 670,2665C705,2621 705,2630 675,2463C666,2412 660,2347 662,2318L665,2266L735,2244C774,2231 817,2221 831,2221C846,2220 887,2211 922,2200C957,2189 1015,2176 1050,2171C1086,2166 1135,2154 1159,2146C1183,2137 1213,2130 1226,2130C1243,2130 1499,1880 2258,1123C3166,216 3273,112 3331,83C3472,13 3556,-3 3755,2C3945,7 4042,35 4190,128C4225,151 4593,510 5225,1141L6205,2119L6270,2134C6306,2142 6353,2153 6375,2159C6463,2182 6548,2202 6600,2211C6700,2229 6789,2260 6800,2280C6808,2294 6805,2315 6791,2357C6780,2389 6767,2443 6760,2477C6754,2511 6743,2555 6735,2574C6727,2594 6720,2615 6720,2621C6720,2628 6848,2762 7004,2919C7160,3076 7300,3225 7316,3249C7356,3310 7410,3412 7410,3428C7410,3435 7419,3458 7429,3479C7471,3561 7471,3868 7429,3973C7355,4162 7295,4241 7072,4450C6999,4519 6904,4609 6861,4650C6818,4691 6699,4806 6595,4905C6209,5275 6250,5229 6250,5286C6250,5314 6242,5383 6231,5441C6221,5498 6209,5583 6206,5630C6198,5722 6164,5935 6154,5952C6146,5964 6101,5958 6040,5936C5955,5906 5895,5888 5839,5875C5809,5868 5774,5858 5762,5851C5708,5822 5723,5809 4994,6538C4609,6922 4282,7243 4265,7250C4249,7258 4226,7272 4215,7281C4177,7313 4034,7382 3946,7411C3864,7438 3845,7440 3716,7439C3601,7439 3567,7435 3530,7420ZM3819,7300C3910,7290 3932,7283 4059,7221C4120,7192 4193,7122 5032,6289C5447,5877 5521,5799 5516,5782C5511,5769 5485,5749 5447,5731C5398,5707 5382,5704 5365,5712C5354,5718 5059,6010 4710,6360C4361,6710 4054,7011 4028,7028C3929,7093 3866,7112 3735,7117C3621,7122 3610,7120 3550,7095C3515,7080 3470,7057 3451,7042C3431,7028 3118,6720 2755,6358C2392,5996 2089,5700 2081,5700C2074,5700 2056,5706 2042,5714C2027,5722 1994,5736 1967,5745C1914,5764 1892,5791 1913,5812C1921,5819 2043,5938 2185,6075C2328,6213 2487,6367 2539,6419C2592,6470 2720,6594 2824,6694C2929,6793 3066,6925 3129,6986C3296,7147 3357,7195 3460,7246C3536,7284 3565,7293 3633,7299C3678,7304 3717,7308 3720,7308C3723,7309 3767,7305 3819,7300ZM3751,6670C3759,6645 3774,6608 3783,6588C3792,6567 3800,6545 3800,6538C3800,6531 3809,6508 3820,6487C3831,6467 3840,6442 3840,6433C3840,6423 3851,6391 3865,6362C3879,6332 3890,6301 3890,6293C3890,6284 3899,6259 3909,6236C3920,6213 3936,6173 3945,6145C3982,6034 3993,6003 4011,5964C4022,5942 4030,5916 4030,5906C4030,5897 4035,5879 4042,5867C4055,5842 4093,5741 4119,5659C4141,5592 4167,5550 4187,5550C4195,5550 4241,5568 4288,5591C4365,5627 4375,5630 4386,5616C4393,5605 4399,5520 4403,5367C4406,5240 4413,5108 4419,5075C4425,5042 4434,4969 4439,4913C4445,4849 4454,4802 4464,4788C4473,4775 4485,4748 4491,4727C4508,4665 4540,4619 4564,4622C4585,4625 4585,4627 4582,4850C4581,4974 4573,5165 4565,5275C4540,5609 4544,5646 4602,5606C4614,5597 4631,5590 4640,5590C4648,5590 4678,5579 4705,5565C4733,5552 4764,5540 4775,5540C4786,5540 4809,5531 4826,5521C4843,5511 4872,5499 4891,5495C4910,5491 4943,5479 4965,5470C4987,5460 5030,5442 5060,5429C5090,5416 5121,5399 5128,5391C5135,5382 5140,5347 5140,5306C5140,5267 5147,5186 5155,5125C5164,5065 5175,4936 5180,4840C5189,4667 5215,4418 5228,4370C5237,4340 5305,4299 5340,4302C5364,4305 5365,4309 5368,4373C5370,4411 5364,4480 5355,4528C5346,4575 5334,4668 5329,4733C5324,4798 5313,4883 5305,4920C5297,4958 5288,5033 5284,5087C5281,5141 5269,5236 5259,5298C5248,5361 5240,5418 5242,5426C5246,5444 5343,5485 5403,5495C5426,5499 5462,5511 5482,5521C5503,5532 5530,5540 5542,5540C5555,5540 5584,5549 5607,5559C5629,5570 5673,5583 5704,5590C5735,5596 5762,5605 5765,5610C5768,5615 5796,5624 5827,5630C5858,5637 5899,5649 5918,5658C5959,5678 5965,5671 5975,5592C5979,5561 5986,5526 5991,5513C5996,5500 6005,5445 6011,5392C6017,5339 6028,5270 6036,5239C6044,5208 6055,5136 6061,5079C6066,5022 6077,4953 6085,4925C6092,4898 6102,4841 6105,4800C6109,4759 6120,4689 6130,4645C6140,4601 6151,4532 6155,4492C6158,4452 6168,4398 6175,4372C6183,4346 6193,4282 6199,4230C6207,4149 6242,3983 6252,3976C6278,3957 6330,3930 6341,3930C6348,3930 6372,3921 6394,3911C6433,3892 6454,3884 6575,3840C6628,3820 6638,3809 6618,3793C6600,3778 6502,3750 6469,3750C6451,3750 6439,3744 6435,3731C6432,3721 6416,3707 6399,3700C6335,3673 6327,3625 6359,3462C6370,3409 6381,3330 6385,3287C6388,3244 6400,3167 6410,3117C6421,3066 6430,3006 6430,2982C6430,2959 6439,2900 6449,2852C6460,2804 6472,2725 6476,2675C6479,2626 6491,2552 6501,2511C6515,2452 6517,2433 6507,2425C6487,2407 6320,2359 6175,2328C6148,2323 6105,2311 6080,2303C6055,2295 6004,2282 5965,2275C5927,2267 5879,2255 5860,2247C5841,2239 5801,2229 5771,2226C5741,2222 5701,2212 5682,2204C5623,2180 5612,2184 5606,2238C5602,2264 5593,2328 5584,2380C5576,2432 5565,2535 5559,2608C5554,2681 5545,2762 5539,2788C5533,2814 5522,2904 5515,2987C5500,3149 5474,3297 5458,3318C5443,3335 5436,3333 5401,3304C5371,3279 5370,3276 5370,3191C5370,3144 5379,3033 5389,2945C5400,2857 5411,2724 5415,2650C5418,2576 5428,2471 5436,2418C5453,2302 5455,2190 5440,2190C5434,2190 5417,2196 5402,2204C5387,2212 5356,2222 5335,2225C5313,2229 5279,2240 5260,2250C5241,2259 5206,2270 5182,2274C5158,2277 5129,2287 5117,2294C5105,2302 5071,2313 5042,2319C5013,2325 4977,2336 4962,2344C4947,2351 4915,2361 4890,2365C4865,2369 4835,2378 4824,2385C4812,2393 4787,2403 4769,2407L4735,2416L4728,2551C4724,2625 4714,2739 4705,2805C4697,2872 4690,2945 4690,2969C4690,3052 4659,3069 4585,3027C4535,2999 4532,2979 4556,2856C4568,2792 4574,2714 4574,2591L4575,2418L4511,2395C4475,2382 4429,2368 4408,2365C4388,2361 4349,2350 4323,2340C4269,2320 4226,2268 4215,2210C4211,2191 4202,2163 4193,2147C4185,2131 4172,2097 4165,2071C4158,2046 4137,1987 4120,1940C4103,1893 4083,1833 4075,1807C4068,1781 4057,1754 4052,1747C4047,1740 4035,1713 4027,1685C4018,1658 3997,1597 3980,1550C3963,1503 3943,1445 3936,1420C3928,1395 3915,1362 3906,1345C3897,1329 3890,1308 3890,1298C3890,1289 3879,1258 3865,1228C3851,1199 3840,1167 3840,1157C3840,1148 3831,1123 3820,1103C3809,1082 3800,1058 3800,1050C3800,1042 3789,1013 3775,985C3762,958 3750,928 3750,919C3750,910 3742,892 3732,880C3708,850 3683,863 3669,913C3663,935 3650,969 3639,989C3629,1009 3620,1033 3620,1043C3620,1053 3612,1077 3601,1098C3591,1118 3579,1151 3575,1170C3571,1189 3562,1216 3554,1230C3539,1257 3506,1348 3485,1420C3478,1445 3465,1481 3457,1500C3449,1519 3430,1569 3415,1610C3400,1651 3380,1708 3370,1735C3352,1785 3334,1837 3304,1928C3295,1954 3280,1993 3269,2016C3259,2039 3250,2064 3250,2073C3250,2082 3241,2109 3230,2132C3219,2156 3206,2193 3200,2215C3184,2280 3155,2317 3104,2339C3079,2351 3048,2360 3036,2360C3025,2361 2977,2374 2930,2389C2829,2424 2831,2418 2855,2597C2864,2662 2874,2781 2877,2862L2883,3010L2828,3035C2797,3049 2765,3058 2756,3054C2736,3046 2734,3035 2720,2885C2713,2819 2704,2722 2700,2670C2695,2618 2691,2545 2690,2508C2690,2435 2684,2410 2666,2410C2660,2410 2642,2403 2625,2394C2609,2386 2570,2372 2540,2365C2488,2352 2459,2343 2343,2304C2316,2295 2268,2282 2235,2273C2202,2265 2171,2255 2165,2250C2159,2245 2124,2234 2086,2226C2048,2217 2011,2205 2004,2199C1969,2170 1961,2222 1984,2335C1992,2374 2002,2446 2005,2495C2009,2545 2020,2637 2030,2700C2040,2763 2051,2856 2055,2905C2058,2955 2067,3024 2075,3060C2082,3096 2091,3158 2095,3198C2102,3270 2102,3270 2070,3300C2033,3335 2015,3338 2000,3311C1983,3278 1950,3128 1950,3080C1950,3055 1941,2999 1931,2955C1920,2911 1909,2839 1905,2795C1901,2751 1891,2688 1883,2655C1874,2622 1864,2559 1859,2516C1849,2416 1809,2208 1799,2196C1794,2190 1780,2192 1763,2200C1747,2207 1710,2219 1680,2226C1650,2233 1605,2245 1580,2254C1498,2282 1436,2301 1376,2316C1343,2324 1305,2337 1291,2344C1277,2352 1245,2361 1220,2365C1195,2369 1163,2378 1149,2386C1135,2393 1097,2405 1064,2414C994,2431 918,2458 906,2470C901,2475 905,2499 914,2527C923,2553 935,2611 941,2655C947,2699 960,2768 971,2809C981,2850 990,2898 990,2915C990,2932 997,2970 1005,3000C1013,3030 1027,3096 1034,3145C1042,3195 1053,3247 1059,3262C1065,3277 1074,3329 1080,3377C1086,3426 1097,3485 1105,3510C1112,3535 1122,3574 1125,3597C1131,3636 1129,3642 1099,3669C1082,3685 1055,3701 1041,3705C1027,3709 1008,3718 999,3726C990,3734 943,3751 895,3765C847,3778 803,3793 797,3799C785,3811 796,3830 815,3830C831,3830 940,3871 1005,3900C1027,3910 1056,3922 1070,3925C1084,3929 1112,3941 1132,3953C1164,3971 1172,3982 1190,4042C1202,4080 1215,4147 1220,4190C1225,4233 1236,4292 1244,4322C1252,4351 1264,4411 1269,4455C1275,4500 1284,4549 1290,4565C1296,4581 1306,4630 1311,4675C1317,4719 1327,4776 1335,4803C1343,4829 1352,4878 1355,4913C1359,4947 1370,5007 1380,5045C1390,5084 1402,5140 1405,5170C1409,5200 1420,5258 1431,5299C1441,5340 1450,5387 1450,5403C1450,5437 1500,5651 1511,5664C1515,5668 1531,5665 1547,5656C1574,5641 1613,5626 1710,5593C1735,5584 1773,5569 1796,5559C1818,5548 1842,5540 1850,5540C1858,5540 1882,5532 1904,5521C1927,5511 1965,5496 1990,5487C2153,5431 2208,5406 2217,5382C2221,5374 2216,5327 2206,5279C2197,5231 2185,5136 2180,5068C2174,5000 2165,4927 2160,4905C2154,4883 2143,4800 2135,4720C2127,4640 2113,4536 2105,4487C2084,4375 2088,4307 2114,4302C2144,4296 2230,4341 2235,4364C2252,4449 2272,4644 2280,4795C2286,4894 2295,5009 2301,5050C2307,5091 2318,5186 2324,5260L2335,5395L2365,5409C2394,5424 2475,5455 2576,5490C2604,5500 2636,5513 2646,5519C2656,5525 2685,5537 2710,5546C2843,5594 2866,5603 2877,5612C2913,5641 2918,5590 2896,5429C2888,5372 2878,5264 2875,5190C2872,5116 2862,4994 2853,4920C2844,4846 2836,4740 2836,4685C2835,4572 2844,4560 2898,4605C2946,4645 2969,4729 2981,4905C2986,4988 2997,5135 3005,5233C3013,5331 3020,5453 3020,5503C3020,5616 3027,5632 3069,5607C3085,5598 3104,5590 3112,5590C3119,5590 3147,5579 3173,5565C3207,5546 3225,5542 3238,5549C3257,5559 3300,5638 3300,5663C3300,5672 3309,5699 3319,5722C3330,5746 3350,5799 3365,5840C3380,5881 3403,5943 3416,5978C3429,6012 3440,6045 3440,6051C3440,6057 3447,6076 3455,6093C3463,6111 3476,6145 3484,6170C3492,6195 3511,6247 3525,6285C3540,6324 3559,6375 3567,6400C3575,6425 3590,6465 3600,6490C3646,6607 3670,6671 3670,6683C3670,6703 3693,6721 3715,6718C3729,6716 3740,6701 3751,6670ZM1097,4888C1089,4842 1079,4775 1075,4739L1069,4674L734,4339C549,4155 386,3987 372,3965C274,3818 275,3635 374,3480C389,3455 490,3349 596,3244C735,3108 790,3047 790,3031C790,3018 783,2981 775,2947C767,2913 758,2872 755,2857C752,2842 744,2827 737,2824C724,2819 234,3304 199,3356C167,3404 162,3413 140,3460C89,3569 91,3839 145,3968C195,4088 247,4148 672,4575C989,4893 1093,4991 1101,4983C1110,4974 1109,4951 1097,4888ZM6765,4558C6990,4332 7182,4130 7203,4098C7295,3958 7332,3791 7312,3608C7298,3487 7239,3357 7169,3295C7157,3284 7116,3239 7077,3195C7038,3151 6963,3068 6910,3010C6856,2952 6797,2886 6779,2863C6760,2840 6739,2822 6731,2823C6722,2824 6710,2855 6698,2910C6667,3053 6656,3030 6847,3223C7044,3423 7063,3447 7101,3547C7126,3612 7130,3635 7130,3726C7130,3816 7126,3839 7104,3893C7090,3927 7063,3978 7044,4005C7026,4033 6873,4194 6705,4364C6444,4629 6398,4680 6390,4714C6384,4737 6375,4766 6369,4780C6355,4812 6331,4948 6338,4955C6341,4958 6348,4960 6354,4960C6360,4960 6545,4779 6765,4558ZM5890,2020C5890,2014 5824,1941 5743,1858C5661,1775 5573,1684 5545,1655C5300,1402 4667,758 4425,515C4092,180 4094,181 3917,135C3789,102 3624,100 3537,130C3506,141 3472,150 3462,150C3451,150 3431,159 3417,170C3403,181 3387,190 3382,190C3376,190 3350,209 3323,232C3222,320 1570,1976 1570,1989C1570,2004 1641,1997 1725,1973C1753,1966 1793,1954 1815,1948C1840,1941 1878,1916 1915,1881C1980,1822 2485,1331 2710,1110C2786,1036 2953,874 3081,750C3210,627 3346,495 3383,457C3487,354 3563,312 3683,290C3764,275 3891,308 3975,364C4010,388 4258,625 4636,995C4725,1083 4924,1277 5077,1425C5230,1574 5406,1745 5468,1805C5584,1918 5641,1956 5740,1986C5770,1995 5804,2009 5815,2016C5838,2032 5890,2035 5890,2020ZM3681,6506C3675,6499 3663,6470 3656,6444C3648,6417 3630,6364 3615,6325C3600,6287 3581,6235 3573,6210C3565,6185 3552,6152 3544,6135C3537,6119 3524,6085 3516,6060C3492,5986 3460,5896 3450,5875C3439,5852 3406,5758 3383,5685C3374,5658 3361,5626 3355,5615C3348,5604 3339,5579 3335,5560C3331,5541 3322,5514 3314,5500C3299,5472 3266,5380 3245,5306C3237,5280 3226,5253 3221,5246C3216,5240 3206,5212 3199,5185C3192,5157 3181,5126 3174,5115C3167,5104 3156,5075 3150,5050C3144,5025 3133,4996 3125,4985C3118,4974 3109,4949 3105,4930C3101,4911 3091,4882 3083,4866C3075,4851 3062,4817 3055,4791C3035,4722 3001,4630 2978,4582C2963,4550 2946,4533 2909,4515C2883,4501 2852,4490 2842,4490C2832,4490 2807,4481 2786,4471C2765,4460 2734,4448 2717,4445C2699,4441 2674,4431 2662,4423C2649,4415 2617,4402 2592,4395C2523,4375 2431,4341 2384,4319C2362,4309 2338,4300 2331,4300C2325,4300 2302,4291 2280,4280C2258,4269 2233,4260 2223,4260C2213,4260 2183,4249 2155,4235C2128,4222 2099,4210 2091,4210C2083,4210 2059,4201 2036,4191C2013,4180 1975,4165 1950,4157C1883,4135 1841,4120 1779,4094C1748,4081 1716,4070 1709,4070C1701,4070 1678,4061 1657,4050C1637,4039 1612,4030 1603,4030C1593,4030 1563,4018 1535,4005C1508,3991 1477,3980 1468,3980C1458,3980 1431,3972 1408,3961C1334,3929 1256,3898 1225,3890C1209,3886 1173,3873 1145,3862C1118,3851 1082,3838 1065,3833C1041,3826 1034,3818 1032,3793C1029,3763 1032,3760 1072,3750C1096,3743 1135,3730 1160,3719C1206,3700 1261,3680 1340,3653C1365,3644 1403,3629 1426,3619C1448,3608 1473,3600 1481,3600C1489,3600 1511,3592 1530,3581C1549,3571 1581,3559 1600,3555C1619,3551 1640,3543 1647,3538C1653,3533 1685,3520 1717,3510C1749,3500 1804,3480 1840,3467C1922,3435 2030,3395 2095,3371C2123,3360 2177,3340 2215,3325C2254,3311 2310,3291 2340,3281C2370,3271 2404,3258 2415,3252C2426,3246 2455,3235 2480,3227C2505,3219 2554,3201 2590,3187C2626,3173 2671,3157 2690,3150C2709,3143 2745,3129 2770,3120C2795,3110 2842,3092 2875,3080C2908,3067 2940,3053 2947,3048C2962,3036 2995,2968 3014,2910C3028,2868 3041,2833 3104,2668C3117,2633 3133,2589 3140,2570C3147,2551 3164,2510 3176,2479C3189,2448 3200,2416 3200,2409C3200,2401 3208,2379 3219,2360C3229,2341 3241,2309 3245,2290C3249,2271 3261,2239 3271,2220C3282,2201 3290,2179 3290,2171C3290,2163 3298,2138 3309,2116C3319,2093 3334,2055 3343,2030C3378,1927 3399,1872 3408,1854C3414,1844 3425,1815 3433,1790C3441,1765 3460,1714 3475,1675C3489,1637 3509,1583 3517,1555C3526,1528 3539,1496 3545,1485C3552,1474 3561,1449 3565,1430C3569,1411 3578,1386 3585,1375C3591,1364 3604,1333 3613,1305C3668,1132 3676,1115 3703,1112C3731,1109 3760,1140 3760,1174C3760,1184 3769,1211 3779,1234C3790,1257 3805,1295 3813,1320C3821,1345 3840,1397 3854,1435C3896,1546 3920,1611 3937,1660C3946,1685 3961,1723 3971,1746C3982,1768 3990,1793 3990,1801C3990,1809 3998,1831 4009,1850C4019,1869 4031,1901 4035,1920C4039,1939 4051,1971 4061,1990C4072,2009 4080,2031 4080,2039C4080,2047 4089,2072 4100,2095C4111,2117 4126,2156 4134,2180C4142,2205 4160,2255 4174,2293C4188,2330 4212,2390 4226,2428C4240,2465 4259,2518 4267,2545C4276,2573 4289,2604 4295,2615C4302,2626 4311,2651 4315,2670C4319,2689 4328,2714 4335,2725C4341,2736 4354,2768 4363,2795C4406,2933 4457,3050 4473,3050C4479,3050 4499,3057 4515,3066C4532,3075 4568,3089 4595,3097C4623,3105 4650,3116 4655,3120C4661,3124 4688,3135 4715,3143C4743,3152 4797,3171 4835,3185C4874,3200 4925,3219 4950,3227C4975,3235 5013,3250 5035,3260C5078,3279 5117,3293 5190,3317C5215,3325 5252,3340 5272,3351C5292,3361 5317,3370 5327,3370C5337,3370 5364,3379 5385,3390C5407,3402 5441,3415 5460,3419C5479,3424 5520,3438 5550,3450C5680,3503 5701,3510 5737,3510C5758,3510 5791,3518 5810,3529C5829,3539 5861,3551 5880,3555C5899,3559 5929,3571 5946,3581C5963,3591 5986,3600 5996,3600C6007,3600 6038,3612 6065,3625C6093,3639 6122,3650 6130,3650C6138,3650 6161,3658 6180,3669C6199,3679 6231,3691 6250,3695C6269,3699 6295,3709 6307,3717C6320,3725 6353,3737 6382,3744C6432,3755 6435,3758 6433,3785C6430,3818 6407,3840 6376,3840C6364,3840 6333,3852 6305,3865C6278,3879 6247,3890 6237,3890C6227,3890 6203,3898 6182,3909C6162,3919 6129,3931 6110,3935C6091,3939 6070,3947 6063,3952C6057,3957 6025,3970 5993,3980C5910,4007 5809,4044 5783,4058C5771,4065 5753,4070 5743,4070C5733,4070 5703,4081 5675,4095C5648,4108 5617,4120 5607,4120C5597,4120 5573,4128 5552,4139C5532,4149 5499,4161 5480,4165C5461,4169 5434,4178 5420,4186C5392,4201 5300,4234 5226,4255C5200,4263 5172,4274 5164,4280C5157,4287 5129,4298 5103,4305C5024,4328 4908,4370 4896,4379C4890,4384 4869,4391 4850,4395C4831,4399 4798,4411 4778,4421C4757,4432 4733,4440 4723,4440C4713,4440 4683,4452 4655,4465C4628,4479 4598,4490 4589,4490C4580,4490 4547,4502 4516,4516C4469,4537 4457,4549 4435,4591C4421,4619 4410,4649 4410,4657C4410,4666 4399,4698 4386,4729C4360,4792 4344,4835 4323,4900C4315,4925 4300,4964 4289,4988C4279,5011 4270,5038 4270,5048C4270,5057 4258,5088 4245,5115C4231,5143 4220,5173 4220,5182C4220,5192 4211,5219 4201,5242C4171,5311 4130,5419 4130,5432C4130,5438 4122,5462 4111,5484C4094,5522 4081,5556 4043,5670C4035,5695 4020,5733 4009,5756C3999,5779 3990,5805 3990,5814C3990,5823 3982,5847 3971,5868C3961,5888 3950,5919 3946,5935C3942,5952 3932,5979 3925,5995C3910,6028 3878,6117 3853,6195C3844,6223 3831,6254 3825,6265C3818,6276 3809,6301 3805,6320C3801,6339 3790,6371 3780,6390C3771,6409 3760,6442 3756,6462C3747,6512 3706,6536 3681,6506ZM3700,4754C3700,3962 3698,3840 3685,3840C3678,3840 3667,3846 3663,3854C3659,3862 3606,3921 3545,3985C3418,4121 3412,4127 3303,4248C3240,4317 3220,4347 3220,4368C3220,4383 3225,4401 3230,4406C3236,4412 3246,4438 3254,4466C3270,4521 3294,4593 3320,4660C3339,4708 3375,4807 3414,4918C3427,4955 3443,5001 3450,5020C3457,5039 3469,5075 3477,5100C3485,5125 3500,5163 3511,5186C3521,5209 3530,5235 3530,5244C3530,5253 3538,5277 3549,5298C3559,5318 3571,5351 3575,5370C3579,5389 3589,5418 3597,5434C3605,5449 3618,5483 3625,5509C3632,5534 3646,5578 3655,5605C3664,5633 3674,5661 3676,5668C3678,5675 3684,5678 3690,5675C3697,5671 3700,5358 3700,4754ZM4315,4320C4318,4315 4342,4304 4368,4296C4394,4288 4429,4275 4445,4266C4462,4257 4480,4250 4487,4250C4498,4250 4622,4203 4685,4176C4742,4150 4825,4118 4859,4108C4878,4103 4903,4092 4914,4085C4926,4078 4951,4069 4970,4065C4989,4061 5019,4049 5036,4039C5053,4029 5074,4020 5082,4020C5089,4020 5114,4011 5135,4000C5157,3988 5191,3975 5210,3971C5251,3961 5339,3926 5391,3899C5411,3888 5436,3880 5446,3880C5457,3880 5479,3873 5495,3864C5512,3855 5542,3843 5563,3836C5585,3830 5602,3821 5601,3815C5600,3803 3770,3796 3758,3808C3754,3812 3866,3931 4007,4073C4257,4323 4295,4353 4315,4320ZM3638,3783C3650,3780 3660,3772 3660,3766C3660,3759 3557,3651 3430,3526C3237,3334 3197,3298 3178,3303C3165,3306 3124,3320 3085,3335C3047,3350 2995,3368 2970,3375C2945,3382 2905,3397 2880,3409C2855,3420 2826,3430 2815,3430C2804,3430 2785,3437 2774,3444C2762,3452 2732,3464 2706,3471C2680,3477 2643,3491 2622,3501C2602,3512 2578,3520 2569,3520C2560,3520 2528,3531 2498,3545C2469,3559 2437,3570 2427,3570C2418,3570 2393,3579 2373,3590C2352,3601 2326,3610 2315,3610C2303,3610 2278,3618 2258,3629C2237,3639 2200,3653 2174,3659C2149,3666 2118,3677 2107,3684C2095,3692 2069,3701 2049,3704C2030,3707 1996,3719 1975,3730C1953,3741 1928,3750 1919,3750C1874,3750 1853,3776 1893,3782C1933,3788 3614,3789 3638,3783ZM3801,3697C3831,3669 3881,3623 3911,3596C3941,3569 3997,3518 4035,3481C4074,3445 4130,3392 4161,3365C4191,3337 4224,3303 4234,3288C4250,3263 4250,3259 4236,3233C4227,3218 4213,3185 4204,3160C4160,3036 4151,3013 4136,2985C4127,2969 4120,2948 4120,2940C4120,2932 4113,2912 4104,2895C4095,2879 4079,2841 4069,2813C4059,2784 4041,2736 4031,2708C4021,2679 4005,2642 3996,2625C3987,2609 3980,2588 3980,2580C3980,2572 3972,2549 3961,2530C3951,2511 3939,2480 3935,2461C3931,2442 3919,2413 3909,2396C3899,2379 3890,2358 3890,2350C3890,2342 3879,2313 3865,2285C3852,2258 3840,2227 3840,2216C3840,2206 3831,2183 3821,2166C3811,2149 3799,2119 3795,2100C3791,2081 3782,2056 3775,2045C3767,2034 3757,2006 3750,1983C3738,1936 3724,1927 3719,1963C3717,1975 3716,2382 3718,2868C3720,3551 3723,3750 3733,3750C3740,3750 3770,3726 3801,3697Z" style="fill:rgb(88,39,26);"/>
    </g>
</svg>
