<?xml version="1.0" encoding="UTF-8" standalone="no"?>
<!DOCTYPE svg PUBLIC "-//W3C//DTD SVG 1.1//EN" "http://www.w3.org/Graphics/SVG/1.1/DTD/svg11.dtd">
<svg width="100%" height="100%" viewBox="0 0 109 110" version="1.1" xmlns="http://www.w3.org/2000/svg" xmlns:xlink="http://www.w3.org/1999/xlink" xml:space="preserve" xmlns:serif="http://www.serif.com/" style="fill-rule:evenodd;clip-rule:evenodd;stroke-linejoin:round;stroke-miterlimit:2;">
    <g transform="matrix(0.984234,0,0,0.984234,-64.680177,-63.637395)">
        <circle cx="121.341" cy="120.341" r="53.341" style="fill:rgb(237,212,173);"/>
    </g>
    <g transform="matrix(4.166667,0,0,4.166667,95.958129,33.104535)">
        <path d="M0,10.126C0.962,10.352 0.962,10.352 1.052,10.091C0.407,9.858 0.172,9.861 0,10.126M-0.054,6.151C-0.062,6.186 -0.069,6.221 -0.077,6.256C0.597,6.645 1.27,7.035 1.943,7.424C2.066,7.085 1.894,6.867 1.612,6.754C1.064,6.534 0.502,6.35 -0.054,6.151M-0.143,9.886C-0.44,9.85 -0.701,9.82 -0.963,9.787C-1.492,9.718 -1.657,9.796 -1.731,10.321C-1.848,11.156 -1.939,11.999 -1.97,12.841C-1.984,13.215 -1.825,13.595 -1.719,14.088C-1.284,13.609 -0.944,13.247 -0.622,12.87C-0.552,12.788 -0.502,12.647 -0.517,12.543C-0.646,11.633 -0.542,10.756 -0.143,9.886M-17.478,14.657C-17.263,14.826 -17.152,14.92 -17.033,15.005C-12.61,18.156 -6.788,18.021 -2.45,14.668C-1.893,14.237 -1.918,14.242 -2.069,13.573C-2.367,12.255 -2.231,10.978 -1.764,9.699C-1.437,8.807 -0.668,8.411 0.186,8.552C0.609,8.622 1.033,8.695 1.456,8.766L1.491,8.645C1.049,8.516 0.615,8.337 0.165,8.273C-0.29,8.208 -0.761,8.259 -1.195,8.259C-1.166,7.987 -1.137,7.684 -1.1,7.382C-1.054,7.014 -1.337,6.843 -1.525,6.603C-1.58,6.533 -1.497,6.316 -1.423,6.199C-1.369,6.114 -1.229,6.082 -1.127,6.027C-1.144,5.989 -1.162,5.951 -1.179,5.913C-1.461,6.042 -1.742,6.17 -2.099,6.334C-2.533,6.176 -3.065,6.166 -3.587,6.42C-3.304,6.456 -3.019,6.429 -2.741,6.461C-1.745,6.575 -1.413,7.046 -1.782,7.972C-2.121,8.822 -2.629,9.591 -3.341,10.193C-3.578,10.394 -4.153,10.411 -4.344,10.18C-4.658,9.801 -4.947,9.391 -5.179,8.958C-5.345,8.648 -5.271,8.299 -4.917,8.135C-4.507,7.946 -4.078,7.794 -3.647,7.658C-3.394,7.578 -3.121,7.558 -2.858,7.512C-2.87,7.449 -2.883,7.386 -2.896,7.323C-3.574,7.462 -4.255,7.587 -4.927,7.75C-5.124,7.798 -5.25,7.825 -5.429,7.681C-5.774,7.402 -6.177,7.36 -6.622,7.512C-6.343,7.611 -6.093,7.669 -5.872,7.783C-5.479,7.985 -5.706,8.271 -5.802,8.537C-5.895,8.797 -6.067,8.734 -6.285,8.722C-6.759,8.695 -7.243,8.698 -7.709,8.775C-7.96,8.816 -8.181,9.035 -8.416,9.173C-7.958,9.165 -7.559,9.044 -7.15,8.989C-6.581,8.912 -6.051,8.987 -5.704,9.542C-5.038,10.608 -4.952,11.726 -5.38,12.893C-5.567,13.401 -5.902,13.774 -6.44,13.912C-6.603,13.954 -6.785,13.919 -6.958,13.919C-6.173,13.649 -5.949,13.508 -5.709,13.064C-5.137,12.006 -5.198,10.943 -5.715,9.894C-5.773,9.775 -6.005,9.662 -6.143,9.676C-7.445,9.817 -8.745,9.986 -10.07,10.149C-10.215,9.319 -10.138,8.425 -9.848,7.575C-9.702,7.147 -9.395,6.758 -9.098,6.403C-8.643,5.858 -8.13,5.378 -7.931,4.646C-7.76,4.016 -7.352,3.51 -6.715,3.278C-6.253,3.11 -5.769,2.947 -5.284,2.906C-4.543,2.844 -3.794,2.89 -3.048,2.89C-3.041,2.856 -3.034,2.823 -3.027,2.79C-3.303,2.718 -3.575,2.617 -3.856,2.583C-4.152,2.547 -4.455,2.575 -4.858,2.575C-4.484,2.298 -4.225,2.055 -3.924,1.892C-2.823,1.296 -2.237,1.24 -1.338,2.346C-0.759,3.058 -0.208,3.76 0.656,4.18C1.239,4.464 1.852,4.792 2.09,5.605C2.177,4.64 2.232,4.65 1.481,4.216C1.157,4.028 0.838,3.826 0.497,3.676C-0.097,3.414 -0.502,2.962 -0.83,2.43C-0.886,2.338 -0.885,2.186 -0.859,2.073C-0.665,1.235 -0.08,0.699 0.582,0.218C0.731,0.111 0.841,-0.049 0.969,-0.185C0.935,-0.22 0.901,-0.254 0.867,-0.289C0.435,0.018 -0.051,0.272 -0.414,0.645C-0.769,1.01 -0.998,1.496 -1.284,1.931C-2.514,1.188 -2.514,1.188 -3.811,1.405C-3.956,0.776 -4.277,0.241 -4.812,-0.138C-5.384,-0.543 -5.754,-1.088 -5.992,-1.734C-6.026,-1.827 -6.057,-1.939 -6.038,-2.032C-5.923,-2.598 -5.679,-3.096 -5.18,-3.423C-4.504,-3.867 -3.87,-4.344 -3.62,-5.19C-3.928,-5.382 -3.97,-5.068 -4.099,-4.923C-4.362,-4.626 -4.607,-4.31 -4.897,-4.041C-5.138,-3.817 -5.432,-3.651 -5.64,-3.504C-5.855,-3.684 -6.051,-3.901 -6.292,-4.039C-7.111,-4.503 -7.596,-5.247 -8.043,-6.032C-8.076,-6.089 -8.123,-6.14 -8.17,-6.187C-8.422,-6.443 -8.691,-6.538 -9.073,-6.446C-9.717,-6.291 -10.221,-5.977 -10.622,-5.451C-10.829,-5.178 -11.063,-4.867 -11.358,-4.732C-12.046,-4.417 -12.708,-4.1 -13.129,-3.401C-13.189,-4.1 -13.48,-4.627 -14.029,-5.027C-14.372,-5.277 -14.675,-5.582 -15.024,-5.887C-15.055,-5.868 -15.14,-5.814 -15.3,-5.713C-14.252,-4.844 -13.32,-3.939 -13.44,-2.444C-13.522,-2.472 -13.599,-2.491 -13.67,-2.523C-14.462,-2.874 -15.114,-2.768 -15.706,-2.105C-16.212,-1.539 -16.865,-1.276 -17.581,-1.019C-17.711,-1.434 -17.797,-1.845 -17.969,-2.216C-18.143,-2.593 -18.403,-2.93 -18.641,-3.31C-18.759,-3.2 -18.802,-3.168 -18.835,-3.127C-18.867,-3.087 -18.887,-3.039 -18.921,-2.981C-18.353,-2.445 -18.03,-1.794 -17.96,-1.029C-17.949,-0.905 -18.009,-0.755 -18.08,-0.645C-18.341,-0.244 -18.722,0.11 -18.873,0.546C-19.171,1.41 -19.723,2.006 -20.435,2.415C-20.8,2.144 -21.16,1.878 -21.531,1.603C-21.775,2.026 -21.5,2.091 -21.312,2.199C-20.758,2.518 -20.71,2.678 -20.901,3.288C-21.219,4.302 -21.394,5.338 -21.305,6.342C-20.29,6.164 -19.274,5.986 -18.257,5.807C-17.99,5.76 -17.741,5.81 -17.688,6.101C-17.605,6.556 -17.486,7.034 -17.549,7.479C-17.656,8.225 -18.456,8.638 -19.144,8.393C-18.449,8.32 -17.897,8.108 -17.862,7.391C-18.172,7.431 -18.479,7.47 -18.808,7.512C-18.8,7.36 -18.795,7.264 -18.788,7.132C-19.11,7.533 -19.11,7.533 -19.461,7.458L-19.461,6.988C-19.802,7.04 -19.381,7.65 -19.901,7.561C-19.948,7.375 -19.988,7.215 -20.028,7.055C-20.108,7.159 -20.114,7.264 -20.147,7.359C-20.182,7.457 -20.245,7.546 -20.296,7.639C-20.371,7.567 -20.454,7.502 -20.519,7.422C-20.578,7.35 -20.618,7.262 -20.723,7.085C-20.566,8.062 -21.405,7.724 -21.721,8.062C-21.721,8.071 -21.729,8.113 -21.719,8.15C-21.089,10.61 -19.794,12.659 -17.89,14.328C-17.809,14.399 -17.667,14.456 -17.567,14.439C-17.034,14.35 -16.506,14.235 -15.962,14.126C-15.985,14.045 -16.015,13.94 -16.037,13.863C-15.801,13.976 -15.569,14.088 -15.296,14.219C-15.256,13.949 -15.234,13.803 -15.212,13.656L-15.138,13.656C-15.108,13.802 -15.077,13.948 -15.052,14.066C-14.469,14.38 -14.416,13.82 -14.205,13.523C-14.178,13.543 -14.151,13.564 -14.124,13.585C-14.157,13.782 -14.19,13.979 -14.226,14.194C-13.822,14.2 -13.41,14.351 -13.119,13.921C-13.135,14.034 -13.151,14.147 -13.167,14.256C-12.648,14.407 -12.141,14.555 -11.634,14.702C-11.642,14.741 -11.65,14.779 -11.658,14.818C-13.552,14.415 -15.449,14.247 -17.478,14.657M-23.029,5.15C-23.114,-1.862 -17.479,-7.79 -10.267,-7.942C-2.712,-8.102 3.131,-2.022 3.115,5.154C3.1,12.238 -2.523,18.228 -9.966,18.228C-17.485,18.227 -23.107,12.132 -23.029,5.15" style="fill:rgb(76,145,57);fill-rule:nonzero;"/>
    </g>
    <g transform="matrix(4.166667,0,0,4.166667,51.155213,31.669118)">
        <path d="M0,11.082C0.026,11.03 0.051,10.978 0.077,10.926C-0.059,10.841 -0.185,10.709 -0.331,10.679C-1.106,10.522 -1.561,10.06 -1.713,9.293C-1.949,8.096 -1.661,7.068 -0.684,6.224C-0.851,6.214 -1.023,6.148 -1.104,6.207C-1.655,6.608 -2.397,6.793 -2.663,7.527C-2.759,7.791 -2.876,8.058 -2.91,8.332C-3.014,9.19 -3.111,10.061 -2.467,10.783C-2.362,10.901 -2.19,11.009 -2.039,11.024C-1.847,11.043 -1.662,10.981 -1.483,11.136C-1.437,11.176 -1.254,11.057 -1.126,11.008C-0.777,11.031 -0.389,11.057 0,11.082M-0.581,6.439C-0.069,6.61 0.442,6.782 0.944,6.95C0.71,7.625 0.425,8.213 0.318,8.832C0.223,9.386 0.321,9.974 0.338,10.547C0.346,10.835 0.522,10.862 0.755,10.815C1.437,10.677 2.119,10.527 2.806,10.416C3.293,10.338 3.789,10.316 4.342,10.263C4.422,10.687 4.541,11.089 4.565,11.496C4.614,12.326 4.215,12.821 3.368,13.074C2.586,13.308 0.677,12.925 -0.09,12.334C0.512,12.515 1.013,12.719 1.534,12.808C2.106,12.907 2.704,12.97 3.277,12.912C3.603,12.879 3.903,12.573 4.214,12.39C4.202,12.332 4.189,12.274 4.176,12.216C3.842,12.116 3.507,12.015 3.128,11.901C3.118,11.837 3.102,11.723 3.086,11.608C2.931,11.71 2.774,11.813 2.534,11.97L2.534,11.285C2.507,11.279 2.48,11.273 2.453,11.266C2.418,11.366 2.397,11.474 2.344,11.563C2.291,11.65 2.206,11.719 2.135,11.796C2.08,11.709 2.011,11.627 1.976,11.532C1.946,11.451 1.953,11.354 1.871,11.242C1.807,11.399 1.743,11.556 1.656,11.768C1.404,11.716 1.148,11.662 0.815,11.593C0.827,11.585 0.737,11.697 0.653,11.693C-0.031,11.658 -0.715,11.611 -1.397,11.548C-2.413,11.454 -3.073,10.749 -3.136,9.714C-3.204,8.603 -3.088,7.54 -2.395,6.607C-1.719,5.695 -1.144,5.167 0.16,5.566C0.4,5.64 0.654,5.667 0.901,5.716C0.625,5.25 -0.236,4.972 -0.954,5.118C-1.02,5.132 -1.089,5.142 -1.148,5.171C-1.621,5.403 -1.64,4.983 -1.773,4.735C-1.929,4.442 -1.71,4.304 -1.508,4.206C-1.308,4.109 -1.08,4.07 -0.822,3.992C-1.284,3.829 -1.671,3.906 -2.057,4.14C-2.177,4.213 -2.361,4.236 -2.502,4.21C-3.193,4.083 -3.879,3.932 -4.567,3.79C-4.58,3.854 -4.593,3.919 -4.606,3.984C-4.354,4.028 -4.093,4.044 -3.852,4.122C-3.397,4.27 -2.922,4.398 -2.515,4.636C-2.047,4.911 -2.034,5.392 -2.389,5.799C-2.565,6.002 -2.736,6.21 -2.902,6.422C-3.261,6.882 -3.808,6.981 -4.22,6.582C-4.881,5.942 -5.424,5.199 -5.714,4.318C-5.985,3.496 -5.809,3.195 -4.986,2.996C-4.625,2.908 -4.244,2.907 -3.897,2.87C-4.314,2.646 -4.704,2.631 -5.377,2.801C-5.724,2.636 -5.999,2.507 -6.273,2.377C-6.292,2.416 -6.312,2.456 -6.332,2.495C-6.238,2.545 -6.103,2.571 -6.06,2.649C-5.987,2.779 -5.897,3.039 -5.945,3.076C-6.535,3.538 -6.395,4.111 -6.238,4.696C-6.232,4.716 -6.246,4.741 -6.254,4.777C-7.204,4.562 -8.091,4.727 -8.92,5.235C-8.513,5.167 -8.106,5.103 -7.701,5.029C-6.867,4.879 -6.173,5.125 -5.8,5.891C-5.304,6.91 -5.044,7.997 -5.419,9.126C-5.512,9.407 -5.733,9.647 -5.941,9.876C-5.339,8.932 -5.296,7.939 -5.704,6.943C-5.837,6.618 -6.214,6.402 -6.444,6.108C-6.738,5.732 -7.095,5.842 -7.472,5.891C-8.36,6.006 -9.251,6.094 -10.154,6.195C-10.226,5.266 -10.064,4.352 -9.689,3.504C-9.528,3.14 -9.162,2.845 -8.838,2.58C-8.393,2.215 -7.996,1.835 -7.858,1.252C-7.542,-0.085 -6.278,-0.714 -5.035,-0.793C-4.755,-0.811 -4.472,-0.795 -4.172,-0.876C-4.323,-0.91 -4.473,-0.95 -4.626,-0.978C-4.783,-1.007 -4.943,-1.024 -5.104,-1.046C-4.625,-1.93 -3.67,-2.226 -2.791,-1.756C-2.29,-1.488 -1.912,-1.095 -1.674,-0.575C-1.369,0.093 -0.986,0.671 -0.336,1.089C0.481,1.615 0.792,2.117 0.945,2.841C0.241,2.392 -0.443,1.986 -1.325,1.94C-0.762,2.222 -0.236,2.454 0.259,2.741C1.129,3.246 1.903,3.854 2.324,4.821C2.454,5.122 2.498,5.401 2.288,5.646C1.959,6.032 1.598,6.391 1.237,6.749C1.198,6.789 1.07,6.763 0.992,6.737C0.585,6.602 0.184,6.444 -0.228,6.323C-0.341,6.29 -0.482,6.354 -0.61,6.374C-0.601,6.396 -0.591,6.417 -0.581,6.439" style="fill:rgb(76,145,57);fill-rule:nonzero;"/>
    </g>
    <g transform="matrix(4.166667,0,0,4.166667,71.490629,22.436618)">
        <path d="M0,-0.702C-0.208,-0.336 -0.389,-0.018 -0.575,0.31C-1.075,0.067 -1.634,-0.052 -2.21,0.26C-2.28,0.298 -2.364,0.333 -2.409,0.393C-2.803,0.92 -3.326,1.25 -3.901,1.568C-4.395,1.842 -4.761,2.344 -5.243,2.8C-5.538,2.709 -5.802,2.424 -6.014,2.053C-6.316,1.524 -6.629,0.999 -6.975,0.499C-7.273,0.069 -7.274,-0.394 -6.938,-0.83C-6.596,-1.274 -6.135,-1.542 -5.624,-1.716C-5.128,-1.884 -4.762,-2.207 -4.471,-2.609C-4.076,-3.156 -3.58,-3.502 -2.899,-3.428C-2.649,-3.401 -2.303,-3.244 -2.2,-3.044C-1.805,-2.277 -1.222,-1.72 -0.525,-1.244C-0.311,-1.097 -0.155,-0.866 0,-0.702" style="fill:rgb(76,145,57);fill-rule:nonzero;"/>
    </g>
    <g transform="matrix(4.166667,0,0,4.166667,61.798546,23.033285)">
        <path d="M0,6.753C-0.425,5.847 -1.239,5.329 -1.468,4.375C-1.579,3.909 -1.954,3.488 -2.273,3.098C-2.464,2.865 -2.484,2.702 -2.282,2.526C-1.881,2.176 -1.465,1.845 -1.052,1.51C-0.762,1.275 -0.432,1.078 -0.183,0.807C0.557,0 1.743,0.196 2.102,1.224C2.311,1.822 2.63,2.299 3.214,2.584C3.707,2.825 3.959,3.271 4.098,3.775C4.13,3.888 4.066,4.096 3.975,4.161C3.414,4.562 2.895,5 2.158,5.136C1.259,5.303 0.547,5.851 0,6.753" style="fill:rgb(76,145,57);fill-rule:nonzero;"/>
    </g>
</svg>
