<?xml version="1.0" encoding="UTF-8" standalone="no"?>
<!DOCTYPE svg PUBLIC "-//W3C//DTD SVG 1.1//EN" "http://www.w3.org/Graphics/SVG/1.1/DTD/svg11.dtd">
<svg width="100%" height="100%" viewBox="0 0 61 61" version="1.1" xmlns="http://www.w3.org/2000/svg" xmlns:xlink="http://www.w3.org/1999/xlink" xml:space="preserve" xmlns:serif="http://www.serif.com/" style="fill-rule:evenodd;clip-rule:evenodd;stroke-linejoin:round;stroke-miterlimit:2;">
    <g transform="matrix(0.058594,0,0,0.058594,-0.000013,0)">
        <path d="M511.96,1009.647C486.288,1009.647 462.174,999.658 444.021,981.532L42.429,579.94C4.995,542.48 4.995,481.522 42.429,444.116L444.048,42.497C462.201,24.344 486.288,14.355 511.96,14.355C537.605,14.355 561.692,24.344 579.845,42.497L981.464,444.116C999.617,462.242 1009.579,486.356 1009.579,512.028C1009.579,537.673 999.616,561.787 981.464,579.94L579.872,981.532C561.719,999.658 537.605,1009.647 511.96,1009.647Z" style="fill:rgb(232,203,158);fill-rule:nonzero;"/>
    </g>
    <g transform="matrix(0.058594,0,0,0.058594,-0.000013,0)">
        <path d="M511.919,14.436C487.304,14.435 462.71,23.798 444.025,42.483L42.444,444.104C5.055,481.493 5.055,542.503 42.444,579.892L444.025,981.513C462.722,1000.194 487.346,1009.559 511.958,1009.56C536.57,1009.561 561.143,1000.191 579.852,981.513L981.473,579.892C1018.833,542.501 1018.833,481.495 981.473,444.104L579.852,42.483C561.155,23.802 536.533,14.437 511.919,14.436Z" style="fill:rgb(232,203,158);fill-rule:nonzero;"/>
    </g>
    <g transform="matrix(0.058594,0,0,0.058594,-0.000013,0)">
        <path d="M218.029,715.249C218.029,697.858 218.091,681.279 218.007,664.723C217.945,655.72 209.684,647.771 200.55,647.727C185.223,647.705 169.874,647.727 154.526,647.727C153.337,647.727 152.13,647.976 150.835,648.1C173.123,670.366 195.169,692.412 218.027,715.27L218.029,715.249ZM981.821,514.069C981.323,509.345 980.875,505.329 980.396,501.333C978.659,487.169 972.447,475.049 962.5,465.058C920.45,422.854 878.312,380.783 836.175,338.645C834.967,337.456 833.673,336.336 831.781,334.649L831.781,496.305C831.781,506.34 839.357,514.069 849.128,514.069L981.821,514.069ZM388.116,138.035C364.401,161.816 341.631,184.542 319.035,207.423C317.653,208.805 316.925,211.506 316.925,213.548C316.801,271.364 316.881,329.158 316.863,386.952C316.863,391.564 318.948,394.945 322.372,397.865C326.829,401.643 332.363,400.809 337.325,401.002C351.005,401.5 364.707,401.251 378.409,401.126C380.077,401.104 381.876,400.466 383.37,399.719C388.661,397.043 388.069,391.836 388.069,387.247C388.131,306.221 388.131,225.24 388.131,144.258L388.116,138.035ZM493.075,45.107L493.075,498.213C493.075,499.682 492.764,501.331 493.324,502.607C493.946,504.076 495.079,505.968 496.374,506.342C500.569,507.593 504.894,508.888 509.197,508.975C523.031,509.286 536.909,509.162 550.764,508.997C552.762,508.975 554.959,508.25 556.671,507.217C564.334,502.717 567.298,495.381 567.321,487.016C567.445,428.585 567.383,370.132 567.383,311.702C567.383,232.652 567.405,153.581 567.361,74.531C567.361,72.664 567.383,70.205 566.309,68.998C559.282,61.005 551.465,53.737 541.693,49.192C526.191,42.012 509.985,40.475 493.078,45.109L493.075,45.107ZM666.374,168.974L666.374,174.483C666.374,259.79 666.685,345.142 666.25,430.471C666.063,464.88 668.665,499.354 664.339,533.675C663.573,539.933 662.845,546.366 660.828,552.273C658.83,558.049 655.207,563.274 652.374,568.786C640.451,591.952 620.381,602.69 595.436,604.995C583.82,606.072 572.007,605.119 560.303,605.244C541.177,605.493 522.052,605.742 502.904,606.19C497.066,606.314 492.057,611.792 492.057,617.455C492.057,627.38 492.035,637.261 492.101,647.165C492.163,661.657 502.114,671.583 516.475,671.583C577.519,671.521 638.606,671.521 699.694,671.583C704.088,671.605 708.5,672.205 712.913,672.504C730.699,673.842 746.904,679.157 761.331,690.202C773.474,699.512 783.048,710.118 786.341,725.467C786.839,727.907 787.617,730.254 788.034,731.879C828.042,691.849 867.984,651.929 907.772,612.141C907.648,612.141 906.826,612.017 906.06,612.017C876.526,611.706 847.014,611.581 817.503,610.965C804.152,610.716 790.933,608.768 779.823,600.293C773.104,595.133 766.758,589.446 759.907,584.461C750.816,577.807 744.888,569.024 740.43,558.924C739.335,556.397 737.137,554.094 736.919,551.567C735.911,540.632 735.077,529.653 734.834,518.696C734.523,502.359 734.834,486 734.834,469.685C734.834,393.753 734.834,317.822 734.772,241.912C734.772,239.802 734.399,237.038 733.06,235.676C711.234,213.63 689.254,191.738 666.395,168.945L666.374,168.974ZM220.885,305.635C219.372,306.998 218.775,307.546 218.209,308.094C165.334,360.948 112.392,413.779 59.715,466.786C55.345,471.199 51.722,476.711 49.088,482.376C39.953,501.963 40.173,521.879 48.839,541.663C50.507,545.46 52.704,547.921 57.885,547.899C99.144,547.65 140.382,547.877 181.642,547.943C204.808,548.005 227.864,547.632 250.898,552.356C270.945,556.483 287.568,565.268 300.194,581.012C313.896,598.161 319.847,618.736 321.472,640.145C323.028,660.632 322.592,681.273 322.68,701.848C322.804,739.967 322.68,778.108 322.867,816.228C322.867,818.643 324.075,821.718 325.768,823.408C372.473,870.333 419.2,917.148 466.169,963.787C470.8,968.374 476.555,972.329 482.484,975.029C494.89,980.718 507.955,982.737 521.833,980.718C535.337,978.764 547.436,973.845 556.856,964.535C598.84,923.188 640.341,881.357 681.974,839.659C683.007,838.582 684.084,836.933 684.103,835.551C684.29,825.582 684.806,815.613 681.227,805.907C674.42,787.44 668.03,781.929 647.434,781.599C622.248,781.226 597.018,782.502 571.81,782.302C544.626,782.115 517.441,781.424 490.301,780.086C478.619,779.464 466.718,777.559 456.376,771.391C435.669,759.072 416.039,745.48 403.501,724.071C401.017,719.857 398.87,715.441 397.199,710.896C394.958,704.858 393.203,698.688 391.622,692.451C390.24,687.005 388.504,681.428 388.485,675.894C388.112,639.443 388.298,602.971 388.112,566.542C387.988,545.462 387.614,524.382 387.104,503.324C386.855,493.618 382.996,490.237 373.138,490.237C345.054,490.237 317.013,490.281 288.928,490.215C285.698,490.193 282.428,489.842 279.244,489.182C259.745,485.161 244.638,474.47 233.417,458.287C223.822,444.432 221.384,428.38 220.967,412.087C220.531,395.091 220.905,378.096 220.905,361.078L220.905,305.633L220.885,305.635ZM1009.749,510.55C1009.114,539.381 999.297,562.283 980.127,581.431C914.582,646.845 849.146,712.368 783.667,777.825C716.563,844.929 649.327,911.945 582.376,979.182C559.824,1001.777 533.058,1012.141 501.372,1009.045C480.775,1007.072 462.704,998.703 447.333,984.737C444.918,982.54 442.571,980.168 440.263,977.842C308.58,846.18 177.006,714.475 45.213,582.924C22.376,560.132 11.661,533.233 14.933,501.152C17.087,480.204 25.539,461.737 40.229,446.564C55.117,431.128 70.466,416.13 85.639,400.957C204.455,282.141 323.292,163.347 442.064,44.466C457.456,29.051 475.44,18.841 497.113,15.701C527.284,11.35 553.853,19.305 576.711,39.57C578.553,41.219 580.29,42.993 582.045,44.73C714.19,176.852 846.29,309.019 978.522,441.053C994.441,456.929 1005.157,475.264 1008.495,497.639C1009.217,502.513 1009.441,507.454 1009.746,510.551L1009.749,510.55ZM515.205,-0C482.421,0 454.776,11.484 433.367,32.872L232.032,234.141C165.96,300.213 99.932,366.286 33.837,432.314C12.582,453.547 0.812,479.019 0.044,509.036C-0.79,540.744 10.299,568.126 32.74,590.633C81.553,639.599 130.52,688.435 179.442,737.358C263.674,821.633 347.994,905.887 432.247,990.184C454.403,1012.384 481.039,1024.154 512.417,1024C543.619,1023.876 569.969,1011.923 591.993,989.877C724.862,856.92 857.819,724.007 990.754,591.072C1034.868,546.936 1035.483,477.988 991.432,433.874C857.619,299.731 723.564,165.83 589.488,31.951C568.188,10.674 541.992,0.529 515.203,0.002L515.205,-0Z" style="fill:rgb(69,28,21);fill-rule:nonzero;"/>
    </g>
</svg>
