<?xml version="1.0" encoding="UTF-8" standalone="no"?>
<!DOCTYPE svg PUBLIC "-//W3C//DTD SVG 1.1//EN" "http://www.w3.org/Graphics/SVG/1.1/DTD/svg11.dtd">
<svg width="100%" height="100%" viewBox="0 0 61 61" version="1.1" xmlns="http://www.w3.org/2000/svg" xmlns:xlink="http://www.w3.org/1999/xlink" xml:space="preserve" xmlns:serif="http://www.serif.com/" style="fill-rule:evenodd;clip-rule:evenodd;stroke-linejoin:round;stroke-miterlimit:2;">
    <g transform="matrix(0.058594,0,0,0.058594,0.000023,0.000019)">
        <path d="M603.186,600.75C600.398,600.563 597.584,600.626 594.799,600.772C580.878,601.494 576.245,606.567 577.387,618.118C578.352,627.845 580.15,637.506 581.756,647.166C584.059,660.999 585.179,674.81 582.067,688.686C581.88,689.607 581.015,690.398 579.565,692.62C576.995,679.007 574.517,666.931 572.517,654.789C570.849,644.777 570.32,634.567 568.166,624.664C566.411,616.584 565.073,607.187 554.75,604.947C550.051,603.895 544.935,603.87 540.127,604.325C535.011,604.885 529.149,605.159 526.206,610.344C523.044,615.989 519.97,621.871 518.126,628.019C517.161,631.311 515.736,632.145 513.053,632.718C507.806,633.813 502.602,635.114 497.354,636.253C493.383,637.112 491.995,639.216 492.039,643.521C492.537,686.205 492.917,728.889 493.047,771.595C493.171,825.872 493.091,880.149 493.091,934.448L493.091,979.02C502.906,980.906 512.194,981.939 521.942,980.557C535.402,978.584 547.346,973.487 556.963,964.287C576.593,945.448 595.585,925.929 614.753,906.607C615.96,905.4 616.794,903.271 616.882,901.534C617.255,890.643 617.38,879.774 617.504,868.906C618.002,791.904 618.469,714.857 618.799,637.833C618.821,630.5 617.243,623.21 617,615.854C616.689,605.513 613.291,601.429 603.189,600.726L603.186,600.75Z" style="fill:rgb(69,28,21);fill-rule:nonzero;"/>
    </g>
    <g transform="matrix(0.058594,0,0,0.058594,0.000023,0.000019)">
        <path d="M420.875,744.156C420.751,713.109 420.937,682.106 420.751,651.059C420.707,645.09 419.456,639.115 418.952,633.099C417.919,620.693 410.565,611.779 402.572,603.238C401.738,602.379 399.914,602.099 398.551,602.118C396.31,602.18 393.827,602.18 391.854,603.126C389.371,604.377 386.19,606.045 385.289,608.329C382.719,614.96 381.094,621.964 379.208,628.858C375.76,641.351 372.423,653.845 369.042,666.339C368.32,654.724 368.096,643.24 368.407,631.779C368.594,624.907 368.967,617.924 370.623,611.315C371.899,606.311 370.996,603.081 367.088,600.293C360.567,595.75 358.261,589.227 357.273,581.586C356.439,575.153 356.962,568.478 352.225,562.572C346.406,555.238 334.923,552.867 326.755,557.699C317.336,563.251 312.154,571.993 306.994,580.885C305.743,583.014 305.015,585.827 305.015,588.306C305.202,613.337 305.513,638.39 305.893,663.42C306.204,684.542 306.727,705.664 306.746,726.765C306.746,733.879 305.165,740.971 304.922,748.107C304.424,764.443 304.362,780.757 303.914,797.093C303.852,800.323 304.748,802.558 307.076,804.865C344.117,841.753 381.092,878.771 418.089,915.79C419.01,916.711 420,917.57 421.798,919.3L421.798,912.866C421.487,856.635 421.076,800.404 420.852,744.151L420.875,744.156Z" style="fill:rgb(69,28,21);fill-rule:nonzero;"/>
    </g>
    <g transform="matrix(0.058594,0,0,0.058594,0.000023,0.000019)">
        <path d="M263.513,668.343C260.177,654.444 257.519,640.436 248.516,628.799C247.134,626.975 245.398,625.09 243.4,624.081C238.215,621.38 232.29,619.824 227.503,616.594C207.435,602.937 185.259,593.166 164.29,581.222C161.545,579.685 160.139,580.127 159.13,583.637C156.933,591.234 159.896,597.931 162.049,604.671C164.949,613.761 168.614,622.654 172.303,632.534C163.52,629.814 159.305,624.696 156.494,617.889C153.818,611.368 151.029,604.868 147.624,598.72C140.927,586.732 133.572,575.073 126.897,563.041C121.937,554.105 117.587,544.773 112.998,535.595C109.133,527.822 104.347,520.313 101.624,512.145C94.422,490.583 89.372,468.583 93.28,445.55C93.653,443.509 95.346,441.641 96.398,439.712C97.537,441.884 99.012,443.994 99.715,446.342C102.902,456.552 105.864,466.828 108.893,477.104C109.64,477.228 110.405,477.353 111.152,477.477C111.986,476.095 113.169,474.776 113.567,473.282C115.104,467.487 115.92,461.448 117.806,455.805C122.723,440.962 128.016,426.251 133.307,411.562C134.888,407.149 136.73,402.824 138.709,398.564C141.584,392.262 144.703,386.092 147.733,379.857C147.173,379.421 146.569,378.911 146.021,378.432C145.075,379.944 144.372,381.706 143.164,382.932C116.618,409.587 90.006,436.177 63.395,462.788C46.774,479.366 39.901,499.171 43.371,522.598C45.5,536.892 51.539,549.144 61.639,559.266C129.485,627.244 197.441,695.113 265.332,763.046C266.695,764.428 267.635,766.189 268.755,767.77C269.004,767.397 269.253,767.023 269.545,766.65C269.109,749.37 268.985,732.09 268.226,714.81C267.548,699.243 267.193,683.697 263.502,668.349L263.513,668.343Z" style="fill:rgb(69,28,21);fill-rule:nonzero;"/>
    </g>
    <g transform="matrix(0.058594,0,0,0.058594,0.000023,0.000019)">
        <path d="M721.891,727.317C721.58,689.749 721.331,652.159 720.858,614.591C720.671,599.968 718.661,585.564 714.556,571.49C711.612,561.456 706.213,558.338 692.38,558.338C687.065,558.338 681.797,563.828 679.733,571.666C679.073,574.168 678.239,576.869 678.414,579.373C678.663,582.665 678.787,587.277 680.872,588.837C687.503,593.841 691.499,599.596 691.675,608.071C691.862,617.139 692.484,626.163 692.926,635.188C692.223,635.312 691.501,635.437 690.816,635.561C690.318,634.242 689.633,632.947 689.26,631.584C686.602,622.208 684.057,612.767 681.356,603.391C680.018,598.848 675.91,597.926 672.244,598.318C664.735,599.108 653.054,612.458 652.615,620.253C652.055,630.353 651.426,640.475 651.408,650.575C651.346,721.693 651.346,792.811 651.386,863.907C651.386,865.6 651.51,867.312 651.573,869.023C652.009,869.272 652.426,869.459 652.868,869.701C653.945,868.276 654.866,866.695 656.117,865.419C675.461,846.031 694.673,826.534 714.281,807.409C719.926,801.901 723.13,796.782 722.602,788.109C721.438,767.865 722.042,747.599 721.88,727.311L721.891,727.317Z" style="fill:rgb(69,28,21);fill-rule:nonzero;"/>
    </g>
    <g transform="matrix(0.058594,0,0,0.058594,0.000023,0.000019)">
        <path d="M765.49,574.583C769.424,573.288 774.009,571.465 776.315,568.415C784.57,557.393 792.893,546.283 799.413,534.228C806.307,521.45 816.298,514.16 829.911,510.976C832.5,510.341 835.749,510.727 837.706,509.327C840.756,507.13 844.6,504.099 845.237,500.83C846.731,493.387 846.774,485.57 846.793,477.929C846.793,476.062 844.951,473.404 843.214,472.483C840.581,471.101 839.461,473.666 838.384,475.819C836.318,479.883 834.127,483.921 831.709,487.807C830.831,489.189 829.338,490.396 827.844,491.124C820.006,494.815 809.949,488.466 810.256,478.477C810.629,467.652 809.49,456.806 808.961,445.981C808.712,440.778 808.712,435.464 807.953,430.304C807.231,425.449 808.077,419.962 803.279,416.339C800.69,414.341 798.449,413.308 796.67,416.961C795.002,420.366 792.587,423.899 792.344,427.478C790.919,448.82 790.234,470.205 788.852,491.526C788.217,501.187 787.974,510.716 780.31,518.928C772.494,527.359 765.643,528.106 759.495,518.43C758.705,517.198 757.696,515.903 757.566,514.521C756.751,507.868 755.767,501.194 755.655,494.518C755.344,479.873 755.593,465.206 755.593,450.561C755.593,439.495 756.228,428.385 755.406,417.407C754.547,405.66 752.487,394.023 750.533,382.408C750.284,380.827 747.658,378.655 745.965,378.543C744.359,378.419 742.274,380.323 740.917,381.792C740.058,382.757 739.884,384.518 739.778,385.943C738.701,397.689 737.382,409.458 736.815,421.227C735.85,440.154 734.662,459.125 735.035,478.051C735.284,488.349 731.17,495.265 724.079,501.435C719.536,505.431 711.124,505.082 706.536,501.062C698.983,494.519 695.975,485.759 694.328,476.427C693.363,470.981 693.382,465.383 692.816,459.871C692.026,452.362 691.167,444.874 690.246,437.365C688.597,424.038 686.954,410.688 685.13,397.338C684.943,396.199 683.53,394.263 682.759,394.288C681.464,394.35 679.51,395.477 679.137,396.597C677.295,401.975 674.923,407.421 674.525,412.998C673.075,432.65 672.222,452.366 671.45,472.084C671.139,480.867 668.593,488.617 663.26,495.621C657.002,503.877 647.627,505.392 639.02,499.486C631.488,494.326 629.161,486.642 628.876,478.232C628.378,462.577 627.693,446.944 627.998,431.311C628.185,422.77 624.905,415.678 621.565,408.41C619.959,404.918 617.283,405.005 615.59,408.534C613.81,412.312 611.725,416.241 611.09,420.303C609.378,431.632 608.302,443.028 607.007,454.38C605.974,463.47 604.922,472.538 603.976,481.628C603.478,486.813 600.31,489.532 595.742,491.377C589.484,493.904 579.977,492.367 577.123,487.138C575.057,483.385 573.718,478.817 573.501,474.579C572.823,458.463 572.841,442.259 572.318,426.142C572.007,416.108 571.353,406.052 570.451,396.083C569.704,387.762 568.584,379.484 567.221,371.294C566.848,369.122 565.049,367.186 563.574,364.575C559.031,370.264 555.714,375.18 555.472,381.767C554.706,403.658 553.648,425.571 553.014,447.462C552.641,461.646 552.093,475.874 552.97,490.014C553.53,498.621 550.294,504.637 544.627,509.929C543.071,511.423 539.355,512.499 537.667,511.665C531.96,508.765 526.271,504.771 525.02,498.162C522.736,486.261 521.553,474.185 519.885,462.174C518.964,455.521 519.263,448.232 510.619,443.862C508.335,449.657 504.694,455.06 504.295,460.68C502.932,480.178 503.112,499.763 501.793,519.261C501.357,526.09 498.588,532.83 496.129,539.286C495.077,542.099 492.507,545.498 489.871,546.334C480.781,549.253 470.461,548.357 469.1,535.465C468.913,533.492 468.54,531.538 468.602,529.583C468.789,521.503 469.523,513.423 469.224,505.365C468.564,487.975 467.469,470.607 466.392,453.239C465.956,446.191 465.626,439.099 464.463,432.183C463.324,425.311 461.388,418.526 459.39,411.851C458.488,408.801 456.602,406.013 454.604,402.014C451.971,405.792 449.245,408.033 448.872,410.599C446.849,424.52 444.571,438.528 443.974,452.558C443.184,471.835 443.476,491.18 443.952,510.479C444.201,518.932 441.736,525.322 435.367,530.811C429.722,535.641 419.075,535.971 414.706,529.89C408.999,521.964 403.486,513.554 403.047,503.278C402.257,485.164 401.97,467.05 400.962,448.935C400.103,433.17 398.939,417.427 397.078,401.772C396.375,395.953 393.431,390.355 391.128,384.822C390.63,383.615 388.539,382.451 387.151,382.426C386.205,382.404 384.668,384.312 384.388,385.563C382.826,392.062 380.983,398.605 380.349,405.215C378.967,419.97 377.909,434.769 377.361,449.546C376.863,462.566 377.299,475.608 377.112,488.651C377.05,496.6 367.978,504.701 362.313,501.584C356.649,498.491 351.29,494.492 346.548,490.078C340.115,484.109 339.105,475.477 338.841,467.397C338.281,449.59 338.654,431.762 338.654,413.933C338.654,411.275 338.716,408.618 338.343,406.029C335.841,388.2 333.358,370.371 330.571,352.565C329.824,347.953 329.339,342.728 322.183,339.523C320.272,352.565 317.596,364.487 317.048,376.52C316.214,395.249 317.048,414.044 316.737,432.839C316.55,443.268 315.772,453.72 314.739,464.127C314.017,471.263 312.542,478.399 307.998,484.305C304.662,488.562 301.06,492.517 295.153,493.154C286.744,494.032 280.903,489.619 277.698,482.812C274.337,475.61 271.748,467.794 270.562,459.977C268.956,449.131 269.728,437.911 268.122,427.064C266.74,417.6 263.535,408.423 260.964,399.157C260.777,398.323 259.539,397.402 258.661,397.271C258.039,397.147 256.906,398.13 256.551,398.895C255.188,401.839 253.458,404.777 252.929,407.897C250.626,421.773 246.122,435.189 246.364,449.593C246.675,468.213 246.342,486.876 245.356,505.473C244.858,515.09 238.989,526.42 226.079,524.839C224.056,524.59 221.075,525.026 220.172,523.849C216.655,519.393 213.321,514.649 210.819,509.555C205.043,497.852 204.738,485.381 205.417,472.536C206.232,457.057 206.469,441.511 205.666,426.054C205.293,419.226 204.06,411.629 198.047,406.491C195.147,403.989 192.582,404.362 191.021,407.96C189.838,410.817 188.451,413.755 188.164,416.765C186.34,437.075 184.342,457.385 183.247,477.717C182.432,492.757 177.428,498.4 162.476,499.125C155.45,499.498 148.38,500.133 141.397,501.278C139.026,501.651 136.916,503.892 134.701,505.299C136.481,507.757 137.732,511.361 140.122,512.435C145.126,514.651 150.705,515.684 156.129,516.935C172.421,520.732 186.934,527.496 198.286,540.385C205.773,548.926 213.898,556.962 221.89,565.02C229.641,572.859 238.928,578.326 249.511,581.422C251.77,582.082 254.341,582.1 256.713,581.795C268.197,580.5 275.596,573.034 281.481,564.054C288.639,553.12 295.336,541.834 301.856,530.504C307.171,521.238 313.428,513.488 324.56,511.314C327.13,510.816 329.72,510.019 332.288,510.107C338.064,510.294 343.947,508.744 349.393,512.653C357.912,518.69 362.984,527.452 366.892,536.454C371.504,547.059 379.013,551.89 389.793,553.69C393.154,554.312 396.951,555.974 399.234,558.364C404.238,563.679 408.632,569.628 412.913,575.556C417.961,582.626 422.135,590.355 427.536,597.118C435.572,607.108 446.09,613.015 459.154,608.952C466.598,606.606 473.887,602.803 480.211,598.237C487.764,592.791 493.912,585.392 501.245,579.551C510.313,572.306 519.513,564.95 529.525,559.153C538.835,553.775 547.902,548.153 555.17,540.359C564.019,530.895 574.36,525.472 587.271,526.526C592.3,526.899 598.623,527.951 601.828,531.182C611.577,541.106 623.105,543.983 636.278,543.741C645.017,543.554 652.197,541.195 657.51,533.663C660.037,530.059 662.888,525.891 668.225,525.846C678.831,525.802 688.93,525.802 699.075,531.423C712.49,538.844 722.854,548.878 730.89,561.284C739.563,574.678 750.431,579.596 765.494,574.612L765.49,574.583Z" style="fill:rgb(69,28,21);fill-rule:nonzero;"/>
    </g>
    <g transform="matrix(0.058594,0,0,0.058594,0.000023,0.000019)">
        <path d="M983.543,577.422C961.477,600.586 938.422,622.872 915.763,645.51C804.311,756.962 692.814,868.393 581.406,979.89C562.15,999.168 539.139,1009.158 512.066,1009.532C486.092,1009.159 463.41,1000.617 445.01,982.284C384.87,922.452 324.95,862.422 264.965,802.414C191.783,729.233 118.733,655.963 45.354,582.957C22.519,560.21 11.694,533.335 14.922,501.234C17.051,480.09 25.571,461.536 40.392,446.21C55.323,430.796 70.67,415.8 85.842,400.628C204.54,281.93 323.26,163.276 441.893,44.512C457.416,28.966 475.509,18.669 497.334,15.551C527.349,11.312 553.806,19.242 576.532,39.286C578.374,40.935 580.111,42.734 581.866,44.489C714.111,176.713 846.335,308.958 978.646,441.093C994.301,456.748 1005.016,474.731 1008.266,496.753C1012.834,527.537 1005.017,554.895 983.543,577.422ZM991.226,433.539C857.487,299.537 723.573,165.733 589.615,31.994C568.076,10.477 541.596,-0.217 511.186,0.003C480.776,0.19 454.691,11.443 433.152,32.96C360.519,105.527 287.93,178.116 215.341,250.705C154.784,311.262 94.228,371.862 33.649,432.397C12.373,453.629 0.735,479.187 0.033,509.18C-0.695,540.885 10.484,568.222 32.946,590.683C92.756,650.625 152.654,710.457 212.53,770.311C285.712,843.493 358.916,916.631 432.032,989.879C454.054,1011.924 480.49,1023.363 511.888,1024C543.176,1023.502 569.854,1011.858 592.14,989.55C724.891,856.668 857.751,723.895 990.523,591.101C1034.876,546.748 1035.425,477.826 991.226,433.54L991.226,433.539Z" style="fill:rgb(69,28,21);fill-rule:nonzero;"/>
    </g>
    <g transform="matrix(0.058594,0,0,0.058594,0.000023,0.000019)">
        <path d="M963.751,466.245C828.498,330.75 693.09,195.386 557.573,60.133C552.961,55.521 547.166,51.658 541.259,48.913C528.502,43.031 515.065,41.009 500.88,43.336C487.684,45.533 475.827,50.56 466.496,59.869C372.038,154.019 277.778,248.368 183.562,342.694C182.006,344.25 180.992,346.428 180.095,348.47C176.342,357.099 173.135,366.013 168.897,374.423C165.474,381.252 165.032,382.833 169.644,388.717C181.018,379.847 192.369,370.932 203.764,362.083C213.162,354.815 225.37,351.61 232.747,341.378C236.481,336.243 242.013,332.222 245.153,326.799C254.155,311.232 268.054,301.966 283.906,294.983C287.155,293.533 291.02,293.446 294.599,292.767C294.848,293.445 295.097,294.149 295.327,294.852C288.981,299.308 281.977,303.086 276.466,308.421C270.889,313.823 266.849,320.783 262.128,327.041C262.315,327.539 262.501,328.031 262.75,328.535C264.574,328.224 266.547,328.224 268.152,327.502C281.919,321.353 295.598,315.272 310.045,310.661C332.551,303.459 355.276,297.926 378.484,294.852C377.924,285.959 377.582,277.33 376.835,268.701C376.524,265.452 374.924,261.609 378.59,260.072C379.71,259.574 383.358,263.122 384.739,265.474C392.929,279.416 396.377,295.137 400.855,310.42C403.357,318.873 404.564,327.7 407.135,336.131C407.994,338.988 411.261,341.091 413.414,343.574C415.872,341.358 419.65,339.553 420.594,336.812C426.631,319.312 432.034,301.571 437.698,283.94C439.347,278.824 441.32,273.818 443.188,268.79C444.022,266.574 445.099,264.309 448.148,265.454C450.893,266.462 451.44,268.398 450.868,271.336C449.729,277.043 449.156,282.842 448.298,288.836C457.959,287.871 466.983,286.907 477.368,285.848C475.874,276.341 474.25,267.339 473.042,258.314C472.606,254.71 472.998,250.959 472.998,247.27C473.62,247.146 474.205,247.021 474.84,246.897C476.309,249.156 478.201,251.248 479.209,253.704C482.414,261.542 485.686,269.403 488.211,277.483C493.701,294.719 498.86,312.087 503.932,329.498C506.216,337.27 507.641,345.351 510.167,353.058C511.991,358.523 515.04,363.553 518.248,370.294C522.2,366.585 526.02,364.518 527.448,361.379C531.226,352.948 534.299,344.165 537.131,335.382C542.403,319.068 547.275,302.689 552.391,286.331C554.059,281.016 555.926,275.792 557.75,270.413C564.293,273.27 565.765,279.085 568.245,284.048C572.44,292.326 576.215,300.845 580.453,309.101C583.173,314.435 587.501,315.359 590.729,310.526C596.723,301.677 601.883,292.236 606.933,282.773C613.168,271.114 618.833,259.169 625.025,247.532C625.815,246.082 628.604,245.752 630.446,244.899C630.695,246.81 631.585,248.876 631.068,250.563C628.124,259.675 624.81,268.7 621.715,277.79C620.856,280.336 620.265,282.993 619.319,286.397C651.003,286.584 681.435,289.577 710.923,299.922C707.145,293.291 703.26,287.275 698.979,281.544C695.886,277.393 694.081,272.476 694.853,267.47C696.764,268.634 698.693,269.599 700.299,270.893C715.032,282.925 729.699,294.979 744.344,307.121C753.214,314.476 760.922,323.171 770.648,329.604C785.534,339.507 800.224,349.651 816.142,360.475C815.769,357.73 816.018,355.359 815.134,353.603C813.354,350.111 810.983,346.906 808.767,343.678C802.842,335.115 797.744,326.135 795.527,315.903C795.091,313.793 796.087,311.403 796.293,309.978C804.483,317.729 812.234,325.084 820.05,332.308C825.428,337.268 831.292,341.771 836.276,347.085C844.708,356.065 849.12,367.351 854.281,378.395C861.175,393.172 866.84,408.256 870.133,424.087C872.635,436.273 873.668,448.722 875.448,461.084C875.697,462.839 876.008,464.576 876.438,466.269C877.06,468.528 878.523,470.812 878.349,472.966C877.54,482.759 876.438,492.507 875.119,502.234C874.683,505.396 876.526,506.211 878.586,506.404C880.142,506.528 882.669,505.906 883.285,504.823C886.515,499.116 890.267,493.428 891.936,487.214C897.556,466.685 901.114,445.782 899.862,424.33C899.818,422.88 900.939,420.291 901.928,420.091C904.455,419.531 906.079,420.969 906.297,423.956C906.546,427.361 906.795,430.894 907.946,434.056C910.473,441.038 912.446,448.02 912.072,455.552C911.699,463.456 911.35,471.361 911.512,479.221C911.761,492.703 907.273,504.757 899.831,515.472C889.555,530.271 878.182,544.323 867.62,558.924C862.66,565.753 858.925,573.482 853.919,580.266C847.683,588.742 840.943,596.888 833.982,604.77C825.661,614.168 816.812,623.17 808.205,632.348C807.527,631.975 806.842,631.626 806.139,631.253C806.388,629.342 806.015,627.058 806.929,625.546C810.682,619.201 814.767,613.053 818.72,606.817C821.62,602.274 824.757,597.881 827.283,593.138C828.466,590.966 828.515,588.196 829.306,584.509C825.615,587.689 823.225,589.911 820.655,591.864C806.383,602.842 790.398,610.593 773.624,616.961C756.52,623.46 751.272,633.956 750.921,650.181C750.062,688.122 750.734,726.085 750.859,764.048L750.859,769.276C751.295,769.463 751.693,769.587 752.135,769.712C752.882,768.859 753.604,767.976 754.419,767.166C824.549,697.015 894.723,626.928 964.72,556.623C968.977,552.341 972.449,546.896 974.952,541.385C980.747,528.606 982.9,515.213 980.572,501.051C978.4,487.657 973.26,475.691 963.819,466.227L963.751,466.245Z" style="fill:rgb(69,28,21);fill-rule:nonzero;"/>
    </g>
</svg>
