<?xml version="1.0" encoding="UTF-8" standalone="no"?>
<!DOCTYPE svg PUBLIC "-//W3C//DTD SVG 1.1//EN" "http://www.w3.org/Graphics/SVG/1.1/DTD/svg11.dtd">
<svg width="100%" height="100%" viewBox="0 0 61 61" version="1.1" xmlns="http://www.w3.org/2000/svg" xmlns:xlink="http://www.w3.org/1999/xlink" xml:space="preserve" xmlns:serif="http://www.serif.com/" style="fill-rule:evenodd;clip-rule:evenodd;stroke-linejoin:round;stroke-miterlimit:2;">
    <g transform="matrix(0.058594,0,0,0.058594,0.000109,-0.000009)">
        <path d="M511.96,1009.647C486.288,1009.647 462.174,999.658 444.021,981.532L42.429,579.94C4.995,542.48 4.995,481.522 42.429,444.116L444.048,42.497C462.201,24.344 486.288,14.355 511.96,14.355C537.605,14.355 561.692,24.344 579.845,42.497L981.464,444.116C999.617,462.242 1009.579,486.356 1009.579,512.028C1009.579,537.673 999.616,561.787 981.464,579.94L579.872,981.532C561.719,999.658 537.605,1009.647 511.96,1009.647Z" style="fill:rgb(232,203,158);fill-rule:nonzero;"/>
    </g>
    <g transform="matrix(0.058594,0,0,0.058594,0.000109,-0.000009)">
        <path d="M511.919,14.436C487.304,14.435 462.71,23.798 444.025,42.483L42.444,444.104C5.055,481.493 5.055,542.503 42.444,579.892L444.025,981.513C462.722,1000.194 487.346,1009.559 511.958,1009.56C536.57,1009.561 561.143,1000.191 579.852,981.513L981.473,579.892C1018.833,542.501 1018.833,481.495 981.473,444.104L579.852,42.483C561.155,23.802 536.533,14.437 511.919,14.436Z" style="fill:rgb(232,203,158);fill-rule:nonzero;"/>
    </g>
    <g transform="matrix(0.058594,0,0,0.058594,0.000109,-0.000009)">
        <path d="M644.291,808.001C639.393,808.063 639.156,812.215 638.802,815.269C638.366,819.395 641.721,820.516 644.64,820.846C650.086,820.908 653.357,819.004 653.488,815.904C653.675,812.481 648.397,807.934 644.289,808L644.291,808.001Z" style="fill:rgb(69,28,21);fill-rule:nonzero;"/>
    </g>
    <g transform="matrix(0.058594,0,0,0.058594,0.000109,-0.000009)">
        <path d="M606.229,768.222C601.748,764.93 597.381,761.24 592.375,759.023C577.62,752.414 562.47,745.871 546.047,745.915C524.376,745.977 502.573,746.637 481.078,749.077C465.357,750.857 449.966,755.796 434.531,759.528C404.473,766.84 378.389,781.177 357.069,803.792C352.787,808.36 350.372,817.822 353.534,821.313C358.999,827.375 364.424,834.201 372.944,835.826C386.074,838.266 399.336,840.413 412.641,841.533C423.421,842.454 434.4,841.72 445.268,841.72C453.677,841.72 453.37,841.658 455.697,833.421C456.836,829.313 454.838,828.218 451.857,827.913C446.809,827.291 441.691,827.079 436.619,826.836C424.829,826.276 414.575,821.415 404.892,815.177C403.156,814.082 401.817,812.214 400.523,810.503C400.025,809.868 399.751,808.53 400.15,807.933C400.523,807.311 401.756,807.012 402.59,807.055C403.685,807.117 404.787,807.615 405.839,808.02C425.139,815.99 444.834,820.952 465.846,815.924C467.999,815.426 471.553,814.318 471.709,813.154C472.02,810.391 471.398,807.048 469.973,804.591C465.89,797.521 461.103,790.89 456.953,783.909C455.746,781.824 455.677,779.054 455.111,776.641C455.671,776.33 456.206,776.019 456.779,775.72C457.831,776.598 458.889,777.475 459.916,778.396C468.413,785.839 476.734,793.502 485.429,800.748C492.96,807.005 499.789,806.125 505.3,797.916C508.462,793.261 510.348,787.75 512.897,782.656C513.557,781.337 514.59,780.216 515.467,778.99L517.291,779.693C516.457,788.322 515.579,796.951 514.677,806.26C533.955,804.941 549.741,796.138 566.494,789.134C563.924,793.26 560.961,796.972 557.47,800.112C549.588,807.291 539.619,810.826 530.025,814.998C526.664,816.467 523.657,818.16 525.214,822.617C527.081,828.019 528.332,828.592 533.975,827.185C537.137,826.376 540.342,825.735 543.438,824.832C561.487,819.629 579.622,814.82 595.606,804.325C605.069,798.089 608.846,789.044 610.009,778.373C610.445,774.377 609.636,770.688 606.256,768.207L606.229,768.222Z" style="fill:rgb(69,28,21);fill-rule:nonzero;"/>
    </g>
    <g transform="matrix(0.058594,0,0,0.058594,0.000109,-0.000009)">
        <path d="M921.081,550.883C919.345,550.945 917.677,553.559 915,555.912C917.502,558.352 918.884,560.897 920.62,561.159C924.547,561.719 925.381,557.755 925.493,555.209C925.555,553.74 922.618,550.859 921.08,550.883L921.081,550.883Z" style="fill:rgb(69,28,21);fill-rule:nonzero;"/>
    </g>
    <g transform="matrix(0.058594,0,0,0.058594,0.000109,-0.000009)">
        <path d="M780.968,657.584C776.356,657.562 774.359,659.426 774.294,664.039C774.25,667.748 777.194,670.384 781.342,670.428C785.406,670.472 788.587,667.509 788.127,663.38C787.691,659.453 784.922,657.604 780.969,657.586L780.968,657.584Z" style="fill:rgb(69,28,21);fill-rule:nonzero;"/>
    </g>
    <g transform="matrix(0.058594,0,0,0.058594,0.000109,-0.000009)">
        <path d="M232.55,654.269C228.71,654.456 222.56,660.505 222.714,663.974C222.838,667.111 228.907,671.373 233.121,671.417C237.976,671.417 239.444,667.882 240.345,662.569C240.221,657.497 236.965,654.072 232.55,654.27L232.55,654.269Z" style="fill:rgb(69,28,21);fill-rule:nonzero;"/>
    </g>
    <g transform="matrix(0.058594,0,0,0.058594,0.000109,-0.000009)">
        <path d="M217.429,577.358C214.311,577.234 209.81,582.213 209.876,585.723C209.898,588.269 214.114,592.068 216.968,592.134C220.721,592.258 223.753,588.686 223.708,584.23C223.708,581.112 220.372,577.445 217.429,577.358Z" style="fill:rgb(69,28,21);fill-rule:nonzero;"/>
    </g>
    <g transform="matrix(0.058594,0,0,0.058594,0.000109,-0.000009)">
        <path d="M561.287,859.567C555.71,859.545 551.846,863.432 551.802,869.162C551.758,872.629 555.25,875.025 559.728,875.53C565.417,876.19 567.193,872.343 567.369,866.726C567.431,862.313 565.128,859.59 561.288,859.568L561.287,859.567Z" style="fill:rgb(69,28,21);fill-rule:nonzero;"/>
    </g>
    <g transform="matrix(0.058594,0,0,0.058594,0.000109,-0.000009)">
        <path d="M323.913,711.953C318.181,711.891 314.054,715.837 313.813,721.614C313.689,725.809 317.765,729.211 322.925,729.211C328.807,729.233 333.112,725.39 333.398,719.946C333.585,715.882 329.029,712.02 323.913,711.954L323.913,711.953Z" style="fill:rgb(69,28,21);fill-rule:nonzero;"/>
    </g>
    <g transform="matrix(0.058594,0,0,0.058594,0.000109,-0.000009)">
        <path d="M506.269,816.529C499.66,814.4 492.941,813.193 485.696,815.608C474.85,819.255 467.977,825.445 465.935,837.191C464.242,847.094 462.356,857.216 458.689,866.481C450.609,886.9 437.896,904.619 425.579,919.22C441.936,936.126 457.943,952.616 474.761,969.961C479.547,962.408 484.861,954.921 489.187,946.929C500.999,925.148 506.84,901.26 512.9,877.459C516.28,864.088 519.289,850.672 518.85,836.708C518.477,826.015 514.786,819.275 506.269,816.53L506.269,816.529Z" style="fill:rgb(69,28,21);fill-rule:nonzero;"/>
    </g>
    <g transform="matrix(0.058594,0,0,0.058594,0.000109,-0.000009)">
        <path d="M428.045,633.722C428.418,636.205 431.512,638.309 432.632,639.697C438.8,639.697 442.578,634.755 442.578,629.158C442.578,625.162 440.051,623.824 436.603,623.712C432.694,623.588 427.382,629.114 428.04,633.724L428.045,633.722Z" style="fill:rgb(69,28,21);fill-rule:nonzero;"/>
    </g>
    <g transform="matrix(0.058594,0,0,0.058594,0.000109,-0.000009)">
        <path d="M470.289,595.819C470.165,599.049 473.712,602.889 477.008,603.065C480.126,603.189 485.198,597.183 485.154,593.404C485.11,590.199 481.507,587.193 477.645,587.169C473.606,587.125 470.509,590.748 470.29,595.82L470.289,595.819Z" style="fill:rgb(69,28,21);fill-rule:nonzero;"/>
    </g>
    <g transform="matrix(0.058594,0,0,0.058594,0.000109,-0.000009)">
        <path d="M590.478,676.056C600.249,676.616 610.151,677.967 619.812,676.958C630.439,675.838 635.028,665.782 630.834,655.902C627.081,647.01 619.856,641.345 611.424,637.898C587.887,628.282 563.383,624.153 537.936,627.798C525.223,629.622 514.201,634.89 505.462,644.551C501.883,648.503 501.049,652.785 503.004,657.747C505.419,663.915 509.262,668.045 516.068,669.648C525.07,671.82 533.874,674.478 542.525,669.088C543.533,668.453 544.349,666.872 544.411,665.684C544.433,664.937 542.961,663.948 541.971,663.381C536.506,660.176 530.861,657.145 525.438,653.83C524.318,653.108 523.789,651.415 522.955,650.208C524.623,650.021 526.272,649.71 527.915,649.772C528.618,649.794 529.253,650.65 530,650.979C536.894,653.811 543.635,657.236 550.771,659.19C561.354,662.09 567.018,658.468 570.619,647.948C570.992,646.871 571.241,645.732 571.714,644.718C572.48,643.249 573.469,641.861 575.206,639.073C576.196,642.235 577.204,643.834 577.117,645.375C576.868,648.779 576.327,652.16 575.58,655.497C574.79,659.057 574.765,661.754 579.14,663.094C586.978,665.44 594.729,666.43 602.787,664.059C605.818,663.181 608.998,662.764 612.097,662.173C612.221,662.733 612.346,663.268 612.47,663.822C605.554,669.268 597.627,672.056 587.725,673.153C588.646,674.161 589.505,676.01 590.488,676.072L590.478,676.056Z" style="fill:rgb(69,28,21);fill-rule:nonzero;"/>
    </g>
    <g transform="matrix(0.058594,0,0,0.058594,0.000109,-0.000009)">
        <path d="M983.552,577.367C961.486,600.553 938.432,622.817 915.817,645.453C804.323,756.903 692.829,868.332 581.422,979.826C562.166,999.126 539.156,1009.115 512.281,1009.511C486.109,1009.2 463.428,1000.641 445.029,982.351C384.891,922.476 324.972,862.447 264.965,802.463C191.806,729.304 118.758,655.992 45.38,582.987C22.545,560.263 11.699,533.388 14.883,501.288C17.036,480.144 25.532,461.59 40.33,446.265C55.26,430.83 70.608,415.834 85.78,400.662C204.586,281.856 323.413,163.073 442.175,44.201C457.567,28.809 475.614,18.666 497.285,15.592C527.255,11.291 553.713,19.258 576.46,39.283C578.327,40.932 580.039,42.706 581.775,44.461C714.04,176.66 846.217,308.903 978.57,441.036C994.203,456.691 1004.94,474.673 1008.211,496.695C1012.779,527.478 1004.981,554.836 983.554,577.363L983.552,577.367ZM991.348,433.726C857.524,299.617 723.503,165.683 589.415,31.837C568.007,10.474 541.638,-0.109 511.404,0.001C480.994,0.125 454.866,11.308 433.305,32.804C366.053,99.968 298.845,167.22 231.614,234.407C165.701,300.342 99.81,366.321 33.787,432.212C12.533,453.443 0.787,478.935 0.04,508.927C-0.775,540.632 10.316,568.012 32.755,590.517C81.718,639.589 130.746,688.552 179.775,737.581C263.912,821.74 348.093,905.833 432.185,990.013C454.075,1011.947 480.401,1023.276 511.733,1024.001C542.889,1023.565 569.632,1012.034 591.94,989.727C724.797,856.76 857.765,723.858 990.645,590.934C1034.755,546.824 1035.37,477.859 991.348,433.727L991.348,433.726Z" style="fill:rgb(69,28,21);fill-rule:nonzero;"/>
    </g>
    <g transform="matrix(0.058594,0,0,0.058594,0.000109,-0.000009)">
        <path d="M868.315,553.085C866.23,556.577 863.921,558.861 863.815,561.209C863.753,562.833 866.734,564.589 868.383,566.257C870.032,563.911 872.248,561.732 873.014,559.121C873.325,558.026 870.686,556.003 868.315,553.084L868.315,553.085Z" style="fill:rgb(69,28,21);fill-rule:nonzero;"/>
    </g>
    <g transform="matrix(0.058594,0,0,0.058594,0.000109,-0.000009)">
        <path d="M675.357,647.234C675.73,651.298 678.587,652.898 682.537,652.568C687.018,652.59 689.848,649.518 689.98,644.466C690.042,641.609 686.688,638.69 683.283,638.672C678.609,638.628 674.896,642.381 675.357,647.235L675.357,647.234Z" style="fill:rgb(69,28,21);fill-rule:nonzero;"/>
    </g>
    <g transform="matrix(0.058594,0,0,0.058594,0.000109,-0.000009)">
        <path d="M862.672,589.937C861.552,591.779 859.442,593.69 859.529,595.514C859.591,597.381 861.813,599.205 862.492,600.213C867.894,600.169 869.013,597.182 868.199,594.898C867.477,592.857 864.595,591.562 862.666,589.938L862.672,589.937Z" style="fill:rgb(69,28,21);fill-rule:nonzero;"/>
    </g>
    <g transform="matrix(0.058594,0,0,0.058594,0.000109,-0.000009)">
        <path d="M799.764,584.294C800.424,586.248 803.056,588.707 804.992,588.881C808.701,589.254 810.152,586.205 810.089,582.8C810.276,579.134 808.048,577.665 805.041,577.335C802.452,577.086 798.784,581.418 799.769,584.295L799.764,584.294Z" style="fill:rgb(69,28,21);fill-rule:nonzero;"/>
    </g>
    <g transform="matrix(0.058594,0,0,0.058594,0.000109,-0.000009)">
        <path d="M713.739,696.891C711.785,699.549 710.49,702.667 708.866,705.586C709.812,706.663 710.515,707.559 711.324,708.306C714.05,710.876 719.185,710.764 721.446,708.182C724.676,704.385 724.763,698.851 721.468,696.348C718.81,694.282 715.848,694.064 713.739,696.908L713.739,696.891Z" style="fill:rgb(69,28,21);fill-rule:nonzero;"/>
    </g>
    <g transform="matrix(0.058594,0,0,0.058594,0.000109,-0.000009)">
        <path d="M656.988,570.686C655.998,572.597 654.175,574.551 654.312,576.393C654.356,577.756 656.97,578.963 658.395,580.258C659.758,578.503 661.799,576.878 662.148,574.943C662.397,573.736 660.082,572.043 658.918,570.574C658.283,570.596 657.623,570.636 656.989,570.698L656.988,570.686Z" style="fill:rgb(69,28,21);fill-rule:nonzero;"/>
    </g>
    <g transform="matrix(0.058594,0,0,0.058594,0.000109,-0.000009)">
        <path d="M655.354,548.784C652.871,548.597 650.126,547.664 647.999,548.411C646.723,548.847 645.783,552.015 645.914,553.832C645.976,555.039 649.144,557.236 649.493,556.969C651.933,555.233 653.949,552.992 656.101,550.951C655.852,550.229 655.603,549.501 655.354,548.779L655.354,548.784Z" style="fill:rgb(69,28,21);fill-rule:nonzero;"/>
    </g>
    <g transform="matrix(0.058594,0,0,0.058594,0.000109,-0.000009)">
        <path d="M709.886,559.409C706.089,559.16 704.378,561.892 705.125,564.569C705.785,567.009 708.635,568.783 711.624,572.078C714.014,568.698 716.566,566.763 716.672,564.723C716.859,560.702 713.467,559.632 709.887,559.408L709.886,559.409Z" style="fill:rgb(69,28,21);fill-rule:nonzero;"/>
    </g>
    <g transform="matrix(0.058594,0,0,0.058594,0.000109,-0.000009)">
        <path d="M830.139,479.345C822.367,479.843 818.195,474.584 817.953,466.237C817.766,458.948 821.115,455.325 827.482,455.369C838.68,455.493 842.632,458.226 842.632,465.952C842.654,474.778 838.437,478.818 830.139,479.345ZM787.17,560.386C785.415,560.884 783.286,560.822 781.506,560.324C768.222,556.571 754.895,552.969 741.809,548.643C734.102,546.073 726.702,542.475 719.391,538.85C716.69,537.555 714.667,534.898 712.365,532.856C712.676,532.196 713,531.561 713.33,530.927C722.289,532.352 731.247,533.759 740.732,535.296C733.926,525.24 721.981,529.234 712.189,524.208C714.342,522.826 715.768,521.115 717.305,521.021C722.16,520.71 727.075,521.394 731.928,520.999C737.243,520.563 741.589,522.163 745.629,525.325C746.924,526.377 748.436,527.124 750.197,527.454C748.355,522.207 744.135,519.55 739.262,518.342C734.407,517.11 729.338,516.83 724.113,516.058C732.193,509.405 736.211,509.12 744.686,514.477C764.447,527.036 784.558,538.893 807.503,544.953C812.968,546.378 818.481,547.654 824.629,549.167C811.785,553.051 799.489,556.83 787.171,560.409L787.17,560.386ZM707.689,584.121C692.429,588.185 677.06,592.003 661.537,594.66C655.786,595.606 649.351,593.123 643.335,591.828C628.866,588.691 614.308,585.791 600.059,581.882C592.462,579.772 585.348,575.845 578.125,572.506C576.98,571.946 575.729,569.936 575.884,568.753C576.008,567.676 577.863,566.4 579.201,566.008C607.635,557.27 635.432,546.884 662.196,533.776C676.27,526.882 690.366,519.988 704.572,513.445C708.941,511.447 713.816,510.682 719.393,509.119C713.418,513.532 708.02,516.826 703.518,521.063C697.724,526.509 698.203,534.852 705.124,538.695C715.202,544.315 725.763,549.388 736.61,553.318C748.356,557.575 760.674,560.234 772.75,563.615C773.186,563.739 773.472,564.175 774.903,565.283C751.871,571.782 729.849,578.259 707.695,584.121L707.689,584.121ZM565.067,365.811C564.121,354.526 566.386,346.533 575.606,344.184C578.699,343.394 582.61,344.682 585.903,345.765C595.388,348.815 599.165,353.954 598.045,361.398C596.62,370.576 589.811,376.262 580.238,376.262C572.246,376.262 565.593,372.024 565.066,365.81L565.067,365.811ZM552.332,113.796C551.193,113.92 550.029,113.84 548.137,113.84C541.352,115.091 537.027,110.131 532.834,105.299C531.869,104.11 532.174,101.919 531.695,100.202C531.197,98.403 530.313,96.623 529.896,94.781C529.647,93.574 529.46,91.906 530.02,90.984C537.309,79.853 557.619,82.136 564.338,92.764C568.595,99.549 560.734,113.052 552.35,113.798L552.332,113.796ZM523.083,462.114C519.062,472.543 512.28,474.3 502.532,471.643C494.32,469.384 488.063,459.831 488.172,451.444C488.296,442.442 495.067,435.723 504.068,435.723C509.688,435.745 515.354,435.599 518.603,441.698C519.039,442.6 521.149,442.644 522.443,443.08C525.318,449.359 525.58,455.661 523.078,462.116L523.083,462.114ZM502.066,238.314C513.286,238.358 520.641,243.256 520.861,250.39C521.11,257.372 513.703,268.021 504.657,266.331C496.621,267.65 491.681,260.954 492.032,253.464C492.405,244.001 495.872,238.292 502.066,238.314ZM619.137,173.06C633.189,174.946 648.669,185.684 647.68,196.487C646.012,214.47 635.539,225.118 618.346,224.327C604.69,223.705 594.216,212.8 594.875,199.868C594.751,187.287 606.512,171.391 619.137,173.059L619.137,173.06ZM677.475,401.932C686.521,395.938 702.001,396.797 710.41,404.104C714.231,407.44 719.522,410.185 718.797,416.597C717.851,424.852 715.984,433.042 709.224,438.4C706.367,440.659 701.627,440.597 697.763,441.605C688.387,441.356 680.506,438.817 674.028,431.966C665.399,422.92 666.87,408.978 677.476,401.93L677.475,401.932ZM684.195,295.508C686.94,287.077 690.672,282.949 698.533,282.312C703.562,281.939 708.633,281.752 712.936,285.586C717.523,289.65 719.435,294.017 717.591,299.353C715.68,304.954 711.815,308.75 705.844,309.87C703.915,310.243 701.917,310.243 699.938,310.368C699.876,310.617 699.814,310.804 699.689,311.046C696.353,309.994 692.598,309.534 689.743,307.685C685.592,305.027 682.168,301.648 684.185,295.478L684.195,295.508ZM811.993,357.483C819.129,356.761 827.582,365.936 827.692,373.709C827.879,383.523 821.083,391.076 811.927,391.317C804.418,391.504 795.504,383.72 795.416,376.716C795.292,364.772 802.135,358.448 811.993,357.482L811.993,357.483ZM446.113,342.355C443.15,361.567 422.774,366.99 408.634,361.852C400.949,359.039 396.646,351.884 397.107,341.542C397.879,324.679 407.844,314.316 424.707,313.064C438.649,312.056 446.532,320.595 446.707,334.516C446.52,337.13 446.458,339.763 446.085,342.354L446.113,342.355ZM408.736,165.036C409.701,159.242 408.86,152.345 417.277,151.291C420.526,150.855 424.017,149.866 427.048,150.613C436.489,152.959 439.365,156.588 438.531,163.458C437.454,172.306 433.39,175.753 423.337,176.808C420.393,175.974 417.213,175.601 414.576,174.194C411.153,172.352 407.857,169.98 408.738,165.039L408.736,165.036ZM352.333,451.81C344.605,453.982 336.569,456.204 328.906,451.437C321.397,446.713 320.036,437.802 325.24,427.79C328.184,422.014 336.108,417.075 344.847,421.378C346.559,422.212 348.687,422.193 350.424,422.984C354.619,424.895 358.021,427.353 357.472,432.93C357.223,435.917 357.97,439.036 358.393,442.92C357.957,446.324 356.725,450.626 352.331,451.834L352.333,451.81ZM308.879,261.714C308.901,250.692 317.771,240.592 327.432,240.636C338.498,240.658 345.612,246.698 345.393,256.203C345.144,267.423 337.708,275.941 325.917,275.327C315.663,274.829 308.879,269.856 308.879,261.714ZM230.627,362.12C225.667,361.871 218.726,355.291 218.748,350.813C218.872,339.703 223.883,331.777 230.781,331.733C241.627,331.689 249.444,337.571 249.421,345.676C249.377,355.952 241.781,362.604 230.627,362.121L230.627,362.12ZM207.924,493.968C198.922,496.339 188.142,492.978 185.002,486.086C183.925,483.758 184.324,480.204 185.251,477.633C186.788,473.245 186.458,467.577 192.211,465.557C199.786,462.856 207.317,462.283 213.377,468.544C215.636,470.847 216.452,474.562 217.92,477.612C217.547,477.799 217.154,477.985 216.781,478.172C217.615,485.329 213.42,492.531 207.954,493.981L207.924,493.968ZM146.388,424.708C137.035,425.144 130.602,416.277 133.632,407.495C134.13,406.045 135.518,404.663 136.837,403.848C139.32,402.354 141.997,401.016 144.785,400.095C151.987,397.68 153.37,398.253 156.949,404.769C158.486,407.539 159.712,410.458 161.075,413.288C161.199,420.445 154.642,424.31 146.386,424.705L146.388,424.708ZM962.943,465.588C829.053,331.281 694.878,197.281 560.791,63.172C550.032,52.413 537.43,45.607 522.17,43.39C499.906,40.185 480.431,45.96 464.623,61.745C330.294,195.811 196.119,330.073 61.922,464.292C50.57,475.622 44.027,489.41 42.644,505.131C40.802,526.077 46.994,544.631 62.054,559.78C75.338,573.108 88.797,586.259 101.905,599.763C105.135,603.124 107.394,603.41 111.434,601.145C157.125,575.632 203.234,550.93 252.613,532.949C278.697,523.486 305.176,515.691 332.71,512.069C342.437,510.774 352.405,511.235 362.285,510.992C363.474,510.97 364.681,511.552 366.741,512.087C334.927,520.452 312.004,532.858 287.347,555.846C270.814,571.282 267.301,591.767 279.355,609.135C282.977,614.338 288.027,618.554 292.66,622.967C310.028,639.522 330.996,650.522 353.106,658.734C378.575,668.219 404.769,675.816 430.765,683.918C453.336,690.966 475.842,698.212 498.72,704.14C516.483,708.771 534.816,711.342 552.798,715.118C568.299,718.367 583.888,721.464 599.148,725.701C628.371,733.869 656.959,743.771 683.526,759.053C698.193,767.484 707.832,779.209 712.926,795.062C713.959,798.292 714.949,801.539 716.374,806.084C721.117,800.968 725.31,796.555 729.438,792.054C730.06,791.394 730.845,790.274 730.67,789.614C728.89,783.049 728.517,775.299 724.652,770.293C712.445,754.616 695.889,744.165 677.644,736.48C650.901,725.238 623.5,715.929 595.374,708.64C588.765,706.947 583.298,703.219 582.09,695.225C580.951,687.65 579.015,680.207 577.217,672.72C576.097,667.977 571.728,667.361 568.018,666.726C564.066,666.048 559.674,665.344 556.513,669.029C555.791,669.863 555.436,671.4 555.523,672.589C556.021,680.252 556.556,687.937 557.365,695.577C557.863,699.946 556.743,701.726 552.952,700.998C543.687,699.243 534.377,697.594 525.265,695.309C517.668,693.423 510.422,690.261 502.869,688.458C495.602,686.678 487.895,686.547 480.672,684.618C452.26,676.977 423.849,669.205 395.635,660.861C371.636,653.769 348.583,644.174 326.802,631.703C319.93,627.751 313.211,623.535 305.988,619.144C313.936,618.771 320.765,618.397 327.593,618.049C333.058,617.8 338.22,617.987 343.27,620.881C353.853,627.03 364.699,632.913 376.995,635.021C380.86,635.681 384.965,635.083 388.939,635.083C389.001,634.461 389.063,633.832 389.126,633.241C385.348,631.417 381.573,629.637 377.775,627.776C372.068,625.006 365.325,623.382 360.869,619.213C350,609.114 337.836,603.602 322.972,603.822C318.055,603.866 313.048,603.822 308.218,602.901C302.554,601.806 296.428,600.748 293.024,595.15C289.906,589.99 292.122,577.233 296.908,572.425C306.547,580.527 318.205,581.054 330.216,581.515C336.869,581.764 344.136,583.164 349.889,586.301C356.893,590.185 363.941,593.349 371.692,594.579C377.686,595.544 383.965,596.421 390.816,592.824C387.679,591.548 385.395,590.826 383.285,589.793C375.293,585.772 365.874,583.25 359.748,577.3C349.78,567.618 338.428,565.465 325.672,565.268C321.981,565.224 318.053,564.459 314.737,562.965C312.671,562.044 310.611,559.274 310.106,556.99C309.011,552.204 312.06,547.988 317.11,546.78C321.548,545.747 326.134,545.156 330.701,544.851C341.987,544.061 352.965,544.415 362.209,552.689C368.905,558.707 376.92,561.647 386.207,560.659C389.082,560.348 392.244,560.41 395.034,561.157C403.531,563.416 411.896,566.161 420.306,568.622C421.756,568.995 423.337,568.995 426.169,569.388C419.582,560.21 411.634,555.929 402.632,553.558C396.024,551.822 388.602,552.064 382.674,549.145C372.706,544.272 363.681,537.574 353.757,531.339C355.425,530.2 356.259,529.273 357.267,528.943C371.89,524.549 385.92,525.364 398.084,535.398C406.625,542.446 415.583,548.572 426.803,549.362C436.332,550.065 444.456,553.314 451.789,559.176C452.735,559.966 453.918,560.427 455.019,561.018C455.392,560.707 455.785,560.458 456.202,560.159C454.179,556.972 452.555,553.44 450.078,550.696C445.292,545.449 438.836,542.77 431.942,541.672C423.291,540.265 414.86,538.205 408.075,532.516C404.471,529.466 402.013,524.985 399.051,521.187C399.487,520.484 399.91,519.805 400.346,519.077C406.209,519.998 412.29,520.197 417.867,521.952C423.705,523.794 429.13,527.112 434.707,529.856C456.334,540.593 477.807,551.703 499.676,562C514.101,568.806 528.988,574.779 543.874,580.553C551.888,583.628 560.495,585.227 568.685,587.908C607.372,600.621 647.047,609.535 686.832,618.032C695.175,619.787 703.562,621.324 712.016,622.333C728.988,624.374 745.983,626.111 762.977,627.71C772.923,628.7 782.957,629.135 792.947,629.907C809.151,631.114 825.376,632.477 841.624,633.728C853.897,634.674 866.193,635.595 878.488,636.404C880.859,636.528 884.065,636.902 885.471,635.657C892.562,629.355 899.172,622.549 905.956,615.918C905.769,615.482 905.583,615.109 905.396,614.735C868.224,615.656 831.228,613.702 794.253,609.775C757.498,605.891 720.348,605.736 684.076,596.755C687.456,595.809 690.97,595.417 694.33,594.514C706.933,591.24 719.624,588.169 732.094,584.392C761.538,575.412 790.981,566.256 820.337,556.881C840.339,550.448 860.209,543.531 880.08,536.747C898.874,530.336 918.086,526.142 937.869,525.176C944.719,524.865 951.526,526.141 957.256,530.777C962.633,535.084 968.344,538.945 974.799,543.687C976.71,536.31 979.037,529.196 980.307,521.862C984.041,500.257 978.266,480.87 962.939,465.523L962.943,465.588Z" style="fill:rgb(69,28,21);fill-rule:nonzero;"/>
    </g>
</svg>
