<?xml version="1.0" encoding="UTF-8" standalone="no"?>
<!DOCTYPE svg PUBLIC "-//W3C//DTD SVG 1.1//EN" "http://www.w3.org/Graphics/SVG/1.1/DTD/svg11.dtd">
<svg width="100%" height="100%" viewBox="0 0 61 61" version="1.1" xmlns="http://www.w3.org/2000/svg" xmlns:xlink="http://www.w3.org/1999/xlink" xml:space="preserve" xmlns:serif="http://www.serif.com/" style="fill-rule:evenodd;clip-rule:evenodd;stroke-linejoin:round;stroke-miterlimit:2;">
    <g transform="matrix(0.058594,0,0,0.058594,0.00005,-0.000013)">
        <rect x="560.733" y="615.84" width="8.08" height="18.554" style="fill:rgb(69,28,21);fill-rule:nonzero;"/>
    </g>
    <g transform="matrix(0.058594,0,0,0.058594,0.00005,-0.000013)">
        <rect x="580.516" y="589.558" width="70.417" height="13.108" style="fill:rgb(69,28,21);fill-rule:nonzero;"/>
    </g>
    <g transform="matrix(0.058594,0,0,0.058594,0.00005,-0.000013)">
        <rect x="407.253" y="652.641" width="124.343" height="7.553" style="fill:rgb(69,28,21);fill-rule:nonzero;"/>
    </g>
    <g transform="matrix(0.058594,0,0,0.058594,0.00005,-0.000013)">
        <rect x="560.755" y="652.487" width="8.058" height="7.707" style="fill:rgb(69,28,21);fill-rule:nonzero;"/>
    </g>
    <g transform="matrix(0.058594,0,0,0.058594,0.00005,-0.000013)">
        <rect x="580.561" y="652.663" width="71.119" height="7.619" style="fill:rgb(69,28,21);fill-rule:nonzero;"/>
    </g>
    <g transform="matrix(0.058594,0,0,0.058594,0.00005,-0.000013)">
        <rect x="370.453" y="615.994" width="24.416" height="18.444" style="fill:rgb(69,28,21);fill-rule:nonzero;"/>
    </g>
    <g transform="matrix(0.058594,0,0,0.058594,0.00005,-0.000013)">
        <rect x="370.54" y="652.641" width="24.285" height="7.597" style="fill:rgb(69,28,21);fill-rule:nonzero;"/>
    </g>
    <g transform="matrix(0.058594,0,0,0.058594,0.00005,-0.000013)">
        <path d="M587.284,793.571C585.417,795.395 583.506,797.349 582.255,799.608C581.247,801.388 580.083,804.525 580.873,805.627C582.236,807.382 585.112,808.814 587.394,808.876C592.728,809 595.255,805.297 596.902,800.532C598.856,794.781 597.275,792.21 590.161,792.035C589.725,792.284 588.232,792.657 587.285,793.572L587.284,793.571Z" style="fill:rgb(69,28,21);fill-rule:nonzero;"/>
    </g>
    <g transform="matrix(0.058594,0,0,0.058594,0.00005,-0.000013)">
        <path d="M569.053,589.497L559.831,589.497C560.018,594.084 560.204,598.324 560.453,602.759L569.082,602.759L569.053,589.497Z" style="fill:rgb(69,28,21);fill-rule:nonzero;"/>
    </g>
    <g transform="matrix(0.058594,0,0,0.058594,0.00005,-0.000013)">
        <path d="M580.392,634.391L651.533,634.391C651.222,627.958 650.873,621.963 650.587,616.035L580.39,616.035L580.392,634.391Z" style="fill:rgb(69,28,21);fill-rule:nonzero;"/>
    </g>
    <g transform="matrix(0.058594,0,0,0.058594,0.00005,-0.000013)">
        <path d="M604.132,755.089C605.408,752.979 605.321,750.589 602.837,749.973C601.256,749.6 598.773,750.471 597.459,751.685C595.747,753.309 594.671,755.662 593.507,757.809C591.665,761.232 593.196,763.473 597.26,763.429C602.638,763.242 602.264,758.201 604.133,755.085L604.132,755.089Z" style="fill:rgb(69,28,21);fill-rule:nonzero;"/>
    </g>
    <g transform="matrix(0.058594,0,0,0.058594,0.00005,-0.000013)">
        <path d="M449.265,758.657C444.504,757.188 444.609,761.576 443.29,764.078C445.661,767.259 448.518,769.151 452.139,766.997C453.39,766.269 454.666,763.418 454.162,762.541C453.216,760.829 451.174,759.224 449.264,758.657L449.265,758.657Z" style="fill:rgb(69,28,21);fill-rule:nonzero;"/>
    </g>
    <g transform="matrix(0.058594,0,0,0.058594,0.00005,-0.000013)">
        <path d="M520.653,671.224C519.533,671.859 517.69,672.232 517.404,673.135C516.458,675.88 515.605,678.824 515.848,681.589C515.972,682.971 518.549,684.116 520.018,685.367C520.964,684.029 522.016,682.778 522.763,681.346C523.136,680.711 522.825,679.74 522.825,677.568C522.763,677.257 522.576,675.657 522.147,674.101C521.836,673.093 521.182,672.172 520.653,671.225L520.653,671.224Z" style="fill:rgb(69,28,21);fill-rule:nonzero;"/>
    </g>
    <g transform="matrix(0.058594,0,0,0.058594,0.00005,-0.000013)">
        <path d="M317.373,237.24C325.541,242.512 334.917,243.498 344.402,244.969C343.966,242.355 343.655,240.295 343.369,238.272C337.067,236.666 331.314,235.11 325.474,233.685C323.277,233.125 321.018,232.739 318.755,232.677C317.479,232.655 316.209,233.492 314.958,233.928C315.724,235.048 316.296,236.561 317.373,237.245L317.373,237.24Z" style="fill:rgb(69,28,21);fill-rule:nonzero;"/>
    </g>
    <g transform="matrix(0.058594,0,0,0.058594,0.00005,-0.000013)">
        <path d="M351.916,231.481C348.25,233.41 348.729,235.875 349.283,239.232C349.905,242.767 352.183,243.228 354.511,243.141C357.542,243.079 360.66,242.438 363.579,241.492C366.15,240.658 368.166,240.87 368.079,243.689C368.057,245.444 366.411,247.293 365.16,248.874C362.216,252.714 358.551,256.142 356.202,260.314C353.171,265.586 355.58,269.185 361.822,270.524C364.498,271.084 367.007,272.435 369.99,273.555C362.019,282.931 363.513,287.059 374.341,289.21C376.078,289.583 378.692,290.922 378.928,292.198C379.301,294.127 378.368,296.723 377.129,298.391C375.878,300.146 372.934,300.762 371.839,302.586C369.91,305.636 367.358,309.437 367.818,312.555C368.254,315.891 372.43,317.428 376.469,316.968C379.214,316.657 381.977,316.924 385.252,316.924C383.229,321.623 381.605,325.729 375.788,325.861C373.529,325.923 371.375,331.724 372.607,333.48C377.655,340.682 390.151,339.804 394.279,331.831C395.748,328.955 396.868,325.862 397.97,322.763C398.76,320.591 398.281,319.029 396.588,316.838C394.086,313.521 390.551,309.899 392.791,304.608C394.857,299.647 398.542,298.197 403.44,297.999C408.687,297.75 411.959,290.205 408.643,285.682C406.16,282.234 403.396,278.919 400.19,276.24C397.931,274.311 397.931,272.773 398.696,270.333C400.233,265.503 403.221,263.922 408.269,264.121C415.054,264.37 419.445,260.499 420.675,254.218C422.741,244.162 421.77,242.45 413.978,238.365C411.893,237.27 409.783,234.587 409.279,232.303C408.047,226.284 410.331,224.245 417.359,222.642C419.618,222.144 421.598,220.401 423.704,219.237C421.376,217.438 419.03,215.615 416.699,213.859C416.45,213.672 416.039,213.815 415.709,213.815C399.307,214.126 382.817,213.815 366.744,217.923C361.914,219.174 357.171,220.867 351.857,222.51C357.502,228.286 357.608,228.485 351.919,231.491L351.916,231.481Z" style="fill:rgb(69,28,21);fill-rule:nonzero;"/>
    </g>
    <g transform="matrix(0.058594,0,0,0.058594,0.00005,-0.000013)">
        <path d="M556.377,783.97C555.126,780.217 552.773,778.835 549.043,778.854C544.979,778.854 544.63,782.059 544.456,784.649C544.083,790.4 544.269,796.176 544.145,801.951C544.021,809.065 545.595,816.245 542.321,823.316C540.236,827.816 537.273,827.704 533.955,826.26C530.862,824.922 528.092,822.725 525.238,820.814C522.624,819.077 519.835,819.165 518.212,821.648C514.017,827.993 512.791,832.758 519.419,837.325C521.66,838.881 524.336,839.827 526.775,841.103C528.375,841.937 529.912,842.883 530.379,843.144C528.642,846.331 526.122,848.92 526.34,851.246C526.464,852.958 530.205,854.451 532.508,855.746C533.429,856.244 534.767,856.182 535.913,856.182C546.826,856.204 557.76,856.204 568.41,856.204C571.833,845.049 579.103,839.494 588.105,835.959C591.97,834.447 595.351,832.953 596.69,828.669C596.877,828.109 597.25,827.549 597.636,827.088C598.731,825.881 599.852,824.717 600.972,823.578C599.304,822.395 597.742,820.547 595.899,820.198C587.138,818.549 580.068,821.692 575.04,829.047C572.65,832.539 569.55,833.591 565.467,833.858C559.89,834.231 558.375,829.576 555.586,826.744C554.291,825.424 553.719,822.02 554.509,820.354C560.086,808.409 560.484,796.399 556.376,783.993L556.377,783.97Z" style="fill:rgb(69,28,21);fill-rule:nonzero;"/>
    </g>
    <g transform="matrix(0.058594,0,0,0.058594,0.00005,-0.000013)">
        <path d="M592.635,221.745C595.928,220.425 599.332,219.374 602.713,218.253C603.086,212.191 603.086,211.182 597.597,210.107C589.165,208.439 580.536,206.989 571.995,207.057C552.014,207.119 531.989,208.047 511.986,208.943C504.257,209.254 501.886,211.619 503.225,217.397C503.785,219.812 506.648,222.358 509.088,223.59C516.465,227.343 516.993,229.08 511.416,235.447C508.914,238.323 507.856,241.329 511.727,243.637C514.186,245.106 517.192,245.809 520.049,246.537C521.804,246.973 523.696,246.91 525.557,247.035C525.681,247.713 525.806,248.355 525.868,249.014C521.891,251.168 517.963,253.365 513.968,255.447C510.059,257.47 507.403,262.715 508.217,266.975C509.269,272.309 513.221,276.505 518.054,276.065C522.685,275.629 527.167,273.911 531.733,272.748C531.689,272.25 531.609,271.715 531.546,271.192C532.554,272.001 533.569,272.773 535.368,274.198C533.196,276.638 531.198,278.549 529.573,280.741C525.117,286.735 520.702,292.774 516.553,298.988C515.302,300.855 514.972,302.965 518.022,304.521C519.491,305.268 520.854,308.212 520.611,309.924C519.559,316.84 522.696,320.705 529.811,319.782C533.433,319.346 536.882,317.784 541.449,316.465C540.042,318.768 539.19,321.077 537.584,322.502C534.03,325.639 529.987,328.166 526.298,331.175C520.983,335.501 520.192,342.813 524.978,345.535C527.107,346.767 530.225,346.413 532.927,346.5C536.637,346.624 540.37,346.522 544.103,346.522C544.125,347.157 544.147,347.798 544.165,348.433C541.881,349.111 539.397,349.485 537.38,350.649C534.965,352.031 532.065,353.655 530.881,355.921C527.981,361.585 534.155,369.052 541.684,369.271C546.645,369.395 549.786,371.885 551.345,376.144C552.665,379.854 554.09,382.797 558.042,384.576C561.82,386.244 564.21,386.244 564.936,382.292C565.708,378.097 565.944,373.553 565.247,369.337C564.481,364.75 562.832,360.137 560.747,355.965C558.793,352.031 558.992,348.697 561.245,344.328C562.079,345.492 562.54,346.413 563.268,347.073C568.471,352.015 575.52,352.301 579.253,347.82C585.091,340.794 584.543,338.049 576.62,331.901C574.709,330.432 573.458,328.123 571.286,325.489C574.535,325.676 576.514,325.987 578.466,325.925C583.887,325.738 588.259,320.28 585.822,316.242C583.781,312.819 581.011,309.589 577.917,307.02C570.759,300.983 567.707,289.542 571.572,280.451C573.153,280.887 575.064,281.073 576.47,281.945C582.794,285.984 589.468,286.8 596.714,285.194C601.432,284.161 605.563,279.991 606.77,274.347C607.847,269.449 604.112,267.782 601.038,265.696C599.283,264.513 597.546,263.125 595.617,262.36C591.117,260.561 589.779,257.225 590.04,252.369C594.714,253.004 598.977,252.431 599.943,246.948C600.821,241.72 599.694,237.111 594.895,233.993C593.532,233.134 592.15,232.256 590.943,231.205C587.252,227.844 587.955,223.63 592.611,221.764L592.635,221.745Z" style="fill:rgb(69,28,21);fill-rule:nonzero;"/>
    </g>
    <g transform="matrix(0.058594,0,0,0.058594,0.00005,-0.000013)">
        <path d="M465.059,203.299L465.059,252.988C452.565,251.712 440.796,250.505 429.049,249.322C428.489,253.473 427.817,256.678 432.74,257.402C451.206,260.078 469.584,263.726 488.401,261.641C492.266,261.205 496.218,261.579 499.863,261.579C500.299,260.372 500.828,258.878 501.444,257.253C492.529,251.346 482.078,254.682 472.263,251.763L472.263,203.325L465.059,203.299Z" style="fill:rgb(69,28,21);fill-rule:nonzero;"/>
    </g>
    <g transform="matrix(0.058594,0,0,0.058594,0.00005,-0.000013)">
        <path d="M666.971,660.524L673.12,660.524C729.374,660.835 785.628,661.084 841.905,661.619C846.449,661.641 851.017,663.729 855.826,664.912C859.318,661.464 863.621,657.227 868.32,652.594L666.973,652.594L666.971,660.524Z" style="fill:rgb(69,28,21);fill-rule:nonzero;"/>
    </g>
    <g transform="matrix(0.058594,0,0,0.058594,0.00005,-0.000013)">
        <path d="M638.622,833.138C635.018,831.097 630.827,829.845 626.743,828.899C621.235,827.604 620.309,828.463 619.3,834.874C626.963,836.324 633.221,839.53 636.206,847.017C635.042,848.754 633.878,850.509 632.758,852.245C637.762,855.936 642.002,854.878 643.846,849.674C645.869,844.054 643.722,836.061 638.618,833.14L638.622,833.138Z" style="fill:rgb(69,28,21);fill-rule:nonzero;"/>
    </g>
    <g transform="matrix(0.058594,0,0,0.058594,0.00005,-0.000013)">
        <path d="M687.165,685.571C682.31,685.073 677.306,684.805 672.586,685.633C670.607,686.006 668.503,689.324 667.93,691.695C667.681,692.772 670.743,695.031 672.673,696.176C674.142,697.035 676.14,696.966 678.797,697.496C681.673,696.463 685.319,695.473 688.612,693.786C689.863,693.151 691.226,690.668 690.915,689.417C690.542,687.861 688.612,685.707 687.162,685.552L687.165,685.571Z" style="fill:rgb(69,28,21);fill-rule:nonzero;"/>
    </g>
    <g transform="matrix(0.058594,0,0,0.058594,0.00005,-0.000013)">
        <path d="M609.7,871.666C596.394,874.411 583.241,878.077 569.453,877.417C560.604,876.981 551.711,876.782 542.841,876.322C529.689,875.644 516.822,873.621 504.702,868.198C503.495,867.7 502.088,867.638 499.611,867.146C500.818,869.013 501.167,870.022 501.852,870.482C506.439,873.488 510.766,877.508 515.816,879.089C526.531,882.45 537.51,885.654 548.62,886.928C560.192,888.266 572.026,887.631 583.729,887.115C597.782,886.48 610.868,882.659 621.561,871.591C620.067,870.969 618.642,869.942 617.347,870.035C614.776,870.284 612.274,871.13 609.706,871.659L609.7,871.666Z" style="fill:rgb(69,28,21);fill-rule:nonzero;"/>
    </g>
    <g transform="matrix(0.058594,0,0,0.058594,0.00005,-0.000013)">
        <path d="M983.595,577.344C961.528,600.553 938.473,622.817 915.814,645.433C804.359,756.888 692.861,868.32 581.45,979.819C562.215,999.097 539.226,1009.11 512.416,1009.505C486.155,1009.194 463.452,1000.634 445.052,982.344C384.911,922.488 324.99,862.436 265.003,802.449C191.82,729.287 118.768,655.994 45.388,583.009C22.552,560.239 11.706,533.407 14.889,501.284C17.043,480.139 25.538,461.563 40.337,446.237C55.268,430.845 70.616,415.827 85.788,400.654C204.598,281.844 323.409,163.055 442.197,44.201C457.589,28.765 475.638,18.665 497.266,15.547C527.281,11.265 553.695,19.213 576.465,39.239C578.351,40.888 580.044,42.662 581.799,44.424C714.069,176.628 846.252,308.92 978.609,441.037C994.243,456.67 1004.98,474.675 1008.251,496.676C1012.819,527.439 1005.021,554.819 983.593,577.347L983.595,577.344ZM991.41,433.747C857.603,299.633 723.577,165.716 589.484,31.843C567.944,10.347 541.442,-0.258 511.031,0.005C480.598,0.254 454.557,11.577 433.017,33.095C349.931,116.159 266.823,199.223 183.715,282.309C133.653,332.371 83.612,382.455 33.506,432.518C12.383,453.596 0.812,479.045 0.043,508.863C-0.791,540.569 10.275,567.949 32.693,590.456C81.504,639.443 130.468,688.275 179.389,737.152C263.617,821.424 347.932,905.651 432.116,989.967C454.161,1012.034 480.641,1023.386 512.018,1024.001C542.934,1023.441 569.48,1012.166 591.525,990.099C724.673,856.929 857.865,723.802 991.014,590.588C1034.797,546.762 1035.301,477.729 991.387,433.748L991.41,433.747Z" style="fill:rgb(69,28,21);fill-rule:nonzero;"/>
    </g>
    <g transform="matrix(0.058594,0,0,0.058594,0.00005,-0.000013)">
        <path d="M533.045,771.184C521.408,773.008 510.803,780.121 498.374,773.138C503.378,786.971 527.072,781.679 533.045,771.184Z" style="fill:rgb(69,28,21);fill-rule:nonzero;"/>
    </g>
    <g transform="matrix(0.058594,0,0,0.058594,0.00005,-0.000013)">
        <path d="M724.394,683.339C720.137,683.361 715.743,684.702 711.615,686.015C708.148,687.135 707.862,690.403 711.055,692.139C714.59,694.075 718.367,696.178 722.275,696.77C731.958,698.307 741.773,699.558 751.588,699.957C769.681,700.679 787.795,700.679 805.888,701.14C809.293,701.202 812.629,702.173 816.032,702.46C817.283,702.584 818.976,702.398 819.785,701.626C826.833,694.973 833.683,688.123 840.995,680.965C832.892,681.774 825.625,683.075 818.313,683.119C787.002,683.368 755.713,683.119 724.402,683.368L724.394,683.339Z" style="fill:rgb(69,28,21);fill-rule:nonzero;"/>
    </g>
    <g transform="matrix(0.058594,0,0,0.058594,0.00005,-0.000013)">
        <path d="M467.38,777.395C465.183,777.644 462.88,778.428 461.035,779.636C457.17,782.163 453.526,781.746 449.551,780.072C446.364,778.709 443.03,777.613 440.373,781.392C439.695,782.382 438.288,783.041 437.124,783.477C436.203,783.788 434.466,783.913 434.18,783.455C433.558,782.553 433.215,780.754 433.744,780.05C438.487,773.485 435.169,766.371 435.3,759.52C435.362,756.489 434.665,753.327 433.657,750.473C433.097,748.911 431.242,747.093 429.723,746.826C428.403,746.639 426.63,748.295 425.267,749.397C423.885,750.517 422.435,751.787 421.533,753.324C420.064,755.895 418.57,758.571 417.867,761.405C416.728,766.123 419.031,769.88 422.149,773.371C424.278,775.767 423.798,782.395 421.514,783.757C418.022,785.798 416.703,782.263 414.707,780.62C413.213,779.344 412.074,777.589 410.468,776.493C407.524,774.495 404.387,772.827 401.29,771.047C401.041,771.42 400.792,771.837 400.568,772.254C393.3,772.232 390.424,776.424 393.937,782.53C395.257,784.789 397.628,786.569 399.8,788.194C401.312,789.358 403.248,790.018 405.047,790.765C408.252,792.172 408.582,794.387 407.879,797.55C407.506,799.199 408.003,801.677 409.105,802.884C412.528,806.818 417.01,806.88 421.686,805.255C423.068,804.757 424.935,803.718 425.813,804.247C432.796,808.398 438.592,803.152 444.85,802.05C445.97,801.863 447.265,800.955 447.968,799.984C452.929,793.045 460.11,791.025 468.08,790.542C472.953,790.231 475.546,787.337 475.26,782.484C475.011,778.774 472.341,776.864 467.355,777.411L467.38,777.395Z" style="fill:rgb(69,28,21);fill-rule:nonzero;"/>
    </g>
    <g transform="matrix(0.058594,0,0,0.058594,0.00005,-0.000013)">
        <path d="M397.24,752.714C395.528,755.017 393.817,757.04 393.947,757.214C396.256,759.604 398.777,761.826 401.456,763.757C401.643,763.881 404.879,760.421 404.773,760.265C402.75,757.912 400.422,755.765 397.242,752.711L397.24,752.714Z" style="fill:rgb(69,28,21);fill-rule:nonzero;"/>
    </g>
    <g transform="matrix(0.058594,0,0,0.058594,0.00005,-0.000013)">
        <path d="M514.893,770.327C518.957,768.304 523.413,766.263 526.442,763.059C529.143,760.159 526.131,756.472 520.097,754.65C514.321,752.895 513.885,751.75 516.145,746.196C517.9,741.914 519.238,737.435 520.776,733.043C520.465,732.919 520.154,732.794 519.855,732.732C519.855,731.568 519.917,730.386 519.833,729.265C519.584,725.425 516.099,721.009 513.115,721.25C509.094,721.561 506.903,724.412 506.549,728.057C506.238,731.063 506.673,734.25 507.47,737.17C510.196,747.226 506.748,751.332 496.887,749.861C495.393,749.612 492.935,750.297 492.256,751.373C491.354,752.755 490.98,755.524 491.82,756.751C493.14,758.774 495.598,760.068 497.64,761.606C499.551,763.056 501.922,764.065 503.347,765.845C506.422,769.754 509.649,772.916 514.896,770.326L514.893,770.327Z" style="fill:rgb(69,28,21);fill-rule:nonzero;"/>
    </g>
    <g transform="matrix(0.058594,0,0,0.058594,0.00005,-0.000013)">
        <path d="M434.87,846.576C418.161,843.414 400.705,846.825 384.302,840.869C383.443,840.558 381.514,841.305 381.209,842.052C380.773,843.06 380.836,845.015 381.582,845.743C382.877,847.038 384.719,848.202 386.48,848.531C390.345,849.234 394.296,849.452 398.227,849.695C409.623,850.398 421.041,851.145 432.48,851.494C434.739,851.556 437.092,849.982 439.375,849.166C439.251,848.506 439.126,847.846 439.002,847.193C437.62,847.006 436.232,846.82 434.875,846.571L434.87,846.576Z" style="fill:rgb(69,28,21);fill-rule:nonzero;"/>
    </g>
    <g transform="matrix(0.058594,0,0,0.058594,0.00005,-0.000013)">
        <path d="M422.761,718.607C422.263,720.144 421.952,721.725 421.597,723.132C422.033,725.615 422.674,727.875 422.692,730.115C422.736,733.65 424.578,736.416 427.634,736.221C429.937,736.097 434.001,733.258 433.979,731.721C433.917,726.736 433.17,721.335 430.948,717.032C428.794,712.818 424.251,714.026 422.758,718.613L422.761,718.607Z" style="fill:rgb(69,28,21);fill-rule:nonzero;"/>
    </g>
    <g transform="matrix(0.058594,0,0,0.058594,0.00005,-0.000013)">
        <path d="M397.629,811.06C395.233,810.4 392.382,811.433 389.724,811.738C391.94,813.518 393.875,815.952 396.421,816.916C416.644,824.536 437.656,823.657 458.648,821.746C462.158,821.435 464.993,819.443 465.608,814.984C462.291,814.984 459.065,815.006 455.815,814.984C436.339,814.86 416.775,816.453 397.629,811.05L397.629,811.06Z" style="fill:rgb(69,28,21);fill-rule:nonzero;"/>
    </g>
    <g transform="matrix(0.058594,0,0,0.058594,0.00005,-0.000013)">
        <path d="M730.664,551.801C730.602,557.135 729.544,562.516 728.535,567.786C728.348,568.819 725.877,570.419 725.155,570.114C723.506,569.436 721.228,567.805 721.116,566.404C720.126,555.447 719.292,544.468 719.006,533.512C718.633,521.611 718.508,509.732 719.13,497.875C719.503,490.783 721.632,483.778 723.039,476.752C723.226,475.893 724.029,475.171 724.551,474.399C725.111,474.337 725.671,474.275 726.244,474.15C727.756,479.571 730.371,484.997 730.526,490.442C731.024,510.884 730.837,531.326 730.65,551.79L730.664,551.801ZM678.086,502.366C678.024,503.486 676.262,504.495 675.323,505.571C674.333,504.451 672.603,503.399 672.491,502.191C671.396,490.312 670.095,478.389 669.858,466.488C669.796,461.92 672.298,457.31 673.611,452.721C674.532,452.677 675.497,452.659 676.424,452.597C677.675,456.132 680.115,459.645 680.046,463.136C679.859,476.245 678.951,489.309 678.092,502.374L678.086,502.366ZM668.432,426.315C668.308,426.293 668.121,426.271 667.996,426.271C668.494,423.066 668.656,419.772 669.577,416.741C669.95,415.534 672.365,413.865 673.33,414.152C674.842,414.65 676.847,416.436 677.083,417.905C677.855,422.866 678.116,427.939 678.222,432.99C678.284,435.866 677.32,439.248 673.784,438.48C671.699,438.044 669.589,435.318 668.624,433.146C667.746,431.235 668.437,428.646 668.437,426.318L668.432,426.315ZM656.624,539.638C651.993,539.638 649.532,537.466 649.598,533.426C649.66,528.111 652.169,524.687 655.944,524.665C660.905,524.621 663.475,527.211 663.409,532.218C663.387,537.552 661.48,539.64 656.624,539.64L656.624,539.638ZM600.063,562.738C600.063,567.151 598.924,571.016 594.773,575.605C593.323,571.254 591.368,568.03 591.306,564.758C591.057,542.713 591.057,520.668 591.284,498.623C591.306,494.272 592.647,489.928 593.325,485.625C597.364,485.563 598.553,488.127 598.877,491.27C599.313,496.143 599.972,501.063 599.997,505.938C600.121,524.887 600.019,543.814 600.059,562.741L600.063,562.738ZM980.468,500.625C978.209,487.429 973.134,475.615 963.781,466.262C828.525,330.764 693.115,195.398 557.617,60.142C552.986,55.53 547.187,51.667 541.281,48.922C528.524,43.04 515.086,40.996 500.924,43.32C487.705,45.517 475.848,50.566 466.495,59.832C411.712,114.264 357.17,169.003 302.563,223.611C301.816,224.401 301.181,225.304 300.123,226.53C303.459,225.061 306.048,223.567 308.818,222.777C320.851,219.354 332.883,215.992 345.004,212.918C354.885,210.372 364.853,207.715 374.909,206.045C386.547,204.116 398.293,203.039 409.997,201.894C425.214,200.444 440.408,199.218 455.646,198.054C460.146,197.681 464.736,198.178 469.238,197.867C480.831,197.052 492.403,195.452 503.996,195.166C523.472,194.73 542.948,194.917 562.424,195.104C569.801,195.126 577.223,195.477 584.579,196.199C598.237,197.537 611.872,199.075 625.463,201.029C641.909,203.4 658.377,205.797 674.647,209.021C687.009,211.504 698.976,215.455 708.988,223.755C712.81,226.848 716.541,230.145 720.647,232.823C728.179,237.784 731.582,244.483 730.681,253.441C730.637,253.752 730.681,254.101 730.681,254.449C730.37,301.306 730.121,348.184 729.673,395.041C729.629,399.74 728.621,404.461 727.607,409.093C727.358,410.213 725.391,411.446 724.028,411.682C723.126,411.806 721.37,410.475 721.022,409.423C720.032,406.523 719.093,403.429 718.999,400.398C718.501,381.932 718.364,363.466 717.792,344.978C717.73,342.675 715.968,340.41 715.029,338.15C714.326,338.274 713.666,338.461 713.006,338.586C712.303,343.484 711.077,348.423 711.033,353.341C710.846,385.201 711.077,417.061 710.784,448.899C710.722,460.076 709.707,471.273 708.786,482.406C708.662,483.813 706.415,485.829 704.921,486.072C703.826,486.259 701.342,484.049 701.187,482.755C700.241,473.774 699.208,464.75 699.164,455.703C699.04,397.78 699.102,339.835 699.102,281.912L699.102,275.85C695.48,276.989 692.668,277.779 689.946,278.794C685.907,280.288 683.666,282.771 683.753,287.621C684.002,296.338 683.442,305.077 683.255,313.816C682.882,328.133 682.757,342.492 682.135,356.808C681.948,360.455 680.137,364.01 679.06,367.633C678.438,367.633 677.853,367.589 677.236,367.571C676.271,364.87 674.821,362.237 674.379,359.447C673.589,354.244 673.059,348.973 672.91,343.704C672.599,332.176 672.661,320.627 672.537,309.055C672.493,302.688 672.724,296.276 672.164,289.93C671.977,287.272 671.156,283.651 666.849,284.378C662.523,285.056 658.264,285.959 653.564,286.861L653.564,258.953C653.564,251.356 653.626,251.597 660.854,249.402C673.15,245.649 685.38,241.674 697.588,237.568C701.192,236.385 705.032,235.066 706.525,229.268C701.583,230.127 697.259,230.407 693.219,231.683C683.799,234.689 674.621,238.556 665.092,241.345C656.375,243.891 647.329,245.36 638.458,247.538C628.995,249.797 619.531,252.281 610.133,254.849C606.728,255.77 603.48,257.133 600.208,258.471C599.486,258.782 598.54,259.94 598.671,260.444C598.858,261.166 599.947,262.181 600.669,262.181C603.943,262.181 607.257,262.243 610.462,261.621C622.648,259.318 634.857,256.748 647.065,254.265L647.065,287.838C639.38,288.958 632.003,289.904 624.625,291.043C615.535,292.468 615.82,293.016 615.93,300.177C616.366,326.745 616.895,353.313 616.745,379.86C616.683,390.268 614.946,400.698 613.782,411.083C613.658,412.048 611.958,413.585 610.994,413.566C609.942,413.566 608.137,412.271 607.919,411.263C606.755,405.842 605.348,400.329 605.174,394.817C604.676,378.832 604.801,362.803 604.496,346.819C604.434,344.379 603.357,341.921 602.759,339.463C602.199,339.525 601.682,339.65 601.153,339.712C600.78,342.569 600.12,345.419 600.101,348.319C599.665,374.712 599.466,401.104 599.006,427.519C598.882,433.139 598.284,438.849 594.045,443.614C593.41,442.867 592.968,442.407 592.595,441.877C588.139,435.902 588.618,428.747 588.381,421.962C587.945,407.624 588.257,393.264 588.008,378.882C587.946,375.104 586.732,371.328 586.054,367.552C585.432,367.49 584.871,367.49 584.255,367.428C580.085,371.71 579.494,377.638 579.444,382.973C579.133,418.808 579.444,454.598 579.133,490.432C579.071,498.095 577.596,505.758 576.432,513.377C576.245,514.672 574.278,516.34 572.94,516.582C571.975,516.769 570.351,514.958 569.535,513.725C568.788,512.542 568.527,510.912 568.415,509.486C567.693,500.308 566.591,491.108 566.504,481.929C566.255,455.844 566.442,429.759 566.442,403.674L566.442,398.296C563.629,398.669 561.195,398.956 558.45,399.304L558.45,404.202C558.512,449.258 558.512,494.314 558.699,539.37C558.743,552.852 559.259,566.355 559.62,579.815C559.62,580.251 559.931,580.693 560.118,581.022L568.264,581.022C569.073,577.574 569.646,574.171 570.679,570.943C571.177,569.493 572.521,568.329 573.492,567.059C574.812,568.335 576.853,569.387 577.314,570.899C578.235,574.104 578.366,577.53 578.87,581.395L651.46,581.395C652.425,572.151 649.132,561.326 658.289,553.685C668.038,561.524 662.658,572.81 665.513,582.207L671.177,582.207C698.404,582.207 725.653,582.331 752.879,582.083C757.273,582.021 759.137,583.664 760.564,588.582L665.731,588.582L665.731,603.008L671.943,603.008C715.682,603.03 759.421,603.03 803.159,603.07C807.927,603.07 812.842,602.821 817.453,603.73C819.849,604.228 821.76,606.96 823.887,608.691C821.976,610.428 820.24,613.259 818.111,613.652C811.677,614.791 805.068,615.476 798.525,615.476C756.104,615.663 713.704,615.6 671.283,615.6L665.134,615.6L665.134,634.461C666.124,634.523 667.418,634.71 668.688,634.71C723.471,635.021 778.254,635.345 833.06,635.631C843.007,635.675 852.997,635.444 862.965,635.693C868.94,635.88 874.076,638.55 878.577,642.742C878.453,642.866 878.764,642.698 879.013,642.493C907.821,613.664 936.76,584.921 965.348,555.872C969.562,551.615 972.791,546.014 975.316,540.48C981.005,527.811 982.891,514.483 980.544,500.54L980.468,500.625Z" style="fill:rgb(69,28,21);fill-rule:nonzero;"/>
    </g>
    <g transform="matrix(0.058594,0,0,0.058594,0.00005,-0.000013)">
        <path d="M330.161,535.871C325.86,535.747 320.434,530.338 320.939,526.956C321.312,524.236 321.729,520.875 325.943,521.093C329.435,521.28 335.472,527.043 334.923,530.161C334.425,533.105 333.734,536.551 330.162,535.868L330.161,535.871ZM286.949,611.797C286.825,613.621 284.932,615.289 283.7,617.287C278.627,614.038 277.31,609.91 277.245,605.276C277.183,598.052 276.996,590.784 277.307,583.56C277.431,580.423 278.583,577.236 279.79,574.294C281.24,570.715 283.767,571.306 285.74,573.796C287.035,575.396 288.416,577.593 288.398,579.503C288.149,590.284 287.676,601.043 286.929,611.802L286.949,611.797ZM278.213,537.237C278.462,535.961 279.862,534.891 280.715,533.745C282.122,534.865 284.095,535.699 284.823,537.15C285.501,538.619 284.947,540.667 284.947,542.484L285.071,542.484C285.071,543.953 285.507,545.602 285.009,546.835C284.287,548.547 282.837,549.953 281.716,551.491C280.266,549.842 277.894,548.304 277.589,546.462C277.029,543.518 277.651,540.269 278.224,537.24L278.213,537.237ZM394.467,524.679C393.129,501.69 393.502,478.569 393.06,455.514C392.936,450.354 392.438,445.216 392.114,440.056C391.492,439.932 390.907,439.807 390.315,439.683C389.568,442.471 388.205,445.241 388.205,448.005C388.018,481.489 388.143,514.996 387.956,548.525C387.934,553.006 386.836,557.549 385.541,561.853C385.105,563.216 382.51,564.399 380.773,564.598C379.721,564.722 377.829,562.974 377.393,561.698C375.439,555.903 372.694,550.456 373.154,543.847C373.789,534.647 373.154,525.381 373.341,516.115C373.403,512.605 372.719,510.607 368.99,509.308C367.017,508.648 365.343,505.642 364.664,503.358C363.699,500.283 363.587,496.881 363.5,493.587C362.423,457.644 361.39,421.699 360.45,385.712C360.201,378.027 357.705,371.044 353.38,365.116C350.175,360.703 348.463,356.399 348.463,351.151C348.525,333.498 348.419,315.8 348.525,298.147C348.587,294.369 347.23,291.45 343.894,290.352C340.054,289.076 335.923,288.615 331.883,288.068C328.373,287.632 325.889,290.24 325.914,293.844C326.163,346.651 326.474,399.48 326.617,452.266C326.617,456 326.057,459.885 324.862,463.376C324.227,465.218 321.613,466.469 319.771,467.789C319.647,467.851 317.929,466.513 317.748,465.679C316.982,461.857 315.906,457.95 315.906,454.064C315.844,405.912 315.906,357.716 315.906,309.564C315.884,305.655 315.346,301.725 314.898,297.839C314.836,297.204 313.803,296.656 313.205,296.04C312.769,296.743 312.041,297.403 311.842,298.169C311.593,299.09 311.78,300.148 311.78,301.113C311.78,319.118 311.967,337.101 311.718,355.106C311.656,360.795 310.666,366.502 309.677,372.145C309.428,373.595 307.461,376.054 306.646,375.879C305.022,375.568 303.441,374.055 302.345,372.605C301.424,371.373 301.206,369.574 300.677,368.061C300.304,368.105 299.868,368.185 299.494,368.248L299.494,401.096C299.743,400.598 299.805,400.131 300.054,399.845C301.965,397.648 304.006,393.633 305.805,393.721C309.801,393.97 309.539,398.333 309.844,401.538C309.906,402.702 309.844,403.841 309.782,405.005C309.533,411.111 309.016,417.214 309.016,423.317C309.14,470.964 309.452,518.611 309.514,566.28C309.514,568.496 308.854,570.936 307.802,572.867C306.993,574.292 304.945,576.141 303.632,576.01C301.964,575.823 299.723,574.099 299.107,572.518C297.7,568.871 296.362,564.92 296.362,561.078C296.318,536.179 296.735,511.257 296.798,486.358C296.798,479.881 298.379,472.569 290.96,468.309C290.462,467.998 290.3,466.84 290.213,466.025C289.491,459.504 288.545,452.982 288.196,446.44C287.823,438.843 288.218,431.245 287.885,423.67C287.574,417.039 287.512,410.144 280.178,406.499C279.17,406.001 278.423,404.171 278.311,402.895C277.564,394.375 276.512,385.812 276.469,377.271C276.158,339.966 276.22,302.682 276.096,265.377C276.052,260.591 275.474,255.804 275.218,251.193C274.72,251.691 273.569,252.575 272.56,253.583C201.704,324.439 130.826,395.207 60.125,466.216C55.538,470.828 51.65,476.602 48.905,482.552C43.023,495.265 41,508.747 43.328,522.887C45.5,536.083 50.574,547.918 59.818,557.294C92.732,590.691 125.997,623.714 159.24,656.76C160.752,658.254 163.41,659.243 165.607,659.287C174.017,659.598 182.426,659.287 190.858,659.536C197.467,659.723 203.79,661.291 209.17,665.443C213.714,668.935 214.087,672.14 209.357,674.973C205.143,677.456 200.223,679.037 195.392,680.089C191.682,680.879 187.663,680.213 182.525,680.213C187.467,685.13 191.33,689.326 195.634,693.058C197.389,694.595 200.09,695.821 202.419,695.846C219.414,696.095 236.387,696.282 253.382,696.033C280.916,695.597 308.45,697.545 335.941,694.384C341.3,693.762 345.075,691.857 348.654,687.753C345.337,683.514 340.947,681.385 335.611,681.276C327.794,681.089 319.956,681.232 312.095,680.903C290.775,680.094 269.454,679.254 248.134,678.183C240.405,677.81 233.313,675.04 225.935,670.74C227.864,669.003 229.097,667.491 230.678,666.501C237.551,662.331 244.929,660.377 253.097,660.42C286.274,660.607 319.43,660.482 352.607,660.482L358.072,660.482L358.072,652.204L352.757,652.204C307.042,651.955 261.349,651.831 215.656,651.37C207.291,651.308 199.145,649.304 191.811,644.124C199.408,636.966 208.762,635.868 218.093,635.758C263.172,635.26 308.205,635.055 353.261,634.706C354.861,634.706 356.448,634.582 358.159,634.457L358.159,616.387C341.647,615.528 325.399,614.806 309.195,613.686C305.99,613.499 302.893,611.663 299.775,610.593C299.899,610.033 300.086,609.41 300.211,608.813C318.941,601.589 338.68,603.149 358.288,603.106C358.599,593.027 358.332,583.498 364.108,575.11C371.332,583.564 368.434,593.73 370.17,602.776L394.52,602.776C394.769,602.141 394.956,601.855 394.956,601.569C394.234,575.923 395.964,550.277 394.458,524.587L394.467,524.679Z" style="fill:rgb(69,28,21);fill-rule:nonzero;"/>
    </g>
    <g transform="matrix(0.058594,0,0,0.058594,0.00005,-0.000013)">
        <path d="M453.081,548.11C451.587,546.112 448.867,544.071 448.954,542.16C449.016,540.006 451.674,537.99 453.193,535.88C454.817,537.374 456.423,538.843 458.751,540.928C456.405,543.891 454.73,546.001 453.087,548.108L453.081,548.11ZM445.929,490.953C446.807,488.47 449.047,486.472 450.759,484.3C452.558,486.099 454.381,487.922 455.502,489.043C455.44,493.611 453.703,495.762 450.691,495.08C448.78,494.644 445.662,491.763 445.923,490.953L445.929,490.953ZM531.644,566.662C531.706,556.079 532.827,545.451 526.988,535.241C524.225,530.386 523.079,524.021 523.011,518.269C522.638,482.808 522.762,447.325 522.7,411.864L522.7,408.789C519.756,410.084 516.376,412.872 514.466,412.082C511.721,410.918 508.317,407.227 508.23,404.507C507.265,375.436 506.848,346.321 506.344,317.206C506.22,311.847 506.3,306.469 506.3,301.199L496.814,301.199C496.814,304.803 497.25,308.159 496.69,311.321C495.7,317.203 494.935,323.332 492.626,328.755C489.421,336.243 486.806,343.642 486.981,351.854C487.025,353.939 486.608,356.18 485.749,358.066C484.585,360.637 483.533,364.06 479.625,363.226C475.934,362.436 474.378,359.821 474.222,356.046C473.662,339.403 472.971,322.781 472.286,306.159C472.264,305.194 472.099,304.248 471.975,303.346C465.717,302.643 465.366,302.91 465.278,308.574L465.278,313.055C465.278,349.658 465.34,386.283 465.256,422.885C465.234,427.254 465.007,431.843 460.532,434.413C456.163,431.886 455.484,427.979 455.441,423.698C455.13,395.835 454.881,367.949 454.408,340.085C454.284,331.259 453.661,322.41 452.653,313.605C452.217,309.827 450.456,306.118 448.788,302.605C448.228,301.373 446.242,300.321 444.749,300.078C441.544,299.518 438.25,299.58 434.891,299.356C428.785,307.7 428.611,317.756 427.865,327.374C426.919,340.109 427.305,352.998 427.367,365.799C427.389,415.62 427.678,465.485 427.491,515.305C427.447,527.228 426.128,539.172 425.362,551.842C418.489,549.228 416.974,544.969 416.864,540.008C416.491,525.977 415.943,511.99 415.918,497.96C415.794,454.573 415.918,411.141 415.856,367.753C415.856,365.687 414.823,363.602 414.275,361.495C413.64,361.557 413.024,361.619 412.408,361.682C411.53,365.522 410.062,369.367 409.968,373.232C409.134,407.156 408.648,441.079 407.839,475.003C407.466,489.956 406.04,504.908 406.015,519.839C405.953,546.253 406.575,572.646 406.917,599.039C406.917,600.29 407.104,601.566 407.228,602.661L531.44,602.661L531.44,589.157C526.106,589.157 520.988,589.53 515.982,588.908C514.14,588.721 512.515,586.337 510.822,584.956C512.422,584.035 513.984,582.454 515.652,582.342C520.88,582.031 526.125,582.218 531.263,582.218L531.263,575.565L486.053,575.565C486.053,579.1 486.426,581.777 485.929,584.304C485.269,587.864 484.087,592.296 479.627,591.704C475.917,591.206 473.15,588.013 473.26,583.47C473.322,581.117 473.26,578.727 473.26,576.465C464.433,576.092 456.353,575.475 448.273,575.388C440.193,575.344 432.178,575.366 424.12,570.776C440.281,563.531 456.99,567.726 472.426,566.052C472.426,553.009 472.364,540.34 472.448,527.671C472.697,490.19 472.884,452.753 473.438,415.294C473.5,410.221 474.82,405.018 479.145,400.232C480.682,402.342 482.375,403.811 482.923,405.635C484,409.214 484.946,412.991 484.989,416.68C485.487,464.481 485.755,512.304 486.109,560.104C486.131,562.033 486.109,563.969 486.109,566.626L531.644,566.662Z" style="fill:rgb(69,28,21);fill-rule:nonzero;"/>
    </g>
    <g transform="matrix(0.058594,0,0,0.058594,0.00005,-0.000013)">
        <path d="M458.771,626.308C455.167,628.02 451.964,626.184 449.571,622.885C450.517,619.81 451.239,616.166 455.652,617.047C457.693,617.483 460.395,618.958 461.055,620.669C461.615,622.094 460.221,625.654 458.771,626.314L458.771,626.308ZM407.237,634.46L531.58,634.46L531.58,616.016L407.237,616.016L407.237,634.46Z" style="fill:rgb(69,28,21);fill-rule:nonzero;"/>
    </g>
</svg>
