<?xml version="1.0" encoding="UTF-8" standalone="no"?>
<!DOCTYPE svg PUBLIC "-//W3C//DTD SVG 1.1//EN" "http://www.w3.org/Graphics/SVG/1.1/DTD/svg11.dtd">
<svg width="100%" height="100%" viewBox="0 0 61 61" version="1.1" xmlns="http://www.w3.org/2000/svg" xmlns:xlink="http://www.w3.org/1999/xlink" xml:space="preserve" xmlns:serif="http://www.serif.com/" style="fill-rule:evenodd;clip-rule:evenodd;stroke-linejoin:round;stroke-miterlimit:2;">
    <g transform="matrix(0.058594,0,0,0.058594,0.000001,0)">
        <path d="M456.848,124.825C466.597,124.514 477.531,115.515 480.1,105.876C485.085,87.082 487.697,68.045 485.789,47.383C481.855,49.599 477.709,51.049 474.745,53.773C458.782,68.33 443.127,83.261 427.89,97.533C433.398,104.581 438.078,111.014 443.259,117.008C446.776,121.072 450.856,125.022 456.85,124.825L456.848,124.825Z" style="fill:rgb(69,28,21);fill-rule:nonzero;"/>
    </g>
    <g transform="matrix(0.058594,0,0,0.058594,0.000001,0)">
        <path d="M410.263,147.211C415.684,138.187 410.574,128.899 406.84,119.458C394.149,132.171 381.985,144.291 369.908,156.433C369.472,156.869 369.118,157.379 367.649,159.066C377.617,158.506 386.466,159.128 394.721,157.155C400.497,155.773 407.39,152.02 410.267,147.208L410.263,147.211Z" style="fill:rgb(69,28,21);fill-rule:nonzero;"/>
    </g>
    <g transform="matrix(0.058594,0,0,0.058594,0.000001,0)">
        <path d="M355.163,224.86C358.81,224.838 362.057,223.827 362.497,219.352C362.87,215.375 363.219,211.426 363.549,207.606C366.007,208.614 369.039,209.865 372.068,211.16C382.476,215.573 390.994,222.358 396.857,232.107C402.832,242.075 409.021,251.978 414.159,262.407C424.633,283.683 435.304,304.959 442.001,327.882C443.165,331.834 445.381,335.479 447.074,339.256C447.634,339.007 448.213,338.82 448.767,338.534C446.396,324.196 444.311,309.771 441.521,295.499C439.809,286.694 436.865,278.153 434.714,269.414C428.677,245.108 420.311,222.185 399.056,206.551C388.254,198.581 377.868,189.93 364.738,185.978C358.875,184.223 352.881,182.841 346.887,181.478C345.985,181.291 344.603,181.851 343.881,182.53C335.318,190.94 326.843,199.437 317.972,208.264C320.804,210.548 323.02,212.764 325.657,214.301C334.791,219.703 344.079,224.928 355.167,224.862L355.163,224.86Z" style="fill:rgb(69,28,21);fill-rule:nonzero;"/>
    </g>
    <g transform="matrix(0.058594,0,0,0.058594,0.000001,0)">
        <path d="M188.9,373.755C191.688,387.434 193.599,401.311 195.992,415.824C204.709,410.403 201.195,353.467 191.735,333.882C188.729,337.156 186.133,340.293 183.194,343.06C180.978,345.145 180.648,346.925 181.7,349.845C184.401,357.705 187.252,365.61 188.902,373.756L188.9,373.755Z" style="fill:rgb(69,28,21);fill-rule:nonzero;"/>
    </g>
    <g transform="matrix(0.058594,0,0,0.058594,0.000001,0)">
        <path d="M135.303,511.534C143.778,503.015 147.094,491.4 149.421,479.807C151.55,468.96 154.798,458.026 154.755,447.113C154.693,434.444 151.089,421.863 144.962,410.467C141.732,404.405 137.694,398.787 133.742,392.528C108.119,418.174 83.373,442.633 59.045,467.532C54.632,472.032 51.294,477.918 48.572,483.714C42.69,496.361 41.041,509.711 43.412,523.631C45.895,538.166 52.436,550.397 63.656,561.528C76.588,554.546 90.29,548.639 102.322,540.274C114.245,532.018 125.003,521.83 135.301,511.532L135.303,511.534Z" style="fill:rgb(69,28,21);fill-rule:nonzero;"/>
    </g>
    <g transform="matrix(0.058594,0,0,0.058594,0.000001,0)">
        <path d="M84.214,560.293C79.689,562.863 75.102,565.409 70.513,567.934C74.839,572.173 79.185,576.387 83.928,581.042C86.629,577.028 89.81,573.182 92.009,568.834C93.216,566.463 94.075,562.598 92.93,560.644C90.957,557.264 87.266,558.559 84.213,560.271L84.214,560.293Z" style="fill:rgb(69,28,21);fill-rule:nonzero;"/>
    </g>
    <g transform="matrix(0.058594,0,0,0.058594,0.000001,0)">
        <path d="M601.649,146.356C613.593,147.893 624.418,144.514 633.288,136.695C623.364,126.748 613.615,116.978 603.361,106.724C598.923,116.934 594.732,126.858 594.863,138.166C594.925,143.126 598.268,145.917 601.648,146.356L601.649,146.356Z" style="fill:rgb(69,28,21);fill-rule:nonzero;"/>
    </g>
    <g transform="matrix(0.058594,0,0,0.058594,0.000001,0)">
        <path d="M844.624,405.516C845.284,402.684 846.118,399.914 846.622,397.063C848.508,385.843 850.4,374.58 852.155,363.315C852.528,360.614 853.537,357.013 852.279,355.257C849.248,351.043 845.055,347.66 841.345,343.971C840.909,344.158 840.424,344.407 839.938,344.606C840.704,364.828 841.45,385.095 842.197,405.317C843.006,405.361 843.778,405.441 844.587,405.504L844.624,405.516Z" style="fill:rgb(69,28,21);fill-rule:nonzero;"/>
    </g>
    <g transform="matrix(0.058594,0,0,0.058594,0.000001,0)">
        <path d="M555.281,271.458C555.468,285.664 555.343,299.848 555.654,314.01C555.716,316.91 557.278,319.761 558.137,322.617L560.247,322.661C560.969,321.41 562.201,320.178 562.332,318.883C563.122,308.739 563.714,298.573 564.442,288.429C565.064,280.085 565.562,271.742 566.465,263.464C567.168,257.009 568.133,250.509 569.558,244.186C570.877,238.479 572.763,232.878 574.848,227.411C576.454,223.129 578.626,222.911 582.006,225.986C585.871,229.546 590.196,232.705 595.597,230.2C599.836,228.246 604.687,225.986 607.3,222.449C614.282,212.942 620.21,202.666 626.6,192.786C628.666,189.624 630.247,185.54 633.187,183.784C640.652,179.328 648.754,175.967 656.615,172.191C656.988,172.502 657.337,172.751 657.667,173.05C654.331,182.162 651.3,191.45 647.501,200.408C645.018,206.227 646.032,209.806 652.113,210.882C654.814,211.318 658.132,211.847 660.413,210.758C670.93,205.754 681.162,200.153 691.57,194.686C678.132,181.204 665.551,168.579 653.673,156.635C641.86,162.937 630.091,168.953 618.608,175.452C610.287,180.151 601.504,184.564 594.346,190.778C578.054,204.94 567.866,223.515 560.445,243.606C557.128,252.564 555.13,261.808 555.285,271.469L555.281,271.458Z" style="fill:rgb(69,28,21);fill-rule:nonzero;"/>
    </g>
    <g transform="matrix(0.058594,0,0,0.058594,0.000001,0)">
        <path d="M505.691,244.621C506.413,242.841 507.427,241.241 507.645,239.573C508.547,232.415 509.251,225.235 509.991,218.077C510.551,212.718 509.555,206.462 511.945,202.18C517.347,192.716 521.979,183.363 523.582,172.429C524.989,162.548 526.812,152.799 524.964,142.7C522.879,131.348 522.238,119.996 527.491,109.106C527.74,108.733 527.615,108.116 527.802,107.656C533.466,90.969 539.197,74.26 544.906,57.551C545.342,57.675 545.827,57.862 546.288,57.987C546.35,58.36 546.537,58.821 546.537,59.213C546.475,76.12 544.825,93.027 547.396,109.977C548.56,117.552 550.67,124.512 554.73,130.792C560.879,129.473 564.5,125.807 566.389,120.45C569.464,111.558 572.47,102.621 575.391,93.663C576.617,89.866 577.52,85.935 578.796,81.257C565.6,69.225 554.643,53.065 535.256,46.719C534.82,47.97 534.509,48.891 534.179,49.812C527.241,69.309 520.28,88.851 513.298,108.348C510.18,117.087 505.701,125.562 504.23,134.565C501.243,152.723 498.958,171.079 498.081,189.413C497.403,203.97 498.959,218.637 500.01,233.217C500.321,237.238 499.886,242.373 505.674,244.612L505.691,244.621Z" style="fill:rgb(69,28,21);fill-rule:nonzero;"/>
    </g>
    <g transform="matrix(0.058594,0,0,0.058594,0.000001,0)">
        <path d="M794.029,662.449C789.417,663.196 789.355,666.93 790.008,670.266C790.444,672.619 791.657,674.965 793.101,676.875C800.391,686.602 807.878,696.153 815.233,705.661C824.631,696.263 833.919,686.975 844.107,676.787C830.34,671.714 816.88,666.555 803.223,661.901C800.522,660.98 797.055,661.963 794.023,662.461L794.029,662.449Z" style="fill:rgb(69,28,21);fill-rule:nonzero;"/>
    </g>
    <g transform="matrix(0.058594,0,0,0.058594,0.000001,0)">
        <path d="M889.68,392.192C888.473,390.985 887.178,389.821 886.3,388.987C884.962,395.487 883.337,401.744 882.391,408.111C881.383,414.896 880.306,421.79 880.524,428.597C881.022,443.549 881.862,458.502 883.424,473.322C885.179,490.339 890.494,506.323 900.594,520.376C903.93,525.032 907.401,529.729 911.485,533.703C924.22,546.109 937.262,558.207 950.853,571.008C954.457,567.342 957.923,563.631 961.59,560.096C973.293,548.833 979.726,534.736 981.175,518.905C983.061,497.98 976.849,479.405 961.787,464.298C937.766,440.234 913.724,416.235 889.681,392.192L889.68,392.192Z" style="fill:rgb(69,28,21);fill-rule:nonzero;"/>
    </g>
    <g transform="matrix(0.058594,0,0,0.058594,0.000001,0)">
        <path d="M762.55,668.666C751.682,656.546 739.737,645.392 728.122,633.931C725.707,631.535 722.919,629.406 720.02,627.585C702.85,616.87 685.394,606.704 666.072,600.227C660.253,598.298 654.238,596.605 648.222,595.441C644.886,594.806 640.778,594.433 638.034,595.814C630.217,599.922 624.838,607.012 625.035,615.817C625.346,628.091 626.659,640.408 628.919,652.462C634.035,680.325 642.159,707.354 653.27,733.593C666.07,763.893 685.854,789.253 706.405,813.647C737.957,782.095 769.267,750.763 801.082,718.97C796.825,713.175 792.234,706.718 787.469,700.504C779.28,689.767 771.551,678.657 762.548,668.645L762.55,668.666Z" style="fill:rgb(69,28,21);fill-rule:nonzero;"/>
    </g>
    <g transform="matrix(0.058594,0,0,0.058594,0.000001,0)">
        <path d="M652.97,800.742C651.389,800.182 648.576,800.618 647.393,801.688C639.796,808.89 637.337,818.397 636.788,828.322C636.066,841.343 636.085,854.385 635.668,867.383C635.606,868.615 634.747,870.632 633.956,870.763C626.513,872.3 619.004,873.508 611.056,874.889C611.056,863.12 611.012,852.164 611.056,841.186C611.1,812.576 611.492,783.857 605.896,755.642C602.404,738.055 597.86,720.643 593.227,703.32C590.881,694.515 587.208,686.062 584.159,677.433C581.545,670.078 579.373,662.481 576.167,655.388C571.866,645.99 563.85,639.931 555.111,634.793C549.69,631.588 543.803,631.787 538.644,634.003C530.234,637.669 523.911,644.235 518.729,651.832C511.725,662.152 507.729,673.679 504.677,685.624C500.725,700.927 495.038,715.749 493.918,731.821C492.928,746.005 490.495,760.101 488.889,774.219C487.196,789.062 485.223,803.839 484.302,818.682C483.294,835.083 483.356,851.551 482.92,868.304C472.798,863.319 462.983,858.533 453.256,853.593C452.397,853.157 451.675,851.614 451.588,850.518C451.152,844.916 450.536,839.32 450.623,833.721C450.747,824.565 440.457,816.463 431.916,822.413C425.637,826.764 419.972,832.008 414.022,836.861C412.049,838.485 410.462,839.911 407.171,839.033C398.388,836.687 389.386,835.124 379.725,833.083C385.233,825.266 390.682,818.658 394.897,811.324C414.987,776.588 434.595,741.567 446.451,702.967C449.986,691.484 453.302,679.803 455.168,667.968C456.836,657.297 456.68,646.297 456.836,635.45C457.085,621.508 458.286,607.433 452.485,594.106C451.85,592.637 451.365,590.857 450.269,589.849C443.374,583.459 435.031,581.725 426.951,586.115C416.214,591.953 405.96,598.63 396.035,605.766C387.78,611.716 380.183,618.611 372.607,625.418C362.331,634.64 351.353,643.423 342.416,653.83C327.244,671.527 313.082,690.059 299.117,708.7C286.47,725.563 274.679,743.018 262.823,759.771C263.57,761.134 263.682,761.483 263.918,761.682C292.967,790.753 321.994,819.845 351.13,848.806C352.337,849.989 354.51,850.542 356.29,850.735C367.4,851.918 378.641,852.185 389.555,854.202C404.727,857.034 419.701,860.855 434.676,864.719C455.447,870.096 476.482,874.797 496.77,881.692C525.138,891.397 554.231,893.922 583.762,894.119C595.707,894.181 607.673,893.154 619.618,892.277C623.726,891.966 629.06,892.09 631.584,889.619C650.774,871.285 669.394,852.314 689.111,832.619C679.428,823.353 670.031,814.22 660.414,805.261C658.304,803.332 655.653,801.682 652.971,800.736L652.97,800.742Z" style="fill:rgb(69,28,21);fill-rule:nonzero;"/>
    </g>
    <g transform="matrix(0.058594,0,0,0.058594,0.000001,0)">
        <path d="M983.402,577.708C960.611,601.575 936.898,624.564 913.557,647.904C803.137,758.28 692.651,868.613 582.34,979.144C559.812,1001.737 533.069,1012.123 501.386,1009.071C480.79,1007.073 462.72,998.686 447.35,984.765C445.265,982.898 443.286,980.881 441.288,978.902C308.955,846.568 176.644,714.169 44.2,581.924C24.791,562.536 14.69,539.46 14.207,512.08C14.705,486.457 23.077,463.841 41.213,445.551C79.066,407.324 117.227,369.383 155.278,331.31C250.988,235.622 346.719,139.957 442.385,44.204C457.645,28.9 475.584,18.887 497.057,15.77C527.226,11.401 553.815,19.392 576.65,39.615C578.386,41.127 580.011,42.795 581.654,44.42C714.009,176.754 846.32,309.13 978.741,441.376C994.264,456.9 1004.892,474.794 1008.185,496.641C1012.884,527.6 1004.998,555.068 983.396,577.706L983.402,577.708ZM991.411,433.909C857.585,299.775 723.561,165.883 589.493,32.013C568.195,10.781 542,0.593 511.832,-0C481.246,0.56 454.832,11.44 433.029,33.265C349.901,116.327 266.816,199.412 183.732,282.474C133.649,332.558 83.61,382.64 33.526,432.68C12.382,453.759 0.81,479.207 0.042,509.002C-0.773,540.707 10.274,568.087 32.714,590.593C79.658,637.712 126.755,684.677 173.786,731.709C259.922,817.867 346.08,903.982 432.172,990.14C454.458,1012.47 481.268,1024.239 512.841,1023.997C543.822,1023.748 570.016,1011.789 591.907,989.898C724.767,856.928 857.76,724.045 990.642,591.12C1034.775,546.987 1035.412,478.021 991.408,433.91L991.411,433.909Z" style="fill:rgb(69,28,21);fill-rule:nonzero;"/>
    </g>
    <g transform="matrix(0.058594,0,0,0.058594,0.000001,0)">
        <path d="M908.277,571.015C907.331,577.8 908.028,584.826 908.028,592.313L894.503,592.313C892.53,587.11 891.08,581.291 888.245,576.219C877.925,557.71 863.588,542.493 847.779,528.595C834.429,516.892 818.994,523.504 813.021,538.234C807.046,553.077 805.732,568.688 806.566,584.519C806.628,585.726 806.442,586.934 806.317,589.243C796.985,585.534 788.488,581.887 779.771,578.769C776.454,577.605 776.497,576.068 776.653,572.974C777.213,560.722 777.686,548.426 777.026,536.196C776.653,529.038 771.25,523.637 764.797,521.376C758.716,519.223 752.545,521.376 748.044,526.735C746.768,528.229 744.944,529.281 743.718,530.799C738.689,536.905 732.081,542.107 732.454,551.241C732.476,552.336 731.159,553.482 730.388,554.776C728.191,552.847 726.367,551.44 724.743,549.791C721.955,546.959 719.123,544.196 716.641,541.096C710.098,532.95 709.637,531.413 714.712,521.95C720.619,510.928 726.371,499.905 729.686,487.566C733.464,473.514 737.481,459.637 737.744,444.992C737.931,433.465 737.744,421.915 737.682,410.344C737.558,393.437 732.809,378.046 722.071,364.74C719.961,362.107 717.945,359.12 715.199,357.297C698.556,346.297 680.288,340.676 660.197,340.785C658.131,340.785 654.29,338.258 654.29,336.876C654.228,331.231 655.323,325.612 656.089,319.464C658.305,320.298 659.363,320.671 660.415,321.107C667.134,323.964 674.028,325.588 681.405,324.972C688.19,324.412 691.945,318.517 689.112,312.194C687.749,309.188 685.95,306.462 684.326,303.564L685.247,302.157C694.271,306.414 704.064,309.622 712.1,315.309C720.443,321.172 726.986,329.515 734.496,336.629C736.625,338.67 739.282,340.189 741.72,341.944C738.428,332.656 735.751,323.413 730.171,316.496C721.147,305.21 710.081,295.703 695.26,292.08C688.892,290.524 682.591,288.57 676.113,286.746C680.482,280.927 680.551,281.101 686.784,283.142C689.485,284.044 692.516,284.262 695.435,284.262C700.881,284.262 703.624,279.015 700.837,274.25C699.847,272.601 698.771,271.02 697.457,268.891C700.507,267.97 703.059,267.466 705.384,266.433C709.797,264.479 711.508,266.744 713.573,270.298C716.013,274.512 719.038,278.553 722.488,281.935C733.84,292.913 747.628,295.987 763.218,295.636C772.506,295.449 777.38,291.397 781.355,284.087C780.278,282.967 779.314,281.871 778.262,280.838C762.277,264.854 746.227,248.957 730.418,232.797C727.543,229.878 724.667,229.417 721.109,230.052C719.858,230.301 718.582,230.55 717.287,230.799C706.353,233.102 694.693,233.5 685.516,241.053C675.614,249.221 665.25,257.037 656.555,266.347C648.672,274.756 641.054,284.176 636.355,294.539C626.98,315.222 624.147,337.355 626.804,360.256C628.87,378.26 629.437,396.418 630.756,414.511C630.943,416.864 631.378,419.409 632.405,421.537C640.42,438.224 648.741,454.802 656.777,471.51C662.484,483.301 666.789,495.948 673.749,506.948C684.398,523.723 693.796,541.442 707.738,556.066C715.862,564.651 723.196,574.026 730.902,582.985C731.213,583.358 731.668,583.607 732.041,583.906C753.91,601.8 777.14,617.698 801.512,631.926C818.836,642.026 836.423,651.687 854.01,661.304C855.616,662.182 858.734,662.337 860.004,661.348C864.504,657.831 868.523,653.707 872.805,649.667C862.222,644.769 852.583,640.291 842.987,635.79C833.524,631.352 824.082,626.854 814.4,622.221C832.69,623.186 850.233,624.393 867.755,624.854C875.264,625.041 882.905,622.595 890.304,623.298C899.614,624.157 903.5,618.225 909.011,612.1C904.66,612.287 901.238,612.473 897.835,612.598C880.599,613.413 863.407,615.013 846.215,614.795C831.702,614.546 817.21,612.312 802.741,610.868C799.492,610.557 795.847,610.744 793.212,609.244C785.395,604.831 777.93,599.78 770.443,594.796C769.323,594.049 768.837,592.338 767.655,590.445C778.524,593.146 788.185,595.405 797.736,597.998C811.327,601.689 825.182,603.089 839.125,602.958C865.144,602.647 891.162,601.838 917.159,601.159C918.696,601.115 920.582,600.786 921.64,599.864C927.347,594.679 932.86,589.259 939.513,582.869C932.113,576.962 925.856,571.54 919.115,566.753C914.372,563.348 909.059,565.259 908.247,570.992L908.277,571.015Z" style="fill:rgb(69,28,21);fill-rule:nonzero;"/>
    </g>
    <g transform="matrix(0.058594,0,0,0.058594,0.000001,0)">
        <path d="M276.14,697.896C278.903,692.867 277.503,690.058 271.945,689.245C269.045,688.809 265.468,688.411 263.075,689.681C247.727,697.696 232.621,706.171 217.493,714.492C227.461,724.46 236.53,733.55 245.905,742.926C253.502,731.442 261.011,720.003 268.63,708.63C271.07,704.983 274.051,701.692 276.139,697.893L276.14,697.896Z" style="fill:rgb(69,28,21);fill-rule:nonzero;"/>
    </g>
    <g transform="matrix(0.058594,0,0,0.058594,0.000001,0)">
        <path d="M521.386,903.974C502.262,900.831 483.379,896.179 464.386,892.315C441.551,887.684 418.694,883.049 395.793,878.614C390.546,877.606 385.122,877.338 378.425,876.573C388.635,886.673 397.879,895.829 407.167,904.963C407.802,905.598 408.767,906.058 409.669,906.195C415.927,907.272 422.184,909.027 428.486,909.095C450.903,909.282 472.422,914.273 493.895,920.029C504.39,922.792 515.303,924.025 525.996,926.048C534.318,927.629 542.529,930.243 550.939,930.791C563.257,931.625 575.662,931.102 588.024,930.915C589.493,930.915 591.298,930.168 592.35,929.16C598.543,923.21 604.514,917.127 611.255,910.408C609.519,910.284 608.884,910.159 608.292,910.159C579.068,911.566 550.129,908.69 521.388,903.947L521.386,903.974Z" style="fill:rgb(69,28,21);fill-rule:nonzero;"/>
    </g>
    <g transform="matrix(0.058594,0,0,0.058594,0.000001,0)">
        <path d="M270.748,618.898C266.864,618.876 262.997,618.195 257.772,617.666C267.719,610.728 276.655,604.382 285.723,598.235C292.991,593.318 301.335,591.78 309.876,591.428C312.534,591.304 315.235,592.548 317.912,593.164C318.099,593.892 318.285,594.571 318.472,595.293C316.431,596.718 314.495,599.158 312.323,599.401C298.315,600.957 287.38,608.162 277.258,617.252C275.789,618.615 272.957,618.92 270.759,618.901L270.748,618.898ZM316.516,610.93C323.981,604.453 332.962,599.71 338.561,590.993C346.553,578.543 357.773,568.575 364.909,555.225C377.908,530.875 391.06,506.877 395.055,478.882C397.8,459.494 402.872,440.458 402.718,420.631C402.594,401.748 403.091,382.865 399.139,364.18C397.34,355.55 397.21,346.571 395.604,337.897C391.764,317.214 382.957,298.792 368.685,283.181C363.264,277.256 358.694,269.919 352.129,265.769C333.686,254.131 315.067,242.516 292.978,238.433C289.661,237.811 287.905,238.371 285.732,240.543C264.325,262.061 242.829,283.513 221.355,305.008C220.496,305.842 219.749,306.788 218.106,308.587C224.781,311.245 230.49,314.207 236.549,315.767C246.21,318.225 250.623,315.705 252.292,307.818C252.952,304.787 253.107,301.65 253.475,298.575C254.222,291.988 255.012,285.379 255.716,278.967L277.387,278.967C277.387,281.973 277.511,285.091 277.365,288.189C277.178,291.046 276.575,293.878 276.27,296.73C276.208,297.352 276.457,297.981 276.643,298.597C278.554,304.018 286.831,305.14 291.112,300.091C295.873,294.489 300.114,288.432 304.176,282.328C305.825,279.845 307.381,278.724 310.151,279.695C319.746,283.1 328.55,287.884 336.082,294.406C334.196,295.57 332.217,296.429 330.611,297.742C320.335,305.954 310.433,314.671 299.828,322.399C287.884,331.116 279.079,342.357 271.109,354.478C270.163,355.947 270.449,358.256 270.163,360.167C272.03,359.532 273.96,358.96 275.808,358.256C276.244,358.132 276.468,357.528 276.798,357.161C284,348.202 291.421,339.771 301.851,333.908C312.017,328.176 321.063,320.405 330.35,313.73C332.653,315.354 334.103,316.406 336.039,317.751C332.46,322.008 329.057,326.072 324.841,331.123C337.423,333.364 347.105,328.994 357.755,325.042C359.249,330.419 360.985,335.669 362.081,341.071C363.027,345.683 360.961,348.031 356.305,348.624C353.865,348.935 351.388,349.06 349.038,349.701C331.692,354.643 314.719,359.889 301.765,373.875C288.108,388.564 279.852,405.646 277.327,425.232C273.001,458.869 283.321,488.555 304.114,514.728C314.917,528.297 327.871,539.693 342.67,548.827C345.259,550.433 346.796,552.493 344.973,555.304C343.106,558.179 340.691,560.725 338.628,563.296C333.095,558.796 328.177,554.382 322.819,550.584C317.329,546.787 311.621,543.184 305.627,540.33C302.247,538.706 298.03,537.984 294.276,538.245C286.898,538.743 283.934,546.611 285.317,555.02C286.879,564.264 289.686,573.332 292.124,583.147C287.182,586.751 281.497,590.919 275.854,595.047C272.207,588.526 268.828,582.532 265.49,576.493C258.618,564.241 248.561,555.086 236.924,547.642C225.924,540.638 214.967,542.395 205.658,551.308C200.785,555.982 199.795,561.869 198.303,567.929C194.855,581.981 190.882,595.924 187.28,609.361L138.953,609.361C139.015,609.174 139.077,608.639 139.326,608.284C152.104,592.738 159.724,574.887 162.666,555.083C163.456,549.88 163.102,544.236 162.168,539.032C161.073,533.101 156.635,531.37 151.322,534.134C137.577,541.379 126.116,551.435 116.653,563.622C109.232,573.217 102.381,583.185 95.179,593.11C105.06,602.946 114.259,612.168 123.525,621.302C124.16,621.937 125.125,622.665 125.871,622.597C131.753,622.037 137.596,621.035 143.459,620.686C151.276,620.25 159.114,620.313 166.931,619.983C178.305,619.485 189.085,622.485 200.151,624.352C216.684,627.097 233.877,625.541 250.805,625.976C256.687,626.1 262.574,626.704 268.458,627.071C268.645,627.93 268.831,628.807 269.018,629.641C267.369,631.004 265.414,632.081 264.076,633.724C260.846,637.745 256.984,639.214 251.736,638.952C238.892,638.274 226.003,638.703 213.224,637.633C205.056,636.93 197.042,634.316 188.918,632.629C186.702,632.193 184.437,631.683 182.177,631.664C173.263,631.664 164.348,631.664 155.456,631.975C149.001,632.224 142.567,632.896 134.751,633.469C138.261,636.656 140.9,639.089 143.644,641.439C144.434,642.161 145.53,642.846 146.544,642.933C157.017,643.636 167.491,644.14 177.964,644.862C185.781,645.36 193.641,645.939 201.414,646.835C208.901,647.694 216.279,649.138 223.744,650.152C228.792,650.83 233.91,651.204 240.146,651.845C221.878,664.229 205.081,676.634 184.025,681.048C190.193,687.216 195.903,692.905 201.832,698.811C202.205,698.687 203.064,698.313 203.873,697.846C233.91,679.952 260.675,657.621 287.726,635.73C297.562,627.76 306.96,619.284 316.511,610.963L316.516,610.93Z" style="fill:rgb(69,28,21);fill-rule:nonzero;"/>
    </g>
</svg>
