<?xml version="1.0" encoding="UTF-8" standalone="no"?>
<!DOCTYPE svg PUBLIC "-//W3C//DTD SVG 1.1//EN" "http://www.w3.org/Graphics/SVG/1.1/DTD/svg11.dtd">
<svg width="100%" height="100%" viewBox="0 0 61 61" version="1.1" xmlns="http://www.w3.org/2000/svg" xmlns:xlink="http://www.w3.org/1999/xlink" xml:space="preserve" xmlns:serif="http://www.serif.com/" style="fill-rule:evenodd;clip-rule:evenodd;stroke-linejoin:round;stroke-miterlimit:2;">
    <g transform="matrix(0.058594,0,0,0.058594,0.000039,-0.000054)">
        <path d="M1009.679,510.642C1009.43,507.461 1009.306,502.65 1008.559,497.95C1005.179,475.642 994.726,457.153 978.807,441.256C846.339,308.986 714.002,176.583 581.622,44.247C580.016,42.598 578.392,40.954 576.661,39.436C553.825,19.213 527.213,11.221 497.044,15.59C475.394,18.752 457.433,28.962 442.019,44.354C323.274,163.231 204.419,282.02 85.608,400.83C70.435,416.003 55.087,430.999 40.178,446.435C25.511,461.651 17.057,480.073 14.927,501.065C11.656,533.145 22.392,560.042 45.228,582.834C177.016,714.336 308.584,846.036 440.261,977.692C442.57,980.02 444.892,982.391 447.332,984.608C462.724,998.551 480.773,1006.916 501.391,1008.915C533.053,1011.965 559.819,1001.603 582.347,979.031C649.207,911.885 716.308,845.004 783.3,778.012C848.887,712.426 914.429,646.795 980.103,581.275C999.271,562.128 1009.064,539.204 1009.679,510.638L1009.679,510.642ZM512.019,1024C480.708,1023.44 454.228,1012.078 432.182,990.01C347.954,905.716 263.682,821.488 179.41,737.216C130.533,688.318 81.568,639.463 32.757,590.498C10.317,567.992 -0.772,540.611 0.041,508.905C0.81,478.912 12.557,453.419 33.833,432.187C99.815,366.293 165.708,300.333 231.668,234.374C298.879,167.185 366.09,99.974 433.367,32.806C454.907,11.266 481.059,0.111 511.469,0.002C541.704,-0.122 568.053,10.454 589.461,31.84C723.554,165.691 857.581,299.609 991.411,433.724C1035.414,477.858 1034.799,546.826 990.689,590.938C857.781,723.889 724.83,856.775 591.923,989.748C569.768,1011.947 543.2,1023.452 512.02,1024.001L512.019,1024Z" style="fill:rgb(69,28,21);fill-rule:nonzero;"/>
    </g>
    <g transform="matrix(0.058594,0,0,0.058594,0.000039,-0.000054)">
        <path d="M346.188,766.082C351.696,765.136 356.596,765.092 360.79,763.337C365.776,761.227 370.648,760.132 376.028,760.461C378.792,760.585 381.673,760.772 384.416,760.337C393.66,758.868 402.531,760.026 411.643,761.986C418.208,763.436 425.498,763.828 432.019,762.484C441.307,760.548 450.221,756.664 459.29,753.526C460.099,753.215 460.958,752.431 461.307,751.64C463.044,747.775 464.817,743.889 466.18,739.871C471.078,725.401 475.621,710.778 480.672,696.308C484.494,685.329 489.345,674.636 492.859,663.526C497.975,647.519 502.366,631.249 506.868,615.045C508.449,609.4 509.744,603.649 510.777,597.874C511.399,594.6 510.901,591.662 506.339,591.331C492.769,590.323 479.397,592.252 466.465,595.57C450.656,599.634 435.747,606.153 422.748,616.715C417.937,620.667 411.505,622.535 406.192,626.003C390.163,636.477 375.21,648.729 357.777,656.897C350.838,660.127 349.213,664.253 349.323,671.323C349.572,686.1 348.95,700.943 348.402,715.698C347.842,732.144 346.952,748.59 346.186,766.134L346.188,766.082ZM517.364,705.092C519.536,707.663 521.117,709.636 522.81,711.525C525.972,714.973 528.368,719.43 533.811,719.847C538.224,720.158 542.66,721.098 547.051,720.837C563.958,719.804 580.053,725.337 596.675,726.501C606.007,727.136 615.405,729.177 624.583,728.368C632.795,727.621 640.151,729.158 647.572,731.418C654.334,733.484 655.849,732.756 656.728,725.642C656.79,725.02 657.288,724.497 657.587,723.949C661.141,717.756 664.328,711.28 668.368,705.396C673.771,697.579 678.841,689.147 685.802,682.911C694.497,675.138 704.971,669.385 714.632,662.645C715.64,661.923 716.611,660.491 716.698,659.352C716.76,658.605 715.316,657.329 714.283,656.956C698.386,651.118 683.565,643.277 669.71,633.55C653.703,622.33 639.211,609.572 628.474,592.995C623.009,584.475 616.705,577.098 606.583,573.409C594.397,568.953 583.616,561.289 570.134,559.751C561.944,558.849 555.071,561.245 553.732,568.358C550.24,586.605 546.42,604.851 543.829,623.252C540.866,644.001 534.585,663.477 525.276,682.207C521.809,689.124 520.116,696.962 517.371,705.087L517.364,705.092ZM420.802,379.086C430.463,379.708 439.466,380.381 448.49,380.667C449.81,380.729 452.069,379.043 452.33,377.835C453.954,369.996 455.05,362.069 456.481,354.165C456.854,352.167 457.844,350.256 458.547,348.327C459.182,348.451 459.798,348.576 460.433,348.7C465.394,359.306 460.557,370.153 460.246,380.538C468.502,381.416 476.472,382.38 484.443,383.127C506.334,385.125 528.204,387.148 550.096,388.947C557.495,389.569 562.545,393.864 565.51,399.75C570.097,408.863 573.415,418.655 577.455,428.075C577.953,429.195 579.826,430.733 580.772,430.558C586.461,429.525 592.058,428.056 598.382,426.562C585.449,416.923 580.025,403.903 578.708,389.257C577.806,379.244 577.457,369.056 578.459,359.109C579.249,351.49 581.359,343.432 585.068,336.822C590.688,326.963 597.628,317.609 605.181,309.134C616.379,296.574 627.577,283.641 644.221,277.669C645.142,277.358 645.758,276.088 647.078,274.638C645.124,273.717 643.673,272.484 642.136,272.397C638.731,272.273 635.286,272.584 631.838,272.833C625.67,273.269 619.476,273.953 613.284,274.153C611.772,274.215 609.836,273.145 608.759,271.956C604.695,267.5 601.162,262.492 596.836,258.32C595.342,256.851 592.118,257.225 589.656,256.764C589.905,258.961 589.718,261.264 590.446,263.286C591.236,265.545 593.434,267.413 593.938,269.676C595.867,278.656 596.969,287.812 587.919,293.982C580.716,298.88 573.493,304.038 565.588,307.574C562.451,308.956 559.837,309.728 558.474,312.933C550.986,330.631 545.541,348.789 544.444,368.133C544.382,369.87 542.577,371.469 541.587,373.137C540.311,371.513 537.94,369.863 537.94,368.22C537.896,359.196 537.318,349.952 538.948,341.147C541.649,326.831 545.777,312.756 549.553,298.616C553.879,282.324 559.258,266.404 568.151,251.891C575.462,240.056 584.179,230.109 598.43,226.377C603.633,225.014 608.64,222.624 614.261,220.495C607.916,215.684 601.152,216.3 594.763,216.543C585.783,216.916 576.802,218.497 567.844,218.566C564.57,218.588 560.664,216.35 558.139,213.91C555.55,211.451 554.075,207.63 552.494,204.227C548.299,195.158 544.413,185.98 540.176,177C539.498,175.575 537.456,174.828 536.068,173.795C535.508,174.106 534.973,174.473 534.419,174.847C535.34,183.762 535.384,192.94 537.45,201.591C540.369,213.602 542.124,225.744 540.126,237.689C536.989,256.594 526.051,272.337 516.566,288.542C515.576,290.21 513.995,291.548 512.527,292.868C506.402,298.289 497.925,296.932 493.248,290.167C486.727,280.747 484.333,269.901 482.05,258.966C480.008,249.063 480.096,239.775 487.888,231.893C490.546,229.235 492.519,225.918 494.607,222.78C498.646,216.655 502.578,210.484 507.32,203.107C504.046,202.734 501.588,201.657 500.316,202.472C492.807,207.153 485.275,211.87 478.38,217.359C469.092,224.693 462.703,228.25 450.78,219.818C448.651,218.306 445.819,217.359 443.226,217.005C441.577,216.818 439.734,218.212 437.954,218.916C439.006,220.366 439.778,222.209 441.159,223.173C450.579,229.936 456.551,238.939 458.066,250.356C458.968,257.031 458.11,263.882 458.564,270.601C459.398,282.261 456.915,292.932 450.484,302.659C446.245,309.07 439.747,310.234 433.642,305.447C430.15,302.727 426.792,299.715 423.761,296.489C416.099,288.299 417.284,277.101 426.22,270.404C428.237,268.91 430.017,267.087 433.202,264.342C429.866,263.782 427.999,263.047 426.285,263.247C420.69,263.975 416.141,266.714 412.782,271.328C407.666,278.266 402.857,279.693 394.865,276.886C390.869,275.461 386.916,273.923 382.854,272.865C379.891,272.05 376.773,271.614 373.719,271.57C372.686,271.57 371.285,273.151 370.819,274.34C370.57,274.962 371.765,276.581 372.686,277.128C386.827,285.714 399.474,295.879 409.113,309.537C416.82,320.406 422.946,331.67 423.956,345.393C424.815,356.766 425.78,367.987 420.707,379.075L420.802,379.086ZM124.727,623.479C141.283,601.653 157.817,581.233 181.289,568.937C200.919,558.639 221.932,551.766 244.965,555.235C255.812,556.884 267.054,556.399 277.769,558.509C284.202,559.76 290.592,563.382 296.015,567.292C308.531,576.36 321.112,585.845 329.566,598.954C334.24,606.222 336.614,615.049 339.381,623.392C341.665,630.287 342.985,637.467 344.846,645.02C346.956,644.205 348.033,643.987 348.929,643.458C358.217,637.993 367.571,632.611 376.705,626.881C390.384,618.34 404.481,610.325 417.304,600.598C427.492,592.825 437.987,586.457 450.042,582.439C467.761,576.514 486.096,575.896 504.496,576.358C511.566,576.545 516.331,574.429 519.493,567.444C523.881,557.739 527.661,548.121 530.054,537.626C532.251,528.053 537.585,519.27 540.857,509.85C544.349,499.881 547.05,489.627 549.903,479.417C550.152,478.471 549.268,476.604 548.347,475.95C543.492,472.415 538.136,470.261 531.966,470.348C524.523,470.472 517.079,470.721 509.658,470.326C492.071,469.405 476.174,474.807 461.023,483.039C455.82,485.871 450.835,489.101 445.697,492.042C443.108,493.554 441.371,493.181 439.329,490.374C431.271,479.483 421.873,469.8 410.389,462.334C407.688,460.597 405.715,460.336 402.88,462.085C391.023,469.397 379.144,476.709 366.98,483.515C359.888,487.511 352.378,490.805 344.913,494.077C333.078,499.237 320.804,503.409 309.364,509.271C295.18,516.539 280.952,514.979 266.218,512.564C252.341,510.261 238.376,508.456 224.368,507.074C212.621,505.935 200.808,505.493 188.995,505.051C177.863,504.678 166.84,506.414 157.201,511.858C142.885,519.938 127.295,523.627 111.684,527.535C92.932,532.234 74.862,538.667 57.471,547.033C56.176,547.655 54.792,548.153 52.685,549.031C50.423,543.915 48.403,538.909 46.01,534.122C44.605,531.29 45.637,529.796 48.008,528.719C61.797,522.507 75.323,515.501 89.485,510.341C110.608,502.612 132.192,495.805 154.61,493.368C172.725,491.439 191.103,491.501 209.371,490.978C219.581,490.667 229.857,490.667 240.067,491.165C249.003,491.663 257.962,492.902 266.832,494.171C279.655,495.995 292.456,495.752 304.906,492.416C315.863,489.472 326.446,485.06 337.358,481.943C351.411,477.922 362.06,468.11 374.708,461.808C374.584,461.186 374.459,460.669 374.397,460.115C368.095,460.737 361.639,460.613 355.58,462.094C346.116,464.422 336.916,467.739 327.672,470.899C325.475,471.646 324.684,471.023 322.861,469.579C314.254,462.817 309.84,451.75 299.521,446.766C285.358,439.871 270.493,438.071 255.079,440.859C244.21,442.813 233.034,444.002 222.561,447.292C211.934,450.609 201.965,456.053 191.184,460.84C188.066,453.199 185.343,445.733 182.072,438.487C175.09,423.205 165.099,410.93 148.104,405.903C141.122,403.837 134.249,401.403 127.135,399.096C134.249,391.938 141.429,384.275 149.224,377.27C150.871,375.801 155.086,376.044 157.656,376.897C176.956,383.065 193.49,393.497 205.962,409.767C211.627,417.188 213.889,417.759 222.166,413.763C230.532,409.724 239.556,408.429 248.712,407.968C255.782,407.595 262.94,408.279 269.967,407.781C282.833,406.903 294.12,411.603 304.945,417.442C311.094,420.759 316.626,425.281 322.138,429.672C324.335,431.409 325.804,431.496 328.2,430.294C343.373,422.543 359.446,421.467 376.045,424.036C383.773,425.262 391.613,426.009 399.429,426.252C412.911,426.688 422.77,433.871 432.036,442.478C436.405,446.499 440.687,450.558 445.43,454.972C461.283,439.558 481.989,438.834 501.685,436.484C521.491,434.094 541.625,433.391 560.311,445.662C560.933,436.287 561.033,427.898 556.931,420.082C554.429,415.314 552.387,409.937 546.414,408.488C539.475,406.776 532.559,404.978 525.51,404.144C508.933,402.165 492.289,400.652 475.623,399.183C468.421,398.548 461.153,398.685 453.929,398.044C441.414,396.967 428.898,395.517 416.404,394.266C414.275,394.017 412.103,394.31 409.971,394.079C399.585,393.046 389.155,392.125 378.814,390.786C366.035,389.118 353.3,387.164 340.608,385.166C330.31,383.56 320.034,381.849 309.802,379.963C285.956,375.507 262.155,370.894 238.331,366.371C217.559,362.375 196.81,358.4 176.324,349.003C180.979,344.659 185.326,340.484 189.806,336.443C190.379,335.945 191.65,335.74 192.463,335.945C210.468,340.401 228.385,345.145 246.413,349.405C261.475,352.984 276.648,356.167 291.82,359.308C304.424,361.897 317.071,364.468 329.784,366.576C339.621,368.2 349.612,369.035 359.514,370.31C367.155,371.318 374.797,372.439 382.437,373.497C387.572,374.2 392.735,374.86 398.335,375.607C404.68,361.686 406.02,347.546 401.142,332.79C399.866,329.056 397.389,329.28 394.621,329.759C382.874,331.825 371.17,334.016 359.445,336.061C348.071,338.084 336.675,340.013 324.533,342.123C324.533,333.846 324.72,325.194 324.409,316.521C324.347,314.193 322.847,311.909 322.038,309.604C313.935,286.725 326.563,261.342 340.679,249.178C346.959,243.757 355.281,240.68 362.615,236.377C367.688,233.414 372.539,229.943 377.7,227.111C384.88,223.202 388.459,216.462 392.609,209.458C383.892,214.773 375.658,219.756 367.337,224.806C366.522,223.225 366.217,222.877 366.26,222.696C370.299,214.396 370.057,205.24 371.55,196.435C373.853,182.975 380.267,171.163 387.93,160.074C394.188,150.94 402.795,145.099 412.72,140.181C429.232,131.991 445.897,123.977 458.501,109.484C465.549,101.404 473.608,93.939 484.586,90.843C498.99,86.804 513.504,85.023 528.127,89.15C537.679,91.826 546.483,96.155 552.478,104.608C553.293,105.728 554.059,107.745 553.573,108.716C553.013,109.811 550.915,110.87 549.646,110.733C541.258,109.743 532.893,108.405 524.527,107.266C523.232,107.079 521.956,107.079 520.158,108.125C522.617,109.376 525.293,110.322 527.514,111.922C540.425,121.057 554.675,123.296 570.331,122.988C596.504,122.49 625.356,139.346 635.852,163.872C639.829,173.051 642.241,182.163 643.559,191.999C645.183,203.746 652.54,212.375 661.63,219.819C668.634,225.614 676.692,231.215 681.194,238.747C686.285,247.288 689.406,257.718 690.746,267.687C692.395,279.807 690.497,292.323 691.536,304.575C692.482,315.203 695.358,325.676 697.399,336.413C693.515,335.915 688.441,335.511 683.522,334.484C668.349,331.254 653.023,329.81 637.565,329.698C631.658,329.636 625.686,329.574 619.89,328.621C610.755,327.171 605.683,332.399 600.721,338.633C595.206,345.55 592.816,353.608 592.158,362.237C591.598,369.439 590.733,376.75 591.256,383.931C592.09,395.349 596.59,405.647 603.399,414.913C608.098,421.347 614.751,422.05 621.514,420.228C637.565,415.946 653.462,411.116 669.425,406.549C709.849,395 748.757,379.63 786.018,360.263C801.388,352.271 815.946,342.741 830.811,333.958C835.884,339.205 840.889,344.41 846.511,350.228C829.055,359.428 811.708,369.726 793.396,377.938C769.792,388.478 745.77,398.38 721.288,406.746C686.003,418.778 650.257,429.428 614.576,440.209C606.671,442.624 598.218,443.414 589.962,444.516C582.167,445.524 575.624,448.381 571.891,455.538C568.729,461.644 566.183,468.076 563.811,475.168C584.89,471.06 599.777,481.624 614.532,493.964C623.688,483.666 635.699,477.387 647.665,470.975C658.776,465 670.39,461.204 683.214,461.336C688.922,461.398 694.719,460.197 700.406,460.527C711.648,461.23 722.868,462.681 734.111,463.645C735.362,463.769 737.36,463.334 737.908,462.481C747.349,447.813 760.392,437.142 775.828,429.786C788.08,423.948 800.728,418.061 813.858,415.207C824.42,412.923 835.947,415.083 847.057,415.331C848.333,415.353 849.603,415.767 850.723,415.991C852.939,399.282 865.325,389.84 875.052,379.037C885.174,389.159 894.682,398.688 904.738,408.723C891.41,418.648 878.828,430.417 875.381,448.795C864.864,445.502 855.049,446.162 845.124,448.297C841.172,449.131 836.868,448.048 832.806,448.359C826.131,448.857 819.412,449.436 812.891,450.749C810.563,451.185 808.677,453.954 805.646,456.481C808.939,459.556 811.665,463.046 815.197,465.242C824.551,471.018 833.246,477.253 841.305,485.004C853.052,496.268 868.181,501.625 884.516,504.217C898.503,506.433 912.007,502.107 925.708,503.122C936.379,503.869 947.095,504.946 956.975,509.973C964.55,513.795 972.411,516.978 980.864,520.754C979.744,525.802 978.536,531.118 977.329,536.475C970.171,533.313 963.561,529.668 956.513,527.517C949.751,525.407 942.504,524.069 935.39,523.807C921.425,523.309 907.416,524.18 893.43,523.683C880.124,523.247 867.191,520.478 854.983,514.768C842.753,509.06 830.917,502.823 821.41,492.986C816.624,488.025 811.924,482.951 807.16,477.924C801.652,472.061 796.094,466.177 790.45,460.182C773.082,470.458 765.067,486.882 759.666,504.075C746.974,500.166 734.898,495.445 722.448,493.009C713.028,491.21 702.994,491.515 693.399,492.349C683.562,493.227 673.703,495.268 664.174,497.839C646.278,502.65 634.136,515.426 623.048,529.281C619.755,533.389 619.114,535.493 614.199,530.731C603.11,520.016 589.343,514.044 574.917,509.41C571.407,508.29 568.615,509.783 567.539,513.207C565.236,520.673 563.188,528.27 561.194,535.823C560.204,539.489 562.289,542.586 565.52,542.322C577.003,541.488 586.555,547.482 597.028,550.117C607.392,552.706 615.868,558.856 624.321,564.85C627.788,567.309 630.141,571.438 632.84,574.95C638.348,582.218 644.851,588.344 652.514,593.329C653.721,594.138 655.19,594.997 655.831,596.229C660.879,605.934 670.565,610.984 677.898,618.384C686.154,626.684 695.794,632.019 707.145,635.379C719.309,638.889 730.793,644.623 742.694,648.992C746.559,650.399 750.928,651.276 754.99,651.009C768.516,650.175 781.47,651.569 793.569,658.212C799.849,661.66 806.743,664.249 812.452,668.466C819.939,673.974 826.482,680.696 833.86,687.306C831.974,689.323 830.698,690.729 829.335,692.092C789.329,732.12 749.169,772.039 709.383,812.308C704.839,816.895 700.314,816.939 694.869,816.895C683.759,816.895 673.571,812.544 662.834,810.876C659.143,810.254 655.5,809.451 651.285,808.66C651.907,798.801 652.468,789.008 652.978,779.193C653.227,773.946 653.656,768.631 653.289,763.406C652.916,757.985 649.449,753.92 644.703,751.725C637.041,748.215 629.289,744.72 621.231,742.283C616.158,740.771 610.494,740.963 605.114,740.727C587.482,739.98 569.851,739.675 552.241,738.598C540.933,737.938 530.218,734.733 520.249,728.936C517.903,727.573 514.647,727.616 511.993,727.069C505.471,736.181 504.154,746.567 501.914,756.711C499.256,768.809 496.25,780.842 493.46,792.896C492.47,797.135 490.186,799.108 485.577,799.879C477.761,801.174 470.163,803.632 462.5,805.63C453.08,808.045 443.683,810.46 432.946,812.107C437.16,804.268 441.421,796.474 445.461,788.547C447.347,784.925 448.754,781.06 450.378,777.327L449.015,776.474C444.577,777.881 440.188,780.053 435.621,780.489C427.716,781.304 418.89,783.259 411.996,780.676C400.622,776.369 390.192,777.558 379.455,780.614C369.267,783.471 359.342,787.223 349.308,790.604C345.947,791.724 344.652,793.921 344.366,797.586C343.644,806.83 342.393,816.074 341.403,824.44C340.065,825.386 339.847,825.629 339.561,825.778C331.964,829.313 327.375,825.405 322.127,820.133C258.143,755.776 193.852,691.639 129.649,627.458C128.265,626.076 126.597,624.956 124.731,623.462L124.727,623.479Z" style="fill:rgb(69,28,21);fill-rule:nonzero;"/>
    </g>
    <g transform="matrix(0.058594,0,0,0.058594,0.000039,-0.000054)">
        <path d="M399.72,898.892C413.444,894.765 425.366,890.438 437.64,887.694C450.924,884.706 464.428,885.696 477.888,888.192C489.284,890.302 500.811,892.014 512.361,893.047C543.496,895.947 573.205,904.245 602.254,915.443C603.001,915.754 603.791,916.003 606.648,917.049C604.32,918.474 602.497,919.134 601.245,920.385C587.434,934.086 573.733,947.897 559.899,961.599C549.25,972.138 536.625,978.484 521.562,980.526C498.617,983.644 479.316,976.922 463.112,960.787C443.614,941.376 424.16,921.856 404.661,902.424C403.497,901.285 402.003,900.495 399.719,898.914L399.72,898.892Z" style="fill:rgb(69,28,21);fill-rule:nonzero;"/>
    </g>
    <g transform="matrix(0.058594,0,0,0.058594,0.000039,-0.000054)">
        <path d="M349.142,846.966C367.674,843.126 385.35,839.501 403.025,835.746C408.428,834.582 413.718,832.889 419.142,831.881C430.845,829.709 442.614,827.972 454.339,825.819C466.196,823.603 478.36,822.24 489.712,818.375C501.284,814.423 512.855,814.36 524.624,813.962C534.966,813.589 545.33,813.402 555.694,812.954C574.379,812.139 592.45,816.072 610.477,820.112C610.913,820.174 611.224,820.672 612.475,821.606C596.051,827.469 580.484,833.792 564.433,838.535C546.867,843.763 528.664,846.879 511.054,852.127C484.244,860.098 457.742,869.122 431.108,877.663C419.185,881.485 407.24,885.26 395.252,888.84C393.827,889.276 391.474,888.964 390.509,888.025C376.83,874.653 363.326,861.106 349.142,846.965L349.142,846.966Z" style="fill:rgb(69,28,21);fill-rule:nonzero;"/>
    </g>
    <g transform="matrix(0.058594,0,0,0.058594,0.000039,-0.000054)">
        <path d="M473.244,876.243C475.46,875.521 477.657,874.749 479.919,874.071C496.87,868.868 513.799,863.488 530.86,858.525C550.863,852.73 571.108,847.678 590.979,841.53C605.296,837.092 619.129,831.056 633.401,826.555C637.615,825.235 642.755,826.679 647.454,826.991C655.468,827.551 663.505,828.267 671.519,828.815C677.865,829.251 684.211,829.475 690.293,829.823C664.098,856.018 638.012,882.103 610.807,909.308C568.496,888.185 521.046,882.213 473.245,876.241L473.244,876.243Z" style="fill:rgb(69,28,21);fill-rule:nonzero;"/>
    </g>
</svg>
