<?xml version="1.0" encoding="UTF-8" standalone="no"?>
<!DOCTYPE svg PUBLIC "-//W3C//DTD SVG 1.1//EN" "http://www.w3.org/Graphics/SVG/1.1/DTD/svg11.dtd">
<svg width="100%" height="100%" viewBox="0 0 60 60" version="1.1" xmlns="http://www.w3.org/2000/svg" xmlns:xlink="http://www.w3.org/1999/xlink" xml:space="preserve" xmlns:serif="http://www.serif.com/" style="fill-rule:evenodd;clip-rule:evenodd;stroke-linejoin:round;stroke-miterlimit:2;">
    <g transform="matrix(0.058594,0,0,0.058594,-0.000055,0.000027)">
        <path d="M716.15,698.92C706.6,705.462 696.019,709.567 684.735,711.872C665.13,715.892 645.504,719.929 625.813,723.551C618.744,724.845 611.455,725.132 604.255,725.636C591.786,726.47 579.338,727.372 566.869,727.702C554.356,728.075 541.799,727.764 529.286,727.764L529.286,729.058C504.918,728.293 480.528,727.869 456.182,726.556C444.261,725.921 432.494,723.463 420.618,722.075C414.451,721.353 408.149,721.577 401.98,720.756C388.391,718.958 374.802,717.196 361.345,714.695C348.239,712.256 335.067,709.667 322.334,705.782C306.045,700.754 293.29,691.249 289.668,673.181C287.714,663.61 289.624,654.148 294.192,646.113C307.891,622.118 321.018,597.553 337.22,575.314C351.27,556.039 371.379,543.482 396.516,542.011C398.775,541.887 401.214,541.989 403.343,542.714C405.297,543.374 408.216,544.824 408.458,546.249C408.769,548.421 407.78,551.582 406.199,553.054C402.864,556.128 398.647,558.169 395.003,560.935C391.668,563.505 391.207,568.553 393.335,572.197C397.199,578.849 403.543,581.768 410.546,583.085C425.299,585.898 440.029,588.773 454.891,590.659C466.921,592.171 479.149,592.352 491.289,593.098C497.039,593.471 502.814,594.262 508.544,594C526.458,593.185 544.349,591.716 562.263,590.951C580.637,590.161 598.661,587.391 616.224,582.06C620.68,580.697 625.005,577.822 628.517,574.64C634.118,569.637 632.4,561.951 625.511,558.263C622.792,556.794 619.805,555.388 617.74,553.216C616.178,551.548 614.84,548.518 615.257,546.477C615.568,544.878 618.617,543.073 620.677,542.725C637.493,539.999 651.39,547.224 665.198,555.677C682.322,566.104 692.617,582.174 702.562,598.573C711.76,613.655 721.025,628.759 728.84,644.565C739.004,665.135 737.248,684.432 716.151,698.921L716.15,698.92ZM460.026,509.886C466.37,508.131 473,507.472 479.937,506.239L479.937,516.227C474.56,520.067 464.724,515.567 462.33,525.316C465.143,530.363 470.19,530.63 474.91,530.649C499.475,530.773 524.062,530.773 548.65,530.693C553.305,530.649 558.045,530.195 561.36,525.646C559.537,515.46 549.352,520.089 543.732,516.184L543.732,506.985C558.265,506.985 571.723,510.034 581.843,520.662C587.506,526.543 592.117,533.725 595.827,541.013C600.681,550.563 604.191,560.815 608.208,570.518C591.502,584.436 433.835,584.568 415.482,570.642C419.919,559.951 423.824,549.15 428.807,538.92C435.393,525.375 444.701,514.113 460.024,509.854L460.026,509.886ZM506.304,358.049C506.428,355.479 506.553,352.89 506.677,349.883L520.858,349.883C520.858,356.227 520.485,362.66 520.982,368.982C521.48,375.458 522.911,381.868 524.031,388.762C526.862,389.011 529.918,389.26 533.493,389.596L533.493,350.608C542.692,350.608 551.385,350.546 560.034,350.732C560.799,350.732 562.162,352.381 562.187,353.302C562.685,369.569 562.977,385.858 563.239,402.169C563.261,403.221 562.866,404.652 562.144,405.305C555.163,411.825 557.01,420.892 555.558,428.839C553.89,437.928 553.231,438.893 543.901,438.63C535.69,438.381 527.458,438.608 518.589,438.608C517.867,442.715 517.052,447.17 516.131,452.504C522.41,452.504 527.81,452.482 533.189,452.504C542.212,452.504 544.21,454.259 544.451,463.107C544.7,469.031 544.887,474.962 544.202,480.824C543.704,485.435 540.599,487.893 535.464,487.168C533.074,486.857 530.591,487.124 528.615,487.124C528.615,496.872 528.677,506.179 528.571,515.509C528.509,517.923 528.011,520.425 527.208,522.688C526.835,523.808 525.167,525.19 524.072,525.215C519.616,525.277 515.16,525.153 510.769,524.537C509.674,524.413 508.025,522.322 508.025,521.071C507.838,508.294 507.776,495.495 508.003,482.675C508.047,480.173 509.21,477.603 510.218,475.233C511.537,472.115 519.131,470.248 521.59,473.105C525.94,478.152 531.315,475.501 536.254,476.882C536.254,472.514 536.752,468.452 536.005,464.676C535.694,463.07 532.956,460.855 531.22,460.768C523.075,460.332 514.887,460.208 506.786,460.706C505.361,460.768 503.121,464.129 503.034,466.064C502.399,478.423 502.269,490.805 502.001,503.143C501.877,508.675 501.814,514.186 501.939,519.74C502.001,523.075 501.174,524.637 497.328,525.029C489.074,525.863 486.242,523.648 486.066,515.392C485.817,503.054 485.568,490.673 484.902,478.357C484.778,476.229 482.836,473.596 480.994,472.252C476.271,468.761 473.903,464.766 474.035,458.553C474.408,443.734 473.911,428.916 474.097,414.119C474.159,410.454 475.236,406.677 476.511,403.187C478.204,398.402 481.253,395.416 487.137,395.92C491.132,396.231 495.259,395.173 499.452,394.713C499.95,391.222 500.074,387.578 500.989,384.176C501.692,381.631 503.758,379.521 504.567,377.019C505.731,373.509 506.278,369.774 507.33,365.055C500.437,365.553 494.949,366.001 489.592,366.436C484.564,380.025 485.354,380.947 468.539,379.125C463.312,378.565 458.617,373.219 458.331,368.082C457.895,361.386 457.609,354.69 457.254,347.731C468.34,348.353 478.922,348.92 489.832,349.486L489.832,358.069L506.304,358.049ZM344.641,259.216C344.703,258.967 345.014,258.78 345.077,258.718C363.935,262.514 382.595,266.775 401.452,269.87C415.348,272.129 429.508,272.857 443.558,274.238C450.912,274.966 458.245,276.105 465.599,276.148C492.777,276.335 519.933,276.335 547.111,276.148C559.932,276.104 572.796,275.837 585.595,275.14C594.201,274.642 602.763,273.211 611.368,272.109C623.355,270.553 635.319,268.973 647.327,267.324C654.77,266.291 662.19,265.04 669.632,264.119C671.654,263.87 673.758,264.492 675.824,264.679C675.264,267.069 675.388,269.993 674.026,271.814C663.072,286.369 651.019,300.199 640.965,315.347C632.557,327.97 619.605,330.055 607.114,333.48C578.245,341.449 548.631,342.261 518.862,341.735C503.385,341.424 487.908,341.922 472.409,341.486C445.846,340.696 419.853,336.153 394.959,326.514C391.686,325.263 388.637,322.475 386.419,319.664C373.818,303.682 361.371,287.547 349.142,271.28C346.572,267.876 342.403,264.65 344.618,259.25L344.641,259.216ZM471.154,229.109C472.648,229.233 474.073,229.669 475.547,229.669C508.872,230.105 542.218,231.206 575.5,230.721C593.677,230.472 611.788,227.734 629.943,225.936C640.656,224.884 651.479,224.007 662.104,222.202C676.637,219.675 691.039,216.321 705.857,213.245C704.718,222.707 698.876,230.018 694.902,238.118C691.629,244.792 684.98,247.053 678.942,249.248C670.007,252.54 660.523,254.382 651.15,256.888C650.59,253.658 650.963,250.5 649.594,248.721C647.615,246.219 644.504,243.562 641.603,243.145C637.651,242.585 633.349,245.124 632.339,249.138C630.254,257.304 625.929,259.588 617.477,259.829C600.639,260.327 583.911,263.32 567.051,264.154C547.161,265.162 527.184,265.056 507.251,265.293C496.56,265.417 485.847,265.315 475.243,265.315C471.379,252.758 467.889,241.321 464.025,228.763C467.429,228.95 469.296,228.95 471.16,229.136L471.154,229.109ZM760.984,263.427C742.214,244.657 723.422,225.844 704.565,207.161C703.289,205.91 700.962,204.765 699.338,205.008C681.841,207.995 664.388,211.418 646.848,214.338C636.728,216.031 626.476,217.082 616.575,218.377C617.826,210.584 618.772,203.515 620.066,196.512C623.906,175.92 623.426,155.021 624.522,134.231C624.895,127.272 621.535,122.376 615.323,118.644C615.199,120.069 615.074,121.015 615.074,121.961C615.385,153.618 612.964,185.01 606.754,216.008C606.443,217.414 604.688,219.499 603.437,219.611C592.153,220.532 580.847,221.584 569.52,221.696C541.135,221.945 512.749,221.883 484.386,221.696C477.229,221.634 470.094,220.576 462.696,219.941C461.202,210.435 459.69,201.676 458.44,192.873C457.451,186.266 453.81,180.821 449.154,180.294C438.902,179.155 428.606,177.88 418.309,177.351C401.076,176.492 384.304,173.468 367.752,168.811C358.905,166.309 358.444,166.415 352.231,174.829C367.62,180.38 383.536,182.227 399.211,184.774C415.039,187.344 431.087,188.57 446.696,190.375C450.672,214.567 454.621,238.781 458.638,263.171C457.605,263.233 456.267,263.482 454.991,263.358C441.27,262.126 427.527,261.006 413.829,259.494C400.547,258.025 387.2,256.619 374.028,254.335C360.966,252.095 348.321,248.1 336.708,241.536C331.524,238.593 326.543,235.431 324.129,229.594C321.472,223.184 318.709,216.839 315.589,209.595C314.425,211.089 313.479,212.688 312.21,213.945C229.469,296.708 146.772,379.471 63.987,462.146C47.083,479.05 39.817,498.895 43.395,522.758C45.461,536.676 51.21,548.795 61.045,558.674C121.877,619.682 182.841,680.536 243.694,741.499C245.032,742.862 245.673,744.903 246.613,746.589C250.173,739.674 252.189,734.339 254.516,729.159C260.378,716.053 266.283,702.947 272.364,689.973C274.71,684.988 277.037,685.3 280.311,689.786C283.254,693.893 286.503,697.952 290.344,701.18C297.325,707.017 304.855,712.2 311.748,717.36C305.687,738.896 299.542,760.607 293.549,782.363C292.846,784.933 291.925,788.287 293.051,790.266C294.719,793.34 297.992,795.58 301.02,798.564C306.838,771.364 312.611,745.087 321.612,720.916C345.497,725.042 368.393,729.302 391.444,732.837C406.372,735.077 421.476,736.129 436.47,737.797C442.158,738.432 447.908,739.091 453.505,740.236C455.154,740.609 457.761,742.719 457.718,743.945C457.096,755.251 455.982,766.491 455.104,777.796C454.158,789.563 453.063,801.33 452.577,813.119C452.328,819.376 455.079,822.186 461.183,822.779C470.689,823.7 480.194,824.534 489.722,824.801C510.49,825.361 531.279,825.548 552.069,825.921C553.538,825.943 555.317,825.734 556.394,826.481C558.323,827.819 560.719,829.512 561.291,831.528C562.324,835.088 562.193,838.971 562.48,842.724C564.104,862.855 565.971,882.964 567.203,903.139C567.838,913.478 567.181,923.906 567.39,934.312C567.514,940.261 568.205,946.188 568.641,952.116C575.271,948.426 576.654,942.94 576.39,936.091C575.73,917.628 575.892,899.165 575.251,880.725C574.753,866.785 573.341,852.889 572.482,838.948C572.233,835.084 572.438,831.155 572.438,826.83C590.901,826.17 608.968,825.648 627.014,824.808C635.225,824.435 643.413,823.601 651.514,822.549C664.642,820.881 677.726,818.927 690.81,816.905C696.56,815.984 702.884,815.741 707.823,813.109C712.957,810.365 716.714,805.075 721.061,800.903C667.32,809.201 614.149,817.083 559.991,816.073C556.699,806.545 549.278,799.301 542.34,800.025C532.373,801.033 530.595,809.003 529.212,817.609C525.659,817.609 522.187,817.36 518.784,817.653C515.206,817.964 513.557,816.751 512.81,813.042C511.404,806.083 504.819,800.243 499.089,800.067C491.406,799.818 487.41,802.836 485.105,810.297C484.228,813.11 483.456,816.507 479.442,815.829C474.041,814.952 467.61,817.061 463.724,811.461C462.803,810.167 463.475,807.621 463.662,805.667C463.724,804.348 464.297,803.122 464.39,801.827C465.684,784.11 466.96,766.394 468.254,748.678C468.627,743.345 470.27,741.587 475.542,741.697C482.435,741.884 489.372,742.774 496.266,742.599C533.828,741.765 571.367,741.367 608.885,739.438C627.589,738.473 646.227,735.07 664.756,731.908C675.447,730.085 686.094,727.185 696.39,723.653C714.216,717.505 729.451,707.145 741.657,692.612C743.854,689.955 745.497,686.837 747.388,683.919L749.037,683.919C758.126,704.226 767.214,724.554 776.918,746.266C778.038,744.598 778.872,742.688 780.253,741.306C839.855,681.616 899.436,621.903 959.215,562.367C970.63,550.995 978.204,538.086 980.509,521.929C983.583,500.217 978.225,480.942 962.947,465.554C895.88,397.982 828.396,330.784 761.066,263.432L760.984,263.427Z" style="fill:rgb(69,28,21);fill-rule:nonzero;"/>
    </g>
    <g transform="matrix(0.058594,0,0,0.058594,-0.000055,0.000027)">
        <path d="M980.172,581.036C941.337,619.695 902.656,658.508 863.93,697.256C769.971,791.193 675.968,885.043 582.118,979.089C559.572,1001.678 532.746,1011.952 501.089,1008.791C480.497,1006.769 462.473,998.364 447.128,984.357C445.043,982.49 443.046,980.493 441.092,978.52C308.869,846.275 176.667,714.007 44.378,581.85C29.077,566.593 18.868,548.811 15.642,527.363C10.962,496.584 18.872,469.363 40.076,446.619C54.806,430.813 70.503,415.929 85.782,400.627C204.614,281.817 323.424,163.051 442.169,44.219C457.558,28.786 475.625,18.687 497.249,15.592C527.259,11.292 553.713,19.257 576.434,39.301C578.32,40.95 580.012,42.724 581.767,44.46C714.012,176.661 846.214,308.928 978.525,441.042C994.441,456.936 1005,475.355 1008.381,497.681C1009.103,502.379 1009.283,507.187 1009.57,510.37C1009.01,538.931 999.362,561.937 980.175,581.037L980.172,581.036ZM991.172,433.513C857.368,299.643 723.521,165.774 589.563,32.035C567.895,10.389 541.266,-0.302 510.663,0.006C480.477,0.317 454.529,11.619 433.125,32.979C360.065,105.995 287.027,179.033 213.968,252.071C153.86,312.156 93.775,372.308 33.668,432.371C12.417,453.6 0.716,479.131 0.036,509.119C-0.711,540.819 10.486,568.173 32.922,590.653C117.463,675.282 202.093,759.867 286.699,844.452C335.369,893.122 383.688,942.1 432.797,990.33C467.11,1024.05 507.767,1032.216 552.99,1015.84C567.94,1010.439 580.475,1001.043 591.693,989.847C724.685,856.789 857.721,723.776 990.756,590.762C1012.424,569.073 1023.159,542.751 1023.905,512.236C1023.345,481.7 1012.819,455.181 991.173,433.512L991.172,433.513Z" style="fill:rgb(69,28,21);fill-rule:nonzero;"/>
    </g>
</svg>
