<?xml version="1.0" encoding="UTF-8" standalone="no"?>
<!DOCTYPE svg PUBLIC "-//W3C//DTD SVG 1.1//EN" "http://www.w3.org/Graphics/SVG/1.1/DTD/svg11.dtd">
<svg width="100%" height="100%" viewBox="0 0 60 60" version="1.1" xmlns="http://www.w3.org/2000/svg" xmlns:xlink="http://www.w3.org/1999/xlink" xml:space="preserve" xmlns:serif="http://www.serif.com/" style="fill-rule:evenodd;clip-rule:evenodd;stroke-linejoin:round;stroke-miterlimit:2;">
    <g transform="matrix(0.058594,0,0,0.058594,0.000068,-0.000025)">
        <path d="M532.257,531.357C528.044,523.059 528.834,517.724 535.113,510.897C540.098,505.477 545.848,501.413 553.049,499.482C553.951,499.233 554.673,498.206 555.488,497.547C554.586,496.738 553.839,495.724 552.787,495.22C551.997,494.847 550.877,494.971 549.887,495.096C540.25,496.216 531.424,499.682 522.973,504.47C520.664,501.091 518.231,497.643 515.904,494.108C507.759,481.968 497.156,473.801 481.899,474.394C468.419,474.892 459.441,468.818 453.448,457.314C452.216,454.968 450.772,452.728 449.428,450.421C448.93,450.465 448.395,450.483 447.916,450.545C447.418,453.638 446.535,456.712 446.422,459.832C446.235,465.408 449.011,469.799 452.589,473.882C457.045,479.041 456.74,480.314 451.226,483.761C442.027,489.511 436.188,498.14 431.49,507.668C426.132,518.447 425.212,530.17 424.772,541.937C424.648,545.073 423.278,546.436 420.36,546.548C404.62,547.251 388.879,547.998 373.139,548.546C366.794,548.795 363.128,545.142 363.436,538.931C363.56,535.726 364.799,532.586 365.303,529.381C366.068,524.11 368.838,520.841 374.172,519.831C381.197,518.512 388.222,517.261 395.203,515.767C396.255,515.58 397.045,514.298 397.966,513.483C396.958,512.624 396.099,511.224 394.979,511C389.559,509.967 384.068,509.22 378.47,508.386C378.47,492.624 378.408,476.839 378.492,461.055C378.554,448.893 382.705,438.005 388.964,427.752C395.112,417.807 402.421,409.004 413.53,404.328C427.953,398.248 442.706,393.285 458.292,390.893C462.443,390.258 466.503,388.852 470.454,387.402C477.128,384.969 480.179,380.355 480.223,373.462C480.245,362.968 479.912,352.431 483.079,342.2C483.844,339.568 483.844,336.693 484.311,333.309C482.93,333.869 482.27,333.969 482.096,334.298C475.576,345.977 468.507,357.525 467.409,371.312C467.098,374.735 465.828,376.471 462.779,377.106C455.578,378.531 448.355,379.676 441.221,381.275C433.933,382.899 426.644,384.723 419.531,386.876C414.154,388.525 408.993,390.896 403.659,392.937C398.239,383.871 395.317,374.497 394.855,364.025C394.021,344.794 396.193,326.133 403.11,308.132C409.433,291.711 413.823,274.39 424.931,260.187C433.317,249.408 442.318,239.199 455.907,234.545C457.114,234.172 457.973,232.678 458.956,231.67C463.698,226.754 467.869,221.067 473.313,217.159C479.505,212.703 486.682,209.497 493.686,206.38C502.95,202.273 512.412,198.301 522.862,199.092C532.149,199.752 541.413,201.594 550.699,201.811C568.899,202.184 582.619,212.195 596.537,221.964C599.064,223.787 600.887,226.575 603.057,228.945C572.784,221.898 542.927,222.688 512.983,226.904C512.348,232.262 516.387,231.777 518.864,231.994C524.726,232.616 530.675,232.741 536.558,232.629C561.343,232.193 585.646,234.539 609.64,241.257C616.05,243.055 621.121,245.669 625.161,250.609C627.488,253.397 629.704,256.315 631.571,259.368C642.657,277.348 648.014,297.501 653.348,317.61C654.686,322.57 654.337,327.95 654.773,333.219C646.102,334.8 638.287,336.225 630.449,337.7C625.29,338.646 623.6,337.513 623.841,332.168C624.476,318.206 618.987,307.01 609.022,297.592C604.672,293.528 604.896,290.853 609.458,286.791C614.044,282.771 614.66,275.156 610.578,271.117C609.875,272.237 609.302,273.376 608.58,274.409C602.892,282.751 595.364,288.305 584.98,287.998C571.172,287.562 561.381,294.627 554.07,304.901C545.64,316.734 544.981,330.762 546.892,344.593C548.211,354.186 553.368,361.98 562.545,366.48C565.551,367.949 568.121,368.036 571.282,366.729C575.302,365.036 579.602,363.985 583.861,363.151C595.167,360.954 606.539,359.069 617.845,357.003C631.434,354.501 644.98,351.931 659.49,349.209C654.07,356.937 653.146,364.73 654.904,373.358C656.926,372.082 658.924,370.527 659.297,368.66C662.502,353.359 672.491,343.897 686.563,339.901C701.557,335.663 717.166,333.513 732.577,330.812C738.327,329.804 744.344,330.109 750.161,329.256C763.553,327.283 776.9,325.043 790.226,322.78C798.459,321.399 806.647,319.793 816.57,317.97C813.938,315.842 812.313,314.697 810.926,313.34C727.701,230.16 644.477,146.979 561.318,63.754C544.546,46.982 524.722,39.913 501.1,43.447C486.962,45.513 474.8,51.438 464.811,61.405C330.787,195.298 196.85,329.278 62.891,463.215C56.262,469.844 50.839,477.265 47.458,486.002C38.962,508.021 40.257,529.469 53.669,549.029C60.013,558.228 69.124,565.494 76.281,574.21C81.091,580.072 86.599,579.898 92.987,578.778C104.096,576.824 115.16,574.671 126.356,573.464C142.338,571.728 158.408,570.633 174.434,569.488C178.168,569.177 182.6,568.436 185.63,569.986C197.77,576.22 206.639,585.902 212.084,599.688C213.248,598.089 214.654,597.056 214.803,595.848C216.184,584.762 211.71,575.717 203.321,567.221C210.807,567.221 216.91,567.532 222.991,567.177C236.602,566.43 250.191,565.005 263.802,564.52C276.842,564.084 289.882,564.769 302.923,564.333C323.12,563.63 343.317,562.311 363.492,561.414C373.657,560.978 383.865,560.319 394.051,560.667C425.664,561.675 457.254,563.256 488.866,564.314C497.055,564.625 505.309,563.636 513.519,563.437C520.171,563.313 526.801,563.415 533.387,563.415C536.393,554.633 534.881,546.27 534.009,537.949C533.822,535.69 533.244,533.363 532.229,531.363L532.257,531.357Z" style="fill:rgb(69,28,21);fill-rule:nonzero;"/>
    </g>
    <g transform="matrix(0.058594,0,0,0.058594,0.000068,-0.000025)">
        <path d="M474.304,803.303C468.398,808.418 465.545,815.004 463.459,822.139C461.374,829.406 461.636,836.277 468.991,840.711C472.065,842.553 475.291,844.706 478.65,845.21C484.686,846.131 491.471,847.842 496.278,842.31C502.383,835.241 507.255,827.448 506.947,817.108C505.852,813.113 505.827,808.195 503.437,805.297C495.468,795.682 483.218,795.594 474.305,803.299L474.304,803.303Z" style="fill:rgb(69,28,21);fill-rule:nonzero;"/>
    </g>
    <g transform="matrix(0.058594,0,0,0.058594,0.000068,-0.000025)">
        <path d="M491.816,724.684C493.552,724.662 495.282,724.049 497.043,723.738C497.087,723.24 497.167,722.749 497.23,722.269C492.749,720.446 488.427,717.9 483.773,716.979C478.216,715.859 472.358,715.927 466.649,715.772C453.038,715.399 439.295,714.278 425.772,715.336C411.832,716.413 398.067,719.686 384.237,721.966C379.19,722.843 373.216,719.11 373.436,714.261C373.934,701.528 375.191,688.773 376.355,676.018C376.417,675.01 377.892,673.821 379.012,673.23C389.154,667.853 400.482,667.785 411.459,666.534C421.382,665.37 431.415,665.283 441.381,664.362C449.833,663.597 457.165,660.062 463.883,653.627C461.07,653.627 458.942,653.129 457.165,653.689C438.461,659.526 418.681,655.73 399.779,660.275C393.193,661.856 386.212,661.856 379.407,662.36C373.526,662.733 367.618,663.393 361.756,662.982C350.538,662.167 339.407,660.213 328.189,659.646C321.384,659.273 316.357,656.46 311.922,651.874C311.287,651.214 311.157,649.416 311.611,648.495C313.808,643.84 316.222,639.253 318.659,634.62C322.455,627.353 324.477,619.867 321.422,609.988C319.536,612.558 318.043,613.921 317.383,615.589C309.041,636.445 296.9,653.788 274.333,660.944C264.63,664.018 254.641,666.937 244.564,668.123C232.577,669.529 220.372,669.305 208.254,669.218C195.872,669.156 183.469,668.403 171.504,667.967C223.138,719.601 274.882,771.366 326.757,823.22C327.989,820.189 329.632,816.832 330.777,813.297C337.802,791.431 347.725,770.84 358.57,750.687C360.082,747.918 363.113,745.746 365.88,743.991C374.661,738.39 384.804,736.088 394.771,733.914C407.965,731.058 421.29,728.867 434.594,726.56C438.763,725.838 441.421,729.746 439.666,733.695C437.93,737.578 436.2,741.51 434.159,745.22C427.375,757.536 423.05,770.62 421.602,784.582C421.166,788.621 420.967,792.639 420.967,796.722C421.011,798.128 421.956,799.578 422.479,800.979C423.686,799.971 425.528,799.199 426.014,797.905C428.254,792.13 429.592,786.007 432.137,780.386C436.904,769.827 442.126,759.509 447.395,749.169C451.147,741.793 455.254,734.548 459.337,727.304C459.897,726.252 461.353,724.977 462.455,724.977C472.224,724.728 482.037,724.853 491.85,724.728L491.816,724.684Z" style="fill:rgb(69,28,21);fill-rule:nonzero;"/>
    </g>
    <g transform="matrix(0.058594,0,0,0.058594,0.000068,-0.000025)">
        <path d="M980.09,581.13C915.021,646.068 850.083,711.115 785.057,776.097C717.354,843.779 649.584,911.373 582.012,979.186C559.488,1001.798 532.595,1011.962 500.983,1008.8C480.544,1006.759 462.631,998.416 447.373,984.63C445.531,982.962 443.795,981.207 442.04,979.471C309.245,846.654 176.428,713.859 43.589,581.042C26.224,563.677 16.192,543.019 14.589,518.409C12.833,490.814 21.197,466.6 40.12,446.534C54.873,430.925 70.35,416.063 85.52,400.893C204.331,282.104 323.164,163.315 441.908,44.461C457.297,29.028 475.255,18.798 496.901,15.659C527.46,11.203 554.287,19.349 577.25,40.049C578.874,41.499 580.368,43.036 581.861,44.548C714.107,176.75 846.309,309.018 978.621,441.133C994.537,457.027 1005.053,475.468 1008.412,497.794C1009.134,502.492 1009.289,507.3 1009.576,510.504C1009.016,539.044 999.236,562.006 980.093,581.128L980.09,581.13ZM990.871,433.165C857.154,299.448 723.437,165.687 589.632,32.058C567.964,10.434 541.335,-0.28 510.732,0.006C480.525,0.317 454.598,11.553 433.193,32.936C360.089,105.93 287.051,179.012 213.99,252.051C153.904,312.137 93.84,372.245 33.688,432.309C12.437,453.538 0.758,479.07 0.034,509.079C-0.712,540.802 10.418,568.111 32.898,590.613C117.44,675.265 202.07,759.828 286.677,844.436C335.303,893.106 383.689,942.062 432.753,990.315C467.088,1024.035 507.702,1032.224 552.969,1015.847C568.073,1010.402 580.674,1000.853 592.024,989.503C724.907,856.576 857.812,723.694 990.738,590.767C1012.406,569.099 1023.163,542.799 1023.909,512.24C1023.349,481.528 1012.669,454.986 990.869,433.165L990.871,433.165Z" style="fill:rgb(69,28,21);fill-rule:nonzero;"/>
    </g>
    <g transform="matrix(0.058594,0,0,0.058594,0.000068,-0.000025)">
        <path d="M642.665,632.827C638.695,634.19 634.433,635.64 631.205,638.16C626.046,642.199 619.877,646.415 617.287,652.013C613.883,659.389 611.076,667.885 613.752,676.622C613.814,676.995 613.503,677.499 613.503,677.499C602.9,678.121 592.318,677.499 582.307,679.565C572.363,681.606 561.605,681.494 552.451,686.898L552.429,688.983C554.315,689.356 556.225,690.209 558.117,690.078C566.108,689.58 574.121,688.124 582.09,688.367C593.484,688.678 604.877,689.861 616.205,691.31C620.686,691.87 625.47,693.264 629.157,695.722C638.136,701.696 647.334,706.259 658.443,704.964C661.803,704.591 665.095,703.452 668.497,703.078C676.356,702.201 681.537,697.988 685.467,691.267C692.514,679.303 690.408,666.526 686.475,655.044C680.439,637.437 661.646,626.395 642.657,632.827L642.665,632.827Z" style="fill:rgb(69,28,21);fill-rule:nonzero;"/>
    </g>
    <g transform="matrix(0.058594,0,0,0.058594,0.000068,-0.000025)">
        <path d="M963.783,466.363C933.312,435.431 902.489,404.894 871.799,374.225C870.878,373.304 869.826,372.489 868.463,371.306C868.463,372.557 868.276,373.216 868.507,373.478C872.483,378.046 871.121,385.903 865.545,388.121C848.487,394.905 830.771,399.471 812.506,400.788C800.695,401.69 788.752,401.161 776.854,400.85C773.935,400.788 770.706,399.643 768.182,398.081C759.752,392.966 751.564,387.434 742.606,381.638C742.855,383.505 742.544,385.851 743.508,387.282C746.252,391.451 749.171,395.624 752.75,399.049C756.901,403.044 758.83,406.557 756.11,410.509C753.167,414.747 749.107,418.237 745.309,421.793C739.559,427.126 732.4,429.784 725.31,432.814C716.77,436.504 707.967,438.919 698.922,439.443C686.431,440.165 673.851,440.19 661.36,439.381C652.162,438.821 642.81,437.315 634.006,434.639C623.973,431.608 614.446,426.801 605.533,423.157C612.953,437.405 627.662,443.266 643.248,446.23C660.02,449.46 677.232,450.312 694.399,449.547C703.334,449.174 712.269,448.987 721.226,448.601C730.381,448.165 738.437,449.435 745.089,457.207C755.605,469.501 763.683,483.09 769.237,498.128C774.57,512.551 778.479,527.545 786.69,540.783C787.437,541.99 787.785,543.502 788.246,544.89C790.244,550.97 784.842,557.952 778.477,557.315C764.866,555.934 751.321,555.647 737.798,558.236C734.836,558.796 730.465,558.796 728.621,557.054C726.119,554.683 725.373,550.446 723.991,547C720.239,537.648 716.658,528.23 712.773,518.922C711.348,515.499 709.5,512.204 707.483,509.065C706.251,507.136 704.322,505.617 702.698,503.95C702.138,504.261 701.578,504.61 700.987,504.939C702.499,511.591 702.854,518.814 705.704,524.829C710.751,535.542 711.585,546.475 710.533,558.176C697.822,562.563 682.52,559.184 671.39,570.382C675.142,571.347 678.92,571.944 682.696,571.851C697.098,571.478 711.521,570.009 725.856,570.532C744.802,571.21 764.055,570.034 782.606,575.342C789.235,577.252 795.953,578.285 802.166,582.411C807.916,586.251 810.289,591.478 813.186,596.901C824.58,618.02 832.615,640.192 835.754,664.078C836.563,670.027 837.465,675.955 838.411,682.606C839.923,681.243 841.025,680.391 841.989,679.376C882.953,638.433 924.006,597.557 964.773,556.394C969.123,552.007 972.545,546.318 975.113,540.654C980.801,527.987 982.709,514.683 980.359,500.721C978.187,487.527 973.048,475.76 963.784,466.364L963.783,466.363Z" style="fill:rgb(69,28,21);fill-rule:nonzero;"/>
    </g>
</svg>
