<?xml version="1.0" encoding="UTF-8" standalone="no"?>
<!DOCTYPE svg PUBLIC "-//W3C//DTD SVG 1.1//EN" "http://www.w3.org/Graphics/SVG/1.1/DTD/svg11.dtd">
<svg width="100%" height="100%" viewBox="0 0 60 61" version="1.1" xmlns="http://www.w3.org/2000/svg" xmlns:xlink="http://www.w3.org/1999/xlink" xml:space="preserve" xmlns:serif="http://www.serif.com/" style="fill-rule:evenodd;clip-rule:evenodd;stroke-linejoin:round;stroke-miterlimit:2;">
    <g transform="matrix(0.058594,0,0,0.058594,-0.00007,0.000026)">
        <path d="M781.16,605.24C781.284,606.864 781.182,608.488 781.182,611.058C770.25,611.618 759.471,612.751 748.736,612.483C733.368,612.11 719.779,625.808 719.604,638.871C719.48,648.684 718.328,658.453 717.762,668.266C717.326,676.235 716.399,678.167 708.805,680.033C696.49,683.082 684.086,685.957 671.573,688.002C656.711,690.398 641.739,692.395 626.745,693.559C615.264,694.505 603.672,693.932 592.103,693.995C584.046,694.039 576.011,694.017 567.691,694.017C567.567,691.733 567.38,690.482 567.38,689.232C567.007,671.099 566.478,652.966 566.391,634.854C566.347,621.836 567.312,608.84 567.138,595.866C566.889,578.962 566.105,562.058 565.252,545.154C564.879,537.8 560.162,534.156 551.488,533.694C548.345,533.57 545.187,533.716 542.07,533.672C522.114,533.361 502.159,533.548 482.226,532.533C462.775,531.568 443.281,529.963 423.962,527.573C402.931,524.984 382.075,521.206 361.155,517.782C356.37,516.973 351.693,515.43 346.512,514.135C356.26,483.467 366.051,452.578 375.666,422.415C386.687,423.249 396.5,424.5 406.313,424.655C440.911,425.215 475.553,425.844 510.217,425.601C529.557,425.477 548.898,423.734 568.239,422.701C572.346,422.452 576.405,421.998 580.511,421.867C585.496,421.618 585.956,417.368 585.931,414.469C585.682,397.565 585.271,380.639 584.176,363.757C583.498,353.352 582.44,342.792 579.982,332.693C576.404,317.809 573.023,302.486 560.51,291.685C551.004,283.453 540.269,277.306 528.327,273.354C522.465,271.425 516.56,269.689 510.457,267.803C512.455,263.547 516.58,262.072 520.643,261.525C531.158,260.056 541.696,258.669 552.299,258.19C563.166,257.692 574.186,257.381 584.921,258.688C594.01,259.808 603.186,262.484 611.638,266.064C636.27,276.448 658.464,290.805 678.002,309.224C679.209,310.363 679.825,312.211 680.591,313.53C674.246,315.31 668.736,316.716 663.314,318.403C647.464,323.3 638.682,335.548 631.723,349.467C623.161,366.568 621.339,384.943 622.876,403.625C623.797,414.887 629.374,424.459 636.575,433.064C638.79,435.721 641.161,438.248 643.293,440.924C651.261,450.978 662.502,454.03 674.444,455.347C677.605,455.72 678.744,456.312 679.341,459.759C681.27,471.372 684.058,482.854 686.102,494.445C688.629,508.78 690.757,523.204 692.995,537.626C694.003,543.905 694.993,550.227 695.739,556.572C696.112,559.559 697.805,560.567 700.35,560.393C712.16,559.646 724.037,559.385 735.694,557.761C747.439,556.162 758.986,553 770.665,550.868C771.984,550.619 774.791,552.362 775.102,553.631C776.483,558.964 777.473,564.454 778.045,569.942C779.252,581.709 780.173,593.476 781.163,605.243L781.16,605.24ZM715.852,700.627C714.844,710.243 713.811,719.858 712.89,729.452C712.454,733.839 712.392,738.277 711.726,742.668C711.539,743.763 709.971,745.257 708.783,745.543C699.585,747.653 690.386,749.781 681.122,751.38C669.882,753.334 658.555,754.784 647.292,756.383C646.856,756.445 646.371,756.259 644.573,755.947C644.573,740.667 644.551,725.213 644.697,709.779C644.741,708.858 646.253,707.296 647.311,707.122C664.127,704.004 680.987,701.285 697.759,697.946C703.926,696.739 709.833,694.169 716.815,691.885C716.504,695.115 716.155,697.878 715.869,700.644L715.852,700.627ZM624.435,760.247C612.163,760.309 599.935,760.371 587.707,760.558C577.674,760.682 567.598,761.218 557.566,761.18C539.454,761.118 521.321,760.807 503.254,760.52C499.458,760.458 495.724,759.842 491.926,759.73C488.566,759.668 487.757,757.602 487.775,754.857C487.819,751.08 488.086,747.305 488.086,743.486C488.21,733.146 488.833,722.762 488.148,712.422C487.358,699.755 486.767,686.846 483.736,674.618C479.697,658.307 470.367,645.091 452.54,641.469C435.373,637.934 419.545,639.82 407.8,657.187C398.25,671.325 393.816,686.252 393.838,703.113C393.86,712.114 392.432,721.115 392.145,730.137C391.896,736.173 392.581,742.255 392.892,748.27C393.079,752.309 391.243,753.759 387.204,753.628C372.605,753.13 359.016,748.27 345.668,743.156C337.677,740.082 330.213,735.67 322.815,731.301C320.886,730.137 319.237,726.845 319.193,724.518C318.944,715.056 319.149,705.551 319.815,696.089C320.692,683.532 322.161,670.975 323.325,658.417C323.823,652.686 324.576,646.936 324.644,641.206C324.768,614.05 328.795,587.443 335.05,561.078C337.352,551.264 339.506,541.386 341.198,531.463C341.901,527.399 344.011,527.269 346.992,527.885C361.218,530.891 375.333,534.493 389.669,536.797C405.343,539.367 421.259,540.817 437.065,542.615C449.293,543.996 461.543,545.185 473.814,546.436C474.604,546.498 475.463,546.56 476.253,546.56C497.021,546.622 517.789,546.622 538.534,546.684L550.587,546.684C551.222,560.997 552.211,574.937 552.385,588.9C552.696,609.997 552.509,631.116 552.385,652.234C552.261,667.733 551.825,683.21 551.595,698.709C551.533,705.229 553.306,707.534 559.827,707.732C580.572,708.41 601.296,708.697 622.042,709.113L624.394,709.113L624.435,760.247ZM298.145,485.218C295.905,490.862 295.755,497.314 293.932,503.132C290.484,514.218 290.771,525.348 291.91,536.698C292.545,542.955 291.786,542.955 285.718,542.031C276.454,540.606 267.124,539.729 257.837,538.627C252,537.924 246.114,536.455 240.296,536.76C231.976,537.196 223.853,536.636 215.577,535.883C203.13,534.763 190.507,535.161 177.972,534.875C177.35,534.875 176.721,534.502 175.645,534.215C184.207,484.293 162.517,454.613 113.518,443.197C114.75,442.45 115.385,441.703 116.001,441.728C124.409,441.852 132.774,442.101 141.16,442.288C141.471,442.288 141.795,442.475 142.125,442.537C149.589,443.24 157.141,443.458 164.495,444.734C174.33,446.402 179.555,439.687 185.943,434.504C194.066,427.918 203.154,422.869 214.482,419.334C210.443,424.493 207.281,428.642 204.055,432.748C195.734,443.219 195.339,454.92 198.809,467.148C201.858,477.861 209.873,485.611 215.472,494.787C221.729,505.105 231.344,509.649 242.957,509.934C254.153,510.183 264.954,497.333 263.176,486.357C261.309,474.59 254.394,467.016 243.681,462.45C240.433,461.069 237.139,459.662 233.714,458.194C240.651,452.88 247.434,454.547 254.657,456.875C269.366,461.685 283.723,462.65 298.432,455.12C308.925,449.743 320.583,446.558 331.844,442.695C334.059,441.948 336.804,442.571 339.287,442.571C339.536,443.069 339.847,443.604 340.096,444.127C338.627,445.533 337.377,447.55 335.615,448.278C318.008,455.479 305.144,467.575 298.141,485.247L298.145,485.218ZM199.506,328.414C206.202,328.414 212.963,327.916 219.593,328.538C229.45,329.527 239.615,330.162 248.988,333.081C260.36,336.572 270.151,333.081 280.293,329.528C282.403,328.781 284.487,327.506 286.13,325.968C294.56,318.24 304.768,313.915 315.328,310.337C320.574,308.582 325.953,308.868 330.717,312.16C324.022,316.441 316.865,320.063 310.828,325.025C296.778,336.594 289.226,351.127 292.256,370.007C293.109,375.452 296.606,378.218 300.796,380.588C309.313,385.373 325.691,385.156 331.377,373.321C334.078,367.658 332.846,358.612 328.147,354.419C324.768,351.388 321.319,348.426 317.895,345.418C318.331,344.603 318.816,343.769 319.258,342.935C324.616,344.142 330.191,344.758 335.284,346.669C343.868,349.805 351.442,350.795 359.805,345.045C364.833,341.622 371.813,341.025 377.894,339.183C378.516,339.861 379.076,340.546 379.649,341.205C378.417,342.916 377.434,344.982 375.828,346.208C358.419,359.27 350.977,376.371 354.248,398.039C354.684,400.958 354.97,403.857 355.343,406.886C344.586,408.815 333.324,410.726 322.128,412.922C312.71,414.745 303.402,417.446 293.918,418.74C284.829,419.947 275.565,419.904 266.411,420.209C262.764,420.333 259.144,420.085 255.522,419.773C252.205,419.524 248.783,419.711 249.921,414.266C250.755,410.227 250.481,405.902 250.419,401.709C250.17,382.983 244.227,365.794 233.757,350.646C227.92,342.194 218.653,336.816 208.028,334.532C204.91,333.872 202.06,331.856 199.093,330.468C199.217,329.765 199.342,329.105 199.466,328.402L199.506,328.414ZM399.986,349.919C404.641,337.866 410.458,326.561 419.81,317.012C431.972,304.586 444.837,293.39 460.797,286.167C474.671,279.91 488.897,275.783 504.176,281.27C511.859,284.039 519.675,286.41 527.314,289.239C539.718,293.85 547.182,303.882 554.031,314.485C562.022,326.844 566.983,340.587 569.508,354.945C572.339,370.729 576.379,386.447 575.084,402.736C574.96,404.671 574.524,406.576 574.163,408.511C573.503,412.176 571.045,413.8 567.555,413.825C563.995,413.847 561.761,411.915 560.859,408.467C558.332,398.676 556.447,388.643 553.044,379.16C550.387,371.74 546.809,364.232 542.001,358.085C531.617,344.825 519.477,332.993 503.298,327C494.868,323.857 485.758,321.773 476.801,321.076C468.218,320.416 459.26,321.387 450.765,323.049C440.205,325.09 432.302,332.225 425.738,340.326C416.606,351.654 412.324,365.067 410.744,379.468C410.066,385.79 408.989,392.047 407.782,398.304C406.992,402.368 404.664,405.263 400.011,404.89C396.563,404.579 394.037,400.434 394.305,396.021C394.554,392.069 394.678,388.118 394.94,382.718C394.175,372.4 395.817,360.853 399.987,349.92L399.986,349.919ZM706.297,337.296C716.944,346.56 720.655,358.525 723.75,371.477C728.952,392.903 722.412,411.541 711.149,428.95C704.673,438.938 694.223,442.759 682.413,442.671C661.184,442.609 640.79,425.13 636.641,403.419C634.314,391.235 636.33,379.358 639.211,367.526C640.001,364.383 640.86,361.247 641.582,358.064C644.569,344.892 652.427,335.254 664.633,330.074C679.715,323.686 693.479,326.191 706.3,337.296L706.297,337.296ZM732.094,406.294C732.654,404.757 733.805,403.463 734.683,402.081C736.021,403.506 737.931,404.67 738.547,406.362C742.567,417.009 746.626,427.634 750.028,438.523C758.634,465.811 766.34,493.318 771.191,521.593C771.378,522.539 771.147,523.591 771.315,524.536C772.696,534.064 772.852,534.656 763.587,536.742C745.893,540.718 728.177,545.26 709.494,543.284C706.308,524.251 703.15,505.393 700.054,486.491C698.386,476.173 696.806,465.833 695.424,455.449C695.3,454.354 696.389,452.356 697.403,451.939C713.538,445.309 723.374,433.125 728.818,417.012C730,413.459 730.884,409.811 732.11,406.299L732.094,406.294ZM867.299,369.749C866.16,368.629 864.972,367.596 863.565,366.258C862.289,368.187 861.238,369.818 860.142,371.417C852.744,382.349 851.185,394.753 852.7,407.31C853.621,414.95 856.303,422.48 859.154,429.702C860.274,432.558 860.56,433.654 857.86,434.948C847.981,439.665 838.124,444.498 828.267,449.261C827.831,449.448 827.302,449.448 826.817,449.572C821.503,450.493 816.236,451.613 810.901,452.273C801.857,453.393 792.746,454.731 783.197,450.163C786.645,419.736 773.691,397.014 747.874,380.989C751.297,377.846 753.624,377.106 758.806,378.948C765.831,381.45 772.812,384.262 779.618,387.4C788.948,391.725 798.52,394.864 808.837,393.986C812.216,393.675 817.048,392.71 818.431,390.408C822.407,383.756 824.973,376.007 819.725,368.828C816.582,364.547 812.371,360.881 808.09,357.653C805.414,355.631 804.381,353.876 805.588,350.277C810.156,351.658 814.677,352.847 819.023,354.446C821.923,355.523 824.487,357.433 827.343,358.553C836.344,362.019 844.994,361.142 854.302,355.983C852.236,354.247 850.724,353.195 849.473,351.919C753.297,255.764 657.142,159.632 560.988,63.477C544.391,46.859 524.59,40.009 501.166,43.456C487.006,45.541 474.844,51.425 464.856,61.392C331.183,194.933 197.621,328.583 63.97,462.168C52.84,473.276 45.574,486.053 43.268,501.837C40.741,518.872 44.189,534.372 53.213,548.729C54.09,550.179 56.418,551.448 58.129,551.473C92.069,551.971 126.052,552.195 160.014,552.593C171.188,552.717 182.384,553.215 193.558,553.601C197.335,553.725 201.088,554.323 204.842,554.678C217.838,555.954 230.878,557.248 243.896,558.518C253.006,559.395 262.183,559.924 271.228,561.262C282.622,562.955 293.949,565.431 305.343,567.367C310.875,568.288 313.993,571.667 313.488,577.18C312.629,586.664 311.559,596.104 310.725,605.588C310.09,612.283 309.891,619.067 309.144,625.763C307.146,643.808 304.906,661.876 302.909,679.921C302.094,687.275 300.053,689.844 294.742,689.12C275.621,686.575 256.5,683.874 237.335,681.282C224.646,679.589 211.979,677.816 199.291,676.385C192.463,675.595 185.526,675.42 177.93,674.935C183.948,682.948 190.092,688.656 199.4,688.151C216.106,687.249 232.176,691.754 248.531,693.615C263.59,695.395 278.519,698.071 293.535,700.048C301.35,701.056 303.37,703.695 302.228,711.683C301.606,715.896 301.176,720.442 302.166,724.482C303.33,729.068 305.109,734.361 308.423,737.368C315.273,743.56 322.759,749.135 332.089,751.813C352.11,757.607 372.109,763.404 392.767,766.587C413.425,769.748 433.819,774.402 454.872,774.907C479.745,775.529 504.552,777.738 529.381,778.18C563.409,778.74 597.37,778.304 631.397,778.304C632.057,778.304 632.716,778.348 633.351,778.26C650.738,776.325 668.168,774.57 685.533,772.286C694.424,771.122 703.732,770.4 711.811,766.997C724.456,761.639 737.145,759.269 750.58,760.521C759.822,761.355 766.167,757.204 771.457,748.974C757.649,748.209 744.323,747.48 731.722,746.777C731.722,736.481 731.678,726.953 731.722,717.426C731.744,710.115 731.411,702.761 731.971,695.495C732.892,683.75 734.323,672.05 735.68,660.326C736.626,651.764 737.435,643.137 741.716,635.3C743.869,631.305 746.676,628.319 751.31,627.88C760.442,627.046 769.575,626.144 778.751,625.926C787.313,625.677 795.743,624.103 804.59,626.424C813.02,628.639 822.196,627.787 830.955,628.838C848.1,630.948 865.18,633.493 882.303,635.797C883.311,635.921 884.805,636.419 885.334,635.859C891.544,629.885 897.628,623.763 904.631,616.76C880.812,613.294 858.42,610.065 836.467,606.859C835.969,595.904 835.173,584.028 834.886,572.107C834.513,556.104 830.91,540.912 822.373,527.367C812.625,511.846 797.105,504.536 780.223,499.091C782.065,498.431 784.106,497.181 786.216,497.093C792.78,496.782 799.344,496.782 805.886,496.782C812.648,496.72 819.453,497.342 826.105,496.533C835.786,495.456 842.416,488.674 849.595,482.834C856.686,477.103 864.128,471.572 872.097,467.247C881.91,461.889 892.887,461.777 903.973,463.314C901.758,465.355 899.387,466.979 896.904,468.361C878.222,478.745 866.191,494.002 861.998,515.231C860.903,520.919 861.189,526.163 863.952,531.411C871.745,546.075 887.091,553.781 903.182,550.268C906.275,549.608 909.483,547.325 911.59,544.91C914.465,541.618 916.463,537.534 918.659,533.692C921.621,528.49 921.708,522.87 918.348,518.259C915.274,514.003 911.125,510.246 906.778,507.173C902.957,504.472 898.238,503.004 894.002,501.05C894.251,500.241 894.251,499.824 894.5,499.644C894.811,499.333 895.29,499.022 895.732,498.941C903.679,497.665 911.494,496.414 919.134,500.696C925.786,504.448 932.437,508.885 939.66,510.729C953.622,514.289 967.496,511.165 981.327,507.306C979.79,491.192 974.368,477.033 963.15,465.705C931.34,433.566 899.244,401.69 867.303,369.726L867.299,369.749Z" style="fill:rgb(69,28,21);fill-rule:nonzero;"/>
    </g>
    <g transform="matrix(0.058594,0,0,0.058594,-0.00007,0.000026)">
        <path d="M980.2,580.971C940.684,620.355 901.301,659.827 861.851,699.276C768.836,792.27 675.688,885.175 582.871,978.365C560.215,1001.065 533.52,1011.844 501.644,1008.814C480.81,1006.86 462.633,998.474 447.156,984.38C445.183,982.625 443.316,980.758 441.468,978.873C309.003,846.408 176.56,713.965 44.051,581.544C28.903,566.397 18.871,548.703 15.622,527.408C10.899,496.476 18.914,469.145 40.32,446.292C54.984,430.661 70.549,415.865 85.719,400.695C204.529,281.863 323.34,163.097 442.105,44.22C457.494,28.831 475.54,18.711 497.164,15.593C527.174,11.293 553.628,19.215 576.371,39.236C578.107,40.773 579.731,42.422 581.374,44.065C713.839,176.486 846.26,308.973 978.813,441.328C994.597,457.112 1005.003,475.421 1008.34,497.572C1009.062,502.314 1009.286,507.099 1009.572,510.305C1009.012,538.822 999.386,561.873 980.199,580.972L980.2,580.971ZM991.153,433.514C857.349,299.644 723.522,165.752 589.565,31.992C567.897,10.368 541.246,-0.301 510.666,0.006C480.436,0.317 454.532,11.575 433.128,32.958C360.024,105.952 286.986,179.034 213.948,252.072C153.841,312.158 93.777,372.265 33.626,432.329C12.375,453.558 0.718,479.111 0.038,509.121C-0.727,540.821 10.443,568.131 32.879,590.633C117.465,675.262 202.072,759.847 286.679,844.455C335.327,893.081 383.689,942.08 432.755,990.311C467.112,1024.053 507.725,1032.22 552.992,1015.842C567.92,1010.422 580.456,1001.024 591.674,989.806C724.688,856.77 857.723,723.757 990.737,590.72C1012.383,569.052 1023.162,542.752 1023.908,512.238C1023.286,481.657 1012.822,455.182 991.154,433.514L991.153,433.514Z" style="fill:rgb(69,28,21);fill-rule:nonzero;"/>
    </g>
</svg>
