<?xml version="1.0" encoding="UTF-8" standalone="no"?>
<!DOCTYPE svg PUBLIC "-//W3C//DTD SVG 1.1//EN" "http://www.w3.org/Graphics/SVG/1.1/DTD/svg11.dtd">
<svg width="100%" height="100%" viewBox="0 0 61 60" version="1.1" xmlns="http://www.w3.org/2000/svg" xmlns:xlink="http://www.w3.org/1999/xlink" xml:space="preserve" xmlns:serif="http://www.serif.com/" style="fill-rule:evenodd;clip-rule:evenodd;stroke-linejoin:round;stroke-miterlimit:2;">
    <g transform="matrix(0.058594,0,0,0.058594,-0.00001,-0)">
        <path d="M449.437,666.057C448.939,666.76 445.485,665.397 443.462,664.738C442.609,664.427 441.707,663.661 441.203,662.871C432.596,648.445 417.951,647.018 403.482,645.943C399.374,645.632 395.072,648.159 390.835,649.173C386.665,650.163 382.272,651.787 378.759,645.856C383.215,636.964 392.021,634.153 400.847,633.144C416.832,631.302 430.598,637.974 442.938,647.327C446.647,650.14 449.087,654.946 451.193,659.315C452.008,660.983 450.757,664.275 449.438,666.055L449.437,666.057ZM367.212,671.128C360.976,682.765 354.587,694.292 348,705.753C346.923,707.664 345.125,709.419 343.214,710.539C340.382,712.188 337.967,710.352 338.272,706.014C339.262,703.531 340.401,699.933 342.093,696.638C346.593,687.745 351.051,678.853 356.057,670.291C358.914,665.393 362.885,664.316 366.179,666.955C367.1,667.683 367.735,670.16 367.212,671.125L367.212,671.128ZM456.399,732.317C456.648,725.598 455.901,718.88 455.609,712.161C455.36,704.652 455.049,697.121 455.049,689.634C455.049,688.028 455.883,685.75 457.047,685.091C458.211,684.432 461.217,684.842 461.858,685.794C464.341,689.659 467.478,693.698 468.115,698.023C471.233,718.728 471.432,739.565 469.279,760.401C468.968,763.364 467.984,766.264 467.194,769.622C475.823,768.527 483.091,766.547 485.659,757.744C486.561,754.626 487.109,751.311 487.066,748.105C487.022,740.399 485.684,732.604 486.406,725.007C487.501,713.546 485.784,702.502 483.375,691.502C478.041,667.087 467.369,645.108 452.79,624.799C446.313,615.709 437.575,610.813 427.43,608.552C421.548,607.233 414.806,607.5 408.943,608.988C400.49,611.098 391.949,614.06 384.396,618.341C374.603,623.806 365.052,630.154 356.731,637.597C350.1,643.479 345.511,651.649 339.957,658.763C320.24,684.144 306.913,712.709 298.767,743.668C297.143,749.879 292.224,757.764 300.808,763.275C306.055,766.636 311.413,771.509 317.122,772.189C336.334,774.448 355.721,775.637 375.086,776.228C393.112,776.726 411.226,777.653 429.208,774.628C437.2,773.265 445.302,772.562 454.062,771.51C454.896,758.095 455.904,745.229 456.415,732.318L456.399,732.317Z" style="fill:rgb(69,28,21);fill-rule:nonzero;"/>
    </g>
    <g transform="matrix(0.058594,0,0,0.058594,-0.00001,-0)">
        <path d="M468.843,879.649C460.675,878.33 454.242,884.609 450.839,895.853C460.785,901.89 471.5,900.596 482.698,898.928C480.308,879.541 477.582,881.056 468.844,879.65L468.843,879.649Z" style="fill:rgb(69,28,21);fill-rule:nonzero;"/>
    </g>
    <g transform="matrix(0.058594,0,0,0.058594,-0.00001,-0)">
        <path d="M493.055,861.233C486.6,855.986 479.903,851.287 470.835,852.758C468.594,853.131 466.335,853.418 464.05,853.766C449.954,855.745 440.513,864.92 438.844,878.971C438.471,881.716 440.139,884.66 440.867,887.512C449.21,870.716 454.085,870.057 472.309,870.803C484.824,871.301 490.554,878.861 494.902,897.875C497.777,896.91 501.445,896.798 503.201,894.931C510.622,886.983 509.176,874.666 500.612,867.596C498.085,865.486 495.627,863.314 493.059,861.228L493.055,861.233Z" style="fill:rgb(69,28,21);fill-rule:nonzero;"/>
    </g>
    <g transform="matrix(0.058594,0,0,0.058594,-0.00001,-0)">
        <path d="M830.952,564.955C828.624,562.957 826.695,561.463 824.89,559.795C817.842,553.12 811.497,545.48 803.68,539.881C789.497,529.759 773.095,527.454 755.705,527.629C732.519,527.816 712.341,535.621 693.481,547.982C690.406,549.98 688.104,553.185 685.62,555.974C684.998,556.677 684.525,558.233 684.917,558.918C687.419,563.791 690.189,568.534 692.777,573.211C705.007,564.956 715.48,554.285 731.683,560.85C728.982,566.669 725.665,570.994 719.673,573.497C714.426,575.669 709.749,579.204 704.984,582.411C702.196,584.278 701.187,586.45 703.428,590.14C709.135,599.515 714.055,609.417 715.987,620.374C718.75,636.007 721.781,651.618 723.847,667.338C726.019,683.586 727.208,699.943 728.789,716.257C728.913,717.682 728.976,719.132 729.1,721.068C734.477,721.771 739.639,723.022 744.733,722.935C762.65,722.624 780.565,721.796 798.46,721.006C799.755,720.962 801.292,720.24 802.281,719.338C805.903,716.021 809.395,712.51 812.864,709.128C811.899,707.435 810.692,706.122 810.406,704.647C808.869,696.501 806.896,688.334 806.323,680.078C805.601,670.044 806.51,659.945 806.074,649.888C805.24,631.423 809.323,613.902 814.944,596.578C818.106,586.895 817.975,586.017 809.76,579.759C807.849,578.29 805.459,577.388 803.173,576.51C797.727,574.4 791.932,572.931 786.772,570.274C781.724,567.685 774.762,566.807 773.752,558.528C791.361,562.505 810.244,561.316 824.647,575.346C826.8,571.792 828.861,568.474 830.992,564.961L830.952,564.955Z" style="fill:rgb(69,28,21);fill-rule:nonzero;"/>
    </g>
    <g transform="matrix(0.058594,0,0,0.058594,-0.00001,-0)">
        <path d="M874.556,544.522C868.65,549.134 862.436,553.875 857.869,559.716C850.952,568.564 845.244,578.401 839.162,587.908C830.029,602.114 827.218,618.273 826.12,634.631C825.218,648.068 825.747,661.659 825.996,675.184C826.12,680.978 827.073,686.777 827.751,693.759C835.392,686.14 842.22,679.553 848.741,672.637C849.731,671.629 849.401,669.301 849.463,667.565C849.712,655.621 848.903,643.567 850.384,631.798C851.722,621.237 855.718,611.05 858.311,600.642C863.446,580.2 875.459,566.214 895.68,559.408C902.992,556.95 909.249,558.045 915.441,563.622C911.557,565.688 908.064,567.686 904.463,569.441C888.149,577.345 875.195,587.775 870.518,606.811C867.643,618.558 864.261,630.129 863.58,642.271C863.269,647.231 863.536,652.217 863.536,657.201L864.787,657.879C865.882,656.454 866.828,654.892 868.079,653.641C899.323,622.331 930.589,591.109 961.811,559.778C965.415,556.156 968.508,551.961 972.877,546.824C960.252,541.664 949.032,535.627 937.045,532.465C914.672,526.583 893.264,529.919 874.535,544.519L874.556,544.522Z" style="fill:rgb(69,28,21);fill-rule:nonzero;"/>
    </g>
    <g transform="matrix(0.058594,0,0,0.058594,-0.00001,-0)">
        <path d="M634.965,781.893C623.921,773.549 612.636,768.17 598.364,769.422C583.478,770.76 570.655,776.865 558.733,784.945C553.947,788.175 549.225,793.113 547.096,798.338C543.256,807.779 541.19,817.945 538.797,827.913C537.478,833.378 539.612,836.827 544.286,839.484C548.437,830.899 551.971,821.941 556.889,813.839C561.806,805.803 566.945,797.306 577.989,796.252C578.667,796.208 579.501,795.592 579.943,795.02C584.511,789.138 591.909,787.379 599.308,790.981C597.466,792.823 595.947,795.68 593.974,796.116C583.677,798.269 575.531,803.954 569.624,812.1C561.83,822.837 556.604,834.891 556.033,849.228C582.952,852.937 609.76,852.85 635.647,850.043C634.595,844.554 633.674,839.943 632.772,835.289C631.216,827.494 630.905,819.37 625.197,812.827C622.191,809.36 620.081,805.121 617.578,801.212C617.827,800.714 618.076,800.204 618.281,799.718C620.453,800.091 622.912,799.905 624.758,800.901C643.421,810.562 645.924,828.017 646.736,846.328C653.344,845.469 655.804,840.49 657.648,834.362C659.665,827.665 657.088,821.759 655.476,815.633C652.009,802.393 646.518,790.603 634.969,781.886L634.965,781.893Z" style="fill:rgb(69,28,21);fill-rule:nonzero;"/>
    </g>
    <g transform="matrix(0.058594,0,0,0.058594,-0.00001,-0)">
        <path d="M663.668,656.19C661.913,656.85 658.708,656.003 657.235,654.609C654.976,652.499 652.797,649.58 652.119,646.661C647.221,625.232 637.54,606.503 621.973,590.892C618.481,587.444 614.859,584.086 611.675,580.375C610.119,578.551 609.459,575.919 608.426,573.678C609.086,572.956 609.764,572.228 610.449,571.506C613.723,572.844 617.387,573.591 620.219,575.545C630.846,582.966 639.475,591.946 644.942,604.176C649.554,614.452 656.623,623.563 661.716,633.619C664.305,638.735 665.208,644.795 666.216,650.525C666.527,652.324 665.077,655.66 663.67,656.189L663.668,656.19ZM676.801,605.12C666.306,576.16 649.971,551.019 625.818,531.501C605.113,514.77 581.554,505.943 554.614,507.063C548.027,507.374 541.287,506.316 534.853,507.436C516.761,510.598 503.543,521.356 493.795,535.54C501.48,533.281 509.67,530.337 518.123,528.558C527.696,526.535 537.51,525.44 547.171,529.056C551.409,530.637 555.91,531.514 560.191,533.077C567.634,535.778 575.099,538.498 582.235,541.904C584.32,542.912 587.021,547.039 586.405,548.469C584.756,552.49 580.611,550.666 577.315,550.224C576.879,550.18 576.413,549.851 575.952,549.664C561.988,544.218 548.265,538.708 532.523,540.486C520.447,541.849 508.942,544.177 498.71,550.673C493.333,554.077 488.566,558.468 483.67,562.552C482.575,563.473 481.473,564.923 481.212,566.286C476.974,590.394 478.642,613.448 493.595,634.109C496.47,638.061 499.389,642.277 501.016,646.844C506.922,663.289 513.158,679.668 517.637,696.553C521.458,711.022 523.214,726.084 525.497,740.971C526.057,744.506 527.383,745.166 530.526,745.166C578.522,745.104 626.563,745.21 674.581,744.917C679.392,744.895 684.681,743.249 688.875,740.853C693.817,738.083 697.657,733.87 697.24,727.042C696.742,719.05 696.493,710.926 697.284,703C699.17,683.437 693.375,664.949 689.467,646.331C686.523,632.345 681.673,618.666 676.798,605.163L676.801,605.12Z" style="fill:rgb(69,28,21);fill-rule:nonzero;"/>
    </g>
    <g transform="matrix(0.058594,0,0,0.058594,-0.00001,-0)">
        <path d="M980.033,581.495C902.834,658.562 825.702,735.76 748.57,812.915C693.152,868.333 637.581,923.641 582.295,979.234C559.79,1001.849 532.959,1012.146 501.276,1009.051C480.681,1007.053 462.655,998.666 447.285,984.701C445.088,982.728 442.984,980.618 440.896,978.508C308.763,846.375 176.652,714.242 44.475,582.153C29.062,566.762 18.764,548.846 15.558,527.197C11.058,496.656 18.938,469.518 39.995,446.903C54.728,431.094 70.426,416.208 85.73,400.927C204.536,282.121 323.363,163.338 442.102,44.466C457.515,29.031 475.52,18.887 497.19,15.769C527.358,11.443 553.947,19.435 576.76,39.702C578.602,41.351 580.339,43.15 582.094,44.88C714.205,176.969 846.316,309.124 978.537,441.125C994.433,457.021 1005.104,475.377 1008.441,497.706C1009.169,502.579 1009.406,507.542 1009.648,510.639C1009.026,539.49 999.175,562.368 980.029,581.492L980.033,581.495ZM991.162,433.659C857.448,299.682 723.558,165.902 589.603,32.122C568.305,10.89 542.155,0.636 511.921,0C481.402,0.56 454.944,11.373 433.142,33.176C360.181,106.093 287.242,179.032 214.282,251.949C154.056,312.175 93.896,372.401 33.626,432.583C12.35,453.837 0.736,479.394 0.033,509.386C-0.689,541.091 10.506,568.427 32.989,590.888C92.666,650.697 152.475,710.418 212.24,770.183C285.508,843.473 358.842,916.741 432.067,990.075C453.979,1011.965 480.217,1023.822 511.219,1023.997C542.77,1024.184 569.513,1012.317 591.821,990.009C724.81,856.932 857.909,723.921 990.898,590.866C1034.899,546.844 1035.25,477.835 991.147,433.659L991.162,433.659Z" style="fill:rgb(69,28,21);fill-rule:nonzero;"/>
    </g>
    <g transform="matrix(0.058594,0,0,0.058594,-0.00001,-0)">
        <path d="M283.015,536.253C278.994,534.629 274.847,533.396 270.808,531.772C270.061,531.461 269.619,530.365 268.48,528.872C275.045,525.598 281.522,526.214 287.318,527.422C308.725,531.922 325.522,543.955 338.63,561.235C342.427,566.177 342.844,572.191 339.993,574.168C337.161,576.097 331.232,573.795 327.939,568.878C316.983,552.433 300.692,543.343 283.017,536.251L283.015,536.253ZM346.295,581.984C347.216,584.841 347.702,588.152 347.26,591.074C346.949,592.96 344.646,595.86 343.177,595.885C341.422,595.907 338.895,593.713 338.017,591.871C336.766,589.344 336.741,586.226 335.932,581.991C336.834,580.385 337.687,576.414 339.623,575.798C343.93,574.479 345.287,578.873 346.298,581.991L346.295,581.984ZM362.436,605.088C371.043,599.816 376.4,592.485 375.302,581.704C374.866,577.621 374.804,573.536 374.25,569.452C371.68,550.218 362.569,533.927 351.284,518.579C350.624,517.677 349.572,517.11 348.651,516.382C332.447,503.845 313.543,497.082 294.199,491.527C288.622,489.946 282.562,489.573 276.744,489.573C270.707,489.573 264.668,490.581 258.674,491.309C252.043,492.075 245.281,492.448 238.826,494.01C218.055,498.952 199.612,508.852 182.793,521.829C171.09,530.831 159.739,540.36 147.619,548.813C139.407,554.52 133.545,561.811 128.473,570.089C126.189,573.842 126.363,576.742 130.844,578.454C131.877,577.489 132.711,576.475 133.744,575.728C147.511,565.738 160.795,555.023 175.154,546.087C192.434,535.307 209.428,523.143 231.143,522.638C231.267,522.638 231.454,522.451 231.579,522.451C240.295,520.385 248.683,520.279 257.268,526.777C252.725,528.644 249.034,530.598 245.104,531.737C227.539,536.741 209.952,541.617 195.11,553.056C183.824,561.729 171.353,569.26 161.495,579.382C149.704,591.545 140.351,606.08 129.46,619.167C126.099,623.25 127.201,625.185 130.338,628.3C167.071,664.836 203.804,701.393 240.186,738.279C245.433,743.613 250.571,746.139 257.861,744.887C269.541,742.889 271.979,744.097 275.184,730.418C279.068,713.578 285.503,697.703 294.022,682.795C300.215,671.905 307.569,661.673 314.815,651.398C327.769,632.998 343.117,617.014 362.439,605.092L362.436,605.088Z" style="fill:rgb(69,28,21);fill-rule:nonzero;"/>
    </g>
    <g transform="matrix(0.058594,0,0,0.058594,-0.00001,-0)">
        <path d="M893.043,492.717C880.572,498.138 868.408,503.41 856.047,508.789C850.34,499.128 844.344,489.028 838.438,478.907C828.558,461.869 818.963,444.677 808.819,427.793C800.037,413.17 790.705,398.876 781.44,384.517C778.036,379.227 774.063,374.263 770.55,369.038C766.529,363.088 760.099,364.538 754.5,363.617C750.703,362.982 746.749,362.995 742.293,362.715C744.907,356.939 747.054,351.869 749.516,346.929C750.014,345.921 751.626,344.819 752.678,344.863C763.613,345.112 774.547,343.961 785.459,347.259C791.914,349.213 795.866,353.516 799.577,357.996C811.85,372.882 824.497,387.637 835.365,403.577C855.104,432.472 873.679,462.156 892.715,491.534C893.026,492.032 893.026,492.741 893.026,492.717L893.043,492.717ZM798.745,453.5C787.525,452.181 778.655,457.869 769.433,462.765C765.898,464.607 761.727,465.223 756.984,466.63C757.992,458.045 762.909,454.203 768.006,450.734C776.635,444.915 785.901,440.875 796.637,440.678C799.494,440.616 801.205,441.176 802.5,443.709C804.081,446.759 805.992,449.615 808.338,453.545C804.541,453.545 801.597,453.856 798.743,453.501L798.745,453.5ZM719.151,499.303C712.081,477.83 696.844,462.834 674.799,456.137C651.657,449.089 632.006,457.17 615.912,473.9C609.238,471.597 602.848,469.4 597.512,467.555C596.46,464.505 596.329,461.474 594.749,459.892C586.23,451.263 578.15,442.173 567.326,436.113C557.599,430.624 547.193,427.55 536.17,427.001C526.048,426.503 515.707,426.011 506.288,430.798C500.886,433.561 495.859,437.099 490.018,440.7C495.619,444.764 499.964,447.946 504.312,451.151C512.26,445.089 524.886,445.879 530.638,448.711C524.713,452.091 519.243,455.254 512.612,459.074C516.608,462.323 519.792,464.937 523.393,467.879C514.83,470.997 507.299,473.785 499.68,476.42C498.865,476.731 497.508,476.233 496.78,475.63C482.157,463.752 465.141,457.143 446.697,455.254C417.517,452.291 390.335,457.451 367.918,478.813C360.87,474.226 353.471,469.306 345.698,464.234C349.999,458.962 354.327,453.673 358.937,448.052C347.432,446.975 336.3,443.926 325.542,450.84C322.667,452.682 318.121,451.848 313.992,452.29C314.894,446.315 317.396,443.112 322.248,441.466C326.088,440.171 329.691,438.192 333.446,436.636C339.352,434.178 345.149,434.377 351.011,437.009C352.567,437.731 354.503,437.631 356.258,437.818C358.187,438.005 360.671,437.445 362.034,438.478C367.48,442.499 372.09,440.102 376.832,437.202C372.618,430.198 368.313,423.238 359.29,421.481C358.854,421.419 358.369,421.045 357.908,421.045C345.305,421.481 332.548,421.107 320.077,422.757C305.3,424.686 293.422,433.406 283.037,443.594C278.425,448.119 273.925,450.422 267.47,449.762C262.466,449.264 257.37,449.7 251.244,449.7C256.229,444.385 260.86,438.766 266.152,433.935C272.475,428.203 279.194,422.825 286.132,417.82C299.262,408.291 313.819,402.56 330.264,402.143C334.702,402.019 339.112,401.309 343.548,401.222C364.253,400.786 381.137,409.653 396.199,422.915C396.448,423.164 396.759,423.351 396.877,423.637C400.082,431.541 406.076,429.431 412.312,428.423C427.594,425.896 443.007,424.975 458.179,429.344C461.801,430.396 463.843,430.072 465.885,426.313C472.889,413.403 483.714,403.742 497.7,400.449C517.856,395.688 538.363,394.655 558.519,402.951C571.056,408.111 583.132,413.666 593.342,422.536C601.751,429.87 609.48,437.949 617.999,446.139C649.111,427.739 680.662,429.584 712.169,446.973C715.86,438.015 722.796,430.792 730.217,424.227C739.285,416.191 748.88,408.704 761.066,405.871C765.609,404.794 770.419,404.576 775.118,404.203C775.908,404.141 777.091,405.037 777.62,405.809C781.597,411.846 785.437,417.929 789.63,424.449C788.267,424.885 787.433,425.351 786.555,425.439C767.497,427.219 753.203,438.678 738.58,449.349C737.771,449.909 737.086,450.687 736.451,451.434C728.108,461.446 728.349,461.095 736.451,468.845C740.602,472.841 744.641,476.991 748.286,481.47C751.23,485.024 753.446,489.221 756.146,493.414C743.368,495.455 731.555,497.323 719.15,499.296L719.151,499.303ZM690.126,495.716C686.105,487.395 679.653,480.324 671.331,477.931C663.603,475.715 654.666,477.744 646.235,477.869C643.048,477.913 639.867,477.869 636.421,477.869C636.857,472.361 639.626,470.601 643.271,469.548C661.495,464.233 677.545,468.272 692.277,479.955C699.918,486.017 704.09,494.227 708.964,502.658C696.669,507.643 695.659,507.226 690.126,495.741L690.126,495.716ZM575.646,464.345C575.335,465.353 573.188,466.561 572.024,466.386C569.541,466.075 566.889,465.353 564.844,463.99C557.862,459.378 551.121,454.417 544.271,449.609C543.611,449.173 542.889,448.819 541.414,447.985C554.961,446.423 565.346,451.589 574.546,459.754C575.554,460.656 576.015,462.984 575.641,464.341L575.646,464.345ZM452.181,484.627C439.117,482.169 426.075,481.64 412.638,483.899C402.911,485.548 395.183,489.588 387.52,495.053C383.985,492.003 380.494,488.972 376.651,485.678C382.053,479.597 389.035,475.93 396.676,474.7C408.971,472.702 421.421,470.966 433.826,470.835C443.816,470.711 454.047,472.13 462.808,478.124C463.729,478.759 464.588,479.419 465.484,480.06C460.723,486.559 460.256,486.122 452.179,484.628L452.181,484.627ZM210.769,417.925C208.111,422.973 205.323,427.937 202.777,432.702C189.054,427.101 175.683,421.68 162.597,416.366C162.473,415.464 162.286,415.09 162.348,414.872C167.576,404.794 171.745,393.926 178.333,384.792C187.049,372.717 197.062,361.409 207.556,350.76C223.979,334.161 244.662,324.896 267.277,320.263C274.94,318.682 282.932,318.222 290.792,318.134C312.551,317.823 334.331,317.947 356.112,318.072C363.665,318.134 371.218,318.732 378.793,318.993C383.361,319.18 384.631,321.626 385.621,325.997C388.036,336.624 391.527,347.031 394.557,357.548C394.993,358.955 395.235,360.405 395.92,363.28C375.127,363.28 355.038,363.342 334.969,363.156C333.276,363.156 330.973,361.644 330.027,360.15C326.467,354.461 323.484,348.381 319.949,342.672C318.941,341.048 316.874,339.093 315.25,339.05C301.659,338.739 288.068,338.863 273.555,338.863C278.186,347.909 282.008,355.44 286.136,363.454C283.522,363.827 281.306,364.531 279.132,364.487C263.674,364.238 251.006,370.593 238.645,379.439C224.834,389.363 218.203,403.789 210.739,417.928L210.769,417.925ZM186.214,467.944C185.249,469.699 183.513,471.174 181.826,472.338C166.413,482.723 150.714,492.714 135.52,503.406C126.957,509.468 119.184,516.645 110.995,523.211C109.588,524.331 107.678,524.835 106.01,525.651C106.197,523.915 105.948,522.029 106.645,520.516C117.272,497.067 127.964,473.596 141.841,451.749C146.384,444.613 150.14,436.972 153.983,430.078C168.254,436.687 181.845,443.011 195.699,449.443C192.606,455.524 189.55,461.848 186.214,467.952L186.214,467.944ZM405.404,277.483C479.836,277.461 554.29,277.461 628.678,277.359C633.595,277.359 638.558,276.986 643.367,276.152C644.879,275.903 646.747,273.694 647.145,272.088C648.987,264.842 650.35,257.443 651.931,249.802L693.977,249.802C690.554,268.75 687.192,287.457 683.767,306.141C682.69,311.935 681.221,317.625 680.319,323.421C679.883,326.209 678.695,327 676.081,326.913C671.494,326.789 666.881,326.891 661.941,326.891C660.385,332.754 658.848,338.484 657.198,344.72L682.601,344.72C680.846,349.836 679.439,354.447 677.641,358.925C677.33,359.715 675.618,360.506 674.566,360.506C643.871,360.568 613.198,360.506 582.503,360.484C582.192,360.484 581.881,360.235 581.14,359.924C581.887,355.424 582.503,350.768 583.555,346.245C583.804,345.498 585.951,344.82 587.221,344.82C595.652,344.696 604.039,344.696 612.47,344.776C615.128,344.82 616.727,344.403 617.144,341.216C617.704,336.542 618.88,331.951 619.845,326.988L513.094,326.988L513.094,315.351L465.339,315.351C464.841,318.955 464.331,322.619 463.733,326.878L442.655,326.878C434.882,326.878 427.132,327.065 419.403,326.754C417.691,326.692 415.146,325.329 414.573,323.922C408.579,309.387 402.892,294.72 397.184,280.076C396.873,279.373 396.935,278.514 396.811,277.462L405.374,277.462L405.404,277.483ZM977.579,500.625C972.899,498.714 968.05,497.221 963.241,495.752C948.881,491.339 934.303,488.748 919.175,490.854C918.08,490.978 916.318,489.671 915.596,488.526C911.426,482.093 907.67,475.418 903.41,469.073C898.842,462.31 893.815,455.899 888.919,449.202C902.62,443.47 915.772,437.983 930.087,431.989C925.693,427.863 921.722,424.436 918.143,420.616C916.232,418.575 914.583,418.55 912.193,419.427C900.798,423.641 889.315,427.748 877.744,431.898C877.122,431.132 876.624,430.516 876.163,429.857C869.729,420.592 863.626,411.062 856.819,402.104C843.008,383.99 828.715,366.293 814.926,348.201C805.155,335.444 792.816,328.155 776.612,327.891C754.809,327.518 733.029,327.213 711.248,326.883C709.736,326.861 708.198,326.883 707.626,326.883C713.42,301.128 719.153,275.703 725.06,249.509L747.06,249.509C740.078,242.593 734.128,236.445 727.848,230.605C726.267,229.136 723.653,227.991 721.525,227.991C702.226,227.804 682.904,227.867 663.604,227.867L654.8,227.867C654.676,226.921 654.427,226.442 654.489,226C657.321,210.103 660.265,194.229 662.942,178.333C663.602,174.424 665.226,168.913 663.315,166.63C656.816,158.66 648.978,151.832 640.964,143.861C635.892,180.946 630.93,217.107 625.836,254.126L384.053,254.126C373.251,228.855 361.965,202.463 350.57,175.764C344.819,181.515 338.582,187.554 332.632,193.856C331.885,194.665 332.259,197.217 332.881,198.555C339.731,212.695 346.999,226.638 353.608,240.887C359.471,253.49 364.718,266.356 370.009,279.223C373.283,287.281 376.158,295.493 379.736,305.044L322.057,305.044C299.727,305.106 277.332,304.21 255.266,309.04C242.487,311.81 229.819,314.859 219.126,322.96C212.846,327.727 206.698,332.665 200.529,337.473C185.599,349.176 173.15,363.096 163.379,379.278C155.848,391.683 149.174,404.615 141.818,417.174C130.708,436.056 119.093,454.653 108.202,473.646C99.09,489.674 90.703,506.075 82.074,522.389C75.443,534.926 68.966,547.573 62.884,559.319C70.437,566.894 77.727,574.162 84.862,581.298C86.2,579.3 87.849,576.86 89.517,574.426C102.471,555.28 119.641,540.02 136.064,524.058C159.799,501.026 187.991,484.756 218.444,472.703C240.488,464.03 263.74,461.747 287.408,464.535C292.499,465.157 297.903,463.857 302.931,464.784C317.466,467.529 332.177,470.012 344.648,479.012C351.279,483.798 358.261,488.058 364.804,492.932C385.311,508.104 398.88,528.326 405.796,552.741C408.783,563.236 409.879,574.258 411.945,585.917C424.943,586.838 439.237,585.895 452.542,594.151C451.814,579.66 453.488,566.64 457.303,553.817C463.471,532.892 471.663,513.395 490.874,500.814C494.583,498.418 497.768,494.908 501.764,493.503C512.786,489.682 523.984,486.148 535.335,483.578C543.591,481.736 552.22,481.051 560.695,480.771C572.902,480.335 585.33,478.574 596.967,484.68C603.752,488.24 610.821,491.267 617.672,494.736C623.031,497.412 628.606,499.808 633.37,503.321C648.081,514.255 662.045,526.156 671.97,540.779C677.111,536.671 681.521,531.997 686.856,529.142C695.024,524.816 704.048,522.159 712.369,518.032C730.197,509.096 749.19,508.349 768.445,509.293C773.866,509.542 779.357,510.569 784.605,512.013C801.709,516.712 816.398,525.626 828.693,538.405C832.427,542.27 836.158,546.09 839.539,549.581C845.75,543.656 851.197,537.944 857.17,532.807C867.775,523.695 880.224,517.723 893.902,515.242C904.2,513.4 914.761,512.759 925.234,512.323C931.203,512.074 937.375,512.821 943.194,514.165C955.512,516.935 967.675,520.376 981.2,523.892C981.2,517.284 981.449,510.938 981.076,504.614C981.014,503.207 979.053,501.278 977.566,500.637L977.579,500.625Z" style="fill:rgb(69,28,21);fill-rule:nonzero;"/>
    </g>
</svg>
