<?xml version="1.0" encoding="UTF-8" standalone="no"?>
<!DOCTYPE svg PUBLIC "-//W3C//DTD SVG 1.1//EN" "http://www.w3.org/Graphics/SVG/1.1/DTD/svg11.dtd">
<svg width="100%" height="100%" viewBox="0 0 61 60" version="1.1" xmlns="http://www.w3.org/2000/svg" xmlns:xlink="http://www.w3.org/1999/xlink" xml:space="preserve" xmlns:serif="http://www.serif.com/" style="fill-rule:evenodd;clip-rule:evenodd;stroke-linejoin:round;stroke-miterlimit:2;">
    <g transform="matrix(0.058594,0,0,0.058594,-0.000044,0)">
        <path d="M407.234,572.259C408.329,561.018 409.406,550.039 410.464,538.973L300.002,538.973C300.002,541.674 299.815,543.803 300.046,545.955C300.544,550.106 301.384,553.223 306.94,554.167C315.35,555.636 321.849,560.973 325.361,568.944C326.68,571.907 328.236,572.566 331.224,572.566C354.959,572.442 378.694,572.522 402.45,572.522C403.9,572.5 405.325,572.398 407.236,572.273L407.234,572.259Z" style="fill:rgb(69,28,21);fill-rule:nonzero;"/>
    </g>
    <g transform="matrix(0.058594,0,0,0.058594,-0.000044,0)">
        <path d="M214.826,518.512C218.293,516.863 221.083,515.108 221.171,510.344C221.295,501.671 221.607,492.889 222.926,484.326C225.783,465.333 225.957,446.297 225.758,427.239C225.696,422.061 224.42,417.995 218.776,416.371C216.318,415.668 214.102,414.13 211.772,413.01C206.656,410.483 203.561,406.621 202.946,400.869C202.025,392.021 201.017,383.238 199.959,374.433C199.193,367.583 198.465,360.732 197.345,353.926C196.293,347.864 191.42,345.846 186.235,344.089C181.779,342.552 180.304,346.068 178.177,348.197C139.864,386.423 101.616,424.737 63.302,463.007C56.298,469.989 50.721,477.805 47.142,487.027C41.541,501.408 40.949,515.944 44.858,530.39L201.758,530.39C204.416,524.658 209.223,521.169 214.822,518.512L214.826,518.512Z" style="fill:rgb(69,28,21);fill-rule:nonzero;"/>
    </g>
    <g transform="matrix(0.058594,0,0,0.058594,-0.000044,0)">
        <path d="M104.669,573.486L190.475,573.486C193.394,561.476 196.182,549.949 199.147,537.654L47.363,537.654C48.371,539.783 49.429,542.135 50.55,544.373C56.127,555.505 65.612,563.255 74.153,571.774C75.205,572.851 77.29,573.38 78.939,573.398C87.502,573.585 96.109,573.46 104.672,573.46L104.669,573.486Z" style="fill:rgb(69,28,21);fill-rule:nonzero;"/>
    </g>
    <g transform="matrix(0.058594,0,0,0.058594,-0.000044,0)">
        <path d="M184.406,617.088C195.692,617.897 206.977,618.868 218.241,619.808C219.031,619.852 220.22,619.932 220.438,620.468C223.712,626.747 229.682,625.933 235.127,625.914C257.017,625.727 278.952,625.354 300.886,624.906C303.214,624.884 306.22,624.408 307.736,622.883C312.653,618.209 318.626,618.669 324.533,617.898C328.554,617.4 333.271,616.535 336.038,614.033C339.791,610.629 337.88,597.983 333.38,595.37C328.463,592.495 322.753,591.02 317.11,588.871C316.488,586.101 315.815,582.569 314.957,579.078C312.741,569.768 310.457,567.749 301.168,566.541C300.004,566.417 298.797,566.541 297.72,566.23C289.179,563.877 287.005,562.956 287.005,553.144C286.961,509.451 286.632,465.736 286.015,421.999C285.891,413.634 286.139,405.51 288.212,397.386C289.488,392.401 292.052,389.833 297.258,388.01C310.388,383.467 314.889,378.503 315.152,366.032C315.276,358.962 315.174,351.892 315.174,344.647L330.676,344.647C330.676,352.353 331.112,359.445 330.552,366.493C329.93,373.958 327.26,380.83 321.462,386.012C316.215,390.755 311.12,395.739 305.5,399.976C301.66,402.895 300.34,406.187 300.365,410.8C300.409,425.313 300.054,439.848 299.992,454.361C299.93,479.94 299.97,505.519 299.97,531.362L410.213,531.362C410.462,530.024 410.773,529.103 410.835,528.132C411.538,509.557 412.13,490.982 412.92,472.429C413.293,464.898 413.997,457.389 414.831,449.902C415.466,444.151 411.14,437.453 405.521,435.784C392.479,431.9 379.546,427.572 366.395,424.081C360.949,422.631 358.644,419.581 357.371,414.552C352.056,393.408 351.113,371.759 349.313,350.154C348.193,336.804 349.269,333.16 332.758,333.665C329.111,333.727 325.49,333.789 321.846,333.621C314.952,333.31 307.926,333.599 301.185,332.283C286.474,329.339 278.065,319.439 273.125,305.584C268.644,293.091 263.179,280.971 258.282,269.115C236.962,290.435 215.885,311.535 194.828,332.612C201.021,333.994 206.004,338.083 207.519,344.337C209.448,352.351 210.021,360.716 210.811,368.972C211.689,378.633 212.062,388.337 212.877,397.999C213.188,401.796 214.589,404.63 219.222,405.354C223.33,405.989 227.543,407.439 231.166,409.505C234.9,411.615 239.97,413.196 239.795,419.034C239.422,433.832 239.297,448.653 238.301,463.429C237.181,480.731 235.183,497.989 233.627,515.268C232.967,522.536 230.447,528.266 222.495,529.957C217.821,530.965 215.14,534.195 213.888,538.52C210.813,549.323 207.565,560.059 204.952,570.95C201.572,584.914 201.765,584.782 188.046,587.395C182.357,588.472 177.178,590.862 176.278,597.846C176.029,599.757 175.095,601.555 174.542,603.398C172.326,610.885 176.826,616.506 184.378,617.055L184.406,617.088Z" style="fill:rgb(69,28,21);fill-rule:nonzero;"/>
    </g>
    <g transform="matrix(0.058594,0,0,0.058594,-0.000044,0)">
        <path d="M161.892,587.562L90.029,587.562C97.363,595.62 97.363,595.62 107.331,595.62L152.363,595.62C160.597,595.62 160.619,595.62 161.914,587.65C161.958,587.526 161.79,587.401 161.892,587.588L161.892,587.562Z" style="fill:rgb(69,28,21);fill-rule:nonzero;"/>
    </g>
    <g transform="matrix(0.058594,0,0,0.058594,-0.000044,0)">
        <path d="M355.489,595.602C370.617,595.229 385.723,594.656 400.851,594.482C404.847,594.438 406.029,592.858 405.811,589.322L349.032,589.322C349.281,591.388 349.53,593.143 349.822,595.601C351.907,595.601 353.712,595.663 355.486,595.601L355.489,595.602Z" style="fill:rgb(69,28,21);fill-rule:nonzero;"/>
    </g>
    <g transform="matrix(0.058594,0,0,0.058594,-0.000044,0)">
        <path d="M743.528,569.328C746.559,566.235 749.41,562.917 752.442,559.843C753.998,558.237 757.16,556.986 757.253,555.449C757.564,549.673 756.942,543.878 756.631,538.016L639.274,538.016C639.772,549.082 640.264,559.862 640.768,570.819C641.583,571.13 641.863,571.379 642.15,571.379C674.843,571.441 707.492,571.503 740.163,571.423C741.283,571.423 742.603,570.259 743.499,569.338L743.528,569.328Z" style="fill:rgb(69,28,21);fill-rule:nonzero;"/>
    </g>
    <g transform="matrix(0.058594,0,0,0.058594,-0.000044,0)">
        <path d="M295.175,643.556C305.495,643.307 315.88,641.098 325.98,638.614C333.708,636.747 341.129,633.237 345.345,625.66L344.642,623.774C342.339,624.272 339.657,624.21 337.791,625.398C330.677,629.966 323.125,633.28 314.781,634.4C310.057,635.035 305.274,635.035 300.487,635.103C279.079,635.414 257.673,635.962 236.265,635.663C223.354,635.476 210.444,634.213 197.6,632.719C191.254,631.997 185.084,629.532 178.783,628.064C177.376,627.753 175.796,628.313 174.258,628.375C174.507,629.887 174.258,632.414 175.092,632.813C179.679,635.097 184.423,638.016 189.32,638.607C205.129,640.493 221.025,641.924 236.899,642.646C256.308,643.524 275.761,644.071 295.171,643.548L295.175,643.556Z" style="fill:rgb(69,28,21);fill-rule:nonzero;"/>
    </g>
    <g transform="matrix(0.058594,0,0,0.058594,-0.000044,0)">
        <path d="M643.016,592.308L653.094,592.308C674.875,592.308 696.612,592.33 718.37,592.246C720.019,592.246 721.93,591.873 723.225,590.951C725.839,589.152 728.098,586.868 730.273,584.976L641.613,584.976C642.173,588.007 642.646,590.353 643.02,592.31L643.016,592.308Z" style="fill:rgb(69,28,21);fill-rule:nonzero;"/>
    </g>
    <g transform="matrix(0.058594,0,0,0.058594,-0.000044,0)">
        <path d="M884.931,595.091C885.833,595.651 887.147,595.589 888.311,595.589C897.357,595.633 906.491,595.029 915.493,595.713C924.144,596.373 930.247,593.124 935.1,586.426C935.162,586.302 935.224,586.177 935.66,585.418L869.483,585.418C874.643,588.667 879.737,591.961 884.941,595.079L884.931,595.091Z" style="fill:rgb(69,28,21);fill-rule:nonzero;"/>
    </g>
    <g transform="matrix(0.058594,0,0,0.058594,-0.000044,0)">
        <path d="M589.274,798.982C592.523,798.235 596.366,796.853 596.278,790.924C589.295,791.422 582.467,791.646 575.749,792.48C549.84,795.685 526.874,790.065 507.487,771.6C501.276,765.718 494.643,759.656 485.531,758.294C480.197,757.528 474.772,756.694 469.393,756.738C441.597,757.174 413.888,756.302 386.421,751.69C380.185,750.657 374.367,749.101 369.953,743.961C368.372,742.119 365.889,740.357 363.542,739.897C347.448,736.692 331.288,733.748 315.106,730.96C306.082,729.404 296.904,728.719 287.925,726.964C275.585,724.568 275.058,716.184 276.398,707.005C276.647,705.337 276.398,703.582 276.398,701.87C274.419,702.181 272.004,701.848 270.56,702.86C264.171,707.447 260.746,714.255 262.656,721.655C264.237,727.848 268.892,733.577 275.346,735.597C291.55,740.645 308.215,743.414 325.187,745.039C333.311,745.786 341.72,747.628 349.185,750.858C374.479,761.77 400.76,767.743 428.228,768.555C442.916,768.991 457.605,768.742 472.25,769.215C478.903,769.402 485.841,769.464 491.352,774.263C503.165,784.583 516.141,792.553 531.225,797.427C550.59,803.684 569.824,803.508 589.277,798.983L589.274,798.982Z" style="fill:rgb(69,28,21);fill-rule:nonzero;"/>
    </g>
    <g transform="matrix(0.058594,0,0,0.058594,-0.000044,0)">
        <path d="M980.011,581.507C902.923,658.442 825.922,735.531 748.899,812.575C693.328,868.103 637.647,923.564 582.229,979.267C559.724,1001.882 532.893,1012.157 501.232,1009.04C480.615,1006.999 462.567,998.589 447.219,984.646C445.265,982.847 443.398,980.98 441.555,979.094C309.071,846.653 176.608,714.169 44.102,581.751C28.953,566.601 18.918,548.905 15.647,527.607C10.948,496.671 18.964,469.335 40.37,446.479C55.037,430.846 70.582,416.025 85.754,400.853C204.56,282.047 323.409,163.264 442.149,44.393C457.562,28.957 475.588,18.835 497.26,15.718C527.23,11.417 553.687,19.365 576.456,39.343C578.192,40.88 579.792,42.548 581.441,44.198C713.925,176.66 846.344,309.145 978.916,441.498C994.725,457.284 1005.132,475.596 1008.491,497.75C1009.213,502.648 1009.412,507.609 1009.698,510.661C1009.063,539.512 999.159,562.39 980.013,581.514L980.011,581.507ZM990.968,433.395C857.342,299.55 723.562,165.857 589.716,32.232C568.462,10.956 542.313,0.658 512.079,-0C481.56,0.498 455.081,11.241 433.256,33.044C360.427,105.829 287.598,178.636 214.747,251.465C154.433,311.78 94.119,372.181 33.739,432.451C12.485,453.683 0.805,479.218 0.036,509.21C-0.711,540.915 10.421,568.273 32.883,590.778C86.851,644.879 140.929,698.847 194.964,752.882C274.094,832.012 353.225,911.121 432.334,990.273C454.488,1012.449 481.187,1024.174 512.541,1023.998C543.741,1023.874 570.044,1011.812 592.088,989.768C724.946,856.801 857.913,723.921 990.792,590.976C1035.034,546.756 1035.254,477.769 990.979,433.395L990.968,433.395Z" style="fill:rgb(69,28,21);fill-rule:nonzero;"/>
    </g>
    <g transform="matrix(0.058594,0,0,0.058594,-0.000044,0)">
        <path d="M868.101,597.288C862.369,596.056 856.552,594.742 850.733,594.431C846.451,594.182 845.598,592.676 845.598,588.811C845.62,577.13 842.306,572.915 830.975,569.248C830.185,568.999 829.22,568.937 828.716,568.37C827.048,566.702 824.72,565.053 824.191,563.011C823.201,559.084 823.201,554.865 822.965,550.804C821.87,533.722 820.395,516.684 819.89,499.602C819.212,476.197 819.056,452.77 819.056,429.386C819.1,421.394 821.365,419.506 829.134,416.981C834.051,415.357 838.948,413.402 843.515,411.006C846.608,409.382 848.805,406.992 849.926,402.948C853.922,388.501 852.366,373.834 852.496,359.277C852.496,356.862 851.201,353.856 849.465,352.119C821.603,323.971 793.564,296.021 765.548,268.004C764.409,266.884 763.239,265.851 762.691,265.371C757.818,275.778 753.141,286.164 748.046,296.351C745.874,300.764 741.965,303.113 736.892,304.211C724.685,306.781 712.564,309.7 700.532,312.84C692.254,315.012 690.959,316.923 690.212,325.158C690.088,326.627 690.19,328.145 690.19,329.639C690.066,353.461 691.31,377.328 687.203,400.997C685.753,409.296 682.417,416.257 673.898,419.484C664.765,422.976 655.675,426.641 646.453,429.891C638.658,432.636 632.796,435.953 633.499,446.073C634.358,458.808 633.375,471.652 633.997,484.387C634.657,497.495 636.393,510.515 637.688,523.579C637.937,526.28 638.31,529 638.59,531.527L756.43,531.527C755.795,524.501 755.198,517.782 754.563,511.085C753.704,501.732 753.001,492.379 751.905,483.069C750.324,469.544 747.822,456.085 746.833,442.538C745.781,427.915 745.955,413.183 745.694,398.538C745.57,391.621 745.881,384.661 745.57,377.767C745.446,375.638 743.97,371.973 742.695,371.773C733.562,370.261 728.95,362.969 723.351,357.216C720.233,354.073 717.289,349.729 716.545,345.513C715.406,338.948 716.047,332.032 716.172,325.291C716.216,324.152 717.491,322.478 718.525,322.104C720.809,321.338 723.311,321.27 725.858,320.872C725.858,324.65 725.609,327.789 725.88,330.84C727.417,350.316 732.95,358.044 752.601,362.765C754.929,363.325 757.848,366.63 758.246,369.022C759.323,375.456 759.341,382.108 759.497,388.673C759.87,410.234 760.057,431.861 760.549,453.422C760.798,463.434 761.47,473.49 762.478,483.458C763.443,493.075 765.97,502.56 766.231,512.177C766.729,529.94 766.187,547.746 765.795,565.509C765.773,566.934 763.866,568.826 762.391,569.592C756.883,572.293 753.916,576.266 753.455,582.568C753.144,587.136 751.7,590.823 745.661,591.614C737.822,592.691 732.267,596.991 731.718,606.018C731.282,613.043 734.002,616.579 741.094,617.106C742.432,617.168 744.43,617.479 744.891,618.332C748.999,625.863 755.935,626.939 763.466,626.895C779.626,626.895 795.808,627.019 811.967,626.873C818.708,626.829 825.493,626.686 832.145,625.778C835.481,625.342 838.534,622.99 841.696,621.471C843.432,620.705 845.163,619.23 846.899,619.255C855.616,619.299 864.288,620.021 873.005,619.815C875.134,619.771 878.513,617.574 879.154,615.664C881.724,607.694 876.341,599.087 868.132,597.287L868.101,597.288Z" style="fill:rgb(69,28,21);fill-rule:nonzero;"/>
    </g>
    <g transform="matrix(0.058594,0,0,0.058594,-0.000044,0)">
        <path d="M832.773,553.955C832.96,558.169 833.893,561.508 838.655,562.935C840.871,563.57 842.607,565.792 844.736,566.931C846.821,568.07 849.13,569.414 851.345,569.458C883.84,569.582 916.314,569.582 948.809,569.502C950.191,569.502 952.014,569.44 952.892,568.581C961.674,560.369 970.479,552.048 975.265,540.521L832.022,540.521C832.333,545.506 832.582,549.72 832.769,553.958L832.773,553.955Z" style="fill:rgb(69,28,21);fill-rule:nonzero;"/>
    </g>
    <g transform="matrix(0.058594,0,0,0.058594,-0.000044,0)">
        <path d="M702.643,816.108C690.523,829.919 675.022,838.832 658.423,845.793C644.656,851.569 629.879,853.302 615.059,854.905C595.035,857.146 575.098,857.363 555.074,855.826C553.518,855.702 551.931,856.529 550.331,856.903C552.416,859.274 554.37,861.029 556.633,861.515C565.218,863.314 573.89,865.729 582.563,865.971C597.801,866.344 613.082,865.535 628.32,864.695C635.456,864.322 642.635,861.334 649.551,862.019C657.807,862.809 662.879,859.778 667.753,854.049C671.836,849.288 676.557,845.113 681.014,840.699C690.06,831.609 699.15,822.563 708.24,813.517C707.929,813.081 707.605,812.683 707.294,812.266C705.738,813.542 703.933,814.619 702.639,816.106L702.643,816.108Z" style="fill:rgb(69,28,21);fill-rule:nonzero;"/>
    </g>
    <g transform="matrix(0.058594,0,0,0.058594,-0.000044,0)">
        <path d="M863.642,632.089C854.486,635.668 845.528,639.269 835.362,639.093C813.648,638.72 791.954,638.906 770.218,638.72C765.805,638.698 761.304,638.596 757,637.712C751.38,636.573 745.912,634.637 740.335,633.1C738.337,632.54 735.393,631.164 734.472,631.98C732.144,633.997 732.804,636.785 734.908,639.182C739.19,644.037 745.161,645.244 750.87,645.615C771.552,646.978 792.257,647.918 812.962,648.621C821.152,648.87 829.364,647.986 837.553,647.787C848.905,647.538 858.851,643.088 868.49,637.775C870.27,636.785 871.322,634.458 872.728,632.727C872.479,632.105 872.292,631.52 872.05,630.885C869.218,631.258 866.187,631.072 863.619,632.092L863.642,632.089Z" style="fill:rgb(69,28,21);fill-rule:nonzero;"/>
    </g>
    <g transform="matrix(0.058594,0,0,0.058594,-0.000044,0)">
        <path d="M754.62,698.036C756.176,699.965 756.749,700.893 757.539,701.64C763.707,707.702 763.315,711.367 755.871,715.868C754.359,716.789 752.666,717.449 750.973,718.065C733.671,724.411 715.931,729.109 697.685,731.963C688.726,733.345 680.866,736.724 675.531,744.873C672.743,749.087 668.615,752.36 663.082,752.821C654.585,753.524 646.285,754.75 638.93,759.584C634.275,762.571 629.291,765.204 627.974,771.462C628.833,771.835 629.181,772.122 629.443,772.097C630.065,771.973 630.738,771.786 631.285,771.437C640.506,765.443 650.694,763.533 661.629,763.467C669.928,763.423 677.547,760.324 683.761,754.333C689.91,748.383 696.342,743.509 705.454,741.928C715.817,740.129 725.764,736.177 735.93,733.343C741.905,731.675 748.159,730.997 753.89,728.818C762.058,725.725 769.852,721.55 773.475,712.834C775.211,708.726 776.045,704.776 771.807,700.868C766.579,696.038 761.136,699.2 754.616,698.036L754.62,698.036Z" style="fill:rgb(69,28,21);fill-rule:nonzero;"/>
    </g>
    <g transform="matrix(0.058594,0,0,0.058594,-0.000044,0)">
        <path d="M544.54,520.091C544.789,530.959 544.416,531.377 533.913,529.796C516.347,527.138 503.086,534.539 491.625,546.812C491.189,547.31 490.81,547.82 490.393,548.306C490.331,548.43 490.082,548.368 488.856,548.742C488.607,547.161 488.221,545.823 488.221,544.46C487.848,523.052 487.455,501.623 487.231,480.216C487.107,464.693 486.733,449.17 487.293,433.69C488.04,413.49 490.013,393.312 490.76,373.09C491.395,355.328 490.782,337.499 491.32,319.714C491.507,313.083 493.449,306.496 494.743,298.855C498.913,303.486 501.615,307.199 505.019,310.119C514.833,318.528 526.514,321.777 539.293,320.899C543.662,320.588 544.782,321.907 544.695,326.388C543.886,371.179 543.046,416.014 542.809,460.849C542.685,480.587 544.085,500.326 544.521,520.087L544.54,520.091ZM462.646,158.139C477.642,155.046 484.953,145.975 487.478,131.528C495.163,137.061 502.277,142.726 509.896,147.578C525.331,157.415 541.14,166.702 556.619,176.516C562.83,180.425 568.717,184.926 574.491,189.493C581.1,194.721 583.471,208.705 578.312,214.281C572.343,220.715 565.863,223.503 555.06,217.138C540.569,208.619 526.232,199.815 512.026,190.812C496.283,180.844 480.782,170.502 465.171,160.315C464.549,159.942 464.032,159.307 462.644,158.143L462.646,158.139ZM743.093,245.463C721.642,224.209 700.322,202.802 678.937,181.438C677.817,180.318 676.584,179.241 674.543,177.355C673.597,178.78 672.894,180.168 671.885,181.176C652.322,200.783 632.628,220.214 613.174,239.931C602.415,250.799 592.008,261.997 581.622,273.217C570.227,285.535 559.051,298.093 547.722,310.498C547.019,311.245 545.749,311.923 544.778,311.905C538.896,311.718 532.79,312.092 527.17,310.766C515.863,307.978 505.938,302.774 502.095,290.478C501.659,288.941 500.844,287.074 501.348,285.804C503.937,279.524 505.804,272.476 509.955,267.339C521.877,252.65 534.743,238.774 547.017,224.854C560.63,230.779 577.799,228.719 584.013,220.504C590.181,212.38 592.839,199.338 582.675,186.45C598.922,169.039 615.17,151.649 631.879,133.733C629.75,131.891 628.3,130.789 627.024,129.519C605.309,107.826 583.638,86.111 561.88,64.44C558.762,61.322 555.557,58.183 552.021,55.614C535.444,43.626 516.979,40.003 497.086,44.13C481.739,47.317 469.509,55.811 458.992,67.206C456.247,70.169 453.459,72.54 455.326,77.218C456.228,79.434 456.004,82.091 456.465,84.486C459.079,98.252 461.668,112.151 473.547,121.548C477.524,124.71 478.507,128.288 478.333,133.075C478.084,139.354 475.258,143.68 469.792,146.314C463.599,149.258 456.332,152.09 450.668,147.764C441.775,140.914 433.41,133.032 431.588,120.67C430.555,113.798 428.47,107.057 426.827,100.075C426.018,100.573 425.551,100.778 425.246,101.108C375.164,151.169 325.081,201.207 275.109,251.377C274.101,252.385 273.746,254.912 274.188,256.381C276.516,264.198 278.713,272.124 281.917,279.633C285.844,288.766 290.546,297.593 295.267,306.376C298.273,311.928 302.886,314.544 309.758,314.193C321.439,313.633 333.185,314.006 344.888,314.069C352.178,314.113 360.873,320.262 362.673,327.177C364.229,333.171 365.505,339.319 366.121,345.489C368.119,364.042 369.196,382.704 374.003,400.884C375.21,405.496 377.563,407.207 381.622,408.196C392.666,410.81 403.688,413.642 414.71,416.32C423.141,418.386 428.674,424.026 429.464,432.172C430.933,447.015 431.81,462.033 431.331,476.919C430.833,491.915 427.951,506.824 426.831,521.842C425.362,540.988 424.79,560.221 423.451,579.411C422.791,589.313 421.298,599.172 420.358,607.405C406.438,611.202 394.011,614.387 381.715,618.076C375.765,619.856 373.372,624.157 373.174,630.415C372.987,636.477 372.801,642.535 372.166,648.573C372.042,649.98 370.411,652.04 369.048,652.438C363.123,654.15 356.972,655.158 351,656.739C339.253,659.901 327.484,663.128 315.848,666.707C309.591,668.618 306.451,673.382 305.88,679.903C305.258,686.424 304.43,692.945 303.969,699.466C303.334,708.753 303.409,709.105 312.685,710.246C325.661,711.87 338.725,713.103 351.767,714.086C365.71,715.119 379.696,715.71 394.033,716.482C394.033,721.225 394.22,724.826 393.971,728.404C393.784,731.454 394.786,733.016 397.88,733.389C407.167,734.509 416.367,736.333 425.699,736.793C447.413,737.888 469.128,736.295 490.953,739.513C506.696,741.841 523.053,739.949 539.674,739.949L539.674,735.275C539.301,711.848 538.927,688.443 538.709,665.015C538.585,652.017 534.888,640.556 526.699,630.082C516.117,616.513 506.126,602.439 496.663,588.036C489.835,577.651 488.474,566.343 496.165,555.365C502.227,546.758 511.161,542.323 520.646,538.876C527.54,536.374 534.325,538.086 540.67,540.942C542.556,541.776 543.875,544.278 544.908,546.301C546.688,549.793 547.721,553.656 549.582,557.104C558.409,573.506 567.388,589.841 576.369,606.198C584.603,621.194 590.552,636.717 590.246,654.348C589.873,673.626 590.744,692.903 590.557,712.159C590.495,725.618 589.679,739.034 589.088,752.448C589.044,753.587 588.298,754.844 587.576,755.809C582.902,762.198 575.852,763.867 568.65,764.504C559.955,765.27 551.282,764.691 542.939,761.629C542.13,761.318 541.028,761.816 540.082,761.94C540.393,762.749 540.455,764.006 541.072,764.38C545.354,766.907 549.613,770.747 554.245,771.405C562.259,772.5 570.581,771.841 578.771,771.467C592.472,770.845 606.59,760.181 606.897,744.087C606.959,740.334 608.521,739.873 611.683,739.83C621.059,739.706 630.434,739.195 639.809,738.84C643.17,738.716 644.925,737.085 644.639,733.612C644.515,731.857 644.266,730.102 644.079,727.967C646.407,727.967 648.691,727.905 650.995,727.967C655.034,728.029 659.273,729.019 663.137,728.216C676.64,725.297 689.99,721.585 703.471,718.534C710.519,716.972 717.303,714.974 722.046,709.356C723.975,707.072 725.338,703.779 725.712,700.793C727.094,689.31 724.486,678.288 719.806,667.924C717.453,662.696 714.229,657.144 709.86,653.696C705.317,650.117 699.036,648.536 693.327,646.824C689.418,645.704 686.718,644.565 685.927,640.062C685.068,634.878 681.315,631.367 676.42,630.467C663.115,628.033 649.743,625.637 636.284,624.449C630.795,623.951 628.006,622.146 626.931,617.379C625.35,610.375 623.595,603.305 623.047,596.169C621.354,574.367 620.103,552.498 618.939,530.652C618.037,513.723 617.358,496.773 616.985,479.823C616.674,466.825 616.612,453.827 617.296,440.872C617.607,434.395 617.172,426.908 623.751,422.67C629.769,418.805 636.024,415.183 642.458,412.109C649.309,408.792 656.51,406.072 663.689,403.393C666.938,402.186 668.873,400.188 669.378,396.85C670.76,387.474 672.627,378.077 673.243,368.658C674.363,351.422 674.712,334.121 675.353,316.863C675.664,307.861 682.84,298.222 690.525,296.553C698.627,294.773 706.97,293.609 714.809,291.02C720.977,288.997 727.368,286.078 732.286,281.93C740.981,274.662 743.001,263.618 745.68,253.167C746.514,249.962 745.431,247.765 743.11,245.461L743.093,245.463Z" style="fill:rgb(69,28,21);fill-rule:nonzero;"/>
    </g>
</svg>
