<?xml version="1.0" encoding="UTF-8" standalone="no"?>
<!DOCTYPE svg PUBLIC "-//W3C//DTD SVG 1.1//EN" "http://www.w3.org/Graphics/SVG/1.1/DTD/svg11.dtd">
<svg width="100%" height="100%" viewBox="0 0 61 60" version="1.1" xmlns="http://www.w3.org/2000/svg" xmlns:xlink="http://www.w3.org/1999/xlink" xml:space="preserve" xmlns:serif="http://www.serif.com/" style="fill-rule:evenodd;clip-rule:evenodd;stroke-linejoin:round;stroke-miterlimit:2;">
    <g transform="matrix(0.058594,0,0,0.058594,-0.000001,0.000008)">
        <path d="M511.96,1009.647C486.288,1009.647 462.174,999.658 444.021,981.532L42.429,579.94C4.995,542.48 4.995,481.522 42.429,444.116L444.048,42.497C462.201,24.344 486.288,14.355 511.96,14.355C537.605,14.355 561.692,24.344 579.845,42.497L981.464,444.116C999.617,462.242 1009.579,486.356 1009.579,512.028C1009.579,537.673 999.616,561.787 981.464,579.94L579.872,981.532C561.719,999.658 537.605,1009.647 511.96,1009.647Z" style="fill:rgb(232,203,158);fill-rule:nonzero;"/>
    </g>
    <g transform="matrix(0.058594,0,0,0.058594,-0.000001,0.000008)">
        <path d="M511.919,14.436C487.304,14.435 462.71,23.798 444.025,42.483L42.444,444.104C5.055,481.493 5.055,542.503 42.444,579.892L444.025,981.513C462.722,1000.194 487.346,1009.559 511.958,1009.56C536.57,1009.561 561.143,1000.191 579.852,981.513L981.473,579.892C1018.833,542.501 1018.833,481.495 981.473,444.104L579.852,42.483C561.155,23.802 536.533,14.437 511.919,14.436Z" style="fill:rgb(232,203,158);fill-rule:nonzero;"/>
    </g>
    <g transform="matrix(0.058594,0,0,0.058594,-0.000001,0.000008)">
        <path d="M836.468,682.262C814.995,674.292 792.578,670.757 770.029,667.859C763.508,667.069 754.682,670.031 753.672,678.464C751.848,693.482 744.406,706.084 736.568,718.621C733.12,724.067 728.993,729.95 728.225,736.032C726.513,749.315 726.426,762.84 726.339,776.277C726.317,781.281 728.119,786.289 728.997,790.988C765.246,754.76 801.188,718.797 837.196,682.789C837.218,682.811 836.885,682.416 836.474,682.291L836.468,682.262Z" style="fill:rgb(69,28,21);fill-rule:nonzero;"/>
    </g>
    <g transform="matrix(0.058594,0,0,0.058594,-0.000001,0.000008)">
        <path d="M559.448,894.605C563.244,889.732 568.472,885.12 570.031,879.543C573.218,868.302 575.365,856.687 575.078,844.721C574.829,835.522 570.074,828.276 560.917,828.605C552.091,828.916 542.891,830.298 534.657,833.347C522.076,838.021 510.177,844.522 497.706,850.385C499.617,842.678 501.484,835.345 503.195,827.968C504.029,824.346 504.62,820.656 505.037,816.968C505.099,815.978 504.029,814.883 503.475,813.85C502.685,814.858 501.546,815.736 501.191,816.856C500.008,820.721 500.071,825.353 497.899,828.471C488.59,841.93 479.413,855.631 468.632,867.838C460.311,877.213 449.442,884.239 440.111,892.824C432.405,899.915 425.357,907.666 418.616,914.516C435.588,931.466 452.34,948.24 468.764,964.641C479.347,954.344 490.171,943.475 501.368,933.069C512.28,922.837 524.312,914.143 538.32,908.5C546.312,905.313 553.996,901.562 559.441,894.602L559.448,894.605Z" style="fill:rgb(69,28,21);fill-rule:nonzero;"/>
    </g>
    <g transform="matrix(0.058594,0,0,0.058594,-0.000001,0.000008)">
        <path d="M587.009,912.573C571.75,922.321 556.139,931.06 541.955,941.686C527.464,952.51 514.971,965.706 503.115,979.384C503.364,980.087 503.551,980.766 503.775,981.469C509.837,981.033 515.917,980.654 521.976,980.193C533.635,979.291 544.261,974.99 552.759,967.393C565.889,955.691 578.162,943 590.676,930.661C591.354,930.001 591.622,928.358 591.354,927.369C590.016,922.297 588.41,917.292 587.004,912.571L587.009,912.573Z" style="fill:rgb(69,28,21);fill-rule:nonzero;"/>
    </g>
    <g transform="matrix(0.058594,0,0,0.058594,-0.000001,0.000008)">
        <path d="M701.123,768.509C701.372,762.273 696.798,759.595 690.914,761.988C680.99,766.027 672.669,772.285 665.269,779.838C660.327,784.842 655.455,789.894 650.581,794.9C650.954,786.227 651.434,777.972 651.571,769.695C651.593,767.94 650.233,766.116 649.505,764.318C647.065,769.173 645.709,773.495 644.675,777.909C640.835,793.761 634.202,808.032 622.565,819.867C619.907,822.568 617.692,826.827 617.362,830.538C616.684,838.53 615.98,846.983 617.798,854.623C620.742,866.94 625.746,878.797 629.896,890.894C630.531,890.583 630.861,890.521 631.103,890.272C656.55,864.869 682.019,839.444 707.356,813.909C708.277,812.988 708.651,810.592 708.171,809.366C702.943,796.192 700.508,782.646 701.123,768.506L701.123,768.509Z" style="fill:rgb(69,28,21);fill-rule:nonzero;"/>
    </g>
    <g transform="matrix(0.058594,0,0,0.058594,-0.000001,0.000008)">
        <path d="M312.288,701.247C313.912,698.764 313.296,697.226 310.464,696.66C306.668,695.845 302.846,694.924 298.981,694.463C288.772,693.187 278.562,691.849 268.286,691.084C248.724,689.746 229.337,692.36 209.906,694.071C206.414,694.382 202.946,695.191 198.642,695.913C208.302,705.595 217.304,714.751 226.482,723.687C227.297,724.496 229.202,724.677 230.503,724.434C237.222,723.314 243.94,722.175 250.571,720.656C268.443,716.573 286.227,712.115 304.122,708.207C308.491,707.242 310.246,704.367 312.289,701.247L312.288,701.247Z" style="fill:rgb(69,28,21);fill-rule:nonzero;"/>
    </g>
    <g transform="matrix(0.058594,0,0,0.058594,-0.000001,0.000008)">
        <path d="M942.875,520.097C934.225,522.929 925.31,524.858 916.682,527.738C914.423,528.485 912.244,531.055 911.323,533.314C910.887,534.347 913.408,536.83 914.927,538.361C916.508,540.01 918.263,541.523 920.198,542.668C932.559,549.693 944.964,556.632 957.611,563.745C974.649,548.859 982.663,529.56 981.346,506.704C968.26,511.272 955.658,515.903 942.879,520.097L942.875,520.097Z" style="fill:rgb(69,28,21);fill-rule:nonzero;"/>
    </g>
    <g transform="matrix(0.058594,0,0,0.058594,-0.000001,0.000008)">
        <path d="M983.579,577.308C961.513,600.471 938.481,622.757 915.845,645.393C804.617,756.578 693.344,867.719 582.247,979.013C559.676,1001.606 532.824,1011.859 501.186,1008.698C480.613,1006.657 462.565,998.225 447.218,984.217C444.915,982.107 442.718,979.848 440.499,977.652C308.742,845.895 177.05,714.115 45.205,582.468C29.419,566.682 18.946,548.437 15.609,526.283C14.887,521.385 14.644,516.425 14.358,513.439C14.98,483.952 25.446,460.877 44.964,441.424C116.43,370.287 187.655,298.908 258.946,227.617C319.764,166.821 380.669,106.135 441.29,45.164C463.751,22.571 490.406,11.967 522.132,14.93C542.924,16.859 561.104,25.271 576.649,39.323C578.473,40.947 580.228,42.727 581.964,44.482C714.183,176.678 846.379,308.918 978.685,441.028C994.318,456.661 1005.01,474.664 1008.281,496.664C1012.824,527.424 1005.051,554.781 983.581,577.308L983.579,577.308ZM991.002,433.146C857.313,299.434 723.623,165.679 589.802,32.078C568.395,10.671 542.114,-0.043 511.903,0C481.296,0.044 455.015,11.264 433.345,32.912C350.242,115.949 267.182,199.03 184.079,282.089C133.8,332.368 83.433,382.603 33.242,432.97C-10.538,476.947 -11.219,546.065 32.059,589.45C165.77,723.402 299.614,857.246 433.566,990.935C477.61,1034.935 546.31,1035.044 590.332,991.122C724.416,857.345 858.348,723.326 992.191,589.285C1013.291,568.142 1023.302,542.014 1024.027,512.088C1023.467,481.503 1012.808,454.959 991.005,433.156L991.002,433.146Z" style="fill:rgb(69,28,21);fill-rule:nonzero;"/>
    </g>
    <g transform="matrix(0.058594,0,0,0.058594,-0.000001,0.000008)">
        <path d="M887.013,560.405C887.2,557.816 886.154,555.09 885.65,552.435C884.972,552.497 884.268,552.622 883.584,552.684C877.547,559.864 880.509,567.922 882.769,577.121C872.779,572.447 863.975,567.922 854.841,564.189C851.462,562.826 847.2,562.608 843.578,563.199C837.56,564.251 836.749,567.325 840.79,571.828C845.925,577.56 850.89,583.465 856.445,588.778C869.29,601.029 882.441,612.973 895.263,624.83C904.089,615.982 914.299,605.772 925.08,594.97C916.781,591.018 908.328,586.956 899.852,583.004C892.453,579.6 886.459,568.755 887.008,560.411L887.013,560.405Z" style="fill:rgb(69,28,21);fill-rule:nonzero;"/>
    </g>
    <g transform="matrix(0.058594,0,0,0.058594,-0.000001,0.000008)">
        <path d="M655.169,367.633C647.506,351.561 641.095,336.499 633.279,322.25C625.331,307.759 615.868,294.124 601.421,283.212C613.936,269.226 626.143,255.526 638.438,241.781C659.56,257.128 678.223,273.244 692.999,294.036C670.867,313.533 662.853,339.814 655.169,367.632L655.169,367.633ZM478.644,306.201C463.143,320.253 452.187,337.247 447.642,357.995C446.018,365.613 444.48,373.299 442.57,380.851C441.935,383.378 440.286,385.706 438.531,389.304C435.674,382.63 432.911,377.294 431.066,371.652C426.124,356.634 417.541,343.812 407.09,332.461C401.097,325.984 393.104,321.263 385.859,315.972C383.289,314.086 380.239,312.854 376.374,310.744C384.058,303.674 391.304,297.066 398.527,290.435C415.082,275.132 435.61,265.91 454.076,253.484C460.181,249.358 464.153,251.312 468.831,255.83C479.874,266.544 491.38,276.776 502.577,287.073C493.861,293.967 485.847,299.654 478.646,306.197L478.644,306.201ZM834.944,600.47C830.002,595.572 818.829,597.395 814.569,603.962C812.086,607.802 809.982,611.91 807.763,615.884C804.01,622.581 803.985,622.756 796.478,620.844C784.358,617.745 786.378,613.664 790.441,606.77C793.82,601.063 797.401,595.045 798.894,588.7C800.344,582.619 799.516,575.9 799.143,569.489C798.521,560.026 797.257,558.906 787.902,556.315C784.255,555.263 779.778,554.759 777.275,552.319C770.359,545.622 765.66,537.389 764.431,527.509C764.182,525.729 763.18,524.017 762.215,521.404C755.452,528.891 760.062,536.07 760.566,543.447C758.917,542.37 757.622,541.667 756.458,540.789C750.639,536.289 744.536,532.028 739.157,527.066C730.616,519.206 720.736,511.982 714.654,502.432C702.513,483.55 695.179,462.384 696.387,439.375C696.698,432.942 698.273,426.399 700.339,420.273C703.831,409.954 707.123,399.305 712.503,389.93C718.496,379.457 727.675,371.575 740.936,369.248C745.853,379.501 750.662,390.194 755.997,400.601C761.244,410.876 760.298,422.074 761.026,432.854C761.462,439.441 757.933,446.16 757.161,452.9C756.283,460.409 756.414,468.225 761.511,474.504C766.496,480.628 771.699,486.712 777.517,492.025C785.18,499.007 792.579,506.823 804.194,507.175C807.617,507.237 811.022,508.009 814.425,508.183C823.273,508.556 832.166,509.235 840.992,509.017C849.993,508.768 858.974,507.635 867.976,506.888C875.639,506.253 883.455,506.39 890.964,504.865C904.028,502.295 916.894,498.76 929.848,495.6C944.888,491.934 958.983,486.115 972.838,477.706C969.216,472.939 965.724,468.441 962.935,464.84C956.83,468.157 951.803,471.624 946.293,473.666C938.301,476.61 927.784,468.855 930.002,459.065C930.5,456.893 931.782,454.87 932.155,452.676C932.279,451.861 930.375,449.863 930.219,449.931C928.109,451.138 925.147,452.128 924.381,454.014C921.811,460.207 919.9,466.661 922.315,473.533C924.201,478.823 922.439,484.204 917.877,485.433C915.02,486.223 911.62,485.122 907.843,484.773C908.216,480.186 908.465,476.123 908.895,472.105C910.146,461.413 912.169,450.939 909.598,439.895C907.339,430.256 907.401,420.091 906.393,410.145C906.331,409.311 906.02,408.321 905.472,407.705C902.155,404.083 898.71,400.525 894.538,396.09C893.592,399.644 892.758,401.996 892.279,404.434C889.292,420.198 894.737,435.391 895.945,450.849C896.623,458.973 897.457,467.052 894.85,474.649C892.348,482.026 888.307,489.096 879.217,490.567C872.872,491.575 865.955,487.822 865.604,483.08C865.168,476.208 865.293,469.291 864.484,462.463C863.582,455.196 862.972,447.577 860.246,440.99C852.935,423.316 838.378,411.24 825.16,398.22C819.627,392.774 813.326,387.637 812.404,379.558C811.371,370.381 812.653,361.291 818.441,352.816C816.045,352.838 813.238,352.94 811.854,354.372C809.221,357.117 807.13,360.477 805.245,363.857C801.735,370.246 802.631,377.14 803.048,384.056C803.484,390.249 805.438,395.561 809.678,400.04C816.507,407.22 823.488,414.224 830.141,421.535C840.263,432.579 848.54,444.545 850.187,460.134C851.177,469.421 849.751,478.137 844.916,486.064C841.076,492.365 834.202,493.309 827.396,490.277C819.777,486.854 819.469,480.177 819.184,473.788C818.873,466.279 819.819,458.682 819.993,451.152C820.117,443.797 816.06,438.791 810.113,435.322C808.688,434.488 806.36,435.198 803.592,435.198C805.304,437.831 807.059,439.306 807.239,440.949C808.378,451.949 811.851,463.103 803.175,473.093C798.719,478.19 793.734,480.646 787.499,478.383C783.703,477.045 781.132,474.587 781.375,470.084C781.748,464.134 782.47,458.206 782.103,452.322C780.827,432.343 778.126,412.67 770.532,393.919C765.615,381.756 761.925,369.087 756.48,357.165C751.781,346.779 748.664,335.56 740.936,326.624C738.079,323.332 736.411,319.027 733.449,313.911C778.744,331.103 824.983,341.993 865.316,367.835C863.387,365.159 860.816,363.248 858.774,360.897C849.442,350.204 838.333,342.981 824.83,337.711C796.573,326.734 768.645,314.921 738.895,308.576C728.707,306.423 722.275,300.65 716.149,293.185C706.818,281.702 697.75,269.868 687.343,259.417C673.599,245.607 658.668,232.96 643.563,219.194C656.605,207.777 669.602,196.448 682.49,185.162C679.571,182.156 676.254,178.795 672.764,175.216C653.202,189.575 636.01,206.503 619.17,224.507C589.42,192.583 552.951,169.815 517.317,145.466C541.622,126.606 567.903,110.929 596.6,99.447C593.899,94.636 590.98,93.566 585.732,95.868C558.287,108.053 532.994,123.664 509.479,142.151C480.256,130.778 451.033,119.668 420.558,112.225C415.287,110.93 412.852,112.723 410.349,116.438C411.513,116.936 412.372,117.359 413.311,117.645C434.981,124.276 456.893,130.314 478.3,137.779C493.34,143.007 508.533,148.845 522.234,156.837C539.491,166.871 555.761,178.793 571.591,191.023C586.763,202.725 600.836,215.855 615.151,228.172C600.156,246.286 587.663,264.662 575.894,283.655C563.884,302.954 559.559,324.734 554.487,346.624C552.601,345.112 551.587,343.593 550.753,341.994C544.495,329.962 538.589,317.733 531.959,305.898C524.604,292.79 515.711,280.693 504.492,270.593C491.911,259.242 479.155,248.089 466.377,236.957C447.364,220.38 426.527,206.131 404.154,194.977C387.885,186.831 369.485,182.967 351.987,177.368C350.867,176.995 349.025,177.617 348.035,178.401C344.743,181.102 341.69,184.089 338.287,187.205C361.56,195.483 385.734,198.095 406.635,210.61C387.358,216.585 368.432,221.522 350.186,228.351C325.749,237.528 301.949,248.353 277.776,258.145C266.008,262.912 255.557,269.254 247.191,278.981C242.822,284.097 237.684,288.598 233.359,292.923C251.385,283.043 269.564,272.745 288.073,263.085C326.298,243.127 366.258,227.714 408.15,217.307C412.475,216.212 416.186,216.031 419.984,218.975C424.222,222.267 428.898,225.037 433.377,228.043C435.991,229.823 438.605,231.603 441.412,233.551C440.292,234.472 439.806,234.958 439.259,235.263C426.151,242.948 412.626,249.952 400.068,258.449C386.082,267.912 371.833,277.616 361.492,291.207C344.213,313.953 327.812,337.38 311.279,360.676C307.7,365.705 305.528,371.698 301.948,376.726C294.878,386.672 288.511,397.057 285.393,408.87C279.07,432.604 273.427,456.492 267.455,480.292C267.144,481.456 266.795,483.298 266.005,483.566C259.638,485.719 253.117,487.63 245.388,489.955C250.659,480.163 250.896,472.566 242.687,465.65C232.104,456.692 231.797,454.035 236.694,440.949C236.756,440.7 236.632,440.327 236.57,440.028C229.5,442.773 225.46,449.293 227.458,456.1C228.883,460.998 231.279,465.695 233.669,470.24C238.716,479.791 234.105,490.549 224.009,493.228C212.438,496.303 203.853,487.652 201.592,478.012C197.354,459.811 199.246,442.092 215.073,429.183C224.558,421.454 234.548,414.253 244.582,407.249C261.313,395.634 264.035,383.251 260.302,361.779C258.261,349.813 249.434,341.382 240.608,333.653C237.515,330.952 233.56,329.215 230.025,327.044C229.652,327.48 229.347,327.965 229.035,328.426C232.085,332.447 234.916,336.659 238.3,340.414C247.104,350.206 250.749,369.637 245.019,381.888C239.947,392.734 231.187,398.794 221.811,404.964C211.426,411.814 200.294,418.247 191.863,427.162C177.153,442.729 175.045,462.094 181.412,482.294C182.949,487.298 181.91,491.054 178.319,494.545C174.124,498.584 158.559,499.835 153.399,494.483C148.725,489.678 146.066,484.01 145.736,477.467C145.425,470.397 145.3,463.24 145.78,456.214C146.813,441.987 141.741,429.669 134.209,418.297C130.892,413.268 125.8,409.449 121.453,404.97C117.146,409.32 113.812,412.72 110.168,416.387C125.12,426.948 126.964,430.263 126.788,448.772C126.726,460.738 126.153,472.748 125.842,484.736C125.655,491.806 120.066,498.261 113.349,499.051C105.269,499.972 97.739,495.03 96.201,487.634C94.16,477.468 95.323,467.83 101.516,459.157C101.889,458.535 101.952,457.645 102.462,455.622C99.605,456.612 97.085,456.761 95.743,458.08C89.354,464.535 83.865,471.495 83.207,481.222C82.771,487.677 77.649,493.254 71.373,493.846C62.766,494.705 54.138,494.767 44.719,495.253C44.346,497.008 44.097,500.064 43.113,502.894C41.949,506.23 43.3,507.524 46.275,507.879C58.307,509.261 70.339,510.711 82.392,511.831C89.593,512.491 96.839,512.752 104.085,512.951C117.105,513.324 130.103,514.115 143.1,513.629C162.619,512.863 182.116,511.388 201.591,509.808C211.011,509.061 220.342,507.437 229.717,506.055C238.587,504.76 247.435,503.223 256.306,501.798C256.43,502.109 256.555,502.358 256.679,502.657C249.5,508.233 242.276,513.789 234.306,519.936C236.416,519.438 237.667,519.17 238.874,518.816C248.798,515.941 258.327,512.692 265.792,504.655C270.821,499.253 276.463,494.38 283.861,491.547C288.361,489.811 293.083,486.319 295.629,482.326C302.699,471.216 299.45,455.034 289.24,446.296C293.173,435.91 297.122,425.394 301.382,414.065C307.531,416.48 313.172,418.453 318.551,420.893C330.561,426.314 342.812,431.41 354.339,437.777C365.273,443.814 374.407,452.312 382.179,462.368C392.499,475.739 396.889,491.438 400.973,507.312C402.772,514.294 404.352,521.407 401.471,528.521C399.187,534.097 396.903,539.74 394.05,545.032C384.96,561.982 373.565,577.307 355.166,584.508C337.404,591.49 318.873,596.54 300.694,602.446C321.728,583.388 329.456,568.041 324.736,553.726C323,558.051 321.549,561.938 319.881,565.758C315.443,575.99 308.179,584.025 299.221,590.327C286.684,599.175 272.018,603.632 257.834,608.923C253.465,610.522 248.679,611.12 244.046,611.798C234.869,613.18 225.625,614.368 216.425,615.489C209.619,616.304 202.812,616.914 195.304,617.661C212.386,606.222 223.605,593.268 224.023,585.539C215.504,590.854 206.743,596.605 197.698,601.896C185.27,609.229 171.021,611.118 157.409,614.938C151.02,616.762 145.047,617.135 138.681,615.062C129.021,611.9 119.206,609.224 109.458,606.367C109.956,608.191 111.499,608.956 112.663,610.12C130.315,627.707 147.968,645.293 165.489,663.034C168.016,665.604 170.144,665.623 173.503,665.013C192.231,661.59 210.938,657.746 229.842,655.725C245.277,654.082 260.997,655.003 276.586,654.406C292.745,653.771 308.883,655.221 325.108,651.773C349.26,646.682 372.797,640.158 395.323,630.103C413.766,621.914 427.927,608.082 441.276,593.656C448.807,585.489 455.833,576.508 457.238,564.455C458.688,551.852 460.661,539.491 453.746,527.635C444.744,512.2 433.546,498.785 418.09,489.673C411.459,485.808 407.529,481.154 404.324,474.04C395.058,453.511 378.306,439.525 359.117,428.745C342.233,419.238 323.987,412.805 305.544,406.964C309.652,396.579 310.965,395.855 321.703,397.611C323.309,397.922 324.952,397.984 326.601,397.984C345.022,397.797 363.333,399.191 381.688,400.554C398.221,401.761 412.866,407.843 427.642,413.662C436.863,417.266 444.724,424.288 453.352,429.514C472.849,441.37 488.393,457.684 504.092,473.865C506.133,475.975 508.113,478.303 509.625,480.825C519.813,497.424 530.725,513.671 537.575,532.07C539.181,536.283 540.581,540.918 540.519,545.353C540.395,556.287 539.753,567.243 538.652,578.133C537.513,589.484 532.459,599.452 525.786,610.211C526.159,597.74 527.367,586.279 513.864,579.516C514.742,583.207 515.775,585.773 515.862,588.364C516.235,598.859 515.924,609.244 513.074,619.585C508.792,634.91 498.715,646.13 487.254,655.813C473.531,667.405 456.406,673.312 440.158,680.535C438.602,681.257 436.996,681.786 435.397,682.377L434.277,681.755C440.445,670.952 441.281,659.799 437.837,648.316C437.003,648.951 436.785,649.635 436.673,650.401C435.092,659.513 431.999,668.054 426.266,675.431C416.364,688.21 403.673,697.936 389.424,704.94C372.013,713.525 354.141,721.254 335.983,727.994C315.081,735.766 293.718,742.309 271.498,745.559C264.955,746.524 258.39,747.208 252.374,747.955C278.326,773.862 304.366,799.858 330.471,825.942C334.205,822.911 338.529,819.136 343.118,815.711C360.485,802.713 380.18,793.953 399.743,784.885C424.377,773.446 449.275,762.709 475.337,754.651C508.534,744.398 541.139,732.147 575.061,724.198C590.276,720.619 603.779,712.847 618.028,706.963C642.312,696.951 660.271,680.001 674.06,658.133C674.807,656.95 675.379,655.388 675.398,654.007C675.522,645.686 675.585,637.387 675.398,629.043C675.274,622.676 674.564,616.287 674.365,609.919C674.054,601.158 672.498,591.981 681.918,585.68C673.004,584.473 669.425,588.885 666.021,604.408C665.1,602.672 664.44,601.203 663.538,599.908C657.657,591.652 652.56,582.65 645.578,575.471C639.802,569.521 634.666,563.352 630.823,556.194C628.981,552.771 628.234,548.465 628.053,544.513C627.866,539.926 628.887,535.313 629.416,530.241C619.668,535.973 622.171,545.764 620.546,554.349C618.704,553.166 617.185,552.196 615.716,551.231C615.094,560.825 614.969,570.157 613.787,579.4C613.04,585.176 610.339,590.685 609.113,596.416C606.742,607.131 602.438,616.835 596.554,626.101C592.95,631.789 589.484,638.308 588.54,644.829C586.499,658.969 585.683,673.327 589.038,687.555C589.785,690.717 590.003,694.054 590.09,697.326C590.134,698.49 589.281,700.401 588.354,700.793C580.955,703.973 573.424,706.874 566.288,709.707C564.993,701.429 563.848,693.504 562.423,685.621C560.929,677.343 552.433,670.647 546.264,673.523C537.591,677.606 528.589,681.69 521.191,687.641C503.867,701.627 489.706,718.774 477.213,737.261C476.51,738.338 475.701,739.719 474.643,740.093C461.82,744.506 448.998,748.766 435.539,753.267C439.093,740.554 442.674,728.281 449.679,717.632C455.299,709.047 462.172,701.231 468.781,693.283C473.368,687.75 477.717,681.647 483.404,677.453C498.465,666.321 514.208,656.134 529.643,645.485C541.192,637.559 553.86,630.796 563.916,621.29C582.974,603.308 585.323,579.289 581.349,555.137C577.77,533.467 560.82,519.985 545.78,505.758C542.288,502.441 538.337,499.391 535.592,495.505C526.831,483.034 519.85,469.268 508.103,458.948C498.091,450.144 488.562,440.834 478.77,431.789C476.66,429.86 475.322,428.472 476.112,424.873C477.998,416.178 481.95,408.691 487.046,401.644C495.828,389.437 509.024,383.509 522.263,378.371C529.816,375.452 538.488,375.097 546.678,374.158C570.017,371.525 593.291,373.324 616.432,376.461C630.593,378.415 644.667,381.359 658.719,384.189C668.423,386.118 678.084,388.402 687.613,391.061C692.797,392.511 693.694,395.561 692.225,400.415C689.038,410.822 685.77,421.229 683.267,431.855C681.512,439.299 681.008,447.049 679.863,455.216C679.16,455.216 677.473,455.527 675.979,455.172C667.438,453.019 659.073,450.168 650.466,448.607C631.848,445.246 613.141,442.262 594.413,439.649C586.75,438.572 579.22,432.579 578.758,424.785C578.385,419.209 579.194,413.587 579.48,407.989C574.825,408.624 567.733,417.869 567.382,423.841C566.822,433.941 572.89,441.23 579.194,447.29C592.192,459.783 608.725,467.489 623.699,477.347C647.938,493.331 672.397,508.963 696.197,525.562C709.788,535.025 723.049,545.235 735.037,556.63C747.903,568.86 753.765,585.194 755.61,602.869C757.346,619.489 763.009,628.03 779.784,631.675C792.694,634.463 805.78,636.679 818.471,640.238C834.213,644.626 849.692,650.14 865.764,655.322C869.013,652.092 873.119,648.055 877.313,643.905C874.151,640.239 871.276,636.396 867.916,633.015C856.982,622.081 845.916,611.323 834.894,600.477L834.944,600.47Z" style="fill:rgb(69,28,21);fill-rule:nonzero;"/>
    </g>
</svg>
