<?xml version="1.0" encoding="UTF-8" standalone="no"?>
<!DOCTYPE svg PUBLIC "-//W3C//DTD SVG 1.1//EN" "http://www.w3.org/Graphics/SVG/1.1/DTD/svg11.dtd">
<svg width="100%" height="100%" viewBox="0 0 60 61" version="1.1" xmlns="http://www.w3.org/2000/svg" xmlns:xlink="http://www.w3.org/1999/xlink" xml:space="preserve" xmlns:serif="http://www.serif.com/" style="fill-rule:evenodd;clip-rule:evenodd;stroke-linejoin:round;stroke-miterlimit:2;">
    <g transform="matrix(0.058594,0,0,0.058594,0.000027,0.000059)">
        <path d="M511.96,1009.647C486.288,1009.647 462.174,999.658 444.021,981.532L42.429,579.94C4.995,542.48 4.995,481.522 42.429,444.116L444.048,42.497C462.201,24.344 486.288,14.355 511.96,14.355C537.605,14.355 561.692,24.344 579.845,42.497L981.464,444.116C999.617,462.242 1009.579,486.356 1009.579,512.028C1009.579,537.673 999.616,561.787 981.464,579.94L579.872,981.532C561.719,999.658 537.605,1009.647 511.96,1009.647Z" style="fill:rgb(232,203,158);fill-rule:nonzero;"/>
    </g>
    <g transform="matrix(0.058594,0,0,0.058594,0.000027,0.000059)">
        <path d="M511.919,14.436C487.304,14.435 462.71,23.798 444.025,42.483L42.444,444.104C5.055,481.493 5.055,542.503 42.444,579.892L444.025,981.513C462.722,1000.194 487.346,1009.559 511.958,1009.56C536.57,1009.561 561.143,1000.191 579.852,981.513L981.473,579.892C1018.833,542.501 1018.833,481.495 981.473,444.104L579.852,42.483C561.155,23.802 536.533,14.437 511.919,14.436Z" style="fill:rgb(232,203,158);fill-rule:nonzero;"/>
    </g>
    <g transform="matrix(0.058594,0,0,0.058594,0.000027,0.000059)">
        <path d="M14.559,512.068C14.802,538.782 24.56,561.749 43.699,580.888C154.41,691.572 265.121,802.31 375.831,913.02C398.933,936.095 421.9,959.305 445.217,982.218C461.418,998.176 481.204,1007.126 503.848,1008.797C534.579,1011.061 560.484,1000.467 582.319,978.606C669.092,891.563 756.081,804.736 843.016,717.801C888.869,671.975 934.803,626.202 980.522,580.241C1003.3,557.355 1012.331,529.59 1007.937,497.619C1004.918,475.568 994.432,457.373 978.797,441.738C877.791,340.92 776.919,239.941 675.993,139.042C644.13,107.206 612.295,75.37 580.459,43.508C563.584,26.66 543.313,16.794 519.591,15.069C489.022,12.832 463.144,23.345 441.525,45.099C396.049,90.844 350.331,136.374 304.747,181.985C218.055,268.677 131.389,355.397 44.643,441.982C25.261,461.31 14.883,484.277 14.559,512.069L14.559,512.068ZM511.423,-0C542.423,0.35 568.733,11.187 590.379,32.833C723.652,165.999 856.845,299.245 990.092,432.465C1014.353,456.699 1025.675,486.028 1023.356,520.155C1021.523,547.651 1010.282,571.211 990.712,590.781L612.726,968.767C603.642,977.851 594.908,987.394 585.23,995.804C539.458,1035.457 475.328,1033.004 432.413,990.224C374.968,932.887 317.605,875.443 260.214,818.025C184.816,742.654 109.5,667.257 34.048,591.913C9.652,567.544 -1.966,538.242 0.271,503.927C2.104,476.243 13.453,452.548 33.131,432.869C85.373,380.654 137.642,328.358 189.938,276.116C270.997,195.004 352.082,113.945 433.221,32.913C454.867,11.24 481.15,0.43 511.422,-0.001L511.423,-0Z" style="fill:rgb(69,28,21);fill-rule:nonzero;"/>
    </g>
    <g transform="matrix(0.058594,0,0,0.058594,0.000027,0.000059)">
        <path d="M373.54,153.717C386.668,163.502 402.276,167.222 417.614,170.673C435.028,174.636 452.765,175.094 469.371,166.333C477.188,162.209 485.329,158.435 492.662,153.609C501.881,147.544 507.919,138.325 513.904,129.267C514.389,128.485 514.821,127.65 515.333,126.76C557.035,176.549 611.325,186.172 656.02,159.593C657.233,160.725 658.554,161.938 659.794,163.178C759.668,263.052 859.542,362.873 959.39,462.774C987.964,491.348 987.964,532.376 959.417,561.112C950.009,570.574 940.547,580.009 931.086,589.443C930.035,590.467 928.956,591.411 927.393,592.786C920.223,584.295 913.025,576.208 906.259,567.797C884.721,541.083 860.487,517.307 832.02,497.952C807.705,481.428 783.849,464.229 759.048,448.46C747.672,441.209 734.814,436.06 722.144,431.181C703.409,423.984 684.405,417.325 665.158,411.53C652.434,407.702 639.091,405.896 626.071,403.012C611.191,399.723 596.284,397.135 580.973,396.489C571.269,396.085 561.618,393.632 551.968,392.122C549.838,391.799 547.709,391.583 545.552,391.502C515.307,390.343 485.034,389.13 454.789,388.159C441.607,387.755 428.398,388.186 415.217,387.674C401.739,387.162 388.26,386.515 374.89,384.871C368.043,384.008 361.466,380.935 354.78,378.806C346.558,376.218 338.229,373.792 330.142,370.827C322.513,368.024 319.683,363.549 319.872,356.324C320.007,350.852 324.67,346.188 331.382,343.681C338.741,340.958 345.642,336.942 353.163,334.839C361.897,332.386 371.035,331.146 380.093,329.825C392.897,328.019 405.729,326.536 418.587,325.081C421.849,324.704 425.191,325.027 428.453,324.758C441.23,323.653 453.981,322.467 466.731,321.281C477.352,320.284 488,319.313 498.621,318.235C509.377,317.184 520.105,315.782 530.861,314.973C535.875,314.623 540.943,315.35 545.957,315.323C548.383,315.323 550.782,314.73 553.208,314.46C565.77,313.166 578.412,312.33 590.893,310.524C601.864,308.934 612.728,306.534 623.484,303.92C635.372,301.036 647.341,298.205 658.716,293.892C667.207,290.738 675.348,285.994 682.653,280.629C692.465,273.459 691.576,262.299 681.683,255.29C673.893,249.791 666.237,243.753 656.452,242.593C634.59,240.032 613.941,231.136 591.217,232.323C572.213,233.32 553.073,230.921 533.961,230.409C518.677,229.978 503.365,230.086 488.054,229.978C486.356,229.978 484.684,229.978 482.959,231.11C494.011,232.458 505.063,233.59 516.089,235.127C528.624,236.825 541.266,238.254 553.667,240.842C570.542,244.4 587.201,248.902 603.968,253.107C607.985,254.104 612.648,255.344 613.322,259.954C613.699,262.919 612.405,266.909 610.465,269.254C608.551,271.491 604.912,273.163 601.866,273.513C587.202,275.157 572.51,276.451 557.819,277.53C538.949,278.932 520.053,279.74 501.21,281.358C485.764,282.679 470.345,284.862 454.925,286.588C443.064,287.909 431.23,289.338 419.342,290.335C401.173,291.845 382.978,292.923 364.836,294.405C359.957,294.809 355.132,295.942 350.333,296.912C341.572,298.664 332.757,300.335 324.05,302.465C314.426,304.837 304.803,307.371 295.314,310.363C284.424,313.813 273.237,316.833 263.101,321.873C255.526,325.62 249.245,332.117 242.749,337.804C232.209,347.023 229.028,360.178 225.281,372.875C222.073,383.712 224.014,394.198 227.33,404.819C229.945,413.122 235.174,419.187 240.808,425.522C247.844,433.447 253.801,442.424 259.705,451.266C264.908,459.083 269.032,467.575 274.235,475.392C284.694,491.216 286.042,508.387 283.104,526.556C281.082,539.118 278.494,551.599 270.704,561.815C261.539,573.811 251.565,585.24 241.375,596.4C218.138,621.928 188.648,637.347 156.3,647.968C153.254,648.965 151.421,648.372 149.345,646.243C120.448,617.292 91.307,588.583 62.626,559.362C35.912,532.109 36.209,490.892 63.192,463.936C165.519,361.447 267.981,259.039 370.416,156.631C371.359,155.714 372.33,154.852 373.543,153.72L373.54,153.717Z" style="fill:rgb(69,28,21);fill-rule:nonzero;"/>
    </g>
    <g transform="matrix(0.058594,0,0,0.058594,0.000027,0.000059)">
        <path d="M506.278,611.799C509.351,608.052 511.939,604.655 514.769,601.502C517.572,598.348 517.572,595.41 515.066,592.256C510.861,597.755 506.763,603.146 502.531,608.726C503.663,609.643 504.741,610.532 506.278,611.799ZM378.368,697.602C391.523,697.467 393.679,696.146 396.591,686.415C385.674,685.822 380.714,688.895 378.368,697.602ZM285.233,707.765C283.67,712.941 285.853,716.742 290.84,717.55C293.724,718.008 296.42,717.065 299.331,716.229C305.45,714.45 312.135,714.854 318.443,713.668C324.616,712.509 330.6,710.487 336.827,708.816C336.153,706.659 335.749,705.285 335.479,704.449C326.988,705.986 318.766,707.172 310.679,708.924C302.161,710.784 293.858,710.973 285.232,707.765L285.233,707.765ZM615.668,640.319C608.471,637.246 600.896,638.162 597.742,643.635C594.858,648.622 593.186,654.391 591.299,659.944C590.976,660.861 591.919,663.044 592.836,663.421C596.367,664.931 600.114,665.928 603.214,666.898C604.724,664.688 605.586,662.181 607.338,661.183C609.98,659.646 609.899,657.679 609.629,655.414C608.524,645.629 608.47,645.629 615.667,640.318L615.668,640.319ZM696.376,571.391C685.647,566.458 676.536,562.199 667.317,558.155C666.562,557.805 664.702,558.694 664.082,559.557C661.575,563.142 659.365,566.916 656.938,570.825C666.831,573.494 676.347,576.135 685.862,578.642C686.617,578.831 687.722,578.561 688.369,578.076C690.714,576.297 692.871,574.329 696.375,571.391L696.376,571.391ZM447.97,505.455C450.288,511.251 452.121,516.103 454.251,520.874C454.736,521.979 456.273,523.327 457.243,523.3C464.009,523.057 470.748,522.491 478.35,521.979C476.22,515.402 474.603,509.929 472.689,504.646C472.258,503.514 470.64,501.869 469.778,501.977C462.688,502.894 455.707,504.16 447.97,505.454L447.97,505.455ZM733.684,633.203C736.487,635.252 738.482,636.977 740.774,638.217C742.014,638.918 744.09,639.43 745.114,638.864C753.201,634.47 761.638,630.292 766.167,621.693C767.461,619.24 768.782,614.549 767.623,613.498C764.523,610.641 760.668,606.786 755.6,609.805C745.761,615.655 736.083,621.774 725.921,628.055C727.889,629.538 729.318,630.562 730.773,631.64C739.13,625.278 747.243,618.836 757.325,616.14C757.648,616.706 757.945,617.272 758.268,617.838C750.235,622.852 742.202,627.866 733.684,633.203ZM341.195,678.948C332.677,681.185 325.56,683.423 318.309,684.851C313.457,685.794 308.362,686.118 303.456,685.606C300.976,685.336 298.766,682.587 296.07,680.727C293.698,686.577 291.407,691.995 289.358,697.521C288.927,698.653 289.008,700.244 289.439,701.43C290.49,704.207 298.2,706.552 302.729,705.824C310.277,704.557 317.906,703.533 325.426,702.077C329.2,701.349 334.915,700.945 336.101,698.546C338.904,692.966 339.471,686.254 341.196,678.949L341.195,678.948ZM341.303,707.091C349.794,704.638 357.153,701.888 364.782,700.568C371.09,699.436 373.192,695.716 373.947,690.378C374.54,686.2 376.939,684.043 380.794,683.127C382.843,682.588 384.864,681.941 386.967,681.644C395,680.62 402.925,679.514 404.516,669.298C404.543,669.163 404.516,669.028 404.597,667.923C402.198,667.653 399.637,666.818 397.319,667.249C382.789,669.864 368.26,672.64 353.811,675.686C351.277,676.198 347.449,677.816 346.964,679.649C344.646,688.302 343.217,697.225 341.303,707.091ZM492.799,569.639C498.729,564.598 503.905,560.528 508.623,555.972C510.429,554.22 512.505,550.877 511.939,549.017C511.265,546.834 508.111,544.569 505.631,543.922C491.694,540.229 477.65,536.967 463.606,533.625C462.77,533.409 461.503,533.625 460.91,534.137C455.222,539.232 449.642,544.434 442.903,550.661C460.182,557.238 476.572,563.465 492.8,569.638L492.799,569.639ZM487.004,519.608C487.004,519.608 487.786,519.392 488.567,519.285C505.091,516.293 514.203,498.448 505.388,484.43C498.487,473.432 491.02,462.811 483.688,452.109C482.502,450.384 480.831,449.009 479.402,447.446C486.626,462.218 484.2,476.182 473.31,484.026C477.893,495.968 482.394,507.64 487.004,519.609L487.004,519.608ZM590.975,666.575C591.595,671.077 591.73,675.012 592.781,678.732C593.59,681.509 595.045,684.797 597.256,686.388C605.747,692.507 614.643,698.06 623.431,703.856C629.227,693.666 635.804,696.146 640.764,701.322C644.08,704.772 645.994,709.517 649.174,714.666L662.437,714.666C662.06,702.509 663.38,690.729 656.803,679.676C654.377,681.051 651.924,681.859 650.172,683.423C646.452,686.9 642.328,686.55 638.257,685.067C633.62,683.423 629.28,681.104 624.725,679.271C623.593,678.813 621.76,678.678 620.87,679.271C615.479,683.207 612.46,683.288 608.793,677.627C604.561,671.104 597.983,669.324 590.975,666.575ZM583.266,473.673C567.173,475.83 557.711,486.181 547.818,495.697C537.925,505.213 526.199,513.246 519.945,527.479C526.603,525.511 532.075,524.244 536.658,519.823C543.963,512.653 550.325,504.026 560.811,500.792C561.647,500.549 562.321,499.525 562.941,498.77C571.055,489.362 581.891,484.267 593.213,480.062C596.987,478.687 600.761,478.957 604.103,482.192C598.146,484.052 592.377,485.265 587.174,487.61C581.837,490.063 576.715,493.244 572.051,496.883C567.414,500.522 563.587,505.132 559.327,509.229C555.284,513.138 551.159,516.966 547.035,520.874C554.852,519.041 561.619,515.914 568.708,513.784C575.07,511.87 581.863,511.466 588.278,509.741C596.688,507.423 604.91,506.776 613.24,509.984C615.585,510.901 617.472,510.496 618.739,507.612C620.976,502.463 621.596,497.422 620.006,491.977C618.011,485.022 614.992,479.253 608.415,475.156C603.644,472.191 595.125,469.819 590.624,472.892C581.027,479.442 571.674,486.37 562.185,493.136C561.053,493.972 559.678,494.538 558.438,495.266C562.562,483.594 573.453,480.089 583.265,473.674L583.266,473.673ZM368.314,495.481C355.267,474.994 335.562,459.979 325.857,437.605C329.146,440.624 332.327,443.778 335.184,447.229C342.381,455.909 349.363,464.778 356.588,473.458C361.71,479.631 367.047,485.642 372.358,491.654C373.382,492.84 374.541,494.565 375.862,494.781C380.552,495.563 385.297,496.021 390.041,496.129C394.111,496.237 395.891,492.975 393.545,489.498C391.281,486.101 388.612,482.894 385.728,479.982C380.067,474.267 374.11,468.876 368.395,463.215C355.429,450.411 342.624,437.418 329.524,424.694C326.882,422.133 323.594,419.788 320.116,418.548C317.582,417.658 312.999,417.631 311.679,419.195C309.603,421.621 307.312,425.368 309.927,429.358C311.598,431.973 312.623,435.019 314.402,437.553C326.856,455.102 339.526,472.489 351.845,490.091C355.808,495.725 360.579,497.531 368.315,495.482L368.314,495.481ZM691.173,610.694C694.354,612.877 696.726,614.441 699.395,616.247C708.803,603.901 719.693,593.442 732.309,584.843C722.012,595.626 711.714,606.435 701.066,617.622C703.843,619.859 705.81,621.423 707.563,622.825C719.801,611.126 731.339,599.615 743.469,588.725C752.715,580.449 757.675,570.152 760.236,558.372C760.398,557.644 760.452,556.323 760.128,556.081C756.543,554.059 753.038,551.337 749.184,550.501C742.229,548.964 736.784,553.493 731.069,556.701C709.234,568.858 691.389,585.598 675.215,604.603C679.69,605.493 683.383,608.862 687.965,604.28C699.044,593.255 710.555,582.634 722.173,572.175C729.613,565.463 737.35,558.966 747.243,556.001C749.642,555.273 752.284,555.3 754.818,554.977C754.225,556.621 753.578,557.187 752.796,557.403C742.66,560.449 733.846,565.76 726.486,573.307C721.095,578.806 716.162,584.791 710.851,590.371C704.489,597.137 697.939,603.715 691.173,610.696L691.173,610.694ZM474.145,653.744C467.325,644.417 462.904,633.284 452.849,626.41C450.423,624.739 448.374,622.528 446.137,620.56C435.786,611.476 424.733,604.332 410.042,605.195C402.171,605.626 397.588,610.209 393.787,616.247C390.606,621.261 393.895,625.197 396.348,629.132C399.044,633.499 402.036,637.677 405.594,642.988C400.391,642.368 396.483,642.071 392.655,641.425C382.385,639.646 372.168,636.788 361.817,636.115C344.295,634.956 326.719,636.034 309.225,638.622C302.971,639.512 302.594,644.148 300.518,648.03C300.06,648.866 299.682,649.782 299.467,650.699C299.386,651.076 299.764,651.723 300.114,651.993C304.751,655.524 308.983,659.945 314.185,662.29C323.242,666.387 332.623,668.84 343.163,666.657C360.307,663.072 377.721,660.915 395.028,658.139C394.947,657.627 394.866,657.088 394.812,656.522C387.318,656.118 379.662,654.581 372.33,655.498C356.695,657.412 341.222,656.684 325.776,654.635C322.218,654.15 318.686,653.314 315.29,652.155C311.893,651.023 308.713,649.352 305.451,647.869C307.877,647.33 310.33,647.303 312.082,648.381C320.87,653.772 330.439,652.424 339.928,652.047C359.283,651.346 378.584,647.734 397.993,651.023C402.791,651.832 408.344,651.266 412.28,653.53C419.774,657.789 427.16,655.282 435.571,656.441C434.439,654.931 434.169,654.338 433.711,653.961C422.47,644.85 415.677,632.396 408.668,620.13C407.913,618.863 407.239,617.461 406.997,616.033C406.781,615.009 407.294,613.823 407.509,612.717C408.372,613.472 409.45,614.119 410.043,615.062C413.628,620.75 416.513,626.977 420.718,632.126C426.271,639 433.064,644.903 438.968,651.508C442.365,655.309 446.031,655.309 450.937,654.15C441.098,643.906 430.585,634.93 426.568,620.993C427.161,621.155 427.565,621.155 427.754,621.316C428.644,622.286 429.479,623.311 430.315,624.308C440.532,636.492 450.586,648.812 465.952,655.065C469.16,656.359 471.532,656.494 474.147,653.744L474.145,653.744ZM696.268,483.486C689.583,484.591 684.973,487.044 681.226,491.034C668.664,504.297 655.644,517.182 643.918,531.172C637.341,539.043 630.062,547.049 627.852,557.751C630.817,561.148 633.055,561.336 635.103,556.915C636.532,553.815 638.553,550.958 640.467,548.1C645.238,541.037 649.848,533.84 655.077,527.128C656.721,524.998 660.118,524.244 662.733,522.869C662.976,523.3 663.245,523.759 663.515,524.217C650.522,535.377 645.508,551.308 638.284,566.323C639.955,566.997 641.627,567.59 643.244,568.345C646.991,570.07 649.848,569.908 652.032,565.622C653.973,561.821 656.938,558.586 658.96,554.839C661.278,550.499 664.513,550.176 668.422,552.009C678.046,556.565 687.669,561.12 697.131,565.999C699.557,567.239 701.201,567.347 703.277,565.702C707.105,562.656 710.96,559.556 715.003,556.779C723.683,550.929 731.824,544.029 742.391,541.575C745.545,540.847 746.758,538.798 747.782,536.049C751.906,524.619 753.605,512.785 753.039,500.736C752.904,497.798 751.341,494.213 749.238,492.191C740.288,483.646 729.775,478.12 716.863,479.98C710.232,480.923 703.843,482.649 699.449,488.714C695.432,494.294 690.796,499.389 686.24,504.538C682.682,508.608 678.962,512.544 675.107,516.291C673.463,517.881 671.306,518.906 669.365,520.173C669.015,519.715 668.664,519.256 668.287,518.798C677.371,507.341 686.429,495.939 696.268,483.485L696.268,483.486ZM446.542,750.275C444.601,756.637 442.633,762.918 440.773,769.199C440.584,769.9 440.773,771.113 441.285,771.517C445.409,774.914 449.156,779.496 453.928,781.221C467.272,786.073 481.37,784.698 494.902,782.488C507.41,780.466 519.594,776.611 531.779,772.999C543.963,769.441 555.851,764.75 568.09,761.273C589.116,755.289 608.741,746.743 625.777,732.807C627.367,731.54 628.634,729.896 630.063,728.413C629.793,728.036 629.524,727.685 629.254,727.281C627.691,727.901 625.965,728.251 624.644,729.195C609.71,739.6 593.671,747.822 576.661,754.265C575.124,754.831 573.211,754.562 571.458,754.669C571.377,754.211 571.269,753.752 571.188,753.294C579.464,749.439 587.982,746.07 595.934,741.73C604.021,737.282 611.542,731.891 619.305,726.931C610.814,723.157 605.988,730.166 599.519,731.81C592.834,733.481 586.122,735.153 579.463,736.824C579.328,736.42 579.166,736.042 579.032,735.638C586.661,731.406 594.236,727.12 602.996,722.187C596.661,720.3 591.701,719.168 587.038,717.254C583.776,715.933 580.919,715.879 577.684,717.038C573.371,718.521 569.004,719.815 564.583,720.974C547.304,725.611 529.917,729.897 512.718,734.83C503.148,737.58 493.794,735.234 484.333,735.207C481.556,735.18 478.78,734.479 476.003,734.102C477.647,732.673 479.292,732.161 480.963,731.703C490.02,729.142 499.293,727.147 508.081,723.859C517.354,720.409 518.109,716.635 512.61,708.143C511.909,707.065 511.127,705.96 510.238,705.016C493.525,686.847 472.391,680.054 448.265,680.728C437.779,681.025 429.153,694.692 435.164,703.399C447.995,697.576 465.652,698.547 470.908,705.475C470.477,705.691 470.099,706.014 469.668,706.095C469.048,706.257 468.266,706.445 467.754,706.23C461.311,703.022 454.68,704.801 448.022,704.909C439.692,705.071 431.039,715.907 435.137,723.347C438.695,729.79 441.795,736.529 445.381,742.971C447.322,746.475 449.856,749.656 452.174,752.999L450.988,753.969C449.451,752.702 447.942,751.435 446.54,750.276L446.542,750.275ZM341.411,540.984C340.629,543.114 339.066,545.89 338.661,548.909C338.311,551.497 338.499,554.759 339.793,556.888C348.177,570.447 357.045,583.683 365.51,597.188C370.2,604.628 376.239,607.162 383.194,604.358C378.692,598.239 374.137,592.039 369.581,585.866C370.201,585.354 370.821,584.842 371.414,584.303C372.681,585.489 374.002,586.594 375.08,587.888C378.692,592.12 382.25,596.46 385.782,600.746C387.858,603.253 390.23,603.819 393.087,602.175C401.767,597.188 410.42,592.12 419.181,587.322C420.502,586.567 422.901,586.028 423.898,586.702C431.176,591.716 438.077,597.323 445.463,602.256C448.213,604.089 452.58,606.434 455.033,605.491C461.152,603.092 466.597,598.968 472.339,595.544C462.742,590.018 454.089,584.815 445.194,580.017C432.336,573.089 420.124,565.245 408.371,556.538C398.963,549.556 391.901,540.607 384.002,532.331C382.735,530.983 382.735,528.449 382.142,526.454C382.735,526.292 383.301,526.104 383.867,525.915C384.541,526.966 385.161,528.045 385.916,529.069C389.151,533.598 391.739,539.016 395.944,542.413C405.46,550.203 415.272,557.94 425.893,563.978C441.501,572.847 457.378,581.5 474.873,586.352C476.356,586.756 478.836,587.242 479.456,586.487C482.772,582.578 485.629,578.292 488.19,574.761C471.396,568.103 455.114,561.66 438.159,554.894C437.108,555.864 435.302,557.94 433.091,559.207C431.689,559.989 429.614,559.584 427.861,559.719C428.104,558.021 427.726,555.756 428.67,554.759C432.66,550.608 437.027,546.834 441.313,542.952C445.734,538.962 450.236,535 455.061,530.741C450.667,528.746 447.082,527.075 443.443,525.431C443.524,525.108 443.605,524.784 443.686,524.488C445.034,524.299 446.382,524.111 448.134,523.868C447.244,521.873 446.436,520.283 445.762,518.638C444.252,514.837 442.231,511.117 441.476,507.154C440.991,504.539 440.452,500.604 445.169,500.01C448.215,499.687 451.315,499.282 454.361,498.743C459.078,497.934 463.769,497.018 468.864,496.074C466.627,490.683 465.171,485.83 458.944,485.399C451.396,484.86 445.924,480.358 440.694,475.533C428.159,463.969 431.502,446.689 440.209,438.009C444.576,433.696 449.159,432.483 453.876,434.532C442.5,437.551 435.357,451.002 440.182,461.731C444.172,470.6 451.369,476.449 461.154,477.986C463.661,478.39 467.138,476.638 469.241,474.778C471.586,472.675 473.096,469.468 474.551,466.556C477.354,461.111 477.651,455.315 474.659,450.005C467.839,437.821 457.164,431.27 443.794,426.903C429.372,422.186 418.967,426.472 409.316,436.365C408.319,437.443 406.728,438.414 406.459,439.654C404.922,447.121 402.631,454.615 402.523,462.163C402.2,479.2 402.927,496.236 409.127,512.114C400.959,511.036 392.71,510.874 385.001,508.771C376.024,506.318 367.964,507.774 359.824,510.981C360.228,512.895 361.199,514.674 360.875,516.238C358.179,530.121 364.865,541.254 371.792,551.982C377.318,560.473 384.057,568.156 390.23,576.243C390.338,576.351 390.095,576.782 389.745,577.968C387.885,576.593 385.971,575.704 384.758,574.194C374.703,561.578 364.756,548.909 354.836,536.212C354.189,535.349 353.623,534.19 353.461,533.112C352.652,527.855 351.951,522.572 351.008,515.536C348.339,519.93 343.972,523.785 344.538,526.696C346.91,538.692 350.468,550.499 358.879,560.149C361.548,563.168 363.111,567.131 365.187,570.635C364.486,571.12 363.758,571.552 363.03,572.01C355.886,561.713 348.689,551.415 341.411,540.983L341.411,540.984ZM590.975,602.041C591.892,601.286 592.781,600.504 593.725,599.75C597.148,594.413 600.949,589.237 603.861,583.63C605.317,580.907 605.964,577.133 605.398,574.168C604.347,568.885 603.915,563.439 600.088,558.776C597.042,555.029 595.775,549.826 593.079,545.702C591.623,543.357 589.17,540.85 586.663,540.068C574.479,536.294 563.507,539.637 553.345,546.834C550.488,548.856 547.468,550.608 544.503,552.468C552.806,538.1 566.365,535.512 582.593,536.078C576.609,531.549 571.244,530.336 565.637,531.307C553.857,533.356 543.452,539.097 534.745,546.753C517.708,561.795 505.848,580.718 497.464,601.798C497.033,602.849 497.599,604.332 497.707,605.626C506.225,594.709 512.048,582.47 524.798,574.275C522.129,578.615 520.135,581.877 518.221,584.95C520,586.406 521.618,587.7 523.073,588.805C526.254,585.355 529.435,581.931 532.13,579.02C530.162,576.297 528.437,573.898 526.739,571.553C527.251,570.987 527.79,570.448 528.302,569.936C530.836,571.338 533.37,572.713 535.068,573.683C539.192,570.071 543.182,566.701 547.037,563.143C550.865,559.612 554.234,555.514 558.305,552.306C563.75,548.074 573.643,549.017 576.932,554.004C575.18,553.842 573.751,553.519 572.349,553.546C567.335,553.6 562.132,552.737 558.17,557.293C551.377,565.057 543.667,572.038 537.602,580.314C527.763,593.765 518.867,607.998 509.729,622.016C505.308,628.782 501.184,635.791 497.356,641.991C506.144,653.313 516.495,651.884 527.17,648.514C538.627,644.848 548.358,638.109 557.55,630.615C558.628,629.698 559.221,627.919 559.518,626.464C561.243,618.215 565.934,614.792 574.021,616.086C574.587,616.194 575.423,616.194 575.8,615.87C580.895,611.314 585.936,606.678 590.977,602.041L590.975,602.041ZM321.059,461.112C316.611,453.942 311.597,445.855 306.691,437.768C305.128,435.207 303.807,432.565 302.405,429.951C298.847,422.996 300.815,420.327 305.208,413.777C308.793,408.467 312.675,407.981 316.718,409.572C323.808,412.375 331.113,415.664 336.962,420.436C347.529,428.981 357.099,438.793 367.18,448.147C373.461,446.664 380.308,445.317 386.966,443.268C388.88,442.675 391.09,440.384 391.683,438.416C395.106,426.825 401.414,419.277 414.084,416.365C423.33,414.235 432.441,413.481 441.445,414.586C456.082,416.365 468.456,423.94 478.241,434.723C484.926,442.109 490.129,450.843 496.14,458.849C497.515,460.628 499.402,462.488 501.45,463.189C515.198,468.014 529,472.57 542.774,477.153C543.744,477.476 545.146,477.719 545.874,477.261C551.373,473.784 556.63,469.929 562.183,466.505C574.691,458.822 588.385,453.35 602.807,458.121C615.072,462.191 626.313,469.362 629.952,483.514C631.408,489.067 632.621,494.674 633.834,500.281C634.131,501.548 634.454,503.084 633.996,504.163C630.276,513.247 636.206,516.482 643.727,519.286C653.971,504.945 660.71,487.235 678.205,476.91C673.703,474.996 670.28,473.406 666.721,472.085C654.159,467.341 641.247,463.486 629.036,457.96C611.326,449.9 592.779,444.859 574.152,439.791C553.854,434.265 533.501,428.954 513.176,423.617C504.146,421.272 494.98,419.439 486.139,416.554C483.497,415.691 481.745,411.998 478.726,408.71C482.096,407.793 483.956,406.85 485.762,406.877C505.332,407.443 524.957,407.578 544.447,409.087C557.575,410.111 570.595,413.13 583.588,415.449C595.152,417.498 606.798,419.196 618.173,422.107C653.297,431.137 687.829,442.082 721.632,455.21C738.291,461.68 753.683,470.225 768.105,480.846C783.848,492.437 800.183,503.274 816.169,514.542C824.768,520.58 833.286,526.753 841.778,532.953C846.9,536.673 852.911,539.746 856.712,544.544C868.654,559.586 878.008,576.245 883.076,594.926C886.499,607.407 885.529,619.915 882.24,632.45C880.623,638.65 877.55,643.34 873.021,647.654C865.338,654.878 857.898,662.372 850.62,670.028C847.493,673.317 845.525,672.562 844.231,668.869C838.948,653.746 833.826,638.543 828.623,623.339C825.9,615.279 823.097,607.246 820.509,599.132C813.689,578.106 800.777,561.635 783.471,548.292C777.487,543.682 771.61,538.911 765.356,533.951C764.682,536.889 763.739,539.612 763.55,542.415C763.442,543.952 764.062,546.135 765.194,547.078C773.227,554.006 773.874,559.424 769.507,569.209C765.706,577.835 758.185,583.199 753.09,590.586C751.203,593.282 748.966,595.681 746.674,598.484C748.049,600.991 749.477,603.525 750.529,605.493C755.759,604.361 760.395,602.824 765.166,602.447C770.962,602.016 778.779,608.566 778.429,614.119C778.213,617.65 776.003,621.856 773.361,624.336C766.838,630.428 764.708,637.248 764.061,646.171C762.821,663.127 752.119,674.934 738.29,683.91C732.036,687.953 726.133,692.994 718.073,693.345C714.407,693.534 712.682,692.24 711.819,688.682C707.856,672.427 701.306,657.278 691.602,643.557C689.23,640.241 687.046,636.818 684.863,633.583C688.718,633.071 696.913,637.977 700.498,643.584C704.002,648.921 707.156,654.448 710.795,659.677C711.846,661.214 714.03,661.941 715.701,663.074C716.159,662.616 716.618,662.184 717.076,661.726C715.863,658.815 715.081,655.607 713.356,652.992C706.563,642.614 698.719,633.206 687.639,626.925C678.096,621.48 668.958,615.253 659.092,610.508C653.242,607.651 646.368,606.734 639.926,605.305C636.26,604.496 632.405,604.281 628.631,604.065C620.679,603.661 616.662,605.197 609.384,611.478C612.673,610.777 614.856,610.13 617.094,609.78C628.578,608.055 639.953,607.3 650.278,614.39C654.591,617.382 659.147,620.051 663.568,622.908C664.646,623.609 665.886,624.31 666.641,625.334C674.755,636.413 683.3,647.169 690.525,658.787C694.461,665.041 696.294,672.67 698.558,679.867C699.232,682.104 698.261,684.881 698.046,687.415C697.426,687.496 696.752,687.604 696.105,687.658C695.081,685.906 693.571,684.315 693.113,682.428C689.285,666.631 680.578,653.126 672.383,639.54C669.04,634.014 663.272,629.836 658.204,625.523C654.592,622.477 650.117,620.455 646.316,617.598C638.391,611.56 630.061,611.479 621.219,615.091C618.523,616.169 615.747,617.086 613.402,617.921C618.739,618.46 624.427,618.325 629.711,619.727C637.555,621.803 643.675,626.978 648.311,633.664C650.387,636.629 652.435,637.815 655.886,635.632C657.719,634.473 660.091,634.203 662.248,633.529C662.356,633.933 662.464,634.311 662.571,634.661C659.794,636.386 657.018,638.084 654.187,639.756C651.626,641.293 650.09,639.648 648.31,638.031C644.213,634.23 640.115,630.429 635.613,627.141C626.232,620.294 616.663,623.367 607.12,627.114C602.807,628.812 599.276,631.211 597.47,635.659C597.362,635.929 597.416,636.279 597.389,637.088C611.919,632.398 624.157,637.87 635.613,646.712C632.19,645.715 628.55,645.175 625.369,643.612C621.056,641.482 617.875,643.935 615.206,646.092C613.885,647.197 614.209,650.702 614.289,653.101C614.397,658.546 617.874,662.617 619.977,667.28C624.398,677.065 633.59,677.766 641.381,681.297C642.271,681.701 643.753,681.567 644.643,681.081C648.228,679.14 651.706,677.011 656.127,674.423C651.302,665.743 646.477,657.117 641.813,648.652C646.018,650.269 651.329,651.752 653.97,656.901C660.655,670.218 668.23,683.238 670.494,698.279C671.303,703.589 671.195,709.035 671.545,714.749C675.157,714.372 678.635,713.994 682.139,713.671C682.274,713.994 682.409,714.318 682.57,714.668C681.653,715.369 680.737,716.043 679.793,716.744C666.773,726.233 653.834,735.856 640.679,745.183C619.222,760.36 597.71,775.051 572.263,783.488C553.016,789.823 534.82,799.258 516.032,806.967C503.902,811.954 491.313,815.404 478.158,816.483C470.475,817.103 462.847,818.397 455.164,818.801C444.462,819.367 434.219,816.483 426.374,809.447C421.01,804.649 413.192,801.872 411.251,793.408C409.499,785.618 410.011,778.07 411.574,770.468C412.76,764.565 414.593,758.796 415.941,752.946C417.235,747.366 413.515,743.565 410.604,739.791C405.159,732.782 396.883,730.491 388.877,728.146C372.595,723.294 356.26,725.882 340.274,729.197C323.857,732.62 307.953,738.416 291.536,741.57C283.368,743.16 277.168,747.662 270.079,750.762C269.189,751.166 268.354,751.759 267.491,752.191C259.431,756.261 259.404,756.261 252.988,749.792C247.866,744.697 242.798,739.522 237.65,734.346C259.404,712.619 279.702,690.083 295.229,663.234C292.722,661.266 290.323,659.325 287.87,657.492C279.81,651.454 281.05,638.245 290.404,634.552C296.577,632.099 303.128,630.428 309.651,629.215C313.101,628.595 315.312,627.328 315.986,624.147C318.358,613.445 320.919,602.77 322.563,591.961C323.803,583.874 324.153,575.598 324.126,567.43C324.099,554.76 319.22,543.115 315.635,531.173C312.4,520.39 309.354,509.5 306.955,498.502C305.688,492.706 307.036,486.803 309.974,481.412C310.81,479.902 310.567,477.8 311.43,476.317C314.476,471.222 317.792,466.262 321.054,461.113L321.059,461.112Z" style="fill:rgb(69,28,21);fill-rule:nonzero;"/>
    </g>
    <g transform="matrix(0.058594,0,0,0.058594,0.000027,0.000059)">
        <path d="M417.507,914.681C425.837,900.61 433.681,887.266 445.003,876.403C461.069,860.984 479.373,849.123 500.614,841.925C511.882,838.124 523.069,833.865 534.094,829.39C537.814,827.88 540.779,824.646 544.418,822.84C557.896,816.02 571.455,809.47 585.015,802.865C602.968,794.077 620.813,785.02 638.955,776.636C650.843,771.11 660.79,763.373 669.901,754.1C674.861,749.086 680.549,744.773 685.913,740.136C686.506,739.624 687.153,739.085 687.881,738.653C696.426,733.72 701.656,736.335 701.575,746.012C701.359,763.669 694.512,779.303 685.131,793.779C679.335,802.729 673.054,811.543 665.776,819.28C659.333,826.181 651.705,832.219 643.779,837.395C626.985,848.285 610.11,859.23 592.454,868.557C577.87,876.267 562.478,882.763 546.816,887.831C519.886,896.511 494.17,907.644 469.073,920.502C465.623,922.227 461.66,922.874 458.021,924.276C451.929,926.675 445.998,929.452 439.852,931.716C438.342,932.282 435.755,932.282 434.73,931.339C428.853,926.056 423.327,920.395 417.505,914.68L417.507,914.681Z" style="fill:rgb(69,28,21);fill-rule:nonzero;"/>
    </g>
    <g transform="matrix(0.058594,0,0,0.058594,0.000027,0.000059)">
        <path d="M447.105,943.861C450.555,941.92 453.386,940.276 456.27,938.793C473.145,929.897 491.044,923.859 509.321,918.468C523.985,914.128 538.461,909.033 553.018,904.235C559.353,902.132 565.822,900.407 572.184,903.238C575.634,904.748 579.328,907.228 581.241,910.328C583.074,913.32 579.031,919.871 575.095,922.135C568.679,925.828 562.075,929.225 555.821,933.133C552.937,934.912 550.591,937.581 548.084,939.98C536.196,951.356 524.389,962.839 512.474,974.188C507.271,979.202 501.584,980.927 494.144,978.501C483.307,974.943 473.468,969.983 465.273,962.031C459.396,956.289 453.655,950.413 447.104,943.862L447.105,943.861Z" style="fill:rgb(69,28,21);fill-rule:nonzero;"/>
    </g>
    <g transform="matrix(0.058594,0,0,0.058594,0.000027,0.000059)">
        <path d="M293.412,788.144C309.37,781.216 325.463,773.426 342.15,767.226C351.774,763.695 362.017,764.935 370.023,772.563C372.126,774.531 373.635,777.846 373.959,780.704C375.576,794.587 371.856,807.472 365.171,819.441C360.319,828.121 354.658,836.397 349.671,844.403C330.774,825.533 312.471,807.203 293.413,788.145L293.412,788.144Z" style="fill:rgb(69,28,21);fill-rule:nonzero;"/>
    </g>
    <g transform="matrix(0.058594,0,0,0.058594,0.000027,0.000059)">
        <path d="M222.165,641.802C228.365,634.955 234.161,627.731 240.819,621.423C251.79,610.991 263.355,601.206 274.623,591.097C279.233,587 284.247,584.385 290.608,586.434C289.745,599.023 286.295,610.668 280.58,621.666C274.057,634.255 263.247,639.781 249.661,641.156C244.647,641.695 239.795,643.339 234.808,643.933C230.926,644.391 226.991,644.014 223.055,644.014C222.758,643.286 222.462,642.558 222.165,641.804L222.165,641.802Z" style="fill:rgb(69,28,21);fill-rule:nonzero;"/>
    </g>
    <g transform="matrix(0.058594,0,0,0.058594,0.000027,0.000059)">
        <path d="M182.838,678.11C197.017,676.331 211.385,674.39 225.807,672.773C230.201,672.288 234.73,672.881 239.124,672.665C242.844,672.476 245.162,674.228 245.162,677.625C245.135,681.399 245.216,685.982 243.248,688.785C236.832,697.923 229.473,706.361 222.464,715.095C221.979,715.715 221.278,716.2 221.116,716.362C208.312,703.585 195.696,690.942 182.838,678.111L182.838,678.11Z" style="fill:rgb(69,28,21);fill-rule:nonzero;"/>
    </g>
    <g transform="matrix(0.058594,0,0,0.058594,0.000027,0.000059)">
        <path d="M793.261,725.467L751.775,766.953C752.368,759.486 753.123,751.588 753.662,743.662C754.417,733.392 754.686,723.094 755.872,712.905C756.222,709.778 758.325,706.058 760.805,704.144C765.226,700.774 770.267,702.715 775.173,704.441C785.659,708.134 789.541,717.165 793.261,725.467Z" style="fill:rgb(69,28,21);fill-rule:nonzero;"/>
    </g>
    <g transform="matrix(0.058594,0,0,0.058594,0.000027,0.000059)">
        <path d="M590.983,602.035C587.398,604.946 584.46,603.464 582.33,600.31C580.173,597.075 581.44,594.137 584.271,591.738C585.861,590.39 587.182,588.557 588.961,587.56C590.309,586.805 592.546,586.401 593.759,587.075C594.945,587.695 596.05,589.905 595.916,591.28C595.619,594.137 594.487,596.941 593.733,599.717C592.79,600.499 591.9,601.254 590.983,602.035Z" style="fill:rgb(69,28,21);fill-rule:nonzero;"/>
    </g>
    <g transform="matrix(0.058594,0,0,0.058594,0.000027,0.000059)">
        <path d="M420.472,507.197C419.663,504.394 418.531,501.671 418.046,498.84C415.755,485.227 413.302,471.614 411.496,457.947C410.903,453.149 411.9,448.108 412.628,443.229C412.898,441.558 414.542,440.048 416.348,438.781C411.011,462.287 420.553,484.419 420.472,507.197Z" style="fill:rgb(69,28,21);fill-rule:nonzero;"/>
    </g>
    <g transform="matrix(0.058594,0,0,0.058594,0.000027,0.000059)">
        <path d="M422.359,546.831C418.423,545.645 415.189,545.025 412.277,543.677C406.751,541.143 406.427,539.687 409.5,534.35C412.115,529.767 415.323,532.032 418.153,533.919C420.579,535.563 422.816,537.558 424.784,539.742C425.647,540.659 426.213,542.734 425.727,543.785C425.161,545.133 423.382,545.968 422.357,546.831L422.359,546.831Z" style="fill:rgb(69,28,21);fill-rule:nonzero;"/>
    </g>
    <g transform="matrix(0.058594,0,0,0.058594,0.000027,0.000059)">
        <path d="M501.49,752.877C504.267,750.936 506.908,747.836 509.847,747.54C511.761,747.351 514.78,750.91 515.939,753.417C516.478,754.603 514.241,758.134 512.435,759.078C507.475,761.693 505.588,756.275 502.165,754.657C501.922,754.091 501.734,753.471 501.491,752.878L501.49,752.877Z" style="fill:rgb(69,28,21);fill-rule:nonzero;"/>
    </g>
    <g transform="matrix(0.058594,0,0,0.058594,0.000027,0.000059)">
        <path d="M541.679,754.955C539.226,754.254 536.153,753.284 536.476,749.186C536.799,745.547 538.282,742.743 542.649,743.202C545.884,743.499 549.038,744.253 549.469,748.189C549.819,751.343 545.722,755.063 541.679,754.955Z" style="fill:rgb(69,28,21);fill-rule:nonzero;"/>
    </g>
    <g transform="matrix(0.058594,0,0,0.058594,0.000027,0.000059)">
        <path d="M492.961,725.338C487.624,719.677 482.286,714.043 477.596,709.056C481.963,707.708 493.716,718.626 492.961,725.338Z" style="fill:rgb(69,28,21);fill-rule:nonzero;"/>
    </g>
    <g transform="matrix(0.058594,0,0,0.058594,0.000027,0.000059)">
        <path d="M564.169,598.841C559.398,598.949 556.459,595.471 558.454,592.156C561.257,587.493 564.843,583.152 568.724,579.406C569.721,578.463 573.738,579.487 575.49,580.781C576.649,581.644 577.269,585.256 576.433,586.469C573.683,590.459 570.233,593.963 566.89,597.521C566.081,598.384 564.599,598.653 564.167,598.842L564.169,598.841Z" style="fill:rgb(69,28,21);fill-rule:nonzero;"/>
    </g>
    <g transform="matrix(0.058594,0,0,0.058594,0.000027,0.000059)">
        <path d="M546.127,626.116C541.167,626.035 539.172,623.232 540.655,619.566C542.919,613.824 547.61,610.401 552.92,608.029C554.241,607.463 556.802,608.433 558.096,609.512C558.878,610.105 558.905,612.774 558.204,613.798C555.778,617.491 553.082,621.022 550.117,624.284C549.039,625.497 546.963,625.767 546.127,626.117L546.127,626.116Z" style="fill:rgb(69,28,21);fill-rule:nonzero;"/>
    </g>
    <g transform="matrix(0.058594,0,0,0.058594,0.000027,0.000059)">
        <path d="M700.972,556.587C695.554,556.614 692.804,552.975 693.99,548.257C696.308,538.849 698.869,536.639 707.037,537.097C713.345,537.474 715.852,541.76 713.102,547.448C710.487,552.893 706.336,556.101 700.972,556.586L700.972,556.587Z" style="fill:rgb(69,28,21);fill-rule:nonzero;"/>
    </g>
    <g transform="matrix(0.058594,0,0,0.058594,0.000027,0.000059)">
        <path d="M672.422,544.968C667.219,544.806 664.524,540.278 665.656,535.183C667.139,528.39 672.368,526.179 677.894,524.562C682.611,523.133 686.628,527.959 685.415,532.811C683.205,541.707 677.49,544.483 672.422,544.968Z" style="fill:rgb(69,28,21);fill-rule:nonzero;"/>
    </g>
    <g transform="matrix(0.058594,0,0,0.058594,0.000027,0.000059)">
        <path d="M719.437,506.366C723.615,506.393 726.85,509.089 726.796,512.539C726.742,518.227 721.755,524.481 717.253,524.535C714.207,524.562 709.516,520.357 709.409,517.526C709.166,511.623 713.938,506.339 719.437,506.366Z" style="fill:rgb(69,28,21);fill-rule:nonzero;"/>
    </g>
    <g transform="matrix(0.058594,0,0,0.058594,0.000027,0.000059)">
        <path d="M442.603,623.652C447.86,628.262 452.011,631.82 455.947,635.567C456.297,635.89 455.731,637.912 455.057,638.37C454.167,639.017 452.173,639.529 451.607,639.044C447.86,635.755 444.248,632.251 440.824,628.585C440.447,628.181 441.606,626.321 442.603,623.652Z" style="fill:rgb(69,28,21);fill-rule:nonzero;"/>
    </g>
    <g transform="matrix(0.058594,0,0,0.058594,0.000027,0.000059)">
        <path d="M476.348,557.616C472.062,555.459 468.261,553.923 464.972,551.686C463.867,550.931 463.247,548.074 463.813,546.645C464.298,545.297 466.616,543.653 468.018,543.788C471.819,544.111 475.755,544.866 479.151,546.43C480.849,547.212 482.898,550.689 482.386,551.956C481.496,554.166 478.72,555.541 476.348,557.617L476.348,557.616Z" style="fill:rgb(69,28,21);fill-rule:nonzero;"/>
    </g>
    <g transform="matrix(0.058594,0,0,0.058594,0.000027,0.000059)">
        <path d="M362.265,687.979C359.381,693.748 356.415,695.419 352.857,693.559C349.514,691.78 349.056,689.516 351.078,686.469C353.288,683.153 357.359,683.719 362.265,687.979Z" style="fill:rgb(69,28,21);fill-rule:nonzero;"/>
    </g>
    <g transform="matrix(0.058594,0,0,0.058594,0.000027,0.000059)">
        <path d="M333.443,691.957C330.127,693.898 328.186,695.92 326.326,695.812C324.709,695.758 323.199,693.278 321.636,691.876C323.307,690.393 324.898,687.967 326.758,687.725C328.348,687.509 330.262,689.828 333.443,691.957Z" style="fill:rgb(69,28,21);fill-rule:nonzero;"/>
    </g>
</svg>
