<?xml version="1.0" encoding="UTF-8" standalone="no"?>
<!DOCTYPE svg PUBLIC "-//W3C//DTD SVG 1.1//EN" "http://www.w3.org/Graphics/SVG/1.1/DTD/svg11.dtd">
<svg width="100%" height="100%" viewBox="0 0 61 61" version="1.1" xmlns="http://www.w3.org/2000/svg" xmlns:xlink="http://www.w3.org/1999/xlink" xml:space="preserve" xmlns:serif="http://www.serif.com/" style="fill-rule:evenodd;clip-rule:evenodd;stroke-linejoin:round;stroke-miterlimit:2;">
    <g transform="matrix(0.058594,0,0,0.058594,0.001161,-0.000111)">
        <path d="M511.96,1009.647C486.288,1009.647 462.174,999.658 444.021,981.532L42.429,579.94C4.995,542.48 4.995,481.522 42.429,444.116L444.048,42.497C462.201,24.344 486.288,14.355 511.96,14.355C537.605,14.355 561.692,24.344 579.845,42.497L981.464,444.116C999.617,462.242 1009.579,486.356 1009.579,512.028C1009.579,537.673 999.616,561.787 981.464,579.94L579.872,981.532C561.719,999.658 537.605,1009.647 511.96,1009.647Z" style="fill:rgb(232,203,158);fill-rule:nonzero;"/>
    </g>
    <g transform="matrix(0.059291,0,0,0.059289,-0.355833,-0.356126)">
        <path d="M511.919,14.436C487.304,14.435 462.71,23.798 444.025,42.483L42.444,444.104C5.055,481.493 5.055,542.503 42.444,579.892L444.025,981.513C462.722,1000.194 487.346,1009.559 511.958,1009.56C536.57,1009.561 561.143,1000.191 579.852,981.513L981.473,579.892C1018.833,542.501 1018.833,481.495 981.473,444.104L579.852,42.483C561.155,23.802 536.533,14.437 511.919,14.436Z" style="fill:rgb(232,203,158);fill-rule:nonzero;"/>
    </g>
    <g transform="matrix(0.058594,0,0,0.058594,0.001161,-0.000111)">
        <path d="M507.485,0.079C478.543,1.096 453.406,12.641 432.075,33.972C352.199,113.956 272.226,193.86 192.296,273.79C139.279,326.78 86.356,379.772 33.339,432.707C13.653,452.393 2.136,475.998 0.276,503.693C-2.043,537.833 9.294,567.172 33.537,591.388C77.088,634.939 120.607,678.458 164.131,721.982C253.391,811.242 342.737,900.505 431.917,989.847C454.084,1012.014 480.567,1023.639 512.739,1024.016C543.212,1023.611 569.633,1012.182 591.664,990.123C724.934,856.853 858.223,723.618 991.466,590.321C1032.348,549.439 1035.065,485.06 997.905,440.726C995.478,437.841 992.872,435.048 990.202,432.352C857.04,299.19 723.891,166.053 590.755,32.945C571.204,13.367 547.685,2.083 520.125,0.277C515.834,-0.01 511.619,-0.066 507.484,0.079L507.485,0.079ZM512.028,12.325C536.747,12.326 561.472,21.73 580.248,40.49L983.526,443.808C1021.043,481.357 1021.043,542.621 983.526,580.17L580.248,983.488C561.46,1002.245 536.744,1011.653 512.028,1011.653C487.312,1011.653 462.584,1002.248 443.808,983.488L40.53,580.17C2.983,542.623 2.983,481.355 40.53,443.808L443.808,40.49C462.572,21.726 487.31,12.324 512.028,12.325Z" style="fill:rgb(69,28,21);fill-rule:nonzero;"/>
    </g>
    <g transform="matrix(0.058594,0,0,0.058594,0.001161,-0.000111)">
        <path d="M865.991,400.022C866.342,399.995 866.719,399.995 867.07,399.968C867.879,397.919 868.661,395.896 869.605,393.55L864.023,393.55C864.778,396.004 865.398,398 865.992,400.022L865.991,400.022ZM316.784,413.263C317.323,413.506 317.863,413.694 318.456,413.937C319.885,411.294 322.528,408.732 322.582,406.09C322.69,400.804 321.422,395.465 320.506,388.589C318.699,390.396 316.946,391.34 316.919,392.337C316.676,399.321 316.784,406.306 316.784,413.263ZM704.379,405.982L705.215,405.362L698.932,387.672L697.314,387.16C695.157,389.911 692.945,392.607 690.626,395.52C695.534,399.268 699.957,402.639 704.379,405.983L704.379,405.982ZM396.094,517.355C394.071,514.47 391.914,509.696 390.674,509.939C386.278,510.748 381.451,512.15 379.078,518.056C380.615,519.108 382.584,521.508 384.121,521.265C387.977,520.699 391.672,518.919 396.094,517.355ZM790.484,416.526C790.808,416.472 791.131,416.445 791.455,416.418C793.693,408.517 795.931,400.642 798.466,391.878C793.639,393.038 789.648,393.981 785.765,394.952C787.383,402.341 788.947,409.433 790.484,416.525L790.484,416.526ZM876.373,401.613C875.267,407.465 870.899,412.885 874.836,418.602C877.587,422.566 881.416,425.775 885.056,429.038C885.784,429.712 887.888,429.496 888.885,428.903C889.586,428.498 889.829,426.638 889.64,425.559C889.424,423.995 888.777,422.377 887.968,421.002C884.274,414.638 880.471,408.382 876.372,401.613L876.373,401.613ZM157.113,387.24C152.906,390.503 153.661,394.818 153.958,398.674C154.443,404.822 155.684,410.89 156.439,417.038C157.626,426.827 157.518,426.881 167.307,428.823C169.276,429.201 171.568,431.681 173.051,428.068C174.291,425.075 175.667,422.486 172.512,419.331C163.91,410.648 158.354,400.265 157.114,387.24L157.113,387.24ZM269.026,387.078C275.228,396.382 281.269,405.442 287.579,414.962C294.941,408.382 295.211,399.079 297.826,390.8C287.902,389.479 278.733,388.319 269.025,387.079L269.026,387.078ZM835.465,388.858C831.042,385.919 826.89,386.485 822.467,387.725C819.258,388.588 814.728,387.213 812.678,388.992C810.575,390.826 810.709,395.302 809.981,398.619C808.309,406.197 806.718,413.774 805.1,421.379C805.72,421.757 806.394,422.134 807.015,422.485C816.48,411.294 825.973,400.076 835.465,388.857L835.465,388.858ZM557.571,884.536C566.848,884.698 569.841,882.783 571.863,877.552C573.481,873.426 571.539,870.514 568.546,868.141C562.829,863.584 555.979,861.804 548.941,861.696C542.388,861.588 537.453,869.328 540.5,873.831C545.246,880.842 551.664,884.726 557.57,884.537L557.571,884.536ZM221.753,379.716C215.766,387.698 209.348,396.301 202.957,404.93C202.418,405.685 202.148,406.656 201.986,407.573C200.449,417.065 199.613,426.746 197.267,436.023C195.919,441.255 197.672,443.655 201.42,445.974C210.481,429.362 222.265,390.045 221.753,379.716ZM731.48,439.556C737.008,424.859 742.159,411.16 747.417,397.164C738.464,395.007 729.349,392.795 718.562,390.18C721.124,398.944 723.605,406.63 725.654,414.423C727.757,422.432 729.456,430.576 731.479,439.556L731.48,439.556ZM455.879,879.304C461.974,879.493 467.124,872.778 464.751,867.951C461.973,862.315 458.737,856.436 454.261,852.229C445.47,844.112 439.591,844.058 432.121,849.937C425.487,855.169 425.406,861.722 431.959,867.034C433.334,868.167 434.952,869.083 436.139,870.405C441.667,876.688 449.676,877.012 455.879,879.304ZM329.728,439.609C328.946,444.355 328.164,448.67 327.544,452.958C325.468,467.223 327.059,481.004 332.937,494.19C337.872,505.3 347.283,507.296 357.126,504.869C348.146,483.457 339.139,461.992 329.728,439.609ZM366.295,716.775C364.434,727.993 362.654,738.888 360.794,749.998L392.804,749.998C393.748,741.369 394.719,732.82 395.716,724.002C386.197,721.656 376.596,719.31 366.295,716.775ZM423.033,812.157C422.979,812.346 422.952,812.508 422.898,812.723C417.316,813.128 411.788,813.505 406.206,813.963C400.004,814.475 397.792,817.496 399.006,823.617C400.84,832.948 406.584,839.743 413.622,845.541C414.836,846.566 416.993,846.862 418.692,846.808C428.157,846.403 433.874,839.878 439.618,833.567C443.717,829.064 442.045,817.495 435.357,814.394C431.69,812.695 427.159,812.857 423.033,812.156L423.033,812.157ZM586.129,916.95C602.093,916.977 603.469,914.927 599.424,903.898C599.235,903.467 599.235,902.954 599.1,902.496C596.727,895.053 590.956,890.792 583.891,890.469C574.021,890.064 564.07,891.386 554.174,892.303C551.882,892.519 548.888,893.463 547.594,895.135C545.113,898.398 542.74,902.281 542.201,906.164C542.012,907.728 546.543,911.234 549.266,911.692C562.992,914.065 576.799,915.683 586.13,916.951L586.129,916.95ZM345.666,695.498C349.037,697.062 352.327,698.896 355.833,700.136C362.871,702.644 370.071,704.774 377.11,707.255C383.258,709.412 389.353,711.678 395.34,714.293C397.902,715.372 398.927,714.536 399.843,712.405C401.919,707.686 404.158,702.994 406.018,698.193C406.423,697.087 405.775,694.687 404.885,694.121C391.671,685.869 376.057,681.501 365.648,669.015C358.825,678.076 352.407,686.543 345.666,695.496L345.666,695.498ZM649.501,629.321L649.501,660.818C655.622,659.955 660.908,659.712 665.897,658.418C676.252,655.802 686.446,652.593 696.747,649.708C699.794,648.845 700.873,647.47 699.983,644.072C698.473,638.22 697.071,632.261 696.45,626.301C696.019,622.202 694.212,621.15 690.733,621.663C683.641,622.715 676.521,623.659 669.483,624.953C662.526,626.274 655.595,628 649.501,629.322L649.501,629.321ZM716.325,740.371C716.999,713.431 704.567,689.781 702.356,663.515C696.423,665.133 691.461,666.67 686.365,667.749C682.158,668.639 681.889,670.931 682.671,674.545C687.309,696.361 695.318,717.53 695.318,740.236C695.318,742.852 696.558,744.335 699.309,743.796C704.81,742.744 710.258,741.585 716.325,740.371ZM469.767,809.972C452.94,809.972 445.2,822.296 452.508,837.235C453.182,838.556 453.722,839.959 454.531,841.199C461.435,851.797 470.118,859.671 483.844,858.485C496.869,857.352 504.285,847.914 497.678,835.779C494.927,830.736 491.557,826.071 488.806,821.055C484.68,813.423 478.586,809.405 469.767,809.972ZM650.202,750.969C660.449,749.54 669.753,748.191 679.677,746.762C678.895,739.885 678.41,733.198 677.304,726.591C674.499,709.683 671.479,692.828 668.297,675.974C668.054,674.707 665.87,672.981 664.441,672.846C659.776,672.441 655.03,672.711 650.203,672.711L650.202,750.969ZM534.946,886.855L536.24,886.424C534.029,880.383 532.546,873.884 529.39,868.356C525.749,861.992 518.9,858.81 511.754,859.754C498.19,861.507 486.459,868.168 475.861,876.5C474.459,877.606 474.108,880.356 473.892,882.352C473.434,886.667 476.373,889.121 479.825,890.361C491.475,894.514 502.963,899.395 514.963,901.957C530.415,905.301 534.649,898.586 534.945,886.856L534.946,886.855ZM372.39,660.441C382.961,671.956 396.822,677.969 410.117,684.846C413.056,686.383 415.322,686.06 418.018,683.632C422.629,679.533 427.888,676.135 432.688,672.225C433.713,671.389 434.603,669.474 434.333,668.288C432.742,660.306 430.639,652.431 429.128,644.395C428.508,641.267 427.132,640.512 424.193,640.485C412.678,640.35 401.163,639.892 389.648,639.811C388.084,639.784 385.954,640.917 385.01,642.211C380.641,648.144 376.623,654.292 372.39,660.441ZM315.732,628.108C313.575,640.351 311.229,653.457 309.044,666.617C308.909,667.372 309.556,668.505 310.231,669.071C316.218,674.41 322.285,679.723 328.407,684.954C331.158,687.273 333.666,687.57 336.227,684.334C342.996,675.893 350.223,667.803 356.803,659.228C361.873,652.567 366.268,645.394 370.853,638.598C352.165,635.065 334.313,631.641 315.733,628.108L315.732,628.108ZM774.169,396.301C769.962,396.058 767.94,397.811 766.942,401.29C765,408.22 763.032,415.124 760.713,421.92C753.054,444.707 747.985,467.925 748.659,492.169C748.821,498.803 751.032,501.904 757.585,502.929C760.74,503.441 764.111,503.36 767.32,502.956C768.587,502.794 770.394,501.23 770.718,499.963C772.767,492.439 774.79,484.862 776.192,477.203C778.053,466.767 779.806,456.25 780.722,445.733C781.261,439.234 780.479,432.519 779.562,426.02C778.079,416.042 775.975,406.118 774.169,396.303L774.169,396.301ZM355.158,713.161C337.657,706.824 321.719,697.574 307.265,684.226C306.995,688.325 307.13,691.426 306.537,694.446C303.598,709.116 300.577,723.84 297.26,738.456C296.289,742.636 297.584,743.553 301.494,743.849C313.117,744.685 324.712,745.872 336.308,747.004C341.27,747.462 346.205,748.137 350.52,748.649C352.084,736.703 353.567,725.242 355.158,713.161ZM535.135,643.155L443.69,643.155C445.092,649.411 446.279,655.695 448.113,661.735C448.625,663.407 450.971,664.89 452.778,665.726C459.897,668.935 468.635,668.45 474.217,675.326C476.374,677.996 478.882,680.369 481.363,682.688C485.273,686.355 490.747,687.353 493.822,685.088C509.517,673.519 523.189,659.901 535.135,643.155ZM567.144,718.851C572.807,729.8 578.551,740.991 584.457,752.128C584.888,752.91 586.291,753.692 587.208,753.665C603.226,753.126 619.406,755.607 635.452,751.211C636.854,731.444 639.227,711.812 636.45,691.183C615.011,706.042 590.04,709.493 567.145,718.851L567.144,718.851ZM434.764,759.841C434.764,760.03 434.737,760.272 434.737,760.461C430.611,760.461 426.485,760.488 422.359,760.461C411.923,760.434 403.159,764.371 397.496,773.055C388.435,786.916 390.107,796.166 406.125,802.152C423.465,808.705 441.29,807.491 458.899,803.312C462.62,802.422 466.45,799.105 468.769,795.842C472.275,790.826 474.971,785.055 477.156,779.311C480.797,769.819 477.345,764.021 467.124,762.619C456.418,761.109 445.551,760.704 434.764,759.841ZM493.983,704.99C495.817,720.873 497.785,737.566 499.727,753.962L570.65,753.962C554.874,727.669 539.8,702.509 524.779,677.511C514.37,686.761 504.257,695.821 493.983,704.99ZM684.639,404.337C678.464,412.67 672.477,420.652 666.598,428.769C664.845,431.25 662.877,433.893 662.202,436.751C658.804,451.07 655.73,465.444 652.683,479.817C652.036,482.783 651.847,485.858 651.281,489.768C655.38,489.579 658.697,489.579 661.96,489.202C665.654,488.744 669.295,487.719 672.989,487.368C674.634,487.206 676.495,487.773 678.005,488.555C684.18,491.791 690.14,495.512 696.45,498.479C697.906,499.18 701.412,498.371 702.275,497.104C704.324,494.138 705.808,490.551 706.644,487.045C710.338,471.782 712.685,456.195 709.61,440.635C706.59,425.48 700.495,411.7 684.639,404.338L684.639,404.337ZM535.216,667.803C542.173,678.617 549.401,689.565 556.331,700.703C558.084,703.535 559.459,704.478 562.965,703.346C587.1,695.607 610.373,685.925 632.647,673.817C634.912,672.577 636.126,671.228 635.802,668.478C635.29,663.921 635.128,659.309 634.75,654.698C634.184,647.875 633.536,641.026 632.943,634.203C630.246,635.201 627.765,635.659 625.878,637.008C615.981,643.885 604.466,644.828 593.113,645.691C588.96,645.961 584.618,644.046 580.358,643.264C578.956,642.994 577.526,643.102 576.097,643.102C570.811,643.048 565.499,642.913 560.187,643.048C558.812,643.075 556.978,643.614 556.088,644.558C549.077,652.163 542.227,659.929 535.216,667.803ZM846.845,392.04C844.553,394.602 842.854,396.328 841.344,398.215C832.229,409.622 822.845,420.813 814.242,432.625C810.143,438.261 806.449,444.733 804.696,451.394C800.031,469.03 800.651,487.233 801.136,505.301C801.19,506.568 803.293,508.834 804.399,508.807C809.091,508.726 813.972,508.618 818.395,507.27C823.465,505.706 828.103,502.794 833.254,500.34C840.643,507.163 849.596,506.057 858.819,504.628C864.105,503.819 865.992,501.23 865.642,495.999C865.399,492.601 866.397,489.149 866.343,485.698C866.316,483.81 865.885,481.302 864.617,480.062C858.819,474.291 858.28,467.415 860.923,460.457C863.62,453.23 867.422,446.407 871.09,438.776C856.959,427.747 851.944,410.757 846.847,392.042L846.845,392.04ZM232.378,533.966C242.221,533.454 249.826,529.301 256.567,523.314C257.214,522.748 258.239,522.316 259.048,522.37C265.331,522.64 271.642,523.044 278.95,523.449C280.433,512.851 282.537,503.035 283.022,493.111C283.804,477.659 281.701,462.423 277.925,447.267C271.884,423.078 262.23,400.992 244.891,382.762C243.489,381.306 241.277,380.659 239.012,379.364C235.129,407.275 227.767,432.893 214.391,456.085C218.706,461.586 223.101,466.71 226.958,472.211C230.868,477.685 232.244,483.78 229.655,490.387C229.17,491.654 229.035,493.219 229.197,494.594C229.682,499.826 230.518,504.976 230.923,510.208C231.516,518.082 231.894,525.957 232.379,533.966L232.378,533.966ZM439.456,465.282C436.085,457.084 431.77,449.318 429.721,440.985C424.921,421.488 420.795,401.802 417.208,382.035C415.509,372.704 415.752,362.996 414.916,353.504C414.026,343.203 412.678,332.982 411.869,322.681C411.168,313.324 410.979,303.939 410.575,295.202C414.566,295.499 418.045,295.768 421.119,295.957C425.218,305.8 429.506,316.128 433.82,326.483C434.386,327.831 434.926,329.288 435.816,330.447C444.068,340.883 443.933,353.638 445.605,365.854C447.708,381.468 449.92,397.028 451.915,412.641C453.587,425.504 454.639,438.421 456.58,451.231C458.656,464.984 461.299,478.656 463.888,492.328C465.102,498.746 466.881,505.056 468.149,511.474C468.419,512.822 467.529,514.413 466.423,515.95C457.119,503.707 449.677,490.898 445.308,477.253C435.33,482.916 425.595,488.444 415.321,494.269C415.024,495.024 414.188,497.02 413.649,498.314C416.481,503.6 419.258,508.723 422.359,514.494C433.011,512.364 443.959,510.179 454.881,507.968C454.989,508.507 455.124,509.02 455.232,509.532C450.378,514.683 443.798,516.382 437.218,517.865C425.056,520.643 412.813,523.177 400.193,525.901C400.004,525.577 399.33,524.337 398.413,522.665C394.287,524.04 390.215,525.389 385.712,526.899C386.413,528.355 386.979,529.461 387.519,530.566C388.733,532.912 387.924,533.721 385.496,534.773C378.97,537.605 371.959,540.112 366.592,544.508C360.497,549.524 355.967,556.481 350.655,562.495C349.792,563.493 348.39,564.571 347.203,564.598C334.987,564.868 326.385,571.394 320.074,580.967C316.407,586.549 313.629,592.805 311.04,599.008C308.451,605.264 314.06,613.381 320.937,614.298C326.357,614.972 331.832,615.646 337.117,616.995C354.78,621.471 372.821,621.66 390.835,622.469C414.701,623.575 438.566,624.815 462.405,625.327C487.161,625.92 511.916,626.028 536.672,625.678C543.468,625.57 548.645,628.806 554.254,631.179C560.402,633.822 566.065,632.716 572.322,631.772C578.282,630.855 584.7,631.961 590.74,633.201C605.868,636.302 618.057,629.56 622.237,614.756C622.642,613.354 623.882,611.736 625.149,611.223C625.877,610.926 627.414,612.652 628.601,613.434C629.841,614.216 631.271,615.861 632.349,615.672C645.185,613.38 657.914,610.683 670.777,608.364C675.658,607.501 680.701,607.393 685.69,606.962C692,606.423 697.07,599.438 694.859,593.506C690.14,580.886 682.023,571.366 668.539,567.645C663.523,566.243 658.292,565.299 653.114,564.894C650.013,564.624 646.858,565.811 643.217,566.458C634.695,559.608 625.527,552.193 616.142,544.642C620.025,537.469 624.178,529.81 628.25,522.26C622.857,518.35 615.333,518.727 612.771,512.147C613.068,511.5 613.31,510.853 613.607,510.205C619.297,512.012 625.014,513.819 630.731,515.679C634.048,509.962 633.643,509.234 627.387,506.888C622.964,505.216 618.731,503.113 614.389,501.144C608.618,511.931 602.631,523.095 596.483,534.583C590.55,532.884 585.022,531.293 578.793,529.513C583.485,516.839 588.043,504.461 592.411,492.568C584.914,490.168 577.552,487.768 569.786,485.287C568.168,489.979 566.334,495.292 564.447,500.712C570.676,502.411 576.609,504.029 583.701,505.998C577.148,509.935 571.404,509.639 565.903,507.67C562.613,506.483 561.507,507.562 560.402,510.205C559.593,512.147 558.514,514.034 557.436,515.868C552.933,523.715 552.906,523.715 543.386,521.936C544.519,517.567 545.678,513.28 546.622,509.666L531.251,509.666C530.442,512.444 529.498,515.653 528.473,519.023C524.374,518.133 520.787,517.351 516.823,516.488C519.223,507.184 521.623,497.962 524.266,487.768C520.248,488.146 517.066,488.766 513.884,488.577C510.999,488.442 508.167,487.444 505.497,486.069C511.915,482.59 517.794,486.015 524.104,487.202C525.56,481.188 526.936,475.579 528.365,469.862C520.572,469.107 513.129,468.406 504.796,467.543C497.812,481.134 494.791,497.153 490.126,513.117C488.697,505.189 487.214,497.26 485.838,489.332C484.274,480.271 483.303,471.102 481.173,462.176C476.265,441.465 472.031,420.674 470.656,399.424C470.467,396.242 471.843,392.79 473.11,389.689C481.551,368.925 486.62,347.27 490.045,325.238C491.582,315.53 492.364,305.714 493.362,296.788C499.376,295.17 504.931,293.66 510.054,292.285C511.942,305.31 513.775,318.686 515.987,332.007C517.281,339.693 520.248,347.216 520.706,354.902C521.272,364.502 520.409,374.264 519.412,383.864C517.929,398.507 516.041,413.15 513.857,427.685C512.239,438.337 509.758,448.854 507.87,459.452C507.681,460.639 508.571,462.904 509.461,463.2C514.234,464.818 519.169,465.978 524.023,467.299C527.556,468.243 529.578,467.164 530.252,463.335C532.787,449.528 535.403,435.721 537.965,421.941C538.154,421.132 537.884,420.188 538.235,419.487C542.388,411.127 546.595,402.821 551.152,394.543C549.426,430.975 538.72,465.924 533.408,501.278C538.046,502.653 542.846,504.11 548.105,505.674C552.312,487.175 556.653,468.055 561.049,448.828C557.489,447.534 554.604,446.455 551.745,445.43C551.61,444.945 551.475,444.486 551.314,443.974C553.633,442.976 555.952,441.25 558.325,441.089C561.237,440.9 562.046,439.336 562.397,437.233C565.93,414.5 568.438,391.686 568.653,368.602C568.788,357.761 569.786,346.975 573.588,336.215C577.849,324.35 579.008,311.352 581.408,298.866C582.541,293.041 583.431,287.162 584.455,281.311L585.857,281.311C586.288,282.929 587.097,284.493 587.097,286.111C587.097,304.475 591.52,322.193 595.241,339.991C596.239,344.791 597.425,349.591 598.828,354.283C601.363,362.643 600.608,370.625 598.558,379.039C595.484,391.552 594.405,404.523 591.142,416.954C585.56,438.204 578.98,459.211 572.697,480.758C579.007,483.077 586.423,485.801 594.27,488.632C597.452,480.542 600.688,472.344 603.924,464.092C600.364,461.719 597.047,459.535 593.704,457.323C594.001,456.784 594.27,456.298 594.567,455.786C597.857,456.973 601.147,458.186 604.922,459.534C606.54,452.064 607.996,444.594 609.803,437.232C613.497,422.373 618.001,407.703 620.994,392.71C623.205,381.681 623.745,370.274 624.796,359.028C626.117,345.005 627.574,330.956 628.356,316.879C628.949,305.526 628.707,294.119 628.814,282.739C628.841,280.177 629.704,278.613 631.619,276.402C639.17,267.638 646.451,258.307 644.159,245.282C643.566,241.749 645.453,239.053 648.42,236.572C655.431,230.693 661.984,224.248 661.634,213.974C661.58,212.383 661.068,210.819 660.717,209.255C659.962,205.776 658.937,202.325 658.479,198.792C657.778,193.614 660.96,190.945 665.356,189.381C668.134,188.41 670.992,187.655 673.743,186.684C681.671,183.799 681.671,183.772 687.119,190.864C684.557,193.075 681.375,194.936 679.568,197.66C677.222,201.166 674.444,205.399 674.498,209.283C674.579,221.014 669.644,230.452 663.603,239.809C660.933,243.962 659.315,248.843 657.401,253.454C653.68,262.488 650.12,271.603 646.399,280.664C645.887,281.824 645.051,283.361 644.026,283.738C635.936,286.65 638.444,293.095 638.794,298.786C639.684,313.375 640.897,327.937 641.599,342.526C642.004,350.913 641.383,359.38 641.734,367.767C642.516,386.32 639.037,404.388 635.181,422.294C629.949,446.78 623.693,471.077 617.68,496.183C621.779,497.289 626.714,498.799 631.73,499.904C632.647,500.093 634.427,498.933 634.939,497.962C636.395,495.05 637.501,491.921 638.445,489.548C635.074,487.579 631.973,485.988 629.168,483.993C628.763,483.723 629.707,481.485 630.112,479.867C633.753,481.647 636.8,483.13 640.171,484.748C641.385,481.296 642.841,478.006 643.704,474.608C647.587,459.048 651.282,443.461 655.219,427.928C655.624,426.283 656.918,424.8 657.997,423.425C666.06,412.8 675.04,402.795 682.024,391.55C689.332,379.658 692.568,365.878 695.238,352.124C695.481,350.803 696.64,349.616 697.449,348.403C698.986,346.111 701.009,344.007 702.033,341.499C706.536,330.523 710.743,319.413 715.274,307.844C728.677,308.275 732.964,295.574 740.812,287.511C741.729,286.54 742.295,284.76 743.293,284.545C751.653,282.522 752.192,274.918 754.781,268.769C755.779,266.45 756.669,264.023 759.204,260.733C760.31,262.378 761.173,264.239 762.575,265.641C802.081,305.255 841.48,344.977 881.337,384.214C890.775,393.491 897.733,403.819 902.263,416.062C902.802,417.518 903.557,418.92 905.31,419.972C903.935,415.28 902.505,410.561 901.103,405.841C901.346,405.652 901.561,405.436 901.804,405.248C902.883,406.219 904.015,407.163 905.067,408.214C923.593,426.74 942.2,445.213 960.7,463.847C987.586,490.976 988.179,532.181 961.347,559.337C915.153,606.044 868.527,652.319 822.036,698.675C820.688,699.996 818.234,701.129 816.481,700.913C809.524,700.104 802.512,699.241 795.743,697.515C788.246,695.573 781.424,691.96 776.435,685.65C773.765,682.252 770.88,681.335 766.188,682.684C752.543,686.702 738.628,688.644 724.767,683.277C721.747,682.09 718.942,680.203 715.733,678.477C716.164,681.282 716.407,684.437 717.189,687.511C720.209,699.673 723.553,711.754 726.573,723.943C728.245,730.739 729.324,737.723 730.996,744.546C731.724,747.431 730.834,748.267 728.218,748.861C721.692,750.371 715.112,751.746 708.829,753.931C691.031,760.026 672.478,761.913 653.978,763.936C643.731,765.015 633.294,764.367 622.966,764.826C616.575,765.123 610.238,766.066 603.9,766.741C601.931,766.903 599.909,767.523 598.021,767.226C579.711,764.098 561.616,768.709 543.386,768.709C537.804,768.709 532.195,769.06 526.613,769.329C516.42,769.76 506.226,770.543 496.06,770.596C491.988,770.623 490.801,772.565 490.37,775.666C487.215,798.561 492.527,818.705 509.705,834.966C516.77,841.681 525.75,844.944 534.541,848.503C552.636,855.865 571.62,860.072 590.767,863.281C606.704,865.951 622.858,867.407 638.876,869.456C642.22,869.861 645.591,870.4 650.472,871.101C647.398,873.879 645.052,876.09 642.571,878.112C641.816,878.732 640.306,879.245 639.605,878.894C632.594,875.388 625.07,875.334 617.519,875.173C610.292,875.038 603.092,874.391 595.865,874.472C593.762,874.472 590.337,875.793 589.905,877.25C589.285,879.246 590.229,882.967 591.793,884.127C599.155,889.413 606.921,894.159 614.634,898.905C616.036,899.795 617.924,899.957 620.135,900.577C611.371,909.395 603.173,917.917 594.463,925.98C592.926,927.355 589.204,927.14 586.67,926.6C565.555,922.339 544.44,918.052 523.433,913.332C509.087,910.15 494.875,906.455 480.664,902.68C462.38,897.799 446.497,888.253 431.719,876.738C424.465,871.102 416.914,865.682 410.604,859.102C393.858,841.762 380.617,822.346 381.453,796.809C381.858,784.215 384.285,771.865 391.646,759.999C353.973,759.379 317.137,758.354 280.677,750.857C282.079,743.765 283.535,737.266 284.614,730.713C286.394,719.899 287.904,709.059 289.63,698.245C289.954,696.357 290.709,694.524 291.464,692.771C292.704,689.805 291.194,688.969 288.767,689.535C274.448,692.69 260.074,692.124 246.699,686.838C238.366,683.521 234.24,686.029 229.494,691.827C224.802,697.49 218.492,700.942 211.48,703.315C208.675,704.232 206.977,703.962 204.954,701.94C157.384,654.263 109.761,606.666 62.218,559.016C52.887,549.685 47.036,538.494 44.501,525.658C54.101,526.224 63.486,526.791 72.735,527.303C73.949,517.298 75.054,508.21 76.079,499.123C76.214,498.071 76.106,496.777 75.594,495.941C68.583,484.992 71.118,471.051 81.5,462.071C85.141,458.97 88.242,455.194 91.586,451.662C93.662,449.505 93.555,447.563 91.397,445.271C88.107,441.684 88.188,438.341 92.125,434.808C96.278,431.087 99.891,426.772 104.368,422.08C105.824,428.228 107.038,433.352 108.251,438.422C112.161,437.937 113.725,436.399 111.784,432.84C106.31,422.97 109.006,415.231 117.959,409.109C119.011,408.354 119.874,407.329 120.952,406.331C124.269,414.556 127.532,422.646 130.822,430.736C133.627,430.278 135.838,429.9 139.047,429.388C135.649,422.242 138.238,413.72 131.658,407.221C125.995,401.666 126.453,400.668 132.143,394.978C165.15,361.944 198.185,328.909 231.192,295.902C232.19,294.931 233.268,294.041 234.94,292.531C234.94,293.987 235.156,294.688 234.913,295.12C231.461,301.43 234.508,305.745 239.255,309.574C246.266,315.264 253.79,318.905 263.229,317.61C271.67,316.423 280.137,315.641 288.632,315.21C295.374,314.859 300.336,320.091 302.277,326.347C303.814,331.417 307.104,335.974 309.477,340.478C302.951,338.536 296.991,335.085 294.052,327.318C293.54,325.943 290.115,324.729 288.227,324.918C284.047,325.403 280.002,326.887 275.876,327.965C271.292,329.125 269.269,333.493 272.209,337.322C275.041,340.963 278.088,344.576 283.805,344.279C290.169,343.928 295.886,348.782 297.342,354.904C299.284,363.291 309.369,366.796 317.217,362.05C319.293,360.81 321.909,360.432 324.309,359.677C326.844,358.922 329.406,358.167 331.752,357.439C329.891,377.475 333.801,397.404 339.249,417.144C343.645,432.947 347.069,449.073 352.652,464.444C358.045,479.357 365.596,493.487 372.473,508.562C377.624,506 381.911,503.816 386.28,501.632C382.181,490.791 378.594,479.924 374.037,469.514C363.035,444.381 355.619,418.223 350.63,391.337C348.149,377.988 345.884,364.586 344.077,351.183C343.646,348.136 344.886,344.387 346.531,341.691C349.848,336.271 352.841,331.093 352.248,324.324C351.978,321.115 353.354,317.771 354.19,313.348C358.559,328.099 361.633,341.825 366.676,354.796C374.038,373.942 382.398,392.792 391.162,411.345C396.771,423.264 403.189,434.752 404.645,448.101C405.184,452.793 407.099,454.546 412.061,453.737C415.189,453.225 418.533,454.195 421.796,454.492C421.877,454.923 421.931,455.328 422.039,455.759C417.509,456.676 412.978,457.62 407.827,458.698C409.256,465.925 410.712,473.368 412.384,481.943C422.146,475.929 430.883,470.563 439.459,465.277L439.456,465.282Z" style="fill:rgb(69,28,21);fill-rule:nonzero;"/>
    </g>
    <g transform="matrix(0.058594,0,0,0.058594,0.001161,-0.000111)">
        <path d="M390.911,366.2C387.082,356.384 382.767,346.73 379.504,336.725C375.216,323.565 371.657,310.136 367.962,296.787C367.288,294.198 366.506,292.688 363.566,291.96C356.878,290.315 351.512,286.674 347.305,280.823C344.554,276.994 340.752,274.189 335.44,272.814C330.91,271.627 326.945,267.582 323.197,264.292C320.959,262.323 319.179,259.492 317.858,256.741C317.022,255.015 317.022,252.615 317.4,250.646C318.748,243.5 316.025,239.778 308.69,238.484C303.593,237.567 298.577,236.084 293.481,234.843C296.717,228.775 298.686,228.829 304.483,228.587C310.874,228.317 315.593,231.419 321.068,233.198C324.789,234.412 329.536,232.74 333.796,232.173C335.845,231.876 337.76,231.094 339.756,230.501C344.799,228.937 349.896,227.319 355.774,226.429C353.832,227.858 352.107,230.15 349.976,230.582C342.048,232.173 336.789,237.405 332.07,243.176C327.324,248.92 330.263,256.552 338.893,261.783C340.538,262.808 342.453,263.59 344.34,263.967C347.711,264.587 350.03,265.612 350.435,269.711C350.597,271.329 352.862,273.298 354.615,274.08C359.28,276.183 363.757,279.285 369.474,278.206C370.688,277.99 372.252,279.554 373.627,280.336C377.133,282.359 380.692,284.246 384.036,286.484C385.303,287.347 386.76,289.019 386.841,290.421C387.731,305.01 388.189,319.626 389.16,334.242C389.78,343.546 391.075,352.822 392.045,362.126C392.18,363.34 392.072,364.58 392.072,365.82C391.694,365.928 391.29,366.09 390.912,366.198L390.911,366.2Z" style="fill:rgb(69,28,21);fill-rule:nonzero;"/>
    </g>
    <g transform="matrix(0.058594,0,0,0.058594,0.001161,-0.000111)">
        <path d="M532.36,245.623C538.401,240.634 542.715,234.836 542.85,226.288C547.353,225.479 551.83,224.697 556.279,223.888C561.025,223.025 564.774,220.733 567.362,216.526C570.868,210.809 574.4,205.092 578.149,199.564C579.929,196.921 582.302,194.737 584.405,192.364C584.836,192.634 585.268,192.876 585.672,193.146C584.243,197.542 583.002,201.964 581.249,206.279C579.361,211.025 577.15,215.717 574.885,220.329C571.649,226.882 565.069,228.392 559.055,230.873C556.763,231.817 554.498,233.866 553.257,235.997C550.21,241.121 548.861,246.838 549.428,252.905C550.075,259.539 547.783,265.633 543.549,270.137C538.371,275.638 537.077,282.002 536.079,288.825C534.164,301.742 532.115,314.659 530.011,328.385C529.31,327.091 528.69,326.443 528.555,325.688C526.101,312.151 523.728,298.586 521.22,285.049C520.789,282.676 521.22,281.301 523.539,279.925C534.137,273.48 538.479,257.084 532.357,245.623L532.36,245.623Z" style="fill:rgb(69,28,21);fill-rule:nonzero;"/>
    </g>
    <g transform="matrix(0.058594,0,0,0.058594,0.001161,-0.000111)">
        <path d="M679.27,319.529C688.762,351.35 677.49,378.02 660.204,403.234L658.559,403.045C658.559,400.591 658.478,398.11 658.559,395.656C658.856,387.755 658.883,379.853 659.692,372.006C660.016,368.689 661.337,364.968 663.386,362.379C670.074,353.804 672.743,343.772 675.197,333.524C676.33,328.805 677.921,324.193 679.269,319.528L679.27,319.529Z" style="fill:rgb(69,28,21);fill-rule:nonzero;"/>
    </g>
    <g transform="matrix(0.058594,0,0,0.058594,0.001161,-0.000111)">
        <path d="M462.405,271.226C468.176,273.383 472.41,276.404 474.216,282.013C474.405,282.633 474.728,283.415 475.214,283.685C481.551,287.245 480.203,293.069 479.178,298.409C476.077,314.697 472.652,330.958 469.308,347.192C468.984,348.729 468.283,350.185 467.447,352.612C461.218,325.16 463.294,298.22 462.404,271.226L462.405,271.226Z" style="fill:rgb(69,28,21);fill-rule:nonzero;"/>
    </g>
    <g transform="matrix(0.058594,0,0,0.058594,0.001161,-0.000111)">
        <path d="M525.195,146.205C532.692,145.72 537.465,142.43 541.24,137.252C545.015,132.074 548.386,126.33 553.186,122.258C558.714,117.593 565.348,114.033 571.901,110.797C579.775,106.914 588.054,103.813 596.737,100.172C598.867,102.491 601.618,105.511 604.638,108.855C594.283,112.765 584.062,117.161 573.545,120.505C566.857,122.635 562.381,126.519 558.336,132.047C553.104,139.274 547.684,146.771 538.003,148.928C533.742,149.845 529.643,150.249 525.194,146.204L525.195,146.205Z" style="fill:rgb(69,28,21);fill-rule:nonzero;"/>
    </g>
    <g transform="matrix(0.058594,0,0,0.058594,0.001161,-0.000111)">
        <path d="M546.062,362.15C548.219,331.597 550.431,300.423 552.642,269.033C557.28,267.981 560.624,270.327 560.624,275.559C560.597,291.901 560.435,308.189 560.193,324.504C560.166,326.419 559.573,328.36 558.899,330.194C555.501,339.174 552.076,348.127 548.544,357.08C547.735,359.129 546.602,361.044 546.063,362.15L546.062,362.15Z" style="fill:rgb(69,28,21);fill-rule:nonzero;"/>
    </g>
    <g transform="matrix(0.058594,0,0,0.058594,0.001161,-0.000111)">
        <path d="M653.463,302.216C661.391,301.811 667.648,301.488 674.497,301.137C669.319,318.234 666.65,336.868 656.942,353.21C656.349,353.183 655.755,353.156 655.162,353.129C654.596,335.735 654.002,318.342 653.463,302.216Z" style="fill:rgb(69,28,21);fill-rule:nonzero;"/>
    </g>
    <g transform="matrix(0.058594,0,0,0.058594,0.001161,-0.000111)">
        <path d="M611.772,278.288C610.666,298.513 609.669,317.579 608.617,336.671C607.97,336.725 607.269,336.833 606.621,336.887C605.461,330.631 603.897,324.401 603.196,318.064C602.306,309.596 602.171,301.021 601.47,292.499C601.2,289.614 601.767,287.726 604.302,285.946C606.864,284.112 608.832,281.389 611.772,278.287L611.772,278.288Z" style="fill:rgb(69,28,21);fill-rule:nonzero;"/>
    </g>
    <g transform="matrix(0.058594,0,0,0.058594,0.001161,-0.000111)">
        <path d="M691.648,331.996C690.596,322.854 689.572,313.686 688.493,304.301C692.862,306.566 697.149,308.804 702.624,311.636C699.739,317.811 696.233,325.146 692.781,332.508C692.403,332.346 692.026,332.157 691.648,331.996Z" style="fill:rgb(69,28,21);fill-rule:nonzero;"/>
    </g>
    <g transform="matrix(0.058594,0,0,0.058594,0.001161,-0.000111)">
        <path d="M419.668,499.778C428.864,497.027 438.113,494.304 448.037,491.337C443.075,501.072 424.252,506.061 419.668,499.778Z" style="fill:rgb(69,28,21);fill-rule:nonzero;"/>
    </g>
    <g transform="matrix(0.058594,0,0,0.058594,0.001161,-0.000111)">
        <path d="M555.867,523.404C558.618,518.092 568.164,519.17 577.683,525.373C569.997,530.335 563.121,527.692 555.867,523.404Z" style="fill:rgb(69,28,21);fill-rule:nonzero;"/>
    </g>
    <g transform="matrix(0.058594,0,0,0.058594,0.001161,-0.000111)">
        <path d="M441.252,304.147C438.852,298.484 436.452,292.821 434.106,287.239C437.396,285.675 440.281,284.327 442.439,283.302L442.439,304.093C442.061,304.093 441.657,304.12 441.252,304.147Z" style="fill:rgb(69,28,21);fill-rule:nonzero;"/>
    </g>
</svg>
