<?xml version="1.0" encoding="UTF-8" standalone="no"?>
<!DOCTYPE svg PUBLIC "-//W3C//DTD SVG 1.1//EN" "http://www.w3.org/Graphics/SVG/1.1/DTD/svg11.dtd">
<svg width="100%" height="100%" viewBox="0 0 60 61" version="1.1" xmlns="http://www.w3.org/2000/svg" xmlns:xlink="http://www.w3.org/1999/xlink" xml:space="preserve" xmlns:serif="http://www.serif.com/" style="fill-rule:evenodd;clip-rule:evenodd;stroke-linejoin:round;stroke-miterlimit:2;">
    <g transform="matrix(0.058594,0,0,0.058594,-0.000164,-0.000023)">
        <path d="M239.25,419.922C239.547,420.596 239.789,421.243 240.086,421.917L260.766,421.917C264.46,421.917 263.651,419.949 262.788,417.819C256.263,417.819 250.008,417.711 243.752,417.927C242.215,417.981 240.759,419.221 239.249,419.922L239.25,419.922ZM590.009,430.222C592.112,432.19 593.595,433.404 594.835,434.806C596.021,436.1 597.37,437.448 597.963,439.039C599.068,442.032 599.689,445.187 600.498,448.287C600.902,448.125 601.307,447.99 601.684,447.856L601.684,430.222L590.009,430.222ZM269.178,487.625C270.58,490.24 271.443,493.719 272.683,493.853C278.076,494.446 283.549,494.123 288.78,494.123C287.809,491.535 286.839,489.027 285.76,486.25C280.664,486.681 275.514,487.113 269.178,487.625ZM769.716,497.413L769.716,503.857L789.021,503.857C789.425,501.592 789.803,499.57 790.18,497.413L769.716,497.413ZM250.331,396.922L250.331,382.578C247.473,382.147 244.777,381.769 241.757,381.311C241.46,386.596 241.218,391.719 240.921,396.922L250.331,396.922ZM696.269,304.09C695.999,309.456 695.73,314.444 695.433,319.594L704.816,319.594L704.816,305.304C701.958,304.9 699.396,304.522 696.269,304.091L696.269,304.09ZM758.742,305.222L758.742,313.446L776.51,313.446C776.025,310.696 775.566,307.919 775.135,305.222L758.742,305.222ZM279.91,686.746C287.109,687.717 288.107,686.962 288.188,680.895C288.296,677.12 288.565,673.291 288.026,669.571C287.81,668.034 285.761,666.713 284.521,665.311C283.416,666.47 281.474,667.522 281.339,668.843C280.584,674.775 280.314,680.788 279.91,686.746ZM749.413,319.674L749.413,305.33L738.898,305.33L738.898,320.321C742.484,320.078 745.854,319.917 749.413,319.674ZM763.272,526.209L750.977,526.209L750.977,538.531L763.272,538.531L763.272,526.209ZM317.091,407.114C316.74,398.782 316.39,391.206 316.039,383.575L309.244,383.575L309.244,406.655C311.779,406.79 314.016,406.952 317.09,407.113L317.091,407.114ZM628.808,687.069C628.35,679.87 627.918,672.94 627.487,665.957L618.347,665.957L618.347,687.069L628.808,687.069ZM269.367,506.688L298.271,506.688C295.116,503.291 293.013,498.95 290.236,498.464C283.9,497.359 277.267,498.113 270.742,498.113C270.257,501.214 269.852,503.721 269.367,506.687L269.367,506.688ZM724.985,409.191C724.581,410 724.176,410.836 723.772,411.645C725.174,413.398 726.468,416.579 728.032,416.687C735.878,417.415 743.778,417.469 751.678,417.442C754.455,417.415 758.527,417.388 758.149,413.398C758.014,411.834 754.105,410.648 751.921,409.3C751.651,409.165 751.247,409.192 750.95,409.192L724.985,409.192L724.985,409.191ZM759.632,429.547C759.632,427.687 760.036,425.88 759.497,424.451C758.985,423.103 757.502,421.135 756.45,421.108C746.096,420.838 735.743,420.919 725.227,420.919C724.769,423.993 724.364,426.608 723.933,429.547L759.632,429.547ZM291.153,474.845L254.133,474.845C254.376,477.784 254.537,480.345 254.726,483.096L287.728,483.096C288.807,480.535 289.912,477.865 291.152,474.845L291.153,474.845ZM271.821,421.566L288.915,421.566L288.915,403.393L271.821,403.393L271.821,421.566ZM255.697,519.091L310.917,519.091C310.297,516.206 309.865,514.211 309.461,512.485L268.397,512.485C268.882,512.108 269.314,511.784 269.718,511.487C269.664,511.19 269.556,510.894 269.475,510.57C264.568,511.352 259.661,512.134 254.942,512.862C255.266,515.504 255.481,517.446 255.697,519.09L255.697,519.091ZM632.26,557.082C631.775,551.797 629.914,549.91 624.953,549.883C609.503,549.775 594.081,549.047 578.038,548.508C578.658,551.609 579.224,554.521 579.737,557.082L632.26,557.082ZM262.896,410.835C263.489,406.683 263.651,402.935 264.514,399.322C265.808,394.118 271.147,397.327 273.978,395.385L273.978,382.632L258.367,382.632C258.367,388.132 258.583,393.282 258.259,398.405C258.178,399.672 256.56,401.587 255.293,401.91C250.682,403.231 245.91,403.959 240.922,404.984L240.922,410.835L262.896,410.835ZM301.345,560.668L301.345,560.911C309.569,560.48 317.765,559.859 325.989,559.698C329.872,559.617 331.678,557.163 331.489,554.332C331.354,551.663 329.413,549.506 325.53,549.937C318.331,550.746 311.105,550.773 303.879,551.312C296.518,551.878 289.157,552.579 281.85,553.469C280.583,553.631 278.749,555.006 278.507,556.111C278.318,557.082 279.747,558.78 280.88,559.535C281.985,560.317 283.603,560.56 285.032,560.614C290.478,560.722 295.898,560.668 301.344,560.668L301.345,560.668ZM281.096,395.251C283.873,395.44 285.868,395.602 287.837,395.628C294.092,395.682 297.894,399.888 297.193,406.009C296.627,411.159 297.085,416.444 297.085,421.378L318.979,421.378C318.521,418.951 318.062,416.471 317.577,413.936L312.697,413.936C302.532,413.963 301.346,412.831 301.184,402.666C301.076,396.303 301.157,389.913 301.157,383.307C295.818,382.956 291.127,382.363 286.408,382.417C284.952,382.417 282.552,383.9 282.202,385.14C281.366,388.214 281.42,391.557 281.097,395.251L281.096,395.251ZM645.39,516.934C628.754,516.934 612.253,516.745 595.778,517.177C593.837,517.258 592.003,520.709 590.089,522.597C591.976,524.053 593.756,525.698 595.805,526.938C596.668,527.423 598.07,527.046 599.202,527.046L637.813,527.046C646.576,527.019 647.358,526.075 645.39,516.935L645.39,516.934ZM712.258,434.832C713.687,442.759 713.687,442.759 720.724,442.759C732.938,442.732 745.152,442.732 757.339,442.732L775,442.732C775.944,433.888 775.944,433.861 767.882,433.861C752.028,433.861 736.174,433.834 720.32,433.915C717.759,433.942 715.197,434.481 712.258,434.832ZM775.917,405.847C775.216,397.246 775.216,397.219 766.884,397.246L708.644,397.246C708.887,400.482 709.048,403.043 709.237,405.847L775.917,405.847ZM703.334,496.28C705.383,505.286 707.271,513.86 709.374,522.38C709.617,523.324 711.019,524.618 711.935,524.699C716.842,524.888 721.749,524.78 727.061,524.78C727.061,520.142 726.899,516.044 727.088,511.973C727.25,508.09 728.679,505.475 733.37,505.879C737.603,506.23 741.89,505.96 746.312,505.96L746.312,497.332L719.861,497.332C719.861,502.509 720.185,507.308 719.699,512.027C719.483,513.753 717.299,515.289 716.032,516.907C714.711,515.262 713.147,513.752 712.203,511.946C711.637,510.921 712.095,509.385 712.095,508.036L712.095,496.28L703.334,496.28ZM326.124,582.696C326.367,579.811 326.582,576.495 326.879,572.801C324.371,572.801 322.592,572.72 320.785,572.801C308.355,573.556 295.952,574.365 283.522,575.066C279.72,575.255 274.732,573.637 272.386,575.524C269.851,577.546 269.825,582.642 268.719,586.417C268.665,586.687 268.935,587.037 269.339,588.062C287.916,586.336 306.709,584.53 326.123,582.696L326.124,582.696ZM608.613,430.114C609.772,438.499 611.013,446.373 611.849,454.273C612.2,457.374 612.119,460.636 611.445,463.629C610.69,466.999 612.065,471.233 614.977,471.313C621.853,471.529 628.728,471.394 636.008,471.394C636.008,468.105 635.981,465.327 636.008,462.577C636.089,454.057 636.089,453.922 627.488,453.625C623.093,453.436 621.044,451.495 620.855,447.046C620.585,441.384 619.884,435.749 619.372,430.113L608.613,430.114ZM318.332,536.994C317.146,532.222 320.354,527.584 314.126,527.045C311.43,526.829 308.706,526.802 306.01,526.856C284.844,527.341 263.651,524.537 242.593,528.743C235.852,530.118 233.156,532.707 233.803,539.555C233.911,540.634 234.612,542.251 235.421,542.575C236.23,542.872 237.956,542.09 238.549,541.254C242.593,535.7 247.986,534.028 254.565,534.729C256.641,534.918 258.825,534.19 260.955,534.244C272.711,534.595 284.467,534.945 296.249,535.484C303.232,535.808 310.189,536.428 318.332,536.994ZM628.35,430.248C628.485,432.971 628.701,435.371 628.754,437.825C628.808,440.413 628.754,442.948 628.754,445.563C631.046,445.86 632.502,446.021 633.958,446.237C643.368,447.45 644.554,448.798 644.581,458.451C644.608,462.684 644.608,466.89 644.608,471.097L657.496,471.097C655.636,457.373 653.802,443.972 651.969,430.248L628.35,430.248ZM695.46,326.873C695.163,332.967 694.84,338.575 694.543,344.453C695.379,344.534 696.161,344.642 696.97,344.669C723.501,344.993 750.006,345.181 776.51,345.667C780.096,345.775 781.956,344.535 783.197,341.002C781.606,340.436 779.988,339.303 778.371,339.303C761.088,339.276 743.778,339.573 726.495,339.465C716.276,339.438 715.629,338.575 715.225,328.734C715.225,328.491 714.874,328.222 714.713,328.006C708.323,327.629 701.987,327.251 695.462,326.874L695.46,326.873ZM713.175,319.62C721.075,320.833 721.56,321.4 724.904,332.562L778.075,332.562C777.724,328.652 777.428,324.958 777.077,321.103L759.255,321.103C757.745,326.145 757.152,327.035 751.544,326.954C744.372,326.846 737.2,325.956 729.758,325.363L729.758,305.303L713.176,305.303L713.175,319.62ZM636.412,572.073C618.023,569.889 600.282,574.257 582.271,576.198C582.541,581.456 582.783,586.12 582.972,589.976C601.927,589.14 620.235,588.304 638.92,587.468C638.111,582.507 637.275,577.357 636.412,572.072L636.412,572.073ZM754.563,497.359C754.563,500.082 754.698,502.536 754.536,504.963C754.239,510.194 751.247,512.944 746.097,512.971L735.743,512.971C735.743,517.501 735.797,521.276 735.743,525.077C735.662,531.926 734.368,533.328 727.438,533.543C722.531,533.678 717.597,533.57 712.393,533.57C712.797,535.565 713.094,537.075 713.391,538.504L743.535,538.504C743.535,533.678 743.562,529.094 743.535,524.51C743.535,520.223 746.339,518.309 749.952,518.066C755.533,517.689 761.142,517.823 766.75,518.012C770.201,518.147 772.52,519.792 772.439,523.755C772.304,528.635 772.385,533.542 772.385,538.423L787.026,538.423C787.457,529.444 787.916,520.843 788.347,511.946C781.31,511.946 775.054,511.973 768.826,511.946C764.782,511.919 762.274,509.708 761.762,505.879C761.385,503.21 761.951,500.379 762.139,497.359L754.563,497.359ZM638.515,479.294C632.098,479.294 625.654,479.375 619.237,479.24C616.487,479.213 615.166,479.86 614.734,482.961C614.195,486.951 613.224,491.023 611.606,494.717C607.076,505.259 610.905,504.909 619.317,505.96C620.288,506.122 621.366,506.257 622.283,506.014C626.408,504.989 630.48,503.399 634.659,502.725C643.719,501.323 652.832,495.849 662.026,502.482C662.107,502.509 664.291,500.541 664.183,499.678C663.482,494.205 662.35,488.812 661.514,483.339C661.083,480.535 660.058,479.052 656.796,479.214C650.729,479.457 644.609,479.295 638.515,479.295L638.515,479.294ZM235.691,456.564C238.603,458.883 240.868,461.067 243.456,462.712C244.966,463.656 247.446,464.815 248.66,464.195C257.827,459.665 266.914,461.687 275.946,464.114C279.451,465.058 283.064,466.325 286.057,468.266C289.913,470.747 292.771,470.504 295.143,466.54C297.408,462.738 299.619,458.91 302.072,455.243C307.357,447.262 312.803,439.416 319.059,430.195C291.692,429.521 265.807,428.901 239.546,428.281C238.171,438.176 236.931,447.425 235.69,456.565L235.691,456.564ZM694.004,351.194C692.845,360.28 691.82,369.151 690.499,378.022C689.528,384.439 694.516,389.319 700.853,387.378C709.4,384.79 717.759,382.956 726.737,386.057C732.076,387.944 737.927,388.78 743.589,389.104C755.399,389.832 767.262,390.021 779.126,390.156C783.036,390.21 787.026,389.725 790.909,389.185C794.765,388.619 795.708,385.707 793.39,382.822C792.419,381.582 791.691,380.072 791.233,378.535C788.833,370.554 786.568,362.546 784.25,354.538C783.63,352.273 782.686,351.087 779.882,351.087C751.517,351.249 723.152,351.195 694.005,351.195L694.004,351.194ZM790.963,488.245C792.716,476.354 794.522,464.787 795.843,453.112C796.005,451.791 793.632,449.418 791.96,448.798C789.938,448.07 787.403,448.582 785.084,448.717C775.782,449.283 766.48,449.957 757.177,450.497C752.998,450.767 748.738,450.578 744.585,451.063C740.109,451.629 735.606,453.678 731.265,453.355C722.88,452.735 714.521,450.847 706.163,449.661C703.682,449.31 699.53,448.663 698.964,449.715C697.023,453.139 693.571,456.24 694.866,461.174C696.888,468.912 698.587,476.759 699.989,484.632C700.636,488.191 701.984,489.404 705.705,489.324C729.621,488.839 753.51,488.569 777.426,488.245C781.848,488.191 786.27,488.245 790.961,488.245L790.963,488.245ZM213.905,667.71L238.037,667.71L238.037,661.428L331.517,661.428C331.706,662.857 331.894,664.61 332.164,666.901L357.967,666.901C357.967,657.572 357.724,649.348 358.075,641.178C358.291,636.325 356.511,634.842 351.901,634.815C320.57,634.572 289.239,634.249 257.909,633.736C244.778,633.52 231.647,632.765 217.492,632.253C216.387,643.443 215.2,654.929 213.906,667.709L213.905,667.71ZM549.457,718.966C551.398,718.966 552.989,719.02 554.607,718.966C565.5,718.669 576.366,718.211 587.232,718.13C608.29,717.941 629.348,718.13 650.406,717.941C669.361,717.779 688.316,717.321 707.271,716.943C707.864,716.943 708.484,716.646 709.832,716.296C708.996,703.57 708.187,690.87 707.324,677.55C696.889,678.494 687.452,679.33 677.881,680.192C677.773,681.891 677.773,683.023 677.665,684.156C677.072,690.681 676.425,691.193 669.873,691.355C663.995,691.49 658.117,692.083 652.212,692.137C627.487,692.245 602.762,692.272 578.037,692.245C574.613,692.218 572.186,690.6 572.375,686.556C572.51,683.887 572.402,681.19 572.402,678.683C564.313,679.357 557.033,679.95 549.457,680.57L549.457,718.966ZM706.488,669.301C704.277,656.17 702.093,643.39 700.125,631.526L549.457,631.526L549.457,674.586C557.195,674.047 564.61,673.507 572.294,672.941C572.294,670.353 571.836,667.791 572.483,665.499C572.887,663.989 574.802,661.778 576.096,661.751C585.614,661.427 595.186,661.643 604.73,661.535C626.92,661.238 649.138,660.942 671.355,660.483C675.076,660.402 676.343,661.912 676.37,665.282C676.37,667.843 676.613,670.378 676.721,672.373C686.724,671.348 696.134,670.378 706.488,669.299L706.488,669.301ZM567.953,608.742C567.414,599.521 567.36,590.111 566.281,580.862C564.771,568.136 562.803,555.463 560.403,542.898C559.055,535.645 557.464,535.16 549.456,536.373L549.456,624.649L697.401,624.649C690.148,601.137 682.032,578.489 670.384,557.188C666.34,549.773 661.298,544.435 652.13,543.814C646.63,543.41 644.715,544.866 646.279,550.15C651.51,567.622 655.986,585.202 656.552,603.59C656.687,607.823 655.15,608.821 651.159,608.821C626.084,608.686 601.035,608.74 575.96,608.74L567.953,608.742ZM269.745,548.831C267.318,548.265 266.402,547.86 265.458,547.86C260.982,547.806 256.479,547.806 251.95,547.914C249.146,547.995 245.29,547.213 243.726,548.723C238.037,554.196 231.35,559.131 229.463,567.678C226.821,579.784 223.612,591.756 221.105,603.862C219.784,610.36 219.46,617.02 218.517,625.001C265.028,625.81 310.703,626.646 355.919,627.455L355.919,539.556C350.23,539.34 345.943,539.718 344.864,545.865C343.273,554.844 341.197,563.714 339.741,572.72C337.908,584.152 336.452,595.611 334.861,606.774C306.712,607.745 278.617,608.661 249.901,609.632C253.137,588.277 256.723,567.489 269.746,548.831L269.745,548.831ZM318.493,373.869C317.927,371.227 317.576,368.8 316.875,366.481C316.066,363.677 314.61,360.981 314.044,358.123C310.269,340.085 306.683,321.966 302.962,303.874C301.452,296.405 301.776,288.074 293.795,283.22C290.317,289.637 286.704,295.973 283.495,302.498C282.875,303.819 283.414,306.165 284.169,307.648C285.625,310.587 287.674,313.283 285.922,317.678C283.414,314.254 281.662,311.261 279.343,308.834C276.539,305.922 276,302.983 277.725,299.505C283.522,287.83 289.4,276.263 295.035,264.534C295.979,262.566 296.626,259.708 295.898,257.82C288.672,238.488 287.324,218.158 285.113,197.936C284.655,193.622 283.333,189.362 282.039,185.183C280.691,181.004 278.642,177.04 277.374,172.861C275.352,166.309 273.68,159.676 271.901,153.043C271.416,153.151 270.957,153.286 270.499,153.394C270.122,154.634 269.582,155.848 269.394,157.115C264.406,185.345 259.148,213.521 254.591,241.832C252.299,256.23 250.924,270.79 249.657,285.323C249.145,291.417 250.061,297.618 250.061,303.766C250.061,311.235 250.25,318.757 249.522,326.172C248.848,332.67 246.664,338.818 244.345,345.1C241.136,353.917 242.134,364.351 241.325,373.869L318.493,373.869ZM723.717,72.317C723.124,72.29 722.558,72.29 721.964,72.236C721.479,75.175 721.02,78.087 720.508,80.999C718.351,93.186 715.655,105.346 714.118,117.614C711.61,137.755 710.343,158.058 707.674,178.199C705.005,198.151 702.875,218.131 704.142,238.272C704.277,240.052 705.625,241.75 706.38,243.368C710.937,239.027 714.091,234.47 718.432,232.259C726.925,227.918 727.006,221.042 726.602,213.304C726.359,208.936 727.33,204.892 730.916,201.71C733.612,199.31 735.85,196.452 738.466,193.945C739.221,193.217 740.488,193.082 741.54,192.651C741.432,193.783 741.729,195.32 741.109,195.994C738.574,198.555 735.555,200.659 733.128,203.328C731.942,204.649 731.025,206.806 731.025,208.613C730.998,214.626 731.51,220.665 731.591,226.678C731.591,227.568 730.566,228.889 729.704,229.374C721.211,234.362 716.034,242.505 710.264,250.001C705.95,255.717 700.45,261.406 698.67,267.958C696.162,277.125 696.621,287.129 695.866,296.269L773.546,296.269C771.713,290.58 769.663,285.727 768.558,280.658C766.077,269.172 764.082,257.578 761.898,246.038C759.417,233.204 756.775,220.396 754.51,207.535C752.946,198.826 753.189,189.632 750.439,181.381C743.833,161.536 741.73,141.072 739.627,120.499C739.196,116.212 737.794,111.952 736.472,107.773C735.124,103.594 732.832,99.684 731.969,95.451C730.216,87.308 728.059,79.435 723.718,72.317L723.717,72.317ZM651.403,421.944C651.403,420.299 651.646,419.113 651.376,418.088C647.871,406.009 644.959,393.714 640.429,382.012C637.921,375.514 637.571,369.42 638.191,362.814C638.568,358.23 639.485,353.404 638.488,349.036C632.583,322.424 626.543,295.838 619.83,269.388C614.599,248.627 608.317,228.162 602.493,207.535C601.9,205.405 601.954,202.196 598.691,203.194C597.127,203.679 595.509,206.187 595.186,207.993C591.681,226.786 587.825,245.498 585.345,264.426C582.891,283.408 581.57,302.551 580.438,321.668C579.764,332.507 579.009,343.157 575.18,353.43C573.616,357.582 573.481,361.573 576.178,365.563C578.146,368.556 580.33,371.899 580.735,375.27C581.274,379.988 584.483,380.42 587.611,381.202C590.442,381.876 593.57,381.553 596.32,382.415C598.639,383.17 602.036,384.68 602.414,386.379C604.086,394.225 609.37,396.787 616.354,398.27C619.751,398.944 622.96,400.885 626.088,402.53C627.032,402.988 627.49,404.283 628.811,406.143C626.438,405.819 625.279,405.846 624.281,405.523C618.592,403.663 612.876,401.883 607.348,399.672C605.11,398.782 602.845,397.137 601.389,395.223C598.45,391.421 596.239,387.754 590.253,387.539C584.591,387.323 579.01,384.897 573.833,383.549C572.404,389.454 570.84,395.952 569.33,402.45C569.168,403.124 568.953,404.122 569.303,404.58C572.188,408.57 575.019,412.561 578.201,416.255C581.76,420.38 586.155,422.268 592.006,422.079C607.833,421.621 623.687,421.944 639.514,421.944L651.403,421.944ZM304.823,222.123C306.036,220.964 307.25,219.885 308.382,218.726L447.726,79.409C454.116,72.992 460.345,66.332 467.112,60.319C481.591,47.323 498.658,41.742 518.072,43.413C535.301,44.869 549.43,52.473 561.509,64.579C603.895,107.126 646.442,149.566 688.827,192.059C690.067,193.326 690.634,195.214 691.685,197.182C693.33,194.917 693.815,194.594 693.869,194.162C695.325,184.267 696.889,174.398 697.994,164.449C698.237,162.669 697.239,160.189 695.918,158.895C656.579,119.394 617.429,79.624 577.551,40.663C543.578,7.445 487.765,5.584 451.554,36.295C437.237,48.455 424.456,62.395 411.137,75.661C373.767,112.951 336.477,150.375 299.053,187.611C296.411,190.199 295.952,192.356 297.058,195.754C299.835,204.328 302.154,213.037 304.823,222.124L304.823,222.123ZM428.798,754.422L428.798,701.629L474.743,701.629L474.743,754.287L534.735,754.287L534.735,516.151C523.842,516.825 512.302,517.526 500.654,518.254C503.701,524.59 502.865,525.992 496.151,526.1C480.809,526.424 465.494,526.774 450.125,527.017C440.472,527.179 440.472,527.098 438.935,517.823C434.971,516.664 431.871,516.771 431.925,522.299C432.006,525.912 430.226,527.503 426.425,527.422C417.042,527.233 407.659,527.287 398.276,527.26C389.621,527.233 388.057,524.806 392.452,516.825C384.795,516.151 377.488,515.504 369.372,514.83L369.372,754.421L428.798,754.422ZM416.665,334.396C414.373,336.957 411.92,339.627 409.574,342.35C402.078,351.059 394.583,359.741 387.222,368.585C375.736,382.336 363.98,395.871 353.087,410.054C339.174,428.146 325.855,446.696 312.616,465.274C308.113,471.556 304.554,478.567 300.725,485.307C300.159,486.305 299.916,487.949 300.321,488.947C304.177,498.141 307.763,500.352 317.928,500.029C318.44,500.029 318.926,499.921 318.225,500.002C328.633,482.53 338.663,465.678 348.666,448.827C349.043,449.016 349.448,449.258 349.825,449.474C347.803,465.059 340.145,478.729 333.998,492.561C337.207,493.72 339.903,494.637 342.653,495.635C347.533,489.083 352.414,482.531 357.806,475.278C358.076,476.464 358.804,477.813 358.48,478.81C357.294,482.234 355.649,485.47 354.382,488.84C352.171,494.664 350.149,500.569 348.073,506.447C348.477,506.663 348.882,506.851 349.259,507.067C350.715,506.015 352.495,505.26 353.546,503.912C356.728,499.706 361.123,500.002 365.679,500.029C398.007,500.083 430.363,500.056 462.691,500.056L468.299,500.056C468.65,501.108 468.757,501.62 468.973,502.024C469.89,503.588 470.887,505.098 471.831,506.635C472.963,505.044 474.177,503.48 475.12,501.809C475.497,501.162 475.228,500.164 475.336,499.355C476.118,493.693 476.9,488.031 477.871,481.047C479.219,482.8 479.947,483.285 480.001,483.905C480.513,487.491 481.16,491.05 481.187,494.663C481.241,498.842 482.697,500.19 487.065,500.163C510.496,499.947 533.899,500.055 557.357,500.055C558.948,500.055 560.539,499.92 562.426,499.785C562.426,497.25 562.075,495.04 562.561,493.044C563.019,490.968 564.314,489.054 565.23,487.112C567.09,488.811 568.978,490.455 570.676,492.235C571.215,492.774 571.053,493.88 571.458,494.554C574.37,499.488 577.363,504.368 580.356,509.276C580.868,509.06 581.408,508.791 581.92,508.548L581.92,500.055C583.484,500.055 584.967,500.082 586.423,500.055C592.463,499.947 593.056,499.138 591.546,493.395C590.387,488.946 589.281,484.497 588.095,480.075C586.72,475.006 585.264,469.991 583.808,464.949L584.725,464.598C589.902,472.498 595.052,480.452 600.202,488.352C597.856,476.677 595.133,465.272 588.392,455.35C581.031,444.592 575.693,432.674 566.93,422.644C557.466,411.751 550.402,398.782 541.019,387.808C525.327,369.446 510.012,350.572 489.116,336.579C493.781,332.022 498.202,328.086 502.112,323.664C503.298,322.343 504.242,318.946 503.433,317.948C501.276,315.225 498.148,313.23 494.994,310.668C489.143,315.683 482.537,321.318 475.85,327.034C472.83,325.335 469.945,323.394 466.844,321.992C462.368,319.997 460.723,316.249 460.103,311.908C459.456,307.351 459.159,302.741 458.782,298.13C458.162,290.311 457.569,282.465 456.949,274.079C453.579,274.43 450.694,274.753 447.809,274.996C444.034,275.347 442.929,277.072 442.821,281.09C442.47,293.358 441.257,305.572 440.691,317.84C440.421,322.801 436.485,322.936 433.411,324.608C430.256,326.307 429.286,323.88 427.965,322.181C425.511,319.08 423.489,315.629 420.766,312.771C419.472,311.369 416.533,309.859 415.293,310.425C411.707,312.124 408.633,314.874 405.209,317.301C409.199,323.26 412.92,328.787 416.668,334.395L416.665,334.396ZM218.704,715.003C220.591,715.003 221.832,714.976 223.072,715.003C244.804,715.677 266.536,716.405 288.268,716.971C298.649,717.268 309.056,717.726 319.437,717.375C327.283,717.105 335.075,715.488 342.895,714.867C347.748,714.49 352.629,714.813 357.644,714.813L357.644,676.31C349.043,677.173 340.846,678.009 332.299,678.871L332.299,691.57L238.576,691.57L238.576,676.147L212.907,676.147L212.907,709.365C206.84,704.215 201.771,700.144 202.877,691.785C203.956,683.642 203.659,675.338 204.063,667.114C204.252,662.881 201.582,660.778 198.239,659.672C194.95,658.593 191.39,658.297 187.022,657.488C190.204,655.25 192.415,653.686 194.599,652.149L194.222,651.232C190.232,651.906 186.268,652.553 181.792,653.308C184.273,648.859 186.484,644.923 189.396,639.746C187.374,640.42 186.187,640.474 185.513,641.094C181.226,645.327 176.912,649.533 172.867,654.009C170.953,656.112 169.416,656.57 168.283,653.793C165.29,646.297 159.601,641.875 151.89,638.99C154.964,644.598 157.822,649.802 160.68,655.033C160.276,655.33 159.844,655.653 159.413,655.923C158.146,654.818 156.771,653.712 155.53,652.499C140.026,636.968 124.496,621.465 108.992,605.934C93.111,590.053 77.014,574.388 61.484,558.21C47.382,543.488 41.478,525.639 43.446,505.255C45.037,488.619 52.209,474.814 63.992,463.058C119.212,407.919 174.405,352.726 229.49,297.452C231.512,295.403 233.076,292.356 233.642,289.525C236.608,275.181 239.142,260.756 241.785,246.331C241.192,245.846 240.545,245.387 239.925,244.875C238.873,246.574 238.118,248.569 236.743,249.944C195.274,291.521 153.698,333.07 112.148,374.593C88.583,398.158 64.855,421.589 41.505,445.397C25.085,462.114 16.133,482.525 14.839,505.982C13.14,536.099 23.845,561.229 45.118,582.502C176.966,714.134 308.652,845.929 440.42,977.669C442.415,979.664 444.357,981.659 446.406,983.547C462.718,998.646 481.943,1007.409 504.052,1009.027C534.817,1011.238 560.701,1000.642 582.541,978.775C669.334,891.712 756.37,804.865 843.298,717.91C889.162,672.046 935.025,626.209 980.862,580.319C997.983,563.225 1007.663,542.571 1009.092,518.358C1010.925,488.079 1000.167,462.761 978.732,441.406C912.323,375.266 846.102,308.911 779.881,242.609C778.614,241.342 777.859,239.535 776.861,238.025C778.964,253.124 782.388,267.091 784.734,281.246C785.813,287.582 788.671,291.923 792.985,296.264C848.879,351.969 904.665,407.728 960.397,463.568C987.764,490.989 988.196,532.161 961.044,559.771C933.164,588.109 904.854,616.069 876.704,644.138C875.599,645.217 874.116,646.349 872.66,646.565C868.292,647.158 863.816,647.05 859.421,647.697C853.84,648.533 848.204,649.53 842.758,651.04C836.664,652.739 830.76,655.084 824.774,657.161C824.558,656.703 824.343,656.244 824.127,655.786C828.522,651.715 832.917,647.67 837.554,643.41C831.353,640.929 826.176,643.599 816.766,652.901C820.945,643.006 825.124,633.11 829.331,623.161C824.586,623.862 814.555,639.312 808.893,654.087C803.177,649.854 797.299,645.486 791.367,641.091C791.124,641.442 790.855,641.792 790.558,642.143C794.764,648.048 798.943,653.926 803.015,659.696C792.419,662.338 782.227,664.819 771.442,667.461C772.79,657.107 774.165,647.266 775.325,637.397C776.215,629.767 777.94,622.433 769.285,616.69C763.326,612.753 759.713,605.42 754.186,600.539C747.742,594.769 745.639,588.568 749.656,578.915C751.597,582.582 754.105,585.224 754.321,588.055C754.806,595.605 760.199,599.272 764.486,603.505C767.398,599.784 769.582,595.335 773.087,592.855C779.208,588.541 782.281,583.391 783.063,576.03C784.061,566.701 785.84,557.48 787.323,547.908L715.467,547.908C715.656,549.634 715.575,551.197 716.087,552.519C717.112,555.269 717.732,559.044 719.808,560.338C729.703,566.593 730.809,568.966 726.522,579.805C725.983,581.153 725.093,582.447 724.823,583.876C724.392,586.437 723.61,589.215 724.176,591.641C726.468,601.833 729.542,611.863 731.753,622.055C735.177,637.909 737.981,653.871 741.379,669.752C742.862,676.654 742.511,676.978 735.69,678.515C730.217,679.728 725.013,682.29 719.917,684.743C718.758,685.309 717.949,687.736 717.814,689.381C717.356,696.661 717.437,703.995 716.87,711.248C715.926,723.732 714.632,736.216 713.473,748.699C712.745,748.834 711.99,748.996 711.235,749.13C710.723,748.051 709.779,747.027 709.752,745.975C709.617,739.073 709.671,732.116 709.671,724.863C655.772,725.618 602.683,726.346 549.404,727.101C548.919,735.783 548.352,744.923 547.813,754.306L565.285,754.306C562.373,750.963 559.785,748.024 557.196,745.085C557.466,744.654 557.735,744.249 558.032,743.845C563.128,746.406 568.197,749.022 573.509,751.718C587.098,738.614 589.741,736.969 594.648,738.884C592.248,741.58 589.822,744.304 587.503,746.919C593.462,746.245 599.043,745.625 604.624,745.032C604.786,745.571 604.921,746.164 605.109,746.731C601.388,749.185 597.694,751.665 593.138,754.685L680.956,754.685C680.983,755.143 680.983,755.602 681.01,756.06C669.146,756.896 657.256,757.813 645.338,758.541C627.138,759.62 608.911,760.401 590.711,761.615C574.533,762.694 558.41,764.635 542.178,765.309C530.692,765.794 519.179,764.851 507.666,764.473C501.411,764.23 495.155,763.934 488.9,763.556C482.887,763.205 476.875,762.72 470.916,762.289C468.193,773.263 463.447,782.403 455.493,789.764C448.294,796.451 441.041,803.165 433.977,809.986C427.695,816.107 427.991,820.717 435.433,825.544C447.431,833.363 459.861,839.942 474.206,843.312C492.001,847.491 509.15,854.367 526.891,858.95C550.349,864.99 573.968,870.382 597.722,875.209C611.365,878.013 625.359,879.065 639.191,880.925C639.11,881.222 639.137,881.572 638.975,881.761C625.467,895.323 611.985,908.94 598.315,922.313C597.129,923.472 594.405,923.769 592.545,923.418C582.137,921.45 571.676,919.508 561.403,916.866C544.875,912.606 528.508,907.753 511.144,902.872C515.242,898.423 518.343,895.08 521.39,891.736C521.228,891.439 521.013,891.143 520.851,890.846C516.483,892.356 512.142,893.866 507.774,895.403C505.186,889.633 504.538,882.083 495.641,879.064C496.666,884.025 497.474,888.043 498.391,892.518C493.079,888.285 488.657,883.485 480.272,884.699C483.993,888.15 486.959,890.873 490.761,894.433C489.008,894.002 488.496,893.948 488.092,893.786C474.638,888.34 461.345,882.462 447.729,877.5C424.271,868.926 401.892,858.383 382.344,842.664C377.086,838.404 372.341,833.038 368.674,827.322C363.767,819.584 367.218,811.872 371.316,804.727C378.03,792.971 389.624,787.309 401.029,781.512C409.226,777.306 417.908,773.908 426.077,769.541C428.585,768.193 430.014,764.849 431.901,762.423C431.524,761.749 431.173,761.102 430.796,760.428C401.056,761.884 371.235,762.801 341.549,764.931C326.126,766.036 311.054,764.122 295.847,762.936C288.136,762.343 280.424,761.561 272.713,761.75C264.597,761.939 263.465,761.831 258.8,754.551L318.873,754.551C315.098,750.021 311.809,746.112 308.519,742.202L309.598,740.692C314.37,743.415 319.116,746.138 324.104,748.997C326.504,744.144 327.178,737.133 335.186,734.491C334.458,739.29 333.838,743.389 333.191,747.622C334.674,746.301 335.833,744.602 337.397,744.036C339.15,743.416 341.28,743.793 343.248,743.766C342.924,745.384 342.924,747.163 342.223,748.646C341.306,750.56 339.877,752.286 338.448,754.362L358.239,754.362C356.459,744.089 361.771,733.574 356.082,723.867C353.709,724.271 351.957,724.811 350.15,724.811C337.046,724.865 323.915,724.973 310.784,724.73C284.738,724.245 258.719,723.193 232.7,723.112C226.094,723.085 222.562,720.2 218.706,714.996L218.704,715.003ZM292.232,175.477C293.337,173.832 294.173,171.945 295.548,170.597C341.034,125.03 386.628,79.571 432.061,34.03C456.435,9.602 485.744,-1.965 520.095,0.273C547.274,2.08 570.677,12.999 590.01,32.251C625.574,67.599 661.003,103.136 696.486,138.619C697.726,139.859 699.021,141.019 699.91,141.855C705.006,105.186 710.129,68.462 715.225,31.928C724.554,32.171 726.711,33.708 728.572,41.068C735.825,69.568 743.294,98.013 750.142,126.594C755.076,147.274 759.013,168.171 763.516,188.932C765.026,195.781 766.671,202.629 768.639,209.343C769.259,211.365 771.093,213.172 772.683,214.736C845.267,287.374 917.851,359.958 990.408,432.542C1012.302,454.463 1023.842,480.751 1023.869,511.867C1023.923,542.551 1012.949,568.866 991.298,590.518C897.791,684.187 804.149,777.721 710.561,871.336C671.249,910.648 631.803,949.879 592.599,989.325C568.332,1013.807 539.213,1025.806 504.808,1023.783C476.47,1022.111 452.473,1010.436 432.44,990.403C383.476,941.331 334.43,892.366 285.412,843.348C201.639,759.548 117.865,675.72 34.011,592.001C9.61,567.654 -1.984,538.318 0.281,503.967C2.088,476.249 13.466,452.576 33.149,432.893C86.724,379.372 140.272,325.797 193.847,272.249C208.569,257.527 223.048,242.617 238.066,228.246C243.135,223.366 245.616,218.054 246.667,211.313C249.714,191.495 252.841,171.678 256.643,151.968C258.557,142.127 261.82,132.474 264.813,122.875C266.35,117.914 268.857,117.833 272.309,121.203C278.322,126.973 279.616,134.765 281.8,142.045C285.036,152.695 287.516,163.588 290.32,174.346C290.94,174.697 291.587,175.074 292.234,175.478L292.232,175.477Z" style="fill:rgb(69,28,21);fill-rule:nonzero;"/>
    </g>
    <g transform="matrix(0.058594,0,0,0.058594,-0.000164,-0.000023)">
        <path d="M395.742,607.556L503.539,607.556C506.397,617.101 500.492,623.788 495.882,630.178C486.229,643.498 472.397,649.942 456.004,650.535C450.746,650.751 445.354,650.939 440.285,649.942C428.961,647.704 419.551,641.772 410.788,634.304C402.537,627.24 398.52,618.234 395.743,607.557L395.742,607.556Z" style="fill:rgb(69,28,21);fill-rule:nonzero;"/>
    </g>
    <g transform="matrix(0.058594,0,0,0.058594,-0.000164,-0.000023)">
        <path d="M467.643,589.429C485.438,592.314 502.533,586.49 519.115,593.959C515.125,598.246 511.565,600.16 506.442,600.08C468.182,599.514 429.922,599.298 391.661,598.975C390.987,598.948 390.124,599.218 389.693,598.867C387.725,597.384 385.837,595.739 383.923,594.149C385.703,593.07 387.374,591.588 389.262,590.994C391.392,590.32 393.792,590.239 396.084,590.239C406.114,590.158 416.144,590.212 427.496,590.212C427.496,583.094 427.415,576.434 427.523,569.72C427.631,562.44 427.766,562.44 435.153,562.548C444.563,562.656 453.973,562.71 463.383,562.548C466.592,562.494 467.751,563.519 467.697,566.754C467.535,574.304 467.643,581.88 467.643,589.43L467.643,589.429Z" style="fill:rgb(69,28,21);fill-rule:nonzero;"/>
    </g>
    <g transform="matrix(0.058594,0,0,0.058594,-0.000164,-0.000023)">
        <path d="M467.894,554.207C442.846,554.207 418.66,554.45 394.474,554.072C387.167,553.964 386.25,551.807 388.434,544.824C392.155,532.96 392.613,532.826 405.151,532.745C420.789,532.637 436.455,532.044 452.12,531.747C457.351,531.639 462.609,531.747 467.893,531.747L467.894,554.207Z" style="fill:rgb(69,28,21);fill-rule:nonzero;"/>
    </g>
    <g transform="matrix(0.058594,0,0,0.058594,-0.000164,-0.000023)">
        <path d="M476.711,532.664C483.613,532.664 490.651,532.556 497.661,532.772C498.793,532.799 500.519,533.958 500.923,535.037C502.433,538.812 504.32,542.694 504.482,546.658C504.617,548.815 501.786,552.886 499.952,553.075C493.05,553.857 485.958,553.399 478.732,553.399C478.031,546.308 477.411,539.702 476.71,532.665L476.711,532.664Z" style="fill:rgb(69,28,21);fill-rule:nonzero;"/>
    </g>
    <g transform="matrix(0.058594,0,0,0.058594,-0.000164,-0.000023)">
        <path d="M286.496,319.785C285.714,327.335 282.802,333.94 277.436,340.519C276.735,334.992 280.375,326.606 286.496,319.785Z" style="fill:rgb(69,28,21);fill-rule:nonzero;"/>
    </g>
</svg>
