<?xml version="1.0" encoding="UTF-8" standalone="no"?>
<!DOCTYPE svg PUBLIC "-//W3C//DTD SVG 1.1//EN" "http://www.w3.org/Graphics/SVG/1.1/DTD/svg11.dtd">
<svg width="100%" height="100%" viewBox="0 0 60 60" version="1.1" xmlns="http://www.w3.org/2000/svg" xmlns:xlink="http://www.w3.org/1999/xlink" xml:space="preserve" xmlns:serif="http://www.serif.com/" style="fill-rule:evenodd;clip-rule:evenodd;stroke-linejoin:round;stroke-miterlimit:2;">
    <g transform="matrix(0.058594,0,0,0.058594,0.000103,-0)">
        <path d="M827.616,323.22L964.7,460.304C996.425,492.029 996.425,543.506 964.7,575.231L564.994,974.963C533.242,1006.715 481.739,1006.715 449.987,974.963L50.281,575.231C18.529,543.506 18.529,492.029 50.281,460.304L224.222,286.39L246.245,262.389L272.839,136.931L295.931,29.995L313.624,16.418L328.725,22.084L345.911,43.626L378.812,131.799L450.013,60.571C481.738,28.819 533.215,28.819 564.967,60.598L667.68,163.311L692.242,122.231L703.227,96.092L719.744,87.86L738.293,100.93L802.198,252.794L820.747,288.528L827.616,323.22Z" style="fill:rgb(232,203,158);fill-rule:nonzero;"/>
    </g>
    <g transform="matrix(0.058594,0,0,0.058594,0.000103,-0)">
        <path d="M507.516,1013.012C483.013,1013.012 458.472,1003.694 439.863,985.084L40.155,585.324C2.932,548.133 2.932,487.366 40.155,450.174L213.882,276.499L233.092,255.618L258.88,133.936L283.049,21.859L311.238,0.248L337.443,10.062L358.532,36.476L384.424,105.956L439.914,50.466C477.105,13.243 537.85,13.221 575.064,50.466L664.851,140.253L679.467,115.77L692.1,85.65L721.02,71.242L749.887,91.601L815.139,246.692L834.401,283.755L840.822,316.172L974.824,450.174C1012.018,487.368 1012.018,548.13 974.824,585.324L575.116,985.084C556.507,1003.693 532.017,1013.012 507.515,1013.012L507.516,1013.012ZM507.516,984.562C524.641,984.562 541.72,977.972 554.863,964.83L954.571,565.122C980.828,538.865 980.828,496.685 954.571,470.428L814.41,330.267L813.575,325.986L807.102,293.308L789.249,258.855L726.711,110.237L718.463,104.443L714.339,106.531L705.047,128.717L670.542,186.4L554.863,70.721C528.573,44.409 486.376,44.388 460.117,70.669L373.201,157.637L333.319,50.78L320.008,34.075L316.041,32.613L308.785,38.146L286.808,139.939L259.402,269.19L234.554,296.283L60.409,470.428C34.128,496.687 34.128,538.863 60.409,565.122L460.117,964.83C473.26,977.973 490.391,984.562 507.516,984.562Z" style="fill:rgb(232,203,158);fill-rule:nonzero;"/>
    </g>
    <g transform="matrix(0.058594,0,0,0.058594,0.000103,-0)">
        <path d="M972.897,583.803L574.822,981.878C556.273,1000.4 531.871,1009.701 507.469,1009.701C483.094,1009.701 458.692,1000.453 440.143,981.878L42.095,583.803C4.971,546.679 4.971,486.302 42.095,449.205L215.822,275.451L216.383,275.745L237.925,254.417C238.166,253.188 238.46,251.931 238.754,250.648L246.291,225.712C249.178,216.09 252.198,206.549 255.191,197.034C262.06,175.358 268.528,154.885 273.606,133.824C278.684,112.897 282.399,90.873 285.981,69.572C287.638,59.817 289.295,50.061 291.059,40.306C292.529,32.288 298.275,25.713 306.053,23.227C308.432,22.452 311.024,22.104 313.644,22.104C321.181,22.104 328.905,25.258 332.968,31.298C334.812,33.65 337.244,36.804 338.901,41.401C340.906,47.04 342.75,52.787 344.621,58.533C349.539,73.687 354.136,87.986 361.887,99.853C363.143,101.804 364.346,103.835 365.575,105.867C367.74,109.475 369.851,113.217 371.963,117.173C372.364,117.868 372.711,118.536 373.086,119.284L389.416,102.9C389.282,102.659 389.149,102.499 389.015,102.259L440.171,51.076C477.322,14.005 537.672,14.005 574.823,51.076L669.731,146.011L669.891,145.77C672.43,142.295 675.049,138.794 677.482,135.239C677.669,134.945 677.856,134.491 678.017,134.17C678.552,133.235 679.14,132.246 679.567,131.15C681.197,126.687 682.721,122.357 683.549,118.535C687.531,99.799 701.563,91.46 709.982,86.489C713.43,84.458 717.332,83.389 721.234,83.389C723.8,83.389 726.366,83.843 728.798,84.725C735.025,86.997 739.89,91.941 742.081,98.196C743.23,101.457 744.326,104.717 745.368,107.978C747.56,114.499 749.591,120.673 752.023,126.34L753.653,130.242C766.696,160.925 780.247,192.704 794.332,223.413C798.207,231.912 803.633,240.278 809.326,249.151L812.266,253.695C814.244,255.005 815.714,256.047 817.023,257.196C820.257,259.842 825.79,264.386 828.275,272.243C830.039,277.882 831.696,283.709 833.353,289.536C834.128,292.155 834.93,294.694 835.705,297.421L838.191,306.161C839.046,309.101 839.26,312.175 838.859,315.141L839.581,315.889L841.559,317.787L841.586,317.894L972.897,449.205C1010.021,486.302 1010.021,546.679 972.897,583.803ZM982.973,439.102L864.518,320.7C863.422,318.936 862.38,317.119 861.043,315.568C861.417,310.41 860.883,305.144 859.413,300.039L856.954,291.353C854.442,282.56 851.983,274.034 849.337,265.615C844.874,251.503 835.252,243.565 831.323,240.304C830.414,239.556 829.479,238.834 828.436,238.086L827.901,237.177C822.609,229.025 817.638,221.274 814.404,214.218C800.452,183.776 786.982,152.157 773.966,121.555L772.309,117.706C770.251,112.868 768.38,107.122 766.349,101.028C765.253,97.687 764.104,94.319 762.928,90.925C758.571,78.417 748.816,68.528 736.361,64.011C731.443,62.194 726.338,61.312 721.233,61.312C713.402,61.312 705.598,63.397 698.702,67.486C688.733,73.419 667.939,85.741 661.952,113.938C661.738,114.873 661.391,116.023 661.07,117.199L584.844,41.026C564.211,20.339 536.735,8.953 507.469,8.953C478.256,8.953 450.781,20.339 430.12,41.026L381.476,89.643C381.102,89.028 380.754,88.36 380.353,87.772C374.232,78.391 370.25,66.043 365.626,51.744C363.702,45.784 361.777,39.85 359.693,33.997C356.86,26.086 352.797,20.794 351.274,18.95C343.015,6.709 328.315,0 313.589,0C308.751,0 303.914,0.722 299.29,2.218C283.761,7.189 272.242,20.312 269.329,36.322C267.538,46.158 265.881,56.02 264.197,65.936C260.509,87.799 257.034,108.459 252.17,128.638C247.252,148.924 240.918,169.05 234.156,190.351C231.109,200 228.062,209.621 225.149,219.323C222.476,228.143 219.216,242.202 216.008,255.111L31.991,439.101C-10.666,481.784 -10.666,551.168 31.991,593.878L430.066,991.953C450.753,1012.613 478.255,1023.999 507.468,1023.999C536.734,1023.999 564.21,1012.613 584.897,991.953L982.972,593.878C1025.629,551.168 1025.629,481.784 982.972,439.101L982.973,439.102Z" style="fill:rgb(69,28,21);fill-rule:nonzero;"/>
    </g>
    <g transform="matrix(0.058594,0,0,0.058594,0.000103,-0)">
        <path d="M477.537,355.138C482.482,361.633 487.827,367.78 492.852,374.221C500.122,383.442 507.525,392.396 518.189,398.169C524.871,401.804 531.472,405.92 537.192,410.864C547.535,419.844 559.349,426.099 571.724,431.391C580.303,435.053 589.23,437.912 598.665,441.387C610.238,419.364 626.461,399.826 632.983,376.707C625.125,372.564 617.588,369.277 610.799,364.813C600.536,358.051 590.513,350.888 580.918,343.164C572.579,336.375 565.015,328.678 557.131,321.274C554.031,318.361 550.583,315.635 548.231,312.187C541.015,301.79 534.039,291.233 527.384,280.489C524.818,276.373 523.375,271.589 521.477,267.125C520.862,265.655 520.675,263.918 519.873,262.555C513.565,251.57 507.178,240.612 500.71,229.734C500.015,228.585 498.411,227.382 497.182,227.329C484.781,226.768 472.299,226.794 459.924,225.966C446.56,225.031 433.25,223.4 419.913,222.091C419.886,221.61 419.833,221.156 419.806,220.674C442.257,211.079 465.83,207.23 489.35,208.567C483.203,198.25 476.307,188.334 471.149,177.617C466.044,166.819 462.489,155.273 458.56,143.967C456.823,139.022 454.177,138.06 450.301,141.642C447.682,144.101 445.089,146.56 442.229,148.751C437.231,152.573 432.5,157.357 426.807,159.682C417.613,163.424 407.991,166.872 397.674,166.471C396.845,166.444 395.99,166.925 394.761,167.246C407.082,179.915 422.985,182.16 440.171,184.378C437.979,186.062 436.91,187.585 435.627,187.772C425.524,189.322 415.662,189.536 406.681,183.095C403.34,180.716 398.984,179.834 395.349,177.856C390.271,175.13 385.246,172.19 380.489,168.902C377.095,166.523 374.074,163.476 371.161,160.483C371.134,160.483 371.108,160.456 371.108,160.43C368.328,157.597 365.014,154.817 363.571,151.316C357.851,137.632 351.544,124.428 343.365,111.893C330.83,92.676 325.725,70.199 318.108,48.843C317.413,46.945 315.836,45.368 314.66,43.631L312.789,44.272C307.016,75.864 302.633,107.829 295.069,138.993C287.505,170.344 276.814,200.893 267.406,232.084C271.228,232.084 274.863,232.325 278.444,232.057C285.34,231.496 292.075,231.897 298.703,232.805C303.354,233.473 307.897,234.409 312.414,235.665C312.628,235.772 312.895,235.799 313.136,235.852C317.733,237.188 322.277,238.819 326.767,240.823C329.841,242.186 333.262,242.828 336.496,243.87C339.356,244.832 342.269,245.447 345.182,245.928C346.144,246.115 347.16,246.195 348.149,246.302C350.1,246.569 352.051,246.756 354.002,246.89C355.178,246.943 356.327,246.997 357.503,247.024C359.32,247.051 361.138,247.051 362.929,247.051C366.885,246.998 370.814,246.891 374.742,246.704C383.749,246.41 391.447,249.136 399.224,253.466C405.131,256.78 411.946,259.105 418.628,260.388C428.464,262.232 438.567,262.526 447.36,268.299C449.739,269.849 452.732,270.464 455.512,271.346C465.855,274.74 476.252,278.028 486.622,281.315L486.381,283.079C481.249,282.785 476.171,282.224 471.04,282.277C463.369,282.357 455.699,282.571 448.055,283.293C440.17,284.041 432.393,285.859 424.482,286.554C412.508,287.623 400.508,288.478 388.454,288.799C382.173,288.986 375.839,287.57 369.504,287.276C362.314,286.982 355.045,287.65 347.908,286.955C330.615,285.191 313.59,287.008 296.298,290.055C298.944,291.819 301.724,293.423 304.664,293.85C311.105,294.785 317.653,294.999 324.095,295.748C332.033,296.657 339.891,297.833 347.775,298.875C357.905,300.211 368.061,301.361 378.137,302.911C384.311,303.873 390.378,305.45 397.327,306.92C395.723,308.23 394.895,309.406 393.852,309.646C389.095,310.635 384.284,312.051 379.526,312.132C358.599,312.533 337.644,312.56 316.717,312.64C308.966,312.693 301.723,314.377 294.72,317.852C290.551,319.91 286.034,321.433 281.517,322.422C269.971,325.041 258.264,324.961 246.504,323.678C242.976,323.304 239.421,323.625 235.679,323.625C233.247,340.757 230.734,357.435 228.596,374.193C226.431,391.138 221.567,407.361 216.114,423.505C208.737,445.234 197.004,463.943 180.219,479.579C176.905,482.653 173.778,486.02 170.651,489.308C166.161,494.012 161.804,498.93 157.154,503.473C154.775,505.772 151.835,507.455 149.136,509.406C183.801,460.736 207.214,419.148 210.341,398.969C204.969,404.582 199.516,410.328 193.476,416.636C185.11,409.553 177.226,402.845 169.288,396.136C165.573,393.036 161.938,393.009 158.463,396.323C145.955,408.056 133.767,420.11 120.991,431.603C113.641,438.178 105.81,444.379 97.578,449.778C92.901,452.825 87.101,451.756 81.568,449.992L62.217,469.316C36.185,495.295 36.185,537.684 62.217,563.663L94.771,596.217C97.925,595.95 100.143,595.736 102.362,595.522C111.717,594.72 120.991,594.373 130.132,591.272C138.925,588.252 148.2,586.515 157.34,584.804C168.138,582.799 178.481,580.234 186.767,572.296C192.219,567.164 197.511,561.552 203.792,557.569C223.223,545.168 237.201,527.501 250.618,509.487C260.721,495.883 271.171,482.225 277.372,466.162C278.521,463.195 278.655,459.774 278.922,456.54C279.269,451.622 277.372,446.384 281.488,442.134C284.107,439.408 286.753,436.682 288.891,433.635C297.925,420.752 307.707,408.351 312.384,392.903C313.373,389.616 315.03,386.515 316.42,383.308C316.473,387.584 315.805,391.567 315.217,395.576C312.999,410.65 308.508,424.842 300.276,437.832C297.79,441.761 296.187,446.251 294.423,450.581C293.942,451.784 293.915,453.494 294.396,454.67C296.267,459.187 295.305,463.383 292.926,467.178C289.077,473.379 284.908,479.419 280.578,485.299C276.622,490.698 271.624,495.429 268.257,501.122C256.444,521.061 241.343,538.406 225.36,554.87C212.932,567.672 199.248,579.245 186.231,591.326C199.942,592.716 213.92,594.159 227.899,595.522C233.111,596.03 238.376,596.083 243.534,596.832C252.568,598.142 261.468,599.291 270.021,594.587C271.544,593.758 273.255,593.144 274.966,592.663C285.817,589.643 296.989,587.531 307.466,583.549C327.805,575.825 348.065,567.486 363.246,550.862C370.73,542.657 377.999,534.291 385.162,525.819C397.243,511.547 409.163,497.114 421.003,482.922C408.441,463.946 397.189,444.301 391.523,421.984C392.111,421.663 392.726,421.289 393.314,420.915C405.742,438.689 418.17,456.489 430.171,473.648C440.301,464.587 450.056,455.874 459.651,447.268C464.702,451.437 468.818,455.366 473.389,458.6C482.396,464.961 491.457,471.295 500.865,476.988C505.168,479.607 510.326,481.906 515.218,482.253C522.06,482.788 529.036,481.318 535.958,480.703C537.856,480.489 539.887,480.489 541.704,479.901C549.188,477.362 556.484,474.235 564.048,472.15C573.269,469.611 579.015,463.009 585.082,456.702C580.378,454.323 575.781,452.292 571.478,449.78C557.981,441.842 544.804,433.316 531.093,425.832C522.273,420.994 515.377,414.5 509.07,406.909C503.35,400.04 497.363,393.251 490.735,387.345C484.187,381.518 480.231,374.329 476.783,366.605C475.019,362.596 473.095,358.667 471.438,354.604C469.674,350.194 468.097,345.704 466.44,341.24C466.814,341.08 467.188,340.919 467.589,340.786C470.876,345.597 473.977,350.515 477.532,355.139L477.537,355.138Z" style="fill:rgb(69,28,21);fill-rule:nonzero;"/>
    </g>
    <g transform="matrix(0.058594,0,0,0.058594,0.000103,-0)">
        <path d="M409.111,858.115C392.38,856.004 375.461,853.839 358.65,858.195C357.982,858.382 357.073,858.115 356.298,857.741L363.675,865.118C404.274,862.258 441.585,875.194 479.831,883.56C472.615,879.872 465.532,875.969 458.182,872.602C442.52,865.519 426.163,860.254 409.111,858.116L409.111,858.115Z" style="fill:rgb(69,28,21);fill-rule:nonzero;"/>
    </g>
    <g transform="matrix(0.058594,0,0,0.058594,0.000103,-0)">
        <path d="M910.989,567.892C894.231,561.718 880.386,551.161 866.916,539.855C855.37,530.153 843.85,520.264 829.471,514.731C828.749,514.49 828.161,513.929 827.6,513.181C835.779,514.491 843.984,515.319 851.387,519.622C859.779,524.486 868.466,528.789 876.831,533.627C883.807,537.716 890.275,542.581 897.331,546.536C903.772,550.144 910.695,552.951 917.376,556.185C921.679,558.27 925.955,560.488 930.713,562.92C921.92,572.194 922.027,571.954 910.988,567.891L910.989,567.892ZM952.764,469.295L920.959,437.516C922.001,438.558 922.99,439.627 924.006,440.67C923.712,441.231 923.445,441.793 923.177,442.381C917.618,440.964 911.257,440.831 906.793,437.811C900.272,433.428 895.167,426.88 889.394,421.32C884.61,416.696 879.906,411.859 874.774,407.636C869.616,403.386 866.756,404.028 862.56,409.32C860.288,412.207 858.07,415.12 855.424,418.514C851.629,413.115 846.871,408.705 845.027,403.306C839.548,387.403 835.138,371.126 830.38,354.956C829.338,351.348 828.563,347.633 827.814,344.666C817.711,344.078 808.357,344.586 799.537,342.688C782.271,339.026 765.059,336.167 747.312,337.129C744.185,337.289 740.978,336.006 737.797,335.365C746.457,331.383 754.902,327.962 763.455,324.968C764.898,324.46 766.368,323.845 767.812,323.364C774.734,321.146 782.138,318.553 789.194,318.901C791.412,319.008 793.497,318.767 795.528,318.366C797.239,318.045 798.869,317.591 800.499,317.083L800.526,317.083C805.845,315.426 811.03,313.154 816.963,312.272C813.622,300.619 810.629,289.687 807.234,278.863C806.619,276.965 804.454,275.442 802.771,273.999C800.339,271.941 796.864,270.658 795.261,268.146C787.911,256.52 779.946,245.08 774.253,232.599C759.446,200.366 745.575,167.679 731.677,134.991C727.641,125.503 724.755,115.507 721.253,105.484C714.09,109.707 707.114,113.85 705.136,123.124C704.013,128.443 702.143,133.655 700.245,138.786C699.122,141.913 697.572,144.96 695.675,147.713C691.078,154.448 686.187,161.077 681.322,167.652C676.217,174.601 671.005,181.47 665.82,188.366C659.111,197.32 650.158,202.986 639.547,206.006C642.567,208.064 645.186,210.897 648.447,211.966C661.196,216.189 673.303,214.746 684.261,206.38C687.522,203.894 691.157,201.89 694.631,199.671C694.872,199.965 695.139,200.232 695.433,200.553C693.722,202.664 692.092,204.856 690.382,206.968C687.763,210.255 685.09,213.543 682.578,216.937C677.045,224.421 669.508,225.089 661.223,223.646C660.261,223.432 659.245,223.459 658.31,223.299C654.942,222.658 651.601,221.963 648.261,221.188C639.788,219.264 631.53,216.537 624.153,211.433C620.144,208.653 616.375,208.787 613.275,212.662C610.656,215.896 608.384,219.397 605.925,222.765C594.539,238.347 579.706,250.454 565.086,262.695C557.442,269.083 548.756,274.268 540.631,279.934C550.707,303.133 567.866,318.715 586.201,333.469C589.97,330.77 594.005,328.685 596.999,325.584C603.52,318.902 609.694,311.846 615.708,304.657C621.909,297.254 627.735,289.529 633.749,281.939C634.07,282.153 634.417,282.42 634.738,282.661C625.704,305.246 615.575,327.108 594.941,342.557C599.057,345.497 602.532,348.223 606.22,350.522C608.385,351.885 610.977,352.553 613.329,353.622C618.033,355.787 622.871,357.711 627.334,360.25C635.352,364.82 638.64,364.072 643.023,355.893C643.531,354.904 643.905,353.808 644.359,352.766C650.907,337.772 656.921,322.511 667.05,309.414C667.852,308.372 669.268,307.65 670.551,307.169C675.362,305.485 678.569,308.372 682.418,310.75C691.826,316.523 697.653,325.771 705.43,333.094C713.047,340.203 720.852,347.259 727.346,355.331C736.219,366.316 743.97,378.21 752.202,389.729C753.512,391.546 754.527,393.711 756.104,395.315C768.024,407.396 779.864,419.583 792.132,431.343C797.317,436.314 803.464,440.243 809.237,444.653C809.691,444.225 810.146,443.771 810.6,443.343C804.693,423.725 792.158,406.433 790.581,384.623C792.639,387.59 794.563,390.075 796.194,392.748C803.785,405.363 810.413,418.486 819.393,430.353C829.068,443.209 841.55,451.174 856.277,456.171C863.574,458.657 871.244,460.073 878.728,462.024C893.856,465.899 907.834,472.421 919.781,482.337C928.066,489.179 935.016,497.598 942.472,505.376C945.278,508.316 947.951,511.336 950.677,514.303C950.356,514.677 950.036,515.025 949.742,515.399C942.071,510.054 934.427,504.681 926.703,499.416C915.05,491.478 903.37,483.487 889.472,479.771C880.759,477.446 871.859,475.655 863.386,472.662C850.824,468.305 838.129,465.873 824.872,465.82C821.504,465.82 818.057,465.205 814.876,464.163C790.34,456.011 772.46,438.345 755.034,420.571C744.477,409.8 735.817,397.131 726.65,385.051C721.064,377.701 716.814,369.282 710.801,362.333C701.553,351.615 691.21,341.806 681.508,331.463C678.702,328.47 676.029,328.844 673.517,331.222C671.673,332.959 670.176,335.204 668.92,337.423C666.247,342.234 663.762,347.152 661.356,352.096C659.138,356.773 656.973,361.477 655.048,366.261C653.498,370.136 652.696,374.333 650.959,378.128C643.956,393.122 635.938,407.715 633.453,424.393C641.685,419.716 644.839,408.998 654.006,406.138C664.002,420.758 673.223,435.003 683.299,448.608C686.613,453.125 692.627,455.611 696.449,459.833C705.162,469.508 713.501,479.478 721.546,489.661C728.442,498.347 736.406,505.671 745.788,511.497C747.258,512.432 748.888,513.047 750.465,513.822C749.77,514.757 749.102,515.72 748.407,516.655C745.039,515.479 741.191,514.998 738.411,513.02C731.916,508.45 725.609,503.452 719.729,498.106C709.492,488.751 699.336,479.317 689.741,469.321C685.037,464.457 681.509,458.496 675.201,455.182C674.292,454.701 673.357,453.712 672.983,452.75C669.402,443.208 663.174,435.538 656.225,428.321C651.949,423.911 650.265,423.59 645.988,428.134C640.723,433.693 636.019,439.76 630.941,445.507C626.772,450.264 622.843,455.369 618.085,459.459C601.461,473.758 585.291,488.271 572.782,506.686C567.303,514.758 559.472,521.466 551.908,527.881C544.13,534.536 535.471,540.122 527.105,546.056C521.385,550.119 515.505,553.941 509.706,557.869C509.305,557.334 508.904,556.853 508.503,556.372C513.394,551.588 518.606,547.098 523.096,541.993C529.27,534.964 535.738,528.442 543.943,523.738C545.841,522.669 547.685,521.145 549.075,519.462C556.879,510.134 564.63,500.726 572.221,491.185C573.477,489.581 573.878,487.283 574.546,485.546C559.231,488.299 544.825,491.052 530.366,493.324C519.034,495.088 508.557,491.132 498.24,487.203C493.777,485.492 489.206,483.702 485.331,481.029C478.622,476.432 472.502,471.006 465.98,466.142C463.441,464.244 460.635,462.16 457.427,465.634C453.258,470.151 448.821,474.427 444.571,478.811C433.025,490.812 421.265,502.598 410.039,514.893C397.37,528.711 385.664,543.491 372.621,556.935C365.485,564.338 356.398,569.818 348.246,576.232C341.377,581.684 334.455,586.843 326.009,589.756C308.128,595.957 292.226,605.097 279.53,619.637C273.597,626.479 266.567,632.733 259.084,637.785C250.023,643.825 239.947,648.422 230.299,653.527C226.824,655.371 223.243,656.868 218.405,659.166C224.205,660.689 228.588,661.865 232.918,662.935C240.001,664.752 246.977,667.292 254.113,668.04C265.873,669.323 277.205,666.49 288.511,663.095C301.741,659.139 313.982,652.003 328.174,651.068C342.794,650.106 356.879,651.95 369.574,659.3C377.432,663.87 385.423,667.051 394.35,668.574C398.787,669.322 402.368,669.002 405.763,666.436C422.815,653.741 440.001,641.179 456.732,628.082C460.768,624.928 464.617,622.603 469.615,621.988C473.33,621.534 477.018,620.839 480.707,620.277C478.088,623.404 475.255,626.558 471.753,627.627C466.114,629.338 461.837,632.278 458.55,637.008C448.768,651.04 436.259,661.757 421.666,670.925C405.149,681.268 389.914,693.723 374.118,705.296C374.359,705.67 374.599,706.018 374.84,706.392C388.123,702.57 401.621,700.058 415.546,700.619C425.195,701.02 434.816,701.448 444.492,701.554C453.526,701.688 460.983,706.258 468.333,710.347C471.968,712.378 474.16,712.218 477.581,711.042C483.033,709.198 488.673,707.781 494.339,706.739C496.851,706.258 499.578,707.193 502.25,707.487C502.785,707.861 503.373,708.209 503.934,708.583C499.791,711.977 495.862,715.692 491.452,718.659C474.935,729.858 457.776,740.148 441.846,752.041C431.69,759.605 421.507,764.202 408.784,762.625C405.63,762.224 402.049,763.347 399.242,762.251C394.351,760.327 389.7,757.574 385.397,754.527C378.368,749.529 371.793,743.89 364.844,738.758C363,737.395 360.541,736.486 358.242,736.139C349.128,734.749 340.602,731.863 333.306,726.063C325.555,719.862 317.965,713.474 310.347,707.06C304.921,702.516 301.393,702.49 295.754,706.419C287.736,711.978 279.878,717.805 271.352,722.429C261.463,727.855 250.852,731.997 240.642,736.862C238.611,737.824 237.061,737.771 235.591,737.022L296.449,797.907C296.609,797.88 296.743,797.854 296.877,797.773C314.063,793.791 331.141,789.033 348.487,786.013C369.04,782.432 389.112,777.033 410.2,775.643C434.335,774.093 456.946,778.877 479.744,784.704C485.036,786.067 490.168,788.098 495.273,790.103C498.774,791.493 501.848,793.631 501.821,797.56C495.3,802.718 489.072,807.69 482.818,812.607L484.154,814.879C486.64,813.89 489.205,813.115 491.557,811.859C507.78,803.333 525.233,798.335 543.247,796.117C562.063,793.845 580.478,797.453 598.439,803.333C606.27,805.926 613.968,808.919 621.879,811.218C626.048,812.421 630.565,812.635 634.922,813.249C635.269,812.688 635.563,812.073 635.884,811.512C634.387,809.908 633.078,807.904 631.26,806.781C615.598,797.026 598.492,790.745 580.425,787.217C573.289,785.774 565.939,784.143 558.803,784.411C547.818,784.839 536.967,786.897 526.009,788.126C524.459,788.286 522.428,788.313 521.358,787.485C505.723,775.778 487.789,769.711 469.106,765.248C468.678,765.141 468.304,764.713 467.903,764.419C478.193,756.722 526.222,746.218 549.474,744.614C577.965,742.636 605.815,744.507 633.451,752.712C608.648,731.197 581.867,712.06 565.804,681.03C572.031,684.398 577.858,686.883 582.963,690.358C588.282,694.02 592.852,698.777 597.957,702.786C599.106,703.721 601.057,704.176 602.608,704.069C614.528,703.027 626.449,701.37 638.396,700.862C643.207,700.621 648.098,702.76 653.443,703.936C662.156,693.94 675.039,689.904 687.868,687.125C709.544,682.501 731.62,683.33 753.644,684.987C754.98,685.094 756.263,685.655 757.76,685.522C749.501,680.604 740.681,676.702 731.113,676.301C719.727,675.82 708.288,676.729 696.875,676.836C695.485,676.863 693.721,676.061 692.759,675.045C687.013,669.058 681.48,662.857 675.814,656.79C674.023,654.919 671.939,653.289 670.201,651.338C661.14,641.395 651.652,631.774 643.394,621.19C640,616.86 638.262,610.499 637.621,604.833C636.686,596.173 632.783,589.946 626.048,584.948C624.017,583.425 622.226,581.634 620.302,579.923L621.344,578.4C626.422,581.42 631.554,584.36 636.579,587.461C637.782,588.236 638.53,589.84 639.786,590.454C647.751,594.517 650.129,601.546 650.798,609.805C651.466,618.331 656.651,624.452 662.638,629.984C674.104,640.568 687.788,648.853 696.582,662.19C700.003,667.322 704.68,667.241 709.785,666.199C723.55,663.419 736.967,665.397 750.036,669.861C756.905,672.213 763.4,675.634 770.242,678.04C778.046,680.793 786.145,681.06 794.056,678.227C804.533,674.565 814.823,670.342 825.38,667.028C835.055,664.008 844.998,661.87 854.807,659.304C855.154,659.732 855.475,660.159 855.823,660.614L952.763,563.674C978.795,537.668 978.795,495.332 952.763,469.3L952.764,469.295Z" style="fill:rgb(69,28,21);fill-rule:nonzero;"/>
    </g>
</svg>
