<?xml version="1.0" encoding="UTF-8" standalone="no"?>
<!DOCTYPE svg PUBLIC "-//W3C//DTD SVG 1.1//EN" "http://www.w3.org/Graphics/SVG/1.1/DTD/svg11.dtd">
<svg width="100%" height="100%" viewBox="0 0 60 61" version="1.1" xmlns="http://www.w3.org/2000/svg" xmlns:xlink="http://www.w3.org/1999/xlink" xml:space="preserve" xmlns:serif="http://www.serif.com/" style="fill-rule:evenodd;clip-rule:evenodd;stroke-linejoin:round;stroke-miterlimit:2;">
    <g transform="matrix(0.058594,0,0,0.058594,-0.000002,0.000059)">
        <path d="M511.812,12.596C487.112,12.596 462.399,21.962 443.62,40.71L40.512,443.818C3.01,481.351 3.01,542.589 40.512,580.122L443.62,983.309C462.385,1002.074 487.112,1011.423 511.812,1011.423C536.512,1011.423 561.238,1002.075 580.004,983.309L983.112,580.122C1020.643,542.591 1020.643,481.349 983.112,443.818L759.268,219.974C753.425,204.85 746.399,192.465 738.498,183.499L738.104,183.094C720.793,141.342 685.254,110.835 642.261,102.284L641.443,102.149L580.003,40.709C561.224,21.962 536.511,12.595 511.811,12.595L511.812,12.596Z" style="fill:rgb(232,203,158);fill-rule:nonzero;"/>
    </g>
    <g transform="matrix(0.058594,0,0,0.058594,-0.000002,0.000059)">
        <path d="M571.964,365.3L571.964,340.501C567.489,344.679 562.988,348.857 558.486,353.062C562.853,357.024 567.058,360.852 571.964,365.3ZM343.381,527.653L343.381,502.342C338.772,506.924 334.432,511.264 330.065,515.658C334.135,519.324 338.475,523.232 343.381,527.653ZM395.055,515.334C399.637,519.458 403.923,523.34 408.587,527.545L408.587,502.045C403.897,506.654 399.584,510.913 395.055,515.334ZM513.902,906.485C517.487,905.811 520.048,905.757 522.15,904.76C523.66,904.086 525.034,902.226 525.466,900.609C525.736,899.666 524.334,897.833 523.202,896.997C518.054,893.196 512.555,895.353 507.379,896.808C504.468,897.617 504.09,901.525 506.624,903.196C509.05,904.786 511.961,905.622 513.902,906.485ZM531.746,336.35L531.746,365.543C537.191,360.691 542.124,356.297 547.057,351.93C542.124,346.916 537.272,341.983 531.746,336.35ZM303.191,499.215L303.191,527.788C308.555,523.017 313.461,518.623 318.043,514.553C313.218,509.593 308.366,504.553 303.191,499.215ZM368.261,528.03C373.868,523.016 378.774,518.649 382.547,515.28C377.938,510.185 373.22,504.902 368.261,499.403L368.261,528.03ZM572.233,381.447C566.788,387.189 562.098,392.148 558.378,396.084C563.311,400.936 568.082,405.653 572.233,409.777L572.233,381.447ZM546.032,304.597C541.369,299.017 536.948,293.707 531.8,287.507L531.8,318.614C536.625,313.816 541.181,309.368 546.032,304.597ZM531.665,412.257C536.84,407.54 542.178,402.715 547.677,397.647C542.313,392.606 537.11,387.673 531.665,382.552L531.665,412.257ZM555.683,306.349C561.236,312.306 566.492,317.913 571.964,323.789L571.964,291.766C566.869,296.321 561.37,301.227 555.683,306.349ZM603.555,587.306L584.929,587.306L584.929,603.048L602.234,603.048C602.665,597.711 603.097,592.535 603.555,587.306ZM629.783,603.021L629.783,585.904C624.095,586.335 618.003,586.794 611.992,587.252C611.615,592.805 611.264,597.792 610.914,603.021L629.783,603.021ZM612.019,645.718C612.019,649.761 612.019,653.319 612.046,656.905C612.046,661.299 614.095,663.051 618.542,662.485C621.453,662.108 624.445,662.593 627.356,662.296C628.515,662.188 630.294,661.137 630.483,660.274C631.399,655.557 631.912,650.759 632.612,645.718L612.019,645.718ZM636.495,586.147L636.495,602.779L658.976,602.779C658.356,597.981 657.979,593.614 657.143,589.301C656.927,588.142 655.418,586.309 654.42,586.282C648.22,585.985 641.967,586.147 636.495,586.147ZM552.529,402.58C546.302,408.537 540.318,414.198 533.903,420.317L569.053,420.317C569.457,419.832 569.835,419.374 570.239,418.915C564.174,413.308 558.109,407.755 552.529,402.58ZM718.709,645.718C718.709,650.866 718.466,655.611 718.925,660.301C719.033,661.46 721.324,662.997 722.807,663.32C726.284,663.967 730.139,663.32 733.374,664.479C736.743,665.719 738.118,664.802 738.496,661.891C739.17,656.608 739.412,651.271 739.844,645.718L718.709,645.718ZM407.374,535.767C402.684,531.05 398.371,526.602 393.896,522.289C391.227,519.782 388.721,519.054 385.702,522.451C382.333,526.225 378.208,529.298 374.489,532.802C373.195,533.988 372.117,535.444 370.58,537.196C383.465,538.625 403.978,537.924 407.374,535.767ZM341.521,536.953C341.818,536.279 342.087,535.578 342.384,534.931C339.338,532.208 336.157,529.648 333.273,526.817C324.593,518.326 324.62,518.218 315.617,526.52C312.14,529.728 308.797,533.124 304.889,536.952L341.521,536.953ZM520.047,645.26L499.022,645.26C498.887,647.416 498.699,649.519 498.591,651.648C498.052,665.665 498.294,665.827 512.446,665.449C515.384,665.368 517.298,664.398 517.756,661.567C518.619,656.472 519.212,651.351 520.047,645.259L520.047,645.26ZM369.124,490.104C368.801,490.616 368.477,491.155 368.181,491.667C373.976,497.031 379.88,502.287 385.54,507.813C387.966,510.212 389.529,510.212 391.928,507.705C396.457,502.934 401.362,498.54 406.727,493.392C404.166,492.017 402.387,490.292 400.608,490.238C390.149,489.968 379.61,490.103 369.124,490.103L369.124,490.104ZM533.013,280.903C539.482,287.858 545.278,294.057 552.502,301.793C558.863,294.138 565.063,286.698 571.56,278.881C559.268,279.528 546.357,280.202 533.014,280.903L533.013,280.903ZM303.379,489.915C303.082,490.373 302.813,490.858 302.543,491.344C307.961,496.358 313.541,501.237 318.743,506.493C321.951,509.728 324.161,510.914 327.719,506.682C331.628,502.073 336.399,498.218 341.305,493.474C338.798,491.991 337.1,490.078 335.348,490.051C324.674,489.754 313.999,489.916 303.379,489.916L303.379,489.915ZM527.73,696.179C526.005,702.298 524.307,708.012 522.797,713.781C522.608,714.536 523.201,715.614 523.66,716.396C525.601,719.577 527.703,722.65 529.617,725.857C531.315,728.66 536.491,729.954 538.944,727.825C543.149,724.186 547.219,720.331 551.559,716.396C543.742,709.765 536.14,703.296 527.73,696.179ZM488.483,867.912C488.294,868.37 488.133,868.828 487.971,869.287C487.459,869.287 486.947,869.233 486.488,869.287C483.388,869.664 480.261,869.799 477.296,870.554C472.956,871.713 468.401,874.597 469.668,879.099C470.638,882.334 475.436,886.458 478.671,886.593C486.165,886.89 493.928,885.596 501.287,883.763C505.977,882.658 506.732,876.027 502.581,873.601C498.268,871.067 493.2,869.746 488.483,867.913L488.483,867.912ZM273.297,679.359L272.812,680.302C282.759,687.014 292.651,693.78 302.706,700.303C305.132,701.893 307.369,701.381 308.96,698.308C311.683,693.106 314.809,688.146 317.694,683.024C318.287,682 318.557,680.814 319.096,679.358L273.297,679.359ZM537.973,826.697C539.644,826.697 541.289,826.751 542.933,826.697C548.782,826.454 552.907,823.624 554.659,817.99C555.117,816.561 554.956,814.162 554.066,813.165C546.222,804.728 530.426,804.971 522.717,810.469C518.512,813.488 518.431,818.771 521.989,822.41C526.544,827.046 532.151,827.181 537.974,826.696L537.973,826.697ZM494.359,310.608C495.329,297.508 491.07,285.863 484.925,274.73C484.548,274.029 483.389,273.436 482.553,273.409C477.539,273.274 472.553,273.328 468.24,273.328C472.607,286.347 476.92,299.044 481.286,312.009C485.302,311.578 489.669,311.119 494.359,310.607L494.359,310.608ZM508.671,310.5L522.311,310.5L522.311,273.652L499.668,273.652C501.797,279.663 504.331,285.297 505.787,291.254C507.27,297.4 507.701,303.788 508.671,310.5ZM495.841,679.439C496.973,686.933 498.321,694.076 499.157,701.327C499.723,706.26 502.499,707.877 506.947,707.931C507.917,707.958 508.996,708.524 509.804,708.201C512.796,706.988 517.486,706.206 518.241,704.077C521.098,696.233 522.608,687.904 524.737,679.44L495.841,679.439ZM635.498,717.177C622.991,718.687 611.049,720.115 599.728,721.463C601.211,724.051 602.666,726.045 603.556,728.31C604.85,731.491 605.739,734.833 606.683,738.149C607.896,742.219 610.457,743.271 614.5,742.381C619.756,741.222 625.094,740.036 630.377,739.793C633.935,739.577 635.283,737.933 635.445,735.184C635.688,729.496 635.499,723.809 635.499,717.178L635.498,717.177ZM571.263,373.225C565.602,368.103 560.454,363.305 555.144,358.75C554.308,358.022 552.098,357.726 551.451,358.265C545.521,363.306 539.779,368.616 532.717,375.004C539.213,381.77 545.063,387.889 551.424,394.547C558.945,386.46 564.713,380.234 571.263,373.225ZM531.315,328.641C537.218,334.302 543.121,339.747 548.836,345.434C551.181,347.752 552.745,348.049 555.197,345.407C559.672,340.609 564.551,336.188 569.403,331.417C563.149,324.328 557.111,317.481 550.804,310.311C544.227,316.511 538.135,322.225 531.315,328.641ZM454.869,679.601L396.861,679.601C407.347,687.688 417.078,695.397 427.159,702.621C428.803,703.807 433.197,703.807 434.437,702.486C442.011,694.588 449.074,686.205 454.869,679.601ZM393.141,779.094C392.737,774.512 392.386,770.333 391.928,766.182C391.47,761.95 391.012,757.718 390.311,753.54C389.475,748.715 387.696,747.583 383.06,748.742C376.618,750.359 370.175,752.031 363.787,753.837C358.8,755.212 357.183,758.392 358.504,763.164C359.367,766.318 360.31,769.552 360.31,772.76C360.283,777.019 362.52,778.906 366.132,779.014C374.973,779.257 383.815,779.095 393.141,779.095L393.141,779.094ZM353.301,750.036C363.948,747.448 374.218,745.076 384.408,742.435C385.324,742.219 386.564,740.548 386.484,739.632C385.729,730.898 384.894,722.165 383.654,713.485C383.331,711.275 381.444,709.954 378.775,711.652C369.556,717.555 360.122,723.162 351.092,729.335C348.235,731.33 346.725,734.888 348.316,738.742C349.906,742.489 351.578,746.209 353.303,750.036L353.301,750.036ZM709.706,273.274C701.35,273.274 692.347,273.22 683.37,273.355C682.4,273.409 681.079,274.406 680.621,275.323C674.718,286.429 673.828,298.451 674.017,310.662L699.921,310.662C703.263,297.939 706.471,285.701 709.706,273.275L709.706,273.274ZM752.107,273.301C745.206,273.301 738.09,273.732 731.055,273.193C725.152,272.708 721.917,274.163 719.437,280.094C715.34,289.852 712.941,299.745 712.563,311.093L737.766,311.093C742.834,297.777 747.416,285.701 752.106,273.301L752.107,273.301ZM581.425,273.463L581.425,309.637L612.424,309.637C615.039,297.157 617.519,285.323 620.025,273.463L581.425,273.463ZM484.385,824.379C484.439,823.813 484.466,823.274 484.493,822.762C488.617,822.762 492.741,822.897 496.839,822.681C499.103,822.6 501.421,822.25 503.551,821.495C508.942,819.554 513.605,810.362 510.559,807.37C507.863,804.728 504.467,802.248 500.909,801.089C489.615,797.342 477.862,798.528 466.325,799.714C462.201,800.145 458.077,801.628 454.276,803.38C450.098,805.321 447.78,812.976 450.502,815.348C453.386,817.855 456.648,820.793 460.152,821.521C468.077,823.138 476.298,823.462 484.385,824.378L484.385,824.379ZM655.526,744.645C647.116,745.373 638.49,746.02 629.918,746.963C625.416,747.448 620.996,748.499 616.548,749.389C613.017,750.09 611.939,752.3 613.206,755.562C616.899,765.077 620.7,774.539 624.473,784.108C631.212,784.108 637.951,784.108 644.69,784.081C648.841,784.081 650.89,781.736 651.402,777.773C652.75,767.018 654.098,756.236 655.526,744.645ZM660.89,310.392C663.019,297.966 665.122,285.728 667.225,273.544L631.536,273.544C629.353,285.674 627.196,297.642 624.878,310.392L660.89,310.392ZM499.939,835.619L499.939,836.562C497.486,836.562 495.006,836.427 492.553,836.616C487.782,836.993 484.143,840.578 482.418,846.023C481.151,850.12 484.332,851.684 486.677,853.463C488.833,855.107 491.34,856.509 493.901,857.345C509.751,862.467 525.655,860.256 541.45,856.941C543.094,856.644 544.819,854.919 545.79,853.41C550.345,845.916 545.925,837.991 536.356,836.644C531.639,836.024 526.868,835.754 522.097,835.647C514.711,835.485 507.298,835.62 499.94,835.62L499.939,835.619ZM595.658,716.261C608.084,714.455 620.161,712.514 632.29,711.059C636.091,710.628 637.412,708.849 637.762,705.533C638.382,699.306 639.325,693.107 639.325,686.88C639.298,684.373 637.303,679.872 635.848,679.683C630.592,679.09 624.338,678.308 619.998,680.546C607.868,686.854 596.493,694.59 585.198,701.544C589.026,706.935 592.395,711.679 595.657,716.262L595.658,716.261ZM529.158,689.629C538.889,697.446 548.377,705.074 557.515,712.379C573.392,701.435 589.08,690.599 605.738,679.143L543.713,679.143C532.068,679.143 532.068,679.143 529.157,689.629L529.158,689.629ZM435.65,710.223C438.48,713.485 440.933,716.584 443.656,719.388C446.513,722.353 449.64,725.049 452.659,727.852C455.732,730.682 458.643,730.062 460.153,726.208C460.827,724.564 461.366,722.866 461.905,721.167C464.601,712.757 471.205,708.067 480.181,707.878C482.607,707.824 485.383,707.932 487.324,706.773C489.292,705.641 491.556,703.053 491.61,701.058C491.745,696.368 491.017,691.543 489.858,686.96C487.729,678.307 490.505,679.17 480.37,679.143C477.728,679.143 475.033,678.793 472.472,679.224C470.289,679.628 467.782,680.437 466.164,681.92C455.948,691.139 445.947,700.627 435.65,710.223ZM592.153,640.327L652.398,640.327L652.398,611.134L592.153,611.134L592.153,640.327ZM355.7,577.251L355.7,577.494C332.815,577.494 309.903,577.521 286.99,577.494C279.847,577.467 279.847,577.44 279.901,584.691C279.901,585.527 279.982,586.335 279.955,587.171C279.847,590.19 281.384,591.214 284.241,591.106C293.945,590.783 303.649,590.378 313.353,590.351C350.471,590.216 387.534,590.216 424.625,590.135C430.69,590.135 432.442,588.652 432.388,583.908C432.307,578.086 431.391,577.25 424.948,577.25L355.699,577.25L355.7,577.251ZM712.86,679.466C709.706,679.304 707.981,679.143 706.256,679.143C689.463,679.116 672.696,679.143 655.876,679.143C646.63,679.143 646.495,679.116 645.741,688.146C644.555,702.001 643.369,715.91 642.533,729.792C642.048,738.04 642.317,738.04 650.296,737.69C651.59,737.636 652.965,737.42 654.231,737.69C658.894,738.58 661.779,735.992 664.609,732.811C673.909,722.379 683.37,712.082 692.724,701.758C699.112,694.723 705.447,687.687 712.86,679.466ZM399.907,690.437C395.918,687.283 392.764,685.181 390.122,682.539C387.615,680.059 385.027,678.954 381.442,679.062C368.611,679.278 355.753,679.035 342.896,679.17C323.704,679.332 328.852,676.313 317.935,693.672C317.315,694.615 316.992,695.721 316.425,696.745C314.161,701.031 315.805,709.091 319.741,712.002C327.208,717.528 334.782,722.973 342.06,728.283C361.225,715.776 380.256,703.295 399.906,690.438L399.907,690.437ZM460.961,473.338C474.25,473.338 487.566,473.419 500.882,473.23C505.437,473.176 507.082,470.642 505.788,466.141C504.332,461.154 502.58,456.221 500.963,451.262C493.658,429.159 486.407,407.001 478.994,384.925C478.563,383.604 477.08,381.771 476.056,381.771C471.204,381.69 466.352,382.148 460.961,382.445L460.961,473.338ZM191.595,469.618C193.671,473.796 196.77,474.82 201.029,474.632C211.865,474.174 222.728,474.255 233.618,473.958C238.632,473.823 243.645,473.311 248.74,472.961L248.74,381.663C239.117,379.857 235.235,382.175 229.871,392.93C217.121,418.457 204.371,444.011 191.594,469.618L191.595,469.618ZM661.078,507.949C661.078,493.636 661.132,479.996 661.051,466.357C660.916,451.882 660.296,437.38 660.647,422.878C660.782,416.004 666.442,408.187 672.669,408.106C687.306,407.89 701.997,408.106 716.633,408.268C725.528,408.349 734.397,408.996 743.292,408.78C745.691,408.726 749.168,409.103 750.543,405.33C752.053,401.206 748.845,394.763 743.642,393.308C738.79,391.906 733.722,390.046 728.843,390.343C711.861,391.34 694.987,386.003 677.87,389.966C667.573,392.365 657.788,395.007 651.184,403.821C645.631,411.288 644.149,420.614 643.744,429.294C642.612,453.797 642.801,478.38 642.531,502.909C642.531,504.634 642.854,506.413 642.962,507.95L661.078,507.949ZM651.59,519.243L591.452,519.243L591.452,578.006L651.59,578.006L651.59,519.243ZM425.191,545.012L289.281,545.012L289.281,572.56L425.191,572.56L425.191,545.012ZM524.899,519.081L496.946,519.081C496.946,522.747 497.081,526.197 496.919,529.594C496.596,537.627 496.38,545.686 495.706,553.692C494.655,566.792 493.199,579.812 492.013,592.885C491.339,600.271 490.557,607.63 490.288,615.015C489.965,623.129 490.207,631.296 490.207,640.03L524.899,640.03L524.899,519.081ZM455.408,781.277C455.408,769.147 455.57,757.664 455.273,746.181C455.192,743.512 454.222,740.224 452.47,738.31C442.982,728.013 433.386,717.77 423.277,708.174C417.428,702.648 410.446,698.281 404.246,693.618C401.416,695.667 399.178,696.826 397.507,698.578C393.922,702.379 389.205,705.883 389.906,711.867C390.796,719.657 392.386,727.393 393.518,735.13C395.432,748.23 397.265,761.331 398.855,774.485C399.259,777.801 400.095,779.553 403.788,779.633C420.393,780.064 436.997,780.684 455.408,781.277ZM615.308,784.134C615.685,783.568 616.063,783.002 616.467,782.436C610.402,768.716 604.418,754.941 598.272,741.248C594.337,732.461 590.428,723.646 586.007,715.074C582.745,708.793 577.381,708.2 570.993,711.624C559.51,717.662 549.833,725.991 540.911,735.048C537.569,738.471 534.307,743.512 533.93,748.041C533.121,757.772 534.28,767.665 534.442,777.53C534.496,780.253 535.52,781.277 538.189,781.439C547.219,781.924 556.222,782.787 565.252,783.11C579.727,783.622 594.202,783.811 608.677,784.107C610.86,784.161 613.098,784.134 615.308,784.134ZM288.823,627.496L425.406,627.496L425.406,596.335L288.823,596.335L288.823,627.496ZM436.458,372.066C412.414,338.884 380.337,326.215 341.063,332.954C317.153,337.078 299.902,351.877 285.831,372.066L436.458,372.066ZM716.391,518.973L716.391,640.434C717.361,640.488 718.655,640.677 719.949,640.596C731.109,639.706 742.295,641.62 753.616,639.086C758.953,637.9 759.573,636.31 759.304,632.185C758.63,622.697 758.28,613.154 757.148,603.72C755.126,586.334 752.889,568.974 750.328,551.669C748.711,540.752 746.366,529.943 744.344,518.972L716.391,518.973ZM255.749,473.607L310.118,473.607L310.118,381.931L255.749,381.931L255.749,473.607ZM434.464,635.637L289.093,635.637C287.799,635.637 286.451,635.502 285.131,635.664C281.95,635.961 279.848,637.066 279.875,641.028C279.929,648.252 279.444,655.503 279.309,662.727C279.228,669.223 281.304,671.218 287.827,671.218C333.166,671.218 378.505,671.218 423.817,671.191C427.375,671.164 430.906,670.652 434.464,670.382L434.464,635.637ZM658.626,640.381L710.03,640.381L710.03,519.108L657.143,519.108L657.143,577.682C658.626,578.329 660.593,578.572 661.645,579.704C669.543,587.872 677.333,596.147 684.988,604.53C686.255,605.959 686.632,608.196 687.764,610.945L658.625,610.945L658.626,640.381ZM316.507,473.068L380.499,473.068L380.499,382.39L316.507,382.39L316.507,473.068ZM585.199,576.604L585.199,519.189L530.399,519.189L530.399,640.354L585.658,640.354L585.658,610.892C576.709,610.892 568.164,610.973 559.619,610.784C557.813,610.757 556.007,609.679 554.228,609.086C554.929,607.253 555.144,605.016 556.357,603.668C562.557,596.821 568.837,590.029 575.415,583.586C578.191,580.863 581.803,578.977 585.2,576.605L585.199,576.604ZM454.141,382.579L386.483,382.579L386.483,473.176L454.141,473.176L454.141,382.579ZM739.384,418.079C737.147,417.917 736.338,417.863 735.529,417.836C715.744,417.62 695.958,417.351 676.173,417.162C672.561,417.081 671.051,418.887 671.078,422.661C671.186,445.438 671.159,468.189 671.159,490.966L671.159,510.536L739.383,510.536L739.384,418.079ZM438.534,492.341L438.534,548.435C438.534,587.682 438.588,626.956 438.453,666.203C438.453,670.192 439.693,671.325 443.521,671.271C458.212,671.082 472.876,671.217 487.566,671.19C488.617,671.19 489.722,670.893 490.855,670.759C490.855,663.373 490.774,656.284 490.882,649.195C490.909,646.472 490.747,644.559 487.593,643.049C485.41,641.998 483.226,638.332 483.28,635.906C483.711,617.334 484.493,598.734 485.652,580.162C486.353,568.895 488.159,557.708 488.994,546.441C489.857,535.12 490.234,523.771 490.638,512.396C490.854,505.765 490.665,499.134 490.665,492.341L438.534,492.341ZM274.51,670.868L274.51,494.471L218.308,494.471C218.793,544.986 219.251,595.15 219.952,645.26C219.979,646.985 221.812,649.384 223.456,650.301C232.81,655.638 242.891,659.87 251.705,665.935C258.821,670.841 265.937,671.919 274.509,670.868L274.51,670.868ZM480.827,322.549C480.827,336.647 480.827,350.933 480.854,365.273C480.854,366.082 481.016,366.917 481.285,367.672C484.223,374.923 487.458,382.093 489.992,389.479C498.833,415.087 507.27,440.829 516.22,466.41C517.891,471.235 517.972,475.117 515.169,479.295C512.366,483.554 508.538,484.983 503.659,484.201C502.257,483.985 500.802,484.174 499.4,484.174L499.4,510.941L505.788,510.941C547.03,510.941 588.245,510.968 629.487,510.833C632.883,510.833 636.307,509.809 640.431,509.135L640.431,420.236C640.431,412.392 643.046,405.384 647.089,398.833C651.914,391.043 660.108,387.835 668.195,387.485C690.11,386.595 712.052,387.081 733.993,387.027C735.449,387.027 736.85,386.892 738.872,386.784L738.872,323.546L581.102,323.546L581.102,403.765C581.102,409.884 581.129,416.003 581.075,422.095C581.021,428.753 579.053,430.882 572.449,430.936C556.977,431.044 541.45,430.963 525.951,430.963C525.008,430.963 524.064,430.828 522.555,430.666L522.555,322.548L480.827,322.549ZM491.043,157.662L491.043,120.194C491.043,112.943 490.989,105.665 491.07,98.414C491.124,95.287 489.938,92.834 486.784,93.266C485.463,93.482 484.035,96.231 483.442,98.037C482.849,99.843 483.226,101.946 483.226,103.94C483.226,124.884 483.28,145.856 483.172,166.773C483.145,168.983 482.768,171.517 481.609,173.269C467.673,194.564 458.778,217.934 452.794,242.491C451.15,249.203 450.314,256.13 448.912,264.001L765.774,264.001C765.963,260.739 766.61,256.642 766.367,252.626C765.343,237.207 760.599,222.625 753.806,208.985C748.361,198.014 741.002,187.987 734.317,177.663C730.651,172.029 727.012,166.288 722.618,161.247C710.488,147.473 696.148,136.178 681.295,125.504C670.782,117.983 659.623,111.838 646.819,109.789C635.066,107.902 623.044,107.498 611.238,105.8C597.302,103.805 583.42,104.641 570.347,108.819C556.788,113.105 543.904,119.655 531.046,125.855C515.493,133.349 501.988,143.565 491.044,157.662L491.043,157.662ZM924.649,595.069C924.487,595.581 924.352,596.093 924.218,596.605C922.897,596.174 921.495,595.904 920.283,595.311C909.016,589.974 897.128,586.712 884.729,587.521C870.928,588.384 857.1,589.785 843.514,592.265C823.783,595.823 804.995,602.589 788.929,615.096C784.32,618.708 780.6,623.425 776.476,627.63C776.907,628.088 777.339,628.573 777.77,629.086C778.929,628.358 780.142,627.711 781.247,626.903C794.644,617.145 808.31,607.819 824.43,602.886C847.153,595.905 870.443,592.616 894.083,593.398C902.493,593.668 910.795,597.495 919.179,599.706C899.933,618.925 881.576,637.309 863.759,655.1C860.686,653.941 857.532,652.351 854.163,651.542C842.95,648.9 831.682,646.555 820.388,644.048C815.32,642.916 810.307,641.379 805.212,640.652C796.586,639.412 788.769,641.73 781.383,646.394C768.04,654.723 752.136,657.634 739.036,667.177C722.458,679.253 707.202,692.434 694.613,708.661C686.041,719.686 677.308,730.603 667.981,741.008C664.369,745.105 661.889,749.337 660.595,754.432C660.002,756.642 660.029,758.961 659.679,761.252C657.954,771.872 655.986,782.493 654.477,793.194C653.372,800.876 656.66,806.564 663.75,809.718C666.958,811.12 670.408,812.036 673.67,813.114C670.974,823.95 679.277,828.856 685.099,835.083C684.614,835.676 684.209,836.215 683.751,836.673C642.213,878.211 600.863,919.912 559.082,961.207C532.1,987.866 490.696,987.327 463.633,960.371C422.822,919.776 382.227,878.965 341.417,838.317C338.721,835.675 338.236,833.627 339.827,830.284C340.582,828.64 340.285,826.052 339.53,824.273C338.506,821.739 336.565,819.556 334.57,816.564C336.996,816.16 337.939,815.971 338.91,815.836C352.199,813.733 358.507,803.895 355.191,791.441C352.522,781.333 350.662,771.009 348.398,760.847C347.212,755.591 347.023,749.741 344.489,745.24C336.968,731.924 324.812,723.056 312.142,714.942C300.336,707.341 288.232,700.17 276.803,692.003C261.681,681.194 247.502,668.848 229.415,662.864C209.333,656.179 189.251,649.413 169.116,642.971C163.752,641.273 157.983,640.761 152.404,639.521C146.743,638.254 141.164,638.658 136.177,633.429C115.556,611.838 94.126,591.028 73.02,569.868C71.78,568.628 70.594,567.307 68.195,564.773C78.249,563.183 86.983,561.188 95.797,560.649C101.916,560.245 108.304,561.242 114.342,562.671C143.966,569.464 169.843,582.942 190.087,606.177C193.888,610.517 197.85,614.641 201.759,618.873C202.056,614.991 202.325,610.679 200.357,608.037C196.583,602.942 191.65,598.71 187.041,594.263C168.469,576.418 146.581,564.585 121.674,558.331C117.361,557.28 112.994,556.471 107.819,555.366C143.077,545.743 174.776,548.789 202.028,575.043C201.839,571.781 201.651,568.655 200.006,567.334C186.771,556.74 172.7,547.899 155.071,546.309C139.086,544.88 123.156,544.692 107.522,548.25C93.936,551.377 80.62,555.771 67.143,559.437C65.66,559.841 63.396,559.868 62.426,559.006C59.784,556.634 57.655,553.723 55.04,550.758C56.792,549.815 57.87,549.195 59.029,548.602C78.006,538.44 98.411,532.24 119.086,526.66C132.213,523.102 145.341,520.784 158.899,521.916C163.212,522.266 167.66,523.102 171.676,524.692C180.76,528.331 189.601,532.563 198.551,536.525C199.171,536.795 200.007,536.66 201.031,536.714C201.031,533.075 201.139,529.786 200.95,526.498C200.869,525.312 200.411,523.587 199.575,523.156C191.65,518.978 183.779,514.503 175.504,511.08C160.355,504.853 144.586,506.255 129.141,509.624C106.256,514.665 84.799,523.749 63.747,533.83C59.084,536.094 54.474,538.439 49.568,540.892C44.473,530.083 42.371,519.247 43.099,507.872C44.312,489.596 52.237,474.663 65.149,461.751C197.312,329.777 329.313,197.695 461.368,65.613C462.904,64.13 464.441,62.621 465.977,61.165C491.719,37.067 531.883,36.986 557.518,61.057C564.607,67.742 571.724,74.454 578.139,81.759C583.234,87.581 588.733,89.953 596.523,89.333C605.93,88.551 615.446,89.144 625.338,89.144C624.799,88.201 624.664,87.742 624.341,87.446C608.356,71.488 592.668,55.153 576.252,39.654C560.402,24.667 541.075,16.526 519.295,15.017C488.727,12.941 462.958,23.508 441.34,45.261C385.353,101.49 329.178,157.531 273.057,213.652C196.638,290.044 120.166,366.409 43.828,442.881C5.147,481.643 4.446,541.484 42.48,579.572C175.964,713.217 309.555,846.809 443.2,980.292C482.124,1019.162 541.776,1018.946 580.619,980.103C713.644,847.159 846.643,714.16 979.614,581.162C1018.996,541.726 1019.266,482.478 979.964,443.042C915.325,378.187 850.47,313.548 785.75,248.801C784.753,247.858 783.647,247.022 782.057,245.62C782.057,257.723 782.407,268.91 781.841,280.069C781.625,284.085 782.865,286.323 785.426,288.883C837.154,340.503 888.827,392.203 940.528,443.85C941.876,445.144 943.682,445.926 945.299,446.95L943.897,448.379C943.439,448.325 942.954,448.379 942.522,448.244C917.049,439.807 891.226,434.146 864.082,435.521C851.952,436.141 839.526,433.499 827.584,435.09C808.5,437.624 790.978,444.902 778.309,460.617C772.406,467.895 766.422,475.092 760.626,482.451C759.79,483.475 759.224,485.174 759.44,486.413C760.006,490.079 761.03,493.664 761.974,497.707C768.74,495.308 772.621,490.159 776.853,485.442C784.185,477.301 790.6,468.002 799.118,461.344C811.032,452.017 825.184,447.516 840.899,448.486C855.024,449.402 869.256,449.079 883.408,449.618C889.931,449.888 896.535,450.319 902.87,451.64C920.256,455.333 937.777,458.945 953.681,467.301C965.434,473.447 976.351,480.617 978.642,495.335C978.885,496.952 979.451,498.543 979.666,500.16C980.798,508.22 981.391,516.333 979.019,525.04C977.725,523.234 976.863,522.075 976.054,520.889C968.345,509.595 961.094,497.95 950.177,489.324C939.152,480.644 927.292,472.827 913.706,469.754C899.581,466.573 884.945,465.495 870.442,464.498C849.821,463.123 830.871,469.673 813.674,480.429C798.013,490.187 784.185,502.425 772.675,517.008C770.33,520 768.605,523.423 766.583,526.631C767.095,527.197 767.607,527.79 768.119,528.383C770.06,527.44 772.432,526.9 773.834,525.472C781.894,516.981 789.684,508.247 797.744,499.783C798.957,498.516 800.925,497.492 802.677,497.303C806.666,496.872 810.818,497.465 814.807,496.872C831.816,494.149 848.879,495.336 865.133,499.702C885.754,505.282 902.79,517.6 915.971,534.798C918.532,538.194 921.766,541.079 924.678,544.152C925.217,543.802 925.81,543.424 926.376,543.047C926.026,541.645 926.16,539.893 925.325,538.869C919.017,531.321 913.141,523.235 905.998,516.577C886.401,498.328 862.303,490.996 836.022,490.241C827.154,489.944 818.231,490.942 809.363,491.346C814.727,486.791 820.442,482.127 826.965,479.593C841.871,473.825 857.02,468.595 873.625,471.237C885.782,473.178 898.343,473.07 910.204,475.954C926.943,480.024 941.149,489.54 952.093,502.856C960.422,512.991 967.538,524.151 975.032,534.96C975.652,535.85 975.571,537.898 974.978,538.842C970.854,545.365 967.134,552.293 962.066,558.034C954.599,566.579 946.001,574.126 938.237,582.456C935.326,585.556 933.277,585.556 930.043,583.184C912.172,570.057 891.362,565.986 869.905,565.528C854.352,565.205 838.637,565.744 823.164,567.604C808.338,569.356 793.594,572.483 780.413,580.435C770.197,586.635 770.089,586.419 772.084,598.064C772.246,598.819 772.3,599.574 772.407,600.652C778.364,597.633 784.133,594.857 789.712,591.784C805.427,583.32 822.652,580.328 840.065,579.465C855.16,578.71 870.363,579.142 885.404,580.462C899.61,581.702 913.141,586.123 924.651,595.072L924.649,595.069ZM512.473,-0C542.259,0.458 568.163,10.998 589.593,32.077C609.028,51.135 628.085,70.569 647.439,89.735C649.461,91.784 651.914,93.805 654.555,94.722C674.044,101.488 690.568,113.267 706.795,125.451C728.225,141.516 745.476,161.41 760.382,183.594C768.064,194.996 775.046,206.506 778.658,219.849C779.17,221.709 781.03,223.326 782.513,224.836C851.303,293.707 920.094,362.578 989.019,431.315C1013.414,455.629 1025.409,484.687 1023.414,519.055C1021.77,546.981 1010.556,570.89 990.744,590.703C872.221,709.226 753.698,827.776 635.147,946.273C617.895,963.498 601.264,981.531 582.88,997.542C540.102,1034.768 475.624,1032.342 434.948,992.609C406.294,964.575 378.18,936.002 349.823,907.645C244.589,802.384 139.409,697.123 34.094,591.942C9.699,567.601 -1.945,538.301 0.265,503.986C2.044,476.303 13.419,452.582 33.07,432.931C85.337,380.664 137.576,328.398 189.87,276.131C270.952,195.049 352.007,113.967 433.143,32.939C454.95,11.186 481.366,0.269 512.473,-0.001L512.473,-0Z" style="fill:rgb(69,28,21);fill-rule:nonzero;"/>
    </g>
    <g transform="matrix(0.058594,0,0,0.058594,-0.000002,0.000059)">
        <path d="M854.355,666.525C850.096,670.649 846.295,675.501 841.443,678.628C838.154,680.704 833.356,680.677 829.178,681.027C821.469,681.62 813.759,681.97 806.023,682.078C796.535,682.186 787.558,684.45 778.96,688.143C757.018,697.55 737.314,710.273 720.494,727.336C715.292,732.619 709.55,737.31 704.348,742.512C697.906,748.954 694.833,757.257 691.895,765.667C687.528,778.093 682.703,790.385 677.986,803.054C674.212,801.922 670.735,800.844 667.635,799.927C669.872,785.317 672.002,771.3 674.266,757.31C674.428,756.097 675.075,754.803 675.883,753.833C684.751,743.078 694.267,732.781 702.488,721.54C714.726,704.882 729.39,691.242 746.587,679.813C754.835,674.341 763.192,669.678 772.518,666.362C778.475,664.206 784.378,661.402 789.77,658.006C796.859,653.639 803.841,653.127 811.712,655.364C825.621,659.326 839.692,662.723 854.356,666.524L854.355,666.525Z" style="fill:rgb(69,28,21);fill-rule:nonzero;"/>
    </g>
    <g transform="matrix(0.058594,0,0,0.058594,-0.000002,0.000059)">
        <path d="M333.623,828.805C288.176,783.277 243.619,738.666 198.145,693.084C205.477,695.456 212.162,697.424 218.739,699.796C222.54,701.171 226.017,703.516 229.872,704.837C245.102,710.093 258.714,718.423 271.491,727.722C284.969,737.588 295.374,750.634 303.164,765.621C310.199,779.18 317.585,792.55 324.405,806.216C327.855,813.197 330.335,820.664 333.624,828.805L333.623,828.805Z" style="fill:rgb(69,28,21);fill-rule:nonzero;"/>
    </g>
    <g transform="matrix(0.058594,0,0,0.058594,-0.000002,0.000059)">
        <path d="M691.315,827.056C684.441,821.53 683.228,815.411 687.218,806.57C689.671,801.098 691.989,795.464 693.472,789.615C696.734,776.892 705.305,768.024 715.306,760.907C737.436,745.111 761.022,732.199 788.625,728.641C789.568,728.506 790.431,728.075 790.215,728.156C757.734,760.637 724.551,793.82 691.315,827.056Z" style="fill:rgb(69,28,21);fill-rule:nonzero;"/>
    </g>
    <g transform="matrix(0.058594,0,0,0.058594,-0.000002,0.000059)">
        <path d="M704.544,761.254C705.272,751.847 710.259,745.054 716.647,739.285C731.176,726.185 745.921,713.219 763.576,704.378C774.628,698.825 785.976,693.218 797.836,690.146C808.241,687.45 819.562,688.232 830.506,687.477C830.668,687.908 830.829,688.393 830.991,688.825C830.263,689.768 829.643,690.793 828.835,691.655C821.719,698.771 814.333,705.618 807.54,713.031C803.443,717.56 798.833,719.959 792.876,720.767C763.036,724.81 736.782,737.452 712.495,754.758C709.746,756.753 707.185,759.098 704.543,761.254L704.544,761.254Z" style="fill:rgb(69,28,21);fill-rule:nonzero;"/>
    </g>
    <g transform="matrix(0.058594,0,0,0.058594,-0.000002,0.000059)">
        <path d="M152.545,649.064C164.783,652.919 175.754,655.992 186.401,659.873C205.162,666.801 224.085,673.539 242.28,681.815C250.852,685.724 259.181,691.923 265.273,699.067C271.122,705.968 274.007,715.456 278.185,723.812C277.727,724.109 277.295,724.378 276.864,724.675C269.263,720.12 261.769,715.294 254.006,711.036C247.456,707.397 240.663,704.108 233.816,701.17C223.654,696.857 213.33,692.895 203.033,688.878C201.065,688.15 198.882,687.153 196.914,687.395C190.256,688.231 186.806,683.702 182.87,679.767C174.163,671.006 165.403,662.273 156.669,653.539C155.564,652.434 154.566,651.248 152.545,649.064Z" style="fill:rgb(69,28,21);fill-rule:nonzero;"/>
    </g>
    <g transform="matrix(0.058594,0,0,0.058594,-0.000002,0.000059)">
        <path d="M281.551,709.972C295.029,719.11 308.56,728.086 321.903,737.413C330.664,743.559 332.874,753.047 334.68,763.048C336.702,774.261 339.505,785.367 342.524,796.365C343.548,800.247 343.279,802.565 339.64,804.398C337.025,805.665 334.599,807.309 333.117,808.172C323.278,790.112 313.655,772.267 303.816,754.531C301.902,751.135 299.638,747.603 296.7,745.15C290.258,739.813 287.293,732.993 285.54,725.095C284.489,720.351 282.44,715.822 280.823,711.213C281.066,710.809 281.308,710.377 281.551,709.973L281.551,709.972Z" style="fill:rgb(69,28,21);fill-rule:nonzero;"/>
    </g>
</svg>
