<?xml version="1.0" encoding="UTF-8" standalone="no"?>
<!DOCTYPE svg PUBLIC "-//W3C//DTD SVG 1.1//EN" "http://www.w3.org/Graphics/SVG/1.1/DTD/svg11.dtd">
<svg width="100%" height="100%" viewBox="0 0 60 60" version="1.1" xmlns="http://www.w3.org/2000/svg" xmlns:xlink="http://www.w3.org/1999/xlink" xml:space="preserve" xmlns:serif="http://www.serif.com/" style="fill-rule:evenodd;clip-rule:evenodd;stroke-linejoin:round;stroke-miterlimit:2;">
    <g transform="matrix(0.058594,0,0,0.058594,-0.000029,-0)">
        <path d="M511.965,12.402C487.249,12.401 462.514,21.802 443.753,40.564L146.101,338.256C137.145,320.984 127.793,305.203 120.151,297.732C98.445,276.512 70.582,309.739 70.582,309.739C55.155,329.945 54.772,392.208 55.849,428.508L40.524,443.833C2.982,481.375 2.982,542.636 40.524,580.178L443.753,983.446C462.527,1002.204 487.252,1011.607 511.965,1011.608C536.678,1011.609 561.391,1002.201 580.177,983.446L983.406,580.178C1020.919,542.634 1020.919,481.377 983.406,443.833L931.783,392.21C926.916,358.058 921.323,321.276 915.905,296.784C904.149,243.423 868.192,250.059 868.192,250.059C868.192,250.059 870.581,222.391 856.856,155.818C843.159,89.272 785.879,99.258 785.879,99.258C751.156,95.879 727.708,129.556 711.861,172.249L580.177,40.565C561.403,21.807 536.681,12.404 511.965,12.403L511.965,12.402Z" style="fill:rgb(232,203,158);fill-rule:nonzero;"/>
    </g>
    <g transform="matrix(0.058594,0,0,0.058594,-0.000029,-0)">
        <path d="M150.23,380.048C150.581,378.7 151.632,376.974 151.174,376.03L151.147,376.003L147.696,379.508C148.505,379.697 149.422,379.859 150.231,380.047L150.23,380.048Z" style="fill:rgb(232,203,158);fill-rule:nonzero;"/>
    </g>
    <g transform="matrix(0.058594,0,0,0.058594,-0.000029,-0)">
        <path d="M141.815,335.103C143.028,337.098 144.242,339.121 145.455,341.116L444.076,42.522C481.501,5.07 542.439,5.07 579.864,42.522L720.209,182.867C721.773,177.744 723.499,172.702 725.359,167.713L590.029,32.329C569.159,11.486 541.441,0 511.97,0C482.499,0 454.726,11.486 433.911,32.329L137.447,328.793C138.957,330.869 140.467,332.918 141.815,335.102L141.815,335.103Z" style="fill:rgb(69,28,21);fill-rule:nonzero;"/>
    </g>
    <g transform="matrix(0.058594,0,0,0.058594,-0.000029,-0)">
        <path d="M991.639,433.957L915.629,357.947C916.627,365.739 917.678,373.532 918.676,381.324L937.119,399.74L937.119,399.686C937.416,400.01 937.631,400.252 937.928,400.549L981.474,444.122C994.956,457.604 1003.503,474.132 1007.278,491.524C1007.305,491.686 1007.359,491.848 1007.386,492.036C1007.817,493.95 1008.114,495.892 1008.411,497.86C1008.573,498.966 1008.762,500.098 1008.896,501.257C1009.058,502.713 1009.139,504.196 1009.273,505.679C1009.354,507.216 1009.462,508.807 1009.489,510.371C1009.489,511.665 1009.489,512.933 1009.462,514.227C1009.408,515.926 1009.354,517.597 1009.219,519.296C1009.111,520.59 1009.003,521.858 1008.868,523.125C1008.652,524.743 1008.437,526.361 1008.14,527.978C1007.924,529.326 1007.682,530.701 1007.385,532.049C1007.088,533.451 1006.765,534.826 1006.387,536.255C1005.983,537.792 1005.578,539.356 1005.093,540.92C1004.769,541.891 1004.392,542.888 1004.041,543.859C1003.367,545.773 1002.693,547.661 1001.911,549.575C1001.83,549.737 1001.722,549.926 1001.641,550.087C997.003,560.899 990.316,571.092 981.472,579.936L579.877,981.504C567.069,994.285 551.538,1002.643 535.118,1006.661C534.956,1006.715 534.741,1006.742 534.579,1006.823C527.164,1008.603 519.56,1009.6 511.957,1009.6C503.841,1009.6 495.752,1008.494 487.825,1006.445C486.531,1006.121 485.263,1005.825 484.023,1005.447C480.841,1004.503 477.687,1003.317 474.559,1002.023C472.375,1001.106 470.218,1000.109 468.115,999.03C465.041,997.466 462.021,995.767 459.109,993.826C457.923,993.017 456.763,992.127 455.604,991.264C451.586,988.325 447.65,985.143 444.037,981.503L42.469,579.935C29.688,567.154 21.357,551.65 17.312,535.256C17.204,534.852 17.096,534.42 17.015,534.016C16.53,531.886 16.071,529.729 15.721,527.572C15.505,526.44 15.37,525.307 15.236,524.175C15.02,522.557 14.859,520.966 14.697,519.349C14.589,517.785 14.535,516.248 14.508,514.684C14.454,513.309 14.427,511.934 14.454,510.532C14.481,509.022 14.562,507.512 14.643,505.975C14.751,504.438 14.859,502.874 15.02,501.31C15.128,500.312 15.317,499.315 15.451,498.344C18.282,478.499 27.234,459.382 42.468,444.12L65.036,421.525C64.685,415.189 64.281,408.798 63.769,402.462L32.276,433.955C-10.758,476.989 -10.758,547.04 32.276,590.074L433.871,991.669C454.714,1012.512 482.486,1023.998 511.957,1023.998C541.455,1023.998 569.174,1012.512 590.043,991.669L991.638,590.074C1034.672,547.04 1034.672,476.989 991.638,433.955L991.639,433.957Z" style="fill:rgb(69,28,21);fill-rule:nonzero;"/>
    </g>
    <g transform="matrix(0.058594,0,0,0.058594,-0.000029,-0)">
        <path d="M680.687,567.302C675.914,565.442 672.76,567.626 669.686,570.16C673.677,570.834 677.505,571.023 680.687,567.302Z" style="fill:rgb(69,28,21);fill-rule:nonzero;"/>
    </g>
    <g transform="matrix(0.058594,0,0,0.058594,-0.000029,-0)">
        <path d="M222.544,425.647C223.623,426.402 225.672,425.755 227.775,425.755C222.841,417.828 211.92,414.134 203.13,416.722C195.311,419.041 189.81,424.326 189.918,430.258C192.426,428.991 194.852,428.155 196.875,426.753C205.234,420.686 213.619,419.392 222.544,425.647Z" style="fill:rgb(69,28,21);fill-rule:nonzero;"/>
    </g>
    <g transform="matrix(0.058594,0,0,0.058594,-0.000029,-0)">
        <path d="M612.38,322.524C613,323.656 614.834,324.088 616.101,324.843C616.263,323.387 617.072,321.634 616.532,320.529C614.51,316.458 612.164,312.548 609.683,308.746C608.146,306.292 606.151,304.135 604.317,301.843C603.832,302.22 603.373,302.598 602.888,302.975C604.452,306.103 606.097,309.204 607.607,312.358C609.225,315.755 610.519,319.261 612.38,322.523L612.38,322.524Z" style="fill:rgb(69,28,21);fill-rule:nonzero;"/>
    </g>
    <g transform="matrix(0.058594,0,0,0.058594,-0.000029,-0)">
        <path d="M396.332,311.022C407.387,309.135 417.822,309.108 425.911,318.841C426.855,319.973 429.982,320.971 430.63,320.405C432.706,318.545 431.547,316.684 429.848,314.581C421.786,304.793 410.542,305.602 399.757,305.548C396.872,305.548 393.987,307.867 391.102,309.107C391.21,309.646 391.318,310.159 391.426,310.698C393.071,310.833 394.743,311.291 396.333,311.022L396.332,311.022Z" style="fill:rgb(69,28,21);fill-rule:nonzero;"/>
    </g>
    <g transform="matrix(0.058594,0,0,0.058594,-0.000029,-0)">
        <path d="M572.417,319.362C574.224,315.722 575.599,311.866 577.109,308.091C578.511,304.586 581.073,303.318 584.821,303.265C590.349,303.184 595.903,302.564 601.458,302.213C601.809,301.701 602.159,301.188 602.51,300.703C601.054,299.597 599.679,297.683 598.115,297.521C592.291,296.955 586.413,296.712 580.562,296.847C576.221,296.928 573.228,299.436 571.907,303.615C570.343,308.415 568.671,313.187 567.485,318.067C567.134,319.415 568.294,321.141 568.779,322.705C570.019,321.599 571.718,320.737 572.419,319.362L572.417,319.362Z" style="fill:rgb(69,28,21);fill-rule:nonzero;"/>
    </g>
    <g transform="matrix(0.058594,0,0,0.058594,-0.000029,-0)">
        <path d="M150.23,380.048C150.581,378.7 151.632,376.974 151.174,376.03L151.147,376.003L147.696,379.508C148.505,379.697 149.422,379.859 150.231,380.047L150.23,380.048Z" style="fill:rgb(69,28,21);fill-rule:nonzero;"/>
    </g>
    <g transform="matrix(0.058594,0,0,0.058594,-0.000029,-0)">
        <path d="M423.444,337.975C422.069,334.874 421.422,331.369 417.215,330.938C411.499,330.399 405.809,329.806 400.093,329.509C399.338,329.428 397.936,330.749 397.828,331.504C397.747,332.286 398.826,333.796 399.608,333.958C401.63,334.362 403.787,334.578 405.783,334.228C413.441,332.961 416.865,334.12 418.968,339.702C420.424,343.504 421.368,347.521 422.096,351.539C423.822,361.3 425.197,371.115 426.922,380.902C427.084,381.819 428.513,382.547 429.376,383.383C430.131,382.493 431.425,381.711 431.56,380.768C431.857,378.314 431.668,375.834 431.668,373.353C432.234,360.788 428.486,349.248 423.444,337.977L423.444,337.975Z" style="fill:rgb(69,28,21);fill-rule:nonzero;"/>
    </g>
    <g transform="matrix(0.058594,0,0,0.058594,-0.000029,-0)">
        <path d="M593.031,321.875C591.386,323.142 590.119,323.628 589.849,324.437C589.606,325.192 590.226,326.405 590.793,327.241C594.271,332.688 597.857,338.08 601.363,343.473C602.684,345.522 603.817,347.787 605.408,349.594C606.001,350.268 607.646,350.052 608.832,350.241C608.994,349.189 609.56,348.003 609.209,347.167C606.809,341.316 604.706,335.249 601.551,329.802C599.691,326.701 596.05,324.625 593.031,321.875Z" style="fill:rgb(69,28,21);fill-rule:nonzero;"/>
    </g>
    <g transform="matrix(0.058594,0,0,0.058594,-0.000029,-0)">
        <path d="M450.795,683.561C451.469,685.88 452.709,688.091 454.031,690.113C457.725,695.667 461.716,701.033 465.302,706.696C468.592,711.927 471.207,717.535 474.577,722.739C483.044,735.924 493.398,747.896 499.249,762.726C499.788,764.047 502.215,764.586 503.779,765.503C504.507,764.02 505.639,762.591 505.801,761.054C505.909,759.76 505.154,758.196 504.426,756.956C501.379,751.698 498.063,746.629 495.151,741.317C491.484,734.603 488.599,727.35 484.42,721.013C478.839,712.519 471.99,704.916 466.22,696.53C462.769,691.488 459.803,685.96 457.565,680.271C455.354,674.555 454.491,668.326 452.712,662.421C450.825,656.192 449.153,649.748 446.295,643.951C443.356,637.911 440.201,631.089 435.186,627.072C421.569,616.206 405.742,615.559 389.914,621.868C381.798,625.104 372.792,628.258 366.806,634.136C358.151,642.603 351.814,653.442 344.588,663.364C343.968,664.227 344.103,665.656 343.86,666.788C344.723,667.435 345.586,668.082 346.449,668.702C347.555,666.868 348.39,664.846 349.766,663.255C356.102,655.948 361.954,648.101 369.153,641.819C374.411,637.235 381.583,634.916 387.731,631.303C399.11,624.589 411.297,625.29 423.593,626.908C425.157,627.097 426.721,627.987 428.015,628.903C436.482,634.889 439.286,644.38 442.333,653.44C445.676,663.309 447.914,673.555 450.8,683.558L450.795,683.561Z" style="fill:rgb(69,28,21);fill-rule:nonzero;"/>
    </g>
    <g transform="matrix(0.058594,0,0,0.058594,-0.000029,-0)">
        <path d="M433.167,587.595C442.146,590.13 450.532,594.336 453.524,604.663C457.461,618.118 461.613,631.465 465.738,644.866C467.652,651.095 469.486,657.377 471.859,663.444C473.18,666.841 475.229,670.131 477.548,672.935C479.112,674.795 481.619,675.011 482.833,671.991C481.674,670.643 479.948,669.456 479.436,667.893C475.796,656.568 472.452,645.163 468.974,633.811C466.52,625.857 462.988,618.091 461.721,609.975C460.508,602.102 457.461,596.251 452.284,590.238C441.013,577.188 426.453,576.082 411.38,577.835C396.28,579.615 383.149,587.03 370.665,595.415C370.773,596.089 370.854,596.709 370.935,597.383C373.577,596.844 376.436,596.844 378.754,595.738C396.065,587.352 413.995,582.148 433.166,587.595L433.167,587.595Z" style="fill:rgb(69,28,21);fill-rule:nonzero;"/>
    </g>
    <g transform="matrix(0.058594,0,0,0.058594,-0.000029,-0)">
        <path d="M280.076,738.073C292.452,713.806 304.99,689.646 318.229,665.838C328.071,648.204 339.854,631.756 354.603,617.735C357.057,615.389 358.054,613.205 355.277,609.916C354.01,610.509 352.446,610.995 351.206,611.911C342.335,618.382 335.19,626.525 329.285,635.72C319.174,651.575 308.577,667.133 299.167,683.392C286.413,705.421 273.74,727.585 264.923,751.637C263.089,756.679 262.227,758.459 263.629,760.481L265.516,762.395C266.433,763.15 267.538,764.013 269.021,765.091C272.661,756.058 275.654,746.702 280.076,738.074L280.076,738.073Z" style="fill:rgb(69,28,21);fill-rule:nonzero;"/>
    </g>
    <g transform="matrix(0.058594,0,0,0.058594,-0.000029,-0)">
        <path d="M560.419,960.091C607.12,913.471 653.74,866.797 700.387,820.123C701.493,819.017 702.544,817.804 703.461,816.78C680.272,818.101 657.245,819.449 634.192,820.744C631.388,810.417 628.718,801.195 626.453,791.92C622.462,775.877 613.645,761.964 606.662,747.295C603.049,739.718 596.847,733.382 591.994,726.371C585.873,717.527 577.353,712.215 567.268,708.845C559.449,706.256 551.764,703.183 544.16,700.001C537.123,697.062 530.409,693.368 523.317,690.699C516.819,688.218 510.051,686.547 503.337,684.686C501.908,684.282 500.344,684.632 498.807,684.632C498.564,685.225 498.376,685.791 498.133,686.412C502.204,688.947 506.033,691.966 510.401,693.908C518.571,697.521 527.038,700.46 535.342,703.804C540.168,705.718 544.887,707.929 549.687,709.898C558.504,713.592 567.483,717.016 576.138,721.007C578.834,722.247 580.938,724.917 582.96,727.209C595.121,741.122 602.05,758.109 609.654,774.53C614.157,784.21 616.422,794.914 619.738,805.161C621.113,809.367 622.623,813.574 624.052,817.807C623.054,818.077 622.893,818.211 622.758,818.184C610.193,816.054 597.763,813.115 584.847,813.762C576.677,814.166 568.453,813.411 560.31,813.87C548.581,814.49 536.906,815.73 525.554,816.674C524.772,814.948 524.395,814.193 524.098,813.438C519.919,801.925 515.82,790.411 511.56,778.979C511.209,777.981 509.915,777.361 509.052,776.579C508.755,777.819 508,779.168 508.27,780.3C511.587,795.319 515.011,810.283 518.462,825.464C511.694,827.837 505.115,827.864 498.779,824.008C492.928,820.476 486.591,819.802 479.851,820.557C471.519,821.474 463.08,821.743 454.074,822.364C461.947,812.414 473.083,813.331 484.678,812.846C475.915,806.806 466.262,806.968 440.134,812.927C448.007,802.438 457.714,795.616 469.309,790.79C462.406,787.932 455.908,789.927 449.841,792.731C443.666,795.589 437.977,799.418 431.587,803.085C429.214,788.066 431.371,774.234 438.22,760.941C429.349,765.093 426.841,773.91 423.956,781.757C420.909,789.981 419.911,798.96 418.024,807.534C409.881,796.937 399.554,788.579 384.347,787.5C390.063,791.868 395.753,795.481 400.525,800.038C405.217,804.514 408.992,810.015 413.198,815.057C412.901,815.488 412.578,815.893 412.254,816.324C397.343,809.421 382.271,809.718 367.036,814.167C383.16,816.351 399.824,816.702 410.312,832.475C398.071,833.338 386.045,834.497 373.992,834.929C362.074,835.333 350.129,835.01 338.346,835.01C339.02,835.711 339.991,836.817 341.042,837.814C381.757,878.529 422.418,919.244 463.16,959.932C476.48,973.252 492.901,980.02 509.456,980.667C510.265,980.694 511.074,980.883 511.91,980.883C529.194,980.883 546.504,973.98 560.417,960.094L560.419,960.091Z" style="fill:rgb(69,28,21);fill-rule:nonzero;"/>
    </g>
    <g transform="matrix(0.058594,0,0,0.058594,-0.000029,-0)">
        <path d="M815.868,585.664C809.127,584.855 809.343,590.841 806.188,592.54C810.772,592.864 812.093,588.846 815.868,585.664Z" style="fill:rgb(69,28,21);fill-rule:nonzero;"/>
    </g>
    <g transform="matrix(0.058594,0,0,0.058594,-0.000029,-0)">
        <path d="M430.657,736.827C431.358,736.8 432.032,736.8 432.733,736.773C434.027,730.787 436.184,724.882 436.508,718.842C437.128,707.463 436.939,696.004 436.535,684.625C436.184,674.109 432.949,664.214 426.801,655.693C422.298,649.41 416.636,644.341 407.738,646.525C401.267,648.143 394.472,648.79 388.324,651.082C381.34,653.671 374.195,656.556 369.854,663.431C366.888,668.123 363.302,672.383 360.363,677.048C356.588,683.115 353.056,689.37 349.551,695.599C346.774,700.56 344.347,705.71 341.462,710.618C336.662,718.788 330.784,726.446 326.929,735.02C318.651,753.436 311.344,772.284 303.74,790.996C300.343,799.301 299.776,796.739 307.164,803.345C315.064,784.147 322.83,765.165 330.73,746.236C332.914,741.005 335.341,735.855 338.118,730.921C342.405,723.209 347.313,715.848 351.627,708.164C354.377,703.23 356.211,697.729 359.069,692.876C363.599,685.164 368.506,677.669 373.521,670.254C375.408,667.45 377.646,664.268 380.505,662.866C388.324,659.037 396.387,655.505 404.691,652.997C409.032,651.676 414.533,651.784 417.876,656.26C422.568,662.569 426.801,669.31 427.691,677.345C428.446,684.005 428.608,690.773 429.12,697.46C429.983,708.218 432.463,718.842 430.145,729.735C429.66,731.946 430.442,734.454 430.657,736.826L430.657,736.827Z" style="fill:rgb(69,28,21);fill-rule:nonzero;"/>
    </g>
    <g transform="matrix(0.058594,0,0,0.058594,-0.000029,-0)">
        <path d="M322.298,706.677C324.913,702.821 327.259,698.777 329.767,694.705C329.174,693.869 328.85,693.006 328.5,692.979C327.61,692.925 326.343,692.979 325.911,693.518C323.269,696.781 320.788,700.151 318.469,703.656C318.118,704.195 318.631,705.921 319.278,706.352C320.006,706.918 322.001,707.107 322.298,706.676L322.298,706.677Z" style="fill:rgb(69,28,21);fill-rule:nonzero;"/>
    </g>
    <g transform="matrix(0.058594,0,0,0.058594,-0.000029,-0)">
        <path d="M750.635,380.321C754.383,372.259 753.978,365.599 749.907,365.248C748.02,377.813 748.02,377.813 750.635,380.321Z" style="fill:rgb(69,28,21);fill-rule:nonzero;"/>
    </g>
    <g transform="matrix(0.058594,0,0,0.058594,-0.000029,-0)">
        <path d="M312.281,721.121C310.501,724.114 308.722,727.134 306.888,730.1C298.26,744.175 289.901,758.304 284.346,774.024C282.62,778.958 283.672,781.574 287.986,784.189C296.776,763.427 305.566,742.773 314.329,722.092L312.281,721.121Z" style="fill:rgb(69,28,21);fill-rule:nonzero;"/>
    </g>
    <g transform="matrix(0.058594,0,0,0.058594,-0.000029,-0)">
        <path d="M819.6,308.938C819.33,310.448 820.49,312.201 821.002,313.845C822.269,312.82 823.968,312.119 824.723,310.852C827.878,305.675 830.709,300.552 837.234,298.611C842.33,297.101 847.022,294.297 852.091,292.49C856.028,291.115 860.261,290.603 864.279,289.443C867.919,288.391 872.746,290.225 875.361,284.212C872.719,283.268 870.292,281.677 867.838,281.65C860.504,281.623 853.359,282.729 846.618,286.315C841.198,289.227 835.401,291.465 829.712,293.892C823.052,296.696 820.679,302.466 819.601,308.938L819.6,308.938Z" style="fill:rgb(69,28,21);fill-rule:nonzero;"/>
    </g>
    <g transform="matrix(0.058594,0,0,0.058594,-0.000029,-0)">
        <path d="M885.666,305.405C887.392,316.945 888.335,328.567 889.953,340.107C892.784,360.222 895.885,380.283 899.067,400.344C899.283,401.638 901.278,402.636 902.464,403.795C902.922,403.444 903.381,403.148 903.812,402.797C903.677,400.883 903.704,398.914 903.327,397.054C902.275,392.228 900.523,387.509 900.064,382.655C898.15,362.837 896.882,342.992 894.806,323.2C893.997,315.623 892.298,307.966 889.818,300.793C888.038,295.67 883.886,291.679 878.17,290.115C878.952,292.65 880.462,294.537 881.594,296.613C883.158,299.471 885.207,302.356 885.665,305.403L885.666,305.405Z" style="fill:rgb(69,28,21);fill-rule:nonzero;"/>
    </g>
    <g transform="matrix(0.058594,0,0,0.058594,-0.000029,-0)">
        <path d="M749.921,365.227C748.007,377.792 748.007,377.792 750.649,380.327C754.397,372.238 753.992,365.605 749.921,365.227Z" style="fill:rgb(69,28,21);fill-rule:nonzero;"/>
    </g>
    <g transform="matrix(0.058594,0,0,0.058594,-0.000029,-0)">
        <path d="M202.612,416.935C195.089,419.335 189.804,424.458 189.912,430.255C191.53,429.446 193.067,428.772 194.523,428.044L202.612,416.935Z" style="fill:rgb(69,28,21);fill-rule:nonzero;"/>
    </g>
    <g transform="matrix(0.058594,0,0,0.058594,-0.000029,-0)">
        <path d="M96.061,322.967C103.961,320.513 109.543,324.315 114.477,329.654C125.047,341.06 131.545,355.242 140.2,367.969C142.573,371.42 144.164,375.438 146.483,378.97C147.022,379.806 148.937,379.698 150.231,380.049C150.582,378.701 151.66,376.948 151.148,376.058C147.724,369.56 143.949,363.196 140.282,356.833C138.799,354.298 137.262,351.791 135.752,349.283C133.73,345.966 131.923,342.488 129.658,339.36C126.827,335.369 123.969,331.352 120.571,327.847C116.85,323.964 112.913,320.135 108.41,317.25C102.451,313.475 94.011,316.333 91.827,322.724C93.364,322.859 94.847,323.344 96.06,322.967L96.061,322.967Z" style="fill:rgb(69,28,21);fill-rule:nonzero;"/>
    </g>
    <g transform="matrix(0.058594,0,0,0.058594,-0.000029,-0)">
        <path d="M65.37,426.612C64.966,413.804 63.348,401.051 62.755,388.27C62.458,381.907 62.647,375.381 63.699,369.099C66.261,353.999 69.604,339.035 72.354,323.962C73.621,316.898 77.046,311.64 83.032,307.757C85.917,305.897 88.56,303.632 91.337,301.582C98.401,296.405 105.52,297.484 112.342,302.957C123.882,312.179 134.129,322.586 141.813,335.125C150.333,348.984 158.854,362.87 164.651,378.348C168.642,388.999 175.005,398.759 180.559,409.383C178.456,412.268 175.867,415.8 173.036,419.71C166.942,409.68 164.974,397.222 154.081,390.131C155.941,395.2 157.802,400.269 159.662,405.311C162.304,412.375 165.082,419.305 167.401,426.477C167.886,427.96 166.862,430.198 166.053,431.87C159.636,445.379 151.115,457.917 147.637,472.855C144.347,487.092 140.573,501.248 136.986,515.43C126.389,514.756 115.038,514.082 102.877,513.327C102.877,510.307 102.634,507.098 102.931,503.917C103.497,497.095 104.549,490.273 105.034,483.425C106.355,464.551 105.196,445.811 101.34,427.26C100.261,422.137 100.882,416.717 100.234,411.486C100.045,410.003 98.239,408.709 97.16,407.28C96.432,408.844 95.03,410.462 95.111,411.999C95.893,429.229 97.565,446.485 97.592,463.742C97.619,477.089 95.597,490.436 94.545,503.81C94.248,507.073 94.141,510.335 93.898,514.002L84.757,514.002C85.269,498.04 86.483,482.239 86.078,466.411C85.647,448.399 83.489,430.415 82.627,412.403C82.196,402.723 82.978,393.016 83.166,383.309C83.355,374.735 83.031,366.16 83.786,357.613C84.433,349.686 86.348,341.866 87.453,333.966C87.669,332.51 86.752,330.865 86.347,329.355C85.134,330.407 83.543,331.242 82.734,332.537C77.584,340.95 78.123,350.549 77.53,359.77C76.586,375.867 75.75,391.991 75.831,408.116C75.939,419.576 78.042,431.035 78.5,442.495C78.851,451.015 77.961,459.59 77.691,468.083C77.529,472.208 77.583,476.334 77.421,480.432C77.07,488.818 76.828,497.203 76.127,505.535C76.019,506.991 74.186,509.04 72.757,509.418C68.928,510.524 64.857,510.901 59.734,511.737C61.433,500.817 63.212,490.894 64.453,480.864C65.073,475.525 64.911,470.052 64.992,464.659C65.208,451.959 65.774,439.286 65.369,426.613L65.37,426.612ZM204.691,407.495C207.63,407.091 210.623,407.091 213.562,407.306C214.128,407.333 214.668,407.36 215.234,407.441C218.173,407.738 221.085,408.25 223.862,409.086C226.828,410.003 229.956,410.785 232.463,412.456C235.914,414.721 239.285,417.39 241.792,420.626C248.614,429.443 255.355,438.341 261.287,447.751C266.895,456.595 271.992,465.79 276.198,475.335C283.964,492.78 290.92,510.603 298.254,528.264C300.33,533.279 305.48,533.576 309.606,534.708C317.264,536.784 325.164,538.132 333.037,539.238C338.052,539.939 343.229,539.535 348.298,539.966C351.722,540.236 355.12,541.045 358.544,541.611L358.544,543.283C355.955,543.795 353.367,544.82 350.832,544.739C340.343,544.308 329.8,544.011 319.393,542.744C309.902,541.585 300.384,539.832 292.241,533.981C290.839,532.956 288.844,532.822 287.361,531.878C285.878,530.853 284.018,529.613 283.451,528.103C279.568,517.668 276.414,506.991 272.207,496.717C269.295,489.653 265.035,483.127 261.529,476.279C255.327,464.199 249.665,451.823 242.924,440.094C240.362,435.645 235.428,432.517 231.357,429.066C230.737,428.527 228.957,429.336 227.717,429.497C228.014,430.603 227.96,432.032 228.634,432.733C239.419,443.438 246.727,456.218 252.092,470.32C254.222,475.928 257.08,481.429 260.397,486.471C268.864,499.333 270.67,514.567 276.872,529.343C272.342,528.318 268.783,527.833 265.52,526.62C264.199,526.135 263.12,524.166 262.527,522.629C258.914,512.841 255.597,502.919 251.957,493.131C251.121,490.92 249.261,489.033 247.886,487.01C247.401,487.28 246.888,487.549 246.43,487.792C249.962,499.629 253.467,511.412 257.215,523.95C250.932,520.229 245.459,516.993 240.012,513.731C239.635,514.162 239.23,514.621 238.853,515.052C238.044,511.061 237.586,506.99 236.318,503.161C234.053,496.204 231.896,489.113 228.526,482.723C226.773,479.406 222.459,477.438 218.684,475.82C221.461,478.301 225.101,480.35 226.773,483.478C228.66,487.01 229.011,491.513 229.685,495.639C230.71,502.11 231.384,508.662 232.327,515.107C232.758,518.154 230.197,521.524 227.554,520.796C221.433,519.151 215.501,516.509 209.3,515.565C203.233,514.675 196.897,515.376 189.886,515.376C190.398,511.466 190.56,508.258 191.261,505.13C192.717,498.47 194.173,491.783 196.222,485.285C198.056,479.407 202.612,476.037 208.625,474.607C209.973,474.283 211.294,473.933 212.643,473.555C212.562,472.908 212.481,472.234 212.4,471.614C209.245,471.938 205.767,471.56 203.017,472.773C196.276,475.739 191.773,480.889 190.021,488.385C187.918,497.391 185.545,506.37 183.172,515.349C182.902,516.293 182.04,517.614 181.231,517.83C175.811,519.151 170.311,520.257 163.462,521.686C164.675,512.438 166.185,503.405 167.83,494.426C168.073,493.078 168.342,491.73 168.612,490.381C171.929,473.205 176.135,456.407 182.309,439.77C173.977,443.437 171.389,450.771 168.881,457.539C165.484,466.653 163.596,476.306 160.576,485.608C157.313,495.881 156.1,506.316 156.451,517.047C156.532,518.827 156.235,520.633 156.127,522.359C147.903,524.085 147.067,523.33 148.227,515.564C150.33,501.489 151.732,487.252 154.86,473.393C156.586,465.654 161.035,458.482 164.567,451.229C168.315,443.625 173.114,436.534 176.323,428.741C181.851,415.313 192.96,408.95 204.689,407.494L204.691,407.495ZM218.874,370.555C229.255,367.427 239.609,363.922 250.179,361.576C254.898,360.497 257.918,358.718 260.344,354.727C261.746,352.408 264.254,350.763 266.33,348.93C270.24,345.371 274.824,342.405 277.951,338.306C288.763,324.096 302.838,320.888 319.448,324.42C327.995,326.227 336.786,329.408 345.198,324.717C352.262,320.807 359.381,316.574 365.555,311.37C377.473,301.34 390.658,295.947 406.351,297.079C407.133,297.16 408.023,297.079 408.751,296.782C416.624,293.331 422.287,297.052 428.084,302.04C440.191,312.556 444.936,327.17 450.14,341.299C453.915,351.464 455.479,362.492 457.744,373.197C458.553,376.999 458.445,380.989 458.742,384.441L493.552,384.441C493.633,384.953 493.714,385.466 493.768,386.032C480.097,388.081 466.454,390.13 453.619,392.072C449.224,373.602 445.152,356.372 440.946,339.196C440.811,338.549 439.49,338.198 437.549,337.012C440.111,351.303 442.241,364.542 444.937,377.673C447.633,390.831 447.822,390.292 434.853,391.532C421.991,392.772 411.664,386.813 401.31,381.07C390.605,375.192 380.467,368.532 367.255,370.473C361.754,371.282 356.065,370.608 350.025,370.608C354.204,361.09 361.026,355.158 370.814,353.028C374.373,352.246 376.342,350.925 377.798,347.366C379.227,343.942 382.274,341.191 384.647,338.144C384.377,337.713 384.135,337.281 383.865,336.823C382.166,337.227 379.551,337.039 378.85,338.117C374.725,344.238 367.849,346.395 361.917,349.334C353.477,353.486 348.354,360.362 342.773,367.157C341.775,368.424 339.51,369.719 338.108,369.449C333.093,368.451 327.808,368.317 323.656,364.299C319.962,360.74 313.518,360.74 308.934,363.247C307.721,363.894 306.292,364.595 304.943,364.622C295.937,364.73 286.931,364.676 277.845,364.676C282.267,358.555 285.961,351.841 291.192,346.718C298.364,339.681 307.451,336.499 317.94,337.793C325.652,338.737 333.552,339.357 341.263,338.845C350.889,338.171 357.145,331.322 363.211,324.662C362.968,324.258 362.753,323.826 362.483,323.422C360.245,324.689 357.764,325.714 355.742,327.332C349.325,332.482 342.557,336.634 333.928,335.906C328.589,335.475 323.25,334.558 317.912,333.938C303.729,332.185 291.542,335.313 282.779,347.797C278.573,353.837 273.557,359.31 268.596,364.784C267.275,366.267 264.875,367.157 262.799,367.561C255.681,368.936 248.454,370.096 241.282,371.174C237.237,371.767 233.166,372.172 229.094,372.549C224.268,372.98 219.387,373.304 212.889,373.816C215.639,372.306 217.122,371.093 218.875,370.553L218.874,370.555ZM360.54,167.627C362.724,155.466 365.663,143.441 368.386,131.361C368.898,129.204 369.788,127.02 370.975,125.078C375.801,117.124 380.79,109.223 385.778,101.323C389.823,94.825 402.495,95.769 408.32,102.563C418.297,114.13 426.17,127.1 434.636,139.8C443.938,153.794 452.001,168.274 457.339,184.236C460.521,193.754 466.857,198.958 477.346,198.554C479.854,198.446 482.415,199.606 484.977,200.145C484.896,200.873 484.815,201.574 484.761,202.302C480.204,202.302 475.62,202.572 471.09,202.248C466.398,201.897 461.68,201.169 457.069,200.226C455.802,199.956 454.211,198.527 453.779,197.287C446.742,177.118 434.743,159.511 425.225,140.61C421.774,133.761 417.433,127.398 413.199,120.981C409.505,115.4 404.166,112.73 397.264,113.189C392.761,113.486 390.011,115.616 387.557,121.386C390.927,120.496 393.3,120.307 395.188,119.283C401.174,116.047 404.733,117.126 407.996,123.193C415.492,136.998 423.15,150.75 430.672,164.555C431.939,166.847 432.991,169.247 434.15,171.619C438.464,180.571 442.805,189.577 447.362,198.987C438.491,200.551 432.667,195.644 426.196,193.352C419.374,190.979 412.876,189.011 405.946,192.489C404.948,193.028 403.789,193.217 402.683,193.541C394.405,195.995 393.111,195.132 393.03,186.719C392.976,178.441 392.679,170.163 393.219,161.913C393.435,158.354 395.187,154.795 396.616,151.37C397.56,148.997 399.124,146.867 400.391,144.629C397.209,141.825 395.025,142.795 393.138,145.573C388.554,152.476 386.505,160.052 387.098,168.357C387.341,172.213 387.26,176.149 387.125,180.005C386.963,184.211 386.613,188.391 386.289,193.055L379.036,193.055C378.281,170.81 373.859,148.188 388.311,128.342C384.779,124.945 383.107,127.075 381.651,129.474C372.187,144.708 370.111,161.561 370.812,179.06C371.001,183.644 371.432,188.228 371.783,193.189C367.442,193.405 363.209,193.593 357.681,193.863C358.571,185.154 359.002,176.283 360.539,167.627L360.54,167.627ZM505.739,483.1C503.366,486.983 499.268,487.657 491.583,486.524C491.583,486.093 491.556,485.688 491.502,485.257C496.248,484.529 500.993,483.801 505.739,483.1ZM481.876,488.035C477.427,487.631 473.436,488.844 469.473,490.327C466.21,491.567 463.002,492.996 459.658,493.859C454.373,495.234 448.711,495.369 443.156,495.666C442.104,495.72 440.945,493.913 439.786,493.051C431.589,486.768 417.919,487.389 414.252,496.044C413.389,498.093 413.12,500.385 412.472,502.812C411.07,503.324 409.102,504.133 407.079,504.619C405.245,505.05 403.331,505.131 400.823,505.428C401.443,502.111 401.982,499.442 402.576,496.395C398.127,496.044 393.651,495.37 389.148,495.424C384.618,495.478 380.088,496.179 374.318,496.745C376.125,489.896 376.745,483.722 379.387,478.625C383.512,470.671 394.082,469.592 400.499,475.524C401.497,476.468 402.737,477.034 404.031,477.492C400.175,470.805 391.817,466.976 385.561,468.621C377.391,470.778 371.621,477.762 371.189,485.824C371.081,488.278 370.542,490.704 370.164,493.131C369.463,497.715 365.823,496.474 363.288,496.07C362.236,495.935 360.511,493.104 360.834,491.918C363.18,482.804 365.472,473.637 368.734,464.82C371.835,456.542 378.657,453.36 387.339,454.817C397.396,456.516 406.564,459.913 412.712,468.865C416.379,474.204 421.502,477.763 428.27,478.815C434.903,479.867 440.215,482.725 444.853,487.443C446.012,488.656 448.331,489.438 450.03,489.303C456.232,488.872 462.379,487.847 468.581,487.227C468.824,487.2 469.066,487.173 469.309,487.146C474.432,486.607 479.609,486.202 484.759,485.771C484.813,486.122 484.894,486.472 484.975,486.823C483.923,487.254 482.872,488.117 481.874,488.036L481.876,488.035ZM417.703,502.46C417.137,501.894 416.624,501.354 416.112,500.815C418.053,498.011 419.429,493.751 422.017,492.78C427.248,490.866 432.91,491.701 437.575,496.771C430.645,498.766 424.147,500.6 417.703,502.46ZM557.347,437.936C557.347,433.244 557.832,427.69 557.266,422.189C554.893,400.322 551.954,378.535 549.878,356.668C549.258,350.466 550.903,344.022 551.55,337.713C552.17,331.404 552.79,325.067 553.599,318.785C553.896,316.277 554.246,313.5 555.459,311.37C560.205,303.173 565.355,295.219 570.208,287.049C573.821,280.982 577.596,279.095 584.31,280.928C591.213,282.842 598.007,285.161 604.883,287.13C609.629,288.505 612.514,291.714 615.156,295.704C627.964,315.199 638.264,336.041 648.726,356.857C650.425,360.254 651.989,363.706 653.391,367.184C654.038,368.721 654.577,370.312 655.198,371.822C655.899,373.763 656.654,375.678 657.328,377.592C658.083,379.776 658.73,381.96 659.431,384.117C659.835,385.384 660.267,386.652 660.644,387.919C661.561,390.993 662.478,394.094 663.34,397.221C663.34,397.248 663.367,397.248 663.367,397.275C663.718,398.515 664.068,399.702 664.419,400.915C665.147,403.557 666.333,406.065 667.196,408.384C662.37,409.516 657.84,410.568 653.445,411.593C650.56,401.643 648.241,391.128 644.493,381.151C639.963,369.098 634.22,357.531 629.043,345.694C628.072,343.483 627.641,341.002 626.562,338.791C625.43,336.445 624.351,333.506 620.495,334.288C620.306,344.049 626.373,351.572 629.285,360.119C634.219,374.679 639.558,389.132 644.25,403.773C647.189,412.914 646.677,413.237 636.026,415.017C634.92,409.274 633.788,403.504 632.656,397.76C631.604,392.34 630.391,387.244 626.913,382.418C623.381,377.484 621.439,371.336 618.797,365.728C618.446,365 618.312,363.948 617.745,363.517C615.911,362.196 613.916,361.063 611.948,359.85C612.11,362.034 611.732,364.407 612.568,366.294C615.723,373.466 620.172,380.207 622.437,387.595C625.241,396.574 626.347,406.092 628.153,415.233C622.14,417.282 616.343,418.334 611.57,421.111C604.398,425.236 597.98,430.683 591.078,435.348C587.627,437.667 583.825,439.446 579.43,441.927C578.972,435.941 578.244,431.088 578.271,426.234C578.325,415.017 577.085,404.07 574.631,393.096C572.016,381.475 570.64,369.557 569.562,357.666C569.023,351.761 570.344,345.64 570.829,339.6C570.883,339.303 571.126,339.007 571.126,338.683C571.099,335.259 573.121,330.351 568.295,329.461C563.334,328.517 564.439,333.883 563.873,336.606C560.961,350.33 561.824,363.866 564.331,377.86C568.133,399.053 572.744,420.435 569.427,443.247C557.32,444.46 544.567,445.755 531.813,447.022C531.678,446.294 531.489,445.566 531.355,444.838C539.741,442.627 548.153,440.362 557.348,437.935L557.347,437.936ZM680.004,434.296C683.617,416.77 686.826,399.27 686.206,381.232C685.963,374.383 687.338,367.481 687.716,360.578C688.013,355.563 687.527,350.467 688.013,345.478C689.172,334.072 690.467,322.694 692.138,311.396C694.187,297.537 696.075,283.597 699.095,269.953C705.27,241.992 711.283,213.95 719.048,186.474C724.117,168.489 731.964,151.233 739.082,133.922C741.293,128.502 744.583,123.271 748.492,118.984C751.134,116.099 755.583,114.346 759.493,113.403C771.519,110.518 783.329,106.689 796.056,107.228C811.263,107.929 823.154,112.675 831.216,127.019C839.79,142.28 844.563,158.62 848.257,175.392C850.576,185.908 851.843,196.72 853.191,207.452C855.051,222.552 856.588,237.732 858.233,252.886C858.368,254.315 858.26,255.825 858.26,257.362C854.97,258.441 851.924,259.411 849.982,260.031C846.989,242.909 843.861,225.895 841.111,208.854C838.711,194.159 837.201,179.302 834.289,164.742C833.022,158.217 831.458,151.449 825.742,146.353C821.077,142.174 818.003,136.242 813.581,131.712C811.397,129.474 807.784,127.236 804.899,127.371C795.354,127.802 785.836,129.258 776.318,130.337C776.318,131.065 776.345,131.766 776.345,132.494C781.792,132.871 787.292,133.923 792.658,133.384C799.561,132.764 806.032,133.222 812.314,136.053C812.88,136.296 813.554,136.538 813.905,136.97C817.195,141.203 820.916,145.221 823.477,149.859C825.337,153.283 826.039,157.517 826.686,161.453C827.684,167.601 827.953,173.856 828.978,179.977C832.321,199.687 836.069,219.263 839.278,238.973C840.303,245.282 839.871,251.808 840.545,258.144C841.003,262.323 839.655,264.588 835.611,265.478C834.236,265.775 832.915,266.341 830.623,267.069C829.598,255.502 828.412,244.77 827.711,234.012C827.334,228.107 824.556,223.307 820.377,220.045C812.665,213.978 803.956,209.718 793.602,213.142C790.528,214.194 787.589,215.596 784.758,217.16C783.76,217.699 783.275,219.209 782.089,220.935C783.949,221.016 784.785,221.259 785.513,221.097C791.607,219.56 797.727,216.702 803.794,216.81C807.973,216.891 813.231,220.153 815.955,223.605C818.678,227.11 819.379,232.557 820.08,237.302C821.428,246.524 821.994,255.88 823.235,265.128C823.639,268.121 823.747,270.062 820.835,272.139C807.38,281.846 797.727,293.979 795.624,311.29C794.815,317.815 791.418,323.99 790.096,330.488C788.316,339.305 787.049,348.203 786.132,357.155C784.811,369.909 784.218,382.689 783.004,395.443C782.06,405.393 780.577,415.288 779.472,425.238C778.933,429.957 778.933,434.783 778.178,439.475C777.989,440.931 776.398,443.061 775.131,443.331C766.53,445.218 757.847,447.51 748.275,443.789C748.652,440.338 749.138,436.536 749.461,432.707C750.135,424.726 750.809,416.799 751.429,408.844C751.78,403.802 752.238,398.706 752.238,393.637C752.238,392.612 750.485,391.534 749.542,390.455C748.733,391.453 747.358,392.369 747.196,393.448C745.147,408.817 743.286,424.159 741.345,439.637L724.628,439.637C724.979,434.622 725.194,429.634 725.707,424.672C726.866,413.644 728.349,402.643 729.347,391.588C730.048,383.742 730.291,375.841 730.614,367.968C731.342,351.385 731.746,334.803 732.717,318.247C733.175,310.428 734.254,302.581 735.845,294.924C736.546,291.581 738.784,288.318 740.995,285.568C748.437,276.158 756.715,267.395 763.563,257.607C767.5,251.999 769.468,244.961 772.03,238.463C773.27,235.335 773.89,231.965 773.864,227.624C772.516,228.864 770.655,229.889 769.819,231.399C766.907,236.846 764.885,242.805 761.514,247.874C757.011,254.669 751.537,260.79 746.522,267.234C742.882,271.872 739.511,276.752 735.71,281.282C728.538,289.749 728.295,300.318 726.866,310.295C725.059,323.103 724.655,336.126 723.738,349.042C723.01,358.884 722.552,368.752 721.635,378.567C720.583,389.946 719.154,401.297 717.914,412.676C717.833,413.485 717.752,414.321 717.752,415.13L717.752,438.993C710.715,441.339 704.783,443.28 698.958,445.222C700.953,434.113 703.272,422.6 705.079,411.032C706.643,401.029 707.829,390.971 708.8,380.887C710.256,366.354 711.362,351.82 712.602,337.26C713.168,330.708 713.249,324.075 714.462,317.658C715.918,310.027 718.614,302.612 720.178,294.955C721.041,290.722 720.367,286.219 720.879,281.878C721.715,274.247 722.874,266.698 723.98,259.121C725.84,246.152 727.458,233.182 729.777,220.347C731.098,212.851 733.336,205.49 735.709,198.264C740.104,184.647 744.634,171.085 749.676,157.738C751.375,153.235 754.529,149.244 757.442,145.335C759.842,142.099 762.862,139.376 765.396,136.626C752.966,138.864 744.688,147.142 741.345,159.356C738.972,168.119 735.413,176.586 732.258,185.106C730.883,188.935 729.373,192.737 727.728,196.431C722.632,207.783 721.445,220.024 719.72,232.104C717.59,246.88 715.217,261.602 713.33,276.378C712.602,282.148 713.141,288.107 712.71,293.931C712.44,297.49 712.171,301.373 710.607,304.474C705.754,314.262 706.428,324.912 704.918,335.212C703.516,344.919 702.329,354.707 701.251,364.494C700.631,370.372 700.092,376.277 700.065,382.182C700.038,395.394 697.773,408.229 694.43,420.929C693.486,424.542 693.837,428.506 693.028,432.146C691.707,437.997 689.954,443.686 688.228,449.43C687.931,450.428 687.122,451.506 686.26,451.965C675.96,457.358 666.55,465.339 653.742,463.829C653.418,463.802 653.095,463.883 652.771,463.991C635.029,471.487 616.262,474.642 597.334,476.826C583.69,478.363 570.047,480.035 556.43,481.599C555.298,481.707 554.111,481.464 552.736,480.736C554.516,480.062 556.268,479.091 558.129,478.795C565.814,477.609 573.606,476.746 581.345,475.532C596.094,473.24 610.762,469.87 625.592,468.575C639.613,467.362 650.857,459.246 663.907,455.875C675.124,452.963 677.982,443.876 680.004,434.304L680.004,434.296ZM879.75,262.97C881.098,262.835 882.905,264.183 884.064,265.316C897.303,278.42 904.88,294.598 908.655,312.61C910.758,322.613 912.268,332.806 913.67,342.971C916.474,363.382 918.928,383.848 921.678,404.286C923.296,416.15 925.21,427.933 926.882,439.797C927.367,443.167 927.475,446.592 927.826,450.852C922.622,450.448 918.2,450.313 913.94,449.558C912.996,449.369 912.16,446.916 911.837,445.379C910.678,439.474 910.057,433.434 908.601,427.583C907.927,424.833 906.714,421.274 901.564,422.676C902.022,431.143 902.481,439.636 902.939,448.453L891.992,448.453C891.992,446.808 891.911,445.19 892.019,443.6C893.178,429.498 889.565,415.962 887.058,402.265C883.741,384.388 881.072,366.35 878.052,348.419C877.728,346.559 876.758,344.833 875.167,343.296C874.951,378.753 884.982,413.186 884.092,449.559C881.153,448.858 878.753,448.157 876.326,447.725C870.556,446.7 864.732,445.757 859.204,444.867C861.9,438.072 863.626,436.967 875.409,435.565C867.374,428.123 861.523,429.282 854.027,440.203C850.737,433.031 854.189,424.214 848.607,418.039C848.041,418.066 847.475,418.12 846.935,418.174L846.935,445.569C836.662,441.498 827.279,436.267 819.001,448.346C828.465,446.432 837.04,444.787 844.212,453.766C834.289,452.31 827.71,456.274 821.859,462.637C820.025,464.605 816.331,464.875 812.341,466.331C812.988,456.274 813.447,447.16 814.148,438.073C814.876,428.771 815.631,419.468 816.817,410.193C818.597,396.091 816.979,381.8 820.295,367.645C822.155,359.745 820.457,351.008 820.133,342.65C820.106,341.76 818.65,340.843 817.868,339.981C817.005,340.736 815.603,341.383 815.414,342.273C814.308,347.801 813.446,353.436 812.502,359.017C811.558,365.003 810.534,370.935 809.806,376.948C808.997,383.608 808.512,390.322 807.946,397.009C806.571,413.861 805.223,430.686 803.955,447.539C803.47,454.388 803.227,461.29 802.876,468.22C796.863,469.029 791.255,469.73 785.862,470.458C786.86,456.653 787.722,443.009 788.855,429.393C789.745,418.608 790.958,407.876 792.01,397.118C793.655,379.996 795.731,362.901 796.675,345.752C797.214,335.587 800.854,326.446 803.416,316.874C804.198,314.07 804.818,311.212 805.438,308.354C810.426,286.945 826.631,277.831 845.533,271.711C851.977,269.608 858.314,267.289 864.839,265.536C869.719,264.242 874.735,263.487 879.75,262.974L879.75,262.97ZM715.219,577.662C708.128,570.705 699.931,565.286 688.633,568.548C698.825,569.842 706.159,575.37 711.633,583.54C701.279,588.744 660.294,595.485 647.649,593.678C654.093,587.126 660.052,581.032 665.984,574.857C667.305,573.455 668.384,571.783 669.543,570.273C669.435,570.327 669.327,570.354 669.246,570.408C664.204,573.104 658.838,575.315 654.362,578.686C649.967,581.949 645.761,585.993 642.902,590.577C640.313,594.729 637.078,596.051 632.925,596.239C622.113,596.697 611.273,596.994 600.461,597.21C598.601,597.264 596.686,596.59 594.799,595.646C604.533,592.033 614.105,588.878 624.513,589.148C626.589,589.229 629.232,588.069 630.742,586.559C638.022,579.441 644.547,571.486 652.286,564.934C656.142,561.671 661.993,560.728 667.008,558.867C668.653,558.274 670.702,558.463 672.212,557.654C685.155,550.617 696.695,557.115 708.397,561.402C710.689,562.265 712.468,564.638 714.41,566.39C719.479,571.028 724.494,575.665 730.184,580.923C724.171,581.786 719.668,582.002 715.219,577.66L715.219,577.662ZM682.862,670.173C682.485,669.715 682.107,669.283 681.73,668.825C682.566,667.719 683.186,665.859 684.265,665.562C686.638,664.915 689.226,665.05 691.707,664.888L692.165,667.45C689.064,668.367 685.963,669.257 682.863,670.173L682.862,670.173ZM43.098,427.286C43.287,432.787 43.206,438.26 43.125,443.788C46.037,440.741 49.138,437.667 52.347,434.27C52.832,443.114 53.156,450.745 53.56,458.402C53.803,462.689 54.288,466.976 54.234,471.237C54.207,473.367 53.722,475.794 52.643,477.654C48.976,484.044 46.468,490.758 44.958,497.553C44.85,498.038 44.769,498.497 44.688,499.009L44.715,499.09C44.203,501.652 43.798,504.186 43.583,506.748L43.556,506.775C43.475,507.988 43.232,509.175 43.205,510.415C43.151,512.383 43.367,514.325 43.475,516.32C43.61,518.423 43.772,520.553 44.068,522.629C44.068,522.71 44.122,522.764 44.122,522.791C44.392,524.544 44.796,526.269 45.201,527.968C45.713,530.044 46.333,532.12 47.061,534.143C47.708,536.03 48.409,537.918 49.245,539.751C50,541.423 50.917,543.041 51.807,544.658C52.508,545.898 53.29,547.112 54.045,548.352C54.53,549.08 54.881,549.862 55.393,550.59C56.391,552.046 57.631,553.367 58.763,554.742C60.219,556.495 61.567,558.328 63.239,560C120.644,617.567 178.185,675.026 235.698,732.513C236.588,733.43 237.612,734.212 238.772,735.209C261.934,698.619 284.691,662.219 308.014,626.168C315.24,615.059 323.114,604.085 332.416,594.782C339.4,587.798 349.079,583.403 357.843,578.307C364.584,574.37 371.621,570.757 378.848,567.737C390.334,562.911 401.39,556.601 414.656,557.599C419.375,557.976 424.228,557.518 428.893,556.736C438.034,555.172 443.804,561.562 450.707,565.337C466.589,574.046 472.143,589.335 477.401,605.432C481.365,617.404 487.782,628.54 493.067,640.053C495.413,645.095 497.974,650.056 499.754,655.26C500.644,657.795 501.507,658.469 504.041,658.792C507.735,659.25 511.51,660.059 514.853,661.569C527.634,667.312 540.765,672.516 552.791,679.581C563.064,685.621 572.987,691.903 584.365,695.543C584.985,695.705 585.444,696.325 585.983,696.675C594.746,702.149 600.624,710.399 605.828,718.92C614.537,733.103 623.166,747.447 630.742,762.25C639.074,778.509 646.192,795.361 654.092,812.483C672.212,811.108 691.302,809.679 710.365,808.007C712.064,807.872 713.924,806.47 715.218,805.203C727.082,793.501 738.838,781.718 750.621,769.908C794.599,725.957 838.522,681.953 882.635,638.11C885.628,635.144 885.871,632.771 884.415,629.158C880.317,618.831 874.681,609.529 866.97,601.439C865.46,599.821 864.031,597.772 863.33,595.696C860.094,586.097 853.704,580.516 843.62,578.925C840.6,578.467 837.796,577.011 834.83,576.121C833.05,575.609 831.19,575.258 829.168,575.797C834.264,578.332 839.333,580.947 844.483,583.428C850.685,586.394 854.864,590.654 857.048,597.611C858.72,602.923 862.063,607.83 865.191,612.549C870.503,620.692 875.329,628.997 877.271,639.351L831.864,639.351C832.754,635.414 832.754,635.414 850.064,627.73C844.617,622.418 835.962,623.928 827.091,631.909C826.606,627.568 826.39,623.389 825.581,619.317C824.826,615.65 826.147,611.012 821.051,607.507C820.458,616.378 819.892,624.17 819.325,632.475C812.638,627.433 805.735,623.227 797.485,627.864C802.905,630.614 808.27,633.338 813.663,636.061C813.528,636.735 813.393,637.355 813.259,638.002L778.314,638.002C778.476,637.193 778.691,635.548 779.15,633.957C784.327,616.188 789.207,598.311 794.978,580.731C797.243,573.855 801.53,567.654 805.062,561.29C805.817,559.915 807.246,558.513 808.648,557.973C817.411,554.71 825.959,549.992 835.854,553.012C836.798,553.309 837.876,553.74 838.739,553.551C849.363,551.367 854.486,558.863 859.932,565.577C865.486,572.48 871.068,579.382 876.137,586.582C882.905,596.262 889.214,606.238 895.739,616.08C896.791,617.725 898.004,619.262 899.46,621.284C901.132,619.424 902.669,617.725 904.772,615.379C898.004,605.16 890.994,594.725 884.172,584.236C876.299,572.102 866.322,561.964 854.944,553.255C851.358,550.505 846.477,549.399 842.055,547.889C839.305,546.918 836.339,546.73 833.535,545.921C821.428,542.335 804.333,550.559 796.622,560.4C787.104,572.561 783.086,586.662 778.583,600.657C774.458,613.492 771.788,626.839 768.256,639.862C767.825,641.507 766.611,643.691 765.236,644.176C747.898,650.027 731.343,658.386 712.819,660.408C711.902,660.489 710.851,659.734 709.583,658.089C712.414,656.741 715.137,655.177 718.05,654.098C726.57,650.889 735.199,647.977 743.665,644.634C744.959,644.095 746.092,641.938 746.361,640.374C750.513,617.59 759.573,596.343 766.772,574.502C767.042,573.612 767.635,572.722 768.255,571.994C775.104,564.094 782.114,556.328 788.828,548.293C791.632,544.896 793.87,541.094 796.216,537.346C800.126,531.144 805.815,528.772 812.826,526.668C823.531,523.432 831.35,528.043 840.005,532.249C843.834,534.109 848.714,533.705 852.786,535.242C859.554,537.804 866.268,540.743 872.604,544.14C877.242,546.648 881.367,550.099 885.6,553.308C886.867,554.252 888.135,555.546 888.755,557.002C894.363,570.565 904.016,581.431 912.753,592.864C914.829,595.614 916.851,598.418 918.227,600.333C934.055,585.018 950.988,570.835 965.251,554.333C967.92,551.232 970.185,547.943 972.181,544.518C972.532,543.898 972.828,543.251 973.179,542.604C974.608,539.962 975.768,537.265 976.792,534.488C977.466,532.574 978.005,530.659 978.491,528.691C978.976,526.804 979.489,524.889 979.785,522.948C980.162,520.764 980.324,518.526 980.432,516.288C980.567,514.239 980.756,512.163 980.648,510.086C980.621,508.684 980.405,507.282 980.244,505.88C979.516,498.438 977.494,491.05 974.285,484.093C973.908,483.311 973.422,482.61 973.018,481.828C971.67,479.159 970.241,476.516 968.515,474.009C966.25,470.692 963.635,467.511 960.723,464.545C955.519,459.26 950.045,454.218 945.057,448.717C943.116,446.533 941.255,443.594 940.878,440.79C939.125,427.955 937.939,415.04 936.564,402.124C936.537,401.72 936.753,401.288 937.13,399.697C939.826,402.609 941.983,405.063 944.221,407.355C944.41,407.544 944.572,407.679 944.706,407.867C944.409,405.656 944.059,403.499 943.762,401.315C942.468,391.743 941.227,382.144 940.014,372.572C938.612,361.706 937.21,350.785 935.754,339.919C934.352,329.835 932.734,318.941 930.442,308.021C925.481,284.482 915.181,264.771 899.731,249.456C893.88,243.713 887.085,240.666 879.967,240.666L879.32,240.666L879.212,239.453C877.972,227.859 876.731,216.237 875.275,204.697L875.086,203.133C873.792,192.59 872.417,181.643 870.017,170.615C866.62,155.3 861.416,135.266 850.63,116.068C839.494,96.277 821.941,86.112 797.026,84.979C795.84,84.925 794.653,84.898 793.467,84.898C781.172,84.898 770.144,87.729 760.356,90.21L754.343,91.72C747.872,93.257 738.785,96.627 732.098,103.908C726.382,110.11 721.69,117.552 718.454,125.452L714.14,135.833C710.122,145.513 706.186,155.516 702.546,165.789C704.676,167.919 706.833,170.049 708.963,172.179C709.179,172.422 709.34,172.745 709.718,173.204C706.752,182.21 703.624,190.973 701.198,199.871C700.416,202.729 699.176,203.188 696.884,203.214L691.734,203.214C682.728,203.187 673.776,203.106 664.797,203.43C657.652,203.7 650.506,205.237 643.361,205.533C638.669,205.695 633.816,205.048 629.232,203.969C628.046,203.672 627.668,200.356 626.724,198.549C624.783,194.855 623.461,190.433 620.576,187.791C613.619,181.347 606.258,181.751 594.988,188.6C597.792,189.328 599.572,190.11 601.324,190.11C602.888,190.056 604.425,189.058 606.016,188.708C611.786,187.387 615.993,189.787 617.691,195.53C618.635,198.793 619.174,202.217 620.199,206.801C610.789,207.637 601.675,209.147 592.588,209.12C579.969,209.039 568.752,212.329 558.857,220.121C557.698,221.038 556.134,221.955 554.678,222.089C548.908,222.601 543.111,222.817 537.179,223.168C544.891,215.106 549.42,203.646 560.287,197.903C562.768,196.609 565.761,196.123 568.592,195.746C575.603,194.829 582.667,194.263 589.677,193.4C590.621,193.265 591.43,192.268 593.56,190.785C590.648,190.192 589.111,189.545 587.547,189.599C584.635,189.707 581.723,190.327 578.811,190.435C574.955,190.597 571.019,189.95 567.271,190.624C563.065,191.352 558.076,192.053 555.11,194.722C546.158,202.757 538.096,211.817 529.468,220.31C527.823,221.928 525.316,222.656 523.105,223.627C521.487,224.328 519.087,224.247 518.171,225.407C513.479,231.474 506.711,230.26 500.402,231.15C494.039,232.04 487.675,233.442 481.393,235.033C469.448,238.053 458.204,234.952 446.853,231.743C447.204,230.691 447.5,229.775 447.689,229.101C457.315,229.101 466.833,229.155 476.324,229.047C477.564,229.047 478.832,228.427 480.045,227.968C486.516,225.326 492.934,222.899 500.295,222.872C501.967,222.872 503.558,222.629 505.121,222.252C507.494,221.74 509.678,220.715 511.754,219.475C512.158,219.205 512.563,218.909 512.967,218.666C514.962,217.264 516.85,215.646 518.495,213.651C525.964,204.376 535.644,197.877 545.486,191.433C551.499,187.442 556.999,182.886 564.387,181.618C571.91,180.324 579.514,179.353 586.929,177.52C590.758,176.576 594.533,174.608 597.795,172.343C606.963,166.007 615.861,166.896 623.276,175.174C628.723,181.214 634.034,187.227 635.517,195.531C636.029,198.443 637.998,198.551 640.317,198.416C653.718,197.715 667.146,197.095 680.547,196.367C683.81,196.178 687.072,195.639 690.928,195.208C689.796,193.914 688.96,192.781 687.989,191.838C645.441,149.263 602.919,106.633 560.29,64.139C532.518,36.447 491.29,36.528 463.383,64.193C453.326,74.17 443.349,84.227 433.319,94.284C432.726,94.823 431.998,95.443 431.378,96.01C430.731,96.576 430.192,97.116 429.464,97.79C426.983,94.312 424.718,91.157 422.48,87.948C417.33,80.479 417.33,80.479 408.028,79.32C408.648,78.646 409.134,78.08 409.673,77.486C405.116,75.76 400.29,74.655 395.328,74.655C383.356,74.655 372.733,80.209 366.908,89.458L363.834,94.365C359.816,100.728 355.826,107.119 351.943,113.509C349.516,117.5 347.71,121.976 346.685,126.398L345.094,133.409C344.177,137.373 343.287,141.363 342.371,145.3C345.337,142.361 348.249,139.449 351.215,136.51C349.355,144.626 347.656,151.529 346.308,158.512C344.906,165.873 343.989,173.342 342.506,180.676C341.913,183.372 340.888,186.527 338.974,188.388C283.483,244.149 227.803,299.747 172.151,355.4C171.396,356.182 170.533,356.91 169.212,358.096C163.873,349.764 158.696,341.729 153.708,333.991C156.512,331.187 159.289,328.383 162.094,325.578C161.663,324.904 161.231,324.176 160.8,323.448C152.549,309.966 141.251,297.59 126.233,285.51C118.279,279.174 109.677,275.938 100.752,275.938C92.798,275.938 84.978,278.607 78.103,283.677L74.867,286.131C73.6,287.129 72.332,288.18 70.903,289.07C59.902,296.188 52.837,306.866 50.465,319.97C49.279,326.387 47.984,332.805 46.717,339.249C44.964,347.931 43.212,356.64 41.756,365.377C40.516,372.63 40.111,380.719 40.516,389.321C40.759,395.442 41.298,401.535 41.81,407.656C42.349,414.208 42.916,420.76 43.104,427.285L43.098,427.286Z" style="fill:rgb(69,28,21);fill-rule:nonzero;"/>
    </g>
</svg>
