<?xml version="1.0" encoding="UTF-8" standalone="no"?>
<!DOCTYPE svg PUBLIC "-//W3C//DTD SVG 1.1//EN" "http://www.w3.org/Graphics/SVG/1.1/DTD/svg11.dtd">
<svg width="100%" height="100%" viewBox="0 0 61 61" version="1.1" xmlns="http://www.w3.org/2000/svg" xmlns:xlink="http://www.w3.org/1999/xlink" xml:space="preserve" xmlns:serif="http://www.serif.com/" style="fill-rule:evenodd;clip-rule:evenodd;stroke-linejoin:round;stroke-miterlimit:2;">
    <g transform="matrix(0.058594,0,0,0.058594,0.000035,0.000015)">
        <path d="M511.96,1009.647C486.288,1009.647 462.174,999.658 444.021,981.532L42.429,579.94C4.995,542.48 4.995,481.522 42.429,444.116L444.048,42.497C462.201,24.344 486.288,14.355 511.96,14.355C537.605,14.355 561.692,24.344 579.845,42.497L981.464,444.116C999.617,462.242 1009.579,486.356 1009.579,512.028C1009.579,537.673 999.616,561.787 981.464,579.94L579.872,981.532C561.719,999.658 537.605,1009.647 511.96,1009.647Z" style="fill:rgb(232,203,158);fill-rule:nonzero;"/>
    </g>
    <g transform="matrix(0.058594,0,0,0.058594,0.000035,0.000015)">
        <path d="M511.919,14.436C487.304,14.435 462.71,23.798 444.025,42.483L42.444,444.104C5.055,481.493 5.055,542.503 42.444,579.892L444.025,981.513C462.722,1000.194 487.346,1009.559 511.958,1009.56C536.57,1009.561 561.143,1000.191 579.852,981.513L981.473,579.892C1018.833,542.501 1018.833,481.495 981.473,444.104L579.852,42.483C561.155,23.802 536.533,14.437 511.919,14.436Z" style="fill:rgb(232,203,158);fill-rule:nonzero;"/>
    </g>
    <g transform="matrix(0.058594,0,0,0.058594,0.000035,0.000015)">
        <path d="M1009.387,511.297C1009.171,508.088 1009.144,503.962 1008.632,499.89C1005.612,476.753 995.014,457.66 978.564,441.238C846.347,309.237 714.292,177.101 582.156,44.991C580.646,43.508 579.163,41.944 577.572,40.515C555.109,20.182 528.816,11.769 498.722,15.652C476.286,18.591 457.733,29 441.823,44.884C323.44,163.402 204.949,281.839 86.512,400.249C71.357,415.431 56.013,430.425 41.073,445.849C25.594,461.759 16.776,481.094 14.969,503.153C12.488,533.895 22.628,560.052 44.551,581.895C96.596,633.698 148.426,685.689 200.364,737.627C281.237,818.473 362.029,899.426 443.009,980.218C481.517,1018.645 541.545,1019.454 579.379,981.674C713.592,847.731 847.669,713.626 981.666,579.468C1000.084,560.996 1009.064,538.317 1009.388,511.297L1009.387,511.297ZM1024.029,512.672C1023.517,542.497 1013.081,568.709 991.696,590.12C858.265,723.685 724.727,857.143 591.216,990.627C566.946,1014.87 537.553,1026.061 503.413,1023.688C475.53,1021.719 451.934,1009.935 432.167,990.115C374.917,932.757 317.586,875.48 260.282,818.203C184.91,742.804 109.539,667.406 34.113,592.088C9.708,567.71 -1.968,538.425 0.27,504.096C2.05,476.347 13.43,452.671 33.088,433.012C85.942,380.158 138.797,327.276 191.678,274.422C271.85,194.25 352.048,114.106 432.193,33.907C456.571,9.502 485.91,-1.985 520.266,0.28C546.882,2.087 570.154,12.496 589.058,31.345C723.486,165.558 857.807,299.851 992.046,434.306C1013.43,455.664 1023.705,482.01 1024.028,512.671L1024.029,512.672Z" style="fill:rgb(69,28,21);fill-rule:nonzero;"/>
    </g>
    <g transform="matrix(0.058594,0,0,0.058594,0.000035,0.000015)">
        <path d="M621.635,334.668C608.61,329.787 595.45,324.852 582.021,319.836C587.576,312.663 592.942,305.679 598.632,298.236C586.335,301.229 576.223,307.081 566.461,313.688C564.816,314.794 562.362,315.279 560.34,315.117C545.67,313.85 531.027,311.881 516.331,311.045C507.162,310.533 497.94,311.476 488.717,311.989C483.566,312.286 478.416,312.96 472.564,313.553C474.479,327.98 476.339,342.084 478.2,356.052C479.279,356.241 479.764,356.456 480.222,356.43C495.431,355.756 510.64,354.327 525.822,354.65C537.013,354.893 548.258,356.834 559.261,359.153C568.645,361.122 577.706,364.546 586.821,367.647C593.536,369.885 600.142,372.636 606.399,375.009C611.657,361.121 616.7,347.719 621.635,334.667L621.635,334.668ZM515.359,169.849C516.249,168.743 517.139,167.8 517.921,166.748C522.182,160.95 520.806,153.157 515.548,148.546C505.948,140.132 494.541,139.054 482.703,139.566C472.833,139.997 462.181,138.73 455.494,148.6C452.716,152.726 449.939,156.987 448.078,161.571C445.489,168.07 451.665,170.227 455.089,173.625C455.467,173.976 455.79,174.38 456.195,174.677C463.746,180.232 472.186,182.497 481.598,181.446C486.101,180.961 491.117,179.828 495.081,181.311C500.474,183.28 505.355,187.055 509.94,190.722C520.106,198.839 527.765,210.03 540.008,215.747C541.491,216.421 542.543,218.039 544.889,220.223C541.653,220.412 539.927,220.574 538.201,220.627C522.453,221.005 506.704,221.031 490.956,221.84C481.626,222.298 472.403,223.943 463.1,224.995C461.644,225.13 460.107,224.752 458.597,224.617C458.975,222.81 458.948,220.707 459.918,219.278C461.105,217.417 463.127,216.123 465.527,213.912C462.588,213.076 460.484,212.213 458.327,211.916C453.931,211.269 449.482,211.134 445.113,210.487C434.219,208.95 423.486,209.489 413.427,214.074C406.47,217.229 402.425,223.485 402.263,230.847C402.101,237.697 406.847,242.874 413.05,245.49C418.686,247.89 424.861,248.915 430.713,250.829C431.9,251.207 433.248,252.582 433.571,253.795C435.405,260.402 436.861,267.143 438.668,273.777C442.362,287.314 446.192,300.824 450.425,315.899C409.22,317.76 372.06,331.486 336.437,347.396C340.967,360.96 345.309,374.147 349.839,387.226C350.756,389.869 352.724,391.109 355.691,389.275C359.925,386.74 364.105,384.097 368.581,382.129C394.118,370.857 420.707,363.01 448.483,359.531C452.798,359.019 457.112,358.264 460.915,357.724C460.43,347.746 459.944,338.389 459.54,329.059C459.324,324.744 460.187,320.16 459.136,316.088C453.176,293.112 446.812,270.272 440.529,247.404C439.073,242.146 441.608,238.667 446.974,238.694C451.504,238.721 453.554,241.579 454.282,245.355C455.199,250.209 458.3,250.344 461.914,249.4C467.361,247.971 470.597,244.034 473.564,239.503C475.613,236.348 475.883,231.332 481.33,231.116C494.328,230.631 507.299,230.064 520.297,229.39C527.12,229.039 533.403,229.741 537.852,235.916C538.742,237.156 540.495,237.885 541.951,238.586C554.248,244.6 567.138,243.629 579.947,241.31C584.45,240.474 589.17,238.721 592.891,236.078C601.385,230.091 601.79,220.653 594.536,213.48C587.174,206.118 577.979,202.532 567.893,200.968C562.661,200.213 557.457,199.647 552.225,198.999C553.142,203.368 553.843,206.765 554.571,210.19C553.87,210.568 553.142,210.972 552.468,211.35C544.89,205.714 537.502,199.862 529.762,194.55C518.436,186.784 509.591,175.539 495.946,171.008C494.22,170.442 492.494,167.314 492.386,165.291C492.332,164.158 495.568,161.92 497.375,161.866C500.476,161.704 503.847,162.405 506.651,163.727C509.833,165.237 512.557,167.799 515.361,169.848L515.359,169.849ZM789.34,326.713C780.603,348.151 776.612,369.428 789.232,390.705C803.47,389.033 809.727,389.923 814.904,399.011C805.034,401.869 794.679,403.784 785.295,407.937C775.857,412.09 765.879,413.492 756.198,416.189C746.814,418.832 740.746,424.333 736.135,432.558C732.872,438.356 729.232,444.154 724.782,449.062C719.254,455.156 711.811,454.563 704.827,450.329C688.485,440.432 673.95,427.65 655.91,420.477C643.263,415.407 630.804,410.014 618.4,404.486C615.11,403.003 612.413,400.306 609.42,398.149C601.249,392.108 591.865,388.98 582.13,386.419C572.638,383.911 563.496,379.758 553.896,378.086C528.413,373.61 502.686,370.589 476.799,372.072C465.635,372.692 454.686,376.414 443.522,377.573C429.472,379.029 416.528,384.099 403.45,388.441C390.182,392.89 377.508,399.255 364.888,405.403C355.18,410.149 345.283,414.895 336.627,421.205C322.982,431.183 309.687,441.834 297.283,453.349C281.858,467.668 273.552,486.329 270.397,506.959C267.997,522.492 266.379,538.24 271.53,553.935C266.568,551.077 260.258,540.802 259.395,534.088C257.022,515.131 258.101,496.362 263.548,478.025C267.188,465.782 273.984,455.265 283.126,446.609C297.661,432.775 312.708,419.508 327.675,406.132C330.453,403.624 333.689,401.656 336.277,399.795C334.497,394.914 332.771,390.572 331.315,386.15C327.836,375.417 325.409,364.199 320.717,354.06C318.128,348.532 311.764,344.703 307.126,340.145C296.933,330.086 286.604,320.163 276.627,309.915C274.254,307.515 274.658,304.171 277.355,301.636C281.022,298.184 286.793,297.699 291.027,300.557C293.157,302.04 295.18,303.658 298.038,305.789C301.274,298.616 304.456,291.847 307.288,284.971C308.448,282.14 309.661,280.629 313.032,280.09C318.938,279.119 324.709,277.124 330.506,275.425C331.477,275.128 332.151,274.077 333.284,273.133C325.706,272.594 318.722,272.054 311.333,271.542C311.333,256.279 313.059,240.369 293.535,233.87C295.584,231.713 296.609,230.526 297.742,229.394C352.808,174.301 407.846,119.182 462.993,64.17C488.584,38.606 525.475,35.882 553.223,57.24C556.243,59.532 558.967,62.202 561.664,64.872C619.319,122.473 676.973,180.127 734.601,237.809C735.734,238.915 736.812,240.128 738.188,241.611C729.127,250.861 720.12,259.759 711.464,269.009C698.763,282.6 686.466,296.569 673.711,310.16C663.14,321.405 651.787,331.949 641.648,343.599C637.522,348.318 635.446,354.952 632.911,360.885C630.592,366.305 628.92,371.941 626.897,377.496C625.549,381.19 625.198,384.885 629.027,387.096C637.495,391.923 646.178,396.399 654.807,401.011C656.263,401.766 657.881,402.198 659.283,402.98C669.126,408.508 678.942,414.09 688.811,419.618C697.009,424.229 705.288,428.76 713.027,433.02C719.337,424.094 725.782,415.06 732.443,405.676C710.816,383.267 683.957,368.624 654.725,355.68C656.694,353.172 658.231,350.826 660.118,348.83C673.79,334.538 687.732,320.488 701.215,306.007C717.449,288.506 733.278,270.627 749.054,253.18C768.227,272.353 787.454,291.58 806.843,310.996C804.928,314.744 801.854,315.472 797.297,314.717C787.589,313.126 777.773,312.344 767.984,311.238L767.418,313.368C774.699,317.817 782.007,322.267 789.342,326.716L789.34,326.713Z" style="fill:rgb(69,28,21);fill-rule:nonzero;"/>
    </g>
    <g transform="matrix(0.058594,0,0,0.058594,0.000035,0.000015)">
        <path d="M273.385,719.139L344.846,719.139C346.491,722.321 344.603,723.211 342.257,724.128C336.19,726.474 330.257,728.982 324.432,732.029C332.091,735.103 339.857,734.402 347.354,733.566C352.208,733.054 355.309,733.997 357.925,738.366C352.073,743.112 346.195,747.939 340.316,752.766C340.505,753.144 340.72,753.548 340.909,753.953C350.105,751.634 359.273,749.207 368.496,746.942C369.952,746.591 371.678,746.564 373.053,746.996C392.253,753.198 411.75,754.142 431.409,750.367C439.068,748.911 445.513,744.839 448.425,736.884C449.665,733.513 451.715,731.895 455.679,731.652C479.814,730.169 503.922,728.443 528.003,726.528C544.372,725.234 560.686,723.589 577.028,722.025C581.747,721.567 586.439,720.623 591.158,720.38C592.776,720.299 594.825,721.297 596.093,722.483C604.884,730.654 615.104,735.211 627.239,735.049C628.399,735.049 629.72,735.292 630.664,734.806C636.812,731.597 639.239,735.291 641.505,740.091C647.896,753.79 654.422,767.435 661.056,781.377C660.247,781.943 659.546,782.564 658.764,783.049C647.384,790.141 644.472,801.305 644.849,813.575C644.957,817.027 646.683,821.341 649.164,823.687C656.067,830.186 663.726,835.903 671.196,841.755C672.49,842.78 674.486,842.942 676.697,843.67C675.51,845.045 674.54,846.286 673.434,847.364C635.87,884.928 598.386,922.574 560.714,960.057C532.507,988.156 491.248,988.102 463.068,959.949C395.813,892.775 328.694,825.494 261.331,758.455C257.421,754.599 257.502,751.713 259.632,747.507C264.108,738.608 268.342,729.601 273.385,719.138L273.385,719.139Z" style="fill:rgb(69,28,21);fill-rule:nonzero;"/>
    </g>
    <g transform="matrix(0.058594,0,0,0.058594,0.000035,0.000015)">
        <path d="M306.797,359.755C299.192,365.445 290.941,370.461 284.091,376.96C271.363,389.068 258.203,400.933 248.792,416.008C246.985,418.893 245.34,419.541 242.077,419.19C233.987,418.327 225.816,418.057 217.672,417.545C217.51,418.084 217.294,418.597 217.133,419.163C224.171,422.588 231.237,425.986 237.061,428.817C234.176,440.574 231.344,451.55 228.863,462.633C228.027,466.3 228.324,470.184 227.596,473.851C227.353,475.118 225.708,476.79 224.441,477.06C208.962,480.404 193.483,483.532 177.978,486.633C175.389,487.145 172.746,487.361 170.185,488.79L226.95,488.79C227.948,495.127 229.134,501.033 229.808,506.992C230.401,512.628 232.343,517.617 234.5,522.848C239.381,534.659 248.415,543.423 255.75,553.266C263.112,563.136 272.361,571.576 280.424,580.88C283.984,584.979 286.896,584.413 290.752,581.554C295.903,577.752 299.921,578.372 304.748,583.226C298.815,589.968 293.071,596.871 286.923,603.424C275.22,615.963 263.327,628.287 251.489,640.692C248.091,644.279 244.613,647.811 241.296,651.479C240.541,652.315 240.002,653.528 239.759,654.688C237.17,665.448 234.878,676.288 232.074,687.021C230.834,691.848 224.254,693.358 220.829,689.879C219.939,688.989 219.4,687.101 219.642,685.834C221.826,673.753 224.334,661.726 226.357,649.618C226.627,648.135 225.009,645.384 223.606,644.791C216.837,641.906 210.015,639.128 202.977,637.106C192.622,634.14 182.159,631.308 171.588,629.394C158.752,627.048 145.808,624.459 132.594,627.048C131.461,627.264 129.709,626.59 128.846,625.727C105.628,602.482 81.924,579.749 59.434,555.83C37.079,531.965 37.645,492.459 59.38,468.027C63.668,463.227 68.333,458.804 72.89,454.247C111.965,415.145 151.066,376.098 190.114,336.915C192.73,334.272 195.238,333.409 199.094,333.382C217.323,333.166 235.688,333.463 253.539,329.013C258.878,327.638 263.813,324.806 269.045,323.026C270.42,322.568 272.928,322.891 273.818,323.835C284.928,335.7 295.823,347.754 306.798,359.754L306.797,359.755Z" style="fill:rgb(69,28,21);fill-rule:nonzero;"/>
    </g>
    <g transform="matrix(0.058594,0,0,0.058594,0.000035,0.000015)">
        <path d="M694.377,642.594C685.02,633.425 675.716,624.257 665.981,614.657C671.671,611.879 677.118,609.695 682.026,606.648C696.21,597.722 710.206,588.473 724.283,579.412C725.281,578.792 726.764,578.145 727.708,578.495C744.535,584.374 761.335,590.414 778.135,596.428C778.27,596.455 778.351,596.671 778.728,597.075C775.114,609.83 770.018,622.235 771.825,636.5C773.74,651.332 782.234,660.824 793.29,669.507C787.708,677.004 782.369,684.177 776.166,692.509C778.917,692.347 780.265,692.671 781.209,692.185C788.463,688.383 795.717,684.607 802.755,680.428C805.371,678.891 807.204,678.972 809.928,680.185C816.858,683.313 824.058,685.929 830.045,688.329L732.588,785.786C720.642,772.222 703.464,769.876 685.262,770.523C686.826,777.346 688.525,783.925 689.765,790.613C690.196,793.067 690.331,796.33 689.064,798.11C687.554,800.24 684.318,802.263 681.972,802.128C679.95,801.993 676.794,798.946 676.471,796.816C672.965,776.025 660.669,759.144 651.931,740.699C649.477,735.521 646.511,730.56 644.03,725.382C642.223,721.634 646.376,717.777 651.338,718.64C657.19,719.665 661.558,722.874 664.552,729.346C667.222,726.973 670.134,725.274 671.833,722.766C676.363,716.024 681.514,709.445 681.73,700.599C681.757,699.412 683.726,697.794 685.155,697.12C697.02,691.484 709.02,686.118 720.886,680.509C726.468,677.866 731.834,674.792 737.093,671.071C734.315,671.826 731.565,672.743 728.733,673.282C713.065,676.275 697.317,678.891 681.676,682.208C674.988,683.61 671.267,678.891 666.817,676.141C654.143,668.294 640.579,666.703 626.286,669.157C620.704,670.128 615.23,671.854 609.729,673.337C597.324,676.762 591.419,685.715 588.965,698.2C597.028,697.607 604.201,699.926 610.161,705.265C611.321,706.29 612.723,708.609 612.291,709.526C611.644,710.901 609.567,712.411 607.976,712.492C593.495,713.463 579.014,714.029 564.533,714.838C547.625,715.809 530.717,716.645 513.863,718.047C502.429,718.991 491.13,720.986 479.75,722.011C475.247,722.415 470.608,721.175 466.051,721.256C461.17,721.364 456.262,722.092 451.354,722.55C446.176,723.035 443.857,727.431 440.298,730.235C438.222,731.853 435.282,732.77 432.613,733.093C431.588,733.201 429.674,730.99 429.134,729.479C424.631,717.533 414.168,714.081 403.408,711.304C398.716,710.117 396.019,708.149 396.37,703.241C396.936,695.394 397.88,687.573 398.77,678.944C396.1,679.295 393.592,679.51 391.111,679.996C379.974,682.018 369.187,685.012 359.803,691.834C354.598,695.636 350.58,700.302 349.016,706.558C348.234,709.659 346.832,710.522 343.946,710.333C333.941,709.551 323.937,708.391 313.932,708.257C302.229,708.068 290.525,708.823 278.822,709.174C277.204,709.228 275.559,709.174 273.86,709.174C276.638,690.217 269.168,675.574 256.332,662.576C259.514,659.205 262.75,655.78 265.986,652.275C280.952,636.041 296,619.861 310.858,603.492C313.285,600.849 315.119,600.687 318.193,602.279C343.892,615.708 371.047,625.066 399.228,631.592C402.707,632.401 406.293,632.805 408.478,633.183C412.118,630.432 414.815,627.763 418.051,626.091C421.853,624.122 425.278,626.495 427.624,629.273C428.73,630.54 429.35,633.857 428.46,635.017C423.202,642.244 422.096,650.9 419.939,659.125C416.433,672.312 413.548,685.66 410.582,698.307C416.434,701.705 421.18,703.997 425.333,707.071C429.351,710.037 432.749,713.813 435.634,716.536C441.432,713.812 446.825,711.304 452.974,708.419C452.57,707.61 452.03,705.426 450.682,704.266C443.725,698.522 436.713,692.832 429.405,687.574C426.816,685.74 426.412,683.88 426.978,681.426C429.836,668.671 432.776,655.97 435.715,643.268C436.524,639.735 437.603,638.036 442.322,639.034C451.383,641.03 460.767,641.623 469.99,642.755C472.579,643.079 475.168,643.672 477.783,643.753C483.284,643.888 488.785,643.645 494.314,643.807C502.835,644.023 511.411,645.209 519.878,644.724C535.761,643.834 551.672,642.567 567.42,640.517C585.542,638.144 603.609,635.232 621.542,631.672C630.765,629.838 639.556,625.928 648.67,623.312C650.854,622.719 653.848,623.042 655.816,624.121C663.717,628.544 671.214,633.586 679.115,638.009C683.591,640.517 688.499,642.189 693.192,644.238C693.596,643.699 693.974,643.132 694.379,642.593L694.377,642.594Z" style="fill:rgb(69,28,21);fill-rule:nonzero;"/>
    </g>
    <g transform="matrix(0.058594,0,0,0.058594,0.000035,0.000015)">
        <path d="M796.337,510.377C785.55,507.411 774.737,504.444 762.952,501.208C765.244,478.313 761.55,455.715 749.577,434.061C759.878,431.526 768.993,429.099 778.215,427.077C789.676,424.596 801.191,422.385 812.705,420.174C814.134,419.904 816.157,419.931 817.235,420.74C834.143,433.522 854.314,438.592 874.054,444.551C887.349,448.542 900.643,452.884 914.234,455.634C924.913,457.764 936.05,458.331 947.025,458.412C953.389,458.466 957.623,460.434 961.938,464.938C985.669,489.936 987.88,529.118 965.498,554.602C954.334,567.33 941.228,578.306 928.527,590.575C927.907,590.063 926.397,588.93 925.021,587.609C914.45,577.47 902.369,569.434 888.346,565.496C878.8,562.826 869.119,558.781 858.683,560.264C846.791,561.936 834.764,562.718 823.707,568.489C817.666,571.617 810.952,573.613 804.615,576.228C803.294,576.767 802.161,577.738 802.188,577.738C802.781,582.7 804.157,586.88 803.482,590.682C802.673,595.158 797.361,596.696 793.612,594.053C778.834,583.59 762.304,577.361 744.964,572.615C738.249,570.754 731.912,567.572 725.359,565.064C724.631,564.794 723.795,564.579 723.04,564.552C719.157,564.39 718.375,562.826 719.669,559.078C722.123,551.905 734.042,545.163 742.321,548.13C743.858,548.696 745.449,549.101 747.579,549.721C753.97,538.827 759.957,527.662 761.44,514.799C773.17,513.963 784.685,513.154 796.2,512.318C796.254,511.671 796.281,511.024 796.335,510.376L796.337,510.377Z" style="fill:rgb(69,28,21);fill-rule:nonzero;"/>
    </g>
    <g transform="matrix(0.058594,0,0,0.058594,0.000035,0.000015)">
        <path d="M436.326,526.104C440.829,526.104 444.443,522.194 444.335,517.448C444.254,514.05 437.998,507.713 435.571,509.277C432.119,511.596 429.342,515.506 427.508,519.362C426.348,521.681 432.578,526.104 436.326,526.104ZM386.437,504.746C386.922,500.647 384.846,498.463 381.017,498.112C375.678,497.654 370.554,502.508 370.311,507.928C370.149,511.811 373.304,515.802 376.675,515.829C381.394,515.883 386.113,510.544 386.437,504.746ZM481.306,552.181C469.899,544.199 457.872,540.99 445.198,539.695C443.095,539.479 440.802,539.264 438.834,539.857C432.928,541.745 427.886,539.803 422.843,537.079C404.587,527.02 380.047,530.634 364.46,544.711C354.375,553.826 347.471,564.585 343.21,577.314C342.967,578.042 342.428,578.662 341.943,579.552C332.801,573.377 323.633,567.768 315.246,561.107C313.466,559.651 313.466,554.204 314.491,551.264C318.105,541.259 323.147,531.929 333.395,527.075C340.541,523.704 344.505,517.448 348.281,511.192C355.778,498.733 367.454,492.693 380.857,489.376C387.922,487.65 395.203,485.331 402.565,488.216C405.235,489.268 407.958,490.697 409.981,492.665C418.799,501.24 429.397,502.103 440.75,500.809C447.087,500.081 453.694,498.598 459.788,499.676C473.945,502.184 479.231,508.818 481.119,525.672C482.09,534.059 481.308,542.661 481.308,552.18L481.306,552.181Z" style="fill:rgb(69,28,21);fill-rule:nonzero;"/>
    </g>
    <g transform="matrix(0.058594,0,0,0.058594,0.000035,0.000015)">
        <path d="M526.982,475.914C527.036,472.354 522.829,468.768 518.488,468.633C513.877,468.525 509.562,472.759 509.589,477.397C509.589,481.199 513.526,484.759 517.841,484.894C522.857,484.975 526.902,481.011 526.983,475.914L526.982,475.914ZM581.643,458.439C578.461,460.65 574.524,462.295 572.205,465.235C570.533,467.338 569.104,470.925 572.232,474.188C575.468,477.532 578.785,478.853 583.207,477.208C586.794,475.887 592.025,468.848 591.081,465.585C589.921,461.567 586.497,459.895 581.643,458.439ZM581.266,505.065C577.895,501.425 574.74,496.436 570.237,493.442C558.48,485.73 545.832,484.624 533.077,491.285C523.261,496.436 513.445,501.182 502.038,501.344C499.018,501.398 497.4,500.427 495.89,497.704C493.787,493.848 491.225,490.045 488.097,487.025C484.591,483.681 483.216,480.202 485.589,476.157C489.823,468.903 490.362,459.626 498.452,454.395C506.299,449.325 514.362,447.977 522.749,451.941C536.205,458.359 549.473,456.957 562.713,451.698C570.614,448.597 578.569,446.844 587.064,446.601C593.482,446.466 598.741,449.001 600.979,454.179C606.184,466.125 616.269,470.79 627.487,474.161C635.496,476.588 642.426,480.417 648.116,486.62C652.997,491.959 653.509,498.566 651.945,504.688C650.435,510.836 645.095,513.991 638.677,515.798C631.234,517.874 625.841,515.987 621.526,509.919C616.51,502.989 608.717,502.719 601.436,502.611C594.856,502.476 588.249,504.121 581.265,505.065L581.266,505.065Z" style="fill:rgb(69,28,21);fill-rule:nonzero;"/>
    </g>
    <g transform="matrix(0.058594,0,0,0.058594,0.000035,0.000015)">
        <path d="M401.032,580.417C401.167,580.093 401.329,579.77 401.463,579.473C402.299,579.473 403.135,579.554 403.944,579.446C410.308,578.718 415.108,572.057 413.976,565.531C413.248,561.243 407.207,558.061 401.652,559.248C399.791,559.652 398.065,561.136 396.232,561.244C391.054,561.433 390.111,565.451 389.625,568.956C389.355,571.248 390.488,574.538 392.214,576.021C394.56,578.124 398.039,579.014 401.032,580.417ZM479.127,558.278C477.752,565.154 474.273,569.847 467.693,572.004C457.769,575.267 451.702,583.114 448.655,592.013C445.77,600.561 440.322,601.856 433.122,602.665C415.27,604.687 397.769,603.231 380.456,598.566C376.384,597.433 371.692,598.135 367.917,596.517C361.364,593.659 355.27,589.748 349.121,586.027C348.339,585.569 347.988,583.519 348.285,582.413C353.193,565.424 362.955,551.509 378.38,543.123C391,536.247 405.158,534.871 418.56,541.802C426.057,545.658 433.176,546.683 441.616,546.278C455.234,545.631 468.151,549.73 479.126,558.278L479.127,558.278Z" style="fill:rgb(69,28,21);fill-rule:nonzero;"/>
    </g>
    <g transform="matrix(0.058594,0,0,0.058594,0.000035,0.000015)">
        <path d="M581.384,580.978C581.546,576.987 577.959,573.4 573.725,573.266C568.952,573.185 563.478,578.929 563.208,584.403C563.019,588.151 566.66,591.9 570.543,591.954C576.449,592.035 581.114,587.289 581.384,580.979L581.384,580.978ZM479.154,604.978C487.217,590.767 499.514,583.486 514.615,579.36C525.321,576.475 535.784,572.403 545.869,567.872C551.613,565.31 556.467,560.753 561.725,557.139C563.073,556.222 564.476,554.793 565.905,554.766C577.689,554.362 589.555,553.229 599.586,561.993C607.191,568.627 616.251,568.492 625.609,566.011C632.485,564.15 640.009,561.966 645.322,568.492C648.639,572.564 650.311,578.092 652.198,583.162C652.522,584.079 650.553,586.749 649.205,587.207C634.185,592.277 619.056,596.807 603.119,598.29C591.712,599.369 580.467,601.607 569.087,603.009C561.914,603.872 554.66,604.142 547.46,604.762C534.246,605.868 521.06,607.324 507.819,608.187C498.219,608.78 488.565,608.403 479.154,604.978Z" style="fill:rgb(69,28,21);fill-rule:nonzero;"/>
    </g>
    <g transform="matrix(0.058594,0,0,0.058594,0.000035,0.000015)">
        <path d="M441.808,462.43C446.716,462.484 450.68,458.709 450.734,453.989C450.734,450.618 446.662,447.032 442.671,446.87C438.626,446.735 433.934,451.427 433.772,455.796C433.637,458.439 438.437,462.403 441.808,462.43ZM362.391,467.985C358.912,457.603 364.629,441.8 374.823,436.03C376.872,434.843 379.461,433.738 381.726,433.9C394.238,434.817 406.724,436.165 419.236,437.352C422.014,437.622 424.791,437.945 427.542,437.81C428.459,437.783 429.591,436.677 430.104,435.788C433.637,429.208 438.005,423.869 445.933,422.251C452.971,420.795 462.814,424.867 466.05,431.312C468.18,435.546 470.068,439.887 472.252,444.553C461.978,454.288 459.686,467.205 459.362,480.445C450.841,480.93 442.535,481.497 434.229,481.793C432.746,481.847 430.885,481.065 429.806,480.04C420.422,470.925 410.093,464.211 396.26,465.37C385.177,466.314 374.093,467.096 362.39,467.986L362.391,467.985Z" style="fill:rgb(69,28,21);fill-rule:nonzero;"/>
    </g>
    <g transform="matrix(0.058594,0,0,0.058594,0.000035,0.000015)">
        <path d="M658.352,552.415C662.316,552.361 666.388,547.777 666.469,543.354C666.496,540.01 660.455,536.316 654.819,536.235C652.014,536.181 647.673,541.143 647.592,544.514C647.538,547.588 654.172,552.469 658.352,552.415ZM658.891,582.914C658.702,571.669 652.662,563.957 642.981,559.615C638.963,557.862 633.678,558.294 629.066,558.59C624.536,558.914 620.086,561.152 615.664,561.044C611.619,560.963 606.846,559.804 603.799,557.377C594.172,549.772 583.466,547.13 571.547,548.154C570.954,548.208 570.334,547.965 568.931,547.75C575.214,539.498 579.421,529.602 590.666,528.199C595.439,527.633 600.994,528.496 605.255,530.599C612.725,534.266 619.952,534.213 626.397,530.329C635.62,524.747 646.002,524.288 655.952,522.266C663.988,520.648 673.076,527.147 676.096,535.021C678.334,540.9 682.838,546.131 681.732,553.089C681.57,554.06 681.867,555.192 681.489,556.028C676.716,567.165 671.97,578.329 658.891,582.914Z" style="fill:rgb(69,28,21);fill-rule:nonzero;"/>
    </g>
    <g transform="matrix(0.058594,0,0,0.058594,0.000035,0.000015)">
        <path d="M689.698,508.969C694.201,508.969 697.923,504.088 697.977,498.101C698.004,494.487 693.905,490.308 690.48,490.416C686.786,490.551 681.824,496.996 681.743,501.769C681.716,505.14 685.923,508.969 689.698,508.969ZM658.66,511.45C664.997,498.263 661.357,482.407 647.927,473.131C652.538,461.859 658.444,458.111 667.532,462.237C671.28,463.936 674.031,468.412 676.539,472.08C678.103,474.372 679.37,474.965 682.04,474.588C691.748,473.186 701.402,473.59 710.813,476.422C712.997,477.096 714.993,479.038 716.611,480.818C723.919,488.8 726.4,498.4 725.456,509.025C725.375,509.699 725.294,510.4 724.971,510.94C719.308,520.19 711.515,526.904 700.917,529.763C697.169,530.788 694.202,529.439 691.263,526.069C684.198,517.952 675.164,512.774 664.027,512.127C662.436,511.992 660.818,511.749 658.661,511.453L658.66,511.45Z" style="fill:rgb(69,28,21);fill-rule:nonzero;"/>
    </g>
    <g transform="matrix(0.058594,0,0,0.058594,0.000035,0.000015)">
        <path d="M502.013,558.205C509.941,541.378 506.328,524.793 501.366,507.912C515.281,507.777 526.903,502.33 538.418,496.128C548.719,490.6 569.376,493.243 575.093,509.288C562.419,513.441 556.216,524.875 547.965,533.962C541.25,541.378 533.268,546.205 523.992,549.576C519.731,551.113 515.983,553.999 511.884,556.075C509.241,557.396 506.41,558.34 503.659,559.446C503.12,559.042 502.553,558.61 502.014,558.206L502.013,558.205Z" style="fill:rgb(69,28,21);fill-rule:nonzero;"/>
    </g>
    <g transform="matrix(0.058594,0,0,0.058594,0.000035,0.000015)">
        <path d="M581.074,420.22C567.833,423.672 556.049,426.908 544.184,429.712C541.218,430.413 537.469,430.494 534.8,429.308C527.034,425.91 519.159,423.106 510.692,424.103C503.654,424.939 496.723,426.8 488.876,428.391C484.993,423.321 480.112,417.173 475.635,410.755C474.826,409.568 475.284,406.926 476.039,405.389C480.839,395.816 490.035,392.715 499.527,390.207C500.606,389.937 501.819,390.018 502.844,389.533C511.392,385.542 519.941,386.675 526.871,392.176C532.588,396.733 537.334,402.909 541.325,409.138C546.395,417.093 545.882,417.417 554.377,414.019C560.714,411.457 567.321,411.026 573.523,413.507C576.462,414.694 578.593,417.903 581.074,420.222L581.074,420.22Z" style="fill:rgb(69,28,21);fill-rule:nonzero;"/>
    </g>
    <g transform="matrix(0.058594,0,0,0.058594,0.000035,0.000015)">
        <path d="M484.216,565.48C485.726,559.251 487.101,554.855 487.803,550.352C490.257,534.199 486.185,519.098 479.255,504.752C476.774,499.655 471.92,496.123 465.394,495.799C458.544,495.475 451.695,494.208 444.819,493.965C439.776,493.749 434.707,494.477 429.664,494.963C423.597,495.556 418.473,493.102 414.482,489.111C406.716,481.318 397.736,478.945 387.462,481.911C378.401,484.527 369.044,486.927 360.819,491.322C354.563,494.639 349.196,500.356 344.801,506.073C339.785,512.518 335.228,518.855 327.704,522.63C318.104,527.43 313.681,536.599 309.421,545.767C308.774,547.196 308.127,548.625 307.399,550.27C302.302,541.344 303.57,531.313 310.689,524.652C315.219,520.391 320.181,516.562 324.793,512.328C326.708,510.602 328.595,508.634 329.89,506.422C336.2,495.662 344.749,486.871 355.535,481.154C362.304,477.514 370.663,476.651 378.43,475.033C382.691,474.17 387.248,474.629 391.617,473.981C403.401,472.147 412.813,476.92 420.795,484.822C424.732,488.678 428.265,490.431 434.197,489.676C442.772,488.516 451.563,489.002 460.274,489.325C465.856,489.514 471.6,487.303 476.966,490.296C479.501,491.671 482.737,492.831 484.058,495.042C491.986,508.417 498.296,522.683 497.622,538.566C497.325,546.171 494.413,553.802 491.905,561.164C491.285,562.944 487.617,563.672 484.22,565.479L484.216,565.48Z" style="fill:rgb(69,28,21);fill-rule:nonzero;"/>
    </g>
    <g transform="matrix(0.058594,0,0,0.058594,0.000035,0.000015)">
        <path d="M629.506,468.172C625.083,466.581 621.065,465.637 617.533,463.669C614.863,462.159 612.625,459.57 610.576,457.116C607.879,453.826 605.857,449.97 603.025,446.815C595.582,438.536 585.685,439.561 576.301,441.206C567.86,442.689 559.717,445.925 551.384,448.217C542.755,450.563 534.179,450.536 525.955,446.545C507.537,437.592 487.42,449.484 481.433,467.282C480.516,469.871 479.842,472.567 479.249,475.264C478.44,479.066 477.092,478.904 474.395,476.585C470.161,473.025 470.916,468.306 471.914,464.261C472.858,460.324 475.069,456.333 477.739,453.286C481.838,448.594 486.503,444.279 491.438,440.477C501.281,432.926 512.175,429.178 524.283,434.787C536.472,440.423 548.175,438.481 560.472,434.706C574.279,430.472 588.571,427.937 602.783,433.762C610.307,436.809 618.316,439.074 625.084,443.308C633.605,448.647 634.414,453.259 631.556,462.724C631.044,464.396 630.316,466.041 629.507,468.171L629.506,468.172Z" style="fill:rgb(69,28,21);fill-rule:nonzero;"/>
    </g>
    <g transform="matrix(0.058594,0,0,0.058594,0.000035,0.000015)">
        <path d="M833.716,667.649C838.732,667.649 841.617,664.764 841.644,659.775C841.671,656.161 837.437,652.899 833.257,652.494C828.915,652.036 826.947,656.431 826.354,661.609C825.95,665.061 829.482,667.65 833.716,667.65L833.716,667.649ZM865.941,654.974C858.067,662.848 850.921,670.129 843.586,677.194C842.399,678.354 840.485,679.082 838.813,679.297C823.496,681.266 813.41,672.636 804.538,661.904C803.271,660.367 802.704,657.967 802.596,655.917C801.922,644.402 801.787,632.888 807.935,622.478C808.771,621.049 810.497,619.026 811.522,619.215C813.167,619.458 814.812,621.103 816.025,622.532C816.942,623.557 817.238,625.148 817.751,626.496C821.823,636.986 830.911,639.494 840.673,641.867C849.815,644.078 858.768,647.422 865.941,654.973L865.941,654.974Z" style="fill:rgb(69,28,21);fill-rule:nonzero;"/>
    </g>
    <g transform="matrix(0.058594,0,0,0.058594,0.000035,0.000015)">
        <path d="M623.158,524.85C617.117,526.98 612.102,527.331 606.627,524.257C593.818,517.003 579.121,521.587 569.764,534.855C565.315,541.138 560.946,547.691 555.499,553.03C543.876,564.383 528.667,569.48 513.377,573.039C496.226,577.03 483.013,585.525 473.844,600.491C471.201,604.698 467.021,602.082 464.379,601.219C461.17,600.14 459.282,595.826 461.736,592.751C465.619,587.978 469.799,582.719 475.057,579.942C482.931,575.816 491.668,573.092 500.325,570.827C525.943,564.166 548.325,552.705 563.939,530.431C571.328,519.86 593.683,510.476 605.144,513.145C606.546,513.442 607.949,514.062 609.108,514.844C613.665,517.972 618.115,521.235 623.158,524.849L623.158,524.85Z" style="fill:rgb(69,28,21);fill-rule:nonzero;"/>
    </g>
    <g transform="matrix(0.058594,0,0,0.058594,0.000035,0.000015)">
        <path d="M339.119,480.668C334.589,486.924 330.436,493.1 325.851,498.924C323.316,502.187 320.08,504.938 317.168,507.958C311.262,514.106 305.33,520.228 299.478,526.43C297.267,528.749 295.217,531.257 292.925,533.9C287.801,522.143 291.172,504.183 303.819,491.994C313.042,483.149 331.352,475.652 339.118,480.668L339.119,480.668Z" style="fill:rgb(69,28,21);fill-rule:nonzero;"/>
    </g>
    <g transform="matrix(0.058594,0,0,0.058594,0.000035,0.000015)">
        <path d="M876.892,644.174C874.141,646.466 872.416,647.922 870.582,649.486C860.254,640.506 847.391,636.407 834.204,632.848C831.507,632.12 828.865,629.882 827.058,627.67C825.17,625.297 823.984,622.223 823.067,619.256C821.8,615.211 819.804,612.002 815.408,611.274C810.311,610.438 806.671,612.299 803.246,616.667C796.99,624.73 795.48,633.818 795.048,643.418C794.913,646.492 795.021,649.539 795.021,652.56C794.347,652.749 793.727,652.884 793.052,653.072C791.65,648.892 789.358,644.874 789.007,640.613C787.82,627.076 790.22,614.348 801.304,604.99C810.284,597.412 823.497,600.001 827.273,611.057C831.749,624.217 842.239,629.125 853.35,633.952C860.82,637.242 868.343,640.478 876.892,644.172L876.892,644.174Z" style="fill:rgb(69,28,21);fill-rule:nonzero;"/>
    </g>
    <g transform="matrix(0.058594,0,0,0.058594,0.000035,0.000015)">
        <path d="M834.522,605.704C836.005,603.52 837.273,600.095 839.673,598.234C857.552,584.643 855.502,588.418 872.491,595.807C874.379,596.616 876.078,598.126 877.615,599.528C880.446,602.063 879.476,606.593 875.781,606.836C865.48,607.456 860.033,613.605 856.311,622.234C855.071,625.146 852.859,626.252 849.974,624.445C845.605,621.721 840.832,619.267 837.165,615.708C835.331,613.928 835.52,609.964 834.522,605.703L834.522,605.704Z" style="fill:rgb(69,28,21);fill-rule:nonzero;"/>
    </g>
    <g transform="matrix(0.058594,0,0,0.058594,0.000035,0.000015)">
        <path d="M347.829,476.289C337.797,469.332 327.631,470.815 316.035,474.941C317.087,467.849 316.736,461.188 319.271,455.957C321.159,451.966 326.417,448.514 330.894,447.112C338.633,444.766 346.454,445.683 352.656,452.182C356.593,456.335 359.02,465.261 356.081,469.953C354.382,472.623 350.769,474.106 347.829,476.29L347.829,476.289Z" style="fill:rgb(69,28,21);fill-rule:nonzero;"/>
    </g>
    <g transform="matrix(0.058594,0,0,0.058594,0.000035,0.000015)">
        <path d="M284.952,533.555C278.318,530.777 274.732,522.849 276.781,513.654C278.803,504.62 280.961,495.479 284.251,486.849C288.296,476.332 296.197,469.59 307.847,467.811C308.278,471.128 308.764,474.337 309.222,477.681C289.375,490.976 278.939,508.666 284.952,533.556L284.952,533.555Z" style="fill:rgb(69,28,21);fill-rule:nonzero;"/>
    </g>
    <g transform="matrix(0.058594,0,0,0.058594,0.000035,0.000015)">
        <path d="M690.065,467.147C684.86,468.334 681.355,467.525 678.119,462.859C672.375,454.634 662.748,452.962 654.55,455.47C650.235,456.791 647.242,459.623 645.516,463.83C644.734,465.772 643.709,467.578 642.792,469.385C636.751,469.115 638.45,464.801 639.205,461.996C643.034,447.758 657.758,440.531 669.785,446.868C673.803,448.971 678.253,450.428 681.893,453.043C687.583,457.169 688.365,459.218 690.064,467.147L690.065,467.147Z" style="fill:rgb(69,28,21);fill-rule:nonzero;"/>
    </g>
    <g transform="matrix(0.058594,0,0,0.058594,0.000035,0.000015)">
        <path d="M480.804,439.099C474.871,432.438 470.853,426.101 465.217,421.975C455.024,414.451 438.52,412.806 430.107,423.809C428.732,425.616 427.923,427.962 426.251,429.445C424.93,430.658 422.745,430.874 420.939,431.548C420.669,430.038 419.887,428.393 420.238,427.072C423.258,416.231 433.425,408.762 444.805,408.708C461.336,408.681 475.196,417.526 480.778,431.899C481.506,433.814 480.832,436.295 480.805,439.099L480.804,439.099Z" style="fill:rgb(69,28,21);fill-rule:nonzero;"/>
    </g>
    <g transform="matrix(0.058594,0,0,0.058594,0.000035,0.000015)">
        <path d="M901.642,619.61C896.518,624.626 891.422,629.776 886.109,634.576C885.246,635.385 883.143,635.385 881.821,635.007C877.452,633.767 873.165,632.31 868.904,630.746C867.016,630.072 863.672,628.724 863.78,628.184C864.238,625.622 865.101,622.71 866.854,620.876C872.301,615.294 879.744,614.593 886.944,614.809C891.717,614.971 896.409,616.831 901.128,617.937C901.29,618.476 901.479,619.07 901.64,619.609L901.642,619.61Z" style="fill:rgb(69,28,21);fill-rule:nonzero;"/>
    </g>
    <g transform="matrix(0.058594,0,0,0.058594,0.000035,0.000015)">
        <path d="M548.258,410.822C547.287,408.8 546.37,406.966 545.48,405.132C558.882,398.04 576.923,396.179 586.874,405.968C589.705,408.799 590.838,413.546 592.186,417.564C592.51,418.589 590.568,420.342 589.678,421.744C588.707,420.692 587.413,419.775 586.793,418.508C583.341,411.362 577.678,407.398 569.885,406.805C562.469,406.293 555.134,406.67 548.258,410.823L548.258,410.822Z" style="fill:rgb(69,28,21);fill-rule:nonzero;"/>
    </g>
    <g transform="matrix(0.058594,0,0,0.058594,0.000035,0.000015)">
        <path d="M891.742,607.454C894.6,599.148 904.228,598.609 914.313,606.375C912.398,608.317 910.699,610.447 908.596,612.092C907.787,612.712 905.98,612.496 904.848,612.092C902.691,611.391 900.776,610.043 898.646,609.261C896.543,608.506 894.304,608.128 891.743,607.454L891.742,607.454Z" style="fill:rgb(69,28,21);fill-rule:nonzero;"/>
    </g>
</svg>
