<?xml version="1.0" encoding="UTF-8" standalone="no"?>
<!DOCTYPE svg PUBLIC "-//W3C//DTD SVG 1.1//EN" "http://www.w3.org/Graphics/SVG/1.1/DTD/svg11.dtd">
<svg width="100%" height="100%" viewBox="0 0 61 61" version="1.1" xmlns="http://www.w3.org/2000/svg" xmlns:xlink="http://www.w3.org/1999/xlink" xml:space="preserve" xmlns:serif="http://www.serif.com/" style="fill-rule:evenodd;clip-rule:evenodd;stroke-linejoin:round;stroke-miterlimit:2;">
    <g transform="matrix(0.058594,0,0,0.058594,0.000034,0)">
        <path d="M511.96,1009.647C486.288,1009.647 462.174,999.658 444.021,981.532L42.429,579.94C4.995,542.48 4.995,481.522 42.429,444.116L444.048,42.497C462.201,24.344 486.288,14.355 511.96,14.355C537.605,14.355 561.692,24.344 579.845,42.497L981.464,444.116C999.617,462.242 1009.579,486.356 1009.579,512.028C1009.579,537.673 999.616,561.787 981.464,579.94L579.872,981.532C561.719,999.658 537.605,1009.647 511.96,1009.647Z" style="fill:rgb(232,203,158);fill-rule:nonzero;"/>
    </g>
    <g transform="matrix(0.058594,0,0,0.058594,0.000034,0)">
        <path d="M511.919,14.436C487.304,14.435 462.71,23.798 444.025,42.483L42.444,444.104C5.055,481.493 5.055,542.503 42.444,579.892L444.025,981.513C462.722,1000.194 487.346,1009.559 511.958,1009.56C536.57,1009.561 561.143,1000.191 579.852,981.513L981.473,579.892C1018.833,542.501 1018.833,481.495 981.473,444.104L579.852,42.483C561.155,23.802 536.533,14.437 511.919,14.436Z" style="fill:rgb(232,203,158);fill-rule:nonzero;"/>
    </g>
    <g transform="matrix(0.058594,0,0,0.058594,0.000034,0)">
        <path d="M1009.361,511.3C1009.145,508.064 1009.118,503.938 1008.579,499.838C1005.585,476.726 994.933,457.659 978.482,441.235C846.281,309.25 714.242,177.13 582.122,45.037C580.612,43.527 579.128,41.963 577.537,40.533C555.045,20.253 528.778,11.811 498.68,15.722C476.404,18.608 457.903,28.829 442.127,44.632C323.599,163.241 205.018,281.795 86.49,400.323C71.307,415.506 55.961,430.528 41.048,445.927C25.568,461.839 16.749,481.175 14.996,503.263C12.515,533.98 22.655,560.113 44.581,581.958C100.244,637.379 155.719,693.015 211.275,748.544C288.487,825.809 365.698,903.102 443.017,980.286C481.555,1018.689 541.561,1019.445 579.398,981.634C713.621,847.707 847.683,713.592 981.664,579.449C1000.138,560.975 1009.037,538.295 1009.361,511.299L1009.361,511.3ZM512.651,-0C542.451,0.458 568.53,10.895 589.809,32.12C723.601,165.777 857.339,299.461 991.023,433.28C1035.387,477.671 1035.063,546.791 990.618,591.263C857.959,723.949 725.219,856.581 592.613,989.322C568.287,1013.702 539.242,1025.784 504.857,1023.788C476.351,1022.116 452.295,1010.331 432.122,990.131C374.894,932.768 317.559,875.487 260.25,818.232C184.872,742.827 109.495,667.396 34.063,592.045C9.656,567.692 -1.967,538.404 0.271,504.073C2.078,476.349 13.459,452.644 33.146,432.983C85.411,380.718 137.704,328.452 189.969,276.16C271.064,195.065 352.132,113.943 433.308,32.902C455.126,11.138 481.555,0.243 512.65,0L512.651,-0Z" style="fill:rgb(69,28,21);fill-rule:nonzero;"/>
    </g>
    <g transform="matrix(0.058594,0,0,0.058594,0.000034,0)">
        <path d="M494.194,828.116C496.729,829.68 498.887,831.919 501.26,832.215C503.633,832.485 507.031,831.46 508.595,829.734C511.535,826.471 510.213,823.046 506.033,820.565C501.88,818.138 498.698,820.107 494.194,828.116ZM537.047,865.548C538.854,866.896 539.987,867.409 540.58,868.245C543.762,872.668 547.942,871.913 552.042,870.376C555.629,869.055 556.465,863.607 553.148,861.881C550.235,860.371 546.433,859.454 543.277,859.885C541.146,860.182 539.394,863.256 537.047,865.548ZM510.186,804.437C513.962,806.702 516.524,809.345 519.328,809.588C522.322,809.858 526.61,808.833 528.47,806.729C532.488,802.117 531.544,798.989 525.908,796.292C523.454,795.132 519.516,794.485 517.467,795.672C514.608,797.344 512.909,800.958 510.185,804.437L510.186,804.437ZM526.718,827.306C528.849,829.086 530.682,831.864 533.029,832.349C537.155,833.239 541.578,833.023 545.866,832.807C549.803,832.618 554.793,827.926 553.363,825.687C551.745,823.152 548.482,820.833 545.569,820.212C541.362,819.295 536.777,819.754 532.435,820.104C531.087,820.212 529.711,821.749 528.767,822.963C527.904,823.988 527.553,825.471 526.717,827.305L526.718,827.306ZM367.036,485.936C366.47,485.99 365.876,486.044 365.31,486.098C365.31,497.695 365.148,509.345 365.499,520.942C365.553,522.668 367.71,525.203 369.436,525.769C372.214,526.686 373.293,524.259 373.427,521.643C373.832,513.31 374.317,504.976 374.614,496.643C374.668,495.483 374.209,494.054 373.481,493.11C371.458,490.602 369.22,488.337 367.035,485.936L367.036,485.936ZM463.395,506.351C455.898,506.108 454.792,506.971 454.495,514.064C454.198,522.128 454.117,530.164 453.848,538.201C453.767,541.599 455.655,543.298 458.648,543.676C462.046,544.107 463.341,541.788 463.368,538.822C463.476,528.142 463.395,517.436 463.395,506.352L463.395,506.351ZM397.187,513.094C396.971,515.845 396.702,518.434 396.594,521.05C396.136,530.543 395.515,540.063 395.515,549.556C395.515,551.201 398.158,552.846 399.56,554.491C400.72,552.954 402.149,551.551 402.931,549.852C403.578,548.423 403.47,546.67 403.605,545.052C404.252,534.157 404.899,523.234 405.574,512.123C403.336,512.123 402.176,512.015 401.097,512.15C399.829,512.339 398.589,512.77 397.187,513.094ZM526.664,753.978C525.558,753.223 524.426,752.737 523.724,751.901C520.083,747.559 515.013,749.069 510.428,748.53C503.767,747.802 502.769,752.818 500.746,757.349C499.101,761.044 501.097,762.797 503.443,764.145C513.152,769.728 523.966,765.008 526.663,753.978L526.664,753.978ZM476.718,810.478C481.923,809.885 485.645,809.48 489.366,808.995C490.013,808.914 490.607,808.59 491.254,808.348C497.025,806.244 498.428,799.61 493.897,795.7C487.937,790.549 471.594,794.918 468.412,802.442C467.468,804.626 467.387,806.568 469.545,807.701C472.215,809.022 475.074,809.885 476.719,810.479L476.718,810.478ZM822.457,684.21C826.448,681.028 831.788,678.897 832.193,676.065C833.487,666.896 833.137,657.43 833.029,648.098C833.029,646.345 831.195,644.592 830.197,642.866C828.12,644.053 825.693,644.889 824.102,646.561C823.077,647.667 823.023,649.932 822.942,651.712C822.403,660.396 821.971,669.107 821.621,677.818C821.567,679.49 822.026,681.189 822.457,684.21ZM778.067,708.941C784.459,708.725 788.099,706.163 787.991,702.415C787.748,693.192 787.479,683.941 787.155,674.745C787.101,673.451 786.75,672.156 786.643,670.808C786.346,667.68 784.755,664.929 781.627,665.333C778.418,665.738 776.476,668.327 776.611,672.129C776.989,680.678 777.096,689.254 777.366,697.83C777.501,701.39 777.797,704.977 778.067,708.941ZM256.491,705.785C256.491,707.106 256.734,708.482 256.464,709.749C255.493,714.01 257.354,716.734 261.426,716.815C265.876,716.896 265.66,713.147 265.444,709.965C264.77,698.476 264.123,687.015 263.26,675.526C263.044,672.29 262.532,668.946 261.48,665.871C261.022,664.469 258.945,663.579 257.57,662.446C256.68,663.767 255.655,664.981 254.927,666.41C254.576,667.057 254.819,668.028 254.846,668.864C255.385,681.135 255.925,693.459 256.491,705.784L256.491,705.785ZM317.036,679.059C316.874,681.405 316.551,683.482 316.605,685.585C316.902,698.719 317.36,711.88 317.63,725.04C317.684,728.438 319.221,730.515 322.43,730.461C325.72,730.407 325.882,727.629 325.855,725.013C325.828,711.987 325.882,698.934 325.774,685.935C325.747,683.535 325.639,681 324.776,678.842C324.587,678.33 321.243,679.031 319.382,679.166C318.762,679.22 318.168,679.139 317.036,679.058L317.036,679.059ZM479.657,780.624C481.356,782.188 482.893,784.507 484.97,785.344C491.389,787.96 498.185,788.823 505.197,788.364C515.607,787.663 519.517,785.209 521.756,776.983C519.329,775.527 516.929,772.965 514.286,772.641C506.789,771.805 499.184,771.643 491.659,771.643C485.78,771.67 479.82,772.209 479.658,780.624L479.657,780.624ZM442.036,500.445C430.628,486.637 419.922,473.611 409.161,460.666C408.622,460.019 407.435,459.506 406.653,459.641C402.23,460.342 397.888,461.259 392.198,462.365C404.145,475.202 415.364,487.149 426.394,499.258C428.983,502.117 431.734,502.629 435.159,501.82C436.858,501.415 438.638,501.146 442.036,500.445ZM475.909,495.51C472.322,491.627 468.897,487.554 465.095,483.86C457.76,476.767 449.858,470.241 442.954,462.797C439.017,458.563 434.917,457.026 429.604,457.592C426.584,457.916 423.644,458.482 420.65,458.913C421.081,458.643 421.513,458.374 421.944,458.131C426.205,463.093 430.709,467.894 434.7,473.072C439.905,479.787 445.191,486.475 449.425,493.811C452.392,498.935 452.904,500.149 459.107,498.908C464.609,497.856 470.137,496.697 475.909,495.51ZM266.2,667.031C266.578,672.452 266.847,678.007 267.468,683.509C267.603,684.534 269.167,685.882 270.3,686.125C284.108,689.307 297.889,692.274 312.129,695.402C312.399,692.435 312.641,690.17 312.776,687.932C313.477,678.061 313.45,678.088 303.957,675.877C291.47,672.991 279.038,670.052 266.201,667.031L266.2,667.031ZM478.066,747.964C469.625,749.42 462.613,750.526 455.601,751.928C454.792,752.063 453.983,753.357 453.551,754.301C450.719,760.558 452.796,769.646 458.702,773.826C460.886,775.363 464.851,776.442 467.17,775.552C474.721,772.612 482.138,769.053 489.15,764.926C494.625,761.717 494.867,755.325 489.608,751.927C485.967,749.608 481.275,749.014 478.065,747.963L478.066,747.964ZM416.092,505.327C415.337,504.086 415.121,503.466 414.717,503.008C403.39,490.009 392.063,477.01 380.682,464.065C380.197,463.526 379.307,462.878 378.659,462.932C374.776,463.31 370.865,463.606 367.035,464.469C363.556,465.278 362.262,468.865 364.338,471.589C371.754,481.406 379.171,491.222 386.884,500.742C388.853,503.169 391.9,506.109 394.651,506.271C401.555,506.729 408.54,505.759 416.091,505.327L416.092,505.327ZM499.857,742.139C499.884,742.355 499.911,742.544 499.938,742.786C503.714,742.786 507.543,743.137 511.265,742.624C513.638,742.273 515.85,740.574 518.115,739.442C523.482,736.745 522.754,730.893 524.641,726.416C525.072,725.364 524.479,723.422 523.67,722.398C519.706,717.301 514.689,713.579 507.839,714.065C496.62,714.928 485.401,715.899 474.29,717.463C471.108,717.921 467.359,720.16 465.579,722.749C463.179,726.201 462.316,730.786 461.048,734.966C460.67,736.18 460.67,738.04 461.372,738.93C464.905,743.461 469.624,745.349 475.477,744.62C483.568,743.649 491.739,742.948 499.857,742.139ZM262.316,378.007C263.557,383.158 264.527,387.203 265.363,390.763C280.843,385.477 295.838,380.326 310.832,375.202C317.439,372.964 323.885,369.916 330.654,368.649C351.447,364.792 371.431,357.43 392.655,355.785C400.934,355.165 409.133,353.574 417.412,352.657C425.718,351.74 434.106,351.174 442.412,350.338C453.442,349.178 464.445,347.587 475.503,346.805C484.295,346.185 492.763,345.43 498.777,337.555C498.238,337.312 497.536,336.989 496.808,336.719C484.807,332.431 472.644,335.856 460.643,336.368C446.619,336.988 432.622,338.849 418.68,340.818C403.389,342.949 388.178,345.618 372.968,348.315C361.911,350.257 350.908,352.549 339.85,354.599C329.44,356.541 318.653,357.269 308.647,360.424C292.978,365.413 277.849,372.021 262.315,378.008L262.316,378.007ZM246.405,335.801C245.812,335.801 245.191,335.774 244.598,335.774C243.924,337.338 242.602,338.983 242.71,340.494C243.6,350.311 237.451,357.592 233.999,365.845C232.57,369.297 230.574,372.641 232.812,376.525C236.156,382.269 234.996,388.068 233.432,394.082C231.976,399.665 229.414,405.813 230.546,411.072C232.191,418.839 232.191,425.662 228.415,432.539C227.687,433.807 227.336,435.29 226.554,436.503C223.641,441.007 225.179,445.106 227.066,449.502C231.947,460.856 240.766,463.795 252.578,458.833C254.978,457.835 257.298,456.352 259.806,455.839C264.984,454.787 266.225,450.58 266.171,446.751C266.09,442.031 264.796,437.177 263.285,432.619C261.613,427.522 258.35,422.856 257.19,417.705C255.761,411.313 254.116,404.841 257.864,398.153C262.26,390.305 258.484,382.619 254.277,376.066C250.097,369.486 245.917,363.687 250.474,355.651C251.31,354.168 251.148,351.768 250.717,350.015C249.476,345.215 247.858,340.522 246.402,335.802L246.405,335.801ZM524.641,494.108C524.29,494.62 523.94,494.863 523.94,495.106C524.452,507.593 524.938,520.106 525.612,532.566C525.693,534.022 526.502,535.937 527.635,536.746C532.085,539.847 536.804,542.221 542.603,541.762C546.001,541.465 549.48,542.086 552.905,542.436C568.385,544.081 583.838,546.616 599.372,547.236C616.794,547.937 634.323,547.425 651.745,546.562C666.065,545.861 680.278,545.834 694.437,541.195C709.863,536.071 722.835,528.601 733.164,516.141C740.769,507.026 748.213,497.775 752.069,486.475C754.038,480.812 756.141,477.144 762.749,476.82C766.983,476.604 768.628,477.521 766.794,481.486C762.048,491.869 757.786,502.629 751.557,512.069C746.649,519.431 739.044,524.96 732.706,531.406C730.414,533.779 728.769,537.042 726.072,538.741C715.527,545.294 703.985,549.663 692.361,554.194C672.323,561.961 651.395,563.633 630.603,566.357C616.148,568.245 601.612,569.377 587.075,570.483C567.064,571.966 547.053,573.8 527.016,574.259C497.836,574.879 468.629,574.394 439.395,574.394C409.298,574.421 379.093,574.637 349.185,570.322C330.684,567.679 312.346,563.661 293.926,560.263C312.939,550.554 330.415,540.09 344.034,524.098C349.32,517.868 351.289,511.288 349.185,502.874C345.032,486.423 336.321,472.049 329.417,456.865C325.291,447.777 319.978,439.174 316.202,429.977C313.559,423.451 310.026,418.461 303.446,415.926C300.21,414.632 296.866,413.553 293.602,412.366C297.62,410.343 302.637,407.404 306.089,408.698C317.389,412.905 326.262,420.753 331.655,431.837C335.188,439.146 338.37,446.589 341.606,453.79C368.871,444.459 396.46,445.322 421.892,442.841C428.23,427.954 434.379,414.146 439.988,400.149C442.038,394.998 446.137,393.11 450.533,391.573C453.257,390.602 456.304,390.521 459.217,390.305C467.523,389.577 475.83,388.984 483.489,388.417C483.947,379.275 484.352,370.968 484.81,361.88C478.095,362.851 472.485,363.903 466.876,364.442C458.219,365.278 449.508,365.656 440.851,366.492C432.868,367.301 424.886,368.353 416.93,369.432C399.104,371.886 381.062,373.315 363.532,377.145C344.034,381.352 324.832,387.285 305.792,393.353C291.66,397.857 277.61,403.035 265.636,412.312C264.746,412.986 263.452,414.712 263.64,414.955C264.503,416.169 265.744,417.22 267.065,417.868C267.82,418.273 269.007,417.895 269.978,417.868C279.255,417.544 287.831,419.567 295.463,425.069C302.798,430.301 307.896,446.86 302.96,453.845C298.645,459.994 293.224,466.305 286.752,469.757C271.811,477.686 256.035,484.05 240.447,490.766C236.456,492.465 232.087,493.571 227.772,494.11C218.684,495.189 209.514,495.755 200.426,496.51C199.509,510.075 202.826,514.606 210.35,522.616C226.208,539.418 244.438,552.821 266.553,561.154C287.076,568.894 308.543,572.292 329.66,577.119C345.814,580.814 362.481,582.27 378.959,584.347C394.061,586.262 409.164,588.851 424.293,589.067C458.381,589.498 492.524,588.636 526.666,588.312C527.151,588.312 527.664,588.285 528.149,588.258C545.004,586.937 561.86,585.615 578.742,584.348C584.945,583.89 591.175,583.647 597.377,583.107C610.592,581.947 623.779,580.626 636.94,579.385C638.423,579.277 639.987,579.52 641.39,579.196C655.603,575.636 669.896,572.454 683.866,568.247C702.394,562.638 721.514,558.349 737.129,545.701C757.949,528.792 774.508,509.077 780.414,481.731L797.836,481.731C797.917,482.675 798.133,483.484 798.052,484.266C796.919,497.939 793.09,511.046 785.646,522.4C779.578,531.704 771.487,539.714 764.179,548.209C761.887,550.879 759.567,553.98 756.574,555.625C742.146,563.635 727.529,571.24 712.912,578.926C710.916,579.978 708.732,580.733 706.547,581.299C695.058,584.239 683.678,587.691 672,589.767C653.58,593.057 634.999,595.592 616.444,598.073C609.594,598.99 602.609,598.72 595.705,599.233C579.686,600.447 563.693,602.119 547.647,602.982C539.314,603.44 530.899,602.173 522.539,602.416C509.216,602.794 495.948,604.304 482.652,604.385C465.689,604.466 448.725,603.711 431.789,603.064C418.17,602.579 404.551,601.77 390.958,600.987C386.697,600.744 382.49,600.151 378.256,599.558C368.898,598.183 359.594,596.106 350.155,595.351C336.428,594.218 322.971,592.384 309.729,588.339C292.469,583.053 274.966,578.549 257.76,573.183C247.647,570.055 237.426,566.791 228.094,561.91C215.149,555.114 203.202,547.131 193.358,535.238C177.797,516.495 175.37,496.133 180.278,473.83C183.298,460.103 190.526,448.264 200.262,438.447C206.573,432.082 210.645,423.156 220.111,419.866C222.053,419.192 224.102,416.198 224.453,414.014C225.127,409.645 224.669,405.114 224.669,400.718C216.875,406.948 208.272,413.231 200.316,420.27C182.651,435.966 171.54,455.842 165.365,478.442C160.834,495.109 156.654,511.91 152.959,528.793C148.968,547.105 140.392,564.473 142.01,583.998C142.684,592.196 143.278,600.422 147.593,607.38C151.908,614.311 157.356,620.568 162.669,626.824C177.96,644.92 194.978,660.778 217.901,669.003C228.769,672.913 239.476,677.255 250.938,681.705L250.938,658.916C250.156,658.565 248.996,658.026 247.405,657.352C252.826,653.28 257.653,649.612 262.561,646.106C263.397,645.486 264.907,645.297 265.878,645.567C277.528,649.262 289.071,653.226 300.749,656.759C313.209,660.589 325.749,664.014 338.667,667.735C336.348,669.407 334.244,670.702 332.491,672.347C331.25,673.507 329.605,675.179 329.659,676.554C329.902,683.728 330.657,690.874 331.277,697.994C337.965,698.857 344.465,699.774 350.964,700.556C367.064,702.444 383.165,704.386 399.292,706.085C405.009,706.678 410.808,707.002 416.552,706.975C417.981,706.975 420.301,705.438 420.651,704.17C422.647,696.996 424.13,689.661 425.856,682.406C427.933,673.641 430.009,664.876 432.275,656.165C432.572,655.113 434.19,653.873 435.295,653.765C448.806,652.309 462.345,650.367 475.937,649.882C494.033,649.208 512.129,649.612 530.252,649.801C534.621,649.855 538.963,650.637 541.983,654.628C543.143,656.219 544.95,658.296 546.541,658.377C550.236,658.62 551.234,660.858 552.124,663.609C554.524,670.944 557.167,678.172 559.163,685.589C560.862,691.873 561.833,698.372 563.1,704.818C583.057,703.793 603.796,702.768 625.667,701.663C625.667,712.99 625.694,724.344 625.64,735.671C625.64,739.932 628.175,742.17 631.816,742.845C635.349,743.465 637.587,740.445 637.722,735.698C638.073,724.371 638.504,712.99 638.639,701.636C638.693,698.616 640.014,697.591 642.576,697.24C660.16,694.786 677.716,692.386 695.516,689.905C695.058,700.773 694.545,711.911 694.168,723.05C694.033,727.203 697,730.736 700.371,730.655C705.198,730.547 705.657,726.556 705.846,723.293C706.493,712.64 706.952,701.934 706.925,691.254C706.898,687.236 708.354,685.86 711.86,684.323C726.962,677.689 741.903,670.623 756.898,663.665C760.404,662.02 760.566,659.808 757.707,657.3C756.493,656.194 755.28,655.062 753.931,654.172C748.429,650.585 742.874,647.214 737.426,643.573C733.596,641.038 730.01,638.206 725.776,635.159C731.655,632.327 736.375,629.792 741.337,627.77C742.685,627.204 745.247,627.527 746.272,628.471C757.356,638.503 770.625,644.868 784.001,650.963C785.161,651.502 787.156,651.745 788.073,651.152C794.195,647.08 800.101,642.792 806.547,638.207C792.442,631.168 778.823,624.372 764.071,617.01C774.13,613.423 781.762,606.627 791.876,611.023C794.087,611.967 796.622,612.156 799.023,612.641C804.956,613.774 811.105,615.257 815.663,609.567C817.227,607.679 817.794,604.982 818.98,602.744C822.756,595.489 826.828,588.397 830.307,581.034C831.952,577.609 834.002,573.429 833.435,569.977C829.794,549.049 825.641,528.175 821.326,507.383C818.899,495.571 815.797,483.893 812.696,470.813C815.447,472.323 817.685,472.809 818.602,474.157C822.782,480.198 827.933,486.023 830.226,492.738C834.083,503.795 836.294,515.446 838.586,526.961C840.663,537.344 841.984,547.889 843.521,558.002C863.64,557.355 883.138,556.708 902.717,556.06C902.879,555.224 903.122,554.577 903.095,553.929C902.61,536.372 902.394,518.735 901.558,501.178C900.722,483.298 899.32,465.417 897.998,447.591C897.836,445.541 896.865,443.06 895.436,441.685C888.154,434.619 880.657,427.769 873.16,420.973C866.849,415.229 859.649,410.239 854.147,403.794C839.476,386.723 822.405,372.348 805.226,358.001C793.656,348.373 780.577,346.351 766.31,347.402C761.537,347.753 756.655,346.809 751.882,346.485C751.774,344.867 751.693,344.058 751.693,343.222C751.99,329.872 752.556,316.523 752.394,303.2C752.34,299.964 750.695,295.838 748.349,293.707C741.283,287.181 733.678,281.22 725.911,275.503C719.492,270.73 712.669,266.549 705.927,262.234C697.432,256.705 688.748,251.447 680.334,245.81C677.098,243.626 674.671,240.093 671.299,238.205C662.372,233.297 655.63,227.444 657.491,215.983C657.761,214.365 657.464,212.693 657.383,211.048C657.275,208.324 656.466,206.517 653.257,205.897C644.789,204.252 637.238,199.182 628.041,199.964C623.429,200.369 618.656,199.209 613.667,198.723C613.613,197.294 613.451,195.999 613.505,194.732C613.963,184.861 614.53,175.018 614.88,165.174C614.961,162.558 614.745,159.78 613.774,157.434C613.127,155.843 611.104,154.387 609.405,153.847C608.65,153.604 606.358,155.681 606.088,156.975C604.901,162.531 604.173,168.221 603.256,174.1C596.73,174.505 590.068,174.909 582.247,175.394C582.247,165.335 582.571,155.815 582.139,146.322C581.869,140.955 580.602,135.615 579.307,130.383C579.01,129.089 576.934,127.659 575.504,127.443C574.614,127.335 572.888,129.25 572.457,130.544C571.756,132.675 571.513,135.048 571.459,137.313C571.054,150.851 570.704,164.39 570.461,177.874C570.299,184.751 570.407,191.628 570.407,198.883C570.677,198.802 570.272,199.045 569.814,199.099C560.968,200.42 552.069,201.472 543.277,203.144C535.699,204.546 528.93,213.446 528.795,221.078C528.471,234.778 528.175,248.451 527.689,262.097C527.662,263.472 526.799,265.117 525.828,266.061C519.329,272.345 512.775,278.548 506.087,284.615C498.805,291.195 494.706,298.801 495.353,309.076C495.784,315.845 497.268,318.623 504.388,319.971C515.149,322.048 516.227,323.45 515.904,334.345C515.85,335.639 515.661,336.988 515.715,338.309C515.931,342.192 514.178,343.918 510.294,344.943C503.471,346.696 498.023,351.658 495.92,357.753C493.789,363.821 491.848,370.779 494.922,377.764C496.082,380.434 496.136,383.967 495.515,386.879C494.598,391.248 495.92,394.457 499.021,396.992C504.334,401.334 509.458,406.107 515.337,409.505C521.459,413.038 524.803,417.191 523.778,424.338C523.697,424.662 523.832,424.985 523.778,425.309C523.158,429.085 525.774,430.379 528.498,431.835C532.462,433.939 536.184,436.528 540.148,438.604C546,441.678 542.845,447.018 543.627,451.333C543.924,453.005 543.897,454.785 543.924,455.297C539.663,457.077 535.806,458.533 532.085,460.286C526.583,462.902 525.532,467.648 525.478,473.312C525.424,479.299 529.2,481.241 533.596,482.994C535.133,483.587 536.67,484.477 538.262,484.585C545.004,484.963 545.786,489.925 546.595,494.968C546.676,495.453 546.406,496.209 546.649,496.397C548.24,497.691 549.939,498.905 551.584,500.119C552.609,498.717 554.227,497.422 554.497,495.885C554.982,493.026 554.632,490.06 554.632,487.525L570.409,487.525C570.409,490.357 570.517,492.649 570.409,494.968C570.301,497.962 572.189,499.499 574.643,498.986C576.072,498.689 577.771,496.586 578.203,494.968C578.823,492.676 578.365,490.141 578.365,487.417C584.837,487.875 590.798,488.28 597.108,488.738C597.108,494.725 597.27,500.335 597,505.863C596.946,506.969 595.247,508.749 594.141,508.883C589.583,509.422 584.945,509.8 580.387,509.638C569.168,509.26 557.976,508.559 546.784,508.074C537.588,507.696 530.63,503.813 526.477,495.372C526.18,494.779 525.263,494.509 524.643,494.104L524.641,494.108ZM981.006,511.961C980.494,531.298 973.59,547.479 960.024,560.909C938.827,581.945 917.764,603.142 896.647,624.259C785.104,735.802 673.508,847.264 562.046,958.887C549.559,971.4 535.131,979.275 517.359,980.651C498.697,982.107 482.246,976.66 467.979,964.605C465.956,962.906 464.096,961.045 462.235,959.157C329.899,826.875 197.618,694.54 65.228,562.312C52.876,549.96 44.921,535.775 43.356,518.191C41.711,499.313 47.105,482.727 59.187,468.245C60.994,466.114 63.017,464.146 64.985,462.15C197.159,329.976 329.387,197.802 461.506,65.548C473.993,53.035 488.286,44.917 506.085,43.434C524.909,41.87 541.522,47.291 555.923,59.48C557.946,61.179 559.806,63.067 561.667,64.928C694.461,197.668 827.201,330.489 960.022,463.202C973.668,476.848 980.572,493.137 981.004,511.961L981.006,511.961Z" style="fill:rgb(69,28,21);fill-rule:nonzero;"/>
    </g>
    <g transform="matrix(0.058594,0,0,0.058594,0.000034,0)">
        <path d="M514.641,349.318C514.938,355.359 515.315,361.4 515.531,367.468C515.639,371.001 517.662,373.158 520.844,373.185C524.566,373.212 524.862,370.003 524.862,367.09L524.862,346.594C537.861,345.246 550.347,343.951 563.724,342.576C563.724,351.88 563.913,360.564 563.589,369.248C563.454,373.32 565.099,375.801 568.713,376.098C573.163,376.449 573.19,372.781 573.163,369.518L573.163,331.276L618.794,331.276C618.794,338.773 618.902,345.273 618.767,351.799C618.605,358.865 618.201,365.931 617.877,372.996C617.688,376.718 619.522,378.956 623.082,379.226C626.912,379.55 627.775,376.637 627.802,373.724C627.883,359.943 627.829,346.135 627.829,331.815C639.749,331.815 651.265,331.545 662.727,332.031C664.723,332.112 668.067,335.159 668.283,337.047C669.604,351.691 672.247,366.551 665.451,380.602C664.642,382.22 662.296,384.054 660.597,384.135C634.815,385.322 609.033,386.805 583.251,387.021C570.198,387.156 557.145,384.944 544.092,383.596C535.327,382.679 526.481,382.059 517.905,380.117C513.051,378.984 508.763,375.371 504.259,372.808C503.666,372.457 503.153,371.514 503.126,370.812C502.533,361.535 503.207,352.042 514.642,349.318L514.641,349.318Z" style="fill:rgb(69,28,21);fill-rule:nonzero;"/>
    </g>
    <g transform="matrix(0.058594,0,0,0.058594,0.000034,0)">
        <path d="M713.989,675.537C708.191,676.481 702.743,677.209 697.376,678.315C686.076,680.634 674.83,683.223 663.557,685.543C657.031,686.918 650.477,688.644 643.897,689.049C638.045,689.427 632.112,688.159 625.963,687.566C625.855,688.914 625.639,691.126 625.451,693.31C625.721,693.175 626.017,692.986 626.314,692.825C624.453,688.429 622.997,683.817 620.705,679.664C616.012,671.007 610.834,662.593 605.926,654.017C604.901,652.21 604.227,650.187 603.445,648.381C623.213,642.96 643.116,642.394 663.181,642.61C668.359,642.664 673.51,641.154 678.715,640.533C679.929,640.398 681.709,640.668 682.437,641.477C692.901,652.588 703.23,663.888 713.99,675.539L713.989,675.537Z" style="fill:rgb(69,28,21);fill-rule:nonzero;"/>
    </g>
    <g transform="matrix(0.058594,0,0,0.058594,0.000034,0)">
        <path d="M603.864,203.967C603.864,208.875 603.891,213.082 603.864,217.317C603.837,220.958 605.482,223.547 609.15,223.709C613.222,223.871 613.438,220.041 613.789,217.371C614.301,213.514 613.924,209.577 613.924,204.669C624.954,205.37 635.634,206.125 646.583,206.853C646.583,215.807 646.529,224.032 646.664,232.204C646.691,235.413 644.426,235.683 642.376,235.683C624.307,235.791 606.265,235.791 588.196,235.791C576.168,235.818 564.14,235.683 552.112,235.791C544.615,235.845 540.758,229.561 535.23,226.244C534.664,225.893 534.825,223.79 535.122,222.603C537.576,211.95 545.505,207.662 555.268,206.26C560.365,205.532 565.597,206.098 570.937,206.098C570.937,209.334 571.099,213.11 570.883,216.859C570.721,220.608 572.879,223.089 575.926,223.358C579.648,223.682 581.131,220.553 581.131,217.047L581.131,203.967L603.864,203.967Z" style="fill:rgb(69,28,21);fill-rule:nonzero;"/>
    </g>
    <g transform="matrix(0.058594,0,0,0.058594,0.000034,0)">
        <path d="M280.525,633.609C285.245,629.887 289.533,626.031 294.333,622.956C295.978,621.931 299.026,622.551 301.264,623.064C320.142,627.217 339.047,631.397 357.844,635.955C360.784,636.629 363.4,639.002 365.962,640.89C366.717,641.429 367.014,642.967 367.014,644.018C366.987,646.068 356.631,653.349 354.474,652.864C335.137,648.495 315.747,644.288 296.491,639.622C291.016,638.274 285.892,635.658 280.526,633.608L280.525,633.609Z" style="fill:rgb(69,28,21);fill-rule:nonzero;"/>
    </g>
    <g transform="matrix(0.058594,0,0,0.058594,0.000034,0)">
        <path d="M764.703,353.053C772.659,353.916 780.695,354.59 788.624,355.75C794.773,356.64 796.499,362.142 797.659,366.861C798.333,369.693 797.308,374.682 795.232,376.111C791.241,378.808 786.09,380.588 781.208,381.1C773.549,381.882 765.782,381.424 758.042,381.262C754.644,381.181 752.702,379.158 752.594,375.653C752.405,369.234 752.082,362.816 752.216,356.397C752.216,355.507 754.077,353.97 755.236,353.835C758.337,353.457 761.493,353.727 764.648,353.727C764.648,353.484 764.675,353.296 764.702,353.053L764.703,353.053Z" style="fill:rgb(69,28,21);fill-rule:nonzero;"/>
    </g>
    <g transform="matrix(0.058594,0,0,0.058594,0.000034,0)">
        <path d="M569.598,479.073L554.415,479.073L554.415,448.248C559.135,451.188 563.908,454.1 568.628,457.121C569.167,457.499 569.545,458.523 569.572,459.252C569.626,465.778 569.599,472.305 569.599,479.074L569.598,479.073Z" style="fill:rgb(69,28,21);fill-rule:nonzero;"/>
    </g>
    <g transform="matrix(0.058594,0,0,0.058594,0.000034,0)">
        <path d="M581.494,197.915L581.494,181.087L603.851,181.087C603.851,186.454 604.121,191.362 603.662,196.216C603.527,197.295 600.938,198.967 599.509,198.967C593.603,198.913 587.751,198.32 581.494,197.915Z" style="fill:rgb(69,28,21);fill-rule:nonzero;"/>
    </g>
    <g transform="matrix(0.058594,0,0,0.058594,0.000034,0)">
        <path d="M564.194,329.687C563.816,332.33 563.601,333.921 563.412,334.946C550.44,336.861 537.873,338.722 525.062,340.636L525.062,325.857C538.088,327.125 550.844,328.365 564.194,329.687Z" style="fill:rgb(69,28,21);fill-rule:nonzero;"/>
    </g>
    <g transform="matrix(0.058594,0,0,0.058594,0.000034,0)">
        <path d="M846.653,470.389C846.68,462.622 850.132,458.577 856.685,458.577C861.458,458.577 866.663,463.755 866.583,468.367C866.475,475.783 861.108,481.15 853.989,481.015C849.836,480.88 846.627,476.242 846.654,470.389L846.653,470.389Z" style="fill:rgb(69,28,21);fill-rule:nonzero;"/>
    </g>
    <g transform="matrix(0.058594,0,0,0.058594,0.000034,0)">
        <path d="M544.582,460.094L544.582,479.89C540.86,478.703 537.327,477.84 534.091,476.438C531.826,475.413 531.934,469.75 534.496,467.403C537.139,464.949 540.348,463.088 544.582,460.094Z" style="fill:rgb(69,28,21);fill-rule:nonzero;"/>
    </g>
    <g transform="matrix(0.058594,0,0,0.058594,0.000034,0)">
        <path d="M580.137,464.021C583.616,469.145 587.149,474.296 590.628,479.447C590.331,479.825 589.981,480.229 589.657,480.607C586.016,480.176 582.348,479.744 578.492,479.286L578.492,464.939C579.031,464.669 579.598,464.346 580.137,464.022L580.137,464.021Z" style="fill:rgb(69,28,21);fill-rule:nonzero;"/>
    </g>
</svg>
