<?xml version="1.0" encoding="UTF-8" standalone="no"?>
<!DOCTYPE svg PUBLIC "-//W3C//DTD SVG 1.1//EN" "http://www.w3.org/Graphics/SVG/1.1/DTD/svg11.dtd">
<svg width="100%" height="100%" viewBox="0 0 60 60" version="1.1" xmlns="http://www.w3.org/2000/svg" xmlns:xlink="http://www.w3.org/1999/xlink" xml:space="preserve" xmlns:serif="http://www.serif.com/" style="fill-rule:evenodd;clip-rule:evenodd;stroke-linejoin:round;stroke-miterlimit:2;">
    <g transform="matrix(0.058594,0,0,0.058594,0.000542,0)">
        <path d="M511.96,1009.647C486.288,1009.647 462.174,999.658 444.021,981.532L42.429,579.94C4.995,542.48 4.995,481.522 42.429,444.116L444.048,42.497C462.201,24.344 486.288,14.355 511.96,14.355C537.605,14.355 561.692,24.344 579.845,42.497L981.464,444.116C999.617,462.242 1009.579,486.356 1009.579,512.028C1009.579,537.673 999.616,561.787 981.464,579.94L579.872,981.532C561.719,999.658 537.605,1009.647 511.96,1009.647Z" style="fill:rgb(232,203,158);fill-rule:nonzero;"/>
    </g>
    <g transform="matrix(0.058594,0,0,0.058594,0.000542,0)">
        <path d="M511.919,14.436C487.304,14.435 462.71,23.798 444.025,42.483L42.444,444.104C5.055,481.493 5.055,542.503 42.444,579.892L444.025,981.513C462.722,1000.194 487.346,1009.559 511.958,1009.56C536.57,1009.561 561.143,1000.191 579.852,981.513L981.473,579.892C1018.833,542.501 1018.833,481.495 981.473,444.104L579.852,42.483C561.155,23.802 536.533,14.437 511.919,14.436Z" style="fill:rgb(232,203,158);fill-rule:nonzero;"/>
    </g>
    <g transform="matrix(0.058594,0,0,0.058594,0.000542,0)">
        <path d="M511.958,0C482.473,0 454.741,11.508 433.876,32.374L32.255,433.955C-10.764,477.001 -10.764,547.06 32.255,590.08L433.876,991.661C454.741,1012.526 482.446,1023.995 511.958,1023.995C541.47,1023.995 569.175,1012.526 590.04,991.661L991.621,590.08C1012.459,569.242 1023.916,541.496 1023.916,512.037C1023.916,482.525 1012.459,454.793 991.621,433.955L590,32.374C569.135,11.509 541.442,0 511.957,0L511.958,0ZM511.919,14.436C536.534,14.437 561.155,23.801 579.852,42.483L981.473,444.104C1018.833,481.495 1018.833,542.501 981.473,579.892L579.852,981.513C561.143,1000.191 536.57,1009.56 511.958,1009.56C487.346,1009.56 462.722,1000.195 444.025,981.513L42.444,579.892C5.055,542.503 5.055,481.493 42.444,444.104L444.025,42.483C462.71,23.798 487.304,14.436 511.919,14.436Z" style="fill:rgb(69,28,21);fill-rule:nonzero;"/>
    </g>
    <g transform="matrix(0.058594,0,0,0.058594,0.000542,0)">
        <path d="M553.784,407.817C551.743,405.964 549.729,404.407 548.037,402.527C530.099,382.951 508.992,367.537 484.126,358.434C460.173,349.68 436.032,350.673 412.427,361.522C399.672,367.376 387.077,373.257 375.933,382.682C375.154,379.433 374.644,376.291 373.65,373.23C362.64,338.67 347.119,306.392 323.918,278.25C311.995,263.803 296.474,254.995 277.005,252.551C278.428,250.994 279.422,249.758 280.523,248.657C304.906,224.247 329.369,199.891 353.672,175.401C356.196,172.85 358.694,171.83 362.238,171.883C374.564,172.071 386.889,171.964 399.215,171.964C407.566,171.964 415.864,171.937 424.162,171.937C436.219,171.91 448.303,171.883 460.36,171.937C470.967,171.991 481.547,172.581 492.128,172.152C502.923,171.722 513.718,170.38 524.513,169.413C524.647,168.688 524.808,167.936 524.943,167.184C520.781,165.492 516.511,162.162 512.456,162.35C490.893,163.263 473.921,152.549 456.252,142.532C448.438,138.155 438.824,136.785 429.909,134.476C420.833,132.113 411.622,130.314 401.901,128.085C402.868,126.635 403.163,126.044 403.566,125.614C424.243,104.964 444.705,84.018 465.705,63.69C489.927,40.274 527.011,38.77 553.462,59.581C555.798,61.407 557.947,63.448 560.014,65.542C595.729,101.203 631.39,136.865 667.025,172.526C667.831,173.305 668.556,174.164 669.146,174.809C660.284,177.387 651.557,179.938 642.749,182.382C641.245,182.812 639.5,182.651 637.889,182.731C625.483,183.402 612.862,182.758 600.778,185.148C592.561,186.759 584.747,191.969 577.523,196.695C567.722,203.113 558.538,210.444 549.3,217.721C545.326,220.836 540.949,222.125 536.169,222.098C528.328,222.044 520.487,221.158 512.672,221.266C502.683,221.373 493.15,223.737 484.154,228.355C473.681,233.699 463.128,238.774 452.467,243.661C449.594,244.977 446.183,245.218 443.015,245.809C431.871,247.85 420.673,249.703 409.556,251.958C407.354,252.441 405.421,254.455 402.95,256.04C410.523,262.028 418.874,263.452 426.93,264.391C439.578,265.814 452.387,266.11 465.142,266.539C480.207,267.049 495.298,267.506 510.363,267.479C586.224,267.264 662.085,266.835 737.972,266.673C745.921,266.646 753.896,267.747 761.872,268.633C766.625,269.143 769.31,275.158 767.323,279.401C759.965,295.325 752.768,311.303 745.491,327.254C744.927,328.543 744.39,329.912 743.719,331.551C730.427,318.339 713.724,312.109 696.323,310.498C674.679,308.484 652.525,307.517 631.445,315.761C618.233,320.944 606.632,328.677 595.784,337.754C574.328,355.692 563.372,379.78 555.047,405.559C554.859,406.15 554.403,406.66 553.785,407.815L553.784,407.817Z" style="fill:rgb(69,28,21);fill-rule:nonzero;"/>
    </g>
    <g transform="matrix(0.058594,0,0,0.058594,0.000542,0)">
        <path d="M316.854,510.459C314.545,511.023 313.121,511.372 312.047,511.641C306.757,506.781 301.628,502.027 296.445,497.301C288.765,490.373 279.769,489.97 269.887,490.668C257.454,491.5 249.102,498.294 241.154,506.538C240.375,507.29 238.818,508.069 237.851,507.854C227.137,505.41 216.449,502.806 205.788,500.174C203.747,499.691 201.787,498.804 199.907,497.918C191.314,493.944 185.594,488.466 183.231,478.208C176.061,446.978 161.909,419.238 137.634,397.46C136.936,396.816 136.238,396.09 135.566,395.339C135.378,395.124 135.351,394.775 134.734,393.164C135.781,392.466 137.446,391.633 138.708,390.398C169.992,359.221 201.223,327.937 232.453,296.733C239.73,289.456 251.868,287.334 260.515,292.866C272.062,300.304 281.863,309.891 287.664,322.539C296.364,341.551 302.568,361.53 307.106,381.912C309.926,394.587 311.027,407.718 312.665,420.688C314.249,433.175 316.183,445.688 316.693,458.202C317.364,475.522 316.854,492.897 316.854,510.459Z" style="fill:rgb(69,28,21);fill-rule:nonzero;"/>
    </g>
    <g transform="matrix(0.058594,0,0,0.058594,0.000542,0)">
        <path d="M778.517,495.206C778.812,495.206 778.436,495.287 778.141,495.206C772.475,493.246 764.875,492.816 761.707,488.895C758.78,485.216 760.337,477.751 760.364,471.951C760.659,443.325 762.808,414.968 772.099,387.524C780.236,363.598 790.708,340.933 806.471,321.008C807.679,319.477 808.915,317.947 810.365,316.148C811.735,317.41 812.943,318.431 814.071,319.558C862.139,367.626 910.179,415.747 958.301,463.761C969.365,474.798 976.078,487.875 978.253,503.638C973.339,504.121 968.72,504.9 964.074,505.008C943.128,505.518 922.183,505.894 901.237,506.136C899.975,506.136 897.719,504.632 897.558,503.558C895.302,489.138 886.494,479.041 875.565,470.609C868.637,465.265 861.118,460.62 853.492,456.269C846.295,452.134 838.051,451.972 830.103,453.235C813.561,455.813 800.645,464.728 790.575,477.886C786.386,483.364 782.68,489.191 778.518,495.206L778.517,495.206Z" style="fill:rgb(69,28,21);fill-rule:nonzero;"/>
    </g>
    <g transform="matrix(0.058594,0,0,0.058594,0.000542,0)">
        <path d="M726.722,454.518C682.763,479.465 637.193,487.037 589.582,482.231C587.326,466.763 591.73,453.578 595.624,440.259C600.699,422.965 604.969,405.43 614.126,389.614C626.828,367.702 646.135,352.61 667.081,339.506C674.788,334.699 683.112,330.376 691.732,327.825C702.232,324.71 713.591,321.622 724.144,328.013C728.36,330.564 731.502,334.861 735.476,337.976C740.068,341.494 739.37,345.307 737.732,350.114C729.488,374.497 726.615,399.685 726.722,425.303C726.749,435.615 726.722,445.926 726.722,454.519L726.722,454.518Z" style="fill:rgb(69,28,21);fill-rule:nonzero;"/>
    </g>
    <g transform="matrix(0.058594,0,0,0.058594,0.000542,0)">
        <path d="M296.813,790.588C315.181,792.683 332.098,786.721 349.499,784.815C359.005,783.795 368.511,782.479 377.99,781.217C387.496,779.928 396.948,778.156 406.455,777.27C420.338,775.981 434.248,775.31 448.158,774.343C464.753,773.135 481.376,771.309 497.998,770.772C511.076,770.342 524.207,771.309 537.284,771.792C549.529,772.275 561.801,772.786 574.046,773.43C584.841,774.048 595.609,774.907 606.377,775.605C610.808,775.874 615.212,776.169 619.643,776.276C643.247,776.974 666.851,777.243 690.455,778.424C705.278,779.176 720.021,781.27 735.166,782.801C734.495,783.741 733.823,784.734 733.018,785.567C723.512,795.127 713.925,804.579 704.5,814.22C702.379,816.368 700.687,816.503 697.679,815.804C686.374,813.146 674.907,810.836 663.414,808.903C653.827,807.265 644.106,806.191 634.439,805.09C628.907,804.472 623.349,803.989 617.79,804.016C587.58,804.177 557.343,804.231 527.16,805.01C516.284,805.305 505.462,807.346 494.667,808.877C482.1,810.649 469.586,812.61 457.099,814.758C448.291,816.289 439.617,818.464 430.836,819.968C416.792,822.304 402.586,823.969 388.596,826.681C374.31,829.393 360.212,833.045 346.007,836.16C344.396,836.509 341.925,836.617 340.959,835.703C326.324,821.31 311.877,806.728 297.349,792.201C297.161,791.986 297.161,791.637 296.812,790.59L296.813,790.588Z" style="fill:rgb(69,28,21);fill-rule:nonzero;"/>
    </g>
    <g transform="matrix(0.058594,0,0,0.058594,0.000542,0)">
        <path d="M353.133,847.479C375.502,840.551 398.032,840.121 420.213,845.089C435.331,848.473 449.752,854.864 464.548,859.751C476.417,863.645 488.34,867.351 500.29,871.056C501.955,871.593 503.781,871.754 505.526,871.942C529.184,874.198 552.842,875.03 576.607,875.191C592.585,875.325 608.536,877.5 624.513,878.87C628.622,879.246 632.676,880.078 637.752,880.83C625.158,893.424 613.396,905.293 601.473,917.002C600.506,917.915 598.439,918.264 596.988,918.13C570.699,915.284 544.355,914.746 517.985,916.089C505.713,916.707 493.441,917.029 481.25,918.345C465.89,920.01 450.664,922.668 435.358,924.629C433.075,924.898 429.799,924.495 428.349,923.045C403.456,898.474 378.778,873.688 354.046,848.957C353.831,848.715 353.697,848.393 353.133,847.48L353.133,847.479Z" style="fill:rgb(69,28,21);fill-rule:nonzero;"/>
    </g>
    <g transform="matrix(0.058594,0,0,0.058594,0.000542,0)">
        <path d="M547.393,460.632C538.478,463.237 528.972,466.432 519.251,468.715C513.424,470.085 507.301,470.004 501.286,470.622C493.499,471.454 485.738,472.905 477.95,473.093C468.014,473.362 458.052,472.663 448.116,472.341C442.718,472.153 437.267,472.18 431.923,471.535C423.249,470.461 414.603,469.091 406.036,467.507C400.961,466.54 395.939,465.171 391.052,463.56C389.656,463.103 387.883,461.277 387.722,459.881C386.272,447.878 385.117,435.847 384.151,423.817C384.044,422.609 385.762,420.675 387.105,419.977C397.819,414.418 408.615,408.94 419.463,403.677C436.676,395.299 455.366,393.07 474.11,390.653C488.262,388.854 502.145,390.143 516.055,392.774C525.454,394.6 531.791,401.099 538.182,407.355C542.21,411.302 545.996,415.653 549.299,420.218C550.427,421.829 550.212,424.756 549.97,426.985C549.299,433.806 548.09,440.573 547.446,447.394C547.07,451.583 547.392,455.88 547.392,460.633L547.393,460.632Z" style="fill:rgb(69,28,21);fill-rule:nonzero;"/>
    </g>
    <g transform="matrix(0.058594,0,0,0.058594,0.000542,0)">
        <path d="M263.469,758.632C265.564,758.095 266.611,757.746 267.658,757.612C285.972,754.98 304.286,752.51 322.573,749.798C337.316,747.596 352.058,745.26 366.774,742.736C377.811,740.883 388.686,738.359 399.75,736.667C407,735.566 414.385,735.11 421.716,734.975C461.271,734.196 500.799,733.176 540.354,733.122C555.311,733.095 570.296,735.431 585.28,736.64C590.49,737.07 595.699,737.634 600.936,737.795C623.735,738.547 646.533,738.977 669.305,739.89C689.606,740.669 709.88,741.716 730.128,743.059C742.83,743.891 755.504,745.53 768.179,746.872C768.77,746.926 769.334,747.194 770.65,747.597C763.426,754.901 756.633,761.91 749.678,768.731C748.926,769.429 747.181,769.456 745.945,769.349C730.477,768.141 715.01,766.744 699.569,765.59C691.379,764.999 683.188,764.65 674.971,764.462C654.965,764.059 634.986,763.764 614.954,763.576C610.389,763.522 605.797,764.596 601.232,764.355C586.57,763.576 571.854,762.878 557.273,761.294C548.814,760.354 540.651,756.944 532.165,756.004C519.947,754.608 507.943,750.982 495.242,753.211C486.461,754.768 477.277,753.99 468.308,754.607C454.559,755.574 440.891,756.836 427.195,758.017C413.822,759.118 400.476,760.138 387.157,761.535C375.959,762.717 364.842,764.435 353.698,765.778C346.233,766.718 338.741,767.362 331.302,768.275C323.246,769.322 315.244,770.907 307.134,771.605C297.896,772.357 288.551,772.491 279.233,772.84C278.481,772.84 277.568,772.383 277.031,771.873C272.681,767.711 268.411,763.468 263.47,758.634L263.469,758.632Z" style="fill:rgb(69,28,21);fill-rule:nonzero;"/>
    </g>
    <g transform="matrix(0.058594,0,0,0.058594,0.000542,0)">
        <path d="M693.335,824.729C691.455,826.877 690.596,827.978 689.629,828.972C677.572,841.056 665.542,853.194 653.323,865.09C651.685,866.701 648.785,867.963 646.583,867.802C636.862,867.077 627.168,865.761 617.501,864.66C612.775,864.123 608.102,863.29 603.376,863.103C582.753,862.297 562.076,862.029 541.479,860.928C530.818,860.364 520.104,859.961 509.765,856.336C502.3,853.758 494.485,852.039 486.725,850.348C478.535,848.576 471.633,844.467 465.323,839.284C460.57,835.39 461.805,828.382 467.74,826.636C475.447,824.327 483.583,823.279 491.183,820.594C502.3,816.727 513.606,815.841 525.233,815.599C551.737,814.981 578.215,812.779 604.692,813.128C623.65,813.343 642.609,816.324 661.514,818.66C671.718,819.922 681.815,822.5 693.335,824.729Z" style="fill:rgb(69,28,21);fill-rule:nonzero;"/>
    </g>
    <g transform="matrix(0.058594,0,0,0.058594,0.000542,0)">
        <path d="M360.413,499.003C358.936,486.812 357.942,474.593 355.928,462.482C350.53,430.151 340.783,399.403 320.67,372.792C319.596,371.369 318.737,369.489 317.26,368.657C309.902,364.36 309.768,356.707 307.673,349.752C301.658,329.988 295.052,310.653 278.081,296.743C270.669,290.674 263.714,284.525 253.994,282.779C252.087,282.43 250.154,282.296 246.824,281.92C255.149,276.2 258.505,264.949 269.3,265.056C276.873,265.137 284.606,267.795 292.018,270.131C302.625,273.488 309.741,281.275 316.105,290.083C335.413,316.775 350.182,345.777 359.285,377.437C367.663,406.385 371.906,436.112 373.114,466.214C373.436,474.565 372.335,482.944 371.691,491.268C371.422,494.893 366.347,498.196 360.413,499.002L360.413,499.003Z" style="fill:rgb(69,28,21);fill-rule:nonzero;"/>
    </g>
    <g transform="matrix(0.058594,0,0,0.058594,0.000542,0)">
        <path d="M45.299,519.336C43.446,501.156 47.313,483.97 59.639,470.517C74.543,454.244 91.272,439.555 107.599,423.792C120.086,434.829 128.598,449.893 135.419,466.113C142.132,482.144 147.073,498.632 146.536,516.356C112.271,522.237 87.647,527.742 45.299,519.337L45.299,519.336Z" style="fill:rgb(69,28,21);fill-rule:nonzero;"/>
    </g>
    <g transform="matrix(0.058594,0,0,0.058594,0.000542,0)">
        <path d="M437.216,931.81C491.406,921.713 525.832,923.244 594.469,923.781C593.449,924.936 592.67,925.929 591.784,926.815C581.123,937.503 570.489,948.271 559.721,958.878C532.116,985.973 491.111,985.785 463.559,958.475C455.986,950.983 448.441,943.383 440.922,935.838C439.794,934.71 438.774,933.502 437.216,931.81Z" style="fill:rgb(69,28,21);fill-rule:nonzero;"/>
    </g>
    <g transform="matrix(0.058594,0,0,0.058594,0.000542,0)">
        <path d="M777.725,566.322C783.042,555.205 787.768,544.732 793.005,534.501C796.442,527.707 800.792,521.37 804.445,514.629C809.789,504.828 817.737,497.658 827.244,492.206C840.08,484.821 851.815,490.541 859.871,504.693C866.907,517.072 870.666,530.526 871.686,544.758C871.928,547.819 872.25,551.015 873.217,553.915C874.587,558.158 872.626,560.118 869.055,560.951C860.999,562.831 852.916,564.522 844.833,566.187C835.918,567.986 827.002,569.571 818.141,571.531C804.499,574.592 791.771,571.262 777.727,566.321L777.725,566.322Z" style="fill:rgb(69,28,21);fill-rule:nonzero;"/>
    </g>
    <g transform="matrix(0.058594,0,0,0.058594,0.000542,0)">
        <path d="M698.005,320.071C695.105,320.528 692.124,320.742 689.278,321.494C669.326,326.892 652.838,338.17 636.833,350.845C605.79,375.47 592.767,409.385 585.838,446.658C583.77,457.722 582.696,468.946 581.139,480.359C572.895,479.795 565.591,476.062 558.636,471.497C557.777,470.96 557.293,469.322 557.266,468.167C557.159,460.863 556.809,453.505 557.373,446.255C557.856,439.944 559.36,433.741 560.515,427.511C563.899,409.492 569.914,392.387 578.346,376.114C586.456,360.512 598.191,348.186 612.074,337.741C624.749,328.181 638.766,321.253 654.556,319.185C664.25,317.896 674.186,318.299 684.014,318.245C688.633,318.191 693.305,318.809 697.924,319.131L698.005,320.071Z" style="fill:rgb(69,28,21);fill-rule:nonzero;"/>
    </g>
    <g transform="matrix(0.058594,0,0,0.058594,0.000542,0)">
        <path d="M778.257,284.635C786.77,293.148 795.094,301.472 803.526,309.904C763.676,360.415 747.698,418.499 751.78,483.081C747.054,480.691 742.784,478.811 738.917,476.287C737.601,475.428 736.688,472.823 736.769,471.077C737.548,450.319 738.729,429.562 739.535,408.804C741.227,364.415 756.882,324.377 777.318,285.789C777.506,285.359 777.909,285.037 778.258,284.634L778.257,284.635Z" style="fill:rgb(69,28,21);fill-rule:nonzero;"/>
    </g>
    <g transform="matrix(0.058594,0,0,0.058594,0.000542,0)">
        <path d="M485.141,706.099C488.632,706.502 492.177,707.361 495.668,707.2C505.604,706.663 515.513,705.83 525.422,704.944C543.843,703.306 562.184,701.238 580.767,702.984C592.985,704.112 605.365,703.548 617.637,704.488C623.974,704.945 630.178,707.066 636.488,708.409C637.696,708.651 638.959,708.973 640.14,708.866C644.463,708.436 648.814,707.389 653.137,707.362C672.364,707.201 691.591,706.986 710.791,707.416C720.539,707.631 730.233,709.188 739.927,710.101C747.714,710.853 755.502,711.336 763.263,712.249C775.642,713.645 787.968,715.337 801.986,717.136C797.851,721.03 795.219,724.736 791.621,726.588C788.989,727.904 785.122,727.098 781.846,726.722C768.58,725.272 755.288,724.064 742.13,721.915C720.352,718.317 698.332,719.579 676.5,717.968C665.141,717.109 653.889,715.041 642.611,713.537C640.651,713.322 638.69,713.188 636.703,713.161C617.422,712.866 598.142,712.597 578.861,712.221C569.167,712.006 559.527,711.362 549.859,711.281C544.005,711.227 538.124,712.275 532.297,712.113C519.219,711.71 506.142,710.958 493.064,710.099C490.325,709.911 487.613,708.542 484.874,707.736C484.981,707.199 485.062,706.635 485.143,706.098L485.141,706.099Z" style="fill:rgb(69,28,21);fill-rule:nonzero;"/>
    </g>
    <g transform="matrix(0.058594,0,0,0.058594,0.000542,0)">
        <path d="M317.821,550.204C306.65,549.264 296.419,548.539 286.215,547.438C276.199,546.364 266.236,545.021 256.247,543.544C251.628,542.846 247.009,541.772 242.525,540.456C241.37,540.161 239.84,538.281 239.947,537.234C240.189,533.367 240.457,529.312 241.827,525.768C248.863,507.615 258.503,498.378 278.804,497.465C282.107,497.331 286.081,498.727 288.74,500.741C298.085,507.803 306.436,515.752 310.142,527.514C311.968,533.234 314.788,538.604 316.963,544.163C317.527,545.64 317.446,547.359 317.822,550.205L317.821,550.204Z" style="fill:rgb(69,28,21);fill-rule:nonzero;"/>
    </g>
    <g transform="matrix(0.058594,0,0,0.058594,0.000542,0)">
        <path d="M325.476,508.45C329.692,461.994 322.522,417.068 314.224,370.853C341.641,410.596 351.55,454.34 354.316,500.233C344.488,503.026 335.358,505.631 325.475,508.45L325.476,508.45Z" style="fill:rgb(69,28,21);fill-rule:nonzero;"/>
    </g>
    <g transform="matrix(0.058594,0,0,0.058594,0.000542,0)">
        <path d="M176.486,511.549C168.349,512.945 161.529,514.1 154.815,515.255C152.989,476.935 138.676,444.872 111.554,418.744C116.012,414.313 120.98,409.399 126.028,404.404C157.984,432.385 167.382,471.564 176.486,511.549Z" style="fill:rgb(69,28,21);fill-rule:nonzero;"/>
    </g>
    <g transform="matrix(0.058594,0,0,0.058594,0.000542,0)">
        <path d="M505.942,384.949C461.527,380.652 420.683,391.152 382.363,414.837C381.369,408.553 380.51,402.914 379.57,396.792C387.089,391.985 394.5,387.071 402.127,382.533C415.043,374.88 428.927,368.811 443.723,366.716C458.546,364.595 473.315,367.575 487.118,373.537C493.751,376.41 499.954,380.277 506.345,383.688C506.211,384.091 506.076,384.52 505.942,384.95L505.942,384.949Z" style="fill:rgb(69,28,21);fill-rule:nonzero;"/>
    </g>
    <g transform="matrix(0.058594,0,0,0.058594,0.000542,0)">
        <path d="M860.114,470.396C852.649,471.014 847.6,474.854 843.196,479.956C842.149,481.138 840.35,482.4 838.953,482.319C829.339,481.836 822.331,487.126 815.107,492.174C805.306,499.022 799.801,509.092 794.457,519.242C786.938,533.555 779.741,548.083 772.41,562.476C765.724,558.555 764.649,556.192 767.55,546.82C773.538,527.62 780.44,508.661 791.396,491.744C800.472,477.673 812.476,466.341 829.716,462.474C841.021,459.923 850.957,462.796 860.114,470.396Z" style="fill:rgb(69,28,21);fill-rule:nonzero;"/>
    </g>
    <g transform="matrix(0.058594,0,0,0.058594,0.000542,0)">
        <path d="M184.442,596.311C188.47,586.348 191.827,576.789 196.15,567.712C198.701,562.476 205.817,560.408 211.483,561.751C224.937,564.973 235.946,572.17 244.593,582.804C246.983,585.704 248.111,589.678 250.259,594.136C228.32,596.821 207.455,602.514 184.441,596.311L184.442,596.311Z" style="fill:rgb(69,28,21);fill-rule:nonzero;"/>
    </g>
    <g transform="matrix(0.058594,0,0,0.058594,0.000542,0)">
        <path d="M881.462,555.194C879.072,542.895 877.649,531.912 874.668,521.359C871.822,510.994 867.122,501.112 859.711,493.056C856.462,489.511 852.058,487.095 848.164,484.141C854.125,473.856 869.11,472.916 876.87,482.396C891.935,500.764 893.627,522.166 890.001,544.347C889.383,548.106 884.711,551.221 881.462,555.196L881.462,555.194Z" style="fill:rgb(69,28,21);fill-rule:nonzero;"/>
    </g>
    <g transform="matrix(0.058594,0,0,0.058594,0.000542,0)">
        <path d="M380.665,712.114C374.22,713.43 367.829,714.853 361.357,716.088C350.267,718.183 339.149,720.25 328.005,722.211C313.182,724.843 298.332,727.179 283.536,729.998C273.036,731.985 262.617,734.321 252.279,736.926C243.713,739.074 243.766,739.316 237.134,731.69C243.794,729.381 249.916,726.561 256.334,725.191C268.982,722.425 281.791,720.411 294.546,718.155C308.698,715.631 322.823,712.811 337.082,710.77C345.138,709.588 353.355,709.535 361.492,709.293C367.829,709.132 374.167,709.454 380.504,709.562C380.558,710.421 380.611,711.254 380.665,712.113L380.665,712.114Z" style="fill:rgb(69,28,21);fill-rule:nonzero;"/>
    </g>
    <g transform="matrix(0.058594,0,0,0.058594,0.000542,0)">
        <path d="M342.392,577.313C346.474,566.921 350.743,563.859 356.571,566.572C362.291,569.204 363.445,573.688 360.196,579.354C357.913,583.382 354.1,582.442 351.066,581.825C348.058,581.181 345.373,578.952 342.392,577.314L342.392,577.313Z" style="fill:rgb(69,28,21);fill-rule:nonzero;"/>
    </g>
    <g transform="matrix(0.058594,0,0,0.058594,0.000542,0)">
        <path d="M581.615,646.86C579.547,653.976 576.781,656.715 571.867,656.984C567.651,657.226 564.67,654.755 563.542,651.479C562.28,647.8 565.637,645.249 568.483,643.423C573.773,640.013 577.613,643.423 581.614,646.86L581.615,646.86Z" style="fill:rgb(69,28,21);fill-rule:nonzero;"/>
    </g>
    <g transform="matrix(0.058594,0,0,0.058594,0.000542,0)">
        <path d="M628.439,565.481C634.427,554.713 637.489,553.961 646.592,560.97C644.041,571.953 637.677,573.537 628.439,565.481Z" style="fill:rgb(69,28,21);fill-rule:nonzero;"/>
    </g>
    <g transform="matrix(0.058594,0,0,0.058594,0.000542,0)">
        <path d="M371.242,626.616C377.66,626.858 382.306,630.107 382.279,633.356C382.252,637.33 378.144,642.943 375.324,642.835C372.182,642.754 367.832,636.202 368.342,631.422C368.53,629.515 370.49,627.797 371.242,626.615L371.242,626.616Z" style="fill:rgb(69,28,21);fill-rule:nonzero;"/>
    </g>
    <g transform="matrix(0.058594,0,0,0.058594,0.000542,0)">
        <path d="M672.164,624.902C674.232,621.465 673.238,615.074 679.817,615.852C682.475,616.174 686.208,618.537 686.987,620.793C687.739,622.941 686.047,627.345 684.006,628.742C679.307,632.018 675.52,628.849 672.164,624.902Z" style="fill:rgb(69,28,21);fill-rule:nonzero;"/>
    </g>
    <g transform="matrix(0.058594,0,0,0.058594,0.000542,0)">
        <path d="M265.752,635.018C265.859,640.281 263.362,644.094 259.737,644.121C256.837,644.148 251.788,639.744 251.654,637.005C251.439,633.648 255.091,629.164 258.018,629.164C262.234,629.164 265.671,631.769 265.752,635.018Z" style="fill:rgb(69,28,21);fill-rule:nonzero;"/>
    </g>
    <g transform="matrix(0.058594,0,0,0.058594,0.000542,0)">
        <path d="M509.535,502.215C513.133,502.161 516.624,505.196 516.275,508.499C515.899,511.721 514.503,515.4 510.824,514.622C508.273,514.085 505.238,511.292 504.218,508.768C502.956,505.492 506.178,502.269 509.535,502.216L509.535,502.215Z" style="fill:rgb(69,28,21);fill-rule:nonzero;"/>
    </g>
    <g transform="matrix(0.058594,0,0,0.058594,0.000542,0)">
        <path d="M448.621,546.362C444.566,545.503 441.505,541.797 443.009,539.246C444.432,536.829 446.983,534.842 449.481,533.419C450.448,532.855 452.999,533.849 454.019,534.896C454.825,535.702 454.905,538.092 454.288,539.139C452.731,541.744 450.555,543.973 448.622,546.363L448.621,546.362Z" style="fill:rgb(69,28,21);fill-rule:nonzero;"/>
    </g>
    <g transform="matrix(0.058594,0,0,0.058594,0.000542,0)">
        <path d="M788.84,670.875C785.752,667.787 782.798,666.149 782.449,664.108C782.127,661.933 783.228,658.388 787.283,658.952C790.129,659.355 793.137,660.16 792.734,663.651C792.519,665.692 790.72,667.572 788.84,670.875Z" style="fill:rgb(69,28,21);fill-rule:nonzero;"/>
    </g>
</svg>
