<?xml version="1.0" encoding="UTF-8" standalone="no"?>
<!DOCTYPE svg PUBLIC "-//W3C//DTD SVG 1.1//EN" "http://www.w3.org/Graphics/SVG/1.1/DTD/svg11.dtd">
<svg width="100%" height="100%" viewBox="0 0 61 60" version="1.1" xmlns="http://www.w3.org/2000/svg" xmlns:xlink="http://www.w3.org/1999/xlink" xml:space="preserve" xmlns:serif="http://www.serif.com/" style="fill-rule:evenodd;clip-rule:evenodd;stroke-linejoin:round;stroke-miterlimit:2;">
    <g transform="matrix(0.058594,0,0,0.058594,-0.000011,-0.000031)">
        <path d="M511.96,1009.647C486.288,1009.647 462.174,999.658 444.021,981.532L42.429,579.94C4.995,542.48 4.995,481.522 42.429,444.116L444.048,42.497C462.201,24.344 486.288,14.355 511.96,14.355C537.605,14.355 561.692,24.344 579.845,42.497L981.464,444.116C999.617,462.242 1009.579,486.356 1009.579,512.028C1009.579,537.673 999.616,561.787 981.464,579.94L579.872,981.532C561.719,999.658 537.605,1009.647 511.96,1009.647Z" style="fill:rgb(232,203,158);fill-rule:nonzero;"/>
    </g>
    <g transform="matrix(0.058594,0,0,0.058594,-0.000011,-0.000031)">
        <path d="M511.919,14.436C487.304,14.435 462.71,23.798 444.025,42.483L42.444,444.104C5.055,481.493 5.055,542.503 42.444,579.892L444.025,981.513C462.722,1000.194 487.346,1009.559 511.958,1009.56C536.57,1009.561 561.143,1000.191 579.852,981.513L981.473,579.892C1018.833,542.501 1018.833,481.495 981.473,444.104L579.852,42.483C561.155,23.802 536.533,14.437 511.919,14.436Z" style="fill:rgb(232,203,158);fill-rule:nonzero;"/>
    </g>
    <g transform="matrix(0.058594,0,0,0.058594,-0.000011,-0.000031)">
        <path d="M14.564,513.532C14.942,539.123 24.65,561.937 43.661,580.922L356.286,893.547C385.221,922.482 414.21,951.391 443.092,980.38C459.838,997.126 479.875,1007.104 503.417,1008.965C533.943,1011.392 559.993,1001.253 581.728,979.517C669.505,891.579 757.443,803.748 845.327,715.891C890.604,670.587 935.989,625.445 981.104,580.006C1003.729,557.219 1012.574,529.524 1008.232,497.731C1005.158,475.483 994.533,457.227 978.73,441.478C849.155,312.011 719.634,182.463 590.113,52.915C586.014,48.843 581.996,44.663 577.789,40.753C561.447,25.463 542.058,16.564 519.784,14.973C489.204,12.789 463.316,23.225 441.688,45.014C396.896,90.075 351.862,134.921 306.962,179.821C219.428,267.355 131.921,354.889 44.333,442.369C24.944,461.731 14.751,484.815 14.562,513.534L14.564,513.532ZM1024.036,512.723C1023.524,542.521 1013.034,568.733 991.676,590.117C858.245,723.71 724.706,857.195 591.194,990.68C566.924,1014.896 537.53,1026.06 503.39,1023.687C475.452,1021.718 451.884,1009.88 432.144,990.06C374.894,932.729 317.536,875.452 260.258,818.147C184.859,742.775 109.514,667.349 34.061,592.031C9.656,567.653 -1.967,538.34 0.272,504.039C2.079,476.317 13.432,452.64 33.117,432.955C85.405,380.667 137.694,328.378 189.955,276.09C270.936,195.109 351.917,114.128 432.979,33.201C457.222,8.931 486.724,-2.098 520.81,0.329C547.237,2.244 570.348,12.653 589.09,31.395C723.384,165.5 857.597,299.66 991.757,433.954C1013.249,455.5 1023.686,481.874 1024.036,512.724L1024.036,512.723Z" style="fill:rgb(69,28,21);fill-rule:nonzero;"/>
    </g>
    <g transform="matrix(0.058594,0,0,0.058594,-0.000011,-0.000031)">
        <path d="M511.337,241.319L511.391,240.699C515.867,240.699 520.398,241.157 524.74,240.537C528.569,239.998 532.156,238.164 535.904,237.031C553.999,231.503 570.125,213.112 569.451,193.264C569.127,184.284 567.536,175.358 566.161,166.486C563.734,150.764 553.999,140.517 540.516,133.236C529.891,127.546 518.403,126.09 506.7,126.872C493.999,127.735 481.594,131.51 472.884,140.76C457.162,157.371 450.987,178.001 454.681,200.653C457.944,220.662 471.508,232.582 489.873,238.784C496.561,241.022 504.165,240.537 511.338,241.319L511.337,241.319ZM980.153,520.182C977.106,520.344 974.598,520.263 972.198,520.667C969.987,521.045 967.883,521.961 966.616,522.366C963.137,517.242 959.901,512.415 956.342,507.184C957.69,504.326 959.767,500.415 961.304,496.316C964.297,488.253 962.221,482.536 954.805,478.437C951.758,476.738 950.032,475.525 951.461,471.345C953.376,465.817 948.953,459.075 942.724,456.513C940.162,455.434 937.492,454.652 934.607,453.681C933.555,447.101 937.223,438.876 929.025,434.669C922.337,431.244 915.676,432.781 909.151,436.476C908.045,427.955 904.27,421.806 895.937,419.46C886.66,416.871 882.508,424.503 876.602,429.788C874.93,421.32 870.4,415.118 862.795,412.287C853.303,408.754 849.446,416.251 844.889,424.206C843.109,420.754 841.734,418.435 840.628,415.954C839.792,414.012 839.441,411.828 838.605,409.886C835.396,402.74 831.189,400.852 821.373,402.416C820.591,396.133 817.004,391.737 811.018,389.553C805.058,387.342 799.746,388.636 794.73,393.922C793.058,387.261 791.197,381.356 784.483,378.955C777.31,376.393 773.292,381.76 767.898,385.319C764.905,379.548 760.374,375.233 753.606,375.045C746.783,374.802 742.415,378.982 739.556,385.319C734.54,380.95 729.74,375.611 722.729,379.251C715.583,382.945 714.909,390.361 714.154,397.427C702.235,395.647 699.889,397.13 693.956,411.585C692.176,404.682 690.666,398.911 689.156,393.194C686.351,382.38 684.221,371.351 680.338,360.996C678.828,357.059 673.596,353.877 669.363,351.746C653.587,343.737 637.704,335.944 621.551,328.743C605.91,321.759 590.081,315.098 573.955,309.354C565.164,306.199 555.914,306.819 546.53,309.462C531.968,313.588 516.84,315.664 502.278,319.763C471.509,328.446 440.956,337.858 410.268,346.945C396.704,350.936 382.978,354.657 369.494,358.972C364.856,360.428 359.678,362.316 356.631,365.687C353.449,369.166 352.289,374.64 350.752,379.386C348.217,387.179 346.114,395.108 343.714,403.198C341.799,402.928 339.966,402.686 338.375,402.47C337.917,398.722 338.564,394.299 336.676,391.629C334.869,388.959 330.501,388.069 326.267,385.885C326.806,380.977 325.458,374.316 318.986,372.995C313.781,371.889 307.795,374.37 302.159,375.26C301.404,373.939 300.379,371.026 298.411,369.112C293.368,364.366 285.575,365.849 282.096,372.105C280.289,375.341 278.995,378.928 277.404,382.514C277.35,382.514 276.892,382.757 276.757,382.649C271.957,378.253 267.534,379.359 262.869,383.107C260.253,385.183 257.503,384.833 255.48,381.624C250.114,372.968 242.617,371.862 233.179,378.496C228.46,373.291 223.363,371.916 215.947,374.505C208.396,377.175 206.185,382.46 204.594,388.824C189.466,386.667 188.765,387.098 184.747,401.148C181.026,400.905 177.331,400.501 173.61,400.474C168.325,400.474 165.79,402.793 165.439,408.133C165.196,411.18 164.172,413.122 161.394,414.659C155.165,418.057 151.147,423.234 150.122,431.082C144.162,425.985 139.929,418.003 130.625,420.646C122.454,422.965 118.247,428.763 117.546,437.608C110.912,434.183 104.036,432.457 97.294,435.936C89.366,440.062 92.737,448.071 91.928,454.759C89.582,455.595 87.29,456.323 85.025,457.24C76.719,460.53 73.942,465.761 75.56,474.499C75.776,475.632 75.075,477.519 74.158,478.166C62.643,486.445 61.133,494.724 69.304,506.454C69.87,507.263 70.437,508.072 70.491,508.126C66.877,513.25 63.534,518.05 60.055,523.012C55.579,522.446 49.996,521.772 43.875,520.989C41.556,509.285 43.093,497.366 48.298,486.391C52.046,478.517 56.873,470.589 62.995,464.44C196.264,330.739 329.777,197.254 463.343,63.823C491.469,35.778 532.486,35.724 560.585,63.796C694.124,197.2 827.582,330.739 961.121,464.251C973.957,477.114 980.24,492.782 981.049,510.769C981.103,512.414 981.022,514.086 980.86,515.731C980.752,517.187 980.402,518.616 980.159,520.181L980.153,520.182Z" style="fill:rgb(69,28,21);fill-rule:nonzero;"/>
    </g>
    <g transform="matrix(0.058594,0,0,0.058594,-0.000011,-0.000031)">
        <path d="M670.648,786.904C673.884,788.387 676.419,789.088 678.441,790.545C682.594,793.511 685.992,797.206 685.048,802.869C684.131,808.532 680.41,811.66 674.882,812.739C673.803,812.955 672.671,813.063 671.107,813.332C673.399,817.026 678.631,818.968 676.554,824.415C675.017,828.487 674.693,833.53 672.024,836.55C667.844,841.269 662.478,839.004 657.327,834.932L657.327,844.559C657.246,857.072 652.851,860.335 641.066,856.397C640.661,861.898 641.497,868.586 634.945,870.635C626.72,873.197 621.03,867.777 614.639,862.329C614.639,863.731 614.342,865.241 614.72,866.563C615.853,871.013 618.064,875.462 614.585,879.75C613.479,881.125 611.646,882.528 609.974,882.77C601.965,884.01 594.927,882.096 589.83,875.246C589.399,874.626 588.832,874.113 587.834,872.954C586.674,877.35 586.135,881.206 584.679,884.685C581.146,892.937 576.319,893.773 570.09,887.355C567.393,884.577 565.047,881.449 562.512,878.429C560.651,880.991 558.818,883.634 556.876,886.195C552.292,892.182 548.247,893.665 542.476,891.723C536.948,889.808 534.898,886.411 534.817,878.995L534.817,875.678C532.174,878.186 530.179,880.505 527.806,882.231C519.608,888.218 514.188,887.031 508.282,880.964C503.752,876.299 506.367,871.526 507.527,866.672C507.905,865.162 507.851,863.571 508.093,861.171C504.021,864.731 501.486,868.074 498.088,869.612C495.23,870.933 490.996,871.23 488.11,870.07C483.849,868.425 483.418,863.895 484.82,859.904C486.33,855.616 488.487,851.598 490.672,846.744C484.389,846.771 478.672,847.904 473.872,842.672C468.047,836.335 473.548,831.831 474.87,826.222C474.654,826.033 474.196,825.602 473.656,825.251C462.977,818.186 467.481,809.637 474.061,804.379C477.702,801.467 478.025,799.956 474.573,796.801C470.177,792.756 466.645,788.873 469.395,781.942C471.202,777.304 474.087,775.443 478.51,775.524C483.58,775.659 488.676,776.36 493.746,776.522C498.519,776.63 498.87,775.767 497.36,771.344C495.877,767.083 494.178,763.011 495.958,758.049C497.63,753.384 500.677,752.629 504.372,753.761C508.039,754.921 511.437,757.051 516.022,759.262C517.02,757.401 518.314,755.163 519.447,752.898C520.013,751.711 520.175,750.39 520.687,749.177C524.489,740.548 527.456,739.253 536.543,742.247C538.7,742.975 540.75,743.973 542.88,744.863C540.345,739.119 534.547,734.589 529.478,734.777C518.61,735.208 515.779,743.919 512.327,751.874C506.098,749.878 500.138,744.863 493.396,751.119C487.355,756.701 488.111,763.416 489.594,770.238C482.825,771.856 474.493,765.896 473.225,757.752C471.985,749.851 471.796,746.075 489.243,741.518C490.403,734.992 491.346,728.763 492.641,722.614C493.342,719.297 494.906,718.245 499.005,719.054C505.666,720.321 510.87,723.261 514.834,727.845C515.589,722.128 515.751,716.168 517.234,710.559C519.418,702.334 526.538,700.446 533.333,705.786C535.517,707.512 537.594,709.346 540.102,711.503C542.151,708.833 544.363,706.164 546.358,703.305C553.666,692.842 561.163,697.615 565.1,705.651C565.774,707.107 566.179,708.725 566.664,710.101C570.008,705.732 573.19,701.094 576.83,696.941C581.01,692.168 585.163,692.087 590.179,696.132C595.788,700.662 598.862,706.73 600.75,714.469C605.55,709.723 609.056,701.498 617.415,706.271C623.779,709.885 626.799,715.817 625.505,724.042C631.168,720.887 636.238,716.842 642.386,719.754C648.292,722.532 649.532,728.249 649.883,734.828C655.061,731.134 659.537,732.32 663.528,736.446C668.22,741.354 663.231,745.83 662.53,751.332C667.735,747.503 672.804,748.312 675.177,752.842C676.714,755.727 674.799,760.366 674.395,764.707C678.036,765.867 683.24,767.781 683.941,773.687C684.507,778.541 678.575,784.231 670.646,786.901L670.648,786.904Z" style="fill:rgb(69,28,21);fill-rule:nonzero;"/>
    </g>
    <g transform="matrix(0.058594,0,0,0.058594,-0.000011,-0.000031)">
        <path d="M650.272,428.791C649.706,426.391 649.166,424.207 648.492,422.049C648.465,421.941 646.2,422.157 646.038,422.615C645.148,424.934 644.609,427.388 643.8,430.408C646.47,429.734 647.953,429.356 650.272,428.79L650.272,428.791ZM374.753,420.944C372.299,420.108 369.98,419.272 367.634,418.463C363.993,426.364 365.045,428.602 373.378,431.299C373.809,428.09 374.214,424.908 374.753,420.944ZM562.36,447.048C550.818,446.832 549.928,447.048 552.032,458.644C555.592,457.7 559.124,456.756 562.873,455.732C562.711,452.793 562.576,450.069 562.361,447.049L562.36,447.048ZM395.167,413.609C394.897,416.036 394.52,417.978 394.493,419.892C394.493,421.213 394.601,423.344 395.329,423.694C402.098,426.957 400.156,432.728 399.212,437.798C398.592,441.331 399.617,442.517 403.581,443.057C403.851,436.936 403.446,430.949 404.471,425.205C406.062,416.468 405.9,418.167 397.918,414.58C397.217,414.256 396.408,414.041 395.167,413.609ZM612.383,434.266C608.796,435.237 606.046,435.722 603.484,436.666C599.843,438.014 598.199,436.666 597.74,433.16C597.255,429.546 596.958,425.906 596.23,422.4C596.014,421.24 594.666,420.324 593.83,419.299C592.886,420.566 591.052,421.915 591.133,423.128C591.78,430.948 592.859,438.742 593.884,447.02C600.113,444.809 606.45,442.544 613.003,440.197C612.787,438.228 612.625,436.53 612.383,434.264L612.383,434.266ZM441.954,435.075C441.576,435.318 441.226,435.506 440.848,435.749C440.497,439.336 440.443,442.922 439.796,446.455C438.987,450.662 437.234,451.093 433.486,448.963C430.385,447.183 427.068,445.727 423.481,443.947C422.106,455.03 422.079,455.057 430.223,458.617C434.861,460.666 439.527,462.527 444.677,464.658C444.677,455.57 444.785,447.049 444.542,438.581C444.515,437.394 442.87,436.235 441.953,435.075L441.954,435.075ZM643.719,415.928C647.764,414.607 651.512,413.339 655.827,411.91C656.016,415.2 656.151,417.951 656.312,420.674C656.582,426.876 657.849,427.82 663.89,426.202C671.845,424.072 671.845,424.072 671.225,416.251C671.198,415.82 670.928,415.388 670.686,414.714C669.688,415.038 668.825,415.442 667.908,415.604C662.38,416.548 661.301,415.793 660.843,410.211C660.627,407.514 660.789,404.764 660.789,401.474C654.128,403.443 648.33,405.115 642.667,406.759C643.018,410.049 643.341,412.746 643.719,415.928ZM432.92,442.41C432.92,439.875 433.028,437.772 432.866,435.668C432.758,434.023 432.839,431.434 431.868,430.868C425.369,427.039 418.573,423.641 411.05,419.623C410.403,429.628 409.863,438.392 409.297,447.48C410.753,448.262 412.452,449.125 414.582,450.204C414.771,448.155 414.879,446.563 415.067,444.999C415.822,438.392 416.955,437.691 423.588,439.606C426.5,440.469 429.467,441.359 432.918,442.411L432.92,442.41ZM577.462,440.9C572.986,430.761 583.233,434.104 586.118,430.814C585.687,428.198 585.255,425.636 584.824,423.021C579.269,424.235 573.929,425.421 568.105,426.688C568.617,435.83 569.13,444.675 569.669,454.14C576.788,451.632 582.883,449.502 589.193,447.263C588.465,444.189 587.791,441.222 587.117,438.364C583.692,439.281 580.564,440.09 577.463,440.899L577.462,440.9ZM630.316,409.133C630.99,419.839 630.99,419.839 622.604,421.052C621.903,418.113 621.229,415.173 620.501,412.153C614.029,414.364 607.935,416.441 601.759,418.571C602.487,422.589 603.215,426.391 603.97,430.302C609.309,429.008 614.271,427.794 619.88,426.419C619.88,429.493 619.772,431.785 619.934,434.051C620.069,436.856 620.959,438.312 624.33,436.99C627.809,435.642 631.611,435.075 635.144,433.862C636.196,433.511 637.571,432.028 637.517,431.138C637.059,423.452 636.303,415.821 635.656,408.001C633.795,408.406 632.231,408.756 630.317,409.134L630.316,409.133ZM361.485,396.89C360.784,402.229 360.325,406.814 359.543,411.344C358.869,415.443 357.79,419.434 356.873,423.479C357.358,423.56 357.844,423.668 358.383,423.749C358.788,422.023 359.381,420.27 359.623,418.517C360.243,413.879 363.129,412.315 367.309,413.178C370.302,413.825 373.43,414.688 376.046,416.225C379.552,418.248 381.817,421.403 380.819,425.96C380.172,428.845 379.767,431.758 379.201,435.048C384.082,437.071 388.855,439.039 394.221,441.25C394.518,438.526 395.003,436.396 394.868,434.373C394.733,432.647 394.275,429.95 393.223,429.519C387.425,427.119 386.104,423.02 387.344,417.33C387.802,415.146 387.802,412.827 388.018,410.48C379.308,406.03 370.732,401.608 361.483,396.889L361.485,396.89ZM520.805,449.016C523.906,447.749 526.252,446.265 528.76,445.996C530.297,445.807 532.967,447.102 533.479,448.369C534.504,451.039 534.531,454.086 534.746,456.998C535.177,462.607 536.202,463.335 541.649,461.69C543.024,461.285 544.4,460.692 545.856,460.18C545.451,454.76 545.047,449.393 544.616,443.407C549.74,442.086 554.998,440.764 560.445,439.389L560.445,428.171C546.638,431.838 533.209,435.398 519.752,438.985C520.13,442.76 520.453,445.673 520.804,449.017L520.805,449.016ZM554.756,476.684C556.59,474.041 558.45,471.399 560.527,468.432C550.226,467.785 545.587,475.147 539.844,482.455C539.844,479.65 540.06,477.925 539.736,476.28C539.493,475.013 538.496,473.853 537.875,472.666C536.742,473.637 535.178,474.365 534.558,475.605C533.506,477.574 533.102,479.866 532.293,482.455C526.873,478.653 521.371,477.493 514.738,479.165C519.188,481.781 523.071,484.1 527.439,486.689C509.938,490.303 493.299,493.727 476.499,497.206C476.499,492.864 476.229,487.768 476.688,482.725C476.823,481.188 478.845,479.058 480.409,478.545C488.823,475.956 497.371,473.88 505.812,471.48C513.066,469.431 520.239,467.192 527.682,464.981L527.682,454.653C522.612,456.406 517.974,458.024 512.608,459.885L512.608,441.817C504.275,443.165 504.275,443.165 504.383,450.932C504.41,451.579 504.329,452.253 504.302,452.901C503.736,465.575 502.333,466.762 489.875,469.378C482.891,470.888 476.634,470.187 470.459,466.843C469.353,466.25 468.086,465.899 466.576,465.279C466.306,468.677 466.01,471.697 465.713,475.095C469.731,476.174 470.136,479.167 469.623,482.915C468.895,488.254 468.598,493.648 468.086,499.715C450.342,491.301 433.002,483.13 415.932,475.04C418.17,472.316 421.002,468.946 423.86,465.548L422.566,463.687C418.575,465.224 414.638,466.734 411.294,468.002C407.384,462.393 403.312,456.568 399.294,450.77C398.674,451.094 398.08,451.417 397.487,451.687C398.754,457.431 400.022,463.148 401.397,469.296C394.143,465.062 387.132,461.017 380.147,456.918C375.778,454.356 371.545,451.39 366.96,449.259C359.787,445.861 352.398,442.814 344.955,440.036C342.097,439.011 341.288,437.852 342.07,435.047C343.499,429.869 344.686,424.611 346.088,419.056C347.814,419.434 349.351,419.757 350.699,420.081C352.506,412.692 354.313,405.411 356.092,398.184C356.254,397.537 356.685,396.647 356.443,396.269C351.211,388.799 357.603,383.001 359.275,376.556C359.491,375.612 359.976,374.722 360.569,373.293C368.416,376.664 376.048,380.196 383.895,383.271C405.657,391.739 427.527,399.882 449.235,408.404C456.435,411.182 463.366,414.633 470.269,418.004C471.267,418.489 472.13,420.323 472.157,421.564C472.319,430.625 472.238,439.767 472.238,449.151C465.146,445.753 458.701,442.706 451.851,439.443C451.851,448.854 451.608,457.646 452.067,466.437C452.175,467.947 455.168,469.295 457.865,471.615C457.865,467.624 457.73,465.386 457.892,463.12C458.27,458.212 460.346,456.729 465.011,458.212C470.27,459.938 475.447,461.96 480.733,463.686C482,464.117 483.511,464.171 484.778,463.848C486.531,463.47 488.176,462.608 489.848,461.879C492.194,460.881 496.212,460.234 496.59,458.724C497.534,454.787 496.914,450.445 496.914,445.915C490.011,447.479 484.051,448.881 478.172,450.203L478.172,415.308C489.255,411.182 499.503,406.948 510.074,403.604C517.786,401.123 525.957,399.99 533.859,397.968C543.27,395.595 552.439,392.143 561.958,390.498C575.549,388.206 588.17,382.246 602.111,381.006C611.388,380.17 620.88,377.231 629.266,373.186C640.619,367.712 652.997,366.229 664.565,361.887C667.855,360.647 673.869,365.015 674.704,368.602C676.484,376.288 678.371,383.919 679.936,391.659C680.152,392.765 679.127,394.491 678.129,395.326C677.104,396.216 675.459,396.432 674.057,396.89C666.884,399.155 666.884,399.155 668.124,406.922C671.252,406.194 674.353,405.493 678.183,404.63L678.183,420.891C686.327,418.815 686.327,418.815 687.621,427.093C688.052,429.978 688.619,432.864 689.266,436.72C673.76,441.736 658.497,446.698 641.886,452.091C646.12,445.862 649.383,441.089 653.401,435.156C641.94,439.498 634.902,447.21 627.783,455.219C619.423,450.365 610.929,448.073 600.601,453.79C607.127,455.3 612.224,456.487 618.507,457.943C596.691,464.712 576.034,471.103 555.405,477.521C555.189,477.224 554.947,476.955 554.758,476.685L554.756,476.684Z" style="fill:rgb(69,28,21);fill-rule:nonzero;"/>
    </g>
    <g transform="matrix(0.058594,0,0,0.058594,-0.000011,-0.000031)">
        <path d="M236.088,720.458C228.187,722.022 221.661,720.863 217.076,714.067C216.429,713.123 215.566,712.233 214.622,711.64C207.988,707.19 207.233,699.397 204.213,693.006C202.325,689.015 208.042,682.867 213.382,682.354C214.542,682.246 215.701,682.381 216.834,682.3C220.933,682.003 222.416,679.468 220.771,675.693C217.427,668.007 218.047,663.315 222.578,659.135C226.353,655.683 230.264,655.629 234.174,658.38C237.086,660.429 239.702,662.91 243.154,665.796C243.154,656.277 246.714,648.295 255.882,646.434C263.514,644.87 265.968,652.906 269.878,658.542C270.876,652.178 273.95,647.486 279.991,646.218C286.193,644.897 291.425,649.427 298.436,661.05C300.701,658.974 302.939,656.816 305.286,654.848C309.331,651.504 314.59,652.34 316.855,657.167C319.201,662.156 320.765,667.495 322.518,672.214C325.997,670.677 329.88,668.439 334.087,667.144C338.294,665.849 341.314,668.438 342.231,672.349C343.525,677.608 344.038,683.109 344.901,688.529C348.649,687.019 353.449,682.381 358.33,687.046C362.78,691.334 363.939,697.185 362.645,703.631C364.263,703.496 365.962,703.442 367.634,703.146C376.533,701.717 377.827,702.607 380.578,710.697C381.684,714.014 381.009,715.956 377.989,717.466C372.865,720.055 369.063,724.504 363.022,726.203C356.388,728.064 356.469,734.751 357.359,740.765C354.689,740.765 352.181,740.36 349.835,740.846C345.52,741.763 343.767,746.32 345.008,750.662C346.141,754.788 346.491,759.157 347.246,763.687C340.154,763.768 335.273,766.842 333.709,773.692C332.145,780.542 335.812,785.611 340.99,790.708C336.136,794.564 332.469,799.391 331.444,806.16C330.473,812.335 334.195,817.729 341.071,819.023C341.88,826.223 342.635,833.181 343.174,838.035C306.715,801.468 268.692,763.337 231.1,725.665L239.945,725.665C240.565,720.946 240.134,716.281 241.887,712.613C243.963,708.244 248.737,708.325 253.618,710.456C250.166,705.818 245.501,704.496 241.213,706.492C236.197,708.838 234.741,712.775 236.089,720.461L236.088,720.458Z" style="fill:rgb(69,28,21);fill-rule:nonzero;"/>
    </g>
    <g transform="matrix(0.058594,0,0,0.058594,-0.000011,-0.000031)">
        <path d="M803.626,678.668C806.7,679.612 809.262,680.906 811.851,681.095C820.184,681.634 823.986,688.646 820.723,696.223C816.732,705.473 809.478,711.837 802.278,718.039C799.662,720.304 794.646,719.684 790.494,720.439C791.627,711.621 790.063,707.495 785.182,705.257C780.544,703.127 776.094,704.61 771.995,709.599C783.618,705.824 786.26,708.574 785.532,724.107L794.323,724.107C757.082,761.321 719.652,798.805 683.84,834.59C684.164,830.869 684.73,824.558 685.323,817.871C691.256,816.172 695.516,812.532 695.247,807.732C694.95,802.312 693.764,796.972 689.341,793.089C688.02,791.902 686.779,790.662 685.539,789.475C690.42,784.405 694.816,779.47 692.658,772.081C690.797,765.582 686.294,762.373 678.662,762.643C680.226,756.818 682.518,751.56 682.707,746.193C682.815,744.09 678.5,741.393 675.723,739.802C674.186,738.885 671.597,739.64 669.305,739.64C669.332,734.597 670.707,729.015 664.909,725.779C664.37,725.455 663.857,724.754 663.291,724.7C657.358,724.484 654.311,719.118 649.511,717.041C643.47,714.425 645.655,710.407 646.949,706.416C648.351,702.128 651.722,700.78 655.848,701.157C658.437,701.427 660.918,702.263 664.019,702.964C662.158,697.004 663.614,691.584 666.958,687.188C671.596,681.067 676.909,685.031 681.52,687.404C682.302,682.307 682.626,677.318 683.893,672.545C685.862,665.264 691.713,663.349 697.997,667.529C700.046,668.877 701.907,670.495 703.984,672.113C705.305,667.798 706.411,663.645 707.867,659.6C711.076,650.701 716.038,649.434 723.319,655.528C724.883,656.849 726.339,658.386 728.2,660.166C731.463,651.321 736.721,644.175 746.888,645.226C752.47,645.792 755.787,650.889 756.623,657.496C758.43,654.638 759.778,652.184 761.423,649.891C765.899,643.716 771.104,643.581 776.848,648.489C781.783,652.723 782.942,658.251 783.536,664.696C789.469,659.68 793.837,651.968 802.548,657.037C808.076,660.219 810.53,665.289 803.627,678.664L803.626,678.668Z" style="fill:rgb(69,28,21);fill-rule:nonzero;"/>
    </g>
    <g transform="matrix(0.058594,0,0,0.058594,-0.000011,-0.000031)">
        <path d="M355.82,788.096C347.46,785.184 342.067,779.251 342.525,774.154C342.849,770.756 347.703,766.981 353.366,765.902C351.694,761.722 348.027,757.569 351.883,753.066C355.335,749.102 359.515,749.237 363.964,752.635C363.748,747.269 358.031,742.711 362.939,737.642C366.93,733.516 371.407,732.114 376.719,736.267C376.881,729.93 377.771,724.456 383.191,721.435C389.582,717.875 394.787,721.543 400.611,725.291C400.287,716.095 403.092,708.518 412.153,706.414C419.542,704.715 422.05,711.996 425.69,716.607C433.834,712.292 438.634,714.288 441.519,723.079C442.544,726.18 443.838,729.173 445.672,733.92C447.02,731.844 447.668,730.576 448.53,729.524C451.415,726.045 455.353,724.319 459.532,725.641C463.793,727.016 467.137,730.064 468.431,734.81C470.238,741.66 470.831,748.374 467.271,754.873C466.786,755.736 465.869,756.626 464.979,756.949C457.617,759.43 455.622,764.473 459.424,770.81C460.53,772.725 461.366,774.801 462.417,776.878C454.705,788.15 457.347,798.236 469.941,802.2C468.485,802.901 467.676,803.521 466.813,803.683C459.181,804.923 453.464,810.047 453.033,817.49C452.925,819.539 455.784,822.371 457.941,823.8C460.53,825.553 463.901,826.173 465.869,826.928C463.981,831.431 461.662,835.665 460.368,840.223C458.561,846.722 463.415,851.145 470.157,849.634C471.991,849.203 473.905,848.933 476.251,848.528C475.091,853.355 474.228,857.562 472.907,861.634C472.691,862.389 470.804,863.09 469.752,863.009C467.46,862.901 465.141,862.524 462.956,861.795C452.169,858.343 442.893,864.249 433.05,866.595C432.106,866.811 431.081,868.132 430.704,869.13C429.895,871.476 429.544,873.957 428.843,876.276C428.034,878.865 427.495,883.018 425.931,883.503C422.506,884.609 418.434,884.258 414.767,883.638C411.585,883.099 409.32,877.301 410.264,873.202C410.749,870.964 411.666,868.806 412.152,866.595C412.368,865.597 411.99,864.492 411.721,861.957C406.301,868.105 401.447,872.474 394.247,872.339C388.368,872.204 386.4,869.076 385.078,857.912C384.754,857.858 384.377,857.615 384.188,857.75C375.37,862.712 369.761,857.777 369.356,847.584C369.194,844.132 369.329,840.654 369.329,836.689C363.181,839.871 357.005,843.404 352.448,835.179C347.972,827.062 348.888,820.806 355.846,814.711C348.107,813.551 341.311,811.151 341.419,802.306C341.527,793.919 348.754,791.196 355.819,788.095L355.82,788.096Z" style="fill:rgb(69,28,21);fill-rule:nonzero;"/>
    </g>
    <g transform="matrix(0.058594,0,0,0.058594,-0.000011,-0.000031)">
        <path d="M769.332,392.915C771.813,391.324 774.024,389.706 776.451,388.412C782.006,385.5 785.053,386.389 787.696,392.133C789.449,395.827 790.474,399.819 791.552,402.866C795.516,401.14 799.642,399.064 804.011,397.527C808.514,395.963 810.375,397.257 811.346,401.815C811.67,403.379 811.643,405.051 811.939,406.669C812.829,411.442 816.362,413.222 820.649,411.145C827.526,407.855 828.982,408.475 831.624,415.217C829.278,418.075 826.312,420.502 825.152,423.577C824.181,426.139 825.341,429.51 826.527,432.584C827.039,431.02 827.255,429.348 828.064,427.973C829.143,426.058 830.626,422.984 831.974,422.984C833.889,422.984 836.154,424.98 837.664,426.678C840.496,429.752 842.869,433.285 846.239,437.653C847.506,433.203 848.073,429.833 849.421,426.839C850.635,424.142 852.199,420.906 854.545,419.423C860.235,415.944 864.819,417.94 867.354,424.331C869.754,430.372 871.857,436.52 874.338,443.208C875.282,442.102 876.468,441.132 877.25,439.864C879.219,436.655 880.459,432.826 882.994,430.237C885.151,428.08 889.223,425.734 891.623,426.408C894.697,427.271 897.879,430.669 899.309,433.77C900.819,437.168 900.307,441.482 900.9,445.366C901.17,446.957 902.087,448.44 902.707,449.977C904.001,449.114 905.35,448.332 906.536,447.334C908.019,446.067 909.341,444.61 910.716,443.208C914.033,439.729 917.727,437.653 922.527,440.35C926.626,442.696 928.972,447.847 928.136,453.132C927.651,456.341 926.815,459.496 925.952,463.487C927.84,462.867 929.377,462.273 930.995,461.842C936.928,460.197 941.89,463.999 941.62,470.094C941.512,472.872 941.081,475.595 940.568,478.319C939.705,483.065 941.377,484.98 946.42,484.683C951.382,484.386 953.216,485.977 952.595,490.831C952.244,493.474 951.435,496.521 949.817,498.543C945.637,503.694 940.864,508.359 936.145,513.483C933.907,510.651 932.585,508.818 931.102,507.092C926.599,502.076 920.855,501.186 914.059,506.526C910.095,509.708 906.508,513.322 902.76,516.773C889.169,506.337 883.479,509.114 880.432,528.719C872.072,522.867 864.117,517.231 856.108,511.73C848.369,506.391 840.548,501.159 832.701,495.82C831.407,497.303 830.463,498.328 829.546,499.38C829.088,499.11 828.602,499.002 828.602,498.787C827.415,487.892 826.094,476.971 825.123,466.022C824.88,463.352 826.121,460.494 825.878,457.824C825.554,455.046 824.017,452.458 823.424,449.734C822.696,446.552 821.941,443.289 822.103,440.107C822.319,435.631 820.404,433.77 816.332,432.637C803.199,428.996 790.12,425.248 777.149,421.176C770.461,419.073 763.908,416.484 757.463,413.652C752.285,411.387 747.377,410.659 742.982,414.839C736.267,421.257 729.175,420.933 721.112,417.563C715.773,415.298 709.84,414.435 704.231,412.979C702.802,406.911 704.069,404.026 708.95,404.026C712.698,404.026 716.474,405.401 720.573,406.237C721.031,402.354 721.274,398.444 721.948,394.641C723.269,387.522 727.287,386.012 732.654,390.65C734.757,392.457 736.537,394.641 738.695,396.987C742.362,391.108 745.437,384.367 752.853,382.937C760.943,381.4 765.339,387.198 769.33,392.915L769.332,392.915Z" style="fill:rgb(69,28,21);fill-rule:nonzero;"/>
    </g>
    <g transform="matrix(0.058594,0,0,0.058594,-0.000011,-0.000031)">
        <path d="M248.32,620.522C254.118,619.686 258.379,620.792 259.511,626.563C259.889,628.451 259.916,631.013 258.918,632.469C256.491,635.894 254.549,639.642 250.72,642.339C246.972,644.928 244.437,649.323 241.309,652.991C218.576,647.732 207.385,656.955 212.832,677.423C204.499,679.58 197.515,683.41 198.054,692.794C172.031,666.771 145.712,640.425 118.826,613.539C123.006,613.782 127.186,613.997 131.5,614.24C130.125,607.337 125.028,599.489 133.415,594.258C140.75,589.755 146.089,596.469 152.588,600.245C151.779,592.074 152.885,584.2 160.247,580.29C168.903,575.706 173.676,583.957 179.205,587.922C180.661,584.74 181.524,581.153 183.655,578.618C188.32,573.009 193.012,573.252 198.271,578.861C200.374,581.153 202.1,583.769 204.096,586.358C206.442,584.228 208.599,582.07 210.973,580.156C216.582,575.706 223.135,576.947 225.859,583.554C228.124,589.055 229.257,594.988 230.902,600.813C230.956,600.786 231.738,600.274 232.547,599.842C243.226,594.125 248.296,597.658 249.293,609.631C249.563,612.975 248.727,616.427 248.322,620.526L248.32,620.522Z" style="fill:rgb(69,28,21);fill-rule:nonzero;"/>
    </g>
    <g transform="matrix(0.058594,0,0,0.058594,-0.000011,-0.000031)">
        <path d="M895.485,613.165C899.206,612.814 902.982,612.437 906.353,612.113C880.276,638.217 854.361,664.132 828.554,689.939C828.015,682.227 822.055,678.128 813.183,676.348C818.63,666.937 813.965,659.71 808.41,653.399C801.641,645.713 793.12,651.242 784.949,651.727C782.306,648.518 779.906,644.284 776.374,641.668C773.327,639.43 771.493,636.463 769.066,633.902C765.911,630.585 765.722,627.025 767.664,623.034C769.417,619.447 772.437,618.881 775.97,619.178C776.563,619.232 777.21,619.016 777.831,618.962C777.831,613.973 776.968,608.93 778.047,604.373C780.123,595.42 784.438,593.91 792.852,598.171C793.985,598.737 795.09,599.411 795.926,599.897C796.924,595.367 797.571,590.701 799.054,586.333C802.91,574.629 811.243,573.065 819.468,582.261C820.331,583.232 821.059,584.284 821.491,584.877C826.372,580.481 831.091,576.248 835.514,572.284C843.334,576.356 843.523,576.653 846.705,586.334C850.939,583.718 855.092,580.455 859.838,578.622C862.049,577.786 865.906,579.08 868.09,580.645C872.189,583.719 874.131,588.331 874.05,593.643L874.05,598.443C878.284,596.313 882.167,593.886 886.347,592.375C892.064,590.299 897.322,594.263 897.134,600.438C896.999,604.618 896.082,608.771 895.489,613.166L895.485,613.165Z" style="fill:rgb(69,28,21);fill-rule:nonzero;"/>
    </g>
    <g transform="matrix(0.058594,0,0,0.058594,-0.000011,-0.000031)">
        <path d="M355.351,567.274C355.351,569.89 355.054,572.586 355.459,575.175C355.702,576.631 356.726,578.708 357.913,579.112C371.396,583.885 384.934,588.469 398.471,592.973C399.927,593.431 401.761,593.378 403.217,592.946C414.058,589.71 424.844,586.285 435.685,583.049C444.099,580.541 444.126,580.622 444.503,572.047C444.584,570.402 444.746,568.757 444.8,567.112C445.07,558.725 444.908,559.076 437.573,555.301C427.326,550.042 417.456,544.137 407.316,538.716C405.833,537.934 403.487,537.664 402.004,538.285C389.707,543.004 377.599,548.155 365.329,552.874C355.243,556.73 355.19,556.568 355.351,567.274ZM429.806,647.85C432.691,641.405 435.091,636.146 437.492,630.861C433.366,628.812 432.881,629.27 420.611,646.529C416.215,641.405 411.847,636.255 407.424,631.131C406.993,631.347 406.534,631.616 406.103,631.859C408.611,639.059 411.119,646.232 413.708,653.702C406.643,657.477 400.252,660.174 391.487,655.671C376.008,647.716 359.666,641.325 343.621,634.556C339.819,632.965 338.659,631.59 339.576,627.032C341.572,616.866 342.569,606.51 343.54,596.209C344.133,590.303 343.756,584.29 344.025,578.357C344.322,570.671 344.537,562.986 345.535,555.354C345.805,553.331 348.447,550.958 350.551,549.988C357.589,546.779 364.87,544.055 372.124,541.332C381.94,537.611 391.81,533.916 401.76,530.545C403.459,529.952 405.994,530.275 407.666,531.138C421.419,537.853 434.956,544.999 448.763,551.606C452.646,553.467 454.129,555.786 454.21,559.885C454.453,575.175 454.911,590.492 455.208,605.809C455.397,615.193 455.532,624.605 455.451,633.962C455.451,635.418 454.399,637.629 453.213,638.169C445.905,641.459 438.435,644.344 429.806,647.85Z" style="fill:rgb(69,28,21);fill-rule:nonzero;"/>
    </g>
    <g transform="matrix(0.058594,0,0,0.058594,-0.000011,-0.000031)">
        <path d="M99.72,464.409C99.396,459.016 98.21,453.784 98.965,448.876C100.232,440.462 108.43,437.874 114.741,443.429C117.573,445.937 120.026,448.822 123.586,452.517C124.53,450.198 125.447,448.688 125.716,447.097C126.255,443.376 126.498,439.6 126.849,435.879C127.307,431.025 130.867,428.571 134.723,427.304C138.741,425.956 141.977,428.491 144.107,432.023C145.968,435.07 147.586,438.306 149.446,441.38C150.147,442.513 151.226,443.403 151.981,444.265C154.57,437.55 156.565,431.213 159.478,425.28C160.745,422.718 163.658,419.779 166.247,419.293C170.049,418.538 174.148,420.345 175.793,424.578C177.411,428.785 178.517,433.153 180.269,438.924C183.613,434.394 186.148,430.699 188.979,427.22C190.166,425.818 191.918,424.011 193.482,423.957C194.83,423.903 196.799,425.737 197.635,427.247C202.058,435.121 200.359,443.805 200.305,452.191C200.305,458.744 199.361,465.297 198.984,470.124C191.946,475.922 185.797,480.965 179.703,486.034C174.903,489.998 169.968,493.773 165.411,497.953C158.319,504.506 151.496,511.382 144.674,517.989C139.146,510.142 132.539,509.845 123.937,518.124C121.51,515.886 119.002,513.594 116.548,511.274C105.6,500.973 99.829,501.485 90.336,514.699C85.401,509.387 80.385,504.506 76.098,499.058C74.453,496.982 74.022,493.584 73.968,490.752C73.86,487.246 75.37,484.981 79.82,485.709C85.213,486.572 86.993,484.118 85.753,478.886C85.052,475.893 84.593,472.765 84.539,469.69C84.458,465.106 90.526,461.519 95.487,463.029C97.132,463.514 98.75,464.081 99.721,464.404L99.72,464.409Z" style="fill:rgb(69,28,21);fill-rule:nonzero;"/>
    </g>
    <g transform="matrix(0.058594,0,0,0.058594,-0.000011,-0.000031)">
        <path d="M156.199,553.124C164.37,551.533 169.79,554.445 173.296,560.54C174.294,562.185 174.698,565.502 173.701,566.661C171.975,568.657 170.357,572.081 166.096,570.194C164.181,569.358 160.837,569.574 159.219,570.733C154.284,574.32 148.028,577.421 150.185,585.7C150.805,588.127 149.322,589.637 146.275,588.478C143.093,587.238 139.749,586.186 136.405,585.566C130.337,584.406 125.241,588.236 124.782,594.438C124.431,599.076 124.728,603.795 124.728,607.948C121.357,608.218 117.555,608.622 113.753,608.757C112.674,608.784 111.272,608.11 110.463,607.328C93.447,590.312 76.08,573.62 59.712,555.983C54.076,549.889 50.678,541.637 46.795,534.059C44.584,529.69 46.39,527.129 51.487,527.344C57.824,527.533 64.161,528.558 69.285,534.167C69.609,529.825 69.366,525.861 70.364,522.248C71.524,518.149 73.816,513.079 78.885,514.509C82.984,515.642 86.463,519.417 89.78,522.545C91.56,524.19 92.288,526.914 94.283,530.608C97.276,523.138 99.703,517.125 102.13,511.138C105.717,511.785 109.33,511.381 111.218,513.026C114.373,515.777 116.45,519.741 118.93,523.273C120.117,524.918 121.168,526.617 122.274,528.289C123.568,526.914 124.863,525.484 126.13,524.082C126.912,523.219 127.424,521.871 128.395,521.547C130.984,520.522 134.139,518.823 136.35,519.551C138.292,520.171 139.91,523.596 140.53,526.023C141.312,528.989 140.935,532.198 140.961,535.3C140.988,538.185 142.228,538.833 144.709,537.565C145.302,537.268 145.815,536.864 146.408,536.594C149.941,534.976 153.5,532.387 157.33,535.731C160.054,538.131 160.593,545.924 158.544,549.673C158.086,550.509 157.465,551.291 156.198,553.125L156.199,553.124Z" style="fill:rgb(69,28,21);fill-rule:nonzero;"/>
    </g>
    <g transform="matrix(0.058594,0,0,0.058594,-0.000011,-0.000031)">
        <path d="M956.622,533.358C962.339,527.587 968.541,526.401 975.04,526.05C978.384,525.888 979.355,527.371 978.384,530.634C975.364,540.612 970.779,549.699 963.552,557.115C947.615,573.376 931.462,589.421 915.309,605.466C914.392,606.41 912.585,606.76 911.156,606.841C907.947,607.03 904.684,606.895 900.99,606.895C900.963,606.76 900.397,605.52 900.774,605.061C904.307,600.585 902.203,595.811 901.448,591.281C900.72,586.697 895.434,583.488 890.446,584.324C887.075,584.89 883.812,586.131 880.549,587.156C877.286,588.208 875.803,587.075 876.396,583.866C877.852,575.83 867.875,566.446 860.27,569.034C856.09,570.49 854.256,567.551 852.611,565.313C851.694,564.073 852.341,560.917 853.285,559.192C856.737,552.909 862.454,550.644 870.382,551.965C865.366,546.14 864.962,540.046 868.683,535.354C873.888,528.747 879.173,536.702 885.429,537.161C885.429,533.736 885.375,530.689 885.429,527.642C885.51,523.543 885.995,519.363 890.607,518.069C895.299,516.775 898.346,519.714 900.72,523.408C901.151,524.109 901.448,524.891 901.96,525.511C903.605,527.641 905.061,527.884 906.248,525.106C907.327,522.706 908.513,520.387 909.457,517.933C911.264,513.268 914.446,510.787 919.57,510.976C920.784,511.003 922.051,510.383 923.858,509.951C925.395,512.917 927.229,515.857 928.469,518.985C929.656,521.87 930.195,525.026 931.004,528.046L932.703,528.154C934.051,525.862 935.049,523.165 936.856,521.304C939.822,518.23 942.95,514.697 946.753,513.214C951.256,511.488 956.245,517.232 956.596,523.569C956.758,526.454 956.623,529.367 956.623,533.358L956.622,533.358Z" style="fill:rgb(69,28,21);fill-rule:nonzero;"/>
    </g>
    <g transform="matrix(0.058594,0,0,0.058594,-0.000011,-0.000031)">
        <path d="M309.748,418.806C306.377,417.269 303.222,416.217 300.418,414.572C291.249,409.179 282.162,403.597 273.101,398.014C270.647,396.477 268.678,396.315 265.955,397.825C260.373,400.926 254.548,403.515 248.75,406.131C241.118,409.61 233.433,413.061 225.64,416.19C221.406,417.862 219.411,419.992 220.22,424.927C220.948,429.457 220.84,434.15 220.517,438.734C220.355,441.404 221.083,442.671 223.483,443.534C236.751,448.226 249.991,453.134 263.367,457.665C265.228,458.312 267.79,457.8 269.785,457.126C277.066,454.645 284.212,451.814 291.439,449.198C296.644,447.31 301.929,445.611 307.107,443.589C308.186,443.158 309.615,441.674 309.642,440.65C309.858,433.261 309.75,425.845 309.75,418.807L309.748,418.806ZM247.994,494.717C252.201,489.62 255.976,485.009 260.749,479.238C254.789,480.856 249.854,482.177 244.434,483.661C241.468,479.805 238.798,474.25 232.029,472.874C233.728,478.591 235.211,483.526 236.91,489.216C229.467,488.137 223.966,484.254 217.952,481.665C209.862,478.213 208.972,471.795 209.161,464.595C209.539,448.739 209.673,432.909 210.833,417.161C210.995,414.518 215.39,411.363 218.492,409.853C229.252,404.648 240.308,399.956 251.31,395.21C256.542,392.918 261.854,390.68 267.274,388.792C268.838,388.253 271.157,388.657 272.667,389.439C286.501,396.747 300.119,404.352 313.98,411.525C317.647,413.413 319.239,415.489 319.319,419.75C319.67,437.009 320.371,454.267 321.153,471.499C321.342,475.922 320.344,478.726 315.814,480.533C304.542,485.036 293.486,489.944 282.402,494.906C277.926,496.902 273.692,499.49 269.242,501.594C267.867,502.268 265.871,502.834 264.604,502.322C259.184,500.111 253.898,497.468 247.993,494.717L247.994,494.717Z" style="fill:rgb(69,28,21);fill-rule:nonzero;"/>
    </g>
    <g transform="matrix(0.058594,0,0,0.058594,-0.000011,-0.000031)">
        <path d="M805.247,458.414C805.031,447.978 804.977,448.113 795.242,444.499C782.891,439.942 770.567,435.303 758.432,430.261C755.25,428.94 753.066,429.021 750.369,430.854C741.686,436.841 733.542,444.203 724.023,448.059C714.504,451.915 714.746,457.713 715.96,465.291C716.203,466.909 716.715,468.608 716.445,470.199C715.528,475.781 718.953,477.696 723.429,478.801C724.696,479.152 725.991,479.367 727.258,479.745C737.344,482.63 747.402,485.624 757.515,488.401C759.43,488.94 761.857,489.318 763.583,488.644C776.149,483.763 788.581,478.558 801.067,473.57C804.734,472.087 806.649,470.199 805.355,465.804C804.708,463.512 805.247,460.896 805.247,458.415L805.247,458.414ZM740.661,523.242C746.108,518.792 751.556,514.316 757.758,509.273C747.187,504.85 741.227,509.111 736.508,515.071C731.87,511.269 727.555,507.682 723.186,504.096C722.701,504.581 722.215,505.067 721.73,505.552C724.346,510.136 726.935,514.694 730.251,520.492C722.431,517.364 715.5,514.721 708.705,511.809C707.842,511.431 707.087,509.652 707.168,508.546C707.411,503.881 708.031,499.216 708.408,494.523C708.543,492.743 708.57,490.936 708.462,489.13C707.68,476.887 706.682,464.617 706.17,452.32C706.116,450.54 707.707,447.951 709.298,446.954C723.294,438.325 737.397,429.857 751.663,421.713C753.659,420.607 757.164,420.985 759.51,421.875C775.636,427.7 791.546,434.064 807.699,439.754C814.845,442.262 814.926,448.168 815.492,453.696C816.948,468.204 817.784,482.766 819.133,497.274C819.457,501.049 818.189,503.395 815.034,505.148C800.202,513.265 785.263,521.193 770.62,529.715C765.281,532.789 760.804,532.924 755.519,530.173C751.15,527.881 746.35,526.559 741.739,524.807C741.361,524.268 741.038,523.755 740.66,523.243L740.661,523.242Z" style="fill:rgb(69,28,21);fill-rule:nonzero;"/>
    </g>
    <g transform="matrix(0.058594,0,0,0.058594,-0.000011,-0.000031)">
        <path d="M665.273,612.383C665.273,609.794 665.03,608.257 665.3,606.828C666.244,601.677 664.033,599.493 659.098,597.875C645.021,593.318 631.241,587.978 617.246,583.178C615.52,582.612 612.931,582.8 611.394,583.717C603.142,588.517 595.592,595.016 586.854,598.36C575.609,602.648 574.53,609.524 576.256,619.825C577.092,624.814 578.764,627.079 583.133,628.131C584.4,628.428 585.695,628.724 586.962,629.048C597.236,631.772 607.511,634.549 617.839,637.165C619.673,637.623 621.857,637.974 623.529,637.381C634.477,633.579 645.264,629.237 656.267,625.57C663.521,623.17 668.51,619.961 665.274,612.383L665.273,612.383ZM567.816,633.876C567.304,624.519 566.872,615.161 566.171,605.777C565.928,602.029 567.115,599.952 570.647,598.091C584.319,590.918 597.641,583.098 611.34,575.951C613.578,574.791 617.165,574.926 619.673,575.762C635.718,581.074 651.709,586.737 667.701,592.293C671.854,593.749 673.849,596.257 675.09,600.976C679.189,616.509 679.054,632.23 679.189,647.979C679.189,649.705 677.544,652.294 675.98,653.049C660.124,661.004 644.078,668.555 628.141,676.402C624.905,678.02 622.127,677.912 618.757,676.807C609.588,673.76 600.177,671.468 591.089,668.232C583.592,665.589 576.257,662.326 569.192,658.632C567.682,657.85 567.223,654.129 567.089,651.702C566.819,645.796 567.008,639.837 567.008,633.904C567.278,633.904 567.547,633.904 567.817,633.877L567.816,633.876Z" style="fill:rgb(69,28,21);fill-rule:nonzero;"/>
    </g>
    <g transform="matrix(0.058594,0,0,0.058594,-0.000011,-0.000031)">
        <path d="M209.803,395.264C212.85,390.329 214.927,385.934 218.001,382.428C221.264,378.734 228.221,380.271 230.756,384.639C231.565,386.014 232.347,387.363 233.614,389.547C235.043,387.309 236.392,385.826 236.985,384.1C238.145,380.729 240.679,379.003 243.7,379.677C246.666,380.351 250.711,381.16 249.875,386.095C249.794,386.607 250.333,387.228 250.819,388.252C238.145,392.89 225.767,397.69 213.173,401.924C207.321,403.893 202.656,408.908 202.602,415.057C202.548,416.837 202.602,418.671 202.602,420.909C198.935,419.884 195.186,417.727 191.707,418.158C187.986,418.643 184.534,421.448 181.001,423.255C178.547,420.397 175.473,417.268 173.019,413.736C172.048,412.307 172.399,409.988 171.967,406.401C178.115,407.83 183.32,409.071 189.253,410.5C189.631,409.718 190.871,408.316 190.844,406.886C190.736,394.104 197.262,392.944 209.127,395.155C209.774,395.263 210.394,395.344 209.801,395.263L209.803,395.264Z" style="fill:rgb(69,28,21);fill-rule:nonzero;"/>
    </g>
    <g transform="matrix(0.058594,0,0,0.058594,-0.000011,-0.000031)">
        <path d="M329.713,394.247C329.713,396.971 329.956,398.939 329.632,400.854C329.416,401.96 328.23,403.766 327.583,403.739C322.432,403.496 316.796,404.09 312.266,402.121C302.828,397.995 293.929,392.521 284.868,387.505C284.194,387.1 283.466,386.022 283.412,385.24C283.142,380.925 288.482,373.051 292.122,371.595C299.861,373.995 295.277,381.977 299.484,386.858C303.61,382.004 308.248,378.067 314.666,379.388C323.134,381.141 318.28,389.231 321.839,394.247L329.713,394.247Z" style="fill:rgb(69,28,21);fill-rule:nonzero;"/>
    </g>
</svg>
