<?xml version="1.0" encoding="UTF-8" standalone="no"?>
<!DOCTYPE svg PUBLIC "-//W3C//DTD SVG 1.1//EN" "http://www.w3.org/Graphics/SVG/1.1/DTD/svg11.dtd">
<svg width="100%" height="100%" viewBox="0 0 61 61" version="1.1" xmlns="http://www.w3.org/2000/svg" xmlns:xlink="http://www.w3.org/1999/xlink" xml:space="preserve" xmlns:serif="http://www.serif.com/" style="fill-rule:evenodd;clip-rule:evenodd;stroke-linejoin:round;stroke-miterlimit:2;">
    <g transform="matrix(0.058594,0,0,0.058594,-0.000066,0.00004)">
        <path d="M427.099,485.512C416.258,486.321 406.9,486.726 397.677,487.858C392.445,488.478 388.697,491.687 387.699,497.297C387.025,500.965 386.458,504.659 385.73,508.354C383.734,518.602 384.274,528.634 388.238,538.342C388.777,539.663 390.18,541.551 391.285,541.632C400.508,542.333 409.731,542.684 419.169,543.169C418.09,523.213 418.117,504.605 427.097,485.512L427.099,485.512ZM900.946,486.132C909.764,504.416 906.151,523.887 908.767,542.764C918.367,542.764 927.914,542.818 937.434,542.764C943.798,542.683 946.225,540.58 945.74,534.107C944.904,522.996 943.663,511.913 942.099,500.883C940.858,492.038 934.548,486.455 925.73,486.186C917.505,485.889 909.28,486.132 900.947,486.132L900.946,486.132ZM368.579,582.433C362.08,587.638 355.689,592.249 349.89,597.535C345.602,601.499 344.443,607.001 345.71,612.745C347.085,618.786 348.919,624.719 350.268,630.759C354.151,648.126 358.143,665.466 361.675,682.914C363.05,689.656 363.374,696.667 364.129,703.275C366.313,702.223 368.74,701.522 370.574,700.066C372.462,698.664 374.538,696.749 375.132,694.646C376.157,691.248 376.265,687.527 376.373,683.913C377.128,659.399 377.074,634.805 378.827,610.372C379.609,599.073 374.89,591.306 368.579,582.434L368.579,582.433ZM354.232,708.291C353.18,700.659 352.911,693.027 351.023,685.827C343.796,658.509 336.083,631.326 328.397,604.142C327.912,602.335 326.294,599.638 325.026,599.558C323.219,599.396 320.63,600.799 319.417,602.363C313.835,609.402 308.549,616.737 303.209,623.991C301.968,625.663 300.162,627.551 300.135,629.358C300.081,635.021 300.378,640.765 301.187,646.375C302.185,653.009 303.83,659.562 305.367,667.032C308.522,662.852 311.111,659.454 313.376,656.488C316.477,669.81 319.228,682.377 322.464,694.863C325.7,707.322 339.373,713.632 354.232,708.293L354.232,708.291ZM498.752,486.078C480.926,486.078 463.829,486.078 446.705,486.132C440.907,486.132 439.666,487.211 438.75,492.955C438.615,493.926 438.615,494.951 438.211,495.841C431.631,510.97 433.815,526.665 435.11,542.468L495.733,542.468C493.764,523.537 492.47,504.956 498.753,486.079L498.752,486.078ZM827.891,486.132C833.177,504.928 833.365,523.671 831.963,542.521L894.824,542.521C894.177,530.601 893.772,518.951 892.909,507.355C892.478,501.503 891.372,495.705 890.32,489.934C889.808,487.022 887.974,485.916 884.738,485.997C873.519,486.267 862.301,486.132 851.082,486.132L827.891,486.132ZM593.974,486.321C594.271,486.375 593.516,486.132 592.733,486.132C568.166,486.132 543.625,486.213 519.085,485.997C515.525,485.97 515.229,488.047 514.474,490.42C509.08,507.544 509.054,525.019 511.211,542.413L590.846,542.413C591.898,523.59 592.923,505.144 593.974,486.32L593.974,486.321ZM734.61,486.321C735.311,505.387 735.985,523.887 736.66,542.521L817.698,542.521C819.532,524.857 818.992,507.625 815.271,490.447C814.516,486.914 813.087,486.024 809.743,486.024C785.823,486.159 761.93,486.078 738.063,486.132C736.742,486.132 735.447,486.267 734.611,486.321L734.61,486.321ZM199.412,601.931C199.25,604.277 199.061,604.951 199.142,605.599C200.814,620.917 202.405,636.207 204.293,651.498C204.617,654.114 205.668,656.945 207.179,659.13C214.11,669.081 221.013,679.113 228.537,688.659C233.877,695.428 239.809,701.873 246.066,707.779C253.105,714.44 257.608,713.901 265.267,708.184C275.191,700.741 283.821,691.572 292.909,683.023C293.718,682.268 294.096,680.596 293.961,679.436C292.505,669.053 291.022,658.671 289.323,648.342C288.999,646.427 287.975,644.432 286.68,642.948C279.102,634.264 269.637,636.071 260.441,639.092C254.131,641.169 250.274,647.991 250.787,653.654C251.488,661.043 252.432,668.432 252.378,675.821C252.351,683.507 251.326,691.193 250.571,698.851C250.436,700.038 249.438,701.143 248.171,703.543C247.038,700.037 246.068,698.123 245.825,696.1C244.989,688.9 244.342,681.699 243.722,674.499C242.967,665.33 242.508,656.134 241.619,646.965C240.271,633.373 231.156,624.501 221.555,616.492C215.056,611.072 207.343,607.053 199.415,601.93L199.412,601.931ZM450.642,566.684C450.642,574.289 450.48,581.705 450.696,589.094C450.831,594.488 454.714,599.719 459.487,600.879C464.26,602.012 469.141,602.875 474.023,603.117C487.83,603.764 501.665,604.358 515.526,604.411C544.894,604.519 574.234,604.33 603.602,604.033C605.058,604.033 607.647,602.307 607.728,601.201C608.402,593.084 608.591,584.967 608.861,576.795C608.969,573.424 608.888,570.053 608.888,566.682L450.642,566.684ZM720.991,542.521C721.045,527.069 721.638,511.832 717.027,496.973C716.407,495.031 715.894,492.604 716.515,490.824C717.89,486.779 716.003,486.132 712.767,486.132C679.624,486.132 646.454,486.159 613.311,486.051C610.533,486.051 609.428,487.238 609.158,489.719C608.807,492.82 608.268,495.895 608.133,498.996C607.54,513.424 607,527.851 606.461,542.522L720.991,542.521ZM786.981,565.525C765.407,565.525 743.779,565.633 722.205,565.39C717.755,565.363 716.002,567.844 716.218,571.134C716.838,579.979 717.297,588.933 719.427,597.481C721.827,606.974 725.252,608.295 734.205,608.241C771.285,607.971 808.393,608.133 845.446,608.133C850.732,608.133 856.017,608.214 861.303,607.917C869.339,607.486 871.659,605.787 873.6,597.885C875.299,590.9 876.432,583.781 877.429,576.662C878.157,571.161 872.548,565.578 866.75,565.524C860.925,565.47 855.127,565.524 849.302,565.524L786.981,565.525ZM823.926,476.316L823.926,475.426C856.233,475.426 888.54,475.318 920.82,475.534C925.998,475.561 926.888,472.433 927.184,468.711C927.4,466.122 926.806,463.479 926.645,460.836C925.863,449.564 918.744,442.66 907.687,442.66L782.45,442.66C781.479,442.66 780.454,442.714 779.484,442.66C773.039,442.39 766.594,442.175 760.148,441.662C758.988,441.554 757.343,440.395 756.939,439.343C755.887,436.431 755.186,433.356 754.62,430.282C750.575,409.059 748.471,387.458 738.305,367.69C730.35,352.13 719.293,339.994 704.596,330.691C691.247,322.304 676.199,323.059 661.637,322.061C653.816,321.549 645.699,323.517 637.879,325.135C626.337,327.481 615.523,332.227 606.839,340.156C591.71,353.99 582.757,371.924 577.606,391.34C574.208,404.257 573.399,417.876 571.403,431.198C571.133,433.113 570.513,435.108 570.621,437.023C571.052,444.223 565.12,449.698 558,448.457C556.409,448.214 554.764,447.81 553.146,447.81C505.953,447.756 458.787,447.729 411.566,447.864C409.489,447.864 406.874,448.727 405.444,450.102C398.945,456.332 397.758,464.772 396.949,473.159C396.868,473.995 399.511,475.937 400.967,475.991C408.356,476.369 415.772,476.315 423.134,476.315C459.783,476.342 496.405,476.315 533.027,476.315C548.399,476.315 563.743,476.342 579.088,476.315C588.715,476.315 592.841,472.162 593.03,462.831C593.435,438.452 595.16,414.289 603.224,390.962C607.701,377.991 614.146,366.071 624.34,356.956C637.177,345.468 652.791,344.092 669.322,346.573C695.993,350.537 715.652,371.788 718.295,397.326C720.533,419.089 721.666,440.986 722.933,462.83C723.338,469.734 728.3,476.718 736.821,476.53C765.838,475.964 794.882,476.314 823.926,476.314L823.926,476.316ZM310.923,419.441C308.361,420.951 305.853,422.38 303.399,423.891C298.437,426.884 293.178,429.527 288.756,433.141C287.003,434.597 286.059,438.481 286.545,440.908C287.462,445.466 289.511,449.888 291.453,454.203C302.429,478.582 309.71,504.228 317.504,529.685C318.745,533.676 318.664,538.045 319.176,542.252C318.421,542.468 317.693,542.683 316.965,542.926C315.401,540.202 313.378,537.64 312.246,534.755C306.826,521.082 301.783,507.248 296.362,493.576C293.584,486.564 290.24,479.769 287.301,472.838C282.231,460.999 277.62,448.891 272.118,437.241C270.635,434.167 266.671,430.418 263.704,430.256C258.607,430.013 252.701,431.146 249.87,436.782C249.061,438.346 248.656,440.584 249.088,442.229C252.675,456.009 256.936,469.601 260.145,483.408C262.977,495.543 264.703,507.922 266.914,520.219C266.186,520.516 265.431,520.785 264.676,521.109C263.624,519.626 262.195,518.25 261.575,516.578C256.37,502.177 251.192,487.75 246.177,473.268C243.507,465.555 241.134,457.708 238.653,449.914C236.954,444.655 234.257,443.28 229.187,444.871C225.789,445.923 222.31,446.813 218.858,447.676C213.788,448.917 211.604,451.775 212.898,456.845C215.352,466.634 218.696,476.262 220.773,486.159C223.551,499.562 225.573,513.18 227.812,526.718C229.862,539.285 231.938,551.852 233.637,564.446C234.23,569.004 233.718,573.669 233.718,578.307C233.152,578.388 232.585,578.496 232.019,578.577C228.621,566.738 224.792,554.953 221.96,542.953C217.645,524.993 214.409,506.736 209.906,488.829C207.155,477.961 202.22,467.633 199.362,456.738C197.42,449.43 193.968,445.385 186.498,443.686C179.459,442.068 172.718,439.102 164.87,436.378C165.706,439.317 166.38,441.421 166.866,443.578C171.343,462.105 176.628,480.524 180.053,499.239C184.557,523.86 187.766,548.724 191.191,573.508C192.162,580.52 193.268,586.857 201.681,588.421C202.598,588.61 203.407,589.392 204.243,589.931C215.569,596.996 226.95,604.035 238.249,611.154C248.227,617.464 258.744,620.889 270.799,618.462C285.254,615.55 295.555,607.324 303.052,594.973C309.794,583.835 318.558,575.502 332.501,574.747C338.38,574.423 344.421,574.639 350.138,573.399C363.136,570.567 369.231,559.322 365.348,546.971C356.206,518.008 344.987,489.8 332.502,462.185C325.895,447.569 318.074,433.518 310.928,419.441L310.923,419.441ZM913.459,427.181C910.654,410.353 909.36,394.308 905.207,379.071C897.063,349.434 884.658,321.576 863.92,298.141C853.591,286.437 844.018,274.059 831.397,264.593C807.8,246.821 781.669,234.12 753.542,225.247C749.47,223.98 745.56,222.442 743.915,217.804C739.411,204.914 734.611,192.131 730.242,179.213C729.433,176.813 729.082,173.388 730.215,171.392C735.285,162.304 736.256,152.784 735.123,142.672C734.988,141.297 736.552,139.733 737.253,138.222C738.467,135.498 740.813,132.559 740.381,130.132C740.084,128.352 736.12,126.087 733.693,125.979C713.09,125.035 692.514,124.28 671.937,123.902C655.433,123.578 638.929,123.821 622.425,123.821C612.825,123.821 603.224,123.255 593.705,123.983C584.482,124.684 581.785,123.956 580.518,131.399C581.246,132.046 581.893,132.963 582.756,133.233C588.608,135.202 588.338,139.193 587.448,144.425C585.614,155.455 588.23,165.621 595.7,174.332C596.536,175.33 596.887,177.811 596.239,178.863C588.23,191.484 583.483,205.48 579.249,219.692C578.332,222.793 577.011,224.546 573.37,224.978C568.705,225.517 564.012,226.758 559.59,228.349C540.281,235.199 522.483,244.934 505.358,256.18C489.474,266.643 476.125,279.777 463.882,294.096C453.688,305.935 444.708,318.717 438.425,333.253C427.395,358.899 420.95,385.786 416.096,413.131C414.829,420.412 414.127,427.828 413.076,435.676L419.629,435.676C454.444,435.676 489.259,435.649 524.101,435.757C533.297,435.784 542.52,436.269 551.743,436.377C555.33,436.431 558.161,435.19 558.485,430.849C558.863,425.617 559.105,420.305 560.049,415.154C561.937,404.178 563.959,393.229 566.467,382.388C568.813,372.248 574.315,363.457 579.061,354.207C589.012,334.844 605.193,323.356 624.366,315.131C629.598,312.893 635.207,310.978 640.789,310.331C655.271,308.686 669.725,307.392 684.369,309.792C697.745,311.949 710.285,315.968 720.829,324.462C737.495,338 751.437,353.938 759.986,373.947C766.431,389.157 771.69,404.69 771.906,421.437C771.987,425.725 773.659,427.073 777.866,427.073C820.124,426.992 862.355,427.127 904.614,427.181L913.459,427.181ZM638.902,102.384C637.931,100.928 637.742,100.496 637.419,100.173C617.328,80.109 597.507,59.776 577.066,40.089C561.236,24.825 541.739,16.519 519.787,14.955C489.206,12.798 463.371,23.261 441.716,45.051C404.878,82.185 367.771,119.077 330.798,156.076C234.955,251.892 139.059,347.627 43.351,443.577C4.922,482.06 4.706,541.847 42.731,579.952C176.193,713.549 309.71,847.093 443.307,980.528C482.464,1019.631 542.035,1019.307 581.165,980.177C713.98,847.416 846.822,714.574 979.611,581.758C1019.712,541.684 1019.766,482.652 979.827,442.525C964.779,427.423 949.704,412.402 934.629,397.381C933.631,396.356 932.526,395.493 931.258,394.361C933.092,407.332 935.465,419.764 936.274,432.304C936.732,439.235 940.076,443.388 944.526,447.649C950.594,453.501 956.554,459.434 962.379,465.528C987.297,491.579 987.459,532.003 962.73,558.189C954.451,566.926 945.767,575.286 937.273,583.808C936.734,584.32 936.086,584.644 935.223,585.237C934.63,577.74 934.117,570.755 933.578,563.609L888.596,563.609C888.272,564.769 887.382,566.602 887.355,568.49C887.247,576.23 887.355,583.942 887.409,591.709C887.409,593.759 888.056,595.916 887.544,597.831C883.418,614.039 877.512,629.572 868.99,644.08C866.617,648.179 865.808,653.249 863.138,657.132C860.9,660.395 856.504,665.276 854.05,664.764C843.263,662.445 832.827,658.481 822.255,655.083C822.282,654.544 822.363,654.031 822.39,653.492C832.826,648.746 843.155,643.838 853.699,639.388C858.149,637.527 860.63,635.262 859.794,630.057C859.363,627.252 860.01,624.286 860.199,620.645C857.206,621.076 854.212,621.05 851.569,622.02C834.175,628.465 816.916,635.18 799.522,641.652C797.769,642.272 795.369,642.407 793.616,641.733C773.444,634.263 753.353,626.577 733.236,618.972C729.488,617.57 725.739,616.167 721.775,614.711C721.775,620.482 721.694,625.552 721.856,630.622C721.883,631.512 722.8,632.752 723.609,633.157C727.465,635.153 731.376,637.067 735.421,638.685C746.882,643.323 758.37,647.827 770.209,652.492C769.157,652.977 768.429,653.355 767.674,653.652C753.813,658.803 739.87,663.9 726.036,669.212C724.472,669.832 722.288,671.747 722.234,673.122C721.829,680.349 722.045,687.577 722.045,695.397C723.933,694.777 724.715,694.588 725.443,694.291C749.04,684.744 772.636,675.171 796.314,665.705C798.175,664.95 800.71,664.141 802.355,664.815C814.976,669.804 827.408,675.171 841.836,681.238C839.301,682.883 837.521,683.611 836.254,684.906C818.348,702.705 800.522,720.584 782.616,738.383C775.281,745.745 767.811,752.972 760.395,760.254C750.039,760.362 739.63,760.47 729.247,760.605C725.013,760.632 720.779,760.605 716.491,760.605C715.709,744.236 714.576,728.514 714.28,712.765C713.875,688.683 714.388,664.574 713.929,640.492C713.686,628.357 712.392,616.194 711.151,604.086C710.072,593.488 708.373,582.997 706.944,572.453C706.378,568.057 703.573,566.493 699.447,566.493C675.5,566.493 651.58,566.493 627.632,566.52C626.85,566.52 626.095,566.655 625.394,566.763C622.643,631.458 619.947,695.857 617.223,760.309L492.282,760.309C492.282,756.722 492.012,753.432 492.336,750.223C492.983,743.697 491.069,738.115 487.59,732.613C481.765,723.336 476.183,713.871 471.059,704.135C467.958,698.256 469.117,695.991 474.996,692.35C475.832,691.811 476.776,691.541 477.693,691.19C497.406,683.342 517.12,675.414 536.914,667.728C539.098,666.892 542.2,666.838 544.357,667.701C563.396,675.387 582.327,683.342 601.232,691.298C605.142,692.943 608.864,694.939 613.448,697.15C613.448,689.977 613.205,683.558 613.529,677.167C613.718,673.688 612.288,672.556 609.322,671.207C596.647,665.652 584.161,659.692 570.839,653.489C584.7,648.042 597.618,643.053 610.427,637.929C611.829,637.336 613.906,635.933 613.96,634.801C614.257,627.331 614.122,619.861 614.122,611.879C607.973,614.306 602.472,616.356 597.105,618.594C578.767,626.253 560.483,633.992 542.064,641.543C540.365,642.217 537.884,642.163 536.158,641.462C522.054,635.88 508.112,629.839 493.981,624.392C484.434,620.724 475.454,615.115 464.775,614.441C464.775,617.623 464.802,620.428 464.775,623.205C464.586,634.855 464.721,634.531 475.562,638.954C486.214,643.296 496.543,648.474 507.438,653.516C494.305,659.017 482.115,664.168 469.171,669.643C460.326,651.467 451.372,633.399 442.824,615.142C439.642,608.319 436.271,601.254 435.138,593.946C433.817,585.209 434.841,576.093 434.841,566.817L398.084,566.817C396.843,576.444 395.468,585.964 394.416,595.484C393.985,599.421 394.416,603.412 394.038,607.377C391.854,630.623 389.669,653.896 390.074,677.331C390.263,687.309 389.346,697.395 388.429,707.373C387.323,719.913 385.732,732.453 384.276,744.939C383.683,750.306 382.901,755.645 382.173,761.066C380.879,761.228 379.935,761.444 378.937,761.471C363.485,761.876 348.005,762.361 332.526,762.523C315.186,762.712 297.792,761.525 280.56,762.928C269.153,763.899 261.575,760.312 254.86,751.925C251.031,747.125 246.23,743.107 242.644,739.52C252.784,735.906 262.735,732.481 272.632,728.922C283.041,725.174 290.107,716.921 297.577,709.047C298.143,711.258 298.116,713.146 299.006,714.36C304.885,722.396 310.845,730.541 321.389,732.941C324.733,733.696 328.104,734.397 331.529,734.586C338.217,734.937 345.013,735.719 351.566,734.802C357.903,733.912 363.917,731.161 370.659,729.031C371.144,725.175 371.63,720.806 372.115,716.356C371.549,716.572 370.982,716.626 370.605,716.922C360.411,724.931 348.411,724.985 336.842,722.558C323.547,719.753 314.702,710.881 311.088,697.478C309.794,692.624 308.904,687.689 307.717,682.376C304.292,686.637 301.191,690.143 298.467,693.891C288.165,707.968 276.138,719.51 258.474,723.933C253.377,725.227 248.469,725.821 244.424,722.558C237.332,716.787 230.05,710.989 224.117,704.085C214.867,693.406 206.48,681.999 198.174,670.591C193.509,664.173 187.333,658.537 185.904,650.096C185.85,649.799 184.556,649.638 184.259,649.557C183.72,659.05 183.207,668.38 182.614,678.898C180.457,677.118 179.459,676.39 178.542,675.5C140.167,637.098 101.604,598.831 63.391,560.268C35.776,532.384 36.127,491.177 63.903,463.32C90.358,436.784 116.867,410.329 143.349,383.847C144.509,382.714 145.722,381.69 147.826,379.748C151.143,391.668 154.406,402.59 157.184,413.673C158.155,417.637 160.123,419.768 163.818,421.17C170.506,423.759 177.032,426.752 183.639,429.53C194.399,434.007 205.671,436.757 217.052,433.521C223.794,431.606 230.077,427.588 236.145,423.813C250.681,414.698 267.104,415.426 283.149,414.132C290.08,413.566 296.093,411.22 301.541,407.12C306.988,403.075 309.416,391.775 304.238,383.173C299.492,375.325 294.098,367.882 288.974,360.278C278.591,344.88 268.587,329.157 257.584,314.19C251.462,305.911 243.588,298.98 236.307,291.214C237.251,290.162 238.168,289.084 239.193,288.032C313.758,213.467 388.297,138.847 462.943,64.336C491.663,35.616 532.465,35.75 561.294,64.363C571.919,74.934 582.733,85.425 593.062,96.32C597.215,100.689 601.799,102.334 607.49,102.091C613.854,101.821 620.246,101.498 626.664,101.498C630.412,101.471 634.161,102.01 638.907,102.388L638.902,102.384ZM502.15,1024C480.468,1023.676 454.094,1012.08 432.061,990.048C353.451,911.357 274.759,832.692 196.095,754.055C141.594,699.527 87.038,645.106 32.618,590.497C8.536,566.334 -2.17,536.778 0.365,502.906C2.442,475.588 13.849,452.261 33.292,432.871C85.474,380.716 137.629,328.534 189.812,276.351C270.823,195.367 351.806,114.384 432.817,33.4C457.088,9.129 486.482,-2.062 520.596,0.311C547.591,2.172 570.837,13.121 590.064,32.187C612.798,54.705 635.289,77.519 658.13,99.956C660.422,102.194 664.306,103.543 667.596,103.866C673.313,104.513 679.138,103.866 684.909,104.082C700.011,104.648 715.167,105.053 730.241,106.212C735.985,106.643 741.81,108.342 747.231,110.419C755.159,113.466 758.584,120.208 759.636,128.352C760.31,133.853 759.043,138.573 756.454,143.724C753.649,149.198 753.245,155.859 751.762,162.008C750.629,166.566 749.443,171.123 748.256,175.681C748.121,176.328 747.636,177.083 747.825,177.542C751.061,184.958 753.623,192.779 757.83,199.574C764.734,210.739 777.57,212.006 788.654,215.889C815.649,225.274 839.326,239.674 859.875,259.819C872.792,272.413 884.335,286.004 894.69,300.459C901.782,310.329 906.933,321.736 912.084,332.847C916.695,342.933 919.985,353.612 924.058,363.941C924.921,366.125 926.35,368.283 928.022,369.955C948.625,390.693 969.228,411.404 989.966,431.953C1014.426,456.251 1026.022,485.618 1023.81,519.948C1022.057,547.482 1010.92,571.132 991.368,590.711C892.64,689.466 793.912,788.194 695.156,886.896C660.503,921.576 625.849,956.284 591.142,990.91C568.975,1012.996 542.277,1024.026 502.149,1023.999L502.15,1024Z" style="fill:rgb(69,28,21);fill-rule:nonzero;"/>
    </g>
    <g transform="matrix(0.058594,0,0,0.058594,-0.000066,0.00004)">
        <path d="M636.146,884.917C625.359,895.677 615.084,905.952 604.837,916.199C590.248,930.788 575.712,945.405 561.069,959.967C532.564,988.256 491.439,988.229 463.042,959.94C438.879,935.804 414.716,911.641 390.58,887.478C389.528,886.453 388.557,885.348 386.67,883.352C391.497,883.001 395.407,882.57 399.372,882.489C415.687,882.058 432.003,881.734 448.318,881.437C489.875,880.655 531.378,879.765 572.908,879.199C592.433,878.983 611.93,880.035 631.239,883.514C632.668,883.73 634.044,884.296 636.147,884.916L636.146,884.917Z" style="fill:rgb(69,28,21);fill-rule:nonzero;"/>
    </g>
    <g transform="matrix(0.058594,0,0,0.058594,-0.000066,0.00004)">
        <path d="M693.444,827.854C688.32,832.87 683.978,837.104 679.691,841.365C675.457,845.545 670.684,849.32 667.232,854.094C662.728,860.297 657.146,860.027 650.512,859.703C632.794,858.84 615.023,858.732 597.278,858.355C593.503,858.301 589.7,858.409 585.925,858.679C567.587,859.92 549.276,861.295 530.965,862.535C510.631,863.91 490.298,865.717 469.937,866.391C445.235,867.281 420.479,867.416 395.776,867.443C387.254,867.47 378.706,866.337 370.211,865.447C368.674,865.285 367.056,863.856 365.842,862.669C355.433,852.367 345.104,842.012 334.775,831.629C333.777,830.658 332.833,829.552 331.296,827.854L693.444,827.854Z" style="fill:rgb(69,28,21);fill-rule:nonzero;"/>
    </g>
    <g transform="matrix(0.058594,0,0,0.058594,-0.000066,0.00004)">
        <path d="M727.566,793.659C721.283,799.889 715.7,805.471 710.037,810.891C709.201,811.673 707.691,811.97 706.477,812.078C692.966,812.752 679.509,813.588 665.999,813.993C638.168,814.802 610.338,815.53 582.507,816.016C552.546,816.528 522.585,816.771 492.624,817.149C471.374,817.446 450.123,818.12 428.846,817.904C415.902,817.769 402.957,816.259 390.04,815.423C382.165,814.938 374.291,814.56 366.416,814.075C349.669,813.104 332.949,812.133 316.202,811.055C315.042,810.974 313.64,810.381 312.777,809.572C307.572,804.556 302.448,799.405 296.65,793.661L727.566,793.659Z" style="fill:rgb(69,28,21);fill-rule:nonzero;"/>
    </g>
    <g transform="matrix(0.058594,0,0,0.058594,-0.000066,0.00004)">
        <path d="M748.658,772.778C744.505,776.796 740.514,780.976 736.118,784.698C734.716,785.885 732.235,786.289 730.293,786.262C701.788,785.723 673.284,784.806 644.779,784.563C625.875,784.347 606.97,785.129 588.066,785.318C577.198,785.48 566.33,785.264 555.462,785.426C551.066,785.48 546.644,786.343 542.248,786.289C529.438,786.127 516.629,785.291 503.873,785.48C489.095,785.642 474.317,786.801 459.511,787.206C448.454,787.53 437.425,787.287 426.368,787.287C410.538,787.314 394.681,787.341 378.851,787.341C361.942,787.341 345.061,787.341 328.179,787.314C317.365,787.314 306.524,787.179 295.71,787.395C291.935,787.503 289.157,786.505 286.649,783.647C284.087,780.708 281.04,778.173 277.372,774.667C279.853,774.478 281.04,774.343 282.253,774.343C332.413,774.046 382.599,774.963 432.678,773.237C536.557,769.623 640.409,772.752 744.261,771.538L748.09,771.538C748.252,771.943 748.468,772.374 748.656,772.779L748.658,772.778Z" style="fill:rgb(69,28,21);fill-rule:nonzero;"/>
    </g>
    <g transform="matrix(0.058594,0,0,0.058594,-0.000066,0.00004)">
        <path d="M225.722,301.218C236.185,321.525 250.128,339.242 254.119,361.625C253.688,361.976 253.229,362.299 252.771,362.65C251.396,361.086 249.697,359.738 248.645,357.985C239.395,342.533 230.361,326.945 221.057,311.547C217.713,305.992 223.268,305.102 225.722,301.218Z" style="fill:rgb(69,28,21);fill-rule:nonzero;"/>
    </g>
    <g transform="matrix(0.058594,0,0,0.058594,-0.000066,0.00004)">
        <path d="M223.429,379.109C221.541,377.842 218.845,377.006 217.928,375.253C214.611,368.889 212.049,362.174 208.921,355.728C205.955,349.606 202.611,343.593 199.374,337.525C198.295,335.556 197.136,333.588 195.868,331.322C198.457,328.841 200.857,326.468 203.446,323.96C214.53,340.437 218.413,359.53 225.182,377.437C224.589,377.976 223.995,378.57 223.429,379.109Z" style="fill:rgb(69,28,21);fill-rule:nonzero;"/>
    </g>
    <g transform="matrix(0.058594,0,0,0.058594,-0.000066,0.00004)">
        <path d="M190.038,379.076C188.204,377.809 185.642,376.973 184.644,375.22C180.707,368.424 177.282,361.359 173.452,354.024C176.095,351.759 178.953,349.305 182.297,346.419C185.533,356.397 188.877,366.86 192.248,377.351C191.52,377.917 190.792,378.511 190.037,379.077L190.038,379.076Z" style="fill:rgb(69,28,21);fill-rule:nonzero;"/>
    </g>
    <g transform="matrix(0.058594,0,0,0.058594,-0.000066,0.00004)">
        <path d="M525.816,279.784C539.542,280.108 548.388,289.951 546.5,303.488C544.855,315.435 534.58,331.157 520.126,334.258C509.204,336.604 498.201,333.827 492.808,324.307C490.408,320.1 490.543,313.709 491.379,308.639C493.86,293.564 503.892,285.096 518.077,281.078C520.585,280.404 523.255,280.215 525.817,279.784L525.816,279.784Z" style="fill:rgb(69,28,21);fill-rule:nonzero;"/>
    </g>
    <g transform="matrix(0.058594,0,0,0.058594,-0.000066,0.00004)">
        <path d="M721.067,139.475C720.42,149.938 723.197,159.755 717.211,168.357C716.294,169.624 714.622,171.135 713.301,171.189C704.59,171.405 695.88,171.297 686.306,171.297L686.306,139.475L721.067,139.475Z" style="fill:rgb(69,28,21);fill-rule:nonzero;"/>
    </g>
    <g transform="matrix(0.058594,0,0,0.058594,-0.000066,0.00004)">
        <rect x="642.122" y="139.219" width="29.907" height="31.822" style="fill:rgb(69,28,21);fill-rule:nonzero;"/>
    </g>
    <g transform="matrix(0.058594,0,0,0.058594,-0.000066,0.00004)">
        <path d="M600.684,139.281L628.38,139.281L628.38,171.265C623.418,171.265 618.537,171.4 613.683,171.211C612.712,171.184 611.499,170.348 610.932,169.512C604.541,160.64 598.122,151.74 600.684,139.281Z" style="fill:rgb(69,28,21);fill-rule:nonzero;"/>
    </g>
</svg>
