<?xml version="1.0" encoding="UTF-8" standalone="no"?>
<!DOCTYPE svg PUBLIC "-//W3C//DTD SVG 1.1//EN" "http://www.w3.org/Graphics/SVG/1.1/DTD/svg11.dtd">
<svg width="100%" height="100%" viewBox="0 0 60 61" version="1.1" xmlns="http://www.w3.org/2000/svg" xmlns:xlink="http://www.w3.org/1999/xlink" xml:space="preserve" xmlns:serif="http://www.serif.com/" style="fill-rule:evenodd;clip-rule:evenodd;stroke-linejoin:round;stroke-miterlimit:2;">
    <g transform="matrix(0.058594,0,0,0.058594,-0.001162,-0.000115)">
        <path d="M511.96,1009.647C486.288,1009.647 462.174,999.658 444.021,981.532L42.429,579.94C4.995,542.48 4.995,481.522 42.429,444.116L444.048,42.497C462.201,24.344 486.288,14.355 511.96,14.355C537.605,14.355 561.692,24.344 579.845,42.497L981.464,444.116C999.617,462.242 1009.579,486.356 1009.579,512.028C1009.579,537.673 999.616,561.787 981.464,579.94L579.872,981.532C561.719,999.658 537.605,1009.647 511.96,1009.647Z" style="fill:rgb(232,203,158);fill-rule:nonzero;"/>
    </g>
    <g transform="matrix(0.059291,0,0,0.059289,-0.358155,-0.35613)">
        <path d="M511.919,14.436C487.304,14.435 462.71,23.798 444.025,42.483L42.444,444.104C5.055,481.493 5.055,542.503 42.444,579.892L444.025,981.513C462.722,1000.194 487.346,1009.559 511.958,1009.56C536.57,1009.561 561.143,1000.191 579.852,981.513L981.473,579.892C1018.833,542.501 1018.833,481.495 981.473,444.104L579.852,42.483C561.155,23.802 536.533,14.437 511.919,14.436Z" style="fill:rgb(232,203,158);fill-rule:nonzero;"/>
    </g>
    <g transform="matrix(0.058594,0,0,0.058594,-0.001162,-0.000115)">
        <path d="M507.462,0.079C478.504,1.115 453.386,12.656 432.056,34.01C352.049,114.098 271.994,194.072 191.933,274.133C139.053,326.986 86.245,379.874 33.339,432.727C13.654,452.358 2.177,475.989 0.317,503.709C-2.002,537.82 9.268,567.131 33.537,591.4C77.059,634.895 120.59,678.466 164.086,721.988C253.369,811.271 342.669,900.491 431.899,989.801C454.065,1011.994 480.537,1023.631 512.006,1024.008C542.989,1023.63 569.387,1012.395 591.283,990.472C724.79,856.992 858.312,723.565 991.738,589.978C1032.186,549.53 1034.889,484.947 998.216,441.101C995.546,437.919 992.754,434.928 989.842,432.016C856.848,298.968 723.778,165.938 590.73,32.944C571.18,13.394 547.608,2.138 520.103,0.277C515.809,-0.006 511.6,-0.068 507.463,0.079L507.462,0.079ZM511.965,12.364C536.668,12.364 561.37,21.755 580.143,40.528L983.481,443.787C1020.997,481.334 1020.997,542.674 983.481,580.221L580.143,983.48C561.369,1002.238 536.672,1011.644 511.965,1011.644C487.258,1011.644 462.561,1002.238 443.787,983.48L40.528,580.221C3.009,542.671 3.016,481.361 40.528,443.787L443.787,40.528C462.56,21.756 487.262,12.364 511.965,12.364Z" style="fill:rgb(69,28,21);fill-rule:nonzero;"/>
    </g>
    <g transform="matrix(0.058594,0,0,0.058594,-0.001162,-0.000115)">
        <path d="M606.555,402.287C605.153,405.793 604.155,408.246 603.184,410.673C606.204,410.997 609.197,411.32 612.217,411.644C612.244,411.132 612.298,410.646 612.325,410.161C610.788,408.058 609.278,405.981 606.554,402.287L606.555,402.287ZM539.896,589.617C541.109,592.152 541.568,594.983 542.943,595.549C544.696,596.277 547.797,595.792 549.226,594.578C550.332,593.634 549.792,590.749 549.954,588.619C546.61,588.97 544.076,589.185 539.896,589.617ZM607.148,593.877L616.02,593.877L616.02,577.05C612.568,577.724 609.791,578.263 607.148,578.749L607.148,593.877ZM614.644,395.033C621.089,400.911 622.68,413.208 635.866,408.246C631.228,401.585 626.671,394.979 621.547,387.59C618.931,390.421 616.936,392.552 614.644,395.033ZM442.226,589.077L424.725,589.077C425.938,594.497 425.534,601.265 428.338,603.045C431.439,605.04 438.261,603.881 441.983,601.643C447.268,598.488 444.14,593.122 442.226,589.077ZM518.081,594.201C523.151,594.201 527.681,594.309 532.184,594.147C533.047,594.093 534.53,593.122 534.584,592.448C535.15,587.864 535.42,583.253 535.851,577.941C529.433,578.426 523.851,578.858 518.081,579.316L518.081,594.201ZM437.858,564.377C438.02,564.808 438.155,565.24 438.343,565.671C443.116,564.781 447.916,563.891 453.39,562.894L453.39,600.808C456.14,600.377 457.974,600.107 459.835,599.81L459.835,552.162C450.397,552.971 445.193,560.548 437.858,564.377ZM621.602,593.176C626.159,593.176 629.934,593.311 633.71,593.149C638.186,592.933 640.182,589.859 639.076,585.491C637.997,581.419 636.811,577.347 636.137,573.195C634.789,565.456 634.924,565.429 626.807,565.429C619.445,565.429 619.338,565.429 619.823,572.683C620.254,579.478 621.009,586.22 621.603,593.177L621.602,593.176ZM563.895,590.749C563.356,577.239 562.897,564.296 562.412,551.379C562.196,545.581 559.419,543.101 553.945,544.988C538.116,550.543 521.829,551.028 505.38,550.651C502.98,550.597 500.607,550.894 498.881,550.948C499.447,566.372 499.987,581.203 500.526,596.196C502.387,596.088 504.005,596.034 504.894,595.98L504.894,559.469C522.125,559.793 539.814,560.116 556.911,553.159C557.828,560.143 558.286,566.534 559.608,572.709C560.956,578.722 559.716,585.491 563.896,590.749L563.895,590.749ZM647.381,590.237C647.785,590.156 648.19,590.102 648.621,589.994L648.621,544.719C648.621,537.115 646.275,536.009 638.967,538.032C631.201,540.189 623.111,541.969 615.102,542.427C606.608,542.885 598.033,541.618 588.784,541.052C589.917,556.773 591.049,573.438 592.209,589.914C596.146,590.966 597.144,589.267 597.063,586.139C596.955,581.69 597.171,577.213 596.955,572.791C596.658,566.238 596.119,559.713 595.634,552.621C611.894,550.275 627.561,552.243 643.417,552.136C643.821,564.729 644.145,577.699 647.381,590.238L647.381,590.237ZM692.494,408.03C692.656,407.518 692.845,407.005 693.006,406.493C688.341,401.963 683.73,397.406 678.984,392.902C675.29,389.423 671.083,386.349 667.847,382.493C665.231,379.311 662.319,378.152 658.571,378.313C653.663,378.502 648.782,379.311 643.902,379.149C638.347,378.96 633.817,380.902 629.017,384.165C633.358,391.338 637.43,398.349 641.934,405.117C642.932,406.627 645.547,407.841 647.435,407.921C657.763,408.164 668.118,408.029 678.445,408.029L692.494,408.03ZM478.333,172C479.87,192.17 483.214,211.72 493.676,229.437C487.312,204.844 483.159,180.009 484.211,153.178C480.436,156.71 477.874,159.272 475.07,161.618C469.138,166.553 462.234,170.598 457.3,176.395C447.538,187.828 438.316,199.801 429.849,212.232C415.962,232.726 404.124,254.433 397.544,278.459C394.065,291.16 391.423,304.13 389.185,317.155C386.435,333.119 383.738,349.109 382.39,365.235C381.069,381.28 381.123,397.486 381.284,413.611C381.365,421.566 382.983,429.494 383.954,437.961C392.637,436.019 401.212,434.186 409.733,432.136C413.778,431.138 418.497,430.653 421.598,428.253C431.98,420.217 441.337,410.779 452.015,403.175C462.532,395.706 473.587,388.263 485.506,383.625C512.768,373.028 541.109,365.774 570.448,363.509C591.265,361.891 612.083,360.03 632.954,359.734C655.282,359.41 677.663,360.813 700.017,361.514C703.118,361.649 706.192,362.215 710.264,362.7C702.606,351.105 696.889,339.564 685.617,332.768C680.844,329.856 675.451,326.62 670.085,326.161C658.139,325.082 646.059,325.73 634.005,325.541C632.306,325.514 630.203,325.379 629.016,324.408C621.52,318.233 613.915,312.139 606.931,305.37C588.567,287.654 570.581,269.56 552.38,251.655C550.708,250.037 548.659,248.743 546.798,247.341C546.259,247.665 545.719,247.988 545.18,248.285C544.829,258.127 551.733,265.759 554.645,274.576C557.692,283.717 561.548,292.859 566.672,300.975C571.715,308.849 578.807,315.429 584.982,322.547L583.364,324.03C572.497,317.531 565.324,306.772 555.751,298.871C554.645,303.59 555.751,307.635 558.744,311.653C562.33,316.453 565.162,321.873 568.802,327.832C562.357,328.533 556.452,329.18 550.519,329.747C540.434,330.745 530.295,331.527 520.21,332.686C513.927,333.387 507.698,334.816 501.388,335.706C493.002,336.892 484.561,337.917 476.094,338.969C465.712,340.236 455.357,341.908 444.922,342.501C434.513,343.094 429.12,334.789 432.518,325.081C434.325,319.958 438.639,319.095 442.873,317.989C450.208,316.155 457.569,314.537 463.529,313.108C457.866,264.408 464.527,217.866 478.333,171.997L478.333,172ZM864.319,597.14C867.366,592.826 870.44,588.511 873.487,584.197C873.244,583.712 873.029,583.253 872.786,582.768C870.602,583.496 867.878,583.658 866.287,585.06C863.078,587.864 860.193,591.127 857.766,594.579C855.609,597.68 854.449,598.489 852.427,594.525C851.564,592.826 849.569,591.694 847.034,589.321C846.656,592.988 846.495,594.876 846.252,597.276C836.463,591.128 827.646,584.386 820.176,575.784C806.235,559.713 791.943,544.045 774.685,531.318C770.074,527.92 766.622,522.932 761.984,519.615C755.998,515.354 750.578,509.044 742.191,509.961C739.009,510.285 735.827,512.172 732.888,513.817C724.879,518.293 717.032,522.985 708.97,527.704C713.311,534.068 717.761,539.865 721.428,546.095C724.475,551.326 726.875,556.989 729.167,562.652C729.76,564.162 728.897,566.265 728.736,568.099C727.172,566.913 725.5,565.861 724.125,564.513C721.509,561.924 719.002,559.255 716.629,556.45C714.768,554.266 713.177,551.839 711.506,549.493C707.974,544.585 704.495,539.704 700.747,534.446C697.565,536.603 694.68,538.626 690.985,541.133C707.542,556.746 716.899,576.296 726.66,595.657C725.042,596.088 723.586,596.951 722.292,596.763C720.081,596.412 717.142,596.035 715.955,594.525C709.079,585.788 702.715,576.647 695.973,567.748C691.389,561.681 686.562,555.748 681.735,549.627C680.09,550.679 679.335,551.326 678.499,551.73C674.697,553.51 674.805,555.64 677.097,558.957C685.322,570.984 693.249,583.199 701.636,595.873L679.848,595.873C681.816,593.096 683.569,590.642 685.484,587.918C680.414,585.653 678.311,588.916 675.965,591.585C674.023,593.823 672.783,597.302 668.037,595.684C669.089,593.635 670.41,591.801 671.057,589.752C671.461,588.485 670.976,586.921 670.895,585.464C669.385,585.868 667.416,585.788 666.527,586.731C664.882,588.511 664.073,591.019 662.59,592.906C661.43,594.335 659.84,596.115 658.276,596.331C646.897,597.787 635.463,598.974 624.03,600.025C621.9,600.214 619.662,599.459 617.019,600.133C628.021,606.416 639.347,612.187 649.944,619.117C664.02,628.339 677.692,638.182 691.12,648.348C697.052,652.797 702.661,658.137 707.057,664.096C716.117,676.257 716.171,689.417 711.641,703.924C704.873,725.496 691.74,741.784 675.318,756.642C657.251,772.956 637.593,786.682 615.427,796.443C593.558,806.07 570.961,813.863 547.878,820.442C520.562,828.262 493.893,838.374 466.765,846.814C438.047,855.686 409.113,863.829 380.232,872.108C378.452,872.62 375.486,872.108 374.219,870.868C353.402,850.374 332.8,829.665 312.198,808.982C311.847,808.685 311.605,808.2 311.119,807.526C318.319,807.041 325.33,806.933 332.233,806.016C343.828,804.479 355.396,802.43 366.965,800.596C402.694,794.825 436.617,782.232 471.43,773.01C503.573,764.57 535.797,756.264 567.535,746.449C590.294,739.411 611.678,728.706 631.902,715.951C645.816,707.187 652.342,693.57 653.34,677.714C654.014,667.548 650.239,658.083 641.907,651.8C626.456,640.178 610.681,628.987 594.825,617.958C586.466,612.187 577.729,607.064 567.59,604.907C565.298,604.422 563.06,603.208 561.145,601.833C556.992,598.813 552.462,600.026 547.959,599.972C533.829,599.864 519.699,599.406 505.596,599.379C502.171,599.379 498.801,600.512 495.43,601.078C492.922,601.509 490.387,601.941 487.61,602.399C488.311,599.864 488.823,597.869 489.363,595.9C489.039,595.576 488.689,595.253 488.338,594.929C484.644,598.084 480.949,601.239 476.177,605.284C477.013,601.185 477.525,598.623 478.038,596.062C477.607,595.792 477.148,595.55 476.69,595.28C474.91,597.248 472.672,598.947 471.486,601.185C469.949,604.07 468.088,605.257 464.906,605.068C455.333,604.394 446.273,608.439 436.781,608.439C430.579,608.439 424.377,608.035 418.202,608.196C409.708,608.439 401.187,609.032 392.666,609.544C391.048,609.625 389.457,609.841 387.839,610.056C387.461,609.678 387.057,609.301 386.679,608.923C390.508,603.773 394.014,598.299 398.247,593.526C405.285,585.544 412.377,577.455 420.224,570.282C443.118,549.33 470.811,536.791 499.449,525.789C517.732,518.751 536.149,512.064 555.295,507.884C568.292,505.026 581.586,503.246 594.746,501.089C605.694,499.309 616.615,497.476 627.617,495.939C637.621,494.51 647.625,493.135 657.711,492.245C675.212,490.708 692.739,489.414 710.267,488.362C718.977,487.877 727.741,488.2 736.531,488.2C758.265,488.2 780.027,488.146 801.761,488.281C807.316,488.308 812.817,489.036 818.183,489.414C818.453,488.605 818.587,488.389 818.534,488.281C808.584,466.951 803.622,443.006 785.879,425.775C782.104,422.108 778.14,418.575 774.122,415.204C773.07,414.341 771.425,413.937 770.05,413.91C748.262,413.532 726.501,413.101 704.739,412.993C693.737,412.966 682.762,413.505 671.787,413.856C652.695,414.53 633.55,414.8 614.512,416.013C591.861,417.496 569.264,419.33 546.694,421.865C518.542,425.02 490.471,428.903 462.4,432.705C443.767,435.213 425.134,437.801 406.581,440.822C394.635,442.79 382.905,445.945 370.986,448.022C363.463,449.343 355.75,450.125 348.092,450.476C340.164,450.8 335.445,444.867 337.144,436.993C338.6,430.09 342.106,424.697 349.413,422.459C356.424,420.302 363.3,417.713 370.338,415.313C361.305,356.986 362.976,299.469 381.906,243.084C381.663,243.138 380.504,243.3 379.479,243.812C353.889,256.54 328.945,270.508 305.917,287.388C287.095,301.167 270.134,317.428 255.869,336.142C253.901,338.731 252.283,341.589 250.773,344.474C243.25,358.901 235.564,373.3 228.445,387.916C225.236,394.442 223.025,401.48 220.625,408.41C219.412,411.916 217.605,413.992 213.776,415.071C197.03,419.682 184.626,430.576 174.541,444.113C170.739,449.29 168.609,455.708 165.75,461.56C164.375,464.418 165.669,465.659 168.527,465.416C170.253,465.254 172.006,464.715 173.704,464.203C185.865,460.509 197.892,456.329 210.188,453.174C216.12,451.664 222.592,451.826 228.794,451.691C233.351,451.583 240.578,456.626 241.495,459.808C242.843,464.338 239.527,472.805 235.293,475.556C234.673,475.987 233.783,476.284 233.028,476.257C215.204,475.933 199.132,482.621 182.98,488.796C175.726,491.573 168.85,495.403 162.136,499.393C159.79,500.795 157.417,503.95 156.986,506.647C154.802,519.968 153.265,533.37 151.539,546.772C151.431,547.554 151.62,548.39 151.674,549.522C159.278,547.769 166.586,545.801 174.002,544.399C193.471,540.678 203.853,547.662 215.691,564.515C223.646,575.868 225.668,589.62 224.536,604.424C246.594,587.894 269.272,587.22 291.222,602.779C296.507,606.554 301.981,612.891 303.545,620.414C297.019,615.156 291.384,609.304 284.642,605.475C265.928,594.824 251.178,593.853 232.518,608.738C223.862,615.587 216.824,624.513 209.247,632.71C204.879,637.402 200.672,642.067 193.31,642.606C193.661,638.318 193.957,634.22 194.362,629.042C186.919,632.682 188.699,640.098 185.436,644.628C183.629,639.828 181.93,635.298 180.232,630.741C179.531,630.822 178.884,630.876 178.183,630.93C177.752,635.946 177.293,640.907 176.862,645.977C172.79,648.026 169.446,647.622 166.534,643.334C165.24,641.473 162.651,640.557 160.629,639.154C160.225,639.558 159.847,639.936 159.443,640.34C160.764,643.171 162.086,646.03 163.407,648.888C156.881,651.018 152.243,649.589 147.362,644.547C119.668,616.26 91.381,588.512 63.526,560.387C38.745,535.363 36.021,498.663 56.758,471.212C59.05,468.219 61.693,465.441 64.362,462.745C196.925,330.209 329.623,197.781 461.889,64.949C487.992,38.711 526.876,36.473 553.356,57.318C556.457,59.745 559.315,62.549 562.093,65.3C694.44,197.647 826.76,329.94 959.08,462.26C988.365,491.572 988.392,532.344 959.134,561.682C946.541,574.302 933.84,586.814 921.409,599.542C918.685,602.319 915.989,603.398 912.268,603.074C903.585,602.265 894.902,601.726 886.192,600.971C884.736,600.863 883.307,600.351 881.338,599.892C884.385,597.034 887.163,594.445 889.967,591.883C889.859,591.371 889.724,590.858 889.616,590.373C888.079,590.238 886.353,589.537 885.14,590.076C881.392,591.667 877.913,593.878 874.192,595.604C871.388,596.898 868.448,597.815 865.563,598.921C865.132,598.301 864.727,597.735 864.323,597.141L864.319,597.14Z" style="fill:rgb(69,28,21);fill-rule:nonzero;"/>
    </g>
    <g transform="matrix(0.058594,0,0,0.058594,-0.001162,-0.000115)">
        <path d="M323.613,498.13C328.008,498.346 334.076,501.824 339.253,507.514C349.122,518.381 350.902,531.972 352.547,545.67C353.653,554.865 352.655,563.656 347.639,571.611C340.628,582.667 330.057,589.031 317.033,584.932C306.894,581.723 300.18,575.386 295.757,565.139C288.935,549.472 288.746,533.994 293.087,518.084C296.35,506.327 307.837,498.129 323.612,498.129L323.613,498.13Z" style="fill:rgb(69,28,21);fill-rule:nonzero;"/>
    </g>
    <g transform="matrix(0.058594,0,0,0.058594,-0.001162,-0.000115)">
        <path d="M233.812,543.988C232.814,535.656 236.104,529.022 241.308,523.386C250.719,513.301 262.692,517.804 268.247,527.323C271.591,533.067 274.314,539.916 274.665,546.415C275.043,553.264 273.964,561.327 270.512,567.044C263.851,578.019 247.834,578.801 239.367,565.507C235.133,558.846 232.949,551.674 233.812,543.988Z" style="fill:rgb(69,28,21);fill-rule:nonzero;"/>
    </g>
    <g transform="matrix(0.058594,0,0,0.058594,-0.001162,-0.000115)">
        <path d="M351.63,680.399C346.372,689.756 341.248,699.14 335.774,708.362C334.911,709.791 332.134,711.463 330.812,711.059C327.819,710.196 327.954,707.365 329.491,705.1C334.345,698.035 339.28,691.024 344.376,684.148C345.913,682.072 348.043,680.454 349.931,678.647C350.47,679.24 351.064,679.833 351.63,680.4L351.63,680.399Z" style="fill:rgb(69,28,21);fill-rule:nonzero;"/>
    </g>
    <g transform="matrix(0.058594,0,0,0.058594,-0.001162,-0.000115)">
        <path d="M555.398,877.005C555.155,878.785 555.263,880.726 554.67,882.398C552.513,888.654 550.302,894.91 547.632,901.004C546.958,902.622 544.207,904.86 543.183,904.536C540.945,903.754 538.707,901.893 540.19,898.496C542.698,892.887 544.612,887.009 547.444,881.616C548.684,879.297 551.651,877.814 553.835,875.98L555.398,877.005Z" style="fill:rgb(69,28,21);fill-rule:nonzero;"/>
    </g>
    <g transform="matrix(0.058594,0,0,0.058594,-0.001162,-0.000115)">
        <path d="M364.034,690.446C363.198,692.603 362.848,694.787 361.688,696.244C357.535,701.529 353.248,706.653 348.745,711.587C347.909,712.504 345.698,712.827 344.457,712.396C343.567,712.072 342.65,709.942 342.866,708.864C343.837,703.282 357.293,691.525 364.034,690.446Z" style="fill:rgb(69,28,21);fill-rule:nonzero;"/>
    </g>
    <g transform="matrix(0.058594,0,0,0.058594,-0.001162,-0.000115)">
        <path d="M764.829,632.255C764.829,633.927 765.26,635.734 764.748,637.217C762.806,642.718 760.757,648.246 758.303,653.531C757.71,654.744 755.391,655.203 753.854,655.985C753.315,654.232 751.886,652.156 752.371,650.754C754.097,645.846 756.416,641.181 758.654,636.462C759.625,634.413 761,632.552 762.213,630.61C763.076,631.149 763.966,631.716 764.829,632.255Z" style="fill:rgb(69,28,21);fill-rule:nonzero;"/>
    </g>
    <g transform="matrix(0.058594,0,0,0.058594,-0.001162,-0.000115)">
        <path d="M574.908,890.396C571.133,895.708 567.816,900.751 564.068,905.416C563.151,906.549 560.778,906.549 559.079,907.088C558.944,905.281 558.135,903.097 558.836,901.668C560.481,898.351 562.638,895.223 565.011,892.311C567.33,889.48 570.134,887.161 574.907,890.396L574.908,890.396Z" style="fill:rgb(69,28,21);fill-rule:nonzero;"/>
    </g>
    <g transform="matrix(0.058594,0,0,0.058594,-0.001162,-0.000115)">
        <path d="M746.01,649.211C745.498,651.773 745.417,653.822 744.635,655.494C744.042,656.734 742.262,658.433 741.453,658.244C740.051,657.893 737.921,656.249 737.894,655.089C737.84,650.775 738.056,646.325 739.027,642.146C739.728,639.288 742.263,639.53 743.53,641.93C744.797,644.303 745.31,647.08 746.011,649.211L746.01,649.211Z" style="fill:rgb(69,28,21);fill-rule:nonzero;"/>
    </g>
    <g transform="matrix(0.058594,0,0,0.058594,-0.001162,-0.000115)">
        <path d="M321.76,704.727C321.76,706.021 322.138,707.504 321.679,708.583C321.086,709.877 319.737,711.792 318.794,711.738C317.473,711.684 315.262,710.255 315.073,709.149C314.507,706.048 314.507,702.785 314.965,699.711C315.127,698.417 316.96,697.365 318.066,696.205C319.226,697.418 320.763,698.47 321.41,699.899C322.084,701.301 321.788,703.108 321.922,704.726L321.76,704.727Z" style="fill:rgb(69,28,21);fill-rule:nonzero;"/>
    </g>
    <g transform="matrix(0.058594,0,0,0.058594,-0.001162,-0.000115)">
        <path d="M737.666,577.736C742.789,583.938 747.913,590.113 753.495,596.882C748.506,598.824 746.106,597.934 744.462,594.509C741.9,589.251 739.15,584.073 736.453,578.869C736.857,578.491 737.262,578.114 737.666,577.736Z" style="fill:rgb(69,28,21);fill-rule:nonzero;"/>
    </g>
    <g transform="matrix(0.058594,0,0,0.058594,-0.001162,-0.000115)">
        <path d="M785.484,647.477C782.868,650.578 780.441,653.841 777.502,656.564C776.477,657.454 774.104,656.888 772.379,656.968C772.622,655.431 772.352,653.436 773.215,652.438C775.103,650.254 777.368,648.258 779.822,646.694C781.116,645.858 783.112,646.128 784.811,645.912C785.027,646.451 785.242,646.964 785.485,647.476L785.484,647.477Z" style="fill:rgb(69,28,21);fill-rule:nonzero;"/>
    </g>
    <g transform="matrix(0.058594,0,0,0.058594,-0.001162,-0.000115)">
        <path d="M521.67,898.54C527.198,901.506 525.634,905.227 525.472,908.463C525.445,908.975 523.719,910.054 523.342,909.838C522.156,909.218 520.43,908.112 520.43,907.168C520.403,904.552 521.131,901.91 521.67,898.539L521.67,898.54Z" style="fill:rgb(69,28,21);fill-rule:nonzero;"/>
    </g>
</svg>
