<?xml version="1.0" encoding="UTF-8" standalone="no"?>
<!DOCTYPE svg PUBLIC "-//W3C//DTD SVG 1.1//EN" "http://www.w3.org/Graphics/SVG/1.1/DTD/svg11.dtd">
<svg width="100%" height="100%" viewBox="0 0 61 61" version="1.1" xmlns="http://www.w3.org/2000/svg" xmlns:xlink="http://www.w3.org/1999/xlink" xml:space="preserve" xmlns:serif="http://www.serif.com/" style="fill-rule:evenodd;clip-rule:evenodd;stroke-linejoin:round;stroke-miterlimit:2;">
    <g transform="matrix(0.058594,0,0,0.058594,-0.000081,-0.000069)">
        <path d="M511.96,1009.647C486.288,1009.647 462.174,999.658 444.021,981.532L42.429,579.94C4.995,542.48 4.995,481.522 42.429,444.116L444.048,42.497C462.201,24.344 486.288,14.355 511.96,14.355C537.605,14.355 561.692,24.344 579.845,42.497L981.464,444.116C999.617,462.242 1009.579,486.356 1009.579,512.028C1009.579,537.673 999.616,561.787 981.464,579.94L579.872,981.532C561.719,999.658 537.605,1009.647 511.96,1009.647Z" style="fill:rgb(232,203,158);fill-rule:nonzero;"/>
    </g>
    <g transform="matrix(0.058594,0,0,0.058594,-0.000081,-0.000069)">
        <path d="M511.919,14.436C487.304,14.435 462.71,23.798 444.025,42.483L42.444,444.104C5.055,481.493 5.055,542.503 42.444,579.892L444.025,981.513C462.722,1000.194 487.346,1009.559 511.958,1009.56C536.57,1009.561 561.143,1000.191 579.852,981.513L981.473,579.892C1018.833,542.501 1018.833,481.495 981.473,444.104L579.852,42.483C561.155,23.802 536.533,14.437 511.919,14.436Z" style="fill:rgb(232,203,158);fill-rule:nonzero;"/>
    </g>
    <g transform="matrix(0.058594,0,0,0.058594,-0.000081,-0.000069)">
        <path d="M1009.463,511.748C1009.139,484.563 998.999,461.64 979.743,442.411C846.895,309.644 714.101,176.796 581.252,44.028C541.689,4.546 482.277,4.6 442.659,44.136C309.838,176.903 176.99,309.698 44.222,442.546C4.227,482.541 4.416,541.656 44.492,581.732C82.06,619.326 119.654,656.894 157.195,694.488C252.341,789.58 347.433,884.726 442.579,979.791C481.765,1018.896 541.581,1019.543 580.066,981.086C713.75,847.564 847.381,713.906 980.984,580.276C999.835,561.398 1009.22,538.528 1009.463,511.748ZM1024.107,513.366C1023.622,542.384 1013.239,568.625 991.852,590.011C858.41,723.587 724.861,857.083 591.339,990.551C567.067,1014.796 537.698,1026.042 503.583,1023.696C476.965,1021.862 453.799,1011.344 434.786,992.574C406.388,964.5 378.232,936.155 349.996,907.919C244.737,802.66 139.505,697.347 34.165,592.169C9.785,567.789 -1.946,538.528 0.265,504.197C2.018,476.284 13.534,452.498 33.356,432.703C86.242,379.871 139.101,326.985 191.959,274.127C272.002,194.057 352.127,114.067 432.143,33.97C456.523,9.563 485.865,-2.006 520.196,0.286C547.758,2.12 571.302,13.42 590.827,32.945C719.792,161.883 848.783,290.82 977.721,419.785C984.625,426.689 991.691,433.404 998.002,440.821C1015.424,461.317 1023.865,485.266 1024.108,513.367L1024.107,513.366Z" style="fill:rgb(69,28,21);fill-rule:nonzero;"/>
    </g>
    <g transform="matrix(0.058594,0,0,0.058594,-0.000081,-0.000069)">
        <path d="M542.499,737.01C542.364,736.444 542.229,735.85 542.094,735.257C540.611,734.799 539.154,733.855 537.698,733.936C525.05,734.664 509.731,749.039 508.059,761.444C507.358,766.703 509.434,770.748 513.318,773.931C514.208,774.659 515.988,775.172 516.797,774.74C517.552,774.335 518.065,772.394 517.741,771.369C514.316,760.231 519.089,752.895 528.313,747.178C533.248,744.104 537.779,740.409 542.499,737.011L542.499,737.01ZM670.169,318.158C667.31,317.942 664.371,317.996 661.593,317.349C649.862,314.76 638.157,311.928 626.453,309.231C625.887,309.096 625.158,309.15 624.592,309.366C618.632,311.712 612.699,314.113 605.417,317.052C608.357,317.942 609.975,318.643 611.647,318.886C624.053,320.612 636.674,321.529 648.864,324.172C657.494,326.006 663.292,321.151 670.169,318.158ZM719.953,529.269C729.041,525.628 737.375,522.419 745.519,518.94C746.544,518.508 747.596,516.863 747.596,515.785C747.785,506.589 747.731,497.419 747.731,488.196C747.057,488.196 746.49,488.007 746.113,488.223C737.699,492.538 729.338,496.88 721.005,501.33C720.385,501.654 720.034,502.948 719.98,503.811C719.926,511.983 719.953,520.208 719.953,529.27L719.953,529.269ZM320.627,608.261C320.735,607.829 320.897,607.371 321.005,606.94C316.124,605.322 311.377,603.245 306.388,602.167C279.824,596.234 254.096,588.359 231.334,572.69C228.988,571.072 226.048,570.209 223.27,569.481C222.191,569.211 219.845,570.02 219.683,570.749C219.413,571.963 219.926,574.066 220.897,574.74C226.83,579.055 232.682,583.559 239.101,587.092C264.452,601.089 290.827,611.553 320.628,608.262L320.627,608.261ZM612.024,790.543C612.024,779.836 612.051,769.373 611.997,758.936C611.997,758.208 611.539,757.372 611.026,756.832C604.5,750.063 597.973,743.294 590.638,735.742C589.748,747.608 589.02,757.695 588.265,767.835C588.022,770.64 588.265,773.013 591.097,774.982C598.271,779.998 605.175,785.392 612.025,790.543L612.024,790.543ZM279.85,469.264C279.472,469.884 279.176,470.127 279.176,470.424C278.852,487.981 278.529,505.591 278.367,523.202C278.367,524.308 279.392,525.98 280.417,526.438C286.08,529.135 291.879,531.535 298.297,534.313C298.297,527.193 298.324,520.802 298.297,514.383C298.297,502.759 298.297,491.136 298.135,479.485C298.135,478.352 297.245,476.599 296.328,476.168C290.907,473.687 285.352,471.502 279.85,469.264ZM853.907,541.918C853.691,541.621 853.529,541.325 853.314,541.055C852.586,541.163 851.777,541.136 851.156,541.433C841.043,546.395 830.633,550.872 820.951,556.509C803.826,566.46 786.782,576.304 768.227,583.532C753.34,589.33 739.047,596.558 724.484,603.246C722.839,604.028 721.463,605.43 719.926,606.509C720.088,607.021 720.196,607.588 720.331,608.127C723.594,607.857 726.938,607.938 730.121,607.318C748.945,603.758 765.639,594.508 783.169,587.523C805.877,578.488 824.809,563.359 844.766,549.902C848.11,547.664 850.861,544.589 853.908,541.919L853.907,541.918ZM292.822,394.479L292.471,395.908C296.948,397.31 301.371,398.955 305.955,400.007C311.349,401.302 316.823,402.057 322.298,402.947C324.024,403.217 325.912,403.513 327.53,403.082C333.301,401.599 338.965,399.846 344.655,398.12C359.191,393.778 373.727,389.409 388.857,384.851C380.955,382.532 373.862,380.051 366.581,378.486C359.03,376.868 352.099,373.389 343.388,377.03C326.964,383.853 309.731,388.761 292.822,394.479ZM824.835,454.674C821.14,456.454 818.174,458.126 815.045,459.367C798.405,466.055 781.739,472.69 765.072,479.216C762.402,480.268 761.188,481.454 761.512,484.529C762.348,493.159 762.833,501.843 763.562,510.5C763.724,512.658 764.344,514.788 764.803,517.296C785.084,506.374 804.798,495.802 824.377,485.095C825.402,484.529 826.292,482.587 826.238,481.346C825.941,472.635 825.348,463.951 824.836,454.674L824.835,454.674ZM423.674,188.384C423.998,188.357 424.321,188.303 424.672,188.276C425.05,189.84 425.454,191.431 425.832,192.969C427.153,198.336 434.732,204.727 439.262,203.972C446.328,202.812 453.367,201.518 460.379,200.088C466.636,198.767 472.164,190.973 471.409,184.5C471.301,183.475 470.762,182.046 470.007,181.614C463.615,178 457.493,172.957 450.643,171.528C439.532,169.182 427.908,168.507 416.474,168.561C403.151,168.642 391.42,174.359 381.334,182.881C375.617,187.681 375.913,193.695 381.846,196.446C389.02,199.736 396.409,203.647 404.041,204.591C413.966,205.751 420.762,204.079 422.542,193.021C422.785,191.457 423.27,189.92 423.675,188.382L423.674,188.384ZM269.305,530.699C269.305,510.796 268.847,492.457 269.521,474.199C269.818,466.621 268.038,462.117 260.54,460.283C259.138,459.959 257.951,458.8 256.603,458.233C246.625,454.107 236.619,450.008 225.859,445.639C226.237,451.033 226.587,455.105 226.749,459.177C226.884,463.438 226.722,467.726 226.803,472.041C226.911,480.078 228.044,488.276 227.127,496.205C225.671,508.476 231.685,514.139 242.176,518.023C250.941,521.286 259.193,525.898 269.307,530.698L269.305,530.699ZM479.338,240.191C479.796,240.488 480.282,240.838 480.794,241.162C480.605,242.915 480.416,244.722 480.336,246.475C480.228,248.282 480.228,250.116 480.255,251.896C480.39,257.317 483.437,260.931 488.723,260.337C496.301,259.555 504.149,258.881 511.161,256.238C520.303,252.732 529.608,248.066 530.093,236.119C530.147,234.123 528.96,230.995 527.45,230.213C519.791,226.222 512.186,221.178 503.96,219.641C491.635,217.322 478.825,216.89 466.285,217.241C459.543,217.43 452.585,220.181 446.301,223.012C434.327,228.379 431.927,242.349 439.99,250.736C443.523,254.458 449.213,257.182 454.364,258.152C463.075,259.797 473.377,258.152 475.858,245.773C476.263,243.75 478.123,242.051 479.337,240.19L479.338,240.191ZM844.9,464.571C846.545,466.729 847.327,468.643 848.73,469.398C853.557,472.122 855.149,476.707 854.825,481.399C854.501,485.957 853.827,492.052 850.888,494.587C844.55,499.981 836.81,503.945 829.313,507.802C814.372,515.515 799.081,522.554 784.14,530.267C756.551,544.48 729.178,559.178 701.508,573.282C681.848,583.287 662.026,592.834 640.936,599.711C619.145,606.804 599.296,619.209 576.588,623.929C575.482,624.172 574.404,624.576 573.325,624.9C573.81,625.574 574.296,626.302 574.781,627.031C576.48,627.274 578.287,628.029 579.878,627.786C586.458,626.788 593.228,626.141 599.538,624.145C611.027,620.504 622.192,615.839 633.6,611.955C656.874,604.107 679.69,595.234 701.507,583.961C725.806,571.367 749.781,558.125 774.107,545.665C790.962,537.008 808.492,529.565 825.294,520.854C835.866,515.379 845.925,508.772 855.85,502.138C860.947,498.74 864.372,493.859 861.918,486.982C861.648,486.281 861.783,485.391 861.918,484.609C863.752,474.037 857.279,465.785 844.901,464.571L844.9,464.571ZM368.119,370.72C370.196,371.475 371.382,372.041 372.596,372.392C381.037,374.711 389.478,377.139 397.974,379.269C400.212,379.862 402.828,380.159 404.932,379.566C425.671,373.498 446.383,367.43 466.96,360.904C479.878,356.805 492.796,353.083 506.442,352.382C507.71,352.301 509.004,350.144 510.029,348.768C511.377,347.015 511.971,344.291 513.643,343.347C522.624,338.412 532.251,336.416 542.5,337.926C543.498,338.088 544.765,338.088 545.547,337.575C549.457,335.013 553.233,332.235 558.168,328.783C555.606,328.783 554.365,328.756 553.125,328.783C540.45,329.107 527.72,329.97 515.072,329.592C500.752,329.187 487.24,331.803 473.864,336.685C451.453,344.884 427.505,348.12 405.552,358.26C393.928,363.6 381.199,366.459 368.119,370.72ZM405.201,319.695C405.875,320.1 406.469,320.666 407.143,320.828C415.746,322.527 424.565,323.525 432.925,325.952C443.227,328.919 452.531,327.732 461.97,323.093C468.254,320.019 474.726,316.62 481.468,315.272C491.527,313.303 501.883,312.683 512.158,312.09C524.105,311.362 536.16,311.362 548.161,310.957C552.961,310.795 557.762,310.337 562.535,310.067C565.609,309.878 568.711,309.312 571.677,309.77C582.303,311.415 592.821,315.245 603.177,308.125C606.953,305.536 611.753,304.403 617.443,302.03C610.836,300.628 605.792,299.441 600.749,298.443C582.626,294.829 564.557,291.62 545.895,293.157C524.644,294.91 503.311,295.638 482.033,297.229C476.154,297.661 470.032,298.82 464.665,301.139C445.571,309.553 425.345,314.03 405.199,319.694L405.201,319.695ZM203.69,497.743C199.024,494.615 195.788,496.206 192.849,498.93C188.965,502.544 186.808,509.637 189.451,512.576C193.308,516.918 197.676,521.071 202.531,524.253C208.626,528.217 215.476,530.995 221.868,534.474C228.071,537.791 234.085,541.432 240.288,544.722C256.631,553.433 274.134,559.15 291.529,565.38C324.323,577.111 357.225,588.735 389.129,603.055C409.544,612.224 431.443,618.319 453.072,624.522C465.37,628.028 478.504,628.621 491.179,631.129C511.379,635.12 531.659,634.446 551.994,632.72C553.909,632.558 555.716,631.399 558.898,630.212C555.985,628.783 554.475,627.542 552.857,627.38C544.227,626.49 535.597,625.762 526.94,625.169C519.955,624.711 512.916,624.899 505.985,624.117C496.6,623.065 487.242,621.42 477.937,619.91C468.633,618.346 459.14,617.294 450.105,614.732C434.059,610.12 418.093,604.942 402.37,599.252C390.773,594.991 379.797,589.085 368.254,584.662C341.932,574.63 315.584,564.516 288.858,555.509C271.166,549.522 254.122,542.402 237.563,533.88C229.58,529.808 221.355,526.167 213.48,521.852C208.356,519.101 203.529,515.757 198.998,512.143C195.924,509.716 196.355,506.345 198.836,503.405C200.292,501.652 201.776,499.953 203.69,497.742L203.69,497.743ZM738.697,370.504L738.616,369.317C729.231,366.296 719.846,363.222 710.919,360.309C711.351,359.068 711.701,358.044 711.863,357.639C702.316,355.212 693.282,352.461 684.031,350.681C665.342,347.013 646.598,343.75 627.801,340.568C607.763,337.143 587.618,334.122 567.607,330.509C564.371,329.943 562.618,330.779 560.191,332.451C555.418,335.795 550.482,340.623 545.223,341.162C536.081,342.106 526.965,341.836 518.794,346.745C518.524,346.88 518.309,347.15 518.147,347.338L518.147,350.601C526.211,350.601 534.059,350.736 541.853,350.574C548.137,350.385 554.393,350.089 560.569,349.36C569.118,348.335 577.505,348.2 585.893,350.681C599.027,354.538 612.215,358.097 625.348,361.765C626.319,362.062 627.263,362.52 628.18,362.466C635.974,361.765 643.768,360.794 651.589,360.335C656.443,360.092 661.352,360.659 666.206,360.874L666.233,363.382L637.646,363.382C637.592,364.056 637.538,364.73 637.484,365.432C641.745,366.079 646.06,366.511 650.24,367.482C667.015,371.258 683.762,375.33 700.591,378.998C705.23,379.996 710.435,381.29 714.777,380.077C723.002,377.785 730.716,373.793 738.698,370.503L738.697,370.504ZM431.684,662.09C427.989,658.099 414.154,652.246 409.084,652.624C401.128,653.19 393.199,653.945 385.217,654.431C383.896,654.512 382.547,653.784 381.199,653.406C381.226,652.948 381.253,652.462 381.253,652.004C384.004,651.222 386.755,650.386 389.532,649.685C394.09,648.498 398.728,647.635 403.178,646.125C407.088,644.804 408.788,641.325 407.817,637.495C407.412,635.931 404.823,634.259 402.963,633.935C386.188,630.807 369.387,628.433 352.127,630.672C337.267,632.56 324.673,638.223 314.829,649.523C310.217,654.836 310.703,664.032 316.555,667.997C321.976,671.665 328.286,674.631 334.624,676.169C343.928,678.38 353.637,679.513 363.211,680.241C374.43,681.104 385.811,681.967 396.976,681.104C410.892,680.025 425.509,678.677 431.685,662.091L431.684,662.09ZM584.273,679.728C584.273,691.405 584.246,703.056 584.327,714.707C584.327,715.759 584.732,717.026 585.406,717.808C589.613,722.635 593.631,727.733 598.324,732.074C614.047,746.583 630.012,760.877 646.005,775.089C647.461,776.357 649.781,777.166 651.722,777.327C665.773,778.217 679.823,778.864 694.71,779.646C694.063,765.649 693.389,751.76 692.687,737.17C680.012,736.9 668.361,736.712 656.657,736.28C654.715,736.226 652.315,735.66 650.913,734.419C645.034,729.133 639.316,723.658 633.842,717.968C619.468,703.162 603.448,690.46 584.273,679.726L584.273,679.728ZM459.786,831.293C458.599,833.936 456.712,837.172 455.606,840.678C452.073,851.816 457.089,859.88 468.875,860.365C478.287,860.716 488.266,860.85 497.084,858.154C507.898,854.891 520.547,853.704 526.534,840.894C530.067,833.343 531.092,821.261 525.32,816.487C517.391,810.014 509.004,803.461 499.727,799.335C485.676,793.051 470.277,790.462 454.824,790.408C437.025,790.327 421.868,797.663 409.004,809.664C403.691,814.626 402.019,826.115 405.174,831.644C408.329,837.227 423.054,844.05 429.149,842.108C439.613,838.764 449.888,834.853 459.786,831.294L459.786,831.293ZM411.619,583.288C411.673,583.207 411.808,583.099 411.808,582.937C411.538,562.683 411.296,542.43 410.891,522.176C410.864,521.124 409.596,519.533 408.545,519.102C400.104,515.569 391.609,512.279 383.086,508.935C367.957,503.002 352.8,497.069 337.644,491.163C328.636,487.684 319.683,484.178 309.516,480.241L309.516,547.501C343.281,559.34 377.45,571.314 411.62,583.289L411.619,583.288ZM718.955,489.895C720.897,489.49 721.517,489.463 722.11,489.194C742.714,479.89 763.318,470.451 784.003,461.281C796.22,455.887 808.599,450.952 820.842,445.639C822.163,445.046 823.863,443.266 823.836,442.079C823.674,432.208 823.431,422.311 822.676,412.467C821.732,400.196 820.276,387.952 819.008,375.736C818.388,369.506 818.873,363.007 812.913,358.449C810.567,356.588 809.38,353.298 807.303,350.979C805.793,349.28 803.905,347.392 801.828,346.772C789.557,343.05 777.152,339.652 764.8,336.146C747.918,331.346 732.249,322.985 714.665,320.046C703.419,318.158 692.712,315.947 682.06,322.042C678.123,324.253 673.538,325.332 669.546,326.815C685.269,330.806 700.938,334.555 716.499,338.762C729.282,342.241 741.877,346.286 754.579,350.062C760.809,351.896 762.804,354.215 763.506,360.715C763.991,365.273 764.288,369.911 764.908,374.442C765.852,381.157 764.342,384.663 758.058,387.252C740.69,394.345 723.187,401.114 705.793,408.099C698.754,410.904 691.796,413.87 684.137,417.026C693.468,419.48 701.909,421.584 710.27,423.93C714.261,425.036 717.606,427.193 717.902,431.832C718.387,438.736 718.846,445.64 718.927,452.544C719.062,464.869 718.954,477.193 718.954,489.896L718.955,489.895ZM253.474,423.066C253.771,424.064 254.553,425.17 254.337,426.006C253.204,430.051 256.117,431.319 258.76,432.479C264.693,435.041 270.572,438.089 276.802,439.572C284.92,441.514 286.888,447.312 288.345,454.054C288.723,455.834 289.72,457.425 290.017,459.178C290.745,463.871 293.874,466.001 297.946,467.43C308.383,471.044 318.982,474.388 329.284,478.433C338.426,481.993 347.11,486.685 356.253,490.191C370.25,495.504 384.516,500.116 398.594,505.186C402.666,506.669 406.523,508.692 410.73,510.634C411.485,498.552 412.456,487.063 412.834,475.548C412.996,470.424 415.126,467.889 419.765,466.271C428.853,463.089 437.807,459.556 446.761,456.158C433.978,451.304 421.572,445.856 408.681,441.865C388.805,435.662 368.605,430.592 348.622,424.794C333.466,420.425 318.309,415.975 303.395,410.932C290.504,406.536 277.856,401.385 265.207,396.342C263.939,395.803 262.51,393.78 262.51,392.458C262.51,391.217 264.047,389.491 265.315,388.817C268.47,387.145 271.814,385.796 275.159,384.61C304.204,374.335 333.25,364.114 362.322,353.947C380.445,347.609 398.649,341.433 416.826,335.204C418.687,334.557 420.683,334.179 422.624,333.694C421.141,332.48 419.738,332.157 418.336,331.725C410.731,329.46 402.964,327.464 395.52,324.632C392.742,323.553 390.585,323.23 387.861,324.254C360.326,334.853 332.845,345.586 305.202,355.781C279.69,365.22 253.988,374.12 228.368,383.235C221.626,385.635 219.63,387.82 219.873,393.456C220.466,405.457 221.033,417.485 221.923,429.459C222.166,432.21 222.948,436.471 224.782,437.361C233.385,441.568 242.393,444.858 251.292,448.445C258.762,451.412 266.287,454.324 273.811,457.237C275.429,457.857 277.155,458.262 279.313,458.963C279.313,456.185 279.475,454.055 279.259,451.951C279.016,449.551 279.232,446.018 277.83,445.02C273.03,441.784 267.852,438.655 262.35,436.902C253.72,434.124 251.05,435.068 253.477,423.067L253.474,423.066ZM672.866,473.794C672.812,473.47 672.785,473.201 672.731,472.877C676.372,474.738 680.013,476.599 682.871,478.055C684.381,480.482 685.649,482.532 687.213,485.04C695.169,470.558 697.353,469.29 710.298,471.232C709.705,458.152 709.084,445.207 708.491,432.127C698.243,429.835 688.264,427.434 678.205,425.385C674.16,424.549 669.737,423.443 665.826,424.198C660.324,425.304 655.065,427.893 649.807,430.077C627.639,439.327 605.497,448.658 583.356,457.909C581.711,458.583 579.931,459.204 578.151,459.311C563.264,460.444 548.351,461.711 533.437,462.385C518.955,463.059 504.419,463.356 489.936,463.329C483.113,463.329 476.344,462.061 469.521,461.549C466.042,461.333 462.293,460.821 459.03,461.738C447.595,465.001 436.349,468.885 424.941,472.391C422.406,473.146 421.759,474.522 421.813,477.003C421.921,481.615 421.786,486.226 421.624,490.838C421.112,506.938 420.599,523.066 420.06,539.166C420.545,539.031 421.004,538.896 421.462,538.734C423.916,540.568 426.613,542.132 428.771,544.263C432.762,548.147 436.511,552.3 440.287,556.453C445.654,562.332 448.863,562.089 453.61,555.671C455.093,553.621 457.062,551.167 459.273,550.601C466.582,548.578 468.901,543.589 469.467,536.766C469.737,533.476 470.896,530.267 471.625,527.03C472.218,527.111 472.785,527.192 473.378,527.327L473.378,548.282C480.902,548.875 488.507,549.442 496.113,550.008L496.113,552.219C489.506,552.651 482.898,553.244 476.264,553.46C473.19,553.568 470.115,552.84 467.041,552.732C464.964,552.651 462.348,552.193 460.919,553.19C456.901,555.995 452.99,559.15 449.781,562.764C446.868,566.027 444.037,566.297 440.719,564.355C438.481,563.087 436.647,561.146 434.489,559.716C430.336,556.965 426.992,552.542 421.328,552.677C421.328,562.386 421.274,571.609 421.355,580.805C421.382,581.965 421.76,583.826 422.542,584.149C427.396,586.36 432.332,588.599 437.483,590.136C448.675,593.507 460.002,596.474 471.329,599.548C477.1,601.139 482.872,603.863 488.67,603.863C506.415,603.863 524.161,602.973 541.879,602.083C557.305,601.328 572.704,600.303 588.103,599.036C593.416,598.604 599.295,598.335 603.772,595.908C637.402,577.542 671.464,560.228 706.793,545.369C708.249,544.776 709.867,542.429 709.894,540.865C710.218,526.032 710.029,511.172 710.326,496.367C710.434,490.542 709.005,485.795 704.447,481.912C702.991,480.671 702.343,478.46 700.86,475.898C695.898,479.485 691.016,483.234 689.641,491.216C683.654,484.986 678.233,479.404 672.866,473.794ZM705.633,738.277C705.094,752.57 704.608,766.513 704.096,780.753C714.722,781.697 725.078,782.614 735.515,783.585C733.492,789.195 729.69,791.649 724.512,791.271C700.051,789.545 675.591,787.9 651.13,786.255C645.224,785.85 640.99,783.693 637.025,778.596C632.009,772.231 624.862,767.566 618.363,761.875C618.363,770.127 618.309,778.245 618.39,786.336C618.39,787.657 619.01,788.979 618.848,790.246C617.877,796.826 620.035,801.546 625.617,805.591C632.251,810.418 637.51,817.349 644.495,821.395C651.534,825.467 659.921,827.436 667.877,829.809C673.81,831.562 679.986,832.506 686.971,834.016C680.256,840.677 674.269,846.961 667.796,852.786C666.582,853.865 663.535,853.433 661.485,852.948C647.299,849.469 635.784,841.109 624.7,832.074C611.485,821.286 598.783,809.771 585.029,799.738C576.453,793.508 570.061,786.038 564.775,777.138C561.485,771.582 562.267,764.382 567.391,759.204C571.032,755.509 575.023,752.165 578.286,747.769C577.207,747.904 576.021,747.85 575.05,748.281C565.072,752.596 557.385,759.069 555.794,770.503C555.416,773.227 556.684,776.22 557.493,779.025C560.163,788.113 565.584,794.937 573.216,800.789C585.082,809.877 595.789,820.476 607.682,829.511C623.648,841.593 638.345,855.859 659.192,861.361C657.574,863.087 656.549,864.301 655.443,865.433C623.943,896.933 592.471,928.486 560.89,959.905C535.566,985.175 498.673,988.06 470.976,967.025C468.225,964.948 465.69,962.521 463.236,960.094C407.545,904.43 351.909,848.794 296.245,793.13C295.247,792.078 294.222,791.026 292.227,788.923C296.488,789.894 299.401,791.188 302.259,791.081C309.271,790.811 316.391,790.488 323.187,789.031C330.253,787.494 335.781,779.187 335.62,771.07C335.512,765.649 334.325,760.256 333.597,754.997C338.964,757.424 344.654,760.283 350.479,762.683C362.264,767.456 373.915,766.243 385.269,761.146C386.59,760.58 387.561,759.312 388.829,758.584C390.501,757.613 392.335,756.858 394.304,756.48C399.051,747.742 397.621,737.413 390.474,729.43C377.448,714.813 361.833,703.918 342.362,699.683C320.733,694.963 298.969,692.968 276.963,697.148C276.343,697.283 275.695,697.418 275.102,697.633C266.742,700.249 258.327,702.703 250.075,705.562C240.501,708.852 233.273,715.487 226.963,722.498C197.513,693.021 168.171,663.706 138.209,633.717C145.032,633.42 151.72,633.178 158.463,632.8C167.956,632.315 176.829,630.022 184.65,624.278C194.952,616.727 194.817,603.296 184.003,596.419C177.665,592.347 170.95,589.218 163.021,589.083C157.465,588.975 152.881,590.458 148.323,593.587C143.819,596.688 138.776,599.008 133.976,601.624C134.246,598.334 134.731,594.72 134.785,591.052C134.812,586.063 132.277,583.177 127.288,583.366C114.882,583.851 102.531,584.822 90.098,585.55C80.147,575.976 68.793,566.294 58.922,555.264C37.347,531.181 37.859,492.427 59.192,468.155C60.621,466.537 62.078,465.027 63.615,463.489C123,404.077 182.412,344.719 241.771,285.306C242.688,284.362 243.416,283.202 244.198,282.178C260.19,291.32 276.803,288.435 293.227,287.356C302.046,286.763 310.865,285.954 319.71,285.252C321.975,285.036 324.268,284.794 326.533,284.47C330.875,283.823 332.25,280.883 331.765,277C331.226,272.685 330.282,268.424 329.446,263.704C337.456,269.394 346.895,269.772 355.902,269.988C362.887,270.15 370.034,267.938 376.911,266.185C379.851,265.43 382.305,256.476 380.875,252.835C379.823,250.273 378.61,247.441 376.668,245.688C367.175,237.247 356.954,229.857 343.658,228.779C329.742,227.673 315.799,226.837 301.749,225.866C302.127,225.381 302.774,224.356 303.583,223.547C357.008,170.095 410.325,116.508 463.966,63.272C491.285,36.141 532.116,35.872 559.409,62.652C589.209,91.913 618.525,121.633 648.028,151.164C648.783,151.919 649.403,152.836 649.754,153.268C640.315,155.264 631.011,157.529 621.599,159.174C613.724,160.549 610.65,166.725 607.333,172.577C606.632,173.791 607.279,176.757 608.331,177.782C611.999,181.234 615.72,185.037 620.197,187.005C623.325,188.353 627.883,187.679 631.389,186.573C637.619,184.631 643.579,181.692 649.863,179.076C649.405,182.447 648.757,185.279 648.703,188.138C648.595,193.748 650.537,195.581 656.281,196.148C667.581,197.227 678.827,198.279 690.019,195.312C690.909,195.042 692.177,195.717 693.066,196.256C694.064,196.876 694.738,197.847 695.574,198.656C783.681,286.763 871.761,374.897 959.922,462.95C971.788,474.789 979.07,488.732 980.607,505.561C982.468,525.734 976.67,543.506 962.646,558.069C945.008,576.354 926.804,594.099 908.87,612.114C896.518,624.493 884.194,636.871 872.867,648.171C860.974,644.449 849.997,641.078 839.075,637.572C825.429,633.257 811.594,629.32 798.19,624.303C786.243,619.826 774.457,619.907 762.052,621.471C743.255,623.898 724.296,625.22 705.391,626.784C691.178,627.971 676.858,628.321 662.699,630.047C657.089,630.748 651.723,633.984 646.383,636.412C627.505,645.015 608.654,653.699 589.883,662.545C587.887,663.489 586.458,665.619 584.3,667.669C592.067,673.063 599.16,677.782 605.983,682.825C621.355,694.179 635.783,706.692 648.378,721.121C652.1,725.382 656.118,726.973 661.97,727.135C687.482,727.89 712.941,729.535 738.426,730.614C753.259,731.234 768.119,731.396 782.951,731.774C784.542,731.855 786.133,731.774 788.426,731.774C784.003,737.68 780.012,741.267 772.326,740.809C750.266,739.461 728.151,739.083 705.632,738.274L705.633,738.277Z" style="fill:rgb(69,28,21);fill-rule:nonzero;"/>
    </g>
    <g transform="matrix(0.058594,0,0,0.058594,-0.000081,-0.000069)">
        <path d="M311.044,736.481C298.908,732.004 286.772,727.554 274.636,723.104C274.771,722.672 274.96,722.241 275.094,721.756C287.796,724.723 300.876,726.395 311.906,734.162L311.044,736.481Z" style="fill:rgb(69,28,21);fill-rule:nonzero;"/>
    </g>
    <g transform="matrix(0.058594,0,0,0.058594,-0.000081,-0.000069)">
        <path d="M334.348,718.579C332.865,723.083 331.489,727.614 329.871,732.063C329.008,734.49 327.983,736.89 326.662,739.129C326.257,739.803 324.801,740.073 323.803,740.1C323.398,740.1 322.455,738.832 322.616,738.401C324.693,731.012 326.553,723.487 332.055,717.77C332.837,718.067 333.592,718.309 334.347,718.579L334.348,718.579Z" style="fill:rgb(69,28,21);fill-rule:nonzero;"/>
    </g>
    <g transform="matrix(0.058594,0,0,0.058594,-0.000081,-0.000069)">
        <path d="M315.51,256.939C307.015,252.759 298.574,248.579 290.078,244.372C299.841,245.64 309.199,247.905 316.507,254.809C316.183,255.537 315.86,256.211 315.509,256.94L315.51,256.939Z" style="fill:rgb(69,28,21);fill-rule:nonzero;"/>
    </g>
    <g transform="matrix(0.058594,0,0,0.058594,-0.000081,-0.000069)">
        <path d="M343.129,246.248C335.767,251.884 329.806,257.009 321.338,257.17C326.921,251.264 333.878,248.028 343.129,246.248Z" style="fill:rgb(69,28,21);fill-rule:nonzero;"/>
    </g>
    <g transform="matrix(0.058594,0,0,0.058594,-0.000081,-0.000069)">
        <path d="M137.465,609.434C144.585,607.411 150.895,610.27 157.26,613.129C157.206,613.614 157.125,614.1 157.017,614.612C150.383,613.587 143.775,612.589 137.114,611.565C137.222,610.864 137.357,610.163 137.465,609.434Z" style="fill:rgb(69,28,21);fill-rule:nonzero;"/>
    </g>
    <g transform="matrix(0.058594,0,0,0.058594,-0.000081,-0.000069)">
        <path d="M290.654,266.55C297.369,264.042 303.95,260.86 311.312,260.994C311.474,261.695 311.663,262.45 311.824,263.178C304.866,264.823 297.935,266.495 291.004,268.14C290.896,267.628 290.761,267.061 290.653,266.549L290.654,266.55Z" style="fill:rgb(69,28,21);fill-rule:nonzero;"/>
    </g>
    <g transform="matrix(0.058594,0,0,0.058594,-0.000081,-0.000069)">
        <path d="M296.382,750.308L280.039,750.308C284.084,747.018 290.853,746.667 296.382,750.308Z" style="fill:rgb(69,28,21);fill-rule:nonzero;"/>
    </g>
    <g transform="matrix(0.058594,0,0,0.058594,-0.000081,-0.000069)">
        <path d="M468.909,820.354C475.004,813.989 482.124,809.297 491.293,807.921C484.227,812.641 477.161,817.414 470.069,822.134C469.691,821.541 469.287,820.947 468.909,820.354Z" style="fill:rgb(69,28,21);fill-rule:nonzero;"/>
    </g>
    <g transform="matrix(0.058594,0,0,0.058594,-0.000081,-0.000069)">
        <path d="M444.877,815.343C450.352,816.638 456.177,817.258 460.681,823.299C453.103,823.515 449.273,818.903 444.877,815.343Z" style="fill:rgb(69,28,21);fill-rule:nonzero;"/>
    </g>
    <g transform="matrix(0.058594,0,0,0.058594,-0.000081,-0.000069)">
        <path d="M478.628,824.176C483.401,824.715 488.148,825.282 492.921,825.821L492.786,827.008L478.412,827.008C478.52,826.064 478.574,825.12 478.628,824.176Z" style="fill:rgb(69,28,21);fill-rule:nonzero;"/>
    </g>
    <g transform="matrix(0.058594,0,0,0.058594,-0.000081,-0.000069)">
        <path d="M366.354,651.624C356.133,654.24 347.799,650.41 338.387,648.63C343.889,645.259 360.097,646.985 366.354,651.624Z" style="fill:rgb(69,28,21);fill-rule:nonzero;"/>
    </g>
    <g transform="matrix(0.058594,0,0,0.058594,-0.000081,-0.000069)">
        <path d="M364.777,659.089C358.628,663.269 352.398,667.234 344.496,666.91C350.321,661.975 356.794,658.604 364.777,659.089Z" style="fill:rgb(69,28,21);fill-rule:nonzero;"/>
    </g>
    <g transform="matrix(0.058594,0,0,0.058594,-0.000081,-0.000069)">
        <path d="M380.262,676.338C375.731,674.18 371.281,666.926 371.659,662.827C376.675,663.528 379.48,667.762 380.262,676.338Z" style="fill:rgb(69,28,21);fill-rule:nonzero;"/>
    </g>
    <g transform="matrix(0.058594,0,0,0.058594,-0.000081,-0.000069)">
        <path d="M485.43,224.385C484.594,227.756 483.731,231.127 482.841,234.741C490.905,235.011 499.211,230.804 507.679,235.092C502.959,235.955 498.267,236.818 493.547,237.654C491.47,238.032 489.313,238.733 487.29,238.49C484.917,238.247 481.761,237.843 480.521,236.252C479.334,234.796 479.766,231.559 480.386,229.348C480.898,227.325 482.57,225.599 483.73,223.765C484.296,223.954 484.863,224.197 485.429,224.385L485.43,224.385Z" style="fill:rgb(69,28,21);fill-rule:nonzero;"/>
    </g>
    <g transform="matrix(0.058594,0,0,0.058594,-0.000081,-0.000069)">
        <path d="M475.767,235.844C468.728,235.035 461.716,234.226 454.677,233.417C454.758,232.878 454.812,232.338 454.866,231.772C461.905,233.093 469.645,229.48 476.171,234.523C476.036,234.955 475.901,235.413 475.766,235.844L475.767,235.844Z" style="fill:rgb(69,28,21);fill-rule:nonzero;"/>
    </g>
    <g transform="matrix(0.058594,0,0,0.058594,-0.000081,-0.000069)">
        <path d="M419.89,188.368C415.629,188.125 411.341,187.91 407.08,187.667C407.134,186.939 407.161,186.157 407.188,185.375C411.476,185.618 415.764,185.86 420.025,186.13C419.971,186.858 419.944,187.613 419.89,188.368Z" style="fill:rgb(69,28,21);fill-rule:nonzero;"/>
    </g>
    <g transform="matrix(0.058594,0,0,0.058594,-0.000081,-0.000069)">
        <path d="M444.653,182.489C439.853,183.595 435.052,184.673 430.252,185.779C430.117,185.186 429.982,184.565 429.847,183.972C434.674,182.92 439.448,181.895 444.275,180.844C444.41,181.383 444.545,181.95 444.653,182.489Z" style="fill:rgb(69,28,21);fill-rule:nonzero;"/>
    </g>
</svg>
