<?xml version="1.0" encoding="UTF-8" standalone="no"?>
<!DOCTYPE svg PUBLIC "-//W3C//DTD SVG 1.1//EN" "http://www.w3.org/Graphics/SVG/1.1/DTD/svg11.dtd">
<svg width="100%" height="100%" viewBox="0 0 60 60" version="1.1" xmlns="http://www.w3.org/2000/svg" xmlns:xlink="http://www.w3.org/1999/xlink" xml:space="preserve" xmlns:serif="http://www.serif.com/" style="fill-rule:evenodd;clip-rule:evenodd;stroke-linejoin:round;stroke-miterlimit:2;">
    <g transform="matrix(0.058594,0,0,0.058594,0.000542,0)">
        <path d="M511.96,1009.647C486.288,1009.647 462.174,999.658 444.021,981.532L42.429,579.94C4.995,542.48 4.995,481.522 42.429,444.116L444.048,42.497C462.201,24.344 486.288,14.355 511.96,14.355C537.605,14.355 561.692,24.344 579.845,42.497L981.464,444.116C999.617,462.242 1009.579,486.356 1009.579,512.028C1009.579,537.673 999.616,561.787 981.464,579.94L579.872,981.532C561.719,999.658 537.605,1009.647 511.96,1009.647Z" style="fill:rgb(232,203,158);fill-rule:nonzero;"/>
    </g>
    <g transform="matrix(0.058594,0,0,0.058594,0.000542,0)">
        <path d="M511.919,14.436C487.304,14.435 462.71,23.798 444.025,42.483L42.444,444.104C5.055,481.493 5.055,542.503 42.444,579.892L444.025,981.513C462.722,1000.194 487.346,1009.559 511.958,1009.56C536.57,1009.561 561.143,1000.191 579.852,981.513L981.473,579.892C1018.833,542.501 1018.833,481.495 981.473,444.104L579.852,42.483C561.155,23.802 536.533,14.437 511.919,14.436Z" style="fill:rgb(232,203,158);fill-rule:nonzero;"/>
    </g>
    <g transform="matrix(0.058594,0,0,0.058594,0.000542,0)">
        <path d="M511.958,0C482.473,0 454.741,11.483 433.876,32.295L32.255,433.955C-10.764,476.974 -10.764,547.007 32.255,590.08L433.876,991.661C454.741,1012.553 482.446,1023.995 511.958,1023.995C541.47,1023.995 569.175,1012.553 590.04,991.661L991.621,590.08C1012.459,569.242 1023.916,541.51 1023.916,511.998C1023.916,482.54 1012.459,454.794 991.621,433.955L590,32.295C569.135,11.484 541.442,0 511.957,0L511.958,0ZM511.919,14.436C536.534,14.437 561.155,23.801 579.852,42.483L981.473,444.104C1018.833,481.495 1018.833,542.501 981.473,579.892L579.852,981.513C561.143,1000.191 536.57,1009.56 511.958,1009.56C487.346,1009.56 462.722,1000.195 444.025,981.513L42.444,579.892C5.055,542.503 5.055,481.493 42.444,444.104L444.025,42.483C462.71,23.798 487.304,14.436 511.919,14.436Z" style="fill:rgb(69,28,21);fill-rule:nonzero;"/>
    </g>
    <g transform="matrix(0.058594,0,0,0.058594,0.000542,0)">
        <path d="M334.958,494.18C337.294,496.14 339.389,498.154 341.779,499.792C342.665,500.383 345.001,500.624 345.297,500.168C348.036,495.63 350.453,490.904 353.272,485.64C346.478,488.809 340.866,491.413 334.958,494.179L334.958,494.18ZM354.668,458.519C339.254,470.334 324.163,481.935 309.017,493.563C316.455,494.53 323.813,492.892 331.466,490.931C347.122,486.903 351.499,474.443 355.392,461.339C355.661,460.372 354.774,459.03 354.667,458.519L354.668,458.519ZM630.694,339.397C630.775,339.021 630.828,338.672 630.909,338.296C630.533,338.027 630.157,337.678 629.781,337.437C620.678,332.013 613.454,324.977 608.137,315.659C604.968,310.127 600.967,304.73 596.241,300.487C589.93,294.848 581.66,292.082 574.758,286.496C561.976,276.157 544.978,271.727 532.303,258.891C532.733,263.241 532.491,266.678 533.485,269.713C537.164,280.589 539.769,292.082 547.637,301.078C552.122,306.207 557.224,310.879 561.198,316.358C566.354,323.555 573.201,327.529 581.526,329.516C592.375,332.094 603.143,334.914 614.019,337.25C619.497,338.405 625.136,338.7 630.695,339.398L630.694,339.397ZM376.366,410.371C376.769,409.995 377.118,409.619 377.548,409.216C383.375,411.66 389.229,414.076 395.889,416.869C382.704,394.232 375.561,390.499 366.162,385.907C367.129,396.138 361.704,405.805 366.269,415.741C366.672,416.654 366.94,417.648 366.994,418.587C367.397,426.106 368.471,433.652 367.934,441.09C367.021,453.872 365.222,466.601 363.557,479.329C362.671,485.908 360.2,491.735 355.394,496.649C351.93,500.167 349.352,504.49 346.371,508.438C353.38,508.733 358.697,500.436 366.216,504.759C375.507,498.932 383.322,491.735 390.599,483.437C402.253,470.225 408.779,455.16 412.216,438.35C413.317,432.845 412.431,431.986 406.818,430.912C405.287,430.643 403.703,429.945 402.387,429.113C395.405,424.602 388.45,420.063 381.602,415.391C379.642,414.021 378.084,412.088 376.366,410.369L376.366,410.371ZM711.308,451.51C711.308,449.818 711.738,448.341 711.201,447.804C707.173,443.642 703.011,439.587 698.714,435.666C696.243,433.33 692.994,431.665 691.007,429.033C683.112,418.372 673.418,409.752 662.999,401.616C658.944,398.447 656.178,393.641 652.848,389.586L653.949,388.458C657.064,390.929 660.152,393.426 663.294,395.87C665.738,397.777 667.966,400.167 670.706,401.348C680.239,405.618 687.704,412.224 694.095,420.306C699.143,426.697 707.011,427.207 713.913,429.973C708.086,418.909 703.145,407.631 693.719,399.253C691.651,397.427 689.772,395.279 688.107,393.077C677.876,379.65 667.564,366.277 657.682,352.636C654.728,348.554 651.21,346.97 646.565,347.212C630.426,347.937 614.851,344.929 599.115,341.546C584.56,338.404 570.489,334.322 557.063,328.146C553.304,326.401 549.034,324.413 546.563,321.325C538.695,311.416 531.633,300.836 524.087,290.685C521.778,287.597 519.2,284.589 516.219,282.199C503.92,272.451 491.004,263.455 479.215,253.251C471.938,246.94 463.909,240.845 460.391,231.043C459.156,227.525 456.444,224.571 454.054,220.812L454.054,278.251C455.961,274.196 457.518,271.108 458.861,267.912C460.016,265.254 461.815,265.012 463.963,266.355C465.601,267.402 467.32,268.611 468.367,270.168C474.624,279.459 480.773,288.858 486.815,298.31C491.541,305.641 493.877,314.476 501.101,320.276C502.471,321.404 502.632,324.089 503.33,325.996C484.694,312.757 478.168,290.362 461.707,275.807C461.519,276.21 460.982,276.881 460.767,277.633C456.47,291.409 451.771,305.131 448.119,319.068C445.917,327.688 445.085,336.684 444.064,345.599C443.285,352.608 444.145,355.32 448.602,361.389C457.061,372.963 465.869,384.268 474.354,395.842C480.262,403.979 486.626,411.873 489.284,421.97C490.036,424.816 492.104,427.26 493.634,429.892C496.239,434.43 499.085,438.834 501.448,443.48C502.307,445.118 502.012,447.347 502.227,449.307C500.213,448.394 499.112,447.266 498.28,445.977C491.218,435.289 484.424,424.441 477.146,413.914C467.318,399.762 459.396,384.107 445.647,372.909C445.164,372.506 444.68,371.942 444.492,371.352C441.834,361.631 432.166,357.979 427.816,351.454C426.849,383.947 425.883,417.084 424.916,450.167C425.185,450.355 425.453,450.489 425.722,450.65C429.911,443.937 434.1,437.223 439.095,429.167C437.269,435.424 436.302,440.741 434.127,445.521C427.924,459.163 421.533,472.804 409.073,482.256C407.918,483.115 407.247,484.539 406.227,485.613C401.635,490.661 397.634,496.542 392.236,500.463C382.972,507.23 372.848,512.923 362.912,518.777C349.727,526.564 336.354,534.11 322.766,541.951C323.491,542.032 324.082,542.273 324.592,542.193C340.086,539.642 355.5,535.668 371.397,539.454C374.217,540.125 377.197,540.179 380.124,540.448C382.595,540.636 384.904,540.717 386.327,537.816C387.159,536.097 388.583,534.513 390.14,533.358C402.976,523.879 410.629,510.452 418.39,497.025C419.545,495.011 421.612,493.507 423.25,491.789C423.653,492.165 424.056,492.541 424.458,492.917C413.018,520.307 399.86,546.248 369.409,557.875C373.759,558.895 377.062,559.728 380.365,560.399C381.09,560.533 381.976,560.13 382.674,559.781C388.072,556.8 393.442,553.82 398.813,550.785C407.97,545.602 417.181,540.903 428.298,544.34C435.334,546.515 442.503,548.234 449.566,550.328C452.063,551.026 454.373,552.235 456.79,553.228C456.656,553.738 456.495,554.222 456.36,554.705C454.588,554.463 452.762,554.248 450.989,553.899C445.108,552.717 439.227,551.536 433.4,550.247C429.157,549.334 425.022,548.045 420.779,547.239C418.846,546.863 416.348,546.433 414.871,547.32C398.464,557.256 382.164,567.406 365.944,577.691C362.238,580.054 359.016,583.169 355.579,585.962C357.62,586.633 359.124,586.177 360.627,586.016C363.769,585.774 366.938,585.559 370.079,585.506C378.108,585.345 386.218,586.177 394.059,585.023C413.098,582.23 431.546,575.195 451.284,577.853C460.468,579.142 469.732,579.974 478.97,580.673C481.951,580.915 485.281,580.7 488.073,579.653C493.202,577.666 498.009,574.873 503.943,571.919C484.528,559.728 465.301,547.67 446.074,535.613C446.316,535.13 446.557,534.619 446.799,534.109C453.351,536.257 460.145,537.868 466.375,540.715C481.091,547.348 494.759,556.424 511.516,558.062C516.618,558.572 521.344,561.902 526.42,563.03C534.745,564.91 543.23,565.93 551.635,567.541C555.663,568.32 558.134,566.44 557.194,562.493C556.872,561.15 555.449,559.808 554.186,558.922C546.721,553.847 539.121,548.933 531.602,543.911C530.259,543.025 528.836,542.058 527.843,540.877C520.351,531.827 512.993,522.697 505.555,513.648C504.749,512.681 503.971,511.473 502.897,510.936C495.539,507.15 490.168,501.322 485.657,494.555C482.488,489.721 478.997,485.103 475.641,480.35C479.374,481.558 483.402,482.982 484.852,485.694C488.826,493.052 495.781,495.791 502.575,498.342C511.625,501.752 519.305,506.613 526.152,513.487C532.221,519.61 538.397,526.35 548.199,526.672C548.924,526.699 549.622,527.37 550.32,527.719C557.06,530.646 563.532,534.459 570.487,536.258C580.315,538.836 590.52,539.91 600.563,541.602C605.182,542.408 609.801,543.374 614.446,543.965C622.878,545.066 631.31,546.006 639.769,546.838C640.789,546.945 642.32,546.274 642.884,545.468C643.287,544.904 642.723,543.105 642.025,542.514C633.566,535.156 625.054,527.825 616.461,520.628C609.613,514.908 601.45,510.316 595.864,503.549C587.432,493.237 580.423,482.147 568.474,474.735C559.21,468.988 551.717,460.395 543.5,453.011C542.775,452.367 542.265,451.454 541.781,450.621C538.559,445.304 535.282,440.041 532.194,434.616C528.837,428.735 525.642,422.801 522.393,416.839C522.715,416.624 523.091,416.382 523.44,416.114C527.656,420.974 532.731,425.352 535.873,430.803C541.942,441.249 551.018,448.07 560.766,454.488C563.827,456.448 566.244,459.456 569.064,461.9C571.239,463.78 573.441,465.847 575.938,467.271C586.035,473.018 596.105,478.818 603.275,488.324C608.323,495.037 614.392,500.623 621.455,505.188C625.322,507.632 629.135,510.129 632.787,512.895C641.112,519.206 649.678,524.147 660.634,519.125C660.688,498.824 670.14,480.859 674.786,460.987C682.198,470.869 691.972,476.83 702.526,482.201C708.729,477.797 707.333,465.74 699.894,461.336C685.635,452.931 671.161,444.714 657.761,435.047C645.731,426.4 635.07,415.927 620.972,410.288C616.783,408.623 612.513,406.636 608.915,403.924C599.677,396.942 590.547,389.745 581.927,382.065C574.301,375.217 564.795,369.712 561.76,358.192C563.183,358.783 564.311,359.024 565.117,359.669C574.516,367.295 583.7,375.163 593.259,382.575C601.208,388.724 609.559,394.364 617.776,400.191C620.22,401.883 623.362,399.976 626.154,402.339C631.149,406.528 634.237,405.266 637.137,398.338C658.647,420.438 685.527,434.483 711.306,451.508L711.308,451.51ZM888.836,629.092C888.648,629.522 888.541,630.059 888.245,630.381C866.145,652.454 844.044,674.474 822.347,696.172C812.358,693.836 802.717,691.58 793.05,689.298C776.992,685.485 760.45,682.987 745.009,677.483C727.366,671.199 710.717,662.069 693.558,654.497C680.642,648.804 667.51,643.595 654.513,638.17C648.068,635.512 641.677,632.719 635.259,630.06C628.841,627.428 622.396,624.904 614.77,621.87C619.496,648.186 612.112,672.838 610.285,697.865C610.742,697.972 611.198,698.107 611.708,698.187C613.964,690.775 617.025,683.471 618.368,675.872C620.489,663.895 624.088,661.264 636.091,664.057C648.927,667.038 660.366,672.677 671.108,680.169C676.613,684.063 682.574,687.285 688.321,690.83C688.106,691.313 687.918,691.77 687.677,692.226C681.34,689.406 674.975,686.614 668.665,683.713C662.489,680.867 656.527,677.402 650.136,675.12C644.363,673.052 638.186,672.22 632.171,670.77C628.573,669.884 626.908,671.764 626.451,674.932C625.699,680.571 625.86,686.425 624.356,691.823C620.597,705.25 616.058,718.462 611.95,731.808C610.876,735.326 610.231,739.005 609.077,743.838C654.11,735.379 698.015,734.386 742.27,733.983C730.75,729.176 719.23,724.396 707.71,719.616C707.844,719.052 707.979,718.461 708.113,717.924C743.506,713.359 778.899,708.794 814.076,704.229C813.593,704.793 812.733,705.867 811.793,706.834C728.01,790.617 644.282,874.426 560.445,958.155C535.471,983.048 498.709,985.76 471.265,964.949C468.929,963.177 466.7,961.19 464.605,959.095C429.4,923.89 394.169,888.712 358.964,853.481C358.078,852.595 357.272,851.655 355.849,850.044C362.992,850.044 369.329,850.259 375.613,850.017C399.163,849.131 422.714,848.03 446.291,847.171C454.32,846.876 462.403,846.929 470.432,847.171C474.057,847.278 477.656,848.433 481.281,848.648C482.677,848.702 484.181,847.44 486.92,846.204C480.099,842.498 474.379,839.84 469.143,836.456C460.013,830.548 450.668,824.721 442.316,817.793C432.783,809.844 424.19,800.741 415.194,792.094C414.388,791.315 413.583,790.375 413.153,789.382C408.588,778.533 398.464,773.27 390.167,766.181C373.786,752.217 353.19,743.732 339.548,726.304C336.352,722.249 333.076,718.302 329.559,713.871C326.901,720.289 324.537,725.901 322.201,731.567C318.442,740.724 317.716,740.724 308.586,737.367C287.372,729.58 276.201,711.749 264.842,693.999C273.301,700.444 282.001,706.701 290.192,713.495C295.267,717.684 300.343,720.987 308.184,720.343C311.192,713.495 314.683,705.896 317.851,698.189C319.784,693.543 320.751,693.06 324.645,696.444C334.071,704.554 343.093,713.174 352.895,720.8C359.743,726.117 367.638,730.118 375.103,734.71C378.943,737.073 383.078,739.141 386.623,741.907C397.23,750.232 410.012,754.125 422.472,757.804C429.454,759.872 437.752,757.804 445.405,757.025C454.32,756.139 463.182,754.662 472.044,753.4C473.521,753.212 474.971,752.729 477.737,752.057C475.293,749.936 473.87,748.486 472.259,747.304C462.431,740.134 452.495,733.045 442.747,725.741C441.297,724.667 440.652,722.626 439.632,721.015C440.115,720.505 440.572,719.968 441.028,719.404C445.888,721.687 450.829,723.754 455.556,726.225C461.007,729.045 466.244,732.267 471.641,735.194C472.42,735.597 473.548,735.543 474.461,735.436C486.276,734.228 498.038,733.073 509.827,731.703C517.265,730.844 524.731,729.958 532.088,728.615C534.371,728.212 536.331,726.198 539.097,724.56C534.129,722.089 528.785,719.592 523.629,716.773C516.352,712.826 509.155,708.744 502.093,704.474C500.697,703.642 499.918,701.789 498.817,700.365C499.166,699.882 499.515,699.398 499.864,698.915C503.704,700.231 507.544,701.547 511.411,702.889C516.271,704.581 521.078,706.353 525.966,708.045C533.915,710.757 541.353,707.266 548.872,705.816C553.867,704.876 558.647,702.567 564.178,700.606C555.182,691.315 546.589,682.131 537.539,673.404C535.579,671.471 531.631,671.685 529.08,670.128C515.116,661.562 503.73,650.042 493.419,637.447C491.405,635.03 490.546,631.7 488.72,627.78C486.679,633.446 484.88,638.28 483.027,643.462C463.746,635.299 448.655,621.63 431.791,609.09C432.65,615.938 432.355,623.215 434.664,629.499C438.934,641.019 439.363,652.647 439.095,664.57C438.961,671.794 439.283,679.017 439.014,686.241C438.692,695.103 433.59,698.728 425.426,695.667C397.767,685.194 374.834,667.632 353.593,647.599C353.808,647.25 354.023,646.928 354.264,646.605C355.929,647.813 357.46,649.586 359.312,650.176C374.511,655.305 386.837,665.644 400.962,672.599C410.2,677.137 419.894,680.628 431.145,685.354C429.588,675.955 428.406,668.007 426.848,660.112C426.606,658.796 424.834,657.561 423.491,656.728C418.335,653.64 412.964,650.874 407.835,647.652C404.022,645.262 400.665,642.147 396.825,639.73C391.562,636.346 386.325,632.533 380.525,630.358C374.161,627.914 368.656,624.88 363.393,620.503C356.68,614.891 348.597,610.916 341.91,605.277C330.954,596.066 320.32,586.372 310.142,576.329C302.918,569.213 296.688,561.157 289.948,553.611C285.463,548.589 280.845,543.675 276.145,538.895C275.232,537.901 273.487,537.74 271.177,536.854L271.177,557.075C266.397,552.483 261.59,548.75 257.858,544.078C249.829,534.142 239.759,526.65 230.011,518.594C223.298,513.089 217.793,505.973 212.315,499.125C208.556,494.426 204.689,490.612 198.7,488.867C196.659,488.276 195.37,485.134 193.705,483.174C191.772,480.918 189.811,478.689 187.744,476.353C183.018,484.302 182.346,491.552 184.844,499.581C186.831,505.918 187.341,512.712 188.201,519.345C190.054,533.55 197.358,544.426 207.938,553.637C211.187,556.43 213.55,560.27 216.451,563.519C218.76,566.07 221.311,568.379 223.701,570.823C227.085,574.287 230.549,577.617 233.771,581.215C242.955,591.419 252.085,601.731 261.672,612.58C248.97,605.115 236.081,599.261 226.682,588.009C221.499,581.833 214.786,577.214 207.858,573.025C206.918,572.434 205.817,571.655 205.414,570.716C202.326,563.224 196.15,559.035 189.678,554.711C183.341,550.495 177.836,544.963 171.928,540.103C170.317,538.76 168.544,537.659 166.155,535.968C162.046,552.483 156.676,568.085 154.527,584.143C152.325,600.792 142.953,611.158 130.466,620.18C128.398,621.684 126.868,621.55 124.988,619.643C104.15,598.644 83.124,577.832 62.42,556.726C53.182,547.327 48.295,535.566 45.851,522.676C45.045,518.406 45.556,515.264 50.926,515.211C52.376,515.211 53.826,514.916 55.276,514.835C59.707,514.593 63.332,513.573 66.984,510.243C70.985,506.591 76.41,503.583 81.673,502.375C86.883,501.22 89.541,498.965 91.367,494.4C94.16,487.311 99.477,486.29 105.438,491.231C108.687,493.943 112.474,496.118 115.374,499.126C121.013,505.007 127.136,503.879 133.634,501.328C138.656,499.395 143.462,499.126 148.538,502.08C150.498,503.208 153.774,502.214 156.406,501.919C159.682,501.57 162.931,500.979 165.536,500.603C168.705,488.949 171.873,476.462 175.552,464.109C177.244,458.443 180.251,457.261 185.353,460.162C190.025,462.82 194.241,466.231 198.484,469.48C201.357,471.655 203.989,474.126 206.647,476.516C209.171,478.772 211.642,481.054 214.998,484.116C218.623,471.038 221.953,458.954 225.525,445.984C227.888,446.763 230.761,447.703 234.252,448.884C234.601,445.581 234.762,441.795 235.487,438.089C236.212,434.437 237.555,430.919 238.521,427.321C238.843,426.113 239.434,424.501 238.978,423.535C235.782,417.251 238.924,411.558 240.401,405.731C241.126,402.885 241.824,400.065 242.925,395.742C250.095,403.127 257.05,409.518 263.011,416.714C269.134,424.072 274.316,432.182 280.895,441.419C281.217,428.234 281.513,416.338 281.835,404.442C282.426,404.147 283.043,403.878 283.634,403.583C287.098,406.51 290.535,409.491 294.053,412.364C298.591,416.016 302.753,420.501 307.856,422.998C317.55,427.751 326.277,433.363 333.635,441.312C337.019,444.937 341.154,447.918 345.585,451.731C349.076,442.574 352.997,434.921 351.896,425.28C351.144,418.728 353.319,411.773 354.393,405.033C356.3,393.486 358.367,381.966 360.516,369.479C371.23,374.877 381.596,380.059 392.042,385.269C400.447,377.106 397.842,366.069 398.514,355.945C399.051,348.426 400.018,341.229 402.811,334.086C405.201,327.963 405.872,321.17 407.43,314.698C409.068,307.931 410.894,301.244 412.613,294.531C413.15,294.074 413.687,293.618 414.251,293.135C418.064,297.566 421.716,302.185 425.798,306.374C427.651,308.227 430.309,309.489 432.807,310.483C433.559,310.752 435.734,309.382 436.083,308.362C439.279,298.99 441.91,289.565 442.206,279.414C442.609,265.531 443.898,251.728 445.052,237.872C446.072,225.412 447.415,212.979 448.65,200.492L450.127,199.848C451.174,200.922 452.544,201.862 453.323,203.124C460.197,214.349 470.08,222.566 480.23,230.676C485.305,234.731 489.28,240.236 494.543,243.968C502.438,249.554 511.058,254.145 520.242,259.65C521.826,254.011 523.115,249.446 524.27,245.471C530.769,248.64 537.482,251.432 543.658,255.138C551.848,260.025 560.307,258.817 568.82,257.286C583.563,254.628 593.74,246.625 597.849,231.775C598.118,230.835 598.977,229.492 599.756,229.331C608.134,227.693 609.719,220.711 611.518,214.213C612.324,211.34 613.102,209.353 616.432,209.191C624.354,208.869 629.536,203.31 634.451,198.342C640.95,191.817 646.347,184.217 651.1,178.444C651.1,182.714 651.127,188.971 651.073,195.201C651.073,195.819 650.966,196.758 650.563,196.973C642.802,201.028 643.017,208.413 642.319,215.636C642.077,218.241 640.493,220.765 639.365,223.236C635.767,230.97 632.115,238.704 627.952,247.646C632.007,247.646 634.531,247.565 637.055,247.673C638.988,247.78 641.083,247.754 642.802,248.479C651.1,251.97 658.619,252.292 666.003,245.794C668.366,243.726 672.743,243.941 676.207,243.109C676.341,243.485 676.422,243.888 676.529,244.264C672.447,247.379 667.882,250.037 664.418,253.716C659.504,258.872 655.1,264.645 651.018,270.526C648.95,273.534 647.393,274.124 644.412,272.03C634.906,265.344 622.419,265.102 612.591,271.654C607.355,275.172 602.44,279.173 597.473,283.04C596.641,283.684 596.265,284.893 595.325,286.477C598.306,288.115 601.206,289.458 603.811,291.203C609.155,294.694 614.687,298.024 619.493,302.159C623.548,305.677 626.77,310.161 630.315,314.27C631.067,315.129 632.195,316.257 632.114,317.116C631.094,325.655 638.559,326.998 643.446,329.925C648.172,332.745 653.731,334.329 659.021,336.155C661.975,337.202 664.123,338.679 666.083,341.365C675.509,354.281 685.283,366.956 694.977,379.658C698.683,384.518 702.227,389.54 706.282,394.025C711.733,399.933 717.614,405.384 724.247,412.017C725.267,404.525 726.019,398.698 727.067,391.045C735.526,396.308 743.716,399.96 750,405.707C757.814,412.931 766.488,418.409 775.511,423.645C780.828,426.706 786.011,429.956 791.623,433.339C792.482,427.834 793.234,422.893 794.067,417.979C794.497,415.455 795.839,414.488 798.176,415.992C812.838,425.337 827.5,434.655 842.135,444.081C844.176,445.397 846.244,446.954 847.694,448.834C854.783,457.884 863.913,463.093 876.212,463.872C876.507,460.274 876.83,456.272 877.206,451.331C879.65,452.244 881.905,453.076 885.128,454.312C883.866,448.297 882.523,442.631 881.503,436.911C878.495,419.805 880.241,421.148 894.044,424.209C903.201,426.25 911.687,429.929 918.427,437.367C927.879,447.786 937.869,457.856 950.49,464.623C954.061,466.53 957.928,467.792 961.554,469.591C963.487,470.585 965.636,471.82 966.871,473.512C984.191,497.358 982.822,532.536 963.326,554.77C957.526,561.403 950.544,567.015 943.562,573.594C938.675,570.425 933.089,566.585 927.235,563.175C917.863,557.643 907.874,553.024 898.932,546.902C888.03,539.41 878.094,530.629 867.54,522.653C856.906,514.597 845.95,506.944 835.289,498.861C830.16,494.967 825.38,490.536 820.761,485.971C827.555,488.012 834.161,489.65 839.827,494.752C846.352,500.713 854.355,505.064 861.686,510.139C874.602,519.108 887.304,528.265 900.355,536.939C904.759,539.839 909.942,541.585 914.775,543.813C915.5,544.135 916.359,544.404 917.111,544.323C928.363,542.98 939.641,541.53 950.919,540.134C953.228,533.904 953.739,532.857 944.394,528.238C936.982,524.586 932.31,518.007 925.248,514.247C911.956,507.158 900.006,497.866 885.612,492.496C876.992,489.247 868.748,483.93 861.578,478.022C849.36,467.952 838.323,456.432 826.346,446.013C819.606,440.159 811.979,435.272 804.783,429.955C804.3,430.197 803.789,430.412 803.333,430.68L803.333,466.744C802.876,466.959 802.42,467.12 801.937,467.308C781.797,444.107 759.025,423.886 735.179,404.874C734.749,405.169 734.32,405.492 733.917,405.76C733.917,410.782 734.051,415.83 733.89,420.852C733.702,425.686 733.219,430.466 732.87,435.057C751.211,453.344 769.847,471.927 788.483,490.509C788.376,490.724 788.295,490.912 788.214,491.153C786.388,490.159 784.508,489.354 782.87,488.145C774.465,481.969 766.087,475.739 757.843,469.348C755.319,467.388 753.278,464.756 750.915,462.5C748.015,459.734 745.007,457.076 742,454.39C737.301,450.174 732.574,445.958 726.183,441.796C725.377,450.389 725.539,459.197 723.498,467.468C721.403,475.9 717.161,483.768 713.697,492.173C721.297,498.484 729.191,504.15 738.322,508.5C746.754,512.501 753.978,518.919 762.06,523.753C779.515,534.172 797.131,544.376 814.827,554.446C818.882,556.729 823.689,557.803 827.851,559.951C833.275,562.744 838.485,566.047 843.748,569.215C847.883,571.686 851.804,574.505 856.02,576.815C860.961,579.527 866.224,581.756 871.192,584.441C876.106,587.126 881.02,588.523 886.794,589.033C903.067,590.429 918.105,585.193 933.573,582.132C934.191,582.025 934.835,582.025 936.044,581.89C935.265,583.018 934.836,583.823 934.191,584.441C919.798,598.888 905.404,613.255 890.984,627.648C890.34,628.319 889.453,628.749 888.675,629.259C887.843,622.948 882.606,621.901 877.853,620.236C861.231,614.355 844.609,608.447 827.986,602.513C827.771,602.432 827.583,602.218 827.368,602.003C828.254,601.681 829.087,601.439 829.651,601.251C819.581,596.471 809.672,591.154 799.307,586.992C786.928,582.024 776.67,574.263 766.68,565.832C754.999,555.95 743.264,546.122 731.609,536.186C725.755,531.218 720.035,526.116 714.262,521.041L715.121,519.913C717.538,521.444 720.062,522.867 722.371,524.532C727.849,528.56 733.22,532.722 738.644,536.831C750.164,545.558 761.765,554.232 773.204,563.094C789.746,575.849 809.268,582.858 827.743,591.854C834.617,595.238 841.734,595.855 848.957,596.177C853.576,596.365 858.221,595.613 862.84,595.264C858.06,591.8 853.226,589.222 848.42,586.617C839.129,581.542 829.945,576.413 820.627,571.472C810.476,566.101 799.789,561.617 790.148,555.441C778.413,547.922 767.027,540.242 754.245,534.119C737.193,525.982 720.732,516.074 707.252,502.137C704.352,499.156 700.78,496.793 697.719,493.947C691.14,487.905 684.668,481.729 677.284,474.774C676.72,482.239 676.21,488.845 675.673,495.424C675.002,503.722 674.357,512.019 673.605,520.317C673.283,523.566 672.692,526.735 672.262,529.984C670.758,541.424 669.201,552.863 667.804,564.276C667.374,567.982 667.67,571.849 666.918,575.474C665.602,581.919 665.361,581.865 672.477,584.712C673.9,575.018 675.055,565.297 676.8,555.737C678.545,546.204 675.887,535.785 682.332,526.467C701.747,547.386 724.277,563.847 748.23,578.563C725.942,570.212 705.694,558.369 686.736,544.03C685.957,551.361 685.017,558.477 684.534,565.647C683.755,576.791 681.419,587.452 675.538,598.328C664.528,591.158 653.679,584.123 642.831,577.033C642.562,577.409 642.267,577.651 642.24,577.919C641.166,592.42 640.092,606.948 639.206,621.448C639.125,622.683 640.173,624.402 641.22,625.234C648.551,631.034 657.681,632.458 666.301,635.17C673.095,637.265 679.889,639.386 686.468,642.018C694.658,645.375 702.365,650.235 710.77,652.706C727.258,657.54 743.451,663.367 761.201,664.199C775.487,664.87 789.719,666.804 804.086,665.676C808.973,665.3 813.861,664.736 818.748,664.253C818.909,663.77 819.097,663.286 819.258,662.803C789.934,647.899 760.557,632.969 730.185,617.501C733.354,617.501 735.207,617.34 736.979,617.528C753.816,619.166 769.337,625.45 784.939,631.331C791.679,633.909 797.99,636.621 806.046,635.44C817.244,633.775 828.845,634.044 840.257,634.366C856.745,634.823 872.642,630.714 888.835,629.103L888.836,629.092Z" style="fill:rgb(69,28,21);fill-rule:nonzero;"/>
    </g>
    <g transform="matrix(0.058594,0,0,0.058594,0.000542,0)">
        <path d="M335.133,314.456C331.347,309.408 328.339,303.768 323.855,299.955C319.478,296.249 318.807,292.033 318.001,287.173C317.007,281.104 315.557,275.143 314.134,269.154C312.603,262.924 308.146,258.762 303.473,254.841C298.344,250.571 293.242,246.248 288.596,242.354C305.54,225.41 322.458,208.492 339.161,191.843C339.671,198.959 346.223,202.665 351.675,207.337C352.857,208.357 354.011,209.995 354.199,211.526C356.696,228.497 367.706,238.379 382.1,245.576C385.967,247.509 389.887,249.309 393.728,251.269C397.487,253.202 401.14,255.27 405.517,257.66C403.503,258.331 401.65,259.459 399.851,259.379C393.97,259.003 388.277,259.164 382.208,257.284C373.051,254.464 362.739,254.894 355.059,262.306C348.373,268.805 346.842,277.72 348.695,286.34C349.608,290.556 348.614,293.617 347.621,297.189C346.842,299.982 346.225,302.828 345.365,305.594C345.07,306.588 344.533,307.635 343.754,308.252C340.639,310.615 337.443,312.817 335.134,314.455L335.133,314.456Z" style="fill:rgb(69,28,21);fill-rule:nonzero;"/>
    </g>
    <g transform="matrix(0.058594,0,0,0.058594,0.000542,0)">
        <path d="M116.498,414.12C135.269,395.349 154.012,376.606 172.944,357.674C173.347,358.399 174.072,359.742 174.824,361.058C176.596,364.146 178.342,367.207 180.248,370.215C181.94,372.927 182.638,375.425 181.349,378.728C179.792,382.702 179.147,387.026 177.858,392.343C185.323,389.416 191.526,387.133 197.568,384.529C198.669,384.072 199.179,382.3 199.931,381.092C203.905,374.62 207.611,367.934 212.042,361.731C213.895,359.126 217.171,357.515 220.581,356.307C217.761,362.993 214.754,369.626 212.176,376.393C210.296,381.361 209.007,386.544 207.316,391.592C206.994,392.478 206.108,393.364 205.275,393.875C194.802,400.4 184.249,406.738 173.857,413.397C171.333,415.035 169.372,417.667 167.224,419.896C165.532,421.668 163.921,425.079 162.283,425.106C156.268,425.133 150.172,424.381 144.238,423.173C141.955,422.69 139.995,420.246 138.008,418.554C131.617,413.103 124.366,411.975 116.498,414.123L116.498,414.12Z" style="fill:rgb(69,28,21);fill-rule:nonzero;"/>
    </g>
    <g transform="matrix(0.058594,0,0,0.058594,0.000542,0)">
        <path d="M171.77,584.934C172.495,587.378 173.113,589.848 173.918,592.265C175.771,598.012 177.382,603.839 179.665,609.397C182.162,615.412 181.625,621.078 178.698,626.529C173.435,636.384 167.957,646.132 162.129,656.658C158.208,652.764 154.583,649.273 151.2,645.621C150.663,645.003 150.824,643.204 151.307,642.291C154.476,636.598 157.752,630.986 161.108,625.373C164.626,619.546 168.332,613.853 171.742,607.972C172.521,606.683 172.709,604.803 172.601,603.246C172.144,597.204 171.446,591.162 170.882,585.093C171.151,585.039 171.473,584.986 171.768,584.932L171.77,584.934Z" style="fill:rgb(69,28,21);fill-rule:nonzero;"/>
    </g>
    <g transform="matrix(0.058594,0,0,0.058594,0.000542,0)">
        <path d="M826.968,333.439C834.97,341.441 843.671,350.088 852.318,358.708C848.021,359.702 843.376,360.937 838.676,361.716C837.038,361.985 835.212,361.233 833.493,360.937C826.86,359.809 820.174,358.681 814.83,357.795C818.482,350.464 822.832,341.737 826.968,333.439Z" style="fill:rgb(69,28,21);fill-rule:nonzero;"/>
    </g>
</svg>
