<?xml version="1.0" encoding="UTF-8" standalone="no"?>
<!DOCTYPE svg PUBLIC "-//W3C//DTD SVG 1.1//EN" "http://www.w3.org/Graphics/SVG/1.1/DTD/svg11.dtd">
<svg width="100%" height="100%" viewBox="0 0 60 61" version="1.1" xmlns="http://www.w3.org/2000/svg" xmlns:xlink="http://www.w3.org/1999/xlink" xml:space="preserve" xmlns:serif="http://www.serif.com/" style="fill-rule:evenodd;clip-rule:evenodd;stroke-linejoin:round;stroke-miterlimit:2;">
    <g transform="matrix(0.058594,0,0,0.058594,-0.000035,-0.000026)">
        <path d="M559.097,6.74L552.513,8.805L545.539,21.234L542.929,27.078C530.867,21.862 517.956,19.169 505.019,19.169C480.639,19.168 456.239,28.442 437.733,46.949L332.81,151.872L330.044,144.703L322.992,138.664L317.421,138.664L311.538,151.288L311.538,173.184L39.977,444.784C2.944,481.817 2.944,542.246 39.977,579.279L437.735,977.037C456.254,995.54 480.644,1004.816 505.021,1004.817C529.398,1004.818 553.776,995.537 572.307,977.037L970.065,579.279C1007.069,542.244 1007.069,481.819 970.065,444.784L722.699,197.379L718.218,178.327L711.322,150.236L703.101,137.067L696.75,134.963L690.867,146.106L689.27,163.95L613.49,88.131C611.16,79.307 608.851,70.565 608.659,69.78C608.313,68.424 601.139,51.078 601.139,51.078L592.373,47.26L584.737,54.195L576.438,50.065L573.282,23.337L567.087,12.934L559.1,6.739L559.097,6.74Z" style="fill:rgb(232,203,158);fill-rule:nonzero;"/>
    </g>
    <g transform="matrix(0.058594,0,0,0.058594,-0.000035,-0.000026)">
        <path d="M787.89,583.06C787.544,587.901 787.092,592.21 787.065,596.545C787.065,597.636 788.315,599.444 789.273,599.684C794.327,600.881 799.46,601.679 804.646,602.61C804.167,590.801 805.098,589.949 787.889,583.061L787.89,583.06ZM786.693,606.519C786.693,612.503 786.986,617.69 786.613,622.823C786.267,627.052 788.262,627.903 791.8,627.611C796.135,627.239 800.524,627.052 804.886,626.653C808.556,626.334 812.227,625.722 815.897,625.509C818.477,625.376 819.94,624.445 819.833,621.785C819.78,619.285 820.232,616.811 816.615,615.774C806.933,613.034 797.358,609.869 786.693,606.518L786.693,606.519ZM601.972,216.756C601.679,217.368 601.387,217.926 601.147,218.538C602.557,221.012 604.179,223.432 605.376,226.012C606.679,228.858 608.222,230.454 611.6,231.491C616.521,233.034 621.521,235.667 625.324,239.071C629.846,243.114 633.17,248.46 637.08,253.327C637.186,252.024 637.612,250.188 637.479,248.38C637.16,243.885 636.548,239.39 636.123,234.868C635.538,228.963 632.506,224.601 626.973,222.926C618.754,220.479 610.296,218.777 601.971,216.755L601.972,216.756ZM666.258,198.51C664.795,204.574 668.572,207.447 671.099,210.798C675.142,216.038 680.781,220.639 683.121,226.517C687.882,238.539 688.627,251.466 685.222,264.1C683.706,269.765 680.461,274.978 678.307,279.766C679.743,279.766 681.632,280.085 683.44,279.686C685.169,279.314 687.563,278.675 688.281,277.399C690.834,272.824 692.936,267.957 694.877,263.089C697.164,257.291 700.596,251.572 699.133,245.056C697.963,239.869 695.968,234.869 694.079,229.869C689.983,219.017 680.035,212.926 672.801,204.628C670.966,202.553 668.732,200.798 666.258,198.511L666.258,198.51ZM292.401,351.527C284.874,359.746 281.842,367.964 285.539,378.843C290.832,394.403 295.699,410.228 295.753,427.011C295.753,429.485 295.992,431.985 296.125,434.458C296.524,434.591 296.923,434.697 297.322,434.804C298.865,432.118 301.657,429.458 301.737,426.692C302.242,413.925 302.163,401.132 301.976,388.312C301.896,382.833 300.753,377.354 300.62,371.875C300.514,365.305 301.258,358.629 294.396,354.507C293.625,354.055 293.305,352.911 292.401,351.528L292.401,351.527ZM697.112,719.985C689.718,717.618 683.201,715.437 676.605,713.469C671.738,712.033 664.29,717.725 663.998,722.619C663.679,727.965 663.147,733.285 662.429,738.578C661.844,742.86 660.7,747.116 660.088,751.371C659.849,753.286 659.955,756.85 660.46,756.983C663.891,757.675 667.535,761.318 670.886,756.557C674.849,750.892 679.238,745.546 683.281,739.933C687.989,733.39 692.457,726.741 697.112,719.985ZM230.668,529.572C231.04,529.652 231.439,529.705 231.785,529.785C232.264,529.147 232.716,528.482 233.115,527.79C240.11,516.193 246.174,503.825 254.367,493.08C265.91,477.919 273.65,460.019 287.721,446.64C289.237,445.177 289.609,442.464 290.54,440.336C290.114,440.07 289.636,439.831 289.21,439.538C276.948,445.23 264.501,450.523 252.505,456.773C247.185,459.566 242.77,464.141 238.142,468.157C234.418,471.402 233.753,475.711 234.737,480.498C235.349,483.61 235.748,486.881 235.455,489.993C234.577,499.808 233.327,509.569 232.157,519.357C231.758,522.762 231.173,526.139 230.668,529.571L230.668,529.572ZM305.966,422.915C329.824,393.471 352.299,363.815 371.769,331.658C365.04,335.967 358.63,340.143 352.113,344.212C337.75,353.229 323.414,362.192 309.025,371.129C305.7,373.177 304.317,375.677 304.477,379.826C304.982,393.577 304.982,407.355 305.195,421.132C305.195,421.398 305.434,421.664 305.966,422.914L305.966,422.915ZM229.498,461.029C235.403,457.332 240.829,453.608 246.547,450.47C258.144,444.033 270.405,438.927 283.81,438.102C289.183,437.73 290.779,435.894 290.034,431.08C289.209,425.548 288.571,419.962 287.294,414.483C285.459,406.557 283.198,398.737 280.778,389.641C264.979,401.291 250.111,412.169 235.349,423.154C234.471,423.792 233.62,425.042 233.487,426.16C232.051,435.682 230.747,445.257 229.551,454.806C229.258,456.987 229.498,459.168 229.498,461.03L229.498,461.029ZM622.771,106.748C622.186,112.307 622.532,117.227 621.069,121.536C618.915,127.84 619.314,133.877 621.229,139.888C622.426,143.505 624.022,147.495 626.602,150.181C642.694,166.672 659.078,182.87 675.382,199.147C676.313,200.078 677.377,200.929 678.574,202.02C678.361,199.413 677.776,197.206 678.122,195.211C679.452,187.152 681.287,179.119 682.431,171.007C682.724,168.906 681.633,165.874 680.117,164.331C669.664,153.479 658.892,142.893 648.226,132.254C639.901,123.876 631.523,115.524 622.772,106.747L622.771,106.748ZM628.41,164.385C628.969,173.109 630.884,180.743 627.319,188.669C624.845,194.148 625.271,200.425 630.963,204.947C633.836,207.261 636.788,209.708 638.916,212.66C641.975,216.862 646.417,221.517 646.55,226.092C647.082,240.721 645.273,255.349 640.991,269.606C648.226,272.239 655.593,275.032 663.04,277.612C664.077,277.958 665.62,277.665 666.684,277.133C676.605,272.505 678.334,262.85 680.834,253.7C682.882,246.173 679.823,239.337 677.882,232.422C676.898,228.938 675.435,225.241 673.094,222.634C665.194,213.857 659.104,204.122 654.795,193.137C653.731,190.451 651.683,188.004 649.688,185.796C646.337,182.072 642.666,178.641 639.102,175.077C635.671,171.699 632.266,168.268 628.41,164.385ZM732.301,314.529C730.599,308.438 727.753,302.241 727.487,295.964C727.248,290.804 729.588,285.245 731.743,280.325C733.844,275.511 734.456,270.989 732.355,266.335C728.871,258.701 725.12,251.201 721.45,243.621C720.679,242.025 719.375,240.562 719.109,238.913C717.38,227.529 714.907,216.411 719.375,204.682C721.769,198.299 721.609,190.532 715.465,184.228C712.592,181.302 711.768,176.249 710.491,171.966C709.826,169.758 710.624,167.072 710.012,164.838C707.937,157.47 705.597,150.129 703.203,142.842C702.352,140.262 697.83,139.81 696.607,142.47C695.357,145.077 694.32,148.375 694.798,151.141C696.607,162.711 694.532,173.643 690.25,184.175C687.643,190.612 690.09,196.889 689.239,203.192C688.973,205.134 689.212,207.581 690.197,209.123C693.814,214.762 697.857,220.108 701.687,225.614C702.325,226.492 702.884,227.556 703.15,228.593C706.156,240.988 708.416,253.355 702.671,265.644C702.272,266.442 703.416,268.437 704.347,269.288C715.678,279.182 725.678,289.609 722.646,306.605C722.433,307.749 723.417,309.744 724.428,310.435C727.088,312.164 730.093,313.414 732.301,314.531L732.301,314.529ZM704.533,452.944C705.198,458.982 706.368,463.689 706.049,468.317C705.544,476.323 703.974,484.249 703.123,492.202C702.91,493.931 703.309,496.458 704.453,497.468C706.368,499.197 708.975,500.447 711.528,501.218C726.343,505.713 741.344,509.649 756.079,514.464C763.207,516.778 769.936,520.555 776.772,523.826C778.98,524.89 780.921,525.847 781.267,522.39C781.879,515.82 782.916,509.198 782.517,502.655C781.958,493.585 778.634,485.765 769.458,481.59C758.447,476.616 747.701,471.004 736.636,466.084C726.529,461.589 716.209,457.679 704.533,452.945L704.533,452.944ZM617.186,196.489C617.399,192.632 616.415,187.685 618.09,183.828C622.479,173.721 619.021,165.396 614.393,156.698C612.132,152.389 610.563,147.522 609.712,142.734C608.914,138.159 609.366,133.398 609.473,128.69C609.579,124.115 610.244,119.54 610.218,114.939C610.191,109.726 610.245,104.327 609.154,99.246C608.01,93.66 605.244,88.447 603.781,82.915C601.813,75.308 600.563,67.542 598.727,59.908C598.381,58.472 596.732,57.355 595.668,56.105C594.498,57.249 592.902,58.206 592.29,59.616C591.465,61.664 591.306,63.978 590.987,66.239C589.87,74.67 589.178,83.102 585.641,91.108C584.285,94.087 583.566,98.582 584.843,101.295C587.982,107.891 587.822,114.195 585.003,120.366C581.04,129.063 584.524,136.298 588.514,143.639C590.881,147.974 593.727,152.15 595.509,156.698C599.658,167.231 599.259,177.843 592.796,187.259C585.801,197.419 588.301,201.968 594.791,209.521C595.562,210.452 597.504,210.612 598.887,210.691C605.962,211.25 613.303,210.585 620.006,212.367C626.07,213.989 631.47,218.218 637.029,221.197C637.029,221.33 637.162,220.798 636.949,220.479C630.725,210.851 621.788,204.973 611.043,201.488C607.479,200.318 602.878,201.754 599.526,196.488L617.186,196.489ZM268.197,244.524C267.718,244.737 267.213,244.923 266.734,245.136C265.776,248.86 264.26,252.53 263.968,256.307C263.01,269.127 260.457,281.442 255.696,293.437C254.02,297.666 253.887,302.906 254.499,307.481C255.324,313.811 257.558,319.982 258.941,325.461C262.904,324.344 266.681,323.28 270.431,322.216L271.149,323.732C269.819,325.009 268.489,326.339 267.106,327.562C263.303,330.834 259.233,333.892 255.669,337.403C246.998,345.994 245.588,360.969 249.844,369.932C252.85,376.315 255.828,382.327 253.195,389.854C259.951,385.412 266.308,381.343 272.505,377.007C273.463,376.395 274.074,374.56 274.048,373.337C273.622,361.927 277.878,352.538 285.751,344.505C286.868,343.388 287.24,340.994 287.028,339.318C285.485,327.934 285.033,316.896 290.938,306.23C293.385,301.762 295.247,296.07 289.528,291.708C288.996,291.309 288.996,290.219 288.597,289.554C286.735,286.282 284.927,282.958 282.878,279.793C281.761,278.064 279.899,276.761 278.888,275.005C273.967,266.707 270.749,257.823 269.925,248.115C269.819,246.892 268.781,245.721 268.196,244.524L268.197,244.524ZM512.683,189.228C502.602,188.005 493.825,191.648 485.128,195.505C483.639,196.17 481.883,197.074 481.085,198.378C473.079,211.278 473.957,225.268 476.883,239.232C477.415,241.812 479.889,244.365 483.985,243.328C488.932,242.078 494.066,241.573 499.119,240.801C504.997,239.897 510.849,239.072 516.939,238.194C516.008,225.028 519.2,213.378 526.142,202.766C526.727,201.862 527.419,200.612 527.233,199.627C526.275,193.962 525.584,188.137 523.775,182.737C519.386,169.731 517.418,157.017 523.988,144.091C524.626,142.868 523.722,139.835 522.552,138.878C514.147,131.909 511.753,122.387 510.211,112.254C509.12,105.206 510.025,97.652 504.306,90.018C502.763,98.024 501.008,104.78 500.316,111.669C499.518,119.888 497.39,127.814 492.629,134.197C484.198,145.474 483.213,155.449 490.581,167.71C492.283,170.503 492.895,174.014 493.4,177.312C493.879,180.264 493.506,183.35 493.506,186.834C500.501,183.429 507.018,182.445 512.683,189.228ZM308.626,355.277C322.244,347.643 335.623,340.143 349.001,332.669C353.416,330.195 359.348,329.318 359.56,322.402C359.587,321.444 360.597,320.434 361.342,319.609C367.007,313.252 365.358,305.592 365.039,298.251C365.012,297.32 364.002,295.91 363.151,295.644C358.284,294.075 353.39,292.399 348.363,291.442C343.442,290.538 338.389,290.511 333.388,290.086C333.415,289.554 333.441,289.049 333.468,288.49C341.022,283.942 349.24,286.043 357.805,286.735C352.379,282.878 353.443,277.452 353.443,272.346C353.443,269.793 354.374,266.947 353.523,264.792C350.118,256.467 349.055,247.743 349.986,239.019C350.571,233.54 348.417,230.322 344.986,226.731C334.879,216.039 331.554,203.618 336.235,189.308C337.033,186.861 337.618,183.829 336.98,181.488C333.974,170.769 330.676,160.157 327.086,149.624C326.075,146.645 323.735,144.118 322.006,141.352C321.288,141.538 320.543,141.724 319.798,141.937C318.575,146.618 317.058,151.246 316.287,156.034C315.808,158.96 316.5,162.072 316.686,165.104C316.899,168.828 317.484,172.551 317.298,176.248C316.926,183.137 316.5,190.052 315.463,196.835C314.692,201.702 311.553,206.49 311.819,211.145C312.324,220.108 314.532,228.965 315.995,237.876C316.314,239.764 317.006,241.972 316.314,243.541C314.346,248.063 312.431,252.85 309.345,256.6C302.243,265.191 300.062,273.702 305.382,284.235C307.563,288.57 311.686,292.879 309.93,298.651C309.079,301.524 308.148,304.37 307.27,307.215C322.085,300.778 329.373,299.768 333.761,303.864C329.452,305.034 325.197,305.806 321.207,307.375C313.414,310.434 305.78,313.945 298.094,317.323C297.589,317.509 297.269,318.254 296.977,318.839C289.982,332.43 299.956,349.799 308.627,355.278L308.626,355.277ZM538.27,34.748C538.031,34.535 537.791,34.322 537.525,34.163C537.099,33.924 536.674,33.684 536.169,33.551C503.294,23.204 472.893,27.992 445.71,49.456C437.837,55.653 430.975,63.18 423.847,70.309C396.398,97.651 369.082,125.1 341.634,152.389C338.442,155.528 337.432,158.427 339.054,162.709C341.607,169.545 345.81,175.928 345.464,183.695C345.411,184.786 346.076,185.903 346.847,188.509C358.736,176.593 369.801,165.449 379.722,155.475C381.025,167.763 382.408,181.275 383.765,194.76C384.27,194.787 384.749,194.84 385.228,194.893C386.026,190.318 387.595,185.77 387.382,181.275C387.036,172.923 385.414,164.678 387.808,156.3C390.601,146.512 396.027,139.251 405.575,135.394C409.99,133.585 414.645,132.335 418.847,130.154C424.459,127.255 430.178,125.792 436.508,126.138C451.403,126.936 465.925,128.585 475.952,141.405C477.282,139.064 478.426,137.043 479.649,134.809C472.893,125.234 464.355,118.904 451.721,120.393C450.178,120.553 448.423,121.031 447.12,120.499C437.492,116.669 428.528,118.611 419.591,122.893C416.24,124.489 412.489,125.26 407.542,126.856C409.031,125.047 409.484,124.436 410.042,123.85C426.506,107.439 442.757,90.762 459.514,74.618C474.01,60.654 491.644,54.723 511.699,56.904C517.896,57.569 523.987,59.218 529.014,60.202C532.073,51.771 535.131,43.419 538.27,34.748ZM556.57,129.915C554.017,130.101 552.767,130.287 551.49,130.261C539.601,130.048 537.686,132.043 534.866,142.097C533.164,148.294 530.451,154.305 529.52,160.582C528.243,169.359 531.089,177.578 535.797,184.999C538.138,188.643 539.866,191.648 537.419,196.383C533.908,203.245 531.594,210.719 528.748,217.954C541.276,214.39 546.728,215.028 555.505,221.146C551.09,221.705 546.701,221.944 542.525,222.875C538.03,223.886 533.535,225.242 529.279,227.051C525.954,228.487 524.97,240.376 527.736,242.717C528.374,243.276 529.465,243.462 530.369,243.595C539.864,245.191 549.386,246.734 558.935,248.25C563.031,241.84 568.218,238.781 573.404,240.244C581.038,242.398 589.442,243.356 593.538,251.894C594.336,251.256 594.788,251.016 595.054,250.644C600.294,243.17 599.709,233.675 593.485,224.392C590.16,219.418 586.703,214.524 583.431,209.471C577.447,200.215 578.856,190.773 582.846,180.985C578.457,173.99 575.425,165.266 565.212,162.792C566.994,161.542 568.537,160.425 569.867,160.611C576.516,161.569 581.437,165.478 585.879,170.798C586.384,166.782 587.209,162.553 585.746,159.388C582.528,152.419 578.591,145.664 574.176,139.36C568.963,131.966 568.936,133.668 572.687,124.625C574.496,120.21 575.905,116.061 574.15,111.539C571.916,105.82 569.708,100.075 566.942,94.596C564.628,89.995 564.096,85.553 565.346,80.579C566.995,74.089 568.644,67.52 569.389,60.923C570.054,54.726 569.788,48.369 569.442,42.118C569.149,36.24 567.793,30.415 567.687,24.564C567.554,18.26 563.192,14.803 559.548,10.946C558.777,10.121 554.415,10.973 553.59,12.276C551.755,15.122 550.957,18.686 549.973,22.037C547.952,29.272 547.127,37.065 543.882,43.661C539.547,52.545 539.946,61.215 541.994,70.046C543.217,75.259 543.217,79.834 540.664,84.542C536.222,92.867 536.515,101.086 540.584,109.65C542.818,114.331 543.723,119.651 545.345,125.103C548.59,125.289 553.032,124.81 556.569,129.917L556.57,129.915ZM479.596,186.594C486.565,177.524 486.299,177.71 480.155,169.412C476.618,164.651 473.878,159.252 471.218,153.959C469.782,151.14 469.649,147.682 468.159,144.889C465.074,138.931 459.515,135.872 453.184,134.489C444.433,132.601 435.789,129.036 426.613,132.707C421.107,134.888 415.389,136.617 409.989,138.984C400.706,143.107 393.339,149.331 392.195,160.103C391.477,167.018 391.902,174.067 391.902,181.062C391.902,181.7 392.594,182.392 393.711,184.387C394.934,178.934 396.504,174.759 396.69,170.53C397.222,157.444 405.467,147.337 418.234,144.996C423.953,143.985 429.857,143.985 435.762,148.48C434.06,149.118 433.395,149.571 432.703,149.571C428.261,149.677 423.819,149.438 419.378,149.731C409.563,150.396 401.292,159.253 402.302,168.988C403.765,183.218 397.461,193.192 386.716,201.464C374.88,210.534 363.23,219.87 359.586,235.509C359.054,237.876 358.522,240.243 358.097,242.611C355.836,255.378 361.395,265.325 369.268,274.954C369.268,266.762 369.348,259.182 369.268,251.628C369.002,231.494 379.561,218.62 396.797,210.215C398.951,209.178 401.319,208.699 403.606,208.007C399.058,213.087 394.403,217.423 389.669,221.598C382.434,228.008 379.136,236.28 378.791,245.642C378.472,254.845 378.711,264.048 378.871,273.25C379.137,285.246 384.962,293.943 394.324,299.582C395.095,301.843 395.734,303.572 396.319,305.274C397.941,304.316 399.724,303.545 401.107,302.322C402.277,301.285 402.995,299.715 403.847,298.332C411.507,286.177 419.114,273.969 426.934,261.867C428.29,259.846 430.259,257.824 432.44,256.813C438.584,254.02 444.994,251.759 451.245,249.206C456.591,246.972 461.911,244.791 467.124,242.264C468.002,241.812 468.853,239.365 468.427,238.461C466.113,233.939 466.113,229.577 466.805,224.524C468.241,213.805 468.64,202.927 474.944,193.724C471.619,189.282 469.917,184.335 463.826,182.42C459.384,181.037 455.847,176.755 451.937,173.776C452.336,173.164 452.762,172.579 453.16,171.994C460.9,179.149 474.119,175.186 479.598,186.596L479.596,186.594ZM644.954,829.142C644.316,838.238 644.608,838.451 653.013,839.116C659.237,839.621 665.408,840.579 672.669,841.457C668.759,845.234 665.301,848.213 662.349,851.591C659.742,854.57 656.896,854.756 653.226,854.384C642.959,853.373 632.666,852.841 622.798,852.15C624.287,857.204 625.564,861.512 627,866.38C632.293,867.151 638.251,868.029 645.645,869.12C641.576,872.817 638.464,875.929 635.033,878.589C633.437,879.866 631.123,880.93 629.182,880.876C624.98,880.823 620.857,879.865 616.681,879.44C609.5,878.695 602.345,878.11 594.632,877.392C594.792,880.876 594.818,883.297 595.031,885.717C595.377,889.76 599.18,892.553 603.196,892.499C608.462,892.446 613.729,892.951 618.968,893.217C619.048,893.696 619.101,894.228 619.181,894.733C615.404,898.483 611.707,902.34 607.717,905.904C606.839,906.675 604.898,906.675 603.541,906.516C593.966,905.266 584.417,903.776 574.815,902.606C573.512,902.446 571.224,903.165 570.799,904.149C568.219,909.735 570.852,915.187 576.757,917.208C577.98,917.607 579.257,917.767 580.481,918.166C584.045,919.31 587.609,920.507 592.636,922.182C588.886,925.507 586.066,927.741 583.566,930.294C579.55,934.443 576.039,938.965 568.964,936.092C566.065,934.895 562.474,935.321 559.229,934.922C556.569,934.603 553.989,934.124 550.718,933.619L550.718,951.599C552.766,952.636 555.426,953.913 558.086,955.216C535.531,983.197 500.103,986.575 477.202,974.553C481.91,970.085 486.511,965.829 491.059,961.494C504.172,948.727 517.896,936.572 530.104,923.007C538.775,913.405 546.94,903.351 556.675,894.787C567.633,885.159 579.389,876.514 588.858,865.237C591.039,862.63 593.539,860.21 596.226,858.135C608.434,848.666 616.467,835.687 625.829,824.09C622.664,823.026 619.738,822.015 616.866,821.031C614.552,820.18 612.265,818.903 609.871,818.531C605.403,817.839 600.854,817.52 596.333,817.308C576.73,816.297 557.128,815.42 537.499,814.462C531.488,814.169 525.477,813.744 519.466,813.531C515.583,813.345 511.673,813.265 507.79,813.371C498.401,813.69 488.985,814.169 479.543,814.435C478.266,814.462 476.963,813.717 475.66,813.318C475.74,812.919 475.82,812.493 475.953,812.095C485.023,811.031 494.093,809.675 503.216,809.063C519.733,807.893 536.277,806.696 552.794,806.43C567.875,806.244 582.956,807.095 598.037,807.866C604.474,808.159 610.857,809.355 617.241,810.233C625.034,811.35 632.003,810.393 637.083,803.451C639.663,799.94 642.828,796.855 645.275,793.264C651.924,783.556 658.361,773.688 665.01,763.634C664.292,763.341 663.68,762.916 663.148,762.996C652.137,764.432 641.87,759.219 630.725,759.804C621.735,760.23 612.585,757.517 603.462,756.346C592.344,754.936 581.014,754.325 570.029,752.117C553.937,748.872 537.739,750.096 521.541,749.909C513.854,749.856 506.114,750.574 498.401,751.239C486.804,752.197 475.181,753.048 463.664,754.67C453.504,756.08 443.503,758.553 433.369,760.309C427.225,761.4 421.028,762.304 414.777,762.809C409.963,763.208 405.095,762.889 400.228,762.889C400.627,761.586 400.973,761.16 401.372,761.054C414.298,757.729 422.331,750.122 425.124,736.478C426.055,731.903 429.938,727.435 436.056,726.823C438.556,726.557 440.95,725.334 443.45,724.828C450.126,723.418 456.855,722.168 465.047,723.737C455.738,726.982 447.705,729.695 439.753,732.594C438.503,733.073 436.721,734.429 436.641,735.52C436.295,740.254 436.508,745.015 436.508,749.723C441.375,749.191 445.87,748.819 450.312,748.154C464.675,746.053 478.958,742.755 493.347,741.957C513.269,740.84 533.27,741.505 553.218,741.638C558.511,741.691 563.83,742.25 569.07,743.154C583.167,745.574 597.21,748.234 611.281,750.974C618.941,752.463 626.548,754.485 634.288,755.895C639.554,756.826 644.927,757.145 650.087,757.73C650.619,754.618 651.045,752.73 651.257,750.815C652.401,739.564 653.544,728.287 654.449,717.009C654.529,715.732 653.093,713.445 651.922,713.046C646.868,711.37 641.629,710.306 636.522,708.87C635.006,708.471 633.649,707.54 632.213,706.849C633.516,705.758 634.713,704.429 636.203,703.684C637.24,703.152 638.73,703.338 640.033,703.365C649.422,703.551 658.838,703.365 668.227,704.03C678.361,704.695 688.441,706.105 698.548,707.275C702.75,707.754 706.208,707.727 708.602,702.993C711.554,697.248 715.517,692.008 719.028,686.582C723.124,680.278 727.193,673.948 731.901,666.687C721.422,663.655 711.82,660.995 702.298,658.069C689.824,654.239 677.403,650.249 665.008,646.153C652.826,642.11 640.698,637.722 628.463,633.732C623.862,632.269 618.941,630.327 614.366,630.7C607.052,631.285 600.322,629.663 593.38,628.28C585.028,626.604 576.544,625.487 568.139,624.29C563.192,623.625 561.995,625.141 563.085,629.982C563.431,631.418 563.537,632.881 563.59,634.344C564.149,652.005 564.707,669.692 561.116,687.14C560.877,688.257 561.781,690.358 562.765,690.81C566.489,692.619 570.399,694.002 574.282,695.438C577.367,696.608 580.532,697.592 583.671,698.683C578.777,703.763 573.91,700.97 569.521,700.252C560.371,698.656 551.488,695.278 541.886,696.821C540.397,697.06 538.668,695.917 537.072,695.411C539.492,693.762 541.7,693.31 543.908,692.964C550.77,691.82 551.621,690.996 551.808,684.027C552.234,668.414 552.659,652.828 552.792,637.215C552.819,633.066 552.047,628.81 551.063,624.741C550.717,623.464 548.563,621.895 547.127,621.762C542.286,621.257 537.02,622.454 532.578,620.991C523.881,618.145 515.21,619.475 506.539,619.103C502.257,618.917 497.975,618.544 493.692,618.252C500.581,610.964 509.092,611.39 517.151,611.47C528.96,611.576 540.743,612.906 552.526,613.518C563.67,614.077 574.735,614.316 585.481,618.173C591.332,620.274 597.716,620.886 603.913,621.897C616.254,623.918 628.782,624.903 640.458,630.169C645.671,632.483 651.523,633.334 657.135,634.664C667.269,637.084 677.589,638.787 687.589,641.739C704.452,646.739 721.102,652.484 738.231,658.017C745.492,648.841 752.913,639.452 760.36,630.036C765.307,623.812 769.669,617.003 775.335,611.524C778.341,608.625 779.085,606.178 779.085,602.481C779.112,595.007 779.484,587.533 779.83,580.086C780.282,570.192 781,560.324 781.266,550.456C781.319,548.461 780.415,545.695 778.952,544.551C772.835,539.577 766.318,535.109 759.137,529.896C760.254,547.982 763.206,564.952 756.158,582.293C755.573,580.83 755.28,580.431 755.227,579.979C753.392,563.196 751.503,546.413 749.881,529.63C749.588,526.757 748.658,525.428 745.971,524.497C728.629,518.699 711.314,512.714 694.026,506.81C690.595,505.64 687.057,504.789 683.759,503.299C681.179,502.129 678.971,500.214 676.498,498.698C674.61,497.528 672.615,496.544 670.673,495.453C670.806,495.134 670.939,494.868 671.045,494.575L684.769,494.575C693.041,483.111 693.094,470.424 692.536,457.711C692.403,454.546 691.632,450.104 689.451,448.508C685.834,445.848 680.993,444.199 676.418,443.587C664.555,441.885 653.81,437.443 643.463,431.538C649.049,431.751 654.607,432.309 659.98,433.586C668.864,435.687 677.588,438.347 686.418,440.581C693.041,442.283 699.797,443.48 706.34,445.315C710.356,446.459 717.591,445.741 719.905,442.442C722.645,438.506 724.56,434.037 726.82,429.835C727.512,428.558 728.283,427.335 728.974,426.085C730.038,427.495 731.394,428.771 732.086,430.341C732.565,431.432 732.166,432.921 732.113,434.198C731.794,439.624 728.576,445.076 732.406,450.502C732.778,451.034 732.167,452.257 732.167,452.311C746.556,459.173 760.547,465.69 774.378,472.632C777.304,474.121 778.953,473.882 780.229,471.249C781.32,468.962 782.889,466.435 782.676,464.121C781.346,448.136 779.857,432.124 777.862,416.192C776.346,403.664 774.059,391.217 771.957,378.769C770.308,368.875 767.063,359.805 759.429,352.703C748.497,342.516 737.778,332.143 726.873,321.929C725.064,320.2 722.804,318.923 719.532,316.583C718.92,321.557 718.468,325.334 717.963,329.084C717.75,330.946 717.724,332.967 717.085,334.749C713.308,345.016 709.478,355.282 705.462,365.469C704.85,367.012 703.281,368.182 702.164,369.512C701.526,369.273 700.914,369.06 700.276,368.82C701.074,362.596 701.18,356.133 702.856,350.122C705.276,341.451 711.048,333.578 708.681,323.79C708.442,322.939 708.787,321.795 709.24,320.997C712.937,314.667 713.017,307.751 713.097,300.756C713.23,292.032 706.155,280.382 697.271,276.18C693.414,283.494 694.452,291.66 693.654,299.293C692.803,307.272 693.441,315.411 693.441,323.497C690.861,315.571 689.372,307.485 687.483,299.506C687.057,297.644 685.435,295.41 683.733,294.559C678.573,292.006 673.147,289.878 667.695,287.883C658.386,284.425 648.97,281.234 640.778,278.334C638.171,284.638 636.31,290.835 633.091,296.181C629.793,301.713 629.527,307.538 632.187,312.246C637.161,321.023 636.123,328.896 632.506,337.62C630.245,342.993 629.394,348.977 628.277,354.776C626.788,362.543 626.096,370.469 624.181,378.129C622.878,383.475 618.728,385.497 615.218,384.619C616.415,382.119 618.436,379.565 618.729,376.826C619.926,365.389 620.538,353.925 621.495,342.488C621.761,339.11 622.107,335.706 623.144,332.514C624.793,327.301 624.766,322.54 622.08,317.593C617.452,308.896 617.665,299.879 622.958,291.793C626.203,286.872 627.506,281.872 627.692,276.313C627.772,273.813 626.681,271.206 627,268.759C628.436,257.162 620.164,244.608 608.727,241.629C608.461,250.406 600.322,256.258 600.801,265.753C601.12,271.525 600.934,276.924 603.913,282.057C605.19,284.291 606.865,286.632 607.105,289.052C608.249,300.329 609.392,311.66 609.712,323.017C610.217,340.252 610.111,357.541 610.191,374.776C610.191,376.638 609.739,378.446 609.473,380.282C606.521,356.078 605.005,331.954 602.797,307.883C602.132,301.047 599.339,294.398 597.557,287.616C594.817,292.829 592.53,297.431 591.493,302.325C589.684,311.182 588.86,320.225 587.158,329.109C586.121,334.774 586.493,341.557 578.514,343.498C579.365,337.673 580.376,331.955 580.961,326.236C581.36,322.379 580.828,318.443 581.333,314.613C582.104,308.575 583.594,302.671 584.445,296.633C585.695,287.643 586.387,278.573 587.85,269.61C588.994,262.774 586.387,257.082 582.983,251.843C581.76,249.981 577.983,249.689 575.27,248.891C570.349,247.402 568.408,248.598 567.105,253.679C569.446,255.567 572.77,257.03 573.887,259.477C575.509,263.014 576.015,267.27 576.148,271.26C576.68,285.224 576.84,299.214 577.079,313.178C577.106,314.667 576.574,316.21 576.308,317.726C575.005,311.688 574.526,305.73 574.154,299.746C573.516,290.038 572.984,280.33 572.345,270.622C572.239,269.186 571.999,267.67 571.467,266.34C569.605,261.765 568.302,257.27 561.626,256.712C554.817,256.153 548.088,254.052 541.492,252.004C530.082,248.467 518.485,248.653 506.835,249.61C496.09,250.461 485.397,252.509 474.625,252.961C463.72,253.44 453.639,255.807 444.224,261.259C437.495,265.142 431.138,269.238 427.201,276.42C422.653,284.718 417.706,292.857 412.572,300.81C397.996,323.418 383.501,346.053 368.526,368.368C355.653,387.598 342.221,406.456 328.975,425.393C323.389,433.372 317.272,440.953 311.952,449.092C303.095,462.657 294.796,476.541 286.072,490.159C282.508,495.745 278.039,500.771 274.635,506.437C270.459,513.299 267.746,521.066 263.065,527.529C252.027,542.929 240.005,557.611 228.754,572.878C221.014,583.411 210.774,591.975 205.082,604.157C201.731,611.392 196.704,617.802 193.246,625.01C188.405,635.037 191.757,644.16 198.14,652.805C199.018,651.422 199.842,650.012 200.747,648.736C205.295,642.432 209.551,635.703 217.477,633.043C218.966,632.511 220.669,632.671 222.291,632.511C221.945,634.586 221.44,635.384 220.775,636.102C215.881,641.448 210.987,646.768 206.093,652.114C198.699,660.2 199.63,669.562 202.21,679.057C203.327,683.02 205.083,683.472 207.849,680.573C222.504,665.013 240.006,653.47 259.316,644.56C267.162,640.943 275.062,637.405 283.041,634.24C293.707,629.984 295.116,626.447 294.638,614.797C294.212,604.69 295.729,594.476 296.979,584.369C297.351,581.443 299.798,578.81 301.314,576.017C301.873,576.203 302.458,576.416 303.043,576.602C303.203,577.985 303.415,579.342 303.495,580.698C304.32,593.518 304.958,606.312 306.022,619.078C306.98,630.887 306.075,633.84 296.872,636.686C291.047,638.468 288.999,642.431 287.802,647.458C287.004,650.73 286.632,654.134 286.233,657.512C285.674,662.379 285.249,667.273 284.611,673.417C280.382,664.108 284.664,653.495 275.648,646.154C264.743,652.085 253.067,657.378 242.587,664.506C232.161,671.581 222.958,680.411 213.356,688.657C211.734,690.067 210.164,692.274 209.845,694.296C208.887,700.041 208.568,705.866 208.036,711.664C207.398,711.026 206.148,709.855 204.897,708.658C157.952,661.713 111.007,614.768 64.062,567.797C61.322,565.057 58.556,562.211 56.242,559.1C35.735,532.077 38.395,495.558 62.758,471.195C120.688,413.132 178.671,355.123 236.813,297.273C242.93,291.209 247.931,285.198 247.745,276.128C247.665,274.213 248.25,272.245 248.809,270.409C251.682,260.967 254.793,251.578 257.613,242.109C258.836,237.96 261.018,235.273 265.459,234.662C270.699,234.024 274.768,235.912 277.322,240.434C279.237,243.839 280.673,247.482 282.588,251.578C288.147,245.939 293.546,240.567 298.759,235.008C299.53,234.183 299.929,232.268 299.557,231.205C295.993,221.204 297.216,211.523 300.807,201.868C302.084,198.437 303.041,194.953 304.584,190.165C302.642,191.787 301.765,192.373 300.993,193.144C214.471,279.666 127.736,366.002 41.453,452.791C4.855,489.655 5.333,548.702 42.065,585.487C173.724,717.358 305.489,849.097 437.333,980.755C475.9,1019.268 534.627,1018.896 573.221,980.329C704.215,849.362 835.182,718.448 966.122,587.481C1005.62,547.983 1005.699,489.734 966.228,450.21C889.999,373.875 813.637,297.646 737.328,221.337C736.291,220.326 735.174,219.369 734.083,218.385C737.886,231.551 742.701,244.025 747.142,256.632C748.525,260.542 750.068,264.904 749.616,268.84C749.19,272.431 750.361,274.186 752.489,276.314C817.201,340.946 881.887,405.632 946.519,470.291C974.686,498.485 974.713,538.966 946.572,567.293C933.273,580.672 919.895,593.997 906.516,607.349C905.452,608.386 904.308,609.37 902.952,610.541C902.367,609.158 901.861,608.44 901.755,607.668C900.638,598.492 894.148,593.332 887.259,588.491C886.248,587.799 884.892,587.454 883.642,587.268C878.136,586.523 872.657,585.805 867.125,585.326C864.705,585.087 862.125,585.033 859.811,585.645C850.582,588.198 845.927,596.098 841.379,603.386C835.288,613.068 830.527,623.52 824.995,633.574C824.33,634.744 822.628,635.808 821.298,636.048C811.59,637.537 801.855,638.681 792.147,640.091C785.551,641.049 784.646,642.565 786.163,649.985C796.403,648.948 806.696,647.884 817.894,646.713C815.58,651.208 813.798,654.958 811.697,658.549C811.271,659.32 809.942,659.905 808.984,659.985C794.674,661.395 780.312,662.645 766.002,664.161C764.619,664.321 762.757,665.624 762.145,666.874C760.922,669.348 760.336,672.22 759.405,675.279C774.539,677.034 789.487,673.577 805.286,671.156C802.626,676.768 800.552,681.449 798.211,686.024C797.812,686.795 796.402,687.434 795.418,687.487C785.923,688.072 776.347,687.966 766.879,689.083C756.692,690.306 746.638,692.408 736.584,694.642C735.015,694.988 733.472,697.648 732.914,699.563C732.116,702.17 732.276,705.069 731.93,708.447C751.134,706.053 770.736,703.606 790.339,701.159C789.142,705.149 787.52,707.516 786.11,710.043C782.918,715.655 779.328,718.873 771.667,719.219C756.719,719.857 741.904,722.943 727.009,724.539C718.285,725.47 719.535,724.725 718.524,735.311C735.626,734.353 752.569,733.449 770.735,732.465C766.426,738.157 763.128,742.758 759.537,747.094C758.739,748.025 756.851,748.371 755.441,748.424C749.27,748.69 743.073,748.451 736.956,749.036C728.631,749.834 720.332,751.217 712.061,752.361C705.438,753.345 698.789,754.382 692.086,755.446C692.432,756.776 692.804,757.733 692.884,758.664C693.416,764.755 694.081,765.712 699.932,765.074C710.81,763.824 721.609,761.909 732.461,760.579C738.1,759.887 743.792,759.781 749.457,759.409C749.617,759.888 749.829,760.393 749.989,760.872C746.159,765.66 742.435,770.554 738.446,775.155C737.409,776.352 735.494,777.363 733.978,777.416C716.424,777.975 698.869,778.347 681.261,778.772C679.585,778.799 677.91,778.772 676.021,778.772C676.659,782.708 677.165,785.847 677.617,788.64L724.243,788.64C717.514,799.705 710.306,803.907 697.778,803.907L659.61,803.907C659.344,807.631 659.105,810.769 658.812,814.759L697.538,814.759C697.804,815.291 698.097,815.85 698.363,816.408C695.278,819.174 691.66,821.595 689.134,824.866C685.437,829.654 680.782,829.334 675.676,829.228C665.516,828.962 655.382,829.148 644.956,829.148L644.954,829.142ZM541.914,19.242C543.776,12.566 544.787,4.799 552.899,1.182C557.474,-0.839 562.075,-0.387 565.161,3.469C569.576,8.922 574.843,14.188 577.502,20.492C580.162,26.849 580.055,34.376 581.226,41.398C581.572,43.313 582.13,45.175 582.37,46.159C586.812,44.696 590.403,42.728 594.153,42.489C601.255,41.984 606.042,45.92 608.596,52.703C611.176,59.618 615.405,66.241 616.336,73.343C617.32,80.631 621.23,84.913 625.805,89.488C644.37,107.947 662.856,126.512 681.394,145.051C682.511,146.195 683.522,147.471 685.197,149.413C686.686,144.439 688.203,140.503 688.947,136.407C690.224,129.438 700.278,125.768 705.73,131.407C708.576,134.306 710.491,138.11 712.911,141.434C720.385,151.648 722.034,163.696 723.763,175.745C724.242,179.256 724.056,182.926 725.013,186.304C725.625,188.618 727.354,190.879 729.109,192.634C811.216,274.847 893.403,356.981 975.537,439.168C978.755,442.386 981.92,445.684 984.82,449.195C1020.567,491.991 1018.094,555.772 978.676,595.243C846.672,727.407 714.614,859.518 582.397,991.496C539.149,1034.664 471.272,1034.903 428.077,991.815C295.594,859.678 163.27,727.327 31.106,594.871C-11.025,552.634 -10.174,484.065 32.542,441.216C85.471,388.1 138.587,335.118 191.649,282.055C227.981,245.696 264.341,209.337 300.779,173.031C302.987,170.797 304.077,168.642 304.024,165.424C303.838,155.609 307.907,146.832 311.684,138.108C313.626,133.693 321.206,132.389 325.861,135.102C326.845,135.634 327.856,136.272 328.627,137.07C331.792,140.368 334.133,139.783 337.324,136.565C366.901,106.776 396.663,77.199 426.293,47.436C450.284,23.338 479.249,12.061 513.108,14.242C522.683,14.88 532.205,17.487 541.913,19.242L541.914,19.242Z" style="fill:rgb(69,28,21);fill-rule:nonzero;"/>
    </g>
    <g transform="matrix(0.058594,0,0,0.058594,-0.000035,-0.000026)">
        <path d="M360.851,767.148C348.084,769.648 335.264,772.095 322.497,774.649C311.193,776.91 299.889,779.117 288.665,781.671C286.431,782.15 284.489,783.905 282.069,785.288C279.196,782.282 276.138,779.064 272.148,774.915C301.831,769.702 330.716,763.239 360.559,765.18C360.639,765.845 360.772,766.483 360.852,767.148L360.851,767.148Z" style="fill:rgb(69,28,21);fill-rule:nonzero;"/>
    </g>
    <g transform="matrix(0.058594,0,0,0.058594,-0.000035,-0.000026)">
        <path d="M222.239,726.062C219.765,723.349 217.611,721.008 214.871,718.003C221.068,713.641 227.159,708.907 233.676,704.837C241.576,699.863 249.661,694.969 258.093,690.9C262.455,688.825 267.668,688.533 272.536,687.602C273.44,687.416 274.504,688.134 275.887,689.304C255.939,698.507 237.054,709.066 222.239,726.062Z" style="fill:rgb(69,28,21);fill-rule:nonzero;"/>
    </g>
    <g transform="matrix(0.058594,0,0,0.058594,-0.000035,-0.000026)">
        <path d="M485.487,208.809C489.982,200.351 506.845,198.276 513.787,205.564C504.265,206.655 494.876,207.718 485.487,208.809Z" style="fill:rgb(69,28,21);fill-rule:nonzero;"/>
    </g>
</svg>
