<?xml version="1.0" encoding="UTF-8" standalone="no"?>
<!DOCTYPE svg PUBLIC "-//W3C//DTD SVG 1.1//EN" "http://www.w3.org/Graphics/SVG/1.1/DTD/svg11.dtd">
<svg width="100%" height="100%" viewBox="0 0 60 61" version="1.1" xmlns="http://www.w3.org/2000/svg" xmlns:xlink="http://www.w3.org/1999/xlink" xml:space="preserve" xmlns:serif="http://www.serif.com/" style="fill-rule:evenodd;clip-rule:evenodd;stroke-linejoin:round;stroke-miterlimit:2;">
    <g transform="matrix(0.058594,0,0,0.058594,0.000037,0)">
        <path d="M511.96,1009.647C486.288,1009.647 462.174,999.658 444.021,981.532L42.429,579.94C4.995,542.48 4.995,481.522 42.429,444.116L444.048,42.497C462.201,24.344 486.288,14.355 511.96,14.355C537.605,14.355 561.692,24.344 579.845,42.497L981.464,444.116C999.617,462.242 1009.579,486.356 1009.579,512.028C1009.579,537.673 999.616,561.787 981.464,579.94L579.872,981.532C561.719,999.658 537.605,1009.647 511.96,1009.647Z" style="fill:rgb(232,203,158);fill-rule:nonzero;"/>
    </g>
    <g transform="matrix(0.058594,0,0,0.058594,0.000037,0)">
        <path d="M511.919,14.436C487.304,14.435 462.71,23.798 444.025,42.483L42.444,444.104C5.055,481.493 5.055,542.503 42.444,579.892L444.025,981.513C462.722,1000.194 487.346,1009.559 511.958,1009.56C536.57,1009.561 561.143,1000.191 579.852,981.513L981.473,579.892C1018.833,542.501 1018.833,481.495 981.473,444.104L579.852,42.483C561.155,23.802 536.533,14.437 511.919,14.436Z" style="fill:rgb(232,203,158);fill-rule:nonzero;"/>
    </g>
    <g transform="matrix(0.058594,0,0,0.058594,0.000037,0)">
        <path d="M842.949,583.754C847.398,579.305 845.322,576.663 840.927,574.263C837.637,572.483 834.51,570.299 831.544,568.008C828.982,565.986 827.149,566.121 825.531,568.952C831.301,573.859 837.152,578.821 842.949,583.755L842.949,583.754ZM587.364,886.659C595.453,886.174 603.057,885.688 610.876,885.203C611.307,882.938 611.712,880.916 612.278,878.193C603.623,878.705 595.561,879.191 587.364,879.676L587.364,886.659ZM417.361,554.957C414.233,547.65 411.537,541.233 408.814,534.842C406.226,535.273 404.068,535.624 401.831,535.947C403.799,542.957 405.741,549.752 407.79,557.059C410.891,556.385 413.776,555.738 417.362,554.956L417.361,554.957ZM580.435,647.28C585.936,646.66 590.924,646.094 595.912,645.608C600.9,645.069 605.888,644.691 610.877,644.206L610.877,635.092C602.977,635.982 595.427,636.899 587.877,637.761C580.947,638.57 580.597,639.001 580.435,647.279L580.435,647.28ZM788.052,267.125C785.059,263.647 782.309,260.438 779.208,256.825C772.548,262.838 766.158,268.608 759.687,274.405C762.707,278.18 765.214,281.362 767.83,284.651C774.76,278.665 781.312,272.976 788.052,267.125ZM464.789,649.005C468.995,642.992 473.282,636.925 477.893,630.4C472.77,627.461 467.917,624.684 463.252,622.014C458.614,627.218 454.165,632.233 449.905,637.059C454.785,640.996 459.585,644.851 464.789,649.004L464.789,649.005ZM670.114,246.929C662.483,243.72 655.446,240.781 647.815,237.573C645.793,243.451 643.878,249.059 642.018,254.533C648.786,257.391 654.61,259.818 661.027,262.487C664.128,257.175 667.229,251.863 670.114,246.929ZM688.153,637.842C682.518,639.271 677.017,640.7 671.328,642.156C675.642,651.863 679.821,661.381 684.27,670.845C684.647,671.681 686.778,672.544 687.586,672.193C693.033,669.928 698.371,667.313 703.764,664.778C698.425,655.557 693.383,646.847 688.152,637.842L688.153,637.842ZM590.303,777.917C612.817,776.137 635.062,774.358 657.28,772.578L657.28,760.04L628.834,760.04C628.564,765.163 625.491,767.212 620.448,767.077C618.507,767.023 616.538,767.32 614.57,767.481C606.508,768.128 598.392,768.802 590.303,769.476L590.303,777.917ZM464.142,249.41C456.565,261.112 449.339,271.816 442.625,282.844C439.686,287.67 437.637,293.144 435.534,298.402C435.022,299.642 435.858,301.422 436.073,302.932C437.475,302.366 439.039,302.015 440.144,301.125C443.568,298.321 446.642,295.004 450.174,292.416C457.346,287.239 464.653,282.305 472.068,277.505C475.169,275.51 476.76,273.541 474.279,270.09C473.443,268.931 472.85,267.582 472.041,266.072C469.237,268.283 466.729,270.278 464.033,272.435C462.766,269.873 461.741,267.878 460.77,265.937C469.129,258.172 469.129,258.172 464.14,249.409L464.142,249.41ZM506.582,273.057C509.44,272.383 511.597,271.925 513.754,271.412C521.816,269.444 529.851,267.556 537.886,265.48C538.911,265.21 540.636,263.916 540.528,263.377C539.423,257.661 538.317,251.918 536.51,246.39C536.133,245.285 532.762,244.179 531.117,244.556C523.702,246.309 516.476,248.924 509.034,250.596C504.936,251.54 503.938,253.886 504.342,257.31C504.935,262.487 505.798,267.664 506.58,273.057L506.582,273.057ZM395.062,529.666C398.837,527.94 402.396,526.43 405.82,524.732C406.71,524.274 407.869,523.195 407.896,522.44C408.058,515.726 408.354,508.985 407.788,502.352C407.599,500.545 404.741,498.658 402.773,497.472C402.261,497.229 399.78,499.359 398.998,500.815C397.326,503.97 396.221,507.421 394.765,510.711C391.907,517.29 388.617,523.707 386.191,530.421C383.171,538.807 384.331,547.516 385.625,556.144C386.11,559.595 386.461,563.074 386.865,566.633C398.81,562.966 399.268,560.135 398.055,551.48C397.057,544.2 396.06,536.92 395.062,529.667L395.062,529.666ZM608.423,188.392C596.397,189.74 585.342,191.007 574.314,192.221C571.267,192.572 571.186,194.486 571.456,196.805C572.157,202.98 572.696,209.181 573.424,215.383C573.64,217.297 574.287,219.185 574.718,221.072C576.605,219.454 577.549,217.971 578.196,216.353C579.976,211.85 583.616,210.232 588.038,210.448C592.19,210.664 594.32,213.495 595.21,217.405C595.48,218.51 595.857,220.128 596.639,220.452C598.661,221.315 600.926,221.854 603.11,221.989C604,222.07 605.672,220.776 605.752,219.994C606.723,209.721 607.532,199.448 608.421,188.393L608.423,188.392ZM742.699,601.038C738.385,604.948 734.907,608.129 731.428,611.338C748.604,624.604 759.497,643.074 773.113,658.928C777.427,654.533 781.229,650.704 785.705,646.174C771.576,631.344 757.313,616.38 742.699,601.038ZM664.964,579.521C653.909,570.03 643.151,560.835 633.363,552.396C623.387,565.177 613.491,577.849 603.164,591.034C610.768,586.558 618.156,582.217 626.11,577.552C626.946,586.369 627.755,594.782 628.564,603.194C629.049,603.248 629.535,603.302 630.047,603.383C632.096,596.184 634.091,588.985 636.141,581.651C643.151,587.125 649.892,592.409 656.606,597.721C656.93,597.317 657.199,596.939 657.523,596.562C654.881,592.302 652.157,588.015 649.569,583.727C648.841,582.541 648.383,581.219 647.816,579.952C649.299,579.467 650.782,578.469 652.238,578.496C656.444,578.631 660.624,579.143 664.965,579.521L664.964,579.521ZM673.08,209.45C677.124,210.232 681.6,212.578 684.027,211.203C686.966,209.585 688.125,204.813 690.067,201.415C690.391,200.822 690.579,200.202 691.065,199.069C679.066,195.456 667.149,191.87 654.88,188.203C654.637,191.034 655.069,193.434 654.233,195.24C651.591,200.848 653.397,204.057 659.005,205.783C659.221,205.837 659.302,206.322 659.302,206.322C656.471,214.357 653.694,222.149 651.024,229.645C657.738,232.18 664.101,234.687 670.599,236.952C671.785,237.383 674.32,237.114 674.643,236.44C676.369,232.665 677.609,228.675 679.038,224.657C675.101,223.39 671.893,222.365 668.253,221.233C669.871,217.269 671.408,213.548 673.079,209.45L673.08,209.45ZM817.469,437.586L802.154,437.586C802.478,440.39 802.747,442.79 802.99,445.324C805.39,445.459 807.466,445.621 809.677,445.755C809.92,447.912 810.162,449.826 810.405,452.172L837.584,452.172C836.613,445.593 835.67,439.445 834.78,433.298C833.701,425.991 832.731,418.657 831.437,411.431C831.221,410.218 829.388,408.222 828.579,408.33C820.571,409.57 812.644,411.161 804.824,412.644C805.228,415.907 805.498,418.118 805.768,420.275C803.665,420.706 802.128,421.03 800.618,421.354C800.888,423.916 801.13,426.153 801.319,428.041C801.993,428.392 802.128,428.499 802.29,428.526C804.905,428.715 807.521,428.877 810.163,429.065C817.173,429.55 817.362,429.766 817.47,437.585L817.469,437.586ZM793.471,335.018C797.677,332.618 801.236,330.596 805.065,328.439C803.933,326.174 802.827,324.044 801.587,321.644C804.337,320.107 806.872,318.651 809.541,317.168C810.97,319.163 812.264,321.024 813.774,323.181C818.115,320.808 822.321,318.462 826.743,316.009C825.098,313.582 823.696,311.56 822.321,309.511C824.748,307.785 827.147,306.114 829.871,304.172C827.498,300.613 825.341,297.377 823.049,293.872C799.645,307.92 776.726,321.725 753.349,335.8C755.722,339.17 757.933,342.298 760.252,345.588C769.905,339.953 779.072,334.614 788.456,329.14C790.37,331.351 791.826,333.104 793.471,335.018ZM522.41,206.377C515.292,210.017 508.659,213.441 502.376,216.65C503.535,221.396 504.964,225.305 505.288,229.296C505.423,231.291 504.129,234.338 502.538,235.336C498.359,237.844 493.748,239.839 489.083,241.295C487.573,241.753 485.012,240.297 483.529,239.03C482.504,238.086 482.45,236.01 481.83,233.961C478.972,236.523 476.141,238.76 473.687,241.349C472.932,242.158 472.608,244.153 473.04,245.151C476.222,252.539 479.619,259.873 483.097,267.126C483.555,268.07 484.904,269.175 485.901,269.202C492.264,269.283 494.314,266.694 493.343,260.304C492.966,257.877 492.588,255.424 492.615,252.97C492.615,251.918 493.316,250.301 494.152,249.896C499.275,247.415 504.425,244.854 509.791,242.993C516.262,240.755 523.003,239.191 529.474,237.412C527.074,226.896 524.809,216.866 522.41,206.377ZM456.242,585.642C441.277,600.364 426.367,615.059 410.944,630.185C414.665,636.279 418.763,642.966 422.781,649.545C430.735,641.106 438.15,633.286 445.592,625.413C443.785,623.849 442.114,622.42 440.253,620.829C443.92,617.432 446.994,614.574 450.122,611.608C452.063,613.711 453.438,615.194 455.029,616.893C459.963,611.312 466.192,607.375 469.481,601.335C464.897,595.888 460.799,591.062 456.242,585.642ZM510.276,702.042C507.013,700.235 502.295,699.103 501.675,696.892C500.866,694.007 503.185,690.151 504.452,686.835C507.445,678.935 507.526,678.989 514.995,683.087C515.238,683.249 515.615,683.141 516.424,683.141C517.071,680.984 517.772,678.773 518.392,676.724C508.038,672.518 498.197,668.527 488.813,664.725C482.369,675.942 475.736,687.536 468.698,699.885C480.373,705.709 492.264,711.641 504.667,717.843C506.689,712.154 508.415,707.273 510.275,702.043L510.276,702.042ZM426.259,562.103C423.374,563.748 417.712,565.608 417.793,567.253C417.955,571.405 414.989,571.244 413.209,572.349C409.299,574.749 405.12,576.69 401.022,578.82C400.618,579.036 400.159,579.09 399.755,579.197C398.973,577.903 398.245,576.716 397.652,575.773C395.064,576.366 392.718,576.69 390.669,577.553C389.617,578.011 388.188,579.629 388.323,580.519C388.862,584.725 388.997,589.336 390.885,592.922C395.415,601.577 400.861,609.774 405.93,618.133C418.549,607.132 431.087,596.104 443.679,585.076C437.936,577.499 432.22,569.95 426.261,562.103L426.259,562.103ZM534.112,200.202C537.779,218.025 541.203,234.904 544.816,251.729C545.005,252.592 546.892,253.751 547.863,253.643C554.253,252.699 560.617,251.459 566.926,250.3C566.791,247.199 566.737,244.422 566.441,241.645C564.877,227.651 563.205,213.684 561.561,199.69C561.076,195.565 558.811,193.354 554.604,194.432C547.701,196.158 540.907,198.261 534.112,200.202ZM905.557,538.186C905.854,538.429 906.177,538.698 906.501,538.941C911.84,536.056 917.178,533.171 922.733,530.124C923.407,538.887 924.027,547.084 924.674,555.308C925.186,555.47 925.699,555.605 926.238,555.739C929.608,548.243 932.979,540.774 936.457,533.036C941.58,537.054 946.73,541.098 951.907,545.142C952.419,544.657 952.932,544.198 953.444,543.713C951.53,538.32 949.588,532.955 947.62,527.481L959.565,527.481C949.723,513.352 939.909,499.17 929.798,484.636C925.43,504.292 918.123,522.438 905.558,538.185L905.557,538.186ZM539.531,716.225C540.205,713.852 540.852,711.722 541.526,709.349C543.899,710.023 546.002,710.589 548.509,711.29C550.316,703.983 552.014,696.999 553.794,689.665C551.044,688.748 548.482,687.885 545.408,686.861C545.893,684.434 546.379,682.089 546.864,679.635C549.884,680.255 552.499,680.794 555.654,681.415C556.679,676.589 557.73,671.843 558.755,666.963C551.232,665.291 544.168,663.754 537.535,662.271C530.983,682.79 524.647,702.689 517.96,723.558C527.262,725.904 535.675,728.034 544.519,730.272C545.382,725.634 545.975,722.507 546.622,719.244C544.168,718.192 541.957,717.249 539.531,716.224L539.531,716.225ZM866.002,416.96C864.789,409.06 863.575,401.807 862.605,394.473C862.254,391.885 861.473,390.617 858.587,391.103C852.332,392.128 846.022,392.99 839.12,394.069C842.625,413.644 845.996,432.492 849.447,451.528C854.974,451.124 861.149,450.692 867.701,450.261L867.701,438.748C871.125,438.559 874.199,438.344 877.704,438.155C877.192,430.821 876.706,423.999 876.194,416.962L866.002,416.96ZM828.82,476.252C828.82,484.206 828.739,491.432 828.901,498.658C828.928,499.952 829.791,502.19 830.681,502.433C841.898,505.507 853.195,508.257 865.518,511.358C866.138,501.462 866.65,492.942 867.217,484.098L859.559,484.098C853.142,484.098 850.742,481.698 850.607,475.335C850.526,472.854 850.122,470.401 850.149,467.947C850.176,464.496 848.585,463.525 845.323,463.444C837.746,463.174 830.224,462.527 822.701,462.042C818.549,461.799 814.369,461.584 810.352,461.395C809.786,465.763 809.273,469.376 808.815,472.935C815.798,474.094 822.189,475.146 828.822,476.251L828.82,476.252ZM768.476,566.336C766.292,569.922 764.189,573.346 762.409,576.258C770.902,583.862 778.991,591.169 786.703,598.098C798.378,581.327 809.784,565.014 822.052,547.434C811.617,542.688 801.803,538.186 792.15,533.764C786.865,541.044 781.796,548.055 776.619,555.119C778.749,556.656 780.825,558.193 783.063,559.838C782.038,561.348 781.014,562.75 779.72,564.61C775.81,561.833 772.009,559.109 767.991,556.251C766.751,558.192 765.618,559.972 764.432,561.832C765.807,563.396 767.101,564.825 768.476,566.335L768.476,566.336ZM740.623,230.05C732.75,225.008 725.658,220.02 718.163,215.786C712.689,212.712 706.623,210.663 700.232,207.913C692.952,222.015 685.699,236.117 678.095,250.865C690.39,256.581 702.011,262.001 714.549,267.825C722.962,255.638 731.671,243.019 740.622,230.049L740.623,230.05ZM459.262,691.58C467,680.687 474.173,670.09 481.803,659.844C486.387,653.696 488.409,653.535 495.527,656.474C504.155,660.06 512.81,663.619 521.789,667.34C524.189,659.844 526.481,652.726 528.557,646.282C514.725,640.485 501.297,634.877 487.357,629.052C480.185,638.435 472.932,647.926 465.031,658.28C457.94,653.696 450.767,649.059 443.164,644.151C438.904,649.166 434.401,654.505 429.979,659.709C438.23,672.274 446.885,683.545 459.261,691.58L459.262,691.58ZM863.225,522.655C857.347,521.172 852.925,520.093 848.503,518.907C839.713,516.534 830.977,514.027 822.16,511.789C818.062,510.737 818.035,508.176 818.196,504.725C818.52,497.742 818.277,490.704 818.277,483.748C813.208,482.885 807.95,481.995 802.288,481.025C799.457,495.45 796.68,509.552 793.956,523.384C807.384,528.049 821.027,532.794 835.075,537.648C832.352,544.119 829.763,550.348 826.986,556.927C833.592,561.295 841.196,566.283 849.743,571.892C854.327,555.229 858.722,539.078 863.225,522.657L863.225,522.655ZM612.575,259.171C612.575,254.911 612.305,250.812 612.764,246.849C612.899,245.636 615.218,243.694 616.431,243.775C622.12,244.099 627.944,244.638 633.499,245.878C637.49,246.768 638.703,245.258 639.808,241.995C641.884,235.955 644.284,230.05 646.603,224.064C647.897,220.721 650.809,217 650.081,214.168C649.434,211.58 644.904,209.962 642.046,207.913C643.151,201.658 644.284,195.267 645.497,188.823C646.063,185.668 645.955,183.43 641.776,183.161C636.087,182.784 630.371,182.109 624.735,181.247C619.989,180.546 618.533,182.703 617.967,187.098C616.43,199.636 614.516,212.12 612.709,224.658C611.604,232.316 610.714,232.747 602.894,232.504C593.888,232.18 584.883,232.423 575.257,232.423C575.958,238.301 576.767,245.015 577.468,251.243C582.348,253.319 588.631,249.652 590.95,256.069C597.907,257.067 604.674,258.064 612.575,259.17L612.575,259.171ZM766.562,591.304C763.407,595.537 760.226,599.797 757.421,603.572C772.008,619.426 786.056,634.688 800.32,650.164C815.554,632.233 829.279,613.117 839.767,591.168C831.354,584.589 823.185,578.199 814.853,571.674C813.181,573.723 812.211,574.802 811.375,576.015C805.362,584.589 799.403,593.218 793.364,601.792C789.805,606.888 786.488,607.562 781.527,603.733C776.458,599.877 771.712,595.617 766.562,591.303L766.562,591.304ZM667.85,744.347C667.365,738.739 668.281,734.209 663.266,730.758C658.467,727.468 654.746,723.936 647.978,724.583C637.543,725.5 626.974,724.772 616.458,724.853C613.896,724.853 611.982,724.476 611.901,721.186C611.766,717.115 611.092,713.016 611.092,708.945C611.092,704.658 609.474,703.471 605.322,704.388C602.491,705.035 599.471,704.631 596.559,704.9C594.914,705.089 592.73,705.224 591.76,706.302C585.855,712.477 580.193,718.894 574.504,725.311C573.776,726.12 572.913,727.279 573.021,728.223C573.911,739.305 574.962,750.333 576.041,761.819C591.086,760.417 605.215,759.042 619.425,757.721L619.425,744.347L667.85,744.347ZM180.031,548.082C189.603,546.329 199.121,544.631 208.666,542.905C206.212,554.257 203.84,565.231 201.44,576.232C201.979,576.475 202.519,576.717 203.031,576.96C212.9,566.498 222.768,556.063 231.882,546.438C238.677,555.201 245.984,564.638 253.318,574.102C253.83,573.886 254.316,573.698 254.828,573.455C253.723,562.993 252.617,552.505 251.485,542.178C262.513,545.036 273.11,547.813 283.706,550.591C284.057,549.998 284.434,549.432 284.785,548.865C282.709,547.031 280.39,545.441 278.583,543.418C273.352,537.567 267.582,532.066 263.403,525.514C255.638,513.408 248.843,500.681 241.698,488.197C239.487,484.341 237.654,484.287 235.281,488.116C233.663,490.758 232.099,493.455 230.347,496.043C216.569,515.996 198.692,531.931 180.034,548.082L180.031,548.082ZM670.087,783.552C658.628,784.496 647.708,785.628 636.76,786.14C632.257,786.329 631.718,788.135 632.068,791.964C632.58,797.518 632.661,803.127 632.715,808.735C632.715,811.782 631.286,813.454 627.754,813.211C622.685,812.941 617.508,813.346 612.439,812.941C607.693,812.59 602.948,811.566 598.553,810.919C598.095,802.183 597.717,794.364 597.286,786.113L579.625,786.113L579.625,841.145C591.543,840.633 603.029,840.147 614.515,839.527C617.831,839.365 620.393,838.422 621.175,834.242C621.552,832.22 623.871,829.982 625.867,829.011C634.414,824.832 643.366,825.452 647.303,837.585L672.433,837.585C671.651,819.681 670.869,802.263 670.087,783.551L670.087,783.552ZM823.535,379.346C827.66,378.294 831.489,377.135 835.399,376.38C840.711,375.355 846.076,374.573 851.442,373.792C855.918,373.118 857.185,370.961 855.46,366.593C850.094,353.03 844.917,339.333 839.66,325.717C837.152,319.165 834.375,318.113 828.147,321.646C816.769,328.09 805.39,334.642 794.038,341.167C789.4,343.809 784.79,346.506 781.15,348.609C784.359,357.345 787.271,365.38 790.21,373.415C785.276,375.114 781.069,376.597 776.863,378.053C779.505,385.98 781.689,393.018 784.251,399.92C784.979,401.834 786.705,404.504 788.188,404.666C792.017,405.043 796.088,404.72 799.836,403.857C807.844,401.997 815.69,399.489 823.672,397.575C826.827,396.847 827.258,395.175 826.692,392.56C825.721,388.435 824.724,384.336 823.537,379.348L823.535,379.346ZM765.241,291.985C760.199,285.541 755.453,279.501 750.088,272.625C759.876,263.808 770.337,254.344 780.907,244.853C773.222,237.627 767.318,232.126 761.251,226.464C746.179,243.963 731.457,261.004 716.681,278.126C711.639,274.81 706.678,271.574 701.743,268.365C699.451,271.924 697.51,274.89 695.568,277.91C707,287.563 718.244,297.108 729.677,306.788C731.672,304.981 733.964,303.148 736.013,301.018C739.303,297.54 742.538,297.567 745.882,300.748C750.142,304.846 754.483,308.918 758.582,313.178C764.73,319.595 761.925,319.38 769.907,314.796C775.893,311.372 781.69,307.597 787.568,304.038C797.544,297.998 807.521,292.039 817.929,285.784C813.372,280.203 808.842,275.16 804.96,269.687C802.452,266.101 800.376,265.885 797.06,268.393C786.544,276.32 775.948,284.086 765.243,291.986L765.241,291.985ZM772.467,677.209C758.662,659.063 745.234,641.456 731.645,623.525C722.262,628.756 713.283,633.717 703.846,638.975C708.645,647.388 713.256,655.315 717.651,663.404C718.972,665.831 719.97,668.527 715.979,670.091C712.636,671.412 709.508,673.3 706.272,674.944C700.691,677.802 695.082,680.687 689.824,683.357C694.327,695.437 698.695,707.085 703.036,718.706C711.314,714.284 719.457,709.943 727.977,705.467C730.673,711.426 733.046,716.711 735.715,722.589C746.527,714.77 756.665,707.436 766.965,699.994C764.161,695.222 761.815,691.123 759.28,686.728C763.783,683.492 768.232,680.284 772.465,677.21L772.467,677.209ZM557.031,716.171C564.608,720.512 569.758,717.276 574.503,711.479C578.251,706.922 582.646,702.878 586.852,698.725C587.58,698.024 588.766,697.62 589.791,697.377C596.532,696.083 603.192,694.6 609.933,693.656C620.152,692.254 631.288,687.454 638.298,700.208C638.433,700.478 638.783,700.666 638.999,700.882C647.196,707.407 655.77,713.582 663.482,720.673C670.762,727.414 677.799,732.132 687.56,725.796C687.964,725.526 688.315,725.203 689.367,724.394C681.709,701.853 673.971,679.15 666.206,656.393C649.57,656.932 633.661,657.472 617.51,658.038C617.321,657.202 617.025,656.285 616.917,655.342C616.297,650.57 613.735,649.248 608.963,649.518C597.638,650.246 586.287,650.246 574.962,650.758C573.749,650.785 571.834,652.16 571.565,653.212C566.604,674.216 561.831,695.221 557.032,716.171L557.031,716.171ZM657.523,639.379C668.955,635.793 679.929,632.422 690.903,628.863C704.87,624.36 717.893,618.32 728.328,605.702C724.445,605.351 721.048,605.783 718.298,604.677C708.349,600.606 698.022,596.966 688.908,591.357C678.392,584.886 667.122,585.398 655.743,584.05C660.084,591.708 664.209,598.934 668.335,606.133C667.85,606.484 667.364,606.834 666.879,607.185C657.388,601.792 647.897,596.4 638.352,590.926C634.631,600.875 632.771,611.041 625.329,618.321C624.574,618.132 623.873,617.97 623.118,617.782L623.118,585.291C622.633,585.075 622.093,584.887 621.608,584.671C606.482,598.746 586.07,601.927 568.275,610.502C550.614,618.995 531.093,623.579 512.38,629.889C512.326,630.482 512.272,631.102 512.191,631.669C524.972,634.824 537.725,638.032 550.533,641.052C555.279,642.157 560.051,643.236 564.877,643.533C566.711,643.641 569.38,641.942 570.378,640.297C571.888,637.924 572.212,634.85 573.155,631.669C586.34,630.752 599.606,629.943 612.845,628.811C616.836,628.487 618.13,630.402 618.723,633.718C619.397,637.412 620.287,641.079 620.853,644.8C621.581,649.384 624.062,651.217 628.618,650.705C632.528,650.247 636.437,649.977 640.374,649.707C646.71,649.249 653.074,648.79 659.761,648.332C659.06,645.555 658.413,642.912 657.523,639.38L657.523,639.379ZM503.374,405.581C501.055,412.349 505.45,418.469 507.041,425.183C508.308,430.71 510.87,434.836 514.645,438.557C517.099,440.957 519.417,443.761 522.33,445.487C528.99,449.478 535.623,454.439 542.957,456.191C551.396,458.213 560.618,457.836 569.408,457.323C574.234,457.026 579.25,454.95 583.564,452.604C600.2,443.41 606.213,427.744 606.941,409.975C607.561,394.39 602.977,380.1 592.866,367.724C581.514,353.919 558.003,345.695 541.204,351.007C530.688,354.323 521.683,360.983 515.023,369.504C507.096,379.642 501.299,391.182 503.375,405.581L503.374,405.581ZM583.239,922.278C583.239,926.215 583.563,929.855 583.131,933.387C582.807,935.787 581.972,938.591 580.381,940.263C573.263,947.813 565.902,955.174 558.379,962.346C532.333,987.233 491.375,987.53 465.652,962.319C431.004,928.372 396.95,893.778 362.572,859.562C360.55,857.54 360.28,855.733 361.116,853.01C363.462,845.191 367.776,839.367 375.245,835.7C377.591,834.568 380.934,833.327 380.746,829.202C374.76,831.629 369.233,833.84 363.516,836.159C364.864,830.335 367.399,825.158 371.848,821.033C379.101,814.292 386.462,807.605 388.997,796.793C395.765,806.176 402.586,814.103 412.347,819.388C418.495,822.704 420.813,829.149 419.978,836.159C413.048,834.164 406.2,832.222 399.189,830.254C400.052,834.838 403.719,836.294 407.17,838.073C413.264,841.147 419.492,844.355 420.679,851.932C421.434,856.947 421.299,862.124 421.623,867.759C414.774,864.443 408.708,861.53 402.668,858.618C402.425,859.049 402.156,859.481 401.913,859.912C409.84,865.601 417.767,871.29 425.775,877.088C428.094,867.004 435.644,860.182 444.407,854.358C445.998,853.306 447.211,851.77 448.586,850.448C448.182,849.855 447.804,849.289 447.4,848.695C441.064,852.2 434.781,855.705 428.634,859.157C426.234,851.634 430.656,840.202 436.292,836.05C440.957,832.572 444.92,828.096 449.18,824.105C448.776,823.539 448.344,822.973 447.94,822.433C441.307,825.021 434.674,827.61 428.068,830.225C428.23,820.626 433.083,813.885 440.174,807.953C450.339,799.406 457.943,789.079 459.668,775.354C459.83,774.275 460.747,773.305 461.636,771.66C462.715,774.626 463.685,776.702 464.224,778.886C466.327,787.514 470.803,794.606 477.787,800.079C482.398,803.692 487.251,806.982 491.862,810.622C496.688,814.424 499.735,819.142 498.926,825.479C490.298,823.268 482.101,821.138 473.122,818.819C479.728,829.173 490.486,830.629 498.71,833.757C504.399,828.337 509.172,822.648 515.023,818.469C518.501,815.988 520.847,813.643 521.791,809.625C515.347,813.319 509.064,816.878 502.809,820.491C500.76,815.125 503.133,807.495 508.417,803.774C517.018,797.761 524.433,790.724 528.99,780.99C529.826,781.233 530.608,781.206 530.985,781.61C531.47,782.149 531.632,782.958 531.929,783.686C534.787,790.858 539.02,796.817 545.357,801.563C551.828,806.47 556.843,812.645 555.954,822.406C550.076,819.332 544.656,816.501 539.264,813.697C540.639,817.04 542.203,820.492 544.899,822.11C552.691,826.775 560.349,831.304 563.719,840.688C564.204,825.4 564.501,810.462 564.15,795.525C563.799,780.588 562.856,765.704 562.128,750.092C556.978,749.148 550.642,748.744 544.898,746.802C529.367,741.571 513.351,737.068 498.818,729.734C477.841,719.164 455.434,710.132 440.038,690.907C430.52,678.989 420.544,667.341 411.996,654.722C406.226,646.202 401.669,637.169 391.153,633.637C390.991,633.61 390.856,633.475 390.722,633.394C376.998,624.2 363.219,615.059 349.576,605.73C343.509,601.605 337.416,597.452 331.888,592.68C321.049,583.324 310.695,573.428 299.937,563.991C297.429,561.78 294.329,559.704 291.174,558.868C280.065,555.902 268.795,553.475 257.874,550.887C259.087,562.643 260.355,575.046 261.622,587.476C261.083,587.773 260.517,588.042 259.977,588.339C250.486,576.799 240.995,565.232 231.288,553.476C219.074,566.337 208.828,581.653 191.679,591.305C195.481,575.828 199.013,561.376 202.626,546.681C194.807,548.622 187.203,550.86 179.438,552.289C174.234,553.206 169.354,553.772 164.986,557.331C145.869,572.943 125.781,587.044 101.703,594.055C100.085,594.54 97.416,594.136 96.31,593.084C84.5,581.544 72.636,570.03 61.312,558.059C36.56,531.959 36.695,491.244 61.851,465.467C86.172,440.526 111.005,416.124 135.703,391.588C136.862,390.429 138.723,389.431 140.287,389.35C160.348,388.703 179.869,384.308 199.202,379.697C214.086,376.111 228.349,376.3 243.26,378.861C249.3,379.913 255.987,377.135 262.404,376.111C262.377,375.572 262.377,375.059 262.377,374.547C252.05,370.098 239.809,369.208 231.935,358.747C234.712,358.585 236.815,358.45 238.918,358.316C247.762,357.804 256.633,356.806 265.477,356.887C279.282,356.995 293.06,358.397 306.839,358.289C316.627,358.208 326.441,356.752 336.175,355.539C341.406,354.865 346.502,353.49 351.679,352.411C349.306,349.876 347.014,348.744 344.749,347.45C338.116,343.621 331.429,339.873 324.931,335.748C322.235,333.968 320.347,330.571 317.462,329.412C310.775,326.77 303.738,325.017 296.808,322.914C294.381,322.159 291.577,321.97 289.528,320.676C281.277,315.391 273.296,309.756 265.207,304.309C256.741,298.674 247.762,294.575 237.273,295.115C235.925,295.223 234.523,294.953 233.175,294.845C232.932,294.441 232.69,294.009 232.447,293.605C233.795,292.607 235.305,291.825 236.465,290.693C311.639,215.546 386.785,140.4 461.932,65.253C463.792,63.366 465.653,61.505 467.675,59.779C482.154,47.403 498.845,41.848 517.908,43.439C535.138,44.895 549.293,52.391 561.373,64.524C596.776,100.062 632.286,135.518 667.797,170.948C669.496,172.647 671.491,174.453 673.702,175.181C692.927,181.625 712.232,187.8 730.81,193.813C731.107,194.217 730.837,193.732 730.433,193.328C679.311,142.206 628.377,90.922 576.931,40.15C560.78,24.215 540.45,16.126 517.72,14.939C487.602,13.348 462.499,24.214 441.279,45.461C323.072,163.911 204.677,282.171 86.362,400.486C71.182,415.666 55.813,430.631 40.929,446.081C25.021,462.609 16.285,482.535 14.883,505.481C13.023,535.923 23.889,561.322 45.459,582.839C165.661,702.798 285.675,822.92 405.742,943.014C419.062,956.307 432.22,969.735 445.702,982.839C461.799,998.424 481.293,1007.268 503.538,1008.993C534.06,1011.366 560.08,1001.201 581.785,979.468C653.831,907.26 726.011,835.215 798.111,763.088C858.94,702.313 919.715,641.511 980.517,580.736C997.153,564.1 1007.049,544.201 1008.963,520.851C1011.471,490.113 1001.305,463.932 979.357,442.145C944.601,407.605 910.008,372.876 875.333,338.229C874.254,337.15 873.095,336.153 871.99,335.101C875.199,349.877 879.486,364.06 882.991,378.458C884.663,385.441 887.548,391.05 892.698,396.092C915.32,418.31 937.565,440.851 959.998,463.204C976.446,479.571 983.348,499.227 980.086,522.119C979.061,529.183 976.257,535.978 974.235,542.908C973.642,542.989 973.049,543.097 972.428,543.151C969.138,534.307 960.645,534.307 953.716,531.26C956.574,538.648 959.945,545.631 963.126,552.669C963.692,553.963 963.477,555.608 963.611,557.064C962.263,556.767 960.591,556.848 959.567,556.093C952.449,550.727 945.438,545.227 937.808,539.268C936.433,552.777 929.395,562.187 921.792,571.273L920.147,570.976L920.147,538.566C911.546,543.932 904.185,548.515 896.851,553.099C894.451,554.636 891.566,555.768 889.706,557.818C878.166,570.626 867.65,584.431 853.171,594.299C852.039,595.027 851.149,596.456 850.69,597.723C843.194,618.161 831.573,636.038 816.581,651.596C804.825,663.837 792.557,675.566 780.396,687.403C777.214,690.477 777.322,693.524 779.21,697.083C780.693,699.941 781.933,702.961 783.228,705.738C768.614,715.553 754.377,725.152 740.087,734.723C737.418,736.557 734.748,738.794 731.89,734.777C731.566,734.292 729.922,734.48 729.005,734.723C715.335,738.417 701.691,742.138 688.075,745.994C680.768,748.043 680.633,748.151 681.172,755.97C682.089,769.209 683.41,782.448 684.192,795.714C684.623,802.886 684.273,810.112 684.273,817.716C693.441,814.831 701.61,804.019 700.397,797.386C696.676,800.837 693.036,804.235 689.153,807.821C686.834,802.698 686.133,797.683 689.773,793.665C696.999,785.738 703.74,777.649 706.463,766.944C706.571,766.486 707.137,766.162 706.76,766.593C713.743,775.437 720.592,784.092 727.603,792.936C727.684,792.774 727.63,793.152 727.387,793.34C710.05,810.785 692.685,828.203 675.24,845.514C674.108,846.593 672.031,847.105 670.36,847.186C650.946,847.752 631.533,848.022 612.119,848.75C603.841,849.074 595.591,850.287 587.555,851.069L587.555,872.774C596.264,872.208 604.569,871.695 612.82,871.156C612.901,862.096 617.215,861.962 626.706,861.773C632.395,861.692 638.111,862.016 643.828,861.8C648.627,861.665 653.4,861.045 658.199,860.641C658.361,861.153 658.523,861.693 658.657,862.205C654.639,865.279 652.59,870.914 645.984,870.698C639.297,870.455 632.583,870.833 625.923,870.509C622.067,870.347 619.479,870.428 619.802,875.416C619.991,878.652 619.047,881.941 618.966,885.204C618.804,889.599 616.539,891.837 612.36,892.134C606.293,892.619 600.2,892.808 594.16,893.239C589.63,893.59 585.073,894.102 580.193,894.56C580.651,900.789 581.11,906.747 581.568,913.192C590.628,912.626 599.499,912.087 608.612,911.493C602.141,920.31 601.305,920.634 583.24,922.278L583.239,922.278ZM511.624,-0C542.524,0.377 568.705,11.082 590.276,32.572C643.933,86.013 697.617,139.454 750.869,193.3C765.294,207.86 780.825,220.856 797.623,232.505C802.315,235.741 806.683,239.596 810.592,243.749C820.703,254.534 830.572,265.562 840.359,276.644C842.705,279.313 844.188,282.738 846.372,285.569C850.605,290.989 854.623,296.651 859.449,301.504C902.725,344.996 946.109,388.433 989.601,431.736C1014.03,456.057 1025.813,485.285 1023.683,519.636C1021.957,547.354 1010.768,571.109 991.111,590.792L646.656,935.247C628.456,953.447 610.202,971.593 592.055,989.848C567.788,1014.304 538.452,1025.925 504.101,1023.741C476.167,1021.934 452.439,1010.394 432.648,990.576C392.392,950.293 352.136,910.064 311.907,869.808C219.019,776.947 126.13,684.058 33.269,591.17C9.002,566.903 -2.08,537.432 0.32,503.351C2.288,475.848 13.748,452.364 33.296,432.842C85.605,380.587 137.832,328.306 190.114,276.024C271.219,194.946 352.271,113.84 433.457,32.789C455.108,11.164 481.425,0.352 511.623,0.002L511.624,-0Z" style="fill:rgb(69,28,21);fill-rule:nonzero;"/>
    </g>
    <g transform="matrix(0.058594,0,0,0.058594,0.000037,0)">
        <path d="M377.277,692.759C375.039,691.573 373.745,690.467 372.424,690.359C371.561,690.278 370.59,691.626 369.674,692.354C370.699,693.325 371.615,694.808 372.829,695.104C373.8,695.32 375.067,693.999 377.278,692.758L377.277,692.759ZM364.281,731.343C362.771,729.294 362.016,727.973 361.018,726.948C353.846,719.614 354.331,719.857 358.322,710.986C361.18,704.596 362.933,697.558 364.335,690.629C365.44,684.967 367.732,682.432 375.66,681.327C376.927,681.165 378.222,681.3 379.704,681.3C379.704,687.879 379.866,694.081 379.569,700.282C379.488,701.495 377.52,702.574 375.74,704.38C374.904,707.912 373.799,712.577 372.585,717.646C368.271,715.543 364.604,713.763 360.991,711.984C360.667,712.469 360.371,712.982 360.047,713.467C363.525,715.894 366.95,718.32 370.913,721.098C368.972,724.091 367.057,727.057 364.28,731.344L364.281,731.343Z" style="fill:rgb(69,28,21);fill-rule:nonzero;"/>
    </g>
    <g transform="matrix(0.058594,0,0,0.058594,0.000037,0)">
        <path d="M313.536,739.467C312.242,741.354 310.678,742.757 310.948,743.35C311.541,744.752 313.051,745.723 314.211,746.882C315.101,745.75 316.692,744.617 316.719,743.485C316.719,742.406 315.074,741.301 313.537,739.467L313.536,739.467ZM327.126,732.78C328.798,741.058 330.308,748.58 331.818,756.292C323.19,756.723 314.858,757.236 306.526,757.532C302.32,757.667 300.244,756.4 301.78,751.33C303.236,746.531 303.452,741.354 304.018,736.285C304.342,733.562 305.123,732.429 308.305,732.672C314.507,733.103 320.789,732.78 327.125,732.78L327.126,732.78Z" style="fill:rgb(69,28,21);fill-rule:nonzero;"/>
    </g>
    <g transform="matrix(0.058594,0,0,0.058594,0.000037,0)">
        <path d="M275.265,654.506C277.827,657.499 280.361,660.519 282.491,662.999C280.657,672.301 278.824,681.631 276.964,690.906C271.49,690.205 266.206,689.531 260.894,688.83C260.058,678.934 267.958,661.948 275.265,654.506Z" style="fill:rgb(69,28,21);fill-rule:nonzero;"/>
    </g>
    <g transform="matrix(0.058594,0,0,0.058594,0.000037,0)">
        <path d="M263.498,715.502C268.136,713.695 272.45,711.673 276.953,710.433C278.355,710.029 280.35,711.7 282.049,712.428C282.13,712.482 282.103,712.752 282.211,712.859C290.839,721.218 285.258,729.603 282.211,737.908C280.998,741.198 278.948,740.766 276.603,738.636C269.808,732.434 266.168,724.507 263.499,715.502L263.498,715.502Z" style="fill:rgb(69,28,21);fill-rule:nonzero;"/>
    </g>
    <g transform="matrix(0.058594,0,0,0.058594,0.000037,0)">
        <path d="M333.885,800.698C333.427,809.892 332.968,819.006 332.51,828.147C325.365,824.507 308.081,805.228 308.27,800.698L333.885,800.698Z" style="fill:rgb(69,28,21);fill-rule:nonzero;"/>
    </g>
    <g transform="matrix(0.058594,0,0,0.058594,0.000037,0)">
        <path d="M308.052,773.422C307.998,760.237 307.486,762.691 318.298,762.637C322.855,762.61 327.439,763.419 332.696,763.904L332.696,784.989C330.188,785.286 327.007,785.663 322.881,786.148C322.881,783.56 322.665,780.998 322.935,778.517C323.339,774.499 321.425,773.232 317.785,773.394C314.657,773.529 311.53,773.421 308.051,773.421L308.052,773.422Z" style="fill:rgb(69,28,21);fill-rule:nonzero;"/>
    </g>
    <g transform="matrix(0.058594,0,0,0.058594,0.000037,0)">
        <path d="M331.208,649.725C326.813,648.943 323.038,648.296 318.616,647.514C319.452,641.528 320.18,635.758 321.178,630.042C321.259,629.395 322.418,628.748 323.227,628.424C323.712,628.235 324.467,628.64 325.087,628.667C334.362,629.152 335.198,630.042 333.715,638.805C333.095,642.445 332.07,646.058 331.207,649.725L331.208,649.725Z" style="fill:rgb(69,28,21);fill-rule:nonzero;"/>
    </g>
    <g transform="matrix(0.058594,0,0,0.058594,0.000037,0)">
        <path d="M274.078,692.888C274.078,697.121 274.24,700.599 273.97,704.024C273.889,705.129 272.811,706.612 271.84,707.044C268.712,708.446 265.423,709.417 261.216,710.873C260.892,703.647 260.569,697.068 260.272,690.003C265.314,691.055 269.574,691.944 274.077,692.888L274.078,692.888Z" style="fill:rgb(69,28,21);fill-rule:nonzero;"/>
    </g>
    <g transform="matrix(0.058594,0,0,0.058594,0.000037,0)">
        <path d="M375.681,677.398C371.69,678.369 368.104,679.285 364.141,680.256C361.741,672.868 357.778,665.426 367.323,659.063C375.115,662.218 374.873,669.794 375.682,677.398L375.681,677.398Z" style="fill:rgb(69,28,21);fill-rule:nonzero;"/>
    </g>
    <g transform="matrix(0.058594,0,0,0.058594,0.000037,0)">
        <path d="M311.911,778.504L318.598,778.504C319.002,781.146 319.65,783.735 319.73,786.296C319.865,789.559 321.698,790.044 324.341,789.801C327.253,789.558 330.165,789.37 333.428,789.154L333.428,795.383C326.202,795.707 319.03,796.003 311.911,796.327L311.911,778.504Z" style="fill:rgb(69,28,21);fill-rule:nonzero;"/>
    </g>
    <g transform="matrix(0.058594,0,0,0.058594,0.000037,0)">
        <path d="M296.223,652.926C293.095,654.733 289.86,656.647 286.408,658.669C283.388,656.215 280.422,653.789 276.998,651.011C281.528,647.371 285.842,643.893 290.668,640.037C292.502,644.297 294.119,648.072 296.222,652.925L296.223,652.926Z" style="fill:rgb(69,28,21);fill-rule:nonzero;"/>
    </g>
    <g transform="matrix(0.058594,0,0,0.058594,0.000037,0)">
        <path d="M343.646,735.555C342.163,731.268 339.467,727.331 340.087,724.069C340.626,721.373 345.048,719.431 348.176,716.789C349.686,718.919 350.764,720.483 351.87,722.02C353.029,723.611 354.162,725.202 355.564,727.143C351.951,729.705 348.284,732.266 343.646,735.556L343.646,735.555Z" style="fill:rgb(69,28,21);fill-rule:nonzero;"/>
    </g>
    <g transform="matrix(0.058594,0,0,0.058594,0.000037,0)">
        <path d="M297.054,749.737C292.659,747.526 288.965,745.639 285.136,743.697C286.619,739.733 287.913,736.255 289.288,732.561C291.85,733.046 294.438,733.262 296.757,734.098C297.755,734.449 298.995,736.147 298.887,737.145C298.59,741.163 297.782,745.18 297.053,749.737L297.054,749.737Z" style="fill:rgb(69,28,21);fill-rule:nonzero;"/>
    </g>
    <g transform="matrix(0.058594,0,0,0.058594,0.000037,0)">
        <path d="M330.078,732.419C332.693,731.314 334.77,730.451 337.358,729.399C339.165,734.603 340.917,739.78 342.885,745.469C340.162,746.601 337.6,747.707 334.499,749.055C332.935,743.204 331.506,737.865 330.077,732.419L330.078,732.419Z" style="fill:rgb(69,28,21);fill-rule:nonzero;"/>
    </g>
    <g transform="matrix(0.058594,0,0,0.058594,0.000037,0)">
        <path d="M295.428,641.488C294.7,640.383 294.053,639.331 292.543,637.012C300.47,634.99 307.831,633.129 315.731,631.134C315.893,634.504 316.648,636.608 312.9,636.958C309.907,637.228 306.968,638.468 304.002,639.277C301.198,639.978 298.394,640.706 295.428,641.488Z" style="fill:rgb(69,28,21);fill-rule:nonzero;"/>
    </g>
    <g transform="matrix(0.058594,0,0,0.058594,0.000037,0)">
        <path d="M314.728,638.193L314.728,644.152C309.362,645.635 303.943,647.091 298.523,648.547C296.042,645.689 295.988,643.694 300.033,642.615C304.805,641.294 309.524,639.757 314.728,638.193Z" style="fill:rgb(69,28,21);fill-rule:nonzero;"/>
    </g>
    <g transform="matrix(0.058594,0,0,0.058594,0.000037,0)">
        <path d="M349.09,745.04C347.904,743.045 346.852,741.238 345.8,739.513C350.276,736.601 354.617,733.77 358.931,730.966C362.706,734.849 362.382,736.682 358.176,738.974C355.102,740.727 352.271,742.911 349.089,745.041L349.09,745.04Z" style="fill:rgb(69,28,21);fill-rule:nonzero;"/>
    </g>
    <g transform="matrix(0.058594,0,0,0.058594,0.000037,0)">
        <path d="M343.843,648.897C341.389,648.034 339.286,647.279 336.86,646.443C337.615,642.56 338.37,638.785 339.071,635.011C347.618,636.036 348.535,638.597 343.843,648.897Z" style="fill:rgb(69,28,21);fill-rule:nonzero;"/>
    </g>
    <g transform="matrix(0.058594,0,0,0.058594,0.000037,0)">
        <path d="M653.831,670.479C659.736,670.425 664.562,674.793 664.562,680.24C664.589,687.358 659.978,692.131 653.076,692.239C647.468,692.293 642.533,687.386 642.426,681.642C642.291,673.877 645.716,670.533 653.831,670.479Z" style="fill:rgb(69,28,21);fill-rule:nonzero;"/>
    </g>
    <g transform="matrix(0.058594,0,0,0.058594,0.000037,0)">
        <path d="M799.692,362.521C800.851,357.668 801.633,353.434 805.867,353.974C808.698,354.351 812.527,356.805 813.578,359.286C814.953,362.737 809.507,368.184 806.028,367.159C803.52,366.404 801.498,363.896 799.692,362.521Z" style="fill:rgb(69,28,21);fill-rule:nonzero;"/>
    </g>
    <g transform="matrix(0.058594,0,0,0.058594,0.000037,0)">
        <path d="M824.665,355.963C825.042,350.597 826.337,347.2 830.408,347.955C832.7,348.413 834.56,351.352 836.637,353.159C834.399,355.478 832.431,358.39 829.68,359.711C828.709,360.196 825.878,356.907 824.665,355.963Z" style="fill:rgb(69,28,21);fill-rule:nonzero;"/>
    </g>
    <g transform="matrix(0.058594,0,0,0.058594,0.000037,0)">
        <path d="M412.435,588.192C413.379,589.244 416.291,590.942 416.641,593.072C417.288,596.847 414.133,599.327 410.628,598.842C408.579,598.572 405.667,596.038 405.181,594.043C404.453,590.673 406.88,588.408 412.434,588.192L412.435,588.192Z" style="fill:rgb(69,28,21);fill-rule:nonzero;"/>
    </g>
    <g transform="matrix(0.058594,0,0,0.058594,0.000037,0)">
        <path d="M431.948,586.318C430.465,587.289 428.362,589.796 426.394,589.688C424.803,589.634 422.161,586.345 422.215,584.565C422.269,582.812 424.938,579.954 426.799,579.685C429.549,579.281 431.841,581.384 431.949,586.318L431.948,586.318Z" style="fill:rgb(69,28,21);fill-rule:nonzero;"/>
    </g>
</svg>
