<?xml version="1.0" encoding="UTF-8" standalone="no"?>
<!DOCTYPE svg PUBLIC "-//W3C//DTD SVG 1.1//EN" "http://www.w3.org/Graphics/SVG/1.1/DTD/svg11.dtd">
<svg width="100%" height="100%" viewBox="0 0 60 60" version="1.1" xmlns="http://www.w3.org/2000/svg" xmlns:xlink="http://www.w3.org/1999/xlink" xml:space="preserve" xmlns:serif="http://www.serif.com/" style="fill-rule:evenodd;clip-rule:evenodd;stroke-linejoin:round;stroke-miterlimit:2;">
    <g transform="matrix(0.058594,0,0,0.058594,0.000088,-0.00002)">
        <path d="M511.969,12.402C487.253,12.401 462.518,21.763 443.757,40.524L242.28,242.041L234.262,236.235L233.788,213.919L223.4,198.12L211.63,179.438L199.583,172.486L189.432,185.125L189.432,200.766L180.545,223.438L176.161,237.657L179.834,253.97L185.008,275.299L169.13,302.315L151.435,308.042L143.219,303.026L137.571,276.721L129.869,259.105L114.188,236.157L101.746,241.45L95.466,255.788L82.55,278.894L85.67,298.05L85.67,319.339L78.284,348.488L77.534,363.3L82.55,382.259L73.071,411.29L40.525,443.836C2.983,481.378 2.983,542.639 40.525,580.182L443.756,983.413C462.53,1002.171 487.255,1011.614 511.968,1011.614C536.681,1011.614 561.394,1002.167 580.18,983.413L983.411,580.182C1020.924,542.637 1020.924,481.381 983.411,443.836L929.852,390.277L929.891,390.238L917.963,354.098L924.559,339.286L926.178,319.34L915.514,299.038L907.693,277.709L909.352,256.341L904.81,246.072L894.146,232.09L882.257,219.372L874.041,220.596C874.041,220.596 858.4,242.749 858.4,245.203C858.373,247.684 858.755,265.11 858.755,265.11L855.516,276.88L841.573,291.692L827.235,287.624L822.93,283.319L803.379,255.078L810.37,241.451L807.052,226.797L797.968,213.921L797.968,192.237L792.28,183.192L781.813,182.402L772.571,201.321L762.381,213.921L759.972,220.359L580.179,40.526C561.405,21.768 536.682,12.405 511.967,12.404L511.969,12.402Z" style="fill:rgb(232,203,158);fill-rule:nonzero;"/>
    </g>
    <g transform="matrix(0.058594,0,0,0.058594,0.000088,-0.00002)">
        <path d="M310.07,268.986C319.48,267.179 326.626,265.211 333.933,264.51C341.213,263.836 348.655,264.699 355.989,264.213C358.281,264.105 361.544,262.46 362.46,260.6C366.235,252.969 362.541,245.392 354.533,242.804C353.185,242.4 351.378,242.076 350.731,241.051C346.929,235.389 343.559,229.43 339.784,223.767C337.843,220.801 335.82,217.592 333.043,215.624C328.594,212.496 324.63,213.844 322.554,218.725C319.75,225.466 317.431,232.342 314.923,239.137C320.639,240.809 326.598,237.6 332.099,242.588C329.861,243.397 328.432,244.179 326.949,244.422C321.502,245.204 315.975,245.851 310.501,246.552C305.135,247.226 301.145,252.43 303.14,257.257C305.081,261.868 308.263,265.993 310.07,268.986ZM62.947,423.839C56.368,430.418 49.357,437.294 42.455,444.331C5.083,482.7 5.191,542.101 43.075,580.012C176.357,713.429 309.746,846.818 443.19,980.1C482.341,1019.224 541.877,1018.955 581.002,979.938C601.306,959.661 621.582,939.358 641.886,919.027C754.702,806.211 867.545,693.448 980.335,580.578C1017.114,543.799 1019.486,487.31 985.323,448.671C972.38,433.949 957.766,420.71 943.988,406.715C941.831,404.531 940.132,401.862 938.218,399.381C934.605,410.301 928.889,417.797 920.233,423.406C934.065,437.238 947.224,450.451 960.463,463.555C967.231,470.269 972.462,477.981 976.048,486.798C976.668,488.335 977.019,490.007 977.72,492.406C972.893,491.139 968.957,490.276 965.101,489.062C951.188,484.694 936.169,483.346 923.766,474.771C919.236,471.67 913.088,468.192 911.848,463.716C910.095,457.595 905.754,458.377 902.222,456.678C900.523,455.869 898.42,455.815 896.56,455.357C891.329,454.063 886.071,452.876 880.921,451.312C879.681,450.935 878.818,449.29 877.766,448.238C879.114,447.564 880.462,446.378 881.838,446.324C884.427,446.243 887.096,446.621 889.631,447.16C896.695,448.643 903.706,450.288 910.771,451.852C910.771,447.511 910.798,443.385 910.744,439.287C910.717,437.48 910.555,435.647 910.34,433.867C908.776,421.41 908.56,421.086 897.91,418.066C894.809,417.203 891.654,416.61 888.527,415.936C888.554,415.532 888.554,415.127 888.581,414.723C890.9,414.453 893.3,413.806 895.538,414.103C899.556,414.696 903.438,415.963 907.429,416.772C908.481,416.961 910.503,416.907 910.692,416.421C912.418,411.81 914.575,409.41 920.345,408.251C925.01,407.334 928.596,400.863 926.628,394.904C924.875,389.457 922.503,383.876 919.105,379.292C912.634,370.583 905.03,362.467 910.126,350.441C911.852,346.423 910.369,344.428 906.971,343.323C897.534,340.303 887.989,337.526 878.497,334.614C875.207,333.589 871.945,332.43 868.682,331.324C868.898,330.596 869.086,329.868 869.329,329.167C885.426,330.38 901.551,331.54 915.626,341.274C924.74,330.408 924.389,318.22 914.844,308.27C912.903,306.248 910.772,304.225 909.505,301.799C906.539,296.056 901.739,289.962 901.955,284.138C902.171,276.831 898.207,276.13 893.866,274.296C891.008,273.056 888.069,271.923 883.997,270.278C892.113,266.934 897.668,271.545 903.654,272.678C907.779,264.346 907.483,256.338 901.524,249.543C896.482,243.854 891.467,238.542 888.851,231.073C887.88,228.323 883.539,226.058 880.277,224.952C876.232,223.604 875.531,228.026 874.021,230.507C871.244,235.091 869.572,240.699 865.878,244.205C857.897,251.809 860.162,259.251 865.123,265.372C868.979,270.118 868.574,273.812 865.932,278.153C864.449,280.688 862.292,282.845 860.836,285.379C858.463,289.504 856.441,293.792 854.095,298.429C866.687,301.476 878.659,301.584 889.66,308.594C887.098,308.27 885.454,307.731 883.944,307.974C871.676,309.942 859.65,306.329 847.57,305.655C836.892,305.008 824.273,302.311 817.586,290.69C817.074,289.773 815.779,289.369 815.024,288.56C812.328,285.81 808.93,283.383 807.205,280.093C802.325,270.925 800.087,260.922 799.574,250.433C793.939,249.193 788.411,247.952 782.883,246.712C782.991,246.173 783.099,245.606 783.207,245.067C789.301,242.478 794.828,245.849 800.76,247.521C801.596,245.741 802.27,243.908 803.241,242.236C806.531,236.466 806.342,231.693 801.623,226.247C796.985,220.881 793.022,214.518 794.181,206.563C794.451,204.622 794.289,202.599 794.127,200.631C793.399,192.515 791.431,189.953 784.285,188.093C782.883,191.059 781.616,194.268 779.971,197.207C777.382,201.791 775.414,207.372 771.558,210.473C765.464,215.38 765.788,220.369 767.918,226.57C770.237,233.365 772.718,240.133 774.201,247.116C776.816,259.25 770.642,268.795 762.526,276.399C756.324,282.223 755.947,288.344 757.052,295.408C760.476,296.163 763.685,296.837 766.894,297.538C765.627,299.156 764.413,299.965 763.254,299.911C758.374,299.587 755.273,302.338 752.415,305.708C750.932,307.461 749.476,309.213 747.993,311.02C740.902,319.568 738.502,326.308 748.128,333.076C756.028,338.684 755.408,339.547 748.182,346.234C754.195,347.717 760.046,349.146 765.87,350.548C765.789,351.06 765.735,351.546 765.654,352.031C759.965,352.031 754.221,352.624 748.667,351.896C742.951,351.114 737.504,348.391 731.788,347.636C720.733,346.18 709.543,345.856 698.515,344.319C695.495,343.915 691.1,341.461 690.345,339.061C689.186,335.151 692.61,332.455 696.789,331.43C699.243,330.864 701.642,329.866 704.608,328.868C703.853,327.169 703.61,324.877 702.343,324.015C691.665,316.654 679.667,312.636 666.886,310.938C659.363,309.913 651.813,309.536 644.263,308.889C644.236,308.35 644.182,307.837 644.128,307.325C648.173,306.543 652.217,305.168 656.262,305.087C675.541,304.736 693.526,308.808 709.03,321.13C710.351,322.209 713.182,323.044 714.234,322.343C715.663,321.453 716.607,318.946 716.715,317.085C717.012,311.288 713.803,307.216 709.246,304.035C704.473,300.718 699.701,297.725 697.625,291.551C696.034,286.832 691.855,284.082 686.732,283.462C676.971,282.33 667.183,281.332 657.449,280.172C653.647,279.714 649.845,278.986 645.181,278.258C653.675,269.899 670.904,269.441 693.824,275.939C697.922,267.472 694.121,257.496 683.847,253.101C678.778,250.89 676.432,247.412 674.464,243.097C671.013,235.493 668.02,227.674 664.38,220.205C663.274,218.021 660.524,215.513 658.367,215.325C656.587,215.163 654.403,218.129 652.57,219.855C651.923,220.502 651.626,221.554 651.357,222.47C649.281,229.75 647.259,237.057 645.182,244.499C651.626,243.178 658.017,243.097 663.679,249.514C660.74,249.514 658.772,249.406 656.83,249.541C648.39,250.107 639.897,249.541 633.075,256.686C627.655,262.321 626.873,265.988 632.482,271.543C638.765,277.718 638.711,277.718 635.205,285.025C634.666,286.211 634.369,287.506 633.884,288.719C633.156,290.445 632.428,292.17 631.538,293.815C629.812,296.97 627.278,299.828 626.28,303.171C624.204,310.397 627.386,316.141 633.695,316.006C643.348,315.736 653.028,316.087 662.6,317.085C667.669,317.624 673.278,318.568 677.295,325.201C669.395,325.201 662.411,325.713 655.535,325.066C646.529,324.203 638.548,324.257 632.238,332.481C629.757,335.744 625.227,337.82 621.21,339.384C615.521,341.622 609.427,342.754 603.576,344.615C599.72,345.855 594.381,352.273 595.298,354.807C597.105,359.499 601.661,359.795 605.895,360.442C608.43,360.846 610.964,361.548 613.391,362.383C617.813,363.92 622.046,366.455 626.576,367.156C633.344,368.208 640.328,367.776 647.203,368.423C653.135,368.935 658.743,370.661 663.381,376C653.108,375.164 643.751,374.382 635.366,373.735C635.797,384.17 636.445,394.147 636.525,404.096C636.579,410.406 636.363,416.904 628.301,419.169C626.575,419.654 625.119,421.434 623.744,422.836C619.753,426.934 614.927,429.253 609.211,428.606C596.538,427.231 583.919,425.559 571.246,423.914C569.79,423.725 568.361,423.024 566.905,422.566C567.013,422.081 567.121,421.568 567.229,421.056C578.122,419.546 588.8,422.755 601.068,423.618C593.788,418.684 587.613,414.72 581.654,410.406C568.792,401.13 560.191,403.584 549.109,411.835C545.091,414.801 540.993,418.387 536.382,419.789C518.532,425.29 500.817,426.719 484.558,414.558C481.565,412.347 478.248,410.433 474.878,408.869C469.054,406.173 463.203,405.633 457.864,410.217C454.574,413.048 450.907,415.556 448.076,418.791C436.077,432.623 420.546,433.136 404.368,430.493C399.676,429.738 395.012,427.743 390.805,425.451C386.76,423.186 383.579,419.222 379.453,417.065C376.433,415.501 375.705,413.668 375.355,410.675C373.737,396.034 371.958,381.392 370.043,365.646C351.519,367.237 333.291,368.828 315.037,370.365C314.983,369.934 314.902,369.502 314.848,369.071C315.333,368.774 315.792,368.37 316.304,368.154C317.814,367.534 319.297,366.833 320.861,366.401C335.314,362.41 350.009,360.253 365.001,360.442C376.595,360.604 388.217,361.494 399.811,361.251C408.089,361.089 415.827,358.042 422.164,352.542C426.316,349.01 425.265,344.129 420.007,342.862C408.628,340.085 397.223,336.984 385.17,339.168C379.13,340.22 372.875,340.085 366.7,340.489C366.161,335.716 365.675,331.483 365.136,326.791L335.449,326.791C336.77,325.038 338.199,324.068 339.736,323.906C347.367,323.097 355.078,321.695 362.682,322.019C370.043,322.37 375.786,319.835 381.206,315.709C386.006,312.069 388.756,306.865 388.972,301.014C389.134,296.134 384.172,294.866 380.721,292.871C373.036,288.395 364.597,285.456 359.069,277.475C354.242,270.464 346.369,268.874 338.091,270.276C335.691,270.68 333.399,271.813 331.027,272.136C322.614,273.242 316.467,277.124 313.312,285.267C312.908,286.346 311.748,287.586 310.697,287.882C303.552,289.742 298.806,293.814 296.514,301.148C294.977,306.082 295.678,310.127 299.669,313.282C322.777,304.465 346.208,300.798 370.691,305.247C348.554,309.157 326.039,310.478 304.198,317.246C307.461,319.295 310.804,320.751 314.255,321.776C319.297,323.205 321.778,325.982 321.913,331.213C321.994,335.338 321.832,339.464 322.075,343.589C322.291,346.906 320.969,348.173 317.68,348.577C309.429,349.602 301.259,351.786 293.008,352.082C285.701,352.325 278.313,356.1 270.979,352.459C267.393,350.679 263.645,348.981 260.409,346.608C257.308,344.397 257.146,341.512 260.625,338.977C262.836,337.44 264.912,335.633 267.015,333.935C266.638,333.504 266.233,333.072 265.856,332.614C254.693,334.016 243.53,335.445 232.367,336.847C232.232,336.2 232.043,335.526 231.909,334.825C233.796,333.854 235.63,332.29 237.652,331.913C249.84,329.729 262.027,327.41 274.296,325.981C278.368,325.496 280.686,323.797 281.253,320.507C281.927,316.705 282.925,310.881 280.929,309.101C276.804,305.299 271.006,302.306 265.479,301.308C258.765,300.095 252.725,298.693 247.198,294.351C241.32,289.767 240.08,286.747 244.124,280.599C245.634,278.361 247.737,276.447 249.813,274.694C254.693,270.542 260.059,266.928 264.589,262.426C330.084,197.066 395.525,131.571 460.993,66.13C463.204,63.946 465.388,61.654 467.788,59.632C482.268,47.256 498.958,41.755 518.021,43.373C535.413,44.883 549.596,52.595 561.81,64.863C626.954,130.142 692.234,195.34 757.405,260.593C758.753,261.968 759.481,263.99 760.479,265.689C761.396,265.338 762.339,264.961 763.283,264.583C764.308,260.458 765.764,256.413 766.276,252.207C767.274,244.334 762.07,237.997 760.263,230.798C759.184,226.457 758.16,221.28 755.194,218.314C696.278,158.994 637.201,99.754 577.8,40.839C561.298,24.472 540.698,16.032 517.428,14.846C487.498,13.336 462.53,24.122 441.444,45.288C374.25,112.697 306.841,179.972 239.54,247.246C238.192,248.621 236.79,249.915 235.415,251.183C226.517,243.66 226.193,242.42 229.914,231.958C230.211,231.203 230.615,230.475 230.831,229.693C232.988,221.793 232.368,214.701 226.085,208.392C221.609,203.889 217.807,198.658 214.086,193.481C212.037,190.596 211.228,186.821 209.017,184.098C203.921,177.708 196.668,179.164 194.16,186.929C193.324,189.571 192.839,192.403 192.839,195.126C192.839,205.183 191.086,214.54 185.64,223.276C182.512,228.318 180.76,234.385 184.723,239.967C190.251,247.84 190.871,257.089 190.871,265.852C190.871,274.885 188.094,283.918 186.584,292.627C192.651,291.683 199.554,290.578 206.483,289.499C206.672,290.119 206.834,290.793 206.995,291.413C202.681,292.977 198.367,294.541 193.998,296.051C186.61,298.613 179.141,300.689 173.02,306.216C166.737,311.932 158.918,314.035 150.344,313.955C142.578,313.874 134.813,314.548 127.047,314.818C123.596,314.926 120.117,314.818 116.666,314.818C116.666,314.252 116.639,313.659 116.612,313.065C121.573,311.906 126.535,310.746 131.981,309.479C127.316,303.709 129.5,298.424 131.846,293.031C133.005,290.362 134.192,287.503 134.408,284.672C134.57,282.083 134.165,278.902 132.763,276.853C127.208,268.818 121.249,260.998 115.183,253.314C113.835,251.588 111.408,249.809 109.467,249.809C108.038,249.809 106.231,252.424 105.207,254.231C101.082,261.403 97.576,268.926 93.181,275.91C88.408,283.406 86.224,295.567 94.071,302.065C99.706,300.178 105.477,298.047 112.919,299.476C107.418,302.038 103.266,304.195 98.952,305.974C96.094,307.106 95.015,308.67 95.231,311.879C95.582,317.029 95.312,322.233 95.312,327.248C107.823,323.743 116.29,322.691 120.119,324.147C116.668,325.441 113.135,327.113 109.441,328.057C96.795,331.347 88.221,338.465 85.983,351.92C85.929,352.082 85.794,352.19 85.74,352.351C82.801,359.2 82.936,365.105 88.625,371.118C94.287,377.131 93.748,383.953 89.488,391.017C85.147,398.27 80.806,405.55 76.923,413.046C75.197,416.363 72.825,420.434 75.817,424.047C78.675,427.552 82.127,430.68 85.794,433.349C89.003,435.614 93.613,435.857 95.258,440.44C95.501,441.087 97.82,441.492 99.006,441.222C105.342,439.739 111.598,437.825 117.935,436.476C120.604,435.91 123.49,436.395 126.294,436.395C126.429,437.204 126.591,438.013 126.752,438.822C121.952,440.413 117.18,442.246 112.272,443.568C102.349,446.183 100.381,448.988 102.161,458.991C102.269,459.773 102.431,460.528 102.538,460.851C109.522,459.611 116.263,458.37 123.003,457.184C123.192,457.858 123.354,458.532 123.515,459.206C118.688,460.905 113.835,462.576 108.982,464.248C103.967,465.974 100.057,468.508 98.925,474.386C98.197,478.296 96.417,481.693 92.804,484.443C89.757,486.708 88.058,490.779 85.74,494.069C86.144,494.42 86.576,494.797 86.98,495.121C91.968,493.8 96.903,492.209 101.972,491.238C106.799,490.294 111.76,489.998 116.667,489.458C116.829,490.267 116.991,491.076 117.152,491.885C92.615,498.923 68.078,505.987 43.056,513.186C43.353,494.123 49.366,478.052 62.335,464.84C68.671,458.369 75.278,452.167 81.452,446.154C75.062,438.442 69.184,431.324 62.955,423.828L62.947,423.839ZM243.631,222.231C245.761,220.182 247.217,218.914 248.538,217.566C310.15,155.954 371.708,94.315 433.428,32.784C457.561,8.705 486.978,-2.134 520.898,0.347C547.862,2.288 571.077,13.29 590.222,32.407C645.929,88.033 701.582,143.713 757.208,199.339C761.387,203.545 764.974,204.112 768.56,199.285C772.524,193.919 775.301,187.556 778.024,181.354C779.48,177.984 779.318,173.831 784.307,173.292C789.727,172.753 793.475,175.476 796.333,179.548C800.189,185.129 800.108,191.682 799.892,198.099C799.676,204.328 800.701,209.909 805.716,214.169C806.417,214.762 806.768,215.787 807.334,216.596C814.884,227.705 816.717,239.165 808.898,250.975C819.926,262.003 830.685,272.708 841.335,283.493C843.492,285.677 845.38,285.785 846.97,283.304C852.282,274.918 855.922,266.128 852.039,256.071C849.316,249.06 851.985,243.425 855.868,237.817C859.238,232.883 862.339,227.733 865.386,222.609C866.411,220.964 866.761,218.915 867.759,217.243C870.401,212.713 873.691,208.749 879.569,209.019C886.067,209.289 891.352,211.85 894.372,217.944C894.749,218.672 895.235,219.4 895.397,220.209C896.88,228.81 902.866,234.041 909.445,238.841C913.597,241.861 914.595,246.66 914.622,251.109C914.676,257.041 913.624,263.054 912.681,268.932C911.36,276.913 911.495,284.49 916.537,291.339C921.471,298.08 926.298,304.902 930.936,311.858C937.219,321.295 935.628,330.948 929.857,339.631C921.094,352.789 925.92,361.337 933.093,371.394C950.619,396.039 974.24,414.806 994.543,436.727C1034.288,479.599 1033.802,547.602 992.521,589.018C858.484,723.324 724.34,857.496 590.006,991.506C545.866,1035.511 477.055,1034.621 432.457,990.05C320.396,878.097 208.442,766.062 96.435,654.055C75.322,632.942 54.183,611.857 33.097,590.717C-10.881,546.712 -11.043,477.658 32.666,433.465C43.829,422.194 55.046,411.031 66.263,399.868C72.653,393.478 75.916,385.55 77.048,376.814C77.345,374.657 75.996,371.583 74.352,369.911C67.692,363.089 66.506,355.351 70.119,346.911C73.112,339.9 76.671,333.079 80.096,326.284C82.765,321.026 83.413,316.011 80.743,310.348C76.24,300.884 72.977,290.799 76.698,280.472C78.99,274.162 83.25,268.554 86.702,262.703C90.8,255.773 93.605,248.736 94.575,240.377C95.977,228.162 107.059,221.368 116.658,226.545C119.435,228.055 121.538,232.207 122.347,235.551C125.232,247.253 132.027,256.043 140.709,263.998C146.911,269.687 149.041,278.585 145.05,286.243C143.351,289.479 140.978,292.472 144.538,295.95C148.043,299.374 152.25,298.673 156.025,297.352C173.875,290.962 178.836,276.132 177.326,260.331C177.137,258.309 176.14,256.233 175.142,254.399C169.561,243.937 170.019,233.34 174.387,222.69C175.358,220.29 176.463,217.648 178.27,215.949C183.636,210.907 183.744,204.84 183.07,198.234C181.911,187.152 184.984,177.526 193.289,169.76C199.814,163.666 210.519,165.715 212.946,174.236C216.586,187.044 224.999,195.618 235.272,203.222C241.123,207.536 244.655,213.522 243.631,222.231Z" style="fill:rgb(69,28,21);fill-rule:nonzero;"/>
    </g>
    <g transform="matrix(0.058594,0,0,0.058594,0.000088,-0.00002)">
        <path d="M398.052,658.151C390.772,659.364 384.085,660.497 377.047,661.629C385.81,668.586 394.304,667.318 398.052,658.151ZM467.699,628.302C477.271,636.31 492.964,635.043 498.95,626.495C488.731,627.088 478.808,627.654 467.699,628.302ZM404.146,641.272C391.203,644.912 379.393,648.256 367.529,651.599C367.475,652.273 367.394,652.92 367.313,653.594C369.227,654.565 371.304,656.614 373.083,656.398C379.986,655.427 386.754,653.648 393.602,652.434C402.015,650.924 402.015,651.032 404.145,641.271L404.146,641.272ZM265.66,690.049C265.768,690.966 265.849,691.883 265.957,692.799C267.467,692.745 269.058,692.961 270.433,692.529C287.07,687.082 303.679,681.312 320.397,676.162C325.277,674.679 328.163,672.926 326.841,667.048C306.376,674.733 286.018,682.39 265.66,690.048L265.66,690.049ZM323.929,704.636C310.555,708.708 297.558,712.698 284.481,716.689C295.024,727.151 300.336,729.335 311.391,725.344C320.64,722 321.745,712.833 323.929,704.636ZM672.651,654.565C660.544,648.903 648.815,644.561 635.117,644.157C638.73,652.812 636.492,662.924 645.121,669.638C650.541,673.844 660.706,673.494 664.562,667.831C657.821,665.108 651.026,662.33 644.258,659.553L644.986,657.153C653.237,656.074 660.625,660.847 668.687,661.818C669.954,659.499 671.195,657.234 672.651,654.565ZM324.387,683.038C306.941,688.97 289.873,694.74 272.185,700.699C275.178,705.229 277.362,708.572 278.737,710.649C294.403,706.712 308.963,703.045 324.387,699.135L324.387,683.038ZM739.332,685.627C736.77,702.938 751.007,719.44 764.462,722.513C767.293,723.133 772.039,721.839 773.63,719.736C777.054,715.179 778.996,709.544 781.8,703.854C767.374,697.652 753.731,691.774 739.332,685.627ZM797.978,689.564C796.738,688.378 795.74,687.326 794.608,686.382C777.459,672.657 756.4,668.074 736.151,661.629C735.019,661.305 732.403,663.139 731.621,664.595C729.734,668.073 732.322,673.169 736.717,675.165C740.087,676.729 743.728,677.807 747.098,679.371C754.837,683.038 762.386,687.083 770.206,690.534C774.493,692.448 779.212,693.338 783.607,694.983C789.809,697.248 794.015,695.846 797.979,689.563L797.978,689.564ZM211.625,709.463C227.614,701.023 241.959,692.934 256.762,685.789C270.702,679.075 284.939,672.9 299.338,667.211C314.141,661.387 329.241,656.318 344.287,651.114C347.765,649.901 351.648,649.847 355.153,648.741C361.948,646.611 368.797,644.562 375.268,641.65C387.375,636.257 400.479,635.421 413.179,632.671C428.252,629.435 443.324,626.038 458.478,623.288C466.351,621.832 474.441,621.077 482.422,620.888C497.953,620.537 513.457,620.484 528.961,620.888C539.693,621.185 550.424,622.479 561.156,623.342C561.183,623.881 561.183,624.421 561.21,624.987C555.17,626.039 549.13,627.144 543.414,628.169C551.476,635.584 563.259,638.361 570.701,634.775C575.015,632.699 579.68,631.243 584.237,629.706C593.513,626.605 602.572,629.382 611.632,631.027C623.334,633.157 634.956,635.557 646.685,637.471C650.298,638.064 654.181,636.986 657.794,637.552C668.822,639.305 679.85,641.381 690.852,643.592C707.408,646.936 724.341,649.2 740.384,654.27C764.678,661.901 788.433,671.473 812.377,680.371C818.875,682.798 825.185,685.737 832.195,688.703C826.802,693.988 821.706,698.895 816.718,703.911C787.328,733.274 757.883,762.638 728.601,792.136C725.5,795.291 722.75,796.234 718.22,795.399C711.991,794.213 705.412,794.833 699.076,794.024C675.914,791.085 653.346,786.231 634.66,770.754C634.417,770.565 634.067,770.484 634.336,770.592C627.002,775.472 620.153,780.515 612.873,784.802C598.124,793.457 582.08,795.426 565.201,794.239C553.768,793.484 542.983,791.165 532.898,785.961C529.096,784.02 525.726,781.027 522.517,778.115C520.495,776.255 519.389,775.446 516.909,777.576C505.234,787.526 491.428,791.732 476.409,794.24C456.294,797.557 438.822,789.521 420.837,783.697C416.631,782.349 413.503,777.603 409.701,774.233C391.932,792.514 368.069,796.397 345.042,801.844C337.142,803.678 328.864,804.271 320.694,804.756C312.47,805.214 305.594,802.734 299.339,796.262C272.16,768.382 244.414,741.094 216.857,713.591C215.563,712.297 214.026,711.353 211.626,709.466L211.625,709.463Z" style="fill:rgb(69,28,21);fill-rule:nonzero;"/>
    </g>
    <g transform="matrix(0.058594,0,0,0.058594,0.000088,-0.00002)">
        <path d="M333.649,830.46C364.415,825.768 393.158,819.216 419.205,803.496C436.354,815.306 456.118,819.459 476.988,818.596C485.239,818.245 493.813,817.113 501.444,814.309C508.428,811.747 514.36,806.409 520.346,802.526C525.927,807.029 531.617,813.096 538.547,816.817C549.953,822.911 562.814,823.477 575.487,822.479C584.924,821.724 594.416,820.645 603.61,818.623C614.854,816.142 624.884,811.046 631.949,801.366C633.621,799.047 635.562,797.969 637.746,801.015C649.125,816.789 665.465,822.047 683.908,822.775C688.114,822.964 692.348,822.829 697.983,822.829C691.35,829.354 685.741,835.071 679.89,840.49C678.946,841.434 676.816,841.676 675.36,841.407C666.084,839.6 657.78,835.691 650.23,829.893C646.536,827.008 642.276,824.824 638.15,822.586C637.341,822.155 635.561,822.343 634.86,822.99C622.565,834.477 606.602,835.717 591.233,838.386C583.225,839.815 575.001,840.246 566.831,840.435C550.491,840.839 536.092,835.312 523.959,825.362C516.544,828.732 509.614,833.505 502.091,834.907C488.96,837.361 475.505,839.032 462.023,836.714C454.932,835.528 447.57,835.555 440.668,833.748C434.79,832.211 429.451,828.787 423.735,826.441C422.252,825.848 420.23,825.821 418.693,826.306C406.101,830.297 393.644,834.611 381.052,838.44C371.75,841.298 362.285,843.617 352.848,846.017C351.662,846.314 349.72,846.098 348.884,845.316C343.923,840.759 339.204,835.933 333.649,830.459L333.649,830.46Z" style="fill:rgb(69,28,21);fill-rule:nonzero;"/>
    </g>
    <g transform="matrix(0.058594,0,0,0.058594,0.000088,-0.00002)">
        <path d="M185.713,547.659C190.432,545.799 194.099,544.342 197.523,542.994C195.393,541.214 193.451,539.327 191.213,537.763C186.98,534.824 182.935,531.13 176.626,533.422L176.626,519.131C165.22,521.126 154.408,522.987 143.622,524.847C143.487,524.577 143.325,524.281 143.191,524.011C144.404,523.094 145.51,521.854 146.858,521.315C157.617,517.136 168.186,512.147 179.241,509.208C198.682,504.058 218.473,500.364 238.049,495.699C258.73,490.765 279.681,486.504 299.823,479.871C311.822,475.907 323.956,476.905 335.847,474.532C349.625,471.782 363.754,470.946 377.722,469.301C390.826,467.791 403.931,466.092 417.089,464.771C422.428,464.259 430.274,469.975 431.595,474.613C433.294,480.545 431.137,486.1 425.285,489.713C421.321,492.167 417.25,494.459 412.99,496.184C411.076,496.966 408.244,495.429 406.357,496.184C402.798,497.694 399.697,496.103 396.407,496.022C390.799,495.887 389.1,494.458 389.369,488.742C389.531,484.94 390.771,481.165 391.796,476.258C373.299,476.932 354.64,475.503 338.974,487.987C339.594,493.811 345.904,497.397 343.504,503.572C350.515,503.221 357.417,502.871 364.293,502.493L364.832,505.055C360.545,506.295 356.365,507.913 352.051,508.749C341.346,510.852 330.561,512.524 319.856,514.519C309.421,516.433 299.067,518.617 288.686,520.559C287.284,520.829 285.747,520.613 283.105,520.613C292.65,514.25 302.519,512.335 312.738,510.502C302.276,502.629 291.086,501.146 278.764,506.754C278.683,505.891 278.602,505.055 278.521,504.192C281.784,503.033 284.965,501.361 288.336,500.822C292.408,500.121 294.753,498.557 294.888,494.243C294.915,493.003 295.616,491.789 296.506,488.877C287.338,490.764 279.114,492.301 270.971,494.243C259.134,496.993 247.243,499.69 235.595,503.168C230.715,504.624 226.4,507.995 221.628,510.61C223.596,513.279 225.079,515.302 226.481,517.108C232.548,516.164 238.857,515.167 245.14,514.196C245.275,514.762 245.464,515.328 245.598,515.895C239.369,518.537 233.33,521.908 226.885,523.634C219.281,525.656 218.688,533.88 212.837,537.143C222.328,535.93 230.876,530.51 241.041,531.939C234.947,537.682 192.102,550.517 185.711,547.659L185.713,547.659Z" style="fill:rgb(69,28,21);fill-rule:nonzero;"/>
    </g>
    <g transform="matrix(0.058594,0,0,0.058594,0.000088,-0.00002)">
        <path d="M679.192,541.759C669.027,537.094 658.025,537.984 648.48,533.616C648.48,533.131 648.48,532.645 648.507,532.133C649.397,531.675 650.287,530.758 651.176,530.812C659.508,531.082 667.894,531.54 676.225,531.971C677.169,532.052 678.085,532.564 679.083,532.645C692.187,533.993 705.373,534.991 718.45,536.717C731.689,538.47 744.928,540.438 757.979,543.323C776.018,547.287 793.814,552.41 811.826,556.67C820.185,558.665 828.867,559.366 837.226,561.497C845.504,563.654 852.676,567.753 855.48,576.839C856.343,579.589 857.934,582.07 859.255,584.874C868.315,586.249 878.426,585.494 887.055,593.961C880.503,593.961 874.948,594.743 869.717,593.772C861.25,592.181 853.943,593.664 846.178,597.385C833.667,603.371 821.29,601.645 810.289,593.017C807.727,590.995 805.382,588.002 804.33,584.982C803.036,581.261 800.771,579.913 797.373,579.158C792.573,578.026 787.882,576.596 783.163,575.302C783.244,574.79 783.352,574.25 783.433,573.711L798.694,573.711C799.853,570.61 798.829,568.642 795.566,566.997C785.832,562.009 776.637,555.672 765.609,554C759.65,553.083 753.475,553.542 747.382,553.623C746.465,553.65 744.982,554.89 744.74,555.861C741.99,565.163 735.815,572.066 729.667,578.942C737.54,580.695 745.791,582.555 754.069,584.389C754.015,584.955 753.961,585.521 753.907,586.061C752.289,586.412 750.617,587.167 749.054,587.005C734.682,585.468 720.257,584.363 706.074,581.882C699.306,580.696 692.349,577.703 686.606,573.847C681.025,570.099 677.789,563.763 678.22,556.375C678.274,555.755 678.355,554.973 678.058,554.461C675.443,549.877 676.602,545.563 679.19,541.761L679.192,541.759Z" style="fill:rgb(69,28,21);fill-rule:nonzero;"/>
    </g>
    <g transform="matrix(0.058594,0,0,0.058594,0.000088,-0.00002)">
        <path d="M848.978,393.049C850.191,401.489 856.663,405.776 861.948,410.656C864.348,412.84 865.184,414.889 865.157,417.801C865.103,422.061 865.13,426.322 865.13,430.474C878.45,431.795 891.204,432.415 902.421,440.127C890.126,438.428 878.1,436.757 865.4,435.004C865.4,440.99 865.265,446.221 865.454,451.425C865.562,454.31 865.13,456.467 862.191,457.788C860.735,458.408 859.683,459.864 858.416,460.916C854.344,464.367 850.408,466.417 844.368,465.257C837.897,464.044 830.886,464.502 824.307,465.608C818.914,466.498 814.384,464.961 809.585,463.64C800.148,461.051 790.737,458.436 781.165,454.58C788.58,454.229 795.995,453.825 803.41,453.582C805.324,453.501 807.347,454.283 809.234,453.986C811.014,453.689 813.171,452.88 814.168,451.532C814.788,450.615 814.06,448.162 813.278,446.84C811.822,444.467 810.285,441.528 808.047,440.45C802.412,437.727 802.223,433.386 802.492,428.208C802.789,422.68 802.573,417.072 802.573,411.464C789.873,408.822 777.874,406.341 765.848,403.86C765.875,403.267 765.929,402.647 765.956,402.053C770.108,402.053 774.342,401.487 778.386,402.161C785.289,403.293 792.03,405.127 798.825,406.745C802.735,407.662 805.62,405.909 807.939,403.213C809.476,401.353 810.608,399.088 811.633,396.85C812.604,394.639 812.361,392.563 809.449,391.97C802.897,390.649 796.399,389.328 789.846,388.114C785.721,387.386 781.568,386.901 777.416,385.525C782.836,382.316 788.552,381.885 794.511,382.451C804.137,383.422 813.871,383.637 823.362,385.309C840.16,388.248 857.849,385.12 873.919,392.805C875.159,393.425 876.696,393.371 878.098,393.614C878.071,394.126 878.044,394.639 878.017,395.151C873.217,394.8 868.418,394.45 863.591,394.126C858.764,393.775 853.911,393.398 848.977,393.047L848.978,393.049Z" style="fill:rgb(69,28,21);fill-rule:nonzero;"/>
    </g>
    <g transform="matrix(0.058594,0,0,0.058594,0.000088,-0.00002)">
        <path d="M804.806,510.177C795.827,499.877 785.311,492.543 771.29,491.006C765.196,490.332 759.237,488.579 753.143,487.636C750.258,487.205 747.265,487.555 743.948,487.555C746.24,495.59 744.083,499.149 737.881,502.196C734.753,503.706 732.488,506.942 728.74,510.447C719.33,509.395 708.221,508.398 697.246,506.834C693.768,506.376 690.343,504.758 687.242,503.032C681.04,499.581 680.932,492.408 686.73,485.883C679.719,482.189 672.736,478.495 664.97,474.396C673.571,474.396 681.526,473.911 689.372,474.531C699.429,475.313 709.406,477.012 719.437,478.225C732.434,479.762 745.43,481.11 758.4,482.836C769.994,484.4 781.616,486.126 793.156,488.175C804.804,490.224 816.399,492.732 828.02,495.078C839.857,497.505 849.348,503.221 854.768,514.492C855.172,515.328 855.55,516.326 855.55,517.242C855.334,526.679 846.113,535.712 836.648,535.604C818.69,535.388 801.272,532.072 784.608,525.223C783.556,524.792 782.532,524.252 781.534,523.713C781.157,523.497 780.806,523.201 779.727,522.392C788.221,520.585 795.258,524.064 802.565,525.385C802.646,525.169 802.862,524.9 802.889,524.603C803.59,517.161 799.168,514.707 792.751,513.467C781.103,511.175 769.454,508.533 757.86,505.863C755.622,505.297 753.546,503.922 751.739,502.034C770.155,500.74 787.547,504.703 804.804,510.177L804.806,510.177Z" style="fill:rgb(69,28,21);fill-rule:nonzero;"/>
    </g>
    <g transform="matrix(0.058594,0,0,0.058594,0.000088,-0.00002)">
        <path d="M203.929,403.713C208.567,413.663 213.043,422.749 212.288,433.103C212.018,437.39 210.589,441.597 209.78,445.83C209.214,448.877 208.782,451.951 208.216,455.294C218.543,453.838 227.711,452.571 236.851,451.303C236.905,451.734 236.986,452.166 237.067,452.597C228.897,455.482 220.754,458.421 212.557,461.252C208.432,462.681 205.061,464.757 201.583,467.75C196.244,472.361 188.937,474.761 181.603,472.819C176.21,471.417 171.168,468.667 166.018,466.402C165.371,466.105 164.993,465.027 164.562,464.299C162.728,461.306 161.623,457.369 158.981,455.59C153.858,452.112 152.752,447.15 151.836,441.865C151.243,438.495 150.272,434.881 150.892,431.646C151.971,425.606 154.101,419.755 155.665,414.308C147.091,416.384 137.114,418.811 126.221,421.426C138.624,404.547 221.861,386.508 243.837,396.377C230.733,398.777 217.601,401.204 203.931,403.711L203.929,403.713Z" style="fill:rgb(69,28,21);fill-rule:nonzero;"/>
    </g>
    <g transform="matrix(0.058594,0,0,0.058594,0.000088,-0.00002)">
        <path d="M664.3,426.47C675.867,427.36 687.408,428.277 699.164,429.22C697.519,423.126 693.367,419.109 687.947,416.466C684.442,414.74 682.824,412.637 683.147,408.512C683.578,402.796 683.147,396.998 683.363,391.228C683.417,389.368 684.172,387.507 684.9,385.727C688.567,376.829 695.335,373.459 704.799,374.213C716.339,375.103 727.907,375.453 739.447,376.37C741.901,376.559 744.193,378.177 746.646,379.174C742.952,385.618 743.087,385.537 747.104,390.607C756.137,401.905 757.404,414.901 753.953,428.221C752.443,434.018 748.614,439.222 745.594,444.561C745.243,445.154 743.302,445.154 742.224,444.992C730.171,442.889 718.145,440.84 706.173,438.467C701.886,437.604 697.841,435.555 693.581,434.692C685.6,433.101 677.484,432.077 669.422,430.594C667.535,430.243 665.782,429.084 663.948,428.302C664.056,427.682 664.191,427.089 664.299,426.468L664.3,426.47Z" style="fill:rgb(69,28,21);fill-rule:nonzero;"/>
    </g>
    <g transform="matrix(0.058594,0,0,0.058594,0.000088,-0.00002)">
        <path d="M864.527,567.375C868.787,567.375 873.236,566.593 877.281,567.51C887.392,569.829 897.423,572.687 907.319,575.761C913.386,577.648 918.509,575.222 918.779,568.966C919.103,562.036 919.911,555.026 914.815,548.797C912.226,545.615 911.067,541.247 909.638,537.257C907.885,532.215 909.018,530.031 913.736,527.82C917.538,526.013 921.394,524.207 925.196,522.319C927.245,521.321 929.268,520.162 931.317,519.056C930.697,518.166 930.104,517.276 929.51,516.414C918.401,514.392 907.319,512.369 894.969,510.158C901.953,507.3 908.019,506.06 914.113,507.219C929.887,510.32 945.553,513.906 961.273,517.25C967.529,518.571 973.838,519.731 980.229,520.998C978.072,534.723 973.65,546.182 964.994,555.053C948.681,571.824 931.586,587.841 914.68,604.289C911.876,601.997 908.263,599.058 904.137,595.661C904.245,596.2 904.083,595.85 904.11,595.553C905.997,582.772 906.078,582.61 893.594,578.512C886.179,576.085 878.548,574.36 871.052,572.202C868.706,571.528 866.468,570.503 864.176,569.613C864.284,568.885 864.419,568.13 864.527,567.375Z" style="fill:rgb(69,28,21);fill-rule:nonzero;"/>
    </g>
    <g transform="matrix(0.058594,0,0,0.058594,0.000088,-0.00002)">
        <path d="M403.399,540.662C391.023,539.61 377.837,544.086 364.652,541.929C364.544,541.174 364.463,540.392 364.328,539.664C369.883,538.316 375.329,536.509 380.965,535.781C395.525,533.894 410.113,531.817 424.754,531.089C431.926,530.738 439.234,533.246 446.433,534.567C447.08,534.702 447.673,535.511 448.132,536.104C450.855,539.852 453.525,543.627 457.057,546.809C457.057,547.106 457.03,547.375 457.003,547.672C455.924,555.195 451.88,560.426 445.247,564.093C443.629,564.983 442.335,567.356 441.85,569.27C440.852,573.288 438.264,574.177 434.678,574.258C430.741,574.339 426.805,575.013 422.868,574.905C414.671,574.635 409.575,568.569 404.748,563.338C401.458,559.752 399.382,558.026 394.313,559.186C384.498,561.424 374.441,562.583 364.518,564.363C362.118,564.767 359.665,565.495 357.588,566.709C355.728,567.815 354.325,569.756 352.708,571.374C353.059,571.751 353.382,572.129 353.733,572.506L375.655,572.506L375.979,573.531C370.694,574.717 365.382,575.823 360.151,577.252C357.697,577.872 355.298,578.816 353.14,580.137C343.352,586.015 332.594,588.118 322.293,583.561C317.601,581.512 311.615,578.6 309.323,572.317C308.487,569.998 306.087,568.272 304.901,566.789C309.323,562.987 315.039,559.104 319.515,554.062C326.499,546.189 335.343,547.321 344.133,547.699C345.239,547.753 346.668,550.288 347.315,551.905C349.957,558.457 353.894,559.859 360.689,558.565C372.176,556.381 383.878,554.979 395.526,553.55C400.299,552.957 404.451,550.045 404.047,546.512C403.831,544.732 403.67,542.899 403.4,540.661L403.399,540.662Z" style="fill:rgb(69,28,21);fill-rule:nonzero;"/>
    </g>
    <g transform="matrix(0.058594,0,0,0.058594,0.000088,-0.00002)">
        <path d="M158.156,595.32C153.006,597.801 147.964,600.713 142.571,602.6C138.23,604.137 137.637,606.348 137.987,610.635C138.607,618.401 138.176,626.274 138.176,633.959C128.658,627.946 55.047,551.774 52.539,544.979C76.618,539.64 99.267,529.016 125.638,526.644C120.137,531.201 115.607,534.949 111.913,537.996C115.31,543.793 118.384,549.051 121.836,555.01C127.903,552.583 135.453,550.561 143.245,549.86C143.299,550.291 143.353,550.723 143.407,551.154C134.779,555.684 126.042,560.025 117.576,564.798C105.361,571.701 105.523,589.335 117.684,596.238C119.652,597.37 121.782,598.233 123.805,599.312C127.553,601.253 130.869,600.93 134.887,599.123C141.089,596.427 147.803,594.917 154.328,593.056C155.272,592.759 156.458,593.299 157.51,593.46C157.726,594.08 157.941,594.7 158.157,595.32L158.156,595.32Z" style="fill:rgb(69,28,21);fill-rule:nonzero;"/>
    </g>
    <g transform="matrix(0.058594,0,0,0.058594,0.000088,-0.00002)">
        <path d="M352.095,379.252C345.084,380.897 338.02,382.434 331.063,384.24C329.823,384.564 328.016,385.966 328.016,386.936C327.773,397.452 327.854,407.995 327.854,418.537C340.931,415.841 340.931,415.841 345.03,418.106C337.561,420.964 330.847,423.741 323.971,426.06C320.142,427.354 318.524,429.808 318.039,433.502C316.853,442.238 314.345,444.638 305.231,445.501C300.512,445.932 296.899,445.285 293.448,440.755C289.727,435.902 283.741,432.801 278.834,428.81C277.243,427.516 275.329,426.006 274.709,424.199C273.145,419.912 271.689,415.463 271.231,410.933C270.557,403.815 270.692,396.642 270.584,389.524C270.584,388.823 271.177,387.933 271.797,387.502C280.479,381.004 289.027,374.29 300.918,375.18C303.156,375.369 305.502,374.128 307.713,374.398C312.62,375.045 318.094,375.18 322.246,377.526C326.803,380.088 330.605,378.443 334.784,378.173C340.419,377.849 346.028,377.445 351.69,377.067C351.798,377.768 351.96,378.523 352.094,379.251L352.095,379.252Z" style="fill:rgb(69,28,21);fill-rule:nonzero;"/>
    </g>
    <g transform="matrix(0.058594,0,0,0.058594,0.000088,-0.00002)">
        <path d="M286.048,575.397C277.123,577.635 268.117,579.495 259.354,582.273C253.233,584.214 246.951,586.722 241.693,590.335C238.916,592.222 237.918,596.941 236.516,600.554C235.572,602.954 234.844,604.491 231.77,605.138C224.139,606.702 216.616,608.859 209.174,611.151C206.1,612.095 203.781,611.96 200.95,610.342C197.741,608.535 194.047,607.646 191.621,605.677C189.734,602.495 187.657,599.394 185.986,596.078C185.339,594.784 184.988,592.654 185.635,591.548C187.981,587.503 190.731,583.729 194.021,578.902C177.33,581.949 161.691,584.834 146.053,587.719C145.945,587.315 145.837,586.91 145.702,586.506C153.98,582.947 162.096,578.848 170.616,575.936C184.421,571.19 198.47,567.119 212.464,562.859C234.817,555.983 257.79,554.986 281.383,556.388C279.523,557.359 277.797,558.788 275.802,559.327C266.904,561.781 258.033,564.693 248.946,566.041C241.477,567.173 237.136,572.243 230.934,576.125C233.738,578.336 236.03,580.116 237.891,581.599C253.584,576.098 269.466,574.103 285.482,573.078C285.671,573.86 285.833,574.615 286.048,575.397Z" style="fill:rgb(69,28,21);fill-rule:nonzero;"/>
    </g>
    <g transform="matrix(0.058594,0,0,0.058594,0.000088,-0.00002)">
        <path d="M467.61,874.001C481.065,888.292 498.349,893.01 516.63,892.714C531.811,892.471 545.643,885.973 558.127,877.156C564.059,872.923 570.18,868.986 576.354,864.807C589.324,882.954 608.98,886.567 628.745,891.825C625.132,895.438 621.654,899.24 617.744,902.557C616.881,903.312 614.32,902.881 612.971,902.18C602.428,896.599 591.939,891.017 581.666,885.004C578.188,882.955 576.031,882.685 572.444,885.193C555.079,897.192 536.043,905.389 514.634,905.658C499.48,905.82 485.244,901.317 472.085,893.659C470.144,892.527 468.58,890.666 467.285,889.561C459.654,893.255 452.428,897.461 444.716,900.185C435.71,903.421 426.246,905.416 416.916,907.789C409.663,909.623 407.317,903.205 402.787,899.241C426.003,893.929 448.517,888.348 467.608,874.003L467.61,874.001Z" style="fill:rgb(69,28,21);fill-rule:nonzero;"/>
    </g>
    <g transform="matrix(0.058594,0,0,0.058594,0.000088,-0.00002)">
        <path d="M202.482,342.705C199.354,344.161 196.226,345.59 193.099,347.046L193.638,349.257C197.197,348.853 200.864,348.772 204.397,348.017C213.646,346.103 222.867,344.404 232.493,348.098C222.975,350.093 213.43,352.089 204.208,354.003C202.968,358.236 201.781,362.658 200.325,366.973C199.894,368.213 198.761,369.508 197.602,370.128C183.473,378.109 168.077,382.019 152.141,384.122C149.229,384.526 146.344,384.823 144.322,385.066C136.152,375.035 142.111,368.348 149.769,362.012C139.064,362.147 131.083,370.748 120.756,370.02C120.432,369.319 120.136,368.672 119.785,367.998C122.589,366.057 125.151,363.387 128.225,362.255C143.001,356.808 157.804,351.308 172.85,346.751C181.478,344.109 190.646,343.219 199.598,341.601C200.461,341.466 201.432,341.736 202.375,341.79C202.402,342.114 202.456,342.383 202.483,342.707L202.482,342.705Z" style="fill:rgb(69,28,21);fill-rule:nonzero;"/>
    </g>
    <g transform="matrix(0.058594,0,0,0.058594,0.000088,-0.00002)">
        <path d="M558.414,539.389C561.488,538.499 564.589,536.908 567.69,536.827C574.215,536.584 580.767,537.204 587.32,537.285C588.587,537.312 590.34,536.854 591.095,535.991C603.04,521.619 621.079,523.021 633.078,535.64C641.005,543.945 642.812,554.434 637.662,563.062C634.723,567.996 627.551,571.421 621.888,570.477C615.471,569.452 609.134,568.05 602.69,567.322C595.383,566.513 594.817,560.177 592.228,555.485C591.824,554.784 591.716,553.921 591.473,553.139C588.534,542.785 588.534,542.731 577.614,542.569C572.868,542.488 568.069,542.65 563.296,542.488C561.705,542.407 560.114,541.571 558.523,541.086C558.496,540.52 558.442,539.954 558.415,539.387L558.414,539.389Z" style="fill:rgb(69,28,21);fill-rule:nonzero;"/>
    </g>
    <g transform="matrix(0.058594,0,0,0.058594,0.000088,-0.00002)">
        <path d="M762.378,338.118C775.482,335.853 787.805,337.012 799.804,341.354C803.795,342.783 807.812,344.239 811.398,340.141C812.638,338.739 814.472,338.2 812.638,335.584C811.91,334.505 813.636,331.674 814.337,329.706C816.009,324.826 814.849,322.695 809.807,321.752C804.01,320.7 798.186,319.838 792.415,318.786C791.202,318.57 790.015,318.031 788.829,317.627C788.802,317.115 788.775,316.602 788.748,316.09C792.577,315.443 796.514,313.96 800.235,314.391C809.106,315.416 817.977,316.926 826.659,319.056C836.878,321.591 846.558,325.608 853.11,334.695C857.208,340.357 858.691,346.829 858.341,353.677C858.152,358.099 855.321,359.555 851.034,358.935C841.732,357.614 832.375,356.724 823.1,355.403C816.575,354.486 810.238,354.891 804.387,349.201C800.289,345.21 792.28,345.022 785.944,343.62C779.715,342.272 773.352,341.679 767.069,340.492C765.424,340.168 763.941,338.928 762.377,338.119L762.378,338.118Z" style="fill:rgb(69,28,21);fill-rule:nonzero;"/>
    </g>
    <g transform="matrix(0.058594,0,0,0.058594,0.000088,-0.00002)">
        <path d="M461.382,533.15C463.108,532.341 464.779,531.209 466.64,530.831C469.66,530.211 472.788,529.941 475.889,529.752C482.279,529.348 488.67,528.808 495.087,528.835C498.889,528.862 502.718,530.291 506.547,530.291C510.376,530.264 514.205,529.266 518.007,528.646C529.197,526.786 539.335,528.349 547.236,537.355C547.667,537.84 548.234,538.245 548.476,538.811C551.361,546.307 547.317,558.737 540.603,563.321C538.985,564.427 537.448,565.694 535.938,566.934C534.266,568.336 532.702,570.979 530.977,571.032C525.989,571.221 520.92,570.493 515.904,569.9C515.149,569.792 514.394,568.309 513.936,567.365C511.509,562.188 508.543,557.712 503.016,555.312C500.724,554.314 498.109,544.607 499.16,542.262C500.104,540.213 501.128,538.217 502.18,536.114C488.509,535.467 475.135,534.847 461.788,534.227C461.653,533.85 461.518,533.499 461.384,533.148L461.382,533.15Z" style="fill:rgb(69,28,21);fill-rule:nonzero;"/>
    </g>
    <g transform="matrix(0.058594,0,0,0.058594,0.000088,-0.00002)">
        <path d="M473.896,497.965C464.836,499.556 459.363,493.92 454.725,487.449C451.651,483.135 453.646,475.935 457.637,472.403C469.528,461.914 483.468,459.757 498.406,462.561C505.309,463.882 511.403,468.089 513.56,474.668C515.879,481.759 512.185,488.824 507.224,493.758C504.474,496.481 499.243,497.425 495.036,497.803C488.025,498.423 480.961,497.965 473.896,497.965Z" style="fill:rgb(69,28,21);fill-rule:nonzero;"/>
    </g>
    <g transform="matrix(0.058594,0,0,0.058594,0.000088,-0.00002)">
        <path d="M849.627,670.436C844.477,677.015 844.396,677.15 837.359,674.4C818.107,666.85 799.044,658.734 779.576,651.697C761.618,645.199 743.013,640.965 724.004,638.512C720.175,638.027 716.023,637.353 712.787,635.411C709.929,633.712 707.152,630.477 706.1,627.349C704.374,622.334 700.249,622.496 696.771,621.848C685.689,619.907 674.526,618.531 663.417,616.698C660.909,616.267 658.537,614.757 656.137,613.759C656.272,613.166 656.407,612.573 656.541,611.952C660.127,612.276 663.713,612.464 667.3,612.896C678.139,614.136 689.006,615.431 699.818,616.806C701.598,617.049 703.566,617.399 704.941,618.397C718.719,628.616 736.111,629.964 751.265,637.029C759.732,640.993 769.762,641.721 779.011,643.986C796.888,648.435 813.848,655.419 830.7,662.807C836.902,665.503 843.265,667.876 849.629,670.438L849.627,670.436Z" style="fill:rgb(69,28,21);fill-rule:nonzero;"/>
    </g>
    <g transform="matrix(0.058594,0,0,0.058594,0.000088,-0.00002)">
        <path d="M379.07,628.569C367.503,631.697 355.719,634.285 344.368,638.033C329.996,642.779 316.002,648.738 301.711,653.672C291.869,657.042 281.677,659.442 271.727,662.435C269.732,663.028 267.871,664.161 266.038,665.266C254.659,672.115 242.499,676.968 229.583,680.366C220.82,682.685 212.461,686.514 203.994,690.019C195.77,693.389 195.824,693.551 189.407,685.273C202.188,680.554 214.537,675.809 226.994,671.387C242.714,665.806 258.515,660.467 274.288,655.02C301.171,645.744 327.326,634.015 355.53,629C363.134,627.652 370.953,627.382 378.692,626.627C378.827,627.274 378.962,627.948 379.069,628.568L379.07,628.569Z" style="fill:rgb(69,28,21);fill-rule:nonzero;"/>
    </g>
    <g transform="matrix(0.058594,0,0,0.058594,0.000088,-0.00002)">
        <path d="M552.263,498.175C547.814,496.368 542.61,495.506 539.132,492.54C532.58,486.932 532.121,474.582 540.184,467.302C550.026,458.485 576.585,459.806 584.243,470.619C586.13,473.288 586.939,475.499 585.322,478.196C584.082,480.272 582.787,482.591 580.873,483.939C573.809,488.739 567.499,494.967 558.601,496.531C556.687,496.882 554.718,496.962 552.75,497.178C552.588,497.502 552.426,497.825 552.265,498.176L552.263,498.175Z" style="fill:rgb(69,28,21);fill-rule:nonzero;"/>
    </g>
    <g transform="matrix(0.058594,0,0,0.058594,0.000088,-0.00002)">
        <path d="M624.421,464.187C632.321,464.349 638.28,463.89 642.568,468.771C643.485,469.85 644.563,471.171 644.671,472.465C645.345,480.716 645.426,488.967 639.575,495.735C638.227,497.272 636.285,499.132 634.506,499.213C624.61,499.698 614.769,500.48 606.275,493.011C601.206,488.535 603.606,483.816 604.441,479.421C606.922,466.532 610.13,464.483 624.421,464.186L624.421,464.187Z" style="fill:rgb(69,28,21);fill-rule:nonzero;"/>
    </g>
    <g transform="matrix(0.058594,0,0,0.058594,0.000088,-0.00002)">
        <path d="M397.923,621.852C403.316,619.803 408.682,617.646 414.128,615.731C425.264,611.794 436.751,608.316 448.615,610.069C464.712,612.388 480.324,607.642 496.26,608.128C501.518,608.29 506.749,608.613 512.007,608.64C514.784,608.667 517.588,607.777 520.285,608.02C540.184,609.907 560.407,607.184 580.118,611.876C582.059,612.334 583.866,613.305 585.753,614.033C585.726,614.491 585.672,614.977 585.672,615.462C583.542,615.893 581.439,616.783 579.336,616.729C561.082,616.136 542.827,615.084 524.573,614.788C501.87,614.464 479.166,614.545 456.463,614.896C440.851,615.139 425.94,619.642 410.84,623.12C406.795,624.064 402.535,624.064 398.356,624.522C398.221,623.605 398.059,622.742 397.925,621.853L397.923,621.852Z" style="fill:rgb(69,28,21);fill-rule:nonzero;"/>
    </g>
    <g transform="matrix(0.058594,0,0,0.058594,0.000088,-0.00002)">
        <path d="M299.419,632.845C297.424,633.681 295.455,634.705 293.379,635.353C280.733,639.505 268.006,643.577 255.306,647.648C251.774,648.78 248.215,650.425 244.709,647.19C243.792,646.381 241.851,646.327 240.503,646.57C234.787,647.702 229.016,648.781 223.462,650.48C214.753,653.095 206.124,656.088 197.55,659.243C190.863,661.724 184.23,664.366 177.786,667.413C172.879,669.705 173.013,670.028 169.104,665.175C176.465,661.993 183.691,658.704 191.026,655.711C205.101,650.049 219.041,643.982 233.413,639.182C240.72,636.728 248.863,635.758 256.548,635.865C269.14,636.108 281.274,633.762 293.569,631.847C295.376,631.55 297.317,631.766 299.177,631.766C299.258,632.143 299.339,632.494 299.42,632.845L299.419,632.845Z" style="fill:rgb(69,28,21);fill-rule:nonzero;"/>
    </g>
    <g transform="matrix(0.058594,0,0,0.058594,0.000088,-0.00002)">
        <path d="M768.984,617.967C771.734,618.371 774.619,618.344 777.181,619.234C794.411,625.166 812.072,628.267 830.246,630.019C841.301,631.098 851.952,635.439 861.308,642.773C848.554,646.009 787.158,630.046 768.984,617.966L768.984,617.967Z" style="fill:rgb(69,28,21);fill-rule:nonzero;"/>
    </g>
    <g transform="matrix(0.058594,0,0,0.058594,0.000088,-0.00002)">
        <path d="M233.627,308.644C217.611,312.365 201.621,316.086 185.605,319.753C169.669,323.42 153.734,326.952 137.556,330.592C154.354,317.137 214.295,305.165 233.628,308.644L233.627,308.644Z" style="fill:rgb(69,28,21);fill-rule:nonzero;"/>
    </g>
    <g transform="matrix(0.058594,0,0,0.058594,0.000088,-0.00002)">
        <path d="M398.508,603.52C405.06,594.676 454.053,589.445 461.765,596.941C458.529,598.424 455.887,600.446 453.056,600.743C443.592,601.822 434.047,602.226 424.555,602.954C418.65,603.385 412.799,604.086 406.894,604.383C404.332,604.545 401.717,603.898 398.508,603.52Z" style="fill:rgb(69,28,21);fill-rule:nonzero;"/>
    </g>
    <g transform="matrix(0.058594,0,0,0.058594,0.000088,-0.00002)">
        <path d="M593.34,615.314C609.707,613.561 678.033,623.592 683.102,628.284C678.599,632.868 673.26,630.037 668.676,629.282C646.781,625.75 625.022,621.678 603.181,617.742C600.215,617.203 597.303,616.286 593.339,615.315L593.34,615.314Z" style="fill:rgb(69,28,21);fill-rule:nonzero;"/>
    </g>
    <g transform="matrix(0.058594,0,0,0.058594,0.000088,-0.00002)">
        <path d="M280.517,614.88C305.27,606.009 330.022,597.084 357.094,599.025C346.713,605.038 335.146,606.17 323.632,608.004C312.145,609.864 300.794,612.804 289.334,615.176C286.557,615.769 283.672,616.093 280.813,616.551C280.705,615.985 280.597,615.419 280.516,614.879L280.517,614.88Z" style="fill:rgb(69,28,21);fill-rule:nonzero;"/>
    </g>
    <g transform="matrix(0.058594,0,0,0.058594,0.000088,-0.00002)">
        <path d="M679.548,450.681C687.691,445.531 731.939,452.326 737.331,459.229C732.666,461.278 684.078,454.214 679.548,450.681Z" style="fill:rgb(69,28,21);fill-rule:nonzero;"/>
    </g>
    <g transform="matrix(0.058594,0,0,0.058594,0.000088,-0.00002)">
        <path d="M274.931,461.283C294.83,455.459 314.837,450.147 335.653,448.907C329.721,455.432 282.373,465.301 274.931,461.283Z" style="fill:rgb(69,28,21);fill-rule:nonzero;"/>
    </g>
    <g transform="matrix(0.058594,0,0,0.058594,0.000088,-0.00002)">
        <path d="M725.543,608.648C713.086,607.219 700.629,605.817 688.144,604.361C685.555,604.037 682.94,603.714 680.459,602.986C679.3,602.662 678.437,601.26 677.412,600.371C678.544,599.589 679.569,598.295 680.782,598.106C692.646,596.219 704.16,597.971 715.457,601.881C719.097,603.121 722.683,604.631 726.296,606.033C726.053,606.923 725.811,607.786 725.541,608.648L725.543,608.648Z" style="fill:rgb(69,28,21);fill-rule:nonzero;"/>
    </g>
    <g transform="matrix(0.058594,0,0,0.058594,0.000088,-0.00002)">
        <path d="M628.088,597.887C626.443,598.588 624.771,599.882 623.127,599.855C612.099,599.693 601.098,599.262 590.096,598.938C589.476,598.884 588.721,598.803 588.182,598.507C586.861,597.536 585.62,596.458 584.353,595.406C585.566,594.516 586.699,592.979 587.993,592.817C593.494,592.089 599.075,591.334 604.576,591.388C609.942,591.415 615.308,592.278 620.619,593.168C623.208,593.572 625.634,594.84 628.115,595.73C628.115,596.458 628.088,597.159 628.088,597.887Z" style="fill:rgb(69,28,21);fill-rule:nonzero;"/>
    </g>
    <g transform="matrix(0.058594,0,0,0.058594,0.000088,-0.00002)">
        <path d="M169.27,498.31C174.582,491.812 207.99,485.583 216.376,489.277C212.493,494.885 174.474,502.381 169.27,498.31Z" style="fill:rgb(69,28,21);fill-rule:nonzero;"/>
    </g>
    <g transform="matrix(0.058594,0,0,0.058594,0.000088,-0.00002)">
        <path d="M542.068,596.337L488.922,596.337C488.841,595.609 488.76,594.935 488.652,594.207C497.712,592.616 506.799,591.187 515.778,589.38C525.593,587.385 533.871,591.267 542.068,596.337Z" style="fill:rgb(69,28,21);fill-rule:nonzero;"/>
    </g>
    <g transform="matrix(0.058594,0,0,0.058594,0.000088,-0.00002)">
        <path d="M99.006,515.324C83.691,526.891 65.382,530.127 47.775,535.466C47.424,534.954 47.047,534.576 46.912,534.145C46.481,532.932 46.157,531.664 45.564,529.642C63.468,524.842 81.237,520.097 99.006,515.324Z" style="fill:rgb(69,28,21);fill-rule:nonzero;"/>
    </g>
    <g transform="matrix(0.058594,0,0,0.058594,0.000088,-0.00002)">
        <path d="M334.995,462.718C333.539,463.877 332.272,465.684 330.681,466.035C319.06,468.597 307.438,471.023 295.763,473.099C293.849,473.45 291.611,471.967 288.078,470.942C303.825,464.066 318.628,460.642 334.995,462.718Z" style="fill:rgb(69,28,21);fill-rule:nonzero;"/>
    </g>
    <g transform="matrix(0.058594,0,0,0.058594,0.000088,-0.00002)">
        <path d="M527.718,447.289C517.121,451.226 506.066,449.176 495.146,449.123C493.555,449.123 490.886,446.346 490.589,444.539C490.077,441.303 493.204,441.573 495.523,441.573C501.859,441.546 508.358,440.899 514.559,441.843C519.089,442.517 523.295,445.375 527.717,447.29L527.718,447.289Z" style="fill:rgb(69,28,21);fill-rule:nonzero;"/>
    </g>
    <g transform="matrix(0.058594,0,0,0.058594,0.000088,-0.00002)">
        <path d="M432.156,453.623C426.655,454.54 421.155,455.564 415.627,456.373C410.45,457.155 405.273,457.694 400.069,458.341C396.645,458.799 393.382,457.478 393.139,454.189C392.788,450.306 396.267,449.389 399.691,449.524C409.371,449.875 419.024,450.225 428.677,450.656C429.863,450.71 431.023,451.303 432.209,451.654C432.182,452.328 432.182,452.948 432.155,453.622L432.156,453.623Z" style="fill:rgb(69,28,21);fill-rule:nonzero;"/>
    </g>
    <g transform="matrix(0.058594,0,0,0.058594,0.000088,-0.00002)">
        <path d="M858.763,483.156C844.418,484.666 817.158,480.594 813.221,476.577C818.425,471.75 848.004,475.822 858.763,483.156Z" style="fill:rgb(69,28,21);fill-rule:nonzero;"/>
    </g>
    <g transform="matrix(0.058594,0,0,0.058594,0.000088,-0.00002)">
        <path d="M360.982,612.337C350.709,622.421 336.634,620.831 323.556,623.042C324.688,622.152 325.74,620.966 327.007,620.4C335.123,616.679 343.212,612.769 351.598,609.668C354.267,608.67 357.746,609.911 360.874,610.126C360.901,610.854 360.955,611.582 360.982,612.337Z" style="fill:rgb(69,28,21);fill-rule:nonzero;"/>
    </g>
    <g transform="matrix(0.058594,0,0,0.058594,0.000088,-0.00002)">
        <path d="M355.196,525.646C347.161,530.634 316.584,539.02 309.439,538.211C312.135,531.955 345.705,522.761 355.196,525.646Z" style="fill:rgb(69,28,21);fill-rule:nonzero;"/>
    </g>
    <g transform="matrix(0.058594,0,0,0.058594,0.000088,-0.00002)">
        <path d="M252.863,624.67C240.46,631.654 228.434,635.509 214.682,636.885C218.727,630.468 246.176,621.489 252.863,624.67Z" style="fill:rgb(69,28,21);fill-rule:nonzero;"/>
    </g>
    <g transform="matrix(0.058594,0,0,0.058594,0.000088,-0.00002)">
        <path d="M461.228,512.331C465.542,507.046 485.954,506.453 493.854,511.36C490.888,515.62 467.16,516.321 461.228,512.331Z" style="fill:rgb(69,28,21);fill-rule:nonzero;"/>
    </g>
    <g transform="matrix(0.058594,0,0,0.058594,0.000088,-0.00002)">
        <path d="M439.139,516.203C425.819,519.331 412.607,523.079 398.693,521.083C411.824,516.472 425.198,514.072 439.139,516.203Z" style="fill:rgb(69,28,21);fill-rule:nonzero;"/>
    </g>
    <g transform="matrix(0.058594,0,0,0.058594,0.000088,-0.00002)">
        <path d="M700.291,463.284C710.16,459.994 719.3,462.907 728.36,466.601C718.842,467.221 709.135,469.378 700.291,463.284Z" style="fill:rgb(69,28,21);fill-rule:nonzero;"/>
    </g>
    <g transform="matrix(0.058594,0,0,0.058594,0.000088,-0.00002)">
        <path d="M617.981,443.177C613.532,447.141 601.075,449.19 596.653,446.736C595.655,446.143 594.712,444.983 594.415,443.932C594.28,443.393 595.655,441.775 596.356,441.775C603.07,441.694 609.784,441.883 616.498,442.045C617.01,442.072 617.469,442.773 617.981,443.177Z" style="fill:rgb(69,28,21);fill-rule:nonzero;"/>
    </g>
    <g transform="matrix(0.058594,0,0,0.058594,0.000088,-0.00002)">
        <path d="M541.912,506.467C551.134,504.094 560.49,505.281 570.925,504.876C565.424,510.781 549.057,511.482 541.912,506.467Z" style="fill:rgb(69,28,21);fill-rule:nonzero;"/>
    </g>
    <g transform="matrix(0.058594,0,0,0.058594,0.000088,-0.00002)">
        <path d="M616.178,586.56C611.486,585.859 607.765,585.347 603.37,584.726C607.603,581.059 612.996,581.868 616.178,586.56Z" style="fill:rgb(69,28,21);fill-rule:nonzero;"/>
    </g>
</svg>
