<?xml version="1.0" encoding="UTF-8" standalone="no"?>
<!DOCTYPE svg PUBLIC "-//W3C//DTD SVG 1.1//EN" "http://www.w3.org/Graphics/SVG/1.1/DTD/svg11.dtd">
<svg width="100%" height="100%" viewBox="0 0 60 61" version="1.1" xmlns="http://www.w3.org/2000/svg" xmlns:xlink="http://www.w3.org/1999/xlink" xml:space="preserve" xmlns:serif="http://www.serif.com/" style="fill-rule:evenodd;clip-rule:evenodd;stroke-linejoin:round;stroke-miterlimit:2;">
    <g transform="matrix(0.058594,0,0,0.058594,0.000012,0.000027)">
        <path d="M776.368,583.486C764.909,582.677 763.75,583.917 764.72,595.781L776.368,595.781L776.368,583.486ZM248.684,495.049C257.582,491.679 266.021,488.47 275.727,484.776C273.246,482.835 271.251,481.271 268.825,479.357C268.232,481.918 267.854,483.455 267.396,485.477L248.684,485.477L248.684,495.049ZM279.448,371.291C288.157,370.159 295.922,369.134 303.687,368.136C304.145,367.678 304.631,367.165 305.089,366.707C300.586,363.31 296.084,359.912 291.527,356.434C288.184,360.532 284.085,365.601 279.448,371.29L279.448,371.291ZM205.058,518.264L219.402,518.264C220.615,510.364 221.721,502.868 222.853,495.373C222.556,495.211 222.287,495.103 221.963,494.996C216.544,502.492 211.097,509.96 205.057,518.265L205.058,518.264ZM584.152,514.759C578.517,506.913 573.502,499.903 568.001,492.218C567.462,500.334 567.003,507.398 566.518,514.759L584.152,514.759ZM288.373,391.054C273.975,391.971 259.307,410.305 262.111,424.488C270.793,413.406 279.367,402.514 288.373,391.054ZM424.668,144.482C421.918,144.994 419.491,145.426 417.253,145.83L417.253,177.107L424.668,177.107L424.668,144.482ZM341.435,420.875C346.72,420.902 353.11,415.348 352.948,410.44C352.759,404.535 349.146,399.574 343.188,399.925C336.852,400.302 331.702,404.509 331.594,410.117C331.513,415.375 336.501,420.875 341.435,420.875ZM395.171,167.104C395.171,164.327 395.629,162.062 395.036,160.121C394.524,158.395 392.744,157.074 391.585,155.564C390.48,156.831 388.511,158.018 388.457,159.339C388.106,165.513 388.322,171.715 388.322,177.916L394.928,177.916C395.09,175.651 395.198,173.71 395.359,171.58L399.781,171.58C400.266,173.602 400.698,175.436 401.183,177.485C402.909,177.377 404.284,177.269 406.117,177.134C406.306,173.791 406.737,170.717 406.656,167.616C406.359,159.258 405.928,150.872 405.335,142.514C405.254,141.247 404.068,140.033 403.394,138.793C402.639,140.141 401.345,141.462 401.237,142.837C400.725,150.872 400.455,158.88 400.078,167.103L395.171,167.104ZM397.948,615.625C384.035,616.919 370.716,618.159 357.073,619.454L357.073,630.59L397.948,630.59L397.948,615.625ZM827.489,595.97C827.246,592.681 827.354,589.823 826.707,587.18C826.33,585.67 824.712,583.405 823.606,583.378C809.936,583.108 796.266,583.189 781.787,583.189C781.598,587.638 781.383,591.736 781.194,595.969L827.489,595.97ZM169.009,549.459C163.59,544.471 158.197,540.103 153.613,535.034C151.079,532.203 149.596,532.095 147.6,534.791C143.61,540.21 139.7,545.657 136.006,551.265C135.521,552.02 135.925,554.096 136.626,554.797C142.18,559.947 147.923,564.908 153.855,570.193C159.301,562.751 164.128,556.146 169.008,549.459L169.009,549.459ZM269.607,449.725C270.308,441.448 263.837,435.758 251.866,436.675C245.287,437.16 238.897,443.281 239.167,449.267C239.652,459.675 244.829,466.173 252.891,465.31C263.352,464.151 269.527,459.19 269.608,449.726L269.607,449.725ZM823.983,578.121C811.688,559.921 792.895,555.068 774.83,566.959C771.541,569.116 769.923,573.807 766.957,578.121L823.983,578.121ZM262.947,467.925C276.644,483.509 305.817,485.532 321.24,476.742C343.646,463.962 351.816,440.019 347.717,424.111C345.156,424.462 342.621,424.812 339.547,425.216C340.949,444.359 336.096,461.535 317.734,470.243C300.667,478.386 282.952,478.979 267.934,464.392C266.101,465.686 264.51,466.819 262.946,467.924L262.947,467.925ZM335.827,396.744C321.105,375.093 303.876,371.13 277.21,379.812C255.047,387.011 246.661,407.961 247.012,431.418C254.669,432.254 254.642,432.254 255.263,424.785C255.452,422.197 255.991,419.608 256.368,417.02C257.5,409.066 260.52,402.002 266.021,395.935C275.566,385.5 288.184,383.047 301.288,382.454C308.568,382.13 315.875,383.64 321.375,389.464C324.584,392.942 327.819,396.393 331.108,399.899C332.564,398.928 333.993,397.958 335.826,396.744L335.827,396.744ZM387.757,263.468L387.757,263.441C393.176,263.441 398.623,263.387 404.042,263.468C406.765,263.549 408.572,262.605 408.545,259.666C408.437,255.568 408.221,251.469 408.006,247.371C407.871,244.27 406.523,242.599 403.153,242.626C392.476,242.68 381.772,242.653 371.095,242.626C367.239,242.626 365.217,244.675 365.298,248.369C365.379,251.928 366.053,255.487 366.323,259.073C366.566,262.362 368.291,263.603 371.5,263.495C376.919,263.387 382.339,263.468 387.758,263.468L387.757,263.468ZM388.835,237.719C393.446,237.719 398.056,237.476 402.64,237.773C406.577,238.016 408.41,236.964 408.113,232.65C407.762,227.527 407.789,222.404 408.113,217.335C408.329,213.345 406.468,212.023 402.99,211.996C392.96,211.942 382.876,211.861 372.846,212.05C371.687,212.077 369.61,213.56 369.53,214.504C368.937,220.705 368.694,226.961 368.532,233.189C368.451,236.425 370.258,237.827 373.52,237.746C378.616,237.638 383.712,237.719 388.835,237.719ZM424.831,288.462L424.722,288.462C424.722,285.173 424.398,281.856 424.803,278.594C425.315,274.199 423.212,272.447 419.303,272.393C411.888,272.258 404.474,272.312 397.032,272.366C394.039,272.393 391.936,273.606 392.152,277.111C392.583,284.687 392.664,292.264 393.581,299.786C393.824,301.7 396.493,304.639 398.272,304.774C404.824,305.367 411.457,305.259 418.036,304.909C423.536,304.585 424.938,302.563 424.831,296.874C424.777,294.07 424.831,291.293 424.831,288.462ZM458.83,564.639C461.311,556.335 467,552.668 474.064,550.915L474.064,541.02L394.471,541.02C396.547,546.197 398.434,550.834 400.295,555.391C411.727,549.217 419.034,556.362 426.395,563.102C436.506,550.187 450.688,550.564 458.831,564.639L458.83,564.639ZM583.046,494.267C591.809,507.506 600.302,520.313 608.903,533.363C617.073,526.326 625.404,519.208 634.248,511.604C625.431,500.091 616.399,488.362 607.178,476.364C598.631,482.7 590.758,488.551 583.047,494.267L583.046,494.267ZM291.851,584.592C282.279,583.648 273.975,585.859 268.528,593.678C265.266,598.343 262.839,603.87 261.194,609.37C258.767,617.405 257.392,625.736 255.451,634.472L291.85,634.472L291.851,584.592ZM442.625,206.038C441.897,200.214 441.25,195.037 440.63,189.834C440.091,185.25 438.149,183.255 432.946,183.309C413.83,183.471 394.713,182.905 375.624,182.878C374.168,182.851 371.687,184.496 371.445,185.736C370.393,190.994 369.612,196.386 369.612,201.725C369.612,203.154 372.713,205.85 374.411,205.877C396.979,206.147 419.519,206.039 442.626,206.039L442.625,206.038ZM416.579,263.441C426.393,263.441 435.588,263.657 444.755,263.225C446.13,263.171 448.422,260.286 448.449,258.695C448.719,245.834 448.665,232.973 448.395,220.112C448.314,215.852 446.265,212.212 441.412,212.077C433.377,211.807 425.315,211.996 416.58,211.996L416.579,263.441ZM338.577,634.607C337.256,618.78 337.633,603.034 324.206,591.871C317.088,585.966 308.73,583.405 300.021,583.297L300.021,634.607L338.577,634.607ZM765.663,634.364C785.885,634.364 805.918,634.364 825.978,634.337C828.998,634.337 829.941,632.234 829.753,629.753C829.133,620.99 828.297,612.254 827.542,603.303L764.045,603.303C764.584,613.522 765.124,623.417 765.663,634.364ZM241.97,421.01C214.172,457.76 185.43,492.299 160.166,529.912C164.669,534.846 168.659,539.241 172.569,543.501C173.944,542.476 174.295,542.288 174.456,542.072C193.195,516.431 211.961,490.843 230.619,465.148C231.482,463.962 232.075,461.912 231.671,460.645C229.406,453.581 231.078,447.002 235.203,441.556C239.49,435.921 242.348,430.178 242.375,423.087C242.375,422.925 242.321,422.763 241.971,421.011L241.97,421.01ZM241.808,569.708C243.345,566.257 244.396,563.668 245.637,561.188C250.436,551.724 256.233,542.934 264.7,536.436C267.261,534.495 267.855,532.958 266.938,530.369C263.325,520.447 259.712,510.525 256.018,500.468C233.316,511.927 215.116,527.107 209.696,554.285C220.184,559.327 230.969,564.504 241.808,569.708ZM206.838,561.161C201.661,585.023 198.102,609.505 198.776,634.769C210.451,634.769 222.314,634.85 234.178,634.634C235.337,634.607 237.387,632.801 237.494,631.695C238.168,623.525 238.438,615.302 238.896,607.105C239.462,596.967 240.109,586.802 240.676,576.988C229.514,571.784 218.486,566.607 206.838,561.161ZM544.894,387.334C537.992,392.619 531.44,397.634 524.996,402.595C542.603,431.148 560.02,459.405 577.519,487.743C585.904,481.434 593.723,475.583 601.192,470.002C582.318,442.285 563.66,414.918 544.894,387.335L544.894,387.334ZM397.975,607.429C399.835,581.437 389.751,558.168 381.016,533.606C368.91,540.805 357.451,547.573 345.641,554.556C357.316,572.621 354.431,592.789 357.073,611.609C370.986,610.207 384.305,608.832 397.975,607.43L397.975,607.429ZM326.174,455.63C332.241,449.779 333.589,441.852 332.834,433.386C332.672,431.31 331.54,429.288 330.704,427.292C329.086,423.275 326.821,419.446 325.905,415.294C325.177,411.951 327.064,407.852 325.959,404.752C322.993,396.501 316.252,392.619 307.786,390.866C301.45,389.545 300.183,394.641 297.217,397.714C297.001,397.957 296.813,398.253 296.597,398.496C287.484,410.117 278.316,421.711 268.826,433.817C275.567,439.048 281.013,444.845 278.128,454.551C292.175,454.551 305.522,454.524 318.841,454.605C321.16,454.605 323.479,455.198 326.175,455.63L326.174,455.63ZM310.752,362.96C311.642,361.693 312.289,360.722 312.963,359.805C323.586,345.542 334.587,331.548 344.644,316.935C351.358,307.175 359.797,302.321 371.553,303.049C374.007,303.211 376.514,302.86 378.968,303.103C383.821,303.561 384.9,301.243 384.522,296.902C383.956,290.539 383.956,284.068 383.309,277.732C383.147,276.492 381.071,274.496 379.858,274.47C374.142,274.443 368.318,274.443 362.737,275.414C348.932,277.841 336.961,283.638 328.683,295.609C324.342,301.999 319.731,308.201 315.013,314.294C308.461,322.949 301.774,331.469 295.061,340.016C293.039,342.604 292.068,345.193 294.737,347.781C299.779,352.715 304.983,357.514 310.753,362.961L310.752,362.96ZM377.538,525.867C371.714,519.908 366.726,514.408 361.334,509.366C359.15,507.29 356.103,506.104 353.38,504.594C343.916,499.444 334.371,494.106 323.317,493.378C311.211,492.569 298.997,491.949 286.891,492.407C278.721,492.677 270.66,494.968 262.706,496.317C267.371,508.477 271.604,519.478 275.837,530.452C276.969,529.886 278.614,528.969 280.367,528.214C290.855,523.846 301.613,525.599 312.425,526.3C322.725,526.974 330.301,532.097 336.691,539.593C339.01,542.289 340.87,545.444 342.919,548.356C354.135,541.049 365.217,533.85 377.539,525.869L377.538,525.867ZM433.107,299.84C434.752,300.002 436.046,300.352 437.313,300.164C445.752,299.005 451.36,303.346 456.079,309.547C469.992,327.882 484.12,346.081 497.844,364.551C505.286,374.554 512.08,385.043 519.549,395.855C526.613,390.382 533.3,385.178 540.014,379.947C539.124,378.491 538.585,377.466 537.911,376.55C524.942,358.997 512,341.391 498.95,323.865C490.457,312.406 482.098,300.785 473.066,289.73C468.024,283.556 461.796,277.84 453.707,276.141C447.128,274.766 440.199,275.116 433.108,274.658L433.107,299.84ZM656.924,530.559C661.184,526.946 665.822,524.304 668.599,520.313C671.484,516.134 672.589,510.714 674.342,505.78C675.825,501.682 674.504,499.282 670.136,498.392C663.234,496.963 656.277,495.858 649.402,494.375C647.973,494.078 646.463,492.946 645.519,491.787C635.543,479.303 625.621,466.793 615.779,454.228C610.009,446.867 604.455,439.426 598.631,431.768C606.531,427.292 606.801,418.961 610.737,410.98C602.513,414.081 594.074,411.25 587.738,417.882C582.157,408.85 576.872,400.141 571.399,391.567C562.286,377.331 553.011,363.202 543.897,348.939C543.277,347.941 542.953,346.162 543.385,345.083C544.895,341.47 546.378,337.722 548.643,334.568C552.553,329.068 549.775,325.239 543.898,325.023C537.778,324.834 531.684,325.239 525.59,325.158C520.737,325.05 517.636,327.369 515.182,331.899C564.362,396.366 606.127,466.253 656.924,530.559ZM532.761,632.558C532.761,618.484 532.788,604.814 532.734,591.171C532.734,590.254 532.357,589.149 531.736,588.556C524.375,581.519 517.068,574.374 509.411,567.687C507.038,565.611 506.041,563.697 506.095,560.704C506.203,551.186 506.122,541.695 506.122,532.609L482.584,532.609C481.937,566.447 481.317,599.368 480.67,632.559L532.761,632.558ZM612.516,539.942C612.786,540.778 612.84,541.479 613.19,541.991C621.791,554.609 630.311,567.282 639.074,579.792C644.44,587.503 650.21,594.891 655.602,602.521C662.127,611.823 668.598,621.125 674.826,630.589C676.659,633.366 678.763,633.932 681.782,633.905C692.971,633.824 704.188,633.932 715.404,633.959C716.833,633.959 718.208,633.77 720.608,633.582C692.944,594.945 665.793,557.008 638.184,518.398C629.583,525.651 621.063,532.769 612.516,539.941L612.516,539.942ZM582.965,538L582.965,632.504L662.801,632.504C651.396,616.084 640.233,600.095 629.179,584.052C620.928,572.188 611.68,560.81 604.913,548.138C600.006,538.998 594.101,536.14 584.772,537.703C584.287,537.784 583.801,537.865 582.966,538L582.965,538ZM574.472,632.639L574.472,524.87C554.304,524.843 533.893,524.843 513.051,524.87C513.051,537.515 512.97,549.541 513.159,561.539C513.159,562.752 514.211,564.289 515.262,565.152C522.785,571.434 530.496,577.528 537.991,583.837C539.016,584.727 539.717,586.587 539.744,588.016C540.148,601.794 540.391,615.599 540.661,629.403C540.715,630.482 540.985,631.533 541.173,632.639L574.472,632.639ZM540.526,484.857L329.167,484.857C328.978,482.673 328.816,480.624 328.574,478.116C326.956,478.871 325.419,479.221 324.422,480.138C323.209,481.217 322.4,482.834 321.429,484.209C322.939,485.261 324.368,486.932 326.04,487.229C328.17,487.58 330.705,486.15 332.754,486.717C338.982,488.47 345.696,489.791 351.142,493.107C360.39,498.796 368.775,505.941 377.673,512.358C379.372,513.598 381.583,514.892 383.605,514.892C434.402,515.027 485.227,515 536.051,514.973C537.507,514.973 538.909,514.784 540.527,514.676L540.526,484.857ZM546.943,456.196C542.252,449.86 537.857,444.386 533.974,438.563C523.297,422.385 513.213,405.804 502.212,389.815C488.731,370.186 474.656,350.908 460.528,331.711C458.883,329.473 455.675,327.451 452.952,327.127C440.765,325.698 428.47,324.35 416.148,323.972C399.027,323.46 381.852,323.541 364.703,323.999C358.825,324.161 352.085,324.565 348.067,329.85C338.846,342.037 330.083,354.548 321.266,367.058C320.511,368.137 320.322,370.617 321.023,371.561C323.018,374.284 325.526,376.63 327.979,378.976C331.646,382.535 335.502,385.932 340.328,390.408C340.867,374.069 347.365,361.423 356.559,350.45C366.4,338.667 380.34,335.378 395.088,334.084L395.088,442.581C379.45,442.985 366.589,437.054 354.698,427.752C357.125,437.944 355.318,447.192 350.195,456.197L546.943,456.196ZM718.236,382.319C722.739,379.353 727.107,376.145 731.717,373.394C741.558,367.543 751.939,362.528 761.268,356.03C775.801,345.973 790.01,335.538 806.43,328.636C807.509,328.178 808.668,326.587 808.857,325.4C810.016,317.123 811.014,308.818 811.985,300.514C814.007,283.096 815.679,265.624 818.159,248.261C820.073,235.022 820.289,223.509 807.212,214.585C794.189,205.741 781.975,196.197 766.768,190.885C743.553,182.769 720.15,178.455 695.344,179.911C681.782,180.72 669.029,184.414 655.925,186.84C637.995,190.183 622.518,199.135 608.471,210.297C600.247,216.822 592.509,224.183 585.553,232.056C570.697,248.908 564.145,269.938 558.752,291.077C555.948,302.132 555.085,313.726 554.168,325.158C553.305,336.347 551.472,347.968 559.857,357.648C561.232,359.266 562.365,361.153 563.551,362.906C572.368,376.199 581.292,389.41 589.893,402.838C591.646,405.588 593.425,406.074 596.337,405.831C601.082,405.427 605.855,405.292 610.627,405.48C614.833,405.642 617.071,408.608 615.993,412.517C614.618,417.532 612.515,422.358 611.275,427.4C610.763,429.449 610.817,432.361 611.922,433.979C620.28,446.22 629.529,457.895 637.348,470.405C646.165,484.426 658.972,490.654 674.664,492.029C686.905,493.081 699.281,494.159 711.576,493.889C725.327,493.646 739.213,492.891 752.748,490.546C766.58,488.146 779.737,482.916 792.275,476.229C804.651,469.623 815.193,460.86 824.495,450.507C834.121,439.803 839.217,426.429 845.499,413.811C851.134,402.514 854.909,390.515 855.96,377.762C856.931,365.656 858.144,353.523 859.681,341.47C861.73,325.158 861.218,309.142 855.421,293.531C850.676,280.697 848.249,266.973 840.699,255.19C837.437,250.121 834.282,244.971 830.992,239.714C826.489,269.238 822.121,297.791 817.969,324.943C826.031,330.309 833.23,335.081 840.402,339.853C840.186,340.23 839.998,340.608 839.836,341.012C835.198,339.071 830.534,337.264 825.977,335.215C822.661,333.732 819.668,333.247 816.19,335.188C806.78,340.446 797.154,345.353 787.664,350.476C786.666,351.015 785.453,352.202 785.345,353.199C784.536,359.697 784.186,366.249 783.377,372.774C781.786,385.339 780.034,397.903 778.335,410.441C778.065,410.414 777.796,410.36 777.553,410.333C776.825,393.131 776.097,375.983 775.315,357.271C758.383,372.046 737.487,374.904 718.235,382.319L718.236,382.319ZM693.889,157.64C654.766,118.275 615.617,78.289 575.739,39.086C560.074,23.717 540.148,16.141 518.147,14.901C487.868,13.202 462.577,24.014 441.25,45.45C323.019,163.842 204.654,282.127 86.342,400.439C71.162,415.619 55.793,430.556 40.91,446.006C25.002,462.507 16.266,482.486 14.864,505.378C13.004,535.873 23.843,561.217 45.413,582.76C165.72,702.824 285.838,823.077 406.01,943.249C419.329,956.542 432.46,970.023 446.022,983.046C462.146,998.576 481.666,1007.339 503.964,1008.957C534.701,1011.222 560.639,1000.653 582.452,978.759C653.606,907.335 725.003,836.154 796.265,764.838C857.659,703.471 918.998,642.078 980.419,580.738C997.055,564.129 1006.977,544.231 1008.918,520.827C1011.452,490.117 1001.315,463.909 979.367,442.123C948.441,411.467 917.731,380.568 886.886,349.776C885.807,348.671 884.621,347.646 882.976,346.163C882.032,356.867 881.763,366.924 880.037,376.685C879.12,381.889 881.169,384.423 884.27,387.551C909.426,412.545 934.501,437.647 959.549,462.776C962.245,465.445 964.888,468.222 967.179,471.215C987.886,498.69 985.163,535.386 960.357,560.38C934.338,586.668 908.104,612.66 882.058,638.895C879.254,641.699 876.504,642.724 872.567,642.724C632.115,642.643 391.69,642.616 151.265,642.805C144.902,642.805 142.179,639.354 138.566,634.77C154.177,634.77 169.034,634.527 183.863,634.932C189.013,635.04 190.28,633.422 190.172,628.542C189.714,604.707 193.381,581.385 200.013,558.601C202.79,549.083 207.185,540.078 211.068,530.317C207.698,530.317 204.112,530.614 200.58,530.263C197.533,529.939 195.7,531.072 194.001,533.445C176.394,557.873 158.68,582.247 140.993,606.648C136.679,612.553 132.311,618.458 127.808,624.551C125.112,621.936 122.874,619.779 120.312,617.271C130.099,603.385 139.698,589.715 149.216,576.18C144.498,572.001 140.13,568.145 135.465,563.993C125.732,577.393 116.322,590.389 107.505,602.576C90.896,586.425 73.91,571.192 58.433,554.529C46.057,541.183 41.743,524.223 43.361,505.889C44.898,488.714 52.42,474.585 64.527,462.479C196.886,330.228 329.218,197.896 461.523,65.564C463.06,64.054 464.57,62.544 466.134,61.061C491.829,37.01 532.057,36.956 557.699,61.034C563.604,66.588 569.212,72.412 574.928,78.128C603.05,106.223 631.199,134.345 659.294,162.494C661.1,164.3 662.476,165.433 665.549,164.597C675.04,161.955 684.692,159.852 693.887,157.641L693.889,157.64ZM511.083,1024C480.4,1023.515 454.03,1011.948 431.975,989.919C357.585,915.448 283.142,841.005 208.698,766.588C150.486,708.349 92.301,650.083 34.008,591.925C9.607,567.605 -1.987,538.27 0.278,503.919C2.111,476.202 13.49,452.555 33.172,432.873C86.046,380.053 138.892,327.18 191.739,274.333C271.899,194.173 352.085,114.068 432.218,33.881C456.592,9.48 485.954,-2.006 520.278,0.286C547.429,2.146 570.86,13.12 590.138,32.371C630.231,72.329 670.298,112.288 710.094,152.543C714.947,157.477 720.097,159.553 726.541,160.551C738.431,162.438 750.619,163.733 761.997,167.319C789.58,175.92 815.302,188.053 834.095,211.403C840.296,219.141 848.682,225.397 853.67,233.755C864.078,251.281 873.973,269.373 877.181,289.918C878.718,299.813 879.122,309.87 880.417,319.792C880.687,321.949 882.223,324.241 883.841,325.859C918.892,361.072 953.917,396.285 989.184,431.229C1013.612,455.495 1025.637,484.615 1023.696,518.992C1022.078,546.898 1010.916,570.841 991.125,590.658C884.488,697.322 777.851,803.959 671.188,910.595C644.36,937.423 617.586,964.331 590.651,991.078C568.838,1012.783 542.442,1023.73 511.085,1023.999L511.083,1024Z" style="fill:rgb(69,28,21);fill-rule:nonzero;"/>
    </g>
    <g transform="matrix(0.058594,0,0,0.058594,0.000012,0.000027)">
        <path d="M299.317,795.865C305.195,796.242 309.617,796.782 313.985,796.701C322.37,796.566 330.702,795.973 339.06,795.622C355.777,794.894 370.364,787.264 385.678,781.763C402.476,775.75 419.947,771.76 437.77,766.664C429.196,764.561 420.541,762.431 412.398,760.436C420.082,754.396 430.867,754.99 445.67,762.997C443.028,751.969 434.292,745.498 428.468,737.032C443.432,738.892 449.957,749.677 454.945,762.08C466.081,747.305 478.295,743.719 486.518,749.111C481.827,751.726 477.486,753.829 473.549,756.526C469.666,759.114 466.188,762.269 461.82,765.747C484.846,769.71 506.443,774.483 528.31,776.802C544.514,778.528 560.989,778.986 577.49,776.802C589.596,775.184 601.163,772.137 612.811,769.037C617.287,767.878 621.978,767.716 626.589,767.069C626.67,766.557 626.805,766.017 626.913,765.505C622.329,762.485 617.719,759.546 613.216,756.392C612.218,755.718 611.679,754.424 610.924,753.372C612.029,753.048 613.297,752.213 614.186,752.509C620.064,754.477 625.888,756.661 632.359,759.007C629.555,751.242 626.562,742.91 623.057,733.15C629.151,735.631 632.764,739.028 635.136,743.396C637.563,747.764 639.099,752.563 641.095,757.363C645.786,748.492 650.424,739.649 660.805,735.146C655.305,744.394 650.209,752.968 644.547,762.486C660.266,762.486 674.529,762.27 688.846,762.567C698.013,762.783 707.261,763.214 716.294,764.643C724.302,765.937 732.067,768.58 739.832,771.006C741.854,771.626 743.418,773.675 746.087,775.832C743.984,777.369 742.663,778.124 741.638,779.175C681.404,839.355 621.223,899.59 560.962,959.77C535.482,985.223 498.382,988.027 470.691,966.753C468.049,964.758 465.649,962.466 463.33,960.147C409.971,906.842 356.666,853.537 303.334,800.178C302.309,799.153 301.366,798.048 299.317,795.864L299.317,795.865Z" style="fill:rgb(69,28,21);fill-rule:nonzero;"/>
    </g>
    <g transform="matrix(0.058594,0,0,0.058594,0.000012,0.000027)">
        <path d="M337.493,759.87C339.623,761.596 341.322,762.566 342.4,763.995C343.452,765.397 344.368,767.311 344.422,769.01C344.422,769.819 342.346,771.167 341.052,771.41C331.157,773.27 321.208,774.214 311.231,771.949C305.03,770.574 300.176,765.775 300.095,761.541C300.014,754.261 304.786,748.653 311.716,746.496C322.258,743.234 332.801,744.096 343.37,745.579C348.682,746.334 354.074,746.873 359.224,748.356C364.778,750.001 367.259,753.937 365.857,757.496C365.48,758.467 364.131,759.114 363.134,759.68C355.584,763.805 348.035,762.727 340.485,759.572C340,759.356 339.245,759.68 337.492,759.869L337.493,759.87Z" style="fill:rgb(69,28,21);fill-rule:nonzero;"/>
    </g>
    <g transform="matrix(0.058594,0,0,0.058594,0.000012,0.000027)">
        <path d="M373.232,716.573C375.74,713.122 378.274,709.644 381.024,705.869C376.144,708.35 371.641,710.776 367.057,712.987C363.067,714.901 360.748,711.989 360.289,709.104C359.938,707.001 361.637,703.01 363.363,702.417C376.575,697.618 390.11,696.458 403.321,702.417C409.01,704.978 409.361,709.454 404.885,713.579C399.6,718.378 379.702,721.344 373.231,716.572L373.232,716.573Z" style="fill:rgb(69,28,21);fill-rule:nonzero;"/>
    </g>
    <g transform="matrix(0.058594,0,0,0.058594,0.000012,0.000027)">
        <path d="M291.686,656.474C288.693,656.825 285.646,657.445 282.654,657.445C243.531,657.553 204.463,657.445 165.34,657.607C161.215,657.607 158.411,656.394 155.93,651.783C201.578,651.271 246.551,651.702 291.471,654.425C291.552,655.099 291.633,655.773 291.687,656.474L291.686,656.474Z" style="fill:rgb(69,28,21);fill-rule:nonzero;"/>
    </g>
    <g transform="matrix(0.058594,0,0,0.058594,0.000012,0.000027)">
        <path d="M612.287,654.451C608.701,655.125 605.142,656.311 601.529,656.338C567.583,656.5 533.583,656.5 499.611,656.419C495.728,656.419 491.792,655.502 487.909,654.99C487.882,654.37 487.882,653.723 487.855,653.13C489.068,652.618 490.282,651.674 491.495,651.674C513.901,651.512 536.28,651.431 558.686,651.431C572.868,651.431 587.051,651.485 601.233,651.62C604.9,651.674 608.567,652.132 612.234,652.429L612.287,654.451Z" style="fill:rgb(69,28,21);fill-rule:nonzero;"/>
    </g>
    <g transform="matrix(0.058594,0,0,0.058594,0.000012,0.000027)">
        <path d="M753.743,653.764C750.292,655.544 654.278,657.107 643.655,655.436C642.361,655.247 641.228,654.223 639.503,653.36C648.508,650.475 748.027,651.041 753.743,653.764Z" style="fill:rgb(69,28,21);fill-rule:nonzero;"/>
    </g>
    <g transform="matrix(0.058594,0,0,0.058594,0.000012,0.000027)">
        <path d="M467.142,655.236C463.987,655.56 460.887,656.153 457.732,656.126C428.882,655.829 400.059,655.398 371.209,655.074C364.172,654.993 357.108,655.074 350.07,655.074C349.989,654.508 349.935,653.942 349.881,653.402C351.148,653.132 352.415,652.647 353.683,652.647C389.597,652.27 425.511,651.919 461.425,651.649C463.366,651.622 465.254,652.35 467.195,652.728C467.168,653.564 467.168,654.4 467.141,655.236L467.142,655.236Z" style="fill:rgb(69,28,21);fill-rule:nonzero;"/>
    </g>
    <g transform="matrix(0.058594,0,0,0.058594,0.000012,0.000027)">
        <path d="M294.968,676.518C296.774,677.65 298.608,678.81 300.468,679.942C300.225,680.508 300.117,681.101 299.794,681.317C294.563,684.633 279.41,681.991 275.609,677.165C273.479,674.415 275.555,670.263 280.085,669.589C285.747,668.78 291.544,669.104 297.179,668.376C302.194,667.756 305.78,669.913 308.989,673.121C309.852,673.984 310.014,675.548 310.526,676.815C309.313,677.058 308.045,677.705 306.886,677.489C303.03,676.869 299.283,675.925 295.481,675.089C295.319,675.574 295.13,676.033 294.969,676.518L294.968,676.518Z" style="fill:rgb(69,28,21);fill-rule:nonzero;"/>
    </g>
    <g transform="matrix(0.058594,0,0,0.058594,0.000012,0.000027)">
        <path d="M525.168,671.947C546.954,669.79 568.686,670.033 590.444,672.028C584.512,674.994 533.445,675.21 525.168,671.947Z" style="fill:rgb(69,28,21);fill-rule:nonzero;"/>
    </g>
    <g transform="matrix(0.058594,0,0,0.058594,0.000012,0.000027)">
        <path d="M709.096,673.091L782.326,673.091L782.326,674.978C757.979,675.544 733.632,675.248 709.258,675.329C709.204,674.601 709.15,673.846 709.096,673.091Z" style="fill:rgb(69,28,21);fill-rule:nonzero;"/>
    </g>
    <g transform="matrix(0.058594,0,0,0.058594,0.000012,0.000027)">
        <path d="M842.639,653.664C836.141,656.603 797.989,656.603 793.621,653.421C809.583,652.558 825.572,651.992 842.639,653.664Z" style="fill:rgb(69,28,21);fill-rule:nonzero;"/>
    </g>
    <g transform="matrix(0.058594,0,0,0.058594,0.000012,0.000027)">
        <path d="M249.697,676.213C236.674,676.375 223.705,676.348 210.736,676.213L210.736,674.137L249.724,674.137C249.697,674.838 249.697,675.512 249.697,676.213Z" style="fill:rgb(69,28,21);fill-rule:nonzero;"/>
    </g>
    <g transform="matrix(0.058594,0,0,0.058594,0.000012,0.000027)">
        <path d="M412.301,442.31L412.301,334.001C421.738,333.516 430.528,334.244 438.347,339.663C449.887,347.617 459.162,357.243 463.611,371.128C469.678,390.002 467.628,407.932 456.816,424.217C453.203,429.636 446.975,433.762 441.178,437.24C433.763,441.689 421.792,443.118 412.301,442.309L412.301,442.31Z" style="fill:rgb(69,28,21);fill-rule:nonzero;"/>
    </g>
</svg>
