<?xml version="1.0" encoding="UTF-8" standalone="no"?>
<!DOCTYPE svg PUBLIC "-//W3C//DTD SVG 1.1//EN" "http://www.w3.org/Graphics/SVG/1.1/DTD/svg11.dtd">
<svg width="100%" height="100%" viewBox="0 0 61 61" version="1.1" xmlns="http://www.w3.org/2000/svg" xmlns:xlink="http://www.w3.org/1999/xlink" xml:space="preserve" xmlns:serif="http://www.serif.com/" style="fill-rule:evenodd;clip-rule:evenodd;stroke-linejoin:round;stroke-miterlimit:2;">
    <g transform="matrix(0.058594,0,0,0.058594,-0.000057,-0.000022)">
        <path d="M511.96,1009.647C486.288,1009.647 462.174,999.658 444.021,981.532L42.429,579.94C4.995,542.48 4.995,481.522 42.429,444.116L444.048,42.497C462.201,24.344 486.288,14.355 511.96,14.355C537.605,14.355 561.692,24.344 579.845,42.497L981.464,444.116C999.617,462.242 1009.579,486.356 1009.579,512.028C1009.579,537.673 999.616,561.787 981.464,579.94L579.872,981.532C561.719,999.658 537.605,1009.647 511.96,1009.647Z" style="fill:rgb(232,203,158);fill-rule:nonzero;"/>
    </g>
    <g transform="matrix(0.058594,0,0,0.058594,-0.000057,-0.000022)">
        <path d="M511.919,14.436C487.304,14.435 462.71,23.798 444.025,42.483L42.444,444.104C5.055,481.493 5.055,542.503 42.444,579.892L444.025,981.513C462.722,1000.194 487.346,1009.559 511.958,1009.56C536.57,1009.561 561.143,1000.191 579.852,981.513L981.473,579.892C1018.833,542.501 1018.833,481.495 981.473,444.104L579.852,42.483C561.155,23.802 536.533,14.437 511.919,14.436Z" style="fill:rgb(232,203,158);fill-rule:nonzero;"/>
    </g>
    <g transform="matrix(0.058594,0,0,0.058594,-0.000057,-0.000022)">
        <path d="M620.047,574.434C622.501,581.797 624.632,589.025 634.53,588.674C637.065,588.566 639.951,588.863 642.136,589.996C649.499,593.745 656.673,597.925 663.847,602.025C667.191,603.913 670.428,606.071 674.069,608.309C676.685,599.625 674.474,591.695 673.664,583.793C673.313,580.503 672.801,575.945 670.589,574.299C662.228,568.042 652.654,563.727 641.893,566.532C634.611,568.393 627.653,571.629 620.047,574.434ZM462.109,578.453C462.541,578.372 462.972,578.237 463.404,578.156C462.946,572.115 462.136,566.1 462.109,560.059C462.055,551.051 460.491,541.369 463.161,533.143C469.957,512.349 466.29,491.771 464.051,471.219C461.92,451.72 461.893,432.733 468.043,414.312C467.18,414.744 465.508,415.04 464.672,416.065C461.597,419.706 455.907,420.03 453.884,425.046C449.515,435.807 448.463,447.189 452.05,457.788C458.496,476.775 458.199,495.789 455.691,515.073C453.992,527.992 452.185,540.803 455.529,553.694C457.687,561.947 459.898,570.2 462.11,578.453L462.109,578.453ZM508.309,555.393C501.593,557.389 495.984,558.899 490.455,560.814C489.106,561.272 487.596,562.81 487.111,564.158C485.223,569.498 483.308,574.919 482.148,580.475C481.797,582.228 483.362,585.222 484.953,586.408C492.801,592.261 500.919,597.762 508.956,603.318C511.707,605.206 513.757,604.882 514.997,601.376C518.153,592.638 523.924,586.03 531.692,580.987C537.841,576.995 538.219,566.477 531.935,563.672C524.168,560.22 515.861,557.981 508.309,555.392L508.309,555.393ZM412.538,603.346C415.262,591.371 418.337,579.289 420.791,567.071C424.756,547.086 429.26,527.155 430.042,506.604C430.743,488.615 428.909,471.192 422.248,454.444C416.422,439.772 418.337,426.853 430.285,415.958C431.256,415.014 432.065,413.881 433.225,412.506C426.267,410.726 421.304,413.531 417.043,417.415C401.994,431.089 403.234,446.084 411.973,462.968C412.782,464.532 414.562,465.8 414.805,467.391C416.342,477.1 419.174,486.917 418.554,496.546C417.179,517.718 414.482,538.862 411.38,559.899C409.654,571.793 409.897,583.417 411.38,595.149C411.758,598.062 412.189,600.975 412.54,603.348L412.538,603.346ZM350.776,658.932C351.558,659.121 352.34,659.31 353.122,659.525C353.607,658.311 354.147,657.098 354.632,655.884C360.188,641.617 365.744,627.35 371.327,613.082C376.424,600.055 383.302,587.703 384.839,573.355C386.134,561.003 389.505,548.866 387.428,536.244C386.268,529.097 385.999,521.869 385.27,514.668C383.247,495.088 380.388,475.939 370.679,458.058C363.883,445.544 363.909,433.974 374.239,423.132C377.88,419.329 381.305,415.338 385.162,411.076C383.76,410.752 382.654,410.213 381.656,410.294C365.204,411.939 352.744,426.665 353.229,443.467C353.768,460.755 359.351,477.045 364.314,493.119C371.326,515.855 369.924,538.51 369.061,561.461C368.926,564.401 368.683,567.367 368.252,570.28C365.447,589.537 361.536,608.47 355.954,627.187C352.933,637.355 352.421,648.332 350.776,658.931L350.776,658.932ZM594.965,546.169C594.614,545.737 594.291,545.306 593.94,544.874C585.175,547.328 582.019,555.797 577.165,562.755C573.524,554.583 568.885,548.11 561.387,544.361C560.929,544.712 560.443,545.089 559.985,545.44C562.871,550.295 565.757,555.122 568.642,559.977C565.702,559.411 563.706,558.035 561.495,557.091C559.418,556.228 557.153,555.823 554.941,555.23C554.698,555.715 554.456,556.201 554.213,556.686C557.18,558.898 560.119,561.109 563.41,563.563C562.115,564.129 561.36,564.399 560.686,564.804C551.435,569.847 541.079,573.515 536.683,584.546C536.386,585.274 535.308,585.895 534.471,586.245C526.488,589.401 523.899,596.655 521.714,603.83C521.202,605.475 522.928,608.334 524.465,609.817C525.544,610.896 528.16,611.354 529.751,610.95C537.815,608.954 545.609,605.772 553.754,604.558C559.876,603.614 566.376,600.89 572.768,605.259C581.911,611.516 591.323,617.369 600.817,623.086C603.325,624.569 606.454,625.378 609.367,625.756C615.193,626.511 621.342,625.81 626.844,627.428C632.697,629.127 638.091,632.633 643.431,635.735C646.937,637.785 650.254,640.266 653.221,643.044C660.557,649.894 667.569,657.015 674.77,663.973C676.523,665.618 678.465,667.021 680.542,668.693C681.189,667.425 681.729,666.724 681.864,665.996C683.671,654.048 685.073,641.912 680.138,630.53C678.088,625.81 673.962,621.9 670.375,618.043C668.352,615.858 665.412,614.564 662.904,612.838C654.354,607.012 647.207,598.706 635.961,597.573C631.268,597.088 626.521,595.874 621.883,596.251C605.782,597.573 596.531,585.733 584.502,577.965C597.663,574.486 604.271,586.622 615.707,589.724C614.682,586.622 614.305,584.384 613.28,582.55C606.969,571.357 596.1,567.042 584.071,564.21C587.901,557.872 591.461,552.019 594.967,546.167L594.965,546.169ZM212.365,472.568L213.525,472.19C213.983,473.296 214.874,474.455 214.82,475.588C214.496,484.785 214.173,494.063 213.391,503.232C212.69,511.485 211.746,519.684 217.517,526.642C218.488,527.856 220.295,528.449 221.697,529.339C221.994,528.017 222.56,526.669 222.533,525.374C222.479,520.304 221.859,515.206 222.075,510.163C222.453,500.589 223.1,491.068 223.909,481.548C224.206,478.123 225.284,474.725 225.986,471.245C228.305,471.434 229.897,471.569 231.785,471.703C231.785,473.699 231.893,475.344 231.758,476.962C231.057,487.777 230.409,498.646 229.439,509.434C228.873,515.448 227.632,521.436 226.877,527.423C226.122,533.518 227.282,538.885 233.053,541.852C241.387,519.467 240.982,495.868 242.681,472.404C244.866,472.836 247.239,473.294 249.747,473.833C250.044,476.962 250.61,479.901 250.502,482.841C249.936,496.002 249.342,509.191 248.452,522.352C248.047,528.205 248.02,534.516 245.755,539.775C242.788,546.625 247.023,550.887 248.911,557.521C252.013,545.223 255.141,534.354 257.514,523.269C259.024,516.149 259.833,508.786 260.292,501.45C260.804,493.979 260.373,486.455 260.562,478.957C260.616,477.123 261.56,475.289 262.126,473.482C262.611,473.455 263.124,473.455 263.609,473.428C264.85,475.451 266.899,477.366 267.223,479.523C267.951,484.728 268.383,490.068 268.059,495.301C266.791,515.259 263.933,534.974 257.649,554.096C256.786,556.712 257.325,561.459 259.132,562.861C261.047,564.398 265.146,563.212 267.655,563.212C267.655,560.003 267.062,557.926 267.736,556.496C272.564,546.76 274.209,536.268 275.261,525.723C276.61,511.672 277.311,497.566 278.363,483.488C278.471,482.059 279.172,480.656 279.604,479.254C280.036,479.254 280.494,479.227 280.953,479.2C282.113,482.167 284.405,485.187 284.243,488.073C283.38,503.985 282.274,519.898 280.548,535.729C279.658,544.252 277.5,552.639 275.99,560.515L293.602,560.515C294.708,553.368 295.652,547.03 296.65,540.692C298.781,527.504 301.289,514.369 302.988,501.127C303.986,492.982 303.554,484.675 304.256,476.476C304.661,471.567 303.285,468.843 297.567,466.335C293.602,464.609 289.988,464.447 287.669,468.951C277.501,463.045 273.483,462.667 268.547,466.901C262.614,465.229 257.57,459.295 250.908,465.067C250.315,465.579 247.51,464.582 246.836,463.584C243.95,459.377 240.417,460.428 236.372,461.292C230.304,462.533 224.074,463.072 217.897,463.827C217.519,463.881 217.115,463.234 216.683,462.991C210.911,460.024 205.895,460.833 201.094,465.203C200.285,465.958 198.586,465.904 197.291,465.904C192.355,465.958 188.04,467.064 186.233,470.435C183.051,471.676 181.055,472.7 178.951,473.267C176.955,473.779 174.825,474.265 172.829,474.049C170.105,473.752 167.759,473.456 167.273,476.935C166.68,481.088 165.871,485.242 165.736,489.422C165.466,497.486 165.709,497.324 173.045,500.102C184.103,504.282 195.754,507.276 204.708,515.745C205.059,516.069 207.917,514.585 207.837,514.235C206.542,506.818 210.372,500.184 210.966,493.117C211.559,486.267 211.91,479.389 212.368,472.566L212.365,472.568ZM828.634,588.189L827.07,588.162C826.342,582.309 826.18,576.349 824.778,570.658C822.459,561.191 820.247,551.509 816.336,542.663C812.56,534.194 807.274,526.427 805.71,516.96C804.955,512.456 802.905,508.141 802.339,503.61C801.422,496.49 800.586,489.289 800.91,482.196C801.234,474.402 802.636,466.58 804.227,458.894C806.304,448.726 807.922,438.208 811.806,428.687C816.283,417.764 818.063,407.111 815.986,395.595C814.476,387.261 807.571,380.842 801.125,381.517C801.449,386.533 802.393,391.631 801.907,396.539C801.422,401.286 799.83,406.059 797.915,410.456C796.566,413.585 793.492,415.904 791.766,418.979C786.021,429.416 782.893,440.69 782.434,452.638C782.137,460.001 782.191,467.364 781.706,474.7C780.978,485.596 780.762,496.357 784.511,506.902C786.156,511.46 786.938,516.315 787.99,521.088C788.772,524.432 789.096,527.911 790.04,531.202C795.542,550.054 800.909,568.96 806.842,587.651C810.402,598.79 805.17,607.852 801.232,617.453C800.477,616.104 800.072,614.756 800.072,613.381C800.261,597.037 796.269,581.61 790.39,566.453C785.454,553.804 780.816,540.966 777.282,527.886C774.639,517.988 774.019,507.577 772.427,497.41C771.726,493.014 770.162,488.618 770.323,484.302C770.862,467.877 771.968,451.425 772.804,435.027C773.236,426.855 776.094,419.519 781.542,413.64C789.202,405.36 789.903,395.516 789.148,385.159C788.797,380.277 787.071,375.665 782.298,374.02C775.124,371.566 767.653,370.109 760.425,368.221C759.346,373.049 759.265,377.013 757.593,380.169C753.44,387.909 748.396,395.137 744.054,402.797C742.409,405.71 740.925,409.108 740.737,412.398C740.009,423.402 739.415,434.433 739.631,445.463C740.009,462.751 740.629,480.066 742.058,497.273C743.245,511.297 744.971,525.403 748.045,539.158C751.929,556.554 757.404,573.572 762.231,590.725C768.866,614.27 773.532,637.977 767.355,662.412C765.98,667.86 764.739,673.686 758.563,675.115C758.941,659.472 759.318,643.884 759.642,628.295C759.696,625.355 759.885,622.308 759.264,619.449C755.947,604.427 752.414,589.431 748.854,574.463C745.267,559.468 740.412,544.634 738.228,529.396C736.259,515.83 733.023,502.749 729.867,489.507C728.033,481.874 726.981,474.053 725.606,466.313C724.986,462.672 723.907,458.977 723.961,455.336C724.177,440.988 724.635,426.64 725.31,412.319C725.445,409.379 726.524,406.251 727.926,403.635C732.295,395.382 737.393,387.507 741.465,379.092C744.459,372.889 743.137,364.879 738.957,362.182C733.752,358.865 728.034,356.302 722.478,353.579C718.756,351.745 716.059,352.527 714.63,356.815C713.201,360.887 711.421,364.825 709.748,368.763C709.074,370.273 708.399,371.784 707.483,373.078C697.073,387.615 690.681,403.581 691.085,421.624C691.463,439.236 692.002,456.82 693.216,474.405C694.214,489.131 696.075,503.803 697.855,518.474C699.311,530.53 701.658,542.477 702.764,554.533C703.897,566.804 703.978,579.103 704.463,590.403C690.897,561.842 685.503,530.152 682.563,498.111C680.675,477.209 681.322,456.038 680.729,434.974C680.621,430.632 680.055,426.317 679.704,421.947C675.47,423.43 671.424,424.779 667.406,426.154L666.732,424.401C670.319,422.594 673.96,420.868 677.466,418.926C678.626,418.279 680.028,417.092 680.217,415.986C680.81,411.752 681.997,407.275 681.107,403.283C679.462,396.109 682.348,389.96 683.642,383.406C684.154,380.844 684.208,378.147 684.451,375.639C674.526,374.587 671.182,383.164 664.709,387.883C665.491,380.763 670.508,374.452 676.252,372.24C680.756,370.514 685.179,369.138 688.2,364.446C690.277,361.183 694.619,359.403 697.936,356.975C700.903,354.817 704.328,353.064 706.701,350.394C709.937,346.699 709.317,345.485 704.651,344.083C697.639,341.898 693.324,336.37 692.973,328.521C695.643,330.652 697.828,332.944 700.498,334.427C702.683,335.668 705.514,336.881 707.834,336.531C712.122,335.965 716.168,334.05 720.402,333.025C727.63,331.191 730.947,324.664 735.856,320.133C738.769,317.436 741.52,313.741 742.572,310.019C746.348,297.073 749.692,283.966 752.362,270.75C753.495,265.221 752.578,259.261 752.578,253.489C748.64,259.153 745.916,265.059 742.653,270.669C734.94,283.83 727.037,296.803 712.285,303.546C705.812,306.513 704.383,309.291 706.972,315.71C708.078,318.461 710.748,320.619 712.905,322.857C714.361,324.421 716.114,325.716 717.76,327.118C710.208,326.282 704.545,322.56 701.173,316.222C697.856,310.019 698.287,304.031 705.219,299.527C696.265,297.531 691.41,302.494 687.068,307.996C680.703,316.141 672.774,321.859 662.822,324.691C661.312,325.123 659.235,324.556 657.671,323.882C654.408,322.453 651.306,320.753 648.204,319C644.132,316.681 639.627,314.82 636.283,311.691C626.924,303.007 616.271,297.1 603.622,295.077C598.767,294.322 593.778,294.619 588.95,293.836C578.027,292.029 567.455,294.375 557.476,295.158C553.377,314.388 549.439,332.781 545.501,351.229C544.719,341.115 544.611,331.163 544.746,321.211C544.8,317.894 544.773,315.062 540.97,313.659C538.165,312.607 535.522,311.016 532.852,309.64C532.933,309.343 533.041,308.993 533.176,308.669C536.871,309.37 540.593,310.018 544.908,310.827C544.908,306.404 546.364,301.414 544.53,298.421C542.345,294.915 537.599,292.461 533.499,290.734C529.049,288.873 524.059,288.334 519.286,287.282C509.172,285.097 499.328,281.942 488.54,285.017C472.412,289.602 456.041,291.76 439.158,287.606C435.166,286.635 428.774,288.442 425.862,291.355C422.14,295.104 420.819,301.253 417.798,307.807C428.802,304.598 438.349,303.977 447.196,306.971C440.453,308.373 433.36,309.749 426.348,311.448C423.085,312.257 420.846,314.01 420.145,318.002C419.39,322.29 417.394,326.39 415.911,330.57C415.533,330.705 415.156,330.867 414.778,331.002C413.51,326.714 411.838,322.452 411.083,318.056C410.49,314.523 411.326,310.747 410.732,307.187C410.516,305.677 408.52,303.465 407.064,303.195C402.56,302.386 397.894,302.17 393.309,302.062C380.984,301.684 369.548,306.054 358.14,309.749C352.503,311.556 347.055,315.602 342.848,319.89C337.885,324.987 332.357,328.655 325.911,331.11C320.22,333.322 317.874,336.747 318.332,343.597C323.753,340.63 329.012,337.043 336.645,339.632C334.568,341.331 333.22,342.599 331.682,343.678C328.203,346.132 324.292,348.101 321.191,350.96C319.438,352.605 318.818,355.545 317.739,357.945C317.119,359.401 316.606,360.885 316.013,362.368C314.422,361.154 311.671,360.076 311.482,358.7C310.484,350.771 310.08,342.761 309.324,333.159C305.063,331.028 299.102,327.603 292.764,325.149C289.393,323.827 286.965,322.074 284.754,319.35C280.52,314.172 276.663,308.211 269.408,306.89C258.161,304.813 258.081,303.923 254.359,314.496C253.901,315.845 252.822,317.004 252.013,318.245C251.366,318.002 250.664,317.706 249.963,317.409C251.096,312.824 252.228,308.239 253.415,303.411C241.144,297.855 233.646,287.606 227.631,275.497C226.957,282.995 226.606,290.412 227.038,297.72C227.523,305.865 229.007,314.145 236.073,319.323C241.629,323.395 248.102,326.281 253.55,329.329C255.519,325.634 257.569,321.75 259.618,317.84C260.103,318.083 260.562,318.298 261.047,318.541C259.672,321.777 258.808,325.337 256.813,328.169C253.684,332.565 255.869,335.694 258.323,338.984C259.672,340.791 261.209,342.463 262.638,344.189C262.719,343.596 262.8,343.002 262.908,342.409C266.819,340.359 270.783,338.31 274.721,336.26C270.217,345.538 270.028,354.708 270.918,363.419C271.376,368.166 275.961,372.427 278.47,377.039C279.63,379.116 280.816,381.408 281.14,383.728C282.057,390.417 286.049,394.165 292.764,394.165C295.92,394.138 299.075,393.895 302.177,394.219C305.413,394.57 308.569,395.487 311.778,396.161C311.697,396.727 311.616,397.294 311.508,397.887C308.029,398.292 304.496,398.912 301.017,399.02C294.032,399.182 292.414,401.528 295.272,408.109C296.108,410.024 296.971,412.155 298.428,413.611C306.115,421.082 309.971,430.764 311.104,440.716C313.343,459.433 314.206,478.312 314.88,497.165C315.177,505.121 313.478,513.158 312.992,521.141C311.724,540.721 309.081,560.086 304.038,579.073C296.271,608.363 288.935,637.706 278.039,666.133C270.838,685.039 263.124,704.458 270.326,725.575C273.023,733.558 276.179,741.191 282.517,747.016C287.911,751.952 297.728,756.267 303.203,755.916C290.959,745.775 286.67,732.344 285.915,717.322C290.824,724.658 294.842,732.398 299.103,740.058C304.578,749.848 313.047,755.755 323.808,758.56C327.071,759.396 331.09,759.288 333.517,761.203C336.888,763.819 340.152,763.495 343.658,763.334C345.762,763.253 347.838,762.714 349.942,762.66C355.579,762.498 358.545,759.424 356.172,754.596C353.043,748.258 348.647,742.459 341.015,740.518C335.513,739.143 329.526,738.279 326.478,732.724C319.951,721.019 317.119,708.235 317.011,694.939C316.93,688.008 317.604,681.103 317.82,674.199C317.901,671.151 317.227,668.077 317.604,665.083C318.845,655.185 320.409,645.368 321.892,635.497C323.699,623.549 325.425,611.574 327.394,599.627C329.713,585.279 332.518,571.039 334.703,556.663C336.429,545.336 337.643,533.9 338.802,522.492C340.258,508.791 341.904,495.063 342.497,481.335C342.955,470.978 342.039,460.541 341.553,450.157C341.256,443.846 340.609,437.508 340.124,431.062C330.01,433.597 320.49,436.375 311.697,429.363C312.668,428.824 313.72,428.581 314.583,428.851C322.027,431.036 329.093,429.229 336.213,427.152C339.989,426.046 340.393,424.131 338.964,421.03C325.182,421.866 322.485,420.949 322.377,416.472C327.798,415.204 334.055,415.339 337.831,412.346C341.877,409.164 343.576,403.014 345.706,399.238C338.721,393.817 332.598,389.286 326.8,384.377C325.505,383.271 325.425,380.79 324.777,378.983C326.881,379.334 329.254,379.199 330.953,380.197C334.162,382.085 336.725,385.213 340.096,386.778C343.575,388.45 348.133,390.473 351.397,389.502C356.872,387.803 361.7,383.919 366.986,380.899C365.53,377.959 363.588,374.237 361.916,370.381C361.053,368.331 360.514,366.093 360.082,363.881C359.704,361.939 359.677,359.916 359.489,357.894C361.053,358.46 362.645,359.027 364.155,359.539C366.744,358.029 369.711,356.33 372.678,354.603C373.056,355.008 373.406,355.412 373.784,355.817C372.409,358.109 371.141,360.456 369.577,362.64C367.851,364.986 367.554,366.874 369.415,369.571C374.431,376.853 390.182,382.975 399.46,380.952C404.369,379.873 409.385,379.226 414.348,378.255C415.535,378.039 417.018,377.635 417.665,376.772C420.659,372.996 421.144,368.87 418.879,365.067C414.267,364.851 410.114,364.609 404.531,364.339C406.904,363.206 408.01,362.667 409.143,362.181C414.348,360.023 418.879,357.488 418.07,350.476C417.881,348.885 419.284,347.132 420.147,345.055C422.79,351.636 425.46,357.434 427.456,363.503C429.991,371.163 436.14,375.289 444.043,374.345C455.91,372.889 467.75,371.729 479.617,370.38C482.799,370.029 484.984,369.005 484.499,364.959C484.067,361.291 484.418,357.542 484.418,353.82C486.414,354.629 487.412,355.762 488.113,357.083C489.974,360.535 491.619,364.122 493.507,367.601C494.073,368.626 495.098,370.163 495.988,370.217C504.996,370.972 514.004,375.368 523.012,370.109C523.74,369.677 524.9,370.001 525.844,369.866C528.002,369.542 530.429,369.677 532.317,368.706C541.055,364.256 543.941,364.714 551.358,371.511C553.273,373.264 555.943,374.72 558.505,375.233C570.965,377.768 583.83,378.874 595.967,382.596C605.919,385.644 613.552,382.974 621.346,377.984C623.558,376.555 625.553,374.802 627.765,373.318C633.483,369.488 633.887,368.733 630.813,362.961C629.842,361.1 627.604,359.859 625.85,358.511C623.989,357.055 622.047,355.787 620.159,354.439C620.429,353.819 620.671,353.198 620.968,352.551C626.713,354.223 632.484,355.868 639.038,357.783C642.814,351.337 647.102,344.055 651.444,336.719C650.635,341.115 648.127,345.161 647.938,349.287C647.668,356.758 645.484,363.204 641.897,369.623C638.526,375.691 634.804,381.004 628.493,384.241C625.526,385.724 622.775,387.585 619.728,389.365C630.004,399.964 643.678,396.566 655.76,400.423C653.899,402.338 651.661,403.552 649.692,405.035C648.478,405.925 646.914,407.193 646.752,408.46C646.186,412.236 648.937,414.178 652.658,412.937C658.376,411.049 664.012,409.026 669.703,407.057C669.973,407.569 670.242,408.109 670.512,408.648C665.037,412.154 659.562,415.687 653.386,419.625C653.71,423.644 654.087,428.687 654.546,433.757C655.571,445.192 655.841,456.763 657.782,468.063C661.45,488.992 666.305,509.705 670.323,530.58C673.559,547.436 676.229,564.428 679.385,581.311C680.707,588.539 682.864,595.605 684.186,602.833C685.669,610.87 686.64,619.015 687.719,627.133C689.58,641.05 692.547,654.993 692.816,668.991C693.086,682.638 691.171,696.447 688.986,709.986C686.235,726.734 677.712,740.462 663.985,750.684C658.213,754.972 653.17,759.773 651.012,766.893C650.122,769.887 649.771,772.853 653.844,773.986C661.854,776.171 669.729,777.492 676.796,771.343C678.414,769.914 680.167,768.7 681.92,767.486C683.997,766.03 686.154,764.654 688.285,763.279C688.797,763.684 689.337,764.088 689.849,764.493C688.258,767.379 686.64,770.265 684.482,774.175C720.622,757.534 744.356,731.373 754.982,693.588C761.482,696.447 767.685,695.853 774.185,690.702C778.419,687.385 781.818,683.069 785.863,679.455C796.84,669.692 805.228,658.634 805.389,643.018C805.389,641.427 806.899,639.296 808.356,638.379C816.016,633.443 822.488,627.699 824.862,618.448C825.563,615.616 826.48,612.865 827.37,609.791C831.685,612.03 834.086,610.276 835.326,606.204C837.888,597.816 840.45,589.429 843.12,580.771C844.576,580.178 847.543,579.881 848.892,578.263C852.614,573.732 855.581,568.635 858.979,563.834C859.896,562.539 861.487,561.703 862.242,560.355C864.319,556.606 867.312,552.83 867.717,548.839C868.149,544.254 866.234,539.426 865.29,534.734C860.381,509.814 862.296,485.54 872.329,462.049C874.514,456.925 875.08,450.883 871.817,446.973C868.392,442.847 869.336,438.99 869.201,434.836C869.174,433.676 869.174,432.544 869.12,431.384C868.608,422.349 856.606,411.264 846.654,411.318C847.086,414.312 846.87,417.467 848.056,419.948C850.321,424.749 849.863,429.037 847.894,433.676C843.795,443.304 838.913,452.744 836.27,462.777C832.548,476.936 829.015,491.5 831.901,506.361C833.816,516.313 835.947,526.346 839.264,535.866C841.529,542.42 844.739,548.461 843.822,555.716C843.498,558.359 843.768,561.11 843.768,563.78C842.527,563.133 841.961,562.431 841.853,561.649C839.965,548.11 834.571,535.731 829.069,523.513C822.111,508.167 822.515,492.228 825.455,476.531C827.801,463.963 832.44,451.772 836.324,439.528C839.345,429.954 842.851,420.568 841.853,410.265C841.368,405.087 840.801,399.828 835.38,397.373C833.222,396.375 830.067,395.971 828.071,396.861C826.884,397.4 826.722,401.041 826.857,403.253C827.1,407.325 828.799,411.479 828.232,415.363C827.207,422.267 825.589,429.226 823.054,435.672C817.363,450.074 812.697,464.557 812.913,480.254C812.994,488.102 812.266,496.059 813.156,503.826C814.181,512.537 815.179,521.68 818.658,529.529C825.751,545.711 830.336,561.947 828.664,579.667C828.394,582.499 828.637,585.331 828.637,588.19L828.634,588.189ZM218.245,267.864C216.465,269.887 215.413,271.343 214.146,272.611C191.06,295.724 167.946,318.838 144.833,341.924C111.093,375.637 77.381,409.376 43.641,443.062C26.38,460.296 16.401,480.955 14.864,505.336C13.003,535.839 23.845,561.191 45.421,582.713C177.17,714.247 308.758,845.942 440.372,977.557C442.449,979.661 444.552,981.791 446.737,983.814C462.811,998.567 481.771,1007.251 503.509,1008.923C534.093,1011.296 560.119,1001.129 581.884,979.31C676.927,884.159 772.078,789.062 867.175,693.965C905.203,655.937 943.393,618.044 981.232,579.8C1003.671,557.118 1012.517,529.555 1008.256,497.972C1005.289,475.91 994.96,457.625 979.29,442.009C846.651,309.477 714.146,176.892 581.561,44.334C580.266,43.066 578.999,41.772 577.65,40.531C560.524,24.807 540.404,15.934 517.102,14.828C487.354,13.453 462.487,24.106 441.559,45.116C372.92,113.971 304.119,182.637 235.399,251.357C234.563,252.166 233.619,252.921 232.999,253.838C232.541,254.539 232.136,255.645 232.379,256.373C235.049,265.435 239.904,273.283 247.159,281.455C248.588,279.405 249.532,277.598 250.935,276.196C320.896,206.181 390.937,136.167 460.952,66.152C463.164,63.94 465.375,61.675 467.722,59.625C482.205,47.246 498.953,41.744 517.994,43.362C535.39,44.872 549.576,52.586 561.794,64.857C620.643,123.868 679.627,182.744 738.53,241.727C739.879,243.076 740.688,245.044 741.739,246.716C742.332,246.392 742.926,246.042 743.546,245.745C746.755,240.189 749.965,234.66 753.417,228.781C758.218,236.09 761.346,243.722 761.454,252.245C761.562,261.118 764.313,267.888 771.055,274.549C834.165,337.039 896.79,399.96 959.631,462.693C966.616,469.678 972.307,477.392 976.002,486.562C979.427,494.977 980.991,503.715 980.938,513.532C969.341,505.036 957.123,500.047 942.856,498.86C945.337,496.837 947.063,495.462 948.762,494.086C948.573,493.681 948.357,493.25 948.169,492.818C943.368,494.76 938.568,496.729 933.767,498.698C933.605,498.293 933.416,497.862 933.255,497.43C934.01,496.162 934.765,494.841 935.494,493.573C932.635,493.546 930.451,494.409 928.239,495.272C926.594,495.892 924.976,496.944 923.33,496.998C916.776,497.187 910.222,496.944 903.696,497.16C900.729,497.268 898.868,496.648 897.52,493.735C896.657,491.847 894.742,490.445 893.286,488.853C892.881,489.177 892.477,489.5 892.099,489.797C892.773,492.413 893.474,495.002 894.257,497.942C889.861,499.021 885.815,500.261 881.689,500.963C877.131,501.772 873.409,503.39 872.276,508.353C871.871,510.16 871.979,512.021 871.629,513.828C870.334,520.463 870.577,526.909 873.544,533.112C875.162,536.483 876.619,539.935 878.21,543.496C885.249,540.367 892.288,537.212 899.57,533.949C896.091,530.146 892.693,526.451 889.321,522.729C889.645,522.217 890.022,521.65 890.373,521.111C894.931,523.646 899.516,526.208 903.993,528.717C906.933,521.435 908.982,512.912 918.26,508.462C914.646,516.58 911.49,523.7 908.335,530.847C908.713,531.009 909.171,531.171 909.576,531.359C922.684,519.573 922.684,519.573 928.158,521.164C924.706,524.104 921.82,526.612 918.125,529.794C938.973,526.854 958.58,526.773 978.889,530.252C976.731,532.652 978.511,536.941 973.495,536.563C963.031,535.808 952.512,534.648 942.048,534.837C921.146,535.269 900.595,537.588 884.548,553.366C883.146,554.741 881.878,556.306 879.963,558.436C905.693,553.393 930.047,547.189 955.372,549.859C953.08,550.938 950.679,551.315 948.279,551.531C939.136,552.232 929.831,551.989 920.904,553.796C900.191,558.111 879.963,564.126 863.754,578.878C858.845,583.328 851.968,586.484 852.211,594.79C852.4,601.56 849.325,606.711 844.228,610.999C842.205,612.725 839.913,614.667 838.834,617.04C836.434,622.353 834.681,627.99 832.496,633.95C835.598,632.197 838.241,630.12 841.234,629.122C847.869,626.964 854.638,625.157 861.435,623.566C873.868,620.653 886.382,617.983 898.897,615.286C898.978,615.259 899.113,615.421 900.38,616.311C893.988,618.307 888.324,620.033 882.715,621.84C871.253,625.535 859.359,628.232 848.571,633.329C841.073,636.889 834.088,641.177 825.754,642.823C820.063,643.929 816.045,646.815 815.559,653.827C815.127,660.057 814.13,666.961 811.028,672.194C800.294,690.129 782.736,699.623 764.073,707.471C761.861,708.415 759.218,710.033 758.22,712.029C752.583,723.815 750.075,737.084 741.552,746.281C749.05,745.445 756.979,744.771 764.827,743.584C769.924,742.856 774.887,741.345 780.092,740.132C775.642,746.875 769.574,750.542 761.86,750.462C753.445,750.408 746.406,753.402 739.448,757.798C734.405,760.927 728.633,762.922 723.212,765.431C722.16,765.916 721.027,766.267 720.137,766.941C715.067,770.555 710.293,774.708 704.899,777.729C696.188,782.692 687.53,788.355 676.445,785.389C671.752,784.148 666.763,783.177 661.935,783.393C648.261,783.986 638.929,776.273 630.002,767.669C626.145,763.92 623.206,759.173 619.16,755.721C613.604,750.893 606.754,747.522 601.602,742.344C593.079,733.767 582.049,729.21 572.393,722.467C570.883,721.442 568.698,721.118 566.783,720.957C561.713,720.445 556.588,720.337 551.545,719.824C542.348,718.907 533.178,717.801 523.981,716.776L523.981,714.861C534.985,712.649 545.962,711.867 557.424,712.596C569.318,713.351 579.836,716.938 589.599,723.708C590.057,723.276 590.543,722.818 591.001,722.359C589.329,712.758 587.684,703.156 585.877,692.692C592.916,695.524 594.48,700.918 595.937,705.961C597.366,711.031 597.771,716.318 598.661,721.793C618.565,702.536 627.33,699.084 636.177,701.97C627.088,708.551 618.053,715.051 608.991,721.604C609.261,722.009 609.557,722.413 609.8,722.845C616.3,720.876 622.179,722.171 627.681,725.434L627.735,726.971C620.21,727.915 612.713,728.886 604.541,729.911C617.837,740.645 632.078,748.925 640.384,763.138C643.324,758.769 645.67,754.831 648.529,751.298C652.655,746.228 658.589,742.101 661.259,736.383C668.487,720.686 674.852,704.612 672.613,686.461C671.615,678.208 668.594,672.086 662.203,666.746C655.946,661.541 649.959,655.634 645.104,649.107C637.31,638.697 627.897,634.219 614.843,636.242C608.963,637.159 602.679,639.478 596.665,635.622C587.927,630.012 579.08,624.483 570.126,619.143C567.672,617.714 564.597,615.799 562.116,616.176C553.809,617.471 545.61,619.493 537.465,621.624C532.799,622.865 528.268,624.753 523.737,626.506C521.175,627.531 519.476,626.991 517.426,624.996C514.001,621.706 510.468,618.146 506.314,616.204C494.555,610.756 482.041,608.517 468.286,609.623C469.365,608.733 469.796,608.274 470.336,607.978C476.674,604.256 483.444,604.58 490.375,605.632C491.912,605.848 493.611,605.093 495.23,604.823C494.421,603.313 493.881,601.587 492.803,600.373C491.401,598.782 489.594,597.541 487.894,596.301C480.882,591.204 473.896,586.807 464.511,590.718C459.575,592.849 454.074,593.658 448.113,595.222C450.109,589.45 451.835,584.488 453.939,578.5C446.037,581.575 445.389,588.533 442.153,593.468C434.116,587.885 424.272,586.375 418.5,589.692C425.404,592.011 433.037,592.848 438.997,598.376C425.916,605.982 411.595,610.863 401.023,621.84C395.845,627.207 388.401,630.551 385.866,638.319C384.167,643.47 382.737,648.729 380.93,654.663C389.668,653.207 397.652,651.858 406.309,650.429C402.425,648.433 399.216,646.761 395.979,645.116C396.168,644.55 396.384,643.983 396.572,643.417C400.644,643.875 404.744,644.334 409.032,644.819C406.928,640.396 404.771,635.892 402.101,630.255C412.08,633.33 415.37,640.504 418.715,647.597C423.731,642.85 428.424,638.05 433.441,633.653C439.563,628.367 445.389,627.531 452.212,630.471C440.588,636.324 430.852,644.28 423.516,654.852C431.985,656.093 440.184,657.846 448.436,658.277C454.154,658.574 460.249,657.899 465.697,656.173C472.116,654.123 477.941,650.347 484.145,647.57C486.006,646.761 488.217,646.815 490.267,646.491C489.835,647.974 489.188,648.514 488.514,648.703C481.691,650.294 476.593,654.34 471.685,659.14C469.123,661.621 465.347,663.725 461.868,664.129C456.42,664.803 450.756,663.913 445.2,663.59C438.538,663.212 431.877,662.835 425.242,662.403C420.819,662.106 416.396,661.702 411.946,661.378C410.247,661.27 408.467,660.946 406.876,661.324C401.806,662.511 396.897,664.506 391.8,665.262C378.8,667.204 366.772,671.115 356.361,679.448C355.066,680.527 353.017,681.201 351.372,681.12C348.028,680.958 346.14,682.657 344.683,685.192C342.957,688.159 341.447,691.26 339.72,694.227C339.1,695.252 338.345,696.385 337.374,697.005C332.708,699.81 331.845,704.476 335.594,708.332C339.019,711.865 343.523,714.643 345.978,718.742C353.125,730.582 359.463,742.88 366.287,755.26C368.013,754.559 370.521,753.345 373.164,752.536C386.056,748.437 398.246,742.908 410.167,736.435C416.181,733.145 423.248,731.526 429.99,730.016C434.44,728.991 439.187,729.315 443.772,729.396C448.141,729.45 452.888,728.938 456.772,730.502C463.38,733.172 470.149,732.956 476.811,734.062C485.9,735.599 494.584,739.321 503.458,742.099L502.973,743.879C499.278,743.259 495.394,743.124 491.942,741.91C481.72,738.323 471.31,736.947 460.549,737.649C459.578,737.703 458.58,737.541 457.609,737.352C442.236,734.331 427.456,735.464 413.54,743.447C402.455,749.839 391.371,756.204 379.908,761.841C373.732,764.862 366.854,766.723 360.085,768.26C353.127,769.851 345.953,770.741 338.806,771.2C332.333,771.605 325.591,771.982 319.307,770.661C309.84,768.665 300.563,765.591 291.447,762.246C283.14,759.198 275.184,755.288 269.817,747.601C265.151,740.858 259.946,734.467 259.541,725.701C259.244,719.336 258.705,712.971 258.273,706.552C248.456,703.801 238.693,700.43 228.714,698.488C218.897,696.627 208.837,696.223 198.912,695.171C201.393,694.281 203.928,693.769 206.464,693.849C214.879,694.146 223.051,691.233 231.843,693.364C240.662,695.522 250.048,695.36 258.139,696.115C260.431,688.186 261.834,681.47 264.288,675.159C276.694,643.091 288.642,610.943 294.737,576.934C295.007,575.397 295.249,573.859 295.6,571.837C293.739,571.648 292.337,571.379 290.934,571.405C279.418,571.675 267.901,571.998 256.385,572.376C255.576,572.403 254.767,572.7 253.958,572.834C244.707,574.668 235.456,576.664 226.152,578.201C212.154,580.547 198.049,582.193 184.105,584.755C160.965,589.043 139.442,598.726 117.138,605.792C111.555,607.545 108.049,606.601 105.163,601.315C118.648,596.541 132.079,591.741 145.645,586.94C143.784,583.892 142.031,581.007 140.278,578.121C140.79,577.689 141.276,577.231 141.815,576.799C145.348,579.496 148.881,582.193 152.657,585.079C155.327,577.15 157.835,569.086 164.335,563.395C164.767,563.584 165.225,563.746 165.657,563.961C164.201,568.492 162.717,572.996 161.261,577.527C165.981,571.836 170.835,566.631 178.576,563.26C174.611,569.436 171.213,574.695 167.087,581.087C184.402,576.961 200.476,573.104 216.847,569.166C216.281,566.658 215.525,563.421 214.797,560.185C217.036,561.021 219.004,562.262 219.76,564.015C222.592,570.623 227.366,569.355 232.598,567.926C236.886,566.82 241.363,566.416 245.948,565.661C241.876,558.325 217.387,533.836 209.053,528.28C206.059,526.311 203.362,523.911 200.476,521.753C189.068,513.15 178.549,503.575 163.311,501.121C148.666,498.748 134.102,496.995 119.296,496.995L115.655,496.995C115.601,496.698 115.52,496.375 115.466,496.105C118.163,494.352 120.887,492.626 123.611,490.927C123.395,490.469 123.179,490.01 122.937,489.578C119.458,490.657 115.952,491.763 112.203,492.922C114.334,490.117 116.275,487.609 118.163,485.101L116.814,483.887C113.092,487.636 109.397,491.358 105.837,494.972C104.677,494.001 103.356,492.922 101.144,491.088C101.926,494.19 102.358,495.916 102.735,497.453C82.939,501.229 62.603,500.096 43.293,507.459C44.426,490.737 50.764,476.632 62.253,464.873C70.182,456.728 78.327,448.745 86.391,440.681C128.842,398.23 171.347,355.752 213.771,313.22C215.146,311.845 216.711,309.795 216.792,307.988C217.466,295.042 217.79,282.07 218.248,267.856L218.245,267.864ZM512.382,1024C480.611,1023.568 454.207,1012.106 432.146,990.045C354.715,912.533 277.202,835.074 199.717,757.562C144.293,702.138 88.87,646.715 33.419,591.291C9.173,567.018 -2.02,537.647 0.3,503.557C2.215,476.02 13.569,452.475 33.123,432.949C78.864,387.208 124.606,341.439 170.347,295.725C257.65,208.422 344.952,121.174 432.201,33.871C456.582,9.463 485.98,-2.026 520.313,0.293C546.906,2.046 570.181,12.457 589.087,31.336C723.506,165.567 857.872,299.77 992.022,434.271C1035.336,477.693 1034.689,547.087 991.348,590.455C858.115,723.715 724.856,856.974 591.569,990.261C569.534,1012.323 543.05,1023.65 512.385,1024.001L512.382,1024Z" style="fill:rgb(69,28,21);fill-rule:nonzero;"/>
    </g>
    <g transform="matrix(0.058594,0,0,0.058594,-0.000057,-0.000022)">
        <path d="M529.934,821.082C539.023,816.254 548.624,814.178 558.441,815.418C571.333,817.063 584.09,819.841 596.954,821.756C601.323,822.376 605.881,821.513 610.25,821.972C621.955,823.213 633.525,825.262 645.203,826.125C657.744,827.042 670.393,827.042 682.988,827.312C686.17,827.366 689.407,826.934 692.616,826.746C692.832,827.178 693.074,827.609 693.263,828.014C687.977,833.084 683.23,838.937 677.216,842.955C674.06,845.059 668.639,844.735 664.378,844.196C650.515,842.416 636.68,839.773 622.817,837.885C612.595,836.483 602.212,836.267 592.071,834.541C586.623,833.597 581.58,830.388 576.186,828.715C568.041,826.18 559.815,823.645 551.481,822.026C546.384,821.082 540.963,821.918 535.676,821.837C533.761,821.81 531.846,821.352 529.931,821.082L529.934,821.082Z" style="fill:rgb(69,28,21);fill-rule:nonzero;"/>
    </g>
    <g transform="matrix(0.058594,0,0,0.058594,-0.000057,-0.000022)">
        <path d="M442.944,816.699C439.519,817.265 435.905,817.4 432.641,818.479C419.83,822.794 407.154,827.46 394.37,831.883C383.312,835.74 372.308,839.839 361.035,843.022C353.942,845.045 346.66,845.8 341.158,838.221C338.11,834.041 333.687,830.858 328.887,826.3C333.256,826.3 336.223,826.273 339.163,826.3C352.297,826.543 365.351,826.435 378.189,822.956C389.463,819.908 400.682,816.456 412.117,814.541C418.94,813.381 426.168,814.865 433.208,815.053C436.444,815.161 439.681,815.08 442.917,815.08C442.944,815.592 442.944,816.159 442.944,816.698L442.944,816.699Z" style="fill:rgb(69,28,21);fill-rule:nonzero;"/>
    </g>
    <g transform="matrix(0.058594,0,0,0.058594,-0.000057,-0.000022)">
        <path d="M710.101,738.073C729.573,708.298 726.526,676.365 719.352,644.001C719.864,643.947 720.35,643.92 720.835,643.893C721.32,644.244 722.022,644.486 722.264,644.945C731.002,660.264 735.102,676.5 732.054,694.193C730.867,701.124 730.436,708.191 728.683,714.96C726.283,724.346 718.65,730.63 713.337,738.316C713.121,738.586 712.42,738.505 711.935,738.586C711.342,738.424 710.694,738.235 710.101,738.074L710.101,738.073Z" style="fill:rgb(69,28,21);fill-rule:nonzero;"/>
    </g>
    <g transform="matrix(0.058594,0,0,0.058594,-0.000057,-0.000022)">
        <path d="M722.49,551.035C726.643,561.823 731.93,572.341 734.707,583.48C737.62,595.131 738.186,607.376 739.67,619.35C740.155,623.288 740.506,627.225 740.425,631.163C740.398,632.673 739.076,634.157 738.348,635.64C737.188,634.265 735.192,633.024 735.004,631.568C733.143,616.761 731.822,601.874 729.826,587.094C728.828,579.839 726.913,572.692 725.241,565.545C724.108,560.798 722.679,556.078 721.411,551.386C721.762,551.278 722.139,551.143 722.49,551.035Z" style="fill:rgb(69,28,21);fill-rule:nonzero;"/>
    </g>
    <g transform="matrix(0.058594,0,0,0.058594,-0.000057,-0.000022)">
        <path d="M854.917,465.671C848.201,488.515 847.23,510.388 851.033,532.989C837.44,520.205 839.382,478.105 854.917,465.671Z" style="fill:rgb(69,28,21);fill-rule:nonzero;"/>
    </g>
    <g transform="matrix(0.058594,0,0,0.058594,-0.000057,-0.000022)">
        <path d="M773.529,404.697C772.693,406.504 772.234,408.662 770.967,410.118C763.496,418.748 761.231,429.402 759.586,440.136C758.076,450.142 757.455,460.337 756.377,470.45C756.269,471.502 755.757,472.473 755.271,474.01C750.632,454.996 752.466,437.142 758.427,419.261C761.016,411.655 767.894,409.255 771.993,403.699C772.478,404.023 773.018,404.346 773.53,404.697L773.529,404.697Z" style="fill:rgb(69,28,21);fill-rule:nonzero;"/>
    </g>
    <g transform="matrix(0.058594,0,0,0.058594,-0.000057,-0.000022)">
        <path d="M708.431,411.798C706.894,409.074 710.535,405.811 704.979,404.408C708.054,400.174 710.966,396.209 713.852,392.244C714.499,392.514 715.093,392.81 715.74,393.08L708.431,411.798Z" style="fill:rgb(69,28,21);fill-rule:nonzero;"/>
    </g>
    <g transform="matrix(0.058594,0,0,0.058594,-0.000057,-0.000022)">
        <path d="M317.46,446.083L332.375,446.083C326.954,449.104 322.153,449.427 317.46,446.083Z" style="fill:rgb(69,28,21);fill-rule:nonzero;"/>
    </g>
    <g transform="matrix(0.058594,0,0,0.058594,-0.000057,-0.000022)">
        <path d="M200.291,477.433C201.505,484.553 202.098,491.781 200.857,499.063C200.425,499.144 199.994,499.171 199.562,499.198L197.728,477.676C198.591,477.595 199.427,477.514 200.29,477.433L200.291,477.433Z" style="fill:rgb(69,28,21);fill-rule:nonzero;"/>
    </g>
</svg>
