<?xml version="1.0" encoding="UTF-8" standalone="no"?>
<!DOCTYPE svg PUBLIC "-//W3C//DTD SVG 1.1//EN" "http://www.w3.org/Graphics/SVG/1.1/DTD/svg11.dtd">
<svg width="100%" height="100%" viewBox="0 0 60 61" version="1.1" xmlns="http://www.w3.org/2000/svg" xmlns:xlink="http://www.w3.org/1999/xlink" xml:space="preserve" xmlns:serif="http://www.serif.com/" style="fill-rule:evenodd;clip-rule:evenodd;stroke-linejoin:round;stroke-miterlimit:2;">
    <g transform="matrix(0.058594,0,0,0.058594,0.000093,0.000094)">
        <path d="M761.287,610.608C762.366,614.868 763.201,618.212 764.226,622.338C766.356,621.044 767.893,620.127 769.592,619.102C766.788,616.244 764.361,613.763 761.287,610.608ZM340.37,446.825C333.332,449.36 338.213,454.672 336.514,458.258C341.502,458.824 341.691,458.15 340.37,446.825ZM530.119,226.497C533.409,225.904 536.402,225.391 539.287,224.852L539.287,219.109C529.418,220.457 529.418,220.457 530.119,226.497ZM435.15,527.719C432.588,528.339 430.135,529.04 427.6,529.445C424.634,529.957 423.474,531.333 424.068,534.487C424.634,537.804 426.603,538.235 429.38,537.885C434.827,537.184 436.094,535.081 435.15,527.719ZM545.894,472.414C548.483,472.036 550.532,471.713 553.094,471.335C553.31,467.344 553.498,463.542 553.741,459.605L545.085,459.605C545.328,463.785 545.597,467.667 545.894,472.413L545.894,472.414ZM829.912,513.131C834.9,513.643 839.538,514.102 844.473,514.614L844.473,505.122L830.263,505.122C830.155,507.845 830.02,510.38 829.912,513.13L829.912,513.131ZM826.029,555.384C814.165,554.278 814.084,554.71 815.432,567.545C826.407,569.999 828.051,568.138 826.029,555.384ZM523.891,695.411C526.183,698.943 528.583,701.262 529.23,704.013C530.389,708.678 533.922,706.979 536.268,706.952C537.643,706.952 539.315,704.606 540.178,702.907C541.364,700.696 541.877,698.161 542.794,695.411L523.891,695.411ZM803.81,332.01C803.81,335.677 803.783,339.102 803.81,342.526C803.864,350.642 803.864,350.615 811.711,350.966C813.545,351.047 815.432,351.424 816.969,351.64C816.969,347.568 817.023,343.658 816.969,339.722C816.807,332.603 816.591,332.469 809.419,332.307C807.801,332.28 806.156,332.145 803.81,332.01ZM200.774,487.757L224.557,487.757L224.557,477.51L200.774,477.51L200.774,487.757ZM819.935,631.775L819.935,657.014C823.467,657.338 826.514,657.607 829.561,657.85L829.561,633.339C826.217,632.8 823.224,632.341 819.935,631.775ZM212.692,447.877C209.645,447.877 207.029,447.661 204.495,447.985C203.524,448.12 201.987,449.441 201.933,450.277C201.421,457.261 201.205,464.245 200.908,471.471C205.33,470.959 208.89,470.554 212.692,470.123L212.692,447.877ZM329.611,422.665L329.611,400.123L317.639,400.123C318.151,408.212 318.664,415.843 319.176,424.148C322.708,423.636 325.998,423.177 329.611,422.665ZM529.364,688.724C529.364,676.374 529.067,664.402 529.499,652.457C529.661,647.334 528.151,644.61 522.839,643.963C522.569,659.063 520.17,674.136 521.491,689.506C524.673,689.182 526.749,688.994 529.365,688.724L529.364,688.724ZM829.669,471.712L829.669,498.758L845.093,498.758C844.311,489.078 843.556,479.802 842.801,470.499C837.974,470.93 833.93,471.308 829.669,471.712ZM836.275,374.29C831.152,373.211 826.595,372.052 821.957,371.378C818.209,370.866 816.807,368.897 816.969,365.419C817.131,362.237 817.347,359.082 817.508,356.359C813.005,356.143 809.203,355.981 804.43,355.739C805.697,364.395 806.938,372.619 808.259,381.382L836.275,381.382L836.275,374.29ZM832.689,558.782L846.522,558.782C846.198,552.823 846.064,547.43 845.524,542.064C845.416,540.77 844.068,538.586 843.232,538.559C833.929,538.289 824.599,538.37 815.135,538.37L815.135,548.59C821.66,551.286 833.552,544.087 832.689,558.783L832.689,558.782ZM524.133,441.971C534.191,441.216 543.628,440.488 553.875,439.679L553.875,411.555L543.089,411.555C543.089,417.245 543.062,422.637 543.089,428.03C543.089,431.32 541.93,432.776 538.235,432.048C533.705,431.185 529.04,430.915 524.133,430.349L524.133,441.971ZM549.237,646.767L536.294,646.767L536.294,688.212L544.761,688.212C548.401,674.865 550.747,661.193 549.237,646.767ZM810.093,586.178C809.176,579.14 808.259,572.076 807.316,565.011C805.995,565.685 804.673,566.845 804.188,566.548C801.276,564.822 798.094,563.15 795.883,560.697C790.625,554.954 786.634,548.482 786.472,540.258C786.472,539.341 785.016,538.451 784.261,537.562C783.344,538.398 781.969,539.099 781.592,540.124C779.192,547.027 777.035,553.984 774.662,561.318C786.041,569.3 797.852,577.578 810.093,586.179L810.093,586.178ZM341.61,481.555C341.61,476.351 341.637,471.929 341.583,467.533C341.583,466.077 341.313,464.648 341.179,462.976C340.208,463.165 339.588,463.354 338.995,463.434C332.928,464.108 332.011,463.38 331.795,457.421C331.714,454.509 331.795,451.597 331.795,448.253C327.157,447.929 323.193,447.687 319.203,447.39L319.203,481.554L341.61,481.555ZM820.097,625.924C829.642,626.409 839.458,626.895 849.327,627.407L849.327,614.167C842.532,612.981 835.926,611.929 829.346,610.716C826.434,610.177 825.059,608.694 825.274,605.215C825.678,597.908 825.382,590.573 825.382,583.32L816.43,583.32C816.43,585.612 816.295,587.392 816.484,589.171C817.617,601.197 818.83,613.196 820.097,625.924ZM815.944,573.72C816.106,575.365 816.214,576.686 816.322,578.25C819.585,578.25 822.389,578.223 825.193,578.25C832.015,578.304 833.094,579.652 832.527,586.528C832.069,592.514 831.88,598.527 831.556,604.81C837.92,605.7 843.447,606.482 849.838,607.399C849.137,593.108 848.463,579.895 847.816,566.575C845.902,566.413 844.769,566.251 843.636,566.224C840.211,566.197 836.787,566.224 833.443,566.224C831.394,573.451 829.129,574.421 815.943,573.72L815.944,573.72ZM526.749,391.494C531.872,390.982 535.89,390.631 540.231,390.2L540.231,335.03C535.593,334.572 531.252,334.167 526.749,333.736L526.749,391.494ZM319.068,441.702C324.973,441.702 330.393,441.54 335.813,441.756C339.372,441.918 340.289,440.65 340.046,437.145C339.102,423.851 338.644,410.504 337.511,397.237C337.16,393.111 336.432,387.988 333.817,385.346C328.613,379.98 321.845,376.232 313.998,375.666C310.439,375.423 308.147,378.039 310.061,380.843C313.89,386.398 314.321,396.078 324.945,394.541C326.806,394.244 328.936,394.757 330.715,395.458C331.901,395.943 333.358,397.48 333.438,398.613C333.923,405.516 334.193,412.392 334.193,419.295C334.166,426.791 334.004,426.764 326.292,427.897C323.892,428.248 321.573,428.76 319.065,429.218L319.068,441.702ZM686.892,652.187C692.689,649.976 698.028,646.417 703.421,646.309C710.216,646.201 714.476,644.314 717.065,638.247C717.389,637.492 718.198,636.953 718.413,636.198C718.71,635.227 719.168,633.798 718.71,633.124C715.744,628.648 713.182,623.552 709.272,620.046C701.776,613.332 696.383,615.004 692.203,624.252C690.423,628.108 688.967,632.234 686.567,635.712C681.336,643.262 681.174,644.745 686.891,652.187L686.892,652.187ZM524.754,447.58L524.754,488.836L552.393,488.836L552.393,476.972C550.074,477.215 548.106,477.269 546.191,477.727C542.173,478.698 539.827,477.43 539.423,473.116C539.072,469.179 538.749,465.242 538.317,461.332C537.67,455.292 539.099,453.647 545.247,453.539C547.997,453.512 550.694,453.539 553.363,453.539L553.363,445.854C543.521,446.474 534.056,447.04 524.754,447.58ZM452.704,614.302C469.8,617.295 486.437,620.207 503.802,623.281L503.802,602.222C492.18,600.173 481.044,597.881 469.773,596.317C464.731,595.643 459.958,596.964 455.859,600.955C451.733,605.027 452.677,609.53 452.704,614.302ZM838.864,425.739C837.866,412.769 836.976,400.608 836.033,387.935L808.448,387.935L808.448,450.843C812.924,449.845 816.025,449.144 819.315,448.389C818.722,442.376 818.263,436.821 817.589,431.32C817.158,427.734 817.993,425.577 822.119,425.684C827.539,425.819 832.932,425.738 838.864,425.738L838.864,425.739ZM824.708,431.779C825.382,436.821 825.894,441.513 826.596,446.151C827.378,451.517 826.084,453.566 820.906,454.834C817.266,455.697 813.706,456.668 809.985,457.638C811.899,482.23 813.814,506.579 815.728,531.116L844.418,531.116L844.418,521.004C838.917,520.465 833.875,519.791 828.752,519.467C824.249,519.17 822.388,516.959 822.388,512.51C822.388,504.798 822.226,497.059 821.984,489.347C821.768,483.9 821.957,478.345 820.771,473.114C819.234,466.508 822.551,463.326 828.591,463.542C833.121,463.704 837.678,463.569 842.397,463.569C842.154,458.311 841.912,453.916 841.696,449.467C841.426,444.883 841.345,440.245 840.779,435.688C840.644,434.529 839.08,432.776 838.002,432.587C833.822,432.048 829.535,432.021 824.708,431.778L824.708,431.779ZM529.526,213.447C532.519,212.881 535.054,212.476 537.561,212.018C542.927,211.02 545.327,212.881 545.3,218.247C545.219,228.817 545.057,239.333 544.976,249.903C544.976,251.683 545.38,253.489 545.623,255.296C546.189,255.539 546.782,255.727 547.349,255.97C548.805,253.786 551.394,251.656 551.475,249.445C552.203,234.803 552.823,220.188 552.608,205.574C552.419,196.46 556.302,189.422 560.724,182.034C562.45,179.176 562.585,174.457 561.587,171.167C560.94,169.037 557.003,166.934 554.334,166.556C548.995,165.828 543.494,166.044 538.101,166.421C536.294,166.556 533.652,168.066 533.113,169.603C527.828,183.625 528.987,198.212 529.527,213.447L529.526,213.447ZM679.503,657.31C671.98,646.794 664.592,636.709 657.554,626.436C654.885,622.553 651.595,620.639 647.2,621.879C640.836,623.713 636.657,628.755 636.603,633.878C636.522,639.999 636.684,646.093 636.468,652.187C636.117,661.84 639.704,670.469 643.263,679.071C644.503,682.091 646.768,684.707 649.168,688.428C654.777,673.058 666.992,665.427 679.503,657.311L679.503,657.31ZM776.738,679.826C780.729,668.069 784.315,657.58 787.793,647.037C788.171,645.851 788.386,644.314 787.901,643.208C785.232,636.629 781.807,630.508 775.74,626.22C773.664,627.433 771.453,628.323 769.754,629.86C762.366,636.601 756.083,630.939 754.6,623.469C753.899,620.098 753.306,616.728 752.227,613.465C750.582,608.477 746.753,607.047 742.789,610.337C740.146,612.575 737.908,615.595 736.237,618.669C730.305,629.644 724.669,640.807 718.602,652.483C723.429,656.689 728.66,661.193 733.783,665.615C735.724,657.202 737.208,648.87 739.661,640.781C742.87,629.968 750.663,631.155 757.592,636.224C759.048,637.276 760.423,638.678 761.232,640.242C764.09,645.716 767.056,651.163 769.267,656.933C772.017,664.025 774.067,671.413 776.736,679.826L776.738,679.826ZM622.635,757.025C623.228,756.944 623.768,756.836 624.361,756.755C627.354,744.864 630.185,732.918 633.394,721.135C635.335,713.989 638.032,707.113 640.135,700.022C640.593,698.485 640.566,696.436 639.892,694.98C637.249,689.183 634.041,683.682 631.506,677.831C629.43,673.031 627.38,668.07 626.598,663C626.059,659.522 624.468,657.634 621.798,657.257C620.773,657.122 619.182,660.277 617.942,662.057C617.618,662.542 617.753,663.324 617.618,663.971C616.432,671.063 613.546,677.238 609.043,682.981C601.736,692.338 601.951,700.13 608.531,709.784C610.149,712.184 611.2,715.069 611.982,717.873C615.622,730.897 619.128,743.975 622.633,757.026L622.635,757.025ZM640.674,813.354C644.665,804.24 648.035,796.07 651.783,788.034C654.641,781.886 658.254,781.212 663.27,785.877C667.018,789.382 670.416,793.265 674.191,797.229C674.353,795.395 673.948,793.481 674.676,792.618C679.745,786.848 676.213,781.536 674.164,776.143C669.418,763.551 664.511,751.039 659.846,738.393C656.502,729.333 653.509,720.165 650.166,711.105C649.815,710.134 648.359,709.164 647.281,708.975C646.526,708.867 645.07,709.946 644.773,710.809C642.993,715.69 640.998,720.597 639.892,725.693C637.196,738.285 634.877,751.013 632.504,763.713C631.506,769.133 629.133,774.984 630.239,780C632.693,791.082 636.926,801.787 640.674,813.355L640.674,813.354ZM432.454,613.358C432.346,611.309 432.292,608.073 431.942,604.837C430.944,595.75 426.819,591.624 417.974,590.573C416.356,590.357 414.765,589.98 413.147,589.683C402.253,587.715 391.36,585.611 380.385,583.751C372.943,582.484 365.474,581.54 357.977,580.569C353.016,579.976 347.919,578.681 343.093,579.275C333.386,580.434 323.894,581.27 314.295,578.682C310.493,577.63 305.478,577.307 303.725,581.405C301.352,587.095 300.624,593.485 299.006,600.226C344.145,604.675 388.124,608.963 432.454,613.358ZM477.053,768.135C474.977,761.097 472.685,753.628 470.528,746.105C470.285,745.242 470.69,744.164 470.636,743.193C470.636,740.685 470.987,738.097 470.447,735.697C467.562,722.727 464.38,709.838 461.387,696.895C460.443,692.662 459.634,688.266 455.023,686.487C450.304,684.626 448.875,681.418 449.091,676.537C449.28,672.519 448.687,668.34 447.716,664.403C447.365,663.055 444.912,661.787 443.213,661.356C442.512,661.167 440.651,663.217 440.328,664.538C438.602,671.468 437.038,678.479 435.744,685.516C435.42,687.35 436.229,689.372 436.58,691.286C437.497,696.787 438.899,702.234 439.142,707.761C439.277,710.08 437.228,712.669 435.691,714.799C434.828,715.985 433.022,716.525 431.673,717.361L433.318,717.712C433.318,722.673 434.531,728.039 432.994,732.516C431.268,737.72 431.322,741.954 433.668,746.565C435.798,750.745 437.874,754.951 439.924,759.211C440.571,760.532 441.164,761.88 441.515,763.31C443.295,770.887 445.02,778.491 446.746,785.906C456.831,780.001 466.646,774.257 477.054,768.136L477.053,768.135ZM745.944,545.758C740.497,544.976 735.59,544.086 730.682,543.79C729.469,543.736 727.284,545.543 727.069,546.702C726.772,548.536 727.473,550.774 728.471,552.418C729.334,553.874 731.275,554.629 732.543,555.896C749.504,572.83 766.761,589.467 781.645,608.423C787.901,616.431 795.478,623.469 802.381,630.965C805.05,633.85 807.612,636.87 810.201,639.836C811.226,631.935 811.01,624.682 811.28,617.482C811.711,605.24 805.537,596.557 796.584,589.385C786.526,581.296 776.361,573.287 765.952,565.629C761.772,562.582 760.478,560.694 763.067,555.059C767.031,546.403 769.026,536.75 771.075,527.366C772.558,520.571 772.855,513.506 773.718,506.172L749.908,506.172C748.533,519.789 747.212,533.11 745.944,545.756L745.944,545.758ZM598.367,704.822C596.345,706.602 595.644,707.033 595.185,707.653C592.435,711.428 592.893,715.931 592.057,720.192C589.307,734.294 589.253,748.828 583.779,762.58C580.57,770.75 580.57,780.161 578.251,788.79C576.984,793.482 577.092,797.095 580.813,800.169C587.392,805.562 591.14,812.788 594.727,820.312C595.374,821.741 597.154,823.116 598.718,823.656C609.666,827.323 620.694,830.748 632.586,834.523C633.395,831.719 635.984,827.701 635.202,824.519C633.8,818.937 630.348,813.868 627.814,808.556C625.037,802.786 621.369,797.285 619.725,791.218C614.17,770.536 609.29,749.666 604.166,728.849C602.278,721.272 600.499,713.641 598.369,704.824L598.367,704.822ZM739.472,440.569C740.443,442.78 741.386,444.856 742.249,446.96C746.617,457.368 748.72,468.289 749.152,479.533C749.26,482.634 748.37,484.036 745.161,484.252C739.094,484.683 733.108,485.654 727.041,485.978C723.832,486.167 722.538,487.785 722.403,490.508C722.187,494.04 726.313,498.166 729.953,498.085C740.82,497.869 751.713,497.249 762.58,497.357C771.586,497.438 780.619,498.301 789.625,498.948C794.236,499.272 798.82,499.838 803.62,500.296C802.73,490.373 801.84,481.394 801.193,472.415C800.06,457.315 799.09,442.188 797.984,427.115C797.606,421.857 797.175,416.599 796.393,411.395C795.692,406.892 793.346,405.732 789.436,408.186C785.418,410.694 781.778,413.822 777.949,416.653C774.093,419.484 770.264,422.316 766.381,425.147C768.7,426.441 770.776,426.981 772.745,426.711C777.14,426.064 780.133,428.275 782.183,431.592C784.044,434.639 786.443,438.01 786.632,441.326C787.252,452.301 787.36,463.329 786.794,474.25C786.578,477.998 784.125,481.8 782.021,485.171C780.026,488.407 777.572,487.733 776.574,484.173C775.334,479.805 774.66,475.302 773.419,470.933C770.264,459.931 767.271,448.903 763.496,438.117C760.746,430.216 754.733,428.841 748.342,433.722C745.484,435.906 742.652,438.144 739.471,440.571L739.472,440.569ZM500.027,660.978C496.872,671.09 493.852,680.608 490.967,690.208C490.509,691.718 490.293,693.39 490.401,694.954C490.805,701.399 490.859,707.223 486.572,713.128C483.121,717.901 481.206,724.076 483.525,730.817C484.442,733.46 482.366,737.181 481.557,740.362C481.314,741.279 480.29,742.169 480.424,742.978C481.664,751.121 480.397,759.75 484.469,767.111C500.081,762.554 515.613,764.981 531.387,764.954C532.412,760.181 533.301,755.058 534.65,750.07C536.106,744.893 536.322,740.659 534.165,734.97C530.228,724.589 527.424,713.884 520.063,705.147C519.659,704.662 519.416,703.988 519.2,703.394C515.479,691.557 511.731,679.719 508.064,667.882C506.473,662.705 503.588,660.548 500.029,660.979L500.027,660.978ZM564.58,784.314C566.306,778.166 566.872,771.749 569.757,766.625C575.393,756.567 576.282,745.35 579.437,734.726C581.918,726.286 582.942,717.28 586.205,709.164C588.551,703.259 593.944,699.025 592.515,691.26C591.922,687.97 592.218,684.708 590.115,681.768C584.425,673.84 579.06,665.805 580.408,655.181C580.732,652.7 579.896,649.95 579.141,647.469C577.901,643.289 571.834,641.213 570.485,644.422C567.492,651.541 563.663,659.091 563.582,666.479C563.555,672.924 561.856,678.236 559.861,683.817C558.135,688.752 554.98,693.686 554.9,698.648C554.846,708.517 551.125,717.334 548.995,726.637C545.867,740.578 542.82,754.545 539.827,768.135C548.294,773.69 556.464,779.029 564.58,784.314ZM551.152,609.502C548.941,609.502 546.676,609.475 544.384,609.502C536.51,609.61 535.971,608.99 536.025,601.116C536.106,592.784 536.052,584.452 536.052,577.064C532.169,575.635 529.068,574.745 526.237,573.316C525.428,572.912 525.428,570.916 525.078,569.676C526.345,569.433 527.64,568.975 528.853,569.11C531.442,569.38 533.949,570.269 536.484,570.377C542.767,570.593 542.794,570.458 542.794,576.822C542.821,585.693 542.794,594.511 542.794,603.733L553.876,603.733C553.876,594.349 553.822,585.127 553.903,575.933C553.93,570.675 554.281,565.417 554.307,560.132C554.361,538.857 556.95,517.528 552.554,496.388L524.754,496.388C525.293,507.363 525.779,518.014 526.264,528.665C535.54,527.937 544.519,526.724 554.253,531.712C544.357,536.808 535.351,534.058 526.803,533.842C524.835,539.855 528.852,546.65 522.92,551.261C522.758,551.423 522.893,551.908 522.866,552.259C522.677,557.679 522.408,563.099 522.408,568.519C522.354,580.842 522.462,593.165 522.489,605.487C522.516,617.324 522.489,629.189 522.489,640.487L551.152,640.487L551.152,609.502ZM363.209,813.867C364.773,806.883 365.636,799.872 367.982,793.401C370.894,785.285 372.108,777.249 370.759,768.755C369.977,763.82 370.516,758.589 366.633,754.437C365.77,753.547 365.77,751.39 366.013,749.907C366.417,747.75 367.469,745.674 368.143,743.543C370.651,735.615 371.406,728.2 365.662,720.731C362.939,717.145 360.458,711.968 363.748,706.575C364.395,705.523 363.37,703.204 362.723,701.614C360.701,696.518 358.058,691.61 356.467,686.379C353.986,678.371 352.207,670.119 350.103,661.949C346.759,662.65 343.632,667.612 344.737,672.249C346.732,680.959 343.524,687.969 338.023,694.279C334.329,698.566 334.113,703.096 338.374,706.575C342.365,709.838 342.688,713.424 340.019,717.361C338.158,720.219 335.651,722.673 333.763,725.531C330.258,730.762 326.375,735.912 323.894,741.629C322.681,744.379 323.543,748.64 324.757,751.714C326.51,756.055 329.557,759.857 331.741,764.064C338.482,776.818 344.846,789.761 351.749,802.408C354.445,807.369 358.059,811.9 363.209,813.868L363.209,813.867ZM712.589,682.334C714.099,681.525 715.043,680.905 716.094,680.446C717.119,679.988 718.278,679.772 719.276,679.26C723.429,677.076 724.049,674.73 720.409,671.872C715.178,667.8 709.434,664.349 703.88,660.709C700.24,658.363 695.494,659.199 692.582,662.354C691.476,663.513 690.128,664.43 688.834,665.401C684.574,668.367 680.313,671.306 676.08,674.245C674.543,675.351 673.141,676.726 671.415,677.508C665.645,680.124 656.423,694.01 656.584,700.266C656.611,701.21 656.962,702.18 657.312,703.07C659.901,709.461 662.381,715.878 665.078,722.188C670.201,734.187 675.486,746.052 677.617,759.156C678.156,762.257 679.639,767.084 684.682,766.76C686.677,763.767 688.187,760.747 690.372,758.401C694.363,754.141 696.196,749.152 697.383,743.624C698.354,739.202 699.621,734.78 701.32,730.546C704.286,723.077 705.284,714.691 711.755,708.813C715.449,705.442 718.28,705.2 721.867,708.759C722.703,709.595 723.35,710.566 724.213,711.563C731.062,699.537 730.954,696.247 712.591,682.333L712.589,682.334ZM262.739,471.929C257.076,463.759 257.13,454.833 257.67,445.989C258.101,439.221 262.658,435.823 268.645,433.747C275.764,431.266 282.073,433.531 287.089,436.363C291.916,433.505 295.987,431.132 300.463,428.462C293.749,419.779 284.581,416.112 274.253,414.899C271.287,414.521 269.534,414.252 268.86,410.8C267.026,401.093 264.734,391.439 262.55,381.22C266.352,381.22 269.965,381.031 273.498,381.247C285.066,381.975 286.306,371.486 291.996,365.176C290.216,364.313 289.084,363.639 287.87,363.208C278.567,359.81 268.941,359.649 259.261,360.754C255.89,361.132 252.87,361.563 251.441,365.904C250.605,368.358 247.369,371.405 244.943,371.674C237.743,372.456 230.409,371.944 221.78,371.944C221.78,361.805 221.456,351.774 221.969,341.771C222.131,338.643 223.883,335.192 225.852,332.603C228.279,329.421 228.441,327.722 224.477,327.183C220.864,326.725 217.089,327.911 213.368,327.965C208.407,328.046 206.546,330.634 206.384,335.245C205.575,357.302 204.658,379.359 203.876,401.443C203.472,412.957 203.256,424.498 203.04,436.012C203.013,437.9 203.31,439.787 203.498,441.944C205.062,441.674 206.006,441.54 206.923,441.351C214.931,439.814 217.817,442.052 217.871,449.98C217.898,456.667 217.871,463.381 217.871,470.446C224.936,470.797 230.706,471.713 236.315,471.174C243.218,470.473 248.907,471.255 252.521,477.888C252.791,478.4 253.465,478.751 254.166,479.371C256.943,476.971 259.667,474.598 262.741,471.929L262.739,471.929ZM440.57,794.048C439.033,788.52 438.143,784.583 436.876,780.808C434.099,772.53 434.503,763.497 428.921,755.785C425.874,751.579 423.528,745.026 424.364,740.173C425.766,732.461 423.609,727.176 418.728,722.053C414.279,717.361 413.901,714.611 417.515,708.84C422.234,701.236 421.937,694.198 416.652,686.972C411.879,680.393 406.729,673.84 406.459,665.104C406.297,659.684 406.135,654.264 406.135,648.79C406.135,645.527 405.569,642.75 401.551,642.642C397.452,642.507 397.398,646.093 397.237,648.547C396.509,658.173 394.082,667.206 389.255,675.592C387.745,678.235 387.475,680.715 388.716,683.843C392.437,693.335 391.763,702.071 384.051,709.945C377.337,716.821 377.58,721.432 383.916,728.793C387.071,732.514 390.441,736.073 393.92,739.902C383.107,750.31 375.8,761.662 379.278,777.14C379.629,778.65 378.874,780.403 378.604,782.021C376.609,793.076 372.483,803.701 372.51,815.134C372.51,816.536 373.022,818.532 374.047,819.314C380.114,824.087 386.532,828.374 392.599,833.174C395.538,835.52 397.776,835.493 400.85,833.363C404.463,830.855 408.4,828.671 412.472,826.945C416.732,825.084 419.294,822.226 420.912,817.966C424.121,809.499 428.813,802.057 436.713,797.041C438.358,796.016 439.841,794.614 440.569,794.048L440.57,794.048ZM722.727,626.867C725.316,621.285 727.688,616.297 729.927,611.308C735.05,599.875 746.834,596.963 756.19,604.837C756.487,605.134 756.918,605.268 758.266,606.077C757.349,604.729 757.107,604.216 756.729,603.812C745.161,591.651 733.62,579.517 721.918,567.518C720.678,566.224 718.386,565.927 716.714,564.983C715.447,564.255 713.748,563.419 713.316,562.233C710.727,555.249 708.489,548.157 706.009,541.12C705.578,539.88 704.553,538.855 703.798,537.749C702.908,538.774 701.668,539.637 701.102,540.85C699.592,544.355 698.298,547.969 696.922,551.528C696.329,551.609 695.736,551.69 695.142,551.798C693.794,549.048 691.879,546.459 691.178,543.574C689.857,537.858 689.371,531.952 688.131,526.182C687.753,524.564 686.217,522.542 684.76,522.029C683.654,521.625 681.12,522.973 680.446,524.213C678.774,527.314 677.723,530.765 676.563,534.136C674.514,540.257 672.815,546.513 670.469,552.499C668.851,556.625 664.753,558.215 661.247,560.615C650.434,568.003 640.134,576.147 629.887,584.344C616.836,594.806 602.194,603.3 591.22,616.297C589.44,618.4 586.906,619.856 584.991,621.879C581.054,626.166 575.203,628.863 573.45,635.685C585.638,634.202 589.413,642.534 592.19,651.486C594.104,657.769 594.833,664.429 596.747,670.766C597.394,672.923 599.983,674.514 601.682,676.348C603.165,674.622 605.187,673.112 606.05,671.09C608.666,665.104 610.634,658.848 613.196,652.835C613.924,651.055 615.542,649.491 617.106,648.251C620.881,645.285 623.793,642.157 625.114,637.088C626.597,631.533 629.078,626.006 632.017,620.99C639.405,608.29 653.508,608.101 660.977,614.869C665.291,618.779 667.368,625.035 670.495,630.185C671.708,632.153 673.164,634.041 675.214,636.953C679.717,627.273 683.465,619.102 687.294,610.959C690.314,604.488 699.563,601.414 705.279,605.296C708.326,607.372 710.861,610.311 713.126,613.224C716.362,617.296 719.139,621.718 722.725,626.868L722.727,626.867ZM617.026,418.485C613.44,414.899 610.069,411.582 606.806,408.158C603.408,404.599 600.119,400.958 596.775,397.345C595.103,395.592 592.434,394.082 591.921,392.033C590.519,386.182 589.252,380.115 589.144,374.129C588.982,359.137 604.891,352.854 615.273,357.141C611.741,347.299 608.343,337.78 604.757,327.804C598.178,333.952 591.841,339.695 585.72,345.708C580.678,350.643 576.067,356.008 570.943,360.889C566.116,365.5 564.283,370.65 564.31,377.472C564.795,455.507 565.011,533.516 565.308,611.551L565.308,618.535C570.323,615.407 575.339,612.684 579.896,609.313C604.488,591.112 628.972,572.695 653.563,554.467C656.61,552.229 657.662,549.964 655.558,546.701C652.457,541.928 650.839,541.524 646.498,544.49C641.779,547.726 637.114,551.042 632.396,554.386C622.824,538.153 618.833,520.869 620.019,502.156C612.28,501.778 605.162,501.401 597.665,501.023C597.854,502.991 597.989,504.394 598.123,505.823C598.312,507.468 598.527,509.113 598.689,510.731C600.711,527.773 602.545,544.841 613.115,559.321C614.814,561.613 614.517,563.393 611.821,564.903C608.396,566.817 605.026,568.948 601.871,571.294C597.125,574.799 596.64,574.826 594.51,569.272C587.014,549.507 583.266,529.23 586.367,508.089C587.5,500.215 590.007,492.962 602.087,494.472C611.363,495.631 620.773,496.198 630.103,496.252C632.395,496.252 635.038,493.421 636.79,491.291C637.248,490.725 635.361,487.031 633.824,486.276C630.076,484.496 625.896,483.58 621.906,482.258C620.72,481.907 618.643,481.692 618.455,481.018C617.538,477.216 616.298,473.252 616.621,469.423C616.972,464.974 618.94,460.66 619.884,456.183C620.315,454.026 620.828,450.925 619.695,449.496C615.731,444.561 611.066,440.22 606.698,435.609C606.051,435.69 605.458,435.744 604.81,435.771C601.466,450.548 598.15,465.27 594.563,481.045C592.891,479.886 590.006,478.942 589.278,477.135C586.878,471.284 584.397,465.217 583.562,459.015C581.459,443.753 581.189,428.518 591.597,415.225C593.889,417.193 595.884,419.189 598.149,420.726C608.665,428.006 617.806,436.581 624.925,447.259C626.516,449.578 629.024,451.6 631.531,452.922C635.576,455.106 639.378,452.518 639.027,447.987C638.892,446.019 637.787,443.969 636.654,442.271C634.524,439.035 632.043,436.015 629.697,432.941C631.342,431.188 632.852,429.867 633.984,428.249C634.793,427.143 635.71,425.472 635.413,424.366C633.903,418.542 631.988,412.825 629.993,406.488C625.625,410.56 621.58,414.254 617.023,418.487L617.026,418.485ZM526.398,326.617C531.737,327.021 536.294,327.318 540.851,327.723C545.084,328.127 547.43,330.258 547.349,334.761C546.998,353.394 546.702,372.053 546.378,390.686C546.324,394.407 544.41,395.782 540.769,395.917C536.05,396.133 531.358,396.834 526.586,397.319C525.507,406.46 524.51,415.25 523.458,424.203C528.015,424.634 531.386,424.985 534.918,425.336C534.918,420.914 534.837,416.492 534.945,412.123C535.026,407.97 536.617,405.247 541.497,405.517C546.054,405.733 550.665,405.571 556.462,405.571C556.786,392.116 556.974,379.173 557.433,366.203C557.487,364.073 557.999,361.565 559.213,359.92C566.601,350.051 574.044,340.182 581.89,330.744C589.413,321.63 597.476,313.001 605.996,303.402C607.506,309.927 608.099,315.563 610.095,320.659C621.312,349.592 631.478,378.876 638.839,409.049C640.619,416.329 644.825,421.48 650.272,425.767C652.24,427.277 656.015,427.951 658.334,427.142C659.979,426.603 660.977,422.989 661.435,420.59C661.813,418.622 660.599,416.384 660.815,414.334C660.977,412.527 661.921,409.453 662.972,409.292C672.248,407.566 681.658,405.948 691.312,409.535C690.934,412.339 690.395,414.874 690.26,417.49C690.017,421.13 693.55,425.472 697.379,426.334C701.451,427.224 704.039,425.04 705.522,421.615C706.816,418.541 707.679,415.332 708.893,411.719C715.041,415.979 720.784,419.97 726.932,424.231C722.348,428.087 717.818,431.269 714.178,435.233C712.398,437.174 711.077,440.815 711.509,443.376C712.075,446.827 715.311,448.526 719.167,447.825C720.111,447.663 721.135,447.717 721.001,447.717C722.808,445.155 723.778,442.863 725.477,441.434C730.627,437.039 735.939,432.886 741.359,428.842C758.994,415.71 776.71,402.632 794.533,389.689C797.688,387.397 798.173,384.754 797.904,381.222C796.61,366.122 795.693,351.049 794.345,335.975C794.075,333.063 792.97,329.8 791.19,327.562C786.121,321.091 780.35,315.158 775.092,308.822C769.51,302.054 764.198,295.07 758.778,288.221C766.975,287.736 774.39,287.951 781.644,289.138C784.772,289.65 787.873,291.727 790.488,293.776C793.805,296.419 796.474,299.897 799.683,302.728C802.784,305.505 803.97,308.741 803.836,312.813C803.674,317.235 803.809,321.657 803.809,326.322C808.123,326.322 811.871,326.376 815.593,326.295C819.557,326.214 822.415,327.266 822.846,331.796C823.035,334.088 823.709,336.326 823.736,338.591C823.844,347.408 823.79,356.226 823.79,365.367C827.053,365.529 830.882,365.718 835.681,365.96C834.737,352.478 833.955,339.211 832.823,325.972C831.394,308.634 829.533,291.323 828.158,273.984C827.133,261.715 826.729,249.365 825.785,237.069C825.03,227.551 823.924,218.059 822.819,208.594C821.282,194.896 819.745,181.225 817.911,167.554C817.668,165.666 816.023,163.024 814.46,162.458C809.418,160.678 804.186,158.98 798.928,158.656C786.443,157.928 786.524,158.278 786.12,170.709C786.039,173.648 786.875,175.482 789.706,176.156C795.099,177.45 796.879,181.144 797.094,186.322C797.768,203.471 798.847,220.567 799.359,237.663C799.737,249.473 799.44,261.257 799.44,273.148C793.238,272.393 788.088,271.449 782.884,271.234C770.723,270.695 758.508,270.587 746.347,270.101C744.352,270.02 741.817,269.454 740.55,268.16C734.348,261.608 726.609,260.071 718.169,260.475C705.873,261.068 693.55,261.85 681.228,262.389C657.445,263.468 633.609,264.438 609.772,265.382C603.759,265.652 598.636,267.485 594.915,272.635C593.944,274.01 591.868,275.035 590.142,275.358C580.462,277.003 570.754,278.378 561.047,279.861C558.431,280.292 555.816,280.67 552.526,281.209L552.526,259.934C550.827,259.745 549.668,259.691 548.535,259.476C538.396,257.615 537.938,257.103 538.369,246.614C538.612,241.248 539.178,235.882 539.609,230.381C535.834,230.732 532.841,230.974 529.551,231.271C528.526,263.116 527.475,294.53 526.396,326.618L526.398,326.617ZM436.445,932.106C430.729,926.713 425.012,921.347 419.349,915.9C418.81,915.361 418.513,914.498 418.27,913.716C416.679,908.539 415.196,903.362 413.524,898.238C407.079,878.311 400.985,858.088 384.187,843.85C377.742,838.349 370.759,833.388 363.613,828.804C356.333,824.139 348.432,820.418 341.044,815.861C332.388,810.522 327.831,801.947 325.458,792.483C321.683,777.086 313.836,763.847 304.129,751.793C299.734,746.292 293.99,740.441 287.654,738.257C275.277,733.997 262.038,732.837 248.744,735.102C245.373,735.695 241.194,736.477 238.551,735.021C234.291,732.729 230.974,728.63 226.66,724.694C232.97,722.51 237.796,720.865 242.92,719.112C241.707,714.744 240.952,710.564 239.361,706.735C235.478,697.54 232.943,688.291 232.836,678.233C232.728,670.225 231.784,662.216 230.76,654.288C229.735,646.684 227.686,639.242 226.904,631.665C225.852,621.688 226.365,611.576 225.151,601.546C224.369,595.021 225.879,588.252 226.31,582.401C239.604,584.882 252.789,587.336 266.11,589.843C265.463,586.877 265.193,583.722 264.034,580.945C261.823,575.633 261.122,569.97 256.026,565.575C248.773,559.427 240.306,560.074 232.135,558.537C230.922,558.294 229.034,559.67 227.982,560.775C226.364,562.555 225.259,564.739 223.91,566.761C223.128,565.44 223.128,564.631 223.101,563.795C222.885,555.166 226.606,552.011 235.37,552.524C245.185,553.117 254.11,555.949 261.93,561.773C264.195,563.445 265.813,566.114 267.269,568.622C268.671,570.968 268.833,574.231 270.613,576.118C274.307,579.974 273.714,585.097 275.521,589.465C277.193,593.402 277.328,597.366 275.548,601.383C275.332,601.868 275.845,603.19 276.384,603.486C279.674,605.347 278.649,607.989 278.191,610.82C277.463,615.296 277.112,619.961 282.02,623.17C285.121,604.699 288.168,586.525 291.053,569.376C306.827,565.817 321.469,572.504 336.542,570.455C352.235,568.325 367.12,575.039 382.597,574.661C398.236,574.31 412.474,580.89 426.361,582.912C429.004,586.768 431.215,589.842 433.264,593.051C434.855,595.532 436.608,598.039 437.578,600.763C438.899,604.349 439.492,608.178 440.382,611.899C440.948,611.98 441.488,612.088 442.027,612.169C442.917,608.205 444.319,604.322 444.589,600.332C444.967,595.02 448.121,592.054 452.382,590.571C456.481,589.142 461.038,588.279 465.379,588.333C478.16,588.549 490.887,589.331 505.071,589.924C505.071,573.071 505.098,556.137 505.071,539.204C505.044,535.753 505.017,532.247 504.613,528.85C504.209,525.399 502.645,521.758 498.762,522.405C497.198,522.648 495.85,526.773 495.149,529.308C493.693,534.458 492.776,539.689 491.671,544.651C485.334,545.163 479.753,546.727 474.656,545.73C468.077,544.409 458.774,545.433 458.504,534.297C458.477,533.057 456.347,531.034 454.999,530.872C453.489,530.71 451.386,531.843 450.226,533.083C448.042,535.483 446.478,538.449 444.348,540.903C443.162,542.251 441.355,543.707 439.764,543.788C431.971,544.166 424.152,544.139 416.332,544.139C413.959,544.112 412.072,543.519 411.505,540.445C411.262,539.151 409.213,537.641 407.73,537.371C406.732,537.155 404.764,538.557 404.198,539.69C401.933,544.193 398.32,544.867 394.733,544.409C392.01,537.452 389.529,531.035 387.021,524.644L386.05,524.752C384.675,530.603 383.354,536.455 382.167,541.632C376.397,541.066 371.112,540.499 365.8,539.96C365.746,539.475 365.665,538.962 365.638,538.45C366.69,537.911 367.768,537.425 368.766,536.778C371.948,534.675 375.669,533.03 378.015,530.253C380.361,527.503 381.44,523.647 382.761,520.141C384.622,515.233 387.588,514.425 390.958,518.496C392.684,520.599 393.951,523.134 395.03,525.669C397.565,531.547 399.102,532.383 405.142,530.765C425.473,525.318 445.778,519.844 466.163,514.586C468.859,513.858 471.799,513.993 474.63,513.777C474.846,514.262 475.061,514.748 475.277,515.233C473.201,517.201 471.124,519.17 468.401,521.704L468.401,527.474C468.401,537.127 468.401,536.992 478.297,536.966C482.396,536.939 483.366,535.24 483.07,531.546C482.585,526.261 482.531,520.976 482.315,515.718C481.506,496.654 484.364,477.59 481.452,458.526C479.457,445.394 478.998,432.047 477.192,418.888C476.383,412.767 470.774,406.053 464.977,409.531C466.622,419.023 468.186,428.056 469.804,437.466C462.416,434.985 455.944,432.747 449.419,430.644C441.923,428.271 437.015,434.985 430.085,436.522L430.085,424.927C430.085,420.667 429.707,416.541 434.049,413.494C435.856,412.2 435.208,409.557 432.108,408.937C425.852,407.697 421.079,412.469 420.864,420.451C420.486,435.416 420.298,450.355 419.893,465.32C419.569,477.616 419.084,489.939 418.653,502.073C408.353,504.877 399.346,501.803 390.475,497.92C386.916,496.383 383.626,496.086 380.498,498.999C378.664,500.752 376.588,502.316 374.701,503.907C362.917,495.332 363.025,495.467 354.154,504.77C351.592,507.386 351.592,509.731 351.808,513.075C352.32,521.488 351.97,529.955 351.97,538.368C351.512,538.665 351.08,538.961 350.622,539.231C348.222,536.4 344.42,533.865 343.719,530.629C342.371,524.292 342.64,517.551 342.452,510.972C342.29,503.826 342.425,496.627 342.425,488.861L319.182,488.861C318.778,493.715 318.346,498.568 317.915,503.88C312.873,502.828 311.713,505.875 310.176,509.273C309.178,511.511 306.617,514.504 304.702,514.585C302.329,514.639 299.741,512.212 297.529,510.459C296.693,509.785 296.531,508.086 296.37,506.792C295.831,503.314 294.078,501.21 291.516,500.806C288.415,506.738 285.584,512.158 282.753,517.551C282.241,517.551 281.755,517.578 281.27,517.578C280.353,513.668 279.248,509.812 278.574,505.902C277.954,502.451 276.12,500.428 272.804,500.186C269.245,499.889 268.651,502.748 268.112,505.417C268.004,506.064 267.788,506.738 267.842,507.385C268.058,513.803 264.121,518.44 260.858,523.294C259.752,524.912 257.191,525.532 254.171,527.258C254.926,521.11 252.445,518.629 248.616,517.416C244.302,516.068 242.576,519.277 240.581,522.243C238.613,525.047 236.617,528.849 233.786,529.874C226.613,532.436 222.164,537.856 216.879,542.871C218.416,538.422 219.818,533.649 222.892,530.521C225.588,527.798 227.206,525.506 226.721,521.784C226.29,518.494 227.665,516.472 230.307,514.369C236.32,509.596 241.902,504.176 247.834,498.891C245.946,495.898 244.383,493.498 242.738,490.909C237.048,493.794 231.709,496.518 226.128,499.349C225.697,497.327 225.346,495.763 224.888,493.713L200.242,493.713C200.7,499.376 201.644,504.903 201.536,510.458C201.185,527.634 202.48,544.757 199.783,562.068C197.383,577.303 198.516,593.158 198.003,608.744C197.383,626.595 196.439,644.445 191.693,661.837C189.859,668.605 188.134,675.454 185.95,683.597C183.82,681.143 182.741,679.687 181.474,678.42C142.834,639.78 104.22,601.14 65.58,562.526C63.477,560.423 61.374,558.346 59.432,556.055C47.136,541.521 41.689,524.776 43.388,505.712C44.925,488.886 52.151,474.945 63.989,463.081C196.709,330.415 329.401,197.75 462.094,65.057C463.82,63.304 465.572,61.525 467.46,59.907C482.021,47.342 498.874,41.733 518.099,43.378C535.491,44.915 549.675,52.681 561.863,64.923C621.913,125.108 682.044,185.158 742.175,245.262C743.415,246.502 744.764,247.878 746.355,248.498C759.298,253.379 772.753,251.141 787.584,251.626C785.589,249.037 784.591,247.446 783.324,246.179C762.13,224.931 740.909,203.683 719.634,182.462C673.444,136.245 627.199,90.027 581.036,43.81C563.266,26.04 541.991,16.01 516.806,14.85C487.28,13.502 462.553,24.18 441.71,45.023C323.336,163.532 204.853,281.961 86.398,400.389C71.244,415.543 55.874,430.535 40.963,445.986C25.081,462.488 16.29,482.415 14.861,505.308C13,535.805 23.786,561.179 45.358,582.75C155.643,692.765 265.766,802.997 375.89,913.147C398.999,936.256 421.999,959.445 445.297,982.392C461.503,998.382 481.268,1007.334 503.918,1009.006C534.658,1011.298 560.598,1000.755 582.439,978.86C669.238,891.818 756.28,804.938 843.213,718.032C889.08,672.165 934.92,626.299 980.786,580.459C997.288,563.957 1007.076,544.138 1009.018,520.975C1011.58,490.262 1001.441,464.026 979.519,442.211C937.185,400.065 895.012,357.785 852.732,315.558C851.653,314.425 850.44,313.428 848.175,311.378C849.955,324.564 852.166,336.32 852.867,348.212C853.325,356.005 857.343,360.643 862.359,365.577C894.797,397.8 927.074,430.157 959.378,462.515C988.419,491.556 988.419,532.461 959.351,561.556C924.971,596.044 890.51,630.424 856.077,664.83C854.864,666.043 853.542,667.176 851.574,668.929C850.9,655.716 850.253,643.474 849.633,631.259C845.265,632.014 841.301,632.742 837.472,633.389C836.96,641.182 836.501,648.894 835.908,656.552C835.611,660.246 833.697,662.727 829.787,663.104C826.551,663.455 823.289,663.643 820.295,663.886C819.729,667.149 819.082,670.169 818.731,673.27C818.38,676.371 819.162,678.582 823.126,678.447C829.139,678.258 835.152,678.393 841.597,678.393C836.689,687.372 829.652,685.754 821.374,683.139C827.36,693.898 823.1,700.558 814.228,705.627C814.039,704.764 813.743,704.009 813.662,703.2C812.287,686.913 807.972,671.301 802.202,656.066C801.366,653.909 799.748,651.86 798.022,650.269C797.51,649.811 794.301,650.862 794.058,651.725C790.768,663.994 788.234,676.505 784.513,688.64C782.814,694.276 779.363,699.507 775.803,704.306C774.778,705.681 770.788,704.872 768.145,705.115C767.282,705.169 766.419,705.304 765.934,705.385C765.934,702.635 766.5,699.992 765.853,697.673C763.21,687.993 760.325,678.42 757.332,668.875C755.418,662.7 753.206,656.579 751.157,650.485C749.728,652.885 749.404,655.258 749.108,657.631C747.733,668.686 747.032,679.877 744.821,690.717C742.745,700.748 739.051,710.482 736.084,720.324C735.275,722.94 735.167,726.175 733.495,728.063C731.095,730.867 731.985,732.728 733.468,735.397C742.178,727.065 751.858,721.348 763.534,719.488C775.048,717.627 785.699,722.238 798.291,723.101C794.435,726.741 791.631,729.087 789.177,731.757C786.831,734.373 784.512,735.559 780.683,734.993C766.634,732.89 753.799,735.964 742.232,744.592C739.104,746.938 738.079,749.5 738.915,752.897C740.209,758.317 741.584,763.683 743.391,768.914C745.791,776.114 745.71,776.788 737.971,781.587C729.909,760.932 720.875,740.87 716.211,718.085C715.375,719.838 714.944,720.512 714.701,721.24C711.708,731.217 709.011,741.302 705.56,751.144C703.915,755.836 701.65,760.932 698.118,764.168C694.801,767.188 693.912,770.316 693.157,774.172C692.456,777.65 691.485,781.156 690.137,784.419C687.602,790.621 684.933,796.823 681.859,802.755C679.567,807.123 681.131,810.386 683.342,814.026C685.958,818.34 688.142,822.924 690.218,827.508C690.649,828.479 690.137,830.258 689.463,831.283C688.088,833.467 686.254,835.436 684.852,837.242C680.349,828.802 676.547,821.279 672.367,813.945C668.08,806.476 663.442,799.222 658.426,790.917C651.901,808.795 645.968,825.108 640.252,840.775C644.782,847.651 649.663,854.797 654.247,862.131C654.894,863.183 655.002,865.529 654.301,866.364C650.607,870.732 646.562,874.777 642.787,878.768C637.799,870.921 633.835,863.506 628.792,856.954C622.132,848.352 614.555,840.209 603.176,837.998C591.527,835.76 579.879,833.765 567.664,835.409C551.971,837.485 536.574,840.128 522.121,846.734C507.587,853.394 496.154,863.937 487.04,876.934C477.737,890.228 473.585,905.57 470.322,921.237C469.891,923.34 468.812,925.794 467.221,927.115C460.642,932.751 453.766,937.982 446.728,943.59C443.735,940.435 441.497,938.116 439.448,935.932C443.52,931.645 447.456,927.492 451.366,923.313C453.092,921.399 455.249,919.646 456.193,917.408C458,913.175 459.537,908.779 460.346,904.303C466.062,872.431 484.587,850.185 512.657,835.543C527.811,827.669 544.367,823.759 561.382,822.007C565.75,821.576 570.038,821.009 574.379,820.524C570.173,815.859 566.209,811.275 562.083,806.826C553.751,797.82 546.147,787.978 534.417,782.881C528.431,780.292 522.795,776.841 516.674,774.792C513.762,773.821 510.041,774.792 506.778,775.466C504.243,775.978 501.978,777.65 499.471,778.27C495.993,779.106 492.271,779.025 488.901,780.023C472.992,784.688 459.348,793.209 448.05,805.289C446.162,807.284 445.165,810.143 443.763,812.596C446.432,813.081 449.075,813.621 451.745,813.998C456.275,814.672 460.805,815.184 465.281,815.778C465.416,816.371 465.497,816.937 465.578,817.558C463.421,818.664 461.345,820.066 459.053,820.767C451.773,822.951 444.357,824.92 436.996,826.942C424.511,830.367 413.483,836.568 403.29,844.685C422.003,871.164 430.632,901.149 436.456,932.104L436.445,932.106ZM783.856,223.423C783.317,212.475 783.02,201.528 782.103,190.607C781.887,188.072 780.135,185.187 778.22,183.354C774.769,179.983 774.175,176.127 774.391,171.705C774.553,167.606 774.256,163.454 774.364,159.328C774.553,151.427 778.678,147.571 786.552,147.598C798.848,147.625 811.063,147.679 823.008,151.454C826.486,152.533 828.617,153.638 829.075,157.683C830.423,169.871 832.203,182.059 833.767,194.22C836.41,214.201 839.133,234.155 841.533,254.135C842.612,262.952 842.692,271.851 843.879,280.614C844.31,283.904 845.847,287.679 848.112,289.998C895.138,337.321 942.218,384.482 989.46,431.535C1013.89,455.803 1025.781,484.979 1023.732,519.332C1022.087,547.052 1010.978,570.888 991.321,590.599C897.727,684.193 804.16,777.76 710.566,871.327C671.252,910.668 631.829,949.875 592.623,989.351C568.355,1013.781 539.26,1025.78 504.853,1023.785C476.54,1022.113 452.542,1010.491 432.48,990.43C375.099,932.968 317.638,875.561 260.23,818.153C184.864,742.76 109.498,667.34 34.078,592.028C9.675,567.652 -1.947,538.368 0.264,504.043C2.071,476.323 13.45,452.649 33.134,432.964C86.119,380.006 139.078,327.02 192.036,274.035C272.094,194.004 352.179,113.973 432.183,33.888C456.559,9.512 485.896,-2.029 520.276,0.29C547.618,2.124 571.05,13.26 590.519,32.674C652.969,95.043 715.392,157.493 777.788,219.943C779.163,221.318 779.972,223.233 781.078,224.878C781.995,224.393 782.912,223.907 783.855,223.422L783.856,223.423Z" style="fill:rgb(69,28,21);fill-rule:nonzero;"/>
    </g>
    <g transform="matrix(0.058594,0,0,0.058594,0.000093,0.000094)">
        <path d="M442.172,481.485C437.831,484.478 435.026,486.446 431.063,489.197C431.467,484.91 430.847,480.892 432.492,478.303C433.436,476.847 438.101,477.764 442.01,477.521C442.118,476.793 442.657,475.121 442.657,473.476C442.657,461.531 447.133,458.457 457.919,463.122C461.721,460.533 465.496,458.026 469.918,455.087L469.918,470.322L458.188,470.322C455.923,483.103 458.242,487.013 469.432,489.79L469.432,497.475C467.032,497.34 464.821,497.044 462.61,497.205C458.269,497.583 453.927,498.284 449.613,498.769C444.705,499.308 439.825,499.955 434.917,500.144C433.892,500.171 432.76,498.553 431.708,497.69C432.679,496.827 433.622,495.91 434.674,495.155C437.478,493.133 440.768,491.623 442.898,489.061C443.869,487.928 442.574,484.855 442.17,481.484L442.172,481.485Z" style="fill:rgb(69,28,21);fill-rule:nonzero;"/>
    </g>
    <g transform="matrix(0.058594,0,0,0.058594,0.000093,0.000094)">
        <path d="M440.63,441.055C445.295,440.785 449.151,440.597 453.492,440.354C452.063,445.531 450.796,450.007 449.501,454.456C449.097,454.618 448.665,454.753 448.234,454.914C445.834,450.519 443.407,446.097 440.63,441.054L440.63,441.055Z" style="fill:rgb(69,28,21);fill-rule:nonzero;"/>
    </g>
    <g transform="matrix(0.058594,0,0,0.058594,0.000093,0.000094)">
        <path d="M470.445,445.671C465.268,449.824 460.927,453.329 456.558,456.807C456.046,456.51 455.506,456.241 454.994,455.944C456.531,451.738 458.014,447.45 459.74,443.298C459.902,442.894 461.52,442.813 462.356,443.055C464.675,443.648 466.94,444.484 470.445,445.671Z" style="fill:rgb(69,28,21);fill-rule:nonzero;"/>
    </g>
    <g transform="matrix(0.058594,0,0,0.058594,0.000093,0.000094)">
        <path d="M431.753,443.88C435.609,444.797 441.002,456.095 439.222,459.519C432.13,456.984 430.189,452.913 431.753,443.88Z" style="fill:rgb(69,28,21);fill-rule:nonzero;"/>
    </g>
    <g transform="matrix(0.058594,0,0,0.058594,0.000093,0.000094)">
        <path d="M470.247,487.431C467.065,483.71 461.025,484.114 462.886,477.319C465.259,477.643 467.713,478.02 470.247,478.398L470.247,487.431Z" style="fill:rgb(69,28,21);fill-rule:nonzero;"/>
    </g>
    <g transform="matrix(0.058594,0,0,0.058594,0.000093,0.000094)">
        <path d="M431.478,472.404C431.721,468.629 431.882,465.528 432.152,461.591C434.147,462.724 435.738,463.586 437.383,464.503C437.032,467.011 436.736,469.384 436.358,472.053C434.956,472.134 433.581,472.269 431.477,472.404L431.478,472.404Z" style="fill:rgb(69,28,21);fill-rule:nonzero;"/>
    </g>
    <g transform="matrix(0.058594,0,0,0.058594,0.000093,0.000094)">
        <path d="M733.824,289.371C751.809,317.279 778.396,338.662 793.308,368.997C790.531,370.318 787.807,371.64 784.248,373.365C781.902,370.588 779.125,367.702 776.86,364.413C770.119,354.571 763.944,344.297 756.825,334.725C751.729,327.903 745.446,322.025 739.783,315.823C737.033,327.714 734.174,339.848 731.316,352.144C732.125,351.847 734.012,351.524 735.469,350.553C739.46,347.857 743.531,348.261 747.711,349.663C761.166,354.328 767.018,364.682 763.863,378.596C762.218,385.796 759.953,392.672 754.21,398.118C749.06,403.026 744.665,408.769 739.892,414.108C737.762,416.454 735.82,416.427 733.178,414.216C726.68,408.688 719.965,403.349 713.089,398.307C709.988,396.042 711.93,393.804 712.469,391.809C716.433,376.844 721.152,362.04 724.603,346.913C727.192,335.615 728.297,323.993 729.942,312.479C730.967,305.037 731.776,297.568 732.665,290.098C733.069,289.855 733.447,289.613 733.824,289.37L733.824,289.371Z" style="fill:rgb(69,28,21);fill-rule:nonzero;"/>
    </g>
    <g transform="matrix(0.058594,0,0,0.058594,0.000093,0.000094)">
        <path d="M695.976,392.138L654.855,392.138C652.105,380.894 646.847,369.811 646.388,357.138C646.037,348.186 645.04,339.314 646.307,330.308C647.547,321.356 653.587,316.664 660.895,314.21C666.719,312.242 673.38,312.08 679.635,312.269C685.702,312.431 690.097,316.341 691.472,322.354C693.629,331.738 694.492,341.445 697.323,350.613C701.718,364.796 692.847,377.901 695.975,392.138L695.976,392.138Z" style="fill:rgb(69,28,21);fill-rule:nonzero;"/>
    </g>
    <g transform="matrix(0.058594,0,0,0.058594,0.000093,0.000094)">
        <path d="M584.882,290.598C575.121,303.433 565.36,316.268 554.709,330.29C554.358,318.587 554.035,308.017 553.846,297.447C553.819,296.746 554.763,295.559 555.464,295.425C565.09,293.295 574.771,291.299 584.424,289.277L584.882,290.598Z" style="fill:rgb(69,28,21);fill-rule:nonzero;"/>
    </g>
    <g transform="matrix(0.058594,0,0,0.058594,0.000093,0.000094)">
        <path d="M705.524,296.117C688.132,296.117 671.225,295.982 654.372,296.171C648.17,296.252 642.022,297.169 635.847,297.681C630.319,298.139 632.557,293.205 630.05,290.158C656.098,289.619 681.148,289.106 706.926,288.594C706.468,291.048 706.09,292.989 705.524,296.117Z" style="fill:rgb(69,28,21);fill-rule:nonzero;"/>
    </g>
    <g transform="matrix(0.058594,0,0,0.058594,0.000093,0.000094)">
        <path d="M249.556,396.568C251.983,404.388 254.221,411.668 256.405,418.571C252.98,422.373 249.799,425.986 246.32,429.842C241.952,426.013 237.287,422.157 232.892,418.032C232.272,417.466 232.299,415.174 232.946,414.473C238.15,408.595 243.624,402.905 249.556,396.569L249.556,396.568Z" style="fill:rgb(69,28,21);fill-rule:nonzero;"/>
    </g>
    <g transform="matrix(0.058594,0,0,0.058594,0.000093,0.000094)">
        <path d="M241.903,456.948L224.592,456.948L224.592,434.298C230.228,437.426 235.243,439.826 239.719,442.927C241.148,443.952 241.553,446.891 241.822,449.021C242.173,451.717 241.903,454.522 241.903,456.949L241.903,456.948Z" style="fill:rgb(69,28,21);fill-rule:nonzero;"/>
    </g>
    <g transform="matrix(0.058594,0,0,0.058594,0.000093,0.000094)">
        <path d="M223.281,385.478C227.946,384.993 232.449,384.534 236.952,384.076L237.707,385.047C233.177,390.413 228.674,395.806 223.281,402.223L223.281,385.478Z" style="fill:rgb(69,28,21);fill-rule:nonzero;"/>
    </g>
</svg>
