<?xml version="1.0" encoding="UTF-8" standalone="no"?>
<!DOCTYPE svg PUBLIC "-//W3C//DTD SVG 1.1//EN" "http://www.w3.org/Graphics/SVG/1.1/DTD/svg11.dtd">
<svg width="100%" height="100%" viewBox="0 0 61 61" version="1.1" xmlns="http://www.w3.org/2000/svg" xmlns:xlink="http://www.w3.org/1999/xlink" xml:space="preserve" xmlns:serif="http://www.serif.com/" style="fill-rule:evenodd;clip-rule:evenodd;stroke-linejoin:round;stroke-miterlimit:2;">
    <g transform="matrix(0.058594,0,0,0.058594,-0.000773,-0.00002)">
        <path d="M507.485,0.079C478.538,1.091 453.446,12.602 432.115,33.932C352.104,114.05 271.979,194.068 191.942,274.105C139.06,326.96 86.25,379.839 33.341,432.667C13.655,452.353 2.178,475.997 0.317,503.692C-2.029,537.778 9.229,567.117 33.499,591.387C77.05,634.885 120.596,678.457 164.093,721.981C253.38,811.241 342.645,900.465 431.878,989.806C454.045,1011.973 480.518,1023.637 511.988,1024.015C542.946,1023.664 569.372,1012.441 591.269,990.517C724.782,857.031 858.336,723.544 991.821,590.004C1030.761,550.983 1034.895,489.315 1001.618,445.386C998.085,440.64 994.066,436.241 989.886,432.034C856.859,298.98 723.81,165.971 590.756,32.943C571.232,13.392 547.659,2.081 520.126,0.275C515.835,-0.012 511.621,-0.067 507.485,0.077L507.485,0.079ZM512.028,12.325C536.747,12.326 561.433,21.73 580.209,40.49L983.527,443.808C1021.044,481.357 1021.044,542.621 983.527,580.17L580.209,983.488C561.432,1002.25 536.748,1011.653 512.028,1011.653C487.308,1011.653 462.585,1002.249 443.808,983.488L40.53,580.17C2.983,542.623 2.983,481.355 40.53,443.808L443.808,40.49C462.572,21.726 487.31,12.324 512.028,12.325Z" style="fill:rgb(69,28,21);fill-rule:nonzero;"/>
    </g>
    <g transform="matrix(0.058594,0,0,0.058594,-0.000773,-0.00002)">
        <path d="M134.251,588.758C131.554,589.082 128.885,589.432 125.487,589.837C126.647,583.958 127.725,578.295 128.858,572.632C129.155,571.203 129.613,569.774 129.748,568.344C130.368,562.6 132.66,558.151 138.35,555.804C140.858,554.806 143.096,553.188 146.764,551.112C143.123,550.276 140.993,549.818 138.809,549.332C139.51,541.539 144.742,537.709 150.755,534.635C154.665,532.612 158.872,531.102 162.836,529.134C165.506,527.786 168.445,526.195 167.097,522.392C165.803,518.778 163.915,515.003 159.25,515.462C154.18,515.974 149.164,517.35 143.636,518.455C143.798,517.295 144.337,515.623 144.283,513.979C144.175,510.932 144.445,507.534 143.231,504.918C140.885,499.794 135.249,499.767 132.39,504.621C130.502,507.992 129.181,511.713 127.32,515.866C126.133,514.895 125.028,513.897 123.814,512.927C121.306,510.958 118.528,508.855 115.535,511.606C112.757,514.195 111.436,517.485 113.728,521.314C117.503,527.651 121.494,533.908 124.704,540.514C126.079,543.372 125.837,547.04 126.43,551.193C122.628,548.415 119.85,546.42 117.073,544.397C116.561,544.586 116.048,544.802 115.509,544.99C126.673,562.006 116.21,577.97 114.403,594.231C109.603,590.375 104.857,586.545 100.084,582.689C99.653,583.12 99.248,583.525 98.844,583.956C102.053,590.401 105.262,596.819 108.876,604.1C107.258,603.561 106.853,603.561 106.638,603.345C90.35,586.976 73.118,571.389 58.017,553.996C36.309,528.971 38.304,490.516 60.902,466.273C62.466,464.601 64.111,462.956 65.756,461.338C197.732,329.335 329.734,197.387 461.629,65.33C474.115,52.844 488.434,44.754 506.232,43.325C525.109,41.788 541.693,47.289 556.067,59.505C558.305,61.42 560.409,63.55 562.485,65.653C694.703,197.871 826.895,330.09 959.167,462.254C971.437,474.47 979.122,488.708 980.579,506.075C982.17,524.736 977.532,541.914 964.749,555.424C943.472,577.995 921.144,599.569 899.247,621.547C898.681,622.14 897.791,623.111 897.359,622.976C890.968,620.738 888.082,626.023 884.469,629.124C883.336,622.436 882.473,615.883 881.071,609.438C880.666,607.496 878.86,605.878 877.7,604.126C876.028,605.798 873.574,607.2 872.873,609.169C869.61,618.149 869.475,627.56 870.203,636.972C870.257,637.781 870.338,638.536 870.527,640.073C861.412,640.073 852.594,640.235 843.857,639.938C842.724,639.884 840.567,637.511 840.702,636.405C841.565,628.639 842.428,620.764 844.316,613.214C845.017,610.463 848.415,608.279 850.788,606.041C853.323,603.587 856.074,601.322 858.986,598.787C853.997,595.416 850.303,598.221 845.61,600.405C847.956,590.886 850.356,582.499 852.055,573.977C853.7,565.806 858.635,560.79 865.7,557.231C868.882,555.64 871.848,553.617 874.815,550.543C871.471,550.3 868.127,550.031 863.92,549.761C871.309,544.368 878.994,542.75 886.869,541.509C890.941,540.862 897.143,540.754 896.712,535.873C896.442,532.934 890.51,530.183 886.734,528.053C884.954,527.082 882.258,527.675 879.588,527.568C881.53,523.577 879.642,520.88 876.541,519.262C870.15,515.918 865.862,521.096 860.604,523.765C858.15,522.201 855.669,520.232 852.865,518.938C850.438,517.805 847.633,516.889 845.018,516.942C841.108,517.05 839.598,521.041 842.16,523.98C849.819,532.798 851.598,542.857 849.037,553.994C848.713,555.342 848.767,556.772 848.606,558.632C846.206,555.774 844.291,552.942 841.81,550.812C840.435,549.625 838.035,549.625 836.093,549.113C836.282,551.082 835.985,553.239 836.74,554.992C838.655,559.495 841.136,563.783 843.131,568.26C843.562,569.258 843.077,570.714 842.78,571.901C840.596,579.775 838.384,587.623 836.2,595.362C832.883,592.8 829.27,589.996 825.683,587.218C825.225,587.515 824.766,587.811 824.308,588.081C824.443,590.104 824.011,592.369 824.82,594.068C828.622,602.131 829.108,610.626 830.106,619.336C830.834,625.835 830.16,631.687 829.567,637.593L803.49,637.593C801.953,629.071 800.605,621.008 799.014,613.026C793.486,585.007 788.335,556.908 782.187,529.051C777.225,506.453 768.326,485.149 757.728,464.681C753.737,456.968 748.586,449.849 743.732,442.568C742.95,441.381 741.035,440.923 739.66,440.141C739.255,440.519 738.824,440.896 738.42,441.274C739.822,444.24 741.225,447.18 742.519,450.2C746.645,459.665 751.014,469.05 754.735,478.677C759.4,490.731 763.904,502.839 767.76,515.163C770.16,522.768 771.104,530.831 773.046,538.597C778.358,560.117 782.457,581.798 784.264,603.938C784.938,611.866 787.257,619.66 788.417,627.561C789.415,634.222 789.819,640.937 790.386,647.678C791.546,661.431 792.624,675.184 793.73,688.964C793.811,690.231 793.73,691.526 793.73,693.629C790.683,691.337 788.256,689.557 785.802,687.777C782.054,685.08 778.116,683.786 774.071,686.995C770.134,690.15 768.651,694.357 770.35,699.211C771.321,701.962 772.75,704.523 774.368,708.002C769.945,708.002 765.793,708.164 761.694,707.84C760.723,707.759 759.267,706.033 759.051,704.874C757.433,695.517 756.381,686.105 754.575,676.775C752.499,666.042 749.91,655.39 747.51,644.684C743.896,628.45 740.175,612.243 736.615,595.955C730.979,570.363 723.455,545.338 714.125,520.771C703.338,492.402 689.235,466.001 670.547,442.055C668.767,439.736 666.772,437.605 664.479,435.017C666.043,434.505 667.014,433.884 668.066,433.83C678.152,433.345 688.291,432.886 698.377,432.67C699.294,432.643 700.804,434.126 701.155,435.151C703.474,442.297 705.416,449.524 707.762,456.644C709.488,461.956 711.564,467.134 713.506,472.366C714.234,472.393 714.935,472.474 715.636,472.528C718.063,466.622 721.218,460.932 722.62,454.811C724.049,448.501 723.564,441.759 724.265,435.287C724.4,434.047 725.964,432.59 727.204,431.943C731.923,429.516 736.777,427.278 741.631,425.093C742.925,424.473 744.301,424.014 745.703,423.799C749.37,423.152 753.146,422.909 756.732,422.046C758.566,421.615 761.101,420.536 761.694,419.107C764.337,412.797 767.033,406.54 770.647,401.848C773.802,399.691 778.71,397.938 778.791,396.023C778.926,392.14 776.418,388.203 775.016,384.265C774.558,384.454 774.072,384.616 773.614,384.75C773.749,384.48 773.83,384.184 773.965,383.914C775.718,380.921 779.439,377.388 778.819,375.069C777.552,370.35 772.536,368.112 767.682,367.518C763.529,366.979 759.295,367.383 754.468,367.383C756.383,365.711 758.648,364.228 760.212,362.151C763.502,357.782 762.558,355.194 757.3,353.468C755.466,352.848 753.498,352.74 751.556,352.524C749.803,352.362 747.996,352.308 746.001,352.173C746.648,346.564 748.94,340.712 742.954,337.206C739.071,334.914 736.266,337.799 734.271,340.442C731.359,336.235 728.959,331.759 725.588,328.145C722.163,324.478 718.658,325.529 717.201,330.383C715.799,334.994 715.071,339.794 714.046,344.514C712.05,343.381 711.592,336.316 712.374,331.058C713.129,325.907 712.293,320.487 713.21,315.336C714.073,310.509 716.284,305.844 717.875,301.098C712.347,300.64 710.001,303.255 707.169,313.718C703.528,305.979 699.807,299.345 699.052,291.201C698.243,282.572 702.854,275.722 705.362,268.09C699.052,269.357 699.241,269.438 696.355,275.91C695.573,277.663 693.011,278.58 690.395,280.548C689.505,277.042 688.534,274.615 688.292,272.107C687.429,264.071 684.004,256.089 689.02,248.026C690.962,244.871 689.182,241.069 685.811,239.801C683.087,238.83 679.663,239.208 676.723,239.855C675.294,240.125 674.296,242.39 672.705,242.471C669.199,242.471 665.613,242.066 662.161,242.552C656.687,243.361 654.772,247.972 654.044,252.503C653.586,255.415 652.264,256.575 650.107,258.031C644.39,261.86 644.039,269.303 649.649,271.434C652.13,272.378 655.636,271.299 658.521,270.544C664.939,268.899 675.564,271.677 677.964,275.937C678.234,276.449 678.315,277.124 678.395,277.447C674.296,277.771 670.278,278.121 666.314,278.472C666.179,279.227 666.071,280.009 665.936,280.764C669.361,282.166 672.678,284.081 676.264,284.917C680.794,285.942 683.221,288.342 684.839,292.603C687.293,298.832 690.421,304.792 693.468,311.318L682.654,311.318L682.276,312.801C685.188,314.743 688.101,316.684 691.013,318.599C698.537,323.642 700.209,331.462 700.802,339.66C700.856,340.388 698.456,342.06 697.35,341.979C695.921,341.817 694.68,340.199 693.224,339.471C688.613,337.125 683.92,334.887 679.255,332.594C679.255,330.383 680.495,326.311 678.985,323.884C676.288,319.461 671.084,319.758 666.472,321.16C663.533,322.077 660.782,323.56 657.115,325.151C652.827,311.91 642.769,306.409 629.15,309.187C618.93,311.263 616.691,320.621 614.696,329.547C611.757,328.01 609.006,326.554 606.741,325.394C607.847,321.241 609.465,317.115 609.869,312.854C610.274,308.647 607.037,305.977 602.696,306.004C595.846,306.031 590.911,309.564 587.19,315.011C585.545,317.411 584.197,320.054 582.714,322.562C569.123,314.04 565.186,316.171 564.188,332.863C561.464,333.456 558.633,334.13 555.343,334.859C555.343,327.848 554.938,321.079 555.478,314.418C555.909,309.267 562.004,304.521 567.586,304.629C571.793,304.737 575.946,305.869 580.126,306.301C581.528,306.463 583.82,306.274 584.252,305.438C584.899,304.359 584.71,301.663 583.874,301.069C580.611,298.777 577.159,296.161 573.411,295.325C569.096,294.3 564.404,295.082 559.955,295.082C561.546,282.812 567.155,272.079 582.176,276.556C584.603,277.284 588.405,280.25 589.862,276.232C590.401,274.668 587.273,270.866 585.008,269.436C582.096,267.71 578.347,267.36 574.922,266.443C577.241,257.598 583.039,255.98 592.531,258.191C594.904,258.73 597.169,260.375 599.488,260.348C601.564,260.321 604.315,259.215 605.502,257.678C607.39,255.305 607.686,252.231 605.232,249.534C602.751,246.783 597.789,237.669 597.007,234.783C595.389,228.769 590.805,225.911 584.764,227.879C580.395,229.281 576.809,230.117 572.656,226.692C570.876,225.182 566.723,225.371 564.134,226.261C561.626,227.151 560.116,229.821 562.57,232.976C564.7,235.7 566.804,238.531 568.152,241.659C570.741,247.511 571.199,253.363 566.345,258.621C564.457,260.644 563.055,263.097 561.14,265.74C556.529,259.672 552.511,253.146 544.124,253.713C542.209,253.821 540.483,255.816 537.733,257.488C540.753,259.322 542.56,260.697 544.61,261.587C549.14,263.583 551.487,266.899 551.729,271.861C552.16,280.329 550.623,288.365 546.902,296.293C542.506,294.567 538.246,291.951 532.771,295.511C546.767,305.111 543.747,319.026 543.531,332.536L536.169,332.536C537.841,323.637 536.574,318.891 530.371,316.626C523.252,314.064 519.827,320.725 515.162,324.339C512.816,321.723 510.551,318.919 507.989,316.357C505.184,313.472 501.598,311.773 497.876,314.092C494.155,316.438 493.4,320.294 494.667,324.474C495.206,326.146 495.638,327.899 496.123,329.706C491.808,330.758 487.736,331.729 483.152,332.834C483.314,331.324 483.557,329.652 483.637,327.98C483.799,323.045 484.581,318.056 483.853,313.256C482.424,303.791 482.963,302.523 492.24,301.229C492.914,301.148 493.588,301.121 494.182,300.905C497.391,299.826 498.119,297.076 495.153,295.673C491.566,293.947 487.279,293.57 482.64,292.464C479.188,284.536 481.453,279.331 490.838,275.529C492.995,274.639 495.018,273.399 497.31,272.239C491.998,266.441 491.701,266.441 479.566,271.025C478.946,262.396 473.525,254.333 477.49,245.433C478.569,242.979 480.133,240.741 481.697,238.529C482.83,236.992 484.313,235.697 486.605,233.243C482.722,232.488 479.89,231.895 475.414,231.032C478.084,228.902 480.592,227.311 482.56,225.207C485.149,222.483 487.522,219.463 489.598,216.335C491.728,213.072 492.295,209.297 489.113,206.438C485.931,203.579 482.209,200.991 477.652,203.822C474.901,205.548 472.366,207.624 470.344,209.108C466.515,206.762 462.982,203.607 458.883,202.339C456.186,201.503 452.438,202.851 449.579,204.173C444.968,206.276 443.943,211.319 445.48,218.654C441.273,219.301 436.932,219.544 432.94,220.838C431.484,221.296 430.001,224.263 430.028,226.043C430.217,236.29 439.224,235.508 445.992,237.801C444.617,240.093 443.403,242.116 441.542,245.217C445.992,246.646 449.713,248.21 453.623,249.019C458.585,249.99 462.064,252.174 463.601,257.244C464.976,261.747 466.756,266.089 468.563,271.132C464.302,270.727 460.797,269.999 457.372,270.242C455.403,270.404 453.57,272.13 451.655,273.127C453.165,274.475 454.46,276.444 456.239,277.172C468.374,281.864 472.419,288.013 470.343,299.528C464.248,300.337 457.48,300.094 453.03,307.591C458.262,307.834 462.981,308.346 467.673,308.238C470.963,308.157 472.554,308.75 472.392,312.472C472.149,319.241 472.311,325.982 472.311,332.751C472.311,335.367 471.853,337.47 468.05,336.499C468.697,332.562 471.205,328.517 466.513,325.038C462.387,321.964 458.342,321.937 454.081,323.744C450.98,325.038 448.148,326.926 445.425,328.463C444.077,323.906 443.106,319.267 441.326,314.953C439.951,311.609 437.524,308.778 433.155,308.885C428.921,308.939 426.521,311.177 425.308,315.06C424.31,318.134 423.205,321.235 422.153,324.364C421.937,324.391 421.506,324.607 421.344,324.445C411.609,316.409 406.189,322.072 397.344,332.589C395.888,334.261 394.728,336.553 394.405,338.71C393.812,342.593 391.627,342.593 388.931,342C387.259,336.121 391.709,328.355 383.969,324.687C377.497,321.613 373.344,326.817 369.704,330.134C365.416,326.979 361.587,323.878 357.461,321.181C354.198,319.051 352.068,320.669 350.45,323.878C347.807,329.164 349.021,334.098 351.34,339.006C352.392,341.19 353.416,343.375 354.819,346.233C350.396,345.424 346.648,344.804 342.9,344.022C334.999,342.431 326.315,346.88 323.942,353.811C321.839,360.013 321.839,360.013 315.286,360.553C313.506,340.975 327.906,335.339 342.091,329.137C335.161,326.305 328.338,326.144 321.327,329.703C324.698,313.631 333.705,303.383 349.588,299.554C346.676,296.129 346.352,296.075 336.239,296.399C337.911,295.401 339.475,293.729 341.228,293.487C350.1,292.354 359.053,291.599 368.006,290.655C372.348,290.17 375.449,287.877 376.312,283.509C377.148,279.356 373.831,277.765 370.811,276.363C368.492,275.257 366.011,274.529 363.368,273.531C362.316,265.711 357.516,261.477 349.156,261.099C347.619,261.018 345.893,260.263 344.706,259.292C341.713,256.784 338.8,255.382 334.836,257.404C331.222,259.265 330.71,262.285 331.034,265.656C331.358,269.081 331.654,272.613 332.571,275.903C334.189,281.863 331.789,286.663 329.254,291.598C326.935,289.575 324.858,287.769 321.973,285.234C318.845,297.854 319.546,310.124 313.478,320.695C309.918,318.187 306.574,315.787 303.258,313.441C302.773,313.846 302.287,314.277 301.775,314.681C302.854,320.236 304.687,325.818 304.876,331.373C305.173,341.513 304.93,351.706 303.797,361.792C303.581,363.788 298.377,365.217 294.44,367.536C294.925,363.194 295.438,360.659 295.438,358.125C295.492,353.055 291.312,350.574 286.755,352.786C279.959,356.157 275.726,361.928 272.328,368.966C270.198,365.029 267.69,362.062 263.132,362.898C257.873,363.842 257.307,368.615 255.689,372.471C255.015,374.008 254.907,375.842 254.502,377.837C249.891,376.084 245.846,374.439 241.72,373.01C240.183,372.498 238.457,372.039 236.974,372.282C235.194,372.579 232.524,373.388 232.174,374.574C231.608,376.408 231.931,379.374 233.145,380.776C235.923,383.904 239.482,386.385 242.961,389.324C236.705,393.639 231.824,396.848 227.104,400.3C225.594,401.433 224.299,403.078 223.437,404.75C221.846,407.824 220.444,411.006 219.473,414.323C219.176,415.294 220.363,417.343 221.442,417.937C222.682,418.611 224.489,418.234 226.188,418.342C222.736,429.884 222.736,429.884 233.577,431.205C233.577,432.257 233.793,433.416 233.55,434.468C232.93,437.515 233.604,439.592 236.975,440.401C239.995,441.129 240.912,442.45 238.971,445.633C223.357,471.494 207.689,497.355 192.399,523.432C184.309,537.185 176.785,551.262 169.369,565.365C161.09,581.195 153.189,597.24 145.099,613.177C144.533,614.337 143.751,615.604 143.805,616.791C144.021,621.699 142.052,624.126 137.009,625.124C130.483,626.418 125.09,624.585 122.177,618.787C121.826,618.059 121.584,617.169 121.719,616.414C122.69,608.944 123.607,601.474 129.836,596C131.751,594.301 133.126,592.009 134.744,589.986C134.609,589.581 134.42,589.15 134.259,588.746L134.251,588.758Z" style="fill:rgb(69,28,21);fill-rule:nonzero;"/>
    </g>
    <g transform="matrix(0.058594,0,0,0.058594,-0.000773,-0.00002)">
        <path d="M514.289,760.208C511.889,756.864 509.759,753.116 506.9,750.042C501.534,744.379 494.226,745.673 491.232,753.062C489.506,757.323 489.129,762.123 488.05,767.031C485.111,767.355 481.254,768.137 477.425,768.11C476.05,768.11 474.378,766.303 473.434,764.928C463.133,750.042 452.831,735.157 442.746,720.136C438.917,714.392 435.627,708.271 431.986,702.392C431.204,701.098 430.044,700.019 428.238,699.399C433.146,713.611 441.802,725.827 449.11,738.69C456.499,751.634 464.67,764.093 472.922,777.468C468.877,778.142 464.535,778.897 460.14,779.652C457.201,766.061 450.648,764.901 434.656,775.202C431.798,772.559 429.263,769.323 425.973,767.328C422.467,765.171 418.368,763.58 414.296,762.798C409.9,761.935 406.233,767.167 407.123,772.209C407.312,773.449 407.743,774.69 408.013,775.553C401.811,776.389 395.743,776.793 389.945,778.142C384.147,779.491 383.095,782.78 386.601,788.794C381.909,789.145 377.702,789.819 373.549,789.576C372.255,789.522 370.448,787.338 369.908,785.747C364.946,771.482 360.2,757.135 355.373,742.816C355.049,741.818 354.267,740.928 353.62,739.904C350.519,744.084 350.977,752.767 354.968,765.603C357.611,773.882 360.496,782.053 363.382,790.709L356.209,790.709C353.135,780.138 347.661,778.062 334.555,783.401C334.204,776.767 333.692,770.484 333.503,764.174C333.341,756.408 333.233,748.641 333.557,740.902C333.638,739.095 335.067,736.56 336.631,735.724C345.854,730.708 355.265,726.016 364.677,721.378C365.54,720.947 366.969,721.189 368.021,721.54C370.96,722.538 373.765,723.913 376.731,724.83C381.828,726.475 383.904,725.423 386.035,720.65C388.759,714.421 391.509,708.191 394.449,702.07C394.934,701.099 396.472,700.236 397.658,699.967C412.679,696.704 424.625,687.481 437.299,679.607C438.566,678.852 439.834,678.151 441.236,677.369C444.796,681.899 449.731,683.76 454.261,680.578C457.821,678.07 459.897,673.459 463.187,669.036C463.915,671.49 464.805,673.917 465.371,676.425C466.288,680.686 467.286,684.973 467.663,689.288C468.202,695.787 468.31,702.367 468.472,708.893C468.553,712.911 468.31,716.929 473.164,720.92C477.182,700.992 482.009,682.438 481.955,663.103C495.358,659.516 495.358,659.516 500.319,644.172C508.544,648.46 513.748,647.219 518.872,640.046C519.627,638.967 521.461,637.808 522.593,637.97C533.649,639.831 536.481,631.795 534.728,622.869C534.216,620.145 533.353,617.53 532.625,614.806C540.068,609.655 538.908,603.857 525.668,597.493C527.34,596.414 528.688,595.201 530.252,594.473C534.782,592.45 538.126,589.08 536.643,584.199C535.295,579.669 530.656,577.97 525.991,577.673C522.431,577.457 518.845,577.619 514.314,577.619C516.337,572.522 518.035,568.369 519.68,564.19C521.487,559.579 519.249,556.208 514.341,555.749C508.678,555.237 503.932,556.585 500.561,561.547C499.995,562.383 498.97,562.949 498.161,563.623C497.703,563.38 497.271,563.138 496.813,562.868C497.649,561.304 498.404,559.632 499.321,558.122C503.582,551.218 503.123,548.09 497.298,544.531C492.444,541.592 489.262,544.909 485.999,547.632C483.033,550.032 480.255,552.648 476.48,555.965C475.617,552.459 475.051,550.464 474.619,548.414C473.136,541.295 467.041,538.652 460.812,542.427C454.097,546.526 451.32,553.133 449.702,560.333C449.109,562.868 448.03,564.243 445.765,562.76C438.16,557.852 431.365,560.872 424.596,564.594C423.868,564.972 423.194,565.457 422.493,565.915C421.9,558.85 427.347,554.535 446.952,546.31C442.88,543.263 441.666,543.478 426.808,550.058C430.179,543.397 433.334,537.761 435.977,531.855C439.24,524.628 447.6,526.758 453.559,521.958C450.161,520.798 447.599,519.882 445.011,518.992C448.031,511.118 450.216,509.5 458.737,509.688C462.809,509.769 466.908,510.659 471.007,510.659C474.728,510.659 478.585,510.335 482.144,509.419C486.297,508.313 487.079,503.432 483.411,500.52C480.418,498.12 476.642,496.691 473.137,494.938C472.328,494.533 471.33,494.48 470.009,494.156C471.142,492.565 472.193,491.54 472.706,490.246C473.488,488.385 474.944,485.5 474.189,484.556C472.733,482.722 469.901,480.862 467.771,481.023C463.807,481.374 459.897,483.18 455.717,484.475C455.69,484.313 455.69,483.504 455.339,482.884C454.152,480.754 452.642,476.816 451.725,476.924C448.974,477.302 445.523,478.677 444.039,480.807C439.347,487.603 439.185,495.261 442.367,502.866C444.039,506.911 444.336,510.066 439.94,512.817C437.567,514.3 436.03,517.105 433.899,519.451C432.551,516.026 431.31,512.844 430.043,509.716L427.994,509.797C427.536,512.17 426.457,514.57 426.673,516.835C428.048,530.993 420.605,542.319 415.077,555.02C413.837,552.62 413.162,550.597 411.868,549.168C410.924,548.143 409.09,547.954 407.661,547.388C407.472,548.736 407.014,550.139 407.203,551.46C407.796,556.26 408.605,561.033 409.279,565.429C408.146,566.049 408.039,566.13 407.877,566.184C402.079,568.126 397.117,567.694 393.099,562.247C391.912,560.602 389.189,559.928 387.058,559.227C378.456,556.315 372.226,561.627 373.655,570.58C373.844,571.874 374.086,573.169 374.383,574.949C369.286,575.785 364.243,576.594 357.717,577.646C361.87,571.417 365.403,566.077 368.935,560.765C379.587,544.962 390.886,529.591 400.648,513.249C409.763,497.932 421.493,485.015 433.413,472.098C438.914,466.165 443.957,459.855 449.35,453.814C450.294,452.735 451.885,451.603 453.233,451.549C464.424,450.875 475.615,450.309 486.834,450.12C488.91,450.066 491.553,451.28 492.982,452.79C496.083,456.026 499.589,456.592 503.715,456.646C505.522,456.673 508.326,457.671 508.839,458.965C510.754,463.765 512.992,468.808 513.1,473.797C513.208,478.975 514.799,482.399 519.087,484.584C521.919,486.013 522.728,487.577 520.867,490.328C520.436,490.948 520.382,491.919 519.95,492.566C516.04,498.256 518.763,503.164 521.973,507.775C524.265,511.119 524.184,514.49 523.24,518.103C523.051,518.75 522.62,519.478 522.809,520.018C523.537,522.067 524.508,524.009 525.398,526.032C526.746,524.522 528.661,523.2 529.335,521.448C531.115,516.729 532.463,512.198 530.036,506.778C528.688,503.704 530.306,499.146 531.088,495.344C532.922,486.283 535.079,477.276 537.075,468.215C538.1,463.631 538.774,458.938 540.014,454.408C540.392,453.087 542.037,452.008 543.277,451.091C544.733,450.012 546.756,449.554 547.834,448.259C551.097,444.565 554.279,445.077 556.787,448.232C557.461,449.958 558.351,451.63 558.836,453.437C559.321,455.136 559.726,456.943 559.645,458.669C559.483,461.393 558.216,464.305 561.479,466.058C567.951,469.51 566.738,475.793 567.25,481.483C567.439,483.532 567.547,485.879 568.544,487.524C573.614,495.749 574.315,504.891 573.803,514.005C573.264,523.147 573.695,531.938 576.985,540.567C578.064,543.399 577.497,546.823 578.36,549.763C579.034,552.028 580.733,553.997 581.974,556.1C583.673,554.131 586.639,552.271 586.774,550.194C587.098,546.095 585.534,541.915 585.318,537.735C585.048,533.609 585.183,529.375 585.669,525.303C586.775,516.377 588.231,507.505 589.606,498.633C589.876,497.042 590.064,495.262 590.981,494.022C595.727,487.442 597.264,480.188 596.887,472.152C596.617,467.001 597.399,461.797 598.127,456.673C598.99,450.444 601.768,443.972 593.111,439.738C593.677,439.226 594.271,438.713 594.837,438.201C597.695,439.01 600.554,439.738 603.412,440.574C604.167,440.817 604.895,441.491 605.677,441.518C609.398,441.572 612.284,442.165 612.095,447.073C612.068,448.206 614.468,449.554 615.978,450.525C617.704,451.604 619.619,452.898 621.56,453.114C623.34,453.303 625.956,452.736 626.98,451.496C628.76,449.258 630.108,446.426 630.755,443.622C632.616,435.343 633.748,434.561 642.162,436.665C643.753,437.043 646.099,437.231 647.151,436.368C651.169,433.051 653.92,434.858 656.131,438.256C664.113,450.364 672.257,462.364 679.727,474.769C697.606,504.406 708.797,536.901 718.424,569.854C723.332,586.627 726.083,604.021 729.966,621.064C733.849,638.161 738.272,655.123 741.912,672.247C744.42,684.085 746.415,696.086 747.71,708.086C748.141,711.915 745.661,716.041 744.123,721.381C737.975,711.808 730.559,711.673 722.01,716.77C722.01,714.478 721.821,712.914 722.037,711.323C722.522,707.494 720.823,704.285 717.534,703.557C714.756,702.91 710.388,703.503 708.662,705.337C705.129,709.166 702.729,714.155 700.14,718.793C698.98,720.896 698.495,723.35 697.632,725.804C696.284,725.885 694.962,725.885 693.695,726.047C689.515,726.559 689.165,725.022 690.162,721.193C691.456,716.15 692.077,710.838 692.131,705.633C692.401,688.32 692.751,670.954 692.104,653.668C691.43,635.088 689.866,616.535 688.356,597.981C687.142,583.095 686.414,568.075 683.772,553.405C680.914,537.468 676.302,521.827 672.095,506.159C670.315,499.444 667.619,492.918 665.353,486.284C664.841,486.419 664.328,486.554 663.843,486.662C666.998,506.186 670.854,525.656 673.093,545.288C675.385,565.405 676.194,585.657 677.516,605.856C678.81,625.919 680.321,645.929 681.13,666.019C681.939,686.109 682.155,706.227 678.406,726.209C672.662,727.018 666.945,727.854 661.309,728.636C661.12,724.429 664.248,719.602 658.963,716.285C655.107,713.831 650.361,714.64 645.102,719.197C642.405,721.516 640.221,724.429 637.632,727.287C634.908,725.723 631.996,723.97 629.03,722.352C626.306,720.896 622.855,719.44 621.075,722.541C619.565,725.184 619.673,728.905 619.565,732.195C619.538,733.435 620.859,734.73 622.046,736.914C613.929,736.078 606.136,726.748 598.342,738.397C597.964,728.5 596.616,720.275 604.221,714.181C609.21,710.163 614.172,706.118 619.161,702.073C620.267,701.183 621.399,700.293 623.26,698.81C613.525,696.599 607.727,701.992 600.931,706.523C602.333,698.325 603.789,690.127 605.084,682.603C611.232,678.558 617.003,674.89 622.612,671.034C623.394,670.522 624.122,668.958 623.879,668.202C623.663,667.447 622.099,666.422 621.29,666.557C618.135,667.096 615.007,667.878 611.959,668.876C610.745,669.281 609.775,670.467 608.103,671.708C609.532,664.319 610.692,657.739 612.229,651.24C612.526,649.973 614.036,648.651 615.357,648.085C621.91,645.065 628.76,642.719 635.124,639.375C638.144,637.811 640.976,635.006 642.729,632.067C646.504,625.757 642.999,619.851 635.637,619.393C632.913,619.231 630.136,619.366 627.331,619.366C627.87,615.699 629.003,612.705 628.518,610.035C628.087,607.716 626.118,604.345 624.311,604.021C622.477,603.67 619.43,606.017 618.082,607.985C616.383,610.493 615.844,613.81 614.603,617.369C612.634,614.322 611.394,612.03 609.803,609.98C606.918,606.366 601.47,604.506 598.531,605.935C595.484,607.391 592.49,613.621 593.731,617.558C594.971,621.549 597.237,625.217 598.963,629.1C601.255,634.332 606.433,637.352 605.893,645.253C605.354,652.939 603.061,659.357 601.12,665.64C597.453,662.943 593.893,660.274 590.333,657.658C589.875,658.036 589.416,658.386 588.985,658.737C592.922,673.029 594.837,687.376 591.466,702.72C585.695,698.54 580.356,695.385 573.506,697.408C576.985,700.159 580.41,702.801 583.78,705.579C589.119,709.894 589.767,715.611 588.634,721.948C587.798,726.667 587.367,731.386 586.692,736.672C580.031,734.703 575.528,726.667 567.384,729.067C561.91,715.53 549.127,716.393 542.143,731.278C537.801,713.426 533.621,695.088 528.714,677.021C527.258,671.628 523.941,666.666 521.082,661.758C520.408,660.571 518.062,660.383 516.471,659.789C516.39,661.38 515.959,663.052 516.282,664.589C519.087,678.261 522.08,691.879 524.884,705.525C527.608,718.82 530.062,732.141 532.839,745.436C533.459,748.537 532.893,749.751 529.684,751.153C524.237,753.553 519.302,757.194 514.286,760.214L514.289,760.208Z" style="fill:rgb(69,28,21);fill-rule:nonzero;"/>
    </g>
    <g transform="matrix(0.058594,0,0,0.058594,-0.000773,-0.00002)">
        <path d="M334.903,451.645C333.474,458.063 332.098,463.726 336.656,468.985C337.708,470.145 337.816,472.329 337.816,474.055C337.789,485.138 337.546,496.222 337.465,507.278C337.465,508.815 338.004,510.352 338.247,511.889L339.946,511.889C340.189,507.898 340.404,503.934 340.674,499.592C345.69,499.187 345.663,495.277 345.798,491.448C346.283,479.286 348.387,467.448 353.16,456.148C354.293,453.424 355.56,452.184 358.715,453.236C361.007,453.991 363.785,454.665 365.996,454.099C372.603,452.346 376.216,457.389 380.855,460.032C381.691,460.49 381.853,462.324 382.095,463.565C383.255,469.12 387.677,471.628 392.235,468.311C396.388,465.318 399.489,460.922 403.13,457.255C404.209,456.149 405.422,454.477 406.69,454.397C416.803,453.48 426.969,452.887 437.109,452.213C437.379,452.644 437.648,453.13 437.891,453.588C433.657,458.658 429.882,464.186 425.109,468.689C408.336,484.519 396.659,503.881 385.09,523.486C378.106,535.378 370.15,546.704 362.627,558.246C360.739,557.572 359.364,557.086 357.503,556.439C359.687,552.691 361.953,549.158 363.84,545.41C364.514,544.062 364.11,542.174 364.218,540.529C362.546,540.934 360.281,540.826 359.283,541.877C354.375,547.001 349.818,552.421 344.478,558.489C346.501,552.044 348.442,546.381 349.952,540.637C350.357,539.154 349.574,537.32 349.278,535.675C347.606,536.457 344.909,536.835 344.37,538.102C340.028,547.864 336.145,557.815 332.559,566.579C332.074,563.721 331.319,559.325 330.563,554.875C323.956,562.507 324.226,571.81 321.799,580.601C318.914,580.196 316.055,579.792 313.035,579.387C310.797,569.301 316.622,561.966 320.855,554.173C315.408,549.966 314.383,550.479 308.019,560.996C305.511,555.684 301.817,550.776 301.062,545.463C300.307,540.097 302.653,534.353 303.327,528.744C303.597,526.29 303.057,523.701 302.896,521.193C300.927,523.162 298.662,524.887 297.071,527.126C296.046,528.555 295.965,530.713 294.995,534.164C292.487,530.119 290.653,527.18 288.847,524.267C287.364,521.921 284.694,519.548 284.775,517.283C284.829,514.91 287.445,512.537 289.144,510.326C292.704,505.607 296.452,501.049 299.904,496.276C300.875,494.928 302.088,492.474 301.522,491.611C300.659,490.29 298.394,489.238 296.695,489.184C288.173,488.968 281.432,492.447 276.955,499.701C266.519,496.923 265.575,497.517 265.548,507.279C262.042,507.414 258.483,507.387 254.977,507.791C250.959,508.222 247.831,510.407 247.885,514.641C247.912,518.821 251.256,520.951 254.896,521.922C262.015,523.837 269.161,524.43 276.254,521.059C279.841,527.666 283.265,533.949 286.798,540.448C283.966,541.554 281.62,542.444 277.98,543.819C288.2,549.455 295.967,555.226 298.043,566.606C290.762,564.449 284.182,564.691 277.171,569.707C285.558,571.298 294.646,569.896 299.58,578.876C289.899,577.393 282.079,579.604 275.849,586.481C270.563,577.204 269.431,577.204 259.453,586.481C255.732,581.357 251.848,574.184 244.513,578.337C238.095,581.924 244.135,587.614 245.322,593.6C243.219,593.249 241.034,593.546 239.875,592.629C230.059,584.701 225.583,584.809 216.737,593.708C216.036,594.409 215.308,595.002 215.631,594.679C208.97,591.038 203.118,587.182 196.754,584.513C191.145,582.14 187.774,584.621 188.098,590.796C188.314,595.246 190.04,599.587 190.956,603.255C181.733,604.522 171.971,605.871 161.643,607.327C198.183,550.939 238.957,497.842 287.848,451.243C287.551,450.865 287.282,450.488 287.012,450.083C283.075,452.807 278.652,454.991 275.254,458.254C259.802,472.87 244.674,487.81 229.383,502.587C219.028,512.646 208.592,522.596 198.101,532.709C201.58,526.048 205.005,519.28 208.645,512.619C221.805,488.807 238.605,467.53 255.298,446.227C257.509,443.395 259.424,441.912 263.873,442.748C279.298,445.66 294.939,447.656 310.526,449.678C317.052,450.514 323.686,450.487 330.266,450.918C331.695,451.026 333.124,451.349 334.904,451.646L334.903,451.645Z" style="fill:rgb(69,28,21);fill-rule:nonzero;"/>
    </g>
    <g transform="matrix(0.058594,0,0,0.058594,-0.000773,-0.00002)">
        <path d="M269.621,766.48C288.444,757.824 306.134,749.68 324.795,741.131L324.795,783.846C319.051,780.988 313.064,777.32 306.646,775.001C299.095,772.25 294.052,774.677 292.623,780.907C292.084,783.091 292.812,785.545 293.081,789.563C284.91,782.12 278.034,774.704 269.62,766.479L269.621,766.48Z" style="fill:rgb(69,28,21);fill-rule:nonzero;"/>
    </g>
</svg>
