<?xml version="1.0" encoding="UTF-8" standalone="no"?>
<!DOCTYPE svg PUBLIC "-//W3C//DTD SVG 1.1//EN" "http://www.w3.org/Graphics/SVG/1.1/DTD/svg11.dtd">
<svg width="100%" height="100%" viewBox="0 0 61 61" version="1.1" xmlns="http://www.w3.org/2000/svg" xmlns:xlink="http://www.w3.org/1999/xlink" xml:space="preserve" xmlns:serif="http://www.serif.com/" style="fill-rule:evenodd;clip-rule:evenodd;stroke-linejoin:round;stroke-miterlimit:2;">
    <g transform="matrix(0.058594,0,0,0.058594,-0.000054,0.000065)">
        <path d="M511.96,1009.647C486.288,1009.647 462.174,999.658 444.021,981.532L42.429,579.94C4.995,542.48 4.995,481.522 42.429,444.116L444.048,42.497C462.201,24.344 486.288,14.355 511.96,14.355C537.605,14.355 561.692,24.344 579.845,42.497L981.464,444.116C999.617,462.242 1009.579,486.356 1009.579,512.028C1009.579,537.673 999.616,561.787 981.464,579.94L579.872,981.532C561.719,999.658 537.605,1009.647 511.96,1009.647Z" style="fill:rgb(232,203,158);fill-rule:nonzero;"/>
    </g>
    <g transform="matrix(0.058594,0,0,0.058594,-0.000054,0.000065)">
        <path d="M511.919,14.436C487.304,14.435 462.71,23.798 444.025,42.483L42.444,444.104C5.055,481.493 5.055,542.503 42.444,579.892L444.025,981.513C462.722,1000.194 487.346,1009.559 511.958,1009.56C536.57,1009.561 561.143,1000.191 579.852,981.513L981.473,579.892C1018.833,542.501 1018.833,481.495 981.473,444.104L579.852,42.483C561.155,23.802 536.533,14.437 511.919,14.436Z" style="fill:rgb(232,203,158);fill-rule:nonzero;"/>
    </g>
    <g transform="matrix(0.058594,0,0,0.058594,-0.000054,0.000065)">
        <path d="M1009.052,511.936C1009.052,508.781 1009.079,505.68 1009.025,502.525C1009.025,501.716 1008.836,500.88 1008.728,500.071C1005.654,476.987 995.164,457.814 978.741,441.391C846.414,309.28 714.222,177.007 582.03,44.842C580.493,43.305 578.983,41.768 577.392,40.339C560.484,24.86 540.636,16.096 517.741,14.882C487.619,13.264 462.513,24.105 441.29,45.382C323.067,163.848 204.655,282.125 86.324,400.429C71.169,415.611 55.797,430.605 40.885,446.003C25.433,461.994 16.696,481.33 14.97,503.416C12.516,534.374 23.006,560.532 45.065,582.456C95.79,632.803 146.191,683.447 196.727,733.956C278.761,816.016 360.74,898.104 442.854,980.057C481.579,1018.755 541.553,1019.483 579.603,981.486C713.683,847.622 847.601,713.623 981.519,579.624C1000.099,561.017 1009.16,538.257 1009.052,511.937L1009.052,511.936ZM1024.045,512.691C1023.533,542.489 1013.096,568.674 991.712,590.086C858.279,723.653 724.739,857.14 591.226,990.599C566.983,1014.869 537.562,1026.061 503.422,1023.687C475.538,1021.718 451.942,1009.934 432.175,990.113C374.924,932.754 317.592,875.503 260.288,818.199C184.888,742.826 109.543,667.373 34.089,592.054C9.684,567.703 -1.966,538.39 0.272,504.061C2.079,476.15 13.621,452.419 33.414,432.626C86.323,379.798 139.178,326.889 192.034,274.033C272.072,193.995 352.164,113.984 432.202,33.892C456.58,9.487 485.947,-2.028 520.276,0.291C546.865,2.071 570.165,12.453 589.096,31.33C723.499,165.572 857.822,299.867 992.063,434.27C1013.448,455.682 1023.722,482.028 1024.046,512.69L1024.045,512.691Z" style="fill:rgb(69,28,21);fill-rule:nonzero;"/>
    </g>
    <g transform="matrix(0.058594,0,0,0.058594,-0.000054,0.000065)">
        <path d="M303.191,363.896C303.515,363.626 303.811,363.384 304.162,363.114C301.357,358.664 306.373,351.491 298.526,348.039C298.068,352.516 297.717,356.183 297.339,360.039C299.227,361.279 301.195,362.601 303.191,363.895L303.191,363.896ZM736.496,304.461C737.008,313.468 737.494,321.801 738.033,331.266C742.375,323.742 750.977,319.401 746.986,309.369C744.128,308.048 740.811,306.484 736.496,304.461ZM433.684,187.963C433.765,186.561 434.008,185.266 433.9,183.999C433.334,174.668 432.767,165.311 431.985,156.007C431.904,155.117 430.583,154.335 429.882,153.499C428.884,154.524 427.077,155.575 427.05,156.627C426.834,167.279 426.915,177.931 426.915,188.583C428.668,188.394 431.014,188.205 433.684,187.963ZM705.997,352.975L705.997,306.537C703.867,305.755 702.114,305.162 700.253,304.488C700.523,310.151 700.981,315.383 700.9,320.587C700.846,326.978 700.738,333.396 699.956,339.761C699.309,345.424 702.599,349.011 705.997,352.975ZM421.738,185.563C420.929,174.156 420.147,162.992 419.365,151.8C416.749,151.557 415.05,151.422 412.623,151.207L412.623,185.563L421.738,185.563ZM428.534,340.488C429.963,332.829 431.419,325.44 432.66,317.998C432.93,316.434 432.444,314.762 432.175,313.171C431.986,311.796 431.312,310.447 431.393,309.099C431.609,304.73 432.067,300.335 432.472,295.157C429.991,296.694 426.539,297.638 426.081,299.364C424.733,304.353 424.247,309.692 424.112,314.87C423.923,321.639 424.651,328.38 424.543,335.095C424.462,338.763 426.188,340.003 428.534,340.488ZM445.819,191.469C445.819,182.354 445.684,173.644 445.873,164.88C446.035,158.354 444.552,156.143 437.891,154.767C436.947,165.716 435.976,176.664 435.059,187.208C438.673,188.664 441.774,189.878 445.819,191.469ZM453.073,309.827L453.073,284.451C444.767,281.566 444.039,291.139 438.727,293.188C437.945,293.512 437.352,294.375 436.758,295.049C436.623,295.265 436.758,295.696 436.758,296.047C437.082,301.225 437.378,306.402 437.648,311.283C442.448,310.852 447.518,310.339 453.073,309.827ZM478.584,183.46C472.355,185.671 474.674,190.094 474.404,193.6C479.393,193.33 484.085,193.142 488.103,192.926C488.373,187.317 488.885,181.95 488.777,176.611C488.723,172.943 488.804,168.71 487.051,165.797C485.002,162.372 481.496,165.905 478.664,166.363C477.909,166.498 477.181,166.66 476.83,166.714C475.886,171.946 475.05,176.719 474.187,181.438C475.832,182.193 477.207,182.84 478.583,183.461L478.584,183.46ZM510.055,163.342C506.468,163.8 503.205,163.935 500.131,164.717C498.944,165.041 497.299,166.793 497.273,167.926C497.003,176.259 497.111,184.619 497.111,193.733C502.289,192.304 506.738,191.063 511.296,189.796C510.865,180.627 510.46,172.106 510.056,163.341L510.055,163.342ZM278.543,449.92C280.673,444.338 282.588,439.376 284.314,434.765C277.707,434.765 271.774,435.143 265.923,434.657C259.828,434.145 257.024,436.922 258.13,442.99C258.454,444.689 257.86,446.496 257.779,448.249C257.725,449.867 257.59,451.512 257.806,453.103C258.184,455.746 258.912,458.362 259.397,460.977C259.775,463.026 259.694,465.265 260.503,467.125C261.231,468.797 262.903,470.037 264.224,471.44C264.925,469.687 266.3,467.907 266.327,466.128C266.408,459.602 265.949,453.022 265.922,446.469C265.895,445.336 266.623,443.503 267.351,443.287C268.484,442.963 270.129,443.53 271.207,444.204C273.499,445.741 275.603,447.602 278.542,449.921L278.543,449.92ZM577.58,189.527C577.122,192.655 577.014,193.761 576.771,194.866C575.234,202.417 576.879,205.788 584.322,207.46C588.987,208.512 594.03,208.727 598.749,208.161C606.866,207.19 613.743,210.022 620.134,213.716C620.404,210.129 620.835,206.785 620.835,203.442C620.835,201.878 620.404,199.99 619.433,198.885C616.682,195.595 608.565,195.164 604.79,197.752C600.233,200.907 594.057,200.799 590.093,197.887C586.345,195.163 582.38,192.709 577.58,189.527ZM450.539,160.322L450.539,194.408C455.69,197.132 460.975,199.667 468.121,195.918C467.285,186.749 466.449,177.041 465.478,167.306C465.37,166.254 464.588,164.69 463.725,164.367C459.734,162.938 455.581,161.832 450.538,160.322L450.539,160.322ZM854.881,645.727C850.944,634.671 847.924,623.237 842.854,612.746C835.708,598.076 822.602,588.341 810.089,578.417C806.395,575.505 802.107,573.293 797.954,571.028C796.714,570.408 794.961,570.812 793.424,570.731C793.775,572.376 793.667,574.452 794.611,575.558C796.148,577.419 798.305,578.794 800.382,580.088C821.659,593.625 838.729,610.345 843.826,636.368C844.554,640.036 845.39,643.784 846.873,647.209C847.493,648.692 849.785,649.852 851.538,650.337C852.05,650.499 853.345,647.883 854.882,645.726L854.881,645.727ZM511.295,786.306C509.812,784.283 508.76,782.638 507.493,781.209C504.958,778.324 499.511,778.108 496.275,780.697C493.201,783.178 492.311,787.708 494.252,790.783C500.778,801.057 520.895,805.156 530.927,798.253C534.595,795.745 535.97,791.026 534.109,787.466C530.01,779.726 516.985,778.837 511.295,786.306ZM475.888,575.425C480.931,575.047 485.03,574.535 489.156,574.454C498.055,574.265 498.055,574.346 496.248,565.447C496.194,565.123 496.167,564.773 496.194,564.449C496.733,548.161 489.344,534.111 483.493,519.657C483.331,519.199 482.819,518.875 482.468,518.47C481.875,518.551 481.281,518.605 480.715,518.686C479.151,537.266 477.56,555.793 475.888,575.424L475.888,575.425ZM731.615,298.42C727.624,294.051 728.837,289.656 731.507,284.99C732.37,283.48 732.532,280.54 731.615,279.327C730.725,278.113 727.786,277.466 726.168,277.952C720.289,279.732 714.626,282.24 708.828,284.262C701.951,286.662 695.075,290.276 688.036,290.734C681.24,291.165 673.636,294.428 666.948,289.278C666.247,288.739 664.629,289.386 663.146,289.494C664.602,292.164 665.708,294.537 667.002,296.775C670.211,302.195 675.604,304.676 681.294,303.004C683.586,302.303 685.447,300.415 687.631,299.444C690.247,298.257 693.132,296.424 695.667,296.72C700.413,297.313 705.213,298.743 709.636,300.657C717.483,304.055 724.711,304.459 731.614,298.419L731.615,298.42ZM624.422,315.598C625.905,319.778 626.768,322.933 628.143,325.845C628.628,326.816 630.273,327.571 631.46,327.787C637.608,328.812 642.166,331.266 643.245,338.25C644.108,343.751 649.178,346.286 654.49,344.318C660.935,341.891 664.872,337.253 666.517,330.565C666.76,329.594 667.083,328.327 667.757,327.841C671.721,325.036 675.577,321.908 679.973,319.94C682.616,318.726 683.721,317.028 683.074,315.005C682.535,313.333 680.485,311.769 678.732,310.96C676.844,310.124 674.202,310.852 672.503,309.827C666.894,306.564 664.898,309.827 662.687,314.196C658.966,321.504 647.639,323.392 641.761,318.025C641.141,317.432 640.143,316.946 639.253,316.865C634.291,316.38 629.302,316.002 624.421,315.598L624.422,315.598ZM451.86,762.953C434.493,744.427 371.256,743.51 348.765,760.499C383.552,761.308 417.693,762.117 451.86,762.953ZM583.027,768.481C577.661,768.454 572.591,768.481 567.521,768.373C562.64,768.238 561.777,772.094 560.617,775.411C559.43,778.782 560.266,781.937 563.26,784.202C567.763,787.681 572.591,790.647 578.496,790.216C585.157,789.758 591.818,789.164 598.398,787.978C603.63,787.034 608.565,784.796 609.967,778.809C611.612,771.986 608.484,767.024 603.144,763.195C598.371,759.797 593.139,759.635 587.773,761.631C583.998,763.006 582.487,765.811 583.027,768.481ZM591.899,309.422C595.108,310.851 597.589,312.928 599.962,312.793C607.324,312.415 614.659,311.175 621.967,310.339C630.084,309.422 638.579,308.937 644.97,314.573C648.422,317.62 650.525,316.596 652.763,314.762C654.92,312.982 656.35,310.232 658.022,307.858C659.289,306.051 660.449,304.164 661.851,301.979C661.824,301.952 661.339,301.332 660.907,300.631C655.271,291.273 655.217,291.112 644.161,293.188C636.826,294.563 629.653,295.777 624.664,288.415C623.019,285.988 622.156,283.049 620.916,280.325C616.251,280.81 614.471,283.831 613.985,288.199C613.392,293.538 610.722,297.772 606.192,300.685C602.093,303.328 597.859,305.782 591.9,309.422L591.899,309.422ZM674.445,376.84C674.094,383.501 673.717,389.164 673.474,394.854C673.447,395.528 674.121,396.445 674.714,396.85C679.892,400.356 677.492,406.235 679.137,410.873C680.701,415.296 681.052,420.15 682.346,424.707C682.67,425.894 684.315,426.703 685.393,427.673C685.986,426.325 686.93,425.003 687.2,423.574C687.928,420.095 687.47,415.996 689.169,413.192C691.192,409.848 691.192,406.99 690.76,403.511C690.302,399.951 689.277,395.637 690.814,392.913C692.405,390.108 690.814,389.192 690.409,387.277C689.681,383.852 688.548,378.378 690.139,377.137C693.564,374.548 692.242,372.526 691.245,370.26C688.063,363.006 683.802,356.507 676.926,352.03C673.528,349.819 670.319,347.284 666.463,344.452L666.463,376.219C669.591,376.435 672.207,376.677 674.445,376.839L674.445,376.84ZM329.403,759.204C335.147,759.986 339.839,759.851 344.451,756.75C347.876,754.404 352.056,753.029 356.074,751.707C365.162,748.687 374.412,747.015 384.174,747.177C396.741,747.339 409.388,745.667 421.955,745.856C433.713,746.072 445.389,748.984 454.45,756.508C461.623,762.495 468.419,760.418 475.889,758.908C451.376,743.132 424.975,734.395 395.527,737.55C393.585,732.831 399.518,728.489 394.583,722.556C392.48,727.006 390.862,730.538 389.109,734.017C388.435,735.338 387.491,736.498 386.655,737.738C385.576,736.524 384.255,735.473 383.5,734.097C382.772,732.695 382.691,730.915 382.125,729.432C381.235,727.14 380.129,724.955 378.754,721.881C374.466,728.353 377.082,733.639 378.403,739.167C377.163,739.733 375.922,740.246 375.652,740.354C371.041,736.228 367.077,732.641 363.085,729.109C362.6,729.567 362.114,730.053 361.602,730.511C363.867,734.259 366.132,738.062 368.452,741.891C339.328,750.224 334.986,752.111 329.404,759.204L329.403,759.204ZM382.501,356.021C378.105,357.828 374.276,358.637 371.445,360.767C364.703,365.945 358.258,371.608 352.002,377.379C349.818,379.375 347.121,382.26 347.04,384.849C346.528,397.847 345.773,410.98 347.04,423.87C348.847,442.693 356.128,460.168 363.436,477.453C369.584,492.015 376.11,506.416 382.286,520.438C384.524,514.991 386.87,508.465 389.783,502.208C391.104,499.242 391.401,496.788 389.729,493.929C383.877,483.843 377.917,473.866 372.497,463.591C367.238,453.64 361.117,443.743 358.231,433.064C355.642,423.464 357.152,412.812 356.478,402.645C355.912,393.368 358.42,384.928 363.813,377.701C369.233,370.393 375.678,363.813 382.501,356.02L382.501,356.021ZM579.576,377.379C579.171,381.532 578.551,385.901 578.362,390.296C577.931,400.166 578.038,410.063 577.229,419.852C576.204,432.365 573.535,444.446 565.471,454.693C558.298,463.754 552.662,473.651 550.1,485.031C549.534,487.35 548.563,490.074 549.318,492.069C551.718,498.703 554.819,505.121 557.732,511.782C560.752,502.613 562.964,493.687 566.658,485.435C570.46,476.994 575.746,469.201 580.357,461.111C586.991,449.407 591.953,437.326 591.333,423.384C590.659,406.745 590.605,390.08 590.2,373.441C590.2,372.74 589.822,372.066 589.58,371.311C586.101,373.414 582.919,375.356 579.575,377.379L579.576,377.379ZM758.501,351.572C758.15,351.491 757.773,351.437 757.422,351.356C755.831,355.05 753.08,358.637 752.838,362.412C751.921,375.869 751.436,389.379 751.624,402.835C751.867,420.202 752.568,437.568 753.673,454.908C754.293,464.185 755.183,473.65 757.718,482.495C764.082,504.851 768.343,527.53 768.316,550.748C768.289,561.939 779.48,570.946 788.73,574.776C788.406,570.461 788.595,566.066 787.678,561.967C785.17,550.506 782.392,539.072 779.399,527.692C774.922,510.487 770.311,493.255 765.457,476.131C763.084,467.825 759.686,459.816 760.037,450.917C760.28,444.688 760.226,438.377 759.902,432.148C759.282,420.04 757.987,407.932 757.691,395.797C757.448,384.66 758.203,373.495 758.473,362.331C758.554,358.771 758.5,355.158 758.5,351.571L758.501,351.572ZM559.836,842.02C560.16,842.613 561.373,844.177 562.02,846.011C563.827,850.973 567.494,853.697 572.375,854.829C580.573,856.771 588.286,855.53 595.378,850.946C603.198,845.849 605.598,829.103 594.92,822.658C586.075,817.319 576.313,815.377 566.74,814.379C558.03,813.516 548.807,815.377 540.124,817.399C535.405,818.478 529.742,821.363 527.288,825.246C522.434,832.851 529.418,843.476 538.884,843.611C545.464,843.719 552.044,842.667 559.837,842.02L559.836,842.02ZM544.869,418.126C543.413,420.742 542.388,424.328 546.029,427.78C546.487,428.211 546.434,429.263 546.487,430.045C546.918,435.465 547.053,440.913 547.808,446.252C547.97,447.519 549.992,449.03 551.449,449.38C552.15,449.542 553.687,447.519 554.388,446.225C554.873,445.335 554.496,443.987 554.577,442.827C555.224,433.416 555.494,423.977 556.707,414.647C557.489,408.256 559.673,402.026 561.21,395.716C561.776,395.743 562.289,395.797 562.828,395.824C563.367,398.494 564.23,401.11 564.311,403.806C564.527,410.548 564.365,417.316 564.581,424.112C564.608,424.948 565.687,426.269 566.496,426.431C567.251,426.593 568.869,425.703 569.058,424.975C570.325,420.606 571.97,416.211 572.24,411.734C572.86,401.055 572.375,390.322 573.103,379.643C573.373,375.49 572.267,374.465 568.573,374.223C561.049,373.765 553.552,372.983 546.056,372.497C545.004,372.416 543.656,372.955 542.928,373.684C537.669,379.104 532.168,384.282 527.611,390.242C525.265,393.262 524.159,397.523 526.478,401.73C527.557,403.618 528.959,406.287 528.42,407.986C525.615,416.4 530.847,423.492 531.656,431.258C531.683,431.501 532.492,431.636 534.029,432.256C535.027,427.267 535.917,422.575 536.914,417.883C537.858,413.299 538.856,408.66 539.853,404.076C540.15,404.13 540.446,404.238 540.77,404.292C542.01,408.472 543.251,412.625 544.869,418.126ZM663.092,496.843C663.227,496.546 663.443,496.169 663.604,495.764C668.89,484.033 674.202,472.276 679.326,460.491C680,458.954 679.919,457.012 679.811,455.286C679.272,445.47 676.036,436.436 671.883,427.618C664.413,411.815 658.804,395.554 659.451,377.648C659.694,370.744 659.532,363.814 659.451,356.883C659.424,354.834 658.912,352.811 658.804,351.867C653.276,351.597 648.584,351.409 643.136,351.139C643.972,369.692 643.729,388.866 646.048,407.77C648.313,426.458 653.14,444.877 656.781,462.944C659.397,463.537 661.446,463.996 664.386,464.643C662.525,466.773 661.177,467.825 660.476,469.2C659.748,470.548 659.128,472.274 659.343,473.757C660.449,481.47 661.797,489.101 663.091,496.841L663.092,496.843ZM395.769,456.716C396.308,456.689 396.875,456.608 397.441,456.554C397.899,455.556 398.735,454.558 398.816,453.507C399.841,441.183 406.798,429.911 405.207,417.075C404.829,413.839 405.099,410.495 405.423,407.205C405.612,405.857 406.637,403.484 407.419,403.43C413.163,402.999 411.922,399.007 411.869,395.475C411.815,391.43 411.357,387.304 411.896,383.313C413.379,372.284 406.745,356.939 397.927,352.139C397.118,352.867 396.417,353.73 395.473,354.35C383.257,362.359 374.574,373.577 367.293,385.955C365.54,389.029 364.65,392.993 364.596,396.58C364.488,400.194 366.268,403.807 366.699,407.448C367.67,416.266 368.263,425.084 369.18,433.876C369.288,434.901 370.394,435.791 371.364,437.301C372.146,435.764 372.712,435.09 372.793,434.389C374.007,425.166 375.085,415.944 376.407,406.748C376.623,405.184 377.809,403.728 378.537,402.271C378.968,402.46 379.4,402.702 379.831,402.891C378.348,410.172 382.285,433.849 386.6,437.382C387.814,426.568 388.973,416.483 390.106,406.451C390.349,406.505 390.564,406.532 390.834,406.586L395.769,456.716ZM604.844,366.404C601.851,367.321 599.127,368.157 596.646,368.912C596.646,386.926 596.943,404.643 596.511,422.334C596.322,430.343 595.324,438.379 593.653,446.2C591.469,456.501 586.102,465.508 580.547,474.434C568.52,493.796 561.832,514.372 567.306,537.618C569.598,547.299 570.218,557.331 572.699,566.931C575.477,577.691 575.072,578.203 585.293,579.686C585.293,568.576 585.104,557.384 585.374,546.22C585.455,541.905 586.614,537.591 586.992,533.276C587.1,531.874 586.426,530.229 585.752,528.88C585.132,527.747 583.999,526.831 582.57,525.266C585.051,524.969 586.561,524.808 589.851,524.457C587.262,520.007 585.213,516.502 582.732,512.241C585.105,512.538 587.02,512.753 589.42,513.05L589.42,503.423C589.717,502.776 590.741,501.32 591.146,499.702C593.762,488.969 595.73,478.021 598.966,467.476C602.66,455.395 605.276,443.206 606.84,430.72C608.35,418.477 610.777,406.585 607.298,394.018C604.871,385.362 605.572,375.815 604.844,366.404ZM229.841,383.285C230.407,382.961 230.947,382.638 231.486,382.341C232.295,383.555 233.778,384.795 233.778,385.982C233.751,392.913 236.69,398.71 239.306,404.94C241.463,409.956 236.232,414.109 229.247,415.565C226.874,416.05 224.339,418.45 223.018,420.635C220.861,424.222 223.719,427.512 224.474,430.99C226.011,438.001 226.901,445.202 228.384,452.321C230.191,461.247 228.815,470.847 228.815,480.124C228.815,482.524 228.303,485.302 233.238,484.897C233.454,468.285 233.049,451.593 236.393,434.846C238.335,436.086 239.521,436.842 240.357,437.354C240.681,442.882 239.764,448.437 241.544,452.968C245.05,462.083 239.71,471.333 243.297,480.393C244.753,484.034 243.432,488.699 243.782,492.879C243.863,493.985 245.481,494.928 246.425,495.953C247.153,495.171 248.448,494.47 248.528,493.634C249.094,488.025 249.58,482.416 249.795,476.753C249.984,470.739 247.287,464.321 252.519,458.982C253.301,458.2 253.571,456.528 253.49,455.314C253.166,451.593 252.789,447.817 252.007,444.15C251.117,439.997 251.414,436.087 254.704,433.336C258.479,430.181 262.686,429.102 267.972,430.478C271.936,431.53 276.44,430.451 280.727,430.343C287.577,430.1 286.309,424.464 287.442,420.365C287.577,419.745 287.793,419.178 288.035,418.289C275.253,411.736 261.742,417.291 247.638,414.595C247.638,403.269 247.692,391.269 247.638,379.241C247.611,372.014 244.24,369.452 237.579,372.472C233.561,374.279 229.839,374.71 225.525,374.468C217.543,373.956 208.859,376.41 203.169,366.405C202.872,371.016 202.333,374.171 202.576,377.192C203.331,385.336 204.652,393.453 205.327,401.57C206.675,418.856 207.754,436.169 208.968,453.454C209.022,454.263 208.752,455.288 209.13,455.881C213.687,462.838 211.503,471.225 213.849,478.641C214.334,480.178 214.82,481.742 215.332,483.306L217.274,483.387C217.813,480.879 218.865,478.398 218.838,475.89C218.757,462.272 217.921,448.626 218.218,435.008C218.515,420.581 219.782,406.18 220.645,391.753C224.528,396.553 220.645,403.295 226.524,408.23C230.515,399.87 229.571,391.484 229.841,383.286L229.841,383.285ZM628.251,571.46C632.997,570.112 637.582,568.494 642.355,567.604C645.699,566.957 647.29,565.123 648.692,562.318C656.674,546.785 658.292,530.173 656.485,513.211C654.516,495.17 651.955,477.129 649.501,459.115C647.047,441.317 644.108,423.626 641.923,405.774C640.548,394.556 640.197,383.203 639.307,371.877C638.902,366.214 638.417,360.524 637.959,354.672C631.433,358.043 629.06,362.546 629.599,369.747C630.381,380.561 629.761,391.509 629.734,402.377C629.734,411.923 629.572,421.443 629.707,430.989C629.896,440.374 630.786,449.758 630.597,459.116C630.435,469.984 629.168,480.797 628.871,491.611C628.44,508.762 628.413,525.913 628.278,543.064C628.17,552.395 628.251,561.752 628.251,571.46ZM572.753,367.536C576.286,370.044 579.063,369.559 582.272,367.158C585.077,365.109 588.447,363.437 591.818,362.628C598.937,360.902 606.191,359.904 613.365,358.502C622.264,356.749 630.327,353.459 634.831,344.83C637.689,339.248 635.613,335.715 629.707,334.583C628.062,334.259 625.878,332.641 625.338,331.158C621.886,321.612 615.171,317.701 605.248,319.589C602.228,320.128 598.992,319.994 595.863,319.751C594.919,319.67 593.679,318.457 593.193,317.486C590.2,311.58 584.591,308.83 579.089,306.591C574.046,304.568 563.934,305.674 560.59,312.065C557.192,318.51 554.145,325.171 550.558,331.535C549.102,334.097 546.944,336.794 544.41,338.088C539.529,340.515 534.109,341.944 533.219,349.36C530.172,343.967 531.979,339.598 537.803,337.468C543.277,335.419 546.621,332.102 547.43,326.277C542.9,324.389 540.796,328.003 538.558,330.538C534.998,334.556 530.845,337.63 525.56,337.522C520.032,337.441 516.418,339.922 513.856,344.156C512.723,346.017 511.429,349.334 512.265,350.358C513.829,352.354 517.173,354.727 519.196,354.295C525.587,352.893 529.821,356.021 534.217,359.446C544.06,367.212 561.508,366.727 571.351,359.392C575.747,356.129 581.383,354.268 586.722,352.731C593.464,350.789 600.556,350.196 605.949,344.857C607.27,343.536 609.563,343.212 611.423,342.403C611.747,342.861 612.016,343.32 612.34,343.751C611.423,345.207 610.803,347.176 609.482,348.012C605.14,350.709 600.745,353.837 595.891,355.347C587.477,358.017 578.713,359.635 572.753,367.536ZM515.34,492.285C510.729,499.081 510.432,499.269 513.938,505.634C518.522,513.967 523.053,522.461 528.743,530.012C537.669,541.904 542.442,555.226 544.573,569.626C545.867,578.336 551.234,584.701 559.513,587.559C571.648,591.739 583.81,595.973 595.514,601.204C600.341,603.388 604.009,601.662 608.296,601.123C603.739,598.022 599.235,595.163 594.462,592.79C589.527,590.363 584.511,587.316 579.226,586.534C569.545,585.051 564.34,579.927 562.399,570.758C562.183,569.652 561.806,568.547 561.482,567.468C558.246,556.331 555.711,544.924 551.639,534.137C545.841,518.901 538.991,504.069 532.492,489.102C529.526,482.333 525.858,475.834 523.377,468.877C517.741,453.074 516.069,436.651 516.905,419.959C517.202,413.703 516.366,407.311 517.148,401.163C517.768,396.012 519.144,390.457 521.813,386.115C525.696,379.778 531.09,374.357 535.836,368.56C534.838,367.913 532.951,367.104 531.737,365.702C529.283,362.844 527.611,363.545 524.806,365.594C519.44,369.558 513.453,372.659 507.898,376.408C506.361,377.487 504.689,379.347 504.338,381.127C503.232,386.386 501.992,391.833 502.154,397.118C502.855,419.501 504.069,441.856 505.093,464.212C505.12,464.455 505.336,464.724 505.444,464.967C506.819,464.859 508.114,464.778 509.408,464.697C503.88,468.715 505.174,473.758 506.55,478.855L512.132,478.855C511.862,482.792 506.334,482.469 507.467,487.565C508.654,492.877 511.836,492.122 515.341,492.284L515.34,492.285ZM593.167,582.571C599.72,580.656 605.086,579.497 610.129,577.501C620.997,573.24 620.727,573.051 620.97,561.348C621.375,539.262 621.779,517.176 622.588,495.117C623.019,482.793 624.314,470.496 625.042,458.172C625.743,446.037 626.768,433.848 626.606,421.713C626.39,409.74 624.772,397.82 623.909,385.847C623.397,378.539 623.046,371.204 622.642,363.95C619.622,364.489 616.655,364.732 613.905,365.676C612.665,366.134 611.1,367.995 611.073,369.263C610.857,375.843 611.1,382.423 611.073,389.03C611.019,402.675 610.992,416.348 610.722,429.993C610.641,434.55 610.264,439.189 609.32,443.665C606.057,459.171 601.769,474.461 599.18,490.021C595.297,513.617 591.818,537.348 593.112,561.43C593.436,567.821 593.166,574.212 593.166,582.572L593.167,582.571ZM271.208,590.256C270.911,589.555 270.588,588.908 270.291,588.207C271.1,587.695 271.882,587.155 272.664,586.643C284.502,579.011 297.797,575.964 311.55,574.427C319.209,573.537 326.84,572.539 334.526,572.162C345.771,571.65 357.043,571.704 368.289,571.272C370.015,571.218 371.633,569.708 373.305,568.872C372.038,567.739 370.905,565.798 369.503,565.609C358.5,564.153 347.471,564.18 336.415,566.094C330.86,567.092 325.035,566.849 319.345,566.633C315.651,566.471 314.248,563.855 314.086,560.161C313.466,542.875 312.684,525.616 311.902,508.384C311.821,506.82 311.417,505.256 311.147,503.692C308.127,510.299 304.972,516.825 304.055,523.648C302.626,534.354 302.545,545.222 302.14,556.035C301.897,562.21 299.416,566.067 293.699,569.06C285.609,573.24 275.793,571.406 268.296,577.797C262.768,582.489 255.648,585.321 249.931,589.851C240.385,597.456 232.268,606.571 227.144,617.897C221.4,630.491 215.71,643.138 210.29,655.893C208.51,660.127 207.62,664.711 206.164,669.619C214.497,669.619 222.29,669.161 229.976,669.808C233.266,670.132 234.291,669.215 236.124,666.923C241.49,660.154 246.479,652.55 253.302,647.507C266.408,637.826 280.62,629.682 294.454,620.945C314.814,608.055 337.574,600.127 359.31,589.987C364.434,587.587 368.263,584.567 368.91,578.256C352.244,575.074 335.902,579.982 319.399,580.305C302.787,580.575 286.742,583.999 271.209,590.256L271.208,590.256ZM330.832,377.865L329.969,377.865C328.567,367.887 327.218,357.882 325.87,348.093C319.56,346.259 317.915,346.826 317.969,350.682C318.023,355.159 318.32,359.608 318.481,364.031C318.939,375.384 319.452,386.71 319.802,398.063C319.829,399.411 319.101,400.787 318.75,402.162C318.265,402.054 317.833,401.973 317.402,401.892C317.24,401.137 316.971,400.382 316.944,399.6C316.27,385.146 315.596,370.664 314.975,356.21C314.732,350.439 314.139,349.954 308.773,351.248C309.312,371.851 309.906,392.454 310.337,413.056C310.418,418.342 310.661,423.708 309.717,428.832C307.856,439.079 305.348,449.192 302.921,459.332C299.928,471.818 296.826,484.276 289.788,495.279C285.689,493.715 287.685,491.099 288.467,488.78C295.937,466.775 302.975,444.635 304.081,421.255C304.755,406.963 304.486,392.643 304.054,378.351C303.865,371.394 300.225,365.488 293.645,362.845C290.382,361.524 285.905,361.739 282.454,362.791C280.189,363.492 278.84,366.998 277.088,369.263C276.926,369.452 276.953,369.829 276.899,370.153C288.306,371.205 298.985,382.261 297.691,394.181C297.017,400.383 296.208,406.613 296.208,412.842C296.208,429.535 290.329,444.798 284.181,459.657C278.437,473.437 270.131,486.166 262.823,499.325C255.785,512.053 251.2,525.618 249.663,539.991C248.584,550.131 248.962,560.405 248.449,570.572C248.368,572.325 247.775,574.752 246.507,575.669C237.419,582.195 231.594,591.472 226.228,600.775C217.356,616.227 209.401,632.165 201.337,648.075C198.425,653.792 196.321,659.86 193.705,666.224C196.752,666.278 199.179,669.541 201.229,665.064C207.917,650.475 214.659,635.913 221.859,621.593C231.594,602.258 243.217,584.486 264.089,575.156C265.545,574.509 267.325,572.217 267.217,570.895C265.896,557.412 268.296,544.494 272.422,531.766C275.55,522.274 278.759,512.781 281.887,503.37C284.044,503.909 285.204,504.233 286.04,504.449C286.31,506.876 287.119,509.033 286.633,510.867C283.343,523.434 279.541,535.838 276.439,548.459C275.333,553.151 275.468,558.194 275.468,563.075C275.468,564.208 277.14,566.257 278.111,566.284C287.846,566.796 293.698,561.888 295.127,552.018C296.179,544.737 296.26,537.213 297.797,530.067C300.332,518.498 304.08,507.199 306.615,495.603C310.66,477.104 315.11,458.658 316.134,439.62C316.619,430.182 318.264,420.797 319.451,410.9C319.909,417.965 321.15,424.599 320.557,431.071C319.505,441.966 318.427,452.752 319.182,463.836C319.802,473.167 317.995,482.713 317.968,492.124C317.86,509.599 318.184,527.073 318.588,544.521C318.723,549.807 319.748,555.092 320.449,561.214C328.135,559.92 335.308,558.76 342.778,557.52C342.023,550.401 341.403,544.063 340.675,537.753C339.542,527.829 338.626,517.851 337.034,507.981C335.092,496.062 332.234,484.25 330.346,472.331C329.186,464.969 329.052,457.391 328.458,449.894C328.997,449.597 329.564,449.355 330.103,449.058C331.29,450.272 333.015,451.296 333.501,452.726C334.58,455.8 335.038,459.063 335.712,462.272C336.71,467.288 336.332,472.331 339.433,477.239C341.698,480.907 341.105,486.435 341.725,491.127C344.368,511.083 346.984,531.065 349.545,551.021C350.219,556.145 351.729,557.493 357.069,557.655C363.056,557.898 369.015,558.41 376.323,558.869C376.323,551.804 376.728,544.63 376.242,537.565C375.514,527.102 373.599,516.773 368.799,507.254C359.118,488.107 351.918,468.125 346.902,447.199C341.913,426.354 341.994,405.238 340.834,384.177C340.376,375.871 341.346,367.484 341.805,359.098C341.913,357.561 342.533,356.024 342.938,354.46C343.639,354.514 344.34,354.568 345.014,354.649C345.311,360.771 345.607,366.919 345.904,374.065C347.792,371.099 350.219,369.022 350.354,366.811C350.812,358.667 350.543,350.523 350.543,343.458C344.772,345.319 338.057,347.53 330.83,349.903L330.832,377.865ZM503.556,368.939C503.745,368.885 504.068,368.804 504.392,368.777C507.79,368.319 511.862,368.372 512.941,364.354C514.074,359.985 511.053,357.855 507.305,355.94C502.289,353.297 502.154,351.571 504.878,346.313C506.631,342.888 509.355,339.598 509.921,335.985C510.784,330.538 510.164,324.875 510.164,320.937C502.937,315.409 496.519,310.932 490.721,305.755C488.456,303.786 487,300.308 486.406,297.26C485.327,291.57 484.06,290.114 477.723,290.168C478.505,314.735 478.559,339.329 476.887,363.923C475.485,359.204 474.676,354.404 474.433,349.577C473.678,331.806 472.923,314.035 472.491,296.236C472.356,291.193 469.848,290.195 465.695,290.33C463.106,290.411 460.517,290.357 458.036,290.357C458.036,298.285 457.605,306.996 458.117,315.679C458.953,329.891 458.468,337.954 454.854,342.268C454.396,334.528 454.045,327.706 453.533,320.91C453.371,319.238 452.697,316.272 452.077,316.218C448.005,315.921 443.744,315.652 439.861,316.676C438.351,317.081 436.922,320.802 436.841,323.013C436.706,328.919 437.623,334.851 437.596,340.757C437.488,365.135 437.191,389.513 436.949,413.891C436.895,417.774 436.518,421.657 436.275,425.514C434.441,422.44 433.282,419.419 433.12,416.399C432.554,403.913 432.203,391.401 431.96,378.888C431.771,369.854 431.96,360.82 431.663,351.786C431.636,350.411 430.315,348.577 429.074,347.849C418.8,341.862 408.229,336.361 398.17,330.078C391.32,325.817 385.522,319.426 376.246,322.743C375.518,323.013 374.601,322.905 373.792,322.77C370.098,322.285 367.428,323.309 366.538,327.408C368.48,328.19 370.502,329.781 372.363,329.619C379.078,328.918 383.258,333.098 387.869,336.657C390.701,338.841 393.775,340.729 396.633,342.886C405.991,349.951 414.377,358.068 416.966,369.907C419.312,380.397 421.173,391.184 421.631,401.917C422.17,415.266 421.955,428.83 420.337,442.071C418.746,455.447 415.78,468.768 411.923,481.659C408.309,493.605 402.431,504.824 398.089,516.554C391.266,535.026 386.251,553.93 386.197,573.832C386.17,581.787 380.75,589.985 374.143,592.682C360.525,598.156 346.96,603.711 333.396,609.294C332.803,609.51 332.182,609.806 331.589,609.968C318.888,613.096 306.698,617.573 295.264,623.937C279.92,632.486 266.625,643.596 254.382,656.082C247.91,662.662 242.139,669.619 237.878,678.357C240.332,678.357 242.328,678.168 244.215,678.411C247.748,678.842 249.608,677.386 251.739,674.501C256.998,667.355 262.391,660.182 268.728,654.033C279.784,643.3 293.726,636.855 307.722,630.761C310.5,629.574 313.628,629.224 317.187,628.361C305.322,635.615 294.157,642.276 283.128,649.179C271.802,656.298 264.251,667.031 255.73,677.063C268.566,677.063 280.728,676.982 292.837,677.063C341.539,677.441 390.215,677.764 438.863,678.357C450.755,678.492 459.034,673.018 465.776,664.011C468.742,660.101 471.466,655.786 475.107,652.631C481.013,647.426 487.593,642.977 495.278,640.658C490.208,646.537 484.707,651.822 480.554,657.998C475.134,666.088 470.307,674.691 466.127,683.536C463.646,688.768 465.965,692.058 471.224,694.404C474.136,695.698 475.539,695.456 476.429,691.95C480.393,676.174 487.539,662.394 500.969,652.282C512.942,643.221 526.318,637.477 540.745,633.891C542.147,633.567 543.765,633.999 545.275,634.08C545.356,634.538 545.437,634.997 545.518,635.455C540.556,637.181 535.675,639.23 530.578,640.633C518.766,643.896 508.708,650.422 499.917,658.512C489.804,667.762 486.676,681.056 482.901,693.677C482.55,694.837 484.33,697.911 485.382,698.073C501.508,699.934 517.661,701.66 533.842,703.089C557.088,705.112 580.414,702.442 603.767,703.79C626.608,705.057 649.557,703.143 672.479,703.197C705.028,703.278 737.362,700.5 769.479,695.35C774.252,694.595 773.956,691.817 773.578,688.905C773.335,686.909 771.852,685.049 770.935,683.134C765.002,670.621 754.377,661.938 744.4,653.282C732.4,642.927 718.08,635.7 702.412,631.789C695.643,630.117 688.848,628.391 682.079,626.665C683.589,625.694 684.991,625.344 686.34,625.559C692.435,626.584 698.529,627.878 704.651,628.849C726.845,632.409 744.454,644.813 760.985,658.809C770.073,666.468 776.248,676.742 781.237,687.556C782.693,690.765 785.255,691.52 787.844,690.253C790.433,688.986 794.99,688.177 793.399,683.673C791.97,679.547 790.001,675.421 787.412,671.915C774.657,654.791 757.047,643.573 738.575,633.811C720.588,624.292 701.495,617.847 681.108,615.716C668.407,614.422 655.678,613.289 642.977,611.968C633.512,611.024 624.046,609.838 614.608,609.056C599.776,607.816 585.349,610.647 570.948,613.721C567.307,614.476 563.505,614.449 559.784,614.8C559.784,614.611 559.757,614.395 559.73,614.234C563.344,613.074 566.93,611.942 571.029,610.647C569.411,609.622 568.359,608.867 567.227,608.22C566.364,607.762 565.474,607.33 564.53,606.98C542.929,598.863 520.412,595.411 497.463,594.009C492.582,593.712 487.674,593.173 482.874,592.229C475.512,590.746 470.928,586.539 470.658,579.042C470.227,565.612 470.388,552.156 471.143,538.726C472.06,523.166 474.568,507.687 475.134,492.127C475.673,477.754 474.406,463.245 474.352,448.845C474.325,437.465 475.107,426.112 475.161,414.732C475.188,405.509 474.595,396.287 474.433,387.091C474.406,385.284 475.107,383.423 475.458,381.617L476.995,381.779C477.426,384.017 478.128,386.202 478.235,388.413C479.287,416.728 480.5,445.044 481.147,473.386C481.39,484.065 483.439,494.124 486.945,504.101C490.559,514.456 496.923,523.733 498.514,534.951C499.242,540.237 502.074,545.198 502.883,550.484C504.42,560.462 503.989,570.79 508.897,580.067C509.005,580.283 508.735,580.66 508.519,581.281C499.97,581.281 491.287,581.2 482.631,581.389C481.202,581.416 479.799,582.656 478.397,583.358C479.637,584.652 480.662,586.702 482.172,587.133C485.893,588.239 489.831,588.778 493.687,589.209C509.436,590.962 525.319,592.041 540.96,594.387C553.527,596.221 565.985,599.106 576.449,607.223C577.366,607.924 578.984,608.167 580.09,607.924C583.677,606.98 587.182,605.74 591.955,604.23C579.55,599.565 568.305,595.304 556.979,591.205C548.377,588.104 544.412,581.308 541.689,573.218C539.1,565.478 536.242,557.82 533.356,550.215C532.898,549.028 531.657,548.139 530.794,547.114C530.443,547.276 530.093,547.411 529.742,547.519C530.74,559.708 531.711,571.843 532.762,584.679C528.285,582.845 527.53,578.773 526.91,574.917C525.966,568.769 525.562,562.539 524.564,556.391C521.625,538.512 515.368,521.631 508.384,505.019C503.018,492.345 499.889,479.077 498.757,465.512C497.57,451.543 497.328,437.493 497.355,423.497C497.382,397.285 497.867,371.073 498.245,344.861C498.272,343.513 498.838,342.137 499.189,340.789L501.023,340.924C501.859,350.174 502.695,359.396 503.558,368.943L503.556,368.939ZM736.119,338.924L736.254,339.005C735.445,337.036 734.016,335.041 733.935,333.045C733.692,324.362 733.827,315.705 733.827,306.348C728.434,309.746 720.586,308.829 720.236,317.512C719.616,315.166 718.942,312.82 718.24,310.285C715.22,309.638 712.118,308.937 709.988,308.478C709.988,318.752 709.557,329.108 710.123,339.436C710.662,349.441 707.669,359.445 710.689,369.531C711.633,372.74 710.338,376.677 710.123,380.264C710.042,381.909 709.718,383.662 710.123,385.199C713.898,398.548 711.121,412.004 710.959,425.434C710.959,426.648 709.88,427.807 709.314,428.994C708.451,418.369 708.235,408.176 708.478,398.036C708.694,389.353 710.447,380.642 706.833,372.202C704.945,367.887 703.031,363.573 701.116,359.258C695.507,346.422 686.149,337.63 672.909,332.749C672.531,333.828 672.424,334.906 671.857,335.661C669.565,339.032 670.697,340.973 673.987,342.969C678.733,345.854 683.695,348.794 687.47,352.758C693.672,359.284 699.201,366.538 699.12,376.354C699.093,380.669 698.338,385.118 699.309,389.19C702.302,402.026 701.251,414.809 698.904,427.375C696.585,439.645 693.645,451.969 689.25,463.646C683.506,478.855 675.281,493.202 672.072,509.328C669.456,522.245 667.73,535.351 665.357,548.295C664.44,553.473 662.876,558.515 661.689,563.423C670.238,567.9 680.836,557.167 680.512,547.917C679.919,530.685 683.397,513.966 688.225,497.705C692.324,483.844 698.661,470.711 703.839,457.174C704.945,454.181 705.565,450.918 706.077,447.736C706.94,442.639 707.506,437.516 708.234,432.392C708.639,432.446 709.043,432.473 709.448,432.5C709.664,433.767 709.853,435.008 710.068,436.275C712.279,450.244 706.643,462.81 701.978,475.215C698.634,484.114 694.832,492.663 693.429,502.155C691.541,515.369 689.276,528.529 687.227,541.743C686.769,544.736 687.011,547.838 686.256,550.723C684.18,558.759 678.651,564.099 671.424,567.523C665.41,570.408 659.181,572.835 652.871,575.047C640.439,579.47 627.927,583.622 615.441,587.883C613.553,588.53 611.72,589.231 609.481,590.04C617.517,597.24 617.571,597.105 625.634,592.952C630.839,590.282 636.07,587.505 641.598,585.698C648.178,583.541 655.108,582.3 662.228,584.619C650.336,589.931 636.555,590.633 624.906,600.691C640.412,603.63 654.785,607.514 669.348,608.808C682.778,609.995 696.207,611.208 708.989,614.983C733.772,622.372 756.828,633.698 776.73,650.606C781.665,654.786 786.546,657.698 793.369,656.674C800.974,655.514 808.659,654.948 816.318,654.112C819.446,653.788 822.601,653.384 825.918,652.979C825.513,651.361 825.217,650.417 825.028,649.473C824.785,648.34 824.677,647.208 824.381,646.102C816.561,616.465 796.578,596.833 770.825,582.541C762.142,577.768 752.595,573.399 741.97,574.505C734.689,575.287 729.107,571.323 723.363,568.033C721.664,567.089 720.235,564.473 719.911,562.478C718.697,554.496 718.077,546.46 716.945,538.504C715.947,531.25 714.518,524.104 713.304,516.876C711.281,524.076 709.852,530.953 709.097,537.937C708.315,544.948 708.099,552.041 707.857,559.079C707.614,567.034 699.767,574.666 690.922,574.693C693.78,572.374 696.504,570.54 698.635,568.248C700.199,566.576 702.033,564.176 701.952,562.18C700.846,538.908 708.532,516.902 711.498,494.277C711.741,492.497 710.662,490.609 710.258,488.749C710.177,488.318 710.231,487.832 710.231,487.077C711.525,486.969 712.685,486.888 712.55,486.888C721.395,469.71 718.213,451.561 719.993,433.817C721.18,435.354 721.854,436.945 721.773,438.509C721.234,448.001 720.721,457.521 719.724,466.959C718.726,476.856 717.108,486.672 715.868,496.542C715.571,498.915 715.248,501.504 715.922,503.688C721.261,520.92 723.958,538.502 723.904,556.489C723.904,560.345 731.536,569.838 734.853,570.404C740.759,571.429 746.745,572.157 752.624,573.478C759.231,574.988 766.35,575.905 772.148,579.114C781.991,584.48 791.241,591.006 800.194,597.775C817.075,610.557 827.512,627.547 831.853,648.284C832.096,649.444 833.067,651.466 833.498,651.412C836.707,651.034 840.132,650.684 842.883,649.255C843.746,648.77 843.449,644.563 842.532,642.621C839.647,636.419 835.952,630.54 833.04,624.337C826.352,610.018 816.698,598.287 803.862,589.091C801.462,587.392 799.601,584.884 797.12,583.374C791.187,579.76 784.526,577.145 779.025,572.992C770.827,566.79 761.766,563.904 751.815,563.527C743.941,563.203 742.161,562.475 740.435,554.547C739.006,547.886 738.278,541.037 737.846,534.187C736.686,515.984 736.012,497.728 734.88,479.498C734.044,466.554 732.48,453.664 731.752,440.72C731.294,432.711 731.752,424.621 731.752,416.558C731.779,402.724 731.644,388.836 731.779,375.002C731.806,371.712 732.588,368.422 733.046,365.132C733.612,365.132 734.179,365.159 734.745,365.186C734.61,406.284 733.424,447.408 741.649,488.236C742.62,488.398 744.049,488.641 746.854,489.072C740.813,491.472 741.407,495.571 741.703,499.454C742.539,510.079 743.645,520.704 744.373,531.329C744.751,537.046 744.562,542.79 744.643,548.507C744.751,555.087 748.122,558.458 754.513,558.593C756.805,558.62 759.043,559.078 761.336,559.375C763.493,559.672 765.165,559.699 764.896,556.517C763.224,533.784 760.986,511.159 753.92,489.261C748.985,474.025 747.583,458.168 747.664,442.204C747.691,434.276 747.502,426.374 747.664,418.5C747.934,402.832 748.311,387.164 748.743,371.497C748.932,366.077 748.338,360.306 750.01,355.317C754.621,341.402 761.606,328.835 775.521,322.39C770.883,319.855 766.244,317.347 760.285,314.138C755.296,318.884 749.552,324.197 744.051,329.752C741.193,332.584 738.739,335.847 736.123,338.921L736.119,338.924ZM164.635,364.004C164.635,374.791 164.473,385.605 164.662,396.391C164.797,405.722 165.282,415.052 165.633,424.383C165.795,429.561 166.011,434.711 166.172,439.889C166.927,439.943 167.709,440.024 168.464,440.078C169.435,434.819 171.053,429.534 171.242,424.194C171.593,411.573 171.296,398.926 171.296,386.278C171.296,377.055 171.323,367.833 171.404,358.583C171.404,357.558 171.835,356.507 171.943,355.994C172.941,367.59 173.939,379.59 174.963,391.563C175.799,391.563 176.662,391.563 177.498,391.536C178.496,377.81 179.494,364.03 180.491,350.304C180.761,350.25 181.003,350.223 181.246,350.196C184.563,374.385 187.853,398.602 191.143,422.791C191.79,422.818 192.464,422.818 193.139,422.818C193.463,421.578 193.921,420.364 194.11,419.124C194.811,414.27 195.755,409.389 195.89,404.535C196.052,399.465 195.135,394.395 195.081,389.326C194.946,377.946 195.054,366.62 195.054,354.808C200.366,358.691 206.03,362.79 211.639,366.916C212.691,367.671 213.635,369.208 214.659,369.208C221.239,369.208 227.954,369.559 234.372,368.426C241.168,367.212 246.885,367.887 251.981,372.525C252.547,373.064 253.275,373.739 253.356,374.44C254.839,383.42 256.026,392.481 257.644,401.461C258.129,404.05 259.72,406.45 260.772,408.931C261.662,406.477 262.687,404.05 263.415,401.542C264.089,399.196 264.682,396.823 264.925,394.396C265.168,392.347 265.653,389.488 264.601,388.301C261.311,384.607 262.578,380.535 262.686,376.624C262.794,373.846 264.223,372.094 267.324,371.312C271.989,370.179 273.985,366.323 275.171,363.141C270.802,361.981 266.946,360.525 263.036,360.067C259.746,359.662 256.025,359.662 252.977,360.822C247.206,363.006 242.622,362.656 237.417,358.961C234.451,356.831 229.731,356.21 225.902,356.426C215.978,356.965 206.944,355.132 198.989,348.417C201.928,348.848 204.841,349.28 207.78,349.684C212.958,350.331 218.081,351.383 223.286,351.518C230.243,351.68 236.85,352.435 242.729,356.884C243.996,357.855 246.774,357.612 248.581,356.992C255.188,354.781 261.39,354.295 268.105,357.127C270.586,358.152 274.334,356.156 277.516,355.563C279.215,355.239 281.237,354.242 282.559,354.808C285.094,355.914 286.361,355.024 288.033,353.298C293.345,347.959 292.779,346.934 286.172,343.617C277.597,339.356 269.641,333.855 261.308,329.163C252.409,324.12 243.779,318.026 232.561,321.45C231.563,321.774 229.945,321.261 229.055,320.56C223.284,315.895 217.432,317.513 213.198,324.659C210.366,324.281 207.508,323.904 205.593,323.661C216.488,312.739 227.787,301.413 239.41,289.844C243.833,293.215 249.172,297.233 254.538,301.251C249.226,307.211 250.196,306.833 254.835,312.982C258.529,317.863 262.682,321.665 267.294,325.333C279.591,335.122 293.91,340.246 309.012,343.536C310.387,343.86 312.545,343.293 313.542,342.349C316.913,339.14 320.526,339.005 324.464,340.65C330.451,343.158 336.114,341.028 341.534,339.005C343.61,338.223 344.851,335.284 347.413,332.182C342.586,331.265 338.649,330.321 334.604,329.782C326.999,328.838 321.094,322.932 318.397,312.901C309.282,314.546 303.215,308.829 296.877,303.543C295.286,302.222 292.913,301.386 290.809,301.17C287.061,300.765 283.231,301.008 279.402,301.062C274.116,301.17 270.827,298.608 269.208,293.619C268.723,292.082 268.075,290.572 267.401,289.089C264.381,282.185 260.929,275.794 251.221,276.657C256.938,269.349 264.003,269.538 268.264,276.414C271.284,281.268 273.55,286.554 276.3,291.542C276.893,292.594 278.349,294.158 279.158,294.023C290.781,292.027 299.976,296.423 308.606,303.731C310.817,305.619 315.078,306.104 318.179,305.7C323.06,305.107 324.921,307.453 325.703,311.336C327.591,320.316 330.233,322.527 339.106,322.959C343.583,323.175 348.005,324.226 352.455,324.901C356.958,325.575 360.195,323.634 362.217,319.777C363.889,316.595 366.316,315.921 369.768,315.597C375.161,315.112 380.474,313.521 385.732,311.876C366.99,312.334 349.893,307.157 333.335,299.66C333.443,299.067 333.551,298.5 333.659,297.88C336.41,298.285 339.268,298.365 341.938,299.147C355.718,303.246 369.822,305.403 384.033,303.785C389.669,303.111 394.982,299.12 400.321,296.423C407.44,292.782 414.317,290.275 422.946,290.517C430.416,290.76 437.562,285.582 442.443,277.762C433.894,276.926 426.452,275.578 418.388,278.814C407.385,283.237 395.547,283.911 384.679,278.194C376.346,273.771 368.229,275.336 359.842,276.819C359.087,276.981 358.305,277.062 357.577,277.17C357.442,276.765 357.334,276.334 357.253,275.93C361.217,274.824 365.181,273.018 369.199,272.829C374.215,272.559 379.5,272.937 384.274,274.285C396.112,277.602 407.331,277.845 418.414,271.615C426.154,267.273 434.432,269.916 442.522,270.698C449.587,271.399 454.738,275.822 460.239,279.57C464.527,282.482 468.464,284.586 474.1,281.485C480.437,277.979 486.667,278.707 493.193,283.346C500.636,288.658 508.807,293.728 518.866,292.164C521.077,291.84 523.369,291.49 525.473,290.762C533.428,287.957 541.33,284.991 549.258,282.133C550.472,281.702 551.874,281.216 553.087,281.405C559.64,282.403 566.166,283.643 572.719,284.722C577.816,285.558 582.939,286.232 587.119,282.349C589.519,280.111 591.865,277.765 590.193,273.827C588.036,268.919 590.436,265.467 594.076,262.285C599.146,257.862 604.377,253.521 608.8,248.505C614.76,241.682 613.465,236.936 605.375,232.783C604.997,232.567 604.647,232.325 604.135,232.001C608.908,230.922 614.059,232.244 615.812,235.453C618.158,239.849 618.59,244.514 615.92,249.044C611.632,256.217 606.94,262.986 599.632,267.597C598.365,268.406 597.259,270.914 597.475,272.424C598.958,281.943 592.54,291.517 583.183,291.948C577.709,292.191 572.234,290.519 566.733,289.899C559.317,289.036 552.548,286.555 544.512,291.032C533.24,297.342 520.538,302.142 506.92,297.963C502.524,296.642 498.506,294.134 493.463,291.761C493.355,296.669 494.38,300.256 497.562,303.438C504.978,310.854 513.526,312.337 523.585,310.207C533.293,308.184 543.244,307.456 553.06,305.973C554.732,305.703 556.431,304.733 557.833,303.708C566.058,297.721 574.903,298.207 584.126,300.715C586.526,301.389 589.519,301.227 591.812,300.337C595.426,298.935 598.796,296.777 602.032,294.566C604.971,292.57 606.455,290.009 605.996,285.856C604.998,277.092 608.072,269.649 614.491,263.258C620.181,257.676 625.143,251.366 630.455,245.406C630.94,244.894 632.181,244.246 632.424,244.462C633.044,244.974 633.799,246.053 633.664,246.7C633.206,248.561 632.397,250.368 631.588,252.12C628.325,259.051 622.392,263.77 617.242,269.055C615.678,270.646 614.276,272.345 612.792,273.99C613.062,274.395 613.277,274.799 613.547,275.204C621.367,272.48 629.215,269.784 637.008,266.952C644.478,264.228 647.309,256.974 646.986,250.853C646.716,245.891 647.552,241.226 647.579,236.453C647.633,231.869 646.042,229.28 641.188,227.5C632.127,224.156 623.686,219.275 614.76,215.473C610.796,213.774 606.481,212.668 602.22,212.021C595.101,210.996 587.82,211.266 580.862,209.729C573.284,208.03 568.916,203.527 570.965,195.652C572.34,190.232 567.19,184.649 561.068,184.218C553.463,183.679 546.128,184.596 538.847,187.292C530.325,190.393 521.265,192.308 513.013,196.056C503.817,200.29 494.46,200.02 484.833,200.29C478.765,200.425 472.671,202.393 466.792,204.146C461.48,205.764 456.76,204.631 451.987,202.69C449.425,201.638 446.863,200.506 444.571,198.969C439.393,195.49 434.162,194.223 427.878,195.814C425.235,196.488 421.972,194.061 419.033,194.088C411.482,194.169 403.931,194.6 396.435,195.328C385.513,196.326 374.834,196.919 364.398,192.119C357.656,189.045 350.348,187.238 342.878,184.703C344.981,182.815 345.683,178.824 351.184,180.092C358.141,181.71 365.369,182.168 372.488,183.058C373.27,183.166 374.214,183.193 374.861,182.842C383.275,178.419 391.985,174.401 398.295,166.931C398.942,166.203 399.104,164.855 399.131,163.83C399.212,159.03 398.969,154.23 399.239,149.457C399.509,145.493 397.567,143.74 394.088,142.958C391.607,142.419 389.126,141.879 386.591,141.313C392.038,132.495 396.946,132.576 404.956,138.535C411.779,143.551 418.035,145.6 426.395,143.227C433.946,141.097 440.661,144.845 447.133,148.647C452.769,151.937 458.675,154.769 464.688,157.222C466.306,157.869 468.733,156.413 470.81,156.008C471.889,155.792 473.021,155.657 474.127,155.738C480.815,156.223 487.557,156.439 494.217,157.41C506.972,159.271 516.546,150.372 528.007,147.891C535.153,146.381 542.326,145.006 549.5,143.657C556.161,142.417 561.015,138.695 564.655,133.086C566.489,130.201 568.889,127.666 570.911,124.915C572.556,122.677 574.201,120.438 575.522,118.011C577.706,113.966 576.223,111.215 571.612,109.894L572.718,108.519C574.848,110.002 577.815,111.027 579.055,113.076C581.536,117.148 578.866,124.186 575.468,127.584C572.151,130.874 569.832,135.108 566.812,138.721C564.709,141.256 562.282,143.548 559.801,145.705C556.268,148.779 552.331,150.424 547.369,150.748C541.787,151.099 536.34,152.986 530.919,154.496C542.434,157.139 553.679,154.065 562.228,146.406C563.576,145.219 565.006,143.952 566.597,143.251C576.71,138.828 582.939,130.577 588.98,121.866C591.353,118.441 595.021,115.879 597.825,112.67C599.497,110.728 600.683,108.355 601.789,106.602C611.794,116.822 622.554,127.798 633.098,138.531C619.561,140.311 605.942,134.702 591.191,132.059C589.249,134.216 586.822,136.913 584.449,139.583C583.667,140.446 583.074,141.552 582.157,142.172C573.447,148.213 564.575,154.037 555.972,160.294C553.734,161.912 551.603,164.501 550.767,167.09C549.607,170.515 549.796,174.371 549.392,178.146L555.675,178.146C558.857,173.777 561.311,169.382 564.682,165.903C570.021,160.375 576.763,158.271 584.368,160.617C590.84,162.586 596.045,161.75 600.44,155.898C604.782,150.181 608.827,150.612 614.813,154.631C618.13,156.842 622.66,157.274 626.651,158.487C629.563,159.377 632.503,160.186 635.415,161.022L635.415,162.289C634.201,162.586 632.745,163.449 631.801,163.044C624.682,159.889 615.864,162.936 609.418,156.896C608.906,156.438 605.589,157.975 604.483,159.296C599.171,165.822 593.939,167.764 585.822,165.714C575.062,162.99 566.19,168.06 563.224,177.66C567.754,181.139 571.961,184.321 577.463,188.474C582.02,188.177 588.466,187.854 593.454,194.029C594.479,195.269 599.117,195.189 600.762,193.948C608.205,188.339 615.27,191.791 622.093,194.487C625.68,195.889 627.325,199.853 626.65,204.06C625.302,212.15 627.89,216.303 635.522,218.946C640.403,220.618 645.446,222.155 649.841,224.771C656.906,229.032 654.318,236.367 654.318,242.758C654.318,245.59 653.698,248.394 653.86,251.199C654.265,259.289 648.278,269.752 640.835,273.312C636.925,275.2 632.907,276.953 629.05,278.705C630.533,287.631 631.558,287.631 640.187,286.66C650.677,285.473 661.329,285.797 671.873,285.123C684.062,284.314 696.224,283.586 707.469,277.68C714.804,273.851 722.786,271.882 731.173,274.363C737.618,276.332 739.722,281.078 736.297,286.903C733.843,291.11 734.436,294.616 737.834,297.393C742.823,301.465 748.001,305.483 755.228,304.081C758.869,303.407 761.565,304.755 764.505,307.182C768.28,310.31 772.703,312.899 777.233,314.733C780.847,316.216 783.085,317.591 783.381,321.798C783.759,327.057 789.503,329.888 795.57,327.11C800.047,325.061 803.984,321.636 807.894,318.454C810.995,315.973 813.449,315.029 815.66,319.236C804.873,333.906 789.448,339.326 777.987,328.108C777.852,328.135 777.69,328.108 777.556,328.189C767.821,333.043 762.401,340.027 763.264,351.812C764.046,362.113 762.913,372.577 763.21,382.959C763.399,389.107 764.855,395.229 765.502,401.404C766.527,411.463 767.363,421.602 768.307,431.688C768.361,432.497 768.091,433.468 768.442,434.142C769.116,435.409 770.087,436.515 770.95,437.702C772.083,436.731 773.97,435.895 774.186,434.79C775.13,428.776 775.993,422.736 776.209,416.722C776.398,411.302 775.427,405.881 775.454,400.434C775.508,395.041 776.182,389.647 777.503,383.661C778.231,385.09 779.364,386.493 779.606,388.003C780.9,397.253 782.168,406.502 783.058,415.806C783.516,420.714 783.301,425.703 783.247,430.638C783.085,439.16 782.033,447.573 785.323,456.041C789.26,466.261 789.826,477.183 789.233,488.105C789.206,488.914 789.422,489.75 789.664,490.505C789.826,490.91 790.311,491.233 791.201,492.231C792.9,480.123 795.192,468.608 795.92,457.039C796.405,449.92 794.437,442.666 793.763,435.438C793.601,433.604 794.491,431.663 794.626,429.748C794.95,425.298 795.246,420.795 795.273,416.318C795.354,408.659 795.084,401.028 795.327,393.396C795.354,392.129 797.134,390.888 798.132,389.648L799.912,390.322C802.15,405.37 804.362,420.444 806.6,435.492L808.083,435.492C807.813,421.793 811.912,408.255 807.867,394.421C808.487,394.34 809.081,394.286 809.728,394.205C810.24,398.169 810.834,402.079 811.292,406.043C812.101,412.623 812.883,419.203 813.584,425.783C814.096,430.502 814.555,435.248 814.932,439.968C815.984,451.753 816.928,463.483 818.006,475.214C818.06,475.969 818.572,476.67 819.273,478.261C823.048,473.434 823.83,468.337 823.803,463.375C823.749,447.464 823.075,431.554 822.994,415.643C822.913,406.097 823.399,396.523 823.884,386.977C823.965,385.548 825.529,384.226 826.392,382.878C826.85,383.067 827.309,383.283 827.767,383.471C828.118,391.345 828.36,399.247 828.954,407.094C829.439,413.162 830.41,419.229 831.111,425.297C831.354,427.697 831.273,430.178 831.677,432.578C831.893,433.684 832.783,435.221 833.673,435.463C834.563,435.733 836.262,434.924 836.828,434.061C837.799,432.605 838.635,430.798 838.662,429.099C839.067,411.301 839.228,393.503 839.552,375.704C839.579,374.302 840.199,372.926 840.496,371.551C841.116,371.551 841.71,371.551 842.33,371.497L851.229,416.343C851.741,416.289 852.227,416.262 852.712,416.235C855.49,411.246 856.326,405.934 854.896,400.109C854.168,397.116 854.249,393.961 853.575,390.967C851.579,381.825 853.521,372.629 852.739,363.461C852.631,362.113 853.602,360.629 854.087,359.227C855.381,359.847 856.972,360.198 857.943,361.169C892.407,395.552 926.951,429.881 961.2,464.426C988.302,491.797 987.628,533.138 959.825,561.022C914.386,606.596 868.838,652.062 823.318,697.583C736.134,784.713 648.923,871.844 561.819,959.109C549.441,971.487 535.095,979.226 517.512,980.629C498.824,982.085 482.374,976.692 468.055,964.665C466.167,963.074 464.414,961.321 462.689,959.568C330.092,827.025 197.523,694.429 64.899,561.913C52.926,549.94 45.132,536.16 43.46,519.143C41.357,497.785 47.91,479.448 62.93,464.238C79.596,447.33 96.504,430.637 113.277,413.81C129.97,397.09 146.608,380.398 163.247,363.705C163.705,363.813 164.137,363.894 164.622,364.002L164.635,364.004Z" style="fill:rgb(69,28,21);fill-rule:nonzero;"/>
    </g>
    <g transform="matrix(0.058594,0,0,0.058594,-0.000054,0.000065)">
        <path d="M458.418,87.309C462.086,87.309 465.753,87.174 469.421,87.336C473.169,87.525 476.945,87.741 480.666,88.388C484.414,89.008 488.109,90.141 491.83,91.085C500.109,93.188 508.927,95.508 516.721,91.516C528.856,85.314 541.585,83.884 554.717,83.75C557.306,83.723 559.895,85.449 562.537,86.042C565.557,86.743 568.847,87.903 571.76,87.417C581.306,85.826 586.915,87.902 591.203,95.076C584.731,95.076 577.773,95.4 570.843,94.914C567.068,94.698 563.373,93.188 559.652,92.19C558.735,91.92 557.845,91.084 556.955,91.084C547.355,91.3 537.566,90.059 528.532,94.698C520.226,98.932 511.516,102.087 502.104,99.93C496.98,98.77 492.207,96.209 487.137,94.618C482.714,93.189 478.157,92.029 473.573,91.193C469.879,90.519 466.049,90.546 462.301,90.087C460.953,89.898 459.658,89.251 458.337,88.82C458.364,88.308 458.391,87.795 458.418,87.31L458.418,87.309Z" style="fill:rgb(69,28,21);fill-rule:nonzero;"/>
    </g>
    <g transform="matrix(0.058594,0,0,0.058594,-0.000054,0.000065)">
        <path d="M398.417,129.496C400.898,124.157 405.024,124.561 409.446,125.073C413.869,125.639 418.453,125.289 422.849,126.152C428.188,127.177 433.393,128.957 438.571,130.655C442.077,131.815 445.421,133.379 448.872,134.727C457.043,137.828 465.268,140.875 473.412,143.977C478.563,145.946 482.904,146.889 488.918,144.355C497.359,140.768 505.395,134.593 515.427,135.78C517.018,135.996 518.528,137.02 520.011,137.668C518.797,138.828 517.773,140.473 516.317,140.985C513.432,142.037 510.249,142.199 507.337,143.169C499.948,145.677 492.721,148.724 485.251,151.016C478.914,153.012 473.332,150.611 468.612,146.27C465.942,143.816 463.704,140.175 459.308,143.519C459.038,143.762 458.31,143.654 457.879,143.492C450.544,140.499 443.317,137.344 435.928,134.539C432.476,133.245 428.836,132.139 425.195,131.734C416.404,130.763 407.613,130.251 398.417,129.496Z" style="fill:rgb(69,28,21);fill-rule:nonzero;"/>
    </g>
    <g transform="matrix(0.058594,0,0,0.058594,-0.000054,0.000065)">
        <path d="M788.106,291.818C775.351,295.62 759.71,295.701 750.514,286.452C748.923,284.834 747.359,282.299 747.332,280.196C747.251,269.382 733.336,264.232 725.408,265.661C721.498,266.362 717.48,266.524 713.462,266.928C713.273,266.011 713.057,265.04 712.869,264.123C716.941,262.586 720.878,260.644 725.085,259.646C738.11,256.599 748.142,264.581 752.942,272.428C753.535,273.399 754.479,274.558 754.344,275.529C753.104,284.967 760.924,285.129 766.506,286.963C769.445,287.961 773.221,287.745 776.241,286.855C781.607,285.264 785.113,286.99 788.106,291.817L788.106,291.818Z" style="fill:rgb(69,28,21);fill-rule:nonzero;"/>
    </g>
    <g transform="matrix(0.058594,0,0,0.058594,-0.000054,0.000065)">
        <path d="M353.523,172.155C356.381,171.346 358.107,170.645 359.887,170.429C365.415,169.728 371.375,172.478 376.391,168.299C378.306,166.735 380.328,165.198 381.784,163.283C385.856,157.971 385.425,153.845 380.085,146.59C381.11,145.727 382.188,144.81 383.267,143.893C391.546,151.363 392.193,157.026 385.937,165.79C379.654,174.608 364.822,178.006 353.523,172.154L353.523,172.155Z" style="fill:rgb(69,28,21);fill-rule:nonzero;"/>
    </g>
    <g transform="matrix(0.058594,0,0,0.058594,-0.000054,0.000065)">
        <path d="M457.475,387.621L457.475,392.853C457.502,407.307 457.637,421.762 457.475,436.216C457.34,449.969 456.72,463.722 456.585,477.502C456.504,482.895 457.232,488.289 457.475,493.682C458.068,507.085 455.452,519.975 452.405,532.973C449.762,544.083 448.117,555.436 447.012,566.817C445.906,577.523 439.974,583.644 429.106,585.424C420.719,586.772 412.44,589.415 404.323,592.139C395.208,595.159 386.336,598.854 377.383,602.413C372.232,604.462 367.216,606.755 362.093,608.912C360.933,609.397 359.72,609.748 358.56,610.152C358.371,609.801 358.182,609.424 357.967,609.046C361.554,606.727 364.978,604.03 368.781,602.169C378.031,597.639 387.361,593.405 396.8,589.279C400.252,587.769 403.137,586.394 403.811,582.16C405.051,574.609 407.775,567.112 407.775,559.616C407.802,545.404 412.683,532.622 417.834,520.002C424.171,504.496 429.241,488.855 430.913,472.082C431.722,464.154 433.745,456.36 435.497,447.057C436.36,451.884 437.735,455.444 437.52,458.922C436.441,475.237 437.925,491.876 432.477,507.678C428.917,517.952 423.659,527.741 420.692,538.151C416.809,551.958 413.33,566.008 415.083,580.678C421.097,579.518 427.137,578.521 433.07,577.118C434.176,576.848 435.659,574.88 435.605,573.774C435.281,564.578 437.924,554.951 431.209,546.618C431.533,546.294 431.856,545.944 432.207,545.62C434.176,546.186 436.117,546.699 438.895,547.454C439.758,545.189 440.783,542.573 441.753,540.092C439.434,538.339 437.546,536.883 434.472,534.564C439.65,533.324 445.448,534.402 445.178,526.932C444.396,526.608 442.697,525.934 441.025,525.233L441.591,523.372C451.272,523.291 449.088,515.875 449.384,511.183C450.598,494.14 451.002,476.989 451.595,459.919C452.053,445.761 452.107,431.577 452.647,417.419C452.998,408.87 453.887,400.349 454.643,391.827C454.805,390.317 455.479,388.834 455.91,387.35C456.422,387.458 456.962,387.539 457.474,387.62L457.475,387.621Z" style="fill:rgb(69,28,21);fill-rule:nonzero;"/>
    </g>
    <g transform="matrix(0.058594,0,0,0.058594,-0.000054,0.000065)">
        <path d="M457.052,355.304L457.052,381.004C453.034,372.59 456.297,363.907 455.596,355.358C456.108,355.331 456.567,355.331 457.052,355.304Z" style="fill:rgb(69,28,21);fill-rule:nonzero;"/>
    </g>
    <g transform="matrix(0.058594,0,0,0.058594,-0.000054,0.000065)">
        <path d="M721.107,423.007L718.68,323.391C719.516,323.391 720.379,323.364 721.215,323.364C725.071,356.533 723.345,389.838 722.698,423.088C722.186,423.061 721.619,423.034 721.107,423.007Z" style="fill:rgb(69,28,21);fill-rule:nonzero;"/>
    </g>
    <g transform="matrix(0.058594,0,0,0.058594,-0.000054,0.000065)">
        <path d="M736.114,338.916C735.736,342.772 735.386,346.629 734.981,350.458C734.954,350.647 734.523,350.836 733.875,351.321C733.875,347.977 733.659,344.93 733.983,341.91C734.064,340.885 735.439,339.968 736.248,338.998L736.114,338.916Z" style="fill:rgb(69,28,21);fill-rule:nonzero;"/>
    </g>
    <g transform="matrix(0.058594,0,0,0.058594,-0.000054,0.000065)">
        <path d="M329.813,440.436C327.197,422.503 327.764,404.57 329.355,386.664C329.517,404.597 335.908,422.449 329.813,440.436Z" style="fill:rgb(69,28,21);fill-rule:nonzero;"/>
    </g>
    <g transform="matrix(0.058594,0,0,0.058594,-0.000054,0.000065)">
        <path d="M566.373,833.841C558.418,837.697 554.535,835.243 555.532,825.481C557.285,827.692 559.065,829.931 560.656,831.926C566.022,828.285 571.605,824.456 577.16,820.627C577.591,821.166 578.023,821.76 578.454,822.299L567.478,832.762L566.373,833.841Z" style="fill:rgb(69,28,21);fill-rule:nonzero;"/>
    </g>
    <g transform="matrix(0.058594,0,0,0.058594,-0.000054,0.000065)">
        <path d="M566.373,833.841L567.479,832.762C574.571,832.681 581.61,832.843 588.001,837.724C585.385,837.724 582.796,837.859 580.154,837.697C576.621,837.481 573.008,837.292 569.529,836.645C568.342,836.402 567.426,834.811 566.374,833.84L566.373,833.841Z" style="fill:rgb(69,28,21);fill-rule:nonzero;"/>
    </g>
    <g transform="matrix(0.058594,0,0,0.058594,-0.000054,0.000065)">
        <path d="M577.958,784.521C579.064,778.858 582.839,774.84 587.828,775.433C584.727,779.235 582.057,782.498 579.387,785.761C578.902,785.356 578.443,784.925 577.958,784.521Z" style="fill:rgb(69,28,21);fill-rule:nonzero;"/>
    </g>
    <g transform="matrix(0.058594,0,0,0.058594,-0.000054,0.000065)">
        <path d="M591.368,773.939C594.577,775.719 597.732,777.526 600.941,779.332C600.644,779.898 600.348,780.492 600.051,781.085C596.68,779.521 593.309,777.93 589.884,776.366C590.396,775.557 590.882,774.748 591.367,773.939L591.368,773.939Z" style="fill:rgb(69,28,21);fill-rule:nonzero;"/>
    </g>
</svg>
