<?xml version="1.0" encoding="UTF-8" standalone="no"?>
<!DOCTYPE svg PUBLIC "-//W3C//DTD SVG 1.1//EN" "http://www.w3.org/Graphics/SVG/1.1/DTD/svg11.dtd">
<svg width="100%" height="100%" viewBox="0 0 60 61" version="1.1" xmlns="http://www.w3.org/2000/svg" xmlns:xlink="http://www.w3.org/1999/xlink" xml:space="preserve" xmlns:serif="http://www.serif.com/" style="fill-rule:evenodd;clip-rule:evenodd;stroke-linejoin:round;stroke-miterlimit:2;">
    <g transform="matrix(0.058594,0,0,0.058594,-0.00005,0.000059)">
        <path d="M511.96,1009.647C486.288,1009.647 462.174,999.658 444.021,981.532L42.429,579.94C4.995,542.48 4.995,481.522 42.429,444.116L444.048,42.497C462.201,24.344 486.288,14.355 511.96,14.355C537.605,14.355 561.692,24.344 579.845,42.497L981.464,444.116C999.617,462.242 1009.579,486.356 1009.579,512.028C1009.579,537.673 999.616,561.787 981.464,579.94L579.872,981.532C561.719,999.658 537.605,1009.647 511.96,1009.647Z" style="fill:rgb(232,203,158);fill-rule:nonzero;"/>
    </g>
    <g transform="matrix(0.058594,0,0,0.058594,-0.00005,0.000059)">
        <path d="M511.919,14.436C487.304,14.435 462.71,23.798 444.025,42.483L42.444,444.104C5.055,481.493 5.055,542.503 42.444,579.892L444.025,981.513C462.722,1000.194 487.346,1009.559 511.958,1009.56C536.57,1009.561 561.143,1000.191 579.852,981.513L981.473,579.892C1018.833,542.501 1018.833,481.495 981.473,444.104L579.852,42.483C561.155,23.802 536.533,14.437 511.919,14.436Z" style="fill:rgb(232,203,158);fill-rule:nonzero;"/>
    </g>
    <g transform="matrix(0.058594,0,0,0.058594,-0.00005,0.000059)">
        <path d="M1009.007,512.191C1009.007,509.036 1009.034,505.936 1008.98,502.781C1008.98,501.81 1008.737,500.813 1008.603,499.842C1005.529,476.735 994.906,457.672 978.485,441.251C846.258,309.24 714.193,177.121 582.101,45.002C580.699,43.627 579.324,42.171 577.841,40.85C555.3,20.304 528.903,11.811 498.65,15.72C476.378,18.605 457.882,28.878 442.108,44.651C323.605,163.262 205.022,281.791 86.465,400.348C71.285,415.528 55.97,430.52 41.032,445.943C25.582,461.851 16.738,481.184 14.986,503.267C12.505,534.005 22.67,560.159 44.618,581.972C91.048,628.16 137.29,674.563 183.613,720.886C269.949,807.249 356.258,893.638 442.674,979.92C481.447,1018.639 541.413,1019.556 579.404,981.619C713.626,847.693 847.633,713.606 981.666,579.438C1000.082,560.968 1009.034,538.292 1009.007,512.192L1009.007,512.191ZM512.105,0C542.331,0.431 568.431,10.812 589.678,32.059C723.523,165.661 857.233,299.425 990.916,433.189C1015.048,457.294 1025.995,486.684 1023.595,520.603C1021.681,547.944 1010.491,571.374 991.024,590.788C876.242,705.624 761.406,820.433 646.598,935.268C628.398,953.468 610.144,971.614 591.998,989.868C567.704,1014.324 538.368,1025.945 504.017,1023.734C477.216,1022.008 453.893,1011.439 434.749,992.565C406.33,964.523 378.207,936.158 349.977,907.928C244.713,802.664 139.476,697.346 34.131,592.163C9.756,567.788 -1.946,538.506 0.265,504.182C2.072,476.275 13.585,452.521 33.376,432.73C85.577,380.61 137.723,328.41 189.87,276.236C271.002,195.158 352.08,114.026 433.212,32.975C454.998,11.189 481.422,0.296 512.106,-0.001L512.105,0Z" style="fill:rgb(69,28,21);fill-rule:nonzero;"/>
    </g>
    <g transform="matrix(0.058594,0,0,0.058594,-0.00005,0.000059)">
        <path d="M385.796,276.169C382.533,287.871 376.602,296.796 365.277,302.728C352.47,309.469 343.14,305.128 332.948,296.068C330.629,316.479 317.714,324.056 299.837,324.137C293.797,324.164 287.569,320.982 285.25,312.597C284.306,315.185 283.524,316.695 283.309,318.259C281.88,328.532 276.353,336.109 267.913,341.717C265.136,343.524 262.305,346.085 259.258,346.463C251.034,347.568 250.98,347.164 244.725,340.909C242.972,345.277 241.516,349.834 239.413,354.094C234.101,364.744 224.718,369.139 212.854,366.713C209.079,365.931 205.412,364.61 201.637,363.99C200.558,363.801 198.752,364.907 198.078,365.904C194.896,370.65 191.876,375.503 188.991,380.41C182.169,391.977 171.681,394.35 159.305,392.975C153.427,392.301 149.814,388.823 146.632,384.509C146.012,383.646 146.497,381.678 146.902,380.357C147.118,379.521 148.196,378.955 148.924,378.254C253.217,273.934 357.564,169.641 461.804,65.293C474.153,52.917 488.336,44.936 505.943,43.453C525.006,41.835 541.696,47.336 556.202,59.739C558.467,61.653 560.543,63.81 562.646,65.887C683.387,186.655 804.181,307.422 924.976,428.136C926.324,429.511 928.265,430.32 929.506,432.18C919.826,437.357 910.767,440.404 900.602,436.737C889.52,432.746 889.116,421.746 884.397,412.524C883.345,413.899 882.375,414.978 881.701,416.218C873.45,431.83 853.066,427.974 846.757,416.865C842.713,409.747 840.609,401.523 837.67,393.812C836.618,391.062 835.675,388.258 834.623,385.426C821.735,395.321 806.366,393.704 798.142,382.083C793.477,375.477 791.887,368.143 791.455,360.324C791.239,356.253 791.051,352.181 790.808,347.57C781.209,354.688 773.983,354.284 764.816,347.705C754.597,340.317 750.121,330.098 748.584,318.046C748.395,316.509 747.883,314.945 747.425,312.842C739.093,321.902 730.034,320.257 720.678,315.916C715.231,313.408 712.481,308.555 711.322,303.324C709.354,294.426 708.437,285.286 707.089,276.415C699.863,281.915 690.857,284.989 681.097,286.553C671.957,288.009 663.14,280.999 661.549,273.179C660.578,268.272 659.796,263.337 658.88,258.026C653.973,268.622 645.021,272.289 634.263,272.505C622.399,272.775 612.8,264.335 610.886,252.606C610.32,249.37 608.648,246.351 606.572,243.277C603.849,252.606 597.998,258.889 590.475,263.472C587.159,265.494 583.06,266.923 579.204,267.247C574.378,267.732 569.389,266.95 564.509,266.411C559.602,265.872 552.322,257.217 551.513,251.797C551.055,248.777 549.922,245.892 548.871,241.929C545.716,248.184 543.505,253.415 540.593,258.161C535.416,266.6 526.33,270.079 517.674,271.966C509.477,273.746 501.82,269.054 496.023,262.664C493.812,260.237 491.952,257.541 490.415,255.573C486.721,259.671 483.027,263.851 479.279,267.922C475.342,272.182 470.354,273.584 464.611,273.503C461.537,273.422 458.409,275.094 455.39,274.851C446.843,274.123 442.448,267.49 437.756,261.45C437.028,260.506 436.489,259.482 435.599,258.08C427.645,288.44 410.496,294.696 385.798,276.172L385.796,276.169Z" style="fill:rgb(69,28,21);fill-rule:nonzero;"/>
    </g>
    <g transform="matrix(0.058594,0,0,0.058594,-0.00005,0.000059)">
        <path d="M510.824,735.93C520.477,743.776 530.13,751.623 539.917,759.604C542.398,751.785 546.523,746.015 553.533,741.727C558.44,738.734 562.053,733.611 566.26,729.459C565.883,729.135 565.532,728.785 565.181,728.434C561.568,730.402 558.09,733.18 554.234,734.042C550.675,734.851 546.657,733.584 542.505,732.343C552.32,725.387 555.016,714.547 560.301,705.299C562.728,701.093 566.853,697.372 571.032,694.756C576.937,691.143 579.364,685.885 580.658,680.115C582.384,683.863 583.786,688.15 586.185,691.763C588.342,694.945 591.335,697.803 594.517,699.96C600.853,704.328 604.979,709.478 606.947,717.351C608.43,723.364 613.041,728.568 616.519,734.526C608.754,737.708 601.15,734.877 593.519,730.859C598.345,739.433 607.135,742.507 615.009,747.01C620.456,736.333 629.677,730.266 638.17,723.121C631.456,720.964 626.414,726.491 620.887,726.599C622.855,720.532 624.77,714.358 626.819,708.237C628.868,702.089 631.942,696.886 637.389,692.733C642.215,689.093 646.071,684.132 650.466,679.656C650.439,679.602 651.059,680.6 651.518,681.705C654.053,688.554 658.286,693.919 664.811,697.532C671.767,701.361 675.192,707.859 676.89,715.274C678.13,720.505 678.885,725.844 680.018,731.856C673.088,728.701 666.294,725.574 659.553,722.446C659.283,722.931 659.041,723.39 658.771,723.848C663.921,726.841 669.583,729.214 674.059,732.988C678.697,736.898 682.175,742.182 686.732,746.335C689.833,736.574 697.571,732.665 703.584,727.245C705.984,725.034 708.249,722.58 710.055,719.641C703.988,723.038 699.62,729.402 691.504,729.078C696.465,715.65 698.811,701.495 709.3,690.871C712.212,687.932 713.641,683.51 716.122,679.088C717.389,690.278 727.15,693.459 734.214,698.744C740.955,703.759 744.945,709.556 745.35,717.834C745.458,720.099 745.566,722.364 745.727,725.492C738.339,723.712 731.464,722.122 724.588,720.477C726.61,723.955 729.684,727.029 734.052,728.836C741.683,731.937 748.963,735.55 753.196,741.266C757.834,737.249 762.687,733.339 767.217,729.079C771.154,725.358 774.74,721.314 777.598,716.676C771.208,719.399 764.844,722.096 758.589,724.738C761.15,716.784 763.146,709.558 765.815,702.601C766.894,699.851 769.104,697.208 771.45,695.348C777.867,690.225 782.505,684.158 784.231,676.015C784.366,675.422 784.851,674.883 785.552,673.696C788.841,684.994 795.825,692.489 805.747,697.37C806.879,697.936 807.904,698.88 808.767,699.878C813.89,705.513 813.809,706.996 808.551,712.308C802.188,718.617 802.188,718.617 794.773,716.083C798.116,722.689 798.116,722.689 792.427,728.405C715.555,805.277 638.603,882.122 561.785,959.101C549.436,971.477 535.092,979.215 517.512,980.618C498.854,982.101 482.379,976.708 468.089,964.71C466.067,963.011 464.206,961.124 462.346,959.263C386.283,883.173 310.193,807.083 233.996,731.155C229.925,727.111 229.062,723.578 232.297,719.264C235.748,714.545 239.28,709.8 243.406,705.702C248.987,700.175 252.277,693.623 254.623,686.343C254.812,685.723 255,685.13 255.216,684.563C255.243,684.455 255.486,684.455 255.513,684.455C256.565,688.634 256.861,693.164 258.829,696.831C260.689,700.336 264.006,703.194 267.107,705.81C273.794,711.445 280.346,716.811 282.206,726.302C283.285,731.937 286.17,737.222 288.381,742.965C282.206,745.257 276.814,741.185 270.262,739.19C276.733,750.73 290.808,748.978 298.223,759.574C301.89,745.823 315.506,740.862 319.605,727.785C310.141,730.643 303.562,739.514 293.99,736.548C298.061,730.266 303.023,724.522 305.8,717.89C309.116,709.963 313.619,703.249 319.443,697.101C324.997,691.277 330.417,685.264 331.226,676.501C332.035,679.494 332.817,682.541 333.653,685.534C336.322,695.106 341.985,702.359 349.939,708.291C355.736,712.659 358.864,718.914 360.616,726.087C361.829,731.075 364.553,735.74 366.602,740.566C362.908,742.912 354.9,740.62 337.077,733.205C339.558,734.958 341.849,737.034 344.492,738.328C352.689,742.345 359.618,747.792 364.337,755.557C366.952,759.79 368.597,764.563 370.646,769.119C371.428,770.872 372.102,772.651 373.207,775.213C375.822,769.766 377.521,764.805 380.406,760.653C383.534,756.204 387.686,752.456 391.461,748.466C394.346,745.419 397.447,742.534 400.278,739.514C401.222,738.516 401.788,737.222 402.435,736.278C399.28,735.793 396.099,737.383 392.728,739.514C387.362,742.884 381.7,745.796 376.011,748.493C374.447,749.248 372.236,748.628 369.944,748.25C375.579,744.475 376.927,738.651 378.599,732.8C381.241,723.525 388.71,717.862 395.828,712.416C407.045,703.761 414.81,693.057 418.585,679.171C419.529,696.266 429.451,707.213 443.175,715.49C449.781,719.427 454.338,724.388 454.068,732.773C453.825,740.323 457.061,746.632 463.155,752.348C455.524,753.373 450.806,749.894 446.654,745.392C442.124,740.458 437.271,736.063 430.233,735.497C428.993,735.389 427.672,736.36 425.353,737.223C439.131,744.449 450.159,752.376 458.329,763.916C459.111,764.995 462.67,765.723 463.344,765.021C473.239,754.586 485.238,745.958 492.221,732.908C492.275,732.773 492.221,732.611 492.167,731.964C487.583,735.388 483.269,738.84 478.712,741.832C474.101,744.933 469.221,748.06 463.478,743.423C471.351,737.464 473.589,728.971 475.315,720.289C476.501,714.411 478.254,709.099 483.539,705.298C491.898,699.312 498.719,692.059 499.285,680.034C500.39,682.434 501.388,683.944 501.82,685.615C504.247,694.755 510.179,700.957 517.863,706.08C520.505,707.86 522.662,710.772 524.361,713.603C526.033,716.38 526.599,719.805 528.082,722.717C530.967,728.406 533.529,734.527 540.889,736.441C535.739,740.243 523.794,739.569 510.825,735.929L510.824,735.93Z" style="fill:rgb(69,28,21);fill-rule:nonzero;"/>
    </g>
    <g transform="matrix(0.058594,0,0,0.058594,-0.00005,0.000059)">
        <path d="M854.39,480.644C858.893,498.386 863.423,516.154 867.925,533.923C868.329,519.821 867.898,505.827 867.197,491.861C867.089,489.866 866.092,487.223 864.609,486.118C861.4,483.826 857.599,482.289 854.39,480.644ZM279.241,444.594C283.205,439.633 286.359,435.48 289.676,431.49C300.623,418.44 312.271,406.306 328.826,400.321C331.819,399.242 333.005,397.301 332.843,393.958C332.25,384.278 332.007,374.572 331.738,364.865C331.603,360.173 331.711,355.509 331.711,350.278C329.581,350.79 327.99,351.033 326.48,351.491C322.301,352.839 318.094,354.106 313.969,355.616C306.392,358.474 298.573,360.928 291.428,364.676C287.411,366.779 283.42,370.635 281.452,374.679C279.43,378.885 279.376,384.278 279.322,389.158C279.133,407.196 279.241,425.262 279.241,444.594ZM659.878,397.139C658.53,389.428 657.451,382.174 655.968,374.975C652.301,357.368 648.499,339.734 644.59,322.154C644.347,320.995 643.188,319.512 642.109,319.134C636.609,317.193 631.054,315.332 625.419,314.011C619.083,312.528 612.531,312.043 606.194,310.452C591.526,306.785 576.804,306.435 561.948,309.104C557.931,309.805 556.609,312.07 557.742,315.737C558.632,318.703 560.196,321.48 561.031,324.446C564.213,335.744 567.367,347.095 570.091,358.5C570.846,361.682 572.221,362.383 575.025,362.544C580.229,362.921 585.487,363.245 590.583,364.189C607.758,367.478 622.75,376.295 638.335,383.575C645.75,387.026 652.329,392.284 659.879,397.137L659.878,397.139ZM733.218,644.606C733.865,641.721 734.674,639.726 734.674,637.703C734.701,616.618 735.159,595.506 734.404,574.421C733.406,547.943 731.384,521.519 729.766,495.069C729.389,488.814 728.903,482.585 728.229,476.384C726.854,464.628 725.533,452.872 723.807,441.17C721.434,425.154 719.358,409.03 715.907,393.203C712.806,379.182 708.034,365.539 703.935,351.761C703.611,350.682 703.126,349.523 702.344,348.768C694.848,341.542 688.323,333.453 678.724,328.33C670.096,323.773 661.036,322.641 651.788,320.807C654.565,334.72 657.288,347.986 659.904,361.279C663.463,379.075 667.238,396.843 670.366,414.774C672.469,426.853 673.79,439.095 675.219,451.309C676.729,464.197 677.592,477.194 679.398,490.055C680.45,497.416 681.986,504.939 684.71,511.814C690.965,527.48 699.108,542.471 704.717,558.325C714.208,585.153 722.27,612.467 731.006,639.565C731.464,641.021 732.246,642.423 733.217,644.607L733.218,644.606ZM615.605,585.638C638.011,567.654 660.148,549.642 688.891,542.659C685.386,533.249 681.746,524.594 678.969,515.723C675.895,505.881 670.557,497.145 669.829,486.091C668.157,460.072 664.463,434.187 661.443,408.249C661.2,406.335 660.149,403.908 658.666,402.91C649.633,396.789 640.52,390.723 631.137,385.195C626.095,382.229 620.514,380.18 615.067,377.996C607.032,374.76 599.132,371.174 590.854,368.829C584.868,367.13 578.343,367.184 571.683,366.402C573.597,376.378 575.647,385.761 577.21,395.252C579.286,408.194 580.958,421.19 582.872,434.187C584.301,444.055 585.892,453.897 587.267,463.792C589.613,480.887 590.961,498.116 594.412,514.968C597.675,530.957 602.905,546.515 607.597,562.18C609.889,569.972 612.801,577.576 615.605,585.638ZM719.952,362.869C722.594,371.929 725.965,380.692 727.636,389.778C730.872,407.385 733.595,425.046 735.752,442.787C738.179,462.848 740.066,482.962 741.522,503.076C742.493,516.881 742.25,530.74 742.762,544.572C742.816,546.001 744.272,548.158 745.593,548.616C756.163,552.121 766.813,555.572 777.598,558.511C806.395,566.33 832.414,579.839 857.031,596.367C859.646,598.12 862.235,599.818 865.363,601.921C865.039,595.423 864.905,589.815 864.446,584.287C863.61,573.852 862.963,563.337 861.534,552.983C860.321,544.085 857.921,535.322 856.573,526.451C853.904,508.197 848.862,490.644 841.069,473.954C840.449,472.66 839.64,471.366 838.615,470.449C833.303,465.838 827.695,461.524 822.545,456.752C807.311,442.704 791.969,428.737 777.166,414.231C758.939,396.381 741.467,377.75 719.95,362.866L719.952,362.869ZM524.146,311.612C520.129,311.127 515.653,310.156 511.204,310.102C504.814,310.048 498.397,310.857 492.006,310.965C476.772,311.208 461.726,311.909 446.924,316.654C435.195,320.402 422.9,322.451 410.793,324.878C388.548,329.381 368.218,339.061 347.457,347.608C345.03,348.579 344.248,350.035 344.599,352.461C345.273,356.964 346.19,361.467 346.406,365.97C346.999,376.027 347.377,386.084 347.511,396.115C347.7,409.3 347.484,422.458 347.592,435.643C347.619,439.418 348.428,443.166 348.482,446.941C348.994,479 349.156,511.032 342.685,542.66C339.045,560.51 335.971,578.521 332.897,596.478C330.902,608.045 329.338,619.666 327.504,631.961C329.337,630.856 330.551,630.101 331.791,629.346C347.295,619.612 362.448,609.259 378.41,600.361C396.61,590.169 415.457,581.109 434.143,571.807C442.879,567.439 451.615,562.693 460.863,559.862C486.775,552.016 513.037,545.545 539.676,545.275C539.676,536.674 539.433,528.261 539.73,519.903C540.539,499.681 542.426,479.458 542.372,459.236C542.318,441.225 540.646,423.132 538.867,405.148C537.007,386.274 534.526,367.4 531.668,348.579C529.808,336.5 526.815,324.555 524.145,311.613L524.146,311.612ZM274.953,511.948C269.749,525.241 264.518,538.507 259.314,551.799C258.532,553.794 257.993,555.87 257.13,557.812C246.129,582.564 240.116,608.745 234.67,635.142C230.167,656.82 225.476,678.472 220.595,700.069C219.678,704.167 217.575,707.996 216.011,711.96C207.814,708.023 207.302,701.714 208.947,694.137C215.984,661.646 221.35,628.725 230.14,596.746C237.717,569.19 248.987,542.631 258.964,515.749C261.364,509.224 264.977,503.13 268.239,496.929C273.551,486.764 274.036,476.087 272.715,464.924C271.475,454.301 271.313,443.569 270.369,432.919C268.832,415.42 270.585,398.164 273.2,380.934C273.524,378.669 273.227,376.35 273.227,373.546C270.261,374.84 267.43,375.973 264.68,377.294C256.106,381.365 247.585,385.572 239.011,389.616C236.476,390.775 235.614,392.42 235.587,395.332C235.425,416.552 235.425,437.772 234.508,459.019C234.023,469.75 232.27,480.509 230.194,491.078C226.419,510.114 222.375,529.123 217.683,547.943C214.474,560.724 209.163,572.965 206.17,585.772C202.126,603.055 199.294,620.635 196.113,638.107C193.309,653.341 190.666,668.602 187.916,684.349C186.73,683.378 185.678,682.65 184.815,681.788C176.16,673.16 167.451,664.613 159.011,655.796C157.528,654.259 156.342,651.374 156.692,649.379C159.469,632.635 163.244,616.026 165.536,599.201C168.232,579.14 177.508,561.426 183.655,542.605C190.342,522.221 196.328,501.621 202.179,480.994C203.878,475.089 204.606,468.753 204.875,462.578C205.522,446.265 205.684,429.926 205.954,413.64C206.008,412.184 205.523,410.755 205.253,409.326C204.228,404.58 206.493,400.833 210.7,398.622C217.387,395.171 223.615,390.857 230.383,387.594C245.348,380.341 260.555,373.573 275.627,366.563C277.353,365.754 279.24,364.918 280.588,363.624C292.236,352.515 306.796,348.174 322.138,345.694C324.861,345.263 327.8,345.397 330.362,344.427C343.574,339.412 356.84,334.478 369.809,328.923C383.075,323.234 396.449,318.704 410.847,316.709C424.544,314.876 437.945,311.074 451.426,307.892C470.92,303.308 490.711,302.257 510.583,303.254C531.749,304.306 552.78,303.119 573.865,301.421C581.684,300.828 589.611,301.825 597.458,302.338C603.309,302.715 609.241,303.147 615.011,304.225C621.347,305.384 627.765,306.733 633.831,308.944C642.297,312.099 650.629,314.687 659.823,315.226C671.121,315.846 680.962,321.185 690.13,327.737C698.192,333.507 705.984,339.924 714.747,344.427C731.815,353.271 745.431,366.591 760.422,378.077C768.106,384.009 773.931,392.314 780.833,399.351C788.814,407.521 796.741,415.825 805.262,423.483C812.192,429.711 819.552,435.697 827.399,440.685C843.28,450.769 856.735,464.709 874.369,471.693C889.792,477.814 904.001,486.927 920.88,489.435C927.055,490.379 932.825,493.803 938.999,495.097C952.534,497.928 966.205,500.112 980.064,502.593C980.064,509.469 980.172,516.317 979.902,523.166C979.848,524.056 977.394,525.781 976.316,525.593C950.216,521.198 924.385,515.617 900.064,504.885C891.301,501.002 883.023,496.014 874.746,491.673C874.746,497.2 874.935,502.755 874.719,508.255C874.18,524.81 873.452,541.366 872.805,557.948C872.724,559.431 872.293,560.887 872.401,562.343C872.967,575.501 873.021,588.713 874.45,601.763C875.529,611.955 878.333,621.931 880.355,631.989C881.973,639.997 881.946,639.997 874.612,645.551C872.59,636.168 870.244,627.027 868.788,617.779C867.952,612.575 865.525,609.286 861.427,606.32C842.715,592.704 822.843,580.894 801.434,572.373C783.45,565.228 764.468,560.644 745.917,554.928C745.216,554.712 744.38,554.82 742.762,554.712L742.762,622.12C742.735,644.284 740.821,666.501 744.542,688.422C735.725,684.674 731.276,679.308 728.769,670.734C717.687,633.228 706.444,595.777 695.173,558.325C694.041,554.577 692.315,550.991 690.886,547.459C671.661,551.288 655.726,561.372 640.276,572.427C632.942,577.658 625.635,582.97 618.463,588.443C617.708,589.009 617.411,590.951 617.681,592.083C623.64,617.24 629.76,642.342 635.8,667.499C637.714,675.453 636.744,678.284 630.731,683.192C628.763,674.052 627.172,664.992 624.88,656.148C619.272,634.416 613.556,612.737 607.462,591.167C599.778,563.934 591.122,536.917 584.085,509.523C580.822,496.904 580.418,483.558 578.611,470.561C576.912,457.888 575.106,445.243 573.353,432.597C571.331,418.118 569.578,403.639 567.259,389.213C565.884,380.477 563.97,371.822 561.839,363.221C559.547,354.161 556.581,345.291 554.155,336.312C552.052,328.439 550.272,320.485 548.277,312.261L534.607,312.261C535.982,318.759 536.629,325.365 538.84,331.351C542.534,341.193 544.233,351.25 544.637,361.631C544.718,363.761 545.311,365.837 545.608,367.94C548.574,391.236 552.538,414.451 554.182,437.801C555.476,456.271 553.697,474.929 553.751,493.48C553.805,510.116 553.697,526.86 555.261,543.416C557.041,562.802 560.788,582 563.269,601.333C566.558,626.894 571.25,652.347 570.522,678.286C570.333,683.463 568.985,687.103 564.752,689.934C562.757,691.228 561.112,693.008 558.308,694.491C556.178,645.823 547.172,598.179 540.27,549.349C535.713,549.753 530.941,549.7 526.411,550.697C507.132,554.768 487.665,558.247 468.845,563.774C455.984,567.549 443.877,574.182 431.663,579.952C413.76,588.445 395.802,596.75 378.438,606.187C363.635,614.249 349.884,624.171 335.243,632.611C327.693,636.952 324.566,642.884 323.784,651.162C322.867,660.734 321.708,670.333 319.632,679.716C318.634,684.165 318.014,689.126 313.862,692.685C310.357,695.732 307.849,699.884 303.94,704.791C303.94,701.987 303.751,700.612 303.967,699.317C305.908,685.404 307.931,671.464 309.98,657.551C312.919,637.652 315.777,617.753 318.932,597.909C320.873,585.857 323.704,573.912 325.457,561.805C329.151,536.082 335.433,510.656 333.843,484.286C333.439,477.276 334.544,470.157 334.571,463.093C334.598,457.835 333.897,452.577 333.762,447.32C333.358,433.164 333.088,419.009 332.737,404.88C332.71,404.206 332.656,403.559 332.602,402.561C320.064,410.407 307.985,418.496 298.763,430.063C292.858,437.451 286.98,444.947 281.372,452.604C280.293,454.06 280.186,456.541 280.374,458.455C281.479,473.231 282.612,488.007 284.095,502.755C285.902,520.551 288.086,538.292 290,556.088C290.863,564.393 291.537,572.751 292.049,581.11C293.128,598.501 294.584,615.892 294.853,633.337C294.988,642.073 292.831,650.836 291.806,659.599C290.835,668.362 290.134,677.206 289.11,685.969C288.085,694.597 288.571,703.576 284.23,711.773C280.266,709.292 278.487,706.326 279.215,701.608C281.237,688.612 282.801,675.562 284.715,662.538C286.629,649.677 287.951,636.842 286.791,623.765C285.038,603.92 283.906,584.048 282.207,564.204C280.778,547.487 278.918,530.797 277.192,514.107C277.138,513.514 276.734,512.921 276.464,512.354C275.979,512.192 275.466,512.084 274.954,511.95L274.953,511.948Z" style="fill:rgb(69,28,21);fill-rule:nonzero;"/>
    </g>
    <g transform="matrix(0.058594,0,0,0.058594,-0.00005,0.000059)">
        <path d="M129.582,440.733C129.852,495.333 123.273,547.803 101.001,597.604C100.731,597.361 99.599,596.552 98.655,595.609C87.088,584.069 75.629,572.448 63.98,560.988C51.038,548.288 43.785,532.946 43.111,514.935C42.734,504.527 44.19,494.2 48.8,484.655C49.285,483.684 49.879,482.471 50.768,481.986C74.657,469.529 98.574,457.153 122.463,444.75C124.485,443.671 126.4,442.512 129.581,440.733L129.582,440.733Z" style="fill:rgb(69,28,21);fill-rule:nonzero;"/>
    </g>
    <g transform="matrix(0.058594,0,0,0.058594,-0.00005,0.000059)">
        <path d="M148.548,645.804C143.695,640.843 139.596,636.637 135.444,632.457C129.431,626.363 123.176,620.485 117.406,614.149C115.869,612.504 114.791,609.403 115.141,607.246C118.161,589.45 121.504,571.682 124.875,553.94C126.789,543.721 129.297,533.583 130.915,523.337C132.317,514.439 132.937,505.407 133.692,496.401C135.04,480.223 136.307,464.045 137.494,447.84C137.791,443.823 137.521,439.751 137.521,433.954C142.644,430.125 149.034,425.299 155.451,420.526C156.071,420.877 156.718,421.2 157.311,421.551C157.311,437.648 156.745,453.745 157.527,469.815C158.201,484.564 160.035,499.259 162.057,513.873C163.971,527.705 166.856,541.375 169.175,555.153C169.499,557.013 169.202,559.09 168.744,560.977C163.055,584.246 157.231,607.515 151.542,630.811C150.437,635.341 149.709,639.978 148.549,645.802L148.548,645.804Z" style="fill:rgb(69,28,21);fill-rule:nonzero;"/>
    </g>
    <g transform="matrix(0.058594,0,0,0.058594,-0.00005,0.000059)">
        <path d="M171.957,545.509C170.177,535.047 167.778,524.613 166.699,514.07C164.866,495.762 163.41,477.346 162.628,458.984C162.089,446.177 162.844,433.288 163.356,420.481C163.437,418.755 165.297,416.49 166.942,415.547C172.281,412.5 177.889,409.966 183.524,407.161C188.162,454.185 184.252,500.076 171.957,545.509Z" style="fill:rgb(69,28,21);fill-rule:nonzero;"/>
    </g>
    <g transform="matrix(0.058594,0,0,0.058594,-0.00005,0.000059)">
        <path d="M103.161,425.788C116.562,412.414 130.151,398.852 143.255,385.802C143.579,404.676 123.033,425.411 103.161,425.788Z" style="fill:rgb(69,28,21);fill-rule:nonzero;"/>
    </g>
</svg>
