<?xml version="1.0" encoding="UTF-8" standalone="no"?>
<!DOCTYPE svg PUBLIC "-//W3C//DTD SVG 1.1//EN" "http://www.w3.org/Graphics/SVG/1.1/DTD/svg11.dtd">
<svg width="100%" height="100%" viewBox="0 0 61 61" version="1.1" xmlns="http://www.w3.org/2000/svg" xmlns:xlink="http://www.w3.org/1999/xlink" xml:space="preserve" xmlns:serif="http://www.serif.com/" style="fill-rule:evenodd;clip-rule:evenodd;stroke-linejoin:round;stroke-miterlimit:2;">
    <g transform="matrix(0.058594,0,0,0.058594,0.000092,0)">
        <path d="M511.96,1009.647C486.288,1009.647 462.174,999.658 444.021,981.532L42.429,579.94C4.995,542.48 4.995,481.522 42.429,444.116L444.048,42.497C462.201,24.344 486.288,14.355 511.96,14.355C537.605,14.355 561.692,24.344 579.845,42.497L981.464,444.116C999.617,462.242 1009.579,486.356 1009.579,512.028C1009.579,537.673 999.616,561.787 981.464,579.94L579.872,981.532C561.719,999.658 537.605,1009.647 511.96,1009.647Z" style="fill:rgb(232,203,158);fill-rule:nonzero;"/>
    </g>
    <g transform="matrix(0.058594,0,0,0.058594,0.000092,0)">
        <path d="M511.919,14.436C487.304,14.435 462.71,23.798 444.025,42.483L42.444,444.104C5.055,481.493 5.055,542.503 42.444,579.892L444.025,981.513C462.722,1000.194 487.346,1009.559 511.958,1009.56C536.57,1009.561 561.143,1000.191 579.852,981.513L981.473,579.892C1018.833,542.501 1018.833,481.495 981.473,444.104L579.852,42.483C561.155,23.802 536.533,14.437 511.919,14.436Z" style="fill:rgb(232,203,158);fill-rule:nonzero;"/>
    </g>
    <g transform="matrix(0.058594,0,0,0.058594,0.000092,0)">
        <path d="M1009.35,511.81C1009.026,484.626 998.886,461.702 979.631,442.474C846.811,309.735 714.017,176.914 581.197,44.148C541.661,4.639 482.222,4.666 442.659,44.202C309.812,176.968 177.018,309.762 44.225,442.582C4.258,482.603 4.446,541.719 44.495,581.794C95.142,632.468 145.789,683.115 196.436,733.735C278.609,815.881 360.675,898.109 442.902,980.147C481.818,1018.982 541.634,1019.467 580.01,981.118C713.72,847.596 847.296,713.94 980.871,580.338C999.722,561.46 1009.107,538.591 1009.35,511.811L1009.35,511.81ZM512.642,-0C542.469,0.485 568.521,10.922 589.799,32.147C723.59,165.803 857.354,299.487 991.038,433.305C1035.374,477.668 1035.051,546.816 990.633,591.26C857.947,723.946 725.208,856.577 592.603,989.344C568.304,1013.724 539.232,1025.806 504.847,1023.783C476.557,1022.138 452.501,1010.514 432.49,990.45C375.101,933.007 317.658,875.618 260.242,818.229C184.865,742.825 109.514,667.421 34.083,592.097C9.676,567.717 -1.947,538.403 0.264,504.071C2.071,476.374 13.452,452.696 33.139,433.009C85.404,380.744 137.696,328.452 189.961,276.187C271.056,195.065 352.123,113.971 433.299,32.93C455.117,11.139 481.546,0.271 512.641,0.001L512.642,-0Z" style="fill:rgb(69,28,21);fill-rule:nonzero;"/>
    </g>
    <g transform="matrix(0.058594,0,0,0.058594,0.000092,0)">
        <path d="M140.731,446.678C143.994,445.761 146.961,445.761 148.444,444.278C151.087,441.635 152.84,438.102 154.889,435.028C148.336,434.138 144.479,436.97 140.73,446.678L140.731,446.678ZM154.215,445.33C163.87,447.083 165.515,446.139 170.612,435.972C163.438,435.433 156.804,439.208 154.215,445.33ZM155.887,533.706C156.966,519.116 158.125,521.57 144.398,521.193L144.398,533.706L155.887,533.706ZM66.918,519.224C65.516,529.85 69.426,533.14 80.942,531.117L80.942,519.224L66.918,519.224ZM356.399,535.405C345.827,537.589 335.525,539.72 324.738,541.985C324.873,544.008 324.981,546.192 325.143,549.267C332.991,548.377 340.596,548.296 347.743,546.489C356.184,544.332 356.858,542.552 356.4,535.405L356.399,535.405ZM286.119,517.066C282.451,516.635 279.269,516.284 275.493,515.825L275.493,559.325C279.673,559.756 283.853,560.161 287.899,560.566C287.279,545.518 286.712,531.44 286.119,517.066ZM355.59,512.293C349.792,513.965 344.856,515.745 339.759,516.743C334.635,517.714 329.376,517.903 324.711,518.415L324.711,537.131C335.741,534.596 345.935,532.25 355.59,530.038L355.59,512.293ZM951.299,502.287C951.569,501.775 951.838,501.316 952.135,500.831C948.953,498.862 945.77,496.894 942.13,494.628C943.721,493.549 944.746,492.875 946.067,491.985C943.289,489.099 940.781,486.402 937.922,483.409C935.252,486.78 932.96,489.666 930.667,492.605C931.935,493.387 932.851,493.953 934.47,495.005C930.829,497.055 927.809,498.754 924.249,500.749C926.541,501.774 927.89,502.394 930.128,503.392C927.054,504.929 924.68,505.738 922.793,507.141C920.959,508.489 919.638,510.458 917.318,512.939L955.64,512.939C956.557,506.089 948.358,508.112 946.902,503.338C948.493,502.933 949.896,502.61 951.298,502.286L951.299,502.287ZM566.7,437.266C563.599,433.032 560.551,429.175 557.935,425.049C556.155,422.244 554.591,422.541 553.162,424.86C550.762,428.824 548.712,433.005 546.501,437.104C549.414,437.886 551.571,438.479 553.729,439.1C553.783,439.693 553.783,440.287 553.81,440.88C551.76,441.554 549.738,442.336 547.688,442.876C541.243,444.629 537.898,453.151 541.404,458.734C543.427,462.024 545.314,465.422 547.472,469.144C552.758,460.19 559.311,452.774 570.584,449.16C571.069,447.946 572.013,445.573 573.065,442.795C569.182,441.851 565.73,441.042 562.305,440.287C562.332,439.748 562.332,439.235 562.359,438.723C563.788,438.265 565.218,437.752 566.701,437.267L566.7,437.266ZM266.593,544.52C252.354,545.734 238.707,549.105 224.738,542.551C224.738,549.104 224.414,555.172 224.954,561.159C225.089,563.02 227.381,565.986 228.945,566.175C238.708,567.362 248.497,568.117 258.287,568.548C262.278,568.71 266.512,564.745 266.593,561.617C266.674,556.061 266.593,550.452 266.593,544.519L266.593,544.52ZM306.399,398.485C322.095,397.973 337.629,397.46 353.27,396.921C352.353,388.453 343.319,391.419 338.599,385.729C342.995,386.053 346.204,386.295 349.44,386.565C347.202,379.985 345.449,373.189 336.522,371.517C338.383,370.061 339.192,369.44 340.837,368.173C336.9,365.126 333.286,362.321 329.645,359.516C322.93,365.638 321.986,367.687 324.952,371.949C316.969,372.192 315.108,378.583 311.468,384.328L321.285,384.328C321.366,384.733 321.474,385.164 321.582,385.596C315.676,388.697 306.938,388.374 306.399,398.487L306.399,398.485ZM284.258,441.284C281.318,440.556 278.81,439.477 276.248,439.342C250.088,438.398 223.902,437.589 197.715,436.78C194.074,436.672 190.433,436.753 186.847,436.564C179.727,436.186 174.954,438.991 171.718,445.841C207.613,447.028 243.401,448.187 279.485,449.374C280.699,447.324 282.371,444.547 284.258,441.283L284.258,441.284ZM293.346,560C299.279,559.245 304.808,559.515 309.473,557.654C312.709,556.306 316.62,552.341 317.024,549.132C317.887,542.471 316.673,535.513 316.215,528.663C315.837,522.892 315.298,517.067 314.84,511.268C306.534,513.102 298.929,514.801 290.676,516.608C291.539,530.713 292.429,544.925 293.346,560ZM580.157,750.938C576.921,743.683 569.181,742.119 561.98,737.831C565.432,737.588 567.428,737.48 570.125,737.292C565.432,730.55 561.198,724.455 556.425,717.632C552.568,724.428 549.009,730.658 545.449,736.942C546.77,737.697 547.984,738.452 549.98,739.666C546.501,741.149 543.912,742.228 540.811,743.523C544.371,748.917 547.634,753.96 551.194,759.434C554.376,754.391 558.098,756.845 561.388,758.868C564.166,760.567 566.539,762.886 568.939,765.152C573.766,769.683 578.486,774.321 583.637,779.257C585.066,774.457 585.983,770.249 587.574,766.339C589.165,762.429 587.871,760.568 584.284,759.165C580.913,757.897 577.677,756.279 574.387,754.823C574.495,754.365 574.576,753.879 574.657,753.394C576.464,752.585 578.325,751.776 580.159,750.94L580.157,750.938ZM189.598,514.18C182.991,499.833 184.447,486.241 191.432,473.296C184.393,472.73 177.543,471.867 170.693,471.732C168.023,471.678 163.843,472.379 162.818,474.186C156.426,485.54 155.051,497.73 159.771,510.135C160.418,511.807 162.576,513.965 164.113,514.018C172.473,514.396 180.834,514.18 189.598,514.18ZM563.14,468.334C551.409,476.694 551.409,476.694 551.058,481.414L559.472,481.414C559.85,482.007 560.2,482.574 560.578,483.14C552.407,486.43 543.291,488.911 544.127,499.807C560.686,498.62 577.271,497.434 593.507,496.247C594.532,488.318 587.385,486.754 581.722,482.547L588.194,482.547C586.576,473.917 578.458,472.596 571.878,468.2C574.386,467.256 575.815,466.744 578.297,465.8C574.171,461.97 570.422,458.518 566.215,454.608C562.358,459.139 559.176,462.914 555.428,467.364C558.448,467.769 560.282,468.011 563.141,468.335L563.14,468.334ZM514.3,467.902C509.607,471.003 505.104,472.702 502.596,475.966C500.115,479.229 499.629,484.03 498.146,488.722C511.388,488.722 524.063,488.803 536.738,488.56C538.113,488.533 539.758,486.861 540.702,485.566C541.727,484.164 542.023,482.222 542.806,480.604C545.773,474.671 544.586,472.055 538.194,470.653C534.715,469.871 531.263,469.062 527.811,468.253C527.838,467.606 527.838,466.905 527.865,466.203C531.209,465.798 534.553,465.394 538.113,464.989C536.872,462.616 535.767,460.054 534.256,457.761C533.609,456.736 532.179,456.17 531.074,455.469C529.348,454.444 527.595,453.446 525.869,452.475C527.325,451.45 528.755,450.398 530.427,449.212C527.056,444.654 523.469,439.827 519.397,434.379C517.159,439.988 515.163,444.87 513.113,449.94C515.109,450.506 516.538,450.911 517.967,451.315C518.21,451.693 518.479,452.07 518.749,452.475C511.414,455.118 506.883,459.972 505.75,467.685C506.883,467.766 508.015,467.874 509.148,467.901C510.442,467.955 511.737,467.901 514.299,467.901L514.3,467.902ZM477.191,468.55C473.496,465.449 470.584,462.779 467.347,460.54C466.295,459.785 463.625,459.515 462.951,460.243C454.348,468.981 445.961,477.934 437.52,486.834C437.574,487.4 437.682,487.967 437.763,488.506C441.215,488.587 444.694,488.749 448.146,488.749C460.929,488.749 473.739,488.641 486.522,488.803C489.623,488.83 490.325,487.212 491.107,484.893C494.02,476.398 496.797,467.849 500.088,459.516C503.001,452.208 503.082,451.533 496.771,446.679C495.234,445.519 493.535,444.602 491.971,443.605C487.036,451.965 482.262,459.975 477.192,468.551L477.191,468.55ZM234.959,454.337C228.271,453.959 221.259,453.258 214.274,453.231C172.527,453.123 130.806,453.15 89.059,453.123C82.991,453.123 79.863,456.845 80.834,463.209C100.063,464.018 119.291,465.232 138.547,465.528C155.51,465.744 172.473,464.557 189.437,464.692C201.087,464.773 212.711,466.094 224.361,466.607C225.736,466.688 227.651,465.636 228.487,464.503C230.86,461.294 232.802,457.761 234.959,454.336L234.959,454.337ZM584.823,432.574C581.668,439.748 578.701,446.517 575.708,453.367C577.812,455.201 580.05,456.495 581.479,458.41C587.196,466.204 592.887,474.106 598.173,482.223C600.088,485.136 601.922,485.729 605.077,485.028C614.3,483.032 623.55,481.225 632.855,479.499C640.622,478.097 648.416,476.964 656.83,475.616C646.636,466.555 636.981,457.952 626.841,448.971C623.47,452.747 620.126,456.522 616.62,460.46C603.972,453.718 596.879,441.231 584.824,432.574L584.823,432.574ZM623.523,756.359C618.696,748.754 613.518,740.636 608.07,732.06C604.052,741.31 600.492,749.563 596.824,758.004C599.305,758.489 601.085,758.813 602.838,759.164C603.189,759.569 603.539,760 603.89,760.432C593.723,763.048 592.806,771.354 590.406,778.528L605.616,778.528C601.517,785.054 595.772,785.378 589.354,785.756C592.968,789.909 596.231,793.307 599.117,797.002C603.351,802.396 605.751,802.962 612.116,800.346C614.247,799.483 616.755,799.159 619.101,799.213C625.816,799.402 632.531,799.86 639.22,800.292C643.373,800.535 647.499,800.939 652.273,801.344C646.933,789.208 637.845,782.897 626.248,779.553C624.333,778.987 622.634,777.881 620.827,776.991L621.42,775.589L636.442,775.589C633.475,769.494 630.347,764.505 622.985,763.858C620.989,763.669 619.236,761.161 617.376,759.732C619.318,758.653 621.286,757.628 623.525,756.361L623.523,756.359ZM380.671,340.907C376.976,348.162 373.848,354.229 370.639,360.54C364.22,351.29 358.18,342.633 351.734,333.383C346.502,341.608 341.756,349.052 336.928,356.684C337.333,357.25 337.737,357.925 338.303,358.491C346.609,366.096 353.891,374.429 358.853,384.758C359.662,386.484 363.006,387.725 365.245,387.913C368.805,388.156 372.419,387.185 376.005,386.996C386.658,386.43 397.31,385.998 408.152,385.513C399.01,370.653 390.056,356.144 380.671,340.907ZM285.418,452.422C315.677,461.241 320.477,486.672 324.145,513.101C333.746,513.209 342.726,511.078 351.329,507.303C352.354,506.872 353.486,505.065 353.46,503.986C353.217,498.134 352.705,492.282 352.192,486.456C351.059,474.077 345.234,463.883 335.121,457.33C326.167,451.505 315.973,447.325 305.968,443.36C297.743,440.097 288.25,444.708 285.418,452.421L285.418,452.422ZM154.458,514.585C147.932,499.968 150.575,486.43 156.157,472.325C137.036,472.325 118.59,472.244 100.17,472.46C98.336,472.514 96.125,473.943 94.884,475.4C89.355,481.819 88.115,497.379 91.998,504.958C94.965,510.756 98.848,513.75 105.968,513.291C116.486,512.617 127.084,512.967 137.629,513.183C143.104,513.291 148.551,514.073 154.457,514.585L154.458,514.585ZM275.089,512.347C285.148,510.864 294.938,509.92 304.512,507.924C315.246,505.713 315.219,505.308 312.845,494.359C308.692,474.996 296.88,462.563 277.813,457.79C269.965,455.821 261.524,456.199 253.406,455.201C244.938,454.122 235.903,460.298 234.043,468.955C244.21,471.814 254.62,473.971 262.765,481.792C271.26,489.963 273.229,500.454 275.09,512.347L275.089,512.347ZM523.739,800.803C528.054,786.483 536.172,774.455 545.961,763.91C541.511,753.824 534.068,748.322 524.17,745.544C521.015,744.681 518.183,742.793 515.216,741.337C515.405,740.609 515.594,739.908 515.782,739.18C521.014,739.827 526.3,740.501 530.777,741.095C522.282,730.874 513.436,720.194 504.86,709.838C498.091,720.679 491.214,731.629 483.905,743.279C486.656,742.416 488.598,741.526 490.647,741.229C492.778,740.905 494.989,741.148 497.2,741.148C497.308,741.553 497.389,741.957 497.497,742.308C491.672,745.868 485.847,749.428 479.967,753.015C491.024,771.165 509.309,783.921 523.737,800.803L523.739,800.803ZM579.753,786.86C580.023,786.617 580.319,786.348 580.562,786.051C572.337,778.419 564.165,770.76 555.508,762.723C549.925,769.924 544.1,777.529 537.871,785.592C540.972,786.077 542.698,786.374 545.665,786.833C543.4,788.559 542.375,789.988 541.107,790.258C534.446,791.552 532.801,796.919 530.994,802.205C530.751,802.987 530.67,803.931 530.185,804.524C526.976,808.569 528.513,811.913 531.318,814.907C537.197,813.828 542.941,812.75 548.713,811.671C548.929,812.21 549.118,812.75 549.333,813.262C544.802,816.849 540.272,820.436 535.795,823.942C537.44,828.122 538.95,832.113 540.595,836.024C544.101,844.303 546.825,845.49 555.563,842.631C556.642,842.28 557.667,841.66 558.799,841.444C562.629,840.797 566.539,839.502 570.342,839.799C579.943,840.662 589.436,842.28 598.983,843.602C602.3,844.033 605.644,844.384 609.824,844.87C607.505,838.155 605.536,832.276 603.271,826.504C602.813,825.398 601.383,824.427 600.197,823.888C594.372,821.272 588.412,818.872 582.613,816.175C581.292,815.555 580.321,814.098 579.161,813.047L579.889,811.537C586.038,812.265 592.16,812.993 598.147,813.668C595.1,800.831 586.847,793.711 574.253,790.987C571.853,790.502 569.776,788.641 567.538,787.373C567.781,786.672 568.023,785.971 568.266,785.269L579.753,786.86ZM242.888,541.958L242.969,542.605C249.603,541.661 256.265,540.555 262.926,539.8C266.027,539.476 266.621,537.885 266.54,535.188C266.351,523.187 265.299,511.456 262.414,499.643C259.636,488.235 252.301,483.084 242.268,479.74C229.458,475.452 216.297,474.481 202.894,474.023C197.473,473.834 194.803,476.1 193.131,480.307C189.841,488.667 189.005,497.324 191.621,505.981C192.942,510.35 195.019,513.991 200.629,514.989C211.093,516.877 220.775,521.219 222.824,532.923C224.253,541.175 229.944,540.933 235.472,541.85C237.872,542.255 240.407,541.958 242.888,541.958ZM357.181,711.914C344.829,727.043 332.667,741.876 320.935,756.25C322.526,760.889 325.061,761.806 329.349,761.023C334.015,760.16 338.977,760.807 343.777,760.807L344.397,762.263C339.731,765.23 335.012,768.223 330.185,771.297C340.271,792.117 347.418,815.148 349.575,840.067C354.888,838.665 360.12,833.891 364.704,839.258C370.907,816.847 377.056,794.598 382.935,773.266C380.103,770.084 377.11,766.605 373.523,762.586C379.348,762.829 384.095,763.044 388.787,763.233C389.353,758.19 363.76,716.847 357.18,711.912L357.181,711.914ZM473.119,808.57C473.362,808.975 473.631,809.352 473.847,809.757C469.559,813.236 465.676,817.551 460.875,820.032C447.984,826.693 448.146,838.937 445.907,851.343C454.753,848.188 462.735,845.329 470.745,842.47C470.88,842.928 471.015,843.387 471.176,843.872C464.623,851.882 461.683,854.012 454.375,855.927C444.882,858.462 437.142,869.897 438.032,879.875C441.079,878.796 444.046,877.286 447.201,876.693C456.505,874.94 465.917,873.646 475.275,872C480.048,871.164 484.849,868.953 489.568,869.195C497.092,869.519 504.482,872 512.006,872.512C521.202,873.051 530.399,872.485 540.242,872.377C538.974,869.303 538.327,867.631 537.599,865.985C535.037,859.971 531.72,855.09 525.059,852.393C520.178,850.37 516.105,846.352 511.817,843.035C510.684,842.199 510.118,840.635 509.309,839.448C509.633,838.882 509.902,838.342 510.226,837.803C517.157,839.421 524.088,840.985 531.127,842.63C529.347,838.207 527.675,834.108 526.057,829.982C523.468,823.24 519.018,818.763 511.791,816.929C507.854,815.958 504.078,814.151 500.383,812.452C498.738,811.697 497.443,810.241 495.987,809.081C496.176,808.488 496.392,807.84 496.58,807.22C502.756,808.326 508.932,809.485 515.458,810.672C508.797,794.302 493.317,786.832 484.12,773.941C473.683,786.266 464.622,798.698 457.151,813.342C463.219,811.535 468.154,810.025 473.116,808.569L473.119,808.57ZM374.953,850.398C382.261,846.919 388.437,842.712 395.26,840.986C405.508,838.424 416.242,837.912 426.678,835.916C432.341,834.837 439.272,834.999 441.376,827.475C444.45,816.31 448.765,805.765 455.804,796.434C457.179,794.681 458.42,792.82 459.526,791.202C457.369,789.611 455.508,788.235 453.647,786.86C453.809,786.429 453.944,785.997 454.052,785.592C456.102,785.484 458.124,785.484 460.147,785.241C461.711,785.079 463.869,785.16 464.705,784.216C469.991,778.202 474.953,771.918 480.158,765.554C476.625,761.994 473.362,758.542 469.829,755.36C468.561,754.2 466.755,753.391 465.056,752.987C458.098,751.342 451.059,749.967 444.101,748.294C442.86,747.997 441.89,746.784 440.784,746.002C440.892,745.705 441.054,745.382 441.189,745.085C447.5,745.436 453.837,745.813 460.148,746.164C459.582,746.784 458.988,747.432 458.422,748.052C453.379,742.011 448.578,735.7 443.185,730.01C439.49,726.1 434.933,723.025 430.806,719.519C428.46,717.577 426.761,718.009 425.17,720.517C423.282,723.591 421.26,726.585 419.237,729.578C414.679,736.266 410.095,742.927 405.537,749.562C411.794,748.807 417.592,748.133 423.363,747.431C423.525,747.889 423.714,748.348 423.875,748.833C419.209,751.341 414.409,753.741 409.851,756.492C405.374,759.135 399.144,761.212 397.149,765.284C391.486,776.907 387.548,789.394 382.478,802.797C394.182,799.938 404.269,797.511 414.301,795.084C414.598,795.704 414.84,796.298 415.137,796.918C411.361,799.615 407.775,802.716 403.729,804.928C399.872,807.032 395.396,807.975 391.431,809.917C383.988,813.504 378.297,818.978 377.003,827.474C375.843,835.025 375.574,842.684 374.953,850.397L374.953,850.398ZM365.487,531.521C367.914,531.521 370.233,531.818 372.472,531.494C384.743,529.606 396.959,530.011 409.095,532.519C418.183,534.38 427.245,536.51 436.306,538.56C449.359,541.473 462.573,543.792 475.41,547.487C490.89,551.964 506.343,555.605 522.659,554.822C539.946,554.04 557.287,553.878 574.601,553.743C585.928,553.635 596.473,550.884 606.909,546.488C622.173,540.016 637.977,535.08 654.886,535.053C658.122,535.053 661.412,535.215 664.649,534.999C673.657,534.352 682.637,532.868 691.618,533.003C708.204,533.3 724.789,534.324 741.375,535.43C760.55,536.671 779.67,538.289 798.845,539.745C803.726,540.123 808.689,540.365 813.543,541.12C824.87,542.846 836.17,544.518 847.362,546.837C856.693,548.806 869.422,556.923 867.481,569.221C866.429,575.64 866.24,583.11 860.119,586.805C853.296,590.877 845.772,594.275 838.113,596.406C817.32,602.177 796.366,607.22 775.411,612.317C765.729,614.69 756.048,617.711 746.204,618.493C724.252,620.246 702.083,622.511 680.185,621.406C657.235,620.273 635.525,625.074 613.734,629.901C598.227,633.38 582.882,637.129 567.078,638.558C561.199,639.097 555.293,639.637 549.468,640.473C538.465,642.037 527.516,644.006 516.485,645.408C508.691,646.406 500.816,647.134 492.941,647.458C483.151,647.836 473.308,647.728 463.464,647.62C457.234,647.566 450.978,646.703 444.775,647.027C434.095,647.539 423.47,649.292 412.817,649.481C394.613,649.778 376.409,651.234 358.233,647.728C347.149,645.571 335.633,645.813 324.468,643.898C303.648,640.392 282.882,636.509 262.305,631.924C244.479,627.96 226.221,625.775 209.096,618.736C198.875,614.529 187.575,612.992 178.217,606.438C164.463,596.783 160.903,587.857 177.246,575.208C177.516,575.019 177.812,574.803 178.082,574.669C185.175,570.57 192.267,566.444 199.387,562.398C205.32,559.027 211.334,555.737 217.672,552.258C218.157,546.945 216.674,544.707 212.359,546.001C205.967,547.916 199.171,549.534 193.562,552.905C180.59,560.672 168.077,569.248 155.644,577.878C150.25,581.6 145.693,586.211 144.048,593.196C143.131,597.106 143.077,600.397 146.367,602.905C151.815,607.112 157.127,611.67 163.061,614.987C169.183,618.385 175.979,620.489 182.505,623.158C189.894,626.232 197.041,630.224 204.727,632.192C219.749,635.995 235.013,638.934 250.304,641.685C265.46,644.409 280.725,646.512 295.989,648.697C305.185,650.018 314.462,650.935 323.713,652.122C338.357,653.956 352.974,656.815 367.645,657.489C399.414,658.972 431.21,659.754 463.006,659.97C474.71,660.051 486.442,657.408 498.173,656.734C512.493,655.925 526.841,655.898 541.161,655.466C543.777,655.385 546.42,655.035 549.009,654.765C557.639,653.821 566.242,652.85 574.818,651.987C579.726,651.475 584.796,651.663 589.57,650.639C607.558,646.702 625.438,642.414 643.399,638.314C650.357,636.723 657.342,634.619 664.408,634.107C672.93,633.487 681.533,634.161 690.055,634.592C714.327,635.86 738.14,632.92 761.845,628.039C774.116,625.504 786.575,623.778 799.008,621.89C804.348,621.108 809.93,621.539 815.108,620.218C826.327,617.332 837.546,614.177 848.441,610.213C861.952,605.251 872.902,596.917 878.646,583.029C879.051,582.031 879.914,581.222 880.669,580.359C882.934,577.689 886.09,575.424 887.384,572.349C891.16,563.503 890.62,553.498 880.534,547.969C872.956,543.843 864.838,540.364 856.613,537.802C843.533,533.703 829.887,531.303 816.915,526.88C804.321,522.592 791.538,524.318 778.835,523.374C769.989,522.7 761.036,523.293 752.244,522.376C737.924,520.92 723.819,518.196 709.229,518.843C698.657,519.301 688.005,517.549 677.406,517.036C665.971,516.524 654.806,518.25 643.776,521.351C629.456,525.396 614.623,528.147 601.867,536.319C592.239,542.495 581.533,543.304 570.745,543.493C555.076,543.763 539.381,543.871 523.712,543.412C516.08,543.223 508.34,542.171 500.924,540.338C491.296,537.965 481.965,534.378 472.526,531.357C467.699,529.82 462.871,528.417 458.044,526.826C444.856,522.403 431.588,518.385 417.537,517.899C410.309,517.683 402.92,518.034 395.962,516.631C385.121,514.474 374.873,516.928 363.708,518.222C364.301,522.78 364.868,527.068 365.488,531.518L365.487,531.521ZM218.832,563.776L217.322,562.455C211.901,565.098 206.454,567.714 201.033,570.357C194.884,573.404 188.547,576.101 182.613,579.58C169.776,587.077 169.533,594.035 181.372,603.07C181.642,603.259 181.992,603.367 182.208,603.609C192.672,613.291 207.046,613.884 219.317,619.467C224.657,621.921 231.021,622.191 236.981,623.189C244.37,624.457 251.787,625.616 259.23,626.641C272.337,628.448 285.497,629.958 298.577,631.927C307.611,633.302 316.484,635.649 325.546,636.835C337.898,638.453 350.519,638.642 362.736,640.826C377.677,643.523 392.536,642.606 407.477,642.552C426.328,642.471 444.855,638.021 464.003,640.125C477.622,641.635 491.619,639.64 505.454,638.857C512.304,638.479 519.154,637.401 525.977,636.511C539.569,634.758 553.188,632.843 566.807,631.171C574.601,630.173 582.557,630.146 590.243,628.582C604.455,625.723 618.452,621.597 632.746,618.846C642.967,616.877 653.458,615.556 663.868,615.205C688.086,614.369 712.277,614.315 736.494,613.911C737.788,613.884 739.083,613.641 740.377,613.426C749.169,611.619 757.987,609.623 766.806,608.086C776.811,606.306 786.952,605.254 796.876,603.232C803.106,601.964 809.039,599.483 815.134,597.542C826.326,593.928 837.572,590.53 848.656,586.62C851.946,585.46 856.072,583.492 857.421,580.741C864.514,566.394 861.736,555.094 843.451,551.561C839.568,550.806 835.738,550.105 831.828,549.592C821.769,548.271 811.682,546.787 801.569,545.843C789.271,544.683 776.947,544.198 764.649,543.119C749.601,541.825 734.579,539.236 719.531,539.047C696.689,538.777 673.792,537.321 650.977,540.908C636.279,543.2 621.986,546.517 608.744,553.26C599.089,558.195 588.787,560.11 578.377,560.568C556.64,561.566 534.877,561.889 513.113,561.836C505.643,561.836 498.118,560.272 490.783,558.627C482.638,556.739 474.872,553.503 466.727,551.669C448.712,547.624 430.535,544.28 412.547,540.315C396.932,536.863 381.317,537.187 365.514,539.263L365.514,544.495C381.048,544.63 396.528,541.96 411.415,547.515C409.338,548.243 407.262,548.324 405.185,548.216C397.014,547.811 388.869,547.029 380.724,546.948C372.013,546.894 363.302,547.056 355.32,551.721C346.825,556.737 337.278,556.467 327.92,555.497C324.657,555.2 323.012,556.171 320.719,558.059C317.267,560.837 313.33,563.21 309.257,564.99C306.83,566.096 303.755,565.988 301.005,566.042C293.265,566.177 285.525,566.042 277.839,566.231C276.194,566.312 274.468,566.986 273.012,567.849C268.589,570.465 264.544,575.05 259.878,575.643C251.437,576.776 242.672,575.859 234.069,575.212C229.43,574.888 224.198,571.544 220.45,572.893C214.22,575.185 207.532,578.772 206.318,587.025C206.183,587.888 204.97,588.562 204.295,589.344C203.621,588.535 202.65,587.834 202.38,586.89C202.029,585.73 201.787,584.139 202.299,583.087C205.239,576.965 209.068,571.571 215.163,568.039C216.7,567.149 217.617,565.234 218.831,563.778L218.832,563.776ZM189.922,425.67C182.829,418.901 175.494,411.916 167.889,404.634C163.952,408.14 160.203,411.484 156.212,415.017C149.254,407.358 142.431,399.888 135.257,392.013C140.084,387.186 144.48,381.63 150.009,377.774C152.571,376.021 157.56,377.073 161.255,377.828C170.02,379.635 178.677,382.035 187.361,384.166C189.572,384.705 191.865,385.757 194.049,385.595C208.963,384.624 222.717,390.099 236.956,392.85C246.584,394.684 256.212,396.41 265.866,398.298C270.639,399.242 275.386,400.482 280.159,401.507C282.047,401.885 284.016,401.965 286.146,401.102C275.601,398.405 265.057,395.789 254.539,393.038C248.552,391.447 242.403,390.152 236.686,387.806C233.666,386.512 231.481,383.275 227.921,380.039C230.699,380.039 232.533,380.093 234.393,380.012C255.105,378.906 275.817,377.774 296.529,376.695C297.203,376.641 297.958,376.317 298.498,376.533C306.184,379.958 309.744,374.861 313.573,369.629C317.726,363.912 322.095,358.302 326.869,353.151C329.539,350.265 329.35,348.27 327.112,345.573C321.934,339.478 316.864,333.275 311.227,326.479C306.265,334.246 301.356,341.932 296.205,349.942C287.926,338.777 279.781,327.828 271.232,316.339C262.872,326.911 254.835,337.051 247.095,346.787C237.818,338.642 228.648,330.552 218.805,321.895C211.874,331.01 204.97,340.099 197.904,349.43C195.288,346.625 192.618,344.198 190.569,341.285C189.841,340.206 190.353,337.941 190.866,336.431C191.271,335.325 192.646,334.543 193.563,333.572C242.241,284.948 290.866,236.296 339.544,187.618C361.281,165.908 383.017,144.145 404.754,122.381C405.914,121.194 406.777,119.765 408.422,117.581C411.469,121.006 413.897,123.487 416.081,126.157C424.873,137.052 432.775,148.757 442.483,158.735C456.129,172.759 470.935,185.677 485.498,198.783C492.186,204.824 499.926,209.031 509.581,207.467C509.932,207.413 510.417,207.845 511.199,208.249C494.425,246.733 468.481,277.828 436.415,304.608C437.413,304.15 438.465,303.772 439.435,303.233C470.422,285.029 497.256,261.836 521.231,235.191C525.519,230.418 529.753,225.59 534.041,220.763C539.57,214.56 544.181,207.791 545.557,199.431C547.094,190.046 553.863,183.924 559.392,177.263C572.741,161.271 581.344,143.121 586.118,123.002C586.388,121.815 586.873,120.683 587.709,118.175C593.804,128.153 599.413,136.972 604.645,145.953C615.298,164.4 628.809,180.446 644.909,194.281C653.997,202.129 662.978,210.166 674.628,214.184C675.761,214.589 676.812,215.721 677.487,216.773C683.204,225.565 689.03,234.276 694.396,243.283C703.538,258.682 715.189,272.112 727.271,285.111C739.73,298.487 753.997,309.76 771.203,316.314C778.269,318.957 786.198,319.2 793.641,320.98C804.105,323.461 814.65,325.969 824.871,329.313C828.269,330.446 830.804,334.194 834.121,337.08C817.859,349.108 803.296,362.377 784.795,369.523C779.159,364.507 773.657,359.626 767.535,354.178C765.135,357.225 762.815,360.192 760.227,363.509C753.97,356.416 748.523,350.24 742.778,343.741C738.652,349.647 735.119,354.771 731.235,360.381C727.082,355.23 723.306,350.537 719.207,345.44C713.139,354.555 707.395,363.185 701.219,372.463C697.875,369.308 695.205,366.773 692.805,364.507C688.193,370.764 683.447,377.182 678.296,384.194C675.06,379.663 672.444,375.969 669.315,371.573C664.245,380.607 659.444,389.103 654.779,397.436L687.33,397.436C687.411,397.085 687.465,396.708 687.546,396.357C686.467,395.683 685.389,394.955 684.31,394.253C684.391,393.902 684.445,393.525 684.499,393.201L747.525,393.201C733.286,401.319 719.612,409.139 705.939,416.96C706.128,417.391 706.344,417.823 706.532,418.281C707.853,417.903 709.256,417.688 710.496,417.148C733.554,407.143 756.558,397.137 779.59,387.159C783.042,385.649 786.602,384.3 790,382.655C795.529,379.958 800.653,381.199 805.264,384.435C810.064,387.86 814.272,392.067 819.018,395.546C826.219,400.886 834.39,403.717 842.076,404.23C832.988,397.002 823.333,389.262 813.301,381.253C825.572,371.14 837.006,361.755 847.956,352.72C881.559,386.269 914.38,419.117 947.389,452.099C944.476,457.223 939.73,458.625 933.986,455.066C929.132,452.072 924.628,448.432 919.854,445.034C915.647,450.859 911.467,456.604 906.882,462.941C897.794,455.902 889.649,449.619 881.397,443.254C875.329,452.073 869.693,460.298 863.921,468.658C859.498,465.26 855.75,462.374 851.435,459.03C842.535,469.116 833.878,478.96 824.574,489.585C827.217,490.178 829.32,491.068 831.37,491.014C845.717,490.798 860.065,490.043 874.385,490.097C889.218,490.151 904.023,490.987 918.829,491.311C920.609,491.338 922.82,490.502 924.169,489.342C926.758,487.104 928.754,484.164 931.235,481.764C936.035,477.152 940.512,477.314 945.582,481.575C954.482,489.153 960.711,498.43 964.244,509.514C965.161,512.454 966.617,513.532 969.503,513.128C970.15,513.047 970.824,513.128 971.472,513.128C982.448,513.263 981.612,512.13 979.832,523.781C977.54,538.722 969.988,551.073 959.255,561.726C915.269,605.55 871.472,649.455 827.594,693.333C739.029,781.871 650.41,870.382 561.899,959.028C549.682,971.272 535.578,979.066 518.156,980.576C498.172,982.302 480.804,976.315 465.999,962.831C464.543,961.51 463.14,960.107 461.765,958.678C421.15,918.09 380.536,877.476 339.894,836.888C338.519,835.54 336.523,834.784 334.824,833.76C335.282,833.194 335.714,832.654 336.172,832.088C337.359,831.845 338.545,831.603 339.84,831.333C339.867,830.875 339.975,830.389 339.894,829.958C338.869,824.942 338.114,819.872 336.685,814.99C336.254,813.426 334.447,811.835 332.855,811.026C327.057,808.14 321.043,805.605 315.164,802.908C315.137,802.45 315.11,801.964 315.056,801.479C320.719,800.913 326.329,800.346 331.965,799.78C327.623,791.204 323.47,782.25 318.535,773.755C317.294,771.544 313.735,770.627 311.092,769.332C308.827,768.226 306.346,767.417 303.972,766.5L303.972,765.206C307.181,764.343 310.364,763.453 313.869,762.455C307.181,753.609 300.439,744.683 293.103,735.001C286.28,747.272 280.05,758.518 273.551,770.168C271.987,768.685 270.746,767.687 269.614,766.527C201.222,698.189 132.883,629.769 64.41,561.485C52.166,549.241 44.642,534.921 43.321,517.499C43.24,516.555 43.294,515.611 43.294,513.777L90.327,513.777C79.513,499.052 82.398,485.568 90.678,471.598L57.318,471.598C60.662,463.777 66.433,462.375 73.823,463.642C74.956,459.597 76.007,455.848 77.059,452.072C76.654,451.991 76.223,451.91 75.818,451.802C78.677,447.082 82.668,445.572 88.251,445.761C102.086,446.166 115.975,445.815 129.837,445.95C133.262,445.977 135.797,445.788 136.579,441.554C136.984,439.45 138.736,437.563 140.409,434.704L93.376,434.704C95.857,430.713 98.149,428.474 102.357,428.528C125.577,428.986 148.797,429.31 172.017,429.688C178.004,429.769 184.288,431.522 189.924,425.67L189.922,425.67Z" style="fill:rgb(69,28,21);fill-rule:nonzero;"/>
    </g>
    <g transform="matrix(0.058594,0,0,0.058594,0.000092,0)">
        <path d="M581.312,619.258C594.554,615.428 607.687,611.033 621.091,607.85C634.413,604.668 647.925,601.944 661.868,602.16C672.062,602.295 682.229,601.27 692.423,601.243C701.457,601.216 710.519,602.457 719.499,602.079C731.257,601.594 742.962,600.083 754.693,599.059C756.904,598.87 759.143,599.032 761.381,599.032C761.489,599.544 761.597,600.084 761.732,600.569C759.008,601.594 756.284,603.293 753.507,603.509C743.178,604.237 732.849,604.723 722.493,604.75C710.816,604.777 699.138,603.806 687.488,604.022C672.844,604.292 658.092,604.238 643.691,606.368C629.398,608.472 615.482,613.164 601.35,616.616C594.797,618.234 588.162,619.502 581.501,620.904C581.447,620.365 581.393,619.798 581.312,619.259L581.312,619.258Z" style="fill:rgb(69,28,21);fill-rule:nonzero;"/>
    </g>
    <g transform="matrix(0.058594,0,0,0.058594,0.000092,0)">
        <path d="M725.47,551.265C719.672,551.723 713.9,552.344 708.102,552.613C691.031,553.476 673.798,553.098 656.916,555.337C643.27,557.144 630.055,562.214 616.571,565.45C610.422,566.96 604.085,567.931 597.774,568.659C584.91,570.115 572.019,571.194 559.128,572.408C557.78,572.543 556.404,572.3 554.921,571.114C557.186,570.629 559.425,569.981 561.744,569.739C575.417,568.202 589.171,567.204 602.763,565.073C610.934,563.832 618.971,561.324 626.873,558.735C637.984,555.094 649.257,552.937 660.988,552.397C674.931,551.777 688.793,550.105 702.735,549.188C709.315,548.757 715.923,548.945 722.503,549.053C723.555,549.053 724.634,549.97 725.712,550.455C725.604,550.725 725.55,550.994 725.469,551.264L725.47,551.265Z" style="fill:rgb(69,28,21);fill-rule:nonzero;"/>
    </g>
    <g transform="matrix(0.058594,0,0,0.058594,0.000092,0)">
        <path d="M557.779,624.18C549.5,625.043 541.193,625.852 532.914,626.769C522.504,627.929 512.094,629.439 501.684,630.302C493.486,631.003 485.233,630.787 477.062,631.246C469.079,631.677 461.124,632.864 453.168,632.945C439.872,633.134 426.55,632.675 413.254,632.433C412.903,632.433 412.526,631.894 411.15,630.734C413.469,630.41 414.845,630.06 416.22,630.06C424.661,630.006 433.075,630.141 441.49,629.979C446.371,629.898 451.334,629.655 456.161,628.873C463.766,627.686 471.263,627.039 479.03,627.605C495.157,628.819 511.123,626.122 527.142,624.126C537.201,622.858 547.557,623.856 557.805,623.856C557.805,623.991 557.778,624.072 557.778,624.18L557.779,624.18Z" style="fill:rgb(69,28,21);fill-rule:nonzero;"/>
    </g>
    <g transform="matrix(0.058594,0,0,0.058594,0.000092,0)">
        <path d="M248.557,609.04C252.683,609.471 256.836,609.822 260.963,610.361C275.688,612.276 290.44,614.056 305.138,616.213C313.876,617.534 322.479,619.611 331.163,621.067C340.467,622.658 349.825,624.249 359.21,625.301C367.193,626.245 375.256,626.38 383.266,626.946C384.507,627.054 385.666,627.62 386.745,628.834C381.136,628.834 375.499,628.915 369.89,628.807C366.923,628.726 364.011,628.052 361.071,628.052C348.719,628.025 336.853,625.49 324.771,622.847C312.662,620.258 299.96,620.474 287.662,618.667C274.474,616.779 261.395,614.001 248.288,611.601C248.396,610.738 248.477,609.875 248.558,609.039L248.557,609.04Z" style="fill:rgb(69,28,21);fill-rule:nonzero;"/>
    </g>
    <g transform="matrix(0.058594,0,0,0.058594,0.000092,0)">
        <path d="M747.913,550.359C749.585,550.359 751.284,550.305 752.956,550.359C760.507,550.71 768.085,550.871 775.61,551.465C793.679,552.867 811.937,553.407 828.873,560.769C832.46,562.333 835.399,565.542 838.177,568.428C839.013,569.291 838.905,572.123 838.123,573.228C836.424,575.682 833.97,577.597 830.815,580.779C831.004,578.568 830.869,577.866 831.139,577.489C835.589,571.745 835.211,567.403 828.604,564.733C820.783,561.578 812.531,558.746 804.251,557.694C786.074,555.348 767.762,554.215 749.505,552.57C748.939,552.516 748.399,552.112 747.86,551.896C747.887,551.357 747.887,550.871 747.914,550.359L747.913,550.359Z" style="fill:rgb(69,28,21);fill-rule:nonzero;"/>
    </g>
    <g transform="matrix(0.058594,0,0,0.058594,0.000092,0)">
        <path d="M529.667,572.77C500.055,576.573 473.033,564.679 445.04,558.665C445.094,558.018 445.175,557.397 445.256,556.75C448.142,557.101 451.108,557.128 453.913,557.829C467.775,561.281 481.556,565.299 495.526,568.266C502.376,569.722 509.577,569.372 516.615,569.803C520.984,570.1 525.38,570.342 529.722,570.639L529.667,572.77Z" style="fill:rgb(69,28,21);fill-rule:nonzero;"/>
    </g>
    <g transform="matrix(0.058594,0,0,0.058594,0.000092,0)">
        <path d="M829.363,582.427C811.078,592.271 790.852,595.453 770.41,598.069C789.881,592.271 809.38,586.446 828.824,580.647C828.986,581.24 829.202,581.834 829.363,582.427Z" style="fill:rgb(69,28,21);fill-rule:nonzero;"/>
    </g>
    <g transform="matrix(0.058594,0,0,0.058594,0.000092,0)">
        <path d="M202.624,591.855C209.717,595.118 216.702,598.354 224.846,602.103C214.328,602.508 206.292,598.462 202.624,591.855Z" style="fill:rgb(69,28,21);fill-rule:nonzero;"/>
    </g>
</svg>
