<?xml version="1.0" encoding="UTF-8" standalone="no"?>
<!DOCTYPE svg PUBLIC "-//W3C//DTD SVG 1.1//EN" "http://www.w3.org/Graphics/SVG/1.1/DTD/svg11.dtd">
<svg width="100%" height="100%" viewBox="0 0 61 61" version="1.1" xmlns="http://www.w3.org/2000/svg" xmlns:xlink="http://www.w3.org/1999/xlink" xml:space="preserve" xmlns:serif="http://www.serif.com/" style="fill-rule:evenodd;clip-rule:evenodd;stroke-linejoin:round;stroke-miterlimit:2;">
    <g transform="matrix(0.058594,0,0,0.058594,0.000059,-0.000037)">
        <path d="M511.96,1009.647C486.288,1009.647 462.174,999.658 444.021,981.532L42.429,579.94C4.995,542.48 4.995,481.522 42.429,444.116L444.048,42.497C462.201,24.344 486.288,14.355 511.96,14.355C537.605,14.355 561.692,24.344 579.845,42.497L981.464,444.116C999.617,462.242 1009.579,486.356 1009.579,512.028C1009.579,537.673 999.616,561.787 981.464,579.94L579.872,981.532C561.719,999.658 537.605,1009.647 511.96,1009.647Z" style="fill:rgb(232,203,158);fill-rule:nonzero;"/>
    </g>
    <g transform="matrix(0.058594,0,0,0.058594,0.000059,-0.000037)">
        <path d="M511.919,14.436C487.304,14.435 462.71,23.798 444.025,42.483L42.444,444.104C5.055,481.493 5.055,542.503 42.444,579.892L444.025,981.513C462.722,1000.194 487.346,1009.559 511.958,1009.56C536.57,1009.561 561.143,1000.191 579.852,981.513L981.473,579.892C1018.833,542.501 1018.833,481.495 981.473,444.104L579.852,42.483C561.155,23.802 536.533,14.437 511.919,14.436Z" style="fill:rgb(232,203,158);fill-rule:nonzero;"/>
    </g>
    <g transform="matrix(0.058594,0,0,0.058594,0.000059,-0.000037)">
        <path d="M1009.5,510.745C1009.311,507.779 1009.257,503.787 1008.745,499.904C1005.752,476.766 995.126,457.673 978.676,441.25C846.374,309.136 714.179,176.888 581.958,44.667C580.556,43.292 579.207,41.835 577.724,40.514C555.26,20.208 528.967,11.767 498.871,15.65C476.434,18.536 457.853,28.945 441.943,44.829C323.556,163.351 205.088,281.792 86.647,400.206C71.464,415.389 56.147,430.437 41.207,445.808C25.728,461.719 16.882,481.054 15.076,503.141C12.568,533.857 22.708,560.042 44.632,581.859C85.353,622.337 125.912,663.058 166.498,703.671C258.592,795.738 350.605,887.859 442.726,979.845C481.721,1018.786 541.616,1019.541 579.856,981.355C713.803,847.596 847.616,713.73 981.428,579.81C1000.143,561.095 1009.339,538.253 1009.501,510.746L1009.5,510.745ZM-0,511.635C0.539,480.73 11.785,454.383 33.709,432.432C122.432,343.763 211.101,255.067 299.797,166.398C343.916,122.279 388.088,78.214 432.153,34.042C456.505,9.609 485.818,-1.987 520.148,0.279C547.682,2.086 571.251,13.331 590.83,32.856C707.626,149.679 824.449,266.502 941.299,383.298C957.506,399.532 973.66,415.794 989.975,431.947C1014.434,456.218 1026.03,485.585 1023.792,519.915C1022.012,547.476 1010.848,571.099 991.323,590.651C892.595,689.379 793.867,788.107 695.139,886.835C660.917,921.03 626.642,955.171 592.582,989.473C568.311,1013.906 539.159,1025.825 504.749,1023.776C476.46,1022.05 452.486,1010.346 432.422,990.309C368.752,926.531 305.028,862.834 241.304,799.11C171.863,729.696 102.422,660.282 33.007,590.813C11.217,568.996 0.403,542.541 -0.001,511.637L-0,511.635Z" style="fill:rgb(69,28,21);fill-rule:nonzero;"/>
    </g>
    <g transform="matrix(0.058594,0,0,0.058594,0.000059,-0.000037)">
        <path d="M684.517,574.591C687.915,577.477 691.205,580.227 695.277,583.679C695.277,581.171 696.032,578.798 695.142,577.611C692.472,574.051 688.724,572.811 684.517,574.591ZM535.63,421.955C538.489,420.04 541.374,419.069 541.536,417.802C542.075,413.002 541.725,408.094 541.725,403.186L536.979,403.186C536.548,409.065 536.143,414.755 535.631,421.955L535.63,421.955ZM635.76,180.03C633.414,169.782 622.303,164.82 612.757,171.212C615.831,171.94 617.746,172.965 619.472,172.641C623.706,171.94 627.023,173.477 628.425,176.983C630.016,180.839 632.416,180.57 635.76,180.03ZM561.222,420.338L561.222,403.267L555.1,403.267C554.48,408.526 553.94,413.461 553.401,418.315C556.367,419.07 558.714,419.663 561.222,420.338ZM620.739,576.209C614.429,573.27 608.307,573.917 602.32,576.425C600.675,577.099 599.65,579.176 598.302,580.632C600.217,581.495 602.104,583.032 604.019,583.113C606.716,583.194 609.628,581.171 612.055,581.765C616.99,582.952 619.282,581.037 620.739,576.21L620.739,576.209ZM439.329,440.994C450.062,438.189 458.853,440.778 465.433,448.976C469.586,445.713 468.561,443.016 465.217,441.021C461.469,438.756 457.612,436.571 453.513,435.115C447.931,433.173 441.512,435.654 439.328,440.994L439.329,440.994ZM503.674,403.105C503.674,409.227 504.025,414.782 503.593,420.31C503.054,427.51 502.946,427.78 509.796,430.827L509.796,403.104L503.674,403.105ZM494.882,425.353L494.882,403.186L486.711,403.186L486.711,426C489.731,425.784 492.293,425.569 494.882,425.353ZM519.342,403.132L519.342,432.5C522.902,429.156 527.54,426.891 528.079,423.843C529.32,417.209 528.457,410.197 528.457,403.132L519.342,403.132ZM313.715,402.7C317.706,404.776 320.484,403.509 322.641,400.839C325.446,397.306 329.032,395.176 333.32,396.255C336.772,397.145 340.089,399.087 343.109,401.136C346.453,403.455 349.177,406.664 352.575,408.93C353.735,409.739 355.973,409.011 357.726,408.984C357.187,407.663 356.971,405.937 356.027,405.074C352.467,401.919 348.935,398.656 344.916,396.175C340.197,393.289 335.666,390.431 329.032,391.833C322.128,393.235 318.38,397.55 313.714,402.701L313.715,402.7ZM403.382,411.761C406.16,411.383 408.047,411.437 409.692,410.871C413.44,409.496 416.784,406.934 421.234,409.01C427.221,411.815 428.704,417.208 430.295,422.79C430.834,424.624 432.533,426.107 433.693,427.779C434.691,425.568 436.902,423.114 436.471,421.307C435.5,417.235 433.855,412.974 431.293,409.765C425.117,401.998 411.58,399.409 403.382,411.761ZM276.284,413.541C276.769,414.134 277.767,416.48 279.17,416.777C282.595,417.451 282.298,414.539 282.379,412.166C282.568,407.177 289.93,399.815 294.218,401.379C300.933,403.806 309.589,403.941 312.124,413.056C312.394,414.135 313.095,415.375 313.985,415.861C315.091,416.481 316.547,416.4 317.868,416.643C318.03,415.483 318.758,413.865 318.273,413.191C315.63,409.793 313.149,406.018 309.751,403.591C306.272,401.11 301.769,400.058 297.67,398.44C289.121,394.988 276.878,402.836 276.285,413.542L276.284,413.541ZM499.386,305.455C502.218,302.947 504.941,300.412 507.773,298.039C514.056,292.699 519.126,292.969 523.738,299.387C525.841,302.326 527.082,305.94 528.781,309.446C530.291,308.205 532.017,306.776 533.689,305.347C529.914,291.998 520.421,285.472 509.634,289.436C505.993,290.757 503.054,294.074 499.872,296.555C496.771,298.982 496.555,301.814 499.387,305.454L499.386,305.455ZM404.622,162.447C397.071,162.528 385.691,170.295 383.48,177.036C382.941,178.762 381.242,181.647 384.774,182.025C386.149,182.16 388.549,180.407 389.143,179.005C391.219,174.016 398.905,168.488 404.865,168.353C411.742,168.164 413.98,170.106 417.432,177.792C418.106,179.356 420.56,180.111 422.205,181.244C422.636,179.194 423.877,176.902 423.338,175.122C421.181,168.083 412.308,162.312 404.623,162.447L404.622,162.447ZM463.546,402.456L463.546,422.79C463.546,429.613 466.243,433.011 473.092,435.087C473.712,424.543 474.306,413.945 474.926,403.184C470.989,402.968 467.618,402.726 463.546,402.456ZM574.976,309.123C567.964,303.109 559.901,300.925 551.353,302.192C539.865,303.918 532.53,311.631 526.974,321.447C531.936,325.142 533.932,320.989 536.844,318.481C541.132,314.813 545.528,310.984 550.543,308.557C555.451,306.184 560.872,305.914 565.375,310.984C568.287,314.301 571.739,313.843 574.975,309.123L574.976,309.123ZM634.816,413.811C634.789,413.002 634.816,412.651 634.708,412.355C634.546,411.897 634.384,411.384 634.061,411.034C626.834,403.51 618.366,398.305 607.633,400.166C601.592,401.191 595.659,403.591 592.181,409.578C588.972,415.025 589.835,421.632 595.39,425.003C592.909,412.868 599.3,406.827 609.548,405.506C617.234,404.508 624.137,408.149 628.857,414.837C630.799,414.513 632.713,414.19 634.817,413.812L634.816,413.811ZM519.881,452.32C516.483,448.383 513.571,443.96 509.741,440.643C503.053,434.845 495.098,431.636 486.144,434.252C478.35,436.544 476.031,443.96 472.984,450.379C472.66,451.08 473.362,453.076 473.793,453.13C474.872,453.319 476.436,453.076 477.137,452.348C478.243,451.188 478.485,449.274 479.564,448.141C482.396,445.148 485.011,441.264 488.571,439.781C495.205,436.949 500.949,440.779 505.857,444.986C508.689,447.413 510.873,450.622 513.354,453.454C516.078,456.582 518.262,456.232 519.88,452.321L519.881,452.32ZM400.415,418.422C398.15,413.864 396.343,409.307 393.727,405.235C389.331,398.223 375.632,396.525 370.184,401.999C364.602,407.635 359.046,413.298 353.734,418.692C359.181,419.123 365.006,418.881 368.998,413.002C370.373,410.979 371.884,408.93 373.771,407.393C375.551,405.964 377.789,404.642 380,404.211C385.555,403.078 388.36,406.314 390.059,411.276C391.596,415.726 393.079,420.769 400.415,418.422ZM522.74,462.487L509.553,462.487C497.526,462.487 497.526,462.487 495.746,474.272C495.692,474.515 495.935,474.757 496.016,475L522.741,475L522.74,462.487ZM709.435,401.19C711.377,399.949 713.183,398.79 714.99,397.63C719.952,394.448 727.853,394.124 731.683,397.603C735.863,401.432 736.834,406.502 735.755,412.085C735.458,413.487 736.321,415.105 736.672,416.643C738.506,415.996 741.634,415.726 741.931,414.647C742.956,410.979 744.115,406.773 743.225,403.267C739.396,388.516 720.977,385.819 710.594,392.291C706.711,394.691 705.875,397.307 709.434,401.19L709.435,401.19ZM562.759,846.503L586.841,846.503L586.841,832.183L562.759,832.183L562.759,846.503ZM613.215,180.111C610.842,174.744 609.574,169.459 606.527,165.468C597.439,153.602 576.701,158.591 570.418,171.59C568.234,176.094 569.555,180.247 570.823,184.319C571.228,185.64 574.167,186.18 575.974,187.07C576.379,186.18 577.349,185.182 577.161,184.427C575.516,177.469 577.781,171.59 583.148,167.518C589.324,162.826 599.517,162.34 603.886,171.806C605.153,174.584 606.475,177.307 607.823,180.112L613.215,180.111ZM504.887,323.658C508.204,320.638 504.887,318.399 503.188,316.916C498.55,312.871 494.127,309.257 491.187,303.19C487.439,295.504 479.591,293.158 470.988,295.019C462.17,296.961 455.293,301.275 453.163,310.633C452.678,312.79 453.594,315.271 453.837,317.051C459.689,311.684 464.651,306.588 470.179,302.273C477.083,296.88 485.497,300.952 487.492,309.258C487.87,310.795 488.382,312.764 489.515,313.573C494.369,317.052 499.466,320.153 504.886,323.659L504.887,323.658ZM708.357,416.804C708.168,415.159 708.465,413.46 707.764,412.408C704.096,406.718 700.375,401.028 696.357,395.607C693.552,391.859 689.48,390.537 684.788,390.106C673.92,389.054 665.614,394.259 658.468,401.055C654.908,404.426 653.048,409.739 651.052,414.431C650.54,415.672 652.427,417.937 653.236,419.717C654.827,418.746 657.47,418.045 657.82,416.697C660.49,407.528 667.178,402.512 675.025,398.17C682.225,394.179 688.724,395.284 693.336,401.999C695.116,404.588 696.383,407.5 698.244,409.981C700.698,413.19 703.017,416.885 708.357,416.804ZM521.796,445.605C532.475,435.007 532.907,434.467 543.1,431.636C551.082,429.452 558.849,429.829 564.35,437.272C567.559,441.56 570.175,446.306 573.465,450.486C574.652,451.942 577.106,452.401 578.993,453.318C579.398,451.242 580.8,448.572 580.018,447.115C572.979,433.982 561.303,419.554 542.156,424.813C531.72,427.645 523.063,432.795 517.157,441.991C518.802,443.258 520.204,444.364 521.795,445.605L521.796,445.605ZM378.706,580.955C375.874,577.341 373.151,573.836 370.454,570.33C363.928,561.889 354.948,560.46 345.266,561.754C340.466,562.428 336.69,565.017 334.857,569.682C334.479,570.572 334.722,571.732 334.722,572.756C335.909,572.756 337.203,572.972 338.309,572.621C339.145,572.351 339.738,571.3 340.493,570.706C347.72,564.989 358.507,565.906 364.278,573.079C367.325,576.935 369.591,581.412 372.152,585.484C371.208,586.967 370.049,587.992 369.887,589.179C369.644,591.121 369.24,594.06 370.265,594.977C372.746,597.188 373.474,594.249 374.742,592.604C380.324,585.377 388.226,582.114 396.828,580.361C402.06,579.282 404.864,582.195 406.105,586.86C406.725,589.044 406.456,591.498 407.265,593.575C407.777,594.95 409.315,596.353 410.717,596.919C411.31,597.189 413.306,595.625 413.737,594.519C416.434,587.696 408.667,575.696 401.305,575.129C392.837,574.509 385.34,577.367 378.706,580.954L378.706,580.955ZM454.242,167.247C451.653,156.163 444.561,149.017 433.855,147.102C424.713,145.511 418.322,152.091 411.769,158.267C414.142,159.481 415.976,160.451 417.594,161.26C420.722,159.049 423.473,156.756 426.601,155.004C428.651,153.844 431.266,152.577 433.37,152.954C439.114,153.898 443.267,157.97 445.128,163.121C446.827,167.813 446.935,173.045 441.919,176.928C440.786,177.791 441.029,180.434 440.625,182.241C442.755,182.079 445.533,182.672 446.935,181.54C449.767,179.275 451.87,176.12 454.297,173.315C460.338,178.304 460.338,185.316 454.135,189.981C452.706,191.087 451.6,192.624 450.279,193.999C454.837,197.478 455.619,197.801 458.693,195.941C464.033,192.678 466.594,187.392 466.379,181.459C466.163,173.827 461.066,169.512 454.244,167.247L454.242,167.247ZM438.278,567.202L452.382,567.202L452.382,517.285L438.278,517.285L438.278,567.202ZM623.841,593.306C623.949,594.654 623.652,596.218 624.272,597.189C625.081,598.403 626.672,599.832 627.913,599.805C628.911,599.805 630.799,597.729 630.745,596.704C630.394,591.23 634.062,588.614 637.379,585.324C640.049,582.681 641.829,579.041 643.716,575.697C644.579,574.187 644.687,572.245 645.361,570.6C647.222,566.285 650.458,562.752 655.096,562.726C660.193,562.699 662.296,566.771 663.294,571.598C663.914,574.699 664.831,578.259 666.827,580.551C670.629,584.974 674.944,588.857 676.778,594.736C677.156,595.923 680.661,597.379 681.47,596.866C682.899,595.922 684.571,593.064 684.113,591.823C682.603,587.94 680.769,583.814 677.884,581.009C674.54,577.746 672.194,574.537 671.412,569.925C670.145,562.32 662.054,555.605 654.423,555.336C647.816,555.147 639.941,561.512 637.919,569.224C636.544,574.429 634.764,578.932 629.883,582.061C626.108,584.515 623.815,588.479 623.842,593.306L623.841,593.306ZM438.143,771.156L493.939,771.156L493.939,755.164L438.143,755.164L438.143,771.156ZM438.331,462.487L438.331,499.378L452.678,499.378C452.678,493.823 452.894,488.537 452.624,483.305C452.219,475.35 452.139,475.296 460.256,475.296L485.498,475.296C485.04,472.95 484.446,471.359 484.473,469.822C484.581,465.291 482.531,462.541 478.217,462.514C465.057,462.433 451.87,462.487 438.332,462.487L438.331,462.487ZM562.49,462.784C562.301,462.946 560.818,463.836 560.629,464.914C559.766,470.928 559.442,477.076 558.418,483.036C558.094,484.87 555.964,486.38 554.67,487.971C553.51,486.272 551.838,484.735 551.353,482.82C550.814,480.744 551.758,478.343 551.488,476.159C551.03,472.626 550.409,469.094 549.25,465.777C548.738,464.375 546.661,462.784 545.178,462.649C540.836,462.244 536.441,462.514 532.126,462.514L532.126,492.825L586.951,492.825L586.951,462.702L574.195,462.702C574.303,464.536 575.112,467.017 574.357,467.637C573.009,468.797 570.204,469.821 568.91,469.174C566.699,468.068 565.162,465.587 562.492,462.783L562.49,462.784ZM382.482,344.046C373.745,362.384 365.304,380.101 356.782,398.062C357.834,399.303 358.966,400.624 360.261,402.161C366.356,392.129 375.093,387.922 386.231,390.403C393.593,392.048 399.472,396.12 401.036,404.75C402.196,403.186 403.382,401.541 403.436,399.842C403.814,387.491 404.002,375.113 404.083,362.762C404.083,361.548 403.409,359.903 402.438,359.202C396.155,354.24 389.682,349.467 382.482,344.046ZM642.637,344.073C635.464,349.466 629.045,354.267 622.708,359.175C621.845,359.822 621.036,361.225 621.063,362.249C621.171,372.605 621.387,382.987 621.71,393.342C621.737,394.286 622.384,395.499 623.112,396.066C627.535,399.626 632.173,402.889 636.569,406.448C639.562,408.875 643.634,408.551 645.037,405.234C648.597,396.793 654.26,390.375 662.997,386.492C656.228,372.388 649.54,358.527 642.637,344.072L642.637,344.073ZM488.006,616.687L488.006,517.393L462.549,517.393L462.549,567.472L477.597,567.472L477.597,615.959C481.453,616.229 484.689,616.444 488.006,616.687ZM474.872,698.102L474.872,711.343L586.976,711.343L586.976,700.367C585.304,700.286 583.848,700.151 582.418,700.124L537.382,700.124C533.445,700.124 531.233,698.883 531.395,694.245C531.746,686.263 531.53,678.28 531.53,670.028L504.643,670.028C499.924,678.927 503.456,688.716 501.704,698.101L474.872,698.102ZM586.841,643.978L541.131,643.978L541.131,691.09L586.841,691.09L586.841,643.978ZM552.35,863.817L503.458,863.817L503.458,914.812L552.35,914.812L552.35,863.817ZM568.989,530.148L568.989,609.729L586.841,609.729L586.841,502.372L532.232,502.372L532.232,530.148L568.989,530.148ZM530.965,660.374C530.965,655.034 531.181,650.234 530.938,645.488C530.56,638.099 534.363,634.782 541.536,634.782C554.75,634.836 567.937,634.809 581.124,634.809L586.976,634.809L586.976,618.332L529.94,618.332L529.94,565.422C522.821,565.422 516.106,565.611 509.445,565.368C505.103,565.179 503.917,566.77 503.944,571.085C504.106,599.293 504.025,627.474 504.025,655.682L504.025,660.374L530.965,660.374ZM462.629,500.214C474.225,500.214 485.39,500.16 496.581,500.214C501.813,500.268 503.997,502.533 504.024,507.576L504.024,557.196L540.214,557.196L540.214,609.675L558.795,609.675L558.795,538.724L522.874,538.724L522.874,484.412L495.367,484.412C495.583,490.399 492.832,494.714 488.032,499.676C487.412,494.795 487.115,491.397 486.441,488.107C486.144,486.705 485.012,484.466 484.176,484.439C477.03,484.142 469.829,484.25 462.629,484.25L462.629,500.214ZM512.061,798.124L512.061,814.358C512.034,823.365 508.609,826.817 499.764,826.817L474.765,826.817L474.765,846.422L553.51,846.422C552.674,839.95 551.568,833.99 551.38,827.976C551.326,826.358 553.78,824.308 555.506,823.068C556.504,822.394 558.392,822.933 559.875,822.933L587.004,822.933L587.004,754.409L538.543,754.409C539.487,769.295 540.377,783.588 541.267,798.123L512.061,798.124ZM438.197,914.677L493.076,914.677L493.076,864.194C492.51,863.924 492.24,863.709 491.943,863.709C483.826,863.655 475.763,863.601 467.672,863.574C461.092,863.547 460.283,862.711 460.229,856.212C460.094,842.836 459.986,829.487 459.744,816.138C459.663,812.443 460.823,810.879 464.787,810.987C474.468,811.23 484.123,811.041 493.804,811.041L493.804,780.703L438.197,780.703L438.197,914.677ZM438.278,576.478L438.278,739.523L475.143,739.523C484.393,739.55 493.643,739.415 502.866,739.604C509.23,739.739 512.062,742.84 512.062,749.016L512.062,788.955L529.213,788.955L529.213,743.65L586.95,743.65L586.95,725.339L535.793,725.339C513.707,725.339 491.566,725.285 469.48,725.393C464.815,725.42 461.066,723.29 460.85,719.19C460.203,708.187 460.634,697.158 460.634,685.427L488.033,685.427L488.033,625.532C481.156,625.883 474.549,626.206 467.403,626.557L467.403,576.478L438.278,576.478ZM415.868,196.021C413.468,200.498 411.553,204.273 413.522,209.289C414.331,211.365 412.308,214.817 410.96,217.298C410.448,218.269 408.048,218.835 406.807,218.512C405.863,218.242 404.407,215.977 404.731,215.195C407.023,209.235 399.634,203.141 405.055,197.316C405.19,197.154 404.704,196.453 404.597,196.022C403.842,193.271 403.141,190.548 402.224,187.069C403.195,187.393 402.898,187.231 402.629,187.231C398.854,187.177 395.024,187.177 391.249,187.177C384.831,187.177 382.35,189.604 382.35,195.941C382.35,213.065 382.404,230.244 382.323,247.368C382.323,252.6 381.406,257.265 375.797,259.854C372.264,261.499 368.974,263.926 366.116,266.596C362.907,269.589 358.403,271.801 358.538,277.437C358.754,285.689 358.457,293.941 358.673,302.193C358.754,303.919 359.671,306.022 360.884,307.263C368.165,314.652 375.851,321.691 383.078,329.134C391.087,337.386 398.342,346.447 406.809,354.214C410.962,358.043 412.256,361.684 412.122,366.835C411.879,376.516 412.068,386.198 412.068,394.908C418.055,396.58 422.639,398.441 427.386,399.034C434.182,399.897 438.739,403.268 440.735,409.551C442.407,414.702 443.189,420.149 444.376,425.516L454.462,425.516C454.462,406.531 454.489,387.923 454.408,369.316C454.408,367.995 453.923,366.43 453.114,365.433C438.821,347.634 424.528,329.836 410.101,312.118C406.838,308.1 405.274,303.596 405.247,298.526C405.193,280.701 405.139,262.902 405.247,245.103C405.247,243.755 406.137,242.029 407.216,241.193C419.702,231.377 432.377,221.722 444.89,211.933C445.753,211.259 446.427,209.776 446.481,208.67C446.616,203.897 446.697,199.097 446.454,194.323C446.238,190.44 444.701,187.284 440.063,187.231C435.128,187.123 430.22,187.177 424.098,187.177C424.934,190.602 426.013,193.353 426.174,196.157C426.282,198.314 425.176,200.553 424.61,202.764C422.534,202.036 420.187,201.712 418.434,200.499C417.193,199.663 416.735,197.64 415.872,196.022L415.868,196.021ZM593.044,213.793L591.642,213.739C591.184,212.903 590.563,212.094 590.348,211.231C588.946,204.651 587.732,198.044 586.168,191.491C585.844,190.143 584.523,188.336 583.336,188.012C582.392,187.796 579.938,189.414 579.857,190.358C579.237,197.235 578.967,204.084 578.805,210.988C578.778,211.743 580.207,212.633 581.07,213.28C592.073,221.451 603.183,229.487 614.051,237.847C615.885,239.222 617.826,241.892 617.853,243.969C618.096,266.244 618.015,288.519 617.907,310.794C617.907,312.466 617.341,314.462 616.316,315.756C610.41,322.983 604.396,330.184 598.194,337.195C589.807,346.661 581.124,355.91 572.791,365.457C571.416,366.994 570.607,369.502 570.58,371.552C570.472,386.789 570.634,401.998 570.634,417.262C570.634,420.013 570.283,422.763 570.149,424.624C574.275,428.642 578.104,432.391 581.826,436.031L581.826,408.794C590.806,401.594 599.975,394.42 613.108,393.665C613.108,385.871 613.162,378.321 613.081,370.77C613.027,363.866 613.324,358.284 619.742,352.702C631.877,342.185 641.397,328.647 653.532,318.13C663.995,309.042 667.393,299.334 667.097,285.769C666.827,275.009 663.079,268.429 654.665,263.305C653.236,262.442 651.968,261.309 650.512,260.662C644.148,257.857 642.745,252.626 642.772,246.315C642.88,229.137 642.826,211.958 642.799,194.834C642.799,190.169 639.887,187.229 635.302,187.175C623.086,187.148 610.869,187.283 598.653,187.121C595.579,187.094 594.095,187.903 594.176,191.247C594.365,197.153 594.284,203.059 594.122,208.965C594.068,210.583 593.394,212.201 593.043,213.792L593.044,213.793ZM467.969,328.243C457.371,331.965 452.49,324.629 447.096,318.265C446.071,317.024 444.993,315.757 443.887,314.543C437.9,308.152 429.702,302.704 426.601,295.18C423.419,287.521 425.792,277.786 424.794,269.049C423.769,259.772 426.115,252.922 434.961,248.877C436.121,248.338 437.118,247.367 438.008,246.423C438.763,245.668 439.761,244.697 439.788,243.753C439.95,238.279 439.869,232.804 439.869,226.116C431.401,232.453 423.85,237.901 416.542,243.672C415.194,244.751 414.115,247.016 414.061,248.742C413.845,263.439 414.708,278.217 413.522,292.807C412.821,301.544 415.302,307.315 421.073,313.545C435.069,328.701 448.229,344.638 461.686,360.28C462.171,360.846 462.468,361.709 462.522,362.464C462.927,367.507 463.358,372.55 463.493,377.62C463.682,382.987 463.547,388.38 463.547,393.612L561.628,393.612C561.628,385.333 561.412,377.432 561.736,369.53C561.844,366.564 562.437,363.058 564.109,360.739C568.046,355.319 572.685,350.357 577.215,345.395C585.899,335.929 594.933,326.76 603.373,317.106C606.555,313.411 610.573,308.8 610.789,304.458C611.625,286.659 611.14,268.834 611.086,251.008C611.086,249.821 610.897,248.122 610.115,247.475C601.971,241.003 593.665,234.612 585.44,228.247C584.901,228.921 584.712,229.029 584.712,229.137C583.687,240.194 586.438,249.255 597.414,254.379C598.816,255.053 600.057,257.615 600.111,259.314C600.327,269.885 600.327,280.456 600.111,291.028C600.084,292.862 599.113,295.1 597.873,296.502C590.969,304.43 583.715,312.116 576.704,319.991C571.769,325.546 567.023,331.129 558.312,328.809C555.507,328.081 554.078,329.645 553.62,332.369C553.054,335.632 552.568,338.922 551.49,341.996C551.085,343.129 549.144,344.342 547.849,344.369C546.905,344.396 545.287,342.832 544.963,341.672C544.289,339.218 544.747,336.413 543.857,334.067C543.102,332.152 541.295,329.725 539.596,329.402C536.279,328.728 532.719,329.105 529.267,329.537C523.604,330.292 519.936,338.059 522.606,343.263C524.143,346.202 522.714,352.702 520.206,353.403C516.026,354.59 514.327,352.028 513.68,348.387C510.444,354.374 514.004,362.653 505.725,368.424C505.267,365.08 504.943,362.761 504.619,360.496C503.702,354.887 502.839,349.278 501.895,343.668C501.571,341.726 500.547,339.812 500.708,337.924C501.005,334.769 497.688,329.079 494.505,328.863C489.678,328.593 484.878,328.809 481.156,328.809C482.504,335.416 483.772,341.619 485.012,347.821C485.066,348.226 484.527,348.684 484.446,349.169C483.664,354.023 479.727,358.338 481.992,363.785C482.208,364.351 481.075,365.754 480.266,366.374C479.888,366.671 478.19,366.185 478.109,365.862C477.273,360.954 471.475,357.34 474.387,351.354C475.169,349.763 475.735,346.985 474.899,345.826C471.42,341.161 474.036,334.122 468.562,330.374C468.292,330.185 468.319,329.511 467.969,328.244L467.969,328.243ZM635.356,433.443C634.601,433.524 633.846,433.578 633.118,433.659C632.956,435.709 632.606,437.758 632.74,439.781C633.01,446.442 633.738,453.103 633.684,459.737C633.657,461.625 631.527,464.996 630.232,465.05C627.212,465.212 626.915,462.299 626.915,459.63C626.861,456.852 626.807,453.967 626.025,451.378C624.731,446.982 622.789,442.802 621.279,438.488C621.009,437.706 621.495,436.6 621.737,435.683C622.681,431.961 618.42,425.166 614.618,424.923C610.573,424.626 606.501,424.869 602.321,424.869L602.321,567.068C613.027,562.106 622.277,563.886 630.097,572.731C631.257,568.956 632.173,565.881 633.198,562.834C637.297,550.51 653.397,543.93 664.561,551.723C669.361,555.094 672.867,560.299 676.993,564.64C677.991,565.665 679.312,567.256 680.391,567.175C695.574,566.042 695.547,565.988 701.399,551.075C701.561,550.617 701.857,550.212 702.046,549.781C711.053,529.906 720.195,510.085 728.906,490.102C732.385,482.201 737.482,477.481 746.354,477.05C752.341,476.753 758.355,476.106 765.096,475.54C764.152,471.872 763.613,468.663 762.48,465.67C757.707,453.562 752.556,441.561 747.918,429.399C746.597,425.92 745.032,424.707 741.257,424.734C711.566,424.923 681.902,424.842 652.21,424.842L646.843,424.842C646.438,428.105 646.034,430.964 645.764,433.822C645.359,437.921 645.306,442.047 644.604,446.092C644.361,447.548 642.689,448.681 641.665,449.975C640.371,448.815 638.429,447.845 637.943,446.388C637.107,443.961 637.296,441.21 636.837,438.621C636.54,436.895 635.866,435.196 635.354,433.443L635.356,433.443ZM259.726,475.728C264.661,475.944 268.598,475.89 272.455,476.429C277.579,477.157 282.757,478.02 287.692,479.53C289.795,480.177 292.034,482.146 293.032,484.114C296.457,490.937 299.315,498.002 302.498,504.906C308.862,518.659 315.388,532.359 321.726,546.112C323.883,550.885 325.717,555.847 327.524,560.351C330.598,557.519 332.917,553.609 335.884,553.016C347.049,550.751 358.51,549.618 367.894,558.409C370.833,561.16 373.207,564.531 375.634,567.794C379.625,573.053 381.054,575.588 388.74,571.408C401.711,564.369 417.568,569.143 419.159,585.296C419.267,586.267 420.022,587.211 420.453,588.128C424.741,582.357 422.934,575.966 422.961,569.952C423.096,523.595 423.042,477.184 423.042,430.827L423.042,424.84L392.434,424.84C384.128,424.84 382.861,425.757 381.404,434.171C380.892,437.299 381.809,440.697 381.107,443.717C380.649,445.659 378.572,448.328 376.846,448.625C373.826,449.137 372.396,446.629 372.477,443.528C372.531,440.184 372.558,436.84 372.396,433.523C372.369,432.66 371.641,431.77 371.182,430.961C370.049,429.019 368.863,427.078 367.595,424.947L307.727,424.947C306.675,429.936 304.383,435.06 304.788,439.995C305.193,445.146 304.06,449.353 302.01,453.614C301.579,454.504 300.23,455.016 299.178,455.744C297.695,445.011 296.346,435.168 294.917,424.866C290.144,424.866 285.505,424.758 280.948,424.947C280.058,424.974 278.791,425.837 278.44,426.646C275.366,433.846 272.399,441.101 269.514,448.382C267.491,453.371 265.55,458.387 263.743,463.43C262.368,467.205 261.235,471.035 259.725,475.727L259.726,475.728ZM853.954,666.765C848.911,654.387 843.976,642.413 839.122,630.413C828.308,603.742 817.548,577.044 806.761,550.347C799.264,531.928 791.659,513.509 784.27,495.01C783.137,492.178 781.762,491.019 778.58,491.1C768.845,491.343 759.083,491.424 749.374,491.1C745.167,490.965 743.252,492.637 741.688,496.251C730.685,522.329 719.413,548.298 708.302,574.322C704.823,582.439 701.317,590.556 698.135,598.781C696.625,602.664 694.656,605.064 689.317,603.797C687.969,612.507 686.566,620.948 685.38,629.443C684.544,635.592 684.166,641.794 683.223,647.943C682.872,650.208 682.009,653.552 678.746,652.312C677.182,651.692 675.78,648.671 675.672,646.703C675.321,640.824 676.157,634.891 675.591,629.093C675.052,623.322 673.299,617.632 672.193,611.888C671.735,609.488 671.546,607.061 671.249,604.661C662.458,603.043 661.756,603.663 660.597,614.315C660.3,616.904 660.166,619.574 659.383,622.028C658.574,624.563 657.414,628.231 654.205,627.233C651.994,626.586 649.998,623.511 649,621.111C647.975,618.657 648.191,615.637 648.056,612.913C647.921,610.162 648.029,607.412 648.029,604.068C644.146,604.068 639.777,603.96 635.381,604.203C634.518,604.257 633.062,605.605 632.981,606.468C631.821,617.875 630.958,629.282 629.88,640.69C629.475,644.573 628.828,648.484 627.911,652.259C627.587,653.473 626.077,654.389 625.079,655.468C624.081,654.174 622.409,652.933 622.22,651.504C621.573,646.03 621.546,640.447 620.953,634.973C620.656,632.061 619.47,629.256 619.173,626.343C618.822,623.053 618.634,619.601 619.227,616.392C619.685,613.938 620.306,612.023 617.933,610.405C617.771,610.297 617.609,610.189 617.582,610.054C615.209,601.748 608.602,604.202 602.13,604.229L602.13,610.405C602.13,711.048 602.103,811.717 602.238,912.414C602.238,917.106 600.997,920.477 597.492,923.552C594.256,926.438 591.397,929.781 587.271,932.343L587.271,863.333L562.569,863.333L562.569,869.185C562.569,884.664 562.596,900.198 562.569,915.731C562.542,922.85 561.409,923.902 554.344,923.902L503.537,923.902L503.537,936.765L582.794,936.765C583.037,937.196 583.306,937.655 583.576,938.086C578.371,943.021 573.301,948.064 567.908,952.783C566.775,953.808 564.537,953.835 562.784,953.835C544.985,953.889 527.16,953.889 509.334,953.889L503.293,953.889L503.293,980.533C499.571,979.697 496.578,979.023 493.342,978.295L493.342,924.252L438.113,924.252L438.113,934.904C432.558,929.268 427.919,924.818 423.685,919.991C422.714,918.912 423.038,916.566 423.038,914.759L423.038,604.444L402.273,604.444C401.922,607.303 401.545,610.242 401.167,613.181C400.169,621.784 399.387,630.44 398.012,638.962C397.688,640.85 395.504,643.115 393.643,643.843C392.672,644.248 389.328,641.955 389.112,640.58C388.492,636.103 388.923,631.519 388.707,626.988C388.545,623.186 388.168,619.356 387.736,615.608C387.305,611.994 386.63,608.381 386.037,604.39C379.888,603.392 379.969,603.392 379.322,610.673C378.998,614.421 378.189,618.089 377.731,621.811C377.461,624.103 376.733,626.746 377.542,628.661C380.023,634.54 378.486,640.014 377.515,645.866C376.032,654.334 375.492,662.963 374.333,671.512C374.09,673.238 372.85,674.829 372.068,676.501C371.583,676.393 371.043,676.339 370.558,676.285C370.18,673.319 370.396,670.136 369.344,667.494C365.596,658.082 367.996,648.401 367.564,638.882C367.348,634.621 367.618,630.387 367.456,626.153C367.402,624.993 366.782,623.456 365.919,622.782C361.739,619.492 362.251,615.582 363.896,611.294C365.541,607.114 363.518,604.094 359.096,604.067C351.033,604.013 342.942,603.851 334.879,604.175C330.753,604.337 328.757,602.854 327.166,599.105C312.711,564.91 298.014,530.823 283.587,496.602C281.834,492.476 279.65,490.939 275.146,491.101C265.438,491.425 255.675,491.047 245.967,491.344C244.376,491.371 242.003,492.881 241.409,494.31C226.172,531.471 211.098,568.659 196.023,605.874C187.744,626.234 179.438,646.595 170.943,667.414C169.568,666.2 168.435,665.257 167.437,664.259C132.865,629.714 98.239,595.249 63.828,560.623C38.775,535.435 36.052,498.625 56.951,471.091C59.162,468.205 61.697,465.536 64.259,462.974C196.912,330.294 329.727,197.749 462.137,64.799C488.08,38.775 526.805,36.483 553.233,57.14C556.361,59.567 559.247,62.318 562.024,65.095C694.596,197.667 827.168,330.212 959.713,462.784C988.325,491.396 988.406,532.468 959.821,561.161C925.815,595.302 891.674,629.362 857.587,663.422C856.535,664.474 855.43,665.418 853.946,666.766L853.954,666.765Z" style="fill:rgb(69,28,21);fill-rule:nonzero;"/>
    </g>
    <g transform="matrix(0.058594,0,0,0.058594,0.000059,-0.000037)">
        <path d="M320.87,712.478C320.897,708.217 326.884,702.096 330.902,702.149C335.109,702.23 338.938,707.542 338.75,713.044C338.615,717.898 333.41,722.968 328.799,722.833C324.835,722.725 320.817,717.466 320.871,712.477L320.87,712.478Z" style="fill:rgb(69,28,21);fill-rule:nonzero;"/>
    </g>
    <g transform="matrix(0.058594,0,0,0.058594,0.000059,-0.000037)">
        <path d="M287.281,711.591C287.335,717.767 282.454,723.457 277.141,723.403C273.285,723.322 269.428,719.277 269.455,715.286C269.509,708.679 273.878,703.312 279.298,703.178C283.046,703.043 287.226,707.466 287.28,711.592L287.281,711.591Z" style="fill:rgb(69,28,21);fill-rule:nonzero;"/>
    </g>
    <g transform="matrix(0.058594,0,0,0.058594,0.000059,-0.000037)">
        <path d="M666.026,813.123C666.053,819.218 661.9,824.611 657.181,824.611C653.54,824.611 646.96,818.975 647.014,815.901C647.068,809.698 651.14,805.977 657.801,806.004C662.332,806.031 665.999,809.186 666.026,813.123Z" style="fill:rgb(69,28,21);fill-rule:nonzero;"/>
    </g>
    <g transform="matrix(0.058594,0,0,0.058594,0.000059,-0.000037)">
        <path d="M654.934,729.289C653.289,729.1 651.806,729.019 650.403,728.75C643.068,727.186 642.448,726.727 642.124,719.284C642.043,717.423 643.607,714.753 645.171,713.837C647.679,712.327 650.268,709.495 653.962,712.246C659.868,716.588 660.299,720.956 654.933,729.289L654.934,729.289Z" style="fill:rgb(69,28,21);fill-rule:nonzero;"/>
    </g>
    <g transform="matrix(0.058594,0,0,0.058594,0.000059,-0.000037)">
        <path d="M652.963,774.382C649.322,774.436 644.927,770.256 644.819,766.669C644.711,762.651 647.947,758.147 651.048,757.985C655.309,757.823 660.46,762.219 660.621,766.156C660.81,771.01 657.735,774.327 652.962,774.381L652.963,774.382Z" style="fill:rgb(69,28,21);fill-rule:nonzero;"/>
    </g>
    <g transform="matrix(0.058594,0,0,0.058594,0.000059,-0.000037)">
        <path d="M690.305,490.463C690.197,495.317 686.718,500.36 684.453,498.877C680.92,496.612 677.657,493.052 675.796,489.304C674.502,486.661 680.084,480.351 682.565,480.432C686.34,480.54 690.413,485.825 690.305,490.464L690.305,490.463Z" style="fill:rgb(69,28,21);fill-rule:nonzero;"/>
    </g>
    <g transform="matrix(0.058594,0,0,0.058594,0.000059,-0.000037)">
        <path d="M645.803,489.651C646.342,487.116 646.073,483.395 651.008,483.718C655.592,484.015 660.689,488.518 660.608,492.375C660.5,497.256 658.019,500.303 654.352,500.088C650.415,499.845 645.642,494.317 645.803,489.652L645.803,489.651Z" style="fill:rgb(69,28,21);fill-rule:nonzero;"/>
    </g>
</svg>
