<?xml version="1.0" encoding="UTF-8" standalone="no"?>
<!DOCTYPE svg PUBLIC "-//W3C//DTD SVG 1.1//EN" "http://www.w3.org/Graphics/SVG/1.1/DTD/svg11.dtd">
<svg width="100%" height="100%" viewBox="0 0 60 61" version="1.1" xmlns="http://www.w3.org/2000/svg" xmlns:xlink="http://www.w3.org/1999/xlink" xml:space="preserve" xmlns:serif="http://www.serif.com/" style="fill-rule:evenodd;clip-rule:evenodd;stroke-linejoin:round;stroke-miterlimit:2;">
    <g transform="matrix(0.058594,0,0,0.058594,-0.000023,0.000117)">
        <path d="M511.96,1009.647C486.288,1009.647 462.174,999.658 444.021,981.532L42.429,579.94C4.995,542.48 4.995,481.522 42.429,444.116L444.048,42.497C462.201,24.344 486.288,14.355 511.96,14.355C537.605,14.355 561.692,24.344 579.845,42.497L981.464,444.116C999.617,462.242 1009.579,486.356 1009.579,512.028C1009.579,537.673 999.616,561.787 981.464,579.94L579.872,981.532C561.719,999.658 537.605,1009.647 511.96,1009.647Z" style="fill:rgb(232,203,158);fill-rule:nonzero;"/>
    </g>
    <g transform="matrix(0.058594,0,0,0.058594,-0.000023,0.000117)">
        <path d="M511.919,14.436C487.304,14.435 462.71,23.798 444.025,42.483L42.444,444.104C5.055,481.493 5.055,542.503 42.444,579.892L444.025,981.513C462.722,1000.194 487.346,1009.559 511.958,1009.56C536.57,1009.561 561.143,1000.191 579.852,981.513L981.473,579.892C1018.833,542.501 1018.833,481.495 981.473,444.104L579.852,42.483C561.155,23.802 536.533,14.437 511.919,14.436Z" style="fill:rgb(232,203,158);fill-rule:nonzero;"/>
    </g>
    <g transform="matrix(0.058594,0,0,0.058594,-0.000023,0.000117)">
        <path d="M1009.304,511.675C1009.007,484.685 998.842,461.713 979.618,442.515C846.745,309.75 714.006,176.93 581.187,44.165C541.632,4.664 482.206,4.664 442.652,44.192C309.806,176.957 177.013,309.723 44.248,442.569C4.235,482.609 4.397,541.712 44.437,581.779C81.996,619.365 119.583,656.925 157.142,694.511C252.375,789.717 347.554,884.977 442.841,980.129C481.587,1018.821 541.525,1019.495 579.597,981.477C713.657,847.606 847.608,713.627 981.506,579.595C1000.083,561.045 1009.089,538.234 1009.305,511.675L1009.304,511.675ZM511.919,-0C542.306,0.458 568.406,10.866 589.653,32.086C723.47,165.714 857.206,299.423 990.888,433.213C1014.993,457.318 1025.94,486.734 1023.54,520.654C1021.626,547.967 1010.436,571.425 991.023,590.838C876.215,705.646 761.38,820.454 646.572,935.289C628.372,953.489 610.118,971.635 591.972,989.916C567.678,1014.371 538.343,1025.965 503.992,1023.727C477.191,1022.001 453.895,1011.486 434.724,992.585C406.305,964.544 378.183,936.206 349.953,907.948C244.663,802.658 139.427,697.395 34.136,592.185C9.708,567.811 -1.967,538.529 0.271,504.205C2.051,476.298 13.564,452.544 33.354,432.753C85.554,380.634 137.674,328.407 189.847,276.26C270.951,195.183 352.029,114.078 433.16,33.001C454.973,11.242 481.397,0.322 511.919,-0.002L511.919,-0Z" style="fill:rgb(69,28,21);fill-rule:nonzero;"/>
    </g>
    <g transform="matrix(0.058594,0,0,0.058594,-0.000023,0.000117)">
        <path d="M489.036,475.149C488.766,475.769 488.524,476.362 488.254,476.956C477.496,476.201 468.301,470.323 459.565,465.038C450.775,459.726 442.713,452.312 436.296,444.25C429.825,436.134 425.727,426.077 420.388,416.505C413.351,419.714 407.257,424.297 401.999,430.067C395.447,437.239 393.209,445.193 397.361,454.388C398.116,456.033 399.033,457.624 399.653,459.295C400.651,462.18 401.54,464.849 405.504,464.795C406.178,464.795 407.526,467.114 407.553,468.354C407.634,473.585 409.602,477.737 413.35,481.431C419.525,487.525 426.05,492.432 433.626,491.515C436.727,495.748 438.776,499.442 441.661,502.3C447.485,508.097 454.846,511.144 462.773,513.112C467.006,514.137 471.024,515.862 475.122,517.264C474.745,517.992 474.367,518.747 474.017,519.475C432.899,518.046 402.7,498.498 382.181,461.774C378.622,465.252 375.036,468.002 372.447,471.454C363.36,483.641 363.927,497.797 366.192,511.548C368.268,524.436 376.923,532.444 389.812,535.221C390.405,547.597 397.577,555.713 407.095,561.914C413.027,565.797 419.714,566.983 426.751,563.828C427.937,563.289 430.499,564.125 431.577,565.203C441.445,574.856 452.716,581.462 466.791,582.432C473.613,582.89 480.407,583.349 487.202,583.807C470.108,590.035 453.094,586.18 436.296,583.133C405.073,577.498 381.75,559.136 362.175,533.521C358.077,538.671 354.194,543.228 350.689,548.135C349.718,549.483 349.125,552.233 349.853,553.528C356.621,565.796 363.334,578.226 370.857,590.036C374.874,596.372 380.645,601.549 385.255,607.508C398.089,624.09 412.649,638.542 431.604,648.114C433.761,649.193 435.918,650.325 438.048,651.565C462.234,665.747 488.388,673.135 516.375,673.351C528.212,673.432 540.021,671.868 551.858,671.625C564.908,671.301 577.392,668.362 589.741,664.588C592.195,663.833 593.408,662.755 592.572,660.031C590.334,652.697 588.528,645.255 586.101,637.975C579.657,618.723 565.501,606.455 548.218,597.288C544.982,595.535 544.174,594.241 545.387,590.547C549.243,578.791 551.346,566.658 548.811,554.309C545.98,540.369 540.938,527.373 530.099,516.264C553.53,502.513 555.444,482.884 545.144,460.127C554.311,456.972 560.27,450.555 563.479,441.603C566.553,432.975 568.09,424.131 565.636,414.91C566.526,414.425 567.2,413.939 567.928,413.616C583.324,406.767 590.766,394.742 591.278,378.079C591.332,376.812 592.842,375.14 594.109,374.466C605.137,368.777 614.897,362.063 616.488,347.854C628.352,345.562 640.943,343.432 639.73,326.769C643.882,324.558 647.927,322.698 651.594,320.352C657.93,316.388 659.656,307.787 655.261,301.855C654.533,300.83 651.783,300.022 650.866,300.588C642.373,305.711 632.801,307.005 623.364,308.866C610.691,311.347 598.369,310.349 587.126,303.905C579.307,299.402 572.97,293.255 570.22,283.791C567.281,273.707 566.418,263.704 568.333,252.811C567.281,253.62 566.715,253.943 566.338,254.402C554.636,268.692 557.791,295.925 572.944,306.818C581.761,313.154 591.36,318.466 600.662,324.317C582.408,321.081 566.042,314.718 555.957,297.57C532.58,303.583 529.291,315.15 538.027,329.575C525.678,332.163 514.515,336.154 512.951,351.631C510.956,351.631 508.987,351.766 507.073,351.604C499.631,350.903 493.322,353.977 487.147,357.536C480.676,361.257 476.119,366.191 477.198,374.711C465.658,373.066 456.275,376.625 447.134,382.126C434.111,389.945 428.341,413.646 447.296,423.083C446.083,435.998 452.743,448.051 464.148,453.821C465.334,454.441 466.683,455.574 467.087,456.787C469.163,462.611 473.477,466.008 478.735,468.759C482.321,470.619 485.611,472.992 489.035,475.149L489.036,475.149ZM699.697,778.427C745.399,749.334 746.478,730.864 751.87,714.902C759.662,713.743 767.239,712.853 774.762,711.397C791.452,708.108 803.504,697.322 814.155,685.108C821.004,677.235 826.962,668.364 832.031,659.251C837.882,648.682 839.796,636.791 839.823,624.523C847.346,621.287 855.461,618.861 862.391,614.601C879.62,603.897 889.866,587.341 895.286,568.414C897.605,560.352 896.203,551.077 895.556,542.422C895.205,537.326 894.612,533.497 900.032,530.127C907.797,525.355 913.244,518.263 916.372,509.285C918.745,502.571 916.696,497.098 914.215,491.409C905.398,471.349 890.245,471.483 874.04,482.08C868.108,485.909 863.498,492.515 859.588,498.689C851.796,511.038 844.651,523.845 837.694,536.68C834.27,543.016 831.681,549.865 829.066,556.606C823.593,570.735 814.021,582.302 805.716,594.705C796.576,608.402 788.163,622.531 779.373,636.417C778.321,638.062 777.162,639.68 775.895,641.189C765.353,653.565 754.945,666.049 744.133,678.236C733.294,690.45 719.57,699.159 705.36,706.709C689.317,715.175 672.546,722.374 655.937,729.735C651.973,731.488 647.309,731.595 642.968,732.377C634.879,733.806 626.871,735.316 618.755,736.529C615.061,737.068 611.259,737.014 607.269,736.178C614.711,733.832 622.153,731.54 629.567,729.141C645.502,724.072 661.006,718.221 671.171,703.715C673.355,700.668 675,697.217 677.292,694.197C678.317,692.876 680.231,691.716 681.903,691.474C689.156,690.288 696.625,690.045 703.743,688.319C717.899,684.895 730.463,678.397 739.685,666.506C747.396,656.476 755.135,646.419 757.777,633.665C758.748,629.054 759.233,624.282 759.395,619.59C759.53,616.705 760.635,615.411 763.035,613.928C771.879,608.589 781.505,603.979 788.919,597.022C800.567,586.183 806.391,571.515 809.95,556.065C812.538,544.633 813.186,533.2 811.864,521.552C811.702,520.285 812.835,518.316 813.94,517.561C823.134,511.467 830.495,503.54 835.106,493.807C840.876,481.512 841.928,467.95 833.326,456.841C822.46,442.793 808.925,440.96 794.23,448.348C786.168,452.392 779.562,459.349 772.39,465.092C770.26,466.818 767.995,468.651 766.431,470.889C764.355,473.909 762.09,477.171 761.362,480.623C757.884,497.097 750.011,511.63 742.434,526.406C724.126,562.186 703.203,596.375 680.365,629.377C668.474,646.579 652.135,658.982 634.447,670.091C614.899,682.413 593.463,688.048 571.084,691.58C553.477,694.384 535.79,696.056 518.021,694.357C479.356,690.663 441.123,683.949 410.088,658.604C385.875,638.84 361.959,618.402 342.276,593.731C327.824,575.612 316.931,555.228 305.66,535.114C294.794,515.755 285.869,495.559 280.423,473.962C280.18,473.045 280.046,471.724 279.398,471.32C273.089,467.276 266.914,463.015 260.281,459.591C256.425,457.623 251.842,457.03 247.528,455.897C236.473,452.958 221.401,459.106 216.143,469.271C209.483,482.132 208.405,495.452 216.925,507.828C222.21,515.485 228.681,522.388 235.125,529.129C237.606,531.69 241.596,532.823 245.641,535.007C245.317,537.218 245.183,540.13 244.509,542.907C242.244,552.748 245.345,561.754 248.58,570.679C250.926,577.15 253.595,583.486 256.399,589.742C261.738,601.633 272.55,606.998 283.578,611.986C286.841,613.469 290.265,614.44 293.743,615.707C293.096,624.551 294.741,632.532 299.944,640.001C304.042,645.825 306.119,653.213 310.621,658.605C316.499,665.588 323.428,671.925 330.789,677.317C340.118,684.193 350.283,689.828 360.071,696.029C360.583,696.326 360.907,696.946 360.907,698.456C359.047,697.944 357.105,697.674 355.353,696.892C346.941,693.225 338.178,690.07 330.277,685.514C321.487,680.445 313.209,674.324 305.255,668.042C298.164,662.461 291.153,656.556 285.222,649.842C273.898,637.008 263.005,623.769 252.651,610.18C235.637,587.828 225.472,561.647 212.881,536.841C207.219,525.786 201.88,514.543 195.76,503.731C191.311,495.858 183.465,493.054 174.756,492.461C156.286,491.248 139.947,505.915 140.001,528.133C140.055,544.203 145.582,557.415 158.012,567.418C162.757,571.274 168.474,573.943 173.758,577.152C167.26,593.977 169.363,610.667 177.425,626.494C185.81,643.103 201.233,649.979 218.678,653.619C214.472,670.228 218.166,685.22 228.789,697.919C239.574,710.888 254.619,715.256 270.905,715.04C276.729,748.15 302.263,766.458 337.261,762.657C339.418,781.639 354.409,788.946 369.023,795.821C385.12,803.398 401.756,809.869 419.498,812.727C423.785,813.428 428.045,814.237 432.332,814.992C432.197,815.639 432.089,816.313 432.008,816.933C427.883,816.259 423.757,815.558 419.659,814.83C409.71,813.077 399.706,811.514 389.838,809.437C383.798,808.143 377.92,806.04 372.016,804.233C366.623,802.588 361.15,801.105 355.919,799.11C349.07,796.549 342.33,793.69 335.67,790.671C306.847,777.54 279.479,761.875 254.215,742.731C237.741,730.22 223.909,714.932 210.616,699.294C205.493,693.2 201.826,685.84 197.377,679.153C188.749,666.103 180.579,652.702 171.196,640.246C161.301,627.061 154.479,612.42 147.63,597.672C141.078,583.651 134.472,569.658 126.922,556.149C123.74,550.379 116.973,547.871 110.394,546.739C97.91,544.609 83.593,556.284 80.843,567.069C80.223,569.523 79.252,571.895 77.796,576.317C74.021,571.949 70.947,568.579 68.17,565.02C67.604,564.265 67.9,562.593 68.197,561.488C72.646,546.524 83.62,538.408 97.721,533.986C106.834,531.155 116.11,530.723 125.628,535.172C126.356,529.672 126.976,524.71 127.65,519.749C129.726,505.351 134.579,492.247 148.223,485.102C159.709,479.089 172.166,476.474 185.243,479.548C188.586,480.33 191.984,480.842 195.974,481.597C199.506,461.887 214.282,451.857 230.675,443.876C249.252,434.843 264.999,443.66 280.152,453.502C288.672,438.376 299.997,425.838 313.209,414.864C314.557,413.759 315.204,411.844 316.175,410.28C314.315,409.956 312.373,409.121 310.648,409.444C293.446,412.41 275.92,414.432 259.068,418.935C221.077,429.019 184.273,442.932 147.253,456.117C111.554,468.817 79.037,487.394 46.493,506.16C45.657,506.645 44.767,507.023 43.338,507.751C44.12,492.544 49.566,479.844 58.842,468.655C60.729,466.39 62.859,464.314 64.99,462.211C101.012,426.135 137.062,390.058 173.138,354.036C176.32,350.881 178.746,347.942 184.759,348.185C192.632,348.455 201.018,346.352 206.491,338.937C207.947,337.05 210.266,335.809 212.18,334.272C215.389,340.905 218.301,347.376 226.282,349.83C235.638,352.715 241.004,346.702 246.882,341.714C249.147,339.746 250.926,337.184 253.299,334.407C256.804,342.091 262.305,346.594 270.34,348.347C277.404,349.938 283.633,347.538 289.645,344.923C291.721,344.033 292.638,340.339 293.528,337.266C287.569,343.629 280.909,346.595 272.874,344.33C275.004,338.533 276.703,332.601 279.426,327.182C280.666,324.674 283.686,322.814 286.221,321.169C289.942,318.742 293.366,316.262 294.445,311.301C288.864,314.914 283.309,318.527 277.377,322.356C279.21,314.941 279.103,306.906 286.221,301.622C288.432,299.95 290.373,297.874 292.665,296.283C296.629,293.506 298.732,289.974 298.138,285.013C298.731,285.121 299.297,285.148 299.324,285.256C300.888,293.102 305.472,298.441 311.943,303.025C317.929,307.258 318.819,312.219 316.176,319.661C311.7,316.776 307.413,314.026 301.859,310.467C303.558,313.622 304.42,316.183 306.092,318.044C307.548,319.662 309.867,320.552 311.889,321.603C315.044,323.221 317.12,325.189 316.85,329.234C316.499,334.276 316.769,339.345 316.769,345.681C312.077,342.931 308.195,340.693 304.474,338.482C304.717,344.576 309.246,349.132 316.877,350.696C325.613,352.476 337.827,345.816 341.629,335.974C338.124,337.942 334.619,339.938 331.087,341.852C327.555,343.793 323.969,345.681 320.086,347.73C320.463,342.364 321.138,338.455 320.868,334.599C320.302,325.512 324.885,319.662 332.165,315.428C337.072,312.597 341.818,309.739 343.355,303.753C343.544,303.133 343.49,302.459 343.571,301.353C336.291,306.907 329.362,312.192 322.567,317.369C320.41,310.413 325.075,296.715 331.788,292.347C338.448,288.033 344.137,283.072 346.051,275.01C346.752,272.098 347.156,269.078 347.884,264.926C349.744,269.564 351.47,272.88 352.36,276.412C353.897,282.533 358.076,286.55 362.876,289.624C371.855,295.421 373.877,304.049 374.632,315.104C367.136,310.143 360.557,305.775 353.277,300.948C354.005,308.498 358.858,311.598 364.008,314.052C369.697,316.748 373.014,321.224 374.685,326.886C376.384,332.602 377.354,338.534 378.891,345.76C374.469,344.493 370.128,343.792 366.38,341.958C362.686,340.125 359.612,337.105 355.945,334.381C355.729,342.659 361.257,349.696 368.914,350.586C377.596,351.53 387.357,349.265 390.943,333.384C388.543,334.975 386.548,336.431 384.391,337.644C382.423,338.776 380.751,338.884 380.077,335.945C378.972,330.714 377.381,325.591 376.41,320.333C376.248,319.335 377.866,317.61 379.052,316.855C381.506,315.264 384.418,314.374 386.844,312.73C390.214,310.384 392.344,307.176 392.048,303.104C387.707,306.043 383.312,309.036 378.567,312.244C375.574,301.944 376.68,297.064 384.229,292.507C391.374,288.166 394.205,281.776 396.174,273.957C396.417,282.774 401.324,288.814 407.66,293.02C414.347,297.442 416.72,303.913 419.173,310.6C419.793,312.326 419.712,314.348 419.901,315.696C413.7,311.705 407.552,307.796 400.784,303.482C400.703,308.686 403.588,311.355 406.959,312.811C414.563,316.181 418.661,321.574 419.659,329.879C420.09,333.33 422.194,336.566 423.542,339.909C417.988,343.198 414.024,341.796 402.538,332.332C402.754,340.124 406.798,343.98 414.86,344.816C426.589,346.002 436.215,342.74 443.252,332.925C444.304,331.442 445.679,330.256 447.135,328.719C452.339,337.131 458.864,343.468 469.245,342.659C479.302,341.877 484.803,333.653 491.57,327.155C493.35,331.658 496.154,331.658 499.902,330.175C511.119,325.726 519.908,319.363 524.465,307.337C527.997,297.981 536.005,292.507 545.927,290.35C548.003,289.892 550.079,289.514 552.749,288.948C548.462,274.496 553.477,262.201 561.485,250.742C566.743,243.273 573.996,238.312 583.433,235.265C581.087,233.351 579.2,231.571 577.124,230.142C562.348,220.085 546.413,213.101 528.429,210.998C510.256,208.841 492.191,206.199 474.018,204.149C460.617,202.612 447.217,200.752 433.789,200.698C421.063,200.671 408.336,202.505 395.663,203.987C384.339,205.281 372.96,206.737 361.771,208.948C338.718,213.37 317.066,221.782 296.709,233.511C295.765,234.023 294.741,234.374 294.956,234.266C326.125,203.151 358.049,171.173 390.405,138.844C399.707,145.612 411.706,146.609 423.893,145.288C436.862,143.886 448.294,138.439 457.057,128.652C470.889,113.175 472.345,86.078 458.783,68.686C484.452,39.404 523.602,34.632 553.072,57.2C555.822,59.33 558.357,61.703 560.81,64.129C611.338,114.631 661.867,165.186 712.395,215.688C713.312,216.605 714.175,217.629 715.523,219.058C696.865,234.67 675.213,242.974 653.05,247.881C656.043,254.784 660.249,261.713 662.029,269.263C663.809,277.082 662.164,285.252 657.904,292.505C666.451,298.949 668.393,305.151 665.157,315.666C663,322.676 664.402,326.128 670.091,330.576C682.143,339.986 694.223,334.809 698.807,322.595C699.319,321.193 699.859,319.872 700.479,318.308C702.474,325.13 712.558,333.003 719.946,333.866C732.133,335.268 735.584,325.966 740.006,317.257C743.592,325.723 748.607,332.545 758.26,332.707C767.616,332.896 774.006,327.692 778.132,317.338C780.532,325.643 786.194,328.716 792.099,331.52C799.837,335.214 807.791,332.518 812.294,324.591C812.806,323.701 813.184,322.811 813.642,321.949C814.127,321.086 814.64,320.277 814.828,319.954C863.739,368.865 912.622,417.802 961.641,466.821C955.628,464.206 949.454,461.482 943.252,458.759C907.85,443.147 872.447,427.401 836.937,411.951C832.65,410.118 827.743,409.632 823.132,408.5C821.218,408.015 819.33,407.502 817.47,406.936C808.357,403.97 799.378,400.222 790.076,398.173C773.952,394.668 757.613,392.106 741.354,389.41C736.015,388.52 730.569,388.439 724.826,388.655C733.751,397.364 746.396,401.328 753.784,411.789C761.01,422.062 768.209,432.308 775.354,442.446C799.081,421.064 847.345,427.94 854.841,473.993C870.345,464.044 886.63,457.95 904.911,465.392C923.246,472.915 931.496,487.394 932.09,506.457C938.858,504.92 945.437,502.493 952.096,502.17C960.697,501.739 969.379,502.898 977.953,503.707C978.951,503.788 980.434,505.945 980.514,507.212C980.811,512.038 980.649,516.919 980.649,522.149C958.836,513.278 938.533,519.857 927.37,539.891C918.203,556.284 910.518,573.541 901.809,590.231C889.811,613.096 877.192,635.664 860.07,655.185C851.927,664.46 842.841,672.9 833.97,681.474C824.129,690.965 814.071,700.267 804.014,709.542C793.849,718.925 784.223,729.09 773.195,737.341C759.066,747.883 743.725,756.835 728.949,766.488C720.914,771.773 712.313,775.736 702.93,777.785C701.851,778.001 700.746,778.216 699.694,778.432L699.697,778.427Z" style="fill:rgb(69,28,21);fill-rule:nonzero;"/>
    </g>
</svg>
