<?xml version="1.0" encoding="UTF-8" standalone="no"?>
<!DOCTYPE svg PUBLIC "-//W3C//DTD SVG 1.1//EN" "http://www.w3.org/Graphics/SVG/1.1/DTD/svg11.dtd">
<svg width="100%" height="100%" viewBox="0 0 60 60" version="1.1" xmlns="http://www.w3.org/2000/svg" xmlns:xlink="http://www.w3.org/1999/xlink" xml:space="preserve" xmlns:serif="http://www.serif.com/" style="fill-rule:evenodd;clip-rule:evenodd;stroke-linejoin:round;stroke-miterlimit:2;">
    <g transform="matrix(1,0,0,1,-1.5,-1.5)">
        <ellipse cx="37.5" cy="7" rx="3.5" ry="4" style="fill:rgb(232,203,158);"/>
    </g>
    <g transform="matrix(1,0,0,1,-12.5,45.5)">
        <ellipse cx="37.5" cy="7" rx="3.5" ry="4" style="fill:rgb(232,203,158);"/>
    </g>
    <g transform="matrix(0.058594,0,0,0.058594,0,0)">
        <path d="M511.96,1009.647C486.288,1009.647 462.174,999.658 444.021,981.532L42.429,579.94C4.995,542.48 4.995,481.522 42.429,444.116L444.048,42.497C462.201,24.344 486.288,14.355 511.96,14.355C537.605,14.355 561.692,24.344 579.845,42.497L981.464,444.116C999.617,462.242 1009.579,486.356 1009.579,512.028C1009.579,537.673 999.616,561.787 981.464,579.94L579.872,981.532C561.719,999.658 537.605,1009.647 511.96,1009.647Z" style="fill:rgb(232,203,158);fill-rule:nonzero;"/>
    </g>
    <g transform="matrix(0.058594,0,0,0.058594,0,0)">
        <path d="M511.919,14.436C487.304,14.435 462.71,23.798 444.025,42.483L42.444,444.104C5.055,481.493 5.055,542.503 42.444,579.892L444.025,981.513C462.722,1000.194 487.346,1009.559 511.958,1009.56C536.57,1009.561 561.143,1000.191 579.852,981.513L981.473,579.892C1018.833,542.501 1018.833,481.495 981.473,444.104L579.852,42.483C561.155,23.802 536.533,14.437 511.919,14.436Z" style="fill:rgb(232,203,158);fill-rule:nonzero;"/>
    </g>
    <g transform="matrix(0.058594,0,0,0.058594,0,0)">
        <path d="M356.334,228.209C345.899,227.751 336.057,227.13 326.215,227.023C325.002,227.023 323.033,229.423 322.71,230.96C322.063,233.953 322.225,237.162 322.198,240.263C322.171,249.566 322.198,258.841 322.198,269.169C333.873,255.148 344.929,241.881 356.335,228.211L356.334,228.209ZM451.599,164.439L451.599,156.889C451.599,146.831 451.842,136.774 451.41,126.689C451.356,124.775 448.741,122.941 447.284,121.08C446.071,122.752 444.507,124.262 443.779,126.149C443.186,127.551 443.617,129.412 443.617,131.056L443.617,164.222C440.732,164.357 438.467,164.492 434.746,164.653C434.746,169.938 434.53,175.142 434.908,180.292C434.962,181.398 437.065,183.15 438.279,183.204C444.049,183.528 449.847,183.285 455.617,183.393C458.34,183.447 459.554,182.449 459.527,179.645C459.5,175.708 459.985,171.718 459.662,167.808C459.581,166.622 457.855,165.139 456.507,164.545C455.321,164.006 453.649,164.437 451.6,164.437L451.599,164.439ZM500.485,183.961C500.485,172.879 500.458,162.093 500.512,151.281C500.539,147.749 499.46,144.405 495.658,145.052C494.148,145.295 492.854,149.447 492.287,152.036C491.775,154.247 492.368,156.755 492.503,159.208L477.322,159.208C477.322,155.19 477.753,151.388 477.133,147.748C476.836,145.941 474.652,144.431 473.304,142.76C472.037,144.189 469.664,145.564 469.637,146.993C469.367,159.289 469.475,171.611 469.475,184.042L476.917,184.042C477.214,182.37 477.483,180.833 477.726,179.485L491.855,179.485C492.098,181.157 492.259,182.532 492.448,183.961L500.485,183.961ZM457.531,421.461C466.726,409.813 476.136,397.867 485.843,385.545L429.138,385.545C438.602,397.49 447.905,409.273 457.531,421.461ZM661.11,88.481L561.774,88.481L561.774,98.727L662.026,98.727C661.702,95.114 661.406,91.905 661.109,88.481L661.11,88.481ZM347.76,385.464C355.957,398.272 364.154,411.08 372.486,424.131C382.732,410.999 392.466,398.542 402.713,385.464L347.76,385.464ZM333.28,659.715C321.335,639.654 309.498,619.754 297.66,599.801C297.363,599.855 297.094,599.855 296.797,599.855L296.797,659.715L333.28,659.715ZM323.007,385.949C323.007,398.865 322.926,411.888 323.169,424.858C323.196,426.233 325.03,428.633 326.189,428.741C338.404,429.847 350.618,430.602 364.02,431.518C362.483,428.525 361.755,426.745 360.757,425.128C354.367,414.855 347.518,404.851 341.612,394.281C337.46,386.785 332.282,383.172 323.007,385.949ZM660.409,82.091C654.8,50.246 633.849,29.457 592.756,40.512C576.901,44.772 559.698,68.339 563.176,83.034C571.912,83.007 571.912,83.007 574.339,75.214C575.067,72.868 575.579,70.441 576.604,68.284C581.323,58.496 586.689,49.409 598.93,47.899C601.357,47.602 603.784,47.279 606.21,46.955C621.391,44.96 635.25,48.519 643.771,62.432C647.276,68.148 648.247,75.429 650.377,82.089L660.409,82.091ZM447.985,430.628C440.92,413.856 425.578,404.796 417.03,390.586C404.815,404.23 393.194,417.2 381.222,430.628L447.985,430.628ZM606.022,248.783C606.022,248.756 606.103,247.974 606.103,247.192C606.13,225.405 606.13,203.672 606.13,181.885C606.13,177.436 606.454,172.96 605.968,168.619C605.186,161.851 597.663,156.782 590.356,157.51C585.233,157.995 582.267,162.444 582.267,169.617C582.24,187.899 582.213,206.234 582.348,224.516C582.375,226.188 583.427,228.264 584.667,229.423C591.678,236.029 598.904,242.366 606.023,248.783L606.022,248.783ZM289.167,559.004C306.02,607.135 332.04,649.576 367.794,687.029C368.441,683.632 369.115,681.447 369.25,679.209C369.412,676.971 369.654,674.409 368.738,672.522C366.257,667.615 363.534,662.707 360.244,658.285C345.629,638.601 335.68,616.275 323.977,594.973C318.584,585.185 315.241,574.319 310.819,563.991C310.28,562.67 309.093,560.755 308.015,560.62C301.867,559.838 295.692,559.514 289.167,559.002L289.167,559.004ZM367.848,702.912C368.36,697.519 367.524,693.124 363.291,689.403C359.381,685.979 356.226,681.718 352.559,677.943C346.762,671.93 340.991,667.023 331.203,667.885C319.824,668.937 308.23,667.561 296.716,667.642C295.152,667.642 292.644,669.341 292.186,670.77C289.57,679.102 288.384,687.623 290.892,696.305C292.24,700.97 295.018,703.262 300.141,703.208C321.227,703.046 342.313,703.154 363.426,703.154C364.882,703.154 366.311,702.992 367.848,702.911L367.848,702.912ZM306.424,553.746C306.02,551.265 305.966,550.429 305.75,549.647C300.411,532.363 295.477,514.944 289.518,497.876C283.694,480.996 280.997,463.874 282.373,446.159C282.643,442.869 281.591,442.033 278.571,441.629C269.969,440.47 262.932,443.786 257.269,449.556C254.788,452.091 252.658,456.405 252.793,459.829C253.117,467.918 254.168,476.196 256.325,484.043C258.536,492.159 262.311,499.898 265.574,507.717C270.401,519.365 275.308,530.987 280.35,542.501C281.294,544.658 282.858,547.489 284.772,548.11C291.486,550.348 298.497,551.75 306.424,553.745L306.424,553.746ZM306.99,442.358C299.871,439.931 288.951,445.297 288.304,451.58C287.819,456.622 287.414,462.015 288.574,466.842C294.129,489.6 299.494,512.438 306.343,534.818C315.106,563.535 326.62,591.281 341.208,617.571C349.756,632.994 359.247,647.852 368.604,663.383C369.224,662.251 369.494,661.981 369.494,661.711C369.494,642.432 369.494,623.098 369.413,603.765C369.413,603.037 368.766,602.282 368.307,601.635C361.89,592.494 355.634,583.245 349.028,574.293C331.286,550.079 317.022,524.005 306.937,495.747C303.782,486.849 301.302,477.627 299.36,468.351C297.365,458.752 302.461,450.716 306.991,442.358L306.99,442.358ZM483.308,772.263C483.308,755.383 483.362,739.043 483.227,722.757C483.2,721.22 482.041,719.413 480.881,718.281C469.179,706.74 457.368,695.362 445.558,683.902C440.462,678.968 435.285,674.006 430.108,669.018L430.108,772.263L483.308,772.263ZM613.788,385.221C608.584,385.221 603.703,385.194 598.823,385.221C594.617,385.248 592.271,383.118 591.111,379.127C590.005,375.217 588.792,371.28 587.228,367.505C582.294,355.722 571.4,342.482 554.79,343.615C550.53,343.912 545.595,342.483 542.09,344.154C530.415,349.682 522.433,358.93 519.979,371.9C517.768,383.737 518.118,383.818 506.012,384.519C503.343,384.708 500.619,384.061 498.624,387.081C488.971,401.642 479.129,416.067 469.449,430.385L532.68,430.385C531.601,428.363 530.172,426.799 530.091,425.127C529.875,421.837 530.711,418.494 530.657,415.204C530.495,404.499 529.578,393.768 529.956,383.09C530.253,375.378 531.331,367.1 538.611,362.328C542.548,359.712 547.293,358.041 551.904,356.827C559.912,354.778 572.558,360.494 575.228,367.828C577.682,374.65 579.407,381.984 580.109,389.211C581.43,402.909 581.781,416.687 582.563,431.167C591.92,430.466 600.683,429.603 609.5,429.145C612.844,428.983 613.733,427.096 613.76,424.48C613.814,411.807 613.787,399.134 613.787,385.22L613.788,385.221ZM367.848,711.325L295.989,711.325C295.989,717.392 295.773,723.135 296.043,728.879C296.286,733.921 296.151,739.179 297.661,743.898C302.784,760.211 312.923,773.208 326.486,783.4C332.472,787.903 339.051,791.516 347.114,791.435C350.835,791.381 354.556,792.541 358.304,792.864C361.297,793.08 364.344,792.891 367.849,792.891L367.848,711.325ZM585.664,823.684C568.245,811.227 550.799,799.443 536.778,783.508C522.999,767.842 509.463,752.014 495.981,736.456C496.898,764.984 491.505,794.24 496.871,823.496C497.464,826.705 498.435,828.889 500.646,830.992C506.389,836.385 511.944,842.074 517.795,847.359C527.125,855.745 536.697,863.915 546.431,872.436C560.587,856.15 576.82,843.072 585.664,823.685L585.664,823.684ZM600.926,543.958C595.237,548.758 588.9,553.072 583.912,558.6C572.452,571.273 561.64,584.512 550.665,597.671C549.991,598.507 550.045,600.799 550.692,601.77C553.281,605.572 556.301,609.104 559.024,612.798C573.585,632.617 589.413,651.033 608.503,666.942C625.167,680.802 640.671,695.928 659.222,707.442C667.015,712.296 674.915,716.529 683.948,718.848C640.482,668.209 618.506,607.621 600.926,543.959L600.926,543.958ZM422.1,780.649C422.019,779.274 421.884,778.276 421.884,777.332C421.857,741.712 421.668,706.093 421.938,670.446C421.992,663.948 421.453,658.582 415.251,655.023C413.633,654.079 412.528,652.192 411.206,650.709C402.874,641.272 396.187,630.27 385.347,623.152C381.006,620.294 379.604,620.402 379.307,625.498C378.741,634.153 378.714,642.836 378.687,651.464C378.66,694.526 378.687,737.56 378.687,780.595L378.687,797.96L483.038,797.96L483.038,780.649L422.1,780.649ZM378.229,806.265L378.229,812.089C378.229,836.707 378.66,861.271 378.094,885.863C377.663,904.522 381.653,921.968 389.095,938.82C394.191,950.361 402.685,958.477 414.711,962.521C424.499,965.811 434.395,965.083 444.318,963.06C452.353,961.415 460.2,959.555 466.321,953.326C477.565,941.839 481.205,927.306 482.095,912.125C483.147,894.437 482.985,876.667 483.227,858.898C483.254,856.633 482.58,854.368 482.526,852.103C482.418,841.695 482.31,831.314 482.445,820.933C482.499,816.106 483.2,811.307 483.631,806.265L378.229,806.265ZM543.735,592.656C544.814,591.47 545.542,590.849 546.108,590.067C561.1,570.41 576.47,551.185 596.747,536.516C597.879,535.707 598.958,533.847 598.85,532.552C598.392,527.671 597.394,522.818 596.666,517.964C593.053,494.424 588.442,471.046 589.224,447.075C589.278,445.349 589.224,443.597 589.224,441.682L546.432,441.682C525.67,441.682 504.853,441.682 484.091,441.709C477.674,441.709 468.991,446.212 468.883,450.553C468.748,457.86 469.045,465.41 470.932,472.367C472.819,479.135 476.837,485.364 480.154,491.754C486.329,503.672 492.126,515.833 499.056,527.32C506.714,539.966 515.396,551.992 523.755,564.18C530.253,573.671 536.94,583.028 543.735,592.654L543.735,592.656ZM492.53,544.444C488,536.84 483.982,530.504 480.369,523.924C474.599,513.462 469.637,502.541 463.328,492.457C454.834,478.84 451.841,464.495 454.538,448.775C455.67,441.98 455.239,441.71 448.309,441.71C419.727,441.683 391.199,441.521 362.671,441.764C351.67,441.872 340.668,443.166 329.667,443.382C321.928,443.49 317.237,447.076 314.972,454.141C311.763,464.091 311.655,474.067 315.188,483.99C316.24,486.902 316.779,490.003 317.911,492.861C321.443,501.705 322.441,511.709 334.413,515.241C349.351,519.582 363.453,526.836 378.418,530.961C394.354,535.329 410.856,537.945 427.223,540.614C440.894,542.852 454.699,544.497 468.532,545.495C476.325,546.061 484.279,544.902 492.53,544.443L492.53,544.444ZM628.159,386.138L628.159,427.744L662.889,427.744L662.889,104.013C653.398,104.013 644.661,104.444 635.979,103.878C629.912,103.474 626.272,105.226 624.816,111.158C624.034,114.232 622.012,115.068 618.938,114.906C613.68,114.663 608.368,114.636 603.083,114.933C599.766,115.095 597.717,114.124 596.908,110.834C595.506,105.118 591.92,102.907 586.122,103.985C584.855,104.228 583.506,104.012 582.185,104.012L560.452,104.012C560.452,106.601 560.452,108.407 560.479,110.187C560.803,142.463 561.126,174.766 561.45,207.069C561.45,208.04 561.288,209.118 561.639,210.008C562.124,211.329 562.745,212.947 563.796,213.702C567.517,216.344 571.454,218.69 575.498,221.252C575.498,205.316 575.39,189.461 575.579,173.66C575.633,167.458 575.633,160.582 580.513,156.268C585.609,151.684 592.728,149.527 599.199,152.655C606.587,156.268 612.924,161.499 613.005,171.26C613.248,199.411 613.706,227.615 614.218,255.792C614.245,257.949 615.081,260.295 616.159,262.209C621.552,271.889 628.913,280.329 632.985,290.953C638.755,306.107 642.962,321.503 643.798,337.682C644.607,353.672 645.011,369.688 645.605,386.136L628.159,386.138ZM359.705,872.893C359.975,872.839 360.217,872.758 360.487,872.704C360.487,870.25 360.163,867.716 360.541,865.316C361.431,859.492 358.869,855.636 354.852,851.618C258.482,755.464 162.221,659.175 65.932,562.913C63.586,560.567 61.24,558.275 59.137,555.741C47.03,541.261 41.664,524.624 43.363,505.777C44.9,488.79 52.288,474.768 64.287,462.769C192.69,334.447 321.066,206.044 449.415,77.695C454.781,72.329 460.066,66.855 465.566,61.651C489.51,38.974 525.076,36.736 551.797,56.069C553.037,57.013 554.359,57.795 555.949,58.819C556.974,48.357 560.344,39.782 569.134,33.527C567.166,32.125 565.656,30.992 564.038,29.941C526.019,5.431 476.513,10.419 444.075,42.776C310.225,176.41 176.483,310.098 42.876,443.975C4.398,482.534 4.884,542.124 43.442,580.683C148.063,685.412 252.764,790.059 357.466,894.734C358.545,895.84 359.731,896.837 361.349,898.32C360.217,888.37 359.219,879.202 358.167,870.008C358.518,869.981 358.868,869.954 359.192,869.9C359.354,870.925 359.543,871.895 359.704,872.893L359.705,872.893ZM630.344,374.57C632.312,350.949 628.78,328.704 623.954,306.809C618.912,284.159 605.16,265.985 588.847,250.292C576.255,238.212 561.991,227.831 548.266,216.937C540.959,211.113 533.004,206.017 529.256,196.876C528.07,193.937 525.885,192.858 522.596,193.074C516.044,193.478 509.438,193.559 502.858,193.559C473.305,193.478 443.807,193.343 414.254,193.074C411.342,193.074 409.104,193.478 407.864,196.391C403.604,206.233 395.11,211.761 386.94,217.908C374.617,227.13 362.457,236.702 350.97,246.921C345.2,252.098 340.724,258.866 336.409,265.391C329.479,275.826 321.633,286.045 316.968,297.505C309.823,315.086 307.072,334.041 306.182,353.051C305.831,360.412 306.101,367.773 306.101,374.595L509.087,374.595C509.491,372.573 509.734,371.305 510.004,370.038C511.945,360.52 516.691,352.134 522.65,344.934C534.433,330.643 550.747,331.317 567.087,333.555C574.502,334.553 579.571,339.703 584.883,344.341C592.81,351.244 599.713,358.74 601.816,369.525C602.167,371.412 602.571,373.246 602.868,374.567L630.344,374.57ZM882.161,539.213C879.357,534.845 876.633,530.719 874.018,526.54C862.127,507.638 855.089,486.552 848.132,465.628C843.764,452.416 828.098,441.522 813.968,441.576C746.126,441.819 678.312,441.684 610.497,441.684C609.338,441.684 608.205,441.576 607.046,441.711C600.844,442.304 598.822,444.246 599.146,450.42C599.955,466.005 601.222,481.537 602.004,497.122C602.975,516.293 607.747,534.845 611.253,553.612C616.457,581.547 626.838,607.702 639.646,632.967C645.389,644.292 650.89,655.779 656.418,667.05C672.003,665.459 686.159,660.713 699.534,653.811C734.506,635.745 769.587,617.922 804.101,598.966C832.953,583.138 859.512,563.913 882.162,539.214L882.161,539.213ZM739.926,781.323C725.716,767.14 711.964,753.442 698.24,739.771C697.782,739.34 697.215,738.827 696.703,738.773C685.998,737.91 676.938,732.814 667.69,727.96C649.489,718.361 632.664,706.793 616.944,693.608C610.149,687.919 604.217,681.151 597.206,675.704C582.403,664.19 569.163,651.14 557.785,636.39C547.323,622.881 537.939,608.617 528.151,594.623C519.118,581.68 509.977,568.764 501.376,555.552C498.895,551.723 496.495,551.373 492.532,551.993C486.088,552.964 479.508,553.773 473.037,553.476C465.73,553.206 458.449,551.535 451.115,550.618C436.824,548.919 422.398,547.814 408.134,545.576C383.893,541.774 360.138,535.815 337.893,524.948C335.412,523.708 332.743,522.818 329.103,521.308C330.532,523.95 331.152,525.487 332.069,526.809C341.453,540.669 350.944,554.501 360.246,568.388C373.836,588.638 388.612,607.863 406.274,624.797C417.329,635.394 427.71,646.665 438.253,657.747C446.315,666.214 453.973,675.085 462.197,683.39C471.203,692.531 479.805,702.319 490.024,709.896C506.58,722.165 520.655,736.51 533.814,752.203C544.654,765.2 555.601,778.574 568.598,789.225C593.594,809.745 619.776,828.916 648.87,843.558C654.937,846.632 660.734,850.272 666.747,853.696C662.298,858.145 658.226,862.163 653.481,866.881C633.123,854.612 612.523,842.209 591.868,829.751C582.97,848.41 567.331,862.081 551.53,877.585C569.353,890.528 586.88,903.309 604.541,916.144C604.056,916.683 602.95,917.87 601.818,919.029C588.417,932.457 574.989,945.885 561.561,959.313C538.372,982.394 509.52,987.194 479.968,973.011C478.674,972.391 476.705,972.687 475.195,973.092C468.616,974.764 462.09,976.759 455.511,978.377C451.736,979.267 447.88,979.698 443.134,980.507C445.857,983.015 447.61,984.74 449.471,986.331C488.919,1019.389 544.25,1016.908 580.813,980.372C713.854,847.358 846.895,714.344 979.908,581.303C1019.464,541.72 1019.545,482.426 979.935,442.762C880.114,342.833 780.185,243.012 680.256,143.137C679.285,142.166 678.18,141.303 676.427,139.766C676.427,151.522 676.643,162.389 676.292,173.201C676.184,177.731 677.532,180.832 680.714,184.014C773.309,276.474 865.849,369.042 958.363,461.582C960.709,463.874 963.109,466.22 965.212,468.727C971.576,476.385 976.294,484.878 978.937,496.608C973.167,494.855 968.745,493.076 964.188,492.294C956.476,490.946 948.657,489.544 940.837,489.355C920.964,488.951 901.011,489.139 881.139,489.274C873.427,489.301 871.189,493.346 875.18,500.141C881.678,511.304 888.446,522.305 895.053,533.415C896.293,535.491 897.021,537.837 898.37,539.779C908.05,553.692 917.811,567.498 927.572,581.331C933.046,589.124 933.046,589.124 924.903,595.379C909.533,581.385 895.566,566.285 886.938,546.763C886.129,547.464 885.482,547.949 884.916,548.516C862.832,571.948 836.92,590.472 808.904,605.95C780.565,621.643 751.659,636.365 723.077,651.573C703.447,662.008 683.548,671.634 660.79,674.789C685.921,711.164 711.752,746.406 744.352,776.282C743.166,777.603 741.898,779.059 739.93,781.324L739.926,781.323ZM676.425,95.249C676.425,101.693 676.155,108.138 676.56,114.555C676.668,116.901 677.746,119.705 679.364,121.35C692.63,134.913 706.112,148.287 719.54,161.688C809.519,251.667 899.444,341.673 989.504,431.572C1013.853,455.894 1025.771,485.069 1023.694,519.421C1022.022,547.14 1010.886,570.976 991.229,590.633C892.513,689.375 793.771,788.091 695.055,886.834C660.865,921.024 626.566,955.107 592.511,989.405C568.243,1013.888 539.095,1025.78 504.716,1023.784C478.399,1022.247 455.129,1012.486 436.497,993.908C427.464,984.956 417.406,979.779 405.785,975.249C382.919,966.405 367.442,950.226 363.397,924.853C363.02,922.372 361.563,919.676 359.784,917.869C251.442,809.392 143.074,700.916 34.57,592.601C10.194,568.252 -1.805,539.185 0.218,504.833C1.863,476.736 13.323,452.738 33.249,432.812C85.425,380.663 137.6,328.488 189.749,276.312C270.749,195.339 351.722,114.366 432.722,33.393C456.99,9.152 486.381,-1.957 520.49,0.281C542.601,1.764 562.5,9.611 579.892,23.416C582.642,25.6 584.53,25.492 587.712,24.333C598.713,20.234 610.038,18.266 621.822,20.774C625.462,21.556 629.318,21.556 632.877,22.5C641.721,24.846 648.732,29.969 654.853,36.737C663.697,46.498 673.081,56.043 675.265,69.687C676.586,78.1 676.424,86.728 676.91,95.222C676.748,95.222 676.586,95.249 676.425,95.249Z" style="fill:rgb(69,28,21);fill-rule:nonzero;"/>
    </g>
    <g transform="matrix(0.058594,0,0,0.058594,0,0)">
        <path d="M442.893,263.262C437.581,265.985 431.379,269.14 424.746,272.538C424.584,272.376 423.991,271.352 423.101,270.785C417.573,267.253 416.818,262.049 417.87,256.17C420.539,241.313 428.143,231.093 443.243,226.402C454.163,222.951 465.03,221.279 476.031,224.002C487.626,226.887 499.139,230.932 505.826,241.933C509.682,248.27 513.43,254.984 509.763,262.938C508.415,265.877 506.959,265.742 504.37,264.367C500.703,262.426 496.739,260.862 492.802,259.513C490.294,258.677 488.757,257.652 488.029,254.74C486.195,247.19 483.068,240.503 476.111,235.757C463.708,227.317 442.379,235.11 440.033,249.859C439.359,254.038 441.813,258.703 442.891,263.26L442.893,263.262Z" style="fill:rgb(69,28,21);fill-rule:nonzero;"/>
    </g>
    <g transform="matrix(0.058594,0,0,0.058594,0,0)">
        <path d="M477.288,924.869C476.075,928.24 475.481,930.774 474.322,933.066C467.15,947.195 456.283,955.446 439.862,956.821C429.481,957.738 419.774,957.522 410.876,951.806C397.691,943.339 390.41,930.963 388.28,915.62C387.201,907.827 386.446,899.954 386.312,892.107C385.881,869.916 385.8,847.67 385.638,825.452C385.638,824.4 386.258,823.295 386.582,822.216L398.069,822.216L398.069,827.717C398.042,850.151 398.015,872.558 398.015,895.019C397.988,906.937 399.714,918.424 405.268,929.183C409.771,937.973 417.806,941.155 426.651,942.692C436.52,944.391 445.822,941.533 454.694,937.623C457.067,936.544 459.251,934.118 460.464,931.772C462.756,927.377 466.099,925.84 470.737,925.867C472.463,925.921 474.242,925.355 477.289,924.869L477.288,924.869Z" style="fill:rgb(69,28,21);fill-rule:nonzero;"/>
    </g>
    <g transform="matrix(0.058594,0,0,0.058594,0,0)">
        <path d="M452.581,909.912C454.603,924.877 440.339,933.128 424.296,929.65C414.346,927.493 412.162,919.08 411.353,909.616C411.164,907.378 411.784,905.059 412,902.794C413.294,888.26 430.578,883.218 439.665,886.885C447.323,889.986 452.716,899.639 452.581,909.912Z" style="fill:rgb(69,28,21);fill-rule:nonzero;"/>
    </g>
    <g transform="matrix(0.058594,0,0,0.058594,0,0)">
        <rect x="477.552" y="165.431" width="14.372" height="7.658" style="fill:rgb(69,28,21);fill-rule:nonzero;"/>
    </g>
</svg>
