<?xml version="1.0" encoding="UTF-8" standalone="no"?>
<!DOCTYPE svg PUBLIC "-//W3C//DTD SVG 1.1//EN" "http://www.w3.org/Graphics/SVG/1.1/DTD/svg11.dtd">
<svg width="100%" height="100%" viewBox="0 0 122 126" version="1.1" xmlns="http://www.w3.org/2000/svg" xmlns:xlink="http://www.w3.org/1999/xlink" xml:space="preserve" xmlns:serif="http://www.serif.com/" style="fill-rule:evenodd;clip-rule:evenodd;stroke-linejoin:round;stroke-miterlimit:2;">
    <g transform="matrix(1.137961,0,0,1.180765,-77.381376,-79.111287)">
        <circle cx="121.341" cy="120.341" r="53.341" style="fill:rgb(237,212,173);"/>
    </g>
    <g transform="matrix(0.110484,0,0,0.110484,5.988237,6.416022)">
        <path d="M446.015,926.654L407.384,925.537L392.317,970.094C471.279,987.611 556.359,985.377 633.169,958.69C639.4,956.574 686.131,938.881 686.641,935.941L685.451,927.829L675.312,926.653L535.74,926.653C529.906,927.829 532.908,933.648 531.775,937.116C531.265,938.644 528.943,938.468 528.66,939.702C528.263,941.465 529.283,943.64 528.15,945.58C527.753,946.285 517.331,956.102 516.368,956.749C514.385,958.219 495.353,968.211 493.484,968.682C483.515,971.21 464.539,964.391 457.288,956.749C451.454,950.636 444.203,935.411 446.016,926.653L446.015,926.654ZM356.857,960.042C360.765,960.395 370.622,966.332 373.51,963.451C373.907,963.04 378.778,954.046 378.948,953.458C382.063,943.054 383.593,935.118 387.445,924.42C389.201,919.6 390.56,914.721 392.316,909.96C386.482,911.665 385.915,917.425 381.78,920.658L356.857,960.042ZM745.607,837.541C742.435,837.835 742.492,840.363 738.696,840.892C726.914,842.479 711.054,838.835 698.932,838.482L665.115,841.95L680.069,857.057C688.736,868.578 696.326,878.512 702.727,891.503C707.202,900.614 710.657,912.253 712.357,922.187L741.246,904.846C767.982,886.212 792.226,864.463 815.45,841.362C809.049,839.187 799.703,842.42 793.642,840.892C792.396,840.539 792.283,837.777 791.263,837.483C789.96,837.13 788.261,840.422 784.919,840.892C780.897,841.421 748.27,841.362 746.684,840.304C745.948,839.834 745.778,838.364 745.608,837.541L745.607,837.541ZM641.155,856.763C639.739,855.235 619.857,843.89 617.251,843.126C579.299,831.957 551.657,832.722 512.969,838.482C506.851,839.364 500.79,838.482 494.106,840.01C475.527,844.36 447.205,864.169 433.497,876.866C430.212,879.981 422.961,888.857 420.525,892.972C417.636,897.851 415.257,904.67 412.708,909.901L681.202,908.784C679.503,902.318 674.518,898.144 671.063,893.148C661.83,879.628 651.917,868.577 641.155,856.762L641.155,856.763ZM848.7,800.743C843.602,798.686 840.883,804.152 837.484,804.152C834.992,804.211 833.179,802.153 830.97,801.918C818.168,800.331 802.365,802.036 789.11,801.859C729.747,801.271 670.327,802.212 610.907,800.683C599.068,800.389 587.286,801.212 575.504,799.507L571.652,811.851C584.397,812.204 598.671,811.44 609.774,818.552L610.85,816.318C611.7,817.376 612.719,818.317 614.135,818.552C616.061,818.846 629.825,818.317 630.562,818.787C630.902,818.963 631.128,820.668 631.808,821.256C635.263,823.96 648.065,826.017 652.766,826.311C705.219,830.191 758.521,823.019 810.577,829.72C815.052,830.308 822.076,829.955 826.211,828.015C829.893,826.252 843.827,808.617 847.113,804.091C847.963,802.974 849.209,802.68 848.699,800.74L848.7,800.743ZM274.157,724.915L253.425,727.501C236.998,738.199 223.46,752.836 208.053,764.886C201.369,770.176 198.14,774.174 192.193,779.111C179.618,789.633 166.307,798.215 154.411,810.677C152.825,812.382 148.973,815.203 150.106,817.437C150.559,818.378 157.413,826.078 158.206,825.843L184.206,803.741C198.65,797.275 209.526,781.698 221.025,770.647C233.034,759.126 245.495,748.663 258.127,738.964C262.715,735.437 269.286,732.38 272.968,727.384C273.251,726.973 275.007,727.443 274.158,724.915L274.157,724.915ZM127.901,668.954C126.202,670.482 120.651,669.953 118.215,670.6C116.629,671.011 114.703,673.48 113.627,673.422C112.834,673.363 111.475,671.13 110.285,670.483C97.37,663.664 96.124,648.263 86.834,636.86C83.379,632.686 77.204,628.043 72.333,631.864C73.013,632.569 73.976,633.392 74.146,634.392C76.355,644.855 82.586,653.555 87.797,662.607C96.35,677.714 84.342,690.117 80.943,704.225L94.311,731.617C94.934,731.617 103.034,723.681 103.487,722.976C107.282,717.215 106.886,708.633 110.511,703.872C118.328,693.35 135.435,683.475 144.837,673.717C152.314,665.958 160.131,652.732 164.039,642.386C164.492,641.269 165.398,638.742 164.096,638.036C161.49,639.447 158.545,644.032 156.789,645.443C148.802,651.733 136.057,658.14 129.147,665.605C128.524,666.252 128.694,668.25 127.901,668.956L127.901,668.954ZM671.517,617.932C665.513,620.812 657.866,618.108 651.861,618.343C648.689,618.519 645.177,619.871 642.005,620.165C638.663,620.459 629.09,619.107 627.391,622.046C625.975,631.098 620.934,639.387 617.875,647.557C604.734,682.356 595.784,717.86 586.947,754.775C584.228,766.061 580.263,776.995 578.11,788.457C593.404,787.693 609.378,789.221 624.842,789.221C676.898,789.397 729.691,788.163 781.633,789.632C789.28,789.867 800.496,788.28 807.463,788.927C809.559,789.162 810.748,791.69 813.807,791.925C818.678,792.219 823.72,788.986 827.742,788.398C833.236,787.634 838.561,789.691 843.942,789.632C848.304,789.632 853.005,787.81 857.65,788.28C858.443,788.045 864.391,780.815 865.297,779.463C889.201,745.605 911.066,696.228 923.924,656.433C926.813,647.557 933.157,629.276 933.61,620.752C933.723,618.401 933.61,619.282 931.967,619.047C916.56,619.106 901.436,618.518 886.425,622.515C886.198,627.159 886.482,632.743 884.952,637.152C881.044,648.203 869.262,653.493 858.839,656.903C846.434,660.959 834.255,661.194 822.36,654.787C811.541,648.968 809.105,630.451 810.068,619.048L747.759,619.048C748.665,628.806 743.454,642.502 736.487,649.144C726.574,658.667 713.829,659.842 700.971,657.138C695.59,655.962 681.939,648.967 678.03,645.205C672.252,639.68 672.762,625.513 671.516,617.93L671.517,617.932ZM940.011,581.193L639.909,583.368L637.7,584.485L633.055,600.709L935.196,601.238C936.612,601.179 937.179,600.709 937.688,599.357C938.311,597.476 940.634,581.84 940.01,581.193L940.011,581.193ZM945.392,503.131C934.8,502.896 924.207,504.365 913.671,504.307C892.429,504.307 870.621,503.073 849.323,503.131C807.633,503.131 765.943,501.191 724.989,511.243C720.174,512.419 696.837,518.767 694.118,520.472C693.098,521.119 692.362,523.587 690.833,524.881C686.698,528.29 676.729,532.346 671.97,535.932C664.04,541.869 654.977,551.862 651.125,561.091L943.24,562.208L945.392,503.131ZM392.317,357.176C391.92,352.297 391.637,338.131 386.426,337.131L281.124,337.19C275.743,333.663 275.29,336.837 270.532,337.19L76.072,337.131C70.861,338.189 69.445,351.65 66.952,356.059C74.429,355.236 83.945,357.176 91.139,356.118C93.745,355.707 95.217,353.826 97.483,353.767C100.598,353.649 107.622,356.295 112.55,356.53C202.671,360.527 296.757,353.708 387.558,356.001C389.371,356.06 390.73,356.354 392.316,357.177L392.317,357.176ZM363.881,258.011C332.557,258.599 301.176,257.541 269.908,258.011C275.176,269.121 270.814,283.699 262.431,292.046C256.427,297.983 255.407,295.573 249.176,297.278C247.647,297.689 246.4,299.629 244.418,300.1C241.869,300.747 226.688,300.805 224.479,300.1C223.006,299.63 222.27,297.631 220.797,297.22C218.701,296.573 216.379,297.455 214.056,296.397C211.62,295.339 203.86,284.935 203.35,281.878C202.953,279.056 203.86,275.882 203.123,273.237C202.67,271.767 200.744,270.945 200.291,269.475C199.441,266.477 201.481,257.719 198.422,257.013C196.949,257.072 195.533,258.071 194.117,258.012C190.548,257.953 185.054,257.189 182.278,257.189C170.383,257.307 158.317,258.776 146.366,257.953C146.649,266.711 146.876,274.823 142.854,282.759C141.098,286.286 136.057,291.047 132.431,292.105C130.505,292.693 129.032,291.517 127.786,291.752C126.257,292.046 124.897,294.221 122.178,294.691C119.006,295.279 104.788,295.338 101.843,294.75C99.634,294.28 99.011,292.634 97.311,291.517L94.819,291.928L77.656,328.196C81.395,329.254 85.699,327.02 88.928,327.079C165.454,328.313 241.528,327.49 316.638,327.373C328.363,327.314 340.315,328.607 352.097,328.255C361.84,327.961 365.975,326.962 375.718,328.137C379.4,328.607 383.252,327.961 386.934,328.196C382.176,304.037 376.568,280.524 367.108,257.952L365.918,256.953C364.955,256.777 364.162,257.952 363.879,258.011L363.881,258.011ZM362.239,232.323L131.867,232.323L119.519,247.959L153.279,246.96C214.342,247.019 277.33,251.192 337.996,245.667C344.284,245.079 355.216,246.078 360.937,247.666C362.127,247.96 363.146,248.136 364.392,247.96L362.239,232.323ZM298.627,203.755L154.467,203.402C150.445,204.225 143.138,216.628 139.966,220.096L354.195,220.096L356.404,219.038C358.896,215.452 352.722,207.987 353.628,203.402C338.957,204.989 319.925,201.227 305.82,203.343C303.271,203.696 301.402,205.929 299.476,205.694C298.91,205.576 298.966,203.931 298.626,203.754L298.627,203.755ZM327.289,142.681C315.394,126.751 298.627,106.06 278.745,101.122C277.272,100.711 276.479,100.769 275.006,101.063C272.457,101.533 249.233,116.64 245.268,119.344C242.832,120.99 226.972,132.511 226.972,133.746C232.41,138.155 233.826,144.386 236.432,150.616C236.489,152.027 231.447,159.668 230.088,160.433C228.955,161.021 227.766,160.257 226.916,160.609C225.783,161.138 225.273,162.784 223.177,163.254C211.225,165.664 210.375,159.668 202.162,153.673L163.587,191.705C167.722,198.053 172.31,192.175 175.879,192.116C178.428,192.116 180.354,194.408 182.167,194.232C185.679,193.938 191.966,190.058 198.254,191.352C199.84,191.646 201.313,194.291 203.918,194.467C206.523,194.643 207.94,192.586 209.412,192.41C210.658,192.292 212.244,194.35 214.51,194.526C228.841,195.702 250.762,195.349 265.093,194.526C268.322,194.408 271.041,192.234 272.57,192.292C273.986,192.351 275.459,194.232 277.895,194.526C280.841,194.879 299.816,194.761 301.063,193.879C302.083,193.232 301.686,191.116 302.649,191.116C308.767,196.583 307.294,191.998 311.372,191.41C314.827,190.94 318.962,194.055 321.115,194.29C322.701,194.466 323.891,191.527 327.289,191.057C332.5,190.293 340.94,190.528 345.472,193.232C352.326,192.174 344.509,176.891 343.433,173.305C338.901,158.845 336.183,154.554 327.289,142.68L327.289,142.681ZM398.321,84.604C392.033,80.43 367.96,63.501 362.692,62.972C358.16,62.502 352.666,66.499 348.304,67.439L348.927,69.673C351.419,71.143 352.326,73.729 354.818,75.669C357.82,78.02 361.842,78.667 363.994,80.136C383.48,93.068 402.172,107.646 421.545,120.931C509.287,180.888 600.598,236.379 686.81,298.1L711.224,323.082C709.865,325.551 696.61,337.248 695.137,336.602C691.398,332.958 687.773,328.902 684.035,325.257C666.419,308.034 656.109,298.982 635.774,284.521C576.694,242.551 514.612,199.346 453.889,161.197C423.811,142.387 397.301,121.99 368.413,101.71C359.01,95.068 341.394,81.195 332.217,76.845C331.254,76.375 330.348,75.669 329.271,75.434L302.138,86.367C304.8,89.482 309.672,91.246 312.844,93.656C335.558,110.879 361.105,150.439 371.924,178.302C379.628,198.229 382.29,218.332 387.445,239.082C393.053,261.713 399.567,284.226 405.515,306.74C425.907,318.496 445.563,331.899 464.765,346.065C484.987,360.937 507.305,377.572 525.091,395.442C543.557,413.958 557.265,437.177 567.574,462.277C578.336,488.552 580.489,522.234 569.783,546.335C569.443,547.099 561.909,558.503 560.777,560.149C553.073,571.611 543.274,582.369 533.984,591.656C531.605,594.007 526.28,595.359 525.714,595.947C524.298,597.475 521.975,601.355 519.313,603.471C512.402,608.938 504.982,613.64 498.071,619.048L495.975,616.814L477.112,625.161L476.092,635.801C474.109,635.448 472.297,634.684 470.201,634.625C458.192,634.155 437.177,634.801 426.868,638.74C405.74,646.852 384.498,661.136 364.956,672.598L350.965,686C350.342,686 343.771,680.651 343.261,680.004C341.562,677.888 341.052,673.891 339.353,671.775C330.46,660.606 307.972,635.801 297.04,627.924C295.624,626.925 286.108,623.339 285.938,621.752C290.13,610.819 297.097,600.297 304.687,591.597C307.633,588.188 315.846,579.547 319.358,577.313C328.478,571.494 340.146,568.143 346.661,557.739C348.247,555.211 349.04,550.685 350.4,547.746C342.98,553.213 334.993,556.857 326.553,560.325C322.928,561.795 319.926,565.145 314.544,564.44C313.185,564.264 306.331,560.678 305.424,559.326C302.705,555.152 302.932,539.752 303.158,534.402L297.777,533.755C295.568,546.452 292.906,559.795 295.681,572.61C293.019,576.548 288.884,579.135 285.995,582.897C284.522,584.778 281.01,589.951 279.707,591.891C277.215,595.829 275.402,600.062 273.306,604.294C272.853,605.293 273.646,606.057 271.493,605.705L259.088,590.716C251.158,575.668 243.681,559.033 234.448,544.925C233.542,543.573 228.5,538.929 228.33,538.518C225.045,530.582 228.613,531.758 219.72,525.645C205.899,516.064 175.141,503.249 158.714,502.073C142.4,500.897 115.891,503.954 99.804,507.716C94.366,509.009 82.188,516.533 78.223,510.89C73.578,504.189 86.38,489.435 90.571,484.497C108.017,463.865 113.342,468.097 136.963,460.514C153.956,455.047 154.126,447.229 165.172,435.12C177.634,421.424 205.333,399.616 223.856,400.204C249.799,400.968 274.779,417.074 290.3,438.001C295.171,444.585 299.873,456.576 304.914,461.808C307.01,463.983 322.984,474.211 325.193,474.211C330.008,474.211 337.541,472.918 342.186,473.153C349.606,473.564 372.491,480.324 379.345,483.793C393.563,490.964 394.582,504.543 400.7,517.299C402.399,520.826 405.911,523.883 407.271,526.351C414.068,538.813 418.657,550.452 430.439,559.974C436.953,565.264 447.716,569.262 453.607,575.022C463.067,584.31 470.6,598.829 475.528,611.232C482.835,606.647 491.502,606.471 498.979,602.121C521.41,589.248 541.406,565.324 554.264,542.516C561.571,529.584 562.138,489.201 558.003,474.447C551.546,451.64 525.036,411.609 506.74,397.266C493.825,387.156 481.533,375.223 468.165,365.935C452.531,354.943 437.011,348.065 422.906,336.015C421.66,334.898 411.294,327.492 410.558,328.197C412.994,333.37 411.974,339.953 416.052,344.244C423.472,352.18 440.409,360.291 449.755,367.228C474.339,385.392 503.794,411.961 522.203,436.884C556.529,483.263 556.416,533.463 508.608,568.673C505.209,571.201 484.591,584.603 482.212,584.25C481.702,584.191 473.206,580.076 472.809,579.547C471.053,577.49 468.277,568.261 465.728,564.558C457.401,552.508 443.014,541.751 433.667,529.935C426.7,521.118 426.02,514.299 423.754,503.424C416.334,468.508 409.31,433.65 401.549,398.557C399.397,388.74 398.377,377.748 395.261,368.049C393.278,361.701 390.333,368.167 388.634,368.402C385.292,368.813 375.606,368.872 372.377,368.402C369.885,367.991 367.959,365.816 366.089,366.051C365.466,366.11 365.579,368.108 364.786,368.343C361.727,369.048 354.703,367.932 352.041,366.051L349.945,368.343C336.86,361.583 321.283,370.106 308.198,368.343C307.405,368.225 307.575,366.344 306.782,366.109C301.967,364.816 300.211,367.696 297.209,368.284C295.623,368.519 289.392,368.695 288.372,368.049C287.749,367.696 287.522,365.227 286.503,364.992C284.86,364.522 283.841,367.52 282.028,368.107C276.987,369.635 269.849,367.343 265.035,367.402C257.161,367.578 248.325,369.459 240.281,368.401C238.298,368.107 238.865,366.344 238.015,366.109C232.521,364.698 228.612,369.812 223.344,368.284C222.438,368.049 222.778,365.992 222.098,366.05C220.399,366.109 219.662,367.931 218.699,368.166C217.566,368.342 215.584,365.756 212.468,365.932C209.862,366.108 208.276,368.636 206.067,368.401C205.387,368.283 206.01,366.285 203.915,365.991C200.969,365.58 192.416,364.992 192.02,368.342L187.715,366.05C185.449,371.693 183.92,366.226 183.24,366.109C181.711,365.756 176.443,365.756 174.743,365.991C172.704,366.285 173.384,368.225 172.534,368.342C170.778,368.577 167.833,366.755 165.34,368.401C163.754,363.581 162.338,368.225 158.713,368.46C155.598,368.636 154.125,366.344 151.293,366.05L62.758,366.226C45.028,424.596 37.834,486.494 42.196,547.744C55.394,549.743 65.024,538.633 75.616,532.813C80.771,529.933 86.888,528.639 91.363,524.642C116.117,520.468 140.304,512.651 163.868,518.999C174.121,521.821 183.694,528.58 192.7,532.636C201.763,536.692 199.384,536.751 205.955,543.276C212.073,549.389 224.194,562.498 227.48,570.081C228.273,571.844 227.593,574.137 228.273,575.371C228.5,575.841 231.785,577.193 233.258,579.721C236.543,585.129 239.376,595.357 243.001,601.823C245.04,605.467 249.289,606.173 247.363,613.521C243.568,612.816 237.45,614.403 234.108,613.521C232.975,613.227 233.088,610.817 231.616,610.288C228.84,609.289 226.065,611.346 224.366,610.993C223.12,610.758 222.27,608.583 220.797,608.113C218.135,607.29 214.623,608.407 211.564,607.702C207.089,606.644 192.871,599.12 187.943,596.475C186.357,595.652 186.3,593.653 185.394,593.418C183.242,592.83 178.54,593.065 178.597,596.181C178.824,597.122 188.68,604.763 190.492,606.174C196.836,611.053 205.446,617.401 212.243,620.928C221.816,625.866 234.391,627.629 245.437,630.509C252.631,632.449 266.339,634.976 272.456,639.326C284.351,647.791 307.689,669.54 317.148,680.944C323.832,689.056 331.422,701.459 335.897,711.569C338.899,718.27 340.598,725.265 342.921,732.201C340.429,732.73 337.37,733.2 334.878,733.2C327.684,733.2 321.283,731.554 314.316,731.495C311.71,731.436 301.175,730.554 300.042,731.025C294.604,733.435 282.992,744.427 277.667,748.366C251.667,767.47 224.818,789.925 203.293,811.263C191.228,819.081 181.938,831.66 171.119,841.418C218.02,889.737 273.589,928.415 335.954,951.928C338.843,951.105 337.993,947.696 339.013,945.932C342.695,939.407 346.887,931.001 351.022,924.477C353.005,921.362 353.344,920.186 354.137,918.893C356.176,915.484 360.255,909.664 362.917,905.608C391.579,861.11 433.269,827.428 479.321,804.856C500.166,794.569 521.974,792.394 543.046,779.345C545.029,778.111 553.525,772.468 554.488,771.233C558.51,766.178 555.281,764.297 555.734,760.3C555.847,759.418 559.926,746.016 560.549,744.076C577.089,693.288 588.645,640.679 606.884,590.42C622.178,548.567 658.6,506.656 700.064,494.312C741.018,482.144 784.351,482.614 826.777,480.91C863.936,479.44 902.227,481.145 939.499,479.088C940.122,479.088 941.142,480.616 942.161,480.322L944.37,479.029C946.579,470.035 941.198,466.744 938.706,460.454C932.532,444.818 928.34,436.53 920.07,423.069C914.632,414.311 909.024,407.374 903.02,399.497C898.942,394.089 892.088,390.092 887.443,384.449C880.646,376.278 877.304,366.462 869.713,358.232C867.334,355.704 862.972,353.471 861.16,351.531C859.517,349.768 856.232,341.538 855.722,341.538C853.796,341.597 853.796,342.243 853.513,343.889C853.173,345.888 856.119,354.47 857.025,357.174C861.047,369.048 865.805,378.571 873.452,388.387C863.483,384.331 852.55,383.978 842.298,381.098C831.479,378.041 817.771,372.751 806.895,368.813C801.117,366.756 790.865,360.642 785.653,359.584C783.331,359.114 777.496,359.466 779.026,363.228C779.309,363.933 789.165,370.987 790.808,372.104C814.485,388.68 837.03,392.501 862.86,402.083C879.4,408.255 893.278,422.598 902.681,437.705C907.609,445.641 909.592,455.104 915.143,462.746L914.293,465.861C913.16,466.625 911.801,466.566 910.554,466.331C898.772,464.509 883.648,465.39 870.903,465.684C855.836,465.978 838.163,468.27 823.435,467.565C812.899,467.036 806.385,462.804 795.509,462.98C777.949,463.333 759.823,466.742 742.83,470.739L711.336,475.265C709.127,473.737 711.166,459.453 710.713,456.161C710.373,453.986 708.787,452.046 708.334,449.871C705.105,433.001 711.223,388.62 717.284,371.75C721.476,359.994 732.635,352.411 738.639,343.77C740.225,341.478 739.829,338.656 741.301,336.481C742.66,334.482 757.615,322.667 761.07,319.728C772.116,310.264 789.392,299.037 797.606,287.986C803.554,279.992 807.462,270.293 814.203,262.827L814.373,260.182C813.297,258.771 798.173,273.173 796.36,274.701C789.279,280.697 782.142,286.105 774.552,291.924C773.193,292.982 773.023,294.981 771.097,296.215C766.735,299.095 761.694,298.743 758.522,294.216C755.18,289.572 757.956,278.227 758.125,272.819C758.238,269.527 756.879,265.648 757.389,261.827C757.672,259.299 759.938,260.064 760.448,258.418C760.845,257.125 759.032,250.894 759.598,250.189L762.827,251.306C764.017,244.193 769.568,233.436 773.589,227.323C779.933,217.624 790.526,208.983 797.21,200.283C799.023,197.991 799.476,193.876 800.949,192.23C802.875,190.114 816.47,185.823 816.47,183.883L802.592,170.481C801.346,169.893 798.514,172.068 797.267,172.832C791.659,176.241 787.524,181.12 783.389,185.176C771.097,197.109 749.912,220.915 744.134,236.904C735.807,260.005 742.435,286.516 725.215,306.443C724.025,307.795 723.063,309.617 720.967,309.265C720.854,308.266 720.514,307.208 719.891,306.502C699.499,284.4 667.268,261.181 642.798,243.547C612.493,221.739 579.073,205.339 547.522,185.529C511.496,162.957 473.998,138.856 440.634,113.698C427.096,103.529 412.482,93.83 398.321,84.601L398.321,84.604ZM563.836,48.806C545.37,44.397 526.168,43.986 507.248,42.928L489.178,125.164C491.784,125.752 495.692,129.867 497.561,130.396C498.807,130.749 499.43,129.162 500.223,129.162C501.129,129.162 502.262,131.043 504.471,130.984C506.34,130.925 508.323,128.75 510.985,128.633C514.384,128.457 515.97,130.573 517.612,130.749C518.405,130.808 528.714,129.456 532.623,129.397C576.806,128.868 620.592,129.808 664.548,129.926C681.201,129.985 700.064,130.337 716.094,129.279C724.817,128.75 731.445,129.749 739.771,128.75C742.773,128.397 752.119,130.572 753.139,128.162C714.111,99.535 670.438,77.727 624.726,62.914C621.78,62.267 622.234,64.971 619.571,66.382C602.238,75.611 572.046,68.674 563.833,48.806L563.836,48.806ZM859.859,169.544C1050.92,389.623 1022.372,732.204 798.173,914.839C615.212,1063.851 355.668,1059.913 177.011,905.434C-59.026,701.285 -58.969,322.788 177.011,118.698C381.157,-57.824 682.675,-34.664 859.858,169.544L859.859,169.544Z" style="fill:rgb(86,126,94);fill-rule:nonzero;"/>
    </g>
    <g transform="matrix(0.110484,0,0,0.110484,5.988237,6.416022)">
        <path d="M584.151,398.804C580.696,394.866 577.07,389.399 577.127,383.462C577.24,377.231 581.885,365.945 586.587,362.065C588.683,360.36 590.382,361.007 591.742,360.184C601.711,354.071 622.273,346.253 634.339,347.252C638.927,347.663 643.912,350.015 648.443,350.485C652.974,350.955 657.846,350.074 662.378,350.485C675.406,351.719 698.97,363.241 696.025,379.758C695.515,382.697 690.587,398.333 689.228,400.567C687.982,402.507 684.98,405.211 683.054,406.445C661.869,419.847 618.706,416.026 596.048,407.033C590.44,404.799 588.061,403.271 584.153,398.804L584.151,398.804Z" style="fill:rgb(86,126,94);fill-rule:nonzero;"/>
    </g>
    <g transform="matrix(0.110484,0,0,0.110484,5.988237,6.416022)">
        <path d="M332.503,770.963C335.788,767.73 350.573,763.145 355.274,762.792C363.997,762.204 370.341,762.851 380.084,761.851C392.319,760.558 414.071,766.906 420.132,779.133C423.078,785.129 421.718,796.532 417.47,801.764C407.614,813.814 382.804,818.458 368.189,816.283C366.66,816.048 365.47,814.461 363.771,814.167C349.78,811.757 326.499,809.464 325.819,790.008C325.706,785.541 329.388,774.019 332.503,770.963Z" style="fill:rgb(86,126,94);fill-rule:nonzero;"/>
    </g>
    <g transform="matrix(0.110484,0,0,0.110484,5.988237,6.416022)">
        <path d="M585.281,328.965C584.941,329.376 580.749,332.786 580.183,333.139C565.229,342.191 526.654,343.073 512.04,332.669C498.955,323.323 509.321,307.922 519.744,301.632C533.792,293.226 548.519,292.109 564.21,294.167C568.685,294.755 578.314,296.753 582.11,298.987C590.833,304.101 591.116,321.853 585.282,328.966L585.281,328.965Z" style="fill:rgb(86,126,94);fill-rule:nonzero;"/>
    </g>
    <g transform="matrix(0.110484,0,0,0.110484,5.988237,6.416022)">
        <path d="M434.588,752.389C432.945,751.448 427.281,744.571 426.261,742.631C420.313,731.169 424.392,721.999 434.588,715.826C446.03,708.89 480.187,707.009 490.892,715.708C496.896,720.587 494.064,726.112 497.519,732.226C497.802,738.339 498.369,743.924 494.347,748.92C488.116,756.797 469.763,754.739 460.474,754.975C451.298,755.151 443.934,757.738 434.588,752.389Z" style="fill:rgb(86,126,94);fill-rule:nonzero;"/>
    </g>
    <g transform="matrix(0.110484,0,0,0.110484,5.988237,6.416022)">
        <path d="M641.164,442.172C643.373,445.052 643.77,456.221 641.957,459.63C638.898,465.214 625.53,471.269 619.469,471.915C610.293,472.914 597.491,472.091 592.11,463.333C588.371,457.22 587.069,446.463 592.337,440.996C593.13,440.232 594.773,440.291 595.566,439.644C596.359,438.997 596.472,437.763 597.152,437.41C600.324,435.588 607.178,432.943 610.747,433.06C615.222,433.178 617.884,436.234 620.716,436.998C626.324,438.468 636.123,435.705 641.165,442.171L641.164,442.172Z" style="fill:rgb(86,126,94);fill-rule:nonzero;"/>
    </g>
    <g transform="matrix(0.110484,0,0,0.110484,5.988237,6.416022)">
        <path d="M395.004,696.375C395.627,696.375 396.873,697.845 398.289,698.08C408.995,699.843 416.245,701.431 413.753,715.421C412.337,723.239 404.52,723.357 398.232,723.827C389.509,724.415 374.838,724.768 373.195,712.952C371.496,700.608 382.768,699.609 391.718,698.08C393.134,697.845 394.38,696.375 395.003,696.375L395.004,696.375Z" style="fill:rgb(86,126,94);fill-rule:nonzero;"/>
    </g>
    <g transform="matrix(0.110484,0,0,0.110484,5.988237,6.416022)">
        <path d="M621.824,869.012C624.996,872.95 623.014,882.238 620.238,886.235C618.765,888.292 608.683,895.464 606.87,895.287C601.206,892.465 591.859,893.935 589.424,886.47C583.42,868.13 614.348,859.607 621.825,869.012L621.824,869.012Z" style="fill:rgb(86,126,94);fill-rule:nonzero;"/>
    </g>
</svg>
