<?xml version="1.0" encoding="UTF-8" standalone="no"?>
<!DOCTYPE svg PUBLIC "-//W3C//DTD SVG 1.1//EN" "http://www.w3.org/Graphics/SVG/1.1/DTD/svg11.dtd">
<svg width="100%" height="100%" viewBox="0 0 29 25" version="1.1" xmlns="http://www.w3.org/2000/svg" xmlns:xlink="http://www.w3.org/1999/xlink" xml:space="preserve" xmlns:serif="http://www.serif.com/" style="fill-rule:evenodd;clip-rule:evenodd;stroke-linejoin:round;stroke-miterlimit:2;">
    <g transform="matrix(0.03125,0,0,0.03125,-1.617594,-3.511781)">
        <path d="M968.238,434.385C950.625,469.064 932.048,499.889 912.509,526.86C892.97,553.831 873.704,577.362 854.713,597.455C835.722,617.548 817.832,634.473 801.043,648.232C784.254,661.991 770.08,673 758.52,681.259C749.163,687.866 740.63,693.095 732.922,696.947C730.72,698.048 729.345,698.873 728.796,699.421L727.144,700.245C712.834,707.4 697.559,713.454 681.318,718.407C665.077,723.36 647.602,726.663 628.892,728.317C609.076,730.519 589.536,730.244 570.273,727.493C551.01,724.742 533.12,719.374 516.603,711.39C500.086,703.406 485.225,692.809 472.02,679.6C458.815,666.391 448.082,650.152 439.822,630.885C434.316,618.224 431.427,605.289 431.155,592.08C430.883,578.871 434.322,566.21 441.473,554.097C444.776,548.043 449.593,543.226 455.924,539.646C462.255,536.066 468.997,534.276 476.152,534.276C484.408,534.276 491.289,537.029 496.795,542.535C498.997,544.737 500.787,546.801 502.165,548.727C503.543,550.653 504.782,552.443 505.883,554.097C519.645,570.61 535.883,581.342 554.598,586.295C557.901,586.844 564.644,587.257 574.826,587.532C585.008,587.807 596.017,585.331 607.853,580.103C619.689,574.875 631.11,565.656 642.117,552.446C653.124,539.236 661.38,519.42 666.886,492.998C668.535,497.951 670.461,502.355 672.663,506.21C674.312,510.061 676.515,513.365 679.27,516.12C682.025,518.875 685.052,520.251 688.351,520.246C691.65,520.241 694.677,519.14 697.432,516.943C708.992,507.586 718.211,495.888 725.089,481.851C731.967,467.814 736.784,452.538 739.54,436.025C740.641,415.108 738.439,395.018 732.933,375.755C725.225,349.332 714.354,327.178 700.32,309.293C686.286,291.408 669.774,276.959 650.783,265.948C631.792,254.937 610.875,247.093 588.032,242.416C565.189,237.739 541.383,235.4 516.615,235.398C484.691,235.398 452.765,237.324 420.837,241.175C388.909,245.026 358.361,253.833 329.192,267.595C326.441,268.696 323.414,269.936 320.111,271.313C316.808,272.69 313.781,273.93 311.03,275.031C310.481,275.031 307.728,276.132 302.771,278.334C297.814,280.536 294.787,282.462 293.69,284.111C308.553,264.295 325.755,247.094 345.294,232.507C364.833,217.92 385.338,204.573 406.808,192.465C409.559,191.364 413.413,189.3 418.37,186.273C423.327,183.246 428.144,179.807 432.821,175.955C437.498,172.103 440.801,168.249 442.731,164.393C444.661,160.537 443.698,156.959 439.842,153.66C437.091,150.909 434.202,149.258 431.175,148.705C428.148,148.152 424.708,147.328 420.857,146.231C420.308,145.682 418.932,145.407 416.731,145.407C415.63,144.858 414.529,144.583 413.428,144.583L416.731,143.759C428.291,141.008 439.712,139.083 450.995,137.982C462.278,136.881 473.425,136.331 484.437,136.33C514.159,135.781 543.883,136.605 573.608,138.804C587.918,141.006 602.092,143.07 616.131,144.996C630.17,146.922 644.067,149.811 657.824,153.663C669.932,156.414 682.042,159.028 694.155,161.507C706.268,163.986 718.378,163.847 730.486,161.092C737.093,159.443 741.359,156.139 743.285,151.182C745.211,146.225 745.9,140.721 745.352,134.672C744.803,128.065 743.151,120.634 740.397,112.377C754.159,121.734 767.644,132.193 780.853,143.753C792.413,153.66 804.385,165.082 816.769,178.017C829.153,190.952 839.75,205.127 848.559,220.54C860.667,240.356 869.474,261.273 874.979,283.291C880.484,305.309 884.612,325.675 887.363,344.39C890.114,366.408 891.215,387.876 890.666,408.793C890.666,424.204 893.831,434.525 900.162,439.754C906.493,444.983 914.06,447.598 922.865,447.598C928.371,447.598 933.739,446.909 938.968,445.531C944.197,444.153 949.014,442.64 953.419,440.991L968.238,434.385ZM51.763,589.608C64.424,564.839 79.285,539.794 96.346,514.473C113.407,489.152 131.984,464.795 152.075,441.404C172.166,418.013 193.771,396.408 216.888,376.591C240.005,356.774 263.949,340.261 288.72,327.054C290.369,326.505 291.745,325.68 292.846,324.58C293.395,324.58 293.67,324.305 293.67,323.756C321.742,309.446 354.493,300.089 391.922,295.684C411.738,294.035 431.003,294.447 449.718,296.921C468.433,299.395 486.046,304.624 502.559,312.609C519.072,320.594 534.071,331.19 547.556,344.399C561.041,357.608 571.912,373.846 580.169,393.114C586.223,405.775 589.25,418.71 589.25,431.919C589.25,445.128 585.672,457.789 578.517,469.902C575.214,475.956 570.397,480.773 564.066,484.353C557.735,487.933 550.993,489.723 543.838,489.723C535.582,489.723 528.701,486.97 523.195,481.464C520.993,479.262 519.341,477.06 518.24,474.857C517.139,472.654 516.038,471.003 514.937,469.902C501.728,453.389 485.216,442.657 465.4,437.704C462.097,436.603 455.354,436.052 445.172,436.052C434.99,436.052 424.119,438.667 412.559,443.896C400.999,449.125 389.716,458.344 378.71,471.553C367.704,484.762 359.171,504.578 353.112,531.001C351.463,526.048 349.811,521.37 348.157,516.965C346.508,513.662 344.444,510.635 341.965,507.884C339.486,505.133 336.597,503.758 333.298,503.758C329.999,503.758 327.246,504.859 325.039,507.061C312.378,516.418 302.47,528.116 295.315,542.153C288.16,556.19 283.481,571.466 281.279,587.979C280.178,598.438 280.452,608.758 282.103,618.94C283.754,629.122 285.956,638.892 288.71,648.249C290.359,654.856 292.836,662.011 296.139,669.714C299.442,677.417 303.02,684.985 306.872,692.417C310.724,699.849 315.128,707.004 320.084,713.882C325.04,720.76 329.994,726.402 334.945,730.807C358.064,753.926 384.211,769.338 413.384,777.041C442.557,784.744 472.832,788.598 504.207,788.603C514.666,788.603 526.363,788.328 539.299,787.779C552.235,787.23 565.582,786.267 579.341,784.89C593.1,783.513 606.311,781.723 618.975,779.52C631.639,777.317 642.648,774.564 652.002,771.261C671.267,764.654 690.258,757.223 708.973,748.966C709.522,748.966 712.275,747.865 717.232,745.663C722.189,743.461 725.492,741.535 727.142,739.886C712.279,759.702 694.939,776.903 675.123,791.49C655.307,806.077 634.941,819.424 614.024,831.532C611.822,832.633 607.968,834.697 602.462,837.724C596.956,840.751 592.002,844.19 587.601,848.042C583.2,851.894 579.896,855.748 577.691,859.604C575.486,863.46 576.31,867.038 580.165,870.337C582.916,873.088 586.081,874.739 589.661,875.292C593.241,875.845 596.406,876.669 599.157,877.766C600.258,877.766 601.91,878.041 604.112,878.59C606.314,879.139 607.966,879.414 609.067,879.414L607.415,879.414L603.289,880.238L601.637,880.238C590.63,882.989 579.759,884.914 569.024,886.015C558.289,887.116 547.418,887.666 536.411,887.667C506.136,888.216 476.138,887.392 446.417,885.193C432.107,882.991 417.933,880.927 403.894,879.001C389.855,877.075 375.958,874.186 362.201,870.334C350.093,867.583 338.121,864.969 326.285,862.49C314.449,860.011 302.202,860.15 289.545,862.905C282.938,864.554 278.672,867.858 276.746,872.815C274.82,877.772 274.131,883.276 274.679,889.325C275.228,895.932 276.88,903.363 279.634,911.62C265.872,902.263 252.387,891.804 239.178,880.244C228.171,870.337 216.612,858.915 204.499,845.98C192.386,833.045 181.654,818.87 172.301,803.457C160.741,783.093 152.072,761.902 146.295,739.884C140.518,717.866 136.251,697.776 133.496,679.614C130.193,657.596 128.817,636.128 129.37,615.211C129.37,599.8 126.205,589.479 119.874,584.25C113.543,579.021 105.976,576.406 97.171,576.406C91.665,576.406 86.297,577.095 81.068,578.473C75.839,579.851 71.022,581.364 66.617,583.013L51.763,589.608Z" style="fill-rule:nonzero;"/>
    </g>
</svg>
