<?xml version="1.0" encoding="UTF-8" standalone="no"?>
<!DOCTYPE svg PUBLIC "-//W3C//DTD SVG 1.1//EN" "http://www.w3.org/Graphics/SVG/1.1/DTD/svg11.dtd">
<svg width="100%" height="100%" viewBox="0 0 27 24" version="1.1" xmlns="http://www.w3.org/2000/svg" xmlns:xlink="http://www.w3.org/1999/xlink" xml:space="preserve" xmlns:serif="http://www.serif.com/" style="fill-rule:evenodd;clip-rule:evenodd;stroke-linejoin:round;stroke-miterlimit:2;">
    <g transform="matrix(0.03125,0,0,0.03125,-2.965257,-5.208031)">
        <path d="M951.185,383.782C952.936,405.378 952.206,429.017 948.997,454.698C945.788,480.379 937.324,507.812 923.607,536.996C909.89,566.18 890.191,597.261 864.511,630.238C838.831,663.215 804.686,698.381 762.077,735.736C730.558,763.168 704.001,785.785 682.405,803.588C660.809,821.391 641.402,836.858 624.183,849.99C606.964,863.122 590.768,875.087 575.593,885.886C560.418,896.685 543.2,908.504 523.938,921.344C504.093,908.503 486.437,896.683 470.97,885.886C455.503,875.089 439.307,863.123 422.38,849.99C405.453,836.857 386.192,821.389 364.596,803.588C343,785.787 316.443,763.169 284.924,735.736C242.316,698.381 208.025,663.215 182.052,630.238C156.079,597.261 136.38,566.18 122.956,536.996C109.532,507.812 101.215,480.379 98.004,454.698C94.793,429.017 94.064,405.378 95.816,383.782C98.151,358.101 104.279,332.419 114.202,306.738C124.125,281.057 138.133,257.856 156.226,237.136C174.319,216.416 196.499,199.489 222.764,186.356C249.029,173.223 279.38,166.656 313.816,166.657C352.339,166.657 384.733,172.932 410.998,185.481C437.263,198.03 458.859,211.892 475.786,227.067C495.631,245.16 511.682,265.589 523.939,288.353C536.196,265.59 551.956,245.162 571.217,227.067C588.144,211.891 609.74,198.029 636.005,185.481C662.27,172.933 694.664,166.658 733.187,166.657C767.624,166.657 797.974,173.223 824.239,186.356C850.504,199.489 872.537,216.415 890.339,237.136C908.141,257.857 922.149,281.057 932.363,306.738C942.577,332.419 948.852,358.1 951.187,383.782L951.185,383.782Z" style="fill-rule:nonzero;"/>
    </g>
</svg>
