<?xml version="1.0" encoding="UTF-8" standalone="no"?>
<!DOCTYPE svg PUBLIC "-//W3C//DTD SVG 1.1//EN" "http://www.w3.org/Graphics/SVG/1.1/DTD/svg11.dtd">
<svg width="100%" height="100%" viewBox="0 0 22 32" version="1.1" xmlns="http://www.w3.org/2000/svg" xmlns:xlink="http://www.w3.org/1999/xlink" xml:space="preserve" xmlns:serif="http://www.serif.com/" style="fill-rule:evenodd;clip-rule:evenodd;stroke-linejoin:round;stroke-miterlimit:2;">
    <g transform="matrix(0.03125,0,0,0.03125,-4.834437,-0.032063)">
        <path d="M551.856,166.432C594.983,171.345 635.108,183.766 672.231,203.694C709.354,223.622 741.699,249.008 769.268,279.851C796.837,310.694 818.4,345.906 833.959,385.486C849.518,425.066 857.297,467.511 857.297,512.82C857.297,557.586 849.381,600.031 833.55,640.154C817.719,680.277 796.018,715.761 768.449,746.605C740.88,777.449 708.398,802.97 671.004,823.168C633.61,843.366 593.075,855.922 549.4,860.835L504.362,1022.973L459.324,860.835C416.197,855.376 376.072,842.683 338.949,822.758C301.826,802.833 269.617,777.312 242.322,746.195C215.027,715.078 193.599,679.595 178.04,639.744C162.481,599.893 154.701,557.585 154.702,512.819C154.702,468.599 162.481,426.563 178.04,386.712C193.599,346.861 215.026,311.512 242.322,280.667C269.618,249.822 301.827,224.301 338.949,204.104C376.071,183.907 416.196,171.352 459.324,166.437L504.362,1.026L551.856,166.432ZM504.362,897.684L504.362,512.816L610.813,512.816L610.813,511.997L504.362,132.861L504.362,512.816L400.365,512.816L504.362,897.684ZM580.519,750.288C606.176,742.645 629.65,731.18 650.941,715.894C672.232,700.608 690.656,682.593 706.215,661.849C721.774,641.105 733.92,618.04 742.654,592.653C751.388,567.266 755.755,540.653 755.755,512.813C755.755,485.517 751.388,459.177 742.654,433.792C733.92,408.407 721.774,385.342 706.215,364.596C690.656,343.85 672.368,325.835 651.351,310.551C630.334,295.267 607.268,283.802 582.155,276.157L644.389,511.994L580.519,750.288ZM362.698,511.997L429.028,276.16C404.463,284.35 381.671,296.088 360.653,311.373C339.635,326.658 321.347,344.673 305.789,365.418C290.231,386.163 278.085,409.091 269.35,434.202C260.615,459.313 256.248,485.517 256.249,512.813C256.25,540.109 260.617,566.313 269.35,591.424C278.083,616.535 290.094,639.463 305.381,660.208C320.668,680.953 338.82,699.104 359.835,714.662C380.85,730.22 403.916,742.093 429.031,750.281L362.698,511.997Z" style="fill-rule:nonzero;"/>
    </g>
</svg>
