<?xml version="1.0" encoding="UTF-8" standalone="no"?>
<!DOCTYPE svg PUBLIC "-//W3C//DTD SVG 1.1//EN" "http://www.w3.org/Graphics/SVG/1.1/DTD/svg11.dtd">
<svg width="100%" height="100%" viewBox="0 0 109 110" version="1.1" xmlns="http://www.w3.org/2000/svg" xmlns:xlink="http://www.w3.org/1999/xlink" xml:space="preserve" xmlns:serif="http://www.serif.com/" style="fill-rule:evenodd;clip-rule:evenodd;stroke-linejoin:round;stroke-miterlimit:2;">
    <g transform="matrix(1.012354,0,0,1.012354,-68.340104,-67.263718)">
        <circle cx="121.341" cy="120.341" r="53.341" style="fill:rgb(237,212,173);"/>
    </g>
    <g transform="matrix(0.10657,0,0,0.10657,-0.000039,0.000118)">
        <path d="M814.63,151.713C815.335,150.436 815.995,149.168 816.682,147.891C800.899,136.364 785.116,124.838 767.065,111.695C766.625,120.612 766.36,125.273 766.184,129.964C765.568,150.905 766.36,151.681 787.995,151.712L814.621,151.712L814.63,151.713ZM676.707,954.48L438.093,954.48C436.878,962.468 435.636,970.605 434.429,978.652C490.82,995.958 625.008,983.223 676.707,954.48ZM779.392,771.824C820.839,771.824 860.638,771.912 900.469,771.648C904.168,771.648 909.355,769.913 911.126,767.174C919.079,755.119 926.039,742.412 934.21,728.431L779.392,728.431L779.392,771.824ZM895.56,341.421C884.126,341.421 874.246,341.359 864.335,341.452C845.725,341.54 839.636,346.551 839.231,365.345C838.615,397.999 838.615,430.684 839.495,463.337C839.583,468.119 845.211,476.448 848.878,476.852C864.289,478.34 879.917,477.468 895.576,477.468L895.56,341.421ZM984.542,476.789C981.028,431.925 972.208,389.174 956.3,347.976C955.217,345.087 950.611,341.978 947.445,341.758C937.13,340.965 926.722,341.406 915.444,341.406L915.444,476.744L984.542,476.789ZM759.787,730.626C718.558,730.626 679.038,728.574 639.891,731.419C615.937,733.128 591.827,742.293 587.383,771.653C585.243,785.914 584.591,801.169 587.207,815.182C588.325,820.898 599.573,826.833 607.153,828.572C620.016,831.619 622.781,820.126 623.806,810.956C627.382,779.327 646.176,770.068 673.144,771.498C701.852,773.022 730.716,771.85 759.766,771.85L759.787,730.626ZM87.292,731.419C107.052,759.909 124.109,785.634 142.627,810.241C147.004,816.08 156.173,820.898 163.506,821.458C183.731,822.982 204.144,821.986 225.241,821.986L225.241,727.194C180.376,729.334 136.103,723.715 87.293,731.421L87.292,731.419ZM740.834,305.958C740.834,237.823 740.897,171.086 740.746,104.349C740.746,101.117 739.381,96.211 737.109,94.967C723.625,87.569 709.643,81.017 694.482,73.529L694.482,305.958L740.834,305.958ZM923.957,281.445C909.013,241.956 902.271,237.047 864.398,237.047C853.866,237.047 843.271,237.84 832.8,236.871C793.591,233.427 764.604,274.372 765.97,304.416C767.053,329.116 766.146,353.878 766.146,378.61L766.146,413.625L810.668,413.625C810.668,379.697 810.668,346.67 810.731,313.675C810.731,292.704 822.195,281.456 843.54,281.425L923.916,281.425L923.957,281.445ZM766.892,430.588C766.892,442.798 767.068,453.269 766.86,463.739C766.155,492.82 767.388,522.149 763.786,550.826C761.514,569.064 748.158,582.548 727.87,585.033C709.291,587.296 690.711,589.348 672.1,590.934C663.584,591.727 654.95,591.11 646.157,591.11C647.707,605.247 649.019,616.556 650.411,629.356C677.224,629.356 704.285,632.121 730.57,628.74C771.302,623.491 791.404,613.049 802.65,570.888C804.922,562.407 806.692,553.583 807.159,544.853C809.114,506.855 810.479,468.857 812.126,430.611L766.892,430.588ZM626.676,591.216C595.389,591.216 565.346,590.318 535.395,591.656C522.284,592.272 507.681,594.518 496.807,601.07C481.427,610.329 475.245,627.355 475.338,645.686C475.514,694.589 475.778,743.523 476.236,792.457C476.299,800.78 478.535,809.204 477.945,817.406C476.985,829.959 484.594,834.992 494.35,835.737C505.007,836.618 514.576,831.695 516.191,819.706C517.468,810.075 516.543,800.102 516.719,790.314C517.6,750.856 516.895,711.273 519.828,671.909C522.25,638.944 524.549,627.914 562.548,629.344C584.918,630.225 607.381,629.52 631.055,629.52C629.47,615.632 628.166,604.23 626.678,591.274L626.676,591.216ZM52.58,636.48C58.111,653.04 62.211,668.232 68.395,682.462C70.447,687.121 77.746,692.248 82.78,692.342C155.234,694.024 227.718,694.887 300.203,695.944C305.699,696.007 311.201,695.944 316.39,695.944C317.914,674.662 319.191,655.989 320.556,636.478L52.58,636.48ZM37.387,540.102C39.131,557.408 40.152,572.072 42.451,586.489C42.979,589.598 48.202,594.283 51.306,594.283C112.326,594.811 173.719,598.66 234.241,593.2C272.021,589.845 290.601,587.361 288.799,534.758C287.777,503.751 289.239,472.62 288.535,441.52C288.095,424.587 286.518,407.561 283.718,390.845C281.446,377.331 270.047,372.67 258.707,377.02C250.693,380.094 239.258,388.795 239.071,395.319C237.864,433.535 238.455,471.905 240.533,510.121C241.995,536.406 239.652,541.345 216.982,540.382C190.697,539.202 164.289,540.118 137.973,540.118L37.401,540.118L37.387,540.102ZM503.812,201.214L612.897,201.214C619.018,186.58 621.255,171.636 629.923,163.34C638.747,154.885 653.846,152.994 667.734,147.681C667.734,124.752 667.998,100.021 667.382,75.321C667.32,71.807 663.93,66.532 660.768,65.162C623.298,49.192 586.171,31.172 545.128,56.461C524.281,69.293 507.752,86.785 504.738,109.807C500.819,139.665 503.778,170.392 503.778,201.213L503.812,201.214ZM245.313,824.462C288.623,829.834 304.624,847.95 304.624,889.676C304.655,902.85 303.919,916.117 305.064,929.165C305.504,934.203 309.476,941.468 313.668,943.146C342.221,954.735 371.302,965.081 402.527,976.701C402.527,949.205 403.32,925.53 402.351,901.918C400.986,867.835 400.176,833.534 395.517,799.855C392.505,777.796 384.053,754.619 360.502,745.826C323.685,732.156 285.532,723.86 245.36,728.428L245.313,824.462ZM499.025,221.656C501.324,278.108 504.027,332.573 505.613,387.069C506.635,422.487 527.268,441.378 556.877,455.328C588.661,470.241 622.061,468.687 655.46,467.476C658.842,467.388 664.47,458.342 664.625,453.34C665.506,425.968 664.889,398.565 664.801,371.131C664.77,360.754 664.801,350.377 664.801,340.683C656.443,338.446 649.732,338.014 644.637,334.967C636.182,329.965 624.628,324.807 621.739,317.009C616.49,302.624 615.741,286.375 614.658,270.778C613.601,254.715 614.482,238.497 614.482,221.658L499.025,221.656ZM339.577,695.959C357.255,695.959 373.505,696.022 389.754,695.928C414.858,695.752 443.908,669.643 447.015,644.415C449.19,626.768 450.344,608.997 453.294,591.504C456.183,574.417 471.438,563.107 488.372,563.107C551.629,563.17 614.824,563.459 678.081,562.931C688.241,562.843 699.177,560.597 708.342,556.379C724.001,549.113 740.934,539.695 741.183,519.935C741.976,456.895 741.095,393.825 740.743,330.785C740.743,327.333 739.686,323.889 739.131,320.532L694.92,320.532C694.392,322.61 693.863,323.606 693.863,324.601C693.775,372.572 693.951,420.511 693.511,468.483C693.247,495.886 686.923,510.737 653.929,509.991C587.72,508.503 521.387,510.696 455.148,512.695C429.174,513.488 402.113,535.127 400.031,554.329C397.979,573.063 397.045,591.984 396.244,610.781C395.451,630.448 390.088,635.947 369.898,635.947L339.636,635.947L339.577,695.959ZM468.297,38.875C336.066,53.477 228.598,110.614 143.748,210.967C130.233,226.998 125.509,244.149 127.872,264.779L182.211,264.779C186.157,244.429 188.702,224.669 194.049,205.779C198.928,188.473 210.578,181.296 227.2,183.657C242.3,185.832 254.075,194.904 256.684,210.066C259.696,227.869 259.608,246.23 260.876,264.717L328.452,264.717C330.002,245.05 331.059,226.284 333.049,207.642C334.414,195.184 339.011,184.869 352.716,180.271C365.703,175.859 376.08,178.377 385.867,187.352C396.866,197.449 403.049,209.411 402.551,224.759C402.111,238.15 402.489,251.603 402.489,264.621L468.293,264.621L468.297,38.875ZM215.859,499.787C215.859,469.929 217.013,441.47 215.419,413.135C214.336,393.623 220.73,378.865 233.564,365.071C252.888,344.255 295.982,350.872 303.936,377.903C309.775,397.694 312.109,418.79 313.443,439.451C315.028,463.405 313.795,487.515 313.795,513.644C328.708,512.244 341.416,512.464 353.377,509.698C387.988,501.71 412.906,477.199 434.126,452.065C474.671,403.97 472.559,344.938 467.432,285.844L126.57,285.844L126.57,374.08C126.601,432.677 157.919,477.666 215.832,499.786L215.859,499.787ZM438.973,932.52L514.969,932.52C528.453,888.93 546.442,873.209 579.81,875.664C607.866,877.716 630.267,900.643 634.772,931.93C714.558,942.059 748.578,932.018 811.246,879.857C816.9,875.136 822.897,870.723 828.023,865.442C850.393,842.17 872.545,818.714 895.288,794.728C890.999,791.998 890.189,791.064 889.414,791.064C818.235,790.888 747.086,790.536 675.937,790.976C656.301,791.064 647.57,800.141 642.476,819.249C632.16,858.21 611.313,858.21 580.99,846.155C571.918,842.553 565.921,834.472 566.605,822.293C567.221,811.016 564.06,799.581 563.778,788.179C563.602,779.39 563.866,770.128 566.482,761.864C578.444,724.146 604.014,705.473 643.503,705.567C729.938,705.831 816.372,706.527 902.776,706.932C908.122,706.995 913.433,706.316 918.714,705.972L920.766,699.816C906.381,691.115 892.834,680.492 877.486,673.998C830.105,653.833 780.053,647.247 728.788,649.235C686.783,650.82 645.305,657.064 608.147,677.197C585.404,689.531 565.427,707.085 544.92,723.273C540.939,726.408 538.834,733.992 538.676,739.554C537.971,762.731 539.557,786.002 537.883,809.118C537.002,820.303 532.819,832.326 526.666,841.772C515.637,858.642 496.747,856.716 480.839,852.49C467.324,848.888 462.663,852.842 459.338,864.266C452.847,886.636 446.041,908.912 438.957,932.556L438.973,932.52ZM0.042,511.288C-3.534,235.89 224.922,-8.563 527.257,0.229C804.612,8.279 1027.659,236.852 1022.718,521.509C1017.997,793.49 800.045,1025.329 508.428,1023.993C215.476,1022.69 -3.469,784.418 0.042,511.288Z" style="fill:rgb(149,160,148);fill-rule:nonzero;"/>
    </g>
</svg>
