<?xml version="1.0" encoding="UTF-8" standalone="no"?>
<!DOCTYPE svg PUBLIC "-//W3C//DTD SVG 1.1//EN" "http://www.w3.org/Graphics/SVG/1.1/DTD/svg11.dtd">
<svg width="100%" height="100%" viewBox="0 0 166 167" version="1.1" xmlns="http://www.w3.org/2000/svg" xmlns:xlink="http://www.w3.org/1999/xlink" xml:space="preserve" xmlns:serif="http://www.serif.com/" style="fill-rule:evenodd;clip-rule:evenodd;stroke-linejoin:round;stroke-miterlimit:2;">
    <g transform="matrix(0.1,0,0,-0.1,-5.05,171.060684)">
        <path d="M794,1691C776,1680 759,1667 756,1661C752,1655 735,1650 719,1650C671,1650 625,1625 601,1586C588,1566 574,1550 569,1550C563,1550 548,1539 535,1525C516,1507 510,1490 510,1458C510,1417 507,1413 291,1196C171,1074 67,965 61,953C47,925 47,835 61,807C67,795 139,718 220,635C366,488 369,484 379,428C393,350 419,303 479,247C528,201 531,200 592,200C656,200 656,200 715,139C789,64 815,50 880,50C945,50 971,64 1045,139C1104,200 1104,200 1168,200C1229,200 1232,201 1281,247C1341,303 1367,350 1381,428C1391,484 1394,488 1540,635C1621,718 1693,795 1699,807C1713,835 1713,925 1699,953C1693,965 1589,1074 1469,1196C1253,1413 1250,1417 1250,1458C1250,1490 1244,1507 1225,1525C1212,1539 1197,1550 1191,1550C1186,1550 1172,1566 1159,1586C1135,1625 1089,1650 1042,1650C1026,1650 1007,1657 999,1666C961,1712 851,1726 794,1691ZM953,1673C985,1655 985,1655 933,1652C904,1650 856,1650 828,1652C775,1655 775,1655 805,1672C844,1694 913,1695 953,1673ZM1097,1568C1128,1539 1130,1450 1100,1420C1081,1401 1067,1400 880,1400C693,1400 679,1401 660,1420C631,1449 632,1535 662,1567C683,1590 688,1590 879,1590C1065,1590 1075,1589 1097,1568ZM622,1403C625,1305 625,1305 665,1298C715,1289 1030,1289 1090,1298L1135,1305L1138,1403C1140,1491 1142,1500 1160,1500C1191,1500 1202,1465 1198,1374C1193,1249 1185,1245 938,1230C933,1230 930,1219 930,1205C930,1182 927,1180 880,1180C833,1180 830,1182 830,1205C830,1219 827,1230 823,1230C575,1245 567,1249 562,1374C558,1465 569,1500 600,1500C618,1500 620,1491 622,1403ZM510,1348C510,1321 486,1292 315,1120C60,863 64,893 265,690C345,610 410,542 410,538C410,535 400,530 388,526C369,521 343,542 232,653C159,725 92,797 84,812C67,844 66,913 81,943C90,961 499,1380 507,1380C509,1380 510,1366 510,1348ZM1676,948C1694,913 1694,847 1676,812C1668,797 1601,725 1528,653C1417,542 1391,521 1373,526C1360,530 1350,535 1350,538C1350,542 1415,610 1495,690C1696,893 1700,863 1445,1120C1268,1298 1250,1320 1250,1351C1250,1384 1255,1380 1456,1180C1569,1067 1668,963 1676,948ZM830,1106C830,1051 830,1051 777,1036C636,995 520,847 520,708C520,670 520,670 467,670C374,670 374,670 404,859C419,948 437,1034 444,1048C460,1079 494,1112 528,1129C549,1140 682,1155 788,1159C830,1160 830,1160 830,1106ZM1098,1150C1215,1139 1238,1133 1278,1096C1318,1060 1329,1028 1356,859C1386,670 1386,670 1293,670C1241,670 1240,671 1240,700C1240,848 1120,1003 975,1039C930,1050 930,1050 930,1105C930,1169 917,1166 1098,1150ZM978,985C1046,964 1129,888 1161,818C1192,745 1192,645 1161,572C1114,465 998,390 880,390C762,390 646,465 599,572C568,645 568,745 599,818C627,881 711,962 772,983C828,1003 914,1004 978,985ZM620,450C648,421 695,387 727,372C778,348 797,345 885,345C975,345 990,348 1039,374C1069,389 1115,424 1142,452C1190,502 1190,502 1261,489C1331,477 1331,477 1324,436C1315,381 1295,343 1252,298C1218,263 1212,260 1158,260C1111,260 1098,264 1088,280C1076,299 1064,300 880,300C696,300 684,299 672,280C662,264 649,260 602,260C548,260 542,263 508,298C465,343 445,381 436,436C429,477 429,477 482,487C566,503 569,503 620,450ZM781,175C832,126 843,120 880,120C917,120 928,126 981,177C1037,230 1042,233 1057,217C1073,201 1071,197 1025,149C964,87 933,70 880,70C827,70 796,87 736,149C694,191 689,201 700,215C707,223 715,230 718,230C721,230 749,205 781,175Z" style="fill:rgb(87,39,26);fill-rule:nonzero;"/>
    </g>
</svg>
