<?xml version="1.0" encoding="UTF-8" standalone="no"?>
<!DOCTYPE svg PUBLIC "-//W3C//DTD SVG 1.1//EN" "http://www.w3.org/Graphics/SVG/1.1/DTD/svg11.dtd">
<svg width="100%" height="100%" viewBox="0 0 122 122" version="1.1" xmlns="http://www.w3.org/2000/svg" xmlns:xlink="http://www.w3.org/1999/xlink" xml:space="preserve" xmlns:serif="http://www.serif.com/" style="fill-rule:evenodd;clip-rule:evenodd;stroke-linejoin:round;stroke-miterlimit:2;">
    <g transform="matrix(1.138362,0,0,1.138362,-77.408616,-76.270254)">
        <circle cx="121.341" cy="120.341" r="53.341" style="fill:rgb(237,212,173);"/>
    </g>
    <g transform="matrix(0.106566,0,0,0.106566,6.221393,6.159561)">
        <path d="M521.989,857.964C522.052,856.414 522.165,854.89 522.165,853.332C456.083,852.804 394.475,833.417 334.235,809.371C311.617,800.392 290.74,787.157 268.774,776.501C238.669,761.961 212.666,742.543 192.751,715.452C178.677,696.408 164.914,677.176 151.648,658.908C134.623,680.624 118.312,703.087 100.075,723.81C92.589,732.388 92.871,737.635 98.12,746.676C129.001,800.207 168.986,845.721 216.706,884.898C232.208,897.573 247.307,906.459 267.999,898.661C274.217,896.327 281.328,896.301 288.069,895.341C341.226,887.917 394.477,881.019 447.572,872.91C472.52,869.088 497.156,863.03 521.949,857.966L521.989,857.964ZM341.568,786.167C358.314,792.129 369.685,797.787 381.677,800.21C427.503,809.53 473.327,819.285 519.557,825.996C567.681,833.015 616.582,837.429 662.811,816.086C685.678,805.522 707.425,792.754 727.402,782.222C712.956,767.309 698.664,755.908 688.691,741.523C676.636,724.063 668.341,703.992 658.12,685.228C656.35,682.031 652.933,679.662 650.326,676.932C648.027,679.415 645.104,681.529 643.492,684.356C632.121,704.364 613.76,711.26 592.292,711.695C571.072,712.135 557.651,698.305 549.325,681.87C538.544,660.588 531.616,637.38 522.792,615.105C520.863,610.261 517.975,605.784 515.553,601.155C512.259,605.197 507.909,608.702 505.798,613.24C487.654,652.323 468.392,690.35 436.329,720.798C409.145,746.584 381.183,770.631 341.572,786.165L341.568,786.167ZM861.836,193.108C706.993,18.35 464.073,7.942 327.155,76.851C437.571,119.165 545.812,164.929 619.847,259.5C701.618,237.069 781.556,215.104 861.836,193.108ZM271.668,921.56C278.564,925.567 282.417,928.086 286.519,930.138C449.595,1012.033 609.875,1006.752 765.836,912.119C840.927,866.511 896.663,801.859 935.902,723.257C938.165,718.722 938.914,710.705 936.43,706.946C922.2,685.695 906.853,665.253 891.66,644.655C888.525,640.366 884.544,636.703 881.004,632.755C877.772,637.202 873.923,641.297 871.435,646.115C831.73,724.935 774.503,786.045 693.012,822.364C646.348,843.149 597.975,858.34 547.77,868.562C489.703,880.399 432.414,895.995 374.411,907.801C341.727,914.415 308.205,916.81 271.7,921.564L271.668,921.56ZM769.378,590.005C805.541,488.289 869.51,411.364 959.483,356.125C944.135,312.257 923.848,272.614 897.098,236.482C893.84,232.132 885.789,227.843 880.942,228.75C842.729,236.051 804.95,245.558 766.674,252.642C698.76,265.224 636.001,290.887 576.475,324.999C562.929,332.731 551.341,343.95 537.143,354.824C651.256,399.966 714.79,489.411 769.376,590.009L769.378,590.005ZM601.766,269.014C595.557,261.22 589.961,251.399 581.851,244.471C534.597,203.833 484.609,166.77 427.568,140.828C389.82,123.616 350.798,109.263 312.337,93.636C301.432,89.259 290.961,89.286 281.175,96.621C247.125,122.065 210.65,144.869 179.52,173.483C122.386,225.957 83.458,291.324 60.001,365.484C58.477,370.266 60.353,379.34 63.946,382.011C74.198,389.743 86.315,394.936 97.406,401.584C158.081,437.996 205.771,486.555 236.964,550.648C238.831,554.532 243.551,558.354 247.62,559.226C249.734,559.754 254.172,554.321 256.074,550.772C270.614,523.774 281.518,494.105 299.755,469.965C333.65,425.165 368.85,426.252 401.379,463.096C414.335,477.761 416.136,478.288 425.767,460.956C427.537,457.724 429.061,454.342 430.646,451.014C451.12,407.55 476.689,367.38 513.567,336.156C541.341,312.669 571.415,291.977 601.769,269.018L601.766,269.014ZM0.045,512.186C-3.68,236.054 223.083,-3.077 516.861,0.03C799.549,3.015 1024.046,233.041 1022.835,514.237C1021.558,790.276 802.035,1024.063 510.958,1024C216.806,1023.912 -3.031,785.336 0.045,512.186Z" style="fill:rgb(192,109,37);fill-rule:nonzero;"/>
    </g>
</svg>
