<?xml version="1.0" encoding="UTF-8" standalone="no"?>
<!DOCTYPE svg PUBLIC "-//W3C//DTD SVG 1.1//EN" "http://www.w3.org/Graphics/SVG/1.1/DTD/svg11.dtd">
<svg width="100%" height="100%" viewBox="0 0 109 110" version="1.1" xmlns="http://www.w3.org/2000/svg" xmlns:xlink="http://www.w3.org/1999/xlink" xml:space="preserve" xmlns:serif="http://www.serif.com/" style="fill-rule:evenodd;clip-rule:evenodd;stroke-linejoin:round;stroke-miterlimit:2;">
    <g transform="matrix(0.106576,0,0,0.106576,-0.000019,0.000027)">
        <path d="M794.153,678.78C803.722,675.645 811.333,673.091 818.944,670.643C848.953,661.013 874.521,646.102 882.162,612.612C890.519,576.11 898.161,539.391 887.225,500.061C877.501,519.663 886.142,546.411 862.528,558.651C860.943,550.602 859.578,543.677 858.178,536.75C853.335,567.226 842.055,593.756 818.849,615.16C820.654,616.463 822.486,617.705 824.256,618.947C835.812,608.385 847.369,597.822 858.864,587.26C860.537,588.281 862.157,589.312 863.804,590.272C857.34,607.731 850.88,625.159 844.418,642.586C842.895,642.146 841.345,641.793 839.821,641.406L839.821,624.692C825.469,641.654 811.148,658.647 794.155,678.778L794.153,678.78ZM251.313,711.769C249.076,712.826 246.875,713.882 244.629,714.966C233.073,696.792 221.548,678.65 210.053,660.508C211.453,659.39 212.853,658.306 214.245,657.153C232.884,666.162 251.554,675.202 270.318,684.304C278.455,672.189 269.878,669.828 262.771,666.721C234.625,654.543 212.63,636.432 200.639,605.273C199.3,614.157 197.874,623.043 195.796,636.276C184.674,619.997 175.541,606.609 166.221,592.94C166.221,596.603 165.517,600.205 166.309,603.471C175.815,643.297 187.869,681.197 214.368,714.686C230.678,735.282 252.423,733.667 271.591,743.826C275.378,724.44 261.774,698.594 241.302,685.733C245.089,695.581 248.171,703.658 251.274,711.766L251.313,711.769ZM458.203,902.011L458.203,948.921C378.272,923.85 363.857,921.645 350.343,932.207C351.224,932.823 351.99,933.634 352.923,933.854C355.468,934.47 358.083,935.439 360.655,935.377C391.255,934.197 415.113,948.953 435.616,969.053C446.614,979.77 457.922,984.182 472.926,985.02C500.047,986.508 497.872,985.918 513.653,963.274C533.287,935.159 523.377,904.467 529.528,875.389C527.881,874.773 526.208,874.209 524.588,873.584C515.949,891.354 507.347,909.092 498.027,928.291C485.227,919.837 473.64,912.199 458.2,902.009L458.203,902.011ZM707.969,453.452C652.051,485.295 647.981,597.255 671.342,649.757C686.129,619.436 701.072,588.681 715.983,557.895C716.864,556.16 717.445,554.135 717.445,552.242C717.533,535.032 717.508,517.79 717.508,499.275C711.388,506.919 704.584,515.336 696.601,525.308C696.601,517.726 695.703,511.514 696.777,505.674C700.009,488.526 704.016,471.564 707.961,453.453L707.969,453.452ZM316.035,504.959C331.257,518.939 349.773,530.712 347.66,555.658C339.611,552.928 331.972,550.374 325.262,548.076C329.832,558.576 336.694,568.891 338.496,580.012C341.446,598.713 344.088,615.769 356.39,632.264C374.564,656.589 388.046,684.361 403.548,710.705C404.948,710.705 406.375,710.642 407.837,710.617C405.97,681.881 404.2,653.145 402.184,624.44C399.886,591.137 388.514,561.501 369.161,534.132C356.051,515.555 339.649,505.614 316.039,504.961L316.035,504.959ZM452.136,623.571C473.137,648.362 494.79,673.897 515.634,698.471C523.744,691.074 530.11,684.181 537.473,678.651C558.504,663.025 558.66,663.242 571.552,685.828C571.992,686.532 573.384,686.726 575.127,687.572C603.273,657.22 591.467,613.604 612.437,580.954C610.632,579.712 608.897,578.471 607.127,577.229C587.307,599.037 567.488,620.845 546.984,643.367C535.521,623.486 524.803,604.97 514.086,586.424C512.378,586.952 510.669,587.357 509.023,587.851C506.821,603.571 504.611,619.289 502.128,637.401C483.768,632.302 466.061,627.429 452.143,623.576L452.136,623.571ZM532.262,344.078C550.715,331.714 564.601,320.592 580.102,312.515C603.868,300.15 622.227,284.338 631.081,257.933C635.185,245.755 644.036,235.317 650.062,223.73C670.441,184.711 671.715,145.041 652.519,101.487C645.87,132.087 641.864,161.102 611.76,177.877C612.464,166.445 614.279,156.784 613.442,147.309C612.561,137.585 609.189,128.11 606.917,118.48C596.665,152.838 587.811,186.731 555.752,208.478C553.859,194.405 552.177,182.351 550.847,172.566C532.425,205.123 513.599,238.3 494.805,271.479C496.417,272.633 498.037,273.716 499.622,274.834C532.116,224.601 588.78,208.633 635.752,174.305C622.673,219.972 605.804,253.989 591.39,263.557L591.39,234.48C568.278,263.247 546.625,287.882 534.416,318.762C531.651,325.754 532.954,334.295 532.276,344.08L532.262,344.078ZM616.029,758.494C599.844,840.103 558.34,910.653 525.721,988.66C557.47,983.817 586.05,980.118 614.289,974.65C620.374,973.47 626.746,966.76 630.412,961.012C641.876,943.18 650.294,923.173 663.062,906.491C685.398,877.289 713.513,857.407 753.495,864.894C755.608,865.246 758.127,863.679 764.492,861.882C756.479,857.039 751.817,852.065 746.629,851.413C711.929,847.248 681.733,860.452 650.046,880.241C656.254,862.347 661.415,847.591 666.728,832.338C650.263,841.126 634.948,849.331 616.029,859.396L616.029,758.494ZM448.864,673.592C455.354,679.404 463.775,684.03 468.094,691.206C491.114,729.261 497.916,771.542 492.666,814.754C489.742,838.612 496.893,857.313 508.292,878.842C517.954,866.26 526.403,855.326 534.854,844.328C536.069,844.944 537.276,845.631 538.491,846.257L538.491,892.421C547.469,877.851 555.484,863.344 560.455,847.811C573.782,806.401 586.239,764.617 598.044,722.741C604.446,700.063 615.751,683.629 640.666,679.932C642.436,679.668 644.021,678.039 648.838,675.177C600.313,657.096 588.975,700.216 564.588,718.917C560.705,709.007 556.601,698.476 551.105,684.372C537.871,700.899 526.346,715.314 514.447,730.162C496.492,706.491 487.016,673.623 448.868,673.592L448.864,673.592ZM218.237,323.202C244.984,369.427 258.964,390.583 288.756,396.237C283.974,378.126 278.971,359.175 274,340.195C291.987,391.64 319.729,418.449 364.463,422.922C364.287,420.782 364.401,418.757 363.847,416.899C352.632,380.149 341.541,343.398 329.861,306.803C328.434,302.294 324.366,298.288 320.634,294.967C300.938,277.415 281.833,259.584 274.719,232.743C274.103,230.691 271.989,229.106 270.589,227.274C269.286,227.45 268.044,227.714 266.767,227.89L266.767,275.545C237.752,250.91 232.223,242.647 216.472,201.981C215.045,201.893 213.645,201.805 212.219,201.629C211.259,217.038 210.29,232.447 209.392,247.079C188.578,229.775 187.056,226.233 179.352,175.193C144.154,203.866 177.864,330.77 228.063,358.294C224.77,346.582 221.511,334.933 218.247,323.221L218.237,323.202ZM332.662,629.745C307.778,584.203 270.624,544.874 256.085,545.558C264.38,569.882 273.015,595.045 282.926,624.123C272.302,618.038 266.275,614.586 262.515,612.443C276.868,664.633 291.375,717.476 307.001,774.45C300.722,769.818 296.936,768.427 295.507,765.75C288.11,751.833 276.34,751.678 263.168,754.07C243.007,757.707 227.722,747.421 213.525,735.399C210.663,733.039 210.355,727.694 208.867,723.719C206.63,725.489 204.358,727.259 202.122,729.091C203.549,736.55 205.01,744.002 206.437,751.458C176.583,756.24 165.151,746.826 144.896,703.523C143.152,715.172 141.382,726.884 139.524,739.311C112.559,729.774 108.52,703.803 100.443,678.64C86.215,721.759 127.875,783.549 173.572,793.8C172.022,789.265 170.499,784.636 168.94,780.007C191.338,811.663 224.454,800.417 255.333,805.108C250.234,797.781 246.756,792.651 243.248,787.556C244.129,786.561 244.895,785.627 245.767,784.668C263.661,800.045 284.133,807.128 307.339,807.501C317.622,807.677 328.215,809.676 338.001,812.846C370.279,823.408 386.775,850.186 402.959,877.4C413.087,894.361 412.838,922.01 442.941,919.059L442.941,875.412C458.66,885.508 472.515,894.455 487.893,904.334C489.698,899.086 494.233,892.746 492.648,889.049C483.453,867.489 475.034,845.06 462.11,825.831C442.632,796.815 419.892,769.974 397.928,742.761C392.028,735.364 384.477,728.751 376.493,723.718C364.843,716.383 352.075,710.825 339.804,704.55C339.892,703.211 339.98,701.847 340.156,700.543C352.272,701.661 364.388,702.78 375.85,703.836C365.536,667.893 349.568,636.982 303.188,636.423C304.183,634.75 305.117,633.13 306.076,631.456C315.085,630.928 324.094,630.338 332.699,629.748L332.662,629.745ZM686.787,835.868C710.117,839.875 725.526,829.378 739.474,814.029C746.801,805.954 755.721,799.024 764.731,792.811C788.807,776.129 814.125,761.155 837.425,743.479C852.771,731.768 865.446,716.607 879.301,703C880.094,703.352 880.824,703.704 881.564,704.118C874.792,716.669 868.051,729.157 861.216,741.863C897.315,739.344 917.352,716.451 933.444,687.342C933.884,691.719 934.404,696.069 934.932,700.762C964.661,668.982 978.517,624.341 968.575,588.522C957.236,613.281 962.235,645.434 929.806,658.451L929.806,621.917C911.073,644.688 896.41,668.796 867.053,681.098C868.171,672.618 869.043,666.062 869.378,663.514C848.316,673.953 826.632,686.037 803.83,695.512C790.037,701.227 780.562,708.747 777.704,723.471C776.339,730.401 775.282,737.42 773.697,746.771C757.387,697.315 778.452,655.127 792.896,609.957C786.961,613.902 783.421,616.297 779.817,618.657C778.76,618.129 777.704,617.539 776.682,616.949C785.691,589.145 794.731,561.31 805.044,529.437C794.855,537.512 787.709,543.168 777.241,551.401C784.074,524.312 790.009,500.64 796.253,475.818C760.651,497.409 750.4,535.713 729.027,569.326C739.713,566.719 747.542,564.791 755.401,562.862C739.993,576.532 727.474,591.07 715.637,606.106C703.863,621.017 693.518,636.768 694.171,656.153C706.535,652.551 718.185,649.196 729.835,645.808C730.628,647.393 731.42,649.04 732.257,650.625C730.487,651.682 728.743,652.827 726.912,653.795C692.646,672.466 668.788,701.325 649.558,734.317C644.398,743.14 638.809,753.361 638.561,763.053C638.033,783.433 640.956,803.873 642.541,825.496C659.099,816.611 674.725,808.192 691.842,799.028C689.852,813.412 688.267,825.092 686.779,835.872L686.787,835.868ZM544.778,407.477C526.947,378.058 508.089,347.24 489.481,316.268C469.754,283.4 453.476,249.508 461.77,207.477C441.577,219.965 440.49,239.723 435.643,259.512C396.904,221.488 411.567,174.982 411.972,131.366C410.228,131.102 408.458,130.926 406.724,130.662C399.116,148.369 391.533,166.045 383.58,184.592C369.383,145.543 361.74,106.089 371.837,64.181C348.6,97.701 332.943,134.514 330.116,174.868C326.726,222.213 339,268.158 350.961,313.484C358.666,342.499 369.632,370.613 379.107,399.131C380.63,398.779 382.18,398.427 383.704,398.013C380.446,361.294 392.619,329.017 410.079,298.106C397.373,359.896 396.969,420.443 421.045,482.108C428.874,456.759 435.676,434.733 442.449,412.645C443.726,413.085 444.968,413.438 446.209,413.825C443.197,430.662 438.469,447.407 437.482,464.338C434.717,509.289 441.304,552.844 458.793,594.876C464.358,608.265 471.593,615.068 485.323,615.659C490.668,596.149 495.855,577.044 502.068,554.304C520.863,575.149 537.39,593.509 554.103,612.024C565.473,599.225 578.987,588.88 581.472,566.575C585.822,527.929 595.98,490.246 623.411,458.839C637.763,442.405 646.71,421.032 656.683,401.182C662.495,389.657 665.471,376.702 669.699,364.4C671.038,364.752 672.402,365.016 673.741,365.281C670.668,385.132 667.586,404.983 664.577,424.462C714.158,397.062 737.177,347.729 760.663,298.708C762.468,299.589 764.238,300.452 766.008,301.288C754.078,331.732 742.181,362.146 731.121,390.446C765.169,375.006 792.352,348.104 806.859,308.65C825.281,258.572 823.759,206.972 819.503,155.092C819.415,153.163 816.896,151.429 814.404,148.1C810.151,186.124 799.337,219.241 770.974,246.082C768.209,229.368 765.849,215.171 763.515,200.819C752.331,222.814 744.409,244.777 731.113,262.857C717.973,280.751 702.377,299.296 675.506,299.918C680.138,282.738 684.546,266.398 688.957,250.088C680.538,256.331 677.153,265.342 670.691,270.499C646.708,289.635 621.452,307.094 597.221,325.858C569.231,347.511 536.301,366.461 544.782,407.499L544.778,407.477ZM0.043,511.442C-3.594,236.014 224.865,-8.473 527.134,0.225C804.488,8.238 1026.732,236.448 1022.694,519.768C1018.846,792.742 800.357,1025.269 508.588,1023.995C215.546,1022.692 -3.436,784.51 0.043,511.442Z" style="fill:rgb(126,174,79);fill-rule:nonzero;"/>
    </g>
</svg>
