<?xml version="1.0" encoding="UTF-8" standalone="no"?>
<!DOCTYPE svg PUBLIC "-//W3C//DTD SVG 1.1//EN" "http://www.w3.org/Graphics/SVG/1.1/DTD/svg11.dtd">
<svg width="100%" height="100%" viewBox="0 0 109 110" version="1.1" xmlns="http://www.w3.org/2000/svg" xmlns:xlink="http://www.w3.org/1999/xlink" xml:space="preserve" xmlns:serif="http://www.serif.com/" style="fill-rule:evenodd;clip-rule:evenodd;stroke-linejoin:round;stroke-miterlimit:2;">
    <g transform="matrix(1.012354,0,0,1.012354,-68.340104,-67.280756)">
        <circle cx="121.341" cy="120.341" r="53.341" style="fill:rgb(237,212,173);"/>
    </g>
    <g transform="matrix(0.106537,0,0,0.106537,-0.000049,-0)">
        <path d="M942.758,585.043C923.899,581.406 905.383,575.909 886.525,572.087C881.558,571.065 875.31,571.735 870.805,574.016C829.484,594.677 784.343,599.555 739.759,607.601C634.376,626.707 528.154,619.096 422.243,618.63C389.621,618.542 356.907,611.171 324.472,605.674C296.417,600.918 268.704,593.93 240.743,588.338C236.366,587.457 231.454,588.162 226.98,588.954C189.139,596.008 151.454,603.711 113.581,610.267C99.756,612.689 85.527,613.402 71.484,613.464C44.579,613.552 47.842,618.096 44.175,590.163C80.369,584.324 117.185,580.594 153.131,573.915C176.122,568.569 220.083,558.381 227.073,557.013C227.073,557.013 246.025,561.117 265.38,565.027C279.951,567.757 294.428,571.024 309.217,572.698C344.51,576.74 379.71,583.137 415.066,584.379C472.294,586.396 529.645,586.026 586.842,584.643C613.809,583.938 640.869,579.482 667.588,575.075C713.786,567.528 759.984,559.603 805.81,549.91C829.639,544.881 852.443,535.277 875.992,528.846C882.21,527.137 889.631,528.758 896.248,530.061C918.214,534.376 940.023,539.382 961.926,543.887C969.042,545.375 976.311,546.159 984.295,547.366C984.327,592.787 984.295,593.068 942.757,585.052L942.758,585.043ZM958.292,637.65C937.694,632.551 917.469,625.813 897.026,620.128C892.984,618.974 888.299,619.335 884.164,620.159C863.939,624.104 843.838,628.517 823.613,632.493C821.006,633.021 818.047,631.965 814.727,628.583C825.881,624.514 837.189,620.754 848.187,616.373C859.776,611.741 871.023,606.338 882.58,601.709C886.156,600.309 890.814,598.917 894.044,600.097C919.707,609.107 945.12,618.738 970.596,628.183C971.477,629.671 972.305,631.133 973.141,632.657C968.174,634.427 962.577,638.716 958.29,637.659L958.292,637.65ZM916.876,758.763C915.793,760.815 911.627,762.242 908.888,762.242C871.668,762.506 834.449,762.418 796.08,762.418L796.08,684.871L955.584,684.871C942.908,709.259 930.108,734.145 916.873,758.782L916.876,758.763ZM820.469,854.597C775.731,853.32 730.869,855.777 686.192,853.716C641.485,851.638 596.872,846.415 552.35,841.537C510.44,836.94 468.187,833.4 426.959,825.009C383.184,816.124 342.951,829.703 301.444,836.846C266.585,842.808 231.572,848.155 196.714,854.151C179.626,857.04 173.288,843.837 164.061,834.516C193.296,830.474 222.22,828.025 250.43,822.182C292.093,813.543 333.165,802.143 374.578,792.667C383.712,790.589 393.747,790.087 402.974,791.452C432.861,795.864 462.563,801.581 492.357,806.52C522.586,811.619 552.66,817.58 583.045,820.873C611.193,823.982 639.682,824.228 668.047,825.505C731.426,828.429 794.836,831.221 858.898,834.144C850.417,849.15 838.424,855.084 820.467,854.587L820.469,854.597ZM791.078,888.576C764.453,889.369 737.797,889.192 711.14,888.638C689.082,888.11 667.024,887.238 645.027,885.38C615.854,882.923 586.743,879.664 557.664,876.06C550.671,875.179 544.056,871.745 537.252,869.534C537.428,868.046 537.604,866.549 537.78,865.095C628.996,869.534 720.181,873.949 811.428,878.391C811.868,879.325 812.309,880.223 812.767,881.183C805.528,883.763 798.351,888.325 791.051,888.581L791.078,888.576ZM213.09,880.443C251.335,873.547 288.803,859.472 328.571,866.991C290.357,874.45 253.821,898.959 213.09,880.443ZM616.354,699.596C624.403,695.122 633.627,690.869 642.513,690.307C686.505,687.824 730.529,686.608 775.453,684.9L775.453,765.429C746.871,765.429 719.22,765.517 691.538,765.367C667.522,765.279 663.888,768.599 662.521,792.987C662.345,796.034 662.169,799.046 661.816,805.383C629.039,801.966 597.35,798.637 567.183,795.441C562.894,749.864 580.698,719.604 616.364,699.596L616.354,699.596ZM114.273,653.241C108.584,653.946 102.933,654.606 97.216,655.293C90.039,656.174 82.894,657.433 75.655,657.16C73.885,657.072 72.176,656.808 70.529,656.544C65.403,655.522 60.835,653.374 55.896,650.978C56.424,649.305 56.918,647.684 57.446,646.011C68.91,644.611 79.815,643.369 91.372,642.841C103.085,642.313 114.798,641.414 126.479,640.049C148.165,637.53 169.57,632.995 190.883,628.274C201.85,625.791 212.754,623.307 223.691,621.035C230.12,619.67 235.404,617.68 241.99,619.018C248.762,620.418 255.194,623.025 261.718,625.262C287.877,634.21 315.901,637.813 343.428,639.181C397.735,641.849 452.135,643.496 506.473,645.583C522.07,646.199 537.79,645.935 553.417,645.495C558.049,645.319 562.738,647.732 567.367,648.947C566.927,651.994 566.486,655.006 566.064,657.988C513.031,657.988 460.029,659.881 407.026,657.283C382.886,656.103 358.684,655.61 334.638,653.619C322.335,652.562 310.063,651.162 297.884,649.11C291.887,648.115 285.924,646.935 279.989,645.631C274.582,644.354 267.624,640.999 262.156,640.999C238.172,633.918 214.715,637.054 190.482,642.021C165.223,647.085 139.841,650.282 114.272,653.298L114.273,653.241ZM178.863,173.515C199.119,149.282 223.384,136.948 255.85,142.012C268.153,143.905 280.983,142.364 293.536,142.364C299.595,161.999 311.369,174.923 331.873,176.912C354.087,179.026 372.293,172.808 381.427,150.007C382.642,147.057 385.778,142.953 388.323,142.768C409.543,141.033 430.824,140.126 453.97,138.823L453.97,213.666L141.704,213.666C155.902,198.443 168.018,186.544 178.861,173.558L178.863,173.515ZM320.904,77.525C334.885,71.686 349.052,66.279 362.97,60.748C362.97,88.74 363.146,115.365 362.882,141.929C362.794,153.144 354.339,157.246 345.143,157.836C335.201,158.452 320.661,162.275 318.362,148.64C314.76,127.234 315.227,105.145 314.54,83.335C314.452,81.442 318.327,78.615 320.942,77.523L320.904,77.525ZM495.886,290.68C500.421,304.754 510.551,317.181 522.574,325.6C535.312,334.548 551.033,335.822 566.163,335.418C582.256,334.978 599.312,334.713 613.48,326.129C625.161,319.048 633.674,307.892 638.117,295.061C652.564,301.745 671.453,304.848 679.282,315.815C680.216,317.118 680.894,318.642 681.457,320.227L681.457,357.074C681.425,357.69 681.394,358.377 681.394,358.967C681.457,366.884 681.457,374.811 681.457,382.796L681.457,386.988C681.425,394.597 681.425,402.242 681.425,410.165C677.418,410.605 674.432,411.283 671.421,411.283C607.203,411.315 542.923,411.107 478.675,411.459C469.199,411.491 464.725,408.852 462.83,399.063C456.243,364.609 432.725,353.673 409.113,351.125C368.414,346.748 346.23,365.012 334.953,389.338C331.289,397.511 328.269,405.587 328.181,410.434L227.209,410.434C231.375,404.498 235.382,399.032 239.17,394.061C254.735,376.756 270.145,359.296 286.891,343.171C326.844,304.584 377.796,287.217 429.959,273.112C440.46,270.285 451.614,269.977 462.549,268.885C484.887,266.675 488.895,268.947 495.885,290.632L495.886,290.68ZM473.394,136.442C503.437,139.674 533.294,139.11 560.882,146.726C593.161,155.674 605.899,179.814 606.241,213.926C606.417,234.462 608.073,254.936 608.293,275.472C608.469,287.992 601.027,300.203 590.554,306.851C579.183,314.055 560.387,313.033 547.866,309.925C542.582,308.586 537.365,306.631 533.171,303.153C526.927,297.966 525.773,290.508 524.998,282.834C524.064,273.793 523.915,264.69 523.325,255.649C521.273,224.737 511.581,215.323 480.73,214.08C478.678,213.992 476.661,213.464 473.394,213.085L473.394,136.442ZM711.065,325.958C732.254,340.218 753.039,353.639 770.778,370.509C780.006,380.855 790.196,393.996 800.883,410.432L711.065,410.432L711.065,325.958ZM185.207,489.718C192.261,473.905 198.379,459.333 205.37,445.073C206.612,442.466 211.121,439.851 214.133,439.851C270.305,439.499 326.507,439.675 383.423,439.675L383.423,489.757L185.207,489.718ZM819.276,441.438C829.932,461.073 840.713,484.063 851.214,511.062C811.261,521.346 772.767,531.318 732.566,541.695C718.771,495.745 689.754,468.685 639.765,475.147C605.528,479.621 594.281,505.687 582.32,556.98C533.637,556.98 485.326,557.42 437.077,556.804C408.183,556.452 379.073,556.628 350.428,553.14C339.398,551.837 328.401,550.005 317.434,548.05C292.393,542.546 237.961,533.852 231.934,530.776C227.707,528.601 223.7,530.776 223.7,530.776C216.487,533.259 182.255,542.334 166.224,546.528C166.048,545.004 165.872,543.578 165.784,542.177C167.184,536.021 168.734,529.937 170.504,523.94C174.291,520.364 180.291,518.691 188.958,518.691C258.52,518.722 328.05,518.691 397.612,518.691L414.761,518.691L414.761,439.592L431.786,439.592C557.208,439.592 682.63,439.768 808.052,439.24C812.834,439.209 816.313,440.033 819.299,441.38L819.276,441.438ZM527.195,0.213C225.337,-8.241 -0.403,236.206 0.001,512.029C0.441,785.21 217.384,1023.782 511.537,1024C802.8,1024.176 1024.41,789.84 1023.105,512.775C1025.095,234.436 804.448,7.949 527.196,0.213L527.195,0.213Z" style="fill:rgb(115,165,190);fill-rule:nonzero;"/>
    </g>
</svg>
