<?xml version="1.0" encoding="UTF-8" standalone="no"?>
<!DOCTYPE svg PUBLIC "-//W3C//DTD SVG 1.1//EN" "http://www.w3.org/Graphics/SVG/1.1/DTD/svg11.dtd">
<svg width="100%" height="100%" viewBox="0 0 109 110" version="1.1" xmlns="http://www.w3.org/2000/svg" xmlns:xlink="http://www.w3.org/1999/xlink" xml:space="preserve" xmlns:serif="http://www.serif.com/" style="fill-rule:evenodd;clip-rule:evenodd;stroke-linejoin:round;stroke-miterlimit:2;">
    <g transform="matrix(1.012354,0,0,1.012354,-68.251647,-67.26514)">
        <circle cx="121.341" cy="120.341" r="53.341" style="fill:rgb(237,212,173);"/>
    </g>
    <g transform="matrix(0.106568,0,0,0.106568,-0.000071,-0.000031)">
        <path d="M570.699,492.638C590.645,509.478 610.125,526.565 641.94,516.002C625.318,499.256 601.799,488.848 603.912,462.75C575.018,466.634 548.175,469.619 528.694,451.099C527.232,449.699 524.907,449.611 523.445,451.011C509.65,464.309 495.141,470.211 462.053,467.974C452.173,487.051 441.796,506.996 431.419,527.005C456.896,534.676 467.894,517.156 479.699,501.467C481.469,499.107 485.01,499.107 486.877,501.379C491.536,506.971 495.7,512.16 500.36,516.913C514.154,531.049 535.934,529.185 547.678,513.249C552.707,506.415 558.428,500.106 564.331,493.241C565.978,491.348 568.805,491.101 570.698,492.713L570.699,492.638ZM432.039,437.752C449.096,451.36 491.287,452.043 521.051,419.359C522.856,417.404 525.771,417.404 527.577,419.328C554.607,448.626 608.201,452.385 628.085,425.669C619.419,414.235 607.952,404.169 603.074,391.524C595.958,373.069 582.756,368.658 566.569,369.496C529.814,371.328 493.091,374.56 463.421,376.709C450.776,401.377 441.487,419.429 432.041,437.759L432.039,437.752ZM804.026,167.679C799.306,162.333 799.306,162.333 788.989,154.91C759.1,136.455 730.859,130.21 696.621,120.797C649.365,107.81 600.059,109.736 551.281,110.296C530.869,110.472 510.208,110.472 490.045,113.185C457.547,117.5 425.049,122.63 393.11,129.9C334.701,143.167 276.851,158.919 225.09,190.733C219.683,194.053 208.5,202.073 211.731,205.304C213.994,212.64 238.605,203.375 250.007,198.963C335.508,165.501 424.737,151.987 515.893,148.817C542.177,147.883 568.524,149.169 594.9,148.553C658.964,147.214 722.003,153.617 783.674,172.041C800.855,175.705 807.721,177.413 804.024,167.664L804.026,167.679ZM154.845,719.225C155.779,711.986 137.104,712.884 140.988,696.576C143.128,689.028 152.235,683.248 159.008,677.438C162.02,674.893 166.591,674.144 170.504,672.744C213.161,657.769 256.191,649.069 299.875,668.147C326.78,679.891 328.893,686.881 314.477,709.841C315.816,710.457 317.119,711.461 318.484,711.55C352.069,714.474 382.3,678.492 371.984,642.453C365.185,618.561 353.653,591.407 333.553,575.562C329.608,572.453 325.539,579.411 314.663,572.453C307.829,568.076 299.625,562.076 308.445,548.903C316.028,538.061 317.085,533.4 309.238,526.938C297.028,516.778 284.166,505.283 269.595,500.375C233.897,488.413 197.733,489.811 163.06,506.778C144.574,515.819 132.8,530.608 126.679,549.653C125.34,553.783 131.435,557.447 135.002,563.386C139.476,570.845 139.784,577.926 138.172,580.225C137.054,588.363 133.601,592.653 126.707,598.338C122.762,601.57 109.122,603.56 106.637,607.659C101.855,615.524 98.843,624.498 94.582,632.701C80.166,660.663 83.086,685.207 104.897,701.829C115.057,709.561 127.018,715.251 138.825,720.19C155.229,724.479 153.675,722.119 154.856,719.23L154.845,719.225ZM880.34,686.978C892.737,685.269 906.127,687.33 913.739,681.606C934.182,666.351 944.684,644.603 944.715,618.008C944.803,589.891 926.726,572.306 910.197,553.447C904.851,547.388 900.566,544.127 890.748,544.623C875.898,545.239 869.964,538.035 868.752,528.126C867.66,526.849 866.33,512.063 881.024,509.639C858.717,476.986 822.087,465.926 782.474,469.032C747.615,471.762 712.166,480.248 703.001,523.465C726.551,528.899 721.891,558.449 696.07,560.965C690.724,563.607 685.444,568.363 682.555,573.486C673.327,589.766 664.007,606.202 656.985,623.476C640.643,663.554 668.978,702.235 710.952,698.662C715.364,698.222 719.837,698.6 726.766,698.6C724.371,693.659 723.692,689.934 721.482,687.944C701.846,670.452 702.468,665.264 726.704,654.421C775.295,632.672 825.471,634.941 875.616,646.653C883.287,648.423 891.213,657.745 894.661,665.512C896.246,669.026 887.113,677.287 880.338,686.981L880.34,686.978ZM671.898,438.057C671.81,439.95 671.722,441.818 671.546,443.711C679.904,445.666 688.291,449.118 696.68,449.303C723.058,449.919 749.528,450.976 775.719,448.775C809.397,446.01 842.455,439.765 873.523,424.324C909.563,406.335 931.84,381.263 931.559,338.543C931.471,323.848 923.853,316.702 914.596,309.09C883.714,283.675 847.736,269.788 809.055,260.343C741.263,243.628 673.315,229.864 602.977,233.872C590.891,234.577 578.681,234.577 566.595,233.784C557.337,233.168 552.832,234.224 545.313,230.71C541.244,229.345 539.782,224.748 540.214,222.537C552.144,216.76 561.868,217.499 574.017,216.416C695.931,205.2 816.539,223.224 929.318,289.428C910.056,248.106 884.921,217.161 843.413,205.915C766.021,184.882 687.479,170.776 606.794,170.496C519.708,170.32 432.498,168.197 347.277,189.976C284.673,205.946 223.033,224.773 165.897,256.246C134.704,273.365 120.971,300.053 116.001,330.065C147.753,310.678 179.567,288.277 213.992,271.097C248.447,253.853 327.704,231.391 325.467,245.931C325.291,250.898 297.939,260.284 283.679,265.877C225.27,288.588 170.558,317.203 122.774,358.648C110.067,369.678 103.853,380.334 112.957,401.834C121.873,422.898 138.619,438.401 160.399,445.268C178.512,450.957 197.805,454.464 216.758,455.396C259.011,457.571 301.389,457.818 343.736,458.1C352.376,458.131 361.01,454.771 369.648,452.974C369.679,451.081 369.71,449.249 369.736,447.346C363.087,445.822 356.438,443.365 349.697,442.934C324.096,441.384 298.278,441.816 272.864,438.892C255.684,436.875 238.906,430.939 222.16,425.967C210.882,422.647 210.416,413.664 216.814,406.425C223.895,398.437 232.939,391.822 242.011,385.951C272.117,366.409 307.846,364.731 341.307,355.876C402.046,339.751 464.091,329.902 526.695,329.747C588.024,329.571 649.416,334.591 710.684,338.788C754.273,341.738 795.501,355.193 834.99,373.398C852.171,381.324 852.637,393.811 836.822,404.715C832.251,407.885 826.507,409.814 821.008,410.897C805.784,414.032 790.498,416.577 775.151,419.07C745.387,423.914 715.53,428.484 685.766,433.393C681.01,434.186 676.507,436.467 671.878,438.052L671.898,438.057ZM196.617,863.012C194.873,865.249 195.402,868.446 197.7,870.093C219.2,885.69 240.265,902.094 262.789,916.106C273.321,922.597 287.582,927.539 299.513,926.389C328.313,923.685 357.239,918.78 385.076,911.104C400.455,906.85 413.659,895.072 428.012,886.963C433.014,884.171 443.546,881.934 443.516,882.921C443.428,887.8 444.221,893.671 441.587,898.082C428.041,922.844 403.124,932.351 378.89,942.387C371.994,945.214 364.909,947.548 356.583,950.56C359.78,954.602 360.995,957.086 362.95,958.548C378.981,970.634 397.716,972.374 416.606,971.006C434.346,969.729 453.701,967.747 468.056,956.124C472.283,952.742 476.599,948.198 479.241,943.448C481.601,939.159 482.535,933.817 486.568,930.679C488.497,929.155 490.919,928.416 493.305,927.729C494.547,927.377 495.824,927.024 497.092,926.584C497.532,926.496 498.052,926.32 498.554,926.408C499.082,926.496 499.514,926.848 499.893,927.201C500.853,928.082 501.945,929.068 502.033,930.336C502.121,931.041 501.857,931.675 501.681,932.326C501.241,932.326 499.101,940.807 498.854,941.677C498.149,944.134 497.639,946.582 496.864,949.013C495.059,955.01 493.139,960.975 490.963,966.877C487.238,977.193 488.946,985.612 500.47,986.14C516.656,986.845 532.998,985.347 549.216,983.78C559.532,982.785 562.7,974.707 562.172,965.574C561.644,955.819 560.525,946.187 559.75,936.494C559.398,932.055 558.852,927.514 558.852,923.041C558.884,918.875 559.645,914.595 561.776,910.955C562.833,909.15 568.425,901.946 570.91,903.813C571.438,904.165 571.615,904.694 571.905,905.213C574.952,912.109 577.718,919.225 581.195,925.842C584.735,932.614 588.619,939.264 592.349,945.913C600.707,960.732 618.727,968.002 635.162,967.661C648.708,967.397 662.13,961.575 669.741,949.983C669.829,949.807 670.005,949.543 669.653,949.023C662.167,943.431 654.398,938.117 646.973,932.432C639.61,926.743 632.93,920.47 627.772,912.704C625.165,908.82 629.014,907.332 632.246,906.055C639.547,903.043 646.32,907.297 652.659,910.714C675.464,922.956 701.498,922.303 726.572,920.469C733.97,919.941 741.422,919.941 748.816,919.13C755.219,918.425 761.306,915.836 766.308,911.803C771.654,907.514 777.027,903.384 782.463,899.313C793.493,891.052 804.522,882.784 815.521,874.521C819.405,871.659 823.253,868.744 827.078,865.855L847.987,850.227C849.88,848.827 850.506,846.282 849.511,844.203L834.07,815.372C832.89,810.088 835.532,808.784 836.774,808.353C842.49,815.469 848.207,822.582 854.483,830.412C856.746,833.177 861.097,833.274 863.369,830.5L889.466,798.872C868.837,778.646 847.865,759.819 844.168,730.956C842.151,715.67 844.52,699.763 845.383,684.198C846.088,670.248 838.919,661.021 826.493,659.187C813.848,657.382 800.581,659.627 787.626,660.341C776.939,660.869 774.298,668.329 773.086,677.336C770.972,693.336 769.237,709.429 765.944,725.213C759.392,756.499 745.221,783.529 716.544,799.902C705.98,805.961 693.18,812.237 681.747,811.678C642.88,809.846 625.232,782.598 619.33,755.133C611.254,717.477 607.865,678.611 605.411,640.054C603.174,605.475 604.883,570.615 604.883,538.242L571.422,522.024C569.308,521.029 566.702,521.408 564.87,522.958C531.564,550.858 518.608,551.914 489.435,529.017C487.85,527.775 485.551,527.493 483.746,528.489C477.035,532.434 470.231,536.098 463.986,540.544C460.657,542.878 456.747,546.885 456.377,550.486C452.74,586.991 446.839,623.622 447.492,660.127C448.02,692.718 441.653,723.321 433.79,754.048C422.636,797.264 374.48,827.96 335.271,815.626C306.626,806.647 281.616,792.076 278.664,756.969C277.176,739.384 274.375,721.923 272.851,704.369C271.856,692.688 266.889,683.771 255.826,680.602C240.198,676.19 205.681,685.111 201.456,693.713C200.179,696.417 200.117,699.772 199.906,702.878C198.788,721.209 198.321,739.633 196.524,757.87C193.759,786.453 181.61,810.438 159.21,828.737L178.535,847.751C180.27,849.495 183.194,849.213 184.621,847.223L211.464,810.376C222.214,832.745 208.945,846.912 196.614,862.975L196.617,863.012ZM0.04,512.577C-3.377,238.52 216.247,6.996 497.482,0.161C794.437,-7.078 1022.512,231.25 1022.822,510.651C1023.174,789.089 802.483,1023.907 511.337,1024C217.117,1024.088 -2.881,785.672 0.039,512.577L0.04,512.577Z" style="fill:rgb(154,95,135);fill-rule:nonzero;"/>
    </g>
</svg>
